<?xml version="1.0" encoding="utf-8" standalone="no"?>
<!DOCTYPE svg PUBLIC "-//W3C//DTD SVG 1.1//EN"
  "http://www.w3.org/Graphics/SVG/1.1/DTD/svg11.dtd">
<svg xmlns:xlink="http://www.w3.org/1999/xlink" width="864pt" height="432pt" viewBox="0 0 864 432" xmlns="http://www.w3.org/2000/svg" version="1.1">
 <metadata>
  <rdf:RDF xmlns:dc="http://purl.org/dc/elements/1.1/" xmlns:cc="http://creativecommons.org/ns#" xmlns:rdf="http://www.w3.org/1999/02/22-rdf-syntax-ns#">
   <cc:Work>
    <dc:type rdf:resource="http://purl.org/dc/dcmitype/StillImage"/>
    <dc:date>2025-06-19T21:24:22.360436</dc:date>
    <dc:format>image/svg+xml</dc:format>
    <dc:creator>
     <cc:Agent>
      <dc:title>Matplotlib v3.7.1, https://matplotlib.org/</dc:title>
     </cc:Agent>
    </dc:creator>
   </cc:Work>
  </rdf:RDF>
 </metadata>
 <defs>
  <style type="text/css">*{stroke-linejoin: round; stroke-linecap: butt}</style>
 </defs>
 <g id="figure_1">
  <g id="patch_1">
   <path d="M 0 432 
L 864 432 
L 864 0 
L 0 0 
z
" style="fill: #ffffff"/>
  </g>
  <g id="axes_1">
   <g id="patch_2">
    <path d="M 110.18 354.76 
L 835.093351 354.76 
L 835.093351 10.8 
L 110.18 10.8 
z
" style="fill: #ffffff"/>
   </g>
   <g id="PolyCollection_1">
    <defs>
     <path id="md4cebf1d92" d="M 143.130607 -85.139617 
L 143.130607 -85.139617 
L 145.426816 -85.139617 
L 147.723026 -85.139617 
L 150.019235 -85.139617 
L 152.315445 -85.139617 
L 154.611655 -85.139617 
L 156.907864 -85.139617 
L 159.204074 -85.139617 
L 161.500283 -85.139617 
L 163.796493 -85.139617 
L 166.092702 -85.139617 
L 168.388912 -85.139617 
L 170.685121 -85.139617 
L 172.981331 -85.139617 
L 175.27754 -85.139617 
L 177.57375 -85.139617 
L 179.869959 -85.139617 
L 182.166169 -85.139617 
L 184.462379 -85.139617 
L 186.758588 -85.139617 
L 189.054798 -85.139617 
L 191.351007 -85.139617 
L 193.647217 -85.139617 
L 195.943426 -85.139617 
L 198.239636 -85.139617 
L 200.535845 -85.139617 
L 202.832055 -85.139617 
L 205.128264 -85.139617 
L 207.424474 -85.139617 
L 209.720683 -85.139617 
L 212.016893 -85.139617 
L 214.313103 -85.139617 
L 216.609312 -85.139617 
L 218.905522 -85.139617 
L 221.201731 -85.139617 
L 223.497941 -85.139617 
L 225.79415 -85.139617 
L 228.09036 -85.139617 
L 230.386569 -85.139617 
L 232.682779 -85.139617 
L 234.978988 -85.139617 
L 237.275198 -85.139617 
L 239.571407 -85.139617 
L 241.867617 -85.139617 
L 244.163827 -85.139617 
L 246.460036 -85.139617 
L 248.756246 -85.139617 
L 251.052455 -85.139617 
L 253.348665 -85.139617 
L 255.644874 -85.139617 
L 257.941084 -85.139617 
L 260.237293 -85.139617 
L 262.533503 -85.139617 
L 264.829712 -85.139617 
L 267.125922 -85.139617 
L 269.422131 -85.139617 
L 271.718341 -85.139617 
L 274.014551 -85.139617 
L 276.31076 -85.139617 
L 278.60697 -85.139617 
L 280.903179 -85.139617 
L 283.199389 -85.139617 
L 285.495598 -85.139617 
L 287.791808 -85.139617 
L 290.088017 -85.139617 
L 292.384227 -85.139617 
L 294.680436 -85.139617 
L 296.976646 -85.139617 
L 299.272855 -85.139617 
L 301.569065 -85.139617 
L 303.865275 -85.139617 
L 306.161484 -85.139617 
L 308.457694 -85.139617 
L 310.753903 -85.139617 
L 313.050113 -85.139617 
L 315.346322 -85.139617 
L 317.642532 -85.139617 
L 319.938741 -85.139617 
L 322.234951 -85.139617 
L 324.53116 -85.139617 
L 326.82737 -85.139617 
L 329.123579 -85.139617 
L 331.419789 -85.139617 
L 333.715999 -85.139617 
L 336.012208 -85.139617 
L 338.308418 -85.139617 
L 340.604627 -85.139617 
L 342.900837 -85.139617 
L 345.197046 -85.139617 
L 347.493256 -85.139617 
L 349.789465 -85.139617 
L 352.085675 -85.139617 
L 354.381884 -85.139617 
L 356.678094 -85.139617 
L 358.974303 -85.139617 
L 361.270513 -85.139617 
L 363.566723 -85.139617 
L 365.862932 -85.139617 
L 368.159142 -85.139617 
L 370.455351 -85.139617 
L 372.751561 -85.139617 
L 375.04777 -85.139617 
L 377.34398 -85.139617 
L 379.640189 -85.139617 
L 381.936399 -85.139617 
L 384.232608 -85.139617 
L 386.528818 -85.139617 
L 388.825027 -85.139617 
L 391.121237 -85.139617 
L 393.417447 -85.139617 
L 395.713656 -85.139617 
L 398.009866 -85.139617 
L 400.306075 -85.139617 
L 402.602285 -85.139617 
L 404.898494 -85.139617 
L 407.194704 -85.139617 
L 409.490913 -85.139617 
L 411.787123 -85.139617 
L 414.083332 -85.139617 
L 416.379542 -85.139617 
L 418.675751 -85.139617 
L 420.971961 -85.139617 
L 423.268171 -85.139617 
L 425.56438 -85.139617 
L 427.86059 -85.139617 
L 430.156799 -85.139617 
L 432.453009 -85.139617 
L 434.749218 -85.139617 
L 437.045428 -85.139617 
L 439.341637 -85.139617 
L 441.637847 -85.139617 
L 443.934056 -85.139617 
L 446.230266 -85.139617 
L 448.526475 -85.139617 
L 450.822685 -85.139617 
L 453.118895 -85.139617 
L 455.415104 -85.139617 
L 457.711314 -85.139617 
L 460.007523 -85.139617 
L 462.303733 -85.139617 
L 464.599942 -85.139617 
L 466.896152 -85.139617 
L 469.192361 -85.139617 
L 471.488571 -85.139617 
L 473.78478 -85.139617 
L 476.08099 -85.139617 
L 478.377199 -85.139617 
L 480.673409 -85.139617 
L 482.969619 -85.139617 
L 485.265828 -85.139617 
L 487.562038 -85.139617 
L 489.858247 -85.139617 
L 492.154457 -85.139617 
L 494.450666 -85.139617 
L 496.746876 -85.139617 
L 499.043085 -85.139617 
L 501.339295 -85.139617 
L 503.635504 -85.139617 
L 505.931714 -85.139617 
L 508.227923 -85.139617 
L 510.524133 -85.139617 
L 512.820343 -85.139617 
L 515.116552 -85.139617 
L 517.412762 -85.139617 
L 519.708971 -85.139617 
L 522.005181 -85.139617 
L 524.30139 -85.139617 
L 526.5976 -85.139617 
L 528.893809 -85.139617 
L 531.190019 -85.139617 
L 533.486228 -85.139617 
L 535.782438 -85.139617 
L 538.078647 -85.139617 
L 540.374857 -85.139617 
L 542.671067 -85.139617 
L 544.967276 -85.139617 
L 547.263486 -85.139617 
L 549.559695 -85.139617 
L 551.855905 -85.139617 
L 554.152114 -85.139617 
L 556.448324 -85.139617 
L 558.744533 -85.139617 
L 561.040743 -85.139617 
L 563.336952 -85.139617 
L 565.633162 -85.139617 
L 567.929371 -85.139617 
L 570.225581 -85.139617 
L 572.521791 -85.139617 
L 574.818 -85.139617 
L 577.11421 -85.139617 
L 579.410419 -85.139617 
L 581.706629 -85.139617 
L 584.002838 -85.139617 
L 586.299048 -85.139617 
L 588.595257 -85.139617 
L 590.891467 -85.139617 
L 593.187676 -85.139617 
L 595.483886 -85.139617 
L 597.780095 -85.139617 
L 600.076305 -85.139617 
L 602.372515 -85.139617 
L 604.668724 -85.139617 
L 606.964934 -85.139617 
L 609.261143 -85.139617 
L 611.557353 -85.139617 
L 613.853562 -85.139617 
L 616.149772 -85.139617 
L 618.445981 -85.139617 
L 620.742191 -85.139617 
L 623.0384 -85.139617 
L 625.33461 -85.139617 
L 627.630819 -85.139617 
L 629.927029 -85.139617 
L 632.223239 -85.139617 
L 634.519448 -85.139617 
L 636.815658 -85.139617 
L 639.111867 -85.139617 
L 641.408077 -85.139617 
L 643.704286 -85.139617 
L 646.000496 -85.139617 
L 648.296705 -85.139617 
L 650.592915 -85.139617 
L 652.889124 -85.139617 
L 655.185334 -85.139617 
L 657.481543 -85.139617 
L 659.777753 -85.139617 
L 662.073963 -85.139617 
L 664.370172 -85.139617 
L 666.666382 -85.139617 
L 668.962591 -85.139617 
L 671.258801 -85.139617 
L 673.55501 -85.139617 
L 675.85122 -85.139617 
L 678.147429 -85.139617 
L 680.443639 -85.139617 
L 682.739848 -85.139617 
L 685.036058 -85.139617 
L 687.332267 -85.139617 
L 689.628477 -85.139617 
L 691.924687 -85.139617 
L 694.220896 -85.139617 
L 696.517106 -85.139617 
L 698.813315 -85.139617 
L 701.109525 -85.139617 
L 703.405734 -85.139617 
L 705.701944 -85.139617 
L 707.998153 -85.139617 
L 710.294363 -85.139617 
L 712.590572 -85.139617 
L 714.886782 -85.139617 
L 717.182991 -85.139617 
L 719.479201 -85.139617 
L 721.775411 -85.139617 
L 724.07162 -85.139617 
L 726.36783 -85.139617 
L 728.664039 -85.139617 
L 730.960249 -85.139617 
L 733.256458 -85.139617 
L 735.552668 -85.139617 
L 737.848877 -85.139617 
L 740.145087 -85.139617 
L 742.441296 -85.139617 
L 744.737506 -85.139617 
L 747.033715 -85.139617 
L 749.329925 -85.139617 
L 751.626135 -85.139617 
L 753.922344 -85.139617 
L 756.218554 -85.139617 
L 758.514763 -85.139617 
L 760.810973 -85.139617 
L 763.107182 -85.139617 
L 765.403392 -85.139617 
L 767.699601 -85.139617 
L 769.995811 -85.139617 
L 772.29202 -85.139617 
L 774.58823 -85.139617 
L 776.884439 -85.139617 
L 779.180649 -85.139617 
L 781.476859 -85.139617 
L 783.773068 -85.139617 
L 786.069278 -85.139617 
L 788.365487 -85.139617 
L 790.661697 -85.139617 
L 792.957906 -85.139617 
L 795.254116 -85.139617 
L 797.550325 -85.139617 
L 799.846535 -85.139617 
L 802.142744 -85.139617 
L 802.142744 -85.139617 
L 802.142744 -85.139617 
L 799.846535 -85.139617 
L 797.550325 -85.139617 
L 795.254116 -85.139617 
L 792.957906 -85.139617 
L 790.661697 -85.139617 
L 788.365487 -85.139617 
L 786.069278 -85.139617 
L 783.773068 -85.139617 
L 781.476859 -85.139617 
L 779.180649 -85.139617 
L 776.884439 -85.139617 
L 774.58823 -85.139617 
L 772.29202 -85.139617 
L 769.995811 -85.139617 
L 767.699601 -85.139617 
L 765.403392 -85.139617 
L 763.107182 -85.139617 
L 760.810973 -85.139617 
L 758.514763 -85.139617 
L 756.218554 -85.139617 
L 753.922344 -85.139617 
L 751.626135 -85.139617 
L 749.329925 -85.139617 
L 747.033715 -85.139617 
L 744.737506 -85.139617 
L 742.441296 -85.139617 
L 740.145087 -85.139617 
L 737.848877 -85.139617 
L 735.552668 -85.139617 
L 733.256458 -85.139617 
L 730.960249 -85.139617 
L 728.664039 -85.139617 
L 726.36783 -85.139617 
L 724.07162 -85.139617 
L 721.775411 -85.139617 
L 719.479201 -85.139617 
L 717.182991 -85.139617 
L 714.886782 -85.139617 
L 712.590572 -85.139617 
L 710.294363 -85.139617 
L 707.998153 -85.139617 
L 705.701944 -85.139617 
L 703.405734 -85.139617 
L 701.109525 -85.139617 
L 698.813315 -85.139617 
L 696.517106 -85.139617 
L 694.220896 -85.139617 
L 691.924687 -85.139617 
L 689.628477 -85.139617 
L 687.332267 -85.139617 
L 685.036058 -85.139617 
L 682.739848 -85.139617 
L 680.443639 -85.139617 
L 678.147429 -85.139617 
L 675.85122 -85.139617 
L 673.55501 -85.139617 
L 671.258801 -85.139617 
L 668.962591 -85.139617 
L 666.666382 -85.139617 
L 664.370172 -85.139617 
L 662.073963 -85.139617 
L 659.777753 -85.139617 
L 657.481543 -85.139617 
L 655.185334 -85.139617 
L 652.889124 -85.139617 
L 650.592915 -85.139617 
L 648.296705 -85.139617 
L 646.000496 -85.139617 
L 643.704286 -85.139617 
L 641.408077 -85.139617 
L 639.111867 -85.139617 
L 636.815658 -85.139617 
L 634.519448 -85.139617 
L 632.223239 -85.139617 
L 629.927029 -85.139617 
L 627.630819 -85.139617 
L 625.33461 -85.139617 
L 623.0384 -85.139617 
L 620.742191 -85.139617 
L 618.445981 -85.139617 
L 616.149772 -85.139617 
L 613.853562 -85.139617 
L 611.557353 -85.139617 
L 609.261143 -85.139617 
L 606.964934 -85.139617 
L 604.668724 -85.139617 
L 602.372515 -85.139617 
L 600.076305 -85.139617 
L 597.780095 -85.139617 
L 595.483886 -85.139617 
L 593.187676 -85.139617 
L 590.891467 -85.139617 
L 588.595257 -85.139617 
L 586.299048 -85.139617 
L 584.002838 -85.139617 
L 581.706629 -85.139617 
L 579.410419 -85.139617 
L 577.11421 -85.139617 
L 574.818 -85.139617 
L 572.521791 -85.139617 
L 570.225581 -85.139617 
L 567.929371 -85.139617 
L 565.633162 -85.139617 
L 563.336952 -85.139617 
L 561.040743 -85.139617 
L 558.744533 -85.139617 
L 556.448324 -85.139617 
L 554.152114 -85.139617 
L 551.855905 -85.139617 
L 549.559695 -85.139617 
L 547.263486 -85.139617 
L 544.967276 -85.139617 
L 542.671067 -85.139617 
L 540.374857 -85.139617 
L 538.078647 -85.139617 
L 535.782438 -85.139617 
L 533.486228 -85.139617 
L 531.190019 -85.139617 
L 528.893809 -85.139617 
L 526.5976 -85.139617 
L 524.30139 -85.139617 
L 522.005181 -85.139617 
L 519.708971 -85.139617 
L 517.412762 -85.139617 
L 515.116552 -85.139617 
L 512.820343 -85.139617 
L 510.524133 -85.139617 
L 508.227923 -85.139617 
L 505.931714 -85.139617 
L 503.635504 -85.139617 
L 501.339295 -85.139617 
L 499.043085 -85.139617 
L 496.746876 -85.139617 
L 494.450666 -85.139617 
L 492.154457 -85.139617 
L 489.858247 -85.139617 
L 487.562038 -85.139617 
L 485.265828 -85.139617 
L 482.969619 -85.139617 
L 480.673409 -85.139617 
L 478.377199 -85.139617 
L 476.08099 -85.139617 
L 473.78478 -85.139617 
L 471.488571 -85.139617 
L 469.192361 -85.139617 
L 466.896152 -85.139617 
L 464.599942 -85.139617 
L 462.303733 -85.139617 
L 460.007523 -85.139617 
L 457.711314 -85.139617 
L 455.415104 -85.139617 
L 453.118895 -85.139617 
L 450.822685 -85.139617 
L 448.526475 -85.139617 
L 446.230266 -85.139617 
L 443.934056 -85.139617 
L 441.637847 -85.139617 
L 439.341637 -85.139617 
L 437.045428 -85.139617 
L 434.749218 -85.139617 
L 432.453009 -85.139617 
L 430.156799 -85.139617 
L 427.86059 -85.139617 
L 425.56438 -85.139617 
L 423.268171 -85.139617 
L 420.971961 -85.139617 
L 418.675751 -85.139617 
L 416.379542 -85.139617 
L 414.083332 -85.139617 
L 411.787123 -85.139617 
L 409.490913 -85.139617 
L 407.194704 -85.139617 
L 404.898494 -85.139617 
L 402.602285 -85.139617 
L 400.306075 -85.139617 
L 398.009866 -85.139617 
L 395.713656 -85.139617 
L 393.417447 -85.139617 
L 391.121237 -85.139617 
L 388.825027 -85.139617 
L 386.528818 -85.139617 
L 384.232608 -85.139617 
L 381.936399 -85.139617 
L 379.640189 -85.139617 
L 377.34398 -85.139617 
L 375.04777 -85.139617 
L 372.751561 -85.139617 
L 370.455351 -85.139617 
L 368.159142 -85.139617 
L 365.862932 -85.139617 
L 363.566723 -85.139617 
L 361.270513 -85.139617 
L 358.974303 -85.139617 
L 356.678094 -85.139617 
L 354.381884 -85.139617 
L 352.085675 -85.139617 
L 349.789465 -85.139617 
L 347.493256 -85.139617 
L 345.197046 -85.139617 
L 342.900837 -85.139617 
L 340.604627 -85.139617 
L 338.308418 -85.139617 
L 336.012208 -85.139617 
L 333.715999 -85.139617 
L 331.419789 -85.139617 
L 329.123579 -85.139617 
L 326.82737 -85.139617 
L 324.53116 -85.139617 
L 322.234951 -85.139617 
L 319.938741 -85.139617 
L 317.642532 -85.139617 
L 315.346322 -85.139617 
L 313.050113 -85.139617 
L 310.753903 -85.139617 
L 308.457694 -85.139617 
L 306.161484 -85.139617 
L 303.865275 -85.139617 
L 301.569065 -85.139617 
L 299.272855 -85.139617 
L 296.976646 -85.139617 
L 294.680436 -85.139617 
L 292.384227 -85.139617 
L 290.088017 -85.139617 
L 287.791808 -85.139617 
L 285.495598 -85.139617 
L 283.199389 -85.139617 
L 280.903179 -85.139617 
L 278.60697 -85.139617 
L 276.31076 -85.139617 
L 274.014551 -85.139617 
L 271.718341 -85.139617 
L 269.422131 -85.139617 
L 267.125922 -85.139617 
L 264.829712 -85.139617 
L 262.533503 -85.139617 
L 260.237293 -85.139617 
L 257.941084 -85.139617 
L 255.644874 -85.139617 
L 253.348665 -85.139617 
L 251.052455 -85.139617 
L 248.756246 -85.139617 
L 246.460036 -85.139617 
L 244.163827 -85.139617 
L 241.867617 -85.139617 
L 239.571407 -85.139617 
L 237.275198 -85.139617 
L 234.978988 -85.139617 
L 232.682779 -85.139617 
L 230.386569 -85.139617 
L 228.09036 -85.139617 
L 225.79415 -85.139617 
L 223.497941 -85.139617 
L 221.201731 -85.139617 
L 218.905522 -85.139617 
L 216.609312 -85.139617 
L 214.313103 -85.139617 
L 212.016893 -85.139617 
L 209.720683 -85.139617 
L 207.424474 -85.139617 
L 205.128264 -85.139617 
L 202.832055 -85.139617 
L 200.535845 -85.139617 
L 198.239636 -85.139617 
L 195.943426 -85.139617 
L 193.647217 -85.139617 
L 191.351007 -85.139617 
L 189.054798 -85.139617 
L 186.758588 -85.139617 
L 184.462379 -85.139617 
L 182.166169 -85.139617 
L 179.869959 -85.139617 
L 177.57375 -85.139617 
L 175.27754 -85.139617 
L 172.981331 -85.139617 
L 170.685121 -85.139617 
L 168.388912 -85.139617 
L 166.092702 -85.139617 
L 163.796493 -85.139617 
L 161.500283 -85.139617 
L 159.204074 -85.139617 
L 156.907864 -85.139617 
L 154.611655 -85.139617 
L 152.315445 -85.139617 
L 150.019235 -85.139617 
L 147.723026 -85.139617 
L 145.426816 -85.139617 
L 143.130607 -85.139617 
z
" style="stroke: #0000ff; stroke-opacity: 0.3"/>
    </defs>
    <g clip-path="url(#p6fa9f82c2e)">
     <use xlink:href="#md4cebf1d92" x="0" y="432" style="fill: #0000ff; fill-opacity: 0.3; stroke: #0000ff; stroke-opacity: 0.3"/>
    </g>
   </g>
   <g id="PolyCollection_2">
    <defs>
     <path id="meade65db16" d="M 143.130607 -85.139617 
L 143.130607 -85.139617 
L 145.426816 -85.139617 
L 147.723026 -85.139617 
L 150.019235 -85.139617 
L 152.315445 -85.139617 
L 154.611655 -85.139617 
L 156.907864 -85.139617 
L 159.204074 -85.139617 
L 161.500283 -85.139617 
L 163.796493 -85.139617 
L 166.092702 -85.139617 
L 168.388912 -85.139617 
L 170.685121 -85.139617 
L 172.981331 -85.139617 
L 175.27754 -85.139617 
L 177.57375 -85.139617 
L 179.869959 -85.139617 
L 182.166169 -85.139617 
L 184.462379 -85.139617 
L 186.758588 -85.139617 
L 189.054798 -85.139617 
L 191.351007 -85.139617 
L 193.647217 -85.139617 
L 195.943426 -85.139617 
L 198.239636 -85.139617 
L 200.535845 -85.139617 
L 202.832055 -85.139617 
L 205.128264 -85.139617 
L 207.424474 -85.139617 
L 209.720683 -85.139617 
L 212.016893 -85.139617 
L 214.313103 -85.139617 
L 216.609312 -85.139617 
L 218.905522 -85.139617 
L 221.201731 -85.139617 
L 223.497941 -85.139617 
L 225.79415 -85.139617 
L 228.09036 -85.139617 
L 230.386569 -85.139617 
L 232.682779 -85.139617 
L 234.978988 -85.139617 
L 237.275198 -85.139617 
L 239.571407 -85.139617 
L 241.867617 -85.139617 
L 244.163827 -85.139617 
L 246.460036 -85.139617 
L 248.756246 -85.139617 
L 251.052455 -85.139617 
L 253.348665 -85.139617 
L 255.644874 -85.139617 
L 257.941084 -85.139617 
L 260.237293 -85.139617 
L 262.533503 -85.139617 
L 264.829712 -85.139617 
L 267.125922 -85.139617 
L 269.422131 -85.139617 
L 271.718341 -85.139617 
L 274.014551 -85.139617 
L 276.31076 -85.139617 
L 278.60697 -85.139617 
L 280.903179 -85.139617 
L 283.199389 -85.139617 
L 285.495598 -85.139617 
L 287.791808 -85.139617 
L 290.088017 -85.139617 
L 292.384227 -85.139617 
L 294.680436 -85.139617 
L 296.976646 -85.139617 
L 299.272855 -85.12871 
L 301.569065 -85.117802 
L 303.865275 -85.106895 
L 306.161484 -85.095988 
L 308.457694 -85.085081 
L 310.753903 -85.074174 
L 313.050113 -85.10608 
L 315.346322 -85.134402 
L 317.642532 -85.276597 
L 319.938741 -85.460031 
L 322.234951 -85.500005 
L 324.53116 -85.651095 
L 326.82737 -85.849388 
L 329.123579 -86.145555 
L 331.419789 -86.440359 
L 333.715999 -86.733145 
L 336.012208 -87.001988 
L 338.308418 -87.317972 
L 340.604627 -87.602051 
L 342.900837 -87.83904 
L 345.197046 -88.076028 
L 347.493256 -88.30211 
L 349.789465 -88.600285 
L 352.085675 -88.91851 
L 354.381884 -89.255398 
L 356.678094 -89.616945 
L 358.974303 -89.897569 
L 361.270513 -90.29255 
L 363.566723 -90.67795 
L 365.862932 -91.089201 
L 368.159142 -91.563178 
L 370.455351 -92.113756 
L 372.751561 -92.636103 
L 375.04777 -93.029276 
L 377.34398 -93.500222 
L 379.640189 -93.965261 
L 381.936399 -94.582267 
L 384.232608 -95.324168 
L 386.528818 -96.00971 
L 388.825027 -96.509185 
L 391.121237 -96.959788 
L 393.417447 -97.406381 
L 395.713656 -98.116357 
L 398.009866 -98.923386 
L 400.306075 -99.729458 
L 402.602285 -100.537169 
L 404.898494 -101.343937 
L 407.194704 -102.195436 
L 409.490913 -103.041874 
L 411.787123 -103.841162 
L 414.083332 -104.674933 
L 416.379542 -105.423548 
L 418.675751 -106.22199 
L 420.971961 -107.002786 
L 423.268171 -107.777425 
L 425.56438 -108.492896 
L 427.86059 -109.300883 
L 430.156799 -110.066435 
L 432.453009 -110.890797 
L 434.749218 -111.794072 
L 437.045428 -112.805576 
L 439.341637 -113.898613 
L 441.637847 -114.852704 
L 443.934056 -115.781583 
L 446.230266 -116.746121 
L 448.526475 -117.774328 
L 450.822685 -118.75545 
L 453.118895 -119.73859 
L 455.415104 -120.754958 
L 457.711314 -121.722013 
L 460.007523 -122.811612 
L 462.303733 -123.912857 
L 464.599942 -124.785741 
L 466.896152 -125.790647 
L 469.192361 -126.817296 
L 471.488571 -127.857105 
L 473.78478 -128.830956 
L 476.08099 -129.847464 
L 478.377199 -130.797496 
L 480.673409 -131.80901 
L 482.969619 -132.779213 
L 485.265828 -133.742611 
L 487.562038 -134.692102 
L 489.858247 -135.648153 
L 492.154457 -136.722208 
L 494.450666 -137.643454 
L 496.746876 -138.575938 
L 499.043085 -139.532172 
L 501.339295 -140.383809 
L 503.635504 -141.305342 
L 505.931714 -142.217266 
L 508.227923 -143.068958 
L 510.524133 -143.819554 
L 512.820343 -144.541509 
L 515.116552 -145.211422 
L 517.412762 -145.920927 
L 519.708971 -146.467862 
L 522.005181 -147.018934 
L 524.30139 -147.548859 
L 526.5976 -148.083744 
L 528.893809 -148.696986 
L 531.190019 -149.316134 
L 533.486228 -149.82138 
L 535.782438 -150.332107 
L 538.078647 -150.834567 
L 540.374857 -151.392204 
L 542.671067 -151.988785 
L 544.967276 -152.605485 
L 547.263486 -153.173301 
L 549.559695 -153.643657 
L 551.855905 -154.078358 
L 554.152114 -154.588123 
L 556.448324 -155.078935 
L 558.744533 -155.515595 
L 561.040743 -155.90703 
L 563.336952 -156.395493 
L 565.633162 -156.88325 
L 567.929371 -157.353263 
L 570.225581 -157.859405 
L 572.521791 -158.365231 
L 574.818 -158.870749 
L 577.11421 -159.365874 
L 579.410419 -159.860593 
L 581.706629 -160.506778 
L 584.002838 -161.029492 
L 586.299048 -161.551026 
L 588.595257 -162.16098 
L 590.891467 -162.778096 
L 593.187676 -163.344151 
L 595.483886 -163.971871 
L 597.780095 -164.64097 
L 600.076305 -165.246151 
L 602.372515 -165.818706 
L 604.668724 -166.368102 
L 606.964934 -166.970521 
L 609.261143 -167.607377 
L 611.557353 -168.242919 
L 613.853562 -168.888117 
L 616.149772 -169.532122 
L 618.445981 -170.264873 
L 620.742191 -171.005062 
L 623.0384 -171.745662 
L 625.33461 -172.521192 
L 627.630819 -173.332425 
L 629.927029 -174.000051 
L 632.223239 -174.678506 
L 634.519448 -175.392908 
L 636.815658 -176.117985 
L 639.111867 -176.663183 
L 641.408077 -177.208198 
L 643.704286 -177.785799 
L 646.000496 -178.420487 
L 648.296705 -179.101013 
L 650.592915 -179.791947 
L 652.889124 -180.437959 
L 655.185334 -181.127976 
L 657.481543 -181.860744 
L 659.777753 -182.502894 
L 662.073963 -183.168407 
L 664.370172 -183.898966 
L 666.666382 -184.606921 
L 668.962591 -185.357029 
L 671.258801 -186.010925 
L 673.55501 -186.709642 
L 675.85122 -187.406288 
L 678.147429 -188.100943 
L 680.443639 -188.79369 
L 682.739848 -189.484603 
L 685.036058 -190.163323 
L 687.332267 -190.901001 
L 689.628477 -191.587255 
L 691.924687 -192.231353 
L 694.220896 -192.873058 
L 696.517106 -193.492471 
L 698.813315 -194.100187 
L 701.109525 -194.716207 
L 703.405734 -195.33062 
L 705.701944 -195.871651 
L 707.998153 -196.402732 
L 710.294363 -196.933576 
L 712.590572 -197.419008 
L 714.886782 -197.878291 
L 717.182991 -198.337554 
L 719.479201 -198.796799 
L 721.775411 -199.299119 
L 724.07162 -199.784613 
L 726.36783 -200.260479 
L 728.664039 -200.736344 
L 730.960249 -201.264895 
L 733.256458 -201.750396 
L 735.552668 -202.226262 
L 737.848877 -202.649421 
L 740.145087 -203.125285 
L 742.441296 -203.663485 
L 744.737506 -204.182402 
L 747.033715 -204.701257 
L 749.329925 -205.164527 
L 751.626135 -205.627418 
L 753.922344 -206.126428 
L 756.218554 -206.598571 
L 758.514763 -207.080285 
L 760.810973 -207.561817 
L 763.107182 -208.058199 
L 765.403392 -208.539228 
L 767.699601 -209.061913 
L 769.995811 -209.532588 
L 772.29202 -210.10619 
L 774.58823 -210.730589 
L 776.884439 -211.354153 
L 779.180649 -211.976917 
L 781.476859 -212.637194 
L 783.773068 -213.246236 
L 786.069278 -213.903717 
L 788.365487 -214.573431 
L 790.661697 -215.281444 
L 792.957906 -215.98934 
L 795.254116 -216.697122 
L 797.550325 -217.415086 
L 799.846535 -218.131609 
L 802.142744 -218.881706 
L 802.142744 -274.175863 
L 802.142744 -274.175863 
L 799.846535 -273.082716 
L 797.550325 -271.903331 
L 795.254116 -270.672723 
L 792.957906 -269.379269 
L 790.661697 -268.085929 
L 788.365487 -266.792705 
L 786.069278 -265.513847 
L 783.773068 -264.222756 
L 781.476859 -262.883227 
L 779.180649 -261.542267 
L 776.884439 -260.216459 
L 774.58823 -258.891451 
L 772.29202 -257.567278 
L 769.995811 -256.244972 
L 767.699601 -254.925067 
L 765.403392 -253.604508 
L 763.107182 -252.347621 
L 760.810973 -251.106088 
L 758.514763 -249.849704 
L 756.218554 -248.593502 
L 753.922344 -247.275065 
L 751.626135 -245.878168 
L 749.329925 -244.497814 
L 747.033715 -243.11784 
L 744.737506 -241.846116 
L 742.441296 -240.574453 
L 740.145087 -239.427402 
L 737.848877 -238.218014 
L 735.552668 -237.008585 
L 733.256458 -235.7992 
L 730.960249 -234.652114 
L 728.664039 -233.442749 
L 726.36783 -232.233363 
L 724.07162 -231.023977 
L 721.775411 -229.876883 
L 719.479201 -228.746616 
L 717.182991 -227.678602 
L 714.886782 -226.610606 
L 712.590572 -225.542629 
L 710.294363 -224.395474 
L 707.998153 -223.293731 
L 705.701944 -222.192224 
L 703.405734 -221.153332 
L 701.109525 -220.082493 
L 698.813315 -219.013262 
L 696.517106 -217.883062 
L 694.220896 -216.817223 
L 691.924687 -215.879005 
L 689.628477 -214.94318 
L 687.332267 -213.944182 
L 685.036058 -212.943945 
L 682.739848 -211.884749 
L 680.443639 -210.890411 
L 678.147429 -209.897906 
L 675.85122 -208.90731 
L 673.55501 -207.918703 
L 671.258801 -206.93217 
L 668.962591 -205.953478 
L 666.666382 -204.96567 
L 664.370172 -203.988374 
L 662.073963 -203.13901 
L 659.777753 -202.171935 
L 657.481543 -201.33949 
L 655.185334 -200.492334 
L 652.889124 -199.655092 
L 650.592915 -198.826509 
L 648.296705 -197.990184 
L 646.000496 -197.090787 
L 643.704286 -196.198215 
L 641.408077 -195.248558 
L 639.111867 -194.371642 
L 636.815658 -193.494908 
L 634.519448 -192.587398 
L 632.223239 -191.616548 
L 629.927029 -190.715079 
L 627.630819 -189.750118 
L 625.33461 -188.823436 
L 623.0384 -187.966379 
L 620.742191 -187.179719 
L 618.445981 -186.392649 
L 616.149772 -185.545476 
L 613.853562 -184.714887 
L 611.557353 -183.88549 
L 609.261143 -182.993772 
L 606.964934 -182.103368 
L 604.668724 -181.283857 
L 602.372515 -180.411322 
L 600.076305 -179.667274 
L 597.780095 -178.850524 
L 595.483886 -178.150356 
L 593.187676 -177.461473 
L 590.891467 -176.658262 
L 588.595257 -175.853446 
L 586.299048 -175.04147 
L 584.002838 -174.246401 
L 581.706629 -173.452512 
L 579.410419 -172.782095 
L 577.11421 -172.118203 
L 574.818 -171.454717 
L 572.521791 -170.854289 
L 570.225581 -170.254169 
L 567.929371 -169.654364 
L 565.633162 -169.071095 
L 563.336952 -168.347578 
L 561.040743 -167.624766 
L 558.744533 -166.857591 
L 556.448324 -166.13564 
L 554.152114 -165.415178 
L 551.855905 -164.818996 
L 549.559695 -164.200415 
L 547.263486 -163.564825 
L 544.967276 -162.97403 
L 542.671067 -162.326792 
L 540.374857 -161.764762 
L 538.078647 -161.05846 
L 535.782438 -160.349646 
L 533.486228 -159.701762 
L 531.190019 -158.995734 
L 528.893809 -158.245615 
L 526.5976 -157.436926 
L 524.30139 -156.707873 
L 522.005181 -155.921194 
L 519.708971 -155.050335 
L 517.412762 -154.122676 
L 515.116552 -153.304921 
L 512.820343 -152.500239 
L 510.524133 -151.589607 
L 508.227923 -150.707615 
L 505.931714 -149.874056 
L 503.635504 -148.890071 
L 501.339295 -147.915697 
L 499.043085 -147.082082 
L 496.746876 -146.405729 
L 494.450666 -145.547633 
L 492.154457 -144.730963 
L 489.858247 -143.803782 
L 487.562038 -142.811261 
L 485.265828 -141.864844 
L 482.969619 -140.827006 
L 480.673409 -139.743309 
L 478.377199 -138.806251 
L 476.08099 -137.860374 
L 473.78478 -136.875647 
L 471.488571 -135.795597 
L 469.192361 -134.728841 
L 466.896152 -133.754254 
L 464.599942 -132.599931 
L 462.303733 -131.471579 
L 460.007523 -130.150276 
L 457.711314 -128.86999 
L 455.415104 -127.625152 
L 453.118895 -126.429627 
L 450.822685 -125.358866 
L 448.526475 -124.18076 
L 446.230266 -123.207731 
L 443.934056 -122.118369 
L 441.637847 -121.098676 
L 439.341637 -120.05153 
L 437.045428 -118.880011 
L 434.749218 -117.732286 
L 432.453009 -116.634325 
L 430.156799 -115.615443 
L 427.86059 -114.590415 
L 425.56438 -113.397166 
L 423.268171 -112.164064 
L 420.971961 -110.937468 
L 418.675751 -109.769691 
L 416.379542 -108.777553 
L 414.083332 -107.840918 
L 411.787123 -106.831445 
L 409.490913 -105.787488 
L 407.194704 -104.843347 
L 404.898494 -104.009594 
L 402.602285 -103.13111 
L 400.306075 -102.306235 
L 398.009866 -101.37439 
L 395.713656 -100.496168 
L 393.417447 -99.678885 
L 391.121237 -98.861539 
L 388.825027 -98.048203 
L 386.528818 -97.389068 
L 384.232608 -96.494687 
L 381.936399 -95.709328 
L 379.640189 -95.062395 
L 377.34398 -94.474152 
L 375.04777 -93.944481 
L 372.751561 -93.495028 
L 370.455351 -93.016757 
L 368.159142 -92.514053 
L 365.862932 -92.040076 
L 363.566723 -91.556036 
L 361.270513 -91.151475 
L 358.974303 -90.756494 
L 356.678094 -90.405149 
L 354.381884 -90.029399 
L 352.085675 -89.628988 
L 349.789465 -89.209916 
L 347.493256 -88.823458 
L 345.197046 -88.522898 
L 342.900837 -88.28591 
L 340.604627 -88.048921 
L 338.308418 -87.806359 
L 336.012208 -87.490375 
L 333.715999 -87.127247 
L 331.419789 -86.893393 
L 329.123579 -86.661556 
L 326.82737 -86.431082 
L 324.53116 -86.260726 
L 322.234951 -86.095831 
L 319.938741 -85.925148 
L 317.642532 -85.792598 
L 315.346322 -85.671473 
L 313.050113 -85.594467 
L 310.753903 -85.521044 
L 308.457694 -85.457473 
L 306.161484 -85.393901 
L 303.865275 -85.33033 
L 301.569065 -85.266759 
L 299.272855 -85.203188 
L 296.976646 -85.139617 
L 294.680436 -85.139617 
L 292.384227 -85.139617 
L 290.088017 -85.139617 
L 287.791808 -85.139617 
L 285.495598 -85.139617 
L 283.199389 -85.139617 
L 280.903179 -85.139617 
L 278.60697 -85.139617 
L 276.31076 -85.139617 
L 274.014551 -85.139617 
L 271.718341 -85.139617 
L 269.422131 -85.139617 
L 267.125922 -85.139617 
L 264.829712 -85.139617 
L 262.533503 -85.139617 
L 260.237293 -85.139617 
L 257.941084 -85.139617 
L 255.644874 -85.139617 
L 253.348665 -85.139617 
L 251.052455 -85.139617 
L 248.756246 -85.139617 
L 246.460036 -85.139617 
L 244.163827 -85.139617 
L 241.867617 -85.139617 
L 239.571407 -85.139617 
L 237.275198 -85.139617 
L 234.978988 -85.139617 
L 232.682779 -85.139617 
L 230.386569 -85.139617 
L 228.09036 -85.139617 
L 225.79415 -85.139617 
L 223.497941 -85.139617 
L 221.201731 -85.139617 
L 218.905522 -85.139617 
L 216.609312 -85.139617 
L 214.313103 -85.139617 
L 212.016893 -85.139617 
L 209.720683 -85.139617 
L 207.424474 -85.139617 
L 205.128264 -85.139617 
L 202.832055 -85.139617 
L 200.535845 -85.139617 
L 198.239636 -85.139617 
L 195.943426 -85.139617 
L 193.647217 -85.139617 
L 191.351007 -85.139617 
L 189.054798 -85.139617 
L 186.758588 -85.139617 
L 184.462379 -85.139617 
L 182.166169 -85.139617 
L 179.869959 -85.139617 
L 177.57375 -85.139617 
L 175.27754 -85.139617 
L 172.981331 -85.139617 
L 170.685121 -85.139617 
L 168.388912 -85.139617 
L 166.092702 -85.139617 
L 163.796493 -85.139617 
L 161.500283 -85.139617 
L 159.204074 -85.139617 
L 156.907864 -85.139617 
L 154.611655 -85.139617 
L 152.315445 -85.139617 
L 150.019235 -85.139617 
L 147.723026 -85.139617 
L 145.426816 -85.139617 
L 143.130607 -85.139617 
z
" style="stroke: #008000; stroke-opacity: 0.3"/>
    </defs>
    <g clip-path="url(#p6fa9f82c2e)">
     <use xlink:href="#meade65db16" x="0" y="432" style="fill: #008000; fill-opacity: 0.3; stroke: #008000; stroke-opacity: 0.3"/>
    </g>
   </g>
   <g id="PolyCollection_3">
    <defs>
     <path id="mc6890984c4" d="M 143.130607 -85.139617 
L 143.130607 -85.139617 
L 145.426816 -85.139617 
L 147.723026 -85.139617 
L 150.019235 -85.139617 
L 152.315445 -85.139617 
L 154.611655 -85.139617 
L 156.907864 -85.139617 
L 159.204074 -85.139617 
L 161.500283 -85.139617 
L 163.796493 -85.139617 
L 166.092702 -85.139617 
L 168.388912 -85.139617 
L 170.685121 -85.139617 
L 172.981331 -85.139617 
L 175.27754 -85.139617 
L 177.57375 -85.139617 
L 179.869959 -85.139617 
L 182.166169 -85.139617 
L 184.462379 -85.139617 
L 186.758588 -85.139617 
L 189.054798 -85.139617 
L 191.351007 -85.139617 
L 193.647217 -85.139617 
L 195.943426 -85.139617 
L 198.239636 -85.139617 
L 200.535845 -85.139617 
L 202.832055 -85.139617 
L 205.128264 -85.139617 
L 207.424474 -85.139617 
L 209.720683 -85.139617 
L 212.016893 -85.139617 
L 214.313103 -85.139617 
L 216.609312 -85.139617 
L 218.905522 -85.139617 
L 221.201731 -85.139617 
L 223.497941 -85.139617 
L 225.79415 -85.139617 
L 228.09036 -85.139617 
L 230.386569 -85.139617 
L 232.682779 -85.139617 
L 234.978988 -85.139617 
L 237.275198 -85.139617 
L 239.571407 -85.139617 
L 241.867617 -85.139617 
L 244.163827 -85.139617 
L 246.460036 -85.12871 
L 248.756246 -85.12871 
L 251.052455 -85.117802 
L 253.348665 -85.106895 
L 255.644874 -85.095988 
L 257.941084 -85.085081 
L 260.237293 -85.074174 
L 262.533503 -85.063267 
L 264.829712 -85.095456 
L 267.125922 -85.124454 
L 269.422131 -85.141502 
L 271.718341 -85.166827 
L 274.014551 -85.213224 
L 276.31076 -85.255585 
L 278.60697 -85.399811 
L 280.903179 -85.514595 
L 283.199389 -85.639399 
L 285.495598 -85.761313 
L 287.791808 -85.944581 
L 290.088017 -86.133479 
L 292.384227 -86.317999 
L 294.680436 -86.51152 
L 296.976646 -86.783631 
L 299.272855 -86.913303 
L 301.569065 -87.093914 
L 303.865275 -87.33272 
L 306.161484 -87.567307 
L 308.457694 -87.798305 
L 310.753903 -88.047752 
L 313.050113 -88.357169 
L 315.346322 -88.684273 
L 317.642532 -89.033779 
L 319.938741 -89.360593 
L 322.234951 -89.710184 
L 324.53116 -90.059734 
L 326.82737 -90.431482 
L 329.123579 -90.859843 
L 331.419789 -91.299624 
L 333.715999 -91.678837 
L 336.012208 -92.122155 
L 338.308418 -92.663401 
L 340.604627 -93.100365 
L 342.900837 -93.528881 
L 345.197046 -93.980013 
L 347.493256 -94.48769 
L 349.789465 -95.014418 
L 352.085675 -95.590017 
L 354.381884 -96.234675 
L 356.678094 -96.815088 
L 358.974303 -97.325378 
L 361.270513 -97.83026 
L 363.566723 -98.365379 
L 365.862932 -98.986574 
L 368.159142 -99.559337 
L 370.455351 -100.254965 
L 372.751561 -100.770596 
L 375.04777 -101.272467 
L 377.34398 -101.874738 
L 379.640189 -102.614553 
L 381.936399 -103.460249 
L 384.232608 -104.384589 
L 386.528818 -105.175037 
L 388.825027 -106.012211 
L 391.121237 -106.75496 
L 393.417447 -107.497527 
L 395.713656 -108.287489 
L 398.009866 -109.103236 
L 400.306075 -109.918733 
L 402.602285 -110.744827 
L 404.898494 -111.480864 
L 407.194704 -112.298343 
L 409.490913 -113.158316 
L 411.787123 -114.016377 
L 414.083332 -114.954559 
L 416.379542 -115.891981 
L 418.675751 -116.873886 
L 420.971961 -117.800027 
L 423.268171 -118.850207 
L 425.56438 -119.923076 
L 427.86059 -120.971317 
L 430.156799 -121.985274 
L 432.453009 -123.023228 
L 434.749218 -124.107428 
L 437.045428 -125.180751 
L 439.341637 -126.188594 
L 441.637847 -127.318754 
L 443.934056 -128.258058 
L 446.230266 -129.241422 
L 448.526475 -130.323759 
L 450.822685 -131.530744 
L 453.118895 -132.627898 
L 455.415104 -133.6582 
L 457.711314 -134.787653 
L 460.007523 -135.902603 
L 462.303733 -137.057248 
L 464.599942 -138.122271 
L 466.896152 -139.148268 
L 469.192361 -140.241011 
L 471.488571 -141.310371 
L 473.78478 -142.427168 
L 476.08099 -143.482885 
L 478.377199 -144.397591 
L 480.673409 -145.340089 
L 482.969619 -146.220701 
L 485.265828 -147.173971 
L 487.562038 -148.226551 
L 489.858247 -149.14149 
L 492.154457 -150.017999 
L 494.450666 -150.932832 
L 496.746876 -151.699184 
L 499.043085 -152.436374 
L 501.339295 -153.261647 
L 503.635504 -154.147403 
L 505.931714 -154.972599 
L 508.227923 -155.797775 
L 510.524133 -156.643436 
L 512.820343 -157.507582 
L 515.116552 -158.322059 
L 517.412762 -159.068791 
L 519.708971 -159.804811 
L 522.005181 -160.690356 
L 524.30139 -161.515439 
L 526.5976 -162.350985 
L 528.893809 -163.117897 
L 531.190019 -163.853659 
L 533.486228 -164.489454 
L 535.782438 -165.264595 
L 538.078647 -165.968288 
L 540.374857 -166.782384 
L 542.671067 -167.668299 
L 544.967276 -168.582919 
L 547.263486 -169.397023 
L 549.559695 -170.21199 
L 551.855905 -170.969286 
L 554.152114 -171.726212 
L 556.448324 -172.382956 
L 558.744533 -173.039506 
L 561.040743 -173.775279 
L 563.336952 -174.471573 
L 565.633162 -175.117845 
L 567.929371 -175.763789 
L 570.225581 -176.419763 
L 572.521791 -177.185861 
L 574.818 -177.952815 
L 577.11421 -178.669251 
L 579.410419 -179.404677 
L 581.706629 -180.229605 
L 584.002838 -180.905078 
L 586.299048 -181.72057 
L 588.595257 -182.496001 
L 590.891467 -183.351144 
L 593.187676 -184.345139 
L 595.483886 -185.349388 
L 597.780095 -186.313904 
L 600.076305 -187.17846 
L 602.372515 -188.053034 
L 604.668724 -189.027596 
L 606.964934 -190.023868 
L 609.261143 -190.959465 
L 611.557353 -191.884223 
L 613.853562 -192.74807 
L 616.149772 -193.640826 
L 618.445981 -194.563737 
L 620.742191 -195.585746 
L 623.0384 -196.519969 
L 625.33461 -197.513429 
L 627.630819 -198.485926 
L 629.927029 -199.498291 
L 632.223239 -200.510643 
L 634.519448 -201.49363 
L 636.815658 -202.437452 
L 639.111867 -203.351921 
L 641.408077 -204.276134 
L 643.704286 -205.300171 
L 646.000496 -206.274619 
L 648.296705 -207.328037 
L 650.592915 -208.389961 
L 652.889124 -209.481422 
L 655.185334 -210.651865 
L 657.481543 -211.970697 
L 659.777753 -213.280114 
L 662.073963 -214.589532 
L 664.370172 -215.888432 
L 666.666382 -217.108333 
L 668.962591 -218.328232 
L 671.258801 -219.616603 
L 673.55501 -220.934583 
L 675.85122 -222.263071 
L 678.147429 -223.73048 
L 680.443639 -225.327483 
L 682.739848 -226.895947 
L 685.036058 -228.453745 
L 687.332267 -230.090967 
L 689.628477 -231.68797 
L 691.924687 -233.255521 
L 694.220896 -234.722991 
L 696.517106 -236.339782 
L 698.813315 -238.066855 
L 701.109525 -239.733889 
L 703.405734 -241.400915 
L 705.701944 -243.067934 
L 707.998153 -244.745303 
L 710.294363 -246.412303 
L 712.590572 -248.128747 
L 714.886782 -249.895389 
L 717.182991 -251.712301 
L 719.479201 -253.658479 
L 721.775411 -255.604633 
L 724.07162 -257.561117 
L 726.36783 -259.517586 
L 728.664039 -261.453314 
L 730.960249 -263.527941 
L 733.256458 -265.521295 
L 735.552668 -267.50428 
L 737.848877 -269.507958 
L 740.145087 -271.540338 
L 742.441296 -273.511956 
L 744.737506 -275.493696 
L 747.033715 -277.513994 
L 749.329925 -279.495217 
L 751.626135 -281.526879 
L 753.922344 -283.647685 
L 756.218554 -285.835041 
L 758.514763 -288.021925 
L 760.810973 -290.188015 
L 763.107182 -292.305524 
L 765.403392 -294.422896 
L 767.699601 -296.601406 
L 769.995811 -298.817755 
L 772.29202 -301.023817 
L 774.58823 -303.229716 
L 776.884439 -305.562133 
L 779.180649 -307.874114 
L 781.476859 -310.223188 
L 783.773068 -312.534478 
L 786.069278 -314.877341 
L 788.365487 -317.210176 
L 790.661697 -319.542947 
L 792.957906 -321.922612 
L 795.254116 -324.292161 
L 797.550325 -326.629775 
L 799.846535 -328.967372 
L 802.142744 -331.290029 
L 802.142744 -405.181061 
L 802.142744 -405.181061 
L 799.846535 -402.342635 
L 797.550325 -399.519149 
L 795.254116 -396.69568 
L 792.957906 -393.904146 
L 790.661697 -391.175392 
L 788.365487 -388.399744 
L 786.069278 -385.624161 
L 783.773068 -382.911269 
L 781.476859 -380.324797 
L 779.180649 -377.723444 
L 776.884439 -375.137663 
L 774.58823 -372.677646 
L 772.29202 -370.249103 
L 769.995811 -367.820724 
L 767.699601 -365.455295 
L 765.403392 -363.104691 
L 763.107182 -360.69295 
L 760.810973 -358.281346 
L 758.514763 -355.918322 
L 756.218554 -353.68142 
L 753.922344 -351.444991 
L 751.626135 -349.300004 
L 749.329925 -347.171202 
L 747.033715 -345.044623 
L 744.737506 -342.904457 
L 742.441296 -340.778396 
L 740.145087 -338.589549 
L 737.848877 -336.461465 
L 735.552668 -334.410007 
L 733.256458 -332.232527 
L 730.960249 -330.11808 
L 728.664039 -328.190235 
L 726.36783 -326.228818 
L 724.07162 -324.393471 
L 721.775411 -322.558139 
L 719.479201 -320.659813 
L 717.182991 -318.761512 
L 714.886782 -316.9446 
L 712.590572 -315.130082 
L 710.294363 -313.31803 
L 707.998153 -311.456535 
L 705.701944 -309.658073 
L 703.405734 -307.796596 
L 701.109525 -305.935127 
L 698.813315 -304.073666 
L 696.517106 -302.324907 
L 694.220896 -300.518531 
L 691.924687 -298.668162 
L 689.628477 -296.812546 
L 687.332267 -294.881053 
L 685.036058 -292.937116 
L 682.739848 -291.019082 
L 680.443639 -289.16438 
L 678.147429 -287.180222 
L 675.85122 -285.224464 
L 673.55501 -283.287778 
L 671.258801 -281.287919 
L 668.962591 -279.363779 
L 666.666382 -277.581823 
L 664.370172 -275.799871 
L 662.073963 -273.938924 
L 659.777753 -272.141159 
L 657.481543 -270.343394 
L 655.185334 -268.555043 
L 652.889124 -266.776296 
L 650.592915 -265.076559 
L 648.296705 -263.452613 
L 646.000496 -262.030818 
L 643.704286 -260.688045 
L 641.408077 -259.342197 
L 639.111867 -257.949189 
L 636.815658 -256.546437 
L 634.519448 -255.06771 
L 632.223239 -253.52282 
L 629.927029 -251.901966 
L 627.630819 -250.281126 
L 625.33461 -248.673082 
L 623.0384 -247.191328 
L 620.742191 -245.703002 
L 618.445981 -244.091806 
L 616.149772 -242.486839 
L 613.853562 -240.904382 
L 611.557353 -239.398344 
L 609.261143 -238.005881 
L 606.964934 -236.624257 
L 604.668724 -235.355972 
L 602.372515 -234.065978 
L 600.076305 -232.781323 
L 597.780095 -231.433987 
L 595.483886 -230.081281 
L 593.187676 -228.715645 
L 590.891467 -227.287092 
L 588.595257 -225.877677 
L 586.299048 -224.49388 
L 584.002838 -223.097479 
L 581.706629 -221.666388 
L 579.410419 -220.279424 
L 577.11421 -218.908285 
L 574.818 -217.676149 
L 572.521791 -216.494531 
L 570.225581 -215.259393 
L 567.929371 -213.91413 
L 565.633162 -212.506174 
L 563.336952 -211.15121 
L 561.040743 -209.793604 
L 558.744533 -208.422813 
L 556.448324 -207.183454 
L 554.152114 -205.891626 
L 551.855905 -204.594651 
L 549.559695 -203.298047 
L 547.263486 -201.848458 
L 544.967276 -200.450669 
L 542.671067 -199.048068 
L 540.374857 -197.72209 
L 538.078647 -196.324294 
L 535.782438 -194.868759 
L 533.486228 -193.48467 
L 531.190019 -192.119229 
L 528.893809 -190.801091 
L 526.5976 -189.566767 
L 524.30139 -188.243085 
L 522.005181 -186.908939 
L 519.708971 -185.635255 
L 517.412762 -184.317374 
L 515.116552 -183.062871 
L 512.820343 -181.612791 
L 510.524133 -180.159716 
L 508.227923 -178.793485 
L 505.931714 -177.406768 
L 503.635504 -176.020071 
L 501.339295 -174.693934 
L 499.043085 -173.307315 
L 496.746876 -171.885276 
L 494.450666 -170.387071 
L 492.154457 -168.984684 
L 489.858247 -167.596636 
L 487.562038 -166.194354 
L 485.265828 -164.824385 
L 482.969619 -163.407769 
L 480.673409 -161.918497 
L 478.377199 -160.491109 
L 476.08099 -159.193923 
L 473.78478 -157.879755 
L 471.488571 -156.626667 
L 469.192361 -155.378806 
L 466.896152 -154.259656 
L 464.599942 -153.021096 
L 462.303733 -151.716235 
L 460.007523 -150.395667 
L 457.711314 -149.088068 
L 455.415104 -147.847636 
L 453.118895 -146.560716 
L 450.822685 -145.393314 
L 448.526475 -144.072421 
L 446.230266 -142.837537 
L 443.934056 -141.556345 
L 441.637847 -140.283756 
L 439.341637 -139.044032 
L 437.045428 -137.629326 
L 434.749218 -136.332763 
L 432.453009 -135.099742 
L 430.156799 -133.87314 
L 427.86059 -132.780532 
L 425.56438 -131.616881 
L 423.268171 -130.319865 
L 420.971961 -129.158151 
L 418.675751 -128.083056 
L 416.379542 -127.063726 
L 414.083332 -126.052575 
L 411.787123 -125.042185 
L 409.490913 -124.109666 
L 407.194704 -123.179059 
L 404.898494 -122.258623 
L 402.602285 -121.414737 
L 400.306075 -120.555579 
L 398.009866 -119.633161 
L 395.713656 -118.710992 
L 393.417447 -117.92103 
L 391.121237 -117.136338 
L 388.825027 -116.351828 
L 386.528818 -115.556414 
L 384.232608 -114.714275 
L 381.936399 -113.848036 
L 379.640189 -113.00848 
L 377.34398 -112.115707 
L 375.04777 -111.243384 
L 372.751561 -110.375987 
L 370.455351 -109.522352 
L 368.159142 -108.638056 
L 365.862932 -107.788888 
L 363.566723 -106.988152 
L 361.270513 -106.206668 
L 358.974303 -105.447612 
L 356.678094 -104.693963 
L 354.381884 -104.010438 
L 352.085675 -103.285828 
L 349.789465 -102.439497 
L 347.493256 -101.649622 
L 345.197046 -100.946024 
L 342.900837 -100.238545 
L 340.604627 -99.561116 
L 338.308418 -98.944797 
L 336.012208 -98.222105 
L 333.715999 -97.454148 
L 331.419789 -96.622087 
L 329.123579 -95.797929 
L 326.82737 -95.173007 
L 324.53116 -94.596801 
L 322.234951 -94.051062 
L 319.938741 -93.505363 
L 317.642532 -92.989551 
L 315.346322 -92.443767 
L 313.050113 -91.928246 
L 310.753903 -91.500365 
L 308.457694 -91.065178 
L 306.161484 -90.664207 
L 303.865275 -90.266825 
L 301.569065 -89.873661 
L 299.272855 -89.474967 
L 296.976646 -89.077998 
L 294.680436 -88.612811 
L 292.384227 -88.227027 
L 290.088017 -87.884907 
L 287.791808 -87.547163 
L 285.495598 -87.256454 
L 283.199389 -86.957055 
L 280.903179 -86.71321 
L 278.60697 -86.512009 
L 276.31076 -86.287587 
L 274.014551 -86.119292 
L 271.718341 -85.955032 
L 269.422131 -85.875029 
L 267.125922 -85.734085 
L 264.829712 -85.657755 
L 262.533503 -85.584615 
L 260.237293 -85.521044 
L 257.941084 -85.457473 
L 255.644874 -85.393901 
L 253.348665 -85.33033 
L 251.052455 -85.266759 
L 248.756246 -85.203188 
L 246.460036 -85.203188 
L 244.163827 -85.139617 
L 241.867617 -85.139617 
L 239.571407 -85.139617 
L 237.275198 -85.139617 
L 234.978988 -85.139617 
L 232.682779 -85.139617 
L 230.386569 -85.139617 
L 228.09036 -85.139617 
L 225.79415 -85.139617 
L 223.497941 -85.139617 
L 221.201731 -85.139617 
L 218.905522 -85.139617 
L 216.609312 -85.139617 
L 214.313103 -85.139617 
L 212.016893 -85.139617 
L 209.720683 -85.139617 
L 207.424474 -85.139617 
L 205.128264 -85.139617 
L 202.832055 -85.139617 
L 200.535845 -85.139617 
L 198.239636 -85.139617 
L 195.943426 -85.139617 
L 193.647217 -85.139617 
L 191.351007 -85.139617 
L 189.054798 -85.139617 
L 186.758588 -85.139617 
L 184.462379 -85.139617 
L 182.166169 -85.139617 
L 179.869959 -85.139617 
L 177.57375 -85.139617 
L 175.27754 -85.139617 
L 172.981331 -85.139617 
L 170.685121 -85.139617 
L 168.388912 -85.139617 
L 166.092702 -85.139617 
L 163.796493 -85.139617 
L 161.500283 -85.139617 
L 159.204074 -85.139617 
L 156.907864 -85.139617 
L 154.611655 -85.139617 
L 152.315445 -85.139617 
L 150.019235 -85.139617 
L 147.723026 -85.139617 
L 145.426816 -85.139617 
L 143.130607 -85.139617 
z
" style="stroke: #ff0000; stroke-opacity: 0.3"/>
    </defs>
    <g clip-path="url(#p6fa9f82c2e)">
     <use xlink:href="#mc6890984c4" x="0" y="432" style="fill: #ff0000; fill-opacity: 0.3; stroke: #ff0000; stroke-opacity: 0.3"/>
    </g>
   </g>
   <g id="PolyCollection_4">
    <defs>
     <path id="m4085c72ae7" d="M 143.130607 -85.139617 
L 143.130607 -85.139617 
L 145.426816 -85.139617 
L 147.723026 -85.139617 
L 150.019235 -85.139617 
L 152.315445 -85.139617 
L 154.611655 -85.139617 
L 156.907864 -85.139617 
L 159.204074 -85.139617 
L 161.500283 -85.139617 
L 163.796493 -85.139617 
L 166.092702 -85.139617 
L 168.388912 -85.139617 
L 170.685121 -85.139617 
L 172.981331 -85.139617 
L 175.27754 -85.139617 
L 177.57375 -85.139617 
L 179.869959 -85.139617 
L 182.166169 -85.139617 
L 184.462379 -85.139617 
L 186.758588 -85.139617 
L 189.054798 -85.139617 
L 191.351007 -85.139617 
L 193.647217 -85.139617 
L 195.943426 -85.139617 
L 198.239636 -85.139617 
L 200.535845 -85.139617 
L 202.832055 -85.139617 
L 205.128264 -85.139617 
L 207.424474 -85.139617 
L 209.720683 -85.139617 
L 212.016893 -85.139617 
L 214.313103 -85.139617 
L 216.609312 -85.139617 
L 218.905522 -85.139617 
L 221.201731 -85.139617 
L 223.497941 -85.139617 
L 225.79415 -85.139617 
L 228.09036 -85.139617 
L 230.386569 -85.139617 
L 232.682779 -85.139617 
L 234.978988 -85.139617 
L 237.275198 -85.139617 
L 239.571407 -85.139617 
L 241.867617 -85.139617 
L 244.163827 -85.139617 
L 246.460036 -85.139617 
L 248.756246 -85.139617 
L 251.052455 -85.139617 
L 253.348665 -85.139617 
L 255.644874 -85.139617 
L 257.941084 -85.139617 
L 260.237293 -85.139617 
L 262.533503 -85.139617 
L 264.829712 -85.139617 
L 267.125922 -85.139617 
L 269.422131 -85.139617 
L 271.718341 -85.139617 
L 274.014551 -85.139617 
L 276.31076 -85.139617 
L 278.60697 -85.139617 
L 280.903179 -85.139617 
L 283.199389 -85.139617 
L 285.495598 -85.139617 
L 287.791808 -85.139617 
L 290.088017 -85.139617 
L 292.384227 -85.139617 
L 294.680436 -85.139617 
L 296.976646 -85.139617 
L 299.272855 -85.139617 
L 301.569065 -85.139617 
L 303.865275 -85.139617 
L 306.161484 -85.139617 
L 308.457694 -85.139617 
L 310.753903 -85.139617 
L 313.050113 -85.139617 
L 315.346322 -85.139617 
L 317.642532 -85.139617 
L 319.938741 -85.139617 
L 322.234951 -85.139617 
L 324.53116 -85.139617 
L 326.82737 -85.139617 
L 329.123579 -85.139617 
L 331.419789 -85.139617 
L 333.715999 -85.139617 
L 336.012208 -85.139617 
L 338.308418 -85.139617 
L 340.604627 -85.139617 
L 342.900837 -85.139617 
L 345.197046 -85.139617 
L 347.493256 -85.139617 
L 349.789465 -85.139617 
L 352.085675 -85.139617 
L 354.381884 -85.139617 
L 356.678094 -85.139617 
L 358.974303 -85.139617 
L 361.270513 -85.139617 
L 363.566723 -85.139617 
L 365.862932 -85.139617 
L 368.159142 -85.139617 
L 370.455351 -85.139617 
L 372.751561 -85.139617 
L 375.04777 -85.139617 
L 377.34398 -85.139617 
L 379.640189 -85.139617 
L 381.936399 -85.139617 
L 384.232608 -85.139617 
L 386.528818 -85.139617 
L 388.825027 -85.139617 
L 391.121237 -85.139617 
L 393.417447 -85.139617 
L 395.713656 -85.139617 
L 398.009866 -85.139617 
L 400.306075 -85.139617 
L 402.602285 -85.139617 
L 404.898494 -85.139617 
L 407.194704 -85.139617 
L 409.490913 -85.139617 
L 411.787123 -85.139617 
L 414.083332 -85.139617 
L 416.379542 -85.139617 
L 418.675751 -85.139617 
L 420.971961 -85.139617 
L 423.268171 -85.139617 
L 425.56438 -85.139617 
L 427.86059 -85.139617 
L 430.156799 -85.139617 
L 432.453009 -85.139617 
L 434.749218 -85.139617 
L 437.045428 -85.139617 
L 439.341637 -85.139617 
L 441.637847 -85.139617 
L 443.934056 -85.139617 
L 446.230266 -85.139617 
L 448.526475 -85.139617 
L 450.822685 -85.139617 
L 453.118895 -85.139617 
L 455.415104 -85.139617 
L 457.711314 -85.139617 
L 460.007523 -85.139617 
L 462.303733 -85.139617 
L 464.599942 -85.139617 
L 466.896152 -85.139617 
L 469.192361 -85.139617 
L 471.488571 -85.139617 
L 473.78478 -85.139617 
L 476.08099 -85.139617 
L 478.377199 -85.139617 
L 480.673409 -85.139617 
L 482.969619 -85.139617 
L 485.265828 -85.139617 
L 487.562038 -85.139617 
L 489.858247 -85.139617 
L 492.154457 -85.139617 
L 494.450666 -85.139617 
L 496.746876 -85.139617 
L 499.043085 -85.139617 
L 501.339295 -85.139617 
L 503.635504 -85.139617 
L 505.931714 -85.139617 
L 508.227923 -85.139617 
L 510.524133 -85.139617 
L 512.820343 -85.139617 
L 515.116552 -85.139617 
L 517.412762 -85.139617 
L 519.708971 -85.139617 
L 522.005181 -85.139617 
L 524.30139 -85.139617 
L 526.5976 -85.139617 
L 528.893809 -85.139617 
L 531.190019 -85.139617 
L 533.486228 -85.139617 
L 535.782438 -85.139617 
L 538.078647 -85.139617 
L 540.374857 -85.139617 
L 542.671067 -85.139617 
L 544.967276 -85.139617 
L 547.263486 -85.139617 
L 549.559695 -85.139617 
L 551.855905 -85.139617 
L 554.152114 -85.139617 
L 556.448324 -85.139617 
L 558.744533 -85.139617 
L 561.040743 -85.139617 
L 563.336952 -85.139617 
L 565.633162 -85.139617 
L 567.929371 -85.139617 
L 570.225581 -85.139617 
L 572.521791 -85.139617 
L 574.818 -85.139617 
L 577.11421 -85.139617 
L 579.410419 -85.139617 
L 581.706629 -85.139617 
L 584.002838 -85.139617 
L 586.299048 -85.139617 
L 588.595257 -85.139617 
L 590.891467 -85.139617 
L 593.187676 -85.139617 
L 595.483886 -85.139617 
L 597.780095 -85.139617 
L 600.076305 -85.139617 
L 602.372515 -85.12871 
L 604.668724 -85.117802 
L 606.964934 -85.137009 
L 609.261143 -85.153222 
L 611.557353 -85.168595 
L 613.853562 -85.183622 
L 616.149772 -85.166827 
L 618.445981 -85.148477 
L 620.742191 -85.129187 
L 623.0384 -85.109291 
L 625.33461 -85.088981 
L 627.630819 -85.068378 
L 629.927029 -85.047559 
L 632.223239 -85.026577 
L 634.519448 -85.005469 
L 636.815658 -85.032602 
L 639.111867 -85.058375 
L 641.408077 -85.025834 
L 643.704286 -84.993262 
L 646.000496 -84.960666 
L 648.296705 -84.928052 
L 650.592915 -84.895424 
L 652.889124 -84.862784 
L 655.185334 -84.87592 
L 657.481543 -84.888432 
L 659.777753 -84.900407 
L 662.073963 -84.867699 
L 664.370172 -84.834989 
L 666.666382 -84.802279 
L 668.962591 -84.802989 
L 671.258801 -84.803363 
L 673.55501 -84.814317 
L 675.85122 -84.824986 
L 678.147429 -84.877972 
L 680.443639 -84.919044 
L 682.739848 -84.917806 
L 685.036058 -84.916455 
L 687.332267 -84.915006 
L 689.628477 -84.964908 
L 691.924687 -85.013964 
L 694.220896 -85.051791 
L 696.517106 -85.178404 
L 698.813315 -85.304332 
L 701.109525 -85.467733 
L 703.405734 -85.591997 
L 705.701944 -85.752688 
L 707.998153 -85.911784 
L 710.294363 -86.069374 
L 712.590572 -86.190585 
L 714.886782 -86.311413 
L 717.182991 -86.431878 
L 719.479201 -86.570156 
L 721.775411 -86.707607 
L 724.07162 -86.811117 
L 726.36783 -86.914499 
L 728.664039 -87.082955 
L 730.960249 -87.225987 
L 733.256458 -87.398835 
L 735.552668 -87.569017 
L 737.848877 -87.765413 
L 740.145087 -87.984387 
L 742.441296 -88.169922 
L 744.737506 -88.350614 
L 747.033715 -88.526475 
L 749.329925 -88.69753 
L 751.626135 -88.863821 
L 753.922344 -89.02302 
L 756.218554 -89.234269 
L 758.514763 -89.436699 
L 760.810973 -89.582456 
L 763.107182 -89.739556 
L 765.403392 -89.888034 
L 767.699601 -90.079232 
L 769.995811 -90.265208 
L 772.29202 -90.481496 
L 774.58823 -90.678914 
L 776.884439 -90.868967 
L 779.180649 -91.039242 
L 781.476859 -91.216034 
L 783.773068 -91.39119 
L 786.069278 -91.564765 
L 788.365487 -91.736813 
L 790.661697 -91.911263 
L 792.957906 -92.146382 
L 795.254116 -92.392185 
L 797.550325 -92.650305 
L 799.846535 -92.910137 
L 802.142744 -93.168948 
L 802.142744 -105.285585 
L 802.142744 -105.285585 
L 799.846535 -104.807098 
L 797.550325 -104.329633 
L 795.254116 -103.903119 
L 792.957906 -103.516953 
L 790.661697 -103.172766 
L 788.365487 -102.820575 
L 786.069278 -102.518647 
L 783.773068 -102.218245 
L 781.476859 -101.919423 
L 779.180649 -101.622239 
L 776.884439 -101.3712 
L 774.58823 -101.034612 
L 772.29202 -100.705389 
L 769.995811 -100.342372 
L 767.699601 -100.159699 
L 765.403392 -99.982248 
L 763.107182 -99.762078 
L 760.810973 -99.497865 
L 758.514763 -99.222309 
L 756.218554 -98.792769 
L 753.922344 -98.372049 
L 751.626135 -98.109935 
L 749.329925 -97.907578 
L 747.033715 -97.709984 
L 744.737506 -97.517196 
L 742.441296 -97.329239 
L 740.145087 -97.146126 
L 737.848877 -96.943787 
L 735.552668 -96.771534 
L 733.256458 -96.625731 
L 730.960249 -96.482594 
L 728.664039 -96.362306 
L 726.36783 -96.162113 
L 724.07162 -96.002174 
L 721.775411 -95.842364 
L 719.479201 -95.663831 
L 717.182991 -95.486124 
L 714.886782 -95.185276 
L 712.590572 -94.884791 
L 710.294363 -94.58469 
L 707.998153 -94.268302 
L 705.701944 -93.953422 
L 703.405734 -93.640135 
L 701.109525 -93.343087 
L 698.813315 -93.03251 
L 696.517106 -92.737126 
L 694.220896 -92.442425 
L 691.924687 -92.164268 
L 689.628477 -91.950004 
L 687.332267 -91.736584 
L 685.036058 -91.471815 
L 682.739848 -91.207144 
L 680.443639 -90.942585 
L 678.147429 -90.667672 
L 675.85122 -90.457338 
L 673.55501 -90.257351 
L 671.258801 -90.057648 
L 668.962591 -89.794702 
L 666.666382 -89.532091 
L 664.370172 -89.341388 
L 662.073963 -89.150687 
L 659.777753 -88.959986 
L 657.481543 -88.761304 
L 655.185334 -88.56316 
L 652.889124 -88.36564 
L 650.592915 -88.175007 
L 648.296705 -87.984386 
L 646.000496 -87.79378 
L 643.704286 -87.603192 
L 641.408077 -87.412628 
L 639.111867 -87.222095 
L 636.815658 -87.089875 
L 634.519448 -86.959016 
L 632.223239 -86.83258 
L 629.927029 -86.706269 
L 627.630819 -86.580122 
L 625.33461 -86.454191 
L 623.0384 -86.328553 
L 620.742191 -86.203328 
L 618.445981 -86.07871 
L 616.149772 -85.955032 
L 613.853562 -85.832909 
L 611.557353 -85.689943 
L 609.261143 -85.547324 
L 606.964934 -85.405545 
L 604.668724 -85.266759 
L 602.372515 -85.203188 
L 600.076305 -85.139617 
L 597.780095 -85.139617 
L 595.483886 -85.139617 
L 593.187676 -85.139617 
L 590.891467 -85.139617 
L 588.595257 -85.139617 
L 586.299048 -85.139617 
L 584.002838 -85.139617 
L 581.706629 -85.139617 
L 579.410419 -85.139617 
L 577.11421 -85.139617 
L 574.818 -85.139617 
L 572.521791 -85.139617 
L 570.225581 -85.139617 
L 567.929371 -85.139617 
L 565.633162 -85.139617 
L 563.336952 -85.139617 
L 561.040743 -85.139617 
L 558.744533 -85.139617 
L 556.448324 -85.139617 
L 554.152114 -85.139617 
L 551.855905 -85.139617 
L 549.559695 -85.139617 
L 547.263486 -85.139617 
L 544.967276 -85.139617 
L 542.671067 -85.139617 
L 540.374857 -85.139617 
L 538.078647 -85.139617 
L 535.782438 -85.139617 
L 533.486228 -85.139617 
L 531.190019 -85.139617 
L 528.893809 -85.139617 
L 526.5976 -85.139617 
L 524.30139 -85.139617 
L 522.005181 -85.139617 
L 519.708971 -85.139617 
L 517.412762 -85.139617 
L 515.116552 -85.139617 
L 512.820343 -85.139617 
L 510.524133 -85.139617 
L 508.227923 -85.139617 
L 505.931714 -85.139617 
L 503.635504 -85.139617 
L 501.339295 -85.139617 
L 499.043085 -85.139617 
L 496.746876 -85.139617 
L 494.450666 -85.139617 
L 492.154457 -85.139617 
L 489.858247 -85.139617 
L 487.562038 -85.139617 
L 485.265828 -85.139617 
L 482.969619 -85.139617 
L 480.673409 -85.139617 
L 478.377199 -85.139617 
L 476.08099 -85.139617 
L 473.78478 -85.139617 
L 471.488571 -85.139617 
L 469.192361 -85.139617 
L 466.896152 -85.139617 
L 464.599942 -85.139617 
L 462.303733 -85.139617 
L 460.007523 -85.139617 
L 457.711314 -85.139617 
L 455.415104 -85.139617 
L 453.118895 -85.139617 
L 450.822685 -85.139617 
L 448.526475 -85.139617 
L 446.230266 -85.139617 
L 443.934056 -85.139617 
L 441.637847 -85.139617 
L 439.341637 -85.139617 
L 437.045428 -85.139617 
L 434.749218 -85.139617 
L 432.453009 -85.139617 
L 430.156799 -85.139617 
L 427.86059 -85.139617 
L 425.56438 -85.139617 
L 423.268171 -85.139617 
L 420.971961 -85.139617 
L 418.675751 -85.139617 
L 416.379542 -85.139617 
L 414.083332 -85.139617 
L 411.787123 -85.139617 
L 409.490913 -85.139617 
L 407.194704 -85.139617 
L 404.898494 -85.139617 
L 402.602285 -85.139617 
L 400.306075 -85.139617 
L 398.009866 -85.139617 
L 395.713656 -85.139617 
L 393.417447 -85.139617 
L 391.121237 -85.139617 
L 388.825027 -85.139617 
L 386.528818 -85.139617 
L 384.232608 -85.139617 
L 381.936399 -85.139617 
L 379.640189 -85.139617 
L 377.34398 -85.139617 
L 375.04777 -85.139617 
L 372.751561 -85.139617 
L 370.455351 -85.139617 
L 368.159142 -85.139617 
L 365.862932 -85.139617 
L 363.566723 -85.139617 
L 361.270513 -85.139617 
L 358.974303 -85.139617 
L 356.678094 -85.139617 
L 354.381884 -85.139617 
L 352.085675 -85.139617 
L 349.789465 -85.139617 
L 347.493256 -85.139617 
L 345.197046 -85.139617 
L 342.900837 -85.139617 
L 340.604627 -85.139617 
L 338.308418 -85.139617 
L 336.012208 -85.139617 
L 333.715999 -85.139617 
L 331.419789 -85.139617 
L 329.123579 -85.139617 
L 326.82737 -85.139617 
L 324.53116 -85.139617 
L 322.234951 -85.139617 
L 319.938741 -85.139617 
L 317.642532 -85.139617 
L 315.346322 -85.139617 
L 313.050113 -85.139617 
L 310.753903 -85.139617 
L 308.457694 -85.139617 
L 306.161484 -85.139617 
L 303.865275 -85.139617 
L 301.569065 -85.139617 
L 299.272855 -85.139617 
L 296.976646 -85.139617 
L 294.680436 -85.139617 
L 292.384227 -85.139617 
L 290.088017 -85.139617 
L 287.791808 -85.139617 
L 285.495598 -85.139617 
L 283.199389 -85.139617 
L 280.903179 -85.139617 
L 278.60697 -85.139617 
L 276.31076 -85.139617 
L 274.014551 -85.139617 
L 271.718341 -85.139617 
L 269.422131 -85.139617 
L 267.125922 -85.139617 
L 264.829712 -85.139617 
L 262.533503 -85.139617 
L 260.237293 -85.139617 
L 257.941084 -85.139617 
L 255.644874 -85.139617 
L 253.348665 -85.139617 
L 251.052455 -85.139617 
L 248.756246 -85.139617 
L 246.460036 -85.139617 
L 244.163827 -85.139617 
L 241.867617 -85.139617 
L 239.571407 -85.139617 
L 237.275198 -85.139617 
L 234.978988 -85.139617 
L 232.682779 -85.139617 
L 230.386569 -85.139617 
L 228.09036 -85.139617 
L 225.79415 -85.139617 
L 223.497941 -85.139617 
L 221.201731 -85.139617 
L 218.905522 -85.139617 
L 216.609312 -85.139617 
L 214.313103 -85.139617 
L 212.016893 -85.139617 
L 209.720683 -85.139617 
L 207.424474 -85.139617 
L 205.128264 -85.139617 
L 202.832055 -85.139617 
L 200.535845 -85.139617 
L 198.239636 -85.139617 
L 195.943426 -85.139617 
L 193.647217 -85.139617 
L 191.351007 -85.139617 
L 189.054798 -85.139617 
L 186.758588 -85.139617 
L 184.462379 -85.139617 
L 182.166169 -85.139617 
L 179.869959 -85.139617 
L 177.57375 -85.139617 
L 175.27754 -85.139617 
L 172.981331 -85.139617 
L 170.685121 -85.139617 
L 168.388912 -85.139617 
L 166.092702 -85.139617 
L 163.796493 -85.139617 
L 161.500283 -85.139617 
L 159.204074 -85.139617 
L 156.907864 -85.139617 
L 154.611655 -85.139617 
L 152.315445 -85.139617 
L 150.019235 -85.139617 
L 147.723026 -85.139617 
L 145.426816 -85.139617 
L 143.130607 -85.139617 
z
" style="stroke: #ffa500; stroke-opacity: 0.3"/>
    </defs>
    <g clip-path="url(#p6fa9f82c2e)">
     <use xlink:href="#m4085c72ae7" x="0" y="432" style="fill: #ffa500; fill-opacity: 0.3; stroke: #ffa500; stroke-opacity: 0.3"/>
    </g>
   </g>
   <g id="matplotlib.axis_1">
    <g id="xtick_1">
     <g id="line2d_1">
      <defs>
       <path id="m10fabe0354" d="M 0 0 
L 0 3.5 
" style="stroke: #000000; stroke-width: 0.8"/>
      </defs>
      <g>
       <use xlink:href="#m10fabe0354" x="143.130607" y="354.76" style="stroke: #000000; stroke-width: 0.8"/>
      </g>
     </g>
     <g id="text_1">
      <!-- 0 -->
      <g transform="translate(136.130607 381.01) scale(0.28 -0.28)">
       <defs>
        <path id="SimHei-30" d="M 225 2537 
Q 250 3200 412 3587 
Q 575 3975 875 4225 
Q 1175 4475 1612 4475 
Q 2050 4475 2375 4112 
Q 2700 3750 2800 3200 
Q 2900 2650 2862 1937 
Q 2825 1225 2612 775 
Q 2400 325 1975 150 
Q 1550 -25 1125 187 
Q 700 400 525 750 
Q 350 1100 275 1487 
Q 200 1875 225 2537 
z
M 750 2687 
Q 675 2000 800 1462 
Q 925 925 1212 700 
Q 1500 475 1800 612 
Q 2100 750 2237 1162 
Q 2375 1575 2375 2062 
Q 2375 2550 2337 2950 
Q 2300 3350 2112 3675 
Q 1925 4000 1612 4012 
Q 1300 4025 1062 3700 
Q 825 3375 750 2687 
z
" transform="scale(0.015625)"/>
       </defs>
       <use xlink:href="#SimHei-30"/>
      </g>
     </g>
    </g>
    <g id="xtick_2">
     <g id="line2d_2">
      <g>
       <use xlink:href="#m10fabe0354" x="257.941084" y="354.76" style="stroke: #000000; stroke-width: 0.8"/>
      </g>
     </g>
     <g id="text_2">
      <!-- 50 -->
      <g transform="translate(243.941084 381.01) scale(0.28 -0.28)">
       <defs>
        <path id="SimHei-35" d="M 550 1325 
Q 725 650 1150 575 
Q 1575 500 1837 662 
Q 2100 825 2212 1087 
Q 2325 1350 2312 1675 
Q 2300 2000 2137 2225 
Q 1975 2450 1725 2525 
Q 1475 2600 1162 2525 
Q 850 2450 650 2175 
L 225 2225 
Q 275 2375 700 4375 
L 2675 4375 
L 2675 3925 
L 1075 3925 
Q 950 3250 825 2850 
Q 1200 3025 1525 3012 
Q 1850 3000 2150 2862 
Q 2450 2725 2587 2487 
Q 2725 2250 2787 2012 
Q 2850 1775 2837 1500 
Q 2825 1225 2725 937 
Q 2625 650 2425 462 
Q 2225 275 1937 162 
Q 1650 50 1275 75 
Q 900 100 562 350 
Q 225 600 100 1200 
L 550 1325 
z
" transform="scale(0.015625)"/>
       </defs>
       <use xlink:href="#SimHei-35"/>
       <use xlink:href="#SimHei-30" x="50"/>
      </g>
     </g>
    </g>
    <g id="xtick_3">
     <g id="line2d_3">
      <g>
       <use xlink:href="#m10fabe0354" x="372.751561" y="354.76" style="stroke: #000000; stroke-width: 0.8"/>
      </g>
     </g>
     <g id="text_3">
      <!-- 100 -->
      <g transform="translate(351.751561 381.01) scale(0.28 -0.28)">
       <defs>
        <path id="SimHei-31" d="M 1400 3600 
Q 1075 3275 575 2975 
L 575 3450 
Q 1200 3875 1600 4450 
L 1900 4450 
L 1900 150 
L 1400 150 
L 1400 3600 
z
" transform="scale(0.015625)"/>
       </defs>
       <use xlink:href="#SimHei-31"/>
       <use xlink:href="#SimHei-30" x="50"/>
       <use xlink:href="#SimHei-30" x="100"/>
      </g>
     </g>
    </g>
    <g id="xtick_4">
     <g id="line2d_4">
      <g>
       <use xlink:href="#m10fabe0354" x="487.562038" y="354.76" style="stroke: #000000; stroke-width: 0.8"/>
      </g>
     </g>
     <g id="text_4">
      <!-- 150 -->
      <g transform="translate(466.562038 381.01) scale(0.28 -0.28)">
       <use xlink:href="#SimHei-31"/>
       <use xlink:href="#SimHei-35" x="50"/>
       <use xlink:href="#SimHei-30" x="100"/>
      </g>
     </g>
    </g>
    <g id="xtick_5">
     <g id="line2d_5">
      <g>
       <use xlink:href="#m10fabe0354" x="602.372515" y="354.76" style="stroke: #000000; stroke-width: 0.8"/>
      </g>
     </g>
     <g id="text_5">
      <!-- 200 -->
      <g transform="translate(581.372515 381.01) scale(0.28 -0.28)">
       <defs>
        <path id="SimHei-32" d="M 300 250 
Q 325 625 650 925 
Q 975 1225 1475 1862 
Q 1975 2500 2125 2850 
Q 2275 3200 2237 3450 
Q 2200 3700 2000 3862 
Q 1800 4025 1537 4000 
Q 1275 3975 1037 3800 
Q 800 3625 675 3275 
L 200 3350 
Q 400 3925 712 4187 
Q 1025 4450 1450 4475 
Q 1700 4500 1900 4462 
Q 2100 4425 2312 4287 
Q 2525 4150 2662 3875 
Q 2800 3600 2762 3212 
Q 2725 2825 2375 2287 
Q 2025 1750 1025 600 
L 2825 600 
L 2825 150 
L 300 150 
L 300 250 
z
" transform="scale(0.015625)"/>
       </defs>
       <use xlink:href="#SimHei-32"/>
       <use xlink:href="#SimHei-30" x="50"/>
       <use xlink:href="#SimHei-30" x="100"/>
      </g>
     </g>
    </g>
    <g id="xtick_6">
     <g id="line2d_6">
      <g>
       <use xlink:href="#m10fabe0354" x="717.182991" y="354.76" style="stroke: #000000; stroke-width: 0.8"/>
      </g>
     </g>
     <g id="text_6">
      <!-- 250 -->
      <g transform="translate(696.182991 381.01) scale(0.28 -0.28)">
       <use xlink:href="#SimHei-32"/>
       <use xlink:href="#SimHei-35" x="50"/>
       <use xlink:href="#SimHei-30" x="100"/>
      </g>
     </g>
    </g>
    <g id="xtick_7">
     <g id="line2d_7">
      <g>
       <use xlink:href="#m10fabe0354" x="831.993468" y="354.76" style="stroke: #000000; stroke-width: 0.8"/>
      </g>
     </g>
     <g id="text_7">
      <!-- 300 -->
      <g transform="translate(810.993468 381.01) scale(0.28 -0.28)">
       <defs>
        <path id="SimHei-33" d="M 250 1225 
L 700 1300 
Q 800 975 1025 762 
Q 1250 550 1587 562 
Q 1925 575 2125 837 
Q 2325 1100 2300 1437 
Q 2275 1775 2037 1962 
Q 1800 2150 1275 2225 
L 1275 2550 
Q 1800 2600 2037 2825 
Q 2275 3050 2250 3412 
Q 2225 3775 1925 3937 
Q 1625 4100 1287 3975 
Q 950 3850 750 3275 
L 300 3350 
Q 450 3800 712 4100 
Q 975 4400 1425 4450 
Q 1875 4500 2212 4337 
Q 2550 4175 2687 3837 
Q 2825 3500 2725 3100 
Q 2625 2700 2150 2400 
Q 2500 2250 2687 1950 
Q 2875 1650 2812 1162 
Q 2750 675 2375 375 
Q 2000 75 1525 87 
Q 1050 100 700 387 
Q 350 675 250 1225 
z
" transform="scale(0.015625)"/>
       </defs>
       <use xlink:href="#SimHei-33"/>
       <use xlink:href="#SimHei-30" x="50"/>
       <use xlink:href="#SimHei-30" x="100"/>
      </g>
     </g>
    </g>
    <g id="text_8">
     <!-- Time Steps -->
     <g transform="translate(372.636676 416.3225) scale(0.4 -0.4)">
      <defs>
       <path id="SimHei-54" d="M 2850 3925 
L 1850 3925 
L 1850 125 
L 1275 125 
L 1275 3925 
L 275 3925 
L 275 4400 
L 2850 4400 
L 2850 3925 
z
" transform="scale(0.015625)"/>
       <path id="SimHei-69" d="M 1800 3725 
L 1300 3725 
L 1300 4375 
L 1800 4375 
L 1800 3725 
z
M 1800 125 
L 1300 125 
L 1300 2925 
L 1800 2925 
L 1800 125 
z
" transform="scale(0.015625)"/>
       <path id="SimHei-6d" d="M 3050 125 
L 2550 125 
L 2550 2150 
Q 2550 2300 2500 2400 
Q 2450 2500 2300 2500 
Q 2125 2500 1975 2312 
Q 1825 2125 1825 1825 
L 1825 125 
L 1325 125 
L 1325 2150 
Q 1325 2300 1275 2400 
Q 1225 2500 1075 2500 
Q 900 2500 750 2312 
Q 600 2125 600 1825 
L 600 125 
L 100 125 
L 100 2925 
L 600 2925 
L 600 2550 
Q 725 2750 900 2862 
Q 1075 2975 1275 2975 
Q 1475 2975 1612 2862 
Q 1750 2750 1800 2550 
Q 1925 2750 2087 2862 
Q 2250 2975 2450 2975 
Q 2750 2975 2900 2812 
Q 3050 2650 3050 2350 
L 3050 125 
z
" transform="scale(0.015625)"/>
       <path id="SimHei-65" d="M 2850 1075 
Q 2800 625 2450 350 
Q 2100 75 1625 75 
Q 1025 75 637 462 
Q 250 850 250 1525 
Q 250 2200 637 2587 
Q 1025 2975 1625 2975 
Q 2150 2975 2487 2637 
Q 2825 2300 2825 1525 
L 800 1525 
Q 800 975 1037 750 
Q 1275 525 1625 525 
Q 1900 525 2075 662 
Q 2250 800 2300 1075 
L 2850 1075 
z
M 2250 1925 
Q 2200 2275 2025 2412 
Q 1850 2550 1575 2550 
Q 1325 2550 1125 2412 
Q 925 2275 825 1925 
L 2250 1925 
z
" transform="scale(0.015625)"/>
       <path id="SimHei-20" transform="scale(0.015625)"/>
       <path id="SimHei-53" d="M 2900 1325 
Q 2900 750 2537 412 
Q 2175 75 1550 75 
Q 925 75 575 425 
Q 225 775 225 1300 
L 225 1475 
L 800 1475 
L 800 1325 
Q 800 950 1025 750 
Q 1250 550 1550 550 
Q 1950 550 2137 762 
Q 2325 975 2325 1275 
Q 2325 1525 2100 1737 
Q 1875 1950 1450 2125 
Q 850 2350 587 2625 
Q 325 2900 325 3275 
Q 325 3800 687 4125 
Q 1050 4450 1550 4450 
Q 2200 4450 2487 4062 
Q 2775 3675 2775 3225 
L 2200 3225 
Q 2225 3500 2050 3725 
Q 1875 3950 1550 3950 
Q 1250 3950 1075 3787 
Q 900 3625 900 3350 
Q 900 3125 1037 2962 
Q 1175 2800 1750 2575 
Q 2300 2350 2600 2037 
Q 2900 1725 2900 1325 
z
" transform="scale(0.015625)"/>
       <path id="SimHei-74" d="M 2750 200 
Q 2625 150 2462 112 
Q 2300 75 2025 75 
Q 1575 75 1300 325 
Q 1025 575 1025 1025 
L 1025 2525 
L 175 2525 
L 175 2925 
L 1025 2925 
L 1025 3900 
L 1525 3900 
L 1525 2925 
L 2550 2925 
L 2550 2525 
L 1525 2525 
L 1525 1000 
Q 1525 800 1625 662 
Q 1725 525 2000 525 
Q 2275 525 2450 575 
Q 2625 625 2750 700 
L 2750 200 
z
" transform="scale(0.015625)"/>
       <path id="SimHei-70" d="M 2825 1525 
Q 2825 800 2475 425 
Q 2125 50 1625 50 
Q 1350 50 1150 162 
Q 950 275 800 500 
L 800 -800 
L 300 -800 
L 300 2925 
L 800 2925 
L 800 2550 
Q 950 2775 1150 2875 
Q 1350 2975 1625 2975 
Q 2125 2975 2475 2612 
Q 2825 2250 2825 1525 
z
M 2275 1525 
Q 2275 2000 2087 2262 
Q 1900 2525 1525 2525 
Q 1225 2525 1012 2262 
Q 800 2000 800 1525 
Q 800 1050 1012 775 
Q 1225 500 1525 500 
Q 1900 500 2087 775 
Q 2275 1050 2275 1525 
z
" transform="scale(0.015625)"/>
       <path id="SimHei-73" d="M 2750 900 
Q 2750 500 2437 287 
Q 2125 75 1650 75 
Q 1050 75 725 312 
Q 400 550 400 1000 
L 900 1000 
Q 900 700 1112 600 
Q 1325 500 1625 500 
Q 1925 500 2075 612 
Q 2225 725 2225 900 
Q 2225 1025 2100 1150 
Q 1975 1275 1475 1350 
Q 900 1425 687 1637 
Q 475 1850 475 2200 
Q 475 2500 762 2737 
Q 1050 2975 1600 2975 
Q 2100 2975 2387 2750 
Q 2675 2525 2675 2150 
L 2175 2150 
Q 2175 2375 2012 2462 
Q 1850 2550 1600 2550 
Q 1275 2550 1137 2437 
Q 1000 2325 1000 2175 
Q 1000 2000 1125 1900 
Q 1250 1800 1650 1750 
Q 2300 1650 2525 1437 
Q 2750 1225 2750 900 
z
" transform="scale(0.015625)"/>
      </defs>
      <use xlink:href="#SimHei-54"/>
      <use xlink:href="#SimHei-69" x="50"/>
      <use xlink:href="#SimHei-6d" x="100"/>
      <use xlink:href="#SimHei-65" x="150"/>
      <use xlink:href="#SimHei-20" x="200"/>
      <use xlink:href="#SimHei-53" x="250"/>
      <use xlink:href="#SimHei-74" x="300"/>
      <use xlink:href="#SimHei-65" x="350"/>
      <use xlink:href="#SimHei-70" x="400"/>
      <use xlink:href="#SimHei-73" x="450"/>
     </g>
    </g>
   </g>
   <g id="matplotlib.axis_2">
    <g id="ytick_1">
     <g id="line2d_8">
      <defs>
       <path id="ma8cdf315ab" d="M 0 0 
L -3.5 0 
" style="stroke: #000000; stroke-width: 0.8"/>
      </defs>
      <g>
       <use xlink:href="#ma8cdf315ab" x="110.18" y="346.860383" style="stroke: #000000; stroke-width: 0.8"/>
      </g>
     </g>
     <g id="text_9">
      <!-- 0 -->
      <g transform="translate(89.18 356.485383) scale(0.28 -0.28)">
       <use xlink:href="#SimHei-30"/>
      </g>
     </g>
    </g>
    <g id="ytick_2">
     <g id="line2d_9">
      <g>
       <use xlink:href="#ma8cdf315ab" x="110.18" y="307.3623" style="stroke: #000000; stroke-width: 0.8"/>
      </g>
     </g>
     <g id="text_10">
      <!-- 500 -->
      <g transform="translate(61.18 316.9873) scale(0.28 -0.28)">
       <use xlink:href="#SimHei-35"/>
       <use xlink:href="#SimHei-30" x="50"/>
       <use xlink:href="#SimHei-30" x="100"/>
      </g>
     </g>
    </g>
    <g id="ytick_3">
     <g id="line2d_10">
      <g>
       <use xlink:href="#ma8cdf315ab" x="110.18" y="267.864217" style="stroke: #000000; stroke-width: 0.8"/>
      </g>
     </g>
     <g id="text_11">
      <!-- 1000 -->
      <g transform="translate(47.18 277.489217) scale(0.28 -0.28)">
       <use xlink:href="#SimHei-31"/>
       <use xlink:href="#SimHei-30" x="50"/>
       <use xlink:href="#SimHei-30" x="100"/>
       <use xlink:href="#SimHei-30" x="150"/>
      </g>
     </g>
    </g>
    <g id="ytick_4">
     <g id="line2d_11">
      <g>
       <use xlink:href="#ma8cdf315ab" x="110.18" y="228.366134" style="stroke: #000000; stroke-width: 0.8"/>
      </g>
     </g>
     <g id="text_12">
      <!-- 1500 -->
      <g transform="translate(47.18 237.991134) scale(0.28 -0.28)">
       <use xlink:href="#SimHei-31"/>
       <use xlink:href="#SimHei-35" x="50"/>
       <use xlink:href="#SimHei-30" x="100"/>
       <use xlink:href="#SimHei-30" x="150"/>
      </g>
     </g>
    </g>
    <g id="ytick_5">
     <g id="line2d_12">
      <g>
       <use xlink:href="#ma8cdf315ab" x="110.18" y="188.868051" style="stroke: #000000; stroke-width: 0.8"/>
      </g>
     </g>
     <g id="text_13">
      <!-- 2000 -->
      <g transform="translate(47.18 198.493051) scale(0.28 -0.28)">
       <use xlink:href="#SimHei-32"/>
       <use xlink:href="#SimHei-30" x="50"/>
       <use xlink:href="#SimHei-30" x="100"/>
       <use xlink:href="#SimHei-30" x="150"/>
      </g>
     </g>
    </g>
    <g id="ytick_6">
     <g id="line2d_13">
      <g>
       <use xlink:href="#ma8cdf315ab" x="110.18" y="149.369967" style="stroke: #000000; stroke-width: 0.8"/>
      </g>
     </g>
     <g id="text_14">
      <!-- 2500 -->
      <g transform="translate(47.18 158.994967) scale(0.28 -0.28)">
       <use xlink:href="#SimHei-32"/>
       <use xlink:href="#SimHei-35" x="50"/>
       <use xlink:href="#SimHei-30" x="100"/>
       <use xlink:href="#SimHei-30" x="150"/>
      </g>
     </g>
    </g>
    <g id="ytick_7">
     <g id="line2d_14">
      <g>
       <use xlink:href="#ma8cdf315ab" x="110.18" y="109.871884" style="stroke: #000000; stroke-width: 0.8"/>
      </g>
     </g>
     <g id="text_15">
      <!-- 3000 -->
      <g transform="translate(47.18 119.496884) scale(0.28 -0.28)">
       <use xlink:href="#SimHei-33"/>
       <use xlink:href="#SimHei-30" x="50"/>
       <use xlink:href="#SimHei-30" x="100"/>
       <use xlink:href="#SimHei-30" x="150"/>
      </g>
     </g>
    </g>
    <g id="ytick_8">
     <g id="line2d_15">
      <g>
       <use xlink:href="#ma8cdf315ab" x="110.18" y="70.373801" style="stroke: #000000; stroke-width: 0.8"/>
      </g>
     </g>
     <g id="text_16">
      <!-- 3500 -->
      <g transform="translate(47.18 79.998801) scale(0.28 -0.28)">
       <use xlink:href="#SimHei-33"/>
       <use xlink:href="#SimHei-35" x="50"/>
       <use xlink:href="#SimHei-30" x="100"/>
       <use xlink:href="#SimHei-30" x="150"/>
      </g>
     </g>
    </g>
    <g id="ytick_9">
     <g id="line2d_16">
      <g>
       <use xlink:href="#ma8cdf315ab" x="110.18" y="30.875718" style="stroke: #000000; stroke-width: 0.8"/>
      </g>
     </g>
     <g id="text_17">
      <!-- 4000 -->
      <g transform="translate(47.18 40.500718) scale(0.28 -0.28)">
       <defs>
        <path id="SimHei-34" d="M 2000 1100 
L 75 1100 
L 75 1525 
L 2100 4450 
L 2475 4450 
L 2475 1525 
L 3075 1525 
L 3075 1100 
L 2475 1100 
L 2475 150 
L 2000 150 
L 2000 1100 
z
M 2000 1525 
L 2000 3500 
L 600 1525 
L 2000 1525 
z
" transform="scale(0.015625)"/>
       </defs>
       <use xlink:href="#SimHei-34"/>
       <use xlink:href="#SimHei-30" x="50"/>
       <use xlink:href="#SimHei-30" x="100"/>
       <use xlink:href="#SimHei-30" x="150"/>
      </g>
     </g>
    </g>
    <g id="text_18">
     <!-- $m_{vct}$ -->
     <g transform="translate(35.98 224.38) rotate(-90) scale(0.4 -0.4)">
      <defs>
       <path id="DejaVuSans-Oblique-6d" d="M 5747 2113 
L 5338 0 
L 4763 0 
L 5166 2094 
Q 5191 2228 5203 2325 
Q 5216 2422 5216 2491 
Q 5216 2772 5059 2928 
Q 4903 3084 4622 3084 
Q 4203 3084 3875 2770 
Q 3547 2456 3450 1953 
L 3066 0 
L 2491 0 
L 2900 2094 
Q 2925 2209 2937 2307 
Q 2950 2406 2950 2484 
Q 2950 2769 2794 2926 
Q 2638 3084 2363 3084 
Q 1938 3084 1609 2770 
Q 1281 2456 1184 1953 
L 800 0 
L 225 0 
L 909 3500 
L 1484 3500 
L 1375 2956 
Q 1609 3263 1923 3423 
Q 2238 3584 2597 3584 
Q 2978 3584 3223 3384 
Q 3469 3184 3519 2828 
Q 3781 3197 4126 3390 
Q 4472 3584 4856 3584 
Q 5306 3584 5551 3325 
Q 5797 3066 5797 2591 
Q 5797 2488 5784 2364 
Q 5772 2241 5747 2113 
z
" transform="scale(0.015625)"/>
       <path id="DejaVuSans-Oblique-76" d="M 459 3500 
L 1069 3500 
L 1581 525 
L 3256 3500 
L 3866 3500 
L 1875 0 
L 1100 0 
L 459 3500 
z
" transform="scale(0.015625)"/>
       <path id="DejaVuSans-Oblique-63" d="M 3431 3366 
L 3316 2797 
Q 3109 2947 2876 3022 
Q 2644 3097 2394 3097 
Q 2119 3097 1870 3000 
Q 1622 2903 1453 2725 
Q 1184 2453 1037 2087 
Q 891 1722 891 1331 
Q 891 859 1127 628 
Q 1363 397 1844 397 
Q 2081 397 2348 469 
Q 2616 541 2906 684 
L 2797 116 
Q 2547 13 2283 -39 
Q 2019 -91 1741 -91 
Q 1044 -91 669 257 
Q 294 606 294 1253 
Q 294 1797 489 2255 
Q 684 2713 1069 3078 
Q 1331 3328 1684 3456 
Q 2038 3584 2456 3584 
Q 2700 3584 2940 3529 
Q 3181 3475 3431 3366 
z
" transform="scale(0.015625)"/>
       <path id="DejaVuSans-Oblique-74" d="M 2706 3500 
L 2619 3053 
L 1472 3053 
L 1100 1153 
Q 1081 1047 1072 975 
Q 1063 903 1063 863 
Q 1063 663 1183 572 
Q 1303 481 1569 481 
L 2150 481 
L 2053 0 
L 1503 0 
Q 991 0 739 200 
Q 488 400 488 806 
Q 488 878 497 964 
Q 506 1050 525 1153 
L 897 3053 
L 409 3053 
L 500 3500 
L 978 3500 
L 1172 4494 
L 1747 4494 
L 1556 3500 
L 2706 3500 
z
" transform="scale(0.015625)"/>
      </defs>
      <use xlink:href="#DejaVuSans-Oblique-6d"/>
      <use xlink:href="#DejaVuSans-Oblique-76" transform="translate(97.412109 -16.40625) scale(0.7)"/>
      <use xlink:href="#DejaVuSans-Oblique-63" transform="translate(138.837891 -16.40625) scale(0.7)"/>
      <use xlink:href="#DejaVuSans-Oblique-74" transform="translate(177.324219 -16.40625) scale(0.7)"/>
     </g>
    </g>
   </g>
   <g id="line2d_17">
    <path d="M 143.130607 346.860383 
L 802.142744 346.860383 
L 802.142744 346.860383 
" clip-path="url(#p6fa9f82c2e)" style="fill: none; stroke: #0000ff; stroke-width: 3; stroke-linecap: square"/>
   </g>
   <g id="line2d_18">
    <path d="M 143.130607 346.860383 
L 306.161484 346.755055 
L 315.346322 346.597063 
L 326.82737 345.859765 
L 347.493256 343.437216 
L 361.270513 341.277988 
L 365.862932 340.435362 
L 379.640189 337.486172 
L 381.936399 336.854202 
L 386.528818 335.300611 
L 393.417447 333.457367 
L 398.009866 331.851112 
L 418.675751 324.004159 
L 437.045428 316.157207 
L 439.341637 315.024928 
L 453.118895 308.915891 
L 460.007523 305.519056 
L 462.303733 304.307782 
L 469.192361 301.226931 
L 476.08099 298.146081 
L 482.969619 295.196891 
L 492.154457 291.273414 
L 512.820343 283.479126 
L 524.30139 279.871634 
L 528.893809 278.528699 
L 533.486228 277.238429 
L 542.671067 274.842212 
L 547.263486 273.630937 
L 561.040743 270.234102 
L 567.929371 268.496186 
L 579.410419 265.678656 
L 590.891467 262.281821 
L 609.261143 256.699425 
L 625.33461 251.327686 
L 629.927029 249.642435 
L 643.704286 245.007993 
L 664.370172 238.05633 
L 707.998153 222.151769 
L 717.182991 218.991922 
L 724.07162 216.595705 
L 747.033715 208.090451 
L 760.810973 202.666048 
L 769.995811 199.11122 
L 779.180649 195.240408 
L 797.550325 187.340791 
L 802.142744 185.471215 
L 802.142744 185.471215 
" clip-path="url(#p6fa9f82c2e)" style="fill: none; stroke: #008000; stroke-width: 3; stroke-linecap: square"/>
   </g>
   <g id="line2d_19">
    <path d="M 143.130607 346.860383 
L 255.644874 346.755055 
L 269.422131 346.491735 
L 276.31076 346.228414 
L 287.791808 345.254128 
L 294.680436 344.437834 
L 299.272855 343.805865 
L 308.457694 342.568258 
L 315.346322 341.43598 
L 329.123579 338.671114 
L 338.308418 336.195901 
L 345.197046 334.536981 
L 349.789465 333.273043 
L 356.678094 331.245474 
L 365.862932 328.612269 
L 377.34398 325.004777 
L 404.898494 315.130257 
L 411.787123 312.470719 
L 420.971961 308.520911 
L 434.749218 301.779904 
L 446.230266 295.96052 
L 457.711314 290.06214 
L 466.896152 285.296038 
L 471.488571 283.031481 
L 489.858247 273.630937 
L 505.931714 265.810317 
L 519.708971 259.279967 
L 528.893809 255.040506 
L 538.078647 250.853709 
L 554.152114 243.191081 
L 563.336952 239.188609 
L 579.410419 232.15795 
L 593.187676 225.469608 
L 600.076305 222.020108 
L 606.964934 218.675937 
L 616.149772 213.936167 
L 639.111867 201.349445 
L 648.296705 196.609675 
L 652.889124 193.871141 
L 657.481543 190.842955 
L 673.55501 179.88882 
L 678.147429 176.544649 
L 687.332267 169.51399 
L 691.924687 166.038159 
L 698.813315 160.92974 
L 717.182991 146.763094 
L 730.960249 135.17699 
L 751.626135 116.586558 
L 756.218554 112.241769 
L 763.107182 105.500763 
L 774.58823 94.046319 
L 781.476859 86.726007 
L 786.069278 81.749249 
L 802.142744 63.764455 
L 802.142744 63.764455 
" clip-path="url(#p6fa9f82c2e)" style="fill: none; stroke: #ff0000; stroke-width: 3; stroke-linecap: square"/>
   </g>
   <g id="line2d_20">
    <path d="M 143.130607 346.860383 
L 604.668724 346.807719 
L 623.0384 346.281078 
L 643.704286 345.701773 
L 666.666382 344.832815 
L 696.517106 343.042235 
L 724.07162 340.593354 
L 735.552668 339.829725 
L 753.922344 338.302465 
L 760.810973 337.45984 
L 779.180649 335.66926 
L 792.957906 334.168333 
L 799.846535 333.141382 
L 802.142744 332.772734 
L 802.142744 332.772734 
" clip-path="url(#p6fa9f82c2e)" style="fill: none; stroke: #ffa500; stroke-width: 3; stroke-linecap: square"/>
   </g>
   <g id="patch_3">
    <path d="M 110.18 354.76 
L 110.18 10.8 
" style="fill: none; stroke: #000000; stroke-width: 0.8; stroke-linejoin: miter; stroke-linecap: square"/>
   </g>
   <g id="patch_4">
    <path d="M 835.093351 354.76 
L 835.093351 10.8 
" style="fill: none; stroke: #000000; stroke-width: 0.8; stroke-linejoin: miter; stroke-linecap: square"/>
   </g>
   <g id="patch_5">
    <path d="M 110.18 354.76 
L 835.093351 354.76 
" style="fill: none; stroke: #000000; stroke-width: 0.8; stroke-linejoin: miter; stroke-linecap: square"/>
   </g>
   <g id="patch_6">
    <path d="M 110.18 10.8 
L 835.093351 10.8 
" style="fill: none; stroke: #000000; stroke-width: 0.8; stroke-linejoin: miter; stroke-linecap: square"/>
   </g>
  </g>
 </g>
 <defs>
  <clipPath id="p6fa9f82c2e">
   <rect x="110.18" y="10.8" width="724.913351" height="343.96"/>
  </clipPath>
 </defs>
</svg>
