<?xml version="1.0" encoding="utf-8" standalone="no"?>
<!DOCTYPE svg PUBLIC "-//W3C//DTD SVG 1.1//EN"
  "http://www.w3.org/Graphics/SVG/1.1/DTD/svg11.dtd">
<svg xmlns:xlink="http://www.w3.org/1999/xlink" width="864pt" height="432pt" viewBox="0 0 864 432" xmlns="http://www.w3.org/2000/svg" version="1.1">
 <metadata>
  <rdf:RDF xmlns:dc="http://purl.org/dc/elements/1.1/" xmlns:cc="http://creativecommons.org/ns#" xmlns:rdf="http://www.w3.org/1999/02/22-rdf-syntax-ns#">
   <cc:Work>
    <dc:type rdf:resource="http://purl.org/dc/dcmitype/StillImage"/>
    <dc:date>2025-06-20T06:42:00.233051</dc:date>
    <dc:format>image/svg+xml</dc:format>
    <dc:creator>
     <cc:Agent>
      <dc:title>Matplotlib v3.7.1, https://matplotlib.org/</dc:title>
     </cc:Agent>
    </dc:creator>
   </cc:Work>
  </rdf:RDF>
 </metadata>
 <defs>
  <style type="text/css">*{stroke-linejoin: round; stroke-linecap: butt}</style>
 </defs>
 <g id="figure_1">
  <g id="patch_1">
   <path d="M 0 432 
L 864 432 
L 864 0 
L 0 0 
z
" style="fill: #ffffff"/>
  </g>
  <g id="axes_1">
   <g id="patch_2">
    <path d="M 110 354.76 
L 835.093351 354.76 
L 835.093351 10.8 
L 110 10.8 
z
" style="fill: #ffffff"/>
   </g>
   <g id="PolyCollection_1">
    <defs>
     <path id="m09db546951" d="M 142.958789 -134.964617 
L 142.958789 -134.964617 
L 145.255568 -134.964617 
L 147.552348 -134.964617 
L 149.849128 -134.964617 
L 152.145907 -134.964617 
L 154.442687 -134.964617 
L 156.739467 -134.964617 
L 159.036247 -134.964617 
L 161.333026 -134.964617 
L 163.629806 -134.964617 
L 165.926586 -134.964617 
L 168.223365 -134.964617 
L 170.520145 -134.964617 
L 172.816925 -134.964617 
L 175.113704 -134.964617 
L 177.410484 -134.964617 
L 179.707264 -134.964617 
L 182.004044 -134.964617 
L 184.300823 -134.964617 
L 186.597603 -134.964617 
L 188.894383 -134.964617 
L 191.191162 -134.964617 
L 193.487942 -134.964617 
L 195.784722 -134.964617 
L 198.081501 -134.964617 
L 200.378281 -134.964617 
L 202.675061 -134.964617 
L 204.971841 -134.964617 
L 207.26862 -134.964617 
L 209.5654 -134.964617 
L 211.86218 -134.964617 
L 214.158959 -134.964617 
L 216.455739 -134.964617 
L 218.752519 -134.964617 
L 221.049298 -134.964617 
L 223.346078 -134.964617 
L 225.642858 -134.964617 
L 227.939638 -134.964617 
L 230.236417 -134.964617 
L 232.533197 -134.964617 
L 234.829977 -134.964617 
L 237.126756 -134.964617 
L 239.423536 -134.964617 
L 241.720316 -134.964617 
L 244.017095 -134.964617 
L 246.313875 -134.964617 
L 248.610655 -134.964617 
L 250.907435 -134.964617 
L 253.204214 -134.964617 
L 255.500994 -134.964617 
L 257.797774 -134.964617 
L 260.094553 -134.964617 
L 262.391333 -134.964617 
L 264.688113 -134.964617 
L 266.984892 -134.964617 
L 269.281672 -134.964617 
L 271.578452 -134.964617 
L 273.875232 -134.964617 
L 276.172011 -134.964617 
L 278.468791 -134.964617 
L 280.765571 -134.964617 
L 283.06235 -134.964617 
L 285.35913 -134.964617 
L 287.65591 -134.964617 
L 289.952689 -134.964617 
L 292.249469 -134.964617 
L 294.546249 -134.964617 
L 296.843029 -134.964617 
L 299.139808 -134.964617 
L 301.436588 -134.964617 
L 303.733368 -134.964617 
L 306.030147 -134.964617 
L 308.326927 -134.964617 
L 310.623707 -134.964617 
L 312.920486 -134.964617 
L 315.217266 -134.964617 
L 317.514046 -134.964617 
L 319.810826 -134.964617 
L 322.107605 -134.964617 
L 324.404385 -134.964617 
L 326.701165 -134.964617 
L 328.997944 -134.964617 
L 331.294724 -134.964617 
L 333.591504 -134.964617 
L 335.888283 -134.964617 
L 338.185063 -134.964617 
L 340.481843 -134.964617 
L 342.778623 -134.964617 
L 345.075402 -134.964617 
L 347.372182 -134.964617 
L 349.668962 -134.964617 
L 351.965741 -134.964617 
L 354.262521 -134.964617 
L 356.559301 -134.964617 
L 358.85608 -134.964617 
L 361.15286 -134.964617 
L 363.44964 -134.964617 
L 365.74642 -134.964617 
L 368.043199 -134.964617 
L 370.339979 -134.964617 
L 372.636759 -134.964617 
L 374.933538 -134.964617 
L 377.230318 -134.964617 
L 379.527098 -134.964617 
L 381.823877 -134.964617 
L 384.120657 -134.964617 
L 386.417437 -134.964617 
L 388.714217 -134.964617 
L 391.010996 -134.964617 
L 393.307776 -134.964617 
L 395.604556 -134.964617 
L 397.901335 -134.964617 
L 400.198115 -134.964617 
L 402.494895 -134.964617 
L 404.791674 -134.964617 
L 407.088454 -134.964617 
L 409.385234 -134.964617 
L 411.682014 -134.964617 
L 413.978793 -134.964617 
L 416.275573 -134.964617 
L 418.572353 -134.964617 
L 420.869132 -134.964617 
L 423.165912 -134.964617 
L 425.462692 -134.964617 
L 427.759471 -134.964617 
L 430.056251 -134.964617 
L 432.353031 -134.964617 
L 434.649811 -134.964617 
L 436.94659 -134.964617 
L 439.24337 -134.964617 
L 441.54015 -134.964617 
L 443.836929 -134.964617 
L 446.133709 -134.964617 
L 448.430489 -134.964617 
L 450.727268 -134.964617 
L 453.024048 -134.964617 
L 455.320828 -134.964617 
L 457.617608 -134.964617 
L 459.914387 -134.964617 
L 462.211167 -134.964617 
L 464.507947 -134.964617 
L 466.804726 -134.964617 
L 469.101506 -134.964617 
L 471.398286 -134.964617 
L 473.695065 -134.964617 
L 475.991845 -134.964617 
L 478.288625 -134.964617 
L 480.585405 -134.964617 
L 482.882184 -134.964617 
L 485.178964 -134.964617 
L 487.475744 -134.964617 
L 489.772523 -134.964617 
L 492.069303 -134.964617 
L 494.366083 -134.964617 
L 496.662862 -134.964617 
L 498.959642 -134.964617 
L 501.256422 -134.964617 
L 503.553202 -134.964617 
L 505.849981 -134.964617 
L 508.146761 -134.964617 
L 510.443541 -134.964617 
L 512.74032 -134.964617 
L 515.0371 -134.964617 
L 517.33388 -134.964617 
L 519.630659 -134.964617 
L 521.927439 -134.964617 
L 524.224219 -134.964617 
L 526.520999 -134.964617 
L 528.817778 -134.964617 
L 531.114558 -134.964617 
L 533.411338 -134.964617 
L 535.708117 -134.964617 
L 538.004897 -134.964617 
L 540.301677 -134.964617 
L 542.598456 -134.964617 
L 544.895236 -134.884916 
L 547.192016 -135.070543 
L 549.488796 -135.206741 
L 551.785575 -135.317812 
L 554.082355 -135.425966 
L 556.379135 -135.533135 
L 558.675914 -135.447437 
L 560.972694 -135.337445 
L 563.269474 -135.213162 
L 565.566253 -135.079886 
L 567.863033 -135.197294 
L 570.159813 -135.438496 
L 572.456593 -135.438496 
L 574.753372 -135.376461 
L 577.050152 -136.015743 
L 579.346932 -136.592989 
L 581.643711 -136.592989 
L 583.940491 -136.530954 
L 586.237271 -136.861907 
L 588.53405 -137.439154 
L 590.83083 -137.439154 
L 593.12761 -137.439154 
L 595.42439 -137.370717 
L 597.721169 -137.30116 
L 600.017949 -137.489288 
L 602.314729 -137.421293 
L 604.611508 -137.352273 
L 606.908288 -137.282354 
L 609.205068 -137.211643 
L 611.501847 -137.140231 
L 613.798627 -137.068197 
L 616.095407 -136.995606 
L 618.392187 -136.922517 
L 620.688966 -136.84898 
L 622.985746 -136.775038 
L 625.282526 -136.700729 
L 627.579305 -136.626088 
L 629.876085 -136.551143 
L 632.172865 -136.475922 
L 634.469644 -136.400446 
L 636.766424 -136.324738 
L 639.063204 -136.248816 
L 641.359984 -136.172696 
L 643.656763 -136.096393 
L 645.953543 -136.019922 
L 648.250323 -135.943294 
L 650.547102 -135.866519 
L 652.843882 -135.78961 
L 655.140662 -135.712574 
L 657.437441 -135.635419 
L 659.734221 -135.558155 
L 662.031001 -135.480787 
L 664.327781 -135.403321 
L 666.62456 -135.325765 
L 668.92134 -135.325765 
L 671.21812 -135.621578 
L 673.514899 -135.912553 
L 675.811679 -135.912553 
L 678.108459 -135.912553 
L 680.405238 -135.912553 
L 682.702018 -135.912553 
L 684.998798 -135.912553 
L 687.295578 -135.912553 
L 689.592357 -135.912553 
L 691.889137 -135.912553 
L 694.185917 -135.912553 
L 696.482696 -135.912553 
L 698.779476 -135.912553 
L 701.076256 -135.912553 
L 703.373035 -135.912553 
L 705.669815 -135.912553 
L 707.966595 -135.912553 
L 710.263375 -135.912553 
L 712.560154 -135.912553 
L 714.856934 -135.912553 
L 717.153714 -135.912553 
L 719.450493 -135.912553 
L 721.747273 -136.19858 
L 724.044053 -136.19858 
L 726.340832 -136.19858 
L 728.637612 -136.19858 
L 730.934392 -136.19858 
L 733.231172 -136.479552 
L 735.527951 -136.755364 
L 737.824731 -136.755364 
L 740.121511 -136.755364 
L 742.41829 -136.755364 
L 744.71507 -136.755364 
L 747.01185 -136.755364 
L 749.308629 -136.755364 
L 751.605409 -136.755364 
L 753.902189 -136.755364 
L 756.198969 -136.755364 
L 758.495748 -136.755364 
L 760.792528 -136.755364 
L 763.089308 -136.755364 
L 765.386087 -136.755364 
L 767.682867 -136.755364 
L 769.979647 -136.755364 
L 772.276426 -136.755364 
L 774.573206 -136.755364 
L 776.869986 -136.755364 
L 779.166766 -136.755364 
L 781.463545 -136.755364 
L 783.760325 -136.755364 
L 786.057105 -136.755364 
L 788.353884 -136.755364 
L 790.650664 -136.755364 
L 792.947444 -136.755364 
L 795.244223 -136.755364 
L 797.541003 -136.755364 
L 799.837783 -136.755364 
L 802.134563 -136.755364 
L 802.134563 -162.421009 
L 802.134563 -162.421009 
L 799.837783 -162.421009 
L 797.541003 -162.421009 
L 795.244223 -162.421009 
L 792.947444 -162.421009 
L 790.650664 -162.421009 
L 788.353884 -162.421009 
L 786.057105 -162.421009 
L 783.760325 -162.421009 
L 781.463545 -162.421009 
L 779.166766 -162.421009 
L 776.869986 -162.421009 
L 774.573206 -162.421009 
L 772.276426 -162.421009 
L 769.979647 -162.421009 
L 767.682867 -162.421009 
L 765.386087 -162.421009 
L 763.089308 -162.421009 
L 760.792528 -162.421009 
L 758.495748 -162.421009 
L 756.198969 -162.421009 
L 753.902189 -162.421009 
L 751.605409 -162.421009 
L 749.308629 -162.421009 
L 747.01185 -162.421009 
L 744.71507 -162.421009 
L 742.41829 -162.421009 
L 740.121511 -162.421009 
L 737.824731 -162.421009 
L 735.527951 -162.421009 
L 733.231172 -162.31199 
L 730.934392 -162.208131 
L 728.637612 -162.208131 
L 726.340832 -162.208131 
L 724.044053 -162.208131 
L 721.747273 -162.208131 
L 719.450493 -162.109327 
L 717.153714 -162.109327 
L 714.856934 -162.109327 
L 712.560154 -162.109327 
L 710.263375 -162.109327 
L 707.966595 -162.109327 
L 705.669815 -162.109327 
L 703.373035 -162.109327 
L 701.076256 -162.109327 
L 698.779476 -162.109327 
L 696.482696 -162.109327 
L 694.185917 -162.109327 
L 691.889137 -162.109327 
L 689.592357 -162.109327 
L 687.295578 -162.109327 
L 684.998798 -162.109327 
L 682.702018 -162.109327 
L 680.405238 -162.109327 
L 678.108459 -162.109327 
L 675.811679 -162.109327 
L 673.514899 -162.109327 
L 671.21812 -162.015471 
L 668.92134 -161.926453 
L 666.62456 -161.926453 
L 664.327781 -161.464066 
L 662.031001 -161.00177 
L 659.734221 -160.539571 
L 657.437441 -160.077476 
L 655.140662 -159.615491 
L 652.843882 -159.153624 
L 650.547102 -158.691884 
L 648.250323 -158.230279 
L 645.953543 -157.76882 
L 643.656763 -157.307517 
L 641.359984 -156.846384 
L 639.063204 -156.385433 
L 636.766424 -155.92468 
L 634.469644 -155.464141 
L 632.172865 -155.003835 
L 629.876085 -154.543783 
L 627.579305 -154.084007 
L 625.282526 -153.624535 
L 622.985746 -153.165396 
L 620.688966 -152.706623 
L 618.392187 -152.248255 
L 616.095407 -151.790335 
L 613.798627 -151.332914 
L 611.501847 -150.876049 
L 609.205068 -150.419806 
L 606.908288 -149.964265 
L 604.611508 -149.509515 
L 602.314729 -149.055664 
L 600.017949 -148.602838 
L 597.721169 -148.021305 
L 595.42439 -147.566917 
L 593.12761 -147.113649 
L 590.83083 -147.113649 
L 588.53405 -147.113649 
L 586.237271 -146.536403 
L 583.940491 -146.097695 
L 581.643711 -145.650829 
L 579.346932 -145.650829 
L 577.050152 -145.073583 
L 574.753372 -144.943203 
L 572.456593 -144.496337 
L 570.159813 -144.496337 
L 567.863033 -144.352709 
L 565.566253 -143.315624 
L 563.269474 -142.412687 
L 560.972694 -141.518742 
L 558.675914 -140.639088 
L 556.379135 -139.78373 
L 554.082355 -138.736406 
L 551.785575 -137.690068 
L 549.488796 -136.646646 
L 547.192016 -136.013182 
L 544.895236 -135.429149 
L 542.598456 -134.964617 
L 540.301677 -134.964617 
L 538.004897 -134.964617 
L 535.708117 -134.964617 
L 533.411338 -134.964617 
L 531.114558 -134.964617 
L 528.817778 -134.964617 
L 526.520999 -134.964617 
L 524.224219 -134.964617 
L 521.927439 -134.964617 
L 519.630659 -134.964617 
L 517.33388 -134.964617 
L 515.0371 -134.964617 
L 512.74032 -134.964617 
L 510.443541 -134.964617 
L 508.146761 -134.964617 
L 505.849981 -134.964617 
L 503.553202 -134.964617 
L 501.256422 -134.964617 
L 498.959642 -134.964617 
L 496.662862 -134.964617 
L 494.366083 -134.964617 
L 492.069303 -134.964617 
L 489.772523 -134.964617 
L 487.475744 -134.964617 
L 485.178964 -134.964617 
L 482.882184 -134.964617 
L 480.585405 -134.964617 
L 478.288625 -134.964617 
L 475.991845 -134.964617 
L 473.695065 -134.964617 
L 471.398286 -134.964617 
L 469.101506 -134.964617 
L 466.804726 -134.964617 
L 464.507947 -134.964617 
L 462.211167 -134.964617 
L 459.914387 -134.964617 
L 457.617608 -134.964617 
L 455.320828 -134.964617 
L 453.024048 -134.964617 
L 450.727268 -134.964617 
L 448.430489 -134.964617 
L 446.133709 -134.964617 
L 443.836929 -134.964617 
L 441.54015 -134.964617 
L 439.24337 -134.964617 
L 436.94659 -134.964617 
L 434.649811 -134.964617 
L 432.353031 -134.964617 
L 430.056251 -134.964617 
L 427.759471 -134.964617 
L 425.462692 -134.964617 
L 423.165912 -134.964617 
L 420.869132 -134.964617 
L 418.572353 -134.964617 
L 416.275573 -134.964617 
L 413.978793 -134.964617 
L 411.682014 -134.964617 
L 409.385234 -134.964617 
L 407.088454 -134.964617 
L 404.791674 -134.964617 
L 402.494895 -134.964617 
L 400.198115 -134.964617 
L 397.901335 -134.964617 
L 395.604556 -134.964617 
L 393.307776 -134.964617 
L 391.010996 -134.964617 
L 388.714217 -134.964617 
L 386.417437 -134.964617 
L 384.120657 -134.964617 
L 381.823877 -134.964617 
L 379.527098 -134.964617 
L 377.230318 -134.964617 
L 374.933538 -134.964617 
L 372.636759 -134.964617 
L 370.339979 -134.964617 
L 368.043199 -134.964617 
L 365.74642 -134.964617 
L 363.44964 -134.964617 
L 361.15286 -134.964617 
L 358.85608 -134.964617 
L 356.559301 -134.964617 
L 354.262521 -134.964617 
L 351.965741 -134.964617 
L 349.668962 -134.964617 
L 347.372182 -134.964617 
L 345.075402 -134.964617 
L 342.778623 -134.964617 
L 340.481843 -134.964617 
L 338.185063 -134.964617 
L 335.888283 -134.964617 
L 333.591504 -134.964617 
L 331.294724 -134.964617 
L 328.997944 -134.964617 
L 326.701165 -134.964617 
L 324.404385 -134.964617 
L 322.107605 -134.964617 
L 319.810826 -134.964617 
L 317.514046 -134.964617 
L 315.217266 -134.964617 
L 312.920486 -134.964617 
L 310.623707 -134.964617 
L 308.326927 -134.964617 
L 306.030147 -134.964617 
L 303.733368 -134.964617 
L 301.436588 -134.964617 
L 299.139808 -134.964617 
L 296.843029 -134.964617 
L 294.546249 -134.964617 
L 292.249469 -134.964617 
L 289.952689 -134.964617 
L 287.65591 -134.964617 
L 285.35913 -134.964617 
L 283.06235 -134.964617 
L 280.765571 -134.964617 
L 278.468791 -134.964617 
L 276.172011 -134.964617 
L 273.875232 -134.964617 
L 271.578452 -134.964617 
L 269.281672 -134.964617 
L 266.984892 -134.964617 
L 264.688113 -134.964617 
L 262.391333 -134.964617 
L 260.094553 -134.964617 
L 257.797774 -134.964617 
L 255.500994 -134.964617 
L 253.204214 -134.964617 
L 250.907435 -134.964617 
L 248.610655 -134.964617 
L 246.313875 -134.964617 
L 244.017095 -134.964617 
L 241.720316 -134.964617 
L 239.423536 -134.964617 
L 237.126756 -134.964617 
L 234.829977 -134.964617 
L 232.533197 -134.964617 
L 230.236417 -134.964617 
L 227.939638 -134.964617 
L 225.642858 -134.964617 
L 223.346078 -134.964617 
L 221.049298 -134.964617 
L 218.752519 -134.964617 
L 216.455739 -134.964617 
L 214.158959 -134.964617 
L 211.86218 -134.964617 
L 209.5654 -134.964617 
L 207.26862 -134.964617 
L 204.971841 -134.964617 
L 202.675061 -134.964617 
L 200.378281 -134.964617 
L 198.081501 -134.964617 
L 195.784722 -134.964617 
L 193.487942 -134.964617 
L 191.191162 -134.964617 
L 188.894383 -134.964617 
L 186.597603 -134.964617 
L 184.300823 -134.964617 
L 182.004044 -134.964617 
L 179.707264 -134.964617 
L 177.410484 -134.964617 
L 175.113704 -134.964617 
L 172.816925 -134.964617 
L 170.520145 -134.964617 
L 168.223365 -134.964617 
L 165.926586 -134.964617 
L 163.629806 -134.964617 
L 161.333026 -134.964617 
L 159.036247 -134.964617 
L 156.739467 -134.964617 
L 154.442687 -134.964617 
L 152.145907 -134.964617 
L 149.849128 -134.964617 
L 147.552348 -134.964617 
L 145.255568 -134.964617 
L 142.958789 -134.964617 
z
" style="stroke: #0000ff; stroke-opacity: 0.3"/>
    </defs>
    <g clip-path="url(#pc6ac04921a)">
     <use xlink:href="#m09db546951" x="0" y="432" style="fill: #0000ff; fill-opacity: 0.3; stroke: #0000ff; stroke-opacity: 0.3"/>
    </g>
   </g>
   <g id="PolyCollection_2">
    <defs>
     <path id="m242a12706d" d="M 142.958789 -134.964617 
L 142.958789 -134.964617 
L 145.255568 -134.964617 
L 147.552348 -134.964617 
L 149.849128 -134.964617 
L 152.145907 -134.964617 
L 154.442687 -134.964617 
L 156.739467 -134.964617 
L 159.036247 -134.964617 
L 161.333026 -134.964617 
L 163.629806 -134.964617 
L 165.926586 -134.964617 
L 168.223365 -134.964617 
L 170.520145 -134.964617 
L 172.816925 -134.964617 
L 175.113704 -134.964617 
L 177.410484 -134.964617 
L 179.707264 -134.964617 
L 182.004044 -134.964617 
L 184.300823 -134.964617 
L 186.597603 -134.964617 
L 188.894383 -134.964617 
L 191.191162 -134.964617 
L 193.487942 -134.964617 
L 195.784722 -134.964617 
L 198.081501 -134.964617 
L 200.378281 -134.964617 
L 202.675061 -134.964617 
L 204.971841 -134.964617 
L 207.26862 -134.964617 
L 209.5654 -134.964617 
L 211.86218 -134.964617 
L 214.158959 -134.964617 
L 216.455739 -134.964617 
L 218.752519 -134.964617 
L 221.049298 -134.964617 
L 223.346078 -134.964617 
L 225.642858 -134.964617 
L 227.939638 -134.964617 
L 230.236417 -134.964617 
L 232.533197 -134.964617 
L 234.829977 -134.964617 
L 237.126756 -134.964617 
L 239.423536 -134.964617 
L 241.720316 -134.964617 
L 244.017095 -134.964617 
L 246.313875 -134.964617 
L 248.610655 -134.964617 
L 250.907435 -134.964617 
L 253.204214 -134.964617 
L 255.500994 -134.964617 
L 257.797774 -134.964617 
L 260.094553 -134.964617 
L 262.391333 -134.964617 
L 264.688113 -134.964617 
L 266.984892 -134.964617 
L 269.281672 -134.964617 
L 271.578452 -134.964617 
L 273.875232 -134.964617 
L 276.172011 -134.964617 
L 278.468791 -134.964617 
L 280.765571 -134.964617 
L 283.06235 -134.964617 
L 285.35913 -134.964617 
L 287.65591 -134.964617 
L 289.952689 -134.964617 
L 292.249469 -134.964617 
L 294.546249 -134.964617 
L 296.843029 -134.964617 
L 299.139808 -134.964617 
L 301.436588 -134.964617 
L 303.733368 -134.964617 
L 306.030147 -134.964617 
L 308.326927 -134.964617 
L 310.623707 -134.964617 
L 312.920486 -134.964617 
L 315.217266 -134.964617 
L 317.514046 -134.964617 
L 319.810826 -134.964617 
L 322.107605 -134.964617 
L 324.404385 -134.964617 
L 326.701165 -134.964617 
L 328.997944 -134.964617 
L 331.294724 -134.964617 
L 333.591504 -134.964617 
L 335.888283 -134.964617 
L 338.185063 -134.964617 
L 340.481843 -134.964617 
L 342.778623 -134.964617 
L 345.075402 -134.964617 
L 347.372182 -134.964617 
L 349.668962 -134.964617 
L 351.965741 -134.964617 
L 354.262521 -134.964617 
L 356.559301 -134.964617 
L 358.85608 -134.964617 
L 361.15286 -134.964617 
L 363.44964 -134.964617 
L 365.74642 -134.964617 
L 368.043199 -134.964617 
L 370.339979 -134.964617 
L 372.636759 -134.964617 
L 374.933538 -134.964617 
L 377.230318 -134.964617 
L 379.527098 -134.964617 
L 381.823877 -134.964617 
L 384.120657 -134.964617 
L 386.417437 -134.964617 
L 388.714217 -134.964617 
L 391.010996 -134.964617 
L 393.307776 -134.964617 
L 395.604556 -134.964617 
L 397.901335 -134.964617 
L 400.198115 -134.964617 
L 402.494895 -134.884916 
L 404.791674 -134.805215 
L 407.088454 -134.725513 
L 409.385234 -134.645812 
L 411.682014 -134.566111 
L 413.978793 -134.48641 
L 416.275573 -134.406709 
L 418.572353 -134.327008 
L 420.869132 -134.247307 
L 423.165912 -134.167606 
L 425.462692 -134.087905 
L 427.759471 -134.087905 
L 430.056251 -134.087905 
L 432.353031 -134.087905 
L 434.649811 -134.087905 
L 436.94659 -134.087905 
L 439.24337 -134.087905 
L 441.54015 -134.087905 
L 443.836929 -134.087905 
L 446.133709 -134.087905 
L 448.430489 -134.087905 
L 450.727268 -134.406677 
L 453.024048 -134.704336 
L 455.320828 -134.978396 
L 457.617608 -134.978396 
L 459.914387 -135.226651 
L 462.211167 -135.447437 
L 464.507947 -135.639853 
L 466.804726 -135.803898 
L 469.101506 -135.940473 
L 471.398286 -136.051244 
L 473.695065 -136.138415 
L 475.991845 -136.204474 
L 478.288625 -136.251971 
L 480.585405 -136.251971 
L 482.882184 -136.251971 
L 485.178964 -136.251971 
L 487.475744 -136.251971 
L 489.772523 -136.251971 
L 492.069303 -136.251971 
L 494.366083 -136.251971 
L 496.662862 -136.251971 
L 498.959642 -136.251971 
L 501.256422 -136.251971 
L 503.553202 -136.251971 
L 505.849981 -136.715661 
L 508.146761 -137.179176 
L 510.443541 -137.642453 
L 512.74032 -138.105398 
L 515.0371 -138.567861 
L 517.33388 -139.029583 
L 519.630659 -139.490084 
L 521.927439 -139.948364 
L 524.224219 -140.401957 
L 526.520999 -140.843005 
L 528.817778 -141.234623 
L 531.114558 -141.234623 
L 533.411338 -141.234623 
L 535.708117 -141.154922 
L 538.004897 -141.154922 
L 540.301677 -141.154922 
L 542.598456 -141.154922 
L 544.895236 -141.154922 
L 547.192016 -141.154922 
L 549.488796 -141.154922 
L 551.785575 -141.075221 
L 554.082355 -141.075221 
L 556.379135 -141.075221 
L 558.675914 -141.075221 
L 560.972694 -140.99552 
L 563.269474 -140.915819 
L 565.566253 -140.836118 
L 567.863033 -140.756417 
L 570.159813 -140.676716 
L 572.456593 -140.913514 
L 574.753372 -140.835068 
L 577.050152 -141.054044 
L 579.346932 -141.257166 
L 581.643711 -141.447186 
L 583.940491 -141.626394 
L 586.237271 -141.796663 
L 588.53405 -141.959516 
L 590.83083 -142.116184 
L 593.12761 -142.451361 
L 595.42439 -142.750281 
L 597.721169 -143.143214 
L 600.017949 -143.370668 
L 602.314729 -143.580347 
L 604.611508 -143.775515 
L 606.908288 -143.95877 
L 609.205068 -144.132183 
L 611.501847 -144.297404 
L 613.798627 -144.455762 
L 616.095407 -144.608325 
L 618.392187 -144.755964 
L 620.688966 -144.89939 
L 622.985746 -145.039189 
L 625.282526 -145.175846 
L 627.579305 -145.309767 
L 629.876085 -145.441293 
L 632.172865 -145.57071 
L 634.469644 -145.698263 
L 636.766424 -145.824162 
L 639.063204 -145.948586 
L 641.359984 -146.071689 
L 643.656763 -146.193605 
L 645.953543 -146.314452 
L 648.250323 -146.434333 
L 650.547102 -146.553336 
L 652.843882 -146.67154 
L 655.140662 -146.789017 
L 657.437441 -146.905828 
L 659.734221 -147.031419 
L 662.031001 -147.608665 
L 664.327781 -148.317525 
L 666.62456 -148.894772 
L 668.92134 -149.472018 
L 671.21812 -150.173175 
L 673.514899 -150.873981 
L 675.811679 -151.574452 
L 678.108459 -152.274603 
L 680.405238 -152.974447 
L 682.702018 -153.673999 
L 684.998798 -154.373271 
L 687.295578 -155.072274 
L 689.592357 -155.77102 
L 691.889137 -156.586466 
L 694.185917 -157.403784 
L 696.482696 -158.220325 
L 698.779476 -159.144916 
L 701.076256 -160.062964 
L 703.373035 -160.975021 
L 705.669815 -162.362736 
L 707.966595 -163.768955 
L 710.263375 -164.714289 
L 712.560154 -165.659444 
L 714.856934 -167.064514 
L 717.153714 -168.46913 
L 719.450493 -169.873329 
L 721.747273 -170.817656 
L 724.044053 -171.761895 
L 726.340832 -172.706056 
L 728.637612 -173.650145 
L 730.934392 -174.606172 
L 733.231172 -175.560416 
L 735.527951 -176.859076 
L 737.824731 -177.575371 
L 740.121511 -178.277326 
L 742.41829 -178.96612 
L 744.71507 -179.642818 
L 747.01185 -180.308386 
L 749.308629 -180.963695 
L 751.605409 -181.609538 
L 753.902189 -182.246632 
L 756.198969 -182.875628 
L 758.495748 -183.806613 
L 760.792528 -185.182628 
L 763.089308 -185.958606 
L 765.386087 -187.176311 
L 767.682867 -188.390868 
L 769.979647 -189.602447 
L 772.276426 -190.974561 
L 774.573206 -192.508934 
L 776.869986 -193.881172 
L 779.166766 -195.415357 
L 781.463545 -197.133761 
L 783.760325 -198.822895 
L 786.057105 -200.508933 
L 788.353884 -202.192036 
L 790.650664 -203.872357 
L 792.947444 -205.550038 
L 795.244223 -207.22521 
L 797.541003 -208.897999 
L 799.837783 -210.56852 
L 802.134563 -212.236883 
L 802.134563 -339.77331 
L 802.134563 -339.77331 
L 799.837783 -336.054042 
L 797.541003 -332.336933 
L 795.244223 -328.622091 
L 792.947444 -324.909632 
L 790.650664 -321.199682 
L 788.353884 -317.492372 
L 786.057105 -313.787845 
L 783.760325 -310.086251 
L 781.463545 -306.387754 
L 779.166766 -303.103359 
L 776.869986 -299.634743 
L 774.573206 -296.389012 
L 772.276426 -292.920585 
L 769.979647 -289.674729 
L 767.682867 -286.65317 
L 765.386087 -283.634589 
L 763.089308 -280.619155 
L 760.792528 -277.546825 
L 758.495748 -274.304871 
L 756.198969 -271.002717 
L 753.902189 -268.168236 
L 751.605409 -265.341853 
L 749.308629 -262.524219 
L 747.01185 -259.716051 
L 744.71507 -256.918142 
L 742.41829 -254.131363 
L 740.121511 -251.35668 
L 737.824731 -248.595158 
L 735.527951 -245.847976 
L 733.231172 -242.913498 
L 730.934392 -239.634603 
L 728.637612 -236.357491 
L 726.340832 -233.453273 
L 724.044053 -230.549126 
L 721.747273 -227.645058 
L 719.450493 -224.741076 
L 717.153714 -221.912137 
L 714.856934 -219.083615 
L 712.560154 -216.255545 
L 710.263375 -213.352393 
L 707.966595 -210.44942 
L 705.669815 -207.6225 
L 703.373035 -205.161907 
L 701.076256 -202.995318 
L 698.779476 -200.834719 
L 696.482696 -198.680665 
L 694.185917 -196.80339 
L 691.889137 -194.926892 
L 689.592357 -193.433353 
L 687.295578 -192.207946 
L 684.998798 -190.982795 
L 682.702018 -189.757913 
L 680.405238 -188.533311 
L 678.108459 -187.309001 
L 675.811679 -186.084998 
L 673.514899 -184.861315 
L 671.21812 -183.637967 
L 668.92134 -182.414971 
L 666.62456 -181.837725 
L 664.327781 -181.260479 
L 662.031001 -180.430016 
L 659.734221 -179.852769 
L 657.437441 -179.208699 
L 655.140662 -178.171017 
L 652.843882 -177.134002 
L 650.547102 -176.097714 
L 648.250323 -175.062225 
L 645.953543 -174.027613 
L 643.656763 -172.993968 
L 641.359984 -171.961392 
L 639.063204 -170.930002 
L 636.766424 -169.899934 
L 634.469644 -168.87134 
L 632.172865 -167.844401 
L 629.876085 -166.819326 
L 627.579305 -165.796359 
L 625.282526 -164.775788 
L 622.985746 -163.757953 
L 620.688966 -162.743259 
L 618.392187 -161.732193 
L 616.095407 -160.72534 
L 613.798627 -159.723411 
L 611.501847 -158.727276 
L 609.205068 -157.738005 
L 606.908288 -156.756925 
L 604.611508 -155.785688 
L 602.314729 -154.826364 
L 600.017949 -153.881551 
L 597.721169 -152.954512 
L 595.42439 -151.808122 
L 593.12761 -150.95255 
L 590.83083 -150.133235 
L 588.53405 -149.520241 
L 586.237271 -148.913432 
L 583.940491 -148.31404 
L 581.643711 -147.723586 
L 579.346932 -147.143945 
L 577.050152 -146.577405 
L 574.753372 -146.026719 
L 572.456593 -145.563442 
L 570.159813 -145.030579 
L 567.863033 -144.566047 
L 565.566253 -144.101516 
L 563.269474 -143.636984 
L 560.972694 -143.172452 
L 558.675914 -142.70792 
L 556.379135 -142.70792 
L 554.082355 -142.70792 
L 551.785575 -142.70792 
L 549.488796 -142.243388 
L 547.192016 -142.243388 
L 544.895236 -142.243388 
L 542.598456 -142.243388 
L 540.301677 -142.243388 
L 538.004897 -142.243388 
L 535.708117 -142.243388 
L 533.411338 -141.778856 
L 531.114558 -141.778856 
L 528.817778 -141.778856 
L 526.520999 -141.785644 
L 524.224219 -141.841862 
L 521.927439 -141.910624 
L 519.630659 -141.984073 
L 517.33388 -142.059743 
L 515.0371 -142.136634 
L 512.74032 -142.214266 
L 510.443541 -142.292381 
L 508.146761 -142.370827 
L 505.849981 -142.449511 
L 503.553202 -142.528371 
L 501.256422 -142.528371 
L 498.959642 -142.528371 
L 496.662862 -142.528371 
L 494.366083 -142.528371 
L 492.069303 -142.528371 
L 489.772523 -142.528371 
L 487.475744 -142.528371 
L 485.178964 -142.528371 
L 482.882184 -142.528371 
L 480.585405 -142.528371 
L 478.288625 -142.528371 
L 475.991845 -142.191036 
L 473.695065 -141.872265 
L 471.398286 -141.574605 
L 469.101506 -141.300545 
L 466.804726 -141.05229 
L 464.507947 -140.831504 
L 462.211167 -140.639088 
L 459.914387 -140.475044 
L 457.617608 -140.338468 
L 455.320828 -140.338468 
L 453.024048 -140.227697 
L 450.727268 -140.140526 
L 448.430489 -140.074467 
L 446.133709 -140.074467 
L 443.836929 -140.074467 
L 441.54015 -140.074467 
L 439.24337 -140.074467 
L 436.94659 -140.074467 
L 434.649811 -140.074467 
L 432.353031 -140.074467 
L 430.056251 -140.074467 
L 427.759471 -140.074467 
L 425.462692 -140.074467 
L 423.165912 -139.609935 
L 420.869132 -139.145403 
L 418.572353 -138.680871 
L 416.275573 -138.21634 
L 413.978793 -137.751808 
L 411.682014 -137.287276 
L 409.385234 -136.822744 
L 407.088454 -136.358212 
L 404.791674 -135.89368 
L 402.494895 -135.429149 
L 400.198115 -134.964617 
L 397.901335 -134.964617 
L 395.604556 -134.964617 
L 393.307776 -134.964617 
L 391.010996 -134.964617 
L 388.714217 -134.964617 
L 386.417437 -134.964617 
L 384.120657 -134.964617 
L 381.823877 -134.964617 
L 379.527098 -134.964617 
L 377.230318 -134.964617 
L 374.933538 -134.964617 
L 372.636759 -134.964617 
L 370.339979 -134.964617 
L 368.043199 -134.964617 
L 365.74642 -134.964617 
L 363.44964 -134.964617 
L 361.15286 -134.964617 
L 358.85608 -134.964617 
L 356.559301 -134.964617 
L 354.262521 -134.964617 
L 351.965741 -134.964617 
L 349.668962 -134.964617 
L 347.372182 -134.964617 
L 345.075402 -134.964617 
L 342.778623 -134.964617 
L 340.481843 -134.964617 
L 338.185063 -134.964617 
L 335.888283 -134.964617 
L 333.591504 -134.964617 
L 331.294724 -134.964617 
L 328.997944 -134.964617 
L 326.701165 -134.964617 
L 324.404385 -134.964617 
L 322.107605 -134.964617 
L 319.810826 -134.964617 
L 317.514046 -134.964617 
L 315.217266 -134.964617 
L 312.920486 -134.964617 
L 310.623707 -134.964617 
L 308.326927 -134.964617 
L 306.030147 -134.964617 
L 303.733368 -134.964617 
L 301.436588 -134.964617 
L 299.139808 -134.964617 
L 296.843029 -134.964617 
L 294.546249 -134.964617 
L 292.249469 -134.964617 
L 289.952689 -134.964617 
L 287.65591 -134.964617 
L 285.35913 -134.964617 
L 283.06235 -134.964617 
L 280.765571 -134.964617 
L 278.468791 -134.964617 
L 276.172011 -134.964617 
L 273.875232 -134.964617 
L 271.578452 -134.964617 
L 269.281672 -134.964617 
L 266.984892 -134.964617 
L 264.688113 -134.964617 
L 262.391333 -134.964617 
L 260.094553 -134.964617 
L 257.797774 -134.964617 
L 255.500994 -134.964617 
L 253.204214 -134.964617 
L 250.907435 -134.964617 
L 248.610655 -134.964617 
L 246.313875 -134.964617 
L 244.017095 -134.964617 
L 241.720316 -134.964617 
L 239.423536 -134.964617 
L 237.126756 -134.964617 
L 234.829977 -134.964617 
L 232.533197 -134.964617 
L 230.236417 -134.964617 
L 227.939638 -134.964617 
L 225.642858 -134.964617 
L 223.346078 -134.964617 
L 221.049298 -134.964617 
L 218.752519 -134.964617 
L 216.455739 -134.964617 
L 214.158959 -134.964617 
L 211.86218 -134.964617 
L 209.5654 -134.964617 
L 207.26862 -134.964617 
L 204.971841 -134.964617 
L 202.675061 -134.964617 
L 200.378281 -134.964617 
L 198.081501 -134.964617 
L 195.784722 -134.964617 
L 193.487942 -134.964617 
L 191.191162 -134.964617 
L 188.894383 -134.964617 
L 186.597603 -134.964617 
L 184.300823 -134.964617 
L 182.004044 -134.964617 
L 179.707264 -134.964617 
L 177.410484 -134.964617 
L 175.113704 -134.964617 
L 172.816925 -134.964617 
L 170.520145 -134.964617 
L 168.223365 -134.964617 
L 165.926586 -134.964617 
L 163.629806 -134.964617 
L 161.333026 -134.964617 
L 159.036247 -134.964617 
L 156.739467 -134.964617 
L 154.442687 -134.964617 
L 152.145907 -134.964617 
L 149.849128 -134.964617 
L 147.552348 -134.964617 
L 145.255568 -134.964617 
L 142.958789 -134.964617 
z
" style="stroke: #008000; stroke-opacity: 0.3"/>
    </defs>
    <g clip-path="url(#pc6ac04921a)">
     <use xlink:href="#m242a12706d" x="0" y="432" style="fill: #008000; fill-opacity: 0.3; stroke: #008000; stroke-opacity: 0.3"/>
    </g>
   </g>
   <g id="PolyCollection_3">
    <defs>
     <path id="m1eb21bebf4" d="M 142.958789 -134.964617 
L 142.958789 -134.964617 
L 145.255568 -134.964617 
L 147.552348 -134.964617 
L 149.849128 -134.964617 
L 152.145907 -134.964617 
L 154.442687 -134.964617 
L 156.739467 -134.964617 
L 159.036247 -134.964617 
L 161.333026 -134.964617 
L 163.629806 -134.964617 
L 165.926586 -134.964617 
L 168.223365 -134.964617 
L 170.520145 -134.964617 
L 172.816925 -134.964617 
L 175.113704 -134.964617 
L 177.410484 -134.964617 
L 179.707264 -134.964617 
L 182.004044 -134.964617 
L 184.300823 -134.964617 
L 186.597603 -134.964617 
L 188.894383 -134.964617 
L 191.191162 -134.964617 
L 193.487942 -134.964617 
L 195.784722 -134.964617 
L 198.081501 -134.964617 
L 200.378281 -134.964617 
L 202.675061 -134.964617 
L 204.971841 -134.964617 
L 207.26862 -134.964617 
L 209.5654 -134.964617 
L 211.86218 -134.964617 
L 214.158959 -134.964617 
L 216.455739 -134.964617 
L 218.752519 -134.964617 
L 221.049298 -134.964617 
L 223.346078 -134.964617 
L 225.642858 -134.964617 
L 227.939638 -134.964617 
L 230.236417 -134.964617 
L 232.533197 -134.964617 
L 234.829977 -134.964617 
L 237.126756 -134.964617 
L 239.423536 -134.964617 
L 241.720316 -134.964617 
L 244.017095 -134.964617 
L 246.313875 -134.964617 
L 248.610655 -134.964617 
L 250.907435 -134.964617 
L 253.204214 -134.964617 
L 255.500994 -134.964617 
L 257.797774 -134.964617 
L 260.094553 -134.964617 
L 262.391333 -134.964617 
L 264.688113 -134.964617 
L 266.984892 -134.964617 
L 269.281672 -134.964617 
L 271.578452 -134.964617 
L 273.875232 -134.964617 
L 276.172011 -134.964617 
L 278.468791 -134.964617 
L 280.765571 -134.964617 
L 283.06235 -134.964617 
L 285.35913 -134.964617 
L 287.65591 -134.964617 
L 289.952689 -134.964617 
L 292.249469 -134.964617 
L 294.546249 -134.964617 
L 296.843029 -134.964617 
L 299.139808 -134.964617 
L 301.436588 -134.964617 
L 303.733368 -134.964617 
L 306.030147 -134.964617 
L 308.326927 -134.964617 
L 310.623707 -134.964617 
L 312.920486 -134.964617 
L 315.217266 -134.964617 
L 317.514046 -134.964617 
L 319.810826 -134.964617 
L 322.107605 -134.964617 
L 324.404385 -134.964617 
L 326.701165 -134.964617 
L 328.997944 -134.964617 
L 331.294724 -134.964617 
L 333.591504 -134.964617 
L 335.888283 -134.964617 
L 338.185063 -134.884916 
L 340.481843 -134.884916 
L 342.778623 -134.884916 
L 345.075402 -134.884916 
L 347.372182 -134.884916 
L 349.668962 -134.884916 
L 351.965741 -134.884916 
L 354.262521 -134.884916 
L 356.559301 -134.884916 
L 358.85608 -134.884916 
L 361.15286 -134.884916 
L 363.44964 -134.884916 
L 365.74642 -134.884916 
L 368.043199 -134.884916 
L 370.339979 -134.884916 
L 372.636759 -134.884916 
L 374.933538 -134.884916 
L 377.230318 -134.884916 
L 379.527098 -135.077331 
L 381.823877 -135.070543 
L 384.120657 -135.014326 
L 386.417437 -134.945564 
L 388.714217 -134.872115 
L 391.010996 -134.796444 
L 393.307776 -134.719553 
L 395.604556 -134.641921 
L 397.901335 -134.563807 
L 400.198115 -134.779613 
L 402.494895 -134.978396 
L 404.791674 -135.163453 
L 407.088454 -135.337445 
L 409.385234 -135.502485 
L 411.682014 -135.609808 
L 413.978793 -135.716822 
L 416.275573 -135.823619 
L 418.572353 -135.978769 
L 420.869132 -136.556015 
L 423.165912 -137.133261 
L 425.462692 -137.710507 
L 427.759471 -138.287753 
L 430.056251 -138.865 
L 432.353031 -139.48736 
L 434.649811 -140.105784 
L 436.94659 -140.719622 
L 439.24337 -141.328092 
L 441.54015 -141.930248 
L 443.836929 -142.524947 
L 446.133709 -143.110807 
L 448.430489 -143.686165 
L 450.727268 -144.249041 
L 453.024048 -144.797108 
L 455.320828 -145.374354 
L 457.617608 -146.415115 
L 459.914387 -147.455638 
L 462.211167 -148.495829 
L 464.507947 -149.535538 
L 466.804726 -150.574506 
L 469.101506 -151.612254 
L 471.398286 -152.1895 
L 473.695065 -153.225026 
L 475.991845 -154.255865 
L 478.288625 -155.274159 
L 480.585405 -156.243024 
L 482.882184 -157.005898 
L 485.178964 -157.702646 
L 487.475744 -158.420241 
L 489.772523 -159.115958 
L 492.069303 -159.818574 
L 494.366083 -160.964937 
L 496.662862 -162.119429 
L 498.959642 -163.236004 
L 501.256422 -164.311669 
L 503.553202 -165.466162 
L 505.849981 -166.620654 
L 508.146761 -167.314645 
L 510.443541 -168.007415 
L 512.74032 -168.769363 
L 515.0371 -169.504961 
L 517.33388 -170.225118 
L 519.630659 -170.935621 
L 521.927439 -171.639744 
L 524.224219 -172.339456 
L 526.520999 -173.036001 
L 528.817778 -173.730199 
L 531.114558 -174.557463 
L 533.411338 -175.380601 
L 535.708117 -176.201568 
L 538.004897 -177.02224 
L 540.301677 -177.842692 
L 542.598456 -178.665455 
L 544.895236 -179.48642 
L 547.192016 -180.307166 
L 549.488796 -181.127735 
L 551.785575 -181.948159 
L 554.082355 -183.221857 
L 556.379135 -184.623592 
L 558.675914 -185.687954 
L 560.972694 -186.737021 
L 563.269474 -187.773381 
L 565.566253 -188.682907 
L 567.863033 -189.674116 
L 570.159813 -190.565265 
L 572.456593 -191.9144 
L 574.753372 -193.182747 
L 577.050152 -194.527401 
L 579.346932 -195.795388 
L 581.643711 -196.987594 
L 583.940491 -198.177182 
L 586.237271 -199.364215 
L 588.53405 -200.981568 
L 590.83083 -202.681095 
L 593.12761 -204.875984 
L 595.42439 -207.036655 
L 597.721169 -209.61965 
L 600.017949 -211.773378 
L 602.314729 -213.924431 
L 604.611508 -216.072601 
L 606.908288 -217.753154 
L 609.205068 -220.359344 
L 611.501847 -222.497385 
L 613.798627 -224.56533 
L 616.095407 -227.11236 
L 618.392187 -229.700655 
L 620.688966 -232.205983 
L 622.985746 -234.308174 
L 625.282526 -236.450546 
L 627.579305 -239.05227 
L 629.876085 -241.647781 
L 632.172865 -244.15665 
L 634.469644 -246.629937 
L 636.766424 -249.173778 
L 639.063204 -251.565594 
L 641.359984 -253.883343 
L 643.656763 -256.103981 
L 645.953543 -258.44212 
L 648.250323 -260.709017 
L 650.547102 -262.888892 
L 652.843882 -264.966872 
L 655.140662 -266.932389 
L 657.437441 -268.430349 
L 659.734221 -269.986171 
L 662.031001 -271.167849 
L 664.327781 -272.191259 
L 666.62456 -273.097181 
L 668.92134 -273.918832 
L 671.21812 -275.139869 
L 673.514899 -276.308581 
L 675.811679 -276.84129 
L 678.108459 -277.318685 
L 680.405238 -278.185399 
L 682.702018 -279.005003 
L 684.998798 -279.786254 
L 687.295578 -280.597133 
L 689.592357 -281.628949 
L 691.889137 -283.057153 
L 694.185917 -283.831053 
L 696.482696 -285.238363 
L 698.779476 -286.637433 
L 701.076256 -288.405885 
L 703.373035 -289.785766 
L 705.669815 -291.159115 
L 707.966595 -292.526386 
L 710.263375 -293.888 
L 712.560154 -295.244345 
L 714.856934 -296.898209 
L 717.153714 -298.552013 
L 719.450493 -300.205761 
L 721.747273 -301.504654 
L 724.044053 -302.878879 
L 726.340832 -304.533336 
L 728.637612 -306.187722 
L 730.934392 -307.842038 
L 733.231172 -309.496288 
L 735.527951 -311.150474 
L 737.824731 -312.8046 
L 740.121511 -314.458668 
L 742.41829 -316.11268 
L 744.71507 -317.766638 
L 747.01185 -319.420545 
L 749.308629 -321.152284 
L 751.605409 -322.527913 
L 753.902189 -323.901249 
L 756.198969 -325.195583 
L 758.495748 -326.488482 
L 760.792528 -327.780032 
L 763.089308 -329.070314 
L 765.386087 -330.3594 
L 767.682867 -331.647359 
L 769.979647 -333.21434 
L 772.276426 -334.774286 
L 774.573206 -336.327511 
L 776.869986 -337.945435 
L 779.166766 -339.554845 
L 781.463545 -341.155869 
L 783.760325 -342.748638 
L 786.057105 -344.33329 
L 788.353884 -345.909968 
L 790.650664 -347.241099 
L 792.947444 -348.806926 
L 795.244223 -350.365178 
L 797.541003 -351.916008 
L 799.837783 -353.45957 
L 802.134563 -354.996019 
L 802.134563 -407.51661 
L 802.134563 -407.51661 
L 799.837783 -405.589582 
L 797.541003 -403.669667 
L 795.244223 -401.75702 
L 792.947444 -399.851795 
L 790.650664 -397.954145 
L 788.353884 -396.20663 
L 786.057105 -394.319831 
L 783.760325 -392.441006 
L 781.463545 -390.570298 
L 779.166766 -388.707845 
L 776.869986 -386.853778 
L 774.573206 -385.008224 
L 772.276426 -382.713142 
L 769.979647 -380.42478 
L 767.682867 -378.143454 
L 765.386087 -375.967936 
L 763.089308 -373.793545 
L 760.792528 -371.620349 
L 758.495748 -369.448423 
L 756.198969 -367.277845 
L 753.902189 -365.108701 
L 751.605409 -363.403391 
L 749.308629 -361.700374 
L 747.01185 -359.968636 
L 744.71507 -357.774235 
L 742.41829 -355.579886 
L 740.121511 -353.38559 
L 737.824731 -351.19135 
L 735.527951 -348.997168 
L 733.231172 -346.803047 
L 730.934392 -344.608989 
L 728.637612 -342.414997 
L 726.340832 -340.221075 
L 724.044053 -338.027225 
L 721.747273 -336.322803 
L 719.450493 -334.158219 
L 717.153714 -331.963659 
L 714.856934 -329.769156 
L 712.560154 -327.574711 
L 710.263375 -325.46758 
L 707.966595 -323.365717 
L 705.669815 -321.269511 
L 703.373035 -319.179382 
L 701.076256 -317.095787 
L 698.779476 -315.015931 
L 696.482696 -312.951524 
L 694.185917 -310.895357 
L 691.889137 -308.975442 
L 689.592357 -306.940168 
L 687.295578 -304.893338 
L 684.998798 -303.010401 
L 682.702018 -300.713007 
L 680.405238 -298.453965 
L 678.108459 -296.242032 
L 675.811679 -294.025611 
L 673.514899 -291.864505 
L 671.21812 -289.56974 
L 668.92134 -287.3273 
L 666.62456 -285.070305 
L 664.327781 -282.897581 
L 662.031001 -280.842345 
L 659.734221 -278.945376 
L 657.437441 -277.422552 
L 655.140662 -275.841866 
L 652.843882 -273.959075 
L 650.547102 -272.188748 
L 648.250323 -270.520315 
L 645.953543 -268.938904 
L 643.656763 -267.428735 
L 641.359984 -266.185896 
L 639.063204 -265.040168 
L 636.766424 -263.968507 
L 634.469644 -262.66404 
L 632.172865 -261.67385 
L 629.876085 -260.719242 
L 627.579305 -259.466445 
L 625.282526 -258.219862 
L 622.985746 -256.898757 
L 620.688966 -255.922302 
L 618.392187 -255.348984 
L 616.095407 -254.08897 
L 613.798627 -253.172523 
L 611.501847 -252.161822 
L 609.205068 -250.836386 
L 606.908288 -249.594268 
L 604.611508 -248.196176 
L 602.314729 -246.880868 
L 600.017949 -245.568444 
L 597.721169 -244.258695 
L 595.42439 -243.378213 
L 593.12761 -242.075408 
L 590.83083 -240.421989 
L 588.53405 -239.042869 
L 586.237271 -237.966406 
L 583.940491 -236.459625 
L 581.643711 -234.955397 
L 579.346932 -233.453788 
L 577.050152 -231.643128 
L 574.753372 -229.524305 
L 572.456593 -227.714006 
L 570.159813 -225.599664 
L 567.863033 -223.412167 
L 565.566253 -220.939899 
L 563.269474 -218.770778 
L 560.972694 -215.958831 
L 558.675914 -213.159589 
L 556.379135 -210.375644 
L 554.082355 -207.929072 
L 551.785575 -205.739293 
L 549.488796 -203.48107 
L 547.192016 -201.222993 
L 544.895236 -198.965093 
L 542.598456 -196.707412 
L 540.301677 -194.836359 
L 538.004897 -192.578165 
L 535.708117 -190.320191 
L 533.411338 -188.062512 
L 531.114558 -186.191834 
L 528.817778 -184.325283 
L 526.520999 -182.710496 
L 524.224219 -181.098056 
L 521.927439 -179.488783 
L 519.630659 -177.883922 
L 517.33388 -176.28544 
L 515.0371 -174.696612 
L 512.74032 -173.123226 
L 510.443541 -171.576189 
L 508.146761 -170.344805 
L 505.849981 -169.114642 
L 503.553202 -167.96015 
L 501.256422 -166.805658 
L 498.959642 -165.957169 
L 496.662862 -165.14959 
L 494.366083 -163.995098 
L 492.069303 -163.217307 
L 489.772523 -161.995768 
L 487.475744 -160.382501 
L 485.178964 -158.791112 
L 482.882184 -157.948537 
L 480.585405 -156.787257 
L 478.288625 -156.216798 
L 475.991845 -155.69577 
L 473.695065 -155.187285 
L 471.398286 -154.683488 
L 469.101506 -154.106242 
L 466.804726 -153.604667 
L 464.507947 -153.104312 
L 462.211167 -152.604697 
L 459.914387 -152.105566 
L 457.617608 -151.606766 
L 455.320828 -151.108203 
L 453.024048 -150.530957 
L 450.727268 -150.309362 
L 448.430489 -150.102576 
L 446.133709 -149.908273 
L 443.836929 -149.724472 
L 441.54015 -149.549509 
L 439.24337 -149.382003 
L 436.94659 -149.220812 
L 434.649811 -149.064988 
L 432.353031 -148.913751 
L 430.056251 -148.76645 
L 427.759471 -148.189203 
L 425.462692 -147.611957 
L 423.165912 -147.034711 
L 420.869132 -146.457465 
L 418.572353 -145.880219 
L 416.275573 -145.265707 
L 413.978793 -144.218012 
L 411.682014 -143.170533 
L 409.385234 -142.123364 
L 407.088454 -141.518742 
L 404.791674 -140.923073 
L 402.494895 -140.338468 
L 400.198115 -139.76759 
L 397.901335 -139.213735 
L 395.604556 -138.750789 
L 393.307776 -138.288327 
L 391.010996 -137.826605 
L 388.714217 -137.366103 
L 386.417437 -136.907823 
L 384.120657 -136.454231 
L 381.823877 -136.013182 
L 379.527098 -135.621564 
L 377.230318 -135.429149 
L 374.933538 -135.429149 
L 372.636759 -135.429149 
L 370.339979 -135.429149 
L 368.043199 -135.429149 
L 365.74642 -135.429149 
L 363.44964 -135.429149 
L 361.15286 -135.429149 
L 358.85608 -135.429149 
L 356.559301 -135.429149 
L 354.262521 -135.429149 
L 351.965741 -135.429149 
L 349.668962 -135.429149 
L 347.372182 -135.429149 
L 345.075402 -135.429149 
L 342.778623 -135.429149 
L 340.481843 -135.429149 
L 338.185063 -135.429149 
L 335.888283 -134.964617 
L 333.591504 -134.964617 
L 331.294724 -134.964617 
L 328.997944 -134.964617 
L 326.701165 -134.964617 
L 324.404385 -134.964617 
L 322.107605 -134.964617 
L 319.810826 -134.964617 
L 317.514046 -134.964617 
L 315.217266 -134.964617 
L 312.920486 -134.964617 
L 310.623707 -134.964617 
L 308.326927 -134.964617 
L 306.030147 -134.964617 
L 303.733368 -134.964617 
L 301.436588 -134.964617 
L 299.139808 -134.964617 
L 296.843029 -134.964617 
L 294.546249 -134.964617 
L 292.249469 -134.964617 
L 289.952689 -134.964617 
L 287.65591 -134.964617 
L 285.35913 -134.964617 
L 283.06235 -134.964617 
L 280.765571 -134.964617 
L 278.468791 -134.964617 
L 276.172011 -134.964617 
L 273.875232 -134.964617 
L 271.578452 -134.964617 
L 269.281672 -134.964617 
L 266.984892 -134.964617 
L 264.688113 -134.964617 
L 262.391333 -134.964617 
L 260.094553 -134.964617 
L 257.797774 -134.964617 
L 255.500994 -134.964617 
L 253.204214 -134.964617 
L 250.907435 -134.964617 
L 248.610655 -134.964617 
L 246.313875 -134.964617 
L 244.017095 -134.964617 
L 241.720316 -134.964617 
L 239.423536 -134.964617 
L 237.126756 -134.964617 
L 234.829977 -134.964617 
L 232.533197 -134.964617 
L 230.236417 -134.964617 
L 227.939638 -134.964617 
L 225.642858 -134.964617 
L 223.346078 -134.964617 
L 221.049298 -134.964617 
L 218.752519 -134.964617 
L 216.455739 -134.964617 
L 214.158959 -134.964617 
L 211.86218 -134.964617 
L 209.5654 -134.964617 
L 207.26862 -134.964617 
L 204.971841 -134.964617 
L 202.675061 -134.964617 
L 200.378281 -134.964617 
L 198.081501 -134.964617 
L 195.784722 -134.964617 
L 193.487942 -134.964617 
L 191.191162 -134.964617 
L 188.894383 -134.964617 
L 186.597603 -134.964617 
L 184.300823 -134.964617 
L 182.004044 -134.964617 
L 179.707264 -134.964617 
L 177.410484 -134.964617 
L 175.113704 -134.964617 
L 172.816925 -134.964617 
L 170.520145 -134.964617 
L 168.223365 -134.964617 
L 165.926586 -134.964617 
L 163.629806 -134.964617 
L 161.333026 -134.964617 
L 159.036247 -134.964617 
L 156.739467 -134.964617 
L 154.442687 -134.964617 
L 152.145907 -134.964617 
L 149.849128 -134.964617 
L 147.552348 -134.964617 
L 145.255568 -134.964617 
L 142.958789 -134.964617 
z
" style="stroke: #ff0000; stroke-opacity: 0.3"/>
    </defs>
    <g clip-path="url(#pc6ac04921a)">
     <use xlink:href="#m1eb21bebf4" x="0" y="432" style="fill: #ff0000; fill-opacity: 0.3; stroke: #ff0000; stroke-opacity: 0.3"/>
    </g>
   </g>
   <g id="PolyCollection_4">
    <defs>
     <path id="m1c61a73bbf" d="M 142.958789 -134.964617 
L 142.958789 -134.964617 
L 145.255568 -134.964617 
L 147.552348 -134.964617 
L 149.849128 -134.964617 
L 152.145907 -134.964617 
L 154.442687 -134.964617 
L 156.739467 -134.964617 
L 159.036247 -134.964617 
L 161.333026 -134.964617 
L 163.629806 -134.964617 
L 165.926586 -134.964617 
L 168.223365 -134.964617 
L 170.520145 -134.964617 
L 172.816925 -134.964617 
L 175.113704 -134.964617 
L 177.410484 -134.964617 
L 179.707264 -134.964617 
L 182.004044 -134.964617 
L 184.300823 -134.964617 
L 186.597603 -134.964617 
L 188.894383 -134.964617 
L 191.191162 -134.964617 
L 193.487942 -134.964617 
L 195.784722 -134.964617 
L 198.081501 -134.964617 
L 200.378281 -134.964617 
L 202.675061 -134.964617 
L 204.971841 -134.964617 
L 207.26862 -134.964617 
L 209.5654 -134.964617 
L 211.86218 -134.964617 
L 214.158959 -134.964617 
L 216.455739 -134.964617 
L 218.752519 -134.964617 
L 221.049298 -134.964617 
L 223.346078 -134.964617 
L 225.642858 -134.964617 
L 227.939638 -134.964617 
L 230.236417 -134.964617 
L 232.533197 -134.964617 
L 234.829977 -134.964617 
L 237.126756 -134.964617 
L 239.423536 -134.964617 
L 241.720316 -134.964617 
L 244.017095 -134.964617 
L 246.313875 -134.964617 
L 248.610655 -134.964617 
L 250.907435 -134.964617 
L 253.204214 -134.964617 
L 255.500994 -134.964617 
L 257.797774 -134.964617 
L 260.094553 -134.964617 
L 262.391333 -134.964617 
L 264.688113 -134.964617 
L 266.984892 -134.964617 
L 269.281672 -134.964617 
L 271.578452 -134.964617 
L 273.875232 -134.964617 
L 276.172011 -134.964617 
L 278.468791 -134.964617 
L 280.765571 -134.964617 
L 283.06235 -134.964617 
L 285.35913 -134.964617 
L 287.65591 -134.964617 
L 289.952689 -134.964617 
L 292.249469 -134.964617 
L 294.546249 -134.964617 
L 296.843029 -134.964617 
L 299.139808 -134.964617 
L 301.436588 -134.964617 
L 303.733368 -134.964617 
L 306.030147 -134.964617 
L 308.326927 -134.964617 
L 310.623707 -134.964617 
L 312.920486 -134.964617 
L 315.217266 -134.964617 
L 317.514046 -134.964617 
L 319.810826 -134.964617 
L 322.107605 -134.964617 
L 324.404385 -134.964617 
L 326.701165 -134.964617 
L 328.997944 -134.964617 
L 331.294724 -134.964617 
L 333.591504 -134.964617 
L 335.888283 -134.964617 
L 338.185063 -134.964617 
L 340.481843 -134.964617 
L 342.778623 -134.964617 
L 345.075402 -134.964617 
L 347.372182 -134.964617 
L 349.668962 -134.964617 
L 351.965741 -134.964617 
L 354.262521 -134.964617 
L 356.559301 -134.964617 
L 358.85608 -134.964617 
L 361.15286 -134.964617 
L 363.44964 -134.964617 
L 365.74642 -134.964617 
L 368.043199 -134.964617 
L 370.339979 -134.964617 
L 372.636759 -134.964617 
L 374.933538 -134.964617 
L 377.230318 -134.964617 
L 379.527098 -134.964617 
L 381.823877 -134.964617 
L 384.120657 -134.964617 
L 386.417437 -134.964617 
L 388.714217 -134.964617 
L 391.010996 -134.964617 
L 393.307776 -134.964617 
L 395.604556 -134.964617 
L 397.901335 -134.964617 
L 400.198115 -134.964617 
L 402.494895 -134.964617 
L 404.791674 -134.964617 
L 407.088454 -134.964617 
L 409.385234 -134.964617 
L 411.682014 -134.964617 
L 413.978793 -134.964617 
L 416.275573 -134.964617 
L 418.572353 -134.964617 
L 420.869132 -134.964617 
L 423.165912 -134.964617 
L 425.462692 -134.964617 
L 427.759471 -134.964617 
L 430.056251 -134.964617 
L 432.353031 -134.964617 
L 434.649811 -134.964617 
L 436.94659 -134.964617 
L 439.24337 -134.964617 
L 441.54015 -134.964617 
L 443.836929 -134.964617 
L 446.133709 -134.964617 
L 448.430489 -134.964617 
L 450.727268 -134.964617 
L 453.024048 -134.964617 
L 455.320828 -134.964617 
L 457.617608 -134.964617 
L 459.914387 -134.964617 
L 462.211167 -134.964617 
L 464.507947 -134.964617 
L 466.804726 -134.964617 
L 469.101506 -134.964617 
L 471.398286 -134.964617 
L 473.695065 -134.964617 
L 475.991845 -134.964617 
L 478.288625 -134.964617 
L 480.585405 -134.964617 
L 482.882184 -134.964617 
L 485.178964 -134.964617 
L 487.475744 -134.964617 
L 489.772523 -134.964617 
L 492.069303 -134.964617 
L 494.366083 -134.964617 
L 496.662862 -134.964617 
L 498.959642 -134.964617 
L 501.256422 -134.964617 
L 503.553202 -134.964617 
L 505.849981 -134.964617 
L 508.146761 -134.964617 
L 510.443541 -134.964617 
L 512.74032 -134.964617 
L 515.0371 -134.964617 
L 517.33388 -134.964617 
L 519.630659 -134.964617 
L 521.927439 -134.964617 
L 524.224219 -134.964617 
L 526.520999 -134.964617 
L 528.817778 -134.964617 
L 531.114558 -134.964617 
L 533.411338 -134.964617 
L 535.708117 -134.964617 
L 538.004897 -134.964617 
L 540.301677 -134.964617 
L 542.598456 -134.964617 
L 544.895236 -134.884916 
L 547.192016 -134.884916 
L 549.488796 -134.805215 
L 551.785575 -134.725513 
L 554.082355 -134.645812 
L 556.379135 -134.566111 
L 558.675914 -134.48641 
L 560.972694 -134.406709 
L 563.269474 -134.327008 
L 565.566253 -134.247307 
L 567.863033 -134.167606 
L 570.159813 -134.087905 
L 572.456593 -134.008204 
L 574.753372 -133.928503 
L 577.050152 -133.848802 
L 579.346932 -134.090543 
L 581.643711 -134.319225 
L 583.940491 -134.536279 
L 586.237271 -134.743017 
L 588.53405 -135.010871 
L 590.83083 -135.262871 
L 593.12761 -135.498356 
L 595.42439 -135.716822 
L 597.721169 -135.917956 
L 600.017949 -136.101653 
L 602.314729 -136.268017 
L 604.611508 -136.417364 
L 606.908288 -136.550194 
L 609.205068 -136.667171 
L 611.501847 -136.769084 
L 613.798627 -136.856812 
L 616.095407 -136.93129 
L 618.392187 -136.993475 
L 620.688966 -137.044319 
L 622.985746 -137.08475 
L 625.282526 -137.115656 
L 627.579305 -137.230639 
L 629.876085 -137.345414 
L 632.172865 -137.460007 
L 634.469644 -137.574441 
L 636.766424 -137.688737 
L 639.063204 -137.879507 
L 641.359984 -138.524943 
L 643.656763 -138.697864 
L 645.953543 -138.863477 
L 648.250323 -139.02285 
L 650.547102 -139.600096 
L 652.843882 -139.713221 
L 655.140662 -140.290467 
L 657.437441 -140.867714 
L 659.734221 -141.44496 
L 662.031001 -142.022206 
L 664.327781 -143.063573 
L 666.62456 -144.104914 
L 668.92134 -145.146224 
L 671.21812 -146.1875 
L 673.514899 -147.22874 
L 675.811679 -148.338128 
L 678.108459 -149.379755 
L 680.405238 -150.42137 
L 682.702018 -151.462971 
L 684.998798 -152.565446 
L 687.295578 -153.832653 
L 689.592357 -154.987145 
L 691.889137 -156.254352 
L 694.185917 -157.986091 
L 696.482696 -159.717829 
L 698.779476 -161.449568 
L 701.076256 -163.120785 
L 703.373035 -164.783345 
L 705.669815 -166.515084 
L 707.966595 -168.246822 
L 710.263375 -170.399187 
L 712.560154 -172.482301 
L 714.856934 -174.605751 
L 717.153714 -176.714909 
L 719.450493 -178.806141 
L 721.747273 -180.995854 
L 724.044053 -183.184668 
L 726.340832 -185.241163 
L 728.637612 -187.421257 
L 730.934392 -189.743449 
L 733.231172 -191.925993 
L 735.527951 -194.081393 
L 737.824731 -196.2507 
L 740.121511 -198.590839 
L 742.41829 -200.919807 
L 744.71507 -203.233974 
L 747.01185 -205.600403 
L 749.308629 -207.716972 
L 751.605409 -209.641126 
L 753.902189 -211.415661 
L 756.198969 -213.069285 
L 758.495748 -214.567429 
L 760.792528 -216.027625 
L 763.089308 -217.467311 
L 765.386087 -219.308429 
L 767.682867 -221.781098 
L 769.979647 -223.826275 
L 772.276426 -225.856492 
L 774.573206 -227.875065 
L 776.869986 -229.443173 
L 779.166766 -231.442081 
L 781.463545 -233.435612 
L 783.760325 -235.436117 
L 786.057105 -237.422112 
L 788.353884 -239.395143 
L 790.650664 -241.366479 
L 792.947444 -243.783619 
L 795.244223 -246.210358 
L 797.541003 -248.176829 
L 799.837783 -250.14239 
L 802.134563 -252.567986 
L 802.134563 -275.197868 
L 802.134563 -275.197868 
L 799.837783 -272.235833 
L 797.541003 -269.198595 
L 795.244223 -266.162266 
L 792.947444 -263.201373 
L 790.650664 -260.615713 
L 788.353884 -257.58425 
L 786.057105 -254.939311 
L 783.760325 -252.307337 
L 781.463545 -249.689873 
L 779.166766 -246.680603 
L 776.869986 -243.676711 
L 774.573206 -240.62685 
L 772.276426 -237.642622 
L 769.979647 -234.670039 
L 767.682867 -231.712416 
L 765.386087 -228.797454 
L 763.089308 -226.020603 
L 760.792528 -223.22715 
L 758.495748 -220.454208 
L 756.198969 -217.719213 
L 753.902189 -215.52453 
L 751.605409 -213.450757 
L 749.308629 -211.526603 
L 747.01185 -209.410033 
L 744.71507 -207.158493 
L 742.41829 -205.239522 
L 740.121511 -203.335351 
L 737.824731 -201.442351 
L 735.527951 -199.763351 
L 733.231172 -197.685612 
L 730.934392 -196.019849 
L 728.637612 -194.108902 
L 726.340832 -192.440688 
L 724.044053 -191.033706 
L 721.747273 -189.374213 
L 719.450493 -187.715618 
L 717.153714 -186.343372 
L 714.856934 -184.989053 
L 712.560154 -183.649027 
L 710.263375 -182.653494 
L 707.966595 -181.342382 
L 705.669815 -179.610644 
L 703.373035 -177.878905 
L 701.076256 -176.462819 
L 698.779476 -175.05539 
L 696.482696 -173.323652 
L 694.185917 -171.591913 
L 691.889137 -169.860175 
L 689.592357 -168.048735 
L 687.295578 -166.894243 
L 684.998798 -165.082803 
L 682.702018 -164.261125 
L 680.405238 -163.763403 
L 678.108459 -163.265695 
L 675.811679 -162.767999 
L 673.514899 -161.953233 
L 671.21812 -161.455149 
L 668.92134 -160.957103 
L 666.62456 -160.45909 
L 664.327781 -159.961107 
L 662.031001 -159.463151 
L 659.734221 -158.885905 
L 657.437441 -158.308659 
L 655.140662 -157.731413 
L 652.843882 -157.154167 
L 650.547102 -156.49763 
L 648.250323 -155.920384 
L 645.953543 -154.925265 
L 643.656763 -153.936385 
L 641.359984 -152.954814 
L 639.063204 -152.060926 
L 636.766424 -151.097204 
L 634.469644 -150.441838 
L 632.172865 -149.786612 
L 629.876085 -149.131543 
L 627.579305 -148.476656 
L 625.282526 -147.821978 
L 622.985746 -147.468052 
L 620.688966 -147.123653 
L 618.392187 -146.789667 
L 616.095407 -146.467021 
L 613.798627 -146.156668 
L 611.501847 -145.859565 
L 609.205068 -145.576647 
L 606.908288 -145.308794 
L 604.611508 -145.056793 
L 602.314729 -144.821309 
L 600.017949 -144.602842 
L 597.721169 -144.401708 
L 595.42439 -144.218012 
L 593.12761 -144.051647 
L 590.83083 -143.902301 
L 588.53405 -143.76947 
L 586.237271 -143.652494 
L 583.940491 -143.08957 
L 581.643711 -142.536962 
L 579.346932 -141.995983 
L 577.050152 -141.468062 
L 574.753372 -141.003531 
L 572.456593 -140.538999 
L 570.159813 -140.074467 
L 567.863033 -139.609935 
L 565.566253 -139.145403 
L 563.269474 -138.680871 
L 560.972694 -138.21634 
L 558.675914 -137.751808 
L 556.379135 -137.287276 
L 554.082355 -136.822744 
L 551.785575 -136.358212 
L 549.488796 -135.89368 
L 547.192016 -135.429149 
L 544.895236 -135.429149 
L 542.598456 -134.964617 
L 540.301677 -134.964617 
L 538.004897 -134.964617 
L 535.708117 -134.964617 
L 533.411338 -134.964617 
L 531.114558 -134.964617 
L 528.817778 -134.964617 
L 526.520999 -134.964617 
L 524.224219 -134.964617 
L 521.927439 -134.964617 
L 519.630659 -134.964617 
L 517.33388 -134.964617 
L 515.0371 -134.964617 
L 512.74032 -134.964617 
L 510.443541 -134.964617 
L 508.146761 -134.964617 
L 505.849981 -134.964617 
L 503.553202 -134.964617 
L 501.256422 -134.964617 
L 498.959642 -134.964617 
L 496.662862 -134.964617 
L 494.366083 -134.964617 
L 492.069303 -134.964617 
L 489.772523 -134.964617 
L 487.475744 -134.964617 
L 485.178964 -134.964617 
L 482.882184 -134.964617 
L 480.585405 -134.964617 
L 478.288625 -134.964617 
L 475.991845 -134.964617 
L 473.695065 -134.964617 
L 471.398286 -134.964617 
L 469.101506 -134.964617 
L 466.804726 -134.964617 
L 464.507947 -134.964617 
L 462.211167 -134.964617 
L 459.914387 -134.964617 
L 457.617608 -134.964617 
L 455.320828 -134.964617 
L 453.024048 -134.964617 
L 450.727268 -134.964617 
L 448.430489 -134.964617 
L 446.133709 -134.964617 
L 443.836929 -134.964617 
L 441.54015 -134.964617 
L 439.24337 -134.964617 
L 436.94659 -134.964617 
L 434.649811 -134.964617 
L 432.353031 -134.964617 
L 430.056251 -134.964617 
L 427.759471 -134.964617 
L 425.462692 -134.964617 
L 423.165912 -134.964617 
L 420.869132 -134.964617 
L 418.572353 -134.964617 
L 416.275573 -134.964617 
L 413.978793 -134.964617 
L 411.682014 -134.964617 
L 409.385234 -134.964617 
L 407.088454 -134.964617 
L 404.791674 -134.964617 
L 402.494895 -134.964617 
L 400.198115 -134.964617 
L 397.901335 -134.964617 
L 395.604556 -134.964617 
L 393.307776 -134.964617 
L 391.010996 -134.964617 
L 388.714217 -134.964617 
L 386.417437 -134.964617 
L 384.120657 -134.964617 
L 381.823877 -134.964617 
L 379.527098 -134.964617 
L 377.230318 -134.964617 
L 374.933538 -134.964617 
L 372.636759 -134.964617 
L 370.339979 -134.964617 
L 368.043199 -134.964617 
L 365.74642 -134.964617 
L 363.44964 -134.964617 
L 361.15286 -134.964617 
L 358.85608 -134.964617 
L 356.559301 -134.964617 
L 354.262521 -134.964617 
L 351.965741 -134.964617 
L 349.668962 -134.964617 
L 347.372182 -134.964617 
L 345.075402 -134.964617 
L 342.778623 -134.964617 
L 340.481843 -134.964617 
L 338.185063 -134.964617 
L 335.888283 -134.964617 
L 333.591504 -134.964617 
L 331.294724 -134.964617 
L 328.997944 -134.964617 
L 326.701165 -134.964617 
L 324.404385 -134.964617 
L 322.107605 -134.964617 
L 319.810826 -134.964617 
L 317.514046 -134.964617 
L 315.217266 -134.964617 
L 312.920486 -134.964617 
L 310.623707 -134.964617 
L 308.326927 -134.964617 
L 306.030147 -134.964617 
L 303.733368 -134.964617 
L 301.436588 -134.964617 
L 299.139808 -134.964617 
L 296.843029 -134.964617 
L 294.546249 -134.964617 
L 292.249469 -134.964617 
L 289.952689 -134.964617 
L 287.65591 -134.964617 
L 285.35913 -134.964617 
L 283.06235 -134.964617 
L 280.765571 -134.964617 
L 278.468791 -134.964617 
L 276.172011 -134.964617 
L 273.875232 -134.964617 
L 271.578452 -134.964617 
L 269.281672 -134.964617 
L 266.984892 -134.964617 
L 264.688113 -134.964617 
L 262.391333 -134.964617 
L 260.094553 -134.964617 
L 257.797774 -134.964617 
L 255.500994 -134.964617 
L 253.204214 -134.964617 
L 250.907435 -134.964617 
L 248.610655 -134.964617 
L 246.313875 -134.964617 
L 244.017095 -134.964617 
L 241.720316 -134.964617 
L 239.423536 -134.964617 
L 237.126756 -134.964617 
L 234.829977 -134.964617 
L 232.533197 -134.964617 
L 230.236417 -134.964617 
L 227.939638 -134.964617 
L 225.642858 -134.964617 
L 223.346078 -134.964617 
L 221.049298 -134.964617 
L 218.752519 -134.964617 
L 216.455739 -134.964617 
L 214.158959 -134.964617 
L 211.86218 -134.964617 
L 209.5654 -134.964617 
L 207.26862 -134.964617 
L 204.971841 -134.964617 
L 202.675061 -134.964617 
L 200.378281 -134.964617 
L 198.081501 -134.964617 
L 195.784722 -134.964617 
L 193.487942 -134.964617 
L 191.191162 -134.964617 
L 188.894383 -134.964617 
L 186.597603 -134.964617 
L 184.300823 -134.964617 
L 182.004044 -134.964617 
L 179.707264 -134.964617 
L 177.410484 -134.964617 
L 175.113704 -134.964617 
L 172.816925 -134.964617 
L 170.520145 -134.964617 
L 168.223365 -134.964617 
L 165.926586 -134.964617 
L 163.629806 -134.964617 
L 161.333026 -134.964617 
L 159.036247 -134.964617 
L 156.739467 -134.964617 
L 154.442687 -134.964617 
L 152.145907 -134.964617 
L 149.849128 -134.964617 
L 147.552348 -134.964617 
L 145.255568 -134.964617 
L 142.958789 -134.964617 
z
" style="stroke: #ffa500; stroke-opacity: 0.3"/>
    </defs>
    <g clip-path="url(#pc6ac04921a)">
     <use xlink:href="#m1c61a73bbf" x="0" y="432" style="fill: #ffa500; fill-opacity: 0.3; stroke: #ffa500; stroke-opacity: 0.3"/>
    </g>
   </g>
   <g id="matplotlib.axis_1">
    <g id="xtick_1">
     <g id="line2d_1">
      <defs>
       <path id="me5e83da93c" d="M 0 0 
L 0 3.5 
" style="stroke: #000000; stroke-width: 0.8"/>
      </defs>
      <g>
       <use xlink:href="#me5e83da93c" x="142.958789" y="354.76" style="stroke: #000000; stroke-width: 0.8"/>
      </g>
     </g>
     <g id="text_1">
      <!-- 0 -->
      <g transform="translate(135.958789 381.01) scale(0.28 -0.28)">
       <defs>
        <path id="SimHei-30" d="M 225 2537 
Q 250 3200 412 3587 
Q 575 3975 875 4225 
Q 1175 4475 1612 4475 
Q 2050 4475 2375 4112 
Q 2700 3750 2800 3200 
Q 2900 2650 2862 1937 
Q 2825 1225 2612 775 
Q 2400 325 1975 150 
Q 1550 -25 1125 187 
Q 700 400 525 750 
Q 350 1100 275 1487 
Q 200 1875 225 2537 
z
M 750 2687 
Q 675 2000 800 1462 
Q 925 925 1212 700 
Q 1500 475 1800 612 
Q 2100 750 2237 1162 
Q 2375 1575 2375 2062 
Q 2375 2550 2337 2950 
Q 2300 3350 2112 3675 
Q 1925 4000 1612 4012 
Q 1300 4025 1062 3700 
Q 825 3375 750 2687 
z
" transform="scale(0.015625)"/>
       </defs>
       <use xlink:href="#SimHei-30"/>
      </g>
     </g>
    </g>
    <g id="xtick_2">
     <g id="line2d_2">
      <g>
       <use xlink:href="#me5e83da93c" x="257.797774" y="354.76" style="stroke: #000000; stroke-width: 0.8"/>
      </g>
     </g>
     <g id="text_2">
      <!-- 50 -->
      <g transform="translate(243.797774 381.01) scale(0.28 -0.28)">
       <defs>
        <path id="SimHei-35" d="M 550 1325 
Q 725 650 1150 575 
Q 1575 500 1837 662 
Q 2100 825 2212 1087 
Q 2325 1350 2312 1675 
Q 2300 2000 2137 2225 
Q 1975 2450 1725 2525 
Q 1475 2600 1162 2525 
Q 850 2450 650 2175 
L 225 2225 
Q 275 2375 700 4375 
L 2675 4375 
L 2675 3925 
L 1075 3925 
Q 950 3250 825 2850 
Q 1200 3025 1525 3012 
Q 1850 3000 2150 2862 
Q 2450 2725 2587 2487 
Q 2725 2250 2787 2012 
Q 2850 1775 2837 1500 
Q 2825 1225 2725 937 
Q 2625 650 2425 462 
Q 2225 275 1937 162 
Q 1650 50 1275 75 
Q 900 100 562 350 
Q 225 600 100 1200 
L 550 1325 
z
" transform="scale(0.015625)"/>
       </defs>
       <use xlink:href="#SimHei-35"/>
       <use xlink:href="#SimHei-30" x="50"/>
      </g>
     </g>
    </g>
    <g id="xtick_3">
     <g id="line2d_3">
      <g>
       <use xlink:href="#me5e83da93c" x="372.636759" y="354.76" style="stroke: #000000; stroke-width: 0.8"/>
      </g>
     </g>
     <g id="text_3">
      <!-- 100 -->
      <g transform="translate(351.636759 381.01) scale(0.28 -0.28)">
       <defs>
        <path id="SimHei-31" d="M 1400 3600 
Q 1075 3275 575 2975 
L 575 3450 
Q 1200 3875 1600 4450 
L 1900 4450 
L 1900 150 
L 1400 150 
L 1400 3600 
z
" transform="scale(0.015625)"/>
       </defs>
       <use xlink:href="#SimHei-31"/>
       <use xlink:href="#SimHei-30" x="50"/>
       <use xlink:href="#SimHei-30" x="100"/>
      </g>
     </g>
    </g>
    <g id="xtick_4">
     <g id="line2d_4">
      <g>
       <use xlink:href="#me5e83da93c" x="487.475744" y="354.76" style="stroke: #000000; stroke-width: 0.8"/>
      </g>
     </g>
     <g id="text_4">
      <!-- 150 -->
      <g transform="translate(466.475744 381.01) scale(0.28 -0.28)">
       <use xlink:href="#SimHei-31"/>
       <use xlink:href="#SimHei-35" x="50"/>
       <use xlink:href="#SimHei-30" x="100"/>
      </g>
     </g>
    </g>
    <g id="xtick_5">
     <g id="line2d_5">
      <g>
       <use xlink:href="#me5e83da93c" x="602.314729" y="354.76" style="stroke: #000000; stroke-width: 0.8"/>
      </g>
     </g>
     <g id="text_5">
      <!-- 200 -->
      <g transform="translate(581.314729 381.01) scale(0.28 -0.28)">
       <defs>
        <path id="SimHei-32" d="M 300 250 
Q 325 625 650 925 
Q 975 1225 1475 1862 
Q 1975 2500 2125 2850 
Q 2275 3200 2237 3450 
Q 2200 3700 2000 3862 
Q 1800 4025 1537 4000 
Q 1275 3975 1037 3800 
Q 800 3625 675 3275 
L 200 3350 
Q 400 3925 712 4187 
Q 1025 4450 1450 4475 
Q 1700 4500 1900 4462 
Q 2100 4425 2312 4287 
Q 2525 4150 2662 3875 
Q 2800 3600 2762 3212 
Q 2725 2825 2375 2287 
Q 2025 1750 1025 600 
L 2825 600 
L 2825 150 
L 300 150 
L 300 250 
z
" transform="scale(0.015625)"/>
       </defs>
       <use xlink:href="#SimHei-32"/>
       <use xlink:href="#SimHei-30" x="50"/>
       <use xlink:href="#SimHei-30" x="100"/>
      </g>
     </g>
    </g>
    <g id="xtick_6">
     <g id="line2d_6">
      <g>
       <use xlink:href="#me5e83da93c" x="717.153714" y="354.76" style="stroke: #000000; stroke-width: 0.8"/>
      </g>
     </g>
     <g id="text_6">
      <!-- 250 -->
      <g transform="translate(696.153714 381.01) scale(0.28 -0.28)">
       <use xlink:href="#SimHei-32"/>
       <use xlink:href="#SimHei-35" x="50"/>
       <use xlink:href="#SimHei-30" x="100"/>
      </g>
     </g>
    </g>
    <g id="xtick_7">
     <g id="line2d_7">
      <g>
       <use xlink:href="#me5e83da93c" x="831.992699" y="354.76" style="stroke: #000000; stroke-width: 0.8"/>
      </g>
     </g>
     <g id="text_7">
      <!-- 300 -->
      <g transform="translate(810.992699 381.01) scale(0.28 -0.28)">
       <defs>
        <path id="SimHei-33" d="M 250 1225 
L 700 1300 
Q 800 975 1025 762 
Q 1250 550 1587 562 
Q 1925 575 2125 837 
Q 2325 1100 2300 1437 
Q 2275 1775 2037 1962 
Q 1800 2150 1275 2225 
L 1275 2550 
Q 1800 2600 2037 2825 
Q 2275 3050 2250 3412 
Q 2225 3775 1925 3937 
Q 1625 4100 1287 3975 
Q 950 3850 750 3275 
L 300 3350 
Q 450 3800 712 4100 
Q 975 4400 1425 4450 
Q 1875 4500 2212 4337 
Q 2550 4175 2687 3837 
Q 2825 3500 2725 3100 
Q 2625 2700 2150 2400 
Q 2500 2250 2687 1950 
Q 2875 1650 2812 1162 
Q 2750 675 2375 375 
Q 2000 75 1525 87 
Q 1050 100 700 387 
Q 350 675 250 1225 
z
" transform="scale(0.015625)"/>
       </defs>
       <use xlink:href="#SimHei-33"/>
       <use xlink:href="#SimHei-30" x="50"/>
       <use xlink:href="#SimHei-30" x="100"/>
      </g>
     </g>
    </g>
    <g id="text_8">
     <!-- Time Steps -->
     <g transform="translate(372.546676 416.3225) scale(0.4 -0.4)">
      <defs>
       <path id="SimHei-54" d="M 2850 3925 
L 1850 3925 
L 1850 125 
L 1275 125 
L 1275 3925 
L 275 3925 
L 275 4400 
L 2850 4400 
L 2850 3925 
z
" transform="scale(0.015625)"/>
       <path id="SimHei-69" d="M 1800 3725 
L 1300 3725 
L 1300 4375 
L 1800 4375 
L 1800 3725 
z
M 1800 125 
L 1300 125 
L 1300 2925 
L 1800 2925 
L 1800 125 
z
" transform="scale(0.015625)"/>
       <path id="SimHei-6d" d="M 3050 125 
L 2550 125 
L 2550 2150 
Q 2550 2300 2500 2400 
Q 2450 2500 2300 2500 
Q 2125 2500 1975 2312 
Q 1825 2125 1825 1825 
L 1825 125 
L 1325 125 
L 1325 2150 
Q 1325 2300 1275 2400 
Q 1225 2500 1075 2500 
Q 900 2500 750 2312 
Q 600 2125 600 1825 
L 600 125 
L 100 125 
L 100 2925 
L 600 2925 
L 600 2550 
Q 725 2750 900 2862 
Q 1075 2975 1275 2975 
Q 1475 2975 1612 2862 
Q 1750 2750 1800 2550 
Q 1925 2750 2087 2862 
Q 2250 2975 2450 2975 
Q 2750 2975 2900 2812 
Q 3050 2650 3050 2350 
L 3050 125 
z
" transform="scale(0.015625)"/>
       <path id="SimHei-65" d="M 2850 1075 
Q 2800 625 2450 350 
Q 2100 75 1625 75 
Q 1025 75 637 462 
Q 250 850 250 1525 
Q 250 2200 637 2587 
Q 1025 2975 1625 2975 
Q 2150 2975 2487 2637 
Q 2825 2300 2825 1525 
L 800 1525 
Q 800 975 1037 750 
Q 1275 525 1625 525 
Q 1900 525 2075 662 
Q 2250 800 2300 1075 
L 2850 1075 
z
M 2250 1925 
Q 2200 2275 2025 2412 
Q 1850 2550 1575 2550 
Q 1325 2550 1125 2412 
Q 925 2275 825 1925 
L 2250 1925 
z
" transform="scale(0.015625)"/>
       <path id="SimHei-20" transform="scale(0.015625)"/>
       <path id="SimHei-53" d="M 2900 1325 
Q 2900 750 2537 412 
Q 2175 75 1550 75 
Q 925 75 575 425 
Q 225 775 225 1300 
L 225 1475 
L 800 1475 
L 800 1325 
Q 800 950 1025 750 
Q 1250 550 1550 550 
Q 1950 550 2137 762 
Q 2325 975 2325 1275 
Q 2325 1525 2100 1737 
Q 1875 1950 1450 2125 
Q 850 2350 587 2625 
Q 325 2900 325 3275 
Q 325 3800 687 4125 
Q 1050 4450 1550 4450 
Q 2200 4450 2487 4062 
Q 2775 3675 2775 3225 
L 2200 3225 
Q 2225 3500 2050 3725 
Q 1875 3950 1550 3950 
Q 1250 3950 1075 3787 
Q 900 3625 900 3350 
Q 900 3125 1037 2962 
Q 1175 2800 1750 2575 
Q 2300 2350 2600 2037 
Q 2900 1725 2900 1325 
z
" transform="scale(0.015625)"/>
       <path id="SimHei-74" d="M 2750 200 
Q 2625 150 2462 112 
Q 2300 75 2025 75 
Q 1575 75 1300 325 
Q 1025 575 1025 1025 
L 1025 2525 
L 175 2525 
L 175 2925 
L 1025 2925 
L 1025 3900 
L 1525 3900 
L 1525 2925 
L 2550 2925 
L 2550 2525 
L 1525 2525 
L 1525 1000 
Q 1525 800 1625 662 
Q 1725 525 2000 525 
Q 2275 525 2450 575 
Q 2625 625 2750 700 
L 2750 200 
z
" transform="scale(0.015625)"/>
       <path id="SimHei-70" d="M 2825 1525 
Q 2825 800 2475 425 
Q 2125 50 1625 50 
Q 1350 50 1150 162 
Q 950 275 800 500 
L 800 -800 
L 300 -800 
L 300 2925 
L 800 2925 
L 800 2550 
Q 950 2775 1150 2875 
Q 1350 2975 1625 2975 
Q 2125 2975 2475 2612 
Q 2825 2250 2825 1525 
z
M 2275 1525 
Q 2275 2000 2087 2262 
Q 1900 2525 1525 2525 
Q 1225 2525 1012 2262 
Q 800 2000 800 1525 
Q 800 1050 1012 775 
Q 1225 500 1525 500 
Q 1900 500 2087 775 
Q 2275 1050 2275 1525 
z
" transform="scale(0.015625)"/>
       <path id="SimHei-73" d="M 2750 900 
Q 2750 500 2437 287 
Q 2125 75 1650 75 
Q 1050 75 725 312 
Q 400 550 400 1000 
L 900 1000 
Q 900 700 1112 600 
Q 1325 500 1625 500 
Q 1925 500 2075 612 
Q 2225 725 2225 900 
Q 2225 1025 2100 1150 
Q 1975 1275 1475 1350 
Q 900 1425 687 1637 
Q 475 1850 475 2200 
Q 475 2500 762 2737 
Q 1050 2975 1600 2975 
Q 2100 2975 2387 2750 
Q 2675 2525 2675 2150 
L 2175 2150 
Q 2175 2375 2012 2462 
Q 1850 2550 1600 2550 
Q 1275 2550 1137 2437 
Q 1000 2325 1000 2175 
Q 1000 2000 1125 1900 
Q 1250 1800 1650 1750 
Q 2300 1650 2525 1437 
Q 2750 1225 2750 900 
z
" transform="scale(0.015625)"/>
      </defs>
      <use xlink:href="#SimHei-54"/>
      <use xlink:href="#SimHei-69" x="50"/>
      <use xlink:href="#SimHei-6d" x="100"/>
      <use xlink:href="#SimHei-65" x="150"/>
      <use xlink:href="#SimHei-20" x="200"/>
      <use xlink:href="#SimHei-53" x="250"/>
      <use xlink:href="#SimHei-74" x="300"/>
      <use xlink:href="#SimHei-65" x="350"/>
      <use xlink:href="#SimHei-70" x="400"/>
      <use xlink:href="#SimHei-73" x="450"/>
     </g>
    </g>
   </g>
   <g id="matplotlib.axis_2">
    <g id="ytick_1">
     <g id="line2d_8">
      <defs>
       <path id="m16bd9a9672" d="M 0 0 
L -3.5 0 
" style="stroke: #000000; stroke-width: 0.8"/>
      </defs>
      <g>
       <use xlink:href="#m16bd9a9672" x="110" y="354.76" style="stroke: #000000; stroke-width: 0.8"/>
      </g>
     </g>
     <g id="text_9">
      <!-- -100 -->
      <g transform="translate(47 364.385) scale(0.28 -0.28)">
       <defs>
        <path id="SimHei-2d" d="M 2975 2125 
L 125 2125 
L 125 2525 
L 2975 2525 
L 2975 2125 
z
" transform="scale(0.015625)"/>
       </defs>
       <use xlink:href="#SimHei-2d"/>
       <use xlink:href="#SimHei-31" x="50"/>
       <use xlink:href="#SimHei-30" x="100"/>
       <use xlink:href="#SimHei-30" x="150"/>
      </g>
     </g>
    </g>
    <g id="ytick_2">
     <g id="line2d_9">
      <g>
       <use xlink:href="#m16bd9a9672" x="110" y="297.035383" style="stroke: #000000; stroke-width: 0.8"/>
      </g>
     </g>
     <g id="text_10">
      <!-- 0 -->
      <g transform="translate(89 306.660383) scale(0.28 -0.28)">
       <use xlink:href="#SimHei-30"/>
      </g>
     </g>
    </g>
    <g id="ytick_3">
     <g id="line2d_10">
      <g>
       <use xlink:href="#m16bd9a9672" x="110" y="239.310767" style="stroke: #000000; stroke-width: 0.8"/>
      </g>
     </g>
     <g id="text_11">
      <!-- 100 -->
      <g transform="translate(61 248.935767) scale(0.28 -0.28)">
       <use xlink:href="#SimHei-31"/>
       <use xlink:href="#SimHei-30" x="50"/>
       <use xlink:href="#SimHei-30" x="100"/>
      </g>
     </g>
    </g>
    <g id="ytick_4">
     <g id="line2d_11">
      <g>
       <use xlink:href="#m16bd9a9672" x="110" y="181.58615" style="stroke: #000000; stroke-width: 0.8"/>
      </g>
     </g>
     <g id="text_12">
      <!-- 200 -->
      <g transform="translate(61 191.21115) scale(0.28 -0.28)">
       <use xlink:href="#SimHei-32"/>
       <use xlink:href="#SimHei-30" x="50"/>
       <use xlink:href="#SimHei-30" x="100"/>
      </g>
     </g>
    </g>
    <g id="ytick_5">
     <g id="line2d_12">
      <g>
       <use xlink:href="#m16bd9a9672" x="110" y="123.861533" style="stroke: #000000; stroke-width: 0.8"/>
      </g>
     </g>
     <g id="text_13">
      <!-- 300 -->
      <g transform="translate(61 133.486533) scale(0.28 -0.28)">
       <use xlink:href="#SimHei-33"/>
       <use xlink:href="#SimHei-30" x="50"/>
       <use xlink:href="#SimHei-30" x="100"/>
      </g>
     </g>
    </g>
    <g id="ytick_6">
     <g id="line2d_13">
      <g>
       <use xlink:href="#m16bd9a9672" x="110" y="66.136917" style="stroke: #000000; stroke-width: 0.8"/>
      </g>
     </g>
     <g id="text_14">
      <!-- 400 -->
      <g transform="translate(61 75.761917) scale(0.28 -0.28)">
       <defs>
        <path id="SimHei-34" d="M 2000 1100 
L 75 1100 
L 75 1525 
L 2100 4450 
L 2475 4450 
L 2475 1525 
L 3075 1525 
L 3075 1100 
L 2475 1100 
L 2475 150 
L 2000 150 
L 2000 1100 
z
M 2000 1525 
L 2000 3500 
L 600 1525 
L 2000 1525 
z
" transform="scale(0.015625)"/>
       </defs>
       <use xlink:href="#SimHei-34"/>
       <use xlink:href="#SimHei-30" x="50"/>
       <use xlink:href="#SimHei-30" x="100"/>
      </g>
     </g>
    </g>
    <g id="text_15">
     <!-- $m_{vct}$ -->
     <g transform="translate(35.8 224.38) rotate(-90) scale(0.4 -0.4)">
      <defs>
       <path id="DejaVuSans-Oblique-6d" d="M 5747 2113 
L 5338 0 
L 4763 0 
L 5166 2094 
Q 5191 2228 5203 2325 
Q 5216 2422 5216 2491 
Q 5216 2772 5059 2928 
Q 4903 3084 4622 3084 
Q 4203 3084 3875 2770 
Q 3547 2456 3450 1953 
L 3066 0 
L 2491 0 
L 2900 2094 
Q 2925 2209 2937 2307 
Q 2950 2406 2950 2484 
Q 2950 2769 2794 2926 
Q 2638 3084 2363 3084 
Q 1938 3084 1609 2770 
Q 1281 2456 1184 1953 
L 800 0 
L 225 0 
L 909 3500 
L 1484 3500 
L 1375 2956 
Q 1609 3263 1923 3423 
Q 2238 3584 2597 3584 
Q 2978 3584 3223 3384 
Q 3469 3184 3519 2828 
Q 3781 3197 4126 3390 
Q 4472 3584 4856 3584 
Q 5306 3584 5551 3325 
Q 5797 3066 5797 2591 
Q 5797 2488 5784 2364 
Q 5772 2241 5747 2113 
z
" transform="scale(0.015625)"/>
       <path id="DejaVuSans-Oblique-76" d="M 459 3500 
L 1069 3500 
L 1581 525 
L 3256 3500 
L 3866 3500 
L 1875 0 
L 1100 0 
L 459 3500 
z
" transform="scale(0.015625)"/>
       <path id="DejaVuSans-Oblique-63" d="M 3431 3366 
L 3316 2797 
Q 3109 2947 2876 3022 
Q 2644 3097 2394 3097 
Q 2119 3097 1870 3000 
Q 1622 2903 1453 2725 
Q 1184 2453 1037 2087 
Q 891 1722 891 1331 
Q 891 859 1127 628 
Q 1363 397 1844 397 
Q 2081 397 2348 469 
Q 2616 541 2906 684 
L 2797 116 
Q 2547 13 2283 -39 
Q 2019 -91 1741 -91 
Q 1044 -91 669 257 
Q 294 606 294 1253 
Q 294 1797 489 2255 
Q 684 2713 1069 3078 
Q 1331 3328 1684 3456 
Q 2038 3584 2456 3584 
Q 2700 3584 2940 3529 
Q 3181 3475 3431 3366 
z
" transform="scale(0.015625)"/>
       <path id="DejaVuSans-Oblique-74" d="M 2706 3500 
L 2619 3053 
L 1472 3053 
L 1100 1153 
Q 1081 1047 1072 975 
Q 1063 903 1063 863 
Q 1063 663 1183 572 
Q 1303 481 1569 481 
L 2150 481 
L 2053 0 
L 1503 0 
Q 991 0 739 200 
Q 488 400 488 806 
Q 488 878 497 964 
Q 506 1050 525 1153 
L 897 3053 
L 409 3053 
L 500 3500 
L 978 3500 
L 1172 4494 
L 1747 4494 
L 1556 3500 
L 2706 3500 
z
" transform="scale(0.015625)"/>
      </defs>
      <use xlink:href="#DejaVuSans-Oblique-6d"/>
      <use xlink:href="#DejaVuSans-Oblique-76" transform="translate(97.412109 -16.40625) scale(0.7)"/>
      <use xlink:href="#DejaVuSans-Oblique-63" transform="translate(138.837891 -16.40625) scale(0.7)"/>
      <use xlink:href="#DejaVuSans-Oblique-74" transform="translate(177.324219 -16.40625) scale(0.7)"/>
     </g>
    </g>
   </g>
   <g id="line2d_14">
    <path d="M 142.958789 297.035383 
L 542.598456 297.035383 
L 544.895236 296.842968 
L 549.488796 296.073306 
L 556.379135 294.341568 
L 565.566253 292.802245 
L 567.863033 292.224999 
L 570.159813 292.032583 
L 572.456593 292.032583 
L 574.753372 291.840168 
L 577.050152 291.455337 
L 579.346932 290.878091 
L 581.643711 290.878091 
L 583.940491 290.685675 
L 586.237271 290.300845 
L 588.53405 289.723599 
L 593.12761 289.723599 
L 597.721169 289.338768 
L 600.017949 288.953937 
L 666.62456 283.373891 
L 668.92134 283.373891 
L 673.514899 282.98906 
L 719.450493 282.98906 
L 721.747273 282.796645 
L 730.934392 282.796645 
L 735.527951 282.411814 
L 802.134563 282.411814 
L 802.134563 282.411814 
" clip-path="url(#pc6ac04921a)" style="fill: none; stroke: #0000ff; stroke-width: 3; stroke-linecap: square"/>
   </g>
   <g id="line2d_15">
    <path d="M 142.958789 297.035383 
L 400.198115 297.035383 
L 425.462692 294.918814 
L 448.430489 294.918814 
L 455.320828 294.341568 
L 457.617608 294.341568 
L 478.288625 292.609829 
L 503.553202 292.609829 
L 528.817778 290.49326 
L 533.411338 290.49326 
L 535.708117 290.300845 
L 549.488796 290.300845 
L 551.785575 290.108429 
L 558.675914 290.108429 
L 570.159813 289.146352 
L 572.456593 288.761522 
L 574.753372 288.569106 
L 590.83083 285.875291 
L 595.42439 284.720798 
L 597.721169 283.951137 
L 657.437441 268.942737 
L 659.734221 268.557906 
L 662.031001 267.98066 
L 664.327781 267.210998 
L 668.92134 266.056506 
L 689.592357 257.397813 
L 691.889137 256.243321 
L 696.482696 253.549505 
L 703.373035 248.931536 
L 705.669815 247.007382 
L 707.966595 244.890813 
L 712.560154 241.042505 
L 719.450493 234.692797 
L 728.637612 226.996182 
L 735.527951 220.646474 
L 756.198969 205.060827 
L 758.495748 202.944258 
L 760.792528 200.635273 
L 763.089308 198.71112 
L 769.979647 192.361412 
L 772.276426 190.052427 
L 774.573206 187.551027 
L 776.869986 185.242042 
L 781.463545 180.239242 
L 802.134563 155.994903 
L 802.134563 155.994903 
" clip-path="url(#pc6ac04921a)" style="fill: none; stroke: #008000; stroke-width: 3; stroke-linecap: square"/>
   </g>
   <g id="line2d_16">
    <path d="M 142.958789 297.035383 
L 335.888283 297.035383 
L 338.185063 296.842968 
L 377.230318 296.842968 
L 397.901335 295.111229 
L 409.385234 293.187076 
L 416.275573 291.455337 
L 418.572353 291.070506 
L 430.056251 288.184275 
L 453.024048 284.335968 
L 455.320828 283.758721 
L 469.101506 279.140752 
L 471.398286 278.563506 
L 480.585405 275.48486 
L 482.882184 274.522783 
L 485.178964 273.753121 
L 489.772523 271.444137 
L 494.366083 269.519983 
L 496.662862 268.36549 
L 501.256422 266.441336 
L 505.849981 264.132352 
L 510.443541 262.208198 
L 528.817778 252.972259 
L 533.411338 250.278444 
L 540.301677 245.660474 
L 542.598456 244.313567 
L 551.785575 238.156274 
L 554.082355 236.424536 
L 563.269474 228.72792 
L 565.566253 227.188597 
L 567.863033 225.456859 
L 570.159813 223.917536 
L 572.456593 222.185797 
L 574.753372 220.646474 
L 577.050152 218.914735 
L 579.346932 217.375412 
L 588.53405 211.987781 
L 590.83083 210.448458 
L 593.12761 208.524304 
L 604.611508 199.865612 
L 606.908288 198.326289 
L 609.205068 196.402135 
L 611.501847 194.670396 
L 613.798627 193.131073 
L 616.095407 191.399335 
L 618.392187 189.475181 
L 622.985746 186.396535 
L 625.282526 184.664796 
L 629.876085 180.816488 
L 634.469644 177.353011 
L 636.766424 175.428858 
L 643.656763 170.233642 
L 655.140662 160.612873 
L 668.92134 151.376934 
L 673.514899 147.913457 
L 678.108459 145.219641 
L 684.998798 140.601672 
L 687.295578 139.254764 
L 689.592357 137.715441 
L 691.889137 135.983703 
L 694.185917 134.636795 
L 698.779476 131.173318 
L 701.076256 129.249164 
L 712.560154 120.590472 
L 719.450493 114.81801 
L 721.747273 113.086272 
L 724.044053 111.546948 
L 747.01185 92.30541 
L 749.308629 90.573671 
L 753.902189 87.495025 
L 767.682867 77.104594 
L 774.573206 71.332132 
L 788.353884 60.941701 
L 790.650664 59.402378 
L 802.134563 50.743685 
L 802.134563 50.743685 
" clip-path="url(#pc6ac04921a)" style="fill: none; stroke: #ff0000; stroke-width: 3; stroke-linecap: square"/>
   </g>
   <g id="line2d_17">
    <path d="M 142.958789 297.035383 
L 542.598456 297.035383 
L 544.895236 296.842968 
L 547.192016 296.842968 
L 577.050152 294.341568 
L 586.237271 292.802245 
L 625.282526 289.531183 
L 636.766424 287.607029 
L 639.063204 287.029783 
L 641.359984 286.260122 
L 650.547102 283.951137 
L 652.843882 283.566306 
L 662.031001 281.257321 
L 673.514899 277.409014 
L 675.811679 276.446937 
L 682.702018 274.137952 
L 684.998798 273.175875 
L 687.295578 271.636552 
L 689.592357 270.48206 
L 691.889137 268.942737 
L 698.779476 263.747521 
L 703.373035 260.668875 
L 710.263375 255.473659 
L 712.560154 253.934336 
L 719.450493 248.739121 
L 724.044053 244.890813 
L 726.340832 243.159074 
L 728.637612 241.234921 
L 730.934392 239.118351 
L 733.231172 237.194197 
L 735.527951 235.077628 
L 737.824731 233.153474 
L 744.71507 226.803766 
L 747.01185 224.494782 
L 749.308629 222.378212 
L 756.198969 216.605751 
L 763.089308 210.256043 
L 765.386087 207.947058 
L 767.682867 205.253243 
L 774.573206 197.749043 
L 776.869986 195.440058 
L 781.463545 190.437258 
L 788.353884 183.510304 
L 792.947444 178.507504 
L 795.244223 175.813688 
L 799.837783 170.810888 
L 802.134563 168.117073 
L 802.134563 168.117073 
" clip-path="url(#pc6ac04921a)" style="fill: none; stroke: #ffa500; stroke-width: 3; stroke-linecap: square"/>
   </g>
   <g id="patch_3">
    <path d="M 110 354.76 
L 110 10.8 
" style="fill: none; stroke: #000000; stroke-width: 0.8; stroke-linejoin: miter; stroke-linecap: square"/>
   </g>
   <g id="patch_4">
    <path d="M 835.093351 354.76 
L 835.093351 10.8 
" style="fill: none; stroke: #000000; stroke-width: 0.8; stroke-linejoin: miter; stroke-linecap: square"/>
   </g>
   <g id="patch_5">
    <path d="M 110 354.76 
L 835.093351 354.76 
" style="fill: none; stroke: #000000; stroke-width: 0.8; stroke-linejoin: miter; stroke-linecap: square"/>
   </g>
   <g id="patch_6">
    <path d="M 110 10.8 
L 835.093351 10.8 
" style="fill: none; stroke: #000000; stroke-width: 0.8; stroke-linejoin: miter; stroke-linecap: square"/>
   </g>
  </g>
 </g>
 <defs>
  <clipPath id="pc6ac04921a">
   <rect x="110" y="10.8" width="725.093351" height="343.96"/>
  </clipPath>
 </defs>
</svg>
