<?xml version="1.0" encoding="utf-8" standalone="no"?>
<!DOCTYPE svg PUBLIC "-//W3C//DTD SVG 1.1//EN"
  "http://www.w3.org/Graphics/SVG/1.1/DTD/svg11.dtd">
<svg xmlns:xlink="http://www.w3.org/1999/xlink" width="864pt" height="432pt" viewBox="0 0 864 432" xmlns="http://www.w3.org/2000/svg" version="1.1">
 <metadata>
  <rdf:RDF xmlns:dc="http://purl.org/dc/elements/1.1/" xmlns:cc="http://creativecommons.org/ns#" xmlns:rdf="http://www.w3.org/1999/02/22-rdf-syntax-ns#">
   <cc:Work>
    <dc:type rdf:resource="http://purl.org/dc/dcmitype/StillImage"/>
    <dc:date>2025-06-19T21:25:43.748739</dc:date>
    <dc:format>image/svg+xml</dc:format>
    <dc:creator>
     <cc:Agent>
      <dc:title>Matplotlib v3.7.1, https://matplotlib.org/</dc:title>
     </cc:Agent>
    </dc:creator>
   </cc:Work>
  </rdf:RDF>
 </metadata>
 <defs>
  <style type="text/css">*{stroke-linejoin: round; stroke-linecap: butt}</style>
 </defs>
 <g id="figure_1">
  <g id="patch_1">
   <path d="M 0 432 
L 864 432 
L 864 0 
L 0 0 
z
" style="fill: #ffffff"/>
  </g>
  <g id="axes_1">
   <g id="patch_2">
    <path d="M 110.18 354.76 
L 835.093351 354.76 
L 835.093351 10.8 
L 110.18 10.8 
z
" style="fill: #ffffff"/>
   </g>
   <g id="PolyCollection_1">
    <defs>
     <path id="m4c323c83c6" d="M 143.130607 -85.788798 
L 143.130607 -85.788798 
L 145.426816 -85.788798 
L 147.723026 -85.788798 
L 150.019235 -85.788798 
L 152.315445 -85.788798 
L 154.611655 -85.788798 
L 156.907864 -85.788798 
L 159.204074 -85.788798 
L 161.500283 -85.788798 
L 163.796493 -85.788798 
L 166.092702 -85.788798 
L 168.388912 -85.788798 
L 170.685121 -85.788798 
L 172.981331 -85.788798 
L 175.27754 -85.788798 
L 177.57375 -85.788798 
L 179.869959 -85.788798 
L 182.166169 -85.788798 
L 184.462379 -85.788798 
L 186.758588 -85.788798 
L 189.054798 -85.788798 
L 191.351007 -85.788798 
L 193.647217 -85.788798 
L 195.943426 -85.788798 
L 198.239636 -85.788798 
L 200.535845 -85.788798 
L 202.832055 -85.788798 
L 205.128264 -85.788798 
L 207.424474 -85.788798 
L 209.720683 -85.788798 
L 212.016893 -85.788798 
L 214.313103 -85.788798 
L 216.609312 -85.788798 
L 218.905522 -85.788798 
L 221.201731 -85.788798 
L 223.497941 -85.788798 
L 225.79415 -85.788798 
L 228.09036 -85.788798 
L 230.386569 -85.788798 
L 232.682779 -85.788798 
L 234.978988 -85.788798 
L 237.275198 -85.788798 
L 239.571407 -85.788798 
L 241.867617 -85.788798 
L 244.163827 -85.788798 
L 246.460036 -85.788798 
L 248.756246 -85.788798 
L 251.052455 -85.788798 
L 253.348665 -85.788798 
L 255.644874 -85.788798 
L 257.941084 -85.788798 
L 260.237293 -85.788798 
L 262.533503 -85.788798 
L 264.829712 -85.788798 
L 267.125922 -85.788798 
L 269.422131 -85.788798 
L 271.718341 -85.788798 
L 274.014551 -85.788798 
L 276.31076 -85.788798 
L 278.60697 -85.788798 
L 280.903179 -85.788798 
L 283.199389 -85.788798 
L 285.495598 -85.788798 
L 287.791808 -85.788798 
L 290.088017 -85.788798 
L 292.384227 -85.788798 
L 294.680436 -85.788798 
L 296.976646 -85.788798 
L 299.272855 -85.788798 
L 301.569065 -85.788798 
L 303.865275 -85.788798 
L 306.161484 -85.788798 
L 308.457694 -85.788798 
L 310.753903 -85.788798 
L 313.050113 -85.788798 
L 315.346322 -85.788798 
L 317.642532 -85.788798 
L 319.938741 -85.788798 
L 322.234951 -85.788798 
L 324.53116 -85.788798 
L 326.82737 -85.788798 
L 329.123579 -85.788798 
L 331.419789 -85.788798 
L 333.715999 -85.788798 
L 336.012208 -85.788798 
L 338.308418 -85.788798 
L 340.604627 -85.788798 
L 342.900837 -85.788798 
L 345.197046 -85.788798 
L 347.493256 -85.788798 
L 349.789465 -85.788798 
L 352.085675 -85.788798 
L 354.381884 -85.788798 
L 356.678094 -85.788798 
L 358.974303 -85.788798 
L 361.270513 -85.788798 
L 363.566723 -85.788798 
L 365.862932 -85.788798 
L 368.159142 -85.788798 
L 370.455351 -85.788798 
L 372.751561 -85.788798 
L 375.04777 -85.788798 
L 377.34398 -85.788798 
L 379.640189 -85.788798 
L 381.936399 -85.788798 
L 384.232608 -85.788798 
L 386.528818 -85.788798 
L 388.825027 -85.788798 
L 391.121237 -85.788798 
L 393.417447 -85.788798 
L 395.713656 -85.788798 
L 398.009866 -85.788798 
L 400.306075 -85.788798 
L 402.602285 -85.788798 
L 404.898494 -85.788798 
L 407.194704 -85.788798 
L 409.490913 -85.788798 
L 411.787123 -85.788798 
L 414.083332 -85.788798 
L 416.379542 -85.788798 
L 418.675751 -85.788798 
L 420.971961 -85.788798 
L 423.268171 -85.788798 
L 425.56438 -85.788798 
L 427.86059 -85.788798 
L 430.156799 -85.788798 
L 432.453009 -85.788798 
L 434.749218 -85.788798 
L 437.045428 -85.788798 
L 439.341637 -85.788798 
L 441.637847 -85.788798 
L 443.934056 -85.788798 
L 446.230266 -85.788798 
L 448.526475 -85.788798 
L 450.822685 -85.788798 
L 453.118895 -85.788798 
L 455.415104 -85.788798 
L 457.711314 -85.788798 
L 460.007523 -85.788798 
L 462.303733 -85.788798 
L 464.599942 -85.788798 
L 466.896152 -85.788798 
L 469.192361 -85.788798 
L 471.488571 -85.788798 
L 473.78478 -85.788798 
L 476.08099 -85.788798 
L 478.377199 -85.788798 
L 480.673409 -85.788798 
L 482.969619 -85.788798 
L 485.265828 -85.788798 
L 487.562038 -85.788798 
L 489.858247 -85.788798 
L 492.154457 -85.788798 
L 494.450666 -85.788798 
L 496.746876 -85.788798 
L 499.043085 -85.788798 
L 501.339295 -85.788798 
L 503.635504 -85.788798 
L 505.931714 -85.788798 
L 508.227923 -85.788798 
L 510.524133 -85.788798 
L 512.820343 -85.788798 
L 515.116552 -85.788798 
L 517.412762 -85.788798 
L 519.708971 -85.788798 
L 522.005181 -85.788798 
L 524.30139 -85.788798 
L 526.5976 -85.788798 
L 528.893809 -85.788798 
L 531.190019 -85.788798 
L 533.486228 -85.788798 
L 535.782438 -85.788798 
L 538.078647 -85.776994 
L 540.374857 -85.765191 
L 542.671067 -85.753387 
L 544.967276 -85.741584 
L 547.263486 -85.729781 
L 549.559695 -85.717977 
L 551.855905 -85.706174 
L 554.152114 -85.69437 
L 556.448324 -85.682567 
L 558.744533 -85.682567 
L 561.040743 -85.682567 
L 563.336952 -85.670763 
L 565.633162 -85.65896 
L 567.929371 -85.647157 
L 570.225581 -85.682791 
L 572.521791 -85.682791 
L 574.818 -85.682791 
L 577.11421 -85.682791 
L 579.410419 -85.682791 
L 581.706629 -85.682791 
L 584.002838 -85.682791 
L 586.299048 -85.682791 
L 588.595257 -85.682791 
L 590.891467 -85.682791 
L 593.187676 -85.727633 
L 595.483886 -85.76961 
L 597.780095 -85.808474 
L 600.076305 -85.844012 
L 602.372515 -85.844012 
L 604.668724 -85.844012 
L 606.964934 -85.87607 
L 609.261143 -85.904566 
L 611.557353 -85.904566 
L 613.853562 -85.904566 
L 616.149772 -85.904566 
L 618.445981 -85.904566 
L 620.742191 -85.904566 
L 623.0384 -85.9295 
L 625.33461 -85.948998 
L 627.630819 -85.945718 
L 629.927029 -85.94134 
L 632.223239 -85.999784 
L 634.519448 -86.021534 
L 636.815658 -86.042676 
L 639.111867 -86.06331 
L 641.408077 -86.083513 
L 643.704286 -86.106254 
L 646.000496 -86.126771 
L 648.296705 -86.145137 
L 650.592915 -86.229469 
L 652.889124 -86.312496 
L 655.185334 -86.394064 
L 657.481543 -86.473998 
L 659.777753 -86.552114 
L 662.073963 -86.628215 
L 664.370172 -86.770563 
L 666.666382 -86.90945 
L 668.962591 -87.043572 
L 671.258801 -87.171117 
L 673.55501 -87.289715 
L 675.85122 -87.39666 
L 678.147429 -87.489618 
L 680.443639 -87.567636 
L 682.739848 -87.631667 
L 685.036058 -87.684045 
L 687.332267 -87.727476 
L 689.628477 -87.76461 
L 691.924687 -87.799412 
L 694.220896 -87.830417 
L 696.517106 -87.841806 
L 698.813315 -87.851126 
L 701.109525 -87.927294 
L 703.405734 -87.932847 
L 705.701944 -87.936768 
L 707.998153 -87.939228 
L 710.294363 -88.007932 
L 712.590572 -88.09342 
L 714.886782 -88.178908 
L 717.182991 -88.263627 
L 719.479201 -88.346994 
L 721.775411 -88.483315 
L 724.07162 -88.61921 
L 726.36783 -88.753332 
L 728.664039 -88.880877 
L 730.960249 -89.007552 
L 733.256458 -89.068701 
L 735.552668 -89.127623 
L 737.848877 -89.183411 
L 740.145087 -89.234788 
L 742.441296 -89.280106 
L 744.737506 -89.317616 
L 747.033715 -89.346112 
L 749.329925 -89.365594 
L 751.626135 -89.377268 
L 753.922344 -89.382883 
L 756.218554 -89.384087 
L 758.514763 -89.382157 
L 760.810973 -89.378 
L 763.107182 -89.372242 
L 765.403392 -89.365309 
L 767.699601 -89.357498 
L 769.995811 -89.349019 
L 772.29202 -89.340021 
L 774.58823 -89.330613 
L 776.884439 -89.320878 
L 779.180649 -89.368006 
L 781.476859 -89.412557 
L 783.773068 -89.401346 
L 786.069278 -89.390064 
L 788.365487 -89.378723 
L 790.661697 -89.409984 
L 792.957906 -89.439988 
L 795.254116 -89.468862 
L 797.550325 -89.496723 
L 799.846535 -89.523675 
L 802.142744 -89.549809 
L 802.142744 -91.31748 
L 802.142744 -91.31748 
L 799.846535 -91.22963 
L 797.550325 -91.142598 
L 795.254116 -91.056475 
L 792.957906 -90.971366 
L 790.661697 -90.887385 
L 788.365487 -90.804662 
L 786.069278 -90.73633 
L 783.773068 -90.668056 
L 781.476859 -90.599852 
L 779.180649 -90.530419 
L 776.884439 -90.463564 
L 774.58823 -90.396836 
L 772.29202 -90.330436 
L 769.995811 -90.264446 
L 767.699601 -90.198975 
L 765.403392 -90.134173 
L 763.107182 -90.070248 
L 760.810973 -90.007497 
L 758.514763 -89.946349 
L 756.218554 -89.887427 
L 753.922344 -89.831638 
L 751.626135 -89.780262 
L 749.329925 -89.734944 
L 747.033715 -89.697434 
L 744.737506 -89.668938 
L 742.441296 -89.649456 
L 740.145087 -89.637782 
L 737.848877 -89.632166 
L 735.552668 -89.630963 
L 733.256458 -89.632893 
L 730.960249 -89.637049 
L 728.664039 -89.649741 
L 726.36783 -89.60631 
L 724.07162 -89.569456 
L 721.775411 -89.591366 
L 719.479201 -89.613704 
L 717.182991 -89.583087 
L 714.886782 -89.553822 
L 712.590572 -89.468334 
L 710.294363 -89.382846 
L 707.998153 -89.337566 
L 705.701944 -89.283034 
L 703.405734 -89.229963 
L 701.109525 -89.178524 
L 698.813315 -89.140708 
L 696.517106 -89.093036 
L 694.220896 -89.047433 
L 691.924687 -88.907463 
L 689.628477 -88.771289 
L 687.332267 -88.580454 
L 685.036058 -88.452909 
L 682.739848 -88.334311 
L 680.443639 -88.227366 
L 678.147429 -88.134409 
L 675.85122 -88.05639 
L 673.55501 -87.992359 
L 671.258801 -87.939981 
L 668.962591 -87.89655 
L 666.666382 -87.859696 
L 664.370172 -87.827607 
L 662.073963 -87.79898 
L 659.777753 -87.761097 
L 657.481543 -87.725229 
L 655.185334 -87.691179 
L 652.889124 -87.658762 
L 650.592915 -87.627806 
L 648.296705 -87.598154 
L 646.000496 -87.559528 
L 643.704286 -87.523053 
L 641.408077 -87.488802 
L 639.111867 -87.395021 
L 636.815658 -87.301671 
L 634.519448 -87.208829 
L 632.223239 -87.116595 
L 629.927029 -87.061055 
L 627.630819 -86.999685 
L 625.33461 -86.939413 
L 623.0384 -86.844927 
L 620.742191 -86.812869 
L 618.445981 -86.812869 
L 616.149772 -86.812869 
L 613.853562 -86.812869 
L 611.557353 -86.812869 
L 609.261143 -86.812869 
L 606.964934 -86.784373 
L 604.668724 -86.759439 
L 602.372515 -86.759439 
L 600.076305 -86.759439 
L 597.780095 -86.737985 
L 595.483886 -86.719857 
L 593.187676 -86.704842 
L 590.891467 -86.692692 
L 588.595257 -86.692692 
L 586.299048 -86.692692 
L 584.002838 -86.692692 
L 581.706629 -86.692692 
L 579.410419 -86.692692 
L 577.11421 -86.692692 
L 574.818 -86.692692 
L 572.521791 -86.692692 
L 570.225581 -86.692692 
L 567.929371 -86.614343 
L 565.633162 -86.545547 
L 563.336952 -86.476752 
L 561.040743 -86.407956 
L 558.744533 -86.407956 
L 556.448324 -86.407956 
L 554.152114 -86.339161 
L 551.855905 -86.270366 
L 549.559695 -86.20157 
L 547.263486 -86.132775 
L 544.967276 -86.063979 
L 542.671067 -85.995184 
L 540.374857 -85.926389 
L 538.078647 -85.857593 
L 535.782438 -85.788798 
L 533.486228 -85.788798 
L 531.190019 -85.788798 
L 528.893809 -85.788798 
L 526.5976 -85.788798 
L 524.30139 -85.788798 
L 522.005181 -85.788798 
L 519.708971 -85.788798 
L 517.412762 -85.788798 
L 515.116552 -85.788798 
L 512.820343 -85.788798 
L 510.524133 -85.788798 
L 508.227923 -85.788798 
L 505.931714 -85.788798 
L 503.635504 -85.788798 
L 501.339295 -85.788798 
L 499.043085 -85.788798 
L 496.746876 -85.788798 
L 494.450666 -85.788798 
L 492.154457 -85.788798 
L 489.858247 -85.788798 
L 487.562038 -85.788798 
L 485.265828 -85.788798 
L 482.969619 -85.788798 
L 480.673409 -85.788798 
L 478.377199 -85.788798 
L 476.08099 -85.788798 
L 473.78478 -85.788798 
L 471.488571 -85.788798 
L 469.192361 -85.788798 
L 466.896152 -85.788798 
L 464.599942 -85.788798 
L 462.303733 -85.788798 
L 460.007523 -85.788798 
L 457.711314 -85.788798 
L 455.415104 -85.788798 
L 453.118895 -85.788798 
L 450.822685 -85.788798 
L 448.526475 -85.788798 
L 446.230266 -85.788798 
L 443.934056 -85.788798 
L 441.637847 -85.788798 
L 439.341637 -85.788798 
L 437.045428 -85.788798 
L 434.749218 -85.788798 
L 432.453009 -85.788798 
L 430.156799 -85.788798 
L 427.86059 -85.788798 
L 425.56438 -85.788798 
L 423.268171 -85.788798 
L 420.971961 -85.788798 
L 418.675751 -85.788798 
L 416.379542 -85.788798 
L 414.083332 -85.788798 
L 411.787123 -85.788798 
L 409.490913 -85.788798 
L 407.194704 -85.788798 
L 404.898494 -85.788798 
L 402.602285 -85.788798 
L 400.306075 -85.788798 
L 398.009866 -85.788798 
L 395.713656 -85.788798 
L 393.417447 -85.788798 
L 391.121237 -85.788798 
L 388.825027 -85.788798 
L 386.528818 -85.788798 
L 384.232608 -85.788798 
L 381.936399 -85.788798 
L 379.640189 -85.788798 
L 377.34398 -85.788798 
L 375.04777 -85.788798 
L 372.751561 -85.788798 
L 370.455351 -85.788798 
L 368.159142 -85.788798 
L 365.862932 -85.788798 
L 363.566723 -85.788798 
L 361.270513 -85.788798 
L 358.974303 -85.788798 
L 356.678094 -85.788798 
L 354.381884 -85.788798 
L 352.085675 -85.788798 
L 349.789465 -85.788798 
L 347.493256 -85.788798 
L 345.197046 -85.788798 
L 342.900837 -85.788798 
L 340.604627 -85.788798 
L 338.308418 -85.788798 
L 336.012208 -85.788798 
L 333.715999 -85.788798 
L 331.419789 -85.788798 
L 329.123579 -85.788798 
L 326.82737 -85.788798 
L 324.53116 -85.788798 
L 322.234951 -85.788798 
L 319.938741 -85.788798 
L 317.642532 -85.788798 
L 315.346322 -85.788798 
L 313.050113 -85.788798 
L 310.753903 -85.788798 
L 308.457694 -85.788798 
L 306.161484 -85.788798 
L 303.865275 -85.788798 
L 301.569065 -85.788798 
L 299.272855 -85.788798 
L 296.976646 -85.788798 
L 294.680436 -85.788798 
L 292.384227 -85.788798 
L 290.088017 -85.788798 
L 287.791808 -85.788798 
L 285.495598 -85.788798 
L 283.199389 -85.788798 
L 280.903179 -85.788798 
L 278.60697 -85.788798 
L 276.31076 -85.788798 
L 274.014551 -85.788798 
L 271.718341 -85.788798 
L 269.422131 -85.788798 
L 267.125922 -85.788798 
L 264.829712 -85.788798 
L 262.533503 -85.788798 
L 260.237293 -85.788798 
L 257.941084 -85.788798 
L 255.644874 -85.788798 
L 253.348665 -85.788798 
L 251.052455 -85.788798 
L 248.756246 -85.788798 
L 246.460036 -85.788798 
L 244.163827 -85.788798 
L 241.867617 -85.788798 
L 239.571407 -85.788798 
L 237.275198 -85.788798 
L 234.978988 -85.788798 
L 232.682779 -85.788798 
L 230.386569 -85.788798 
L 228.09036 -85.788798 
L 225.79415 -85.788798 
L 223.497941 -85.788798 
L 221.201731 -85.788798 
L 218.905522 -85.788798 
L 216.609312 -85.788798 
L 214.313103 -85.788798 
L 212.016893 -85.788798 
L 209.720683 -85.788798 
L 207.424474 -85.788798 
L 205.128264 -85.788798 
L 202.832055 -85.788798 
L 200.535845 -85.788798 
L 198.239636 -85.788798 
L 195.943426 -85.788798 
L 193.647217 -85.788798 
L 191.351007 -85.788798 
L 189.054798 -85.788798 
L 186.758588 -85.788798 
L 184.462379 -85.788798 
L 182.166169 -85.788798 
L 179.869959 -85.788798 
L 177.57375 -85.788798 
L 175.27754 -85.788798 
L 172.981331 -85.788798 
L 170.685121 -85.788798 
L 168.388912 -85.788798 
L 166.092702 -85.788798 
L 163.796493 -85.788798 
L 161.500283 -85.788798 
L 159.204074 -85.788798 
L 156.907864 -85.788798 
L 154.611655 -85.788798 
L 152.315445 -85.788798 
L 150.019235 -85.788798 
L 147.723026 -85.788798 
L 145.426816 -85.788798 
L 143.130607 -85.788798 
z
" style="stroke: #0000ff; stroke-opacity: 0.3"/>
    </defs>
    <g clip-path="url(#pcdd35ecd83)">
     <use xlink:href="#m4c323c83c6" x="0" y="432" style="fill: #0000ff; fill-opacity: 0.3; stroke: #0000ff; stroke-opacity: 0.3"/>
    </g>
   </g>
   <g id="PolyCollection_2">
    <defs>
     <path id="md798e0a581" d="M 143.130607 -85.788798 
L 143.130607 -85.788798 
L 145.426816 -85.788798 
L 147.723026 -85.788798 
L 150.019235 -85.788798 
L 152.315445 -85.788798 
L 154.611655 -85.788798 
L 156.907864 -85.788798 
L 159.204074 -85.788798 
L 161.500283 -85.788798 
L 163.796493 -85.788798 
L 166.092702 -85.788798 
L 168.388912 -85.788798 
L 170.685121 -85.788798 
L 172.981331 -85.788798 
L 175.27754 -85.788798 
L 177.57375 -85.788798 
L 179.869959 -85.788798 
L 182.166169 -85.788798 
L 184.462379 -85.788798 
L 186.758588 -85.788798 
L 189.054798 -85.788798 
L 191.351007 -85.788798 
L 193.647217 -85.788798 
L 195.943426 -85.788798 
L 198.239636 -85.788798 
L 200.535845 -85.788798 
L 202.832055 -85.788798 
L 205.128264 -85.788798 
L 207.424474 -85.788798 
L 209.720683 -85.788798 
L 212.016893 -85.788798 
L 214.313103 -85.788798 
L 216.609312 -85.788798 
L 218.905522 -85.788798 
L 221.201731 -85.788798 
L 223.497941 -85.788798 
L 225.79415 -85.788798 
L 228.09036 -85.788798 
L 230.386569 -85.788798 
L 232.682779 -85.788798 
L 234.978988 -85.788798 
L 237.275198 -85.788798 
L 239.571407 -85.788798 
L 241.867617 -85.788798 
L 244.163827 -85.788798 
L 246.460036 -85.788798 
L 248.756246 -85.788798 
L 251.052455 -85.788798 
L 253.348665 -85.788798 
L 255.644874 -85.788798 
L 257.941084 -85.788798 
L 260.237293 -85.788798 
L 262.533503 -85.788798 
L 264.829712 -85.788798 
L 267.125922 -85.788798 
L 269.422131 -85.788798 
L 271.718341 -85.788798 
L 274.014551 -85.788798 
L 276.31076 -85.788798 
L 278.60697 -85.788798 
L 280.903179 -85.788798 
L 283.199389 -85.788798 
L 285.495598 -85.788798 
L 287.791808 -85.788798 
L 290.088017 -85.788798 
L 292.384227 -85.788798 
L 294.680436 -85.788798 
L 296.976646 -85.788798 
L 299.272855 -85.788798 
L 301.569065 -85.788798 
L 303.865275 -85.776994 
L 306.161484 -85.765191 
L 308.457694 -85.796159 
L 310.753903 -85.820172 
L 313.050113 -85.841105 
L 315.346322 -85.860587 
L 317.642532 -85.860513 
L 319.938741 -85.921348 
L 322.234951 -86.006836 
L 324.53116 -86.154561 
L 326.82737 -86.240049 
L 329.123579 -86.30652 
L 331.419789 -86.409299 
L 333.715999 -86.511508 
L 336.012208 -86.613404 
L 338.308418 -86.78438 
L 340.604627 -86.955356 
L 342.900837 -87.065286 
L 345.197046 -87.104382 
L 347.493256 -87.148601 
L 349.789465 -87.198289 
L 352.085675 -87.238115 
L 354.381884 -87.407609 
L 356.678094 -87.509936 
L 358.974303 -87.612082 
L 361.270513 -87.80227 
L 363.566723 -88.060698 
L 365.862932 -88.318318 
L 368.159142 -88.573626 
L 370.455351 -88.83009 
L 372.751561 -89.019702 
L 375.04777 -89.209155 
L 377.34398 -89.416683 
L 379.640189 -89.623765 
L 381.936399 -89.762761 
L 384.232608 -89.884663 
L 386.528818 -90.006484 
L 388.825027 -90.12824 
L 391.121237 -90.267263 
L 393.417447 -90.405827 
L 395.713656 -90.642283 
L 398.009866 -90.806072 
L 400.306075 -90.954544 
L 402.602285 -91.181411 
L 404.898494 -91.405695 
L 407.194704 -91.765347 
L 409.490913 -92.046608 
L 411.787123 -92.327408 
L 414.083332 -92.676543 
L 416.379542 -93.103983 
L 418.675751 -93.531423 
L 420.971961 -93.95512 
L 423.268171 -94.302912 
L 425.56438 -94.647113 
L 427.86059 -94.999327 
L 430.156799 -95.34838 
L 432.453009 -95.846744 
L 434.749218 -96.343481 
L 437.045428 -96.838267 
L 439.341637 -97.331197 
L 441.637847 -97.820763 
L 443.934056 -98.395608 
L 446.230266 -98.969031 
L 448.526475 -99.541065 
L 450.822685 -100.111746 
L 453.118895 -100.616098 
L 455.415104 -101.193927 
L 457.711314 -101.858927 
L 460.007523 -102.587463 
L 462.303733 -103.312007 
L 464.599942 -103.96724 
L 466.896152 -104.6235 
L 469.192361 -105.345653 
L 471.488571 -106.066386 
L 473.78478 -106.805703 
L 476.08099 -107.544032 
L 478.377199 -108.209072 
L 480.673409 -108.870449 
L 482.969619 -109.552828 
L 485.265828 -110.363981 
L 487.562038 -111.169306 
L 489.858247 -111.962391 
L 492.154457 -112.721948 
L 494.450666 -113.618663 
L 496.746876 -114.443139 
L 499.043085 -115.276073 
L 501.339295 -116.133469 
L 503.635504 -116.946559 
L 505.931714 -117.709429 
L 508.227923 -118.362598 
L 510.524133 -119.021445 
L 512.820343 -119.71458 
L 515.116552 -120.444027 
L 517.412762 -121.173091 
L 519.708971 -121.891579 
L 522.005181 -122.582994 
L 524.30139 -123.294789 
L 526.5976 -124.102062 
L 528.893809 -124.891169 
L 531.190019 -125.718033 
L 533.486228 -126.487425 
L 535.782438 -127.315409 
L 538.078647 -128.104675 
L 540.374857 -128.977239 
L 542.671067 -129.861089 
L 544.967276 -130.730487 
L 547.263486 -131.657241 
L 549.559695 -132.478589 
L 551.855905 -133.269659 
L 554.152114 -134.086067 
L 556.448324 -134.886803 
L 558.744533 -135.731491 
L 561.040743 -136.571824 
L 563.336952 -137.402883 
L 565.633162 -138.194223 
L 567.929371 -138.97888 
L 570.225581 -139.761289 
L 572.521791 -140.538841 
L 574.818 -141.381464 
L 577.11421 -142.262823 
L 579.410419 -143.105698 
L 581.706629 -143.898365 
L 584.002838 -144.664047 
L 586.299048 -145.448445 
L 588.595257 -146.176958 
L 590.891467 -146.907226 
L 593.187676 -147.60423 
L 595.483886 -148.293793 
L 597.780095 -148.96652 
L 600.076305 -149.68173 
L 602.372515 -150.302063 
L 604.668724 -150.781153 
L 606.964934 -151.230923 
L 609.261143 -151.641085 
L 611.557353 -152.009221 
L 613.853562 -152.397038 
L 616.149772 -152.728183 
L 618.445981 -153.096844 
L 620.742191 -153.473452 
L 623.0384 -153.847704 
L 625.33461 -154.231118 
L 627.630819 -154.569479 
L 629.927029 -154.957645 
L 632.223239 -155.330177 
L 634.519448 -155.756644 
L 636.815658 -156.169378 
L 639.111867 -156.518244 
L 641.408077 -156.927788 
L 643.704286 -157.335705 
L 646.000496 -157.572365 
L 648.296705 -157.917191 
L 650.592915 -158.2716 
L 652.889124 -158.662106 
L 655.185334 -159.03984 
L 657.481543 -159.416686 
L 659.777753 -159.741867 
L 662.073963 -160.065656 
L 664.370172 -160.399828 
L 666.666382 -160.732775 
L 668.962591 -161.064593 
L 671.258801 -161.403417 
L 673.55501 -161.847023 
L 675.85122 -162.185811 
L 678.147429 -162.524483 
L 680.443639 -162.863046 
L 682.739848 -163.265729 
L 685.036058 -163.676623 
L 687.332267 -164.087239 
L 689.628477 -164.497591 
L 691.924687 -164.919284 
L 694.220896 -165.340769 
L 696.517106 -165.773676 
L 698.813315 -166.154623 
L 701.109525 -166.535553 
L 703.405734 -166.916467 
L 705.701944 -167.297366 
L 707.998153 -167.74156 
L 710.294363 -168.185625 
L 712.590572 -168.629563 
L 714.886782 -169.085054 
L 717.182991 -169.54044 
L 719.479201 -169.995722 
L 721.775411 -170.462601 
L 724.07162 -170.929394 
L 726.36783 -171.384387 
L 728.664039 -171.83928 
L 730.960249 -172.294074 
L 733.256458 -172.748771 
L 735.552668 -173.191633 
L 737.848877 -173.634389 
L 740.145087 -174.088791 
L 742.441296 -174.49273 
L 744.737506 -174.896668 
L 747.033715 -175.288854 
L 749.329925 -175.681037 
L 751.626135 -176.084971 
L 753.922344 -176.488904 
L 756.218554 -176.881081 
L 758.514763 -177.285012 
L 760.810973 -177.677186 
L 763.107182 -178.057602 
L 765.403392 -178.438014 
L 767.699601 -178.83018 
L 769.995811 -179.222345 
L 772.29202 -179.614508 
L 774.58823 -179.994909 
L 776.884439 -180.375306 
L 779.180649 -180.755701 
L 781.476859 -181.12433 
L 783.773068 -181.481191 
L 786.069278 -181.838045 
L 788.365487 -182.194893 
L 790.661697 -182.539968 
L 792.957906 -182.908572 
L 795.254116 -183.277172 
L 797.550325 -183.583904 
L 799.846535 -183.890607 
L 802.142744 -184.197283 
L 802.142744 -224.295995 
L 802.142744 -224.295995 
L 799.846535 -223.462831 
L 797.550325 -222.629694 
L 795.254116 -221.796587 
L 792.957906 -221.025347 
L 790.661697 -220.25411 
L 788.365487 -219.345362 
L 786.069278 -218.505379 
L 783.773068 -217.665401 
L 781.476859 -216.82543 
L 779.180649 -216.05422 
L 776.884439 -215.351766 
L 774.58823 -214.649316 
L 772.29202 -213.946869 
L 769.995811 -213.313177 
L 767.699601 -212.679486 
L 765.403392 -212.045796 
L 763.107182 -211.343361 
L 760.810973 -210.640929 
L 758.514763 -210.007247 
L 756.218554 -209.442314 
L 753.922344 -208.808636 
L 751.626135 -208.243705 
L 749.329925 -207.678775 
L 747.033715 -207.045103 
L 744.737506 -206.411432 
L 742.441296 -205.846507 
L 740.145087 -205.281582 
L 737.848877 -204.710128 
L 735.552668 -204.070036 
L 733.256458 -203.430051 
L 730.960249 -202.858892 
L 728.664039 -202.287831 
L 726.36783 -201.716868 
L 724.07162 -201.146005 
L 721.775411 -200.643934 
L 719.479201 -200.14195 
L 717.182991 -199.571376 
L 714.886782 -199.000906 
L 712.590572 -198.430541 
L 710.294363 -197.791631 
L 707.998153 -197.152848 
L 705.701944 -196.514195 
L 703.405734 -195.812246 
L 701.109525 -195.110313 
L 698.813315 -194.408396 
L 696.517106 -193.706494 
L 694.220896 -192.999561 
L 691.924687 -192.224215 
L 689.628477 -191.449076 
L 687.332267 -190.605604 
L 685.036058 -189.762397 
L 682.739848 -188.919467 
L 680.443639 -188.068327 
L 678.147429 -187.153066 
L 675.85122 -186.237914 
L 673.55501 -185.322879 
L 671.258801 -184.398677 
L 668.962591 -183.483678 
L 666.666382 -182.561672 
L 664.370172 -181.640795 
L 662.073963 -180.721143 
L 659.777753 -179.734116 
L 657.481543 -178.748482 
L 655.185334 -177.757521 
L 652.889124 -176.767447 
L 650.592915 -175.847137 
L 648.296705 -175.004715 
L 646.000496 -174.095717 
L 643.704286 -173.135545 
L 641.408077 -172.289639 
L 639.111867 -171.445358 
L 636.815658 -170.540401 
L 634.519448 -169.699311 
L 632.223239 -168.928947 
L 629.927029 -168.104647 
L 627.630819 -167.352973 
L 625.33461 -166.608486 
L 623.0384 -165.852061 
L 620.742191 -165.029481 
L 618.445981 -164.209258 
L 616.149772 -163.324095 
L 613.853562 -162.173448 
L 611.557353 -160.965489 
L 609.261143 -159.965818 
L 606.964934 -158.951181 
L 604.668724 -157.976151 
L 602.372515 -157.144425 
L 600.076305 -156.282967 
L 597.780095 -155.516385 
L 595.483886 -154.821304 
L 593.187676 -154.200052 
L 590.891467 -153.58624 
L 588.595257 -152.9487 
L 586.299048 -152.423389 
L 584.002838 -151.725996 
L 581.706629 -151.180862 
L 579.410419 -150.605722 
L 577.11421 -149.852821 
L 574.818 -149.195396 
L 572.521791 -148.61322 
L 570.225581 -148.022964 
L 567.929371 -147.494558 
L 565.633162 -146.968398 
L 563.336952 -146.505915 
L 561.040743 -145.798191 
L 558.744533 -145.156732 
L 556.448324 -144.519628 
L 554.152114 -144.009548 
L 551.855905 -143.572133 
L 549.559695 -143.166372 
L 547.263486 -142.676903 
L 544.967276 -142.064874 
L 542.671067 -141.45248 
L 540.374857 -140.797547 
L 538.078647 -140.18832 
L 535.782438 -139.66677 
L 533.486228 -139.012962 
L 531.190019 -138.24357 
L 528.893809 -137.474659 
L 526.5976 -136.724982 
L 524.30139 -135.93648 
L 522.005181 -135.166483 
L 519.708971 -134.262122 
L 517.412762 -133.156867 
L 515.116552 -132.11918 
L 512.820343 -131.081874 
L 510.524133 -130.06525 
L 508.227923 -129.07133 
L 505.931714 -128.014739 
L 503.635504 -126.839882 
L 501.339295 -125.715244 
L 499.043085 -124.634913 
L 496.746876 -123.587111 
L 494.450666 -122.416867 
L 492.154457 -121.318863 
L 489.858247 -120.311668 
L 487.562038 -119.28101 
L 485.265828 -118.376576 
L 482.969619 -117.534961 
L 480.673409 -116.79254 
L 478.377199 -115.972125 
L 476.08099 -115.212366 
L 473.78478 -114.297928 
L 471.488571 -113.384477 
L 469.192361 -112.509434 
L 466.896152 -111.692804 
L 464.599942 -110.867272 
L 462.303733 -109.983722 
L 460.007523 -109.169482 
L 457.711314 -108.416226 
L 455.415104 -107.656426 
L 453.118895 -106.92344 
L 450.822685 -106.287952 
L 448.526475 -105.661802 
L 446.230266 -105.037004 
L 443.934056 -104.413595 
L 441.637847 -103.791609 
L 439.341637 -103.198327 
L 437.045428 -102.665401 
L 434.749218 -102.077339 
L 432.453009 -101.548221 
L 430.156799 -101.020729 
L 427.86059 -100.514903 
L 425.56438 -100.012236 
L 423.268171 -99.55855 
L 420.971961 -99.165446 
L 418.675751 -98.734263 
L 416.379542 -98.306824 
L 414.083332 -97.879384 
L 411.787123 -97.487623 
L 409.490913 -97.084519 
L 407.194704 -96.681876 
L 404.898494 -96.24364 
L 402.602285 -95.784021 
L 400.306075 -95.326984 
L 398.009866 -94.905536 
L 395.713656 -94.442413 
L 393.417447 -93.994965 
L 391.121237 -93.620601 
L 388.825027 -93.246696 
L 386.528818 -92.912516 
L 384.232608 -92.578401 
L 381.936399 -92.244368 
L 379.640189 -91.870435 
L 377.34398 -91.507598 
L 375.04777 -91.145206 
L 372.751561 -90.878724 
L 370.455351 -90.6124 
L 368.159142 -90.355936 
L 365.862932 -90.041324 
L 363.566723 -89.843008 
L 361.270513 -89.6455 
L 358.974303 -89.379752 
L 356.678094 -89.139946 
L 354.381884 -88.900321 
L 352.085675 -88.670871 
L 349.789465 -88.539721 
L 347.493256 -88.475425 
L 345.197046 -88.291677 
L 342.900837 -88.045813 
L 340.604627 -87.870783 
L 338.308418 -87.699807 
L 336.012208 -87.528831 
L 333.715999 -87.288775 
L 331.419789 -87.049032 
L 329.123579 -86.809859 
L 326.82737 -86.591371 
L 324.53116 -86.505883 
L 322.234951 -86.42564 
L 319.938741 -86.340152 
L 317.642532 -86.287002 
L 315.346322 -86.229937 
L 313.050113 -86.192427 
L 310.753903 -86.099375 
L 308.457694 -86.009404 
L 306.161484 -85.926389 
L 303.865275 -85.857593 
L 301.569065 -85.788798 
L 299.272855 -85.788798 
L 296.976646 -85.788798 
L 294.680436 -85.788798 
L 292.384227 -85.788798 
L 290.088017 -85.788798 
L 287.791808 -85.788798 
L 285.495598 -85.788798 
L 283.199389 -85.788798 
L 280.903179 -85.788798 
L 278.60697 -85.788798 
L 276.31076 -85.788798 
L 274.014551 -85.788798 
L 271.718341 -85.788798 
L 269.422131 -85.788798 
L 267.125922 -85.788798 
L 264.829712 -85.788798 
L 262.533503 -85.788798 
L 260.237293 -85.788798 
L 257.941084 -85.788798 
L 255.644874 -85.788798 
L 253.348665 -85.788798 
L 251.052455 -85.788798 
L 248.756246 -85.788798 
L 246.460036 -85.788798 
L 244.163827 -85.788798 
L 241.867617 -85.788798 
L 239.571407 -85.788798 
L 237.275198 -85.788798 
L 234.978988 -85.788798 
L 232.682779 -85.788798 
L 230.386569 -85.788798 
L 228.09036 -85.788798 
L 225.79415 -85.788798 
L 223.497941 -85.788798 
L 221.201731 -85.788798 
L 218.905522 -85.788798 
L 216.609312 -85.788798 
L 214.313103 -85.788798 
L 212.016893 -85.788798 
L 209.720683 -85.788798 
L 207.424474 -85.788798 
L 205.128264 -85.788798 
L 202.832055 -85.788798 
L 200.535845 -85.788798 
L 198.239636 -85.788798 
L 195.943426 -85.788798 
L 193.647217 -85.788798 
L 191.351007 -85.788798 
L 189.054798 -85.788798 
L 186.758588 -85.788798 
L 184.462379 -85.788798 
L 182.166169 -85.788798 
L 179.869959 -85.788798 
L 177.57375 -85.788798 
L 175.27754 -85.788798 
L 172.981331 -85.788798 
L 170.685121 -85.788798 
L 168.388912 -85.788798 
L 166.092702 -85.788798 
L 163.796493 -85.788798 
L 161.500283 -85.788798 
L 159.204074 -85.788798 
L 156.907864 -85.788798 
L 154.611655 -85.788798 
L 152.315445 -85.788798 
L 150.019235 -85.788798 
L 147.723026 -85.788798 
L 145.426816 -85.788798 
L 143.130607 -85.788798 
z
" style="stroke: #008000; stroke-opacity: 0.3"/>
    </defs>
    <g clip-path="url(#pcdd35ecd83)">
     <use xlink:href="#md798e0a581" x="0" y="432" style="fill: #008000; fill-opacity: 0.3; stroke: #008000; stroke-opacity: 0.3"/>
    </g>
   </g>
   <g id="PolyCollection_3">
    <defs>
     <path id="m1dee7a4f14" d="M 143.130607 -85.788798 
L 143.130607 -85.788798 
L 145.426816 -85.788798 
L 147.723026 -85.788798 
L 150.019235 -85.788798 
L 152.315445 -85.788798 
L 154.611655 -85.788798 
L 156.907864 -85.788798 
L 159.204074 -85.788798 
L 161.500283 -85.788798 
L 163.796493 -85.788798 
L 166.092702 -85.788798 
L 168.388912 -85.788798 
L 170.685121 -85.788798 
L 172.981331 -85.788798 
L 175.27754 -85.788798 
L 177.57375 -85.788798 
L 179.869959 -85.788798 
L 182.166169 -85.788798 
L 184.462379 -85.788798 
L 186.758588 -85.788798 
L 189.054798 -85.788798 
L 191.351007 -85.788798 
L 193.647217 -85.788798 
L 195.943426 -85.788798 
L 198.239636 -85.788798 
L 200.535845 -85.788798 
L 202.832055 -85.788798 
L 205.128264 -85.788798 
L 207.424474 -85.788798 
L 209.720683 -85.788798 
L 212.016893 -85.788798 
L 214.313103 -85.788798 
L 216.609312 -85.788798 
L 218.905522 -85.788798 
L 221.201731 -85.788798 
L 223.497941 -85.788798 
L 225.79415 -85.788798 
L 228.09036 -85.788798 
L 230.386569 -85.788798 
L 232.682779 -85.788798 
L 234.978988 -85.788798 
L 237.275198 -85.788798 
L 239.571407 -85.788798 
L 241.867617 -85.788798 
L 244.163827 -85.788798 
L 246.460036 -85.788798 
L 248.756246 -85.788798 
L 251.052455 -85.788798 
L 253.348665 -85.788798 
L 255.644874 -85.788798 
L 257.941084 -85.788798 
L 260.237293 -85.788798 
L 262.533503 -85.788798 
L 264.829712 -85.788798 
L 267.125922 -85.788798 
L 269.422131 -85.788798 
L 271.718341 -85.788798 
L 274.014551 -85.788798 
L 276.31076 -85.788798 
L 278.60697 -85.788798 
L 280.903179 -85.788798 
L 283.199389 -85.788798 
L 285.495598 -85.788798 
L 287.791808 -85.788798 
L 290.088017 -85.788798 
L 292.384227 -85.776994 
L 294.680436 -85.804485 
L 296.976646 -85.785976 
L 299.272855 -85.812609 
L 301.569065 -85.820158 
L 303.865275 -85.808474 
L 306.161484 -85.832968 
L 308.457694 -85.847692 
L 310.753903 -85.906747 
L 313.050113 -85.963852 
L 315.346322 -85.987676 
L 317.642532 -85.978276 
L 319.938741 -86.027724 
L 322.234951 -86.133869 
L 324.53116 -86.293873 
L 326.82737 -86.448826 
L 329.123579 -86.653327 
L 331.419789 -86.843335 
L 333.715999 -86.987213 
L 336.012208 -87.2255 
L 338.308418 -87.559744 
L 340.604627 -87.936291 
L 342.900837 -88.262551 
L 345.197046 -88.587014 
L 347.493256 -88.909778 
L 349.789465 -89.188508 
L 352.085675 -89.45238 
L 354.381884 -89.798666 
L 356.678094 -90.102859 
L 358.974303 -90.4449 
L 361.270513 -90.679017 
L 363.566723 -90.980242 
L 365.862932 -91.317266 
L 368.159142 -91.790906 
L 370.455351 -92.13563 
L 372.751561 -92.469742 
L 375.04777 -92.766021 
L 377.34398 -93.147729 
L 379.640189 -93.497641 
L 381.936399 -93.905268 
L 384.232608 -94.218183 
L 386.528818 -94.558296 
L 388.825027 -94.959373 
L 391.121237 -95.368268 
L 393.417447 -95.769856 
L 395.713656 -96.216269 
L 398.009866 -96.662642 
L 400.306075 -97.146645 
L 402.602285 -97.628729 
L 404.898494 -98.11368 
L 407.194704 -98.595595 
L 409.490913 -99.143089 
L 411.787123 -99.758723 
L 414.083332 -100.308947 
L 416.379542 -100.85776 
L 418.675751 -101.49206 
L 420.971961 -102.099664 
L 423.268171 -102.666923 
L 425.56438 -103.320326 
L 427.86059 -104.040777 
L 430.156799 -104.761144 
L 432.453009 -105.56713 
L 434.749218 -106.489368 
L 437.045428 -107.411587 
L 439.341637 -108.266467 
L 441.637847 -109.188899 
L 443.934056 -109.958385 
L 446.230266 -110.745745 
L 448.526475 -111.550293 
L 450.822685 -112.403773 
L 453.118895 -113.307729 
L 455.415104 -114.296112 
L 457.711314 -115.368244 
L 460.007523 -116.494655 
L 462.303733 -117.654885 
L 464.599942 -118.797485 
L 466.896152 -119.874812 
L 469.192361 -120.950745 
L 471.488571 -121.975487 
L 473.78478 -123.016112 
L 476.08099 -124.191849 
L 478.377199 -125.316216 
L 480.673409 -126.371324 
L 482.969619 -127.561913 
L 485.265828 -128.686923 
L 487.562038 -129.880059 
L 489.858247 -131.081436 
L 492.154457 -132.280564 
L 494.450666 -133.414581 
L 496.746876 -134.616174 
L 499.043085 -135.875353 
L 501.339295 -137.065561 
L 503.635504 -138.255514 
L 505.931714 -139.386804 
L 508.227923 -140.582561 
L 510.524133 -141.784136 
L 512.820343 -142.977228 
L 515.116552 -144.237933 
L 517.412762 -145.490428 
L 519.708971 -146.738369 
L 522.005181 -147.978943 
L 524.30139 -149.082547 
L 526.5976 -150.301741 
L 528.893809 -151.424518 
L 531.190019 -152.555964 
L 533.486228 -153.767579 
L 535.782438 -154.976894 
L 538.078647 -156.300575 
L 540.374857 -157.533623 
L 542.671067 -158.815942 
L 544.967276 -160.137941 
L 547.263486 -161.485031 
L 549.559695 -162.741715 
L 551.855905 -164.006303 
L 554.152114 -165.200261 
L 556.448324 -166.443194 
L 558.744533 -167.635022 
L 561.040743 -168.888769 
L 563.336952 -170.27327 
L 565.633162 -171.624073 
L 567.929371 -172.962937 
L 570.225581 -174.288694 
L 572.521791 -175.66902 
L 574.818 -177.043369 
L 577.11421 -178.43117 
L 579.410419 -179.803167 
L 581.706629 -181.085204 
L 584.002838 -182.472484 
L 586.299048 -183.786967 
L 588.595257 -185.188965 
L 590.891467 -186.501514 
L 593.187676 -187.894443 
L 595.483886 -189.282469 
L 597.780095 -190.750922 
L 600.076305 -192.217724 
L 602.372515 -193.6812 
L 604.668724 -195.054976 
L 606.964934 -196.429809 
L 609.261143 -197.757485 
L 611.557353 -199.095145 
L 613.853562 -200.474058 
L 616.149772 -201.824111 
L 618.445981 -203.230717 
L 620.742191 -204.671411 
L 623.0384 -206.060464 
L 625.33461 -207.449194 
L 627.630819 -208.830337 
L 629.927029 -210.262582 
L 632.223239 -211.694058 
L 634.519448 -213.124815 
L 636.815658 -214.522808 
L 639.111867 -216.017434 
L 641.408077 -217.565421 
L 643.704286 -219.016529 
L 646.000496 -220.39165 
L 648.296705 -221.893498 
L 650.592915 -223.406239 
L 652.889124 -224.984389 
L 655.185334 -226.575308 
L 657.481543 -228.153352 
L 659.777753 -229.840914 
L 662.073963 -231.572007 
L 664.370172 -233.290341 
L 666.666382 -235.008651 
L 668.962591 -236.750795 
L 671.258801 -238.56577 
L 673.55501 -240.369577 
L 675.85122 -242.204073 
L 678.147429 -244.009612 
L 680.443639 -245.942423 
L 682.739848 -247.864034 
L 685.036058 -249.827729 
L 687.332267 -251.749293 
L 689.628477 -253.75628 
L 691.924687 -255.762193 
L 694.220896 -257.745649 
L 696.517106 -259.7709 
L 698.813315 -261.806844 
L 701.109525 -263.84235 
L 703.405734 -265.836212 
L 705.701944 -267.733514 
L 707.998153 -269.630759 
L 710.294363 -271.558023 
L 712.590572 -273.429464 
L 714.886782 -275.396717 
L 717.182991 -277.318105 
L 719.479201 -279.192664 
L 721.775411 -281.12864 
L 724.07162 -283.043261 
L 726.36783 -285.07099 
L 728.664039 -287.081619 
L 730.960249 -289.109382 
L 733.256458 -291.073755 
L 735.552668 -293.037692 
L 737.848877 -295.089139 
L 740.145087 -297.186038 
L 742.441296 -299.213146 
L 744.737506 -301.461094 
L 747.033715 -303.709013 
L 749.329925 -306.052587 
L 751.626135 -308.328257 
L 753.922344 -310.671679 
L 756.218554 -313.062673 
L 758.514763 -315.338139 
L 760.810973 -317.61348 
L 763.107182 -319.936549 
L 765.403392 -322.345103 
L 767.699601 -324.756233 
L 769.995811 -327.215137 
L 772.29202 -329.663866 
L 774.58823 -332.130182 
L 776.884439 -334.644588 
L 779.180649 -337.169061 
L 781.476859 -339.741161 
L 783.773068 -342.303145 
L 786.069278 -344.960733 
L 788.365487 -347.560499 
L 790.661697 -350.081917 
L 792.957906 -352.60257 
L 795.254116 -355.268785 
L 797.550325 -357.924629 
L 799.846535 -360.675317 
L 802.142744 -363.347346 
L 802.142744 -405.221293 
L 802.142744 -405.221293 
L 799.846535 -402.308108 
L 797.550325 -399.530573 
L 795.254116 -396.772178 
L 792.957906 -394.081147 
L 790.661697 -391.187561 
L 788.365487 -388.294741 
L 786.069278 -385.423276 
L 783.773068 -382.552642 
L 781.476859 -379.700387 
L 779.180649 -376.91524 
L 776.884439 -374.196451 
L 774.58823 -371.410602 
L 772.29202 -368.576664 
L 769.995811 -365.896114 
L 767.699601 -363.282731 
L 765.403392 -360.621575 
L 763.107182 -357.786866 
L 760.810973 -355.037648 
L 758.514763 -352.354686 
L 756.218554 -349.67185 
L 753.922344 -346.990557 
L 751.626135 -344.375676 
L 749.329925 -341.693044 
L 747.033715 -339.078315 
L 744.737506 -336.481915 
L 742.441296 -333.885545 
L 740.145087 -331.23931 
L 737.848877 -328.77685 
L 735.552668 -326.382922 
L 733.256458 -323.958476 
L 730.960249 -321.534466 
L 728.664039 -319.059862 
L 726.36783 -316.568125 
L 724.07162 -314.093487 
L 721.775411 -311.619725 
L 719.479201 -309.281302 
L 717.182991 -306.995446 
L 714.886782 -304.642436 
L 712.590572 -302.221305 
L 710.294363 -299.818348 
L 707.998153 -297.414221 
L 705.701944 -295.094059 
L 703.405734 -292.773954 
L 701.109525 -290.436425 
L 698.813315 -288.083549 
L 696.517106 -285.731109 
L 694.220896 -283.310986 
L 691.924687 -280.906059 
L 689.628477 -278.637573 
L 687.332267 -276.313169 
L 685.036058 -274.074319 
L 682.739848 -271.820606 
L 680.443639 -269.581803 
L 678.147429 -267.41119 
L 675.85122 -265.341275 
L 673.55501 -263.243323 
L 671.258801 -261.228667 
L 668.962591 -259.282171 
L 666.666382 -257.43382 
L 664.370172 -255.504644 
L 662.073963 -253.57549 
L 659.777753 -251.659096 
L 657.481543 -249.813156 
L 655.185334 -247.971681 
L 652.889124 -246.14308 
L 650.592915 -244.301711 
L 648.296705 -242.394933 
L 646.000496 -240.477262 
L 643.704286 -238.660832 
L 641.408077 -236.920389 
L 639.111867 -235.16284 
L 636.815658 -233.408923 
L 634.519448 -231.672357 
L 632.223239 -229.85457 
L 629.927029 -228.037504 
L 627.630819 -226.221206 
L 625.33461 -224.410798 
L 623.0384 -222.607976 
L 620.742191 -220.805478 
L 618.445981 -218.997629 
L 616.149772 -217.269675 
L 613.853562 -215.542161 
L 611.557353 -213.957492 
L 609.261143 -212.38856 
L 606.964934 -210.809645 
L 604.668724 -209.220895 
L 602.372515 -207.631087 
L 600.076305 -205.960004 
L 597.780095 -204.292247 
L 595.483886 -202.626141 
L 593.187676 -201.050583 
L 590.891467 -199.479929 
L 588.595257 -197.999871 
L 586.299048 -196.381293 
L 584.002838 -194.846178 
L 581.706629 -193.383858 
L 579.410419 -191.93028 
L 577.11421 -190.395686 
L 574.818 -188.819904 
L 572.521791 -187.23067 
L 570.225581 -185.647412 
L 567.929371 -184.066578 
L 565.633162 -182.555843 
L 563.336952 -181.114038 
L 561.040743 -179.64894 
L 558.744533 -178.11008 
L 556.448324 -176.566293 
L 554.152114 -174.902634 
L 551.855905 -173.360978 
L 549.559695 -171.88995 
L 547.263486 -170.581994 
L 544.967276 -169.307453 
L 542.671067 -168.064813 
L 540.374857 -166.782493 
L 538.078647 -165.564885 
L 535.782438 -164.323927 
L 533.486228 -163.082587 
L 531.190019 -161.786554 
L 528.893809 -160.524337 
L 526.5976 -159.310442 
L 524.30139 -158.078981 
L 522.005181 -156.845914 
L 519.708971 -155.692824 
L 517.412762 -154.49011 
L 515.116552 -153.291949 
L 512.820343 -152.101999 
L 510.524133 -150.901428 
L 508.227923 -149.652348 
L 505.931714 -148.454442 
L 503.635504 -147.249059 
L 501.339295 -146.102341 
L 499.043085 -144.955878 
L 496.746876 -143.821394 
L 494.450666 -142.629323 
L 492.154457 -141.426668 
L 489.858247 -140.289126 
L 487.562038 -139.153831 
L 485.265828 -138.010296 
L 482.969619 -136.855626 
L 480.673409 -135.766536 
L 478.377199 -134.655949 
L 476.08099 -133.557628 
L 473.78478 -132.567669 
L 471.488571 -131.556583 
L 469.192361 -130.586605 
L 466.896152 -129.667819 
L 464.599942 -128.693434 
L 462.303733 -127.841315 
L 460.007523 -126.892842 
L 457.711314 -126.081525 
L 455.415104 -125.329914 
L 453.118895 -124.608537 
L 450.822685 -123.916718 
L 448.526475 -123.174422 
L 446.230266 -122.326202 
L 443.934056 -121.517787 
L 441.637847 -120.805482 
L 439.341637 -120.018154 
L 437.045428 -119.163274 
L 434.749218 -118.318741 
L 432.453009 -117.474228 
L 430.156799 -116.570455 
L 427.86059 -115.695046 
L 425.56438 -114.819721 
L 423.268171 -113.934341 
L 420.971961 -113.0768 
L 418.675751 -112.202612 
L 416.379542 -111.355121 
L 414.083332 -110.593118 
L 411.787123 -109.889519 
L 409.490913 -109.137345 
L 407.194704 -108.317031 
L 404.898494 -107.545122 
L 402.602285 -106.890234 
L 400.306075 -106.118494 
L 398.009866 -105.405666 
L 395.713656 -104.883174 
L 393.417447 -104.360724 
L 391.121237 -103.793449 
L 388.825027 -103.347463 
L 386.528818 -102.722684 
L 384.232608 -102.150926 
L 381.936399 -101.55197 
L 379.640189 -100.990733 
L 377.34398 -100.485765 
L 375.04777 -99.9556 
L 372.751561 -99.453993 
L 370.455351 -98.933224 
L 368.159142 -98.423069 
L 365.862932 -97.927845 
L 363.566723 -97.409989 
L 361.270513 -96.913326 
L 358.974303 -96.349556 
L 356.678094 -95.836717 
L 354.381884 -95.343022 
L 352.085675 -94.834428 
L 349.789465 -94.414396 
L 347.493256 -94.066214 
L 345.197046 -93.648082 
L 342.900837 -93.23165 
L 340.604627 -92.817014 
L 338.308418 -92.395674 
L 336.012208 -91.989021 
L 333.715999 -91.600397 
L 331.419789 -91.231347 
L 329.123579 -90.851435 
L 326.82737 -90.486016 
L 324.53116 -90.128041 
L 322.234951 -89.775117 
L 319.938741 -89.425326 
L 317.642532 -89.075831 
L 315.346322 -88.724479 
L 313.050113 -88.349359 
L 310.753903 -87.950528 
L 308.457694 -87.553647 
L 306.161484 -87.112435 
L 303.865275 -86.737985 
L 301.569065 -86.38435 
L 299.272855 -86.163931 
L 296.976646 -86.076579 
L 294.680436 -85.944086 
L 292.384227 -85.857593 
L 290.088017 -85.788798 
L 287.791808 -85.788798 
L 285.495598 -85.788798 
L 283.199389 -85.788798 
L 280.903179 -85.788798 
L 278.60697 -85.788798 
L 276.31076 -85.788798 
L 274.014551 -85.788798 
L 271.718341 -85.788798 
L 269.422131 -85.788798 
L 267.125922 -85.788798 
L 264.829712 -85.788798 
L 262.533503 -85.788798 
L 260.237293 -85.788798 
L 257.941084 -85.788798 
L 255.644874 -85.788798 
L 253.348665 -85.788798 
L 251.052455 -85.788798 
L 248.756246 -85.788798 
L 246.460036 -85.788798 
L 244.163827 -85.788798 
L 241.867617 -85.788798 
L 239.571407 -85.788798 
L 237.275198 -85.788798 
L 234.978988 -85.788798 
L 232.682779 -85.788798 
L 230.386569 -85.788798 
L 228.09036 -85.788798 
L 225.79415 -85.788798 
L 223.497941 -85.788798 
L 221.201731 -85.788798 
L 218.905522 -85.788798 
L 216.609312 -85.788798 
L 214.313103 -85.788798 
L 212.016893 -85.788798 
L 209.720683 -85.788798 
L 207.424474 -85.788798 
L 205.128264 -85.788798 
L 202.832055 -85.788798 
L 200.535845 -85.788798 
L 198.239636 -85.788798 
L 195.943426 -85.788798 
L 193.647217 -85.788798 
L 191.351007 -85.788798 
L 189.054798 -85.788798 
L 186.758588 -85.788798 
L 184.462379 -85.788798 
L 182.166169 -85.788798 
L 179.869959 -85.788798 
L 177.57375 -85.788798 
L 175.27754 -85.788798 
L 172.981331 -85.788798 
L 170.685121 -85.788798 
L 168.388912 -85.788798 
L 166.092702 -85.788798 
L 163.796493 -85.788798 
L 161.500283 -85.788798 
L 159.204074 -85.788798 
L 156.907864 -85.788798 
L 154.611655 -85.788798 
L 152.315445 -85.788798 
L 150.019235 -85.788798 
L 147.723026 -85.788798 
L 145.426816 -85.788798 
L 143.130607 -85.788798 
z
" style="stroke: #ff0000; stroke-opacity: 0.3"/>
    </defs>
    <g clip-path="url(#pcdd35ecd83)">
     <use xlink:href="#m1dee7a4f14" x="0" y="432" style="fill: #ff0000; fill-opacity: 0.3; stroke: #ff0000; stroke-opacity: 0.3"/>
    </g>
   </g>
   <g id="PolyCollection_4">
    <defs>
     <path id="mddfe8b783a" d="M 143.130607 -85.788798 
L 143.130607 -85.788798 
L 145.426816 -85.788798 
L 147.723026 -85.788798 
L 150.019235 -85.788798 
L 152.315445 -85.788798 
L 154.611655 -85.788798 
L 156.907864 -85.788798 
L 159.204074 -85.788798 
L 161.500283 -85.788798 
L 163.796493 -85.788798 
L 166.092702 -85.788798 
L 168.388912 -85.788798 
L 170.685121 -85.788798 
L 172.981331 -85.788798 
L 175.27754 -85.788798 
L 177.57375 -85.788798 
L 179.869959 -85.788798 
L 182.166169 -85.788798 
L 184.462379 -85.788798 
L 186.758588 -85.788798 
L 189.054798 -85.788798 
L 191.351007 -85.788798 
L 193.647217 -85.788798 
L 195.943426 -85.788798 
L 198.239636 -85.788798 
L 200.535845 -85.788798 
L 202.832055 -85.788798 
L 205.128264 -85.788798 
L 207.424474 -85.788798 
L 209.720683 -85.788798 
L 212.016893 -85.788798 
L 214.313103 -85.788798 
L 216.609312 -85.788798 
L 218.905522 -85.788798 
L 221.201731 -85.788798 
L 223.497941 -85.788798 
L 225.79415 -85.788798 
L 228.09036 -85.788798 
L 230.386569 -85.788798 
L 232.682779 -85.788798 
L 234.978988 -85.788798 
L 237.275198 -85.788798 
L 239.571407 -85.788798 
L 241.867617 -85.788798 
L 244.163827 -85.788798 
L 246.460036 -85.788798 
L 248.756246 -85.788798 
L 251.052455 -85.788798 
L 253.348665 -85.788798 
L 255.644874 -85.788798 
L 257.941084 -85.788798 
L 260.237293 -85.788798 
L 262.533503 -85.788798 
L 264.829712 -85.788798 
L 267.125922 -85.788798 
L 269.422131 -85.788798 
L 271.718341 -85.788798 
L 274.014551 -85.788798 
L 276.31076 -85.788798 
L 278.60697 -85.788798 
L 280.903179 -85.788798 
L 283.199389 -85.788798 
L 285.495598 -85.788798 
L 287.791808 -85.788798 
L 290.088017 -85.788798 
L 292.384227 -85.788798 
L 294.680436 -85.788798 
L 296.976646 -85.788798 
L 299.272855 -85.788798 
L 301.569065 -85.788798 
L 303.865275 -85.788798 
L 306.161484 -85.788798 
L 308.457694 -85.788798 
L 310.753903 -85.788798 
L 313.050113 -85.788798 
L 315.346322 -85.788798 
L 317.642532 -85.788798 
L 319.938741 -85.788798 
L 322.234951 -85.788798 
L 324.53116 -85.788798 
L 326.82737 -85.788798 
L 329.123579 -85.788798 
L 331.419789 -85.788798 
L 333.715999 -85.788798 
L 336.012208 -85.788798 
L 338.308418 -85.788798 
L 340.604627 -85.788798 
L 342.900837 -85.788798 
L 345.197046 -85.788798 
L 347.493256 -85.788798 
L 349.789465 -85.788798 
L 352.085675 -85.788798 
L 354.381884 -85.788798 
L 356.678094 -85.788798 
L 358.974303 -85.788798 
L 361.270513 -85.788798 
L 363.566723 -85.788798 
L 365.862932 -85.788798 
L 368.159142 -85.788798 
L 370.455351 -85.788798 
L 372.751561 -85.788798 
L 375.04777 -85.788798 
L 377.34398 -85.788798 
L 379.640189 -85.788798 
L 381.936399 -85.788798 
L 384.232608 -85.788798 
L 386.528818 -85.788798 
L 388.825027 -85.788798 
L 391.121237 -85.788798 
L 393.417447 -85.788798 
L 395.713656 -85.788798 
L 398.009866 -85.788798 
L 400.306075 -85.788798 
L 402.602285 -85.776994 
L 404.898494 -85.804485 
L 407.194704 -85.796159 
L 409.490913 -85.820172 
L 411.787123 -85.841105 
L 414.083332 -85.860513 
L 416.379542 -85.87908 
L 418.675751 -85.897138 
L 420.971961 -85.896371 
L 423.268171 -85.893411 
L 425.56438 -85.888798 
L 427.86059 -85.882922 
L 430.156799 -85.87607 
L 432.453009 -85.868454 
L 434.749218 -85.86023 
L 437.045428 -85.851518 
L 439.341637 -85.842407 
L 441.637847 -85.832968 
L 443.934056 -85.823256 
L 446.230266 -85.823256 
L 448.526475 -85.823256 
L 450.822685 -85.823256 
L 453.118895 -85.823256 
L 455.415104 -85.823256 
L 457.711314 -85.823256 
L 460.007523 -85.823256 
L 462.303733 -85.823256 
L 464.599942 -85.823256 
L 466.896152 -85.813315 
L 469.192361 -85.80318 
L 471.488571 -85.792879 
L 473.78478 -85.782435 
L 476.08099 -85.771868 
L 478.377199 -85.761193 
L 480.673409 -85.750423 
L 482.969619 -85.739571 
L 485.265828 -85.769046 
L 487.562038 -85.797692 
L 489.858247 -85.825574 
L 492.154457 -85.815469 
L 494.450666 -85.805247 
L 496.746876 -85.79492 
L 499.043085 -85.784498 
L 501.339295 -85.77399 
L 503.635504 -85.763403 
L 505.931714 -85.752744 
L 508.227923 -85.74202 
L 510.524133 -85.771172 
L 512.820343 -85.799734 
L 515.116552 -85.827743 
L 517.412762 -85.817563 
L 519.708971 -85.8073 
L 522.005181 -85.79696 
L 524.30139 -85.825061 
L 526.5976 -85.862625 
L 528.893809 -85.899224 
L 531.190019 -85.934844 
L 533.486228 -85.969471 
L 535.782438 -86.003095 
L 538.078647 -86.035706 
L 540.374857 -86.067295 
L 542.671067 -86.097856 
L 544.967276 -86.127386 
L 547.263486 -86.155882 
L 549.559695 -86.177597 
L 551.855905 -86.199081 
L 554.152114 -86.220348 
L 556.448324 -86.241412 
L 558.744533 -86.257216 
L 561.040743 -86.27301 
L 563.336952 -86.288797 
L 565.633162 -86.304577 
L 567.929371 -86.320351 
L 570.225581 -86.336119 
L 572.521791 -86.351882 
L 574.818 -86.340575 
L 577.11421 -86.328485 
L 579.410419 -86.378817 
L 581.706629 -86.42764 
L 584.002838 -86.475022 
L 586.299048 -86.521029 
L 588.595257 -86.565725 
L 590.891467 -86.609173 
L 593.187676 -86.651432 
L 595.483886 -86.751783 
L 597.780095 -86.849745 
L 600.076305 -86.983332 
L 602.372515 -87.058717 
L 604.668724 -87.134053 
L 606.964934 -87.209341 
L 609.261143 -87.294829 
L 611.557353 -87.380317 
L 613.853562 -87.465805 
L 616.149772 -87.551293 
L 618.445981 -87.694173 
L 620.742191 -87.836762 
L 623.0384 -88.018163 
L 625.33461 -88.199522 
L 627.630819 -88.380837 
L 629.927029 -88.619364 
L 632.223239 -88.857765 
L 634.519448 -89.09603 
L 636.815658 -89.390401 
L 639.111867 -89.6837 
L 641.408077 -89.986902 
L 643.704286 -90.234792 
L 646.000496 -90.525187 
L 648.296705 -90.813844 
L 650.592915 -91.100489 
L 652.889124 -91.384797 
L 655.185334 -91.666378 
L 657.481543 -91.944771 
L 659.777753 -92.219426 
L 662.073963 -92.45781 
L 664.370172 -92.694365 
L 666.666382 -93.006564 
L 668.962591 -93.300076 
L 671.258801 -93.569095 
L 673.55501 -93.788392 
L 675.85122 -93.995184 
L 678.147429 -94.189161 
L 680.443639 -94.360137 
L 682.739848 -94.508112 
L 685.036058 -94.643272 
L 687.332267 -94.789976 
L 689.628477 -94.932134 
L 691.924687 -95.070146 
L 694.220896 -95.204418 
L 696.517106 -95.395913 
L 698.813315 -95.571204 
L 701.109525 -95.642518 
L 703.405734 -95.706353 
L 705.701944 -95.815238 
L 707.998153 -95.915324 
L 710.294363 -96.008274 
L 712.590572 -96.095435 
L 714.886782 -96.188916 
L 717.182991 -96.323349 
L 719.479201 -96.416771 
L 721.775411 -96.453628 
L 724.07162 -96.585636 
L 726.36783 -96.716701 
L 728.664039 -96.84694 
L 730.960249 -96.976448 
L 733.256458 -97.095828 
L 735.552668 -97.214956 
L 737.848877 -97.298386 
L 740.145087 -97.381744 
L 742.441296 -97.405971 
L 744.737506 -97.48932 
L 747.033715 -97.572612 
L 749.329925 -97.655854 
L 751.626135 -97.739053 
L 753.922344 -97.822213 
L 756.218554 -97.905337 
L 758.514763 -97.978628 
L 760.810973 -98.051796 
L 763.107182 -98.066576 
L 765.403392 -98.081351 
L 767.699601 -98.096122 
L 769.995811 -98.159336 
L 772.29202 -98.259623 
L 774.58823 -98.455284 
L 776.884439 -98.650893 
L 779.180649 -98.883125 
L 781.476859 -99.088224 
L 783.773068 -99.293203 
L 786.069278 -99.49807 
L 788.365487 -99.761896 
L 790.661697 -100.00242 
L 792.957906 -100.223678 
L 795.254116 -100.504241 
L 797.550325 -100.725263 
L 799.846535 -101.005767 
L 802.142744 -101.286259 
L 802.142744 -116.568828 
L 802.142744 -116.568828 
L 799.846535 -115.937449 
L 797.550325 -115.306081 
L 795.254116 -114.672223 
L 792.957906 -114.040914 
L 790.661697 -113.407293 
L 788.365487 -112.906921 
L 786.069278 -112.429851 
L 783.773068 -111.950814 
L 781.476859 -111.471889 
L 779.180649 -110.993084 
L 776.884439 -110.427429 
L 774.58823 -109.882142 
L 772.29202 -109.336907 
L 769.995811 -108.810282 
L 767.699601 -108.303576 
L 765.403392 -107.862411 
L 763.107182 -107.421251 
L 760.810973 -106.980095 
L 758.514763 -106.540335 
L 756.218554 -106.100698 
L 753.922344 -105.727886 
L 751.626135 -105.35511 
L 749.329925 -104.982373 
L 747.033715 -104.60968 
L 744.737506 -104.237036 
L 742.441296 -103.864448 
L 740.145087 -103.489732 
L 737.848877 -103.117154 
L 735.552668 -102.744648 
L 733.256458 -102.350848 
L 730.960249 -101.9573 
L 728.664039 -101.630873 
L 726.36783 -101.305175 
L 724.07162 -100.980305 
L 721.775411 -100.656377 
L 719.479201 -100.351282 
L 717.182991 -100.04576 
L 714.886782 -99.724257 
L 712.590572 -99.475786 
L 710.294363 -99.164004 
L 707.998153 -98.858009 
L 705.701944 -98.559152 
L 703.405734 -98.269092 
L 701.109525 -97.990975 
L 698.813315 -97.720338 
L 696.517106 -97.439693 
L 694.220896 -97.232244 
L 691.924687 -97.024564 
L 689.628477 -96.820625 
L 687.332267 -96.62083 
L 685.036058 -96.425582 
L 682.739848 -96.275783 
L 680.443639 -96.138798 
L 678.147429 -95.967822 
L 675.85122 -95.762855 
L 673.55501 -95.570702 
L 671.258801 -95.391056 
L 668.962591 -95.261131 
L 666.666382 -95.155699 
L 664.370172 -95.068955 
L 662.073963 -95.020549 
L 659.777753 -94.973973 
L 657.481543 -94.849685 
L 655.185334 -94.729134 
L 652.889124 -94.611771 
L 650.592915 -94.497135 
L 648.296705 -94.384836 
L 646.000496 -94.274549 
L 643.704286 -94.166 
L 641.408077 -94.12893 
L 639.111867 -94.09018 
L 636.815658 -93.984535 
L 634.519448 -93.879963 
L 632.223239 -93.776276 
L 629.927029 -93.672725 
L 627.630819 -93.569299 
L 625.33461 -93.465655 
L 623.0384 -93.362054 
L 620.742191 -93.258495 
L 618.445981 -93.173116 
L 616.149772 -93.088028 
L 613.853562 -93.00254 
L 611.557353 -92.917052 
L 609.261143 -92.831564 
L 606.964934 -92.746076 
L 604.668724 -92.593397 
L 602.372515 -92.440764 
L 600.076305 -92.288181 
L 597.780095 -92.136808 
L 595.483886 -92.006803 
L 593.187676 -91.879185 
L 590.891467 -91.750469 
L 588.595257 -91.622941 
L 586.299048 -91.496661 
L 584.002838 -91.371692 
L 581.706629 -91.248098 
L 579.410419 -91.125945 
L 577.11421 -91.005301 
L 574.818 -90.879227 
L 572.521791 -90.753936 
L 570.225581 -90.598723 
L 567.929371 -90.443515 
L 565.633162 -90.288313 
L 563.336952 -90.133117 
L 561.040743 -89.977928 
L 558.744533 -89.822747 
L 556.448324 -89.667574 
L 554.152114 -89.574654 
L 551.855905 -89.481938 
L 549.559695 -89.389438 
L 547.263486 -89.297169 
L 544.967276 -89.268673 
L 542.671067 -89.241211 
L 540.374857 -89.21478 
L 538.078647 -89.189377 
L 535.782438 -89.164995 
L 533.486228 -89.141627 
L 531.190019 -89.119263 
L 528.893809 -89.097891 
L 526.5976 -89.077498 
L 524.30139 -89.058069 
L 522.005181 -88.972186 
L 519.708971 -88.904855 
L 517.412762 -88.8376 
L 515.116552 -88.770428 
L 512.820343 -88.684452 
L 510.524133 -88.599031 
L 508.227923 -88.514199 
L 505.931714 -88.446482 
L 503.635504 -88.378832 
L 501.339295 -88.311253 
L 499.043085 -88.243753 
L 496.746876 -88.176339 
L 494.450666 -88.10902 
L 492.154457 -88.041806 
L 489.858247 -87.974709 
L 487.562038 -87.888607 
L 485.265828 -87.803269 
L 482.969619 -87.71876 
L 480.673409 -87.650916 
L 478.377199 -87.583154 
L 476.08099 -87.515487 
L 473.78478 -87.447928 
L 471.488571 -87.380492 
L 469.192361 -87.313199 
L 466.896152 -87.246072 
L 464.599942 -87.179139 
L 462.303733 -87.179139 
L 460.007523 -87.179139 
L 457.711314 -87.179139 
L 455.415104 -87.179139 
L 453.118895 -87.179139 
L 450.822685 -87.179139 
L 448.526475 -87.179139 
L 446.230266 -87.179139 
L 443.934056 -87.179139 
L 441.637847 -87.112435 
L 439.341637 -87.046004 
L 437.045428 -86.979901 
L 434.749218 -86.914197 
L 432.453009 -86.848981 
L 430.156799 -86.784373 
L 427.86059 -86.720529 
L 425.56438 -86.657662 
L 423.268171 -86.596056 
L 420.971961 -86.536104 
L 418.675751 -86.478345 
L 416.379542 -86.382419 
L 414.083332 -86.287002 
L 411.787123 -86.192427 
L 409.490913 -86.099375 
L 407.194704 -86.009404 
L 404.898494 -85.944086 
L 402.602285 -85.857593 
L 400.306075 -85.788798 
L 398.009866 -85.788798 
L 395.713656 -85.788798 
L 393.417447 -85.788798 
L 391.121237 -85.788798 
L 388.825027 -85.788798 
L 386.528818 -85.788798 
L 384.232608 -85.788798 
L 381.936399 -85.788798 
L 379.640189 -85.788798 
L 377.34398 -85.788798 
L 375.04777 -85.788798 
L 372.751561 -85.788798 
L 370.455351 -85.788798 
L 368.159142 -85.788798 
L 365.862932 -85.788798 
L 363.566723 -85.788798 
L 361.270513 -85.788798 
L 358.974303 -85.788798 
L 356.678094 -85.788798 
L 354.381884 -85.788798 
L 352.085675 -85.788798 
L 349.789465 -85.788798 
L 347.493256 -85.788798 
L 345.197046 -85.788798 
L 342.900837 -85.788798 
L 340.604627 -85.788798 
L 338.308418 -85.788798 
L 336.012208 -85.788798 
L 333.715999 -85.788798 
L 331.419789 -85.788798 
L 329.123579 -85.788798 
L 326.82737 -85.788798 
L 324.53116 -85.788798 
L 322.234951 -85.788798 
L 319.938741 -85.788798 
L 317.642532 -85.788798 
L 315.346322 -85.788798 
L 313.050113 -85.788798 
L 310.753903 -85.788798 
L 308.457694 -85.788798 
L 306.161484 -85.788798 
L 303.865275 -85.788798 
L 301.569065 -85.788798 
L 299.272855 -85.788798 
L 296.976646 -85.788798 
L 294.680436 -85.788798 
L 292.384227 -85.788798 
L 290.088017 -85.788798 
L 287.791808 -85.788798 
L 285.495598 -85.788798 
L 283.199389 -85.788798 
L 280.903179 -85.788798 
L 278.60697 -85.788798 
L 276.31076 -85.788798 
L 274.014551 -85.788798 
L 271.718341 -85.788798 
L 269.422131 -85.788798 
L 267.125922 -85.788798 
L 264.829712 -85.788798 
L 262.533503 -85.788798 
L 260.237293 -85.788798 
L 257.941084 -85.788798 
L 255.644874 -85.788798 
L 253.348665 -85.788798 
L 251.052455 -85.788798 
L 248.756246 -85.788798 
L 246.460036 -85.788798 
L 244.163827 -85.788798 
L 241.867617 -85.788798 
L 239.571407 -85.788798 
L 237.275198 -85.788798 
L 234.978988 -85.788798 
L 232.682779 -85.788798 
L 230.386569 -85.788798 
L 228.09036 -85.788798 
L 225.79415 -85.788798 
L 223.497941 -85.788798 
L 221.201731 -85.788798 
L 218.905522 -85.788798 
L 216.609312 -85.788798 
L 214.313103 -85.788798 
L 212.016893 -85.788798 
L 209.720683 -85.788798 
L 207.424474 -85.788798 
L 205.128264 -85.788798 
L 202.832055 -85.788798 
L 200.535845 -85.788798 
L 198.239636 -85.788798 
L 195.943426 -85.788798 
L 193.647217 -85.788798 
L 191.351007 -85.788798 
L 189.054798 -85.788798 
L 186.758588 -85.788798 
L 184.462379 -85.788798 
L 182.166169 -85.788798 
L 179.869959 -85.788798 
L 177.57375 -85.788798 
L 175.27754 -85.788798 
L 172.981331 -85.788798 
L 170.685121 -85.788798 
L 168.388912 -85.788798 
L 166.092702 -85.788798 
L 163.796493 -85.788798 
L 161.500283 -85.788798 
L 159.204074 -85.788798 
L 156.907864 -85.788798 
L 154.611655 -85.788798 
L 152.315445 -85.788798 
L 150.019235 -85.788798 
L 147.723026 -85.788798 
L 145.426816 -85.788798 
L 143.130607 -85.788798 
z
" style="stroke: #ffa500; stroke-opacity: 0.3"/>
    </defs>
    <g clip-path="url(#pcdd35ecd83)">
     <use xlink:href="#mddfe8b783a" x="0" y="432" style="fill: #ffa500; fill-opacity: 0.3; stroke: #ffa500; stroke-opacity: 0.3"/>
    </g>
   </g>
   <g id="matplotlib.axis_1">
    <g id="xtick_1">
     <g id="line2d_1">
      <defs>
       <path id="m70776aea52" d="M 0 0 
L 0 3.5 
" style="stroke: #000000; stroke-width: 0.8"/>
      </defs>
      <g>
       <use xlink:href="#m70776aea52" x="143.130607" y="354.76" style="stroke: #000000; stroke-width: 0.8"/>
      </g>
     </g>
     <g id="text_1">
      <!-- 0 -->
      <g transform="translate(136.130607 381.01) scale(0.28 -0.28)">
       <defs>
        <path id="SimHei-30" d="M 225 2537 
Q 250 3200 412 3587 
Q 575 3975 875 4225 
Q 1175 4475 1612 4475 
Q 2050 4475 2375 4112 
Q 2700 3750 2800 3200 
Q 2900 2650 2862 1937 
Q 2825 1225 2612 775 
Q 2400 325 1975 150 
Q 1550 -25 1125 187 
Q 700 400 525 750 
Q 350 1100 275 1487 
Q 200 1875 225 2537 
z
M 750 2687 
Q 675 2000 800 1462 
Q 925 925 1212 700 
Q 1500 475 1800 612 
Q 2100 750 2237 1162 
Q 2375 1575 2375 2062 
Q 2375 2550 2337 2950 
Q 2300 3350 2112 3675 
Q 1925 4000 1612 4012 
Q 1300 4025 1062 3700 
Q 825 3375 750 2687 
z
" transform="scale(0.015625)"/>
       </defs>
       <use xlink:href="#SimHei-30"/>
      </g>
     </g>
    </g>
    <g id="xtick_2">
     <g id="line2d_2">
      <g>
       <use xlink:href="#m70776aea52" x="257.941084" y="354.76" style="stroke: #000000; stroke-width: 0.8"/>
      </g>
     </g>
     <g id="text_2">
      <!-- 50 -->
      <g transform="translate(243.941084 381.01) scale(0.28 -0.28)">
       <defs>
        <path id="SimHei-35" d="M 550 1325 
Q 725 650 1150 575 
Q 1575 500 1837 662 
Q 2100 825 2212 1087 
Q 2325 1350 2312 1675 
Q 2300 2000 2137 2225 
Q 1975 2450 1725 2525 
Q 1475 2600 1162 2525 
Q 850 2450 650 2175 
L 225 2225 
Q 275 2375 700 4375 
L 2675 4375 
L 2675 3925 
L 1075 3925 
Q 950 3250 825 2850 
Q 1200 3025 1525 3012 
Q 1850 3000 2150 2862 
Q 2450 2725 2587 2487 
Q 2725 2250 2787 2012 
Q 2850 1775 2837 1500 
Q 2825 1225 2725 937 
Q 2625 650 2425 462 
Q 2225 275 1937 162 
Q 1650 50 1275 75 
Q 900 100 562 350 
Q 225 600 100 1200 
L 550 1325 
z
" transform="scale(0.015625)"/>
       </defs>
       <use xlink:href="#SimHei-35"/>
       <use xlink:href="#SimHei-30" x="50"/>
      </g>
     </g>
    </g>
    <g id="xtick_3">
     <g id="line2d_3">
      <g>
       <use xlink:href="#m70776aea52" x="372.751561" y="354.76" style="stroke: #000000; stroke-width: 0.8"/>
      </g>
     </g>
     <g id="text_3">
      <!-- 100 -->
      <g transform="translate(351.751561 381.01) scale(0.28 -0.28)">
       <defs>
        <path id="SimHei-31" d="M 1400 3600 
Q 1075 3275 575 2975 
L 575 3450 
Q 1200 3875 1600 4450 
L 1900 4450 
L 1900 150 
L 1400 150 
L 1400 3600 
z
" transform="scale(0.015625)"/>
       </defs>
       <use xlink:href="#SimHei-31"/>
       <use xlink:href="#SimHei-30" x="50"/>
       <use xlink:href="#SimHei-30" x="100"/>
      </g>
     </g>
    </g>
    <g id="xtick_4">
     <g id="line2d_4">
      <g>
       <use xlink:href="#m70776aea52" x="487.562038" y="354.76" style="stroke: #000000; stroke-width: 0.8"/>
      </g>
     </g>
     <g id="text_4">
      <!-- 150 -->
      <g transform="translate(466.562038 381.01) scale(0.28 -0.28)">
       <use xlink:href="#SimHei-31"/>
       <use xlink:href="#SimHei-35" x="50"/>
       <use xlink:href="#SimHei-30" x="100"/>
      </g>
     </g>
    </g>
    <g id="xtick_5">
     <g id="line2d_5">
      <g>
       <use xlink:href="#m70776aea52" x="602.372515" y="354.76" style="stroke: #000000; stroke-width: 0.8"/>
      </g>
     </g>
     <g id="text_5">
      <!-- 200 -->
      <g transform="translate(581.372515 381.01) scale(0.28 -0.28)">
       <defs>
        <path id="SimHei-32" d="M 300 250 
Q 325 625 650 925 
Q 975 1225 1475 1862 
Q 1975 2500 2125 2850 
Q 2275 3200 2237 3450 
Q 2200 3700 2000 3862 
Q 1800 4025 1537 4000 
Q 1275 3975 1037 3800 
Q 800 3625 675 3275 
L 200 3350 
Q 400 3925 712 4187 
Q 1025 4450 1450 4475 
Q 1700 4500 1900 4462 
Q 2100 4425 2312 4287 
Q 2525 4150 2662 3875 
Q 2800 3600 2762 3212 
Q 2725 2825 2375 2287 
Q 2025 1750 1025 600 
L 2825 600 
L 2825 150 
L 300 150 
L 300 250 
z
" transform="scale(0.015625)"/>
       </defs>
       <use xlink:href="#SimHei-32"/>
       <use xlink:href="#SimHei-30" x="50"/>
       <use xlink:href="#SimHei-30" x="100"/>
      </g>
     </g>
    </g>
    <g id="xtick_6">
     <g id="line2d_6">
      <g>
       <use xlink:href="#m70776aea52" x="717.182991" y="354.76" style="stroke: #000000; stroke-width: 0.8"/>
      </g>
     </g>
     <g id="text_6">
      <!-- 250 -->
      <g transform="translate(696.182991 381.01) scale(0.28 -0.28)">
       <use xlink:href="#SimHei-32"/>
       <use xlink:href="#SimHei-35" x="50"/>
       <use xlink:href="#SimHei-30" x="100"/>
      </g>
     </g>
    </g>
    <g id="xtick_7">
     <g id="line2d_7">
      <g>
       <use xlink:href="#m70776aea52" x="831.993468" y="354.76" style="stroke: #000000; stroke-width: 0.8"/>
      </g>
     </g>
     <g id="text_7">
      <!-- 300 -->
      <g transform="translate(810.993468 381.01) scale(0.28 -0.28)">
       <defs>
        <path id="SimHei-33" d="M 250 1225 
L 700 1300 
Q 800 975 1025 762 
Q 1250 550 1587 562 
Q 1925 575 2125 837 
Q 2325 1100 2300 1437 
Q 2275 1775 2037 1962 
Q 1800 2150 1275 2225 
L 1275 2550 
Q 1800 2600 2037 2825 
Q 2275 3050 2250 3412 
Q 2225 3775 1925 3937 
Q 1625 4100 1287 3975 
Q 950 3850 750 3275 
L 300 3350 
Q 450 3800 712 4100 
Q 975 4400 1425 4450 
Q 1875 4500 2212 4337 
Q 2550 4175 2687 3837 
Q 2825 3500 2725 3100 
Q 2625 2700 2150 2400 
Q 2500 2250 2687 1950 
Q 2875 1650 2812 1162 
Q 2750 675 2375 375 
Q 2000 75 1525 87 
Q 1050 100 700 387 
Q 350 675 250 1225 
z
" transform="scale(0.015625)"/>
       </defs>
       <use xlink:href="#SimHei-33"/>
       <use xlink:href="#SimHei-30" x="50"/>
       <use xlink:href="#SimHei-30" x="100"/>
      </g>
     </g>
    </g>
    <g id="text_8">
     <!-- Time Steps -->
     <g transform="translate(372.636676 416.3225) scale(0.4 -0.4)">
      <defs>
       <path id="SimHei-54" d="M 2850 3925 
L 1850 3925 
L 1850 125 
L 1275 125 
L 1275 3925 
L 275 3925 
L 275 4400 
L 2850 4400 
L 2850 3925 
z
" transform="scale(0.015625)"/>
       <path id="SimHei-69" d="M 1800 3725 
L 1300 3725 
L 1300 4375 
L 1800 4375 
L 1800 3725 
z
M 1800 125 
L 1300 125 
L 1300 2925 
L 1800 2925 
L 1800 125 
z
" transform="scale(0.015625)"/>
       <path id="SimHei-6d" d="M 3050 125 
L 2550 125 
L 2550 2150 
Q 2550 2300 2500 2400 
Q 2450 2500 2300 2500 
Q 2125 2500 1975 2312 
Q 1825 2125 1825 1825 
L 1825 125 
L 1325 125 
L 1325 2150 
Q 1325 2300 1275 2400 
Q 1225 2500 1075 2500 
Q 900 2500 750 2312 
Q 600 2125 600 1825 
L 600 125 
L 100 125 
L 100 2925 
L 600 2925 
L 600 2550 
Q 725 2750 900 2862 
Q 1075 2975 1275 2975 
Q 1475 2975 1612 2862 
Q 1750 2750 1800 2550 
Q 1925 2750 2087 2862 
Q 2250 2975 2450 2975 
Q 2750 2975 2900 2812 
Q 3050 2650 3050 2350 
L 3050 125 
z
" transform="scale(0.015625)"/>
       <path id="SimHei-65" d="M 2850 1075 
Q 2800 625 2450 350 
Q 2100 75 1625 75 
Q 1025 75 637 462 
Q 250 850 250 1525 
Q 250 2200 637 2587 
Q 1025 2975 1625 2975 
Q 2150 2975 2487 2637 
Q 2825 2300 2825 1525 
L 800 1525 
Q 800 975 1037 750 
Q 1275 525 1625 525 
Q 1900 525 2075 662 
Q 2250 800 2300 1075 
L 2850 1075 
z
M 2250 1925 
Q 2200 2275 2025 2412 
Q 1850 2550 1575 2550 
Q 1325 2550 1125 2412 
Q 925 2275 825 1925 
L 2250 1925 
z
" transform="scale(0.015625)"/>
       <path id="SimHei-20" transform="scale(0.015625)"/>
       <path id="SimHei-53" d="M 2900 1325 
Q 2900 750 2537 412 
Q 2175 75 1550 75 
Q 925 75 575 425 
Q 225 775 225 1300 
L 225 1475 
L 800 1475 
L 800 1325 
Q 800 950 1025 750 
Q 1250 550 1550 550 
Q 1950 550 2137 762 
Q 2325 975 2325 1275 
Q 2325 1525 2100 1737 
Q 1875 1950 1450 2125 
Q 850 2350 587 2625 
Q 325 2900 325 3275 
Q 325 3800 687 4125 
Q 1050 4450 1550 4450 
Q 2200 4450 2487 4062 
Q 2775 3675 2775 3225 
L 2200 3225 
Q 2225 3500 2050 3725 
Q 1875 3950 1550 3950 
Q 1250 3950 1075 3787 
Q 900 3625 900 3350 
Q 900 3125 1037 2962 
Q 1175 2800 1750 2575 
Q 2300 2350 2600 2037 
Q 2900 1725 2900 1325 
z
" transform="scale(0.015625)"/>
       <path id="SimHei-74" d="M 2750 200 
Q 2625 150 2462 112 
Q 2300 75 2025 75 
Q 1575 75 1300 325 
Q 1025 575 1025 1025 
L 1025 2525 
L 175 2525 
L 175 2925 
L 1025 2925 
L 1025 3900 
L 1525 3900 
L 1525 2925 
L 2550 2925 
L 2550 2525 
L 1525 2525 
L 1525 1000 
Q 1525 800 1625 662 
Q 1725 525 2000 525 
Q 2275 525 2450 575 
Q 2625 625 2750 700 
L 2750 200 
z
" transform="scale(0.015625)"/>
       <path id="SimHei-70" d="M 2825 1525 
Q 2825 800 2475 425 
Q 2125 50 1625 50 
Q 1350 50 1150 162 
Q 950 275 800 500 
L 800 -800 
L 300 -800 
L 300 2925 
L 800 2925 
L 800 2550 
Q 950 2775 1150 2875 
Q 1350 2975 1625 2975 
Q 2125 2975 2475 2612 
Q 2825 2250 2825 1525 
z
M 2275 1525 
Q 2275 2000 2087 2262 
Q 1900 2525 1525 2525 
Q 1225 2525 1012 2262 
Q 800 2000 800 1525 
Q 800 1050 1012 775 
Q 1225 500 1525 500 
Q 1900 500 2087 775 
Q 2275 1050 2275 1525 
z
" transform="scale(0.015625)"/>
       <path id="SimHei-73" d="M 2750 900 
Q 2750 500 2437 287 
Q 2125 75 1650 75 
Q 1050 75 725 312 
Q 400 550 400 1000 
L 900 1000 
Q 900 700 1112 600 
Q 1325 500 1625 500 
Q 1925 500 2075 612 
Q 2225 725 2225 900 
Q 2225 1025 2100 1150 
Q 1975 1275 1475 1350 
Q 900 1425 687 1637 
Q 475 1850 475 2200 
Q 475 2500 762 2737 
Q 1050 2975 1600 2975 
Q 2100 2975 2387 2750 
Q 2675 2525 2675 2150 
L 2175 2150 
Q 2175 2375 2012 2462 
Q 1850 2550 1600 2550 
Q 1275 2550 1137 2437 
Q 1000 2325 1000 2175 
Q 1000 2000 1125 1900 
Q 1250 1800 1650 1750 
Q 2300 1650 2525 1437 
Q 2750 1225 2750 900 
z
" transform="scale(0.015625)"/>
      </defs>
      <use xlink:href="#SimHei-54"/>
      <use xlink:href="#SimHei-69" x="50"/>
      <use xlink:href="#SimHei-6d" x="100"/>
      <use xlink:href="#SimHei-65" x="150"/>
      <use xlink:href="#SimHei-20" x="200"/>
      <use xlink:href="#SimHei-53" x="250"/>
      <use xlink:href="#SimHei-74" x="300"/>
      <use xlink:href="#SimHei-65" x="350"/>
      <use xlink:href="#SimHei-70" x="400"/>
      <use xlink:href="#SimHei-73" x="450"/>
     </g>
    </g>
   </g>
   <g id="matplotlib.axis_2">
    <g id="ytick_1">
     <g id="line2d_8">
      <defs>
       <path id="m6ace113658" d="M 0 0 
L -3.5 0 
" style="stroke: #000000; stroke-width: 0.8"/>
      </defs>
      <g>
       <use xlink:href="#m6ace113658" x="110.18" y="346.211202" style="stroke: #000000; stroke-width: 0.8"/>
      </g>
     </g>
     <g id="text_9">
      <!-- 0 -->
      <g transform="translate(89.18 355.836202) scale(0.28 -0.28)">
       <use xlink:href="#SimHei-30"/>
      </g>
     </g>
    </g>
    <g id="ytick_2">
     <g id="line2d_9">
      <g>
       <use xlink:href="#m6ace113658" x="110.18" y="303.467213" style="stroke: #000000; stroke-width: 0.8"/>
      </g>
     </g>
     <g id="text_10">
      <!-- 500 -->
      <g transform="translate(61.18 313.092213) scale(0.28 -0.28)">
       <use xlink:href="#SimHei-35"/>
       <use xlink:href="#SimHei-30" x="50"/>
       <use xlink:href="#SimHei-30" x="100"/>
      </g>
     </g>
    </g>
    <g id="ytick_3">
     <g id="line2d_10">
      <g>
       <use xlink:href="#m6ace113658" x="110.18" y="260.723225" style="stroke: #000000; stroke-width: 0.8"/>
      </g>
     </g>
     <g id="text_11">
      <!-- 1000 -->
      <g transform="translate(47.18 270.348225) scale(0.28 -0.28)">
       <use xlink:href="#SimHei-31"/>
       <use xlink:href="#SimHei-30" x="50"/>
       <use xlink:href="#SimHei-30" x="100"/>
       <use xlink:href="#SimHei-30" x="150"/>
      </g>
     </g>
    </g>
    <g id="ytick_4">
     <g id="line2d_11">
      <g>
       <use xlink:href="#m6ace113658" x="110.18" y="217.979236" style="stroke: #000000; stroke-width: 0.8"/>
      </g>
     </g>
     <g id="text_12">
      <!-- 1500 -->
      <g transform="translate(47.18 227.604236) scale(0.28 -0.28)">
       <use xlink:href="#SimHei-31"/>
       <use xlink:href="#SimHei-35" x="50"/>
       <use xlink:href="#SimHei-30" x="100"/>
       <use xlink:href="#SimHei-30" x="150"/>
      </g>
     </g>
    </g>
    <g id="ytick_5">
     <g id="line2d_12">
      <g>
       <use xlink:href="#m6ace113658" x="110.18" y="175.235247" style="stroke: #000000; stroke-width: 0.8"/>
      </g>
     </g>
     <g id="text_13">
      <!-- 2000 -->
      <g transform="translate(47.18 184.860247) scale(0.28 -0.28)">
       <use xlink:href="#SimHei-32"/>
       <use xlink:href="#SimHei-30" x="50"/>
       <use xlink:href="#SimHei-30" x="100"/>
       <use xlink:href="#SimHei-30" x="150"/>
      </g>
     </g>
    </g>
    <g id="ytick_6">
     <g id="line2d_13">
      <g>
       <use xlink:href="#m6ace113658" x="110.18" y="132.491258" style="stroke: #000000; stroke-width: 0.8"/>
      </g>
     </g>
     <g id="text_14">
      <!-- 2500 -->
      <g transform="translate(47.18 142.116258) scale(0.28 -0.28)">
       <use xlink:href="#SimHei-32"/>
       <use xlink:href="#SimHei-35" x="50"/>
       <use xlink:href="#SimHei-30" x="100"/>
       <use xlink:href="#SimHei-30" x="150"/>
      </g>
     </g>
    </g>
    <g id="ytick_7">
     <g id="line2d_14">
      <g>
       <use xlink:href="#m6ace113658" x="110.18" y="89.747269" style="stroke: #000000; stroke-width: 0.8"/>
      </g>
     </g>
     <g id="text_15">
      <!-- 3000 -->
      <g transform="translate(47.18 99.372269) scale(0.28 -0.28)">
       <use xlink:href="#SimHei-33"/>
       <use xlink:href="#SimHei-30" x="50"/>
       <use xlink:href="#SimHei-30" x="100"/>
       <use xlink:href="#SimHei-30" x="150"/>
      </g>
     </g>
    </g>
    <g id="ytick_8">
     <g id="line2d_15">
      <g>
       <use xlink:href="#m6ace113658" x="110.18" y="47.003281" style="stroke: #000000; stroke-width: 0.8"/>
      </g>
     </g>
     <g id="text_16">
      <!-- 3500 -->
      <g transform="translate(47.18 56.628281) scale(0.28 -0.28)">
       <use xlink:href="#SimHei-33"/>
       <use xlink:href="#SimHei-35" x="50"/>
       <use xlink:href="#SimHei-30" x="100"/>
       <use xlink:href="#SimHei-30" x="150"/>
      </g>
     </g>
    </g>
    <g id="text_17">
     <!-- $m_{vct}$ -->
     <g transform="translate(35.98 224.38) rotate(-90) scale(0.4 -0.4)">
      <defs>
       <path id="DejaVuSans-Oblique-6d" d="M 5747 2113 
L 5338 0 
L 4763 0 
L 5166 2094 
Q 5191 2228 5203 2325 
Q 5216 2422 5216 2491 
Q 5216 2772 5059 2928 
Q 4903 3084 4622 3084 
Q 4203 3084 3875 2770 
Q 3547 2456 3450 1953 
L 3066 0 
L 2491 0 
L 2900 2094 
Q 2925 2209 2937 2307 
Q 2950 2406 2950 2484 
Q 2950 2769 2794 2926 
Q 2638 3084 2363 3084 
Q 1938 3084 1609 2770 
Q 1281 2456 1184 1953 
L 800 0 
L 225 0 
L 909 3500 
L 1484 3500 
L 1375 2956 
Q 1609 3263 1923 3423 
Q 2238 3584 2597 3584 
Q 2978 3584 3223 3384 
Q 3469 3184 3519 2828 
Q 3781 3197 4126 3390 
Q 4472 3584 4856 3584 
Q 5306 3584 5551 3325 
Q 5797 3066 5797 2591 
Q 5797 2488 5784 2364 
Q 5772 2241 5747 2113 
z
" transform="scale(0.015625)"/>
       <path id="DejaVuSans-Oblique-76" d="M 459 3500 
L 1069 3500 
L 1581 525 
L 3256 3500 
L 3866 3500 
L 1875 0 
L 1100 0 
L 459 3500 
z
" transform="scale(0.015625)"/>
       <path id="DejaVuSans-Oblique-63" d="M 3431 3366 
L 3316 2797 
Q 3109 2947 2876 3022 
Q 2644 3097 2394 3097 
Q 2119 3097 1870 3000 
Q 1622 2903 1453 2725 
Q 1184 2453 1037 2087 
Q 891 1722 891 1331 
Q 891 859 1127 628 
Q 1363 397 1844 397 
Q 2081 397 2348 469 
Q 2616 541 2906 684 
L 2797 116 
Q 2547 13 2283 -39 
Q 2019 -91 1741 -91 
Q 1044 -91 669 257 
Q 294 606 294 1253 
Q 294 1797 489 2255 
Q 684 2713 1069 3078 
Q 1331 3328 1684 3456 
Q 2038 3584 2456 3584 
Q 2700 3584 2940 3529 
Q 3181 3475 3431 3366 
z
" transform="scale(0.015625)"/>
       <path id="DejaVuSans-Oblique-74" d="M 2706 3500 
L 2619 3053 
L 1472 3053 
L 1100 1153 
Q 1081 1047 1072 975 
Q 1063 903 1063 863 
Q 1063 663 1183 572 
Q 1303 481 1569 481 
L 2150 481 
L 2053 0 
L 1503 0 
Q 991 0 739 200 
Q 488 400 488 806 
Q 488 878 497 964 
Q 506 1050 525 1153 
L 897 3053 
L 409 3053 
L 500 3500 
L 978 3500 
L 1172 4494 
L 1747 4494 
L 1556 3500 
L 2706 3500 
z
" transform="scale(0.015625)"/>
      </defs>
      <use xlink:href="#DejaVuSans-Oblique-6d"/>
      <use xlink:href="#DejaVuSans-Oblique-76" transform="translate(97.412109 -16.40625) scale(0.7)"/>
      <use xlink:href="#DejaVuSans-Oblique-63" transform="translate(138.837891 -16.40625) scale(0.7)"/>
      <use xlink:href="#DejaVuSans-Oblique-74" transform="translate(177.324219 -16.40625) scale(0.7)"/>
     </g>
    </g>
   </g>
   <g id="line2d_16">
    <path d="M 143.130607 346.211202 
L 542.671067 346.125714 
L 574.818 345.812258 
L 597.780095 345.72677 
L 611.557353 345.641282 
L 625.33461 345.555794 
L 636.815658 345.327826 
L 675.85122 344.273475 
L 698.813315 343.504083 
L 740.145087 342.563715 
L 790.661697 341.851315 
L 802.142744 341.566355 
L 802.142744 341.566355 
" clip-path="url(#pcdd35ecd83)" style="fill: none; stroke: #0000ff; stroke-width: 3; stroke-linecap: square"/>
   </g>
   <g id="line2d_17">
    <path d="M 143.130607 346.211202 
L 306.161484 346.15421 
L 326.82737 345.58429 
L 336.012208 344.928883 
L 345.197046 344.301971 
L 356.678094 343.675059 
L 361.270513 343.276115 
L 375.04777 341.822819 
L 384.232608 340.768468 
L 393.417447 339.799604 
L 416.379542 336.294597 
L 434.749218 332.78959 
L 446.230266 329.996982 
L 455.415104 327.574823 
L 462.303733 325.352136 
L 487.562038 316.774842 
L 494.450666 313.982235 
L 503.635504 310.10678 
L 508.227923 308.283036 
L 515.116552 305.718397 
L 522.005181 303.125262 
L 528.893809 300.817086 
L 535.782438 298.508911 
L 540.374857 297.112607 
L 547.263486 294.832928 
L 561.040743 290.814993 
L 563.336952 290.045601 
L 572.521791 287.42397 
L 577.11421 285.942178 
L 581.706629 284.460386 
L 597.780095 279.758548 
L 606.964934 276.908948 
L 620.742191 272.748533 
L 652.889124 264.285224 
L 664.370172 260.979689 
L 696.517106 252.259915 
L 719.479201 246.931164 
L 730.960249 244.423517 
L 779.180649 233.59504 
L 788.365487 231.229872 
L 795.254116 229.463121 
L 802.142744 227.753361 
L 802.142744 227.753361 
" clip-path="url(#pcdd35ecd83)" style="fill: none; stroke: #008000; stroke-width: 3; stroke-linecap: square"/>
   </g>
   <g id="line2d_18">
    <path d="M 143.130607 346.211202 
L 294.680436 346.125714 
L 301.569065 345.897746 
L 308.457694 345.29933 
L 317.642532 344.472947 
L 324.53116 343.789043 
L 333.715999 342.706195 
L 338.308418 342.022291 
L 347.493256 340.512004 
L 352.085675 339.856596 
L 386.528818 333.35951 
L 391.121237 332.419142 
L 398.009866 330.965846 
L 409.490913 327.859783 
L 423.268171 323.699368 
L 430.156799 321.334201 
L 446.230266 315.464026 
L 457.711314 311.275115 
L 464.599942 308.25454 
L 478.377199 302.013918 
L 485.265828 298.651391 
L 508.227923 286.882546 
L 526.5976 277.193908 
L 533.486228 273.574917 
L 542.671067 268.559623 
L 551.855905 263.31636 
L 561.040743 257.731145 
L 574.818 249.068364 
L 579.410419 246.133276 
L 586.299048 241.91587 
L 590.891467 239.009278 
L 597.780095 234.478416 
L 604.668724 229.862065 
L 618.445981 220.885827 
L 634.519448 209.601414 
L 639.111867 206.409863 
L 655.185334 194.726506 
L 659.777753 191.249995 
L 673.55501 180.19355 
L 680.443639 174.237887 
L 689.628477 165.803073 
L 696.517106 159.248995 
L 705.701944 150.586213 
L 712.590572 144.174615 
L 717.182991 139.843224 
L 721.775411 135.625817 
L 728.664039 128.929259 
L 744.737506 113.028495 
L 751.626135 105.648033 
L 763.107182 93.138293 
L 767.699601 87.980518 
L 774.58823 80.229608 
L 783.773068 69.572107 
L 792.957906 58.658142 
L 799.846535 50.508288 
L 802.142744 47.71568 
L 802.142744 47.71568 
" clip-path="url(#pcdd35ecd83)" style="fill: none; stroke: #ff0000; stroke-width: 3; stroke-linecap: square"/>
   </g>
   <g id="line2d_19">
    <path d="M 143.130607 346.211202 
L 404.898494 346.125714 
L 414.083332 345.926242 
L 425.56438 345.72677 
L 450.822685 345.498802 
L 471.488571 345.413314 
L 508.227923 344.871891 
L 524.30139 344.558435 
L 554.152114 344.102499 
L 563.336952 343.789043 
L 602.372515 342.250259 
L 613.853562 341.765827 
L 620.742191 341.452371 
L 634.519448 340.512004 
L 659.777753 338.4033 
L 666.666382 337.918868 
L 682.739848 336.608053 
L 691.924687 335.952645 
L 703.405734 335.012277 
L 730.960249 332.533126 
L 740.145087 331.564262 
L 749.329925 330.680886 
L 767.699601 328.800151 
L 772.29202 328.201735 
L 795.254116 324.411768 
L 802.142744 323.072456 
L 802.142744 323.072456 
" clip-path="url(#pcdd35ecd83)" style="fill: none; stroke: #ffa500; stroke-width: 3; stroke-linecap: square"/>
   </g>
   <g id="patch_3">
    <path d="M 110.18 354.76 
L 110.18 10.8 
" style="fill: none; stroke: #000000; stroke-width: 0.8; stroke-linejoin: miter; stroke-linecap: square"/>
   </g>
   <g id="patch_4">
    <path d="M 835.093351 354.76 
L 835.093351 10.8 
" style="fill: none; stroke: #000000; stroke-width: 0.8; stroke-linejoin: miter; stroke-linecap: square"/>
   </g>
   <g id="patch_5">
    <path d="M 110.18 354.76 
L 835.093351 354.76 
" style="fill: none; stroke: #000000; stroke-width: 0.8; stroke-linejoin: miter; stroke-linecap: square"/>
   </g>
   <g id="patch_6">
    <path d="M 110.18 10.8 
L 835.093351 10.8 
" style="fill: none; stroke: #000000; stroke-width: 0.8; stroke-linejoin: miter; stroke-linecap: square"/>
   </g>
  </g>
 </g>
 <defs>
  <clipPath id="pcdd35ecd83">
   <rect x="110.18" y="10.8" width="724.913351" height="343.96"/>
  </clipPath>
 </defs>
</svg>
