<?xml version="1.0" encoding="utf-8" standalone="no"?>
<!DOCTYPE svg PUBLIC "-//W3C//DTD SVG 1.1//EN"
  "http://www.w3.org/Graphics/SVG/1.1/DTD/svg11.dtd">
<svg xmlns:xlink="http://www.w3.org/1999/xlink" width="576pt" height="432pt" viewBox="0 0 576 432" xmlns="http://www.w3.org/2000/svg" version="1.1">
 <metadata>
  <rdf:RDF xmlns:dc="http://purl.org/dc/elements/1.1/" xmlns:cc="http://creativecommons.org/ns#" xmlns:rdf="http://www.w3.org/1999/02/22-rdf-syntax-ns#">
   <cc:Work>
    <dc:type rdf:resource="http://purl.org/dc/dcmitype/StillImage"/>
    <dc:date>2025-06-19T21:44:04.544436</dc:date>
    <dc:format>image/svg+xml</dc:format>
    <dc:creator>
     <cc:Agent>
      <dc:title>Matplotlib v3.7.1, https://matplotlib.org/</dc:title>
     </cc:Agent>
    </dc:creator>
   </cc:Work>
  </rdf:RDF>
 </metadata>
 <defs>
  <style type="text/css">*{stroke-linejoin: round; stroke-linecap: butt}</style>
 </defs>
 <g id="figure_1">
  <g id="patch_1">
   <path d="M 0 432 
L 576 432 
L 576 0 
L 0 0 
z
" style="fill: #ffffff"/>
  </g>
  <g id="axes_1">
   <g id="patch_2">
    <path d="M 473.735965 234.935965 
C 473.735965 210.545342 468.931544 186.391886 459.597657 163.857888 
C 450.263769 141.323891 436.581936 120.84758 419.33516 103.600805 
C 402.088385 86.354029 381.612074 72.672196 359.078077 63.338308 
C 336.544079 54.004421 312.390623 49.2 288 49.2 
C 263.609377 49.2 239.455921 54.004421 216.921923 63.338308 
C 194.387926 72.672196 173.911615 86.354029 156.66484 103.600805 
C 139.418064 120.84758 125.736231 141.323891 116.402343 163.857888 
C 107.068456 186.391886 102.264035 210.545342 102.264035 234.935965 
C 102.264035 259.326588 107.068456 283.480044 116.402343 306.014042 
C 125.736231 328.548039 139.418064 349.02435 156.66484 366.271125 
C 173.911615 383.517901 194.387926 397.199734 216.921923 406.533622 
C 239.455921 415.867509 263.609377 420.67193 288 420.67193 
C 312.390623 420.67193 336.544079 415.867509 359.078077 406.533622 
C 381.612074 397.199734 402.088385 383.517901 419.33516 366.271125 
C 436.581936 349.02435 450.263769 328.548039 459.597657 306.014042 
C 468.931544 283.480044 473.735965 259.326588 473.735965 234.935965 
M 288 234.935965 
C 288 234.935965 288 234.935965 288 234.935965 
C 288 234.935965 288 234.935965 288 234.935965 
C 288 234.935965 288 234.935965 288 234.935965 
C 288 234.935965 288 234.935965 288 234.935965 
C 288 234.935965 288 234.935965 288 234.935965 
C 288 234.935965 288 234.935965 288 234.935965 
C 288 234.935965 288 234.935965 288 234.935965 
C 288 234.935965 288 234.935965 288 234.935965 
C 288 234.935965 288 234.935965 288 234.935965 
C 288 234.935965 288 234.935965 288 234.935965 
C 288 234.935965 288 234.935965 288 234.935965 
C 288 234.935965 288 234.935965 288 234.935965 
C 288 234.935965 288 234.935965 288 234.935965 
C 288 234.935965 288 234.935965 288 234.935965 
C 288 234.935965 288 234.935965 288 234.935965 
C 288 234.935965 288 234.935965 288 234.935965 
z
" style="fill: #ffffff"/>
   </g>
   <g id="matplotlib.axis_1">
    <g id="xtick_1">
     <g id="line2d_1">
      <path d="M 288 234.935965 
L 288 49.2 
" clip-path="url(#p8adcaed3fd)" style="fill: none; stroke-dasharray: 2.96,1.28; stroke-dashoffset: 0; stroke: #b0b0b0; stroke-width: 0.8"/>
     </g>
     <g id="text_1">
      <!-- $m_{cov}$ -->
      <g transform="translate(260.125 30.584766) scale(0.25 -0.25)">
       <defs>
        <path id="DejaVuSans-Oblique-6d" d="M 5747 2113 
L 5338 0 
L 4763 0 
L 5166 2094 
Q 5191 2228 5203 2325 
Q 5216 2422 5216 2491 
Q 5216 2772 5059 2928 
Q 4903 3084 4622 3084 
Q 4203 3084 3875 2770 
Q 3547 2456 3450 1953 
L 3066 0 
L 2491 0 
L 2900 2094 
Q 2925 2209 2937 2307 
Q 2950 2406 2950 2484 
Q 2950 2769 2794 2926 
Q 2638 3084 2363 3084 
Q 1938 3084 1609 2770 
Q 1281 2456 1184 1953 
L 800 0 
L 225 0 
L 909 3500 
L 1484 3500 
L 1375 2956 
Q 1609 3263 1923 3423 
Q 2238 3584 2597 3584 
Q 2978 3584 3223 3384 
Q 3469 3184 3519 2828 
Q 3781 3197 4126 3390 
Q 4472 3584 4856 3584 
Q 5306 3584 5551 3325 
Q 5797 3066 5797 2591 
Q 5797 2488 5784 2364 
Q 5772 2241 5747 2113 
z
" transform="scale(0.015625)"/>
        <path id="DejaVuSans-Oblique-63" d="M 3431 3366 
L 3316 2797 
Q 3109 2947 2876 3022 
Q 2644 3097 2394 3097 
Q 2119 3097 1870 3000 
Q 1622 2903 1453 2725 
Q 1184 2453 1037 2087 
Q 891 1722 891 1331 
Q 891 859 1127 628 
Q 1363 397 1844 397 
Q 2081 397 2348 469 
Q 2616 541 2906 684 
L 2797 116 
Q 2547 13 2283 -39 
Q 2019 -91 1741 -91 
Q 1044 -91 669 257 
Q 294 606 294 1253 
Q 294 1797 489 2255 
Q 684 2713 1069 3078 
Q 1331 3328 1684 3456 
Q 2038 3584 2456 3584 
Q 2700 3584 2940 3529 
Q 3181 3475 3431 3366 
z
" transform="scale(0.015625)"/>
        <path id="DejaVuSans-Oblique-6f" d="M 1625 -91 
Q 1009 -91 651 289 
Q 294 669 294 1325 
Q 294 1706 417 2101 
Q 541 2497 738 2766 
Q 1047 3184 1428 3384 
Q 1809 3584 2291 3584 
Q 2888 3584 3255 3212 
Q 3622 2841 3622 2241 
Q 3622 1825 3500 1412 
Q 3378 1000 3181 728 
Q 2875 309 2494 109 
Q 2113 -91 1625 -91 
z
M 891 1344 
Q 891 869 1089 633 
Q 1288 397 1691 397 
Q 2269 397 2648 901 
Q 3028 1406 3028 2181 
Q 3028 2634 2825 2865 
Q 2622 3097 2228 3097 
Q 1903 3097 1650 2945 
Q 1397 2794 1197 2484 
Q 1050 2253 970 1956 
Q 891 1659 891 1344 
z
" transform="scale(0.015625)"/>
        <path id="DejaVuSans-Oblique-76" d="M 459 3500 
L 1069 3500 
L 1581 525 
L 3256 3500 
L 3866 3500 
L 1875 0 
L 1100 0 
L 459 3500 
z
" transform="scale(0.015625)"/>
       </defs>
       <use xlink:href="#DejaVuSans-Oblique-6d"/>
       <use xlink:href="#DejaVuSans-Oblique-63" transform="translate(97.412109 -16.40625) scale(0.7)"/>
       <use xlink:href="#DejaVuSans-Oblique-6f" transform="translate(135.898438 -16.40625) scale(0.7)"/>
       <use xlink:href="#DejaVuSans-Oblique-76" transform="translate(178.725586 -16.40625) scale(0.7)"/>
      </g>
     </g>
    </g>
    <g id="xtick_2">
     <g id="line2d_2">
      <path d="M 288 234.935965 
L 464.6454 177.540395 
" clip-path="url(#p8adcaed3fd)" style="fill: none; stroke-dasharray: 2.96,1.28; stroke-dashoffset: 0; stroke: #b0b0b0; stroke-width: 0.8"/>
     </g>
     <g id="text_2">
      <!-- $m_{vct}$ -->
      <g transform="translate(462.897341 176.545228) scale(0.25 -0.25)">
       <defs>
        <path id="DejaVuSans-Oblique-74" d="M 2706 3500 
L 2619 3053 
L 1472 3053 
L 1100 1153 
Q 1081 1047 1072 975 
Q 1063 903 1063 863 
Q 1063 663 1183 572 
Q 1303 481 1569 481 
L 2150 481 
L 2053 0 
L 1503 0 
Q 991 0 739 200 
Q 488 400 488 806 
Q 488 878 497 964 
Q 506 1050 525 1153 
L 897 3053 
L 409 3053 
L 500 3500 
L 978 3500 
L 1172 4494 
L 1747 4494 
L 1556 3500 
L 2706 3500 
z
" transform="scale(0.015625)"/>
       </defs>
       <use xlink:href="#DejaVuSans-Oblique-6d"/>
       <use xlink:href="#DejaVuSans-Oblique-76" transform="translate(97.412109 -16.40625) scale(0.7)"/>
       <use xlink:href="#DejaVuSans-Oblique-63" transform="translate(138.837891 -16.40625) scale(0.7)"/>
       <use xlink:href="#DejaVuSans-Oblique-74" transform="translate(177.324219 -16.40625) scale(0.7)"/>
      </g>
     </g>
    </g>
    <g id="xtick_3">
     <g id="line2d_3">
      <path d="M 288 234.935965 
L 397.172861 385.199517 
" clip-path="url(#p8adcaed3fd)" style="fill: none; stroke-dasharray: 2.96,1.28; stroke-dashoffset: 0; stroke: #b0b0b0; stroke-width: 0.8"/>
     </g>
     <g id="text_3">
      <!-- $m_{to}$ -->
      <g transform="translate(390.786385 412.714216) scale(0.25 -0.25)">
       <use xlink:href="#DejaVuSans-Oblique-6d"/>
       <use xlink:href="#DejaVuSans-Oblique-74" transform="translate(97.412109 -16.40625) scale(0.7)"/>
       <use xlink:href="#DejaVuSans-Oblique-6f" transform="translate(124.858398 -16.40625) scale(0.7)"/>
      </g>
     </g>
    </g>
    <g id="xtick_4">
     <g id="line2d_4">
      <path d="M 288 234.935965 
L 178.827139 385.199517 
" clip-path="url(#p8adcaed3fd)" style="fill: none; stroke-dasharray: 2.96,1.28; stroke-dashoffset: 0; stroke: #b0b0b0; stroke-width: 0.8"/>
     </g>
     <g id="text_4">
      <!-- $m_{do}$ -->
      <g transform="translate(140.338615 412.714216) scale(0.25 -0.25)">
       <defs>
        <path id="DejaVuSans-Oblique-64" d="M 2675 525 
Q 2444 222 2128 65 
Q 1813 -91 1428 -91 
Q 903 -91 598 267 
Q 294 625 294 1247 
Q 294 1766 478 2236 
Q 663 2706 1013 3078 
Q 1244 3325 1534 3454 
Q 1825 3584 2144 3584 
Q 2481 3584 2739 3421 
Q 2997 3259 3138 2956 
L 3513 4863 
L 4091 4863 
L 3144 0 
L 2566 0 
L 2675 525 
z
M 891 1350 
Q 891 897 1095 644 
Q 1300 391 1663 391 
Q 1931 391 2161 520 
Q 2391 650 2566 903 
Q 2750 1166 2856 1509 
Q 2963 1853 2963 2188 
Q 2963 2622 2758 2865 
Q 2553 3109 2194 3109 
Q 1922 3109 1687 2981 
Q 1453 2853 1288 2613 
Q 1106 2353 998 2009 
Q 891 1666 891 1350 
z
" transform="scale(0.015625)"/>
       </defs>
       <use xlink:href="#DejaVuSans-Oblique-6d"/>
       <use xlink:href="#DejaVuSans-Oblique-64" transform="translate(97.412109 -16.40625) scale(0.7)"/>
       <use xlink:href="#DejaVuSans-Oblique-6f" transform="translate(141.845703 -16.40625) scale(0.7)"/>
      </g>
     </g>
    </g>
    <g id="xtick_5">
     <g id="line2d_5">
      <path d="M 288 234.935965 
L 111.3546 177.540395 
" clip-path="url(#p8adcaed3fd)" style="fill: none; stroke-dasharray: 2.96,1.28; stroke-dashoffset: 0; stroke: #b0b0b0; stroke-width: 0.8"/>
     </g>
     <g id="text_5">
      <!-- $m_{awd}$ -->
      <g transform="translate(56.477659 176.545228) scale(0.25 -0.25)">
       <defs>
        <path id="DejaVuSans-Oblique-61" d="M 3438 1997 
L 3047 0 
L 2472 0 
L 2578 531 
Q 2325 219 2001 64 
Q 1678 -91 1281 -91 
Q 834 -91 548 182 
Q 263 456 263 884 
Q 263 1497 752 1853 
Q 1241 2209 2100 2209 
L 2900 2209 
L 2931 2363 
Q 2938 2388 2941 2417 
Q 2944 2447 2944 2509 
Q 2944 2788 2717 2942 
Q 2491 3097 2081 3097 
Q 1800 3097 1504 3025 
Q 1209 2953 897 2809 
L 997 3341 
Q 1322 3463 1633 3523 
Q 1944 3584 2234 3584 
Q 2853 3584 3176 3315 
Q 3500 3047 3500 2534 
Q 3500 2431 3484 2292 
Q 3469 2153 3438 1997 
z
M 2816 1759 
L 2241 1759 
Q 1534 1759 1195 1570 
Q 856 1381 856 984 
Q 856 709 1029 553 
Q 1203 397 1509 397 
Q 1978 397 2328 733 
Q 2678 1069 2791 1631 
L 2816 1759 
z
" transform="scale(0.015625)"/>
        <path id="DejaVuSans-Oblique-77" d="M 544 3500 
L 1113 3500 
L 1259 684 
L 2566 3500 
L 3231 3500 
L 3425 684 
L 4666 3500 
L 5241 3500 
L 3641 0 
L 2969 0 
L 2797 2900 
L 1459 0 
L 781 0 
L 544 3500 
z
" transform="scale(0.015625)"/>
       </defs>
       <use xlink:href="#DejaVuSans-Oblique-6d"/>
       <use xlink:href="#DejaVuSans-Oblique-61" transform="translate(97.412109 -16.40625) scale(0.7)"/>
       <use xlink:href="#DejaVuSans-Oblique-77" transform="translate(140.307617 -16.40625) scale(0.7)"/>
       <use xlink:href="#DejaVuSans-Oblique-64" transform="translate(197.558594 -16.40625) scale(0.7)"/>
      </g>
     </g>
    </g>
   </g>
   <g id="matplotlib.axis_2">
    <g id="ytick_1">
     <g id="line2d_6">
      <path d="M 288 234.935965 
C 288 234.935965 288 234.935965 288 234.935965 
C 288 234.935965 288 234.935965 288 234.935965 
C 288 234.935965 288 234.935965 288 234.935965 
C 288 234.935965 288 234.935965 288 234.935965 
C 288 234.935965 288 234.935965 288 234.935965 
C 288 234.935965 288 234.935965 288 234.935965 
C 288 234.935965 288 234.935965 288 234.935965 
C 288 234.935965 288 234.935965 288 234.935965 
C 288 234.935965 288 234.935965 288 234.935965 
C 288 234.935965 288 234.935965 288 234.935965 
C 288 234.935965 288 234.935965 288 234.935965 
C 288 234.935965 288 234.935965 288 234.935965 
C 288 234.935965 288 234.935965 288 234.935965 
C 288 234.935965 288 234.935965 288 234.935965 
C 288 234.935965 288 234.935965 288 234.935965 
C 288 234.935965 288 234.935965 288 234.935965 
" clip-path="url(#p8adcaed3fd)" style="fill: none; stroke-dasharray: 2.96,1.28; stroke-dashoffset: 0; stroke: #b0b0b0; stroke-width: 0.8"/>
     </g>
     <g id="text_6">
      <!-- 0 -->
      <g style="fill: #808080" transform="translate(288 232.450028) scale(0.1 -0.1)">
       <defs>
        <path id="MicrosoftYaHei-30" d="M 284 2325 
Q 284 3606 709 4264 
Q 1134 4922 1941 4922 
Q 3478 4922 3478 2441 
Q 3478 1216 3045 567 
Q 2613 -81 1831 -81 
Q 1094 -81 689 534 
Q 284 1150 284 2325 
z
M 909 2353 
Q 909 425 1888 425 
Q 2850 425 2850 2384 
Q 2850 4413 1906 4413 
Q 909 4413 909 2353 
z
" transform="scale(0.015625)"/>
       </defs>
       <use xlink:href="#MicrosoftYaHei-30"/>
      </g>
     </g>
    </g>
    <g id="ytick_2">
     <g id="line2d_7">
      <path d="M 288 197.788772 
C 292.878125 197.788772 297.708816 198.749656 302.215615 200.616434 
C 306.722415 202.483211 310.817677 205.219578 314.267032 208.668933 
C 317.716387 212.118288 320.452754 216.21355 322.319531 220.72035 
C 324.186309 225.227149 325.147193 230.05784 325.147193 234.935965 
C 325.147193 239.81409 324.186309 244.644781 322.319531 249.15158 
C 320.452754 253.65838 317.716387 257.753642 314.267032 261.202997 
C 310.817677 264.652352 306.722415 267.388719 302.215615 269.255496 
C 297.708816 271.122274 292.878125 272.083158 288 272.083158 
C 283.121875 272.083158 278.291184 271.122274 273.784385 269.255496 
C 269.277585 267.388719 265.182323 264.652352 261.732968 261.202997 
C 258.283613 257.753642 255.547246 253.65838 253.680469 249.15158 
C 251.813691 244.644781 250.852807 239.81409 250.852807 234.935965 
C 250.852807 230.05784 251.813691 225.227149 253.680469 220.72035 
C 255.547246 216.21355 258.283613 212.118288 261.732968 208.668933 
C 265.182323 205.219578 269.277585 202.483211 273.784385 200.616434 
C 278.291184 198.749656 283.121875 197.788772 288 197.788772 
" clip-path="url(#p8adcaed3fd)" style="fill: none; stroke-dasharray: 2.96,1.28; stroke-dashoffset: 0; stroke: #b0b0b0; stroke-width: 0.8"/>
     </g>
     <g id="text_7">
      <!-- 0.2 -->
      <g style="fill: #808080" transform="translate(302.215615 198.130496) scale(0.1 -0.1)">
       <defs>
        <path id="MicrosoftYaHei-2e" d="M 372 322 
Q 372 491 487 606 
Q 603 722 775 722 
Q 950 722 1065 605 
Q 1181 488 1181 322 
Q 1181 159 1065 42 
Q 950 -75 772 -75 
Q 600 -75 486 42 
Q 372 159 372 322 
z
" transform="scale(0.015625)"/>
        <path id="MicrosoftYaHei-32" d="M 2666 3572 
Q 2666 3963 2419 4186 
Q 2172 4409 1747 4409 
Q 1447 4409 1140 4256 
Q 834 4103 569 3819 
L 569 4413 
Q 806 4659 1107 4790 
Q 1409 4922 1816 4922 
Q 2472 4922 2872 4570 
Q 3272 4219 3272 3619 
Q 3272 3084 3026 2693 
Q 2781 2303 2188 1894 
Q 1581 1475 1376 1294 
Q 1172 1113 1090 947 
Q 1009 781 1009 544 
L 3416 544 
L 3416 0 
L 372 0 
L 372 241 
Q 372 659 486 951 
Q 600 1244 862 1520 
Q 1125 1797 1681 2184 
Q 2250 2584 2458 2886 
Q 2666 3188 2666 3572 
z
" transform="scale(0.015625)"/>
       </defs>
       <use xlink:href="#MicrosoftYaHei-30"/>
       <use xlink:href="#MicrosoftYaHei-2e" x="58.642578"/>
       <use xlink:href="#MicrosoftYaHei-32" x="82.714844"/>
      </g>
     </g>
    </g>
    <g id="ytick_3">
     <g id="line2d_8">
      <path d="M 288 160.641579 
C 297.756249 160.641579 307.417632 162.563347 316.431231 166.296902 
C 325.44483 170.030457 333.635354 175.503191 340.534064 182.401901 
C 347.432774 189.300611 352.905508 197.491135 356.639063 206.504734 
C 360.372618 215.518333 362.294386 225.179716 362.294386 234.935965 
C 362.294386 244.692214 360.372618 254.353597 356.639063 263.367196 
C 352.905508 272.380795 347.432774 280.571319 340.534064 287.470029 
C 333.635354 294.368739 325.44483 299.841473 316.431231 303.575028 
C 307.417632 307.308583 297.756249 309.230351 288 309.230351 
C 278.243751 309.230351 268.582368 307.308583 259.568769 303.575028 
C 250.55517 299.841473 242.364646 294.368739 235.465936 287.470029 
C 228.567226 280.571319 223.094492 272.380795 219.360937 263.367196 
C 215.627382 254.353597 213.705614 244.692214 213.705614 234.935965 
C 213.705614 225.179716 215.627382 215.518333 219.360937 206.504734 
C 223.094492 197.491135 228.567226 189.300611 235.465936 182.401901 
C 242.364646 175.503191 250.55517 170.030457 259.568769 166.296902 
C 268.582368 162.563347 278.243751 160.641579 288 160.641579 
" clip-path="url(#p8adcaed3fd)" style="fill: none; stroke-dasharray: 2.96,1.28; stroke-dashoffset: 0; stroke: #b0b0b0; stroke-width: 0.8"/>
     </g>
     <g id="text_8">
      <!-- 0.4 -->
      <g style="fill: #808080" transform="translate(316.431231 163.810965) scale(0.1 -0.1)">
       <defs>
        <path id="MicrosoftYaHei-34" d="M 2906 4841 
L 2906 1644 
L 3631 1644 
L 3631 1138 
L 2906 1138 
L 2906 0 
L 2313 0 
L 2313 1138 
L 53 1138 
L 53 1616 
Q 656 2294 1265 3178 
Q 1875 4063 2272 4841 
L 2906 4841 
z
M 741 1644 
L 2313 1644 
L 2313 3950 
Q 1988 3366 1616 2817 
Q 1244 2269 741 1644 
z
" transform="scale(0.015625)"/>
       </defs>
       <use xlink:href="#MicrosoftYaHei-30"/>
       <use xlink:href="#MicrosoftYaHei-2e" x="58.642578"/>
       <use xlink:href="#MicrosoftYaHei-34" x="82.714844"/>
      </g>
     </g>
    </g>
    <g id="ytick_4">
     <g id="line2d_9">
      <path d="M 288 123.494386 
C 302.634374 123.494386 317.126447 126.377039 330.646846 131.977371 
C 344.167245 137.577704 356.453031 145.786804 366.801096 156.134869 
C 377.149161 166.482934 385.358261 178.76872 390.958594 192.289119 
C 396.558926 205.809518 399.441579 220.301591 399.441579 234.935965 
C 399.441579 249.570339 396.558926 264.062412 390.958594 277.582811 
C 385.358261 291.10321 377.149161 303.388996 366.801096 313.737061 
C 356.453031 324.085126 344.167245 332.294226 330.646846 337.894559 
C 317.126447 343.494891 302.634374 346.377544 288 346.377544 
C 273.365626 346.377544 258.873553 343.494891 245.353154 337.894559 
C 231.832755 332.294226 219.546969 324.085126 209.198904 313.737061 
C 198.850839 303.388996 190.641739 291.10321 185.041406 277.582811 
C 179.441074 264.062412 176.558421 249.570339 176.558421 234.935965 
C 176.558421 220.301591 179.441074 205.809518 185.041406 192.289119 
C 190.641739 178.76872 198.850839 166.482934 209.198904 156.134869 
C 219.546969 145.786804 231.832755 137.577704 245.353154 131.977371 
C 258.873553 126.377039 273.365626 123.494386 288 123.494386 
" clip-path="url(#p8adcaed3fd)" style="fill: none; stroke-dasharray: 2.96,1.28; stroke-dashoffset: 0; stroke: #b0b0b0; stroke-width: 0.8"/>
     </g>
     <g id="text_9">
      <!-- 0.6 -->
      <g style="fill: #808080" transform="translate(330.646846 129.491434) scale(0.1 -0.1)">
       <defs>
        <path id="MicrosoftYaHei-36" d="M 3181 4219 
Q 2803 4413 2391 4413 
Q 1763 4413 1381 3866 
Q 1000 3319 994 2372 
L 1009 2372 
Q 1353 3038 2106 3038 
Q 2734 3038 3109 2628 
Q 3484 2219 3484 1541 
Q 3484 831 3051 375 
Q 2619 -81 1947 -81 
Q 1209 -81 789 495 
Q 369 1072 369 2131 
Q 369 3413 920 4167 
Q 1472 4922 2372 4922 
Q 2888 4922 3181 4781 
L 3181 4219 
z
M 1031 1584 
Q 1031 1106 1286 765 
Q 1541 425 1963 425 
Q 2363 425 2613 719 
Q 2863 1013 2863 1475 
Q 2863 1975 2627 2253 
Q 2391 2531 1956 2531 
Q 1544 2531 1287 2250 
Q 1031 1969 1031 1584 
z
" transform="scale(0.015625)"/>
       </defs>
       <use xlink:href="#MicrosoftYaHei-30"/>
       <use xlink:href="#MicrosoftYaHei-2e" x="58.642578"/>
       <use xlink:href="#MicrosoftYaHei-36" x="82.714844"/>
      </g>
     </g>
    </g>
    <g id="ytick_5">
     <g id="line2d_10">
      <path d="M 288 86.347193 
C 307.512499 86.347193 326.835263 90.19073 344.862461 97.65784 
C 362.88966 105.12495 379.270708 116.070417 393.068128 129.867837 
C 406.865548 143.665257 417.811015 160.046305 425.278125 178.073504 
C 432.745235 196.100702 436.588772 215.423466 436.588772 234.935965 
C 436.588772 254.448464 432.745235 273.771228 425.278125 291.798426 
C 417.811015 309.825625 406.865548 326.206673 393.068128 340.004093 
C 379.270708 353.801513 362.88966 364.74698 344.862461 372.21409 
C 326.835263 379.6812 307.512499 383.524737 288 383.524737 
C 268.487501 383.524737 249.164737 379.6812 231.137539 372.21409 
C 213.11034 364.74698 196.729292 353.801513 182.931872 340.004093 
C 169.134452 326.206673 158.188985 309.825625 150.721875 291.798426 
C 143.254765 273.771228 139.411228 254.448464 139.411228 234.935965 
C 139.411228 215.423466 143.254765 196.100702 150.721875 178.073504 
C 158.188985 160.046305 169.134452 143.665257 182.931872 129.867837 
C 196.729292 116.070417 213.11034 105.12495 231.137539 97.65784 
C 249.164737 90.19073 268.487501 86.347193 288 86.347193 
" clip-path="url(#p8adcaed3fd)" style="fill: none; stroke-dasharray: 2.96,1.28; stroke-dashoffset: 0; stroke: #b0b0b0; stroke-width: 0.8"/>
     </g>
     <g id="text_10">
      <!-- 0.8 -->
      <g style="fill: #808080" transform="translate(344.862461 95.171902) scale(0.1 -0.1)">
       <defs>
        <path id="MicrosoftYaHei-38" d="M 306 1350 
Q 306 1769 556 2122 
Q 806 2475 1200 2625 
Q 884 2803 700 3081 
Q 516 3359 516 3684 
Q 516 4028 692 4312 
Q 869 4597 1183 4759 
Q 1497 4922 1875 4922 
Q 2256 4922 2572 4761 
Q 2888 4600 3063 4315 
Q 3238 4031 3238 3684 
Q 3238 3366 3058 3086 
Q 2878 2806 2559 2625 
Q 2953 2472 3200 2119 
Q 3447 1766 3447 1350 
Q 3447 938 3250 611 
Q 3053 284 2690 103 
Q 2328 -78 1875 -78 
Q 1425 -78 1065 103 
Q 706 284 506 612 
Q 306 941 306 1350 
z
M 906 1378 
Q 906 947 1172 687 
Q 1438 428 1878 428 
Q 2309 428 2582 692 
Q 2856 956 2856 1378 
Q 2856 1778 2579 2051 
Q 2303 2325 1878 2325 
Q 1456 2325 1181 2058 
Q 906 1791 906 1378 
z
M 1081 3634 
Q 1081 3309 1312 3076 
Q 1544 2844 1878 2844 
Q 2206 2844 2445 3078 
Q 2684 3313 2684 3634 
Q 2684 3963 2454 4191 
Q 2225 4419 1878 4419 
Q 1534 4419 1307 4195 
Q 1081 3972 1081 3634 
z
" transform="scale(0.015625)"/>
       </defs>
       <use xlink:href="#MicrosoftYaHei-30"/>
       <use xlink:href="#MicrosoftYaHei-2e" x="58.642578"/>
       <use xlink:href="#MicrosoftYaHei-38" x="82.714844"/>
      </g>
     </g>
    </g>
    <g id="ytick_6">
     <g id="line2d_11">
      <path d="M 288 49.2 
C 312.390623 49.2 336.544079 54.004421 359.078077 63.338308 
C 381.612074 72.672196 402.088385 86.354029 419.33516 103.600805 
C 436.581936 120.84758 450.263769 141.323891 459.597657 163.857888 
C 468.931544 186.391886 473.735965 210.545342 473.735965 234.935965 
C 473.735965 259.326588 468.931544 283.480044 459.597657 306.014042 
C 450.263769 328.548039 436.581936 349.02435 419.33516 366.271125 
C 402.088385 383.517901 381.612074 397.199734 359.078077 406.533622 
C 336.544079 415.867509 312.390623 420.67193 288 420.67193 
C 263.609377 420.67193 239.455921 415.867509 216.921923 406.533622 
C 194.387926 397.199734 173.911615 383.517901 156.66484 366.271125 
C 139.418064 349.02435 125.736231 328.548039 116.402343 306.014042 
C 107.068456 283.480044 102.264035 259.326588 102.264035 234.935965 
C 102.264035 210.545342 107.068456 186.391886 116.402343 163.857888 
C 125.736231 141.323891 139.418064 120.84758 156.66484 103.600805 
C 173.911615 86.354029 194.387926 72.672196 216.921923 63.338308 
C 239.455921 54.004421 263.609377 49.2 288 49.2 
" clip-path="url(#p8adcaed3fd)" style="fill: none; stroke-dasharray: 2.96,1.28; stroke-dashoffset: 0; stroke: #b0b0b0; stroke-width: 0.8"/>
     </g>
     <g id="text_11">
      <!-- 1 -->
      <g style="fill: #808080" transform="translate(359.078077 60.852371) scale(0.1 -0.1)">
       <defs>
        <path id="MicrosoftYaHei-31" d="M 1781 0 
L 1781 4141 
Q 1638 3997 1295 3819 
Q 953 3641 663 3569 
L 663 4169 
Q 1047 4275 1484 4508 
Q 1922 4741 2156 4947 
L 2388 4947 
L 2388 0 
L 1781 0 
z
" transform="scale(0.015625)"/>
       </defs>
       <use xlink:href="#MicrosoftYaHei-31"/>
      </g>
     </g>
    </g>
   </g>
   <g id="line2d_12">
    <path d="M 288 75.288431 
L 446.98086 183.279952 
L 386.255575 370.173162 
L 189.744425 370.173162 
L 129.01914 183.279952 
L 288 75.288431 
" clip-path="url(#p8adcaed3fd)" style="fill: none; stroke: #d00000; stroke-opacity: 0.8; stroke-width: 2.5; stroke-linecap: square"/>
    <defs>
     <path id="m0ccaf796e9" d="M 0 3 
C 0.795609 3 1.55874 2.683901 2.12132 2.12132 
C 2.683901 1.55874 3 0.795609 3 0 
C 3 -0.795609 2.683901 -1.55874 2.12132 -2.12132 
C 1.55874 -2.683901 0.795609 -3 0 -3 
C -0.795609 -3 -1.55874 -2.683901 -2.12132 -2.12132 
C -2.683901 -1.55874 -3 -0.795609 -3 0 
C -3 0.795609 -2.683901 1.55874 -2.12132 2.12132 
C -1.55874 2.683901 -0.795609 3 0 3 
z
" style="stroke: #d00000; stroke-opacity: 0.8"/>
    </defs>
    <g clip-path="url(#p8adcaed3fd)">
     <use xlink:href="#m0ccaf796e9" x="288" y="75.288431" style="fill: #d00000; fill-opacity: 0.8; stroke: #d00000; stroke-opacity: 0.8"/>
     <use xlink:href="#m0ccaf796e9" x="446.98086" y="183.279952" style="fill: #d00000; fill-opacity: 0.8; stroke: #d00000; stroke-opacity: 0.8"/>
     <use xlink:href="#m0ccaf796e9" x="386.255575" y="370.173162" style="fill: #d00000; fill-opacity: 0.8; stroke: #d00000; stroke-opacity: 0.8"/>
     <use xlink:href="#m0ccaf796e9" x="189.744425" y="370.173162" style="fill: #d00000; fill-opacity: 0.8; stroke: #d00000; stroke-opacity: 0.8"/>
     <use xlink:href="#m0ccaf796e9" x="129.01914" y="183.279952" style="fill: #d00000; fill-opacity: 0.8; stroke: #d00000; stroke-opacity: 0.8"/>
     <use xlink:href="#m0ccaf796e9" x="288" y="75.288431" style="fill: #d00000; fill-opacity: 0.8; stroke: #d00000; stroke-opacity: 0.8"/>
    </g>
   </g>
   <g id="line2d_13">
    <path d="M 288 149.753609 
L 443.499283 184.411185 
L 332.681573 296.434874 
L 212.708726 338.565514 
L 166.180418 195.354383 
L 288 149.753609 
" clip-path="url(#p8adcaed3fd)" style="fill: none; stroke: #457b9d; stroke-opacity: 0.7; stroke-width: 2; stroke-linecap: square"/>
    <defs>
     <path id="m5f412b17e5" d="M -3 3 
L 3 3 
L 3 -3 
L -3 -3 
z
" style="stroke: #457b9d; stroke-opacity: 0.7; stroke-linejoin: miter"/>
    </defs>
    <g clip-path="url(#p8adcaed3fd)">
     <use xlink:href="#m5f412b17e5" x="288" y="149.753609" style="fill: #457b9d; fill-opacity: 0.7; stroke: #457b9d; stroke-opacity: 0.7; stroke-linejoin: miter"/>
     <use xlink:href="#m5f412b17e5" x="443.499283" y="184.411185" style="fill: #457b9d; fill-opacity: 0.7; stroke: #457b9d; stroke-opacity: 0.7; stroke-linejoin: miter"/>
     <use xlink:href="#m5f412b17e5" x="332.681573" y="296.434874" style="fill: #457b9d; fill-opacity: 0.7; stroke: #457b9d; stroke-opacity: 0.7; stroke-linejoin: miter"/>
     <use xlink:href="#m5f412b17e5" x="212.708726" y="338.565514" style="fill: #457b9d; fill-opacity: 0.7; stroke: #457b9d; stroke-opacity: 0.7; stroke-linejoin: miter"/>
     <use xlink:href="#m5f412b17e5" x="166.180418" y="195.354383" style="fill: #457b9d; fill-opacity: 0.7; stroke: #457b9d; stroke-opacity: 0.7; stroke-linejoin: miter"/>
     <use xlink:href="#m5f412b17e5" x="288" y="149.753609" style="fill: #457b9d; fill-opacity: 0.7; stroke: #457b9d; stroke-opacity: 0.7; stroke-linejoin: miter"/>
    </g>
   </g>
   <g id="line2d_14">
    <path d="M 288 214.996035 
L 305.66454 229.196408 
L 311.027544 266.63066 
L 267.223265 263.532688 
L 259.816491 225.778588 
L 288 214.996035 
" clip-path="url(#p8adcaed3fd)" style="fill: none; stroke: #1d3557; stroke-opacity: 0.7; stroke-width: 2; stroke-linecap: square"/>
    <defs>
     <path id="m32f0453cdc" d="M 0 -3 
L -3 3 
L 3 3 
z
" style="stroke: #1d3557; stroke-opacity: 0.7; stroke-linejoin: miter"/>
    </defs>
    <g clip-path="url(#p8adcaed3fd)">
     <use xlink:href="#m32f0453cdc" x="288" y="214.996035" style="fill: #1d3557; fill-opacity: 0.7; stroke: #1d3557; stroke-opacity: 0.7; stroke-linejoin: miter"/>
     <use xlink:href="#m32f0453cdc" x="305.66454" y="229.196408" style="fill: #1d3557; fill-opacity: 0.7; stroke: #1d3557; stroke-opacity: 0.7; stroke-linejoin: miter"/>
     <use xlink:href="#m32f0453cdc" x="311.027544" y="266.63066" style="fill: #1d3557; fill-opacity: 0.7; stroke: #1d3557; stroke-opacity: 0.7; stroke-linejoin: miter"/>
     <use xlink:href="#m32f0453cdc" x="267.223265" y="263.532688" style="fill: #1d3557; fill-opacity: 0.7; stroke: #1d3557; stroke-opacity: 0.7; stroke-linejoin: miter"/>
     <use xlink:href="#m32f0453cdc" x="259.816491" y="225.778588" style="fill: #1d3557; fill-opacity: 0.7; stroke: #1d3557; stroke-opacity: 0.7; stroke-linejoin: miter"/>
     <use xlink:href="#m32f0453cdc" x="288" y="214.996035" style="fill: #1d3557; fill-opacity: 0.7; stroke: #1d3557; stroke-opacity: 0.7; stroke-linejoin: miter"/>
    </g>
   </g>
   <g id="line2d_15">
    <path d="M 288 188.694114 
L 357.263297 212.430955 
L 306.694516 260.666758 
L 262.005973 270.713674 
L 235.588372 217.906395 
L 288 188.694114 
" clip-path="url(#p8adcaed3fd)" style="fill: none; stroke: #a8dadc; stroke-opacity: 0.7; stroke-width: 2; stroke-linecap: square"/>
    <defs>
     <path id="mb3cc894c0a" d="M 0 4.242641 
L 4.242641 0 
L 0 -4.242641 
L -4.242641 0 
z
" style="stroke: #a8dadc; stroke-opacity: 0.7; stroke-linejoin: miter"/>
    </defs>
    <g clip-path="url(#p8adcaed3fd)">
     <use xlink:href="#mb3cc894c0a" x="288" y="188.694114" style="fill: #a8dadc; fill-opacity: 0.7; stroke: #a8dadc; stroke-opacity: 0.7; stroke-linejoin: miter"/>
     <use xlink:href="#mb3cc894c0a" x="357.263297" y="212.430955" style="fill: #a8dadc; fill-opacity: 0.7; stroke: #a8dadc; stroke-opacity: 0.7; stroke-linejoin: miter"/>
     <use xlink:href="#mb3cc894c0a" x="306.694516" y="260.666758" style="fill: #a8dadc; fill-opacity: 0.7; stroke: #a8dadc; stroke-opacity: 0.7; stroke-linejoin: miter"/>
     <use xlink:href="#mb3cc894c0a" x="262.005973" y="270.713674" style="fill: #a8dadc; fill-opacity: 0.7; stroke: #a8dadc; stroke-opacity: 0.7; stroke-linejoin: miter"/>
     <use xlink:href="#mb3cc894c0a" x="235.588372" y="217.906395" style="fill: #a8dadc; fill-opacity: 0.7; stroke: #a8dadc; stroke-opacity: 0.7; stroke-linejoin: miter"/>
     <use xlink:href="#mb3cc894c0a" x="288" y="188.694114" style="fill: #a8dadc; fill-opacity: 0.7; stroke: #a8dadc; stroke-opacity: 0.7; stroke-linejoin: miter"/>
    </g>
   </g>
   <g id="line2d_16">
    <path d="M 288 216.362369 
L 313.118686 226.774409 
L 311.24975 266.936501 
L 277.082714 249.96232 
L 270.33546 229.196408 
L 288 216.362369 
" clip-path="url(#p8adcaed3fd)" style="fill: none; stroke: #ffd166; stroke-opacity: 0.7; stroke-width: 2; stroke-linecap: square"/>
    <defs>
     <path id="m156a11741a" d="M 0 -3 
L -2.85317 -0.927051 
L -1.763356 2.427051 
L 1.763356 2.427051 
L 2.85317 -0.927051 
z
" style="stroke: #ffd166; stroke-opacity: 0.7; stroke-linejoin: miter"/>
    </defs>
    <g clip-path="url(#p8adcaed3fd)">
     <use xlink:href="#m156a11741a" x="288" y="216.362369" style="fill: #ffd166; fill-opacity: 0.7; stroke: #ffd166; stroke-opacity: 0.7; stroke-linejoin: miter"/>
     <use xlink:href="#m156a11741a" x="313.118686" y="226.774409" style="fill: #ffd166; fill-opacity: 0.7; stroke: #ffd166; stroke-opacity: 0.7; stroke-linejoin: miter"/>
     <use xlink:href="#m156a11741a" x="311.24975" y="266.936501" style="fill: #ffd166; fill-opacity: 0.7; stroke: #ffd166; stroke-opacity: 0.7; stroke-linejoin: miter"/>
     <use xlink:href="#m156a11741a" x="277.082714" y="249.96232" style="fill: #ffd166; fill-opacity: 0.7; stroke: #ffd166; stroke-opacity: 0.7; stroke-linejoin: miter"/>
     <use xlink:href="#m156a11741a" x="270.33546" y="229.196408" style="fill: #ffd166; fill-opacity: 0.7; stroke: #ffd166; stroke-opacity: 0.7; stroke-linejoin: miter"/>
     <use xlink:href="#m156a11741a" x="288" y="216.362369" style="fill: #ffd166; fill-opacity: 0.7; stroke: #ffd166; stroke-opacity: 0.7; stroke-linejoin: miter"/>
    </g>
   </g>
   <g id="line2d_17">
    <path d="M 288 67.773597 
L 406.853453 196.318137 
L 298.917286 249.96232 
L 221.664392 326.239096 
L 176.182061 198.604114 
L 288 67.773597 
" clip-path="url(#p8adcaed3fd)" style="fill: none; stroke: #06d6a0; stroke-opacity: 0.7; stroke-width: 2; stroke-linecap: square"/>
    <defs>
     <path id="md19d6a1817" d="M 0 -3 
L -0.673542 -0.927051 
L -2.85317 -0.927051 
L -1.089814 0.354102 
L -1.763356 2.427051 
L -0 1.145898 
L 1.763356 2.427051 
L 1.089814 0.354102 
L 2.85317 -0.927051 
L 0.673542 -0.927051 
z
" style="stroke: #06d6a0; stroke-opacity: 0.7; stroke-linejoin: bevel"/>
    </defs>
    <g clip-path="url(#p8adcaed3fd)">
     <use xlink:href="#md19d6a1817" x="288" y="67.773597" style="fill: #06d6a0; fill-opacity: 0.7; stroke: #06d6a0; stroke-opacity: 0.7; stroke-linejoin: bevel"/>
     <use xlink:href="#md19d6a1817" x="406.853453" y="196.318137" style="fill: #06d6a0; fill-opacity: 0.7; stroke: #06d6a0; stroke-opacity: 0.7; stroke-linejoin: bevel"/>
     <use xlink:href="#md19d6a1817" x="298.917286" y="249.96232" style="fill: #06d6a0; fill-opacity: 0.7; stroke: #06d6a0; stroke-opacity: 0.7; stroke-linejoin: bevel"/>
     <use xlink:href="#md19d6a1817" x="221.664392" y="326.239096" style="fill: #06d6a0; fill-opacity: 0.7; stroke: #06d6a0; stroke-opacity: 0.7; stroke-linejoin: bevel"/>
     <use xlink:href="#md19d6a1817" x="176.182061" y="198.604114" style="fill: #06d6a0; fill-opacity: 0.7; stroke: #06d6a0; stroke-opacity: 0.7; stroke-linejoin: bevel"/>
     <use xlink:href="#md19d6a1817" x="288" y="67.773597" style="fill: #06d6a0; fill-opacity: 0.7; stroke: #06d6a0; stroke-opacity: 0.7; stroke-linejoin: bevel"/>
    </g>
   </g>
  </g>
 </g>
 <defs>
  <clipPath id="p8adcaed3fd">
   <path d="M 473.735965 234.935965 
C 473.735965 210.545342 468.931544 186.391886 459.597657 163.857888 
C 450.263769 141.323891 436.581936 120.84758 419.33516 103.600805 
C 402.088385 86.354029 381.612074 72.672196 359.078077 63.338308 
C 336.544079 54.004421 312.390623 49.2 288 49.2 
C 263.609377 49.2 239.455921 54.004421 216.921923 63.338308 
C 194.387926 72.672196 173.911615 86.354029 156.66484 103.600805 
C 139.418064 120.84758 125.736231 141.323891 116.402343 163.857888 
C 107.068456 186.391886 102.264035 210.545342 102.264035 234.935965 
C 102.264035 259.326588 107.068456 283.480044 116.402343 306.014042 
C 125.736231 328.548039 139.418064 349.02435 156.66484 366.271125 
C 173.911615 383.517901 194.387926 397.199734 216.921923 406.533622 
C 239.455921 415.867509 263.609377 420.67193 288 420.67193 
C 312.390623 420.67193 336.544079 415.867509 359.078077 406.533622 
C 381.612074 397.199734 402.088385 383.517901 419.33516 366.271125 
C 436.581936 349.02435 450.263769 328.548039 459.597657 306.014042 
C 468.931544 283.480044 473.735965 259.326588 473.735965 234.935965 
M 288 234.935965 
C 288 234.935965 288 234.935965 288 234.935965 
C 288 234.935965 288 234.935965 288 234.935965 
C 288 234.935965 288 234.935965 288 234.935965 
C 288 234.935965 288 234.935965 288 234.935965 
C 288 234.935965 288 234.935965 288 234.935965 
C 288 234.935965 288 234.935965 288 234.935965 
C 288 234.935965 288 234.935965 288 234.935965 
C 288 234.935965 288 234.935965 288 234.935965 
C 288 234.935965 288 234.935965 288 234.935965 
C 288 234.935965 288 234.935965 288 234.935965 
C 288 234.935965 288 234.935965 288 234.935965 
C 288 234.935965 288 234.935965 288 234.935965 
C 288 234.935965 288 234.935965 288 234.935965 
C 288 234.935965 288 234.935965 288 234.935965 
C 288 234.935965 288 234.935965 288 234.935965 
C 288 234.935965 288 234.935965 288 234.935965 
z
"/>
  </clipPath>
 </defs>
</svg>
