<?xml version="1.0" encoding="utf-8" standalone="no"?>
<!DOCTYPE svg PUBLIC "-//W3C//DTD SVG 1.1//EN"
  "http://www.w3.org/Graphics/SVG/1.1/DTD/svg11.dtd">
<svg xmlns:xlink="http://www.w3.org/1999/xlink" width="864pt" height="432pt" viewBox="0 0 864 432" xmlns="http://www.w3.org/2000/svg" version="1.1">
 <metadata>
  <rdf:RDF xmlns:dc="http://purl.org/dc/elements/1.1/" xmlns:cc="http://creativecommons.org/ns#" xmlns:rdf="http://www.w3.org/1999/02/22-rdf-syntax-ns#">
   <cc:Work>
    <dc:type rdf:resource="http://purl.org/dc/dcmitype/StillImage"/>
    <dc:date>2025-06-19T21:25:14.061249</dc:date>
    <dc:format>image/svg+xml</dc:format>
    <dc:creator>
     <cc:Agent>
      <dc:title>Matplotlib v3.7.1, https://matplotlib.org/</dc:title>
     </cc:Agent>
    </dc:creator>
   </cc:Work>
  </rdf:RDF>
 </metadata>
 <defs>
  <style type="text/css">*{stroke-linejoin: round; stroke-linecap: butt}</style>
 </defs>
 <g id="figure_1">
  <g id="patch_1">
   <path d="M 0 432 
L 864 432 
L 864 0 
L 0 0 
z
" style="fill: #ffffff"/>
  </g>
  <g id="axes_1">
   <g id="patch_2">
    <path d="M 110.18 354.76 
L 835.093351 354.76 
L 835.093351 18.269787 
L 110.18 18.269787 
z
" style="fill: #ffffff"/>
   </g>
   <g id="PolyCollection_1">
    <defs>
     <path id="mc39c61200e" d="M 143.130607 -86.523721 
L 143.130607 -86.523721 
L 145.426816 -86.523721 
L 147.723026 -86.523721 
L 150.019235 -86.523721 
L 152.315445 -86.523721 
L 154.611655 -86.523721 
L 156.907864 -86.523721 
L 159.204074 -86.523721 
L 161.500283 -86.523721 
L 163.796493 -86.523721 
L 166.092702 -86.523721 
L 168.388912 -86.523721 
L 170.685121 -86.523721 
L 172.981331 -86.523721 
L 175.27754 -86.523721 
L 177.57375 -86.523721 
L 179.869959 -86.523721 
L 182.166169 -86.523721 
L 184.462379 -86.523721 
L 186.758588 -86.523721 
L 189.054798 -86.523721 
L 191.351007 -86.523721 
L 193.647217 -86.523721 
L 195.943426 -86.523721 
L 198.239636 -86.523721 
L 200.535845 -86.523721 
L 202.832055 -86.523721 
L 205.128264 -86.523721 
L 207.424474 -86.523721 
L 209.720683 -86.523721 
L 212.016893 -86.523721 
L 214.313103 -86.523721 
L 216.609312 -86.523721 
L 218.905522 -86.523721 
L 221.201731 -86.523721 
L 223.497941 -86.523721 
L 225.79415 -86.523721 
L 228.09036 -86.523721 
L 230.386569 -86.523721 
L 232.682779 -86.523721 
L 234.978988 -86.523721 
L 237.275198 -86.523721 
L 239.571407 -86.523721 
L 241.867617 -86.523721 
L 244.163827 -86.523721 
L 246.460036 -86.523721 
L 248.756246 -86.523721 
L 251.052455 -86.523721 
L 253.348665 -86.523721 
L 255.644874 -86.523721 
L 257.941084 -86.523721 
L 260.237293 -86.523721 
L 262.533503 -86.523721 
L 264.829712 -86.523721 
L 267.125922 -86.523721 
L 269.422131 -86.523721 
L 271.718341 -86.523721 
L 274.014551 -86.523721 
L 276.31076 -86.523721 
L 278.60697 -86.523721 
L 280.903179 -86.523721 
L 283.199389 -86.523721 
L 285.495598 -86.523721 
L 287.791808 -86.523721 
L 290.088017 -86.523721 
L 292.384227 -86.523721 
L 294.680436 -86.523721 
L 296.976646 -86.523721 
L 299.272855 -86.523721 
L 301.569065 -86.523721 
L 303.865275 -86.523721 
L 306.161484 -86.523721 
L 308.457694 -86.523721 
L 310.753903 -86.523721 
L 313.050113 -86.523721 
L 315.346322 -86.523721 
L 317.642532 -86.523721 
L 319.938741 -86.523721 
L 322.234951 -86.523721 
L 324.53116 -86.523721 
L 326.82737 -86.523721 
L 329.123579 -86.523721 
L 331.419789 -86.523721 
L 333.715999 -86.523721 
L 336.012208 -86.523721 
L 338.308418 -86.523721 
L 340.604627 -86.523721 
L 342.900837 -86.523721 
L 345.197046 -86.523721 
L 347.493256 -86.523721 
L 349.789465 -86.523721 
L 352.085675 -86.523721 
L 354.381884 -86.523721 
L 356.678094 -86.523721 
L 358.974303 -86.523721 
L 361.270513 -86.523721 
L 363.566723 -86.523721 
L 365.862932 -86.523721 
L 368.159142 -86.523721 
L 370.455351 -86.523721 
L 372.751561 -86.523721 
L 375.04777 -86.523721 
L 377.34398 -86.523721 
L 379.640189 -86.523721 
L 381.936399 -86.523721 
L 384.232608 -86.523721 
L 386.528818 -86.523721 
L 388.825027 -86.523721 
L 391.121237 -86.523721 
L 393.417447 -86.523721 
L 395.713656 -86.523721 
L 398.009866 -86.523721 
L 400.306075 -86.523721 
L 402.602285 -86.523721 
L 404.898494 -86.523721 
L 407.194704 -86.523721 
L 409.490913 -86.523721 
L 411.787123 -86.523721 
L 414.083332 -86.523721 
L 416.379542 -86.523721 
L 418.675751 -86.523721 
L 420.971961 -86.523721 
L 423.268171 -86.523721 
L 425.56438 -86.523721 
L 427.86059 -86.523721 
L 430.156799 -86.523721 
L 432.453009 -86.523721 
L 434.749218 -86.523721 
L 437.045428 -86.523721 
L 439.341637 -86.523721 
L 441.637847 -86.523721 
L 443.934056 -86.523721 
L 446.230266 -86.523721 
L 448.526475 -86.523721 
L 450.822685 -86.523721 
L 453.118895 -86.523721 
L 455.415104 -86.523721 
L 457.711314 -86.523721 
L 460.007523 -86.523721 
L 462.303733 -86.523721 
L 464.599942 -86.523721 
L 466.896152 -86.523721 
L 469.192361 -86.523721 
L 471.488571 -86.523721 
L 473.78478 -86.523721 
L 476.08099 -86.523721 
L 478.377199 -86.523721 
L 480.673409 -86.523721 
L 482.969619 -86.523721 
L 485.265828 -86.523721 
L 487.562038 -86.523721 
L 489.858247 -86.523721 
L 492.154457 -86.523721 
L 494.450666 -86.523721 
L 496.746876 -86.523721 
L 499.043085 -86.523721 
L 501.339295 -86.523721 
L 503.635504 -86.523721 
L 505.931714 -86.523721 
L 508.227923 -86.523721 
L 510.524133 -86.523721 
L 512.820343 -86.523721 
L 515.116552 -86.523721 
L 517.412762 -86.523721 
L 519.708971 -86.523721 
L 522.005181 -86.523721 
L 524.30139 -86.523721 
L 526.5976 -86.523721 
L 528.893809 -86.523721 
L 531.190019 -86.523721 
L 533.486228 -86.523721 
L 535.782438 -86.523721 
L 538.078647 -86.523721 
L 540.374857 -86.523721 
L 542.671067 -86.523721 
L 544.967276 -86.523721 
L 547.263486 -86.523721 
L 549.559695 -86.523721 
L 551.855905 -86.523721 
L 554.152114 -86.523721 
L 556.448324 -86.523721 
L 558.744533 -86.523721 
L 561.040743 -86.523721 
L 563.336952 -86.523721 
L 565.633162 -86.523721 
L 567.929371 -86.523721 
L 570.225581 -86.523721 
L 572.521791 -86.523721 
L 574.818 -86.510903 
L 577.11421 -86.510903 
L 579.410419 -86.510903 
L 581.706629 -86.510903 
L 584.002838 -86.510903 
L 586.299048 -86.510903 
L 588.595257 -86.510903 
L 590.891467 -86.510903 
L 593.187676 -86.510903 
L 595.483886 -86.510903 
L 597.780095 -86.510903 
L 600.076305 -86.510903 
L 602.372515 -86.510903 
L 604.668724 -86.510903 
L 606.964934 -86.510903 
L 609.261143 -86.510903 
L 611.557353 -86.510903 
L 613.853562 -86.510903 
L 616.149772 -86.510903 
L 618.445981 -86.510903 
L 620.742191 -86.510903 
L 623.0384 -86.510903 
L 625.33461 -86.510903 
L 627.630819 -86.510903 
L 629.927029 -86.510903 
L 632.223239 -86.510903 
L 634.519448 -86.510903 
L 636.815658 -86.510903 
L 639.111867 -86.510903 
L 641.408077 -86.510903 
L 643.704286 -86.510903 
L 646.000496 -86.510903 
L 648.296705 -86.510903 
L 650.592915 -86.510903 
L 652.889124 -86.510903 
L 655.185334 -86.510903 
L 657.481543 -86.510903 
L 659.777753 -86.510903 
L 662.073963 -86.510903 
L 664.370172 -86.510903 
L 666.666382 -86.510903 
L 668.962591 -86.510903 
L 671.258801 -86.510903 
L 673.55501 -86.510903 
L 675.85122 -86.510903 
L 678.147429 -86.510903 
L 680.443639 -86.510903 
L 682.739848 -86.510903 
L 685.036058 -86.541849 
L 687.332267 -86.540757 
L 689.628477 -86.531716 
L 691.924687 -86.520657 
L 694.220896 -86.520657 
L 696.517106 -86.520657 
L 698.813315 -86.520657 
L 701.109525 -86.508844 
L 703.405734 -86.508844 
L 705.701944 -86.496674 
L 707.998153 -86.484308 
L 710.294363 -86.484308 
L 712.590572 -86.484308 
L 714.886782 -86.484308 
L 717.182991 -86.471823 
L 719.479201 -86.471823 
L 721.775411 -86.471823 
L 724.07162 -86.471823 
L 726.36783 -86.471823 
L 728.664039 -86.471823 
L 730.960249 -86.471823 
L 733.256458 -86.471823 
L 735.552668 -86.471823 
L 737.848877 -86.471823 
L 740.145087 -86.471823 
L 742.441296 -86.471823 
L 744.737506 -86.471823 
L 747.033715 -86.471823 
L 749.329925 -86.471823 
L 751.626135 -86.471823 
L 753.922344 -86.471823 
L 756.218554 -86.471823 
L 758.514763 -86.471823 
L 760.810973 -86.471823 
L 763.107182 -86.471823 
L 765.403392 -86.471823 
L 767.699601 -86.471823 
L 769.995811 -86.471823 
L 772.29202 -86.471823 
L 774.58823 -86.471823 
L 776.884439 -86.471823 
L 779.180649 -86.471823 
L 781.476859 -86.471823 
L 783.773068 -86.471823 
L 786.069278 -86.471823 
L 788.365487 -86.471823 
L 790.661697 -86.471823 
L 792.957906 -86.471823 
L 795.254116 -86.471823 
L 797.550325 -86.471823 
L 799.846535 -86.471823 
L 802.142744 -86.471823 
L 802.142744 -87.132643 
L 802.142744 -87.132643 
L 799.846535 -87.132643 
L 797.550325 -87.132643 
L 795.254116 -87.132643 
L 792.957906 -87.132643 
L 790.661697 -87.132643 
L 788.365487 -87.132643 
L 786.069278 -87.132643 
L 783.773068 -87.132643 
L 781.476859 -87.132643 
L 779.180649 -87.132643 
L 776.884439 -87.132643 
L 774.58823 -87.132643 
L 772.29202 -87.132643 
L 769.995811 -87.132643 
L 767.699601 -87.132643 
L 765.403392 -87.132643 
L 763.107182 -87.132643 
L 760.810973 -87.132643 
L 758.514763 -87.132643 
L 756.218554 -87.132643 
L 753.922344 -87.132643 
L 751.626135 -87.132643 
L 749.329925 -87.132643 
L 747.033715 -87.132643 
L 744.737506 -87.132643 
L 742.441296 -87.132643 
L 740.145087 -87.132643 
L 737.848877 -87.132643 
L 735.552668 -87.132643 
L 733.256458 -87.132643 
L 730.960249 -87.132643 
L 728.664039 -87.132643 
L 726.36783 -87.132643 
L 724.07162 -87.132643 
L 721.775411 -87.132643 
L 719.479201 -87.132643 
L 717.182991 -87.132643 
L 714.886782 -87.058266 
L 712.590572 -87.058266 
L 710.294363 -87.058266 
L 707.998153 -87.058266 
L 705.701944 -86.984008 
L 703.405734 -86.909947 
L 701.109525 -86.909947 
L 698.813315 -86.836243 
L 696.517106 -86.836243 
L 694.220896 -86.836243 
L 691.924687 -86.836243 
L 689.628477 -86.763292 
L 687.332267 -86.692359 
L 685.036058 -86.629376 
L 682.739848 -86.598431 
L 680.443639 -86.598431 
L 678.147429 -86.598431 
L 675.85122 -86.598431 
L 673.55501 -86.598431 
L 671.258801 -86.598431 
L 668.962591 -86.598431 
L 666.666382 -86.598431 
L 664.370172 -86.598431 
L 662.073963 -86.598431 
L 659.777753 -86.598431 
L 657.481543 -86.598431 
L 655.185334 -86.598431 
L 652.889124 -86.598431 
L 650.592915 -86.598431 
L 648.296705 -86.598431 
L 646.000496 -86.598431 
L 643.704286 -86.598431 
L 641.408077 -86.598431 
L 639.111867 -86.598431 
L 636.815658 -86.598431 
L 634.519448 -86.598431 
L 632.223239 -86.598431 
L 629.927029 -86.598431 
L 627.630819 -86.598431 
L 625.33461 -86.598431 
L 623.0384 -86.598431 
L 620.742191 -86.598431 
L 618.445981 -86.598431 
L 616.149772 -86.598431 
L 613.853562 -86.598431 
L 611.557353 -86.598431 
L 609.261143 -86.598431 
L 606.964934 -86.598431 
L 604.668724 -86.598431 
L 602.372515 -86.598431 
L 600.076305 -86.598431 
L 597.780095 -86.598431 
L 595.483886 -86.598431 
L 593.187676 -86.598431 
L 590.891467 -86.598431 
L 588.595257 -86.598431 
L 586.299048 -86.598431 
L 584.002838 -86.598431 
L 581.706629 -86.598431 
L 579.410419 -86.598431 
L 577.11421 -86.598431 
L 574.818 -86.598431 
L 572.521791 -86.523721 
L 570.225581 -86.523721 
L 567.929371 -86.523721 
L 565.633162 -86.523721 
L 563.336952 -86.523721 
L 561.040743 -86.523721 
L 558.744533 -86.523721 
L 556.448324 -86.523721 
L 554.152114 -86.523721 
L 551.855905 -86.523721 
L 549.559695 -86.523721 
L 547.263486 -86.523721 
L 544.967276 -86.523721 
L 542.671067 -86.523721 
L 540.374857 -86.523721 
L 538.078647 -86.523721 
L 535.782438 -86.523721 
L 533.486228 -86.523721 
L 531.190019 -86.523721 
L 528.893809 -86.523721 
L 526.5976 -86.523721 
L 524.30139 -86.523721 
L 522.005181 -86.523721 
L 519.708971 -86.523721 
L 517.412762 -86.523721 
L 515.116552 -86.523721 
L 512.820343 -86.523721 
L 510.524133 -86.523721 
L 508.227923 -86.523721 
L 505.931714 -86.523721 
L 503.635504 -86.523721 
L 501.339295 -86.523721 
L 499.043085 -86.523721 
L 496.746876 -86.523721 
L 494.450666 -86.523721 
L 492.154457 -86.523721 
L 489.858247 -86.523721 
L 487.562038 -86.523721 
L 485.265828 -86.523721 
L 482.969619 -86.523721 
L 480.673409 -86.523721 
L 478.377199 -86.523721 
L 476.08099 -86.523721 
L 473.78478 -86.523721 
L 471.488571 -86.523721 
L 469.192361 -86.523721 
L 466.896152 -86.523721 
L 464.599942 -86.523721 
L 462.303733 -86.523721 
L 460.007523 -86.523721 
L 457.711314 -86.523721 
L 455.415104 -86.523721 
L 453.118895 -86.523721 
L 450.822685 -86.523721 
L 448.526475 -86.523721 
L 446.230266 -86.523721 
L 443.934056 -86.523721 
L 441.637847 -86.523721 
L 439.341637 -86.523721 
L 437.045428 -86.523721 
L 434.749218 -86.523721 
L 432.453009 -86.523721 
L 430.156799 -86.523721 
L 427.86059 -86.523721 
L 425.56438 -86.523721 
L 423.268171 -86.523721 
L 420.971961 -86.523721 
L 418.675751 -86.523721 
L 416.379542 -86.523721 
L 414.083332 -86.523721 
L 411.787123 -86.523721 
L 409.490913 -86.523721 
L 407.194704 -86.523721 
L 404.898494 -86.523721 
L 402.602285 -86.523721 
L 400.306075 -86.523721 
L 398.009866 -86.523721 
L 395.713656 -86.523721 
L 393.417447 -86.523721 
L 391.121237 -86.523721 
L 388.825027 -86.523721 
L 386.528818 -86.523721 
L 384.232608 -86.523721 
L 381.936399 -86.523721 
L 379.640189 -86.523721 
L 377.34398 -86.523721 
L 375.04777 -86.523721 
L 372.751561 -86.523721 
L 370.455351 -86.523721 
L 368.159142 -86.523721 
L 365.862932 -86.523721 
L 363.566723 -86.523721 
L 361.270513 -86.523721 
L 358.974303 -86.523721 
L 356.678094 -86.523721 
L 354.381884 -86.523721 
L 352.085675 -86.523721 
L 349.789465 -86.523721 
L 347.493256 -86.523721 
L 345.197046 -86.523721 
L 342.900837 -86.523721 
L 340.604627 -86.523721 
L 338.308418 -86.523721 
L 336.012208 -86.523721 
L 333.715999 -86.523721 
L 331.419789 -86.523721 
L 329.123579 -86.523721 
L 326.82737 -86.523721 
L 324.53116 -86.523721 
L 322.234951 -86.523721 
L 319.938741 -86.523721 
L 317.642532 -86.523721 
L 315.346322 -86.523721 
L 313.050113 -86.523721 
L 310.753903 -86.523721 
L 308.457694 -86.523721 
L 306.161484 -86.523721 
L 303.865275 -86.523721 
L 301.569065 -86.523721 
L 299.272855 -86.523721 
L 296.976646 -86.523721 
L 294.680436 -86.523721 
L 292.384227 -86.523721 
L 290.088017 -86.523721 
L 287.791808 -86.523721 
L 285.495598 -86.523721 
L 283.199389 -86.523721 
L 280.903179 -86.523721 
L 278.60697 -86.523721 
L 276.31076 -86.523721 
L 274.014551 -86.523721 
L 271.718341 -86.523721 
L 269.422131 -86.523721 
L 267.125922 -86.523721 
L 264.829712 -86.523721 
L 262.533503 -86.523721 
L 260.237293 -86.523721 
L 257.941084 -86.523721 
L 255.644874 -86.523721 
L 253.348665 -86.523721 
L 251.052455 -86.523721 
L 248.756246 -86.523721 
L 246.460036 -86.523721 
L 244.163827 -86.523721 
L 241.867617 -86.523721 
L 239.571407 -86.523721 
L 237.275198 -86.523721 
L 234.978988 -86.523721 
L 232.682779 -86.523721 
L 230.386569 -86.523721 
L 228.09036 -86.523721 
L 225.79415 -86.523721 
L 223.497941 -86.523721 
L 221.201731 -86.523721 
L 218.905522 -86.523721 
L 216.609312 -86.523721 
L 214.313103 -86.523721 
L 212.016893 -86.523721 
L 209.720683 -86.523721 
L 207.424474 -86.523721 
L 205.128264 -86.523721 
L 202.832055 -86.523721 
L 200.535845 -86.523721 
L 198.239636 -86.523721 
L 195.943426 -86.523721 
L 193.647217 -86.523721 
L 191.351007 -86.523721 
L 189.054798 -86.523721 
L 186.758588 -86.523721 
L 184.462379 -86.523721 
L 182.166169 -86.523721 
L 179.869959 -86.523721 
L 177.57375 -86.523721 
L 175.27754 -86.523721 
L 172.981331 -86.523721 
L 170.685121 -86.523721 
L 168.388912 -86.523721 
L 166.092702 -86.523721 
L 163.796493 -86.523721 
L 161.500283 -86.523721 
L 159.204074 -86.523721 
L 156.907864 -86.523721 
L 154.611655 -86.523721 
L 152.315445 -86.523721 
L 150.019235 -86.523721 
L 147.723026 -86.523721 
L 145.426816 -86.523721 
L 143.130607 -86.523721 
z
" style="stroke: #0000ff; stroke-opacity: 0.3"/>
    </defs>
    <g clip-path="url(#p8bb7644226)">
     <use xlink:href="#mc39c61200e" x="0" y="432" style="fill: #0000ff; fill-opacity: 0.3; stroke: #0000ff; stroke-opacity: 0.3"/>
    </g>
   </g>
   <g id="PolyCollection_2">
    <defs>
     <path id="m3ba97aa362" d="M 143.130607 -86.523721 
L 143.130607 -86.523721 
L 145.426816 -86.523721 
L 147.723026 -86.523721 
L 150.019235 -86.523721 
L 152.315445 -86.523721 
L 154.611655 -86.523721 
L 156.907864 -86.523721 
L 159.204074 -86.523721 
L 161.500283 -86.523721 
L 163.796493 -86.523721 
L 166.092702 -86.523721 
L 168.388912 -86.523721 
L 170.685121 -86.523721 
L 172.981331 -86.523721 
L 175.27754 -86.523721 
L 177.57375 -86.523721 
L 179.869959 -86.523721 
L 182.166169 -86.523721 
L 184.462379 -86.523721 
L 186.758588 -86.523721 
L 189.054798 -86.523721 
L 191.351007 -86.523721 
L 193.647217 -86.523721 
L 195.943426 -86.523721 
L 198.239636 -86.523721 
L 200.535845 -86.523721 
L 202.832055 -86.523721 
L 205.128264 -86.523721 
L 207.424474 -86.523721 
L 209.720683 -86.523721 
L 212.016893 -86.523721 
L 214.313103 -86.523721 
L 216.609312 -86.523721 
L 218.905522 -86.523721 
L 221.201731 -86.523721 
L 223.497941 -86.523721 
L 225.79415 -86.523721 
L 228.09036 -86.523721 
L 230.386569 -86.523721 
L 232.682779 -86.523721 
L 234.978988 -86.523721 
L 237.275198 -86.523721 
L 239.571407 -86.523721 
L 241.867617 -86.523721 
L 244.163827 -86.523721 
L 246.460036 -86.523721 
L 248.756246 -86.523721 
L 251.052455 -86.523721 
L 253.348665 -86.523721 
L 255.644874 -86.523721 
L 257.941084 -86.523721 
L 260.237293 -86.523721 
L 262.533503 -86.523721 
L 264.829712 -86.523721 
L 267.125922 -86.510903 
L 269.422131 -86.498085 
L 271.718341 -86.485267 
L 274.014551 -86.472448 
L 276.31076 -86.45963 
L 278.60697 -86.496674 
L 280.903179 -86.528927 
L 283.199389 -86.557777 
L 285.495598 -86.547705 
L 287.791808 -86.598738 
L 290.088017 -86.644934 
L 292.384227 -86.737771 
L 294.680436 -86.87725 
L 296.976646 -87.011891 
L 299.272855 -87.141232 
L 301.569065 -87.194351 
L 303.865275 -87.237689 
L 306.161484 -87.348341 
L 308.457694 -87.455198 
L 310.753903 -87.558659 
L 313.050113 -87.659135 
L 315.346322 -87.757019 
L 317.642532 -87.833854 
L 319.938741 -87.997414 
L 322.234951 -88.157512 
L 324.53116 -88.382403 
L 326.82737 -88.598118 
L 329.123579 -88.802791 
L 331.419789 -88.994981 
L 333.715999 -89.161906 
L 336.012208 -89.369012 
L 338.308418 -89.575092 
L 340.604627 -89.905834 
L 342.900837 -90.230876 
L 345.197046 -90.641442 
L 347.493256 -91.042831 
L 349.789465 -91.433178 
L 352.085675 -91.818547 
L 354.381884 -92.177213 
L 356.678094 -92.542876 
L 358.974303 -92.972939 
L 361.270513 -93.361324 
L 363.566723 -93.918347 
L 365.862932 -94.412076 
L 368.159142 -95.070965 
L 370.455351 -95.725017 
L 372.751561 -96.374574 
L 375.04777 -97.022123 
L 377.34398 -97.667291 
L 379.640189 -98.317152 
L 381.936399 -99.026831 
L 384.232608 -99.632806 
L 386.528818 -100.33174 
L 388.825027 -101.117701 
L 391.121237 -101.841242 
L 393.417447 -102.571571 
L 395.713656 -103.240629 
L 398.009866 -103.907285 
L 400.306075 -104.624401 
L 402.602285 -105.279936 
L 404.898494 -105.927401 
L 407.194704 -106.58626 
L 409.490913 -107.244974 
L 411.787123 -108.044878 
L 414.083332 -108.796539 
L 416.379542 -109.550737 
L 418.675751 -110.348129 
L 420.971961 -110.993781 
L 423.268171 -111.906405 
L 425.56438 -112.778632 
L 427.86059 -113.698632 
L 430.156799 -114.664574 
L 432.453009 -115.723932 
L 434.749218 -117.0133 
L 437.045428 -118.297756 
L 439.341637 -119.632154 
L 441.637847 -120.870657 
L 443.934056 -122.047152 
L 446.230266 -123.219278 
L 448.526475 -124.285506 
L 450.822685 -125.234563 
L 453.118895 -126.392323 
L 455.415104 -127.435806 
L 457.711314 -128.650652 
L 460.007523 -129.717078 
L 462.303733 -130.899669 
L 464.599942 -132.163999 
L 466.896152 -133.409132 
L 469.192361 -134.565059 
L 471.488571 -135.880336 
L 473.78478 -137.267446 
L 476.08099 -138.482232 
L 478.377199 -139.672415 
L 480.673409 -140.778788 
L 482.969619 -141.809139 
L 485.265828 -142.834945 
L 487.562038 -143.856154 
L 489.858247 -144.784526 
L 492.154457 -145.564674 
L 494.450666 -146.337324 
L 496.746876 -147.139136 
L 499.043085 -147.995824 
L 501.339295 -148.759336 
L 503.635504 -149.762478 
L 505.931714 -150.764309 
L 508.227923 -151.728289 
L 510.524133 -152.434845 
L 512.820343 -153.162673 
L 515.116552 -154.014098 
L 517.412762 -154.879044 
L 519.708971 -155.660204 
L 522.005181 -156.432472 
L 524.30139 -157.203989 
L 526.5976 -158.04952 
L 528.893809 -158.810351 
L 531.190019 -159.494155 
L 533.486228 -160.25649 
L 535.782438 -160.999814 
L 538.078647 -161.749211 
L 540.374857 -162.498809 
L 542.671067 -163.170598 
L 544.967276 -163.876521 
L 547.263486 -164.566213 
L 549.559695 -165.197319 
L 551.855905 -165.901126 
L 554.152114 -166.659469 
L 556.448324 -167.460572 
L 558.744533 -168.258479 
L 561.040743 -169.162173 
L 563.336952 -170.049812 
L 565.633162 -170.937306 
L 567.929371 -171.750343 
L 570.225581 -172.637442 
L 572.521791 -173.5103 
L 574.818 -174.36804 
L 577.11421 -175.240278 
L 579.410419 -176.188597 
L 581.706629 -177.133574 
L 584.002838 -178.094057 
L 586.299048 -178.963404 
L 588.595257 -179.84851 
L 590.891467 -180.791625 
L 593.187676 -181.719197 
L 595.483886 -182.590704 
L 597.780095 -183.44191 
L 600.076305 -184.311435 
L 602.372515 -185.179762 
L 604.668724 -186.113353 
L 606.964934 -187.063355 
L 609.261143 -187.91899 
L 611.557353 -188.624325 
L 613.853562 -189.372472 
L 616.149772 -190.035806 
L 618.445981 -190.764721 
L 620.742191 -191.479957 
L 623.0384 -192.305276 
L 625.33461 -193.026539 
L 627.630819 -193.879659 
L 629.927029 -194.672472 
L 632.223239 -195.433465 
L 634.519448 -196.092888 
L 636.815658 -196.823443 
L 639.111867 -197.503565 
L 641.408077 -198.266687 
L 643.704286 -198.925068 
L 646.000496 -199.469826 
L 648.296705 -200.010426 
L 650.592915 -200.57486 
L 652.889124 -201.143122 
L 655.185334 -201.730483 
L 657.481543 -202.375551 
L 659.777753 -203.059544 
L 662.073963 -203.743531 
L 664.370172 -204.433823 
L 666.666382 -205.152862 
L 668.962591 -205.842672 
L 671.258801 -206.542718 
L 673.55501 -207.234718 
L 675.85122 -207.919909 
L 678.147429 -208.59932 
L 680.443639 -209.273808 
L 682.739848 -209.851247 
L 685.036058 -210.410669 
L 687.332267 -210.964546 
L 689.628477 -211.53074 
L 691.924687 -212.097375 
L 694.220896 -212.656305 
L 696.517106 -213.211723 
L 698.813315 -213.764 
L 701.109525 -214.313464 
L 703.405734 -214.851211 
L 705.701944 -215.310275 
L 707.998153 -215.765789 
L 710.294363 -216.211844 
L 712.590572 -216.656339 
L 714.886782 -217.093987 
L 717.182991 -217.525811 
L 719.479201 -217.952181 
L 721.775411 -218.391211 
L 724.07162 -218.829869 
L 726.36783 -219.342757 
L 728.664039 -219.855357 
L 730.960249 -220.344146 
L 733.256458 -220.758219 
L 735.552668 -221.172183 
L 737.848877 -221.591834 
L 740.145087 -222.110936 
L 742.441296 -222.636335 
L 744.737506 -223.149032 
L 747.033715 -223.673064 
L 749.329925 -224.196259 
L 751.626135 -224.782484 
L 753.922344 -225.368514 
L 756.218554 -225.887206 
L 758.514763 -226.39512 
L 760.810973 -226.902913 
L 763.107182 -227.41059 
L 765.403392 -227.832172 
L 767.699601 -228.3441 
L 769.995811 -228.84468 
L 772.29202 -229.277548 
L 774.58823 -229.721707 
L 776.884439 -230.15885 
L 779.180649 -230.602954 
L 781.476859 -231.04705 
L 783.773068 -231.480053 
L 786.069278 -231.919843 
L 788.365487 -232.433847 
L 790.661697 -232.953731 
L 792.957906 -233.466705 
L 795.254116 -233.923055 
L 797.550325 -234.453646 
L 799.846535 -234.978405 
L 802.142744 -235.577623 
L 802.142744 -259.057913 
L 802.142744 -259.057913 
L 799.846535 -258.233627 
L 797.550325 -257.396774 
L 795.254116 -256.50386 
L 792.957906 -255.598598 
L 790.661697 -254.811851 
L 788.365487 -253.970123 
L 786.069278 -253.184406 
L 783.773068 -252.386366 
L 781.476859 -251.643431 
L 779.180649 -250.849698 
L 776.884439 -250.055972 
L 774.58823 -249.317177 
L 772.29202 -248.523507 
L 769.995811 -247.780437 
L 767.699601 -247.105079 
L 765.403392 -246.379178 
L 763.107182 -245.686713 
L 760.810973 -244.956561 
L 758.514763 -244.226525 
L 756.218554 -243.496608 
L 753.922344 -242.71558 
L 751.626135 -242.001889 
L 749.329925 -241.288393 
L 747.033715 -240.511867 
L 744.737506 -239.736178 
L 742.441296 -239.011046 
L 740.145087 -238.236724 
L 737.848877 -237.456105 
L 735.552668 -236.76171 
L 733.256458 -236.123518 
L 730.960249 -235.485436 
L 728.664039 -234.860179 
L 726.36783 -234.134949 
L 724.07162 -233.410008 
L 721.775411 -232.672727 
L 719.479201 -231.93582 
L 717.182991 -231.248143 
L 714.886782 -230.504029 
L 712.590572 -229.703848 
L 710.294363 -228.848622 
L 707.998153 -227.994956 
L 705.701944 -227.088858 
L 703.405734 -226.186309 
L 701.109525 -225.300552 
L 698.813315 -224.36462 
L 696.517106 -223.431503 
L 694.220896 -222.501525 
L 691.924687 -221.57506 
L 689.628477 -220.594408 
L 687.332267 -219.675207 
L 685.036058 -218.80558 
L 682.739848 -217.817715 
L 680.443639 -216.847868 
L 678.147429 -215.789394 
L 675.85122 -214.735844 
L 673.55501 -213.688073 
L 671.258801 -212.647112 
L 668.962591 -211.614197 
L 666.666382 -210.694828 
L 664.370172 -209.742798 
L 662.073963 -208.823912 
L 659.777753 -207.836828 
L 657.481543 -206.849752 
L 655.185334 -205.823751 
L 652.889124 -204.863824 
L 650.592915 -204.008582 
L 648.296705 -203.087621 
L 646.000496 -202.266609 
L 643.704286 -201.449755 
L 641.408077 -200.560849 
L 639.111867 -199.652901 
L 636.815658 -198.600062 
L 634.519448 -197.78333 
L 632.223239 -196.895466 
L 629.927029 -195.985389 
L 627.630819 -195.169024 
L 625.33461 -194.351074 
L 623.0384 -193.463159 
L 620.742191 -192.555516 
L 618.445981 -191.599683 
L 616.149772 -190.71942 
L 613.853562 -189.773575 
L 611.557353 -188.974436 
L 609.261143 -188.070592 
L 606.964934 -187.378941 
L 604.668724 -186.719764 
L 602.372515 -186.106068 
L 600.076305 -185.489 
L 597.780095 -184.935021 
L 595.483886 -184.424614 
L 593.187676 -183.810726 
L 590.891467 -183.314794 
L 588.595257 -182.772514 
L 586.299048 -182.172225 
L 584.002838 -181.618068 
L 581.706629 -181.031263 
L 579.410419 -180.428954 
L 577.11421 -179.768095 
L 574.818 -179.154937 
L 572.521791 -178.589173 
L 570.225581 -177.976636 
L 567.929371 -177.316448 
L 565.633162 -176.64409 
L 563.336952 -175.984297 
L 561.040743 -175.324649 
L 558.744533 -174.619165 
L 556.448324 -173.993568 
L 554.152114 -173.309275 
L 551.855905 -172.520332 
L 549.559695 -171.61496 
L 547.263486 -170.69878 
L 544.967276 -169.779293 
L 542.671067 -168.876038 
L 540.374857 -168.00054 
L 538.078647 -167.079069 
L 535.782438 -166.219287 
L 533.486228 -165.353433 
L 531.190019 -164.444699 
L 528.893809 -163.581216 
L 526.5976 -162.732868 
L 524.30139 -161.845437 
L 522.005181 -160.945885 
L 519.708971 -160.047083 
L 517.412762 -159.157173 
L 515.116552 -158.227267 
L 512.820343 -157.345731 
L 510.524133 -156.216814 
L 508.227923 -155.252301 
L 505.931714 -154.235753 
L 503.635504 -153.318949 
L 501.339295 -152.341564 
L 499.043085 -151.434006 
L 496.746876 -150.433949 
L 494.450666 -149.317126 
L 492.154457 -148.294923 
L 489.858247 -147.280219 
L 487.562038 -146.351846 
L 485.265828 -145.330637 
L 482.969619 -144.314024 
L 480.673409 -143.301957 
L 478.377199 -142.427802 
L 476.08099 -141.575567 
L 473.78478 -140.562259 
L 471.488571 -139.535602 
L 469.192361 -138.437112 
L 466.896152 -137.426837 
L 464.599942 -136.258203 
L 462.303733 -134.923091 
L 460.007523 -133.753806 
L 457.711314 -132.654031 
L 455.415104 -131.640784 
L 453.118895 -130.579957 
L 450.822685 -129.447732 
L 448.526475 -128.35437 
L 446.230266 -127.316288 
L 443.934056 -126.260321 
L 441.637847 -125.270614 
L 439.341637 -124.281024 
L 437.045428 -123.201655 
L 434.749218 -122.134235 
L 432.453009 -121.071727 
L 430.156799 -119.964884 
L 427.86059 -118.950298 
L 425.56438 -117.951663 
L 423.268171 -116.967145 
L 420.971961 -115.899242 
L 418.675751 -114.626258 
L 416.379542 -113.505016 
L 414.083332 -112.46436 
L 411.787123 -111.48306 
L 409.490913 -110.42622 
L 407.194704 -109.537647 
L 404.898494 -108.649219 
L 402.602285 -107.749398 
L 400.306075 -106.857646 
L 398.009866 -105.965583 
L 395.713656 -105.084953 
L 393.417447 -104.206724 
L 391.121237 -103.389766 
L 388.825027 -102.442237 
L 386.528818 -101.557128 
L 384.232608 -100.770667 
L 381.936399 -99.953138 
L 379.640189 -99.239314 
L 377.34398 -98.589453 
L 375.04777 -97.996791 
L 372.751561 -97.406511 
L 370.455351 -96.818239 
L 368.159142 -96.296353 
L 365.862932 -95.779304 
L 363.566723 -95.28277 
L 361.270513 -94.725746 
L 358.974303 -94.185759 
L 356.678094 -93.68745 
L 354.381884 -93.186632 
L 352.085675 -92.740709 
L 349.789465 -92.321488 
L 347.493256 -91.969138 
L 345.197046 -91.62783 
L 342.900837 -91.295697 
L 340.604627 -91.063717 
L 338.308418 -90.837435 
L 336.012208 -90.486492 
L 333.715999 -90.136574 
L 331.419789 -89.870259 
L 329.123579 -89.691101 
L 326.82737 -89.524425 
L 324.53116 -89.368791 
L 322.234951 -89.222333 
L 319.938741 -89.072973 
L 317.642532 -88.927076 
L 315.346322 -88.818237 
L 313.050113 -88.668555 
L 310.753903 -88.521465 
L 308.457694 -88.37736 
L 306.161484 -88.236651 
L 303.865275 -88.099737 
L 301.569065 -87.957401 
L 299.272855 -87.824846 
L 296.976646 -87.706621 
L 294.680436 -87.593696 
L 292.384227 -87.485609 
L 290.088017 -87.392771 
L 287.791808 -87.315184 
L 285.495598 -87.242435 
L 283.199389 -87.170471 
L 280.903179 -87.075538 
L 278.60697 -86.984008 
L 276.31076 -86.897269 
L 274.014551 -86.822559 
L 271.718341 -86.74785 
L 269.422131 -86.67314 
L 267.125922 -86.598431 
L 264.829712 -86.523721 
L 262.533503 -86.523721 
L 260.237293 -86.523721 
L 257.941084 -86.523721 
L 255.644874 -86.523721 
L 253.348665 -86.523721 
L 251.052455 -86.523721 
L 248.756246 -86.523721 
L 246.460036 -86.523721 
L 244.163827 -86.523721 
L 241.867617 -86.523721 
L 239.571407 -86.523721 
L 237.275198 -86.523721 
L 234.978988 -86.523721 
L 232.682779 -86.523721 
L 230.386569 -86.523721 
L 228.09036 -86.523721 
L 225.79415 -86.523721 
L 223.497941 -86.523721 
L 221.201731 -86.523721 
L 218.905522 -86.523721 
L 216.609312 -86.523721 
L 214.313103 -86.523721 
L 212.016893 -86.523721 
L 209.720683 -86.523721 
L 207.424474 -86.523721 
L 205.128264 -86.523721 
L 202.832055 -86.523721 
L 200.535845 -86.523721 
L 198.239636 -86.523721 
L 195.943426 -86.523721 
L 193.647217 -86.523721 
L 191.351007 -86.523721 
L 189.054798 -86.523721 
L 186.758588 -86.523721 
L 184.462379 -86.523721 
L 182.166169 -86.523721 
L 179.869959 -86.523721 
L 177.57375 -86.523721 
L 175.27754 -86.523721 
L 172.981331 -86.523721 
L 170.685121 -86.523721 
L 168.388912 -86.523721 
L 166.092702 -86.523721 
L 163.796493 -86.523721 
L 161.500283 -86.523721 
L 159.204074 -86.523721 
L 156.907864 -86.523721 
L 154.611655 -86.523721 
L 152.315445 -86.523721 
L 150.019235 -86.523721 
L 147.723026 -86.523721 
L 145.426816 -86.523721 
L 143.130607 -86.523721 
z
" style="stroke: #008000; stroke-opacity: 0.3"/>
    </defs>
    <g clip-path="url(#p8bb7644226)">
     <use xlink:href="#m3ba97aa362" x="0" y="432" style="fill: #008000; fill-opacity: 0.3; stroke: #008000; stroke-opacity: 0.3"/>
    </g>
   </g>
   <g id="PolyCollection_3">
    <defs>
     <path id="m2b03635692" d="M 143.130607 -86.523721 
L 143.130607 -86.523721 
L 145.426816 -86.523721 
L 147.723026 -86.523721 
L 150.019235 -86.523721 
L 152.315445 -86.523721 
L 154.611655 -86.523721 
L 156.907864 -86.523721 
L 159.204074 -86.523721 
L 161.500283 -86.523721 
L 163.796493 -86.523721 
L 166.092702 -86.523721 
L 168.388912 -86.523721 
L 170.685121 -86.523721 
L 172.981331 -86.523721 
L 175.27754 -86.523721 
L 177.57375 -86.523721 
L 179.869959 -86.523721 
L 182.166169 -86.523721 
L 184.462379 -86.523721 
L 186.758588 -86.523721 
L 189.054798 -86.523721 
L 191.351007 -86.523721 
L 193.647217 -86.523721 
L 195.943426 -86.523721 
L 198.239636 -86.523721 
L 200.535845 -86.523721 
L 202.832055 -86.523721 
L 205.128264 -86.523721 
L 207.424474 -86.523721 
L 209.720683 -86.523721 
L 212.016893 -86.523721 
L 214.313103 -86.523721 
L 216.609312 -86.523721 
L 218.905522 -86.523721 
L 221.201731 -86.523721 
L 223.497941 -86.523721 
L 225.79415 -86.523721 
L 228.09036 -86.523721 
L 230.386569 -86.523721 
L 232.682779 -86.523721 
L 234.978988 -86.523721 
L 237.275198 -86.523721 
L 239.571407 -86.523721 
L 241.867617 -86.523721 
L 244.163827 -86.523721 
L 246.460036 -86.523721 
L 248.756246 -86.523721 
L 251.052455 -86.523721 
L 253.348665 -86.523721 
L 255.644874 -86.523721 
L 257.941084 -86.523721 
L 260.237293 -86.523721 
L 262.533503 -86.510903 
L 264.829712 -86.60374 
L 267.125922 -86.696577 
L 269.422131 -86.789414 
L 271.718341 -86.882252 
L 274.014551 -87.006035 
L 276.31076 -87.09778 
L 278.60697 -87.181576 
L 280.903179 -87.263354 
L 283.199389 -87.344379 
L 285.495598 -87.425046 
L 287.791808 -87.505517 
L 290.088017 -87.640878 
L 292.384227 -87.75898 
L 294.680436 -87.932039 
L 296.976646 -88.04786 
L 299.272855 -88.221205 
L 301.569065 -88.45102 
L 303.865275 -88.783671 
L 306.161484 -89.167838 
L 308.457694 -89.552005 
L 310.753903 -89.936172 
L 313.050113 -90.320339 
L 315.346322 -90.75482 
L 317.642532 -91.284276 
L 319.938741 -91.776987 
L 322.234951 -92.194785 
L 324.53116 -92.62534 
L 326.82737 -93.13329 
L 329.123579 -93.596385 
L 331.419789 -94.009525 
L 333.715999 -94.492844 
L 336.012208 -94.975806 
L 338.308418 -95.534137 
L 340.604627 -96.110771 
L 342.900837 -96.687235 
L 345.197046 -97.264108 
L 347.493256 -97.913968 
L 349.789465 -98.655642 
L 352.085675 -99.398339 
L 354.381884 -100.141037 
L 356.678094 -100.898302 
L 358.974303 -101.659291 
L 361.270513 -102.351003 
L 363.566723 -103.117706 
L 365.862932 -103.879959 
L 368.159142 -104.636307 
L 370.455351 -105.325221 
L 372.751561 -106.016959 
L 375.04777 -106.756809 
L 377.34398 -107.466637 
L 379.640189 -108.155464 
L 381.936399 -108.837979 
L 384.232608 -109.451846 
L 386.528818 -110.065705 
L 388.825027 -110.888509 
L 391.121237 -111.708544 
L 393.417447 -112.595557 
L 395.713656 -113.410548 
L 398.009866 -114.291736 
L 400.306075 -115.237217 
L 402.602285 -116.114691 
L 404.898494 -116.967302 
L 407.194704 -117.776088 
L 409.490913 -118.821538 
L 411.787123 -119.735363 
L 414.083332 -120.80088 
L 416.379542 -121.850757 
L 418.675751 -123.038924 
L 420.971961 -124.21836 
L 423.268171 -125.446266 
L 425.56438 -126.76235 
L 427.86059 -127.891638 
L 430.156799 -129.005684 
L 432.453009 -130.212568 
L 434.749218 -131.402545 
L 437.045428 -132.607408 
L 439.341637 -133.805979 
L 441.637847 -134.835501 
L 443.934056 -135.953233 
L 446.230266 -137.031386 
L 448.526475 -138.123928 
L 450.822685 -139.264864 
L 453.118895 -140.589398 
L 455.415104 -141.864503 
L 457.711314 -142.992498 
L 460.007523 -144.173637 
L 462.303733 -145.300746 
L 464.599942 -146.475846 
L 466.896152 -147.690647 
L 469.192361 -148.937406 
L 471.488571 -150.244449 
L 473.78478 -151.512322 
L 476.08099 -152.635838 
L 478.377199 -153.674124 
L 480.673409 -154.848471 
L 482.969619 -156.060835 
L 485.265828 -157.578608 
L 487.562038 -158.950935 
L 489.858247 -160.225881 
L 492.154457 -161.597123 
L 494.450666 -163.07152 
L 496.746876 -164.406774 
L 499.043085 -165.759288 
L 501.339295 -167.266923 
L 503.635504 -168.745806 
L 505.931714 -170.205299 
L 508.227923 -171.683527 
L 510.524133 -173.125574 
L 512.820343 -174.3797 
L 515.116552 -175.443948 
L 517.412762 -176.431079 
L 519.708971 -177.485547 
L 522.005181 -178.510519 
L 524.30139 -179.469757 
L 526.5976 -180.372432 
L 528.893809 -181.256418 
L 531.190019 -182.206222 
L 533.486228 -183.20338 
L 535.782438 -184.212414 
L 538.078647 -185.221371 
L 540.374857 -186.173014 
L 542.671067 -187.190775 
L 544.967276 -188.072278 
L 547.263486 -188.974327 
L 549.559695 -189.911338 
L 551.855905 -190.804454 
L 554.152114 -191.545998 
L 556.448324 -192.284322 
L 558.744533 -192.983096 
L 561.040743 -193.830602 
L 563.336952 -194.763441 
L 565.633162 -195.534461 
L 567.929371 -196.447201 
L 570.225581 -197.38413 
L 572.521791 -198.225047 
L 574.818 -199.016637 
L 577.11421 -199.953771 
L 579.410419 -200.942873 
L 581.706629 -202.062833 
L 584.002838 -203.187519 
L 586.299048 -204.277129 
L 588.595257 -205.230507 
L 590.891467 -206.083855 
L 593.187676 -206.985647 
L 595.483886 -207.789959 
L 597.780095 -208.890624 
L 600.076305 -209.93495 
L 602.372515 -210.838702 
L 604.668724 -211.742543 
L 606.964934 -212.805919 
L 609.261143 -213.849409 
L 611.557353 -215.038907 
L 613.853562 -216.376435 
L 616.149772 -217.584264 
L 618.445981 -218.883985 
L 620.742191 -220.200655 
L 623.0384 -221.481231 
L 625.33461 -222.698712 
L 627.630819 -223.973477 
L 629.927029 -225.250983 
L 632.223239 -226.590991 
L 634.519448 -228.022812 
L 636.815658 -229.305852 
L 639.111867 -230.622253 
L 641.408077 -231.993344 
L 643.704286 -233.443493 
L 646.000496 -234.892745 
L 648.296705 -236.43388 
L 650.592915 -237.974159 
L 652.889124 -239.436469 
L 655.185334 -240.938699 
L 657.481543 -242.464889 
L 659.777753 -244.084951 
L 662.073963 -245.63095 
L 664.370172 -247.248767 
L 666.666382 -248.93941 
L 668.962591 -250.537156 
L 671.258801 -252.113211 
L 673.55501 -253.70893 
L 675.85122 -255.305842 
L 678.147429 -257.018754 
L 680.443639 -258.657846 
L 682.739848 -260.48107 
L 685.036058 -262.337258 
L 687.332267 -264.302616 
L 689.628477 -266.267287 
L 691.924687 -268.230423 
L 694.220896 -270.206692 
L 696.517106 -272.266707 
L 698.813315 -274.387764 
L 701.109525 -276.424194 
L 703.405734 -278.536306 
L 705.701944 -280.702778 
L 707.998153 -282.87296 
L 710.294363 -285.110923 
L 712.590572 -287.353299 
L 714.886782 -289.586612 
L 717.182991 -291.810545 
L 719.479201 -294.00852 
L 721.775411 -296.177333 
L 724.07162 -298.243123 
L 726.36783 -300.395442 
L 728.664039 -302.524252 
L 730.960249 -304.639282 
L 733.256458 -306.853196 
L 735.552668 -309.059066 
L 737.848877 -311.331604 
L 740.145087 -313.568754 
L 742.441296 -316.007536 
L 744.737506 -318.444356 
L 747.033715 -320.849104 
L 749.329925 -323.310597 
L 751.626135 -325.734026 
L 753.922344 -328.193068 
L 756.218554 -330.641033 
L 758.514763 -333.066636 
L 760.810973 -335.47912 
L 763.107182 -337.889111 
L 765.403392 -340.423249 
L 767.699601 -342.957263 
L 769.995811 -345.512189 
L 772.29202 -348.066693 
L 774.58823 -350.725014 
L 776.884439 -353.425599 
L 779.180649 -356.168268 
L 781.476859 -358.910512 
L 783.773068 -361.652354 
L 786.069278 -364.456609 
L 788.365487 -367.35365 
L 790.661697 -370.354399 
L 792.957906 -373.25131 
L 795.254116 -376.188596 
L 797.550325 -379.16508 
L 799.846535 -382.036817 
L 802.142744 -385.036229 
L 802.142744 -398.137354 
L 802.142744 -398.137354 
L 799.846535 -395.071402 
L 797.550325 -392.001557 
L 795.254116 -388.912677 
L 792.957906 -385.846491 
L 790.661697 -382.801819 
L 788.365487 -379.737204 
L 786.069278 -376.692664 
L 783.773068 -373.741012 
L 781.476859 -370.788839 
L 779.180649 -367.837067 
L 776.884439 -364.885721 
L 774.58823 -361.954181 
L 772.29202 -359.04227 
L 769.995811 -356.150324 
L 767.699601 -353.258801 
L 765.403392 -350.346365 
L 763.107182 -347.434053 
L 760.810973 -344.583269 
L 758.514763 -341.734978 
L 756.218554 -338.961697 
L 753.922344 -336.334561 
L 751.626135 -333.780394 
L 749.329925 -331.252505 
L 747.033715 -328.700788 
L 744.737506 -326.216111 
L 742.441296 -323.763504 
L 740.145087 -321.312859 
L 737.848877 -318.846258 
L 735.552668 -316.415044 
L 733.256458 -313.979053 
L 730.960249 -311.612998 
L 728.664039 -309.271842 
L 726.36783 -307.06825 
L 724.07162 -304.764382 
L 721.775411 -302.559661 
L 719.479201 -300.334179 
L 717.182991 -298.075968 
L 714.886782 -295.905607 
L 712.590572 -293.744624 
L 710.294363 -291.592706 
L 707.998153 -289.436375 
L 705.701944 -287.397936 
L 703.405734 -285.41768 
L 701.109525 -283.383063 
L 698.813315 -281.396547 
L 696.517106 -279.432767 
L 694.220896 -277.407945 
L 691.924687 -275.42316 
L 689.628477 -273.487133 
L 687.332267 -271.552641 
L 685.036058 -269.680728 
L 682.739848 -267.885319 
L 680.443639 -265.995054 
L 678.147429 -264.168224 
L 675.85122 -262.353322 
L 673.55501 -260.608094 
L 671.258801 -258.799782 
L 668.962591 -257.033697 
L 666.666382 -255.227413 
L 664.370172 -253.452133 
L 662.073963 -251.72781 
L 659.777753 -249.993561 
L 657.481543 -248.271484 
L 655.185334 -246.579318 
L 652.889124 -244.86319 
L 650.592915 -243.230928 
L 648.296705 -241.738524 
L 646.000496 -240.308868 
L 643.704286 -238.973004 
L 641.408077 -237.638037 
L 639.111867 -236.409685 
L 636.815658 -235.064753 
L 634.519448 -233.810244 
L 632.223239 -232.58073 
L 629.927029 -231.44508 
L 627.630819 -230.308818 
L 625.33461 -229.231708 
L 623.0384 -228.159204 
L 620.742191 -226.964121 
L 618.445981 -225.681349 
L 616.149772 -224.381628 
L 613.853562 -223.113799 
L 611.557353 -221.66621 
L 609.261143 -220.441941 
L 606.964934 -219.195446 
L 604.668724 -217.845055 
L 602.372515 -216.458911 
L 600.076305 -215.13457 
L 597.780095 -213.888911 
L 595.483886 -212.823376 
L 593.187676 -211.770943 
L 590.891467 -210.754099 
L 588.595257 -209.750703 
L 586.299048 -208.785446 
L 584.002838 -207.894528 
L 581.706629 -206.914904 
L 579.410419 -205.806771 
L 577.11421 -204.753454 
L 574.818 -203.64817 
L 572.521791 -202.583016 
L 570.225581 -201.567188 
L 567.929371 -200.52359 
L 565.633162 -199.517695 
L 563.336952 -198.617645 
L 561.040743 -197.69374 
L 558.744533 -196.62261 
L 556.448324 -195.588423 
L 554.152114 -194.470002 
L 551.855905 -193.354803 
L 549.559695 -192.2055 
L 547.263486 -191.038201 
L 544.967276 -190.021614 
L 542.671067 -188.860698 
L 540.374857 -187.836041 
L 538.078647 -186.683373 
L 535.782438 -185.588021 
L 533.486228 -184.492745 
L 531.190019 -183.323701 
L 528.893809 -182.231086 
L 526.5976 -181.072654 
L 524.30139 -179.93291 
L 522.005181 -178.911621 
L 519.708971 -178.017958 
L 517.412762 -177.091899 
L 515.116552 -176.160394 
L 512.820343 -175.306006 
L 510.524133 -174.270148 
L 508.227923 -173.360318 
L 505.931714 -172.424779 
L 503.635504 -171.346721 
L 501.339295 -170.411838 
L 499.043085 -169.381922 
L 496.746876 -168.444451 
L 494.450666 -167.489721 
L 492.154457 -166.612242 
L 489.858247 -165.755391 
L 487.562038 -164.740352 
L 485.265828 -163.637021 
L 482.969619 -162.617243 
L 480.673409 -161.539623 
L 478.377199 -160.423985 
L 476.08099 -159.234178 
L 473.78478 -157.882035 
L 471.488571 -156.612357 
L 469.192361 -155.381851 
L 466.896152 -154.214842 
L 464.599942 -153.015875 
L 462.303733 -151.777208 
L 460.007523 -150.428658 
L 457.711314 -149.257921 
L 455.415104 -147.910257 
L 453.118895 -146.647812 
L 450.822685 -145.434795 
L 448.526475 -144.347638 
L 446.230266 -143.150196 
L 443.934056 -142.000255 
L 441.637847 -140.766112 
L 439.341637 -139.56754 
L 437.045428 -138.538019 
L 434.749218 -137.391005 
L 432.453009 -136.229107 
L 430.156799 -135.022223 
L 427.86059 -133.908177 
L 425.56438 -132.809372 
L 423.268171 -131.711688 
L 420.971961 -130.525827 
L 418.675751 -129.291495 
L 416.379542 -128.127786 
L 414.083332 -126.887679 
L 411.787123 -125.725102 
L 409.490913 -124.6584 
L 407.194704 -123.537649 
L 404.898494 -122.427799 
L 402.602285 -121.423666 
L 400.306075 -120.320613 
L 398.009866 -119.223675 
L 395.713656 -118.186228 
L 393.417447 -117.144475 
L 391.121237 -116.112852 
L 388.825027 -115.076143 
L 386.528818 -114.042202 
L 384.232608 -113.046883 
L 381.936399 -112.051571 
L 379.640189 -111.001126 
L 377.34398 -110.080774 
L 375.04777 -109.057641 
L 372.751561 -108.250204 
L 370.455351 -107.394655 
L 368.159142 -106.47439 
L 365.862932 -105.435886 
L 363.566723 -104.465178 
L 361.270513 -103.498919 
L 358.974303 -102.581453 
L 356.678094 -101.733264 
L 354.381884 -100.943242 
L 352.085675 -100.200545 
L 349.789465 -99.457847 
L 347.493256 -98.776017 
L 345.197046 -98.126156 
L 342.900837 -97.465199 
L 340.604627 -96.741942 
L 338.308418 -96.080747 
L 336.012208 -95.46314 
L 333.715999 -94.893947 
L 331.419789 -94.325111 
L 329.123579 -93.747987 
L 326.82737 -93.220818 
L 324.53116 -92.800396 
L 322.234951 -92.426362 
L 319.938741 -92.039571 
L 317.642532 -91.665801 
L 315.346322 -91.328777 
L 313.050113 -91.020561 
L 310.753903 -90.723921 
L 308.457694 -90.427282 
L 306.161484 -90.130643 
L 303.865275 -89.834004 
L 301.569065 -89.54774 
L 299.272855 -89.282423 
L 296.976646 -89.022528 
L 294.680436 -88.767 
L 292.384227 -88.506818 
L 290.088017 -88.253572 
L 287.791808 -88.079475 
L 285.495598 -87.91238 
L 283.199389 -87.745482 
L 280.903179 -87.57894 
L 278.60697 -87.413153 
L 276.31076 -87.249383 
L 274.014551 -87.093562 
L 271.718341 -86.969779 
L 269.422131 -86.876942 
L 267.125922 -86.784105 
L 264.829712 -86.691268 
L 262.533503 -86.598431 
L 260.237293 -86.523721 
L 257.941084 -86.523721 
L 255.644874 -86.523721 
L 253.348665 -86.523721 
L 251.052455 -86.523721 
L 248.756246 -86.523721 
L 246.460036 -86.523721 
L 244.163827 -86.523721 
L 241.867617 -86.523721 
L 239.571407 -86.523721 
L 237.275198 -86.523721 
L 234.978988 -86.523721 
L 232.682779 -86.523721 
L 230.386569 -86.523721 
L 228.09036 -86.523721 
L 225.79415 -86.523721 
L 223.497941 -86.523721 
L 221.201731 -86.523721 
L 218.905522 -86.523721 
L 216.609312 -86.523721 
L 214.313103 -86.523721 
L 212.016893 -86.523721 
L 209.720683 -86.523721 
L 207.424474 -86.523721 
L 205.128264 -86.523721 
L 202.832055 -86.523721 
L 200.535845 -86.523721 
L 198.239636 -86.523721 
L 195.943426 -86.523721 
L 193.647217 -86.523721 
L 191.351007 -86.523721 
L 189.054798 -86.523721 
L 186.758588 -86.523721 
L 184.462379 -86.523721 
L 182.166169 -86.523721 
L 179.869959 -86.523721 
L 177.57375 -86.523721 
L 175.27754 -86.523721 
L 172.981331 -86.523721 
L 170.685121 -86.523721 
L 168.388912 -86.523721 
L 166.092702 -86.523721 
L 163.796493 -86.523721 
L 161.500283 -86.523721 
L 159.204074 -86.523721 
L 156.907864 -86.523721 
L 154.611655 -86.523721 
L 152.315445 -86.523721 
L 150.019235 -86.523721 
L 147.723026 -86.523721 
L 145.426816 -86.523721 
L 143.130607 -86.523721 
z
" style="stroke: #ff0000; stroke-opacity: 0.3"/>
    </defs>
    <g clip-path="url(#p8bb7644226)">
     <use xlink:href="#m2b03635692" x="0" y="432" style="fill: #ff0000; fill-opacity: 0.3; stroke: #ff0000; stroke-opacity: 0.3"/>
    </g>
   </g>
   <g id="PolyCollection_4">
    <defs>
     <path id="maf274eb54f" d="M 143.130607 -86.523721 
L 143.130607 -86.523721 
L 145.426816 -86.523721 
L 147.723026 -86.523721 
L 150.019235 -86.523721 
L 152.315445 -86.523721 
L 154.611655 -86.523721 
L 156.907864 -86.523721 
L 159.204074 -86.523721 
L 161.500283 -86.523721 
L 163.796493 -86.523721 
L 166.092702 -86.523721 
L 168.388912 -86.523721 
L 170.685121 -86.523721 
L 172.981331 -86.523721 
L 175.27754 -86.523721 
L 177.57375 -86.523721 
L 179.869959 -86.523721 
L 182.166169 -86.523721 
L 184.462379 -86.523721 
L 186.758588 -86.523721 
L 189.054798 -86.523721 
L 191.351007 -86.523721 
L 193.647217 -86.523721 
L 195.943426 -86.523721 
L 198.239636 -86.523721 
L 200.535845 -86.523721 
L 202.832055 -86.523721 
L 205.128264 -86.523721 
L 207.424474 -86.523721 
L 209.720683 -86.523721 
L 212.016893 -86.523721 
L 214.313103 -86.523721 
L 216.609312 -86.523721 
L 218.905522 -86.523721 
L 221.201731 -86.523721 
L 223.497941 -86.523721 
L 225.79415 -86.523721 
L 228.09036 -86.523721 
L 230.386569 -86.523721 
L 232.682779 -86.523721 
L 234.978988 -86.523721 
L 237.275198 -86.523721 
L 239.571407 -86.523721 
L 241.867617 -86.523721 
L 244.163827 -86.523721 
L 246.460036 -86.523721 
L 248.756246 -86.523721 
L 251.052455 -86.523721 
L 253.348665 -86.523721 
L 255.644874 -86.523721 
L 257.941084 -86.523721 
L 260.237293 -86.523721 
L 262.533503 -86.523721 
L 264.829712 -86.523721 
L 267.125922 -86.523721 
L 269.422131 -86.523721 
L 271.718341 -86.523721 
L 274.014551 -86.523721 
L 276.31076 -86.523721 
L 278.60697 -86.523721 
L 280.903179 -86.523721 
L 283.199389 -86.523721 
L 285.495598 -86.523721 
L 287.791808 -86.523721 
L 290.088017 -86.523721 
L 292.384227 -86.523721 
L 294.680436 -86.523721 
L 296.976646 -86.523721 
L 299.272855 -86.523721 
L 301.569065 -86.523721 
L 303.865275 -86.523721 
L 306.161484 -86.510903 
L 308.457694 -86.498085 
L 310.753903 -86.485267 
L 313.050113 -86.472448 
L 315.346322 -86.45963 
L 317.642532 -86.446812 
L 319.938741 -86.433994 
L 322.234951 -86.421176 
L 324.53116 -86.408358 
L 326.82737 -86.39554 
L 329.123579 -86.382721 
L 331.419789 -86.369903 
L 333.715999 -86.357085 
L 336.012208 -86.344267 
L 338.308418 -86.331449 
L 340.604627 -86.318631 
L 342.900837 -86.305813 
L 345.197046 -86.292994 
L 347.493256 -86.280176 
L 349.789465 -86.280176 
L 352.085675 -86.280176 
L 354.381884 -86.280176 
L 356.678094 -86.280176 
L 358.974303 -86.280176 
L 361.270513 -86.280176 
L 363.566723 -86.280176 
L 365.862932 -86.280176 
L 368.159142 -86.280176 
L 370.455351 -86.280176 
L 372.751561 -86.280176 
L 375.04777 -86.280176 
L 377.34398 -86.280176 
L 379.640189 -86.280176 
L 381.936399 -86.280176 
L 384.232608 -86.280176 
L 386.528818 -86.280176 
L 388.825027 -86.280176 
L 391.121237 -86.280176 
L 393.417447 -86.280176 
L 395.713656 -86.280176 
L 398.009866 -86.280176 
L 400.306075 -86.280176 
L 402.602285 -86.280176 
L 404.898494 -86.280176 
L 407.194704 -86.280176 
L 409.490913 -86.280176 
L 411.787123 -86.280176 
L 414.083332 -86.280176 
L 416.379542 -86.280176 
L 418.675751 -86.280176 
L 420.971961 -86.280176 
L 423.268171 -86.280176 
L 425.56438 -86.280176 
L 427.86059 -86.280176 
L 430.156799 -86.280176 
L 432.453009 -86.280176 
L 434.749218 -86.280176 
L 437.045428 -86.280176 
L 439.341637 -86.280176 
L 441.637847 -86.280176 
L 443.934056 -86.280176 
L 446.230266 -86.280176 
L 448.526475 -86.280176 
L 450.822685 -86.280176 
L 453.118895 -86.280176 
L 455.415104 -86.280176 
L 457.711314 -86.280176 
L 460.007523 -86.280176 
L 462.303733 -86.280176 
L 464.599942 -86.280176 
L 466.896152 -86.280176 
L 469.192361 -86.280176 
L 471.488571 -86.280176 
L 473.78478 -86.280176 
L 476.08099 -86.280176 
L 478.377199 -86.280176 
L 480.673409 -86.280176 
L 482.969619 -86.280176 
L 485.265828 -86.280176 
L 487.562038 -86.280176 
L 489.858247 -86.280176 
L 492.154457 -86.280176 
L 494.450666 -86.280176 
L 496.746876 -86.280176 
L 499.043085 -86.280176 
L 501.339295 -86.280176 
L 503.635504 -86.280176 
L 505.931714 -86.280176 
L 508.227923 -86.280176 
L 510.524133 -86.280176 
L 512.820343 -86.280176 
L 515.116552 -86.280176 
L 517.412762 -86.280176 
L 519.708971 -86.280176 
L 522.005181 -86.280176 
L 524.30139 -86.280176 
L 526.5976 -86.280176 
L 528.893809 -86.280176 
L 531.190019 -86.280176 
L 533.486228 -86.280176 
L 535.782438 -86.280176 
L 538.078647 -86.280176 
L 540.374857 -86.280176 
L 542.671067 -86.332117 
L 544.967276 -86.332117 
L 547.263486 -86.382193 
L 549.559695 -86.382193 
L 551.855905 -86.382193 
L 554.152114 -86.382193 
L 556.448324 -86.430265 
L 558.744533 -86.476198 
L 561.040743 -86.519863 
L 563.336952 -86.561142 
L 565.633162 -86.561142 
L 567.929371 -86.599934 
L 570.225581 -86.636158 
L 572.521791 -86.669757 
L 574.818 -86.700703 
L 577.11421 -86.728995 
L 579.410419 -86.754663 
L 581.706629 -86.777762 
L 584.002838 -86.798374 
L 586.299048 -86.798374 
L 588.595257 -86.798374 
L 590.891467 -86.798374 
L 593.187676 -86.798374 
L 595.483886 -86.798374 
L 597.780095 -86.798374 
L 600.076305 -86.798374 
L 602.372515 -86.798374 
L 604.668724 -86.798374 
L 606.964934 -86.816601 
L 609.261143 -86.83256 
L 611.557353 -86.846379 
L 613.853562 -86.858195 
L 616.149772 -86.868145 
L 618.445981 -86.876368 
L 620.742191 -86.882997 
L 623.0384 -86.88816 
L 625.33461 -86.966078 
L 627.630819 -87.042096 
L 629.927029 -87.115711 
L 632.223239 -87.1892 
L 634.519448 -87.260489 
L 636.815658 -87.332655 
L 639.111867 -87.404523 
L 641.408077 -87.476042 
L 643.704286 -87.547144 
L 646.000496 -87.617749 
L 648.296705 -87.681218 
L 650.592915 -87.741532 
L 652.889124 -87.732819 
L 655.185334 -87.723608 
L 657.481543 -87.71398 
L 659.777753 -87.69373 
L 662.073963 -87.672456 
L 664.370172 -87.65042 
L 666.666382 -87.627803 
L 668.962591 -87.604733 
L 671.258801 -87.581303 
L 673.55501 -87.557585 
L 675.85122 -87.533629 
L 678.147429 -87.509478 
L 680.443639 -87.485164 
L 682.739848 -87.460711 
L 685.036058 -87.436141 
L 687.332267 -87.41147 
L 689.628477 -87.386711 
L 691.924687 -87.361876 
L 694.220896 -87.336975 
L 696.517106 -87.312014 
L 698.813315 -87.287002 
L 701.109525 -87.261944 
L 703.405734 -87.236844 
L 705.701944 -87.211708 
L 707.998153 -87.186538 
L 710.294363 -87.161338 
L 712.590572 -87.13611 
L 714.886782 -87.110858 
L 717.182991 -87.085583 
L 719.479201 -87.10948 
L 721.775411 -87.08427 
L 724.07162 -87.107937 
L 726.36783 -87.131309 
L 728.664039 -87.154404 
L 730.960249 -87.177241 
L 733.256458 -87.199833 
L 735.552668 -87.222197 
L 737.848877 -87.244344 
L 740.145087 -87.312348 
L 742.441296 -87.333813 
L 744.737506 -87.367127 
L 747.033715 -87.400152 
L 749.329925 -87.432895 
L 751.626135 -87.465361 
L 753.922344 -87.485842 
L 756.218554 -87.506196 
L 758.514763 -87.526429 
L 760.810973 -87.546547 
L 763.107182 -87.566557 
L 765.403392 -87.629031 
L 767.699601 -87.721068 
L 769.995811 -87.811209 
L 772.29202 -87.920656 
L 774.58823 -88.027169 
L 776.884439 -88.093272 
L 779.180649 -88.195107 
L 781.476859 -88.294114 
L 783.773068 -88.381703 
L 786.069278 -88.534682 
L 788.365487 -88.686666 
L 790.661697 -88.837678 
L 792.957906 -88.987739 
L 795.254116 -89.13687 
L 797.550325 -89.285091 
L 799.846535 -89.432424 
L 802.142744 -89.57889 
L 802.142744 -99.436552 
L 802.142744 -99.436552 
L 799.846535 -99.211669 
L 797.550325 -98.987653 
L 795.254116 -98.764526 
L 792.957906 -98.542307 
L 790.661697 -98.321019 
L 788.365487 -98.100683 
L 786.069278 -97.881319 
L 783.773068 -97.662948 
L 781.476859 -97.441079 
L 779.180649 -97.292521 
L 776.884439 -97.14679 
L 774.58823 -97.027219 
L 772.29202 -96.886165 
L 769.995811 -96.748047 
L 767.699601 -96.466839 
L 765.403392 -96.187527 
L 763.107182 -96.002435 
L 760.810973 -95.836771 
L 758.514763 -95.671215 
L 756.218554 -95.505773 
L 753.922344 -95.340453 
L 751.626135 -95.17526 
L 749.329925 -95.083943 
L 747.033715 -94.992902 
L 744.737506 -94.902144 
L 742.441296 -94.811676 
L 740.145087 -94.647466 
L 737.848877 -94.467904 
L 735.552668 -94.304377 
L 733.256458 -94.141066 
L 730.960249 -93.977984 
L 728.664039 -93.815146 
L 726.36783 -93.652567 
L 724.07162 -93.490265 
L 721.775411 -93.328257 
L 719.479201 -93.179264 
L 717.182991 -93.017486 
L 714.886782 -92.868429 
L 712.590572 -92.719394 
L 710.294363 -92.570383 
L 707.998153 -92.4214 
L 705.701944 -92.272447 
L 703.405734 -92.123528 
L 701.109525 -91.974645 
L 698.813315 -91.825804 
L 696.517106 -91.677009 
L 694.220896 -91.528266 
L 691.924687 -91.379581 
L 689.628477 -91.230964 
L 687.332267 -91.082422 
L 685.036058 -90.933968 
L 682.739848 -90.785614 
L 680.443639 -90.637379 
L 678.147429 -90.489281 
L 675.85122 -90.341347 
L 673.55501 -90.193609 
L 671.258801 -90.046108 
L 668.962591 -89.898895 
L 666.666382 -89.752042 
L 664.370172 -89.605642 
L 662.073963 -89.459823 
L 659.777753 -89.314766 
L 657.481543 -89.170733 
L 655.185334 -89.099214 
L 652.889124 -89.028111 
L 650.592915 -88.957507 
L 648.296705 -88.894038 
L 646.000496 -88.833724 
L 643.704286 -88.842437 
L 641.408077 -88.851648 
L 639.111867 -88.861275 
L 636.815658 -88.871252 
L 634.519448 -88.881526 
L 632.223239 -88.829032 
L 629.927029 -88.778739 
L 627.630819 -88.790462 
L 625.33461 -88.742697 
L 623.0384 -88.696832 
L 620.742191 -88.640104 
L 618.445981 -88.584842 
L 616.149772 -88.531173 
L 613.853562 -88.479232 
L 611.557353 -88.429156 
L 609.261143 -88.381084 
L 606.964934 -88.335151 
L 604.668724 -88.291486 
L 602.372515 -88.291486 
L 600.076305 -88.291486 
L 597.780095 -88.291486 
L 595.483886 -88.291486 
L 593.187676 -88.291486 
L 590.891467 -88.291486 
L 588.595257 -88.291486 
L 586.299048 -88.291486 
L 584.002838 -88.291486 
L 581.706629 -88.250207 
L 579.410419 -88.211415 
L 577.11421 -88.175191 
L 574.818 -88.141592 
L 572.521791 -88.110646 
L 570.225581 -88.082354 
L 567.929371 -88.056686 
L 565.633162 -88.033587 
L 563.336952 -88.033587 
L 561.040743 -88.012975 
L 558.744533 -87.994748 
L 556.448324 -87.978789 
L 554.152114 -87.96497 
L 551.855905 -87.96497 
L 549.559695 -87.96497 
L 547.263486 -87.96497 
L 544.967276 -87.953154 
L 542.671067 -87.953154 
L 540.374857 -87.943204 
L 538.078647 -87.943204 
L 535.782438 -87.943204 
L 533.486228 -87.943204 
L 531.190019 -87.943204 
L 528.893809 -87.943204 
L 526.5976 -87.943204 
L 524.30139 -87.943204 
L 522.005181 -87.943204 
L 519.708971 -87.943204 
L 517.412762 -87.943204 
L 515.116552 -87.943204 
L 512.820343 -87.943204 
L 510.524133 -87.943204 
L 508.227923 -87.943204 
L 505.931714 -87.943204 
L 503.635504 -87.943204 
L 501.339295 -87.943204 
L 499.043085 -87.943204 
L 496.746876 -87.943204 
L 494.450666 -87.943204 
L 492.154457 -87.943204 
L 489.858247 -87.943204 
L 487.562038 -87.943204 
L 485.265828 -87.943204 
L 482.969619 -87.943204 
L 480.673409 -87.943204 
L 478.377199 -87.943204 
L 476.08099 -87.943204 
L 473.78478 -87.943204 
L 471.488571 -87.943204 
L 469.192361 -87.943204 
L 466.896152 -87.943204 
L 464.599942 -87.943204 
L 462.303733 -87.943204 
L 460.007523 -87.943204 
L 457.711314 -87.943204 
L 455.415104 -87.943204 
L 453.118895 -87.943204 
L 450.822685 -87.943204 
L 448.526475 -87.943204 
L 446.230266 -87.943204 
L 443.934056 -87.943204 
L 441.637847 -87.943204 
L 439.341637 -87.943204 
L 437.045428 -87.943204 
L 434.749218 -87.943204 
L 432.453009 -87.943204 
L 430.156799 -87.943204 
L 427.86059 -87.943204 
L 425.56438 -87.943204 
L 423.268171 -87.943204 
L 420.971961 -87.943204 
L 418.675751 -87.943204 
L 416.379542 -87.943204 
L 414.083332 -87.943204 
L 411.787123 -87.943204 
L 409.490913 -87.943204 
L 407.194704 -87.943204 
L 404.898494 -87.943204 
L 402.602285 -87.943204 
L 400.306075 -87.943204 
L 398.009866 -87.943204 
L 395.713656 -87.943204 
L 393.417447 -87.943204 
L 391.121237 -87.943204 
L 388.825027 -87.943204 
L 386.528818 -87.943204 
L 384.232608 -87.943204 
L 381.936399 -87.943204 
L 379.640189 -87.943204 
L 377.34398 -87.943204 
L 375.04777 -87.943204 
L 372.751561 -87.943204 
L 370.455351 -87.943204 
L 368.159142 -87.943204 
L 365.862932 -87.943204 
L 363.566723 -87.943204 
L 361.270513 -87.943204 
L 358.974303 -87.943204 
L 356.678094 -87.943204 
L 354.381884 -87.943204 
L 352.085675 -87.943204 
L 349.789465 -87.943204 
L 347.493256 -87.943204 
L 345.197046 -87.868494 
L 342.900837 -87.793784 
L 340.604627 -87.719075 
L 338.308418 -87.644365 
L 336.012208 -87.569656 
L 333.715999 -87.494946 
L 331.419789 -87.420236 
L 329.123579 -87.345527 
L 326.82737 -87.270817 
L 324.53116 -87.196108 
L 322.234951 -87.121398 
L 319.938741 -87.046688 
L 317.642532 -86.971979 
L 315.346322 -86.897269 
L 313.050113 -86.822559 
L 310.753903 -86.74785 
L 308.457694 -86.67314 
L 306.161484 -86.598431 
L 303.865275 -86.523721 
L 301.569065 -86.523721 
L 299.272855 -86.523721 
L 296.976646 -86.523721 
L 294.680436 -86.523721 
L 292.384227 -86.523721 
L 290.088017 -86.523721 
L 287.791808 -86.523721 
L 285.495598 -86.523721 
L 283.199389 -86.523721 
L 280.903179 -86.523721 
L 278.60697 -86.523721 
L 276.31076 -86.523721 
L 274.014551 -86.523721 
L 271.718341 -86.523721 
L 269.422131 -86.523721 
L 267.125922 -86.523721 
L 264.829712 -86.523721 
L 262.533503 -86.523721 
L 260.237293 -86.523721 
L 257.941084 -86.523721 
L 255.644874 -86.523721 
L 253.348665 -86.523721 
L 251.052455 -86.523721 
L 248.756246 -86.523721 
L 246.460036 -86.523721 
L 244.163827 -86.523721 
L 241.867617 -86.523721 
L 239.571407 -86.523721 
L 237.275198 -86.523721 
L 234.978988 -86.523721 
L 232.682779 -86.523721 
L 230.386569 -86.523721 
L 228.09036 -86.523721 
L 225.79415 -86.523721 
L 223.497941 -86.523721 
L 221.201731 -86.523721 
L 218.905522 -86.523721 
L 216.609312 -86.523721 
L 214.313103 -86.523721 
L 212.016893 -86.523721 
L 209.720683 -86.523721 
L 207.424474 -86.523721 
L 205.128264 -86.523721 
L 202.832055 -86.523721 
L 200.535845 -86.523721 
L 198.239636 -86.523721 
L 195.943426 -86.523721 
L 193.647217 -86.523721 
L 191.351007 -86.523721 
L 189.054798 -86.523721 
L 186.758588 -86.523721 
L 184.462379 -86.523721 
L 182.166169 -86.523721 
L 179.869959 -86.523721 
L 177.57375 -86.523721 
L 175.27754 -86.523721 
L 172.981331 -86.523721 
L 170.685121 -86.523721 
L 168.388912 -86.523721 
L 166.092702 -86.523721 
L 163.796493 -86.523721 
L 161.500283 -86.523721 
L 159.204074 -86.523721 
L 156.907864 -86.523721 
L 154.611655 -86.523721 
L 152.315445 -86.523721 
L 150.019235 -86.523721 
L 147.723026 -86.523721 
L 145.426816 -86.523721 
L 143.130607 -86.523721 
z
" style="stroke: #ffa500; stroke-opacity: 0.3"/>
    </defs>
    <g clip-path="url(#p8bb7644226)">
     <use xlink:href="#maf274eb54f" x="0" y="432" style="fill: #ffa500; fill-opacity: 0.3; stroke: #ffa500; stroke-opacity: 0.3"/>
    </g>
   </g>
   <g id="matplotlib.axis_1">
    <g id="xtick_1">
     <g id="line2d_1">
      <defs>
       <path id="mb99e3a47ec" d="M 0 0 
L 0 3.5 
" style="stroke: #000000; stroke-width: 0.8"/>
      </defs>
      <g>
       <use xlink:href="#mb99e3a47ec" x="143.130607" y="354.76" style="stroke: #000000; stroke-width: 0.8"/>
      </g>
     </g>
     <g id="text_1">
      <!-- 0 -->
      <g transform="translate(136.130607 381.01) scale(0.28 -0.28)">
       <defs>
        <path id="SimHei-30" d="M 225 2537 
Q 250 3200 412 3587 
Q 575 3975 875 4225 
Q 1175 4475 1612 4475 
Q 2050 4475 2375 4112 
Q 2700 3750 2800 3200 
Q 2900 2650 2862 1937 
Q 2825 1225 2612 775 
Q 2400 325 1975 150 
Q 1550 -25 1125 187 
Q 700 400 525 750 
Q 350 1100 275 1487 
Q 200 1875 225 2537 
z
M 750 2687 
Q 675 2000 800 1462 
Q 925 925 1212 700 
Q 1500 475 1800 612 
Q 2100 750 2237 1162 
Q 2375 1575 2375 2062 
Q 2375 2550 2337 2950 
Q 2300 3350 2112 3675 
Q 1925 4000 1612 4012 
Q 1300 4025 1062 3700 
Q 825 3375 750 2687 
z
" transform="scale(0.015625)"/>
       </defs>
       <use xlink:href="#SimHei-30"/>
      </g>
     </g>
    </g>
    <g id="xtick_2">
     <g id="line2d_2">
      <g>
       <use xlink:href="#mb99e3a47ec" x="257.941084" y="354.76" style="stroke: #000000; stroke-width: 0.8"/>
      </g>
     </g>
     <g id="text_2">
      <!-- 50 -->
      <g transform="translate(243.941084 381.01) scale(0.28 -0.28)">
       <defs>
        <path id="SimHei-35" d="M 550 1325 
Q 725 650 1150 575 
Q 1575 500 1837 662 
Q 2100 825 2212 1087 
Q 2325 1350 2312 1675 
Q 2300 2000 2137 2225 
Q 1975 2450 1725 2525 
Q 1475 2600 1162 2525 
Q 850 2450 650 2175 
L 225 2225 
Q 275 2375 700 4375 
L 2675 4375 
L 2675 3925 
L 1075 3925 
Q 950 3250 825 2850 
Q 1200 3025 1525 3012 
Q 1850 3000 2150 2862 
Q 2450 2725 2587 2487 
Q 2725 2250 2787 2012 
Q 2850 1775 2837 1500 
Q 2825 1225 2725 937 
Q 2625 650 2425 462 
Q 2225 275 1937 162 
Q 1650 50 1275 75 
Q 900 100 562 350 
Q 225 600 100 1200 
L 550 1325 
z
" transform="scale(0.015625)"/>
       </defs>
       <use xlink:href="#SimHei-35"/>
       <use xlink:href="#SimHei-30" x="50"/>
      </g>
     </g>
    </g>
    <g id="xtick_3">
     <g id="line2d_3">
      <g>
       <use xlink:href="#mb99e3a47ec" x="372.751561" y="354.76" style="stroke: #000000; stroke-width: 0.8"/>
      </g>
     </g>
     <g id="text_3">
      <!-- 100 -->
      <g transform="translate(351.751561 381.01) scale(0.28 -0.28)">
       <defs>
        <path id="SimHei-31" d="M 1400 3600 
Q 1075 3275 575 2975 
L 575 3450 
Q 1200 3875 1600 4450 
L 1900 4450 
L 1900 150 
L 1400 150 
L 1400 3600 
z
" transform="scale(0.015625)"/>
       </defs>
       <use xlink:href="#SimHei-31"/>
       <use xlink:href="#SimHei-30" x="50"/>
       <use xlink:href="#SimHei-30" x="100"/>
      </g>
     </g>
    </g>
    <g id="xtick_4">
     <g id="line2d_4">
      <g>
       <use xlink:href="#mb99e3a47ec" x="487.562038" y="354.76" style="stroke: #000000; stroke-width: 0.8"/>
      </g>
     </g>
     <g id="text_4">
      <!-- 150 -->
      <g transform="translate(466.562038 381.01) scale(0.28 -0.28)">
       <use xlink:href="#SimHei-31"/>
       <use xlink:href="#SimHei-35" x="50"/>
       <use xlink:href="#SimHei-30" x="100"/>
      </g>
     </g>
    </g>
    <g id="xtick_5">
     <g id="line2d_5">
      <g>
       <use xlink:href="#mb99e3a47ec" x="602.372515" y="354.76" style="stroke: #000000; stroke-width: 0.8"/>
      </g>
     </g>
     <g id="text_5">
      <!-- 200 -->
      <g transform="translate(581.372515 381.01) scale(0.28 -0.28)">
       <defs>
        <path id="SimHei-32" d="M 300 250 
Q 325 625 650 925 
Q 975 1225 1475 1862 
Q 1975 2500 2125 2850 
Q 2275 3200 2237 3450 
Q 2200 3700 2000 3862 
Q 1800 4025 1537 4000 
Q 1275 3975 1037 3800 
Q 800 3625 675 3275 
L 200 3350 
Q 400 3925 712 4187 
Q 1025 4450 1450 4475 
Q 1700 4500 1900 4462 
Q 2100 4425 2312 4287 
Q 2525 4150 2662 3875 
Q 2800 3600 2762 3212 
Q 2725 2825 2375 2287 
Q 2025 1750 1025 600 
L 2825 600 
L 2825 150 
L 300 150 
L 300 250 
z
" transform="scale(0.015625)"/>
       </defs>
       <use xlink:href="#SimHei-32"/>
       <use xlink:href="#SimHei-30" x="50"/>
       <use xlink:href="#SimHei-30" x="100"/>
      </g>
     </g>
    </g>
    <g id="xtick_6">
     <g id="line2d_6">
      <g>
       <use xlink:href="#mb99e3a47ec" x="717.182991" y="354.76" style="stroke: #000000; stroke-width: 0.8"/>
      </g>
     </g>
     <g id="text_6">
      <!-- 250 -->
      <g transform="translate(696.182991 381.01) scale(0.28 -0.28)">
       <use xlink:href="#SimHei-32"/>
       <use xlink:href="#SimHei-35" x="50"/>
       <use xlink:href="#SimHei-30" x="100"/>
      </g>
     </g>
    </g>
    <g id="xtick_7">
     <g id="line2d_7">
      <g>
       <use xlink:href="#mb99e3a47ec" x="831.993468" y="354.76" style="stroke: #000000; stroke-width: 0.8"/>
      </g>
     </g>
     <g id="text_7">
      <!-- 300 -->
      <g transform="translate(810.993468 381.01) scale(0.28 -0.28)">
       <defs>
        <path id="SimHei-33" d="M 250 1225 
L 700 1300 
Q 800 975 1025 762 
Q 1250 550 1587 562 
Q 1925 575 2125 837 
Q 2325 1100 2300 1437 
Q 2275 1775 2037 1962 
Q 1800 2150 1275 2225 
L 1275 2550 
Q 1800 2600 2037 2825 
Q 2275 3050 2250 3412 
Q 2225 3775 1925 3937 
Q 1625 4100 1287 3975 
Q 950 3850 750 3275 
L 300 3350 
Q 450 3800 712 4100 
Q 975 4400 1425 4450 
Q 1875 4500 2212 4337 
Q 2550 4175 2687 3837 
Q 2825 3500 2725 3100 
Q 2625 2700 2150 2400 
Q 2500 2250 2687 1950 
Q 2875 1650 2812 1162 
Q 2750 675 2375 375 
Q 2000 75 1525 87 
Q 1050 100 700 387 
Q 350 675 250 1225 
z
" transform="scale(0.015625)"/>
       </defs>
       <use xlink:href="#SimHei-33"/>
       <use xlink:href="#SimHei-30" x="50"/>
       <use xlink:href="#SimHei-30" x="100"/>
      </g>
     </g>
    </g>
    <g id="text_8">
     <!-- Time Steps -->
     <g transform="translate(372.636676 416.3225) scale(0.4 -0.4)">
      <defs>
       <path id="SimHei-54" d="M 2850 3925 
L 1850 3925 
L 1850 125 
L 1275 125 
L 1275 3925 
L 275 3925 
L 275 4400 
L 2850 4400 
L 2850 3925 
z
" transform="scale(0.015625)"/>
       <path id="SimHei-69" d="M 1800 3725 
L 1300 3725 
L 1300 4375 
L 1800 4375 
L 1800 3725 
z
M 1800 125 
L 1300 125 
L 1300 2925 
L 1800 2925 
L 1800 125 
z
" transform="scale(0.015625)"/>
       <path id="SimHei-6d" d="M 3050 125 
L 2550 125 
L 2550 2150 
Q 2550 2300 2500 2400 
Q 2450 2500 2300 2500 
Q 2125 2500 1975 2312 
Q 1825 2125 1825 1825 
L 1825 125 
L 1325 125 
L 1325 2150 
Q 1325 2300 1275 2400 
Q 1225 2500 1075 2500 
Q 900 2500 750 2312 
Q 600 2125 600 1825 
L 600 125 
L 100 125 
L 100 2925 
L 600 2925 
L 600 2550 
Q 725 2750 900 2862 
Q 1075 2975 1275 2975 
Q 1475 2975 1612 2862 
Q 1750 2750 1800 2550 
Q 1925 2750 2087 2862 
Q 2250 2975 2450 2975 
Q 2750 2975 2900 2812 
Q 3050 2650 3050 2350 
L 3050 125 
z
" transform="scale(0.015625)"/>
       <path id="SimHei-65" d="M 2850 1075 
Q 2800 625 2450 350 
Q 2100 75 1625 75 
Q 1025 75 637 462 
Q 250 850 250 1525 
Q 250 2200 637 2587 
Q 1025 2975 1625 2975 
Q 2150 2975 2487 2637 
Q 2825 2300 2825 1525 
L 800 1525 
Q 800 975 1037 750 
Q 1275 525 1625 525 
Q 1900 525 2075 662 
Q 2250 800 2300 1075 
L 2850 1075 
z
M 2250 1925 
Q 2200 2275 2025 2412 
Q 1850 2550 1575 2550 
Q 1325 2550 1125 2412 
Q 925 2275 825 1925 
L 2250 1925 
z
" transform="scale(0.015625)"/>
       <path id="SimHei-20" transform="scale(0.015625)"/>
       <path id="SimHei-53" d="M 2900 1325 
Q 2900 750 2537 412 
Q 2175 75 1550 75 
Q 925 75 575 425 
Q 225 775 225 1300 
L 225 1475 
L 800 1475 
L 800 1325 
Q 800 950 1025 750 
Q 1250 550 1550 550 
Q 1950 550 2137 762 
Q 2325 975 2325 1275 
Q 2325 1525 2100 1737 
Q 1875 1950 1450 2125 
Q 850 2350 587 2625 
Q 325 2900 325 3275 
Q 325 3800 687 4125 
Q 1050 4450 1550 4450 
Q 2200 4450 2487 4062 
Q 2775 3675 2775 3225 
L 2200 3225 
Q 2225 3500 2050 3725 
Q 1875 3950 1550 3950 
Q 1250 3950 1075 3787 
Q 900 3625 900 3350 
Q 900 3125 1037 2962 
Q 1175 2800 1750 2575 
Q 2300 2350 2600 2037 
Q 2900 1725 2900 1325 
z
" transform="scale(0.015625)"/>
       <path id="SimHei-74" d="M 2750 200 
Q 2625 150 2462 112 
Q 2300 75 2025 75 
Q 1575 75 1300 325 
Q 1025 575 1025 1025 
L 1025 2525 
L 175 2525 
L 175 2925 
L 1025 2925 
L 1025 3900 
L 1525 3900 
L 1525 2925 
L 2550 2925 
L 2550 2525 
L 1525 2525 
L 1525 1000 
Q 1525 800 1625 662 
Q 1725 525 2000 525 
Q 2275 525 2450 575 
Q 2625 625 2750 700 
L 2750 200 
z
" transform="scale(0.015625)"/>
       <path id="SimHei-70" d="M 2825 1525 
Q 2825 800 2475 425 
Q 2125 50 1625 50 
Q 1350 50 1150 162 
Q 950 275 800 500 
L 800 -800 
L 300 -800 
L 300 2925 
L 800 2925 
L 800 2550 
Q 950 2775 1150 2875 
Q 1350 2975 1625 2975 
Q 2125 2975 2475 2612 
Q 2825 2250 2825 1525 
z
M 2275 1525 
Q 2275 2000 2087 2262 
Q 1900 2525 1525 2525 
Q 1225 2525 1012 2262 
Q 800 2000 800 1525 
Q 800 1050 1012 775 
Q 1225 500 1525 500 
Q 1900 500 2087 775 
Q 2275 1050 2275 1525 
z
" transform="scale(0.015625)"/>
       <path id="SimHei-73" d="M 2750 900 
Q 2750 500 2437 287 
Q 2125 75 1650 75 
Q 1050 75 725 312 
Q 400 550 400 1000 
L 900 1000 
Q 900 700 1112 600 
Q 1325 500 1625 500 
Q 1925 500 2075 612 
Q 2225 725 2225 900 
Q 2225 1025 2100 1150 
Q 1975 1275 1475 1350 
Q 900 1425 687 1637 
Q 475 1850 475 2200 
Q 475 2500 762 2737 
Q 1050 2975 1600 2975 
Q 2100 2975 2387 2750 
Q 2675 2525 2675 2150 
L 2175 2150 
Q 2175 2375 2012 2462 
Q 1850 2550 1600 2550 
Q 1275 2550 1137 2437 
Q 1000 2325 1000 2175 
Q 1000 2000 1125 1900 
Q 1250 1800 1650 1750 
Q 2300 1650 2525 1437 
Q 2750 1225 2750 900 
z
" transform="scale(0.015625)"/>
      </defs>
      <use xlink:href="#SimHei-54"/>
      <use xlink:href="#SimHei-69" x="50"/>
      <use xlink:href="#SimHei-6d" x="100"/>
      <use xlink:href="#SimHei-65" x="150"/>
      <use xlink:href="#SimHei-20" x="200"/>
      <use xlink:href="#SimHei-53" x="250"/>
      <use xlink:href="#SimHei-74" x="300"/>
      <use xlink:href="#SimHei-65" x="350"/>
      <use xlink:href="#SimHei-70" x="400"/>
      <use xlink:href="#SimHei-73" x="450"/>
     </g>
    </g>
   </g>
   <g id="matplotlib.axis_2">
    <g id="ytick_1">
     <g id="line2d_8">
      <defs>
       <path id="md1f0214a41" d="M 0 0 
L -3.5 0 
" style="stroke: #000000; stroke-width: 0.8"/>
      </defs>
      <g>
       <use xlink:href="#md1f0214a41" x="110.18" y="345.476279" style="stroke: #000000; stroke-width: 0.8"/>
      </g>
     </g>
     <g id="text_9">
      <!-- 0 -->
      <g transform="translate(89.18 355.101279) scale(0.28 -0.28)">
       <use xlink:href="#SimHei-30"/>
      </g>
     </g>
    </g>
    <g id="ytick_2">
     <g id="line2d_9">
      <g>
       <use xlink:href="#md1f0214a41" x="110.18" y="299.057674" style="stroke: #000000; stroke-width: 0.8"/>
      </g>
     </g>
     <g id="text_10">
      <!-- 500 -->
      <g transform="translate(61.18 308.682674) scale(0.28 -0.28)">
       <use xlink:href="#SimHei-35"/>
       <use xlink:href="#SimHei-30" x="50"/>
       <use xlink:href="#SimHei-30" x="100"/>
      </g>
     </g>
    </g>
    <g id="ytick_3">
     <g id="line2d_10">
      <g>
       <use xlink:href="#md1f0214a41" x="110.18" y="252.639069" style="stroke: #000000; stroke-width: 0.8"/>
      </g>
     </g>
     <g id="text_11">
      <!-- 1000 -->
      <g transform="translate(47.18 262.264069) scale(0.28 -0.28)">
       <use xlink:href="#SimHei-31"/>
       <use xlink:href="#SimHei-30" x="50"/>
       <use xlink:href="#SimHei-30" x="100"/>
       <use xlink:href="#SimHei-30" x="150"/>
      </g>
     </g>
    </g>
    <g id="ytick_4">
     <g id="line2d_11">
      <g>
       <use xlink:href="#md1f0214a41" x="110.18" y="206.220465" style="stroke: #000000; stroke-width: 0.8"/>
      </g>
     </g>
     <g id="text_12">
      <!-- 1500 -->
      <g transform="translate(47.18 215.845465) scale(0.28 -0.28)">
       <use xlink:href="#SimHei-31"/>
       <use xlink:href="#SimHei-35" x="50"/>
       <use xlink:href="#SimHei-30" x="100"/>
       <use xlink:href="#SimHei-30" x="150"/>
      </g>
     </g>
    </g>
    <g id="ytick_5">
     <g id="line2d_12">
      <g>
       <use xlink:href="#md1f0214a41" x="110.18" y="159.80186" style="stroke: #000000; stroke-width: 0.8"/>
      </g>
     </g>
     <g id="text_13">
      <!-- 2000 -->
      <g transform="translate(47.18 169.42686) scale(0.28 -0.28)">
       <use xlink:href="#SimHei-32"/>
       <use xlink:href="#SimHei-30" x="50"/>
       <use xlink:href="#SimHei-30" x="100"/>
       <use xlink:href="#SimHei-30" x="150"/>
      </g>
     </g>
    </g>
    <g id="ytick_6">
     <g id="line2d_13">
      <g>
       <use xlink:href="#md1f0214a41" x="110.18" y="113.383255" style="stroke: #000000; stroke-width: 0.8"/>
      </g>
     </g>
     <g id="text_14">
      <!-- 2500 -->
      <g transform="translate(47.18 123.008255) scale(0.28 -0.28)">
       <use xlink:href="#SimHei-32"/>
       <use xlink:href="#SimHei-35" x="50"/>
       <use xlink:href="#SimHei-30" x="100"/>
       <use xlink:href="#SimHei-30" x="150"/>
      </g>
     </g>
    </g>
    <g id="ytick_7">
     <g id="line2d_14">
      <g>
       <use xlink:href="#md1f0214a41" x="110.18" y="66.96465" style="stroke: #000000; stroke-width: 0.8"/>
      </g>
     </g>
     <g id="text_15">
      <!-- 3000 -->
      <g transform="translate(47.18 76.58965) scale(0.28 -0.28)">
       <use xlink:href="#SimHei-33"/>
       <use xlink:href="#SimHei-30" x="50"/>
       <use xlink:href="#SimHei-30" x="100"/>
       <use xlink:href="#SimHei-30" x="150"/>
      </g>
     </g>
    </g>
    <g id="ytick_8">
     <g id="line2d_15">
      <g>
       <use xlink:href="#md1f0214a41" x="110.18" y="20.546046" style="stroke: #000000; stroke-width: 0.8"/>
      </g>
     </g>
     <g id="text_16">
      <!-- 3500 -->
      <g transform="translate(47.18 30.171046) scale(0.28 -0.28)">
       <use xlink:href="#SimHei-33"/>
       <use xlink:href="#SimHei-35" x="50"/>
       <use xlink:href="#SimHei-30" x="100"/>
       <use xlink:href="#SimHei-30" x="150"/>
      </g>
     </g>
    </g>
    <g id="text_17">
     <!-- $m_{vct}$ -->
     <g transform="translate(35.98 228.114893) rotate(-90) scale(0.4 -0.4)">
      <defs>
       <path id="DejaVuSans-Oblique-6d" d="M 5747 2113 
L 5338 0 
L 4763 0 
L 5166 2094 
Q 5191 2228 5203 2325 
Q 5216 2422 5216 2491 
Q 5216 2772 5059 2928 
Q 4903 3084 4622 3084 
Q 4203 3084 3875 2770 
Q 3547 2456 3450 1953 
L 3066 0 
L 2491 0 
L 2900 2094 
Q 2925 2209 2937 2307 
Q 2950 2406 2950 2484 
Q 2950 2769 2794 2926 
Q 2638 3084 2363 3084 
Q 1938 3084 1609 2770 
Q 1281 2456 1184 1953 
L 800 0 
L 225 0 
L 909 3500 
L 1484 3500 
L 1375 2956 
Q 1609 3263 1923 3423 
Q 2238 3584 2597 3584 
Q 2978 3584 3223 3384 
Q 3469 3184 3519 2828 
Q 3781 3197 4126 3390 
Q 4472 3584 4856 3584 
Q 5306 3584 5551 3325 
Q 5797 3066 5797 2591 
Q 5797 2488 5784 2364 
Q 5772 2241 5747 2113 
z
" transform="scale(0.015625)"/>
       <path id="DejaVuSans-Oblique-76" d="M 459 3500 
L 1069 3500 
L 1581 525 
L 3256 3500 
L 3866 3500 
L 1875 0 
L 1100 0 
L 459 3500 
z
" transform="scale(0.015625)"/>
       <path id="DejaVuSans-Oblique-63" d="M 3431 3366 
L 3316 2797 
Q 3109 2947 2876 3022 
Q 2644 3097 2394 3097 
Q 2119 3097 1870 3000 
Q 1622 2903 1453 2725 
Q 1184 2453 1037 2087 
Q 891 1722 891 1331 
Q 891 859 1127 628 
Q 1363 397 1844 397 
Q 2081 397 2348 469 
Q 2616 541 2906 684 
L 2797 116 
Q 2547 13 2283 -39 
Q 2019 -91 1741 -91 
Q 1044 -91 669 257 
Q 294 606 294 1253 
Q 294 1797 489 2255 
Q 684 2713 1069 3078 
Q 1331 3328 1684 3456 
Q 2038 3584 2456 3584 
Q 2700 3584 2940 3529 
Q 3181 3475 3431 3366 
z
" transform="scale(0.015625)"/>
       <path id="DejaVuSans-Oblique-74" d="M 2706 3500 
L 2619 3053 
L 1472 3053 
L 1100 1153 
Q 1081 1047 1072 975 
Q 1063 903 1063 863 
Q 1063 663 1183 572 
Q 1303 481 1569 481 
L 2150 481 
L 2053 0 
L 1503 0 
Q 991 0 739 200 
Q 488 400 488 806 
Q 488 878 497 964 
Q 506 1050 525 1153 
L 897 3053 
L 409 3053 
L 500 3500 
L 978 3500 
L 1172 4494 
L 1747 4494 
L 1556 3500 
L 2706 3500 
z
" transform="scale(0.015625)"/>
      </defs>
      <use xlink:href="#DejaVuSans-Oblique-6d"/>
      <use xlink:href="#DejaVuSans-Oblique-76" transform="translate(97.412109 -16.40625) scale(0.7)"/>
      <use xlink:href="#DejaVuSans-Oblique-63" transform="translate(138.837891 -16.40625) scale(0.7)"/>
      <use xlink:href="#DejaVuSans-Oblique-74" transform="translate(177.324219 -16.40625) scale(0.7)"/>
     </g>
    </g>
   </g>
   <g id="line2d_16">
    <path d="M 143.130607 345.476279 
L 687.332267 345.383442 
L 701.109525 345.290605 
L 802.142744 345.197767 
L 802.142744 345.197767 
" clip-path="url(#p8bb7644226)" style="fill: none; stroke: #0000ff; stroke-width: 3; stroke-linecap: square"/>
   </g>
   <g id="line2d_17">
    <path d="M 143.130607 345.476279 
L 271.718341 345.383442 
L 285.495598 345.10493 
L 294.680436 344.764527 
L 326.82737 342.938729 
L 333.715999 342.35076 
L 345.197046 340.865364 
L 354.381884 339.318077 
L 361.270513 337.956465 
L 372.751561 335.109457 
L 379.640189 333.221767 
L 386.528818 331.055566 
L 393.417447 328.610853 
L 409.490913 323.164403 
L 427.86059 315.675535 
L 432.453009 313.60217 
L 443.934056 307.846263 
L 448.526475 305.680062 
L 450.822685 304.658853 
L 457.711314 301.347659 
L 462.303733 299.08862 
L 466.896152 296.582015 
L 469.192361 295.498915 
L 476.08099 291.971101 
L 487.562038 286.896 
L 499.043085 282.285085 
L 501.339295 281.44955 
L 508.227923 278.509705 
L 512.820343 276.745798 
L 526.5976 271.608806 
L 554.152114 262.015628 
L 567.929371 257.466604 
L 574.818 255.238511 
L 581.706629 252.917581 
L 588.595257 250.689488 
L 597.780095 247.811535 
L 604.668724 245.583442 
L 639.111867 233.421767 
L 643.704286 231.812589 
L 652.889124 228.996527 
L 657.481543 227.387348 
L 685.036058 217.391876 
L 691.924687 215.163783 
L 705.701944 210.800434 
L 712.590572 208.819907 
L 719.479201 207.056 
L 735.552668 203.033054 
L 740.145087 201.82617 
L 760.810973 196.070263 
L 769.995811 193.687441 
L 783.773068 190.06679 
L 790.661697 188.117209 
L 797.550325 186.07479 
L 802.142744 184.682232 
L 802.142744 184.682232 
" clip-path="url(#p8bb7644226)" style="fill: none; stroke: #008000; stroke-width: 3; stroke-linecap: square"/>
   </g>
   <g id="line2d_18">
    <path d="M 143.130607 345.476279 
L 262.533503 345.445333 
L 278.60697 344.702636 
L 292.384227 343.867101 
L 303.865275 342.691163 
L 315.346322 340.958202 
L 331.419789 337.832682 
L 338.308418 336.192558 
L 347.493256 333.655008 
L 354.381884 331.45786 
L 361.270513 329.075039 
L 370.455351 325.640062 
L 377.34398 323.226294 
L 386.528818 319.946046 
L 398.009866 315.242294 
L 402.602285 313.230822 
L 407.194704 311.343132 
L 418.675751 305.834791 
L 427.86059 301.100093 
L 432.453009 298.779163 
L 443.934056 293.023256 
L 450.822685 289.65017 
L 460.007523 284.698853 
L 476.08099 276.064992 
L 482.969619 272.660961 
L 487.562038 270.154356 
L 501.339295 263.16062 
L 512.820343 257.157147 
L 524.30139 252.298666 
L 535.782438 247.099783 
L 544.967276 242.953054 
L 549.559695 240.941581 
L 554.152114 238.992 
L 563.336952 235.309457 
L 565.633162 234.473922 
L 579.410419 228.625178 
L 584.002838 226.458976 
L 590.891467 223.581023 
L 597.780095 220.610232 
L 611.557353 213.647441 
L 613.853562 212.254883 
L 636.815658 199.814697 
L 646.000496 194.399193 
L 652.889124 189.85017 
L 662.073963 183.32062 
L 675.85122 173.170418 
L 685.036058 165.991007 
L 694.220896 158.192682 
L 707.998153 145.845333 
L 733.256458 121.583875 
L 740.145087 114.559193 
L 753.922344 99.736185 
L 760.810973 91.968805 
L 765.403392 86.615193 
L 776.884439 72.84434 
L 788.365487 58.454573 
L 802.142744 40.413208 
L 802.142744 40.413208 
" clip-path="url(#p8bb7644226)" style="fill: none; stroke: #ff0000; stroke-width: 3; stroke-linecap: square"/>
   </g>
   <g id="line2d_19">
    <path d="M 143.130607 345.476279 
L 310.753903 345.383442 
L 354.381884 344.88831 
L 556.448324 344.795473 
L 588.595257 344.45507 
L 611.557353 344.362233 
L 632.223239 343.990884 
L 641.408077 343.836155 
L 659.777753 343.495752 
L 726.36783 341.608062 
L 767.699601 339.906046 
L 772.29202 339.596589 
L 786.069278 338.792 
L 802.142744 337.492279 
L 802.142744 337.492279 
" clip-path="url(#p8bb7644226)" style="fill: none; stroke: #ffa500; stroke-width: 3; stroke-linecap: square"/>
   </g>
   <g id="patch_3">
    <path d="M 110.18 354.76 
L 110.18 18.269787 
" style="fill: none; stroke: #000000; stroke-width: 0.8; stroke-linejoin: miter; stroke-linecap: square"/>
   </g>
   <g id="patch_4">
    <path d="M 835.093351 354.76 
L 835.093351 18.269787 
" style="fill: none; stroke: #000000; stroke-width: 0.8; stroke-linejoin: miter; stroke-linecap: square"/>
   </g>
   <g id="patch_5">
    <path d="M 110.18 354.76 
L 835.093351 354.76 
" style="fill: none; stroke: #000000; stroke-width: 0.8; stroke-linejoin: miter; stroke-linecap: square"/>
   </g>
   <g id="patch_6">
    <path d="M 110.18 18.269787 
L 835.093351 18.269787 
" style="fill: none; stroke: #000000; stroke-width: 0.8; stroke-linejoin: miter; stroke-linecap: square"/>
   </g>
  </g>
 </g>
 <defs>
  <clipPath id="p8bb7644226">
   <rect x="110.18" y="18.269787" width="724.913351" height="336.490213"/>
  </clipPath>
 </defs>
</svg>
