<?xml version="1.0" encoding="utf-8" standalone="no"?>
<!DOCTYPE svg PUBLIC "-//W3C//DTD SVG 1.1//EN"
  "http://www.w3.org/Graphics/SVG/1.1/DTD/svg11.dtd">
<svg xmlns:xlink="http://www.w3.org/1999/xlink" width="720pt" height="432pt" viewBox="0 0 720 432" xmlns="http://www.w3.org/2000/svg" version="1.1">
 <metadata>
  <rdf:RDF xmlns:dc="http://purl.org/dc/elements/1.1/" xmlns:cc="http://creativecommons.org/ns#" xmlns:rdf="http://www.w3.org/1999/02/22-rdf-syntax-ns#">
   <cc:Work>
    <dc:type rdf:resource="http://purl.org/dc/dcmitype/StillImage"/>
    <dc:date>2025-06-20T06:32:16.653970</dc:date>
    <dc:format>image/svg+xml</dc:format>
    <dc:creator>
     <cc:Agent>
      <dc:title>Matplotlib v3.7.1, https://matplotlib.org/</dc:title>
     </cc:Agent>
    </dc:creator>
   </cc:Work>
  </rdf:RDF>
 </metadata>
 <defs>
  <style type="text/css">*{stroke-linejoin: round; stroke-linecap: butt}</style>
 </defs>
 <g id="figure_1">
  <g id="patch_1">
   <path d="M 0 432 
L 720 432 
L 720 0 
L 0 0 
z
" style="fill: #ffffff"/>
  </g>
  <g id="axes_1">
   <g id="patch_2">
    <path d="M 132.05 343.96 
L 705.841396 343.96 
L 705.841396 10.8 
L 132.05 10.8 
z
" style="fill: #ffffff"/>
   </g>
   <g id="PolyCollection_1">
    <defs>
     <path id="m65ce5aa9f3" d="M 158.131427 -318.103909 
L 158.131427 -249.733769 
L 161.273768 -226.467965 
L 164.416108 -162.960615 
L 167.558449 -143.139231 
L 170.70079 -141.980646 
L 173.84313 -129.576419 
L 176.985471 -121.572987 
L 180.127811 -119.703352 
L 183.270152 -128.340159 
L 186.412493 -127.486802 
L 189.554833 -129.074381 
L 192.697174 -125.214568 
L 195.839515 -124.928824 
L 198.981855 -125.79543 
L 202.124196 -131.421581 
L 205.266536 -128.939448 
L 208.408877 -123.301871 
L 211.551218 -125.667754 
L 214.693558 -123.211742 
L 217.835899 -126.155945 
L 220.978239 -126.844624 
L 224.12058 -121.022049 
L 227.262921 -122.076397 
L 230.405261 -127.820709 
L 233.547602 -126.456373 
L 236.689943 -129.096614 
L 239.832283 -134.791971 
L 242.974624 -136.38058 
L 246.116964 -127.564291 
L 249.259305 -128.189851 
L 252.401646 -126.21603 
L 255.543986 -125.52348 
L 258.686327 -124.987184 
L 261.828667 -125.525044 
L 264.971008 -126.456373 
L 268.113349 -126.695832 
L 271.255689 -126.735873 
L 274.39803 -125.889021 
L 277.540371 -127.222543 
L 280.682711 -128.885172 
L 283.825052 -126.978083 
L 286.967392 -126.126896 
L 290.109733 -126.035773 
L 293.252074 -126.396288 
L 296.394414 -120.327626 
L 299.536755 -127.581259 
L 302.679095 -126.337312 
L 305.821436 -128.339274 
L 308.963777 -125.659015 
L 312.106117 -126.00573 
L 315.248458 -126.456373 
L 318.390799 -126.456373 
L 321.533139 -125.915602 
L 324.67548 -127.325889 
L 327.81782 -126.336202 
L 330.960161 -123.782557 
L 334.102502 -129.758222 
L 337.244842 -132.152228 
L 340.387183 -126.095859 
L 343.529523 -126.914953 
L 346.671864 -126.246073 
L 349.814205 -124.653801 
L 352.956545 -123.371277 
L 356.098886 -124.173115 
L 359.241227 -131.23777 
L 362.383567 -125.609129 
L 365.525908 -126.065816 
L 368.668248 -125.905131 
L 371.810589 -128.895798 
L 374.95293 -129.571923 
L 378.09527 -130.387544 
L 381.237611 -124.984272 
L 384.379951 -127.067001 
L 387.522292 -127.530749 
L 390.664633 -132.81472 
L 393.806973 -137.772437 
L 396.949314 -140.668819 
L 400.091655 -141.614443 
L 403.233995 -128.597299 
L 406.376336 -126.456373 
L 409.518676 -126.210353 
L 412.661017 -126.269645 
L 415.803358 -126.240432 
L 418.945698 -125.52348 
L 422.088039 -124.176276 
L 425.230379 -125.525044 
L 428.37272 -130.054521 
L 431.515061 -125.945644 
L 434.657401 -126.791115 
L 437.799742 -127.299587 
L 440.942083 -127.834763 
L 444.084423 -126.541347 
L 447.226764 -125.637042 
L 450.369104 -125.134487 
L 453.511445 -123.461267 
L 456.653786 -125.497563 
L 459.796126 -125.946532 
L 462.938467 -127.46966 
L 466.080807 -126.699575 
L 469.223148 -126.366245 
L 472.365489 -125.94924 
L 475.507829 -127.155928 
L 478.65017 -125.464958 
L 481.792511 -127.711639 
L 484.934851 -125.044358 
L 488.077192 -126.456373 
L 491.219532 -126.456373 
L 494.361873 -125.645216 
L 497.504214 -128.495752 
L 500.646554 -126.656664 
L 503.788895 -127.538073 
L 506.931235 -124.14853 
L 510.073576 -127.596974 
L 513.215917 -126.456373 
L 516.358257 -139.376381 
L 519.500598 -132.236176 
L 522.642939 -130.539477 
L 525.785279 -124.623758 
L 528.92762 -123.911575 
L 532.06996 -124.601005 
L 535.212301 -126.276116 
L 538.354642 -125.404873 
L 541.496982 -126.466271 
L 544.639323 -128.270092 
L 547.781664 -128.068885 
L 550.924004 -127.830021 
L 554.066345 -127.508271 
L 557.208685 -125.224615 
L 560.351026 -125.37483 
L 563.493367 -125.705301 
L 566.635707 -127.829263 
L 569.778048 -126.581181 
L 572.920388 -125.495001 
L 576.062729 -126.780452 
L 579.20507 -125.881539 
L 582.34741 -124.0229 
L 585.489751 -126.772736 
L 588.632092 -126.095859 
L 591.774432 -126.306159 
L 594.916773 -129.23507 
L 598.059113 -126.185987 
L 601.201454 -125.495001 
L 604.343795 -123.091571 
L 607.486135 -123.761797 
L 610.628476 -125.855516 
L 613.770816 -125.109144 
L 616.913157 -126.756586 
L 620.055498 -126.841954 
L 623.197838 -126.739913 
L 626.340179 -126.616087 
L 629.48252 -128.939179 
L 632.62486 -128.002264 
L 635.767201 -132.20356 
L 638.909541 -127.186513 
L 642.051882 -128.174409 
L 645.194223 -127.396997 
L 648.336563 -125.945644 
L 651.478904 -126.456373 
L 654.621244 -126.456373 
L 657.763585 -126.456373 
L 660.905926 -125.827548 
L 664.048266 -125.541952 
L 667.190607 -129.854145 
L 670.332948 -125.945644 
L 673.475288 -125.975687 
L 676.617629 -125.014315 
L 679.759969 -128.571229 
L 679.759969 -140.007981 
L 679.759969 -140.007981 
L 676.617629 -134.861304 
L 673.475288 -129.258017 
L 670.332948 -129.43312 
L 667.190607 -152.070571 
L 664.048266 -137.524984 
L 660.905926 -130.856755 
L 657.763585 -126.456373 
L 654.621244 -126.456373 
L 651.478904 -126.456373 
L 648.336563 -129.43312 
L 645.194223 -132.043443 
L 642.051882 -136.778305 
L 638.909541 -131.528627 
L 635.767201 -161.035824 
L 632.62486 -153.632332 
L 629.48252 -142.396168 
L 626.340179 -128.037378 
L 623.197838 -129.94439 
L 620.055498 -136.224983 
L 616.913157 -131.958554 
L 613.770816 -136.507193 
L 610.628476 -129.958428 
L 607.486135 -145.832833 
L 604.343795 -146.067879 
L 601.201454 -132.059661 
L 598.059113 -128.032298 
L 594.916773 -142.970637 
L 591.774432 -127.331887 
L 588.632092 -128.557606 
L 585.489751 -128.751088 
L 582.34741 -140.639694 
L 579.20507 -132.688541 
L 576.062729 -130.77421 
L 572.920388 -132.059661 
L 569.778048 -133.874677 
L 566.635707 -142.055486 
L 563.493367 -130.833942 
L 560.351026 -132.760071 
L 557.208685 -133.635585 
L 554.066345 -133.672887 
L 550.924004 -139.73377 
L 547.781664 -133.982632 
L 544.639323 -139.438759 
L 541.496982 -140.807401 
L 538.354642 -132.584969 
L 535.212301 -127.50699 
L 532.06996 -138.756051 
L 528.92762 -144.957755 
L 525.785279 -137.13764 
L 522.642939 -141.81129 
L 519.500598 -156.941533 
L 516.358257 -148.060609 
L 513.215917 -126.456373 
L 510.073576 -133.439124 
L 506.931235 -141.384424 
L 503.788895 -140.170779 
L 500.646554 -133.364015 
L 497.504214 -138.342741 
L 494.361873 -131.184147 
L 491.219532 -126.456373 
L 488.077192 -126.456373 
L 484.934851 -134.686201 
L 481.792511 -132.88928 
L 478.65017 -132.234763 
L 475.507829 -150.271933 
L 472.365489 -135.086859 
L 469.223148 -126.981682 
L 466.080807 -129.549549 
L 462.938467 -132.405959 
L 459.796126 -130.882831 
L 456.653786 -132.782398 
L 453.511445 -146.858661 
L 450.369104 -134.160893 
L 447.226764 -135.689176 
L 444.084423 -126.951639 
L 440.942083 -144.225884 
L 437.799742 -141.279624 
L 434.657401 -129.458008 
L 431.515061 -129.43312 
L 428.37272 -140.845647 
L 425.230379 -131.884558 
L 422.088039 -140.486319 
L 418.945698 -135.512618 
L 415.803358 -132.619768 
L 412.661017 -145.500882 
L 409.518676 -133.085027 
L 406.376336 -126.456373 
L 403.233995 -170.29942 
L 400.091655 -156.992156 
L 396.949314 -148.36383 
L 393.806973 -145.312759 
L 390.664633 -143.452662 
L 387.522292 -134.520768 
L 384.379951 -142.962807 
L 381.237611 -135.036407 
L 378.09527 -134.71023 
L 374.95293 -145.8251 
L 371.810589 -132.28536 
L 368.668248 -140.208062 
L 365.525908 -128.732709 
L 362.383567 -139.923824 
L 359.241227 -157.649819 
L 356.098886 -139.764181 
L 352.956545 -147.383831 
L 349.814205 -136.962537 
L 346.671864 -127.682092 
L 343.529523 -137.457521 
L 340.387183 -128.557606 
L 337.244842 -146.726232 
L 334.102502 -148.685058 
L 330.960161 -142.040516 
L 327.81782 -127.156784 
L 324.67548 -133.565149 
L 321.533139 -129.608222 
L 318.390799 -126.456373 
L 315.248458 -126.456373 
L 312.106117 -129.082914 
L 308.963777 -136.827682 
L 305.821436 -137.483799 
L 302.679095 -133.393247 
L 299.536755 -129.538223 
L 296.394414 -162.17733 
L 293.252074 -126.806579 
L 290.109733 -128.907812 
L 286.967392 -129.106808 
L 283.825052 -130.721639 
L 280.682711 -138.53356 
L 277.540371 -132.072837 
L 274.39803 -134.856958 
L 271.255689 -129.223131 
L 268.113349 -131.00389 
L 264.971008 -126.456373 
L 261.828667 -131.884558 
L 258.686327 -135.758794 
L 255.543986 -135.512618 
L 252.401646 -127.857195 
L 249.259305 -132.556128 
L 246.116964 -144.931535 
L 242.974624 -147.429914 
L 239.832283 -162.364029 
L 236.689943 -155.58424 
L 233.547602 -126.456373 
L 230.405261 -136.261646 
L 227.262921 -153.465686 
L 224.12058 -158.87183 
L 220.978239 -144.490724 
L 217.835899 -128.207401 
L 214.693558 -145.367468 
L 211.551218 -135.368344 
L 208.408877 -144.84216 
L 205.266536 -131.081231 
L 202.124196 -134.401493 
L 198.981855 -130.308633 
L 195.839515 -136.832573 
L 192.697174 -140.173326 
L 189.554833 -141.970846 
L 186.412493 -138.336271 
L 183.270152 -141.54459 
L 180.127811 -167.298459 
L 176.985471 -188.783459 
L 173.84313 -171.351137 
L 170.70079 -193.326095 
L 167.558449 -197.099545 
L 164.416108 -217.024559 
L 161.273768 -307.135589 
L 158.131427 -318.103909 
z
" style="stroke: #0000ff; stroke-opacity: 0.3"/>
    </defs>
    <g clip-path="url(#p443206758d)">
     <use xlink:href="#m65ce5aa9f3" x="0" y="432" style="fill: #0000ff; fill-opacity: 0.3; stroke: #0000ff; stroke-opacity: 0.3"/>
    </g>
   </g>
   <g id="PolyCollection_2">
    <defs>
     <path id="mec8573ab62" d="M 158.131427 -281.897846 
L 158.131427 -238.070082 
L 161.273768 -215.056004 
L 164.416108 -211.504297 
L 167.558449 -135.796482 
L 170.70079 -151.130849 
L 173.84313 -148.27882 
L 176.985471 -140.38021 
L 180.127811 -140.362751 
L 183.270152 -131.728586 
L 186.412493 -139.125448 
L 189.554833 -125.590851 
L 192.697174 -122.220327 
L 195.839515 -131.546582 
L 198.981855 -134.925956 
L 202.124196 -136.687791 
L 205.266536 -128.910731 
L 208.408877 -129.617435 
L 211.551218 -131.087344 
L 214.693558 -127.831756 
L 217.835899 -133.199749 
L 220.978239 -127.248955 
L 224.12058 -127.695523 
L 227.262921 -131.84422 
L 230.405261 -127.603941 
L 233.547602 -124.150033 
L 236.689943 -128.638621 
L 239.832283 -123.916229 
L 242.974624 -128.587262 
L 246.116964 -122.610885 
L 249.259305 -122.821185 
L 252.401646 -127.912156 
L 255.543986 -126.42633 
L 258.686327 -124.924187 
L 261.828667 -127.587572 
L 264.971008 -125.134487 
L 268.113349 -126.855501 
L 271.255689 -126.947683 
L 274.39803 -125.475009 
L 277.540371 -128.924811 
L 280.682711 -126.456373 
L 283.825052 -126.154207 
L 286.967392 -127.88892 
L 290.109733 -126.718196 
L 293.252074 -126.456373 
L 296.394414 -128.781755 
L 299.536755 -123.902729 
L 302.679095 -127.877466 
L 305.821436 -127.368446 
L 308.963777 -124.718246 
L 312.106117 -124.26861 
L 315.248458 -129.639707 
L 318.390799 -125.516843 
L 321.533139 -127.060886 
L 324.67548 -126.363998 
L 327.81782 -126.548674 
L 330.960161 -126.396288 
L 334.102502 -125.915602 
L 337.244842 -126.42633 
L 340.387183 -126.220213 
L 343.529523 -127.29978 
L 346.671864 -126.260151 
L 349.814205 -126.16204 
L 352.956545 -127.563213 
L 356.098886 -128.504207 
L 359.241227 -125.704131 
L 362.383567 -126.037221 
L 365.525908 -126.562862 
L 368.668248 -126.095859 
L 371.810589 -126.388162 
L 374.95293 -125.822511 
L 378.09527 -127.18726 
L 381.237611 -125.37483 
L 384.379951 -125.420319 
L 387.522292 -128.05445 
L 390.664633 -125.989333 
L 393.806973 -125.344787 
L 396.949314 -124.47657 
L 400.091655 -123.234236 
L 403.233995 -128.801765 
L 406.376336 -135.090649 
L 409.518676 -122.286649 
L 412.661017 -124.773972 
L 415.803358 -124.533629 
L 418.945698 -123.121614 
L 422.088039 -129.396717 
L 425.230379 -130.181531 
L 428.37272 -125.431799 
L 431.515061 -128.037537 
L 434.657401 -127.298436 
L 437.799742 -125.525044 
L 440.942083 -126.737028 
L 444.084423 -126.065816 
L 447.226764 -123.752514 
L 450.369104 -126.456373 
L 453.511445 -124.683844 
L 456.653786 -124.776106 
L 459.796126 -123.211742 
L 462.938467 -126.531324 
L 466.080807 -126.534861 
L 469.223148 -128.567753 
L 472.365489 -120.417755 
L 475.507829 -115.767411 
L 478.65017 -124.814074 
L 481.792511 -123.040479 
L 484.934851 -121.61947 
L 488.077192 -116.442309 
L 491.219532 -127.797779 
L 494.361873 -122.230937 
L 497.504214 -128.346183 
L 500.646554 -128.853735 
L 503.788895 -128.806332 
L 506.931235 -127.122048 
L 510.073576 -126.969122 
L 513.215917 -125.37483 
L 516.358257 -127.18726 
L 519.500598 -124.4435 
L 522.642939 -127.306992 
L 525.785279 -126.571398 
L 528.92762 -129.483825 
L 532.06996 -124.842888 
L 535.212301 -132.145087 
L 538.354642 -125.883391 
L 541.496982 -123.632343 
L 544.639323 -121.19887 
L 547.781664 -126.804416 
L 550.924004 -127.650194 
L 554.066345 -130.021543 
L 557.208685 -132.253113 
L 560.351026 -130.505272 
L 563.493367 -127.112496 
L 566.635707 -125.168322 
L 569.778048 -121.709599 
L 572.920388 -121.469256 
L 576.062729 -117.533638 
L 579.20507 -124.741596 
L 582.34741 -125.884781 
L 585.489751 -125.922116 
L 588.632092 -127.366903 
L 591.774432 -119.246083 
L 594.916773 -123.011252 
L 598.059113 -128.196477 
L 601.201454 -136.149802 
L 604.343795 -123.692429 
L 607.486135 -127.987208 
L 610.628476 -119.967112 
L 613.770816 -122.339197 
L 616.913157 -123.668137 
L 620.055498 -124.851873 
L 623.197838 -123.141246 
L 626.340179 -135.267612 
L 629.48252 -131.437803 
L 632.62486 -124.611305 
L 635.767201 -137.546737 
L 638.909541 -136.100137 
L 642.051882 -131.753191 
L 645.194223 -137.041745 
L 648.336563 -130.434917 
L 651.478904 -129.006643 
L 654.621244 -118.945654 
L 657.763585 -134.792641 
L 660.905926 -135.810233 
L 664.048266 -127.965506 
L 667.190607 -125.944018 
L 670.332948 -127.428106 
L 673.475288 -136.024926 
L 676.617629 -124.922243 
L 679.759969 -121.893253 
L 679.759969 -153.79389 
L 679.759969 -153.79389 
L 676.617629 -141.19095 
L 673.475288 -142.853533 
L 670.332948 -128.675958 
L 667.190607 -131.610643 
L 664.048266 -140.758765 
L 660.905926 -186.296062 
L 657.763585 -167.440454 
L 654.621244 -170.232055 
L 651.478904 -176.562828 
L 648.336563 -161.208809 
L 645.194223 -173.894941 
L 642.051882 -193.39936 
L 638.909541 -201.96274 
L 635.767201 -172.809709 
L 632.62486 -158.03871 
L 629.48252 -155.564008 
L 626.340179 -152.459499 
L 623.197838 -188.23062 
L 620.055498 -148.659372 
L 616.913157 -144.185774 
L 613.770816 -164.952734 
L 610.628476 -164.278562 
L 607.486135 -155.968346 
L 604.343795 -142.565824 
L 601.201454 -138.231802 
L 598.059113 -136.756237 
L 594.916773 -149.484575 
L 591.774432 -168.481028 
L 588.632092 -151.946736 
L 585.489751 -141.206496 
L 582.34741 -131.960001 
L 579.20507 -142.967256 
L 576.062729 -178.461883 
L 572.920388 -155.523426 
L 569.778048 -154.122604 
L 566.635707 -136.883195 
L 563.493367 -144.367912 
L 560.351026 -165.925429 
L 557.208685 -148.075945 
L 554.066345 -141.748984 
L 550.924004 -134.401323 
L 547.781664 -135.102042 
L 544.639323 -157.099351 
L 541.496982 -142.91603 
L 538.354642 -139.649563 
L 535.212301 -140.495799 
L 532.06996 -143.156083 
L 528.92762 -152.440892 
L 525.785279 -150.421284 
L 522.642939 -136.920423 
L 519.500598 -138.188256 
L 516.358257 -130.947641 
L 513.215917 -132.760071 
L 510.073576 -137.403353 
L 506.931235 -131.593093 
L 503.788895 -147.461051 
L 500.646554 -143.787151 
L 497.504214 -137.476891 
L 494.361873 -154.036446 
L 491.219532 -150.935621 
L 488.077192 -189.997522 
L 484.934851 -154.647912 
L 481.792511 -162.945913 
L 478.65017 -183.511534 
L 475.507829 -208.514781 
L 472.365489 -161.652021 
L 469.223148 -139.721337 
L 466.080807 -136.241956 
L 462.938467 -128.702381 
L 459.796126 -145.367468 
L 456.653786 -141.337087 
L 453.511445 -136.787434 
L 450.369104 -126.456373 
L 447.226764 -142.215619 
L 444.084423 -128.732709 
L 440.942083 -156.203107 
L 437.799742 -131.884558 
L 434.657401 -131.416705 
L 431.515061 -146.924307 
L 428.37272 -154.171959 
L 425.230379 -152.903664 
L 422.088039 -137.151655 
L 418.945698 -145.892776 
L 415.803358 -137.662948 
L 412.661017 -136.262126 
L 409.518676 -152.240015 
L 406.376336 -146.543948 
L 403.233995 -144.70948 
L 400.091655 -158.255301 
L 396.949314 -150.195154 
L 393.806973 -132.935174 
L 390.664633 -133.451107 
L 387.522292 -143.280898 
L 384.379951 -138.952156 
L 381.237611 -132.760071 
L 378.09527 -130.947641 
L 374.95293 -133.037689 
L 371.810589 -138.564552 
L 368.668248 -128.557606 
L 365.525908 -130.55662 
L 362.383567 -129.631663 
L 359.241227 -133.736309 
L 356.098886 -142.105841 
L 352.956545 -138.40492 
L 349.814205 -132.408041 
L 346.671864 -130.424152 
L 343.529523 -140.989311 
L 340.387183 -149.46693 
L 337.244842 -126.631476 
L 334.102502 -129.608222 
L 330.960161 -126.806579 
L 327.81782 -134.777544 
L 324.67548 -127.709228 
L 321.533139 -133.104853 
L 318.390799 -141.176589 
L 315.248458 -138.214204 
L 312.106117 -140.684104 
L 308.963777 -140.959767 
L 305.821436 -144.98232 
L 302.679095 -138.961026 
L 299.536755 -141.340105 
L 296.394414 -140.667814 
L 293.252074 -126.456373 
L 290.109733 -130.836466 
L 286.967392 -131.9867 
L 283.825052 -129.659737 
L 280.682711 -126.456373 
L 277.540371 -131.095868 
L 274.39803 -134.400611 
L 271.255689 -130.171799 
L 268.113349 -133.020118 
L 264.971008 -134.160893 
L 261.828667 -132.288048 
L 258.686327 -135.386612 
L 255.543986 -126.631476 
L 252.401646 -135.00972 
L 249.259305 -147.643803 
L 246.116964 -148.869522 
L 242.974624 -171.760056 
L 239.832283 -170.048454 
L 236.689943 -140.230709 
L 233.547602 -145.009417 
L 230.405261 -131.691439 
L 227.262921 -151.966275 
L 224.12058 -137.112131 
L 220.978239 -149.308547 
L 217.835899 -135.959701 
L 214.693558 -143.503591 
L 211.551218 -137.346807 
L 208.408877 -154.338119 
L 205.266536 -145.615933 
L 202.124196 -192.671496 
L 198.981855 -153.526453 
L 195.839515 -148.782476 
L 192.697174 -151.145858 
L 189.554833 -138.636563 
L 186.412493 -170.940879 
L 183.270152 -154.692985 
L 180.127811 -152.876633 
L 176.985471 -159.676987 
L 173.84313 -163.383166 
L 170.70079 -186.06167 
L 167.558449 -190.516548 
L 164.416108 -224.473978 
L 161.273768 -251.820019 
L 158.131427 -281.897846 
z
" style="stroke: #008000; stroke-opacity: 0.3"/>
    </defs>
    <g clip-path="url(#p443206758d)">
     <use xlink:href="#mec8573ab62" x="0" y="432" style="fill: #008000; fill-opacity: 0.3; stroke: #008000; stroke-opacity: 0.3"/>
    </g>
   </g>
   <g id="PolyCollection_3">
    <defs>
     <path id="m38adc1da8b" d="M 158.131427 -399.992865 
L 158.131427 -384.274106 
L 161.273768 -395.118974 
L 164.416108 -378.731296 
L 167.558449 -374.874232 
L 170.70079 -387.078502 
L 173.84313 -366.425956 
L 176.985471 -353.568903 
L 180.127811 -356.214153 
L 183.270152 -325.852023 
L 186.412493 -306.256317 
L 189.554833 -299.800698 
L 192.697174 -247.179796 
L 195.839515 -231.733696 
L 198.981855 -236.176827 
L 202.124196 -210.622579 
L 205.266536 -232.227347 
L 208.408877 -236.523842 
L 211.551218 -250.276495 
L 214.693558 -253.777217 
L 217.835899 -237.958605 
L 220.978239 -216.479888 
L 224.12058 -213.33004 
L 227.262921 -215.995535 
L 230.405261 -223.319972 
L 233.547602 -185.398266 
L 236.689943 -212.14926 
L 239.832283 -204.738046 
L 242.974624 -195.005152 
L 246.116964 -178.943826 
L 249.259305 -226.203799 
L 252.401646 -185.090211 
L 255.543986 -197.679908 
L 258.686327 -154.29135 
L 261.828667 -165.642493 
L 264.971008 -158.16028 
L 268.113349 -154.159934 
L 271.255689 -160.095907 
L 274.39803 -142.733654 
L 277.540371 -141.137796 
L 280.682711 -150.992045 
L 283.825052 -169.824545 
L 286.967392 -152.840273 
L 290.109733 -144.366564 
L 293.252074 -156.783957 
L 296.394414 -151.306987 
L 299.536755 -134.536332 
L 302.679095 -141.842176 
L 305.821436 -146.574463 
L 308.963777 -142.045112 
L 312.106117 -155.234156 
L 315.248458 -151.007509 
L 318.390799 -144.020571 
L 321.533139 -147.27322 
L 324.67548 -147.655221 
L 327.81782 -135.147323 
L 330.960161 -134.150614 
L 334.102502 -132.172632 
L 337.244842 -152.508122 
L 340.387183 -151.635961 
L 343.529523 -138.974796 
L 346.671864 -133.18446 
L 349.814205 -139.053727 
L 352.956545 -140.409407 
L 356.098886 -156.155156 
L 359.241227 -148.794805 
L 362.383567 -137.965704 
L 365.525908 -140.986254 
L 368.668248 -136.648934 
L 371.810589 -138.428593 
L 374.95293 -127.096546 
L 378.09527 -129.655289 
L 381.237611 -126.666821 
L 384.379951 -127.774434 
L 387.522292 -122.301239 
L 390.664633 -129.959806 
L 393.806973 -135.47471 
L 396.949314 -136.500883 
L 400.091655 -138.941654 
L 403.233995 -135.362173 
L 406.376336 -134.431933 
L 409.518676 -136.497252 
L 412.661017 -132.918713 
L 415.803358 -117.544582 
L 418.945698 -113.499235 
L 422.088039 -111.91562 
L 425.230379 -121.048352 
L 428.37272 -116.157439 
L 431.515061 -109.361976 
L 434.657401 -111.358794 
L 437.799742 -115.985947 
L 440.942083 -115.489633 
L 444.084423 -126.739142 
L 447.226764 -125.57888 
L 450.369104 -116.83043 
L 453.511445 -114.539429 
L 456.653786 -112.491542 
L 459.796126 -116.472337 
L 462.938467 -120.295454 
L 466.080807 -116.322122 
L 469.223148 -112.170696 
L 472.365489 -130.327865 
L 475.507829 -108.500083 
L 478.65017 -114.023361 
L 481.792511 -119.795684 
L 484.934851 -130.508961 
L 488.077192 -128.158959 
L 491.219532 -109.469476 
L 494.361873 -103.183636 
L 497.504214 -104.762276 
L 500.646554 -108.807797 
L 503.788895 -109.342683 
L 506.931235 -108.698796 
L 510.073576 -109.97008 
L 513.215917 -106.808331 
L 516.358257 -109.650836 
L 519.500598 -111.344806 
L 522.642939 -111.655481 
L 525.785279 -108.939074 
L 528.92762 -107.633108 
L 532.06996 -111.225783 
L 535.212301 -107.919917 
L 538.354642 -134.093177 
L 541.496982 -109.305468 
L 544.639323 -118.889568 
L 547.781664 -111.945663 
L 550.924004 -122.415692 
L 554.066345 -114.769694 
L 557.208685 -107.168845 
L 560.351026 -109.851145 
L 563.493367 -118.460325 
L 566.635707 -122.485095 
L 569.778048 -114.755515 
L 572.920388 -118.065197 
L 576.062729 -120.742731 
L 579.20507 -126.423773 
L 582.34741 -122.746727 
L 585.489751 -123.325276 
L 588.632092 -121.927336 
L 591.774432 -117.804024 
L 594.916773 -123.522409 
L 598.059113 -121.183668 
L 601.201454 -119.558568 
L 604.343795 -126.287185 
L 607.486135 -127.997242 
L 610.628476 -125.725259 
L 613.770816 -126.26057 
L 616.913157 -121.919899 
L 620.055498 -127.809521 
L 623.197838 -121.127347 
L 626.340179 -130.217641 
L 629.48252 -127.169748 
L 632.62486 -126.233453 
L 635.767201 -126.955473 
L 638.909541 -127.466896 
L 642.051882 -124.838826 
L 645.194223 -127.310538 
L 648.336563 -130.964639 
L 651.478904 -126.817924 
L 654.621244 -125.074401 
L 657.763585 -121.228913 
L 660.905926 -126.839328 
L 664.048266 -124.293286 
L 667.190607 -126.276116 
L 670.332948 -126.674807 
L 673.475288 -125.915602 
L 676.617629 -126.334735 
L 679.759969 -127.715202 
L 679.759969 -137.672692 
L 679.759969 -137.672692 
L 676.617629 -127.88355 
L 673.475288 -129.608222 
L 670.332948 -139.148267 
L 667.190607 -127.50699 
L 664.048266 -139.06377 
L 660.905926 -129.409795 
L 657.763585 -156.924248 
L 654.621244 -134.511099 
L 651.478904 -136.394072 
L 648.336563 -141.096008 
L 645.194223 -131.549662 
L 642.051882 -137.357751 
L 638.909541 -132.843903 
L 635.767201 -130.01895 
L 632.62486 -136.108183 
L 629.48252 -128.063957 
L 626.340179 -141.988066 
L 623.197838 -165.584345 
L 620.055498 -152.954716 
L 616.913157 -152.896885 
L 613.770816 -143.624179 
L 610.628476 -156.489577 
L 607.486135 -147.254722 
L 604.343795 -138.52047 
L 601.201454 -169.61914 
L 598.059113 -161.611408 
L 594.916773 -147.957998 
L 591.774432 -176.885959 
L 588.632092 -173.778066 
L 585.489751 -185.725632 
L 582.34741 -165.850743 
L 579.20507 -195.682521 
L 576.062729 -185.26192 
L 572.920388 -205.346636 
L 569.778048 -198.357069 
L 566.635707 -230.518947 
L 563.493367 -196.392977 
L 560.351026 -233.578947 
L 557.208685 -238.872324 
L 554.066345 -194.571334 
L 550.924004 -201.576381 
L 547.781664 -211.03099 
L 544.639323 -214.386335 
L 541.496982 -227.161752 
L 538.354642 -253.144989 
L 535.212301 -234.494756 
L 532.06996 -240.182601 
L 528.92762 -239.133361 
L 525.785279 -235.216317 
L 522.642939 -214.947668 
L 519.500598 -214.533045 
L 516.358257 -239.14647 
L 513.215917 -240.973557 
L 510.073576 -273.78665 
L 506.931235 -236.617074 
L 503.788895 -237.278726 
L 500.646554 -233.026637 
L 497.504214 -269.130384 
L 494.361873 -264.326391 
L 491.219532 -265.583664 
L 488.077192 -245.733702 
L 484.934851 -247.445375 
L 481.792511 -253.661797 
L 478.65017 -209.243412 
L 475.507829 -241.457702 
L 472.365489 -222.821237 
L 469.223148 -224.441583 
L 466.080807 -198.096001 
L 462.938467 -194.267728 
L 459.796126 -189.822434 
L 456.653786 -257.484502 
L 453.511445 -218.881534 
L 450.369104 -186.998324 
L 447.226764 -197.107654 
L 444.084423 -233.372833 
L 440.942083 -207.34196 
L 437.799742 -239.484113 
L 434.657401 -235.987914 
L 431.515061 -226.089825 
L 428.37272 -232.929987 
L 425.230379 -227.313775 
L 422.088039 -211.206093 
L 418.945698 -207.156461 
L 415.803358 -203.256174 
L 412.661017 -187.156744 
L 409.518676 -194.457693 
L 406.376336 -190.285438 
L 403.233995 -192.836635 
L 400.091655 -217.833944 
L 396.949314 -206.34897 
L 393.806973 -191.41856 
L 390.664633 -211.729568 
L 387.522292 -204.011791 
L 384.379951 -200.859553 
L 381.237611 -184.124805 
L 378.09527 -190.565227 
L 374.95293 -202.69792 
L 371.810589 -209.933534 
L 368.668248 -197.207208 
L 365.525908 -219.99608 
L 362.383567 -198.791635 
L 359.241227 -182.3052 
L 356.098886 -188.725534 
L 352.956545 -193.011556 
L 349.814205 -192.481457 
L 346.671864 -209.375273 
L 343.529523 -200.68374 
L 340.387183 -206.009996 
L 337.244842 -199.625561 
L 334.102502 -206.035306 
L 330.960161 -171.418858 
L 327.81782 -179.2708 
L 324.67548 -230.299115 
L 321.533139 -216.61031 
L 318.390799 -222.328977 
L 315.248458 -188.796087 
L 312.106117 -203.42722 
L 308.963777 -244.322695 
L 305.821436 -243.85502 
L 302.679095 -205.794652 
L 299.536755 -191.921758 
L 296.394414 -220.699895 
L 293.252074 -224.651816 
L 290.109733 -254.041211 
L 286.967392 -220.036968 
L 283.825052 -238.882479 
L 280.682711 -211.876067 
L 277.540371 -224.921632 
L 274.39803 -231.304066 
L 271.255689 -215.827591 
L 268.113349 -223.794403 
L 264.971008 -238.361717 
L 261.828667 -226.237588 
L 258.686327 -240.634988 
L 255.543986 -228.579358 
L 252.401646 -269.310665 
L 249.259305 -259.239885 
L 246.116964 -260.225766 
L 242.974624 -254.173569 
L 239.832283 -275.628543 
L 236.689943 -297.374359 
L 233.547602 -274.659945 
L 230.405261 -303.465768 
L 227.262921 -293.237964 
L 224.12058 -269.067387 
L 220.978239 -306.679357 
L 217.835899 -312.616951 
L 214.693558 -346.408807 
L 211.551218 -333.227647 
L 208.408877 -332.329255 
L 205.266536 -340.977545 
L 202.124196 -336.036361 
L 198.981855 -369.521471 
L 195.839515 -393.982861 
L 192.697174 -378.391701 
L 189.554833 -390.902672 
L 186.412493 -394.021002 
L 183.270152 -404.597745 
L 180.127811 -403.827824 
L 176.985471 -387.325174 
L 173.84313 -403.189971 
L 170.70079 -400.379786 
L 167.558449 -406.056364 
L 164.416108 -399.298102 
L 161.273768 -405.394701 
L 158.131427 -399.992865 
z
" style="stroke: #ff0000; stroke-opacity: 0.3"/>
    </defs>
    <g clip-path="url(#p443206758d)">
     <use xlink:href="#m38adc1da8b" x="0" y="432" style="fill: #ff0000; fill-opacity: 0.3; stroke: #ff0000; stroke-opacity: 0.3"/>
    </g>
   </g>
   <g id="PolyCollection_4">
    <defs>
     <path id="m7a55459c6e" d="M 158.131427 -364.542741 
L 158.131427 -341.827092 
L 161.273768 -319.860502 
L 164.416108 -313.447331 
L 167.558449 -265.403345 
L 170.70079 -238.359881 
L 173.84313 -198.693513 
L 176.985471 -230.495683 
L 180.127811 -189.488007 
L 183.270152 -189.029526 
L 186.412493 -158.799569 
L 189.554833 -178.787449 
L 192.697174 -163.407419 
L 195.839515 -178.502816 
L 198.981855 -171.433207 
L 202.124196 -145.571411 
L 205.266536 -172.408055 
L 208.408877 -163.861682 
L 211.551218 -193.003093 
L 214.693558 -162.705674 
L 217.835899 -179.091565 
L 220.978239 -170.146439 
L 224.12058 -156.311755 
L 227.262921 -154.185047 
L 230.405261 -155.619463 
L 233.547602 -152.66718 
L 236.689943 -142.632325 
L 239.832283 -162.595683 
L 242.974624 -186.177344 
L 246.116964 -156.900836 
L 249.259305 -147.365271 
L 252.401646 -160.090758 
L 255.543986 -151.932921 
L 258.686327 -160.155171 
L 261.828667 -148.605052 
L 264.971008 -136.759005 
L 268.113349 -150.888808 
L 271.255689 -140.631835 
L 274.39803 -150.771466 
L 277.540371 -151.870842 
L 280.682711 -141.315729 
L 283.825052 -155.258007 
L 286.967392 -149.008179 
L 290.109733 -148.806488 
L 293.252074 -156.640958 
L 296.394414 -145.874607 
L 299.536755 -140.498426 
L 302.679095 -135.776529 
L 305.821436 -143.227281 
L 308.963777 -139.656135 
L 312.106117 -146.454315 
L 315.248458 -152.627789 
L 318.390799 -153.763101 
L 321.533139 -150.63609 
L 324.67548 -143.718785 
L 327.81782 -146.167657 
L 330.960161 -141.163782 
L 334.102502 -137.281046 
L 337.244842 -147.508041 
L 340.387183 -143.534228 
L 343.529523 -137.151652 
L 346.671864 -141.785399 
L 349.814205 -155.90449 
L 352.956545 -132.658388 
L 356.098886 -147.055612 
L 359.241227 -155.417645 
L 362.383567 -132.710608 
L 365.525908 -138.008939 
L 368.668248 -141.650861 
L 371.810589 -134.462701 
L 374.95293 -142.823777 
L 378.09527 -138.199171 
L 381.237611 -137.991351 
L 384.379951 -149.956975 
L 387.522292 -154.085173 
L 390.664633 -142.307496 
L 393.806973 -141.795058 
L 396.949314 -137.559854 
L 400.091655 -146.624732 
L 403.233995 -134.965192 
L 406.376336 -144.516919 
L 409.518676 -133.180111 
L 412.661017 -136.813443 
L 415.803358 -138.56004 
L 418.945698 -135.316767 
L 422.088039 -146.22548 
L 425.230379 -125.983382 
L 428.37272 -133.902616 
L 431.515061 -131.294237 
L 434.657401 -137.363695 
L 437.799742 -148.28328 
L 440.942083 -139.762126 
L 444.084423 -134.687221 
L 447.226764 -134.763423 
L 450.369104 -132.581398 
L 453.511445 -130.133969 
L 456.653786 -133.096327 
L 459.796126 -144.336516 
L 462.938467 -146.223671 
L 466.080807 -137.517258 
L 469.223148 -138.366759 
L 472.365489 -139.523183 
L 475.507829 -128.37294 
L 478.65017 -143.532108 
L 481.792511 -136.13719 
L 484.934851 -129.890266 
L 488.077192 -140.465941 
L 491.219532 -133.009561 
L 494.361873 -142.252133 
L 497.504214 -134.329723 
L 500.646554 -140.090713 
L 503.788895 -130.191726 
L 506.931235 -144.856215 
L 510.073576 -139.822764 
L 513.215917 -135.93931 
L 516.358257 -141.546505 
L 519.500598 -124.195938 
L 522.642939 -140.409082 
L 525.785279 -143.548942 
L 528.92762 -131.872778 
L 532.06996 -129.669962 
L 535.212301 -136.723332 
L 538.354642 -139.604931 
L 541.496982 -130.42139 
L 544.639323 -138.704461 
L 547.781664 -122.596945 
L 550.924004 -136.511324 
L 554.066345 -134.10029 
L 557.208685 -135.153504 
L 560.351026 -135.571021 
L 563.493367 -130.604144 
L 566.635707 -128.132584 
L 569.778048 -137.825335 
L 572.920388 -131.095051 
L 576.062729 -127.902781 
L 579.20507 -127.01792 
L 582.34741 -143.799833 
L 585.489751 -129.661151 
L 588.632092 -139.047244 
L 591.774432 -128.916313 
L 594.916773 -133.002661 
L 598.059113 -127.163063 
L 601.201454 -134.500724 
L 604.343795 -131.531384 
L 607.486135 -128.612285 
L 610.628476 -126.564656 
L 613.770816 -122.265379 
L 616.913157 -128.680104 
L 620.055498 -137.18938 
L 623.197838 -129.949113 
L 626.340179 -128.70912 
L 629.48252 -132.473995 
L 632.62486 -124.62079 
L 635.767201 -142.840093 
L 638.909541 -142.245195 
L 642.051882 -137.214388 
L 645.194223 -134.226369 
L 648.336563 -131.612515 
L 651.478904 -130.54492 
L 654.621244 -129.650609 
L 657.763585 -130.962161 
L 660.905926 -126.90665 
L 664.048266 -135.932994 
L 667.190607 -136.519224 
L 670.332948 -131.668305 
L 673.475288 -132.035524 
L 676.617629 -124.858393 
L 679.759969 -126.356262 
L 679.759969 -172.540457 
L 679.759969 -172.540457 
L 676.617629 -154.310186 
L 673.475288 -147.858355 
L 670.332948 -148.660753 
L 667.190607 -143.809834 
L 664.048266 -140.624508 
L 660.905926 -143.268218 
L 657.763585 -159.811206 
L 654.621244 -142.264978 
L 651.478904 -148.33354 
L 648.336563 -137.256815 
L 645.194223 -169.312265 
L 642.051882 -177.783974 
L 638.909541 -146.207215 
L 635.767201 -185.358715 
L 632.62486 -163.976679 
L 629.48252 -170.339339 
L 626.340179 -140.885509 
L 623.197838 -147.623808 
L 620.055498 -166.784433 
L 616.913157 -191.540413 
L 613.770816 -183.739272 
L 610.628476 -165.07907 
L 607.486135 -138.371267 
L 604.343795 -144.155759 
L 601.201454 -142.637017 
L 598.059113 -131.987257 
L 594.916773 -150.807834 
L 591.774432 -154.023822 
L 588.632092 -155.932859 
L 585.489751 -175.763261 
L 582.34741 -158.723382 
L 579.20507 -154.616676 
L 576.062729 -156.778072 
L 572.920388 -147.348229 
L 569.778048 -160.055964 
L 566.635707 -158.288988 
L 563.493367 -163.940779 
L 560.351026 -178.992161 
L 557.208685 -175.057883 
L 554.066345 -162.910651 
L 550.924004 -148.749769 
L 547.781664 -161.358609 
L 544.639323 -154.825043 
L 541.496982 -142.654675 
L 538.354642 -180.615585 
L 535.212301 -192.635954 
L 532.06996 -163.424363 
L 528.92762 -239.408805 
L 525.785279 -174.930856 
L 522.642939 -170.817723 
L 519.500598 -169.333566 
L 516.358257 -150.967581 
L 513.215917 -142.50397 
L 510.073576 -165.746708 
L 506.931235 -167.531069 
L 503.788895 -151.44287 
L 500.646554 -160.546724 
L 497.504214 -148.320292 
L 494.361873 -147.940995 
L 491.219532 -153.412011 
L 488.077192 -153.498743 
L 484.934851 -171.76259 
L 481.792511 -146.367766 
L 478.65017 -145.355482 
L 475.507829 -145.428425 
L 472.365489 -144.577431 
L 469.223148 -158.063942 
L 466.080807 -156.012246 
L 462.938467 -164.858075 
L 459.796126 -166.019931 
L 456.653786 -139.544559 
L 453.511445 -144.392695 
L 450.369104 -149.053198 
L 447.226764 -148.611891 
L 444.084423 -157.971925 
L 440.942083 -166.532645 
L 437.799742 -187.16852 
L 434.657401 -163.418802 
L 431.515061 -206.913701 
L 428.37272 -184.287062 
L 425.230379 -274.745351 
L 422.088039 -159.924231 
L 418.945698 -165.32067 
L 415.803358 -161.207037 
L 412.661017 -146.126692 
L 409.518676 -135.3991 
L 406.376336 -162.213031 
L 403.233995 -151.31132 
L 400.091655 -157.058962 
L 396.949314 -152.343154 
L 393.806973 -148.39807 
L 390.664633 -171.095207 
L 387.522292 -192.246116 
L 384.379951 -161.55995 
L 381.237611 -172.800275 
L 378.09527 -169.546198 
L 374.95293 -158.829079 
L 371.810589 -157.326085 
L 368.668248 -158.986575 
L 365.525908 -147.832393 
L 362.383567 -139.640158 
L 359.241227 -161.901674 
L 356.098886 -161.269997 
L 352.956545 -149.411388 
L 349.814205 -177.661533 
L 346.671864 -186.413409 
L 343.529523 -180.457787 
L 340.387183 -157.393328 
L 337.244842 -163.573705 
L 334.102502 -161.615673 
L 330.960161 -172.093862 
L 327.81782 -171.151663 
L 324.67548 -179.983167 
L 321.533139 -164.507332 
L 318.390799 -165.441996 
L 315.248458 -170.784044 
L 312.106117 -171.590303 
L 308.963777 -155.033848 
L 305.821436 -167.129165 
L 302.679095 -157.607916 
L 299.536755 -151.8706 
L 296.394414 -163.176301 
L 293.252074 -159.662942 
L 290.109733 -184.034235 
L 286.967392 -165.845123 
L 283.825052 -208.915643 
L 280.682711 -264.925277 
L 277.540371 -164.723178 
L 274.39803 -182.794557 
L 271.255689 -163.196919 
L 268.113349 -176.294581 
L 264.971008 -203.62483 
L 261.828667 -179.303637 
L 258.686327 -199.231505 
L 255.543986 -191.061992 
L 252.401646 -234.835581 
L 249.259305 -212.456584 
L 246.116964 -169.122074 
L 242.974624 -187.425196 
L 239.832283 -199.982309 
L 236.689943 -210.661837 
L 233.547602 -198.160964 
L 230.405261 -212.035624 
L 227.262921 -163.859571 
L 224.12058 -180.155464 
L 220.978239 -200.845024 
L 217.835899 -199.87819 
L 214.693558 -223.517074 
L 211.551218 -236.447489 
L 208.408877 -191.318258 
L 205.266536 -217.731308 
L 202.124196 -183.062577 
L 198.981855 -216.530259 
L 195.839515 -178.707962 
L 192.697174 -252.117417 
L 189.554833 -209.176016 
L 186.412493 -209.870937 
L 183.270152 -219.822558 
L 180.127811 -246.635328 
L 176.985471 -288.601886 
L 173.84313 -289.506308 
L 170.70079 -338.761627 
L 167.558449 -350.159023 
L 164.416108 -339.105298 
L 161.273768 -350.969668 
L 158.131427 -364.542741 
z
" style="stroke: #ffa500; stroke-opacity: 0.3"/>
    </defs>
    <g clip-path="url(#p443206758d)">
     <use xlink:href="#m7a55459c6e" x="0" y="432" style="fill: #ffa500; fill-opacity: 0.3; stroke: #ffa500; stroke-opacity: 0.3"/>
    </g>
   </g>
   <g id="matplotlib.axis_1">
    <g id="xtick_1">
     <g id="line2d_1">
      <defs>
       <path id="mb108bd20a3" d="M 0 0 
L 0 3.5 
" style="stroke: #000000; stroke-width: 0.8"/>
      </defs>
      <g>
       <use xlink:href="#mb108bd20a3" x="158.131427" y="343.96" style="stroke: #000000; stroke-width: 0.8"/>
      </g>
     </g>
     <g id="text_1">
      <!-- 0 -->
      <g transform="translate(149.223927 372.235625) scale(0.28 -0.28)">
       <defs>
        <path id="DejaVuSans-30" d="M 2034 4250 
Q 1547 4250 1301 3770 
Q 1056 3291 1056 2328 
Q 1056 1369 1301 889 
Q 1547 409 2034 409 
Q 2525 409 2770 889 
Q 3016 1369 3016 2328 
Q 3016 3291 2770 3770 
Q 2525 4250 2034 4250 
z
M 2034 4750 
Q 2819 4750 3233 4129 
Q 3647 3509 3647 2328 
Q 3647 1150 3233 529 
Q 2819 -91 2034 -91 
Q 1250 -91 836 529 
Q 422 1150 422 2328 
Q 422 3509 836 4129 
Q 1250 4750 2034 4750 
z
" transform="scale(0.015625)"/>
       </defs>
       <use xlink:href="#DejaVuSans-30"/>
      </g>
     </g>
    </g>
    <g id="xtick_2">
     <g id="line2d_2">
      <g>
       <use xlink:href="#mb108bd20a3" x="262.876114" y="343.96" style="stroke: #000000; stroke-width: 0.8"/>
      </g>
     </g>
     <g id="text_2">
      <!-- 100 -->
      <g transform="translate(236.153614 372.235625) scale(0.28 -0.28)">
       <defs>
        <path id="DejaVuSans-31" d="M 794 531 
L 1825 531 
L 1825 4091 
L 703 3866 
L 703 4441 
L 1819 4666 
L 2450 4666 
L 2450 531 
L 3481 531 
L 3481 0 
L 794 0 
L 794 531 
z
" transform="scale(0.015625)"/>
       </defs>
       <use xlink:href="#DejaVuSans-31"/>
       <use xlink:href="#DejaVuSans-30" x="63.623047"/>
       <use xlink:href="#DejaVuSans-30" x="127.246094"/>
      </g>
     </g>
    </g>
    <g id="xtick_3">
     <g id="line2d_3">
      <g>
       <use xlink:href="#mb108bd20a3" x="367.620802" y="343.96" style="stroke: #000000; stroke-width: 0.8"/>
      </g>
     </g>
     <g id="text_3">
      <!-- 200 -->
      <g transform="translate(340.898302 372.235625) scale(0.28 -0.28)">
       <defs>
        <path id="DejaVuSans-32" d="M 1228 531 
L 3431 531 
L 3431 0 
L 469 0 
L 469 531 
Q 828 903 1448 1529 
Q 2069 2156 2228 2338 
Q 2531 2678 2651 2914 
Q 2772 3150 2772 3378 
Q 2772 3750 2511 3984 
Q 2250 4219 1831 4219 
Q 1534 4219 1204 4116 
Q 875 4013 500 3803 
L 500 4441 
Q 881 4594 1212 4672 
Q 1544 4750 1819 4750 
Q 2544 4750 2975 4387 
Q 3406 4025 3406 3419 
Q 3406 3131 3298 2873 
Q 3191 2616 2906 2266 
Q 2828 2175 2409 1742 
Q 1991 1309 1228 531 
z
" transform="scale(0.015625)"/>
       </defs>
       <use xlink:href="#DejaVuSans-32"/>
       <use xlink:href="#DejaVuSans-30" x="63.623047"/>
       <use xlink:href="#DejaVuSans-30" x="127.246094"/>
      </g>
     </g>
    </g>
    <g id="xtick_4">
     <g id="line2d_4">
      <g>
       <use xlink:href="#mb108bd20a3" x="472.365489" y="343.96" style="stroke: #000000; stroke-width: 0.8"/>
      </g>
     </g>
     <g id="text_4">
      <!-- 300 -->
      <g transform="translate(445.642989 372.235625) scale(0.28 -0.28)">
       <defs>
        <path id="DejaVuSans-33" d="M 2597 2516 
Q 3050 2419 3304 2112 
Q 3559 1806 3559 1356 
Q 3559 666 3084 287 
Q 2609 -91 1734 -91 
Q 1441 -91 1130 -33 
Q 819 25 488 141 
L 488 750 
Q 750 597 1062 519 
Q 1375 441 1716 441 
Q 2309 441 2620 675 
Q 2931 909 2931 1356 
Q 2931 1769 2642 2001 
Q 2353 2234 1838 2234 
L 1294 2234 
L 1294 2753 
L 1863 2753 
Q 2328 2753 2575 2939 
Q 2822 3125 2822 3475 
Q 2822 3834 2567 4026 
Q 2313 4219 1838 4219 
Q 1578 4219 1281 4162 
Q 984 4106 628 3988 
L 628 4550 
Q 988 4650 1302 4700 
Q 1616 4750 1894 4750 
Q 2613 4750 3031 4423 
Q 3450 4097 3450 3541 
Q 3450 3153 3228 2886 
Q 3006 2619 2597 2516 
z
" transform="scale(0.015625)"/>
       </defs>
       <use xlink:href="#DejaVuSans-33"/>
       <use xlink:href="#DejaVuSans-30" x="63.623047"/>
       <use xlink:href="#DejaVuSans-30" x="127.246094"/>
      </g>
     </g>
    </g>
    <g id="xtick_5">
     <g id="line2d_5">
      <g>
       <use xlink:href="#mb108bd20a3" x="577.110176" y="343.96" style="stroke: #000000; stroke-width: 0.8"/>
      </g>
     </g>
     <g id="text_5">
      <!-- 400 -->
      <g transform="translate(550.387676 372.235625) scale(0.28 -0.28)">
       <defs>
        <path id="DejaVuSans-34" d="M 2419 4116 
L 825 1625 
L 2419 1625 
L 2419 4116 
z
M 2253 4666 
L 3047 4666 
L 3047 1625 
L 3713 1625 
L 3713 1100 
L 3047 1100 
L 3047 0 
L 2419 0 
L 2419 1100 
L 313 1100 
L 313 1709 
L 2253 4666 
z
" transform="scale(0.015625)"/>
       </defs>
       <use xlink:href="#DejaVuSans-34"/>
       <use xlink:href="#DejaVuSans-30" x="63.623047"/>
       <use xlink:href="#DejaVuSans-30" x="127.246094"/>
      </g>
     </g>
    </g>
    <g id="xtick_6">
     <g id="line2d_6">
      <g>
       <use xlink:href="#mb108bd20a3" x="681.854863" y="343.96" style="stroke: #000000; stroke-width: 0.8"/>
      </g>
     </g>
     <g id="text_6">
      <!-- 500 -->
      <g transform="translate(655.132363 372.235625) scale(0.28 -0.28)">
       <defs>
        <path id="DejaVuSans-35" d="M 691 4666 
L 3169 4666 
L 3169 4134 
L 1269 4134 
L 1269 2991 
Q 1406 3038 1543 3061 
Q 1681 3084 1819 3084 
Q 2600 3084 3056 2656 
Q 3513 2228 3513 1497 
Q 3513 744 3044 326 
Q 2575 -91 1722 -91 
Q 1428 -91 1123 -41 
Q 819 9 494 109 
L 494 744 
Q 775 591 1075 516 
Q 1375 441 1709 441 
Q 2250 441 2565 725 
Q 2881 1009 2881 1497 
Q 2881 1984 2565 2268 
Q 2250 2553 1709 2553 
Q 1456 2553 1204 2497 
Q 953 2441 691 2322 
L 691 4666 
z
" transform="scale(0.015625)"/>
       </defs>
       <use xlink:href="#DejaVuSans-35"/>
       <use xlink:href="#DejaVuSans-30" x="63.623047"/>
       <use xlink:href="#DejaVuSans-30" x="127.246094"/>
      </g>
     </g>
    </g>
    <g id="text_7">
     <!-- Episode -->
     <g transform="translate(340.395698 412.4525) scale(0.4 -0.4)">
      <defs>
       <path id="DejaVuSans-45" d="M 628 4666 
L 3578 4666 
L 3578 4134 
L 1259 4134 
L 1259 2753 
L 3481 2753 
L 3481 2222 
L 1259 2222 
L 1259 531 
L 3634 531 
L 3634 0 
L 628 0 
L 628 4666 
z
" transform="scale(0.015625)"/>
       <path id="DejaVuSans-70" d="M 1159 525 
L 1159 -1331 
L 581 -1331 
L 581 3500 
L 1159 3500 
L 1159 2969 
Q 1341 3281 1617 3432 
Q 1894 3584 2278 3584 
Q 2916 3584 3314 3078 
Q 3713 2572 3713 1747 
Q 3713 922 3314 415 
Q 2916 -91 2278 -91 
Q 1894 -91 1617 61 
Q 1341 213 1159 525 
z
M 3116 1747 
Q 3116 2381 2855 2742 
Q 2594 3103 2138 3103 
Q 1681 3103 1420 2742 
Q 1159 2381 1159 1747 
Q 1159 1113 1420 752 
Q 1681 391 2138 391 
Q 2594 391 2855 752 
Q 3116 1113 3116 1747 
z
" transform="scale(0.015625)"/>
       <path id="DejaVuSans-69" d="M 603 3500 
L 1178 3500 
L 1178 0 
L 603 0 
L 603 3500 
z
M 603 4863 
L 1178 4863 
L 1178 4134 
L 603 4134 
L 603 4863 
z
" transform="scale(0.015625)"/>
       <path id="DejaVuSans-73" d="M 2834 3397 
L 2834 2853 
Q 2591 2978 2328 3040 
Q 2066 3103 1784 3103 
Q 1356 3103 1142 2972 
Q 928 2841 928 2578 
Q 928 2378 1081 2264 
Q 1234 2150 1697 2047 
L 1894 2003 
Q 2506 1872 2764 1633 
Q 3022 1394 3022 966 
Q 3022 478 2636 193 
Q 2250 -91 1575 -91 
Q 1294 -91 989 -36 
Q 684 19 347 128 
L 347 722 
Q 666 556 975 473 
Q 1284 391 1588 391 
Q 1994 391 2212 530 
Q 2431 669 2431 922 
Q 2431 1156 2273 1281 
Q 2116 1406 1581 1522 
L 1381 1569 
Q 847 1681 609 1914 
Q 372 2147 372 2553 
Q 372 3047 722 3315 
Q 1072 3584 1716 3584 
Q 2034 3584 2315 3537 
Q 2597 3491 2834 3397 
z
" transform="scale(0.015625)"/>
       <path id="DejaVuSans-6f" d="M 1959 3097 
Q 1497 3097 1228 2736 
Q 959 2375 959 1747 
Q 959 1119 1226 758 
Q 1494 397 1959 397 
Q 2419 397 2687 759 
Q 2956 1122 2956 1747 
Q 2956 2369 2687 2733 
Q 2419 3097 1959 3097 
z
M 1959 3584 
Q 2709 3584 3137 3096 
Q 3566 2609 3566 1747 
Q 3566 888 3137 398 
Q 2709 -91 1959 -91 
Q 1206 -91 779 398 
Q 353 888 353 1747 
Q 353 2609 779 3096 
Q 1206 3584 1959 3584 
z
" transform="scale(0.015625)"/>
       <path id="DejaVuSans-64" d="M 2906 2969 
L 2906 4863 
L 3481 4863 
L 3481 0 
L 2906 0 
L 2906 525 
Q 2725 213 2448 61 
Q 2172 -91 1784 -91 
Q 1150 -91 751 415 
Q 353 922 353 1747 
Q 353 2572 751 3078 
Q 1150 3584 1784 3584 
Q 2172 3584 2448 3432 
Q 2725 3281 2906 2969 
z
M 947 1747 
Q 947 1113 1208 752 
Q 1469 391 1925 391 
Q 2381 391 2643 752 
Q 2906 1113 2906 1747 
Q 2906 2381 2643 2742 
Q 2381 3103 1925 3103 
Q 1469 3103 1208 2742 
Q 947 2381 947 1747 
z
" transform="scale(0.015625)"/>
       <path id="DejaVuSans-65" d="M 3597 1894 
L 3597 1613 
L 953 1613 
Q 991 1019 1311 708 
Q 1631 397 2203 397 
Q 2534 397 2845 478 
Q 3156 559 3463 722 
L 3463 178 
Q 3153 47 2828 -22 
Q 2503 -91 2169 -91 
Q 1331 -91 842 396 
Q 353 884 353 1716 
Q 353 2575 817 3079 
Q 1281 3584 2069 3584 
Q 2775 3584 3186 3129 
Q 3597 2675 3597 1894 
z
M 3022 2063 
Q 3016 2534 2758 2815 
Q 2500 3097 2075 3097 
Q 1594 3097 1305 2825 
Q 1016 2553 972 2059 
L 3022 2063 
z
" transform="scale(0.015625)"/>
      </defs>
      <use xlink:href="#DejaVuSans-45"/>
      <use xlink:href="#DejaVuSans-70" x="63.183594"/>
      <use xlink:href="#DejaVuSans-69" x="126.660156"/>
      <use xlink:href="#DejaVuSans-73" x="154.443359"/>
      <use xlink:href="#DejaVuSans-6f" x="206.542969"/>
      <use xlink:href="#DejaVuSans-64" x="267.724609"/>
      <use xlink:href="#DejaVuSans-65" x="331.201172"/>
     </g>
    </g>
   </g>
   <g id="matplotlib.axis_2">
    <g id="ytick_1">
     <g id="line2d_7">
      <defs>
       <path id="mcd5bc6b1a9" d="M 0 0 
L -3.5 0 
" style="stroke: #000000; stroke-width: 0.8"/>
      </defs>
      <g>
       <use xlink:href="#mcd5bc6b1a9" x="132.05" y="305.543627" style="stroke: #000000; stroke-width: 0.8"/>
      </g>
     </g>
     <g id="text_8">
      <!-- 0 -->
      <g transform="translate(107.235 316.181439) scale(0.28 -0.28)">
       <use xlink:href="#DejaVuSans-30"/>
      </g>
     </g>
    </g>
    <g id="ytick_2">
     <g id="line2d_8">
      <g>
       <use xlink:href="#mcd5bc6b1a9" x="132.05" y="262.025672" style="stroke: #000000; stroke-width: 0.8"/>
      </g>
     </g>
     <g id="text_9">
      <!-- 200 -->
      <g transform="translate(71.605 272.663485) scale(0.28 -0.28)">
       <use xlink:href="#DejaVuSans-32"/>
       <use xlink:href="#DejaVuSans-30" x="63.623047"/>
       <use xlink:href="#DejaVuSans-30" x="127.246094"/>
      </g>
     </g>
    </g>
    <g id="ytick_3">
     <g id="line2d_9">
      <g>
       <use xlink:href="#mcd5bc6b1a9" x="132.05" y="218.507718" style="stroke: #000000; stroke-width: 0.8"/>
      </g>
     </g>
     <g id="text_10">
      <!-- 400 -->
      <g transform="translate(71.605 229.14553) scale(0.28 -0.28)">
       <use xlink:href="#DejaVuSans-34"/>
       <use xlink:href="#DejaVuSans-30" x="63.623047"/>
       <use xlink:href="#DejaVuSans-30" x="127.246094"/>
      </g>
     </g>
    </g>
    <g id="ytick_4">
     <g id="line2d_10">
      <g>
       <use xlink:href="#mcd5bc6b1a9" x="132.05" y="174.989763" style="stroke: #000000; stroke-width: 0.8"/>
      </g>
     </g>
     <g id="text_11">
      <!-- 600 -->
      <g transform="translate(71.605 185.627575) scale(0.28 -0.28)">
       <defs>
        <path id="DejaVuSans-36" d="M 2113 2584 
Q 1688 2584 1439 2293 
Q 1191 2003 1191 1497 
Q 1191 994 1439 701 
Q 1688 409 2113 409 
Q 2538 409 2786 701 
Q 3034 994 3034 1497 
Q 3034 2003 2786 2293 
Q 2538 2584 2113 2584 
z
M 3366 4563 
L 3366 3988 
Q 3128 4100 2886 4159 
Q 2644 4219 2406 4219 
Q 1781 4219 1451 3797 
Q 1122 3375 1075 2522 
Q 1259 2794 1537 2939 
Q 1816 3084 2150 3084 
Q 2853 3084 3261 2657 
Q 3669 2231 3669 1497 
Q 3669 778 3244 343 
Q 2819 -91 2113 -91 
Q 1303 -91 875 529 
Q 447 1150 447 2328 
Q 447 3434 972 4092 
Q 1497 4750 2381 4750 
Q 2619 4750 2861 4703 
Q 3103 4656 3366 4563 
z
" transform="scale(0.015625)"/>
       </defs>
       <use xlink:href="#DejaVuSans-36"/>
       <use xlink:href="#DejaVuSans-30" x="63.623047"/>
       <use xlink:href="#DejaVuSans-30" x="127.246094"/>
      </g>
     </g>
    </g>
    <g id="ytick_5">
     <g id="line2d_11">
      <g>
       <use xlink:href="#mcd5bc6b1a9" x="132.05" y="131.471808" style="stroke: #000000; stroke-width: 0.8"/>
      </g>
     </g>
     <g id="text_12">
      <!-- 800 -->
      <g transform="translate(71.605 142.109621) scale(0.28 -0.28)">
       <defs>
        <path id="DejaVuSans-38" d="M 2034 2216 
Q 1584 2216 1326 1975 
Q 1069 1734 1069 1313 
Q 1069 891 1326 650 
Q 1584 409 2034 409 
Q 2484 409 2743 651 
Q 3003 894 3003 1313 
Q 3003 1734 2745 1975 
Q 2488 2216 2034 2216 
z
M 1403 2484 
Q 997 2584 770 2862 
Q 544 3141 544 3541 
Q 544 4100 942 4425 
Q 1341 4750 2034 4750 
Q 2731 4750 3128 4425 
Q 3525 4100 3525 3541 
Q 3525 3141 3298 2862 
Q 3072 2584 2669 2484 
Q 3125 2378 3379 2068 
Q 3634 1759 3634 1313 
Q 3634 634 3220 271 
Q 2806 -91 2034 -91 
Q 1263 -91 848 271 
Q 434 634 434 1313 
Q 434 1759 690 2068 
Q 947 2378 1403 2484 
z
M 1172 3481 
Q 1172 3119 1398 2916 
Q 1625 2713 2034 2713 
Q 2441 2713 2670 2916 
Q 2900 3119 2900 3481 
Q 2900 3844 2670 4047 
Q 2441 4250 2034 4250 
Q 1625 4250 1398 4047 
Q 1172 3844 1172 3481 
z
" transform="scale(0.015625)"/>
       </defs>
       <use xlink:href="#DejaVuSans-38"/>
       <use xlink:href="#DejaVuSans-30" x="63.623047"/>
       <use xlink:href="#DejaVuSans-30" x="127.246094"/>
      </g>
     </g>
    </g>
    <g id="ytick_6">
     <g id="line2d_12">
      <g>
       <use xlink:href="#mcd5bc6b1a9" x="132.05" y="87.953854" style="stroke: #000000; stroke-width: 0.8"/>
      </g>
     </g>
     <g id="text_13">
      <!-- 1000 -->
      <g transform="translate(53.79 98.591666) scale(0.28 -0.28)">
       <use xlink:href="#DejaVuSans-31"/>
       <use xlink:href="#DejaVuSans-30" x="63.623047"/>
       <use xlink:href="#DejaVuSans-30" x="127.246094"/>
       <use xlink:href="#DejaVuSans-30" x="190.869141"/>
      </g>
     </g>
    </g>
    <g id="ytick_7">
     <g id="line2d_13">
      <g>
       <use xlink:href="#mcd5bc6b1a9" x="132.05" y="44.435899" style="stroke: #000000; stroke-width: 0.8"/>
      </g>
     </g>
     <g id="text_14">
      <!-- 1200 -->
      <g transform="translate(53.79 55.073712) scale(0.28 -0.28)">
       <use xlink:href="#DejaVuSans-31"/>
       <use xlink:href="#DejaVuSans-32" x="63.623047"/>
       <use xlink:href="#DejaVuSans-30" x="127.246094"/>
       <use xlink:href="#DejaVuSans-30" x="190.869141"/>
      </g>
     </g>
    </g>
    <g id="text_15">
     <!-- $m_{vct}$ -->
     <g transform="translate(41.47125 218.98) rotate(-90) scale(0.4 -0.4)">
      <defs>
       <path id="DejaVuSans-Oblique-6d" d="M 5747 2113 
L 5338 0 
L 4763 0 
L 5166 2094 
Q 5191 2228 5203 2325 
Q 5216 2422 5216 2491 
Q 5216 2772 5059 2928 
Q 4903 3084 4622 3084 
Q 4203 3084 3875 2770 
Q 3547 2456 3450 1953 
L 3066 0 
L 2491 0 
L 2900 2094 
Q 2925 2209 2937 2307 
Q 2950 2406 2950 2484 
Q 2950 2769 2794 2926 
Q 2638 3084 2363 3084 
Q 1938 3084 1609 2770 
Q 1281 2456 1184 1953 
L 800 0 
L 225 0 
L 909 3500 
L 1484 3500 
L 1375 2956 
Q 1609 3263 1923 3423 
Q 2238 3584 2597 3584 
Q 2978 3584 3223 3384 
Q 3469 3184 3519 2828 
Q 3781 3197 4126 3390 
Q 4472 3584 4856 3584 
Q 5306 3584 5551 3325 
Q 5797 3066 5797 2591 
Q 5797 2488 5784 2364 
Q 5772 2241 5747 2113 
z
" transform="scale(0.015625)"/>
       <path id="DejaVuSans-Oblique-76" d="M 459 3500 
L 1069 3500 
L 1581 525 
L 3256 3500 
L 3866 3500 
L 1875 0 
L 1100 0 
L 459 3500 
z
" transform="scale(0.015625)"/>
       <path id="DejaVuSans-Oblique-63" d="M 3431 3366 
L 3316 2797 
Q 3109 2947 2876 3022 
Q 2644 3097 2394 3097 
Q 2119 3097 1870 3000 
Q 1622 2903 1453 2725 
Q 1184 2453 1037 2087 
Q 891 1722 891 1331 
Q 891 859 1127 628 
Q 1363 397 1844 397 
Q 2081 397 2348 469 
Q 2616 541 2906 684 
L 2797 116 
Q 2547 13 2283 -39 
Q 2019 -91 1741 -91 
Q 1044 -91 669 257 
Q 294 606 294 1253 
Q 294 1797 489 2255 
Q 684 2713 1069 3078 
Q 1331 3328 1684 3456 
Q 2038 3584 2456 3584 
Q 2700 3584 2940 3529 
Q 3181 3475 3431 3366 
z
" transform="scale(0.015625)"/>
       <path id="DejaVuSans-Oblique-74" d="M 2706 3500 
L 2619 3053 
L 1472 3053 
L 1100 1153 
Q 1081 1047 1072 975 
Q 1063 903 1063 863 
Q 1063 663 1183 572 
Q 1303 481 1569 481 
L 2150 481 
L 2053 0 
L 1503 0 
Q 991 0 739 200 
Q 488 400 488 806 
Q 488 878 497 964 
Q 506 1050 525 1153 
L 897 3053 
L 409 3053 
L 500 3500 
L 978 3500 
L 1172 4494 
L 1747 4494 
L 1556 3500 
L 2706 3500 
z
" transform="scale(0.015625)"/>
      </defs>
      <use xlink:href="#DejaVuSans-Oblique-6d"/>
      <use xlink:href="#DejaVuSans-Oblique-76" transform="translate(97.412109 -16.40625) scale(0.7)"/>
      <use xlink:href="#DejaVuSans-Oblique-63" transform="translate(138.837891 -16.40625) scale(0.7)"/>
      <use xlink:href="#DejaVuSans-Oblique-74" transform="translate(177.324219 -16.40625) scale(0.7)"/>
     </g>
    </g>
   </g>
   <g id="line2d_14">
    <path d="M 158.131427 148.081161 
L 161.273768 165.198223 
L 164.416108 242.007413 
L 167.558449 261.880612 
L 170.70079 264.34663 
L 173.84313 281.536222 
L 176.985471 276.821777 
L 180.127811 288.499094 
L 183.270152 297.057626 
L 186.412493 299.088463 
L 189.554833 296.477386 
L 192.697174 299.306053 
L 195.839515 301.119301 
L 198.981855 303.947968 
L 202.124196 299.088463 
L 205.266536 301.98966 
L 208.408877 297.927985 
L 211.551218 301.481951 
L 214.693558 297.710395 
L 217.835899 304.818327 
L 220.978239 296.332326 
L 224.12058 292.053061 
L 227.262921 294.228958 
L 233.547602 305.543627 
L 236.689943 289.659573 
L 239.832283 283.422 
L 242.974624 290.094753 
L 249.259305 301.627011 
L 252.401646 304.963387 
L 255.543986 301.481951 
L 258.686327 301.627011 
L 261.828667 303.295199 
L 264.971008 305.543627 
L 268.113349 303.150139 
L 271.255689 304.020498 
L 274.39803 301.627011 
L 277.540371 302.35231 
L 280.682711 298.290634 
L 283.825052 303.150139 
L 286.967392 304.383148 
L 290.109733 304.528208 
L 293.252074 305.398567 
L 296.394414 290.747522 
L 299.536755 303.440259 
L 302.679095 302.13472 
L 305.821436 299.088463 
L 308.963777 300.756652 
L 312.106117 304.455678 
L 315.248458 305.543627 
L 318.390799 305.543627 
L 321.533139 304.238088 
L 324.67548 301.554481 
L 327.81782 305.253507 
L 334.102502 292.77836 
L 337.244842 292.56077 
L 340.387183 304.673268 
L 343.529523 299.813763 
L 346.671864 305.035917 
L 349.814205 301.191831 
L 352.956545 296.622446 
L 356.098886 300.031352 
L 359.241227 287.556205 
L 362.383567 299.233523 
L 365.525908 304.600738 
L 368.668248 298.943404 
L 371.810589 301.409421 
L 374.95293 294.301488 
L 378.09527 299.451113 
L 381.237611 301.98966 
L 384.379951 296.985096 
L 387.522292 300.974241 
L 390.664633 293.866309 
L 393.806973 290.457402 
L 396.949314 287.483676 
L 400.091655 282.696701 
L 403.233995 282.551641 
L 406.376336 305.543627 
L 409.518676 302.35231 
L 412.661017 296.114737 
L 415.803358 302.5699 
L 418.945698 301.481951 
L 422.088039 299.668703 
L 425.230379 303.295199 
L 428.37272 296.549916 
L 431.515061 304.310618 
L 434.657401 303.875438 
L 437.799742 297.710395 
L 440.942083 295.969677 
L 444.084423 305.253507 
L 447.226764 301.336891 
L 450.369104 302.35231 
L 453.511445 296.840036 
L 456.653786 302.860019 
L 459.796126 303.585319 
L 462.938467 302.06219 
L 466.080807 303.875438 
L 469.223148 305.326037 
L 472.365489 301.481951 
L 475.507829 293.286069 
L 478.65017 303.150139 
L 481.792511 301.699541 
L 484.934851 302.13472 
L 488.077192 305.543627 
L 491.219532 305.543627 
L 494.361873 303.585319 
L 497.504214 298.580754 
L 500.646554 301.98966 
L 503.788895 298.145574 
L 506.931235 299.233523 
L 510.073576 301.481951 
L 513.215917 305.543627 
L 516.358257 288.281505 
L 519.500598 287.411146 
L 522.642939 295.824617 
L 525.785279 301.119301 
L 528.92762 297.565335 
L 532.06996 300.321472 
L 535.212301 305.108447 
L 538.354642 303.005079 
L 541.496982 298.363164 
L 544.639323 298.145574 
L 547.781664 300.974241 
L 550.924004 298.218104 
L 554.066345 301.409421 
L 557.208685 302.5699 
L 560.351026 302.932549 
L 563.493367 303.730379 
L 566.635707 297.057626 
L 569.778048 301.772071 
L 572.920388 303.222669 
L 576.062729 303.222669 
L 579.20507 302.71496 
L 582.34741 299.668703 
L 585.489751 304.238088 
L 591.774432 305.180977 
L 594.916773 295.897147 
L 598.059113 304.890857 
L 601.201454 303.222669 
L 604.343795 297.420275 
L 607.486135 297.202685 
L 610.628476 304.093028 
L 613.770816 301.191831 
L 616.913157 302.64243 
L 620.055498 300.466532 
L 623.197838 303.657849 
L 626.340179 304.673268 
L 629.48252 296.332326 
L 632.62486 291.182702 
L 635.767201 285.380308 
L 638.909541 302.64243 
L 642.051882 299.523643 
L 645.194223 302.27978 
L 648.336563 304.310618 
L 651.478904 305.543627 
L 657.763585 305.543627 
L 660.905926 303.657849 
L 664.048266 300.466532 
L 667.190607 291.037642 
L 670.332948 304.310618 
L 673.475288 304.383148 
L 676.617629 302.06219 
L 679.759969 297.710395 
L 679.759969 297.710395 
" clip-path="url(#p443206758d)" style="fill: none; stroke: #0000ff; stroke-width: 3; stroke-linecap: square"/>
   </g>
   <g id="line2d_15">
    <path d="M 158.131427 172.016036 
L 161.273768 198.561988 
L 164.416108 214.010862 
L 167.558449 268.843485 
L 170.70079 263.403741 
L 173.84313 276.169007 
L 176.985471 281.971401 
L 183.270152 288.789214 
L 186.412493 276.966837 
L 189.554833 299.886293 
L 192.697174 295.316907 
L 195.839515 291.835471 
L 198.981855 287.773795 
L 202.124196 267.320357 
L 205.266536 294.736668 
L 208.408877 290.022223 
L 211.551218 297.782925 
L 214.693558 296.332326 
L 217.835899 297.420275 
L 220.978239 293.721249 
L 224.12058 299.596173 
L 227.262921 290.094753 
L 230.405261 302.35231 
L 233.547602 297.420275 
L 236.689943 297.565335 
L 239.832283 285.017658 
L 242.974624 281.826341 
L 246.116964 296.259796 
L 249.259305 296.767506 
L 252.401646 300.539062 
L 255.543986 305.471097 
L 258.686327 301.844601 
L 264.971008 302.35231 
L 268.113349 302.06219 
L 271.255689 303.440259 
L 274.39803 302.06219 
L 277.540371 301.98966 
L 280.682711 305.543627 
L 283.825052 304.093028 
L 286.967392 302.06219 
L 290.109733 303.222669 
L 293.252074 305.543627 
L 296.394414 297.275215 
L 299.536755 299.378583 
L 302.679095 298.580754 
L 305.821436 295.824617 
L 308.963777 299.160993 
L 312.106117 299.523643 
L 315.248458 298.073044 
L 318.390799 298.653284 
L 321.533139 301.91713 
L 324.67548 304.963387 
L 327.81782 301.336891 
L 330.960161 305.398567 
L 334.102502 304.238088 
L 337.244842 305.471097 
L 340.387183 294.156429 
L 343.529523 297.855455 
L 346.671864 303.657849 
L 349.814205 302.71496 
L 352.956545 299.015933 
L 356.098886 296.694976 
L 359.241227 302.27978 
L 362.383567 304.165558 
L 365.525908 303.440259 
L 368.668248 304.673268 
L 371.810589 299.523643 
L 374.95293 302.5699 
L 378.09527 302.932549 
L 381.237611 302.932549 
L 384.379951 299.813763 
L 387.522292 296.332326 
L 390.664633 302.27978 
L 393.806973 302.860019 
L 396.949314 294.664138 
L 400.091655 291.255232 
L 403.233995 295.244377 
L 406.376336 291.182702 
L 409.518676 294.736668 
L 412.661017 301.481951 
L 415.803358 300.901712 
L 418.945698 297.492805 
L 422.088039 298.725814 
L 425.230379 290.457402 
L 428.37272 292.198121 
L 431.515061 294.519078 
L 434.657401 302.64243 
L 437.799742 303.295199 
L 440.942083 290.529932 
L 444.084423 304.600738 
L 447.226764 299.015933 
L 450.369104 305.543627 
L 453.511445 301.264361 
L 456.653786 298.943404 
L 459.796126 297.710395 
L 462.938467 304.383148 
L 466.080807 300.611592 
L 469.223148 297.855455 
L 472.365489 290.965112 
L 475.507829 269.858904 
L 478.65017 277.837196 
L 481.792511 289.006804 
L 484.934851 293.866309 
L 488.077192 278.780085 
L 491.219532 292.6333 
L 494.361873 293.866309 
L 497.504214 299.088463 
L 500.646554 295.679557 
L 503.788895 293.866309 
L 506.931235 302.64243 
L 510.073576 299.813763 
L 513.215917 302.932549 
L 516.358257 302.932549 
L 519.500598 300.684122 
L 522.642939 299.886293 
L 525.785279 293.503659 
L 528.92762 291.037642 
L 532.06996 298.000515 
L 535.212301 295.679557 
L 538.354642 299.233523 
L 541.496982 298.725814 
L 544.639323 292.85089 
L 547.781664 301.046771 
L 550.924004 300.974241 
L 554.066345 296.114737 
L 557.208685 291.835471 
L 560.351026 283.784649 
L 563.493367 296.259796 
L 566.635707 300.974241 
L 569.778048 294.083899 
L 572.920388 293.503659 
L 576.062729 284.002239 
L 579.20507 298.145574 
L 582.34741 303.077609 
L 585.489751 298.435694 
L 588.632092 292.34318 
L 591.774432 288.136445 
L 594.916773 295.752087 
L 598.059113 299.523643 
L 601.201454 294.809198 
L 604.343795 298.870874 
L 607.486135 290.022223 
L 610.628476 289.877163 
L 613.770816 288.354035 
L 616.913157 298.073044 
L 620.055498 295.244377 
L 623.197838 276.314067 
L 626.340179 288.136445 
L 629.48252 288.499094 
L 632.62486 290.674992 
L 638.909541 262.968561 
L 642.051882 269.423724 
L 645.194223 276.531657 
L 648.336563 286.178137 
L 651.478904 279.215264 
L 654.621244 287.411146 
L 657.763585 280.883452 
L 660.905926 270.946853 
L 664.048266 297.637865 
L 667.190607 303.222669 
L 670.332948 303.947968 
L 673.475288 292.56077 
L 676.617629 298.943404 
L 679.759969 294.156429 
L 679.759969 294.156429 
" clip-path="url(#p443206758d)" style="fill: none; stroke: #008000; stroke-width: 3; stroke-linecap: square"/>
   </g>
   <g id="line2d_16">
    <path d="M 158.131427 39.866514 
L 161.273768 31.743163 
L 164.416108 42.985301 
L 167.558449 41.534702 
L 170.70079 38.270856 
L 173.84313 47.192036 
L 176.985471 61.552961 
L 180.127811 51.979011 
L 186.412493 81.86134 
L 189.554833 86.648315 
L 192.697174 119.214251 
L 195.839515 119.141721 
L 198.981855 129.150851 
L 202.124196 158.67053 
L 205.266536 145.397554 
L 208.408877 147.573452 
L 211.551218 140.247929 
L 214.693558 131.906988 
L 217.835899 156.712222 
L 220.978239 170.420378 
L 224.12058 190.801286 
L 227.262921 177.38325 
L 230.405261 168.60713 
L 233.547602 201.970895 
L 236.689943 177.238191 
L 239.832283 191.816705 
L 242.974624 207.410639 
L 246.116964 212.415204 
L 249.259305 189.278158 
L 252.401646 204.799562 
L 255.543986 218.870367 
L 258.686327 234.536831 
L 261.828667 236.059959 
L 264.971008 233.739002 
L 268.113349 243.022832 
L 274.39803 244.98114 
L 277.540371 248.970286 
L 280.682711 250.565944 
L 283.825052 227.646488 
L 286.967392 245.561379 
L 290.109733 232.796113 
L 293.252074 241.282114 
L 296.394414 245.996559 
L 299.536755 268.770955 
L 302.679095 258.181586 
L 305.821436 236.785258 
L 308.963777 238.816096 
L 312.106117 252.669312 
L 315.248458 262.098202 
L 318.390799 248.825226 
L 321.533139 250.058235 
L 324.67548 243.022832 
L 327.81782 274.790939 
L 330.960161 279.215264 
L 334.102502 262.896031 
L 337.244842 255.933158 
L 340.387183 253.177021 
L 343.529523 262.170732 
L 346.671864 260.720133 
L 349.814205 266.232408 
L 352.956545 265.289519 
L 356.098886 259.559655 
L 359.241227 266.449997 
L 362.383567 263.62133 
L 365.525908 251.508833 
L 368.668248 265.071929 
L 371.810589 257.818937 
L 374.95293 267.102767 
L 381.237611 276.604187 
L 384.379951 267.683006 
L 387.522292 268.843485 
L 390.664633 261.155313 
L 393.806973 268.553365 
L 396.949314 260.575074 
L 400.091655 253.612201 
L 403.233995 267.900596 
L 406.376336 269.641314 
L 409.518676 266.522527 
L 412.661017 271.962272 
L 415.803358 271.599622 
L 418.945698 271.672152 
L 422.088039 270.439143 
L 425.230379 257.818937 
L 428.37272 257.456287 
L 431.515061 264.2741 
L 434.657401 258.326646 
L 437.799742 254.26497 
L 440.942083 270.584203 
L 444.084423 251.944013 
L 447.226764 270.656733 
L 450.369104 280.085623 
L 453.511445 265.289519 
L 456.653786 247.011978 
L 459.796126 278.852615 
L 462.938467 274.718409 
L 466.080807 274.790939 
L 469.223148 263.69386 
L 472.365489 255.425449 
L 475.507829 257.021107 
L 478.65017 270.366613 
L 481.792511 245.27126 
L 484.934851 243.022832 
L 488.077192 245.05367 
L 491.219532 244.47343 
L 494.361873 248.244987 
L 497.504214 245.05367 
L 500.646554 261.082783 
L 503.788895 258.689296 
L 506.931235 259.342065 
L 510.073576 240.121635 
L 513.215917 258.109056 
L 516.358257 257.601347 
L 519.500598 269.061075 
L 522.642939 268.698425 
L 525.785279 259.922304 
L 528.92762 258.616766 
L 532.06996 256.295808 
L 535.212301 260.792663 
L 538.354642 238.380917 
L 541.496982 263.76639 
L 544.639323 265.362049 
L 547.781664 270.511673 
L 550.924004 270.003964 
L 554.066345 277.329486 
L 557.208685 258.979415 
L 560.351026 260.284954 
L 563.493367 274.573349 
L 566.635707 255.497979 
L 569.778048 275.443708 
L 572.920388 270.294083 
L 576.062729 278.997674 
L 579.20507 270.946853 
L 582.34741 287.701265 
L 585.489751 277.474546 
L 588.632092 284.147299 
L 591.774432 284.655008 
L 594.916773 296.259796 
L 598.059113 290.602462 
L 601.201454 287.411146 
L 604.343795 299.596173 
L 607.486135 294.374018 
L 610.628476 290.892582 
L 613.770816 297.057626 
L 616.913157 294.591608 
L 623.197838 288.644154 
L 626.340179 295.897147 
L 629.48252 304.383148 
L 632.62486 300.829182 
L 635.767201 303.512789 
L 638.909541 301.844601 
L 642.051882 300.901712 
L 645.194223 302.5699 
L 648.336563 295.969677 
L 651.478904 300.394002 
L 654.621244 302.20725 
L 657.763585 292.92342 
L 660.905926 303.875438 
L 664.048266 300.321472 
L 667.190607 305.108447 
L 670.332948 299.088463 
L 673.475288 304.238088 
L 676.617629 304.890857 
L 679.759969 299.306053 
L 679.759969 299.306053 
" clip-path="url(#p443206758d)" style="fill: none; stroke: #ff0000; stroke-width: 3; stroke-linecap: square"/>
   </g>
   <g id="line2d_17">
    <path d="M 158.131427 78.815083 
L 161.273768 96.584915 
L 164.416108 105.723685 
L 167.558449 124.218816 
L 170.70079 143.439246 
L 173.84313 187.90009 
L 176.985471 172.451216 
L 180.127811 213.938332 
L 183.270152 227.573958 
L 186.412493 247.664747 
L 189.554833 238.018267 
L 192.697174 224.237582 
L 195.839515 253.394611 
L 198.981855 238.018267 
L 202.124196 267.683006 
L 205.266536 236.930318 
L 208.408877 254.41003 
L 211.551218 217.274709 
L 214.693558 238.888626 
L 217.835899 242.515122 
L 220.978239 246.504268 
L 224.12058 263.76639 
L 227.262921 272.977691 
L 230.405261 248.172457 
L 233.547602 256.585928 
L 236.689943 255.352919 
L 239.832283 250.711004 
L 242.974624 245.19873 
L 246.116964 268.988545 
L 249.259305 252.089072 
L 252.401646 234.536831 
L 255.543986 260.502544 
L 258.686327 252.306662 
L 261.828667 268.045656 
L 264.971008 261.808082 
L 268.113349 268.408305 
L 271.255689 280.085623 
L 274.39803 265.216989 
L 277.540371 273.70299 
L 280.682711 228.879497 
L 283.825052 249.913175 
L 286.967392 274.573349 
L 290.109733 265.579638 
L 293.252074 273.84805 
L 296.394414 277.474546 
L 299.536755 285.815487 
L 302.679095 285.307778 
L 305.821436 276.821777 
L 308.963777 284.655008 
L 312.106117 272.977691 
L 315.248458 270.294083 
L 321.533139 274.428289 
L 324.67548 270.149024 
L 327.81782 273.34034 
L 330.960161 275.371178 
L 334.102502 282.551641 
L 337.244842 276.459127 
L 340.387183 281.536222 
L 343.529523 273.19528 
L 346.671864 267.900596 
L 349.814205 265.216989 
L 352.956545 290.965112 
L 356.098886 277.837196 
L 359.241227 273.34034 
L 362.383567 295.824617 
L 365.525908 289.079334 
L 368.668248 281.681282 
L 371.810589 286.105607 
L 374.95293 281.173572 
L 378.09527 278.127315 
L 381.237611 276.604187 
L 384.379951 276.241537 
L 387.522292 258.834355 
L 390.664633 275.298648 
L 393.806973 286.903436 
L 396.949314 287.048496 
L 400.091655 280.158153 
L 403.233995 288.861744 
L 406.376336 278.635025 
L 409.518676 297.710395 
L 412.661017 290.529932 
L 415.803358 282.116461 
L 418.945698 281.681282 
L 422.088039 278.925144 
L 425.230379 231.635634 
L 428.37272 272.905161 
L 431.515061 262.896031 
L 434.657401 281.608752 
L 437.799742 264.2741 
L 440.942083 278.852615 
L 444.084423 285.670427 
L 447.226764 290.312343 
L 450.369104 291.182702 
L 453.511445 294.736668 
L 456.653786 295.679557 
L 459.796126 276.821777 
L 462.938467 276.459127 
L 466.080807 285.235248 
L 469.223148 283.784649 
L 472.365489 289.949693 
L 475.507829 295.099318 
L 478.65017 287.556205 
L 481.792511 290.747522 
L 484.934851 281.173572 
L 491.219532 288.789214 
L 494.361873 286.903436 
L 497.504214 290.674992 
L 500.646554 281.681282 
L 503.788895 291.182702 
L 506.931235 275.806358 
L 510.073576 279.215264 
L 513.215917 292.77836 
L 516.358257 285.742957 
L 519.500598 285.235248 
L 522.642939 276.386597 
L 525.785279 272.760101 
L 528.92762 246.359208 
L 532.06996 285.452838 
L 535.212301 267.320357 
L 538.354642 271.889742 
L 541.496982 295.461967 
L 544.639323 285.235248 
L 547.781664 290.022223 
L 550.924004 289.369454 
L 554.066345 283.49453 
L 557.208685 276.894307 
L 560.351026 274.718409 
L 563.493367 284.727538 
L 566.635707 288.789214 
L 569.778048 283.05935 
L 572.920388 292.77836 
L 576.062729 289.659573 
L 579.20507 291.182702 
L 582.34741 280.738393 
L 585.489751 279.287794 
L 588.632092 284.509949 
L 591.774432 290.529932 
L 594.916773 290.094753 
L 598.059113 302.42484 
L 601.201454 293.431129 
L 604.343795 294.156429 
L 607.486135 298.508224 
L 610.628476 286.178137 
L 616.913157 271.889742 
L 620.055498 280.013093 
L 623.197838 293.21354 
L 626.340179 297.202685 
L 629.48252 280.593333 
L 632.62486 287.701265 
L 635.767201 267.900596 
L 638.909541 287.773795 
L 642.051882 274.500819 
L 645.194223 280.230683 
L 648.336563 297.565335 
L 651.478904 292.56077 
L 654.621244 296.042207 
L 657.763585 286.613316 
L 660.905926 296.912566 
L 664.048266 293.721249 
L 667.190607 291.835471 
L 670.332948 291.835471 
L 673.475288 292.053061 
L 676.617629 292.41571 
L 679.759969 282.551641 
L 679.759969 282.551641 
" clip-path="url(#p443206758d)" style="fill: none; stroke: #ffa500; stroke-width: 3; stroke-linecap: square"/>
   </g>
   <g id="patch_3">
    <path d="M 132.05 343.96 
L 132.05 10.8 
" style="fill: none; stroke: #000000; stroke-width: 0.8; stroke-linejoin: miter; stroke-linecap: square"/>
   </g>
   <g id="patch_4">
    <path d="M 705.841396 343.96 
L 705.841396 10.8 
" style="fill: none; stroke: #000000; stroke-width: 0.8; stroke-linejoin: miter; stroke-linecap: square"/>
   </g>
   <g id="patch_5">
    <path d="M 132.05 343.96 
L 705.841396 343.96 
" style="fill: none; stroke: #000000; stroke-width: 0.8; stroke-linejoin: miter; stroke-linecap: square"/>
   </g>
   <g id="patch_6">
    <path d="M 132.05 10.8 
L 705.841396 10.8 
" style="fill: none; stroke: #000000; stroke-width: 0.8; stroke-linejoin: miter; stroke-linecap: square"/>
   </g>
  </g>
 </g>
 <defs>
  <clipPath id="p443206758d">
   <rect x="132.05" y="10.8" width="573.791396" height="333.16"/>
  </clipPath>
 </defs>
</svg>
