<?xml version="1.0" encoding="utf-8" standalone="no"?>
<!DOCTYPE svg PUBLIC "-//W3C//DTD SVG 1.1//EN"
  "http://www.w3.org/Graphics/SVG/1.1/DTD/svg11.dtd">
<svg xmlns:xlink="http://www.w3.org/1999/xlink" width="576pt" height="432pt" viewBox="0 0 576 432" xmlns="http://www.w3.org/2000/svg" version="1.1">
 <metadata>
  <rdf:RDF xmlns:dc="http://purl.org/dc/elements/1.1/" xmlns:cc="http://creativecommons.org/ns#" xmlns:rdf="http://www.w3.org/1999/02/22-rdf-syntax-ns#">
   <cc:Work>
    <dc:type rdf:resource="http://purl.org/dc/dcmitype/StillImage"/>
    <dc:date>2025-06-19T21:43:45.857430</dc:date>
    <dc:format>image/svg+xml</dc:format>
    <dc:creator>
     <cc:Agent>
      <dc:title>Matplotlib v3.7.1, https://matplotlib.org/</dc:title>
     </cc:Agent>
    </dc:creator>
   </cc:Work>
  </rdf:RDF>
 </metadata>
 <defs>
  <style type="text/css">*{stroke-linejoin: round; stroke-linecap: butt}</style>
 </defs>
 <g id="figure_1">
  <g id="patch_1">
   <path d="M 0 432 
L 576 432 
L 576 0 
L 0 0 
z
" style="fill: #ffffff"/>
  </g>
  <g id="axes_1">
   <g id="patch_2">
    <path d="M 479.75 229.45 
C 479.75 204.269621 474.790014 179.334089 465.1539 156.070452 
C 455.517786 132.806815 441.392942 111.667492 423.587725 93.862275 
C 405.782508 76.057058 384.643185 61.932214 361.379548 52.2961 
C 338.115911 42.659986 313.180379 37.7 288 37.7 
C 262.819621 37.7 237.884089 42.659986 214.620452 52.2961 
C 191.356815 61.932214 170.217492 76.057058 152.412275 93.862275 
C 134.607058 111.667492 120.482214 132.806815 110.8461 156.070452 
C 101.209986 179.334089 96.25 204.269621 96.25 229.45 
C 96.25 254.630379 101.209986 279.565911 110.8461 302.829548 
C 120.482214 326.093185 134.607058 347.232508 152.412275 365.037725 
C 170.217492 382.842942 191.356815 396.967786 214.620452 406.6039 
C 237.884089 416.240014 262.819621 421.2 288 421.2 
C 313.180379 421.2 338.115911 416.240014 361.379548 406.6039 
C 384.643185 396.967786 405.782508 382.842942 423.587725 365.037725 
C 441.392942 347.232508 455.517786 326.093185 465.1539 302.829548 
C 474.790014 279.565911 479.75 254.630379 479.75 229.45 
M 288 229.45 
C 288 229.45 288 229.45 288 229.45 
C 288 229.45 288 229.45 288 229.45 
C 288 229.45 288 229.45 288 229.45 
C 288 229.45 288 229.45 288 229.45 
C 288 229.45 288 229.45 288 229.45 
C 288 229.45 288 229.45 288 229.45 
C 288 229.45 288 229.45 288 229.45 
C 288 229.45 288 229.45 288 229.45 
C 288 229.45 288 229.45 288 229.45 
C 288 229.45 288 229.45 288 229.45 
C 288 229.45 288 229.45 288 229.45 
C 288 229.45 288 229.45 288 229.45 
C 288 229.45 288 229.45 288 229.45 
C 288 229.45 288 229.45 288 229.45 
C 288 229.45 288 229.45 288 229.45 
C 288 229.45 288 229.45 288 229.45 
z
" style="fill: #ffffff"/>
   </g>
   <g id="matplotlib.axis_1">
    <g id="xtick_1">
     <g id="line2d_1">
      <path d="M 288 229.45 
L 288 37.7 
" clip-path="url(#pdac066b665)" style="fill: none; stroke-dasharray: 2.96,1.28; stroke-dashoffset: 0; stroke: #b0b0b0; stroke-width: 0.8"/>
     </g>
     <g id="text_1">
      <!-- $m_{cov}$ -->
      <g transform="translate(260.125 30.584766) scale(0.25 -0.25)">
       <defs>
        <path id="DejaVuSans-Oblique-6d" d="M 5747 2113 
L 5338 0 
L 4763 0 
L 5166 2094 
Q 5191 2228 5203 2325 
Q 5216 2422 5216 2491 
Q 5216 2772 5059 2928 
Q 4903 3084 4622 3084 
Q 4203 3084 3875 2770 
Q 3547 2456 3450 1953 
L 3066 0 
L 2491 0 
L 2900 2094 
Q 2925 2209 2937 2307 
Q 2950 2406 2950 2484 
Q 2950 2769 2794 2926 
Q 2638 3084 2363 3084 
Q 1938 3084 1609 2770 
Q 1281 2456 1184 1953 
L 800 0 
L 225 0 
L 909 3500 
L 1484 3500 
L 1375 2956 
Q 1609 3263 1923 3423 
Q 2238 3584 2597 3584 
Q 2978 3584 3223 3384 
Q 3469 3184 3519 2828 
Q 3781 3197 4126 3390 
Q 4472 3584 4856 3584 
Q 5306 3584 5551 3325 
Q 5797 3066 5797 2591 
Q 5797 2488 5784 2364 
Q 5772 2241 5747 2113 
z
" transform="scale(0.015625)"/>
        <path id="DejaVuSans-Oblique-63" d="M 3431 3366 
L 3316 2797 
Q 3109 2947 2876 3022 
Q 2644 3097 2394 3097 
Q 2119 3097 1870 3000 
Q 1622 2903 1453 2725 
Q 1184 2453 1037 2087 
Q 891 1722 891 1331 
Q 891 859 1127 628 
Q 1363 397 1844 397 
Q 2081 397 2348 469 
Q 2616 541 2906 684 
L 2797 116 
Q 2547 13 2283 -39 
Q 2019 -91 1741 -91 
Q 1044 -91 669 257 
Q 294 606 294 1253 
Q 294 1797 489 2255 
Q 684 2713 1069 3078 
Q 1331 3328 1684 3456 
Q 2038 3584 2456 3584 
Q 2700 3584 2940 3529 
Q 3181 3475 3431 3366 
z
" transform="scale(0.015625)"/>
        <path id="DejaVuSans-Oblique-6f" d="M 1625 -91 
Q 1009 -91 651 289 
Q 294 669 294 1325 
Q 294 1706 417 2101 
Q 541 2497 738 2766 
Q 1047 3184 1428 3384 
Q 1809 3584 2291 3584 
Q 2888 3584 3255 3212 
Q 3622 2841 3622 2241 
Q 3622 1825 3500 1412 
Q 3378 1000 3181 728 
Q 2875 309 2494 109 
Q 2113 -91 1625 -91 
z
M 891 1344 
Q 891 869 1089 633 
Q 1288 397 1691 397 
Q 2269 397 2648 901 
Q 3028 1406 3028 2181 
Q 3028 2634 2825 2865 
Q 2622 3097 2228 3097 
Q 1903 3097 1650 2945 
Q 1397 2794 1197 2484 
Q 1050 2253 970 1956 
Q 891 1659 891 1344 
z
" transform="scale(0.015625)"/>
        <path id="DejaVuSans-Oblique-76" d="M 459 3500 
L 1069 3500 
L 1581 525 
L 3256 3500 
L 3866 3500 
L 1875 0 
L 1100 0 
L 459 3500 
z
" transform="scale(0.015625)"/>
       </defs>
       <use xlink:href="#DejaVuSans-Oblique-6d"/>
       <use xlink:href="#DejaVuSans-Oblique-63" transform="translate(97.412109 -16.40625) scale(0.7)"/>
       <use xlink:href="#DejaVuSans-Oblique-6f" transform="translate(135.898438 -16.40625) scale(0.7)"/>
       <use xlink:href="#DejaVuSans-Oblique-76" transform="translate(178.725586 -16.40625) scale(0.7)"/>
      </g>
     </g>
    </g>
    <g id="xtick_2">
     <g id="line2d_2">
      <path d="M 288 229.45 
L 470.365087 170.195991 
" clip-path="url(#pdac066b665)" style="fill: none; stroke-dasharray: 2.96,1.28; stroke-dashoffset: 0; stroke: #b0b0b0; stroke-width: 0.8"/>
     </g>
     <g id="text_2">
      <!-- $m_{vct}$ -->
      <g transform="translate(457.679878 172.754519) scale(0.25 -0.25)">
       <defs>
        <path id="DejaVuSans-Oblique-74" d="M 2706 3500 
L 2619 3053 
L 1472 3053 
L 1100 1153 
Q 1081 1047 1072 975 
Q 1063 903 1063 863 
Q 1063 663 1183 572 
Q 1303 481 1569 481 
L 2150 481 
L 2053 0 
L 1503 0 
Q 991 0 739 200 
Q 488 400 488 806 
Q 488 878 497 964 
Q 506 1050 525 1153 
L 897 3053 
L 409 3053 
L 500 3500 
L 978 3500 
L 1172 4494 
L 1747 4494 
L 1556 3500 
L 2706 3500 
z
" transform="scale(0.015625)"/>
       </defs>
       <use xlink:href="#DejaVuSans-Oblique-6d"/>
       <use xlink:href="#DejaVuSans-Oblique-76" transform="translate(97.412109 -16.40625) scale(0.7)"/>
       <use xlink:href="#DejaVuSans-Oblique-63" transform="translate(138.837891 -16.40625) scale(0.7)"/>
       <use xlink:href="#DejaVuSans-Oblique-74" transform="translate(177.324219 -16.40625) scale(0.7)"/>
      </g>
     </g>
    </g>
    <g id="xtick_3">
     <g id="line2d_3">
      <path d="M 288 229.45 
L 400.707822 384.579009 
" clip-path="url(#pdac066b665)" style="fill: none; stroke-dasharray: 2.96,1.28; stroke-dashoffset: 0; stroke: #b0b0b0; stroke-width: 0.8"/>
     </g>
     <g id="text_3">
      <!-- $m_{to}$ -->
      <g transform="translate(387.561816 402.790012) scale(0.25 -0.25)">
       <use xlink:href="#DejaVuSans-Oblique-6d"/>
       <use xlink:href="#DejaVuSans-Oblique-74" transform="translate(97.412109 -16.40625) scale(0.7)"/>
       <use xlink:href="#DejaVuSans-Oblique-6f" transform="translate(124.858398 -16.40625) scale(0.7)"/>
      </g>
     </g>
    </g>
    <g id="xtick_4">
     <g id="line2d_4">
      <path d="M 288 229.45 
L 175.292178 384.579009 
" clip-path="url(#pdac066b665)" style="fill: none; stroke-dasharray: 2.96,1.28; stroke-dashoffset: 0; stroke: #b0b0b0; stroke-width: 0.8"/>
     </g>
     <g id="text_4">
      <!-- $m_{do}$ -->
      <g transform="translate(143.563184 402.790012) scale(0.25 -0.25)">
       <defs>
        <path id="DejaVuSans-Oblique-64" d="M 2675 525 
Q 2444 222 2128 65 
Q 1813 -91 1428 -91 
Q 903 -91 598 267 
Q 294 625 294 1247 
Q 294 1766 478 2236 
Q 663 2706 1013 3078 
Q 1244 3325 1534 3454 
Q 1825 3584 2144 3584 
Q 2481 3584 2739 3421 
Q 2997 3259 3138 2956 
L 3513 4863 
L 4091 4863 
L 3144 0 
L 2566 0 
L 2675 525 
z
M 891 1350 
Q 891 897 1095 644 
Q 1300 391 1663 391 
Q 1931 391 2161 520 
Q 2391 650 2566 903 
Q 2750 1166 2856 1509 
Q 2963 1853 2963 2188 
Q 2963 2622 2758 2865 
Q 2553 3109 2194 3109 
Q 1922 3109 1687 2981 
Q 1453 2853 1288 2613 
Q 1106 2353 998 2009 
Q 891 1666 891 1350 
z
" transform="scale(0.015625)"/>
       </defs>
       <use xlink:href="#DejaVuSans-Oblique-6d"/>
       <use xlink:href="#DejaVuSans-Oblique-64" transform="translate(97.412109 -16.40625) scale(0.7)"/>
       <use xlink:href="#DejaVuSans-Oblique-6f" transform="translate(141.845703 -16.40625) scale(0.7)"/>
      </g>
     </g>
    </g>
    <g id="xtick_5">
     <g id="line2d_5">
      <path d="M 288 229.45 
L 105.634913 170.195991 
" clip-path="url(#pdac066b665)" style="fill: none; stroke-dasharray: 2.96,1.28; stroke-dashoffset: 0; stroke: #b0b0b0; stroke-width: 0.8"/>
     </g>
     <g id="text_5">
      <!-- $m_{awd}$ -->
      <g transform="translate(61.695122 172.754519) scale(0.25 -0.25)">
       <defs>
        <path id="DejaVuSans-Oblique-61" d="M 3438 1997 
L 3047 0 
L 2472 0 
L 2578 531 
Q 2325 219 2001 64 
Q 1678 -91 1281 -91 
Q 834 -91 548 182 
Q 263 456 263 884 
Q 263 1497 752 1853 
Q 1241 2209 2100 2209 
L 2900 2209 
L 2931 2363 
Q 2938 2388 2941 2417 
Q 2944 2447 2944 2509 
Q 2944 2788 2717 2942 
Q 2491 3097 2081 3097 
Q 1800 3097 1504 3025 
Q 1209 2953 897 2809 
L 997 3341 
Q 1322 3463 1633 3523 
Q 1944 3584 2234 3584 
Q 2853 3584 3176 3315 
Q 3500 3047 3500 2534 
Q 3500 2431 3484 2292 
Q 3469 2153 3438 1997 
z
M 2816 1759 
L 2241 1759 
Q 1534 1759 1195 1570 
Q 856 1381 856 984 
Q 856 709 1029 553 
Q 1203 397 1509 397 
Q 1978 397 2328 733 
Q 2678 1069 2791 1631 
L 2816 1759 
z
" transform="scale(0.015625)"/>
        <path id="DejaVuSans-Oblique-77" d="M 544 3500 
L 1113 3500 
L 1259 684 
L 2566 3500 
L 3231 3500 
L 3425 684 
L 4666 3500 
L 5241 3500 
L 3641 0 
L 2969 0 
L 2797 2900 
L 1459 0 
L 781 0 
L 544 3500 
z
" transform="scale(0.015625)"/>
       </defs>
       <use xlink:href="#DejaVuSans-Oblique-6d"/>
       <use xlink:href="#DejaVuSans-Oblique-61" transform="translate(97.412109 -16.40625) scale(0.7)"/>
       <use xlink:href="#DejaVuSans-Oblique-77" transform="translate(140.307617 -16.40625) scale(0.7)"/>
       <use xlink:href="#DejaVuSans-Oblique-64" transform="translate(197.558594 -16.40625) scale(0.7)"/>
      </g>
     </g>
    </g>
   </g>
   <g id="matplotlib.axis_2">
    <g id="ytick_1">
     <g id="line2d_6">
      <path d="M 288 229.45 
C 288 229.45 288 229.45 288 229.45 
C 288 229.45 288 229.45 288 229.45 
C 288 229.45 288 229.45 288 229.45 
C 288 229.45 288 229.45 288 229.45 
C 288 229.45 288 229.45 288 229.45 
C 288 229.45 288 229.45 288 229.45 
C 288 229.45 288 229.45 288 229.45 
C 288 229.45 288 229.45 288 229.45 
C 288 229.45 288 229.45 288 229.45 
C 288 229.45 288 229.45 288 229.45 
C 288 229.45 288 229.45 288 229.45 
C 288 229.45 288 229.45 288 229.45 
C 288 229.45 288 229.45 288 229.45 
C 288 229.45 288 229.45 288 229.45 
C 288 229.45 288 229.45 288 229.45 
C 288 229.45 288 229.45 288 229.45 
" clip-path="url(#pdac066b665)" style="fill: none; stroke-dasharray: 2.96,1.28; stroke-dashoffset: 0; stroke: #b0b0b0; stroke-width: 0.8"/>
     </g>
     <g id="text_6">
      <!-- 0 -->
      <g style="fill: #808080" transform="translate(288 226.964063) scale(0.1 -0.1)">
       <defs>
        <path id="MicrosoftYaHei-30" d="M 284 2325 
Q 284 3606 709 4264 
Q 1134 4922 1941 4922 
Q 3478 4922 3478 2441 
Q 3478 1216 3045 567 
Q 2613 -81 1831 -81 
Q 1094 -81 689 534 
Q 284 1150 284 2325 
z
M 909 2353 
Q 909 425 1888 425 
Q 2850 425 2850 2384 
Q 2850 4413 1906 4413 
Q 909 4413 909 2353 
z
" transform="scale(0.015625)"/>
       </defs>
       <use xlink:href="#MicrosoftYaHei-30"/>
      </g>
     </g>
    </g>
    <g id="ytick_2">
     <g id="line2d_7">
      <path d="M 288 191.1 
C 293.036076 191.1 298.023182 192.091997 302.67591 194.01922 
C 307.328637 195.946443 311.556502 198.771412 315.117545 202.332455 
C 318.678588 205.893498 321.503557 210.121363 323.43078 214.77409 
C 325.358003 219.426818 326.35 224.413924 326.35 229.45 
C 326.35 234.486076 325.358003 239.473182 323.43078 244.12591 
C 321.503557 248.778637 318.678588 253.006502 315.117545 256.567545 
C 311.556502 260.128588 307.328637 262.953557 302.67591 264.88078 
C 298.023182 266.808003 293.036076 267.8 288 267.8 
C 282.963924 267.8 277.976818 266.808003 273.32409 264.88078 
C 268.671363 262.953557 264.443498 260.128588 260.882455 256.567545 
C 257.321412 253.006502 254.496443 248.778637 252.56922 244.12591 
C 250.641997 239.473182 249.65 234.486076 249.65 229.45 
C 249.65 224.413924 250.641997 219.426818 252.56922 214.77409 
C 254.496443 210.121363 257.321412 205.893498 260.882455 202.332455 
C 264.443498 198.771412 268.671363 195.946443 273.32409 194.01922 
C 277.976818 192.091997 282.963924 191.1 288 191.1 
" clip-path="url(#pdac066b665)" style="fill: none; stroke-dasharray: 2.96,1.28; stroke-dashoffset: 0; stroke: #b0b0b0; stroke-width: 0.8"/>
     </g>
     <g id="text_7">
      <!-- 0.2 -->
      <g style="fill: #808080" transform="translate(302.67591 191.533282) scale(0.1 -0.1)">
       <defs>
        <path id="MicrosoftYaHei-2e" d="M 372 322 
Q 372 491 487 606 
Q 603 722 775 722 
Q 950 722 1065 605 
Q 1181 488 1181 322 
Q 1181 159 1065 42 
Q 950 -75 772 -75 
Q 600 -75 486 42 
Q 372 159 372 322 
z
" transform="scale(0.015625)"/>
        <path id="MicrosoftYaHei-32" d="M 2666 3572 
Q 2666 3963 2419 4186 
Q 2172 4409 1747 4409 
Q 1447 4409 1140 4256 
Q 834 4103 569 3819 
L 569 4413 
Q 806 4659 1107 4790 
Q 1409 4922 1816 4922 
Q 2472 4922 2872 4570 
Q 3272 4219 3272 3619 
Q 3272 3084 3026 2693 
Q 2781 2303 2188 1894 
Q 1581 1475 1376 1294 
Q 1172 1113 1090 947 
Q 1009 781 1009 544 
L 3416 544 
L 3416 0 
L 372 0 
L 372 241 
Q 372 659 486 951 
Q 600 1244 862 1520 
Q 1125 1797 1681 2184 
Q 2250 2584 2458 2886 
Q 2666 3188 2666 3572 
z
" transform="scale(0.015625)"/>
       </defs>
       <use xlink:href="#MicrosoftYaHei-30"/>
       <use xlink:href="#MicrosoftYaHei-2e" x="58.642578"/>
       <use xlink:href="#MicrosoftYaHei-32" x="82.714844"/>
      </g>
     </g>
    </g>
    <g id="ytick_3">
     <g id="line2d_8">
      <path d="M 288 152.75 
C 298.072152 152.75 308.046364 154.733994 317.351819 158.58844 
C 326.657274 162.442885 335.113003 168.092823 342.23509 175.21491 
C 349.357177 182.336997 355.007115 190.792726 358.86156 200.098181 
C 362.716006 209.403636 364.7 219.377848 364.7 229.45 
C 364.7 239.522152 362.716006 249.496364 358.86156 258.801819 
C 355.007115 268.107274 349.357177 276.563003 342.23509 283.68509 
C 335.113003 290.807177 326.657274 296.457115 317.351819 300.31156 
C 308.046364 304.166006 298.072152 306.15 288 306.15 
C 277.927848 306.15 267.953636 304.166006 258.648181 300.31156 
C 249.342726 296.457115 240.886997 290.807177 233.76491 283.68509 
C 226.642823 276.563003 220.992885 268.107274 217.13844 258.801819 
C 213.283994 249.496364 211.3 239.522152 211.3 229.45 
C 211.3 219.377848 213.283994 209.403636 217.13844 200.098181 
C 220.992885 190.792726 226.642823 182.336997 233.76491 175.21491 
C 240.886997 168.092823 249.342726 162.442885 258.648181 158.58844 
C 267.953636 154.733994 277.927848 152.75 288 152.75 
" clip-path="url(#pdac066b665)" style="fill: none; stroke-dasharray: 2.96,1.28; stroke-dashoffset: 0; stroke: #b0b0b0; stroke-width: 0.8"/>
     </g>
     <g id="text_8">
      <!-- 0.4 -->
      <g style="fill: #808080" transform="translate(317.351819 156.102502) scale(0.1 -0.1)">
       <defs>
        <path id="MicrosoftYaHei-34" d="M 2906 4841 
L 2906 1644 
L 3631 1644 
L 3631 1138 
L 2906 1138 
L 2906 0 
L 2313 0 
L 2313 1138 
L 53 1138 
L 53 1616 
Q 656 2294 1265 3178 
Q 1875 4063 2272 4841 
L 2906 4841 
z
M 741 1644 
L 2313 1644 
L 2313 3950 
Q 1988 3366 1616 2817 
Q 1244 2269 741 1644 
z
" transform="scale(0.015625)"/>
       </defs>
       <use xlink:href="#MicrosoftYaHei-30"/>
       <use xlink:href="#MicrosoftYaHei-2e" x="58.642578"/>
       <use xlink:href="#MicrosoftYaHei-34" x="82.714844"/>
      </g>
     </g>
    </g>
    <g id="ytick_4">
     <g id="line2d_9">
      <path d="M 288 114.4 
C 303.108228 114.4 318.069547 117.375991 332.027729 123.15766 
C 345.985911 128.939328 358.669505 137.414235 369.352635 148.097365 
C 380.035765 158.780495 388.510672 171.464089 394.29234 185.422271 
C 400.074009 199.380453 403.05 214.341772 403.05 229.45 
C 403.05 244.558228 400.074009 259.519547 394.29234 273.477729 
C 388.510672 287.435911 380.035765 300.119505 369.352635 310.802635 
C 358.669505 321.485765 345.985911 329.960672 332.027729 335.74234 
C 318.069547 341.524009 303.108228 344.5 288 344.5 
C 272.891772 344.5 257.930453 341.524009 243.972271 335.74234 
C 230.014089 329.960672 217.330495 321.485765 206.647365 310.802635 
C 195.964235 300.119505 187.489328 287.435911 181.70766 273.477729 
C 175.925991 259.519547 172.95 244.558228 172.95 229.45 
C 172.95 214.341772 175.925991 199.380453 181.70766 185.422271 
C 187.489328 171.464089 195.964235 158.780495 206.647365 148.097365 
C 217.330495 137.414235 230.014089 128.939328 243.972271 123.15766 
C 257.930453 117.375991 272.891772 114.4 288 114.4 
" clip-path="url(#pdac066b665)" style="fill: none; stroke-dasharray: 2.96,1.28; stroke-dashoffset: 0; stroke: #b0b0b0; stroke-width: 0.8"/>
     </g>
     <g id="text_9">
      <!-- 0.6 -->
      <g style="fill: #808080" transform="translate(332.027729 120.671722) scale(0.1 -0.1)">
       <defs>
        <path id="MicrosoftYaHei-36" d="M 3181 4219 
Q 2803 4413 2391 4413 
Q 1763 4413 1381 3866 
Q 1000 3319 994 2372 
L 1009 2372 
Q 1353 3038 2106 3038 
Q 2734 3038 3109 2628 
Q 3484 2219 3484 1541 
Q 3484 831 3051 375 
Q 2619 -81 1947 -81 
Q 1209 -81 789 495 
Q 369 1072 369 2131 
Q 369 3413 920 4167 
Q 1472 4922 2372 4922 
Q 2888 4922 3181 4781 
L 3181 4219 
z
M 1031 1584 
Q 1031 1106 1286 765 
Q 1541 425 1963 425 
Q 2363 425 2613 719 
Q 2863 1013 2863 1475 
Q 2863 1975 2627 2253 
Q 2391 2531 1956 2531 
Q 1544 2531 1287 2250 
Q 1031 1969 1031 1584 
z
" transform="scale(0.015625)"/>
       </defs>
       <use xlink:href="#MicrosoftYaHei-30"/>
       <use xlink:href="#MicrosoftYaHei-2e" x="58.642578"/>
       <use xlink:href="#MicrosoftYaHei-36" x="82.714844"/>
      </g>
     </g>
    </g>
    <g id="ytick_5">
     <g id="line2d_10">
      <path d="M 288 76.05 
C 308.144303 76.05 328.092729 80.017989 346.703639 87.72688 
C 365.314548 95.435771 382.226007 106.735646 396.47018 120.97982 
C 410.714354 135.223993 422.014229 152.135452 429.72312 170.746361 
C 437.432011 189.357271 441.4 209.305697 441.4 229.45 
C 441.4 249.594303 437.432011 269.542729 429.72312 288.153639 
C 422.014229 306.764548 410.714354 323.676007 396.47018 337.92018 
C 382.226007 352.164354 365.314548 363.464229 346.703639 371.17312 
C 328.092729 378.882011 308.144303 382.85 288 382.85 
C 267.855697 382.85 247.907271 378.882011 229.296361 371.17312 
C 210.685452 363.464229 193.773993 352.164354 179.52982 337.92018 
C 165.285646 323.676007 153.985771 306.764548 146.27688 288.153639 
C 138.567989 269.542729 134.6 249.594303 134.6 229.45 
C 134.6 209.305697 138.567989 189.357271 146.27688 170.746361 
C 153.985771 152.135452 165.285646 135.223993 179.52982 120.97982 
C 193.773993 106.735646 210.685452 95.435771 229.296361 87.72688 
C 247.907271 80.017989 267.855697 76.05 288 76.05 
" clip-path="url(#pdac066b665)" style="fill: none; stroke-dasharray: 2.96,1.28; stroke-dashoffset: 0; stroke: #b0b0b0; stroke-width: 0.8"/>
     </g>
     <g id="text_10">
      <!-- 0.8 -->
      <g style="fill: #808080" transform="translate(346.703639 85.240942) scale(0.1 -0.1)">
       <defs>
        <path id="MicrosoftYaHei-38" d="M 306 1350 
Q 306 1769 556 2122 
Q 806 2475 1200 2625 
Q 884 2803 700 3081 
Q 516 3359 516 3684 
Q 516 4028 692 4312 
Q 869 4597 1183 4759 
Q 1497 4922 1875 4922 
Q 2256 4922 2572 4761 
Q 2888 4600 3063 4315 
Q 3238 4031 3238 3684 
Q 3238 3366 3058 3086 
Q 2878 2806 2559 2625 
Q 2953 2472 3200 2119 
Q 3447 1766 3447 1350 
Q 3447 938 3250 611 
Q 3053 284 2690 103 
Q 2328 -78 1875 -78 
Q 1425 -78 1065 103 
Q 706 284 506 612 
Q 306 941 306 1350 
z
M 906 1378 
Q 906 947 1172 687 
Q 1438 428 1878 428 
Q 2309 428 2582 692 
Q 2856 956 2856 1378 
Q 2856 1778 2579 2051 
Q 2303 2325 1878 2325 
Q 1456 2325 1181 2058 
Q 906 1791 906 1378 
z
M 1081 3634 
Q 1081 3309 1312 3076 
Q 1544 2844 1878 2844 
Q 2206 2844 2445 3078 
Q 2684 3313 2684 3634 
Q 2684 3963 2454 4191 
Q 2225 4419 1878 4419 
Q 1534 4419 1307 4195 
Q 1081 3972 1081 3634 
z
" transform="scale(0.015625)"/>
       </defs>
       <use xlink:href="#MicrosoftYaHei-30"/>
       <use xlink:href="#MicrosoftYaHei-2e" x="58.642578"/>
       <use xlink:href="#MicrosoftYaHei-38" x="82.714844"/>
      </g>
     </g>
    </g>
    <g id="ytick_6">
     <g id="line2d_11">
      <path d="M 288 37.7 
C 313.180379 37.7 338.115911 42.659986 361.379548 52.2961 
C 384.643185 61.932214 405.782508 76.057058 423.587725 93.862275 
C 441.392942 111.667492 455.517786 132.806815 465.1539 156.070452 
C 474.790014 179.334089 479.75 204.269621 479.75 229.45 
C 479.75 254.630379 474.790014 279.565911 465.1539 302.829548 
C 455.517786 326.093185 441.392942 347.232508 423.587725 365.037725 
C 405.782508 382.842942 384.643185 396.967786 361.379548 406.6039 
C 338.115911 416.240014 313.180379 421.2 288 421.2 
C 262.819621 421.2 237.884089 416.240014 214.620452 406.6039 
C 191.356815 396.967786 170.217492 382.842942 152.412275 365.037725 
C 134.607058 347.232508 120.482214 326.093185 110.8461 302.829548 
C 101.209986 279.565911 96.25 254.630379 96.25 229.45 
C 96.25 204.269621 101.209986 179.334089 110.8461 156.070452 
C 120.482214 132.806815 134.607058 111.667492 152.412275 93.862275 
C 170.217492 76.057058 191.356815 61.932214 214.620452 52.2961 
C 237.884089 42.659986 262.819621 37.7 288 37.7 
" clip-path="url(#pdac066b665)" style="fill: none; stroke-dasharray: 2.96,1.28; stroke-dashoffset: 0; stroke: #b0b0b0; stroke-width: 0.8"/>
     </g>
     <g id="text_11">
      <!-- 1 -->
      <g style="fill: #808080" transform="translate(361.379548 49.810162) scale(0.1 -0.1)">
       <defs>
        <path id="MicrosoftYaHei-31" d="M 1781 0 
L 1781 4141 
Q 1638 3997 1295 3819 
Q 953 3641 663 3569 
L 663 4169 
Q 1047 4275 1484 4508 
Q 1922 4741 2156 4947 
L 2388 4947 
L 2388 0 
L 1781 0 
z
" transform="scale(0.015625)"/>
       </defs>
       <use xlink:href="#MicrosoftYaHei-31"/>
      </g>
     </g>
    </g>
   </g>
   <g id="line2d_12">
    <path d="M 288 66.177095 
L 452.128578 176.121392 
L 389.43704 369.066108 
L 186.56296 369.066108 
L 123.871422 176.121392 
L 288 66.177095 
" clip-path="url(#pdac066b665)" style="fill: none; stroke: #d00000; stroke-opacity: 0.8; stroke-width: 2.5; stroke-linecap: square"/>
    <defs>
     <path id="m3591d5da71" d="M 0 3 
C 0.795609 3 1.55874 2.683901 2.12132 2.12132 
C 2.683901 1.55874 3 0.795609 3 0 
C 3 -0.795609 2.683901 -1.55874 2.12132 -2.12132 
C 1.55874 -2.683901 0.795609 -3 0 -3 
C -0.795609 -3 -1.55874 -2.683901 -2.12132 -2.12132 
C -2.683901 -1.55874 -3 -0.795609 -3 0 
C -3 0.795609 -2.683901 1.55874 -2.12132 2.12132 
C -1.55874 2.683901 -0.795609 3 0 3 
z
" style="stroke: #d00000; stroke-opacity: 0.8"/>
    </defs>
    <g clip-path="url(#pdac066b665)">
     <use xlink:href="#m3591d5da71" x="288" y="66.177095" style="fill: #d00000; fill-opacity: 0.8; stroke: #d00000; stroke-opacity: 0.8"/>
     <use xlink:href="#m3591d5da71" x="452.128578" y="176.121392" style="fill: #d00000; fill-opacity: 0.8; stroke: #d00000; stroke-opacity: 0.8"/>
     <use xlink:href="#m3591d5da71" x="389.43704" y="369.066108" style="fill: #d00000; fill-opacity: 0.8; stroke: #d00000; stroke-opacity: 0.8"/>
     <use xlink:href="#m3591d5da71" x="186.56296" y="369.066108" style="fill: #d00000; fill-opacity: 0.8; stroke: #d00000; stroke-opacity: 0.8"/>
     <use xlink:href="#m3591d5da71" x="123.871422" y="176.121392" style="fill: #d00000; fill-opacity: 0.8; stroke: #d00000; stroke-opacity: 0.8"/>
     <use xlink:href="#m3591d5da71" x="288" y="66.177095" style="fill: #d00000; fill-opacity: 0.8; stroke: #d00000; stroke-opacity: 0.8"/>
    </g>
   </g>
   <g id="line2d_13">
    <path d="M 288 137.211273 
L 428.130991 183.918681 
L 317.172791 269.602902 
L 230.68517 308.337096 
L 153.501048 185.748641 
L 288 137.211273 
" clip-path="url(#pdac066b665)" style="fill: none; stroke: #457b9d; stroke-opacity: 0.7; stroke-width: 2; stroke-linecap: square"/>
    <defs>
     <path id="mf5cd071f9f" d="M -3 3 
L 3 3 
L 3 -3 
L -3 -3 
z
" style="stroke: #457b9d; stroke-opacity: 0.7; stroke-linejoin: miter"/>
    </defs>
    <g clip-path="url(#pdac066b665)">
     <use xlink:href="#mf5cd071f9f" x="288" y="137.211273" style="fill: #457b9d; fill-opacity: 0.7; stroke: #457b9d; stroke-opacity: 0.7; stroke-linejoin: miter"/>
     <use xlink:href="#mf5cd071f9f" x="428.130991" y="183.918681" style="fill: #457b9d; fill-opacity: 0.7; stroke: #457b9d; stroke-opacity: 0.7; stroke-linejoin: miter"/>
     <use xlink:href="#mf5cd071f9f" x="317.172791" y="269.602902" style="fill: #457b9d; fill-opacity: 0.7; stroke: #457b9d; stroke-opacity: 0.7; stroke-linejoin: miter"/>
     <use xlink:href="#mf5cd071f9f" x="230.68517" y="308.337096" style="fill: #457b9d; fill-opacity: 0.7; stroke: #457b9d; stroke-opacity: 0.7; stroke-linejoin: miter"/>
     <use xlink:href="#mf5cd071f9f" x="153.501048" y="185.748641" style="fill: #457b9d; fill-opacity: 0.7; stroke: #457b9d; stroke-opacity: 0.7; stroke-linejoin: miter"/>
     <use xlink:href="#mf5cd071f9f" x="288" y="137.211273" style="fill: #457b9d; fill-opacity: 0.7; stroke: #457b9d; stroke-opacity: 0.7; stroke-linejoin: miter"/>
    </g>
   </g>
   <g id="line2d_14">
    <path d="M 288 198.097712 
L 306.236509 223.524599 
L 309.873837 259.556753 
L 276.729218 244.962901 
L 267.507428 222.79156 
L 288 198.097712 
" clip-path="url(#pdac066b665)" style="fill: none; stroke: #1d3557; stroke-opacity: 0.7; stroke-width: 2; stroke-linecap: square"/>
    <defs>
     <path id="mfa4100ca62" d="M 0 -3 
L -3 3 
L 3 3 
z
" style="stroke: #1d3557; stroke-opacity: 0.7; stroke-linejoin: miter"/>
    </defs>
    <g clip-path="url(#pdac066b665)">
     <use xlink:href="#mfa4100ca62" x="288" y="198.097712" style="fill: #1d3557; fill-opacity: 0.7; stroke: #1d3557; stroke-opacity: 0.7; stroke-linejoin: miter"/>
     <use xlink:href="#mfa4100ca62" x="306.236509" y="223.524599" style="fill: #1d3557; fill-opacity: 0.7; stroke: #1d3557; stroke-opacity: 0.7; stroke-linejoin: miter"/>
     <use xlink:href="#mfa4100ca62" x="309.873837" y="259.556753" style="fill: #1d3557; fill-opacity: 0.7; stroke: #1d3557; stroke-opacity: 0.7; stroke-linejoin: miter"/>
     <use xlink:href="#mfa4100ca62" x="276.729218" y="244.962901" style="fill: #1d3557; fill-opacity: 0.7; stroke: #1d3557; stroke-opacity: 0.7; stroke-linejoin: miter"/>
     <use xlink:href="#mfa4100ca62" x="267.507428" y="222.79156" style="fill: #1d3557; fill-opacity: 0.7; stroke: #1d3557; stroke-opacity: 0.7; stroke-linejoin: miter"/>
     <use xlink:href="#mfa4100ca62" x="288" y="198.097712" style="fill: #1d3557; fill-opacity: 0.7; stroke: #1d3557; stroke-opacity: 0.7; stroke-linejoin: miter"/>
    </g>
   </g>
   <g id="line2d_15">
    <path d="M 288 181.184813 
L 384.612049 198.058842 
L 299.270782 244.962901 
L 273.125771 249.922621 
L 170.496722 191.270871 
L 288 181.184813 
" clip-path="url(#pdac066b665)" style="fill: none; stroke: #a8dadc; stroke-opacity: 0.7; stroke-width: 2; stroke-linecap: square"/>
    <defs>
     <path id="m6f43ccf76d" d="M 0 4.242641 
L 4.242641 0 
L 0 -4.242641 
L -4.242641 0 
z
" style="stroke: #a8dadc; stroke-opacity: 0.7; stroke-linejoin: miter"/>
    </defs>
    <g clip-path="url(#pdac066b665)">
     <use xlink:href="#m6f43ccf76d" x="288" y="181.184813" style="fill: #a8dadc; fill-opacity: 0.7; stroke: #a8dadc; stroke-opacity: 0.7; stroke-linejoin: miter"/>
     <use xlink:href="#m6f43ccf76d" x="384.612049" y="198.058842" style="fill: #a8dadc; fill-opacity: 0.7; stroke: #a8dadc; stroke-opacity: 0.7; stroke-linejoin: miter"/>
     <use xlink:href="#m6f43ccf76d" x="299.270782" y="244.962901" style="fill: #a8dadc; fill-opacity: 0.7; stroke: #a8dadc; stroke-opacity: 0.7; stroke-linejoin: miter"/>
     <use xlink:href="#m6f43ccf76d" x="273.125771" y="249.922621" style="fill: #a8dadc; fill-opacity: 0.7; stroke: #a8dadc; stroke-opacity: 0.7; stroke-linejoin: miter"/>
     <use xlink:href="#m6f43ccf76d" x="170.496722" y="191.270871" style="fill: #a8dadc; fill-opacity: 0.7; stroke: #a8dadc; stroke-opacity: 0.7; stroke-linejoin: miter"/>
     <use xlink:href="#m6f43ccf76d" x="288" y="181.184813" style="fill: #a8dadc; fill-opacity: 0.7; stroke: #a8dadc; stroke-opacity: 0.7; stroke-linejoin: miter"/>
    </g>
   </g>
   <g id="line2d_16">
    <path d="M 288 210.275 
L 324.265784 217.666532 
L 310.150138 259.937049 
L 270.523281 253.50464 
L 269.763491 223.524599 
L 288 210.275 
" clip-path="url(#pdac066b665)" style="fill: none; stroke: #ffd166; stroke-opacity: 0.7; stroke-width: 2; stroke-linecap: square"/>
    <defs>
     <path id="m31ddd9ae0e" d="M 0 -3 
L -2.85317 -0.927051 
L -1.763356 2.427051 
L 1.763356 2.427051 
L 2.85317 -0.927051 
z
" style="stroke: #ffd166; stroke-opacity: 0.7; stroke-linejoin: miter"/>
    </defs>
    <g clip-path="url(#pdac066b665)">
     <use xlink:href="#m31ddd9ae0e" x="288" y="210.275" style="fill: #ffd166; fill-opacity: 0.7; stroke: #ffd166; stroke-opacity: 0.7; stroke-linejoin: miter"/>
     <use xlink:href="#m31ddd9ae0e" x="324.265784" y="217.666532" style="fill: #ffd166; fill-opacity: 0.7; stroke: #ffd166; stroke-opacity: 0.7; stroke-linejoin: miter"/>
     <use xlink:href="#m31ddd9ae0e" x="310.150138" y="259.937049" style="fill: #ffd166; fill-opacity: 0.7; stroke: #ffd166; stroke-opacity: 0.7; stroke-linejoin: miter"/>
     <use xlink:href="#m31ddd9ae0e" x="270.523281" y="253.50464" style="fill: #ffd166; fill-opacity: 0.7; stroke: #ffd166; stroke-opacity: 0.7; stroke-linejoin: miter"/>
     <use xlink:href="#m31ddd9ae0e" x="269.763491" y="223.524599" style="fill: #ffd166; fill-opacity: 0.7; stroke: #ffd166; stroke-opacity: 0.7; stroke-linejoin: miter"/>
     <use xlink:href="#m31ddd9ae0e" x="288" y="210.275" style="fill: #ffd166; fill-opacity: 0.7; stroke: #ffd166; stroke-opacity: 0.7; stroke-linejoin: miter"/>
    </g>
   </g>
   <g id="line2d_17">
    <path d="M 288 56.875 
L 415.199648 188.120329 
L 299.570108 245.374888 
L 224.158926 317.3197 
L 189.297247 197.379531 
L 288 56.875 
" clip-path="url(#pdac066b665)" style="fill: none; stroke: #06d6a0; stroke-opacity: 0.7; stroke-width: 2; stroke-linecap: square"/>
    <defs>
     <path id="m8b7392dd12" d="M 0 -3 
L -0.673542 -0.927051 
L -2.85317 -0.927051 
L -1.089814 0.354102 
L -1.763356 2.427051 
L -0 1.145898 
L 1.763356 2.427051 
L 1.089814 0.354102 
L 2.85317 -0.927051 
L 0.673542 -0.927051 
z
" style="stroke: #06d6a0; stroke-opacity: 0.7; stroke-linejoin: bevel"/>
    </defs>
    <g clip-path="url(#pdac066b665)">
     <use xlink:href="#m8b7392dd12" x="288" y="56.875" style="fill: #06d6a0; fill-opacity: 0.7; stroke: #06d6a0; stroke-opacity: 0.7; stroke-linejoin: bevel"/>
     <use xlink:href="#m8b7392dd12" x="415.199648" y="188.120329" style="fill: #06d6a0; fill-opacity: 0.7; stroke: #06d6a0; stroke-opacity: 0.7; stroke-linejoin: bevel"/>
     <use xlink:href="#m8b7392dd12" x="299.570108" y="245.374888" style="fill: #06d6a0; fill-opacity: 0.7; stroke: #06d6a0; stroke-opacity: 0.7; stroke-linejoin: bevel"/>
     <use xlink:href="#m8b7392dd12" x="224.158926" y="317.3197" style="fill: #06d6a0; fill-opacity: 0.7; stroke: #06d6a0; stroke-opacity: 0.7; stroke-linejoin: bevel"/>
     <use xlink:href="#m8b7392dd12" x="189.297247" y="197.379531" style="fill: #06d6a0; fill-opacity: 0.7; stroke: #06d6a0; stroke-opacity: 0.7; stroke-linejoin: bevel"/>
     <use xlink:href="#m8b7392dd12" x="288" y="56.875" style="fill: #06d6a0; fill-opacity: 0.7; stroke: #06d6a0; stroke-opacity: 0.7; stroke-linejoin: bevel"/>
    </g>
   </g>
  </g>
 </g>
 <defs>
  <clipPath id="pdac066b665">
   <path d="M 479.75 229.45 
C 479.75 204.269621 474.790014 179.334089 465.1539 156.070452 
C 455.517786 132.806815 441.392942 111.667492 423.587725 93.862275 
C 405.782508 76.057058 384.643185 61.932214 361.379548 52.2961 
C 338.115911 42.659986 313.180379 37.7 288 37.7 
C 262.819621 37.7 237.884089 42.659986 214.620452 52.2961 
C 191.356815 61.932214 170.217492 76.057058 152.412275 93.862275 
C 134.607058 111.667492 120.482214 132.806815 110.8461 156.070452 
C 101.209986 179.334089 96.25 204.269621 96.25 229.45 
C 96.25 254.630379 101.209986 279.565911 110.8461 302.829548 
C 120.482214 326.093185 134.607058 347.232508 152.412275 365.037725 
C 170.217492 382.842942 191.356815 396.967786 214.620452 406.6039 
C 237.884089 416.240014 262.819621 421.2 288 421.2 
C 313.180379 421.2 338.115911 416.240014 361.379548 406.6039 
C 384.643185 396.967786 405.782508 382.842942 423.587725 365.037725 
C 441.392942 347.232508 455.517786 326.093185 465.1539 302.829548 
C 474.790014 279.565911 479.75 254.630379 479.75 229.45 
M 288 229.45 
C 288 229.45 288 229.45 288 229.45 
C 288 229.45 288 229.45 288 229.45 
C 288 229.45 288 229.45 288 229.45 
C 288 229.45 288 229.45 288 229.45 
C 288 229.45 288 229.45 288 229.45 
C 288 229.45 288 229.45 288 229.45 
C 288 229.45 288 229.45 288 229.45 
C 288 229.45 288 229.45 288 229.45 
C 288 229.45 288 229.45 288 229.45 
C 288 229.45 288 229.45 288 229.45 
C 288 229.45 288 229.45 288 229.45 
C 288 229.45 288 229.45 288 229.45 
C 288 229.45 288 229.45 288 229.45 
C 288 229.45 288 229.45 288 229.45 
C 288 229.45 288 229.45 288 229.45 
C 288 229.45 288 229.45 288 229.45 
z
"/>
  </clipPath>
 </defs>
</svg>
