<?xml version="1.0" encoding="utf-8" standalone="no"?>
<!DOCTYPE svg PUBLIC "-//W3C//DTD SVG 1.1//EN"
  "http://www.w3.org/Graphics/SVG/1.1/DTD/svg11.dtd">
<svg xmlns:xlink="http://www.w3.org/1999/xlink" width="720pt" height="432pt" viewBox="0 0 720 432" xmlns="http://www.w3.org/2000/svg" version="1.1">
 <metadata>
  <rdf:RDF xmlns:dc="http://purl.org/dc/elements/1.1/" xmlns:cc="http://creativecommons.org/ns#" xmlns:rdf="http://www.w3.org/1999/02/22-rdf-syntax-ns#">
   <cc:Work>
    <dc:type rdf:resource="http://purl.org/dc/dcmitype/StillImage"/>
    <dc:date>2025-06-20T06:31:12.184882</dc:date>
    <dc:format>image/svg+xml</dc:format>
    <dc:creator>
     <cc:Agent>
      <dc:title>Matplotlib v3.7.1, https://matplotlib.org/</dc:title>
     </cc:Agent>
    </dc:creator>
   </cc:Work>
  </rdf:RDF>
 </metadata>
 <defs>
  <style type="text/css">*{stroke-linejoin: round; stroke-linecap: butt}</style>
 </defs>
 <g id="figure_1">
  <g id="patch_1">
   <path d="M 0 432 
L 720 432 
L 720 0 
L 0 0 
z
" style="fill: #ffffff"/>
  </g>
  <g id="axes_1">
   <g id="patch_2">
    <path d="M 114.23 343.96 
L 705.841396 343.96 
L 705.841396 10.8 
L 114.23 10.8 
z
" style="fill: #ffffff"/>
   </g>
   <g id="PolyCollection_1">
    <defs>
     <path id="m3e0e7eba20" d="M 141.121427 -261.642317 
L 141.121427 -242.876445 
L 144.361358 -220.127881 
L 147.601289 -208.53077 
L 150.84122 -190.547198 
L 154.081151 -185.25689 
L 157.321082 -175.566783 
L 160.561013 -179.452406 
L 163.800944 -172.533436 
L 167.040875 -159.428232 
L 170.280806 -158.882593 
L 173.520737 -165.156212 
L 176.760668 -179.236266 
L 180.000599 -173.123626 
L 183.24053 -173.118568 
L 186.480461 -163.632437 
L 189.720392 -160.885611 
L 192.960323 -151.82339 
L 196.200254 -158.541126 
L 199.440185 -151.855273 
L 202.680116 -156.654984 
L 205.920047 -143.35328 
L 209.159978 -134.43937 
L 212.399909 -135.553894 
L 215.63984 -143.616708 
L 218.879771 -152.300934 
L 222.119702 -138.719803 
L 225.359633 -129.597298 
L 228.599564 -129.031309 
L 231.839494 -137.311137 
L 235.079425 -140.186281 
L 238.319356 -138.785897 
L 241.559287 -136.287596 
L 244.799218 -148.923025 
L 248.039149 -145.836069 
L 251.27908 -139.140356 
L 254.519011 -143.089021 
L 257.758942 -129.230207 
L 260.998873 -129.534419 
L 264.238804 -134.100418 
L 267.478735 -162.579872 
L 270.718666 -145.447761 
L 273.958597 -149.353473 
L 277.198528 -155.03678 
L 280.438459 -153.732923 
L 283.67839 -134.474191 
L 286.918321 -138.370588 
L 290.158252 -135.658363 
L 293.398183 -141.812052 
L 296.638114 -139.859801 
L 299.878045 -151.49204 
L 303.117976 -151.822459 
L 306.357907 -147.131269 
L 309.597838 -143.163384 
L 312.837769 -132.387554 
L 316.0777 -141.579222 
L 319.317631 -132.280095 
L 322.557562 -136.799103 
L 325.797493 -130.678897 
L 329.037424 -132.094279 
L 332.277355 -132.1088 
L 335.517286 -147.883352 
L 338.757217 -139.141264 
L 341.997148 -131.534913 
L 345.237079 -133.287458 
L 348.47701 -126.92941 
L 351.716941 -134.987216 
L 354.956872 -142.080094 
L 358.196803 -146.265534 
L 361.436734 -139.80393 
L 364.676665 -134.275881 
L 367.916596 -132.143885 
L 371.156527 -129.458153 
L 374.396457 -142.182534 
L 377.636388 -141.23955 
L 380.876319 -134.537532 
L 384.11625 -139.094436 
L 387.356181 -145.246942 
L 390.596112 -136.673262 
L 393.836043 -130.846782 
L 397.075974 -151.289427 
L 400.315905 -145.616398 
L 403.555836 -146.273451 
L 406.795767 -144.951594 
L 410.035698 -132.810192 
L 413.275629 -135.25504 
L 416.51556 -134.148775 
L 419.755491 -124.149995 
L 422.995422 -142.322787 
L 426.235353 -136.994109 
L 429.475284 -139.742175 
L 432.715215 -136.351041 
L 435.955146 -135.529727 
L 439.195077 -130.104455 
L 442.435008 -135.600273 
L 445.674939 -130.990126 
L 448.91487 -124.923467 
L 452.154801 -123.477512 
L 455.394732 -123.055176 
L 458.634663 -126.504806 
L 461.874594 -119.411205 
L 465.114525 -120.046623 
L 468.354456 -118.414853 
L 471.594387 -135.546574 
L 474.834318 -130.054763 
L 478.074249 -133.608963 
L 481.31418 -137.190961 
L 484.554111 -130.79893 
L 487.794042 -122.833573 
L 491.033973 -127.09717 
L 494.273904 -122.441534 
L 497.513835 -120.969889 
L 500.753766 -134.255606 
L 503.993697 -122.078706 
L 507.233628 -138.819844 
L 510.473559 -126.127362 
L 513.71349 -108.441909 
L 516.953421 -127.137377 
L 520.193351 -130.456371 
L 523.433282 -133.850712 
L 526.673213 -136.142049 
L 529.913144 -125.508384 
L 533.153075 -126.066608 
L 536.393006 -146.623772 
L 539.632937 -141.150151 
L 542.872868 -135.772204 
L 546.112799 -142.349045 
L 549.35273 -137.12312 
L 552.592661 -129.592969 
L 555.832592 -124.866228 
L 559.072523 -121.10398 
L 562.312454 -103.183636 
L 565.552385 -114.684543 
L 568.792316 -118.432859 
L 572.032247 -115.410484 
L 575.272178 -117.560847 
L 578.512109 -116.672156 
L 581.75204 -107.804193 
L 584.991971 -116.62303 
L 588.231902 -120.326771 
L 591.471833 -117.04902 
L 594.711764 -115.873044 
L 597.951695 -120.080859 
L 601.191626 -123.74062 
L 604.431557 -107.84832 
L 607.671488 -125.645498 
L 610.911419 -135.189311 
L 614.15135 -126.115819 
L 617.391281 -117.700922 
L 620.631212 -124.839428 
L 623.871143 -119.197969 
L 627.111074 -121.889682 
L 630.351005 -118.458932 
L 633.590936 -120.532363 
L 636.830867 -125.079391 
L 640.070798 -128.097159 
L 643.310729 -125.207229 
L 646.55066 -129.543088 
L 649.790591 -117.930752 
L 653.030522 -121.129217 
L 656.270453 -110.169805 
L 659.510384 -107.842493 
L 662.750314 -116.155248 
L 665.990245 -118.839015 
L 669.230176 -116.891426 
L 672.470107 -115.973716 
L 675.710038 -130.429933 
L 678.949969 -123.036195 
L 678.949969 -147.284116 
L 678.949969 -147.284116 
L 675.710038 -144.399294 
L 672.470107 -147.185374 
L 669.230176 -142.554438 
L 665.990245 -152.276987 
L 662.750314 -145.412459 
L 659.510384 -140.728924 
L 656.270453 -147.684676 
L 653.030522 -160.596001 
L 649.790591 -154.511401 
L 646.55066 -146.347062 
L 643.310729 -158.905063 
L 640.070798 -141.427461 
L 636.830867 -142.588616 
L 633.590936 -136.791658 
L 630.351005 -135.417093 
L 627.111074 -131.721112 
L 623.871143 -137.06513 
L 620.631212 -135.402127 
L 617.391281 -148.640933 
L 614.15135 -160.648777 
L 610.911419 -163.510653 
L 607.671488 -164.301863 
L 604.431557 -174.142129 
L 601.191626 -180.263952 
L 597.951695 -148.117608 
L 594.711764 -145.694663 
L 591.471833 -143.457766 
L 588.231902 -142.832318 
L 584.991971 -160.858501 
L 581.75204 -144.215219 
L 578.512109 -158.687533 
L 575.272178 -144.00686 
L 572.032247 -154.114135 
L 568.792316 -151.09176 
L 565.552385 -190.911412 
L 562.312454 -199.494784 
L 559.072523 -155.0514 
L 555.832592 -159.246064 
L 552.592661 -149.479945 
L 549.35273 -139.82795 
L 546.112799 -161.390298 
L 542.872868 -140.648406 
L 539.632937 -143.492602 
L 536.393006 -173.825087 
L 533.153075 -136.827251 
L 529.913144 -140.56824 
L 526.673213 -141.339482 
L 523.433282 -135.939138 
L 520.193351 -148.881773 
L 516.953421 -137.082634 
L 513.71349 -138.007665 
L 510.473559 -142.601566 
L 507.233628 -147.414291 
L 503.993697 -146.119761 
L 500.753766 -141.634543 
L 497.513835 -161.020559 
L 494.273904 -147.878776 
L 491.033973 -164.176343 
L 487.794042 -159.952567 
L 484.554111 -165.779191 
L 481.31418 -149.838865 
L 478.074249 -137.507038 
L 474.834318 -145.039695 
L 471.594387 -158.644473 
L 468.354456 -201.503544 
L 465.114525 -185.018871 
L 461.874594 -177.166916 
L 458.634663 -153.89426 
L 455.394732 -163.97465 
L 452.154801 -151.616946 
L 448.91487 -157.597442 
L 445.674939 -155.509239 
L 442.435008 -158.856005 
L 439.195077 -148.437998 
L 435.955146 -141.156114 
L 432.715215 -142.987104 
L 429.475284 -150.735647 
L 426.235353 -157.196938 
L 422.995422 -167.251624 
L 419.755491 -180.915499 
L 416.51556 -167.468724 
L 413.275629 -159.996929 
L 410.035698 -166.420233 
L 406.795767 -175.232034 
L 403.555836 -200.963678 
L 400.315905 -186.237368 
L 397.075974 -187.72556 
L 393.836043 -233.630324 
L 390.596112 -206.850642 
L 387.356181 -221.882468 
L 384.11625 -206.020851 
L 380.876319 -210.577754 
L 377.636388 -180.800691 
L 374.396457 -190.201692 
L 371.156527 -168.446121 
L 367.916596 -170.004075 
L 364.676665 -190.947124 
L 361.436734 -194.70214 
L 358.196803 -176.039937 
L 354.956872 -167.759548 
L 351.716941 -158.14291 
L 348.47701 -161.691799 
L 345.237079 -160.638359 
L 341.997148 -154.433992 
L 338.757217 -159.02824 
L 335.517286 -163.547672 
L 332.277355 -161.286556 
L 329.037424 -163.42292 
L 325.797493 -156.085699 
L 322.557562 -147.843649 
L 319.317631 -165.093717 
L 316.0777 -168.79088 
L 312.837769 -169.495175 
L 309.597838 -174.63317 
L 306.357907 -178.091736 
L 303.117976 -166.769787 
L 299.878045 -163.65221 
L 296.638114 -152.209403 
L 293.398183 -153.439917 
L 290.158252 -156.410841 
L 286.918321 -157.411841 
L 283.67839 -163.695313 
L 280.438459 -159.024253 
L 277.198528 -169.655764 
L 273.958597 -159.425247 
L 270.718666 -163.596189 
L 267.478735 -174.843732 
L 264.238804 -163.803855 
L 260.998873 -170.491697 
L 257.758942 -152.495011 
L 254.519011 -158.793708 
L 251.27908 -159.294377 
L 248.039149 -157.107582 
L 244.799218 -162.242769 
L 241.559287 -157.107761 
L 238.319356 -153.548537 
L 235.079425 -158.778914 
L 231.839494 -152.370993 
L 228.599564 -161.711743 
L 225.359633 -159.819602 
L 222.119702 -159.714931 
L 218.879771 -156.477786 
L 215.63984 -170.46662 
L 212.399909 -165.533144 
L 209.159978 -159.486447 
L 205.920047 -175.504195 
L 202.680116 -183.420925 
L 199.440185 -164.084668 
L 196.200254 -168.008031 
L 192.960323 -167.829776 
L 189.720392 -170.172463 
L 186.480461 -190.500683 
L 183.24053 -185.7887 
L 180.000599 -195.862397 
L 176.760668 -203.806969 
L 173.520737 -197.464281 
L 170.280806 -193.659145 
L 167.040875 -194.174428 
L 163.800944 -216.875328 
L 160.561013 -208.099746 
L 157.321082 -220.207511 
L 154.081151 -205.743257 
L 150.84122 -232.545829 
L 147.601289 -230.476082 
L 144.361358 -245.667242 
L 141.121427 -261.642317 
z
" style="stroke: #0000ff; stroke-opacity: 0.3"/>
    </defs>
    <g clip-path="url(#p037d8ad1a6)">
     <use xlink:href="#m3e0e7eba20" x="0" y="432" style="fill: #0000ff; fill-opacity: 0.3; stroke: #0000ff; stroke-opacity: 0.3"/>
    </g>
   </g>
   <g id="PolyCollection_2">
    <defs>
     <path id="m51ce6741c5" d="M 141.121427 -246.96937 
L 141.121427 -231.291582 
L 144.361358 -237.075234 
L 147.601289 -218.487885 
L 150.84122 -201.873693 
L 154.081151 -201.653397 
L 157.321082 -205.727254 
L 160.561013 -200.373768 
L 163.800944 -187.280218 
L 167.040875 -192.812931 
L 170.280806 -183.667242 
L 173.520737 -177.054963 
L 176.760668 -170.005489 
L 180.000599 -191.747797 
L 183.24053 -181.40352 
L 186.480461 -176.425855 
L 189.720392 -174.149865 
L 192.960323 -182.500294 
L 196.200254 -179.755975 
L 199.440185 -173.217036 
L 202.680116 -181.686015 
L 205.920047 -171.28565 
L 209.159978 -170.81195 
L 212.399909 -183.101844 
L 215.63984 -192.621718 
L 218.879771 -204.715208 
L 222.119702 -204.865276 
L 225.359633 -210.934551 
L 228.599564 -192.977311 
L 231.839494 -182.683825 
L 235.079425 -194.936063 
L 238.319356 -191.213167 
L 241.559287 -195.545192 
L 244.799218 -186.429164 
L 248.039149 -191.321321 
L 251.27908 -183.625011 
L 254.519011 -203.593092 
L 257.758942 -186.994796 
L 260.998873 -196.471166 
L 264.238804 -209.378277 
L 267.478735 -183.631241 
L 270.718666 -178.961128 
L 273.958597 -179.836023 
L 277.198528 -184.039922 
L 280.438459 -195.52096 
L 283.67839 -177.119972 
L 286.918321 -190.576753 
L 290.158252 -188.914184 
L 293.398183 -203.946401 
L 296.638114 -197.256045 
L 299.878045 -193.066607 
L 303.117976 -201.573894 
L 306.357907 -188.997018 
L 309.597838 -179.367057 
L 312.837769 -182.419868 
L 316.0777 -183.877016 
L 319.317631 -175.065364 
L 322.557562 -179.58424 
L 325.797493 -176.572823 
L 329.037424 -188.737571 
L 332.277355 -192.091907 
L 335.517286 -184.807829 
L 338.757217 -183.245217 
L 341.997148 -175.131074 
L 345.237079 -200.771577 
L 348.47701 -196.084773 
L 351.716941 -193.470858 
L 354.956872 -194.373234 
L 358.196803 -185.787309 
L 361.436734 -196.32999 
L 364.676665 -184.637788 
L 367.916596 -187.830906 
L 371.156527 -191.588056 
L 374.396457 -194.739863 
L 377.636388 -204.957993 
L 380.876319 -182.653727 
L 384.11625 -161.490693 
L 387.356181 -187.854516 
L 390.596112 -175.834629 
L 393.836043 -182.420148 
L 397.075974 -193.077709 
L 400.315905 -172.556582 
L 403.555836 -162.077914 
L 406.795767 -168.368027 
L 410.035698 -184.563659 
L 413.275629 -203.679864 
L 416.51556 -179.317319 
L 419.755491 -183.268864 
L 422.995422 -210.922123 
L 426.235353 -198.848871 
L 429.475284 -199.984928 
L 432.715215 -200.273201 
L 435.955146 -183.837304 
L 439.195077 -190.627717 
L 442.435008 -192.560735 
L 445.674939 -181.229145 
L 448.91487 -178.533934 
L 452.154801 -180.14621 
L 455.394732 -197.527918 
L 458.634663 -192.209043 
L 461.874594 -218.883174 
L 465.114525 -196.698117 
L 468.354456 -186.352907 
L 471.594387 -178.716798 
L 474.834318 -169.526566 
L 478.074249 -174.754449 
L 481.31418 -187.2026 
L 484.554111 -172.282417 
L 487.794042 -204.672645 
L 491.033973 -197.986635 
L 494.273904 -197.020538 
L 497.513835 -180.340731 
L 500.753766 -162.616024 
L 503.993697 -167.680264 
L 507.233628 -169.509262 
L 510.473559 -169.817266 
L 513.71349 -188.947667 
L 516.953421 -188.827204 
L 520.193351 -182.517481 
L 523.433282 -186.578392 
L 526.673213 -204.73973 
L 529.913144 -169.18573 
L 533.153075 -163.937274 
L 536.393006 -174.816964 
L 539.632937 -161.959513 
L 542.872868 -171.990678 
L 546.112799 -199.926276 
L 549.35273 -207.921345 
L 552.592661 -219.048769 
L 555.832592 -221.613509 
L 559.072523 -202.93979 
L 562.312454 -192.352356 
L 565.552385 -177.806417 
L 568.792316 -176.109143 
L 572.032247 -175.373642 
L 575.272178 -185.548488 
L 578.512109 -202.694975 
L 581.75204 -191.470384 
L 584.991971 -182.03095 
L 588.231902 -183.397668 
L 591.471833 -191.04653 
L 594.711764 -187.90323 
L 597.951695 -205.664401 
L 601.191626 -203.462094 
L 604.431557 -221.26466 
L 607.671488 -185.109757 
L 610.911419 -190.466463 
L 614.15135 -185.204514 
L 617.391281 -189.041524 
L 620.631212 -214.798358 
L 623.871143 -214.657062 
L 627.111074 -225.26797 
L 630.351005 -197.090572 
L 633.590936 -220.04782 
L 636.830867 -214.147871 
L 640.070798 -212.955104 
L 643.310729 -208.460954 
L 646.55066 -220.321838 
L 649.790591 -229.059524 
L 653.030522 -202.50719 
L 656.270453 -208.627106 
L 659.510384 -211.837337 
L 662.750314 -203.990099 
L 665.990245 -201.309875 
L 669.230176 -216.154956 
L 672.470107 -217.390189 
L 675.710038 -203.033428 
L 678.949969 -206.920429 
L 678.949969 -245.613173 
L 678.949969 -245.613173 
L 675.710038 -238.625728 
L 672.470107 -252.118159 
L 669.230176 -233.195881 
L 665.990245 -227.08776 
L 662.750314 -257.030876 
L 659.510384 -279.154675 
L 656.270453 -255.576634 
L 653.030522 -260.635628 
L 649.790591 -256.097419 
L 646.55066 -259.000035 
L 643.310729 -258.66032 
L 640.070798 -276.445525 
L 636.830867 -280.822597 
L 633.590936 -283.144791 
L 630.351005 -236.876902 
L 627.111074 -232.57024 
L 623.871143 -231.776241 
L 620.631212 -254.44476 
L 617.391281 -217.872448 
L 614.15135 -220.383306 
L 610.911419 -227.056726 
L 607.671488 -231.087279 
L 604.431557 -234.451707 
L 601.191626 -206.899873 
L 597.951695 -244.216897 
L 594.711764 -244.738091 
L 591.471833 -242.125252 
L 588.231902 -251.895957 
L 584.991971 -246.366685 
L 581.75204 -245.414624 
L 578.512109 -238.168489 
L 575.272178 -240.462073 
L 572.032247 -251.16738 
L 568.792316 -254.675566 
L 565.552385 -258.81336 
L 562.312454 -244.002191 
L 559.072523 -253.307038 
L 555.832592 -254.5256 
L 552.592661 -249.133428 
L 549.35273 -235.594424 
L 546.112799 -240.406728 
L 542.872868 -234.658063 
L 539.632937 -249.198145 
L 536.393006 -254.376362 
L 533.153075 -256.238219 
L 529.913144 -237.993472 
L 526.673213 -258.668319 
L 523.433282 -252.693689 
L 520.193351 -231.292481 
L 516.953421 -209.334164 
L 513.71349 -215.579231 
L 510.473559 -227.813642 
L 507.233628 -209.290287 
L 503.993697 -225.706956 
L 500.753766 -232.62781 
L 497.513835 -263.175037 
L 494.273904 -257.104447 
L 491.033973 -239.428834 
L 487.794042 -229.294828 
L 484.554111 -258.502292 
L 481.31418 -233.503353 
L 478.074249 -219.958924 
L 474.834318 -231.287106 
L 471.594387 -230.053787 
L 468.354456 -239.922884 
L 465.114525 -224.007836 
L 461.874594 -221.71506 
L 458.634663 -208.074168 
L 455.394732 -220.260501 
L 452.154801 -208.732094 
L 448.91487 -213.261904 
L 445.674939 -202.344551 
L 442.435008 -194.195725 
L 439.195077 -212.573029 
L 435.955146 -229.176967 
L 432.715215 -217.515218 
L 429.475284 -211.703191 
L 426.235353 -203.025723 
L 422.995422 -215.88413 
L 419.755491 -242.476467 
L 416.51556 -241.123403 
L 413.275629 -233.205144 
L 410.035698 -209.884483 
L 406.795767 -222.63212 
L 403.555836 -218.313016 
L 400.315905 -238.866306 
L 397.075974 -241.950686 
L 393.836043 -255.260551 
L 390.596112 -247.788858 
L 387.356181 -246.908649 
L 384.11625 -227.918072 
L 380.876319 -241.500221 
L 377.636388 -245.718997 
L 374.396457 -225.435629 
L 371.156527 -225.139441 
L 367.916596 -217.491683 
L 364.676665 -216.441115 
L 361.436734 -213.766746 
L 358.196803 -200.173461 
L 354.956872 -205.644747 
L 351.716941 -220.339104 
L 348.47701 -216.133807 
L 345.237079 -223.117141 
L 341.997148 -219.582298 
L 338.757217 -224.464446 
L 335.517286 -228.736903 
L 332.277355 -227.818355 
L 329.037424 -229.050848 
L 325.797493 -199.04396 
L 322.557562 -197.093465 
L 319.317631 -213.282479 
L 316.0777 -229.402485 
L 312.837769 -214.150117 
L 309.597838 -215.611547 
L 306.357907 -217.651724 
L 303.117976 -217.540677 
L 299.878045 -210.92983 
L 296.638114 -218.675761 
L 293.398183 -208.272178 
L 290.158252 -218.265018 
L 286.918321 -205.462772 
L 283.67839 -204.06665 
L 280.438459 -204.762251 
L 277.198528 -193.963935 
L 273.958597 -195.780761 
L 270.718666 -201.164573 
L 267.478735 -202.859989 
L 264.238804 -227.241501 
L 260.998873 -215.747414 
L 257.758942 -206.657655 
L 254.519011 -213.664866 
L 251.27908 -200.479146 
L 248.039149 -213.736037 
L 244.799218 -210.671282 
L 241.559287 -216.938618 
L 238.319356 -205.091588 
L 235.079425 -214.364982 
L 231.839494 -217.864617 
L 228.599564 -233.03325 
L 225.359633 -247.699351 
L 222.119702 -225.123741 
L 218.879771 -223.682427 
L 215.63984 -213.231332 
L 212.399909 -213.733372 
L 209.159978 -200.826377 
L 205.920047 -208.57482 
L 202.680116 -200.826759 
L 199.440185 -211.417582 
L 196.200254 -213.366016 
L 192.960323 -217.782918 
L 189.720392 -216.054591 
L 186.480461 -222.000744 
L 183.24053 -216.757848 
L 180.000599 -203.496037 
L 176.760668 -197.123921 
L 173.520737 -198.29659 
L 170.280806 -198.315071 
L 167.040875 -213.040119 
L 163.800944 -210.35069 
L 160.561013 -213.170964 
L 157.321082 -216.835312 
L 154.081151 -233.109768 
L 150.84122 -223.606408 
L 147.601289 -235.106639 
L 144.361358 -252.060165 
L 141.121427 -246.96937 
z
" style="stroke: #008000; stroke-opacity: 0.3"/>
    </defs>
    <g clip-path="url(#p037d8ad1a6)">
     <use xlink:href="#m51ce6741c5" x="0" y="432" style="fill: #008000; fill-opacity: 0.3; stroke: #008000; stroke-opacity: 0.3"/>
    </g>
   </g>
   <g id="PolyCollection_3">
    <defs>
     <path id="m1b7f3972f3" d="M 141.121427 -383.972988 
L 141.121427 -368.801438 
L 144.361358 -381.289699 
L 147.601289 -370.5888 
L 150.84122 -355.051846 
L 154.081151 -349.899625 
L 157.321082 -356.077911 
L 160.561013 -339.55837 
L 163.800944 -338.525663 
L 167.040875 -316.621273 
L 170.280806 -297.095023 
L 173.520737 -286.279156 
L 176.760668 -254.109039 
L 180.000599 -256.067 
L 183.24053 -260.933835 
L 186.480461 -254.516687 
L 189.720392 -247.196861 
L 192.960323 -263.873587 
L 196.200254 -253.857027 
L 199.440185 -255.649763 
L 202.680116 -254.216731 
L 205.920047 -249.468379 
L 209.159978 -236.732691 
L 212.399909 -237.600335 
L 215.63984 -241.975268 
L 218.879771 -232.220308 
L 222.119702 -238.540903 
L 225.359633 -240.9751 
L 228.599564 -241.993615 
L 231.839494 -230.415911 
L 235.079425 -239.609178 
L 238.319356 -233.836536 
L 241.559287 -225.329352 
L 244.799218 -206.197399 
L 248.039149 -214.7574 
L 251.27908 -209.639975 
L 254.519011 -186.304422 
L 257.758942 -191.714601 
L 260.998873 -182.581038 
L 264.238804 -184.758664 
L 267.478735 -194.299448 
L 270.718666 -200.712002 
L 273.958597 -195.577642 
L 277.198528 -200.181969 
L 280.438459 -209.06547 
L 283.67839 -204.869396 
L 286.918321 -175.840797 
L 290.158252 -177.111693 
L 293.398183 -174.70509 
L 296.638114 -175.701514 
L 299.878045 -184.04091 
L 303.117976 -168.652153 
L 306.357907 -165.693318 
L 309.597838 -176.903583 
L 312.837769 -164.433922 
L 316.0777 -176.714731 
L 319.317631 -158.961145 
L 322.557562 -172.847419 
L 325.797493 -161.925984 
L 329.037424 -162.599775 
L 332.277355 -179.023562 
L 335.517286 -174.633518 
L 338.757217 -163.185437 
L 341.997148 -166.336003 
L 345.237079 -156.199445 
L 348.47701 -176.082646 
L 351.716941 -171.784469 
L 354.956872 -163.496378 
L 358.196803 -182.364671 
L 361.436734 -156.111147 
L 364.676665 -165.204298 
L 367.916596 -182.605578 
L 371.156527 -166.753844 
L 374.396457 -178.313126 
L 377.636388 -157.455732 
L 380.876319 -169.327466 
L 384.11625 -198.127267 
L 387.356181 -171.318437 
L 390.596112 -153.417054 
L 393.836043 -162.286679 
L 397.075974 -177.14757 
L 400.315905 -182.126604 
L 403.555836 -151.247946 
L 406.795767 -154.998749 
L 410.035698 -160.807166 
L 413.275629 -149.446799 
L 416.51556 -150.171283 
L 419.755491 -153.353281 
L 422.995422 -153.352876 
L 426.235353 -164.069525 
L 429.475284 -145.76286 
L 432.715215 -149.033788 
L 435.955146 -145.80908 
L 439.195077 -153.443608 
L 442.435008 -143.168309 
L 445.674939 -126.686381 
L 448.91487 -139.880047 
L 452.154801 -140.866717 
L 455.394732 -139.219088 
L 458.634663 -127.191355 
L 461.874594 -133.949863 
L 465.114525 -145.310956 
L 468.354456 -139.765589 
L 471.594387 -138.619794 
L 474.834318 -133.849379 
L 478.074249 -121.134215 
L 481.31418 -130.739818 
L 484.554111 -135.540869 
L 487.794042 -127.909108 
L 491.033973 -132.028632 
L 494.273904 -142.107988 
L 497.513835 -132.836364 
L 500.753766 -133.71114 
L 503.993697 -146.679741 
L 507.233628 -141.086176 
L 510.473559 -151.615537 
L 513.71349 -134.903645 
L 516.953421 -137.739023 
L 520.193351 -135.293673 
L 523.433282 -144.548433 
L 526.673213 -134.750422 
L 529.913144 -153.635908 
L 533.153075 -166.630441 
L 536.393006 -157.400372 
L 539.632937 -166.766495 
L 542.872868 -144.221872 
L 546.112799 -169.308782 
L 549.35273 -151.289651 
L 552.592661 -144.684861 
L 555.832592 -158.56687 
L 559.072523 -138.743588 
L 562.312454 -139.724187 
L 565.552385 -139.893927 
L 568.792316 -138.460035 
L 572.032247 -129.411542 
L 575.272178 -135.531963 
L 578.512109 -134.629377 
L 581.75204 -148.595339 
L 584.991971 -138.272552 
L 588.231902 -143.052648 
L 591.471833 -145.406574 
L 594.711764 -140.620329 
L 597.951695 -150.503938 
L 601.191626 -149.557248 
L 604.431557 -137.470908 
L 607.671488 -146.749207 
L 610.911419 -149.343608 
L 614.15135 -134.903951 
L 617.391281 -150.609997 
L 620.631212 -140.400044 
L 623.871143 -151.172297 
L 627.111074 -149.672588 
L 630.351005 -153.527987 
L 633.590936 -140.567423 
L 636.830867 -140.0245 
L 640.070798 -143.866545 
L 643.310729 -136.878535 
L 646.55066 -136.666826 
L 649.790591 -135.087219 
L 653.030522 -144.816068 
L 656.270453 -135.020563 
L 659.510384 -139.539615 
L 662.750314 -131.095601 
L 665.990245 -120.583247 
L 669.230176 -140.598159 
L 672.470107 -140.175833 
L 675.710038 -129.748473 
L 678.949969 -144.972557 
L 678.949969 -160.623398 
L 678.949969 -160.623398 
L 675.710038 -146.937368 
L 672.470107 -176.5598 
L 669.230176 -163.141183 
L 665.990245 -171.220727 
L 662.750314 -152.220999 
L 659.510384 -156.242815 
L 656.270453 -155.192029 
L 653.030522 -156.801431 
L 649.790591 -155.655833 
L 646.55066 -159.380834 
L 643.310729 -168.18696 
L 640.070798 -180.826 
L 636.830867 -160.797308 
L 633.590936 -162.906689 
L 630.351005 -160.555341 
L 627.111074 -164.941201 
L 623.871143 -180.946699 
L 620.631212 -187.475266 
L 617.391281 -176.469622 
L 614.15135 -179.709838 
L 610.911419 -176.940319 
L 607.671488 -175.025804 
L 604.431557 -168.655508 
L 601.191626 -171.156841 
L 597.951695 -192.754735 
L 594.711764 -196.538045 
L 591.471833 -197.056408 
L 588.231902 -201.266947 
L 584.991971 -197.824901 
L 581.75204 -194.398104 
L 578.512109 -190.063167 
L 575.272178 -194.995651 
L 572.032247 -206.420679 
L 568.792316 -191.802348 
L 565.552385 -184.798618 
L 562.312454 -180.19421 
L 559.072523 -188.601261 
L 555.832592 -192.118255 
L 552.592661 -191.677822 
L 549.35273 -191.438562 
L 546.112799 -190.128947 
L 542.872868 -192.671272 
L 539.632937 -201.158606 
L 536.393006 -192.489062 
L 533.153075 -199.172818 
L 529.913144 -194.396912 
L 526.673213 -211.691016 
L 523.433282 -199.771162 
L 520.193351 -213.269609 
L 516.953421 -201.275963 
L 513.71349 -221.616549 
L 510.473559 -219.75756 
L 507.233628 -222.595239 
L 503.993697 -214.34937 
L 500.753766 -205.834307 
L 497.513835 -201.139245 
L 494.273904 -209.903288 
L 491.033973 -194.785756 
L 487.794042 -201.027124 
L 484.554111 -206.391652 
L 481.31418 -211.457934 
L 478.074249 -181.278975 
L 474.834318 -210.470216 
L 471.594387 -208.086874 
L 468.354456 -205.084467 
L 465.114525 -231.89721 
L 461.874594 -206.391276 
L 458.634663 -204.13195 
L 455.394732 -196.613134 
L 452.154801 -200.800574 
L 448.91487 -198.604479 
L 445.674939 -210.737224 
L 442.435008 -205.925433 
L 439.195077 -224.029788 
L 435.955146 -217.076644 
L 432.715215 -211.199632 
L 429.475284 -205.187495 
L 426.235353 -211.282028 
L 422.995422 -223.85529 
L 419.755491 -221.998272 
L 416.51556 -207.144602 
L 413.275629 -222.191528 
L 410.035698 -225.684064 
L 406.795767 -205.499901 
L 403.555836 -228.612524 
L 400.315905 -214.443381 
L 397.075974 -215.70919 
L 393.836043 -225.795933 
L 390.596112 -219.812655 
L 387.356181 -226.04724 
L 384.11625 -213.560852 
L 380.876319 -225.385907 
L 377.636388 -231.157341 
L 374.396457 -220.378703 
L 371.156527 -212.841396 
L 367.916596 -209.455491 
L 364.676665 -207.22972 
L 361.436734 -219.770866 
L 358.196803 -195.904417 
L 354.956872 -219.016396 
L 351.716941 -229.559664 
L 348.47701 -225.791948 
L 345.237079 -231.087476 
L 341.997148 -219.359536 
L 338.757217 -224.631945 
L 335.517286 -226.710615 
L 332.277355 -227.62518 
L 329.037424 -236.092054 
L 325.797493 -229.339394 
L 322.557562 -225.84441 
L 319.317631 -219.042712 
L 316.0777 -219.855254 
L 312.837769 -222.587769 
L 309.597838 -259.185734 
L 306.357907 -241.751115 
L 303.117976 -232.69198 
L 299.878045 -242.765343 
L 296.638114 -264.366259 
L 293.398183 -261.914688 
L 290.158252 -223.436749 
L 286.918321 -224.442415 
L 283.67839 -242.094368 
L 280.438459 -250.894584 
L 277.198528 -251.555942 
L 273.958597 -252.181813 
L 270.718666 -257.9219 
L 267.478735 -236.48526 
L 264.238804 -226.398994 
L 260.998873 -237.594454 
L 257.758942 -232.439347 
L 254.519011 -243.154134 
L 251.27908 -242.097936 
L 248.039149 -245.998345 
L 244.799218 -238.644521 
L 241.559287 -256.114365 
L 238.319356 -271.743149 
L 235.079425 -288.249861 
L 231.839494 -273.837621 
L 228.599564 -265.973143 
L 225.359633 -290.862395 
L 222.119702 -297.805509 
L 218.879771 -278.133523 
L 215.63984 -295.962526 
L 212.399909 -306.172528 
L 209.159978 -297.491878 
L 205.920047 -307.300774 
L 202.680116 -303.348114 
L 199.440185 -328.968583 
L 196.200254 -349.327449 
L 192.960323 -328.701672 
L 189.720392 -336.891025 
L 186.480461 -340.976106 
L 183.24053 -349.677092 
L 180.000599 -387.697728 
L 176.760668 -367.906795 
L 173.520737 -367.033867 
L 170.280806 -391.758874 
L 167.040875 -390.533522 
L 163.800944 -386.930031 
L 160.561013 -395.710849 
L 157.321082 -376.273774 
L 154.081151 -377.147451 
L 150.84122 -384.195829 
L 147.601289 -406.056364 
L 144.361358 -397.742538 
L 141.121427 -383.972988 
z
" style="stroke: #ff0000; stroke-opacity: 0.3"/>
    </defs>
    <g clip-path="url(#p037d8ad1a6)">
     <use xlink:href="#m1b7f3972f3" x="0" y="432" style="fill: #ff0000; fill-opacity: 0.3; stroke: #ff0000; stroke-opacity: 0.3"/>
    </g>
   </g>
   <g id="PolyCollection_4">
    <defs>
     <path id="m0c26c1477f" d="M 141.121427 -396.142977 
L 141.121427 -382.624029 
L 144.361358 -365.061846 
L 147.601289 -351.341898 
L 150.84122 -342.323775 
L 154.081151 -330.468081 
L 157.321082 -316.972719 
L 160.561013 -318.334931 
L 163.800944 -319.598794 
L 167.040875 -323.016292 
L 170.280806 -295.417301 
L 173.520737 -289.056884 
L 176.760668 -276.692574 
L 180.000599 -295.532129 
L 183.24053 -289.397515 
L 186.480461 -274.000192 
L 189.720392 -298.736278 
L 192.960323 -288.198882 
L 196.200254 -310.549183 
L 199.440185 -274.703185 
L 202.680116 -293.459238 
L 205.920047 -278.161586 
L 209.159978 -284.185491 
L 212.399909 -287.31049 
L 215.63984 -279.164756 
L 218.879771 -273.45787 
L 222.119702 -283.339352 
L 225.359633 -263.751567 
L 228.599564 -270.453729 
L 231.839494 -272.480305 
L 235.079425 -271.976721 
L 238.319356 -261.477195 
L 241.559287 -261.309336 
L 244.799218 -273.287694 
L 248.039149 -263.492809 
L 251.27908 -285.563257 
L 254.519011 -248.886388 
L 257.758942 -280.92272 
L 260.998873 -250.81604 
L 264.238804 -279.319612 
L 267.478735 -266.213426 
L 270.718666 -291.42101 
L 273.958597 -272.271021 
L 277.198528 -272.712659 
L 280.438459 -271.273481 
L 283.67839 -268.975274 
L 286.918321 -266.973416 
L 290.158252 -251.049277 
L 293.398183 -273.404611 
L 296.638114 -267.266404 
L 299.878045 -280.855643 
L 303.117976 -275.101274 
L 306.357907 -280.450822 
L 309.597838 -270.856159 
L 312.837769 -250.393696 
L 316.0777 -249.33774 
L 319.317631 -257.346296 
L 322.557562 -259.490595 
L 325.797493 -242.370031 
L 329.037424 -242.968951 
L 332.277355 -235.552645 
L 335.517286 -243.676443 
L 338.757217 -236.232458 
L 341.997148 -246.628408 
L 345.237079 -250.657847 
L 348.47701 -243.293778 
L 351.716941 -240.293904 
L 354.956872 -248.683684 
L 358.196803 -223.548295 
L 361.436734 -259.021215 
L 364.676665 -235.036987 
L 367.916596 -240.398952 
L 371.156527 -224.026455 
L 374.396457 -224.282808 
L 377.636388 -247.585164 
L 380.876319 -253.414627 
L 384.11625 -233.283418 
L 387.356181 -238.462239 
L 390.596112 -258.401401 
L 393.836043 -242.465287 
L 397.075974 -247.550472 
L 400.315905 -249.779678 
L 403.555836 -246.070247 
L 406.795767 -238.649801 
L 410.035698 -256.328027 
L 413.275629 -263.942192 
L 416.51556 -260.577345 
L 419.755491 -264.898495 
L 422.995422 -267.117392 
L 426.235353 -259.046894 
L 429.475284 -265.405274 
L 432.715215 -260.528287 
L 435.955146 -251.70348 
L 439.195077 -239.045345 
L 442.435008 -243.154949 
L 445.674939 -238.195275 
L 448.91487 -236.742174 
L 452.154801 -244.307275 
L 455.394732 -239.219718 
L 458.634663 -246.379806 
L 461.874594 -238.95556 
L 465.114525 -225.833216 
L 468.354456 -240.128239 
L 471.594387 -237.658653 
L 474.834318 -236.310107 
L 478.074249 -254.840701 
L 481.31418 -253.4599 
L 484.554111 -238.649174 
L 487.794042 -234.49482 
L 491.033973 -238.83586 
L 494.273904 -219.869122 
L 497.513835 -236.294972 
L 500.753766 -226.279556 
L 503.993697 -237.452952 
L 507.233628 -242.218994 
L 510.473559 -253.072305 
L 513.71349 -242.50542 
L 516.953421 -241.393779 
L 520.193351 -252.824307 
L 523.433282 -232.169697 
L 526.673213 -247.601041 
L 529.913144 -232.95369 
L 533.153075 -254.861856 
L 536.393006 -240.775352 
L 539.632937 -236.617614 
L 542.872868 -242.997203 
L 546.112799 -242.726651 
L 549.35273 -240.510454 
L 552.592661 -236.354771 
L 555.832592 -242.831196 
L 559.072523 -238.312051 
L 562.312454 -228.991686 
L 565.552385 -251.355519 
L 568.792316 -236.760354 
L 572.032247 -222.144163 
L 575.272178 -239.482086 
L 578.512109 -234.467882 
L 581.75204 -222.204356 
L 584.991971 -241.170708 
L 588.231902 -241.838635 
L 591.471833 -234.008172 
L 594.711764 -231.177465 
L 597.951695 -234.274773 
L 601.191626 -208.867805 
L 604.431557 -238.026255 
L 607.671488 -223.149843 
L 610.911419 -225.764857 
L 614.15135 -245.710989 
L 617.391281 -243.361805 
L 620.631212 -235.051057 
L 623.871143 -263.359743 
L 627.111074 -252.487406 
L 630.351005 -249.576854 
L 633.590936 -244.901496 
L 636.830867 -250.037702 
L 640.070798 -251.50237 
L 643.310729 -260.504008 
L 646.55066 -249.412838 
L 649.790591 -225.253571 
L 653.030522 -242.338261 
L 656.270453 -226.745395 
L 659.510384 -234.06118 
L 662.750314 -236.002124 
L 665.990245 -246.420502 
L 669.230176 -235.530811 
L 672.470107 -217.070531 
L 675.710038 -232.196336 
L 678.949969 -227.1984 
L 678.949969 -264.589303 
L 678.949969 -264.589303 
L 675.710038 -284.788256 
L 672.470107 -273.92148 
L 669.230176 -278.005786 
L 665.990245 -269.503168 
L 662.750314 -274.086477 
L 659.510384 -267.009587 
L 656.270453 -270.877377 
L 653.030522 -274.64633 
L 649.790591 -277.93904 
L 646.55066 -272.876362 
L 643.310729 -292.55192 
L 640.070798 -294.657567 
L 636.830867 -294.000392 
L 633.590936 -293.566759 
L 630.351005 -276.956033 
L 627.111074 -291.285457 
L 623.871143 -281.739272 
L 620.631212 -269.467705 
L 617.391281 -274.683708 
L 614.15135 -291.961575 
L 610.911419 -284.323744 
L 607.671488 -284.551685 
L 604.431557 -259.596517 
L 601.191626 -274.167295 
L 597.951695 -282.444588 
L 594.711764 -262.732082 
L 591.471833 -280.324116 
L 588.231902 -261.619206 
L 584.991971 -291.462478 
L 581.75204 -299.554384 
L 578.512109 -268.724728 
L 575.272178 -290.498796 
L 572.032247 -284.496443 
L 568.792316 -284.467925 
L 565.552385 -291.621653 
L 562.312454 -263.326477 
L 559.072523 -274.694085 
L 555.832592 -270.97063 
L 552.592661 -255.432932 
L 549.35273 -248.624944 
L 546.112799 -264.179185 
L 542.872868 -252.238495 
L 539.632937 -272.675296 
L 536.393006 -270.639401 
L 533.153075 -274.323335 
L 529.913144 -253.264175 
L 526.673213 -265.405095 
L 523.433282 -281.3669 
L 520.193351 -267.07782 
L 516.953421 -265.246827 
L 513.71349 -273.15302 
L 510.473559 -260.199061 
L 507.233628 -260.973616 
L 503.993697 -274.492262 
L 500.753766 -267.62999 
L 497.513835 -274.58932 
L 494.273904 -291.015171 
L 491.033973 -295.123478 
L 487.794042 -276.389472 
L 484.554111 -265.073897 
L 481.31418 -273.603447 
L 478.074249 -276.466333 
L 474.834318 -262.638817 
L 471.594387 -272.695179 
L 468.354456 -263.860063 
L 465.114525 -266.219717 
L 461.874594 -283.068409 
L 458.634663 -278.826928 
L 455.394732 -283.865174 
L 452.154801 -280.89946 
L 448.91487 -265.389514 
L 445.674939 -271.362865 
L 442.435008 -286.295472 
L 439.195077 -257.516505 
L 435.955146 -262.098347 
L 432.715215 -281.918425 
L 429.475284 -276.776206 
L 426.235353 -282.338896 
L 422.995422 -270.555171 
L 419.755491 -282.587594 
L 416.51556 -291.682891 
L 413.275629 -287.522354 
L 410.035698 -290.36237 
L 406.795767 -283.108938 
L 403.555836 -255.265751 
L 400.315905 -257.656619 
L 397.075974 -276.33011 
L 393.836043 -294.942047 
L 390.596112 -288.288997 
L 387.356181 -282.766039 
L 384.11625 -283.170713 
L 380.876319 -287.440701 
L 377.636388 -287.435095 
L 374.396457 -284.744871 
L 371.156527 -273.861548 
L 367.916596 -269.424419 
L 364.676665 -279.03007 
L 361.436734 -270.429206 
L 358.196803 -265.321874 
L 354.956872 -262.9963 
L 351.716941 -269.529467 
L 348.47701 -282.973878 
L 345.237079 -280.118726 
L 341.997148 -261.07312 
L 338.757217 -263.246927 
L 335.517286 -286.8349 
L 332.277355 -279.840564 
L 329.037424 -285.95101 
L 325.797493 -282.571473 
L 322.557562 -270.225057 
L 319.317631 -270.247513 
L 316.0777 -279.31699 
L 312.837769 -300.805618 
L 309.597838 -291.482833 
L 306.357907 -297.271533 
L 303.117976 -290.420483 
L 299.878045 -287.053187 
L 296.638114 -286.054754 
L 293.398183 -293.178067 
L 290.158252 -278.666374 
L 286.918321 -281.043133 
L 283.67839 -296.546483 
L 280.438459 -277.53876 
L 277.198528 -299.174627 
L 273.958597 -306.777487 
L 270.718666 -315.476691 
L 267.478735 -315.752616 
L 264.238804 -297.607052 
L 260.998873 -296.404819 
L 257.758942 -290.434106 
L 254.519011 -322.205208 
L 251.27908 -315.764605 
L 248.039149 -318.738464 
L 244.799218 -309.73927 
L 241.559287 -319.861015 
L 238.319356 -332.158985 
L 235.079425 -332.268675 
L 231.839494 -319.564493 
L 228.599564 -314.960309 
L 225.359633 -329.354152 
L 222.119702 -325.414961 
L 218.879771 -333.439831 
L 215.63984 -316.593268 
L 212.399909 -296.777395 
L 209.159978 -309.450689 
L 205.920047 -318.92259 
L 202.680116 -312.112311 
L 199.440185 -320.524377 
L 196.200254 -330.828472 
L 192.960323 -310.741907 
L 189.720392 -305.243888 
L 186.480461 -295.765252 
L 183.24053 -331.292167 
L 180.000599 -299.430204 
L 176.760668 -328.878974 
L 173.520737 -320.493121 
L 170.280806 -320.233004 
L 167.040875 -323.665971 
L 163.800944 -332.918537 
L 160.561013 -363.888206 
L 157.321082 -353.580281 
L 154.081151 -376.686715 
L 150.84122 -386.579915 
L 147.601289 -377.296561 
L 144.361358 -389.303963 
L 141.121427 -396.142977 
z
" style="stroke: #ffa500; stroke-opacity: 0.3"/>
    </defs>
    <g clip-path="url(#p037d8ad1a6)">
     <use xlink:href="#m0c26c1477f" x="0" y="432" style="fill: #ffa500; fill-opacity: 0.3; stroke: #ffa500; stroke-opacity: 0.3"/>
    </g>
   </g>
   <g id="matplotlib.axis_1">
    <g id="xtick_1">
     <g id="line2d_1">
      <defs>
       <path id="mb8e83aeeb5" d="M 0 0 
L 0 3.5 
" style="stroke: #000000; stroke-width: 0.8"/>
      </defs>
      <g>
       <use xlink:href="#mb8e83aeeb5" x="141.121427" y="343.96" style="stroke: #000000; stroke-width: 0.8"/>
      </g>
     </g>
     <g id="text_1">
      <!-- 0 -->
      <g transform="translate(132.213927 372.235625) scale(0.28 -0.28)">
       <defs>
        <path id="DejaVuSans-30" d="M 2034 4250 
Q 1547 4250 1301 3770 
Q 1056 3291 1056 2328 
Q 1056 1369 1301 889 
Q 1547 409 2034 409 
Q 2525 409 2770 889 
Q 3016 1369 3016 2328 
Q 3016 3291 2770 3770 
Q 2525 4250 2034 4250 
z
M 2034 4750 
Q 2819 4750 3233 4129 
Q 3647 3509 3647 2328 
Q 3647 1150 3233 529 
Q 2819 -91 2034 -91 
Q 1250 -91 836 529 
Q 422 1150 422 2328 
Q 422 3509 836 4129 
Q 1250 4750 2034 4750 
z
" transform="scale(0.015625)"/>
       </defs>
       <use xlink:href="#DejaVuSans-30"/>
      </g>
     </g>
    </g>
    <g id="xtick_2">
     <g id="line2d_2">
      <g>
       <use xlink:href="#mb8e83aeeb5" x="249.119126" y="343.96" style="stroke: #000000; stroke-width: 0.8"/>
      </g>
     </g>
     <g id="text_2">
      <!-- 100 -->
      <g transform="translate(222.396626 372.235625) scale(0.28 -0.28)">
       <defs>
        <path id="DejaVuSans-31" d="M 794 531 
L 1825 531 
L 1825 4091 
L 703 3866 
L 703 4441 
L 1819 4666 
L 2450 4666 
L 2450 531 
L 3481 531 
L 3481 0 
L 794 0 
L 794 531 
z
" transform="scale(0.015625)"/>
       </defs>
       <use xlink:href="#DejaVuSans-31"/>
       <use xlink:href="#DejaVuSans-30" x="63.623047"/>
       <use xlink:href="#DejaVuSans-30" x="127.246094"/>
      </g>
     </g>
    </g>
    <g id="xtick_3">
     <g id="line2d_3">
      <g>
       <use xlink:href="#mb8e83aeeb5" x="357.116826" y="343.96" style="stroke: #000000; stroke-width: 0.8"/>
      </g>
     </g>
     <g id="text_3">
      <!-- 200 -->
      <g transform="translate(330.394326 372.235625) scale(0.28 -0.28)">
       <defs>
        <path id="DejaVuSans-32" d="M 1228 531 
L 3431 531 
L 3431 0 
L 469 0 
L 469 531 
Q 828 903 1448 1529 
Q 2069 2156 2228 2338 
Q 2531 2678 2651 2914 
Q 2772 3150 2772 3378 
Q 2772 3750 2511 3984 
Q 2250 4219 1831 4219 
Q 1534 4219 1204 4116 
Q 875 4013 500 3803 
L 500 4441 
Q 881 4594 1212 4672 
Q 1544 4750 1819 4750 
Q 2544 4750 2975 4387 
Q 3406 4025 3406 3419 
Q 3406 3131 3298 2873 
Q 3191 2616 2906 2266 
Q 2828 2175 2409 1742 
Q 1991 1309 1228 531 
z
" transform="scale(0.015625)"/>
       </defs>
       <use xlink:href="#DejaVuSans-32"/>
       <use xlink:href="#DejaVuSans-30" x="63.623047"/>
       <use xlink:href="#DejaVuSans-30" x="127.246094"/>
      </g>
     </g>
    </g>
    <g id="xtick_4">
     <g id="line2d_4">
      <g>
       <use xlink:href="#mb8e83aeeb5" x="465.114525" y="343.96" style="stroke: #000000; stroke-width: 0.8"/>
      </g>
     </g>
     <g id="text_4">
      <!-- 300 -->
      <g transform="translate(438.392025 372.235625) scale(0.28 -0.28)">
       <defs>
        <path id="DejaVuSans-33" d="M 2597 2516 
Q 3050 2419 3304 2112 
Q 3559 1806 3559 1356 
Q 3559 666 3084 287 
Q 2609 -91 1734 -91 
Q 1441 -91 1130 -33 
Q 819 25 488 141 
L 488 750 
Q 750 597 1062 519 
Q 1375 441 1716 441 
Q 2309 441 2620 675 
Q 2931 909 2931 1356 
Q 2931 1769 2642 2001 
Q 2353 2234 1838 2234 
L 1294 2234 
L 1294 2753 
L 1863 2753 
Q 2328 2753 2575 2939 
Q 2822 3125 2822 3475 
Q 2822 3834 2567 4026 
Q 2313 4219 1838 4219 
Q 1578 4219 1281 4162 
Q 984 4106 628 3988 
L 628 4550 
Q 988 4650 1302 4700 
Q 1616 4750 1894 4750 
Q 2613 4750 3031 4423 
Q 3450 4097 3450 3541 
Q 3450 3153 3228 2886 
Q 3006 2619 2597 2516 
z
" transform="scale(0.015625)"/>
       </defs>
       <use xlink:href="#DejaVuSans-33"/>
       <use xlink:href="#DejaVuSans-30" x="63.623047"/>
       <use xlink:href="#DejaVuSans-30" x="127.246094"/>
      </g>
     </g>
    </g>
    <g id="xtick_5">
     <g id="line2d_5">
      <g>
       <use xlink:href="#mb8e83aeeb5" x="573.112224" y="343.96" style="stroke: #000000; stroke-width: 0.8"/>
      </g>
     </g>
     <g id="text_5">
      <!-- 400 -->
      <g transform="translate(546.389724 372.235625) scale(0.28 -0.28)">
       <defs>
        <path id="DejaVuSans-34" d="M 2419 4116 
L 825 1625 
L 2419 1625 
L 2419 4116 
z
M 2253 4666 
L 3047 4666 
L 3047 1625 
L 3713 1625 
L 3713 1100 
L 3047 1100 
L 3047 0 
L 2419 0 
L 2419 1100 
L 313 1100 
L 313 1709 
L 2253 4666 
z
" transform="scale(0.015625)"/>
       </defs>
       <use xlink:href="#DejaVuSans-34"/>
       <use xlink:href="#DejaVuSans-30" x="63.623047"/>
       <use xlink:href="#DejaVuSans-30" x="127.246094"/>
      </g>
     </g>
    </g>
    <g id="xtick_6">
     <g id="line2d_6">
      <g>
       <use xlink:href="#mb8e83aeeb5" x="681.109923" y="343.96" style="stroke: #000000; stroke-width: 0.8"/>
      </g>
     </g>
     <g id="text_6">
      <!-- 500 -->
      <g transform="translate(654.387423 372.235625) scale(0.28 -0.28)">
       <defs>
        <path id="DejaVuSans-35" d="M 691 4666 
L 3169 4666 
L 3169 4134 
L 1269 4134 
L 1269 2991 
Q 1406 3038 1543 3061 
Q 1681 3084 1819 3084 
Q 2600 3084 3056 2656 
Q 3513 2228 3513 1497 
Q 3513 744 3044 326 
Q 2575 -91 1722 -91 
Q 1428 -91 1123 -41 
Q 819 9 494 109 
L 494 744 
Q 775 591 1075 516 
Q 1375 441 1709 441 
Q 2250 441 2565 725 
Q 2881 1009 2881 1497 
Q 2881 1984 2565 2268 
Q 2250 2553 1709 2553 
Q 1456 2553 1204 2497 
Q 953 2441 691 2322 
L 691 4666 
z
" transform="scale(0.015625)"/>
       </defs>
       <use xlink:href="#DejaVuSans-35"/>
       <use xlink:href="#DejaVuSans-30" x="63.623047"/>
       <use xlink:href="#DejaVuSans-30" x="127.246094"/>
      </g>
     </g>
    </g>
    <g id="text_7">
     <!-- Episode -->
     <g transform="translate(331.485698 412.4525) scale(0.4 -0.4)">
      <defs>
       <path id="DejaVuSans-45" d="M 628 4666 
L 3578 4666 
L 3578 4134 
L 1259 4134 
L 1259 2753 
L 3481 2753 
L 3481 2222 
L 1259 2222 
L 1259 531 
L 3634 531 
L 3634 0 
L 628 0 
L 628 4666 
z
" transform="scale(0.015625)"/>
       <path id="DejaVuSans-70" d="M 1159 525 
L 1159 -1331 
L 581 -1331 
L 581 3500 
L 1159 3500 
L 1159 2969 
Q 1341 3281 1617 3432 
Q 1894 3584 2278 3584 
Q 2916 3584 3314 3078 
Q 3713 2572 3713 1747 
Q 3713 922 3314 415 
Q 2916 -91 2278 -91 
Q 1894 -91 1617 61 
Q 1341 213 1159 525 
z
M 3116 1747 
Q 3116 2381 2855 2742 
Q 2594 3103 2138 3103 
Q 1681 3103 1420 2742 
Q 1159 2381 1159 1747 
Q 1159 1113 1420 752 
Q 1681 391 2138 391 
Q 2594 391 2855 752 
Q 3116 1113 3116 1747 
z
" transform="scale(0.015625)"/>
       <path id="DejaVuSans-69" d="M 603 3500 
L 1178 3500 
L 1178 0 
L 603 0 
L 603 3500 
z
M 603 4863 
L 1178 4863 
L 1178 4134 
L 603 4134 
L 603 4863 
z
" transform="scale(0.015625)"/>
       <path id="DejaVuSans-73" d="M 2834 3397 
L 2834 2853 
Q 2591 2978 2328 3040 
Q 2066 3103 1784 3103 
Q 1356 3103 1142 2972 
Q 928 2841 928 2578 
Q 928 2378 1081 2264 
Q 1234 2150 1697 2047 
L 1894 2003 
Q 2506 1872 2764 1633 
Q 3022 1394 3022 966 
Q 3022 478 2636 193 
Q 2250 -91 1575 -91 
Q 1294 -91 989 -36 
Q 684 19 347 128 
L 347 722 
Q 666 556 975 473 
Q 1284 391 1588 391 
Q 1994 391 2212 530 
Q 2431 669 2431 922 
Q 2431 1156 2273 1281 
Q 2116 1406 1581 1522 
L 1381 1569 
Q 847 1681 609 1914 
Q 372 2147 372 2553 
Q 372 3047 722 3315 
Q 1072 3584 1716 3584 
Q 2034 3584 2315 3537 
Q 2597 3491 2834 3397 
z
" transform="scale(0.015625)"/>
       <path id="DejaVuSans-6f" d="M 1959 3097 
Q 1497 3097 1228 2736 
Q 959 2375 959 1747 
Q 959 1119 1226 758 
Q 1494 397 1959 397 
Q 2419 397 2687 759 
Q 2956 1122 2956 1747 
Q 2956 2369 2687 2733 
Q 2419 3097 1959 3097 
z
M 1959 3584 
Q 2709 3584 3137 3096 
Q 3566 2609 3566 1747 
Q 3566 888 3137 398 
Q 2709 -91 1959 -91 
Q 1206 -91 779 398 
Q 353 888 353 1747 
Q 353 2609 779 3096 
Q 1206 3584 1959 3584 
z
" transform="scale(0.015625)"/>
       <path id="DejaVuSans-64" d="M 2906 2969 
L 2906 4863 
L 3481 4863 
L 3481 0 
L 2906 0 
L 2906 525 
Q 2725 213 2448 61 
Q 2172 -91 1784 -91 
Q 1150 -91 751 415 
Q 353 922 353 1747 
Q 353 2572 751 3078 
Q 1150 3584 1784 3584 
Q 2172 3584 2448 3432 
Q 2725 3281 2906 2969 
z
M 947 1747 
Q 947 1113 1208 752 
Q 1469 391 1925 391 
Q 2381 391 2643 752 
Q 2906 1113 2906 1747 
Q 2906 2381 2643 2742 
Q 2381 3103 1925 3103 
Q 1469 3103 1208 2742 
Q 947 2381 947 1747 
z
" transform="scale(0.015625)"/>
       <path id="DejaVuSans-65" d="M 3597 1894 
L 3597 1613 
L 953 1613 
Q 991 1019 1311 708 
Q 1631 397 2203 397 
Q 2534 397 2845 478 
Q 3156 559 3463 722 
L 3463 178 
Q 3153 47 2828 -22 
Q 2503 -91 2169 -91 
Q 1331 -91 842 396 
Q 353 884 353 1716 
Q 353 2575 817 3079 
Q 1281 3584 2069 3584 
Q 2775 3584 3186 3129 
Q 3597 2675 3597 1894 
z
M 3022 2063 
Q 3016 2534 2758 2815 
Q 2500 3097 2075 3097 
Q 1594 3097 1305 2825 
Q 1016 2553 972 2059 
L 3022 2063 
z
" transform="scale(0.015625)"/>
      </defs>
      <use xlink:href="#DejaVuSans-45"/>
      <use xlink:href="#DejaVuSans-70" x="63.183594"/>
      <use xlink:href="#DejaVuSans-69" x="126.660156"/>
      <use xlink:href="#DejaVuSans-73" x="154.443359"/>
      <use xlink:href="#DejaVuSans-6f" x="206.542969"/>
      <use xlink:href="#DejaVuSans-64" x="267.724609"/>
      <use xlink:href="#DejaVuSans-65" x="331.201172"/>
     </g>
    </g>
   </g>
   <g id="matplotlib.axis_2">
    <g id="ytick_1">
     <g id="line2d_7">
      <defs>
       <path id="mb0c1ffd0e6" d="M 0 0 
L -3.5 0 
" style="stroke: #000000; stroke-width: 0.8"/>
      </defs>
      <g>
       <use xlink:href="#mb0c1ffd0e6" x="114.23" y="333.441641" style="stroke: #000000; stroke-width: 0.8"/>
      </g>
     </g>
     <g id="text_8">
      <!-- 20 -->
      <g transform="translate(71.6 344.079454) scale(0.28 -0.28)">
       <use xlink:href="#DejaVuSans-32"/>
       <use xlink:href="#DejaVuSans-30" x="63.623047"/>
      </g>
     </g>
    </g>
    <g id="ytick_2">
     <g id="line2d_8">
      <g>
       <use xlink:href="#mb0c1ffd0e6" x="114.23" y="285.700168" style="stroke: #000000; stroke-width: 0.8"/>
      </g>
     </g>
     <g id="text_9">
      <!-- 40 -->
      <g transform="translate(71.6 296.33798) scale(0.28 -0.28)">
       <use xlink:href="#DejaVuSans-34"/>
       <use xlink:href="#DejaVuSans-30" x="63.623047"/>
      </g>
     </g>
    </g>
    <g id="ytick_3">
     <g id="line2d_9">
      <g>
       <use xlink:href="#mb0c1ffd0e6" x="114.23" y="237.958694" style="stroke: #000000; stroke-width: 0.8"/>
      </g>
     </g>
     <g id="text_10">
      <!-- 60 -->
      <g transform="translate(71.6 248.596506) scale(0.28 -0.28)">
       <defs>
        <path id="DejaVuSans-36" d="M 2113 2584 
Q 1688 2584 1439 2293 
Q 1191 2003 1191 1497 
Q 1191 994 1439 701 
Q 1688 409 2113 409 
Q 2538 409 2786 701 
Q 3034 994 3034 1497 
Q 3034 2003 2786 2293 
Q 2538 2584 2113 2584 
z
M 3366 4563 
L 3366 3988 
Q 3128 4100 2886 4159 
Q 2644 4219 2406 4219 
Q 1781 4219 1451 3797 
Q 1122 3375 1075 2522 
Q 1259 2794 1537 2939 
Q 1816 3084 2150 3084 
Q 2853 3084 3261 2657 
Q 3669 2231 3669 1497 
Q 3669 778 3244 343 
Q 2819 -91 2113 -91 
Q 1303 -91 875 529 
Q 447 1150 447 2328 
Q 447 3434 972 4092 
Q 1497 4750 2381 4750 
Q 2619 4750 2861 4703 
Q 3103 4656 3366 4563 
z
" transform="scale(0.015625)"/>
       </defs>
       <use xlink:href="#DejaVuSans-36"/>
       <use xlink:href="#DejaVuSans-30" x="63.623047"/>
      </g>
     </g>
    </g>
    <g id="ytick_4">
     <g id="line2d_10">
      <g>
       <use xlink:href="#mb0c1ffd0e6" x="114.23" y="190.21722" style="stroke: #000000; stroke-width: 0.8"/>
      </g>
     </g>
     <g id="text_11">
      <!-- 80 -->
      <g transform="translate(71.6 200.855032) scale(0.28 -0.28)">
       <defs>
        <path id="DejaVuSans-38" d="M 2034 2216 
Q 1584 2216 1326 1975 
Q 1069 1734 1069 1313 
Q 1069 891 1326 650 
Q 1584 409 2034 409 
Q 2484 409 2743 651 
Q 3003 894 3003 1313 
Q 3003 1734 2745 1975 
Q 2488 2216 2034 2216 
z
M 1403 2484 
Q 997 2584 770 2862 
Q 544 3141 544 3541 
Q 544 4100 942 4425 
Q 1341 4750 2034 4750 
Q 2731 4750 3128 4425 
Q 3525 4100 3525 3541 
Q 3525 3141 3298 2862 
Q 3072 2584 2669 2484 
Q 3125 2378 3379 2068 
Q 3634 1759 3634 1313 
Q 3634 634 3220 271 
Q 2806 -91 2034 -91 
Q 1263 -91 848 271 
Q 434 634 434 1313 
Q 434 1759 690 2068 
Q 947 2378 1403 2484 
z
M 1172 3481 
Q 1172 3119 1398 2916 
Q 1625 2713 2034 2713 
Q 2441 2713 2670 2916 
Q 2900 3119 2900 3481 
Q 2900 3844 2670 4047 
Q 2441 4250 2034 4250 
Q 1625 4250 1398 4047 
Q 1172 3844 1172 3481 
z
" transform="scale(0.015625)"/>
       </defs>
       <use xlink:href="#DejaVuSans-38"/>
       <use xlink:href="#DejaVuSans-30" x="63.623047"/>
      </g>
     </g>
    </g>
    <g id="ytick_5">
     <g id="line2d_11">
      <g>
       <use xlink:href="#mb0c1ffd0e6" x="114.23" y="142.475746" style="stroke: #000000; stroke-width: 0.8"/>
      </g>
     </g>
     <g id="text_12">
      <!-- 100 -->
      <g transform="translate(53.785 153.113559) scale(0.28 -0.28)">
       <use xlink:href="#DejaVuSans-31"/>
       <use xlink:href="#DejaVuSans-30" x="63.623047"/>
       <use xlink:href="#DejaVuSans-30" x="127.246094"/>
      </g>
     </g>
    </g>
    <g id="ytick_6">
     <g id="line2d_12">
      <g>
       <use xlink:href="#mb0c1ffd0e6" x="114.23" y="94.734272" style="stroke: #000000; stroke-width: 0.8"/>
      </g>
     </g>
     <g id="text_13">
      <!-- 120 -->
      <g transform="translate(53.785 105.372085) scale(0.28 -0.28)">
       <use xlink:href="#DejaVuSans-31"/>
       <use xlink:href="#DejaVuSans-32" x="63.623047"/>
       <use xlink:href="#DejaVuSans-30" x="127.246094"/>
      </g>
     </g>
    </g>
    <g id="ytick_7">
     <g id="line2d_13">
      <g>
       <use xlink:href="#mb0c1ffd0e6" x="114.23" y="46.992799" style="stroke: #000000; stroke-width: 0.8"/>
      </g>
     </g>
     <g id="text_14">
      <!-- 140 -->
      <g transform="translate(53.785 57.630611) scale(0.28 -0.28)">
       <use xlink:href="#DejaVuSans-31"/>
       <use xlink:href="#DejaVuSans-34" x="63.623047"/>
       <use xlink:href="#DejaVuSans-30" x="127.246094"/>
      </g>
     </g>
    </g>
    <g id="text_15">
     <!-- $m_{do}$ -->
     <g transform="translate(41.46625 214.98) rotate(-90) scale(0.4 -0.4)">
      <defs>
       <path id="DejaVuSans-Oblique-6d" d="M 5747 2113 
L 5338 0 
L 4763 0 
L 5166 2094 
Q 5191 2228 5203 2325 
Q 5216 2422 5216 2491 
Q 5216 2772 5059 2928 
Q 4903 3084 4622 3084 
Q 4203 3084 3875 2770 
Q 3547 2456 3450 1953 
L 3066 0 
L 2491 0 
L 2900 2094 
Q 2925 2209 2937 2307 
Q 2950 2406 2950 2484 
Q 2950 2769 2794 2926 
Q 2638 3084 2363 3084 
Q 1938 3084 1609 2770 
Q 1281 2456 1184 1953 
L 800 0 
L 225 0 
L 909 3500 
L 1484 3500 
L 1375 2956 
Q 1609 3263 1923 3423 
Q 2238 3584 2597 3584 
Q 2978 3584 3223 3384 
Q 3469 3184 3519 2828 
Q 3781 3197 4126 3390 
Q 4472 3584 4856 3584 
Q 5306 3584 5551 3325 
Q 5797 3066 5797 2591 
Q 5797 2488 5784 2364 
Q 5772 2241 5747 2113 
z
" transform="scale(0.015625)"/>
       <path id="DejaVuSans-Oblique-64" d="M 2675 525 
Q 2444 222 2128 65 
Q 1813 -91 1428 -91 
Q 903 -91 598 267 
Q 294 625 294 1247 
Q 294 1766 478 2236 
Q 663 2706 1013 3078 
Q 1244 3325 1534 3454 
Q 1825 3584 2144 3584 
Q 2481 3584 2739 3421 
Q 2997 3259 3138 2956 
L 3513 4863 
L 4091 4863 
L 3144 0 
L 2566 0 
L 2675 525 
z
M 891 1350 
Q 891 897 1095 644 
Q 1300 391 1663 391 
Q 1931 391 2161 520 
Q 2391 650 2566 903 
Q 2750 1166 2856 1509 
Q 2963 1853 2963 2188 
Q 2963 2622 2758 2865 
Q 2553 3109 2194 3109 
Q 1922 3109 1687 2981 
Q 1453 2853 1288 2613 
Q 1106 2353 998 2009 
Q 891 1666 891 1350 
z
" transform="scale(0.015625)"/>
       <path id="DejaVuSans-Oblique-6f" d="M 1625 -91 
Q 1009 -91 651 289 
Q 294 669 294 1325 
Q 294 1706 417 2101 
Q 541 2497 738 2766 
Q 1047 3184 1428 3384 
Q 1809 3584 2291 3584 
Q 2888 3584 3255 3212 
Q 3622 2841 3622 2241 
Q 3622 1825 3500 1412 
Q 3378 1000 3181 728 
Q 2875 309 2494 109 
Q 2113 -91 1625 -91 
z
M 891 1344 
Q 891 869 1089 633 
Q 1288 397 1691 397 
Q 2269 397 2648 901 
Q 3028 1406 3028 2181 
Q 3028 2634 2825 2865 
Q 2622 3097 2228 3097 
Q 1903 3097 1650 2945 
Q 1397 2794 1197 2484 
Q 1050 2253 970 1956 
Q 891 1659 891 1344 
z
" transform="scale(0.015625)"/>
      </defs>
      <use xlink:href="#DejaVuSans-Oblique-6d"/>
      <use xlink:href="#DejaVuSans-Oblique-64" transform="translate(97.412109 -16.40625) scale(0.7)"/>
      <use xlink:href="#DejaVuSans-Oblique-6f" transform="translate(141.845703 -16.40625) scale(0.7)"/>
     </g>
    </g>
   </g>
   <g id="line2d_14">
    <path d="M 141.121427 179.740619 
L 144.361358 199.102439 
L 147.601289 212.496574 
L 150.84122 220.453487 
L 154.081151 236.499926 
L 157.321082 234.112853 
L 160.561013 238.223924 
L 163.800944 237.295618 
L 167.040875 255.19867 
L 170.280806 255.729131 
L 173.520737 250.689753 
L 176.760668 240.478383 
L 180.000599 247.506988 
L 183.24053 252.546366 
L 186.480461 254.93344 
L 189.720392 266.470963 
L 192.960323 272.173417 
L 196.200254 268.725421 
L 199.440185 274.030029 
L 202.680116 261.962046 
L 205.920047 272.571262 
L 209.159978 285.037091 
L 212.399909 281.456481 
L 215.63984 274.958336 
L 218.879771 277.61064 
L 222.119702 282.782633 
L 225.359633 287.29155 
L 228.599564 286.628474 
L 231.839494 287.158935 
L 235.079425 282.517403 
L 238.319356 285.832783 
L 241.559287 285.302322 
L 244.799218 276.417103 
L 248.039149 280.528175 
L 251.27908 282.782633 
L 254.519011 281.058635 
L 257.758942 291.137391 
L 260.998873 281.986942 
L 264.238804 283.047863 
L 267.478735 263.288198 
L 270.718666 277.478025 
L 273.958597 277.61064 
L 277.198528 269.653728 
L 280.438459 275.621412 
L 283.67839 282.915248 
L 286.918321 284.108785 
L 290.158252 285.965398 
L 293.398183 284.374015 
L 296.638114 285.965398 
L 299.878045 274.427875 
L 303.117976 272.703877 
L 306.357907 269.388497 
L 309.597838 273.101723 
L 312.837769 281.058635 
L 316.0777 276.814949 
L 322.557562 289.678624 
L 325.797493 288.617702 
L 329.037424 284.2414 
L 332.277355 285.302322 
L 335.517286 276.284488 
L 338.757217 282.915248 
L 341.997148 289.015548 
L 345.237079 285.037091 
L 348.47701 287.689396 
L 351.716941 285.434937 
L 354.956872 277.080179 
L 361.436734 264.746965 
L 364.676665 269.388497 
L 367.916596 280.92602 
L 371.156527 283.047863 
L 374.396457 265.807887 
L 377.636388 270.97988 
L 380.876319 259.442357 
L 384.11625 259.442357 
L 387.356181 248.435295 
L 390.596112 260.238048 
L 393.836043 249.761447 
L 397.075974 262.492507 
L 400.315905 266.073117 
L 403.555836 258.381435 
L 406.795767 271.908186 
L 410.035698 282.384787 
L 413.275629 284.374015 
L 416.51556 281.191251 
L 419.755491 279.467253 
L 422.995422 277.212794 
L 426.235353 284.904476 
L 429.475284 286.761089 
L 432.715215 292.330928 
L 435.955146 293.65708 
L 439.195077 292.728773 
L 442.435008 284.771861 
L 445.674939 288.750317 
L 448.91487 290.739545 
L 452.154801 294.452771 
L 455.394732 288.485087 
L 458.634663 291.800467 
L 461.874594 283.710939 
L 465.114525 279.467253 
L 468.354456 272.040801 
L 471.594387 284.904476 
L 474.834318 294.452771 
L 478.074249 296.441999 
L 481.31418 288.485087 
L 484.554111 283.710939 
L 487.794042 290.60693 
L 491.033973 286.363244 
L 494.273904 296.839845 
L 497.513835 291.004776 
L 500.753766 294.054925 
L 503.993697 297.900766 
L 507.233628 288.882932 
L 510.473559 297.635536 
L 513.71349 308.775213 
L 516.953421 299.889994 
L 520.193351 292.330928 
L 523.433282 297.105075 
L 526.673213 293.259234 
L 529.913144 298.961688 
L 533.153075 300.55307 
L 536.393006 271.775571 
L 539.632937 289.678624 
L 542.872868 293.789695 
L 546.112799 280.130329 
L 549.35273 293.524465 
L 552.592661 292.463543 
L 555.832592 289.943854 
L 559.072523 293.92231 
L 562.312454 280.66079 
L 565.552385 279.202022 
L 568.792316 297.23769 
L 572.032247 297.23769 
L 575.272178 301.216147 
L 578.512109 294.320156 
L 581.75204 305.990294 
L 584.991971 293.259234 
L 588.231902 300.420455 
L 591.471833 301.746607 
L 594.711764 301.216147 
L 597.951695 297.900766 
L 601.191626 279.997714 
L 604.431557 291.004776 
L 607.671488 287.02632 
L 610.911419 282.650018 
L 614.15135 288.617702 
L 617.391281 298.829073 
L 620.631212 301.879223 
L 623.871143 303.868451 
L 627.111074 305.194603 
L 630.351005 305.061987 
L 633.590936 303.33799 
L 636.830867 298.165997 
L 640.070798 297.23769 
L 643.310729 289.943854 
L 646.55066 294.054925 
L 649.790591 295.778923 
L 653.030522 291.137391 
L 656.270453 303.072759 
L 659.510384 307.714292 
L 662.750314 301.216147 
L 665.990245 296.441999 
L 669.230176 302.277068 
L 672.470107 300.420455 
L 675.710038 294.585386 
L 678.949969 296.839845 
L 678.949969 296.839845 
" clip-path="url(#p037d8ad1a6)" style="fill: none; stroke: #0000ff; stroke-width: 3; stroke-linecap: square"/>
   </g>
   <g id="line2d_15">
    <path d="M 141.121427 192.869524 
L 144.361358 187.432301 
L 147.601289 205.202738 
L 150.84122 219.25995 
L 154.081151 214.618418 
L 157.321082 220.718717 
L 160.561013 225.227634 
L 163.800944 233.184546 
L 167.040875 229.073475 
L 170.280806 241.008843 
L 173.520737 244.324224 
L 176.760668 248.435295 
L 180.000599 234.378083 
L 183.24053 232.919316 
L 186.480461 232.786701 
L 189.720392 236.897772 
L 192.960323 231.858394 
L 196.200254 235.439005 
L 199.440185 239.682691 
L 202.680116 240.743613 
L 205.920047 242.069765 
L 209.159978 246.180836 
L 212.399909 233.582392 
L 215.63984 229.073475 
L 218.879771 217.801183 
L 222.119702 217.005491 
L 225.359633 202.683049 
L 228.599564 218.994719 
L 231.839494 231.725779 
L 235.079425 227.349477 
L 238.319356 233.847622 
L 241.559287 225.758095 
L 244.799218 233.449777 
L 248.039149 229.471321 
L 251.27908 239.947922 
L 254.519011 223.371021 
L 257.758942 235.173774 
L 260.998873 225.89071 
L 264.238804 213.690111 
L 267.478735 238.754385 
L 270.718666 241.93715 
L 273.958597 244.191608 
L 277.198528 242.998072 
L 280.438459 231.858394 
L 283.67839 241.406689 
L 286.918321 233.980238 
L 290.158252 228.410399 
L 293.398183 225.89071 
L 296.638114 224.034097 
L 299.878045 230.001781 
L 303.117976 222.442715 
L 306.357907 228.675629 
L 309.597838 234.510698 
L 312.837769 233.715007 
L 316.0777 225.360249 
L 319.317631 237.826079 
L 322.557562 243.661148 
L 325.797493 244.191608 
L 329.037424 223.105791 
L 332.277355 222.044869 
L 335.517286 225.227634 
L 338.757217 228.145169 
L 341.997148 234.643314 
L 345.237079 220.055641 
L 348.47701 225.89071 
L 351.716941 225.095019 
L 358.196803 239.019615 
L 361.436734 226.951632 
L 364.676665 231.460549 
L 367.916596 229.338705 
L 371.156527 223.636252 
L 374.396457 221.912254 
L 377.636388 206.661505 
L 380.876319 219.923026 
L 384.11625 237.295618 
L 387.356181 214.618418 
L 390.596112 220.188256 
L 393.836043 213.15965 
L 397.075974 214.485802 
L 400.315905 226.288556 
L 403.555836 241.804535 
L 406.795767 236.499926 
L 410.035698 234.775929 
L 413.275629 213.557496 
L 416.51556 221.779639 
L 419.755491 219.127335 
L 422.995422 218.596874 
L 426.235353 231.062703 
L 429.475284 226.15594 
L 432.715215 223.105791 
L 435.955146 225.492864 
L 439.195077 230.399627 
L 442.435008 238.62177 
L 445.674939 240.213152 
L 448.91487 236.102081 
L 452.154801 237.560848 
L 455.394732 223.105791 
L 458.634663 231.858394 
L 461.874594 211.700883 
L 465.114525 221.647024 
L 468.354456 218.862104 
L 471.594387 227.614708 
L 474.834318 231.593164 
L 478.074249 234.643314 
L 481.31418 221.647024 
L 484.554111 216.607646 
L 487.794042 215.016263 
L 491.033973 213.292266 
L 494.273904 204.937508 
L 497.513835 210.242116 
L 500.753766 234.378083 
L 503.993697 235.30639 
L 507.233628 242.600226 
L 510.473559 233.184546 
L 513.71349 229.736551 
L 516.953421 232.919316 
L 520.193351 225.095019 
L 523.433282 212.363959 
L 526.673213 200.295976 
L 529.913144 228.410399 
L 533.153075 221.912254 
L 536.393006 217.403337 
L 539.632937 226.421171 
L 542.872868 228.675629 
L 546.112799 211.833498 
L 549.35273 210.242116 
L 552.592661 197.908902 
L 555.832592 193.930446 
L 562.312454 213.822726 
L 565.552385 213.690111 
L 568.792316 216.607646 
L 572.032247 218.729489 
L 575.272178 218.994719 
L 578.512109 211.568268 
L 581.75204 213.557496 
L 584.991971 217.801183 
L 588.231902 214.353187 
L 591.471833 215.414109 
L 594.711764 215.679339 
L 597.951695 207.059351 
L 601.191626 226.819017 
L 604.431557 204.141816 
L 607.671488 223.901482 
L 610.911419 223.238406 
L 614.15135 229.20609 
L 617.391281 228.543014 
L 620.631212 197.378441 
L 623.871143 208.783349 
L 627.111074 203.080895 
L 630.351005 215.016263 
L 633.590936 180.403695 
L 636.830867 184.514766 
L 640.070798 187.299685 
L 643.310729 198.439363 
L 646.55066 192.339063 
L 649.790591 189.421529 
L 653.030522 200.428591 
L 656.270453 199.89813 
L 659.510384 186.503994 
L 662.750314 201.489512 
L 665.990245 217.801183 
L 669.230176 207.324581 
L 672.470107 197.245826 
L 675.710038 211.170422 
L 678.949969 205.733199 
L 678.949969 205.733199 
" clip-path="url(#p037d8ad1a6)" style="fill: none; stroke: #008000; stroke-width: 3; stroke-linecap: square"/>
   </g>
   <g id="line2d_16">
    <path d="M 141.121427 55.612787 
L 144.361358 42.483882 
L 147.601289 43.677418 
L 150.84122 62.376162 
L 154.081151 68.476462 
L 157.321082 65.824158 
L 160.561013 64.36539 
L 163.800944 69.272153 
L 170.280806 87.573051 
L 173.520737 105.343489 
L 176.760668 120.992083 
L 180.000599 110.117636 
L 183.24053 126.694537 
L 186.480461 134.253603 
L 189.720392 139.956057 
L 192.960323 135.712371 
L 196.200254 130.407762 
L 199.440185 139.690827 
L 202.680116 153.217578 
L 205.920047 153.615423 
L 209.159978 164.887716 
L 212.399909 160.113568 
L 215.63984 163.031103 
L 218.879771 176.823084 
L 222.119702 163.826794 
L 225.359633 166.081253 
L 228.599564 178.016621 
L 231.839494 179.873234 
L 235.079425 168.070481 
L 238.319356 179.210158 
L 241.559287 191.278142 
L 244.799218 209.57904 
L 248.039149 201.622128 
L 251.27908 206.131045 
L 254.519011 217.270722 
L 257.758942 219.923026 
L 260.998873 221.912254 
L 264.238804 226.421171 
L 267.478735 216.607646 
L 270.718666 202.683049 
L 273.958597 208.120273 
L 277.198528 206.131045 
L 280.438459 202.019973 
L 283.67839 208.518118 
L 286.918321 231.858394 
L 290.158252 231.725779 
L 293.398183 213.690111 
L 296.638114 211.966114 
L 299.878045 218.596874 
L 303.117976 231.327933 
L 306.357907 228.277784 
L 309.597838 213.955342 
L 312.837769 238.489155 
L 316.0777 233.715007 
L 319.317631 242.998072 
L 322.557562 232.654086 
L 325.797493 236.367311 
L 329.037424 232.654086 
L 332.277355 228.675629 
L 335.517286 231.327933 
L 338.757217 238.091309 
L 341.997148 239.152231 
L 345.237079 238.356539 
L 348.47701 231.062703 
L 351.716941 231.327933 
L 354.956872 240.743613 
L 358.196803 242.865456 
L 361.436734 244.058993 
L 364.676665 245.782991 
L 367.916596 235.969466 
L 371.156527 242.20238 
L 374.396457 232.654086 
L 377.636388 237.693463 
L 380.876319 234.643314 
L 384.11625 226.15594 
L 387.356181 233.317162 
L 390.596112 245.385145 
L 393.836043 237.958694 
L 397.075974 235.57162 
L 400.315905 233.715007 
L 403.555836 242.069765 
L 406.795767 251.750675 
L 410.035698 238.754385 
L 416.51556 253.342058 
L 419.755491 244.324224 
L 422.995422 243.395917 
L 426.235353 244.324224 
L 429.475284 256.524822 
L 432.715215 251.88329 
L 435.955146 250.557138 
L 439.195077 243.263302 
L 442.435008 257.453129 
L 445.674939 263.288198 
L 448.91487 262.757737 
L 452.154801 261.166355 
L 455.394732 264.083889 
L 458.634663 266.338348 
L 461.874594 261.829431 
L 465.114525 243.395917 
L 468.354456 259.574972 
L 471.594387 258.646666 
L 474.834318 259.840203 
L 478.074249 280.793405 
L 481.31418 260.901124 
L 484.554111 261.033739 
L 487.794042 267.531884 
L 491.033973 268.592806 
L 494.273904 255.994362 
L 497.513835 265.012196 
L 500.753766 262.227276 
L 503.993697 251.485445 
L 507.233628 250.159293 
L 510.473559 246.313452 
L 513.71349 253.739903 
L 516.953421 262.492507 
L 520.193351 257.718359 
L 523.433282 259.840203 
L 526.673213 258.779281 
L 529.913144 257.98359 
L 533.153075 249.098371 
L 536.393006 257.055283 
L 539.632937 248.037449 
L 542.872868 263.553428 
L 546.112799 252.281136 
L 549.35273 260.635894 
L 552.592661 263.818659 
L 555.832592 256.657438 
L 559.072523 268.327576 
L 562.312454 272.040801 
L 565.552385 269.653728 
L 572.032247 264.083889 
L 575.272178 266.736193 
L 578.512109 269.653728 
L 581.75204 260.503279 
L 584.991971 263.951274 
L 588.231902 259.840203 
L 591.471833 260.768509 
L 594.711764 263.420813 
L 597.951695 260.370663 
L 601.191626 271.642956 
L 604.431557 278.936792 
L 607.671488 271.112495 
L 610.911419 268.858036 
L 614.15135 274.693106 
L 617.391281 268.460191 
L 620.631212 268.062345 
L 623.871143 265.940502 
L 627.111074 274.693106 
L 630.351005 274.958336 
L 633.590936 280.262944 
L 636.830867 281.589096 
L 640.070798 269.653728 
L 643.310729 279.467253 
L 646.55066 283.97617 
L 649.790591 286.628474 
L 653.030522 281.191251 
L 656.270453 286.893704 
L 659.510384 284.108785 
L 662.750314 290.3417 
L 665.990245 286.098013 
L 669.230176 280.130329 
L 672.470107 273.632184 
L 675.710038 293.65708 
L 678.949969 279.202022 
L 678.949969 279.202022 
" clip-path="url(#p037d8ad1a6)" style="fill: none; stroke: #ff0000; stroke-width: 3; stroke-linecap: square"/>
   </g>
   <g id="line2d_17">
    <path d="M 141.121427 42.616497 
L 144.361358 54.817096 
L 147.601289 67.680771 
L 150.84122 67.548155 
L 154.081151 78.422602 
L 157.321082 96.7235 
L 160.561013 90.888431 
L 163.800944 105.741334 
L 167.040875 108.658869 
L 170.280806 124.174848 
L 173.520737 127.224998 
L 176.760668 129.214226 
L 180.000599 134.518834 
L 183.24053 121.655159 
L 186.480461 147.117278 
L 189.720392 130.009917 
L 192.960323 132.529606 
L 196.200254 111.311173 
L 199.440185 134.386219 
L 202.680116 129.214226 
L 205.920047 133.457912 
L 209.159978 135.18191 
L 212.399909 139.956057 
L 215.63984 134.120988 
L 218.879771 128.55115 
L 222.119702 127.622843 
L 225.359633 135.44714 
L 228.599564 139.292981 
L 231.839494 135.977601 
L 235.079425 129.877302 
L 238.319356 135.18191 
L 241.559287 141.414824 
L 244.799218 140.486518 
L 248.039149 140.884364 
L 251.27908 131.336069 
L 254.519011 146.454202 
L 257.758942 146.321587 
L 260.998873 158.389571 
L 264.238804 143.536668 
L 267.478735 141.016979 
L 270.718666 128.55115 
L 273.958597 142.475746 
L 277.198528 146.056357 
L 280.438459 157.593879 
L 283.67839 149.239122 
L 286.918321 157.991725 
L 290.158252 167.142174 
L 293.398183 148.708661 
L 296.638114 155.339421 
L 299.878045 148.045585 
L 303.117976 149.239122 
L 306.357907 143.138822 
L 309.597838 150.830504 
L 312.837769 156.400343 
L 316.0777 167.672635 
L 319.317631 168.203096 
L 322.557562 167.142174 
L 325.797493 169.529248 
L 329.037424 167.54002 
L 332.277355 174.303395 
L 335.517286 166.744329 
L 338.757217 182.260308 
L 341.997148 178.149236 
L 345.237079 166.611713 
L 348.47701 168.866172 
L 351.716941 177.088315 
L 354.956872 176.160008 
L 358.196803 187.564916 
L 361.436734 167.274789 
L 364.676665 174.966471 
L 367.916596 177.088315 
L 371.156527 183.055999 
L 374.396457 177.48616 
L 377.636388 164.48987 
L 380.876319 161.572336 
L 384.11625 173.772935 
L 387.356181 171.385861 
L 390.596112 158.654801 
L 393.836043 163.296333 
L 397.075974 170.059709 
L 400.315905 178.281851 
L 403.555836 181.332001 
L 406.795767 171.12063 
L 410.035698 158.654801 
L 413.275629 156.267727 
L 416.51556 155.869882 
L 419.755491 158.256956 
L 422.995422 163.163718 
L 426.235353 161.307105 
L 429.475284 160.90926 
L 432.715215 160.776644 
L 435.955146 175.099087 
L 439.195077 183.719075 
L 442.435008 167.274789 
L 445.674939 177.22093 
L 448.91487 180.934156 
L 452.154801 169.396633 
L 455.394732 170.457554 
L 458.634663 169.396633 
L 461.874594 170.988015 
L 465.114525 185.973533 
L 468.354456 180.005849 
L 471.594387 176.823084 
L 474.834318 182.525538 
L 478.074249 166.346483 
L 481.31418 168.468326 
L 484.554111 180.138464 
L 487.794042 176.557854 
L 491.033973 165.020331 
L 494.273904 176.557854 
L 497.513835 176.557854 
L 500.753766 185.045227 
L 503.993697 176.027393 
L 507.233628 180.403695 
L 510.473559 175.364317 
L 513.71349 174.17078 
L 516.953421 178.679697 
L 520.193351 172.048937 
L 523.433282 175.231702 
L 526.673213 175.496932 
L 529.913144 188.891068 
L 533.153075 167.407405 
L 536.393006 176.292623 
L 539.632937 177.353545 
L 542.872868 184.382151 
L 546.112799 178.547082 
L 549.35273 187.432301 
L 552.592661 186.106149 
L 555.832592 175.099087 
L 559.072523 175.496932 
L 562.312454 185.840918 
L 565.552385 160.511414 
L 568.792316 171.385861 
L 572.032247 178.679697 
L 575.272178 167.009559 
L 578.512109 180.403695 
L 581.75204 171.12063 
L 584.991971 165.683407 
L 588.231902 180.27108 
L 591.471833 174.833856 
L 594.711764 185.045227 
L 597.951695 173.640319 
L 601.191626 190.48245 
L 604.431557 183.188614 
L 607.671488 178.149236 
L 610.911419 176.955699 
L 614.15135 163.163718 
L 617.391281 172.977243 
L 620.631212 179.740619 
L 623.871143 159.450492 
L 627.111074 160.113568 
L 630.351005 168.733557 
L 633.590936 162.765872 
L 636.830867 159.980953 
L 640.070798 158.920032 
L 643.310729 155.472036 
L 646.55066 170.8554 
L 649.790591 180.403695 
L 653.030522 173.507704 
L 656.270453 183.188614 
L 659.510384 181.464616 
L 662.750314 176.955699 
L 665.990245 174.038165 
L 669.230176 175.231702 
L 672.470107 186.503994 
L 675.710038 173.507704 
L 678.949969 186.106149 
L 678.949969 186.106149 
" clip-path="url(#p037d8ad1a6)" style="fill: none; stroke: #ffa500; stroke-width: 3; stroke-linecap: square"/>
   </g>
   <g id="patch_3">
    <path d="M 114.23 343.96 
L 114.23 10.8 
" style="fill: none; stroke: #000000; stroke-width: 0.8; stroke-linejoin: miter; stroke-linecap: square"/>
   </g>
   <g id="patch_4">
    <path d="M 705.841396 343.96 
L 705.841396 10.8 
" style="fill: none; stroke: #000000; stroke-width: 0.8; stroke-linejoin: miter; stroke-linecap: square"/>
   </g>
   <g id="patch_5">
    <path d="M 114.23 343.96 
L 705.841396 343.96 
" style="fill: none; stroke: #000000; stroke-width: 0.8; stroke-linejoin: miter; stroke-linecap: square"/>
   </g>
   <g id="patch_6">
    <path d="M 114.23 10.8 
L 705.841396 10.8 
" style="fill: none; stroke: #000000; stroke-width: 0.8; stroke-linejoin: miter; stroke-linecap: square"/>
   </g>
  </g>
 </g>
 <defs>
  <clipPath id="p037d8ad1a6">
   <rect x="114.23" y="10.8" width="591.611396" height="333.16"/>
  </clipPath>
 </defs>
</svg>
