<?xml version="1.0" encoding="utf-8" standalone="no"?>
<!DOCTYPE svg PUBLIC "-//W3C//DTD SVG 1.1//EN"
  "http://www.w3.org/Graphics/SVG/1.1/DTD/svg11.dtd">
<svg xmlns:xlink="http://www.w3.org/1999/xlink" width="720pt" height="432pt" viewBox="0 0 720 432" xmlns="http://www.w3.org/2000/svg" version="1.1">
 <metadata>
  <rdf:RDF xmlns:dc="http://purl.org/dc/elements/1.1/" xmlns:cc="http://creativecommons.org/ns#" xmlns:rdf="http://www.w3.org/1999/02/22-rdf-syntax-ns#">
   <cc:Work>
    <dc:type rdf:resource="http://purl.org/dc/dcmitype/StillImage"/>
    <dc:date>2025-06-20T06:23:55.841100</dc:date>
    <dc:format>image/svg+xml</dc:format>
    <dc:creator>
     <cc:Agent>
      <dc:title>Matplotlib v3.7.1, https://matplotlib.org/</dc:title>
     </cc:Agent>
    </dc:creator>
   </cc:Work>
  </rdf:RDF>
 </metadata>
 <defs>
  <style type="text/css">*{stroke-linejoin: round; stroke-linecap: butt}</style>
 </defs>
 <g id="figure_1">
  <g id="patch_1">
   <path d="M 0 432 
L 720 432 
L 720 0 
L 0 0 
z
" style="fill: #ffffff"/>
  </g>
  <g id="axes_1">
   <g id="patch_2">
    <path d="M 114.23 343.96 
L 705.841396 343.96 
L 705.841396 10.8 
L 114.23 10.8 
z
" style="fill: #ffffff"/>
   </g>
   <g id="PolyCollection_1">
    <defs>
     <path id="m7889fda8b8" d="M 141.121427 -246.090054 
L 141.121427 -228.65195 
L 144.361358 -211.178757 
L 147.601289 -186.182409 
L 150.84122 -158.234543 
L 154.081151 -175.131165 
L 157.321082 -176.291584 
L 160.561013 -165.888202 
L 163.800944 -169.995953 
L 167.040875 -163.668483 
L 170.280806 -143.709598 
L 173.520737 -134.027343 
L 176.760668 -146.074071 
L 180.000599 -143.222348 
L 183.24053 -144.19851 
L 186.480461 -131.548653 
L 189.720392 -133.666315 
L 192.960323 -132.282748 
L 196.200254 -118.702749 
L 199.440185 -120.466435 
L 202.680116 -120.344538 
L 205.920047 -119.167989 
L 209.159978 -107.787605 
L 212.399909 -103.183636 
L 215.63984 -118.632856 
L 218.879771 -123.287533 
L 222.119702 -125.473757 
L 225.359633 -115.00139 
L 228.599564 -114.743813 
L 231.839494 -111.298801 
L 235.079425 -111.840467 
L 238.319356 -117.634413 
L 241.559287 -119.541098 
L 244.799218 -126.717344 
L 248.039149 -126.907593 
L 251.27908 -117.034087 
L 254.519011 -127.960672 
L 257.758942 -128.723289 
L 260.998873 -129.700651 
L 264.238804 -138.140619 
L 267.478735 -132.450649 
L 270.718666 -136.942536 
L 273.958597 -122.412981 
L 277.198528 -129.673102 
L 280.438459 -124.61268 
L 283.67839 -119.719887 
L 286.918321 -127.978546 
L 290.158252 -116.757126 
L 293.398183 -118.848415 
L 296.638114 -123.962458 
L 299.878045 -121.288563 
L 303.117976 -121.06891 
L 306.357907 -115.677635 
L 309.597838 -103.337743 
L 312.837769 -110.884844 
L 316.0777 -125.174554 
L 319.317631 -123.735981 
L 322.557562 -126.015128 
L 325.797493 -131.244735 
L 329.037424 -131.827241 
L 332.277355 -125.421959 
L 335.517286 -131.36557 
L 338.757217 -134.928715 
L 341.997148 -130.759135 
L 345.237079 -153.338375 
L 348.47701 -150.591682 
L 351.716941 -145.674614 
L 354.956872 -126.493893 
L 358.196803 -130.395806 
L 361.436734 -128.596768 
L 364.676665 -142.397093 
L 367.916596 -129.131951 
L 371.156527 -132.642812 
L 374.396457 -131.643576 
L 377.636388 -137.296067 
L 380.876319 -141.99681 
L 384.11625 -116.958502 
L 387.356181 -125.979535 
L 390.596112 -117.326392 
L 393.836043 -120.338512 
L 397.075974 -134.326597 
L 400.315905 -117.758435 
L 403.555836 -134.15134 
L 406.795767 -131.377394 
L 410.035698 -143.037427 
L 413.275629 -129.219115 
L 416.51556 -127.078976 
L 419.755491 -135.443829 
L 422.995422 -112.279891 
L 426.235353 -134.662666 
L 429.475284 -133.680566 
L 432.715215 -122.605031 
L 435.955146 -132.07915 
L 439.195077 -130.90129 
L 442.435008 -123.941319 
L 445.674939 -135.69724 
L 448.91487 -134.319694 
L 452.154801 -128.458123 
L 455.394732 -132.136352 
L 458.634663 -138.18375 
L 461.874594 -138.35209 
L 465.114525 -116.182597 
L 468.354456 -142.401837 
L 471.594387 -134.124296 
L 474.834318 -129.744709 
L 478.074249 -122.444889 
L 481.31418 -150.645556 
L 484.554111 -144.372578 
L 487.794042 -127.687211 
L 491.033973 -144.571309 
L 494.273904 -128.846472 
L 497.513835 -139.388752 
L 500.753766 -139.479882 
L 503.993697 -137.877397 
L 507.233628 -145.574444 
L 510.473559 -134.741536 
L 513.71349 -132.0757 
L 516.953421 -140.466782 
L 520.193351 -131.630652 
L 523.433282 -136.753686 
L 526.673213 -129.039855 
L 529.913144 -141.350485 
L 533.153075 -120.109339 
L 536.393006 -130.814067 
L 539.632937 -140.25058 
L 542.872868 -151.297256 
L 546.112799 -136.00877 
L 549.35273 -133.79397 
L 552.592661 -131.761563 
L 555.832592 -124.138778 
L 559.072523 -124.504231 
L 562.312454 -132.202064 
L 565.552385 -137.08747 
L 568.792316 -146.843271 
L 572.032247 -133.699848 
L 575.272178 -132.558178 
L 578.512109 -147.386226 
L 581.75204 -120.919788 
L 584.991971 -120.527525 
L 588.231902 -139.899604 
L 591.471833 -118.047419 
L 594.711764 -119.599087 
L 597.951695 -119.889159 
L 601.191626 -116.83064 
L 604.431557 -130.745229 
L 607.671488 -123.51048 
L 610.911419 -131.912718 
L 614.15135 -128.996891 
L 617.391281 -126.615118 
L 620.631212 -114.396169 
L 623.871143 -121.353277 
L 627.111074 -127.807873 
L 630.351005 -121.432733 
L 633.590936 -118.773039 
L 636.830867 -120.391605 
L 640.070798 -121.351187 
L 643.310729 -124.004216 
L 646.55066 -125.401022 
L 649.790591 -122.249845 
L 653.030522 -122.344776 
L 656.270453 -110.967693 
L 659.510384 -118.125571 
L 662.750314 -118.044822 
L 665.990245 -112.626365 
L 669.230176 -123.198918 
L 672.470107 -121.288563 
L 675.710038 -121.402812 
L 678.949969 -115.365012 
L 678.949969 -137.3179 
L 678.949969 -137.3179 
L 675.710038 -130.160003 
L 672.470107 -141.755239 
L 669.230176 -133.964378 
L 665.990245 -138.376402 
L 662.750314 -127.357464 
L 659.510384 -138.197653 
L 656.270453 -135.834713 
L 653.030522 -140.138978 
L 649.790591 -130.433067 
L 646.55066 -144.643383 
L 643.310729 -133.999153 
L 640.070798 -136.932206 
L 636.830867 -127.810922 
L 633.590936 -123.829006 
L 630.351005 -137.970757 
L 627.111074 -158.197904 
L 623.871143 -129.929514 
L 620.631212 -158.7285 
L 617.391281 -145.109431 
L 614.15135 -149.448236 
L 610.911419 -147.372481 
L 607.671488 -137.573154 
L 604.431557 -165.621438 
L 601.191626 -167.775016 
L 597.951695 -161.636232 
L 594.711764 -153.805607 
L 591.471833 -136.315637 
L 588.231902 -141.625788 
L 584.991971 -141.956229 
L 581.75204 -152.204882 
L 578.512109 -157.381164 
L 575.272178 -149.247237 
L 572.032247 -159.586555 
L 568.792316 -162.12448 
L 565.552385 -150.598451 
L 562.312454 -162.764483 
L 559.072523 -170.462316 
L 555.832592 -183.148828 
L 552.592661 -166.285249 
L 549.35273 -152.211807 
L 546.112799 -166.238403 
L 542.872868 -157.670495 
L 539.632937 -147.155317 
L 536.393006 -145.950916 
L 533.153075 -141.814367 
L 529.913144 -153.336038 
L 526.673213 -151.085416 
L 523.433282 -151.212259 
L 520.193351 -139.813873 
L 516.953421 -152.819621 
L 513.71349 -163.450895 
L 510.473559 -165.265445 
L 507.233628 -160.033018 
L 503.993697 -161.009487 
L 500.753766 -161.087147 
L 497.513835 -162.578397 
L 494.273904 -141.757981 
L 491.033973 -147.314973 
L 487.794042 -163.078975 
L 484.554111 -155.354378 
L 481.31418 -151.041569 
L 478.074249 -153.760045 
L 474.834318 -139.739647 
L 471.594387 -153.84165 
L 468.354456 -152.004662 
L 465.114525 -149.941471 
L 461.874594 -164.175108 
L 458.634663 -162.943327 
L 455.394732 -161.990123 
L 452.154801 -147.466787 
L 448.91487 -174.368033 
L 445.674939 -174.110583 
L 442.435008 -170.185156 
L 439.195077 -164.625305 
L 435.955146 -139.08535 
L 432.715215 -152.479807 
L 429.475284 -157.08562 
L 426.235353 -158.90376 
L 422.995422 -149.363791 
L 419.755491 -160.082766 
L 416.51556 -159.486849 
L 413.275629 -172.187986 
L 410.035698 -203.733574 
L 406.795767 -192.431633 
L 403.555836 -211.219541 
L 400.315905 -222.572012 
L 397.075974 -195.922984 
L 393.836043 -192.829601 
L 390.596112 -192.481432 
L 387.356181 -227.792068 
L 384.11625 -208.250646 
L 380.876319 -220.455539 
L 377.636388 -232.156884 
L 374.396457 -184.044753 
L 371.156527 -180.805325 
L 367.916596 -173.395246 
L 364.676665 -194.293042 
L 361.436734 -177.850766 
L 358.196803 -159.810332 
L 354.956872 -161.192028 
L 351.716941 -183.174846 
L 348.47701 -156.135876 
L 345.237079 -165.710243 
L 341.997148 -163.647364 
L 338.757217 -164.798241 
L 335.517286 -148.199653 
L 332.277355 -174.865045 
L 329.037424 -165.099475 
L 325.797493 -186.123739 
L 322.557562 -167.551299 
L 319.317631 -161.989771 
L 316.0777 -157.470934 
L 312.837769 -164.480018 
L 309.597838 -139.544326 
L 306.357907 -147.366167 
L 303.117976 -138.614603 
L 299.878045 -141.755239 
L 296.638114 -156.442837 
L 293.398183 -149.515845 
L 290.158252 -147.686797 
L 286.918321 -141.225786 
L 283.67839 -129.322712 
L 280.438459 -146.831845 
L 277.198528 -146.811856 
L 273.958597 -146.511327 
L 270.718666 -163.064445 
L 267.478735 -155.795321 
L 264.238804 -147.865158 
L 260.998873 -165.54592 
L 257.758942 -152.802103 
L 254.519011 -154.404792 
L 251.27908 -152.730293 
L 248.039149 -152.65763 
L 244.799218 -140.526819 
L 241.559287 -123.060946 
L 238.319356 -157.170401 
L 235.079425 -147.563023 
L 231.839494 -143.624303 
L 228.599564 -140.739339 
L 225.359633 -136.561425 
L 222.119702 -158.851875 
L 218.879771 -158.237858 
L 215.63984 -172.973402 
L 212.399909 -167.140792 
L 209.159978 -175.137907 
L 205.920047 -156.196872 
L 202.680116 -171.821768 
L 199.440185 -181.22069 
L 196.200254 -176.543822 
L 192.960323 -187.045894 
L 189.720392 -183.702159 
L 186.480461 -196.74076 
L 183.24053 -209.013045 
L 180.000599 -201.868509 
L 176.760668 -182.77539 
L 173.520737 -184.461226 
L 170.280806 -193.820609 
L 167.040875 -189.543072 
L 163.800944 -178.735217 
L 160.561013 -188.723474 
L 157.321082 -189.521055 
L 154.081151 -191.521546 
L 150.84122 -193.296867 
L 147.601289 -210.712902 
L 144.361358 -224.919924 
L 141.121427 -246.090054 
z
" style="stroke: #0000ff; stroke-opacity: 0.3"/>
    </defs>
    <g clip-path="url(#pfb2204dc81)">
     <use xlink:href="#m7889fda8b8" x="0" y="432" style="fill: #0000ff; fill-opacity: 0.3; stroke: #0000ff; stroke-opacity: 0.3"/>
    </g>
   </g>
   <g id="PolyCollection_2">
    <defs>
     <path id="md15ab5a4b1" d="M 141.121427 -378.674807 
L 141.121427 -372.450961 
L 144.361358 -367.846366 
L 147.601289 -367.495528 
L 150.84122 -336.089344 
L 154.081151 -330.797135 
L 157.321082 -314.019705 
L 160.561013 -323.250945 
L 163.800944 -309.952535 
L 167.040875 -302.824664 
L 170.280806 -308.653563 
L 173.520737 -306.327172 
L 176.760668 -302.223911 
L 180.000599 -280.469823 
L 183.24053 -272.774455 
L 186.480461 -255.959354 
L 189.720392 -242.556348 
L 192.960323 -226.65691 
L 196.200254 -220.511071 
L 199.440185 -193.362494 
L 202.680116 -185.319077 
L 205.920047 -197.73062 
L 209.159978 -205.240952 
L 212.399909 -188.211246 
L 215.63984 -185.836713 
L 218.879771 -196.772496 
L 222.119702 -182.60009 
L 225.359633 -204.152883 
L 228.599564 -202.109328 
L 231.839494 -231.265302 
L 235.079425 -230.478731 
L 238.319356 -241.136552 
L 241.559287 -254.825555 
L 244.799218 -248.421664 
L 248.039149 -235.134794 
L 251.27908 -237.05943 
L 254.519011 -216.47498 
L 257.758942 -233.05948 
L 260.998873 -237.085594 
L 264.238804 -211.098388 
L 267.478735 -185.492616 
L 270.718666 -204.558103 
L 273.958597 -193.487738 
L 277.198528 -202.004224 
L 280.438459 -193.231247 
L 283.67839 -214.444592 
L 286.918321 -202.10147 
L 290.158252 -202.42687 
L 293.398183 -209.996071 
L 296.638114 -203.1231 
L 299.878045 -204.576776 
L 303.117976 -199.739705 
L 306.357907 -203.231198 
L 309.597838 -201.620775 
L 312.837769 -169.511985 
L 316.0777 -171.249964 
L 319.317631 -171.866238 
L 322.557562 -178.866059 
L 325.797493 -193.99143 
L 329.037424 -197.062428 
L 332.277355 -198.022981 
L 335.517286 -190.248076 
L 338.757217 -200.117253 
L 341.997148 -218.403261 
L 345.237079 -196.662774 
L 348.47701 -200.561455 
L 351.716941 -189.891287 
L 354.956872 -187.409222 
L 358.196803 -193.272498 
L 361.436734 -204.429725 
L 364.676665 -190.136474 
L 367.916596 -178.670247 
L 371.156527 -184.391123 
L 374.396457 -210.200289 
L 377.636388 -229.117971 
L 380.876319 -226.619217 
L 384.11625 -223.264815 
L 387.356181 -208.156339 
L 390.596112 -207.33527 
L 393.836043 -211.790289 
L 397.075974 -202.113249 
L 400.315905 -222.97233 
L 403.555836 -205.972817 
L 406.795767 -199.948139 
L 410.035698 -214.644835 
L 413.275629 -196.088179 
L 416.51556 -205.738137 
L 419.755491 -226.4058 
L 422.995422 -188.599655 
L 426.235353 -203.558151 
L 429.475284 -169.985878 
L 432.715215 -183.487937 
L 435.955146 -175.095558 
L 439.195077 -194.355903 
L 442.435008 -203.979837 
L 445.674939 -190.140614 
L 448.91487 -214.122754 
L 452.154801 -219.628787 
L 455.394732 -207.396768 
L 458.634663 -194.592562 
L 461.874594 -193.800201 
L 465.114525 -207.699059 
L 468.354456 -188.618428 
L 471.594387 -197.896925 
L 474.834318 -197.954056 
L 478.074249 -189.010598 
L 481.31418 -216.998594 
L 484.554111 -180.790042 
L 487.794042 -202.461509 
L 491.033973 -209.964579 
L 494.273904 -197.4924 
L 497.513835 -203.788058 
L 500.753766 -210.612174 
L 503.993697 -209.214591 
L 507.233628 -188.516318 
L 510.473559 -181.048422 
L 513.71349 -179.757846 
L 516.953421 -187.265842 
L 520.193351 -196.03364 
L 523.433282 -206.84452 
L 526.673213 -177.64281 
L 529.913144 -187.891154 
L 533.153075 -176.524724 
L 536.393006 -207.860212 
L 539.632937 -221.089969 
L 542.872868 -186.763023 
L 546.112799 -182.695644 
L 549.35273 -201.300347 
L 552.592661 -155.915834 
L 555.832592 -182.313523 
L 559.072523 -192.485313 
L 562.312454 -196.029727 
L 565.552385 -181.57442 
L 568.792316 -164.801825 
L 572.032247 -175.123924 
L 575.272178 -186.781997 
L 578.512109 -175.713463 
L 581.75204 -206.67662 
L 584.991971 -186.802395 
L 588.231902 -171.985802 
L 591.471833 -198.743121 
L 594.711764 -181.146182 
L 597.951695 -182.829568 
L 601.191626 -164.590788 
L 604.431557 -158.479634 
L 607.671488 -186.928478 
L 610.911419 -179.646866 
L 614.15135 -178.953713 
L 617.391281 -182.463675 
L 620.631212 -177.050362 
L 623.871143 -200.419092 
L 627.111074 -167.89122 
L 630.351005 -200.638576 
L 633.590936 -178.355399 
L 636.830867 -183.974083 
L 640.070798 -164.929241 
L 643.310729 -162.4934 
L 646.55066 -176.254882 
L 649.790591 -200.837504 
L 653.030522 -186.125791 
L 656.270453 -206.609849 
L 659.510384 -172.927352 
L 662.750314 -185.439541 
L 665.990245 -176.740685 
L 669.230176 -188.464618 
L 672.470107 -182.423773 
L 675.710038 -185.17774 
L 678.949969 -187.463334 
L 678.949969 -223.713205 
L 678.949969 -223.713205 
L 675.710038 -231.59928 
L 672.470107 -245.834234 
L 669.230176 -222.431897 
L 665.990245 -230.515516 
L 662.750314 -224.616901 
L 659.510384 -241.8895 
L 656.270453 -233.969218 
L 653.030522 -234.85159 
L 649.790591 -247.582237 
L 646.55066 -215.88002 
L 643.310729 -229.081453 
L 640.070798 -230.285925 
L 636.830867 -228.602577 
L 633.590936 -243.182031 
L 630.351005 -257.582007 
L 627.111074 -226.483874 
L 623.871143 -249.120745 
L 620.631212 -252.88779 
L 617.391281 -237.113586 
L 614.15135 -240.343524 
L 610.911419 -266.252658 
L 607.671488 -251.130372 
L 604.431557 -246.256351 
L 601.191626 -256.386593 
L 597.951695 -275.110992 
L 594.711764 -239.551176 
L 591.471833 -253.316933 
L 588.231902 -264.952952 
L 584.991971 -270.858141 
L 581.75204 -267.225312 
L 578.512109 -242.183653 
L 575.272178 -233.355313 
L 572.032247 -228.21194 
L 568.792316 -221.452571 
L 565.552385 -244.723419 
L 562.312454 -253.230086 
L 559.072523 -251.734067 
L 555.832592 -235.023546 
L 552.592661 -214.37719 
L 549.35273 -241.238888 
L 546.112799 -234.921448 
L 542.872868 -242.895105 
L 539.632937 -248.331577 
L 536.393006 -243.639794 
L 533.153075 -239.972272 
L 529.913144 -253.527985 
L 526.673213 -243.334572 
L 523.433282 -242.415294 
L 520.193351 -254.626294 
L 516.953421 -255.833441 
L 513.71349 -226.098235 
L 510.473559 -216.406937 
L 507.233628 -246.182244 
L 503.993697 -228.844259 
L 500.753766 -226.046556 
L 497.513835 -246.031804 
L 494.273904 -250.367293 
L 491.033973 -274.298244 
L 487.794042 -289.361963 
L 484.554111 -236.827051 
L 481.31418 -269.224398 
L 478.074249 -272.010226 
L 474.834318 -240.664842 
L 471.594387 -271.524622 
L 468.354456 -258.401192 
L 465.114525 -263.122608 
L 461.874594 -256.859733 
L 458.634663 -218.264122 
L 455.394732 -220.861239 
L 452.154801 -233.551363 
L 448.91487 -245.49795 
L 445.674939 -235.037129 
L 442.435008 -275.802601 
L 439.195077 -273.665524 
L 435.955146 -290.405651 
L 432.715215 -301.614958 
L 429.475284 -314.556969 
L 426.235353 -291.345587 
L 422.995422 -278.021651 
L 419.755491 -270.73813 
L 416.51556 -243.521676 
L 413.275629 -266.052742 
L 410.035698 -252.816543 
L 406.795767 -243.991217 
L 403.555836 -264.008778 
L 400.315905 -273.331528 
L 397.075974 -309.871957 
L 393.836043 -269.392269 
L 390.596112 -317.811068 
L 387.356181 -292.907928 
L 384.11625 -271.358899 
L 380.876319 -316.728685 
L 377.636388 -272.506344 
L 374.396457 -282.743281 
L 371.156527 -270.189148 
L 367.916596 -259.948652 
L 364.676665 -280.685193 
L 361.436734 -266.671966 
L 358.196803 -285.949892 
L 354.956872 -266.611001 
L 351.716941 -271.409561 
L 348.47701 -302.743004 
L 345.237079 -237.195715 
L 341.997148 -229.736455 
L 338.757217 -261.46362 
L 335.517286 -278.053375 
L 332.277355 -291.000251 
L 329.037424 -285.240226 
L 325.797493 -289.711344 
L 322.557562 -279.354524 
L 319.317631 -272.353142 
L 316.0777 -278.849921 
L 312.837769 -270.787058 
L 309.597838 -291.042771 
L 306.357907 -265.070253 
L 303.117976 -237.759097 
L 299.878045 -267.645012 
L 296.638114 -273.579072 
L 293.398183 -268.946294 
L 290.158252 -293.596964 
L 286.918321 -264.519836 
L 283.67839 -268.978158 
L 280.438459 -253.228325 
L 277.198528 -258.736576 
L 273.958597 -261.092533 
L 270.718666 -244.141663 
L 267.478735 -244.165512 
L 264.238804 -251.322557 
L 260.998873 -262.578553 
L 257.758942 -266.324643 
L 254.519011 -256.026832 
L 251.27908 -279.96621 
L 248.039149 -269.569786 
L 244.799218 -267.48388 
L 241.559287 -270.320783 
L 238.319356 -291.570436 
L 235.079425 -263.304911 
L 231.839494 -261.958291 
L 228.599564 -274.592845 
L 225.359633 -311.472636 
L 222.119702 -300.82266 
L 218.879771 -287.210302 
L 215.63984 -305.146688 
L 212.399909 -280.370228 
L 209.159978 -279.301894 
L 205.920047 -282.051817 
L 202.680116 -288.862879 
L 199.440185 -281.939558 
L 196.200254 -285.59363 
L 192.960323 -311.65056 
L 189.720392 -298.551362 
L 186.480461 -290.18879 
L 183.24053 -314.817252 
L 180.000599 -322.243184 
L 176.760668 -318.690661 
L 173.520737 -326.628435 
L 170.280806 -331.302647 
L 167.040875 -340.21181 
L 163.800944 -344.284902 
L 160.561013 -370.189863 
L 157.321082 -378.020982 
L 154.081151 -356.483143 
L 150.84122 -373.872884 
L 147.601289 -376.629637 
L 144.361358 -388.879883 
L 141.121427 -378.674807 
z
" style="stroke: #008000; stroke-opacity: 0.3"/>
    </defs>
    <g clip-path="url(#pfb2204dc81)">
     <use xlink:href="#md15ab5a4b1" x="0" y="432" style="fill: #008000; fill-opacity: 0.3; stroke: #008000; stroke-opacity: 0.3"/>
    </g>
   </g>
   <g id="PolyCollection_3">
    <defs>
     <path id="m0a307f5226" d="M 141.121427 -396.785893 
L 141.121427 -376.181753 
L 144.361358 -359.118907 
L 147.601289 -363.158336 
L 150.84122 -364.441005 
L 154.081151 -374.471932 
L 157.321082 -359.633379 
L 160.561013 -362.994209 
L 163.800944 -360.242084 
L 167.040875 -357.030253 
L 170.280806 -352.065352 
L 173.520737 -345.745182 
L 176.760668 -319.420471 
L 180.000599 -340.989255 
L 183.24053 -314.779764 
L 186.480461 -322.382512 
L 189.720392 -313.01297 
L 192.960323 -295.411579 
L 196.200254 -305.407885 
L 199.440185 -297.142152 
L 202.680116 -306.26379 
L 205.920047 -307.421124 
L 209.159978 -285.955649 
L 212.399909 -265.045056 
L 215.63984 -295.36112 
L 218.879771 -277.897774 
L 222.119702 -279.161829 
L 225.359633 -273.12324 
L 228.599564 -280.350344 
L 231.839494 -259.112823 
L 235.079425 -243.751973 
L 238.319356 -254.42162 
L 241.559287 -262.603955 
L 244.799218 -252.752935 
L 248.039149 -234.647465 
L 251.27908 -259.9948 
L 254.519011 -230.657555 
L 257.758942 -233.432023 
L 260.998873 -225.758849 
L 264.238804 -227.88761 
L 267.478735 -243.573798 
L 270.718666 -226.628926 
L 273.958597 -225.865097 
L 277.198528 -236.092477 
L 280.438459 -221.150714 
L 283.67839 -221.252356 
L 286.918321 -203.507346 
L 290.158252 -211.346049 
L 293.398183 -210.738039 
L 296.638114 -220.52534 
L 299.878045 -202.704772 
L 303.117976 -200.138733 
L 306.357907 -199.749117 
L 309.597838 -195.064662 
L 312.837769 -203.0009 
L 316.0777 -192.195126 
L 319.317631 -187.35694 
L 322.557562 -197.336412 
L 325.797493 -190.911935 
L 329.037424 -204.21264 
L 332.277355 -202.667475 
L 335.517286 -198.036928 
L 338.757217 -195.635749 
L 341.997148 -214.841886 
L 345.237079 -204.606038 
L 348.47701 -198.980167 
L 351.716941 -187.297384 
L 354.956872 -203.450356 
L 358.196803 -186.747178 
L 361.436734 -184.844166 
L 364.676665 -197.40089 
L 367.916596 -193.3238 
L 371.156527 -202.334807 
L 374.396457 -204.019836 
L 377.636388 -198.337522 
L 380.876319 -185.974311 
L 384.11625 -195.236694 
L 387.356181 -189.438949 
L 390.596112 -212.243369 
L 393.836043 -203.801616 
L 397.075974 -197.922214 
L 400.315905 -213.579765 
L 403.555836 -210.449042 
L 406.795767 -205.432003 
L 410.035698 -212.494712 
L 413.275629 -203.987574 
L 416.51556 -217.166154 
L 419.755491 -195.675791 
L 422.995422 -210.662055 
L 426.235353 -211.814488 
L 429.475284 -222.161085 
L 432.715215 -202.338563 
L 435.955146 -196.744466 
L 439.195077 -210.982086 
L 442.435008 -196.703942 
L 445.674939 -186.624313 
L 448.91487 -189.215136 
L 452.154801 -192.981962 
L 455.394732 -180.139312 
L 458.634663 -194.202278 
L 461.874594 -193.93407 
L 465.114525 -185.387664 
L 468.354456 -184.035225 
L 471.594387 -195.988555 
L 474.834318 -200.151356 
L 478.074249 -208.090381 
L 481.31418 -203.703696 
L 484.554111 -190.032935 
L 487.794042 -174.358991 
L 491.033973 -186.519147 
L 494.273904 -188.847941 
L 497.513835 -208.674553 
L 500.753766 -190.789678 
L 503.993697 -200.510292 
L 507.233628 -215.762241 
L 510.473559 -213.230927 
L 513.71349 -198.693923 
L 516.953421 -194.457981 
L 520.193351 -199.343714 
L 523.433282 -206.727163 
L 526.673213 -205.334289 
L 529.913144 -198.868506 
L 533.153075 -195.287529 
L 536.393006 -212.119083 
L 539.632937 -191.474181 
L 542.872868 -200.717586 
L 546.112799 -186.806991 
L 549.35273 -197.304929 
L 552.592661 -189.885332 
L 555.832592 -173.591859 
L 559.072523 -196.667859 
L 562.312454 -177.797978 
L 565.552385 -188.153369 
L 568.792316 -187.159151 
L 572.032247 -187.178663 
L 575.272178 -195.340481 
L 578.512109 -201.455109 
L 581.75204 -185.498601 
L 584.991971 -190.140529 
L 588.231902 -210.304301 
L 591.471833 -207.191701 
L 594.711764 -191.041917 
L 597.951695 -201.829759 
L 601.191626 -204.510001 
L 604.431557 -204.208948 
L 607.671488 -173.011322 
L 610.911419 -187.626797 
L 614.15135 -200.980187 
L 617.391281 -188.726833 
L 620.631212 -190.916687 
L 623.871143 -194.226301 
L 627.111074 -199.828454 
L 630.351005 -187.969754 
L 633.590936 -195.853182 
L 636.830867 -171.424729 
L 640.070798 -181.915888 
L 643.310729 -194.932553 
L 646.55066 -189.219993 
L 649.790591 -190.38649 
L 653.030522 -168.460445 
L 656.270453 -199.77637 
L 659.510384 -195.577588 
L 662.750314 -188.713109 
L 665.990245 -192.220473 
L 669.230176 -198.864277 
L 672.470107 -200.581593 
L 675.710038 -192.901714 
L 678.949969 -177.098747 
L 678.949969 -218.956492 
L 678.949969 -218.956492 
L 675.710038 -225.555451 
L 672.470107 -223.196029 
L 669.230176 -221.83308 
L 665.990245 -228.756909 
L 662.750314 -219.103141 
L 659.510384 -222.879577 
L 656.270453 -224.281277 
L 653.030522 -208.273133 
L 649.790591 -212.389327 
L 646.55066 -216.07604 
L 643.310729 -224.08466 
L 640.070798 -246.34212 
L 636.830867 -236.391521 
L 633.590936 -250.046342 
L 630.351005 -225.446978 
L 627.111074 -229.269626 
L 623.871143 -244.672621 
L 620.631212 -240.421586 
L 617.391281 -247.931897 
L 614.15135 -256.680348 
L 610.911419 -249.031933 
L 607.671488 -242.645602 
L 604.431557 -250.371323 
L 601.191626 -239.14933 
L 597.951695 -253.030536 
L 594.711764 -243.656645 
L 591.471833 -247.38857 
L 588.231902 -242.595825 
L 584.991971 -250.158514 
L 581.75204 -244.999599 
L 578.512109 -241.644174 
L 575.272178 -242.71837 
L 572.032247 -229.318333 
L 568.792316 -249.499579 
L 565.552385 -232.824012 
L 562.312454 -236.178801 
L 559.072523 -271.913616 
L 555.832592 -268.667353 
L 552.592661 -242.573036 
L 549.35273 -253.635028 
L 546.112799 -254.612148 
L 542.872868 -239.581457 
L 539.632937 -239.864091 
L 536.393006 -222.01943 
L 533.153075 -258.452669 
L 529.913144 -247.031019 
L 526.673213 -248.965958 
L 523.433282 -229.651542 
L 520.193351 -240.955329 
L 516.953421 -260.402313 
L 513.71349 -262.606926 
L 510.473559 -262.631174 
L 507.233628 -261.780004 
L 503.993697 -269.471303 
L 500.753766 -250.909485 
L 497.513835 -270.547836 
L 494.273904 -267.692498 
L 491.033973 -271.421413 
L 487.794042 -251.658824 
L 484.554111 -265.667432 
L 481.31418 -253.676815 
L 478.074249 -248.170034 
L 474.834318 -261.70954 
L 471.594387 -274.833112 
L 468.354456 -268.584877 
L 465.114525 -261.071909 
L 461.874594 -270.727067 
L 458.634663 -258.697848 
L 455.394732 -251.478984 
L 452.154801 -249.277249 
L 448.91487 -250.803883 
L 445.674939 -233.232972 
L 442.435008 -252.275847 
L 439.195077 -247.518522 
L 435.955146 -243.554576 
L 432.715215 -243.000913 
L 429.475284 -268.262268 
L 426.235353 -265.167709 
L 422.995422 -281.161418 
L 419.755491 -250.223733 
L 416.51556 -250.855273 
L 413.275629 -237.711589 
L 410.035698 -257.766907 
L 406.795767 -233.186895 
L 403.555836 -254.49212 
L 400.315905 -255.281734 
L 397.075974 -244.336997 
L 393.836043 -255.25904 
L 390.596112 -256.61813 
L 387.356181 -239.379106 
L 384.11625 -260.463673 
L 380.876319 -245.083938 
L 377.636388 -236.361039 
L 374.396457 -240.759592 
L 371.156527 -240.764477 
L 367.916596 -245.575122 
L 364.676665 -222.456395 
L 361.436734 -249.854395 
L 358.196803 -235.910348 
L 354.956872 -246.089481 
L 351.716941 -239.840527 
L 348.47701 -217.51683 
L 345.237079 -250.254257 
L 341.997148 -254.579661 
L 338.757217 -259.50457 
L 335.517286 -246.462476 
L 332.277355 -232.871158 
L 329.037424 -238.606619 
L 325.797493 -240.426337 
L 322.557562 -246.042895 
L 319.317631 -238.100826 
L 316.0777 -266.86553 
L 312.837769 -273.421249 
L 309.597838 -278.83727 
L 306.357907 -269.392405 
L 303.117976 -284.404114 
L 299.878045 -285.198363 
L 296.638114 -258.697049 
L 293.398183 -267.644278 
L 290.158252 -278.237231 
L 286.918321 -270.67461 
L 283.67839 -283.732248 
L 280.438459 -261.992012 
L 277.198528 -289.333884 
L 273.958597 -283.319869 
L 270.718666 -295.717171 
L 267.478735 -280.17242 
L 264.238804 -301.179065 
L 260.998873 -303.307825 
L 257.758942 -297.594821 
L 254.519011 -291.128494 
L 251.27908 -313.315679 
L 248.039149 -305.620173 
L 244.799218 -299.275714 
L 241.559287 -299.505561 
L 238.319356 -299.567198 
L 235.079425 -311.916989 
L 231.839494 -342.480087 
L 228.599564 -338.884084 
L 225.359633 -323.709262 
L 222.119702 -319.910865 
L 218.879771 -312.21415 
L 215.63984 -331.994006 
L 212.399909 -326.747012 
L 209.159978 -327.678297 
L 205.920047 -326.934603 
L 202.680116 -334.812516 
L 199.440185 -315.371698 
L 196.200254 -316.346759 
L 192.960323 -338.3841 
L 189.720392 -336.744081 
L 186.480461 -353.136755 
L 183.24053 -338.897625 
L 180.000599 -349.371288 
L 176.760668 -343.777737 
L 173.520737 -386.058924 
L 170.280806 -386.459332 
L 167.040875 -392.41537 
L 163.800944 -394.243972 
L 160.561013 -388.971631 
L 157.321082 -381.131497 
L 154.081151 -406.056364 
L 150.84122 -390.885124 
L 147.601289 -391.887769 
L 144.361358 -386.126355 
L 141.121427 -396.785893 
z
" style="stroke: #ff0000; stroke-opacity: 0.3"/>
    </defs>
    <g clip-path="url(#pfb2204dc81)">
     <use xlink:href="#m0a307f5226" x="0" y="432" style="fill: #ff0000; fill-opacity: 0.3; stroke: #ff0000; stroke-opacity: 0.3"/>
    </g>
   </g>
   <g id="PolyCollection_4">
    <defs>
     <path id="ma0ab259512" d="M 141.121427 -391.328531 
L 141.121427 -375.198561 
L 144.361358 -358.064423 
L 147.601289 -368.065241 
L 150.84122 -334.384878 
L 154.081151 -341.418635 
L 157.321082 -314.912115 
L 160.561013 -312.482159 
L 163.800944 -295.48692 
L 167.040875 -283.097456 
L 170.280806 -280.916393 
L 173.520737 -291.901205 
L 176.760668 -294.60266 
L 180.000599 -298.87528 
L 183.24053 -272.463941 
L 186.480461 -268.934721 
L 189.720392 -274.383933 
L 192.960323 -247.816184 
L 196.200254 -252.827955 
L 199.440185 -246.716491 
L 202.680116 -249.143825 
L 205.920047 -238.433817 
L 209.159978 -232.217196 
L 212.399909 -240.17198 
L 215.63984 -230.677308 
L 218.879771 -254.799861 
L 222.119702 -235.327412 
L 225.359633 -242.665054 
L 228.599564 -268.906119 
L 231.839494 -272.946733 
L 235.079425 -269.946086 
L 238.319356 -268.462671 
L 241.559287 -276.626273 
L 244.799218 -284.053975 
L 248.039149 -268.996713 
L 251.27908 -257.679013 
L 254.519011 -274.734396 
L 257.758942 -266.812594 
L 260.998873 -277.889311 
L 264.238804 -254.498539 
L 267.478735 -261.167664 
L 270.718666 -271.52289 
L 273.958597 -275.397158 
L 277.198528 -256.132201 
L 280.438459 -261.697765 
L 283.67839 -271.659494 
L 286.918321 -261.36542 
L 290.158252 -243.921215 
L 293.398183 -261.443617 
L 296.638114 -262.661344 
L 299.878045 -263.702118 
L 303.117976 -266.297098 
L 306.357907 -279.983774 
L 309.597838 -255.20638 
L 312.837769 -249.971575 
L 316.0777 -238.493386 
L 319.317631 -252.012231 
L 322.557562 -248.760929 
L 325.797493 -239.768787 
L 329.037424 -263.27766 
L 332.277355 -236.011803 
L 335.517286 -250.504643 
L 338.757217 -253.048791 
L 341.997148 -271.218235 
L 345.237079 -251.15891 
L 348.47701 -241.19949 
L 351.716941 -231.880174 
L 354.956872 -223.847567 
L 358.196803 -239.750576 
L 361.436734 -252.053996 
L 364.676665 -239.042397 
L 367.916596 -233.567023 
L 371.156527 -240.324985 
L 374.396457 -248.828662 
L 377.636388 -247.29542 
L 380.876319 -230.189139 
L 384.11625 -255.211128 
L 387.356181 -252.119961 
L 390.596112 -257.15457 
L 393.836043 -254.331022 
L 397.075974 -244.659769 
L 400.315905 -271.696967 
L 403.555836 -264.690543 
L 406.795767 -258.463863 
L 410.035698 -257.542271 
L 413.275629 -275.167307 
L 416.51556 -277.028019 
L 419.755491 -255.866745 
L 422.995422 -275.966894 
L 426.235353 -264.061495 
L 429.475284 -267.723255 
L 432.715215 -263.380978 
L 435.955146 -258.807054 
L 439.195077 -253.784774 
L 442.435008 -249.567491 
L 445.674939 -262.109796 
L 448.91487 -265.073398 
L 452.154801 -262.536427 
L 455.394732 -268.471185 
L 458.634663 -246.93836 
L 461.874594 -235.537849 
L 465.114525 -263.718178 
L 468.354456 -240.974036 
L 471.594387 -265.380952 
L 474.834318 -251.191419 
L 478.074249 -250.786637 
L 481.31418 -243.715405 
L 484.554111 -247.726964 
L 487.794042 -261.924448 
L 491.033973 -242.315323 
L 494.273904 -252.314643 
L 497.513835 -259.980922 
L 500.753766 -237.222669 
L 503.993697 -245.19966 
L 507.233628 -245.78134 
L 510.473559 -228.539329 
L 513.71349 -244.239378 
L 516.953421 -239.353746 
L 520.193351 -236.436542 
L 523.433282 -221.587185 
L 526.673213 -238.384305 
L 529.913144 -235.727288 
L 533.153075 -267.492342 
L 536.393006 -237.012246 
L 539.632937 -246.167744 
L 542.872868 -263.936198 
L 546.112799 -258.308962 
L 549.35273 -281.309053 
L 552.592661 -264.869941 
L 555.832592 -265.923852 
L 559.072523 -250.545266 
L 562.312454 -264.571489 
L 565.552385 -265.390534 
L 568.792316 -252.087009 
L 572.032247 -254.988417 
L 575.272178 -262.093425 
L 578.512109 -276.424909 
L 581.75204 -261.158235 
L 584.991971 -263.007472 
L 588.231902 -266.1181 
L 591.471833 -256.954752 
L 594.711764 -270.569908 
L 597.951695 -274.897914 
L 601.191626 -253.336059 
L 604.431557 -252.714492 
L 607.671488 -266.452941 
L 610.911419 -240.825892 
L 614.15135 -269.62815 
L 617.391281 -263.72548 
L 620.631212 -246.301792 
L 623.871143 -255.793492 
L 627.111074 -272.635676 
L 630.351005 -272.480781 
L 633.590936 -264.945027 
L 636.830867 -263.268158 
L 640.070798 -273.440235 
L 643.310729 -271.224953 
L 646.55066 -255.041313 
L 649.790591 -259.550733 
L 653.030522 -269.456534 
L 656.270453 -264.000504 
L 659.510384 -263.662831 
L 662.750314 -250.778414 
L 665.990245 -256.258631 
L 669.230176 -259.70917 
L 672.470107 -249.583101 
L 675.710038 -256.996417 
L 678.949969 -250.629333 
L 678.949969 -296.918931 
L 678.949969 -296.918931 
L 675.710038 -324.714785 
L 672.470107 -303.845669 
L 669.230176 -316.961598 
L 665.990245 -299.690356 
L 662.750314 -298.449994 
L 659.510384 -287.525746 
L 656.270453 -297.828988 
L 653.030522 -291.81291 
L 649.790591 -291.35782 
L 646.55066 -300.62765 
L 643.310729 -299.005261 
L 640.070798 -278.588415 
L 636.830867 -282.599962 
L 633.590936 -295.484345 
L 630.351005 -284.308277 
L 627.111074 -277.992852 
L 623.871143 -281.393881 
L 620.631212 -287.525292 
L 617.391281 -284.382832 
L 614.15135 -289.401102 
L 610.911419 -284.040421 
L 607.671488 -278.575106 
L 604.431557 -272.431846 
L 601.191626 -290.571892 
L 597.951695 -285.531457 
L 594.711764 -297.420114 
L 591.471833 -278.832501 
L 588.231902 -290.670958 
L 584.991971 -293.221538 
L 581.75204 -299.55116 
L 578.512109 -286.804703 
L 575.272178 -293.015489 
L 572.032247 -305.440954 
L 568.792316 -294.621182 
L 565.552385 -290.558452 
L 562.312454 -274.296028 
L 559.072523 -277.401312 
L 555.832592 -294.505519 
L 552.592661 -290.799021 
L 549.35273 -292.001426 
L 546.112799 -290.919446 
L 542.872868 -296.213149 
L 539.632937 -283.739003 
L 536.393006 -290.374285 
L 533.153075 -287.336548 
L 529.913144 -284.658641 
L 526.673213 -292.642538 
L 523.433282 -291.518117 
L 520.193351 -278.068881 
L 516.953421 -255.830016 
L 513.71349 -251.784456 
L 510.473559 -259.083782 
L 507.233628 -260.043337 
L 503.993697 -272.946076 
L 500.753766 -277.282754 
L 497.513835 -276.926428 
L 494.273904 -281.512441 
L 491.033973 -272.1901 
L 487.794042 -276.383021 
L 484.554111 -267.618531 
L 481.31418 -261.549224 
L 478.074249 -268.479195 
L 474.834318 -278.15528 
L 471.594387 -283.567432 
L 468.354456 -287.812615 
L 465.114525 -272.349099 
L 461.874594 -274.767213 
L 458.634663 -280.168146 
L 455.394732 -304.279246 
L 452.154801 -295.652752 
L 448.91487 -292.555732 
L 445.674939 -290.198877 
L 442.435008 -304.141303 
L 439.195077 -301.604164 
L 435.955146 -334.665158 
L 432.715215 -317.490151 
L 429.475284 -312.307802 
L 426.235353 -303.088454 
L 422.995422 -316.105198 
L 419.755491 -308.482963 
L 416.51556 -325.404964 
L 413.275629 -311.864352 
L 410.035698 -329.489388 
L 406.795767 -308.96611 
L 403.555836 -311.420177 
L 400.315905 -310.854307 
L 397.075974 -316.889699 
L 393.836043 -300.777892 
L 390.596112 -302.994777 
L 387.356181 -311.6697 
L 384.11625 -306.33834 
L 380.876319 -305.31809 
L 377.636388 -321.25465 
L 374.396457 -314.40095 
L 371.156527 -297.422436 
L 367.916596 -313.981241 
L 364.676665 -324.187216 
L 361.436734 -321.816531 
L 358.196803 -301.917182 
L 354.956872 -293.738121 
L 351.716941 -308.107439 
L 348.47701 -273.305933 
L 345.237079 -297.50945 
L 341.997148 -283.890679 
L 338.757217 -302.620171 
L 335.517286 -313.285017 
L 332.277355 -314.056678 
L 329.037424 -307.512602 
L 325.797493 -305.539284 
L 322.557562 -315.588779 
L 319.317631 -319.338079 
L 316.0777 -324.176178 
L 312.837769 -326.699193 
L 309.597838 -308.303257 
L 306.357907 -302.287476 
L 303.117976 -298.332635 
L 299.878045 -312.408602 
L 296.638114 -288.807257 
L 293.398183 -282.18431 
L 290.158252 -305.307193 
L 286.918321 -309.98489 
L 283.67839 -305.571323 
L 280.438459 -287.810667 
L 277.198528 -303.457098 
L 273.958597 -318.355078 
L 270.718666 -303.467734 
L 267.478735 -308.502502 
L 264.238804 -305.090761 
L 260.998873 -308.5823 
L 257.758942 -300.897403 
L 254.519011 -323.218202 
L 251.27908 -329.63267 
L 248.039149 -339.316775 
L 244.799218 -315.578767 
L 241.559287 -304.52488 
L 238.319356 -318.568987 
L 235.079425 -317.645621 
L 231.839494 -302.323915 
L 228.599564 -294.883541 
L 225.359633 -302.082969 
L 222.119702 -287.578734 
L 218.879771 -297.508812 
L 215.63984 -286.068307 
L 212.399909 -293.37508 
L 209.159978 -303.570056 
L 205.920047 -312.75476 
L 202.680116 -295.604199 
L 199.440185 -273.949462 
L 196.200254 -307.041368 
L 192.960323 -300.292128 
L 189.720392 -309.007413 
L 186.480461 -333.778286 
L 183.24053 -312.047501 
L 180.000599 -313.918594 
L 176.760668 -323.511671 
L 173.520737 -308.291586 
L 170.280806 -328.517192 
L 167.040875 -336.69702 
L 163.800944 -325.9877 
L 160.561013 -326.353954 
L 157.321082 -344.085732 
L 154.081151 -358.182702 
L 150.84122 -384.53812 
L 147.601289 -389.781104 
L 144.361358 -377.379996 
L 141.121427 -391.328531 
z
" style="stroke: #ffa500; stroke-opacity: 0.3"/>
    </defs>
    <g clip-path="url(#pfb2204dc81)">
     <use xlink:href="#ma0ab259512" x="0" y="432" style="fill: #ffa500; fill-opacity: 0.3; stroke: #ffa500; stroke-opacity: 0.3"/>
    </g>
   </g>
   <g id="matplotlib.axis_1">
    <g id="xtick_1">
     <g id="line2d_1">
      <defs>
       <path id="mf1eaee9676" d="M 0 0 
L 0 3.5 
" style="stroke: #000000; stroke-width: 0.8"/>
      </defs>
      <g>
       <use xlink:href="#mf1eaee9676" x="141.121427" y="343.96" style="stroke: #000000; stroke-width: 0.8"/>
      </g>
     </g>
     <g id="text_1">
      <!-- 0 -->
      <g transform="translate(132.213927 372.235625) scale(0.28 -0.28)">
       <defs>
        <path id="DejaVuSans-30" d="M 2034 4250 
Q 1547 4250 1301 3770 
Q 1056 3291 1056 2328 
Q 1056 1369 1301 889 
Q 1547 409 2034 409 
Q 2525 409 2770 889 
Q 3016 1369 3016 2328 
Q 3016 3291 2770 3770 
Q 2525 4250 2034 4250 
z
M 2034 4750 
Q 2819 4750 3233 4129 
Q 3647 3509 3647 2328 
Q 3647 1150 3233 529 
Q 2819 -91 2034 -91 
Q 1250 -91 836 529 
Q 422 1150 422 2328 
Q 422 3509 836 4129 
Q 1250 4750 2034 4750 
z
" transform="scale(0.015625)"/>
       </defs>
       <use xlink:href="#DejaVuSans-30"/>
      </g>
     </g>
    </g>
    <g id="xtick_2">
     <g id="line2d_2">
      <g>
       <use xlink:href="#mf1eaee9676" x="249.119126" y="343.96" style="stroke: #000000; stroke-width: 0.8"/>
      </g>
     </g>
     <g id="text_2">
      <!-- 100 -->
      <g transform="translate(222.396626 372.235625) scale(0.28 -0.28)">
       <defs>
        <path id="DejaVuSans-31" d="M 794 531 
L 1825 531 
L 1825 4091 
L 703 3866 
L 703 4441 
L 1819 4666 
L 2450 4666 
L 2450 531 
L 3481 531 
L 3481 0 
L 794 0 
L 794 531 
z
" transform="scale(0.015625)"/>
       </defs>
       <use xlink:href="#DejaVuSans-31"/>
       <use xlink:href="#DejaVuSans-30" x="63.623047"/>
       <use xlink:href="#DejaVuSans-30" x="127.246094"/>
      </g>
     </g>
    </g>
    <g id="xtick_3">
     <g id="line2d_3">
      <g>
       <use xlink:href="#mf1eaee9676" x="357.116826" y="343.96" style="stroke: #000000; stroke-width: 0.8"/>
      </g>
     </g>
     <g id="text_3">
      <!-- 200 -->
      <g transform="translate(330.394326 372.235625) scale(0.28 -0.28)">
       <defs>
        <path id="DejaVuSans-32" d="M 1228 531 
L 3431 531 
L 3431 0 
L 469 0 
L 469 531 
Q 828 903 1448 1529 
Q 2069 2156 2228 2338 
Q 2531 2678 2651 2914 
Q 2772 3150 2772 3378 
Q 2772 3750 2511 3984 
Q 2250 4219 1831 4219 
Q 1534 4219 1204 4116 
Q 875 4013 500 3803 
L 500 4441 
Q 881 4594 1212 4672 
Q 1544 4750 1819 4750 
Q 2544 4750 2975 4387 
Q 3406 4025 3406 3419 
Q 3406 3131 3298 2873 
Q 3191 2616 2906 2266 
Q 2828 2175 2409 1742 
Q 1991 1309 1228 531 
z
" transform="scale(0.015625)"/>
       </defs>
       <use xlink:href="#DejaVuSans-32"/>
       <use xlink:href="#DejaVuSans-30" x="63.623047"/>
       <use xlink:href="#DejaVuSans-30" x="127.246094"/>
      </g>
     </g>
    </g>
    <g id="xtick_4">
     <g id="line2d_4">
      <g>
       <use xlink:href="#mf1eaee9676" x="465.114525" y="343.96" style="stroke: #000000; stroke-width: 0.8"/>
      </g>
     </g>
     <g id="text_4">
      <!-- 300 -->
      <g transform="translate(438.392025 372.235625) scale(0.28 -0.28)">
       <defs>
        <path id="DejaVuSans-33" d="M 2597 2516 
Q 3050 2419 3304 2112 
Q 3559 1806 3559 1356 
Q 3559 666 3084 287 
Q 2609 -91 1734 -91 
Q 1441 -91 1130 -33 
Q 819 25 488 141 
L 488 750 
Q 750 597 1062 519 
Q 1375 441 1716 441 
Q 2309 441 2620 675 
Q 2931 909 2931 1356 
Q 2931 1769 2642 2001 
Q 2353 2234 1838 2234 
L 1294 2234 
L 1294 2753 
L 1863 2753 
Q 2328 2753 2575 2939 
Q 2822 3125 2822 3475 
Q 2822 3834 2567 4026 
Q 2313 4219 1838 4219 
Q 1578 4219 1281 4162 
Q 984 4106 628 3988 
L 628 4550 
Q 988 4650 1302 4700 
Q 1616 4750 1894 4750 
Q 2613 4750 3031 4423 
Q 3450 4097 3450 3541 
Q 3450 3153 3228 2886 
Q 3006 2619 2597 2516 
z
" transform="scale(0.015625)"/>
       </defs>
       <use xlink:href="#DejaVuSans-33"/>
       <use xlink:href="#DejaVuSans-30" x="63.623047"/>
       <use xlink:href="#DejaVuSans-30" x="127.246094"/>
      </g>
     </g>
    </g>
    <g id="xtick_5">
     <g id="line2d_5">
      <g>
       <use xlink:href="#mf1eaee9676" x="573.112224" y="343.96" style="stroke: #000000; stroke-width: 0.8"/>
      </g>
     </g>
     <g id="text_5">
      <!-- 400 -->
      <g transform="translate(546.389724 372.235625) scale(0.28 -0.28)">
       <defs>
        <path id="DejaVuSans-34" d="M 2419 4116 
L 825 1625 
L 2419 1625 
L 2419 4116 
z
M 2253 4666 
L 3047 4666 
L 3047 1625 
L 3713 1625 
L 3713 1100 
L 3047 1100 
L 3047 0 
L 2419 0 
L 2419 1100 
L 313 1100 
L 313 1709 
L 2253 4666 
z
" transform="scale(0.015625)"/>
       </defs>
       <use xlink:href="#DejaVuSans-34"/>
       <use xlink:href="#DejaVuSans-30" x="63.623047"/>
       <use xlink:href="#DejaVuSans-30" x="127.246094"/>
      </g>
     </g>
    </g>
    <g id="xtick_6">
     <g id="line2d_6">
      <g>
       <use xlink:href="#mf1eaee9676" x="681.109923" y="343.96" style="stroke: #000000; stroke-width: 0.8"/>
      </g>
     </g>
     <g id="text_6">
      <!-- 500 -->
      <g transform="translate(654.387423 372.235625) scale(0.28 -0.28)">
       <defs>
        <path id="DejaVuSans-35" d="M 691 4666 
L 3169 4666 
L 3169 4134 
L 1269 4134 
L 1269 2991 
Q 1406 3038 1543 3061 
Q 1681 3084 1819 3084 
Q 2600 3084 3056 2656 
Q 3513 2228 3513 1497 
Q 3513 744 3044 326 
Q 2575 -91 1722 -91 
Q 1428 -91 1123 -41 
Q 819 9 494 109 
L 494 744 
Q 775 591 1075 516 
Q 1375 441 1709 441 
Q 2250 441 2565 725 
Q 2881 1009 2881 1497 
Q 2881 1984 2565 2268 
Q 2250 2553 1709 2553 
Q 1456 2553 1204 2497 
Q 953 2441 691 2322 
L 691 4666 
z
" transform="scale(0.015625)"/>
       </defs>
       <use xlink:href="#DejaVuSans-35"/>
       <use xlink:href="#DejaVuSans-30" x="63.623047"/>
       <use xlink:href="#DejaVuSans-30" x="127.246094"/>
      </g>
     </g>
    </g>
    <g id="text_7">
     <!-- Episode -->
     <g transform="translate(331.485698 412.4525) scale(0.4 -0.4)">
      <defs>
       <path id="DejaVuSans-45" d="M 628 4666 
L 3578 4666 
L 3578 4134 
L 1259 4134 
L 1259 2753 
L 3481 2753 
L 3481 2222 
L 1259 2222 
L 1259 531 
L 3634 531 
L 3634 0 
L 628 0 
L 628 4666 
z
" transform="scale(0.015625)"/>
       <path id="DejaVuSans-70" d="M 1159 525 
L 1159 -1331 
L 581 -1331 
L 581 3500 
L 1159 3500 
L 1159 2969 
Q 1341 3281 1617 3432 
Q 1894 3584 2278 3584 
Q 2916 3584 3314 3078 
Q 3713 2572 3713 1747 
Q 3713 922 3314 415 
Q 2916 -91 2278 -91 
Q 1894 -91 1617 61 
Q 1341 213 1159 525 
z
M 3116 1747 
Q 3116 2381 2855 2742 
Q 2594 3103 2138 3103 
Q 1681 3103 1420 2742 
Q 1159 2381 1159 1747 
Q 1159 1113 1420 752 
Q 1681 391 2138 391 
Q 2594 391 2855 752 
Q 3116 1113 3116 1747 
z
" transform="scale(0.015625)"/>
       <path id="DejaVuSans-69" d="M 603 3500 
L 1178 3500 
L 1178 0 
L 603 0 
L 603 3500 
z
M 603 4863 
L 1178 4863 
L 1178 4134 
L 603 4134 
L 603 4863 
z
" transform="scale(0.015625)"/>
       <path id="DejaVuSans-73" d="M 2834 3397 
L 2834 2853 
Q 2591 2978 2328 3040 
Q 2066 3103 1784 3103 
Q 1356 3103 1142 2972 
Q 928 2841 928 2578 
Q 928 2378 1081 2264 
Q 1234 2150 1697 2047 
L 1894 2003 
Q 2506 1872 2764 1633 
Q 3022 1394 3022 966 
Q 3022 478 2636 193 
Q 2250 -91 1575 -91 
Q 1294 -91 989 -36 
Q 684 19 347 128 
L 347 722 
Q 666 556 975 473 
Q 1284 391 1588 391 
Q 1994 391 2212 530 
Q 2431 669 2431 922 
Q 2431 1156 2273 1281 
Q 2116 1406 1581 1522 
L 1381 1569 
Q 847 1681 609 1914 
Q 372 2147 372 2553 
Q 372 3047 722 3315 
Q 1072 3584 1716 3584 
Q 2034 3584 2315 3537 
Q 2597 3491 2834 3397 
z
" transform="scale(0.015625)"/>
       <path id="DejaVuSans-6f" d="M 1959 3097 
Q 1497 3097 1228 2736 
Q 959 2375 959 1747 
Q 959 1119 1226 758 
Q 1494 397 1959 397 
Q 2419 397 2687 759 
Q 2956 1122 2956 1747 
Q 2956 2369 2687 2733 
Q 2419 3097 1959 3097 
z
M 1959 3584 
Q 2709 3584 3137 3096 
Q 3566 2609 3566 1747 
Q 3566 888 3137 398 
Q 2709 -91 1959 -91 
Q 1206 -91 779 398 
Q 353 888 353 1747 
Q 353 2609 779 3096 
Q 1206 3584 1959 3584 
z
" transform="scale(0.015625)"/>
       <path id="DejaVuSans-64" d="M 2906 2969 
L 2906 4863 
L 3481 4863 
L 3481 0 
L 2906 0 
L 2906 525 
Q 2725 213 2448 61 
Q 2172 -91 1784 -91 
Q 1150 -91 751 415 
Q 353 922 353 1747 
Q 353 2572 751 3078 
Q 1150 3584 1784 3584 
Q 2172 3584 2448 3432 
Q 2725 3281 2906 2969 
z
M 947 1747 
Q 947 1113 1208 752 
Q 1469 391 1925 391 
Q 2381 391 2643 752 
Q 2906 1113 2906 1747 
Q 2906 2381 2643 2742 
Q 2381 3103 1925 3103 
Q 1469 3103 1208 2742 
Q 947 2381 947 1747 
z
" transform="scale(0.015625)"/>
       <path id="DejaVuSans-65" d="M 3597 1894 
L 3597 1613 
L 953 1613 
Q 991 1019 1311 708 
Q 1631 397 2203 397 
Q 2534 397 2845 478 
Q 3156 559 3463 722 
L 3463 178 
Q 3153 47 2828 -22 
Q 2503 -91 2169 -91 
Q 1331 -91 842 396 
Q 353 884 353 1716 
Q 353 2575 817 3079 
Q 1281 3584 2069 3584 
Q 2775 3584 3186 3129 
Q 3597 2675 3597 1894 
z
M 3022 2063 
Q 3016 2534 2758 2815 
Q 2500 3097 2075 3097 
Q 1594 3097 1305 2825 
Q 1016 2553 972 2059 
L 3022 2063 
z
" transform="scale(0.015625)"/>
      </defs>
      <use xlink:href="#DejaVuSans-45"/>
      <use xlink:href="#DejaVuSans-70" x="63.183594"/>
      <use xlink:href="#DejaVuSans-69" x="126.660156"/>
      <use xlink:href="#DejaVuSans-73" x="154.443359"/>
      <use xlink:href="#DejaVuSans-6f" x="206.542969"/>
      <use xlink:href="#DejaVuSans-64" x="267.724609"/>
      <use xlink:href="#DejaVuSans-65" x="331.201172"/>
     </g>
    </g>
   </g>
   <g id="matplotlib.axis_2">
    <g id="ytick_1">
     <g id="line2d_7">
      <defs>
       <path id="m6a23bcc721" d="M 0 0 
L -3.5 0 
" style="stroke: #000000; stroke-width: 0.8"/>
      </defs>
      <g>
       <use xlink:href="#m6a23bcc721" x="114.23" y="304.538448" style="stroke: #000000; stroke-width: 0.8"/>
      </g>
     </g>
     <g id="text_8">
      <!-- 40 -->
      <g transform="translate(71.6 315.17626) scale(0.28 -0.28)">
       <use xlink:href="#DejaVuSans-34"/>
       <use xlink:href="#DejaVuSans-30" x="63.623047"/>
      </g>
     </g>
    </g>
    <g id="ytick_2">
     <g id="line2d_8">
      <g>
       <use xlink:href="#m6a23bcc721" x="114.23" y="254.134114" style="stroke: #000000; stroke-width: 0.8"/>
      </g>
     </g>
     <g id="text_9">
      <!-- 60 -->
      <g transform="translate(71.6 264.771927) scale(0.28 -0.28)">
       <defs>
        <path id="DejaVuSans-36" d="M 2113 2584 
Q 1688 2584 1439 2293 
Q 1191 2003 1191 1497 
Q 1191 994 1439 701 
Q 1688 409 2113 409 
Q 2538 409 2786 701 
Q 3034 994 3034 1497 
Q 3034 2003 2786 2293 
Q 2538 2584 2113 2584 
z
M 3366 4563 
L 3366 3988 
Q 3128 4100 2886 4159 
Q 2644 4219 2406 4219 
Q 1781 4219 1451 3797 
Q 1122 3375 1075 2522 
Q 1259 2794 1537 2939 
Q 1816 3084 2150 3084 
Q 2853 3084 3261 2657 
Q 3669 2231 3669 1497 
Q 3669 778 3244 343 
Q 2819 -91 2113 -91 
Q 1303 -91 875 529 
Q 447 1150 447 2328 
Q 447 3434 972 4092 
Q 1497 4750 2381 4750 
Q 2619 4750 2861 4703 
Q 3103 4656 3366 4563 
z
" transform="scale(0.015625)"/>
       </defs>
       <use xlink:href="#DejaVuSans-36"/>
       <use xlink:href="#DejaVuSans-30" x="63.623047"/>
      </g>
     </g>
    </g>
    <g id="ytick_3">
     <g id="line2d_9">
      <g>
       <use xlink:href="#m6a23bcc721" x="114.23" y="203.72978" style="stroke: #000000; stroke-width: 0.8"/>
      </g>
     </g>
     <g id="text_10">
      <!-- 80 -->
      <g transform="translate(71.6 214.367593) scale(0.28 -0.28)">
       <defs>
        <path id="DejaVuSans-38" d="M 2034 2216 
Q 1584 2216 1326 1975 
Q 1069 1734 1069 1313 
Q 1069 891 1326 650 
Q 1584 409 2034 409 
Q 2484 409 2743 651 
Q 3003 894 3003 1313 
Q 3003 1734 2745 1975 
Q 2488 2216 2034 2216 
z
M 1403 2484 
Q 997 2584 770 2862 
Q 544 3141 544 3541 
Q 544 4100 942 4425 
Q 1341 4750 2034 4750 
Q 2731 4750 3128 4425 
Q 3525 4100 3525 3541 
Q 3525 3141 3298 2862 
Q 3072 2584 2669 2484 
Q 3125 2378 3379 2068 
Q 3634 1759 3634 1313 
Q 3634 634 3220 271 
Q 2806 -91 2034 -91 
Q 1263 -91 848 271 
Q 434 634 434 1313 
Q 434 1759 690 2068 
Q 947 2378 1403 2484 
z
M 1172 3481 
Q 1172 3119 1398 2916 
Q 1625 2713 2034 2713 
Q 2441 2713 2670 2916 
Q 2900 3119 2900 3481 
Q 2900 3844 2670 4047 
Q 2441 4250 2034 4250 
Q 1625 4250 1398 4047 
Q 1172 3844 1172 3481 
z
" transform="scale(0.015625)"/>
       </defs>
       <use xlink:href="#DejaVuSans-38"/>
       <use xlink:href="#DejaVuSans-30" x="63.623047"/>
      </g>
     </g>
    </g>
    <g id="ytick_4">
     <g id="line2d_10">
      <g>
       <use xlink:href="#m6a23bcc721" x="114.23" y="153.325447" style="stroke: #000000; stroke-width: 0.8"/>
      </g>
     </g>
     <g id="text_11">
      <!-- 100 -->
      <g transform="translate(53.785 163.963259) scale(0.28 -0.28)">
       <use xlink:href="#DejaVuSans-31"/>
       <use xlink:href="#DejaVuSans-30" x="63.623047"/>
       <use xlink:href="#DejaVuSans-30" x="127.246094"/>
      </g>
     </g>
    </g>
    <g id="ytick_5">
     <g id="line2d_11">
      <g>
       <use xlink:href="#m6a23bcc721" x="114.23" y="102.921113" style="stroke: #000000; stroke-width: 0.8"/>
      </g>
     </g>
     <g id="text_12">
      <!-- 120 -->
      <g transform="translate(53.785 113.558925) scale(0.28 -0.28)">
       <use xlink:href="#DejaVuSans-31"/>
       <use xlink:href="#DejaVuSans-32" x="63.623047"/>
       <use xlink:href="#DejaVuSans-30" x="127.246094"/>
      </g>
     </g>
    </g>
    <g id="ytick_6">
     <g id="line2d_12">
      <g>
       <use xlink:href="#m6a23bcc721" x="114.23" y="52.516779" style="stroke: #000000; stroke-width: 0.8"/>
      </g>
     </g>
     <g id="text_13">
      <!-- 140 -->
      <g transform="translate(53.785 63.154592) scale(0.28 -0.28)">
       <use xlink:href="#DejaVuSans-31"/>
       <use xlink:href="#DejaVuSans-34" x="63.623047"/>
       <use xlink:href="#DejaVuSans-30" x="127.246094"/>
      </g>
     </g>
    </g>
    <g id="text_14">
     <!-- $m_{do}$ -->
     <g transform="translate(41.46625 214.98) rotate(-90) scale(0.4 -0.4)">
      <defs>
       <path id="DejaVuSans-Oblique-6d" d="M 5747 2113 
L 5338 0 
L 4763 0 
L 5166 2094 
Q 5191 2228 5203 2325 
Q 5216 2422 5216 2491 
Q 5216 2772 5059 2928 
Q 4903 3084 4622 3084 
Q 4203 3084 3875 2770 
Q 3547 2456 3450 1953 
L 3066 0 
L 2491 0 
L 2900 2094 
Q 2925 2209 2937 2307 
Q 2950 2406 2950 2484 
Q 2950 2769 2794 2926 
Q 2638 3084 2363 3084 
Q 1938 3084 1609 2770 
Q 1281 2456 1184 1953 
L 800 0 
L 225 0 
L 909 3500 
L 1484 3500 
L 1375 2956 
Q 1609 3263 1923 3423 
Q 2238 3584 2597 3584 
Q 2978 3584 3223 3384 
Q 3469 3184 3519 2828 
Q 3781 3197 4126 3390 
Q 4472 3584 4856 3584 
Q 5306 3584 5551 3325 
Q 5797 3066 5797 2591 
Q 5797 2488 5784 2364 
Q 5772 2241 5747 2113 
z
" transform="scale(0.015625)"/>
       <path id="DejaVuSans-Oblique-64" d="M 2675 525 
Q 2444 222 2128 65 
Q 1813 -91 1428 -91 
Q 903 -91 598 267 
Q 294 625 294 1247 
Q 294 1766 478 2236 
Q 663 2706 1013 3078 
Q 1244 3325 1534 3454 
Q 1825 3584 2144 3584 
Q 2481 3584 2739 3421 
Q 2997 3259 3138 2956 
L 3513 4863 
L 4091 4863 
L 3144 0 
L 2566 0 
L 2675 525 
z
M 891 1350 
Q 891 897 1095 644 
Q 1300 391 1663 391 
Q 1931 391 2161 520 
Q 2391 650 2566 903 
Q 2750 1166 2856 1509 
Q 2963 1853 2963 2188 
Q 2963 2622 2758 2865 
Q 2553 3109 2194 3109 
Q 1922 3109 1687 2981 
Q 1453 2853 1288 2613 
Q 1106 2353 998 2009 
Q 891 1666 891 1350 
z
" transform="scale(0.015625)"/>
       <path id="DejaVuSans-Oblique-6f" d="M 1625 -91 
Q 1009 -91 651 289 
Q 294 669 294 1325 
Q 294 1706 417 2101 
Q 541 2497 738 2766 
Q 1047 3184 1428 3384 
Q 1809 3584 2291 3584 
Q 2888 3584 3255 3212 
Q 3622 2841 3622 2241 
Q 3622 1825 3500 1412 
Q 3378 1000 3181 728 
Q 2875 309 2494 109 
Q 2113 -91 1625 -91 
z
M 891 1344 
Q 891 869 1089 633 
Q 1288 397 1691 397 
Q 2269 397 2648 901 
Q 3028 1406 3028 2181 
Q 3028 2634 2825 2865 
Q 2622 3097 2228 3097 
Q 1903 3097 1650 2945 
Q 1397 2794 1197 2484 
Q 1050 2253 970 1956 
Q 891 1659 891 1344 
z
" transform="scale(0.015625)"/>
      </defs>
      <use xlink:href="#DejaVuSans-Oblique-6d"/>
      <use xlink:href="#DejaVuSans-Oblique-64" transform="translate(97.412109 -16.40625) scale(0.7)"/>
      <use xlink:href="#DejaVuSans-Oblique-6f" transform="translate(141.845703 -16.40625) scale(0.7)"/>
     </g>
    </g>
   </g>
   <g id="line2d_13">
    <path d="M 141.121427 194.628998 
L 147.601289 233.552345 
L 150.84122 256.234295 
L 154.081151 248.673645 
L 157.321082 249.093681 
L 160.561013 254.694162 
L 163.800944 257.634415 
L 167.040875 255.394222 
L 170.280806 263.234897 
L 173.520737 272.755715 
L 176.760668 267.57527 
L 180.000599 259.454572 
L 183.24053 255.394222 
L 186.480461 267.855294 
L 189.720392 273.315763 
L 192.960323 272.335679 
L 196.200254 284.376714 
L 199.440185 281.156437 
L 202.680116 285.916847 
L 205.920047 294.317569 
L 209.159978 290.537244 
L 212.399909 296.837786 
L 215.63984 286.196871 
L 218.879771 291.237304 
L 222.119702 289.837184 
L 225.359633 306.218592 
L 228.599564 304.258424 
L 231.839494 304.538448 
L 235.079425 302.298255 
L 238.319356 294.597593 
L 241.559287 310.698978 
L 244.799218 298.377918 
L 248.039149 292.217389 
L 251.27908 297.11781 
L 254.519011 290.817268 
L 257.758942 291.237304 
L 260.998873 284.376714 
L 264.238804 288.997112 
L 267.478735 287.877015 
L 270.718666 281.99651 
L 273.958597 297.537846 
L 277.198528 293.757521 
L 280.438459 296.277738 
L 283.67839 307.478701 
L 286.918321 297.397834 
L 290.158252 299.778039 
L 293.398183 297.81787 
L 296.638114 291.797352 
L 299.878045 300.478099 
L 303.117976 302.158243 
L 306.357907 300.478099 
L 309.597838 310.558966 
L 312.837769 294.317569 
L 316.0777 290.677256 
L 319.317631 289.137124 
L 322.557562 285.216787 
L 325.797493 273.315763 
L 329.037424 283.536642 
L 332.277355 281.856498 
L 335.517286 292.217389 
L 338.757217 282.136522 
L 341.997148 284.79675 
L 345.237079 272.475691 
L 348.47701 278.636221 
L 351.716941 267.57527 
L 354.956872 288.157039 
L 358.196803 286.896931 
L 361.436734 278.776233 
L 364.676665 263.654933 
L 367.916596 280.736401 
L 371.156527 275.275932 
L 374.396457 274.155836 
L 377.636388 247.273524 
L 380.876319 250.773825 
L 384.11625 269.395426 
L 387.356181 255.114198 
L 390.596112 277.096088 
L 393.836043 275.415944 
L 397.075974 266.87521 
L 400.315905 261.834776 
L 403.555836 259.31456 
L 406.795767 270.095486 
L 410.035698 258.614499 
L 413.275629 281.29645 
L 416.51556 288.717088 
L 419.755491 284.236702 
L 422.995422 301.178159 
L 426.235353 285.216787 
L 429.475284 286.616907 
L 432.715215 294.457581 
L 435.955146 296.41775 
L 439.195077 284.236702 
L 442.435008 284.936763 
L 445.674939 277.096088 
L 448.91487 277.656137 
L 452.154801 294.037545 
L 455.394732 284.936763 
L 458.634663 281.436462 
L 461.874594 280.736401 
L 465.114525 298.937966 
L 468.354456 284.79675 
L 471.594387 288.017027 
L 474.834318 297.257822 
L 478.074249 293.897533 
L 481.31418 281.156437 
L 484.554111 282.136522 
L 487.794042 286.616907 
L 491.033973 286.056859 
L 494.273904 296.697774 
L 497.513835 281.016425 
L 500.753766 281.716486 
L 503.993697 282.556558 
L 507.233628 279.196269 
L 510.473559 281.99651 
L 513.71349 284.236702 
L 516.953421 285.356799 
L 520.193351 296.277738 
L 523.433282 288.017027 
L 526.673213 291.937364 
L 529.913144 284.656738 
L 533.153075 301.038147 
L 536.393006 293.617509 
L 539.632937 288.297051 
L 542.872868 277.516125 
L 546.112799 280.876413 
L 549.35273 288.997112 
L 552.592661 282.976594 
L 555.832592 278.356197 
L 559.072523 284.516726 
L 562.312454 284.516726 
L 565.552385 288.157039 
L 568.792316 277.516125 
L 572.032247 285.356799 
L 575.272178 291.097292 
L 578.512109 279.616305 
L 581.75204 295.437665 
L 584.991971 300.758123 
L 588.231902 291.237304 
L 591.471833 304.818472 
L 594.711764 295.297653 
L 597.951695 291.237304 
L 601.191626 289.697172 
L 604.431557 283.816666 
L 607.671488 301.458183 
L 610.911419 292.357401 
L 614.15135 292.777437 
L 617.391281 296.137726 
L 620.631212 295.437665 
L 623.871143 306.358604 
L 627.111074 288.997112 
L 630.351005 302.298255 
L 633.590936 310.698978 
L 636.830867 307.898737 
L 640.070798 302.858303 
L 643.310729 302.998315 
L 646.55066 296.977798 
L 649.790591 305.658544 
L 653.030522 300.758123 
L 656.270453 308.598797 
L 659.510384 303.838388 
L 662.750314 309.298857 
L 665.990245 306.498616 
L 672.470107 300.478099 
L 675.710038 306.218592 
L 678.949969 305.658544 
L 678.949969 305.658544 
" clip-path="url(#pfb2204dc81)" style="fill: none; stroke: #0000ff; stroke-width: 3; stroke-linecap: square"/>
   </g>
   <g id="line2d_14">
    <path d="M 141.121427 56.437116 
L 144.361358 53.636876 
L 147.601289 59.937417 
L 150.84122 77.018886 
L 154.081151 88.359861 
L 157.321082 85.979656 
L 160.561013 85.279596 
L 163.800944 104.881281 
L 167.040875 110.481763 
L 170.280806 112.021895 
L 173.520737 115.522196 
L 176.760668 121.542714 
L 180.000599 130.643496 
L 183.24053 138.204147 
L 186.480461 158.925928 
L 189.720392 161.446145 
L 192.960323 162.846265 
L 196.200254 178.94765 
L 199.440185 194.348974 
L 202.680116 194.909022 
L 205.920047 192.108781 
L 209.159978 189.728577 
L 212.399909 197.709263 
L 215.63984 186.5083 
L 218.879771 190.008601 
L 222.119702 190.288625 
L 225.359633 174.18724 
L 228.599564 193.648914 
L 231.839494 185.388203 
L 235.079425 185.108179 
L 238.319356 165.646506 
L 241.559287 169.426831 
L 244.799218 174.047228 
L 248.039149 179.64771 
L 251.27908 173.48718 
L 254.519011 195.749094 
L 257.758942 182.307939 
L 260.998873 182.167927 
L 264.238804 200.789528 
L 267.478735 217.170936 
L 270.718666 207.650117 
L 277.198528 201.6296 
L 280.438459 208.770214 
L 283.67839 190.288625 
L 286.918321 198.689347 
L 290.158252 183.988083 
L 293.398183 192.528817 
L 296.638114 193.648914 
L 299.878045 195.889106 
L 303.117976 213.250599 
L 306.357907 197.849275 
L 309.597838 185.668227 
L 312.837769 211.850479 
L 316.0777 206.950057 
L 319.317631 209.89031 
L 322.557562 202.889708 
L 325.797493 190.148613 
L 329.037424 190.848673 
L 332.277355 187.488384 
L 335.517286 197.849275 
L 338.757217 201.209564 
L 341.997148 207.930142 
L 345.237079 215.070755 
L 348.47701 180.34777 
L 351.716941 201.349576 
L 354.956872 204.989889 
L 358.196803 192.388805 
L 361.436734 196.449154 
L 364.676665 196.589166 
L 367.916596 212.690551 
L 371.156527 204.709865 
L 374.396457 185.528215 
L 377.636388 181.187842 
L 380.876319 160.326049 
L 384.11625 184.688143 
L 387.356181 181.467866 
L 390.596112 169.426831 
L 393.836043 191.408721 
L 397.075974 176.007397 
L 400.315905 183.848071 
L 406.795767 210.030322 
L 410.035698 198.269311 
L 413.275629 200.92954 
L 416.51556 207.370093 
L 419.755491 183.428035 
L 422.995422 198.689347 
L 426.235353 184.548131 
L 429.475284 189.728577 
L 432.715215 189.448553 
L 435.955146 199.249395 
L 439.195077 197.989287 
L 442.435008 192.108781 
L 445.674939 219.411129 
L 448.91487 202.189648 
L 452.154801 205.409925 
L 455.394732 217.870996 
L 458.634663 225.571658 
L 461.874594 206.670033 
L 465.114525 196.589166 
L 468.354456 208.49019 
L 471.594387 197.289227 
L 474.834318 212.690551 
L 478.074249 201.489588 
L 481.31418 188.888504 
L 484.554111 223.191454 
L 487.794042 186.088264 
L 491.033973 189.868589 
L 494.273904 208.070154 
L 497.513835 207.090069 
L 500.753766 213.670635 
L 503.993697 212.970575 
L 507.233628 214.650719 
L 510.473559 233.27232 
L 513.71349 229.071959 
L 516.953421 210.450358 
L 520.193351 206.670033 
L 523.433282 207.370093 
L 526.673213 221.511309 
L 529.913144 211.29043 
L 533.153075 223.751502 
L 536.393006 206.249997 
L 539.632937 197.289227 
L 542.872868 217.170936 
L 546.112799 223.191454 
L 549.35273 210.730382 
L 552.592661 246.853488 
L 555.832592 223.331466 
L 559.072523 209.89031 
L 562.312454 207.370093 
L 565.552385 218.851081 
L 568.792316 238.872802 
L 575.272178 221.931345 
L 578.512109 223.051442 
L 581.75204 195.049034 
L 584.991971 203.169732 
L 588.231902 213.530623 
L 591.471833 205.969973 
L 594.711764 221.651321 
L 597.951695 203.02972 
L 601.191626 221.511309 
L 604.431557 229.632007 
L 607.671488 212.970575 
L 610.911419 209.050238 
L 614.15135 222.351381 
L 617.391281 222.211369 
L 620.631212 217.030924 
L 623.871143 207.230081 
L 627.111074 234.812453 
L 630.351005 202.889708 
L 633.590936 221.231285 
L 636.830867 225.71167 
L 640.070798 234.392417 
L 643.310729 236.212573 
L 646.55066 235.932549 
L 649.790591 207.79013 
L 653.030522 221.511309 
L 656.270453 211.710467 
L 659.510384 224.591574 
L 662.750314 226.971779 
L 665.990245 228.371899 
L 669.230176 226.551743 
L 672.470107 217.870996 
L 675.710038 223.61149 
L 678.949969 226.411731 
L 678.949969 226.411731 
" clip-path="url(#pfb2204dc81)" style="fill: none; stroke: #008000; stroke-width: 3; stroke-linecap: square"/>
   </g>
   <g id="line2d_15">
    <path d="M 141.121427 45.516177 
L 144.361358 59.377369 
L 147.601289 54.476948 
L 150.84122 54.336936 
L 154.081151 41.735852 
L 157.321082 61.617562 
L 160.561013 56.01708 
L 163.800944 54.756972 
L 167.040875 57.277189 
L 170.280806 62.737658 
L 173.520737 66.097947 
L 176.760668 100.400896 
L 180.000599 86.819729 
L 183.24053 105.161306 
L 186.480461 94.240367 
L 189.720392 107.121474 
L 192.960323 115.10216 
L 196.200254 121.122678 
L 199.440185 125.743075 
L 202.680116 111.461847 
L 205.920047 114.822136 
L 209.159978 125.183027 
L 212.399909 136.103966 
L 215.63984 118.322437 
L 218.879771 136.944038 
L 222.119702 132.463653 
L 225.359633 133.583749 
L 228.599564 122.382786 
L 231.839494 131.203545 
L 235.079425 154.165519 
L 238.319356 155.005591 
L 241.559287 150.945242 
L 244.799218 155.985675 
L 248.039149 161.866181 
L 251.27908 145.344761 
L 254.519011 171.106976 
L 257.758942 166.486578 
L 260.998873 167.466663 
L 264.238804 167.466663 
L 267.478735 170.126891 
L 270.718666 170.826951 
L 273.958597 177.407517 
L 277.198528 169.286819 
L 280.438459 190.428637 
L 283.67839 179.507698 
L 286.918321 194.909022 
L 290.158252 187.20836 
L 293.398183 192.808841 
L 296.638114 192.388805 
L 299.878045 188.048432 
L 303.117976 189.728577 
L 306.357907 197.429239 
L 309.597838 195.049034 
L 312.837769 193.788926 
L 316.0777 202.469672 
L 319.317631 219.271117 
L 322.557562 210.310346 
L 325.797493 216.330864 
L 329.037424 210.59037 
L 332.277355 214.230683 
L 335.517286 209.750298 
L 338.757217 204.429841 
L 341.997148 197.289227 
L 345.237079 204.569853 
L 348.47701 223.751502 
L 351.716941 218.431044 
L 354.956872 207.230081 
L 358.196803 220.671237 
L 361.436734 214.650719 
L 364.676665 222.071357 
L 367.916596 212.550539 
L 371.156527 210.450358 
L 374.396457 209.610286 
L 377.636388 214.650719 
L 380.876319 216.470876 
L 384.11625 204.149817 
L 387.356181 217.590972 
L 390.596112 197.569251 
L 393.836043 202.469672 
L 397.075974 210.870394 
L 400.315905 197.569251 
L 403.555836 199.529419 
L 406.795767 212.690551 
L 410.035698 196.869191 
L 413.275629 211.150418 
L 416.51556 197.989287 
L 419.755491 209.050238 
L 422.995422 186.088264 
L 426.235353 193.508902 
L 429.475284 186.788324 
L 432.715215 209.330262 
L 435.955146 211.850479 
L 439.195077 202.749696 
L 442.435008 207.510105 
L 445.674939 222.071357 
L 448.91487 211.990491 
L 452.154801 210.870394 
L 455.394732 216.190852 
L 458.634663 205.549937 
L 461.874594 199.669431 
L 465.114525 208.770214 
L 468.354456 205.689949 
L 471.594387 196.589166 
L 474.834318 201.069552 
L 478.074249 203.869792 
L 481.31418 203.309744 
L 484.554111 204.149817 
L 487.794042 218.991093 
L 491.033973 203.02972 
L 494.273904 203.72978 
L 497.513835 192.388805 
L 500.753766 211.150418 
L 503.993697 197.009203 
L 507.233628 193.228878 
L 510.473559 194.06895 
L 513.71349 201.349576 
L 516.953421 204.569853 
L 520.193351 211.850479 
L 523.433282 213.810647 
L 526.673213 204.849877 
L 529.913144 209.050238 
L 533.153075 205.129901 
L 536.393006 214.930743 
L 539.632937 216.330864 
L 542.872868 211.850479 
L 546.112799 211.29043 
L 549.35273 206.530021 
L 552.592661 215.770816 
L 555.832592 210.870394 
L 559.072523 197.709263 
L 562.312454 225.01161 
L 565.552385 221.511309 
L 568.792316 213.670635 
L 572.032247 223.751502 
L 575.272178 212.970575 
L 578.512109 210.450358 
L 581.75204 216.7509 
L 584.991971 211.850479 
L 588.231902 205.549937 
L 591.471833 204.709865 
L 594.711764 214.650719 
L 597.951695 204.569853 
L 601.191626 210.170334 
L 604.431557 204.709865 
L 607.671488 224.171538 
L 614.15135 203.169732 
L 617.391281 213.670635 
L 620.631212 216.330864 
L 623.871143 212.550539 
L 627.111074 217.45096 
L 630.351005 225.291634 
L 633.590936 209.050238 
L 636.830867 228.091875 
L 640.070798 217.870996 
L 643.310729 222.491394 
L 646.55066 229.351983 
L 649.790591 230.612092 
L 653.030522 243.633211 
L 656.270453 219.971177 
L 659.510384 222.771418 
L 662.750314 228.091875 
L 665.990245 221.511309 
L 669.230176 221.651321 
L 672.470107 220.111189 
L 675.710038 222.771418 
L 678.949969 233.972381 
L 678.949969 233.972381 
" clip-path="url(#pfb2204dc81)" style="fill: none; stroke: #ff0000; stroke-width: 3; stroke-linecap: square"/>
   </g>
   <g id="line2d_16">
    <path d="M 141.121427 48.736454 
L 144.361358 64.27779 
L 147.601289 53.076827 
L 150.84122 72.538501 
L 154.081151 82.199331 
L 157.321082 102.501077 
L 160.561013 112.581944 
L 163.800944 121.26269 
L 167.040875 122.102762 
L 170.280806 127.283208 
L 173.520737 131.903605 
L 176.760668 122.942834 
L 180.000599 125.603063 
L 183.24053 139.744279 
L 186.480461 130.643496 
L 189.720392 140.304327 
L 192.960323 157.945844 
L 196.200254 152.065338 
L 199.440185 171.667024 
L 202.680116 159.625988 
L 205.920047 156.405712 
L 209.159978 164.106374 
L 212.399909 165.22647 
L 215.63984 173.627192 
L 218.879771 155.845663 
L 222.119702 170.546927 
L 225.359633 159.625988 
L 228.599564 150.10517 
L 231.839494 144.364676 
L 235.079425 138.204147 
L 238.319356 138.484171 
L 241.559287 141.424423 
L 244.799218 132.183629 
L 248.039149 127.843256 
L 251.27908 138.344159 
L 254.519011 133.023701 
L 257.758942 148.145001 
L 260.998873 138.764195 
L 264.238804 152.20535 
L 267.478735 147.164917 
L 270.718666 144.504688 
L 273.958597 135.123882 
L 277.198528 152.20535 
L 280.438459 157.245784 
L 283.67839 143.384592 
L 286.918321 146.324845 
L 290.158252 157.385796 
L 293.398183 160.186037 
L 296.638114 156.265699 
L 299.878045 143.94464 
L 303.117976 149.685134 
L 306.357907 140.864375 
L 309.597838 150.245182 
L 312.837769 143.664616 
L 316.0777 150.665218 
L 319.317631 146.324845 
L 322.557562 149.825146 
L 325.797493 159.345964 
L 329.037424 146.604869 
L 332.277355 156.96576 
L 335.517286 150.10517 
L 338.757217 154.165519 
L 341.997148 154.445543 
L 345.237079 157.66582 
L 348.47701 174.747289 
L 351.716941 162.006193 
L 354.956872 173.207156 
L 358.196803 161.166121 
L 361.436734 145.064736 
L 364.676665 150.385194 
L 367.916596 158.225868 
L 371.156527 163.126289 
L 374.396457 150.385194 
L 377.636388 147.724965 
L 380.876319 164.246386 
L 384.11625 151.225266 
L 387.356181 150.10517 
L 390.596112 151.925326 
L 393.836043 154.445543 
L 397.075974 151.225266 
L 400.315905 140.724363 
L 403.555836 143.94464 
L 406.795767 148.285013 
L 410.035698 138.484171 
L 413.275629 138.484171 
L 416.51556 130.783509 
L 419.755491 149.825146 
L 422.995422 135.963954 
L 426.235353 148.425025 
L 429.475284 141.984472 
L 432.715215 141.564435 
L 435.955146 135.263894 
L 439.195077 154.305531 
L 442.435008 155.145603 
L 445.674939 155.845663 
L 448.91487 153.185435 
L 452.154801 152.905411 
L 455.394732 145.624785 
L 458.634663 168.446747 
L 461.874594 176.847469 
L 465.114525 163.966362 
L 468.354456 167.606675 
L 471.594387 157.525808 
L 474.834318 167.32665 
L 478.074249 172.367084 
L 481.31418 179.367686 
L 484.554111 174.327252 
L 487.794042 162.846265 
L 491.033973 174.747289 
L 494.273904 165.086458 
L 497.513835 163.546325 
L 500.753766 174.747289 
L 503.993697 172.927132 
L 507.233628 179.087662 
L 510.473559 188.188444 
L 513.71349 183.988083 
L 516.953421 184.408119 
L 520.193351 174.747289 
L 523.433282 175.447349 
L 526.673213 166.486578 
L 529.913144 171.807036 
L 533.153075 154.585555 
L 536.393006 168.306735 
L 539.632937 167.046626 
L 542.872868 151.925326 
L 546.112799 157.385796 
L 549.35273 145.344761 
L 552.592661 154.165519 
L 555.832592 151.785314 
L 559.072523 168.026711 
L 562.312454 162.566241 
L 565.552385 154.025507 
L 568.792316 158.645904 
L 572.032247 151.785314 
L 575.272178 154.445543 
L 578.512109 150.385194 
L 581.75204 151.645302 
L 584.991971 153.885495 
L 588.231902 153.605471 
L 591.471833 164.106374 
L 594.711764 148.004989 
L 597.951695 151.785314 
L 601.191626 160.046025 
L 604.431557 169.426831 
L 607.671488 159.485976 
L 610.911419 169.566843 
L 614.15135 152.485374 
L 617.391281 157.945844 
L 620.631212 165.086458 
L 623.871143 163.406313 
L 627.111074 156.685736 
L 630.351005 153.605471 
L 633.590936 151.785314 
L 636.830867 159.06594 
L 640.070798 155.985675 
L 643.310729 146.884893 
L 646.55066 154.165519 
L 649.790591 156.545724 
L 653.030522 151.365278 
L 656.270453 151.085254 
L 659.510384 156.405712 
L 662.750314 157.385796 
L 665.990245 154.025507 
L 669.230176 143.664616 
L 672.470107 155.285615 
L 675.710038 141.144399 
L 678.949969 158.225868 
L 678.949969 158.225868 
" clip-path="url(#pfb2204dc81)" style="fill: none; stroke: #ffa500; stroke-width: 3; stroke-linecap: square"/>
   </g>
   <g id="patch_3">
    <path d="M 114.23 343.96 
L 114.23 10.8 
" style="fill: none; stroke: #000000; stroke-width: 0.8; stroke-linejoin: miter; stroke-linecap: square"/>
   </g>
   <g id="patch_4">
    <path d="M 705.841396 343.96 
L 705.841396 10.8 
" style="fill: none; stroke: #000000; stroke-width: 0.8; stroke-linejoin: miter; stroke-linecap: square"/>
   </g>
   <g id="patch_5">
    <path d="M 114.23 343.96 
L 705.841396 343.96 
" style="fill: none; stroke: #000000; stroke-width: 0.8; stroke-linejoin: miter; stroke-linecap: square"/>
   </g>
   <g id="patch_6">
    <path d="M 114.23 10.8 
L 705.841396 10.8 
" style="fill: none; stroke: #000000; stroke-width: 0.8; stroke-linejoin: miter; stroke-linecap: square"/>
   </g>
  </g>
 </g>
 <defs>
  <clipPath id="pfb2204dc81">
   <rect x="114.23" y="10.8" width="591.611396" height="333.16"/>
  </clipPath>
 </defs>
</svg>
