<?xml version="1.0" encoding="utf-8" standalone="no"?>
<!DOCTYPE svg PUBLIC "-//W3C//DTD SVG 1.1//EN"
  "http://www.w3.org/Graphics/SVG/1.1/DTD/svg11.dtd">
<svg xmlns:xlink="http://www.w3.org/1999/xlink" width="720pt" height="432pt" viewBox="0 0 720 432" xmlns="http://www.w3.org/2000/svg" version="1.1">
 <metadata>
  <rdf:RDF xmlns:dc="http://purl.org/dc/elements/1.1/" xmlns:cc="http://creativecommons.org/ns#" xmlns:rdf="http://www.w3.org/1999/02/22-rdf-syntax-ns#">
   <cc:Work>
    <dc:type rdf:resource="http://purl.org/dc/dcmitype/StillImage"/>
    <dc:date>2025-06-20T06:31:45.497931</dc:date>
    <dc:format>image/svg+xml</dc:format>
    <dc:creator>
     <cc:Agent>
      <dc:title>Matplotlib v3.7.1, https://matplotlib.org/</dc:title>
     </cc:Agent>
    </dc:creator>
   </cc:Work>
  </rdf:RDF>
 </metadata>
 <defs>
  <style type="text/css">*{stroke-linejoin: round; stroke-linecap: butt}</style>
 </defs>
 <g id="figure_1">
  <g id="patch_1">
   <path d="M 0 432 
L 720 432 
L 720 0 
L 0 0 
z
" style="fill: #ffffff"/>
  </g>
  <g id="axes_1">
   <g id="patch_2">
    <path d="M 114.32 343.96 
L 705.841396 343.96 
L 705.841396 21.171156 
L 114.32 21.171156 
z
" style="fill: #ffffff"/>
   </g>
   <g id="PolyCollection_1">
    <defs>
     <path id="mbb2ce52009" d="M 141.207336 -274.826889 
L 141.207336 -268.388317 
L 144.446774 -258.010913 
L 147.686212 -242.261019 
L 150.92565 -232.10981 
L 154.165089 -213.523971 
L 157.404527 -196.824377 
L 160.643965 -212.367326 
L 163.883403 -201.667935 
L 167.122841 -194.321761 
L 170.362279 -183.548609 
L 173.601717 -191.374329 
L 176.841155 -187.975471 
L 180.080593 -193.480499 
L 183.320031 -191.489399 
L 186.55947 -188.27861 
L 189.798908 -167.557231 
L 193.038346 -166.301488 
L 196.277784 -173.850892 
L 199.517222 -164.376302 
L 202.75666 -164.424813 
L 205.996098 -156.45606 
L 209.235536 -146.43382 
L 212.474974 -138.900794 
L 215.714412 -147.410774 
L 218.953851 -163.957464 
L 222.193289 -143.400525 
L 225.432727 -149.018446 
L 228.672165 -134.083351 
L 231.911603 -139.778839 
L 235.151041 -147.571275 
L 238.390479 -153.064509 
L 241.629917 -147.717365 
L 244.869355 -159.989148 
L 248.108793 -162.792541 
L 251.348231 -146.827297 
L 254.58767 -146.385246 
L 257.827108 -149.907418 
L 261.066546 -140.346362 
L 264.305984 -148.886307 
L 267.545422 -162.668842 
L 270.78486 -163.243992 
L 274.024298 -152.838195 
L 277.263736 -159.435176 
L 280.503174 -162.683674 
L 283.742612 -135.788419 
L 286.982051 -143.738214 
L 290.221489 -141.849337 
L 293.460927 -143.589096 
L 296.700365 -148.809017 
L 299.939803 -157.945033 
L 303.179241 -160.23205 
L 306.418679 -156.10361 
L 309.658117 -152.358528 
L 312.897555 -130.613165 
L 316.136993 -144.023089 
L 319.376432 -141.081752 
L 322.61587 -134.279622 
L 325.855308 -134.964896 
L 329.094746 -144.677063 
L 332.334184 -136.055035 
L 335.573622 -151.883345 
L 338.81306 -143.787375 
L 342.052498 -135.032915 
L 345.291936 -127.400674 
L 348.531374 -124.972687 
L 351.770813 -140.897901 
L 355.010251 -148.803873 
L 358.249689 -155.541833 
L 361.489127 -152.208198 
L 364.728565 -139.199578 
L 367.968003 -135.669691 
L 371.207441 -136.381735 
L 374.446879 -149.407189 
L 377.686317 -137.840561 
L 380.925755 -146.938007 
L 384.165193 -138.691444 
L 387.404632 -141.142632 
L 390.64407 -141.93859 
L 393.883508 -132.604047 
L 397.122946 -164.964798 
L 400.362384 -151.038212 
L 403.601822 -158.068609 
L 406.84126 -144.568921 
L 410.080698 -139.584829 
L 413.320136 -133.055837 
L 416.559574 -140.448026 
L 419.799013 -123.899019 
L 423.038451 -136.815177 
L 426.277889 -141.039421 
L 429.517327 -134.785402 
L 432.756765 -131.800538 
L 435.996203 -129.719353 
L 439.235641 -126.363787 
L 442.475079 -135.912675 
L 445.714517 -117.645084 
L 448.953955 -139.537812 
L 452.193394 -128.616396 
L 455.432832 -135.90246 
L 458.67227 -135.009875 
L 461.911708 -124.539165 
L 465.151146 -116.079354 
L 468.390584 -122.75387 
L 471.630022 -143.253895 
L 474.86946 -134.755686 
L 478.108898 -136.931549 
L 481.348336 -143.364228 
L 484.587774 -139.575283 
L 487.827213 -127.13784 
L 491.066651 -122.265784 
L 494.306089 -119.603105 
L 497.545527 -120.728134 
L 500.784965 -129.168405 
L 504.024403 -133.470766 
L 507.263841 -135.394379 
L 510.503279 -123.837173 
L 513.742717 -115.10892 
L 516.982155 -124.218007 
L 520.221594 -135.352787 
L 523.461032 -133.689622 
L 526.70047 -129.929894 
L 529.939908 -129.306184 
L 533.179346 -135.981674 
L 536.418784 -143.970296 
L 539.658222 -141.226614 
L 542.89766 -134.669717 
L 546.137098 -120.145743 
L 549.376536 -127.394684 
L 552.615975 -128.628521 
L 555.855413 -139.187349 
L 559.094851 -135.791745 
L 562.334289 -109.077183 
L 565.573727 -120.20771 
L 568.813165 -123.001424 
L 572.052603 -122.692703 
L 575.292041 -128.934356 
L 578.531479 -118.751482 
L 581.770917 -102.71222 
L 585.010355 -130.427624 
L 588.249794 -120.627195 
L 591.489232 -116.423846 
L 594.72867 -124.759704 
L 597.968108 -122.828285 
L 601.207546 -121.350412 
L 604.446984 -111.604871 
L 607.686422 -137.150645 
L 610.92586 -139.069524 
L 614.165298 -133.635353 
L 617.404736 -134.218941 
L 620.644175 -131.012694 
L 623.883613 -120.461872 
L 627.123051 -110.015759 
L 630.362489 -115.709742 
L 633.601927 -115.398287 
L 636.841365 -122.924623 
L 640.080803 -127.496575 
L 643.320241 -132.248533 
L 646.559679 -126.682811 
L 649.799117 -126.445345 
L 653.038556 -137.015825 
L 656.277994 -118.831632 
L 659.517432 -119.192167 
L 662.75687 -125.472081 
L 665.996308 -120.446148 
L 669.235746 -123.111298 
L 672.475184 -126.159605 
L 675.714622 -119.051073 
L 678.95406 -127.667403 
L 678.95406 -144.775297 
L 678.95406 -144.775297 
L 675.714622 -155.670857 
L 672.475184 -146.966864 
L 669.235746 -143.405405 
L 665.996308 -139.232865 
L 662.75687 -134.662777 
L 659.517432 -135.700463 
L 656.277994 -150.420146 
L 653.038556 -168.931554 
L 649.799117 -156.937658 
L 646.559679 -157.383961 
L 643.320241 -165.037772 
L 640.080803 -157.937735 
L 636.841365 -139.489466 
L 633.601927 -144.280725 
L 630.362489 -142.373809 
L 627.123051 -154.449636 
L 623.883613 -139.90091 
L 620.644175 -137.555315 
L 617.404736 -143.465987 
L 614.165298 -157.269109 
L 610.92586 -169.157084 
L 607.686422 -155.5772 
L 604.446984 -176.792438 
L 601.207546 -174.568355 
L 597.968108 -161.694333 
L 594.72867 -157.93953 
L 591.489232 -144.166858 
L 588.249794 -140.191433 
L 585.010355 -155.234609 
L 581.770917 -131.895264 
L 578.531479 -145.713913 
L 575.292041 -142.824575 
L 572.052603 -136.530463 
L 568.813165 -156.051042 
L 565.573727 -194.628665 
L 562.334289 -212.596882 
L 559.094851 -158.531561 
L 555.855413 -147.842422 
L 552.615975 -160.908403 
L 549.376536 -157.127934 
L 546.137098 -177.368485 
L 542.89766 -160.109435 
L 539.658222 -169.962993 
L 536.418784 -173.829077 
L 533.179346 -164.723476 
L 529.939908 -145.643668 
L 526.70047 -152.541417 
L 523.461032 -153.795995 
L 520.221594 -148.258139 
L 516.982155 -148.224693 
L 513.742717 -126.564176 
L 510.503279 -143.819144 
L 507.263841 -142.974318 
L 504.024403 -141.023241 
L 500.784965 -157.861365 
L 497.545527 -172.227634 
L 494.306089 -173.124741 
L 491.066651 -172.513369 
L 487.827213 -158.980239 
L 484.587774 -168.651325 
L 481.348336 -151.187001 
L 478.108898 -164.913215 
L 474.86946 -167.544925 
L 471.630022 -181.383169 
L 468.390584 -214.874803 
L 465.151146 -201.036251 
L 461.911708 -190.525133 
L 458.67227 -167.974505 
L 455.432832 -164.118921 
L 452.193394 -152.031531 
L 448.953955 -168.688796 
L 445.714517 -165.509996 
L 442.475079 -171.858088 
L 439.235641 -156.791293 
L 435.996203 -150.700651 
L 432.756765 -141.098008 
L 429.517327 -150.420985 
L 426.277889 -171.745647 
L 423.038451 -181.667965 
L 419.799013 -189.341895 
L 416.559574 -176.439656 
L 413.320136 -174.942848 
L 410.080698 -189.838617 
L 406.84126 -197.162366 
L 403.601822 -227.423891 
L 400.362384 -206.647684 
L 397.122946 -211.410783 
L 393.883508 -253.344299 
L 390.64407 -244.921448 
L 387.404632 -257.113555 
L 384.165193 -228.79514 
L 380.925755 -241.061646 
L 377.686317 -208.905032 
L 374.446879 -225.372931 
L 371.207441 -185.292329 
L 367.968003 -186.46022 
L 364.728565 -221.905163 
L 361.489127 -218.241385 
L 358.249689 -201.688217 
L 355.010251 -181.531265 
L 351.770813 -172.343013 
L 348.531374 -178.011693 
L 345.291936 -182.649318 
L 342.052498 -160.885852 
L 338.81306 -174.92369 
L 335.573622 -191.899248 
L 332.334184 -176.046264 
L 329.094746 -176.313233 
L 325.855308 -157.535026 
L 322.61587 -155.029378 
L 319.376432 -182.415697 
L 316.136993 -165.79898 
L 312.897555 -174.878367 
L 309.658117 -183.902608 
L 306.418679 -194.060828 
L 303.179241 -185.373928 
L 299.939803 -178.544026 
L 296.700365 -163.520205 
L 293.460927 -164.865435 
L 290.221489 -163.414272 
L 286.982051 -172.009853 
L 283.742612 -182.238877 
L 280.503174 -174.944999 
L 277.263736 -190.501338 
L 274.024298 -169.747561 
L 270.78486 -176.435988 
L 267.545422 -188.863133 
L 264.305984 -178.713755 
L 261.066546 -178.592627 
L 257.827108 -171.766646 
L 254.58767 -172.553743 
L 251.348231 -170.972077 
L 248.108793 -172.784826 
L 244.869355 -168.06676 
L 241.629917 -170.765778 
L 238.390479 -173.851784 
L 235.151041 -176.837865 
L 231.911603 -170.271153 
L 228.672165 -175.966641 
L 225.432727 -180.860845 
L 222.193289 -175.994309 
L 218.953851 -175.266671 
L 215.714412 -182.924364 
L 212.474974 -179.810271 
L 209.235536 -176.835705 
L 205.996098 -188.694072 
L 202.75666 -188.702623 
L 199.517222 -186.471904 
L 196.277784 -187.253849 
L 193.038346 -179.988259 
L 189.798908 -193.319587 
L 186.55947 -209.065886 
L 183.320031 -211.325247 
L 180.080593 -220.95822 
L 176.841155 -228.742478 
L 173.601717 -229.902079 
L 170.362279 -220.633576 
L 167.122841 -230.14557 
L 163.883403 -238.981928 
L 160.643965 -237.399455 
L 157.404527 -244.053408 
L 154.165089 -236.470734 
L 150.92565 -252.301265 
L 147.686212 -257.420896 
L 144.446774 -261.728225 
L 141.207336 -274.826889 
z
" style="stroke: #0000ff; stroke-opacity: 0.3"/>
    </defs>
    <g clip-path="url(#p115db60dbe)">
     <use xlink:href="#mbb2ce52009" x="0" y="432" style="fill: #0000ff; fill-opacity: 0.3; stroke: #0000ff; stroke-opacity: 0.3"/>
    </g>
   </g>
   <g id="PolyCollection_2">
    <defs>
     <path id="m5924dd9caf" d="M 141.207336 -272.416618 
L 141.207336 -271.254434 
L 144.446774 -257.098307 
L 147.686212 -246.342063 
L 150.92565 -236.962432 
L 154.165089 -234.270806 
L 157.404527 -229.167403 
L 160.643965 -228.580098 
L 163.883403 -220.543994 
L 167.122841 -218.551998 
L 170.362279 -217.558361 
L 173.601717 -202.646663 
L 176.841155 -202.785312 
L 180.080593 -216.615282 
L 183.320031 -206.700899 
L 186.55947 -192.322925 
L 189.798908 -201.992946 
L 193.038346 -206.381687 
L 196.277784 -201.375503 
L 199.517222 -202.635019 
L 202.75666 -208.538299 
L 205.996098 -199.185152 
L 209.235536 -202.443867 
L 212.474974 -207.524369 
L 215.714412 -218.211629 
L 218.953851 -228.424115 
L 222.193289 -232.116472 
L 225.432727 -231.440772 
L 228.672165 -223.833519 
L 231.911603 -211.239544 
L 235.151041 -226.573377 
L 238.390479 -220.860122 
L 241.629917 -223.298491 
L 244.869355 -208.818427 
L 248.108793 -216.328928 
L 251.348231 -207.447787 
L 254.58767 -231.135952 
L 257.827108 -221.184967 
L 261.066546 -219.518477 
L 264.305984 -234.788224 
L 267.545422 -212.026415 
L 270.78486 -194.231879 
L 274.024298 -194.997632 
L 277.263736 -203.763287 
L 280.503174 -214.96204 
L 283.742612 -199.024688 
L 286.982051 -220.377792 
L 290.221489 -221.10463 
L 293.460927 -217.720822 
L 296.700365 -229.688843 
L 299.939803 -230.034237 
L 303.179241 -229.175768 
L 306.418679 -203.558352 
L 309.658117 -210.900188 
L 312.897555 -200.640193 
L 316.136993 -198.218174 
L 319.376432 -194.610792 
L 322.61587 -204.436804 
L 325.855308 -198.729376 
L 329.094746 -217.926829 
L 332.334184 -226.019732 
L 335.573622 -211.771596 
L 338.81306 -201.780523 
L 342.052498 -191.067133 
L 345.291936 -216.546501 
L 348.531374 -217.416907 
L 351.770813 -219.930784 
L 355.010251 -215.883024 
L 358.249689 -209.346468 
L 361.489127 -213.392894 
L 364.728565 -198.020921 
L 367.968003 -199.220198 
L 371.207441 -205.7742 
L 374.446879 -206.266095 
L 377.686317 -222.313921 
L 380.925755 -198.648134 
L 384.165193 -183.235584 
L 387.404632 -195.516034 
L 390.64407 -191.739812 
L 393.883508 -183.942734 
L 397.122946 -200.523595 
L 400.362384 -183.582244 
L 403.601822 -184.714404 
L 406.84126 -175.198506 
L 410.080698 -206.490409 
L 413.320136 -220.950885 
L 416.559574 -203.285176 
L 419.799013 -210.956636 
L 423.038451 -226.258847 
L 426.277889 -217.083613 
L 429.517327 -217.887279 
L 432.756765 -217.820778 
L 435.996203 -201.544214 
L 439.235641 -216.932031 
L 442.475079 -208.503331 
L 445.714517 -198.125261 
L 448.953955 -197.367122 
L 452.193394 -203.121761 
L 455.432832 -210.556892 
L 458.67227 -208.089507 
L 461.911708 -223.234953 
L 465.151146 -205.337408 
L 468.390584 -188.39173 
L 471.630022 -181.305466 
L 474.86946 -173.380488 
L 478.108898 -181.424019 
L 481.348336 -193.424441 
L 484.587774 -190.195252 
L 487.827213 -206.948494 
L 491.066651 -200.631107 
L 494.306089 -203.62827 
L 497.545527 -186.308036 
L 500.784965 -180.13892 
L 504.024403 -178.095381 
L 507.263841 -177.544218 
L 510.503279 -179.038524 
L 513.742717 -201.010519 
L 516.982155 -199.261958 
L 520.221594 -195.787682 
L 523.461032 -194.695937 
L 526.70047 -198.068877 
L 529.939908 -172.836082 
L 533.179346 -175.507142 
L 536.418784 -193.639774 
L 539.658222 -181.631377 
L 542.89766 -181.769541 
L 546.137098 -217.910585 
L 549.376536 -225.487986 
L 552.615975 -238.486157 
L 555.855413 -249.648717 
L 559.094851 -228.278824 
L 562.334289 -203.554346 
L 565.573727 -194.5378 
L 568.813165 -186.477316 
L 572.052603 -187.451449 
L 575.292041 -197.987412 
L 578.531479 -216.867026 
L 581.770917 -205.388697 
L 585.010355 -202.442273 
L 588.249794 -199.578033 
L 591.489232 -207.50341 
L 594.72867 -205.118448 
L 597.968108 -229.668883 
L 601.207546 -223.405454 
L 604.446984 -233.083871 
L 607.686422 -218.266074 
L 610.92586 -210.687868 
L 614.165298 -200.546558 
L 617.404736 -201.723432 
L 620.644175 -232.223483 
L 623.883613 -238.807384 
L 627.123051 -245.918311 
L 630.362489 -234.544408 
L 633.601927 -250.439713 
L 636.841365 -234.146645 
L 640.080803 -238.831528 
L 643.320241 -242.589788 
L 646.559679 -250.624327 
L 649.799117 -242.894907 
L 653.038556 -222.873686 
L 656.277994 -229.332788 
L 659.517432 -229.042247 
L 662.75687 -220.430664 
L 665.996308 -219.47184 
L 669.235746 -231.164648 
L 672.475184 -228.192495 
L 675.714622 -221.587944 
L 678.95406 -220.001463 
L 678.95406 -264.409612 
L 678.95406 -264.409612 
L 675.714622 -255.985442 
L 672.475184 -265.107576 
L 669.235746 -249.599659 
L 665.996308 -253.543086 
L 662.75687 -261.473259 
L 659.517432 -295.027427 
L 656.277994 -279.693969 
L 653.038556 -269.970539 
L 649.799117 -282.314383 
L 646.559679 -276.864192 
L 643.320241 -290.368883 
L 640.080803 -298.45768 
L 636.841365 -307.928945 
L 633.601927 -294.8268 
L 630.362489 -262.858278 
L 627.123051 -254.903219 
L 623.883613 -264.521299 
L 620.644175 -271.788969 
L 617.404736 -245.080351 
L 614.165298 -251.499454 
L 610.92586 -256.40106 
L 607.686422 -256.11639 
L 604.446984 -254.973972 
L 601.207546 -230.691864 
L 597.968108 -258.844806 
L 594.72867 -272.454937 
L 591.489232 -264.599824 
L 588.249794 -274.348585 
L 585.010355 -266.697962 
L 581.770917 -257.141772 
L 578.531479 -251.817364 
L 575.292041 -258.844983 
L 572.052603 -258.896488 
L 568.813165 -272.862231 
L 565.573727 -270.043976 
L 562.334289 -261.939122 
L 559.094851 -269.351785 
L 555.855413 -267.811191 
L 552.615975 -258.23276 
L 549.376536 -253.452938 
L 546.137098 -265.816721 
L 542.89766 -253.866016 
L 539.658222 -273.833479 
L 536.418784 -278.007615 
L 533.179346 -279.273946 
L 529.939908 -261.887783 
L 526.70047 -274.718126 
L 523.461032 -266.239071 
L 520.221594 -249.192717 
L 516.982155 -237.741136 
L 513.742717 -227.787348 
L 510.503279 -236.083964 
L 507.263841 -230.512657 
L 504.024403 -250.018717 
L 500.784965 -251.1661 
L 497.545527 -276.678278 
L 494.306089 -260.953506 
L 491.066651 -259.164286 
L 487.827213 -260.824204 
L 484.587774 -267.548834 
L 481.348336 -258.621571 
L 478.108898 -246.00631 
L 474.86946 -247.667998 
L 471.630022 -257.293089 
L 468.390584 -257.728284 
L 465.151146 -252.406678 
L 461.911708 -237.016286 
L 458.67227 -236.890892 
L 455.432832 -243.540427 
L 452.193394 -231.602104 
L 448.953955 -236.217128 
L 445.714517 -216.313458 
L 442.475079 -219.154921 
L 439.235641 -231.923058 
L 435.996203 -243.436185 
L 432.756765 -226.475852 
L 429.517327 -224.358044 
L 426.277889 -221.514942 
L 423.038451 -242.653466 
L 419.799013 -265.249212 
L 416.559574 -264.031676 
L 413.320136 -248.18935 
L 410.080698 -230.968531 
L 406.84126 -242.203212 
L 403.601822 -239.297081 
L 400.362384 -260.030617 
L 397.122946 -272.947177 
L 393.883508 -272.433814 
L 390.64407 -271.474426 
L 387.404632 -267.698204 
L 384.165193 -254.907125 
L 380.925755 -261.147259 
L 377.686317 -265.515999 
L 374.446879 -246.919531 
L 371.207441 -252.197809 
L 367.968003 -241.429664 
L 364.728565 -236.019175 
L 361.489127 -227.940738 
L 358.249689 -226.061166 
L 355.010251 -225.906454 
L 351.770813 -237.129533 
L 348.531374 -241.694717 
L 345.291936 -250.314505 
L 342.052498 -241.605425 
L 338.81306 -241.148569 
L 335.573622 -238.906878 
L 332.334184 -245.85558 
L 329.094746 -244.375717 
L 325.855308 -220.723649 
L 322.61587 -223.905217 
L 319.376432 -238.745534 
L 316.136993 -249.4973 
L 312.897555 -237.958362 
L 309.658117 -242.513361 
L 306.418679 -241.877893 
L 303.179241 -245.890465 
L 299.939803 -239.789767 
L 296.700365 -234.437087 
L 293.460927 -243.670032 
L 290.221489 -248.491452 
L 286.982051 -238.505909 
L 283.742612 -229.773179 
L 280.503174 -230.474205 
L 277.263736 -217.057275 
L 274.024298 -216.478088 
L 270.78486 -225.676992 
L 267.545422 -227.711756 
L 264.305984 -248.027391 
L 261.066546 -244.835376 
L 257.827108 -231.544813 
L 254.58767 -243.018589 
L 251.348231 -233.202076 
L 248.108793 -244.606079 
L 244.869355 -244.823045 
L 241.629917 -235.58521 
L 238.390479 -230.274197 
L 235.151041 -245.301935 
L 231.911603 -249.923386 
L 228.672165 -263.540555 
L 225.432727 -277.358062 
L 222.193289 -246.140683 
L 218.953851 -244.818734 
L 215.714412 -248.649376 
L 212.474974 -239.963183 
L 209.235536 -222.707233 
L 205.996098 -240.780941 
L 202.75666 -233.707024 
L 199.517222 -237.786921 
L 196.277784 -230.385363 
L 193.038346 -247.715632 
L 189.798908 -237.289379 
L 186.55947 -260.178932 
L 183.320031 -247.624342 
L 180.080593 -229.276809 
L 176.841155 -230.115169 
L 173.601717 -226.379127 
L 170.362279 -223.775271 
L 167.122841 -241.927164 
L 163.883403 -241.074783 
L 160.643965 -239.192599 
L 157.404527 -251.824828 
L 154.165089 -262.903957 
L 150.92565 -251.77918 
L 147.686212 -260.861311 
L 144.446774 -274.720749 
L 141.207336 -272.416618 
z
" style="stroke: #008000; stroke-opacity: 0.3"/>
    </defs>
    <g clip-path="url(#p115db60dbe)">
     <use xlink:href="#m5924dd9caf" x="0" y="432" style="fill: #008000; fill-opacity: 0.3; stroke: #008000; stroke-opacity: 0.3"/>
    </g>
   </g>
   <g id="PolyCollection_3">
    <defs>
     <path id="m6b3e1bdaed" d="M 141.207336 -381.716239 
L 141.207336 -375.746571 
L 144.446774 -376.682577 
L 147.686212 -375.893258 
L 150.92565 -370.914069 
L 154.165089 -371.285629 
L 157.404527 -367.196647 
L 160.643965 -371.640776 
L 163.883403 -371.576044 
L 167.122841 -368.814382 
L 170.362279 -359.786672 
L 173.601717 -351.327396 
L 176.841155 -357.111493 
L 180.080593 -364.652083 
L 183.320031 -347.080051 
L 186.55947 -336.239607 
L 189.798908 -332.913557 
L 193.038346 -330.457302 
L 196.277784 -345.239202 
L 199.517222 -331.84854 
L 202.75666 -319.391429 
L 205.996098 -324.358075 
L 209.235536 -319.609001 
L 212.474974 -313.756044 
L 215.714412 -309.238976 
L 218.953851 -299.87483 
L 222.193289 -298.520407 
L 225.432727 -300.093317 
L 228.672165 -280.410821 
L 231.911603 -278.430945 
L 235.151041 -285.126874 
L 238.390479 -274.699234 
L 241.629917 -263.039932 
L 244.869355 -248.484721 
L 248.108793 -254.573461 
L 251.348231 -239.088773 
L 254.58767 -229.046049 
L 257.827108 -218.850104 
L 261.066546 -216.973426 
L 264.305984 -206.022089 
L 267.545422 -209.013009 
L 270.78486 -221.741201 
L 274.024298 -239.519371 
L 277.263736 -240.839534 
L 280.503174 -239.397794 
L 283.742612 -240.689188 
L 286.982051 -206.279929 
L 290.221489 -198.417715 
L 293.460927 -201.962823 
L 296.700365 -202.577711 
L 299.939803 -216.297896 
L 303.179241 -199.670372 
L 306.418679 -201.362982 
L 309.658117 -212.984971 
L 312.897555 -214.327189 
L 316.136993 -211.879977 
L 319.376432 -191.888483 
L 322.61587 -193.903724 
L 325.855308 -180.294629 
L 329.094746 -189.711467 
L 332.334184 -196.535625 
L 335.573622 -205.279015 
L 338.81306 -181.228396 
L 342.052498 -192.685648 
L 345.291936 -177.522377 
L 348.531374 -195.332645 
L 351.770813 -188.033057 
L 355.010251 -185.011297 
L 358.249689 -192.986541 
L 361.489127 -176.42869 
L 364.728565 -179.395433 
L 367.968003 -199.170978 
L 371.207441 -188.978024 
L 374.446879 -202.286979 
L 377.686317 -174.201095 
L 380.925755 -190.300649 
L 384.165193 -202.484877 
L 387.404632 -186.568629 
L 390.64407 -172.432822 
L 393.883508 -172.979678 
L 397.122946 -188.272945 
L 400.362384 -185.387385 
L 403.601822 -173.746244 
L 406.84126 -167.238954 
L 410.080698 -178.722309 
L 413.320136 -154.164845 
L 416.559574 -150.486708 
L 419.799013 -162.400572 
L 423.038451 -152.570362 
L 426.277889 -157.877925 
L 429.517327 -142.305637 
L 432.756765 -146.37781 
L 435.996203 -141.676765 
L 439.235641 -151.468234 
L 442.475079 -138.281886 
L 445.714517 -128.142045 
L 448.953955 -121.126133 
L 452.193394 -130.54218 
L 455.432832 -128.83253 
L 458.67227 -122.249801 
L 461.911708 -134.418771 
L 465.151146 -144.943629 
L 468.390584 -135.399891 
L 471.630022 -141.642618 
L 474.86946 -125.447264 
L 478.108898 -108.514154 
L 481.348336 -116.278584 
L 484.587774 -125.030246 
L 487.827213 -120.946645 
L 491.066651 -122.00711 
L 494.306089 -134.244206 
L 497.545527 -125.40875 
L 500.784965 -124.995246 
L 504.024403 -135.717482 
L 507.263841 -132.660156 
L 510.503279 -151.423964 
L 513.742717 -136.416485 
L 516.982155 -133.608204 
L 520.221594 -129.08495 
L 523.461032 -130.399525 
L 526.70047 -128.494031 
L 529.939908 -149.861866 
L 533.179346 -162.868442 
L 536.418784 -150.233534 
L 539.658222 -165.52145 
L 542.89766 -143.399662 
L 546.137098 -162.634657 
L 549.376536 -147.14666 
L 552.615975 -137.775365 
L 555.855413 -137.361059 
L 559.094851 -126.562142 
L 562.334289 -123.044391 
L 565.573727 -122.769459 
L 568.813165 -117.996922 
L 572.052603 -115.908564 
L 575.292041 -110.530425 
L 578.531479 -122.911695 
L 581.770917 -120.090171 
L 585.010355 -126.372412 
L 588.249794 -122.958004 
L 591.489232 -113.506433 
L 594.72867 -130.264478 
L 597.968108 -136.700639 
L 601.207546 -137.33749 
L 604.446984 -127.598626 
L 607.686422 -136.615896 
L 610.92586 -128.085413 
L 614.165298 -122.520682 
L 617.404736 -140.312793 
L 620.644175 -133.384113 
L 623.883613 -140.872804 
L 627.123051 -137.226874 
L 630.362489 -145.669405 
L 633.601927 -133.994797 
L 636.841365 -127.714795 
L 640.080803 -137.778666 
L 643.320241 -130.045015 
L 646.559679 -139.867799 
L 649.799117 -137.069561 
L 653.038556 -137.24111 
L 656.277994 -143.507535 
L 659.517432 -139.825529 
L 662.75687 -140.635219 
L 665.996308 -152.088478 
L 669.235746 -157.614932 
L 672.475184 -167.133631 
L 675.714622 -141.058152 
L 678.95406 -148.250782 
L 678.95406 -172.739513 
L 678.95406 -172.739513 
L 675.714622 -180.160066 
L 672.475184 -170.722966 
L 669.235746 -171.808514 
L 665.996308 -161.380359 
L 662.75687 -158.47447 
L 659.517432 -174.327077 
L 656.277994 -171.784686 
L 653.038556 -157.082196 
L 649.799117 -164.547281 
L 646.559679 -180.66665 
L 643.320241 -193.22451 
L 640.080803 -211.018234 
L 636.841365 -193.959269 
L 633.601927 -181.525347 
L 630.362489 -194.010575 
L 627.123051 -197.894647 
L 623.883613 -210.887094 
L 620.644175 -223.618014 
L 617.404736 -210.079568 
L 614.165298 -220.122297 
L 610.92586 -204.301032 
L 607.686422 -226.084305 
L 604.446984 -215.272276 
L 601.207546 -216.473715 
L 597.968108 -265.202316 
L 594.72867 -260.698173 
L 591.489232 -286.801061 
L 588.249794 -280.996258 
L 585.010355 -287.382538 
L 581.770917 -285.687474 
L 578.531479 -294.490023 
L 575.292041 -300.717372 
L 572.052603 -300.125616 
L 568.813165 -293.250875 
L 565.573727 -277.993881 
L 562.334289 -272.476721 
L 559.094851 -272.83366 
L 555.855413 -274.79843 
L 552.615975 -270.053587 
L 549.376536 -259.7706 
L 546.137098 -267.530748 
L 542.89766 -277.192978 
L 539.658222 -286.752484 
L 536.418784 -290.872174 
L 533.179346 -296.699028 
L 529.939908 -294.434764 
L 526.70047 -280.930382 
L 523.461032 -285.634655 
L 520.221594 -281.251155 
L 516.982155 -306.357889 
L 513.742717 -319.048372 
L 510.503279 -319.767578 
L 507.263841 -330.782005 
L 504.024403 -324.533757 
L 500.784965 -324.087767 
L 497.545527 -331.423644 
L 494.306089 -329.425878 
L 491.066651 -344.39805 
L 487.827213 -329.275983 
L 484.587774 -332.257994 
L 481.348336 -325.966739 
L 478.108898 -328.944787 
L 474.86946 -333.66436 
L 471.630022 -344.135996 
L 468.390584 -340.122188 
L 465.151146 -342.430445 
L 461.911708 -335.405234 
L 458.67227 -317.944215 
L 455.432832 -319.338791 
L 452.193394 -321.503831 
L 448.953955 -321.575036 
L 445.714517 -321.396813 
L 442.475079 -332.45381 
L 439.235641 -336.361686 
L 435.996203 -332.933622 
L 432.756765 -336.209882 
L 429.517327 -341.193746 
L 426.277889 -344.766989 
L 423.038451 -332.29656 
L 419.799013 -332.494961 
L 416.559574 -334.608137 
L 413.320136 -335.032613 
L 410.080698 -328.481065 
L 406.84126 -319.223428 
L 403.601822 -317.730444 
L 400.362384 -325.006911 
L 397.122946 -329.414886 
L 393.883508 -331.716542 
L 390.64407 -332.719245 
L 387.404632 -331.802971 
L 384.165193 -324.547797 
L 380.925755 -321.689107 
L 377.686317 -324.569128 
L 374.446879 -321.098927 
L 371.207441 -310.248046 
L 367.968003 -320.56816 
L 364.728565 -309.118256 
L 361.489127 -318.23892 
L 358.249689 -305.327836 
L 355.010251 -310.112159 
L 351.770813 -321.221623 
L 348.531374 -320.303879 
L 345.291936 -340.6213 
L 342.052498 -320.899569 
L 338.81306 -340.562049 
L 335.573622 -339.531651 
L 332.334184 -327.53405 
L 329.094746 -349.173202 
L 325.855308 -341.03997 
L 322.61587 -353.869941 
L 319.376432 -343.805264 
L 316.136993 -351.620374 
L 312.897555 -354.871236 
L 309.658117 -380.601214 
L 306.418679 -366.01206 
L 303.179241 -376.13782 
L 299.939803 -354.723914 
L 296.700365 -345.195954 
L 293.460927 -353.560224 
L 290.221489 -343.885799 
L 286.982051 -336.935276 
L 283.742612 -348.794383 
L 280.503174 -348.490316 
L 277.263736 -359.356418 
L 274.024298 -354.978505 
L 270.78486 -353.611145 
L 267.545422 -349.245114 
L 264.305984 -355.199032 
L 261.066546 -360.202304 
L 257.827108 -362.884086 
L 254.58767 -348.81345 
L 251.348231 -352.674028 
L 248.108793 -356.106947 
L 244.869355 -356.497613 
L 241.629917 -367.925622 
L 238.390479 -366.750778 
L 235.151041 -376.38036 
L 231.911603 -371.68014 
L 228.672165 -362.406729 
L 225.432727 -372.582143 
L 222.193289 -368.912825 
L 218.953851 -375.991552 
L 215.714412 -362.068947 
L 212.474974 -360.286955 
L 209.235536 -364.690531 
L 205.996098 -360.397304 
L 202.75666 -359.893798 
L 199.517222 -357.465299 
L 196.277784 -359.801322 
L 193.038346 -364.326688 
L 189.798908 -364.605509 
L 186.55947 -360.823613 
L 183.320031 -356.592935 
L 180.080593 -379.363272 
L 176.841155 -370.949253 
L 173.601717 -373.086582 
L 170.362279 -374.655917 
L 167.122841 -379.759433 
L 163.883403 -386.570536 
L 160.643965 -383.086959 
L 157.404527 -380.921321 
L 154.165089 -381.162876 
L 150.92565 -394.298123 
L 147.686212 -396.156624 
L 144.446774 -387.162078 
L 141.207336 -381.716239 
z
" style="stroke: #ff0000; stroke-opacity: 0.3"/>
    </defs>
    <g clip-path="url(#p115db60dbe)">
     <use xlink:href="#m6b3e1bdaed" x="0" y="432" style="fill: #ff0000; fill-opacity: 0.3; stroke: #ff0000; stroke-opacity: 0.3"/>
    </g>
   </g>
   <g id="PolyCollection_4">
    <defs>
     <path id="m128597021a" d="M 141.207336 -387.63393 
L 141.207336 -382.820491 
L 144.446774 -372.68545 
L 147.686212 -371.782754 
L 150.92565 -366.456296 
L 154.165089 -360.048506 
L 157.404527 -359.524042 
L 160.643965 -359.630136 
L 163.883403 -354.436835 
L 167.122841 -356.374763 
L 170.362279 -348.071862 
L 173.601717 -349.612745 
L 176.841155 -354.563872 
L 180.080593 -340.870403 
L 183.320031 -342.030292 
L 186.55947 -349.550506 
L 189.798908 -343.358882 
L 193.038346 -347.002309 
L 196.277784 -348.11026 
L 199.517222 -358.32519 
L 202.75666 -355.877886 
L 205.996098 -364.230096 
L 209.235536 -352.624057 
L 212.474974 -354.761366 
L 215.714412 -361.213073 
L 218.953851 -364.479598 
L 222.193289 -356.318613 
L 225.432727 -360.376306 
L 228.672165 -347.120052 
L 231.911603 -346.55479 
L 235.151041 -348.969442 
L 238.390479 -347.881026 
L 241.629917 -349.113301 
L 244.869355 -349.194342 
L 248.108793 -359.275044 
L 251.348231 -344.445767 
L 254.58767 -350.220698 
L 257.827108 -352.595258 
L 261.066546 -348.454876 
L 264.305984 -350.579119 
L 267.545422 -347.475526 
L 270.78486 -344.243646 
L 274.024298 -339.237463 
L 277.263736 -335.517861 
L 280.503174 -343.178775 
L 283.742612 -336.114191 
L 286.982051 -327.958541 
L 290.221489 -341.058385 
L 293.460927 -322.898046 
L 296.700365 -324.135605 
L 299.939803 -326.22418 
L 303.179241 -335.944215 
L 306.418679 -335.412732 
L 309.658117 -340.446281 
L 312.897555 -335.975512 
L 316.136993 -348.915506 
L 319.376432 -340.965062 
L 322.61587 -345.887544 
L 325.855308 -328.390149 
L 329.094746 -328.877584 
L 332.334184 -324.074467 
L 335.573622 -330.168328 
L 338.81306 -340.142383 
L 342.052498 -326.390085 
L 345.291936 -335.323477 
L 348.531374 -330.890315 
L 351.770813 -337.162332 
L 355.010251 -334.581965 
L 358.249689 -340.281057 
L 361.489127 -340.278901 
L 364.728565 -340.86548 
L 367.968003 -346.992176 
L 371.207441 -353.47661 
L 374.446879 -351.345995 
L 377.686317 -351.103916 
L 380.925755 -351.454858 
L 384.165193 -340.2388 
L 387.404632 -342.75219 
L 390.64407 -345.958098 
L 393.883508 -342.427645 
L 397.122946 -335.902342 
L 400.362384 -326.259336 
L 403.601822 -323.602175 
L 406.84126 -331.134594 
L 410.080698 -331.152573 
L 413.320136 -321.014537 
L 416.559574 -320.09595 
L 419.799013 -322.542804 
L 423.038451 -317.573628 
L 426.277889 -304.218085 
L 429.517327 -325.668033 
L 432.756765 -322.238778 
L 435.996203 -323.458355 
L 439.235641 -307.144327 
L 442.475079 -319.481797 
L 445.714517 -318.914097 
L 448.953955 -328.204131 
L 452.193394 -318.9869 
L 455.432832 -327.152676 
L 458.67227 -322.370385 
L 461.911708 -311.699272 
L 465.151146 -320.002258 
L 468.390584 -320.25018 
L 471.630022 -328.068165 
L 474.86946 -309.794297 
L 478.108898 -318.989943 
L 481.348336 -310.357602 
L 484.587774 -327.333838 
L 487.827213 -317.799445 
L 491.066651 -305.498463 
L 494.306089 -314.220159 
L 497.545527 -321.369794 
L 500.784965 -329.243663 
L 504.024403 -329.269468 
L 507.263841 -315.506388 
L 510.503279 -328.302401 
L 513.742717 -322.738146 
L 516.982155 -328.416769 
L 520.221594 -313.982498 
L 523.461032 -320.233034 
L 526.70047 -308.422303 
L 529.939908 -298.641251 
L 533.179346 -311.785724 
L 536.418784 -318.138762 
L 539.658222 -315.254242 
L 542.89766 -326.628353 
L 546.137098 -331.989162 
L 549.376536 -331.099494 
L 552.615975 -339.927699 
L 555.855413 -337.793418 
L 559.094851 -329.413688 
L 562.334289 -331.402429 
L 565.573727 -328.705567 
L 568.813165 -323.207756 
L 572.052603 -313.916222 
L 575.292041 -314.885504 
L 578.531479 -323.694975 
L 581.770917 -311.607733 
L 585.010355 -315.334482 
L 588.249794 -324.587319 
L 591.489232 -314.818671 
L 594.72867 -322.091667 
L 597.968108 -328.383247 
L 601.207546 -324.318523 
L 604.446984 -320.433547 
L 607.686422 -319.670069 
L 610.92586 -320.851359 
L 614.165298 -325.856742 
L 617.404736 -328.195305 
L 620.644175 -326.990696 
L 623.883613 -330.536529 
L 627.123051 -329.324821 
L 630.362489 -322.050139 
L 633.601927 -315.326417 
L 636.841365 -308.563236 
L 640.080803 -316.397766 
L 643.320241 -310.432375 
L 646.559679 -311.798921 
L 649.799117 -301.668663 
L 653.038556 -292.126118 
L 656.277994 -299.918873 
L 659.517432 -304.724225 
L 662.75687 -296.80932 
L 665.996308 -307.318042 
L 669.235746 -310.503938 
L 672.475184 -317.078826 
L 675.714622 -301.53913 
L 678.95406 -311.891023 
L 678.95406 -363.063667 
L 678.95406 -363.063667 
L 675.714622 -368.857101 
L 672.475184 -361.29471 
L 669.235746 -368.325443 
L 665.996308 -352.821654 
L 662.75687 -362.418684 
L 659.517432 -367.49539 
L 656.277994 -366.374744 
L 653.038556 -354.110276 
L 649.799117 -352.545035 
L 646.559679 -361.560308 
L 643.320241 -361.559316 
L 640.080803 -371.548535 
L 636.841365 -367.986915 
L 633.601927 -368.973116 
L 630.362489 -366.807853 
L 627.123051 -365.003323 
L 623.883613 -358.09354 
L 620.644175 -362.551065 
L 617.404736 -359.978918 
L 614.165298 -352.060947 
L 610.92586 -357.522177 
L 607.686422 -343.204703 
L 604.446984 -347.683454 
L 601.207546 -346.077708 
L 597.968108 -346.571444 
L 594.72867 -336.908414 
L 591.489232 -341.218411 
L 588.249794 -340.33876 
L 585.010355 -342.981831 
L 581.770917 -348.304041 
L 578.531479 -355.362329 
L 575.292041 -353.687342 
L 572.052603 -347.135166 
L 568.813165 -356.76124 
L 565.573727 -360.608272 
L 562.334289 -370.447173 
L 559.094851 -372.663838 
L 555.855413 -372.033489 
L 552.615975 -357.81929 
L 549.376536 -366.875417 
L 546.137098 -359.375984 
L 542.89766 -366.788099 
L 539.658222 -357.649142 
L 536.418784 -357.955544 
L 533.179346 -374.337193 
L 529.939908 -373.578363 
L 526.70047 -364.025235 
L 523.461032 -365.206114 
L 520.221594 -356.18581 
L 516.982155 -364.087991 
L 513.742717 -362.928925 
L 510.503279 -350.071134 
L 507.263841 -360.587918 
L 504.024403 -348.876144 
L 500.784965 -352.092871 
L 497.545527 -346.063438 
L 494.306089 -342.956539 
L 491.066651 -348.25939 
L 487.827213 -330.944102 
L 484.587774 -341.239008 
L 481.348336 -339.753483 
L 478.108898 -339.782216 
L 474.86946 -332.795329 
L 471.630022 -338.225452 
L 468.390584 -346.27136 
L 465.151146 -340.365362 
L 461.911708 -343.654042 
L 458.67227 -336.629696 
L 455.432832 -357.146856 
L 452.193394 -348.446332 
L 448.953955 -340.824562 
L 445.714517 -333.476218 
L 442.475079 -334.503979 
L 439.235641 -338.180375 
L 435.996203 -338.504725 
L 432.756765 -337.900918 
L 429.517327 -352.705502 
L 426.277889 -350.223537 
L 423.038451 -354.645986 
L 419.799013 -357.426192 
L 416.559574 -353.035356 
L 413.320136 -361.005766 
L 410.080698 -367.050262 
L 406.84126 -371.626701 
L 403.601822 -375.740274 
L 400.362384 -359.179811 
L 397.122946 -365.719338 
L 393.883508 -367.855108 
L 390.64407 -365.008424 
L 387.404632 -361.832489 
L 384.165193 -361.38288 
L 380.925755 -372.731197 
L 377.686317 -367.384064 
L 374.446879 -371.244599 
L 371.207441 -376.40752 
L 367.968003 -370.812036 
L 364.728565 -378.534192 
L 361.489127 -373.422696 
L 358.249689 -378.434847 
L 355.010251 -376.384557 
L 351.770813 -376.767189 
L 348.531374 -367.996289 
L 345.291936 -370.62874 
L 342.052498 -370.901058 
L 338.81306 -371.735831 
L 335.573622 -374.644273 
L 332.334184 -376.179675 
L 329.094746 -371.604481 
L 325.855308 -371.180224 
L 322.61587 -358.925057 
L 319.376432 -360.88454 
L 316.136993 -364.330246 
L 312.897555 -361.543554 
L 309.658117 -362.315013 
L 306.418679 -359.827104 
L 303.179241 -365.677465 
L 299.939803 -352.149355 
L 296.700365 -358.79639 
L 293.460927 -352.968336 
L 290.221489 -358.511988 
L 286.982051 -352.694224 
L 283.742612 -359.809414 
L 280.503174 -347.046756 
L 277.263736 -360.177821 
L 274.024298 -363.523831 
L 270.78486 -372.876797 
L 267.545422 -367.137764 
L 264.305984 -371.099783 
L 261.066546 -352.255112 
L 257.827108 -359.966725 
L 254.58767 -375.788741 
L 251.348231 -367.66037 
L 248.108793 -367.190241 
L 244.869355 -370.20533 
L 241.629917 -360.029837 
L 238.390479 -367.416033 
L 235.151041 -367.011386 
L 231.911603 -363.044194 
L 228.672165 -363.390624 
L 225.432727 -369.279901 
L 222.193289 -364.220674 
L 218.953851 -374.293528 
L 215.714412 -373.457439 
L 212.474974 -375.578609 
L 209.235536 -365.408078 
L 205.996098 -367.021571 
L 202.75666 -361.242556 
L 199.517222 -361.986175 
L 196.277784 -368.782259 
L 193.038346 -367.155135 
L 189.798908 -349.829647 
L 186.55947 -363.011476 
L 183.320031 -363.238155 
L 180.080593 -367.588966 
L 176.841155 -371.445566 
L 173.601717 -364.772622 
L 170.362279 -364.718044 
L 167.122841 -370.546368 
L 163.883403 -368.837528 
L 160.643965 -375.724146 
L 157.404527 -374.918548 
L 154.165089 -379.180466 
L 150.92565 -383.485056 
L 147.686212 -380.437828 
L 144.446774 -390.019589 
L 141.207336 -387.63393 
z
" style="stroke: #ffa500; stroke-opacity: 0.3"/>
    </defs>
    <g clip-path="url(#p115db60dbe)">
     <use xlink:href="#m128597021a" x="0" y="432" style="fill: #ffa500; fill-opacity: 0.3; stroke: #ffa500; stroke-opacity: 0.3"/>
    </g>
   </g>
   <g id="matplotlib.axis_1">
    <g id="xtick_1">
     <g id="line2d_1">
      <defs>
       <path id="me7e6ffb369" d="M 0 0 
L 0 3.5 
" style="stroke: #000000; stroke-width: 0.8"/>
      </defs>
      <g>
       <use xlink:href="#me7e6ffb369" x="141.207336" y="343.96" style="stroke: #000000; stroke-width: 0.8"/>
      </g>
     </g>
     <g id="text_1">
      <!-- 0 -->
      <g transform="translate(132.299836 372.235625) scale(0.28 -0.28)">
       <defs>
        <path id="DejaVuSans-30" d="M 2034 4250 
Q 1547 4250 1301 3770 
Q 1056 3291 1056 2328 
Q 1056 1369 1301 889 
Q 1547 409 2034 409 
Q 2525 409 2770 889 
Q 3016 1369 3016 2328 
Q 3016 3291 2770 3770 
Q 2525 4250 2034 4250 
z
M 2034 4750 
Q 2819 4750 3233 4129 
Q 3647 3509 3647 2328 
Q 3647 1150 3233 529 
Q 2819 -91 2034 -91 
Q 1250 -91 836 529 
Q 422 1150 422 2328 
Q 422 3509 836 4129 
Q 1250 4750 2034 4750 
z
" transform="scale(0.015625)"/>
       </defs>
       <use xlink:href="#DejaVuSans-30"/>
      </g>
     </g>
    </g>
    <g id="xtick_2">
     <g id="line2d_2">
      <g>
       <use xlink:href="#me7e6ffb369" x="249.188606" y="343.96" style="stroke: #000000; stroke-width: 0.8"/>
      </g>
     </g>
     <g id="text_2">
      <!-- 100 -->
      <g transform="translate(222.466106 372.235625) scale(0.28 -0.28)">
       <defs>
        <path id="DejaVuSans-31" d="M 794 531 
L 1825 531 
L 1825 4091 
L 703 3866 
L 703 4441 
L 1819 4666 
L 2450 4666 
L 2450 531 
L 3481 531 
L 3481 0 
L 794 0 
L 794 531 
z
" transform="scale(0.015625)"/>
       </defs>
       <use xlink:href="#DejaVuSans-31"/>
       <use xlink:href="#DejaVuSans-30" x="63.623047"/>
       <use xlink:href="#DejaVuSans-30" x="127.246094"/>
      </g>
     </g>
    </g>
    <g id="xtick_3">
     <g id="line2d_3">
      <g>
       <use xlink:href="#me7e6ffb369" x="357.169876" y="343.96" style="stroke: #000000; stroke-width: 0.8"/>
      </g>
     </g>
     <g id="text_3">
      <!-- 200 -->
      <g transform="translate(330.447376 372.235625) scale(0.28 -0.28)">
       <defs>
        <path id="DejaVuSans-32" d="M 1228 531 
L 3431 531 
L 3431 0 
L 469 0 
L 469 531 
Q 828 903 1448 1529 
Q 2069 2156 2228 2338 
Q 2531 2678 2651 2914 
Q 2772 3150 2772 3378 
Q 2772 3750 2511 3984 
Q 2250 4219 1831 4219 
Q 1534 4219 1204 4116 
Q 875 4013 500 3803 
L 500 4441 
Q 881 4594 1212 4672 
Q 1544 4750 1819 4750 
Q 2544 4750 2975 4387 
Q 3406 4025 3406 3419 
Q 3406 3131 3298 2873 
Q 3191 2616 2906 2266 
Q 2828 2175 2409 1742 
Q 1991 1309 1228 531 
z
" transform="scale(0.015625)"/>
       </defs>
       <use xlink:href="#DejaVuSans-32"/>
       <use xlink:href="#DejaVuSans-30" x="63.623047"/>
       <use xlink:href="#DejaVuSans-30" x="127.246094"/>
      </g>
     </g>
    </g>
    <g id="xtick_4">
     <g id="line2d_4">
      <g>
       <use xlink:href="#me7e6ffb369" x="465.151146" y="343.96" style="stroke: #000000; stroke-width: 0.8"/>
      </g>
     </g>
     <g id="text_4">
      <!-- 300 -->
      <g transform="translate(438.428646 372.235625) scale(0.28 -0.28)">
       <defs>
        <path id="DejaVuSans-33" d="M 2597 2516 
Q 3050 2419 3304 2112 
Q 3559 1806 3559 1356 
Q 3559 666 3084 287 
Q 2609 -91 1734 -91 
Q 1441 -91 1130 -33 
Q 819 25 488 141 
L 488 750 
Q 750 597 1062 519 
Q 1375 441 1716 441 
Q 2309 441 2620 675 
Q 2931 909 2931 1356 
Q 2931 1769 2642 2001 
Q 2353 2234 1838 2234 
L 1294 2234 
L 1294 2753 
L 1863 2753 
Q 2328 2753 2575 2939 
Q 2822 3125 2822 3475 
Q 2822 3834 2567 4026 
Q 2313 4219 1838 4219 
Q 1578 4219 1281 4162 
Q 984 4106 628 3988 
L 628 4550 
Q 988 4650 1302 4700 
Q 1616 4750 1894 4750 
Q 2613 4750 3031 4423 
Q 3450 4097 3450 3541 
Q 3450 3153 3228 2886 
Q 3006 2619 2597 2516 
z
" transform="scale(0.015625)"/>
       </defs>
       <use xlink:href="#DejaVuSans-33"/>
       <use xlink:href="#DejaVuSans-30" x="63.623047"/>
       <use xlink:href="#DejaVuSans-30" x="127.246094"/>
      </g>
     </g>
    </g>
    <g id="xtick_5">
     <g id="line2d_5">
      <g>
       <use xlink:href="#me7e6ffb369" x="573.132416" y="343.96" style="stroke: #000000; stroke-width: 0.8"/>
      </g>
     </g>
     <g id="text_5">
      <!-- 400 -->
      <g transform="translate(546.409916 372.235625) scale(0.28 -0.28)">
       <defs>
        <path id="DejaVuSans-34" d="M 2419 4116 
L 825 1625 
L 2419 1625 
L 2419 4116 
z
M 2253 4666 
L 3047 4666 
L 3047 1625 
L 3713 1625 
L 3713 1100 
L 3047 1100 
L 3047 0 
L 2419 0 
L 2419 1100 
L 313 1100 
L 313 1709 
L 2253 4666 
z
" transform="scale(0.015625)"/>
       </defs>
       <use xlink:href="#DejaVuSans-34"/>
       <use xlink:href="#DejaVuSans-30" x="63.623047"/>
       <use xlink:href="#DejaVuSans-30" x="127.246094"/>
      </g>
     </g>
    </g>
    <g id="xtick_6">
     <g id="line2d_6">
      <g>
       <use xlink:href="#me7e6ffb369" x="681.113686" y="343.96" style="stroke: #000000; stroke-width: 0.8"/>
      </g>
     </g>
     <g id="text_6">
      <!-- 500 -->
      <g transform="translate(654.391186 372.235625) scale(0.28 -0.28)">
       <defs>
        <path id="DejaVuSans-35" d="M 691 4666 
L 3169 4666 
L 3169 4134 
L 1269 4134 
L 1269 2991 
Q 1406 3038 1543 3061 
Q 1681 3084 1819 3084 
Q 2600 3084 3056 2656 
Q 3513 2228 3513 1497 
Q 3513 744 3044 326 
Q 2575 -91 1722 -91 
Q 1428 -91 1123 -41 
Q 819 9 494 109 
L 494 744 
Q 775 591 1075 516 
Q 1375 441 1709 441 
Q 2250 441 2565 725 
Q 2881 1009 2881 1497 
Q 2881 1984 2565 2268 
Q 2250 2553 1709 2553 
Q 1456 2553 1204 2497 
Q 953 2441 691 2322 
L 691 4666 
z
" transform="scale(0.015625)"/>
       </defs>
       <use xlink:href="#DejaVuSans-35"/>
       <use xlink:href="#DejaVuSans-30" x="63.623047"/>
       <use xlink:href="#DejaVuSans-30" x="127.246094"/>
      </g>
     </g>
    </g>
    <g id="text_7">
     <!-- Episode -->
     <g transform="translate(331.530698 412.4525) scale(0.4 -0.4)">
      <defs>
       <path id="DejaVuSans-45" d="M 628 4666 
L 3578 4666 
L 3578 4134 
L 1259 4134 
L 1259 2753 
L 3481 2753 
L 3481 2222 
L 1259 2222 
L 1259 531 
L 3634 531 
L 3634 0 
L 628 0 
L 628 4666 
z
" transform="scale(0.015625)"/>
       <path id="DejaVuSans-70" d="M 1159 525 
L 1159 -1331 
L 581 -1331 
L 581 3500 
L 1159 3500 
L 1159 2969 
Q 1341 3281 1617 3432 
Q 1894 3584 2278 3584 
Q 2916 3584 3314 3078 
Q 3713 2572 3713 1747 
Q 3713 922 3314 415 
Q 2916 -91 2278 -91 
Q 1894 -91 1617 61 
Q 1341 213 1159 525 
z
M 3116 1747 
Q 3116 2381 2855 2742 
Q 2594 3103 2138 3103 
Q 1681 3103 1420 2742 
Q 1159 2381 1159 1747 
Q 1159 1113 1420 752 
Q 1681 391 2138 391 
Q 2594 391 2855 752 
Q 3116 1113 3116 1747 
z
" transform="scale(0.015625)"/>
       <path id="DejaVuSans-69" d="M 603 3500 
L 1178 3500 
L 1178 0 
L 603 0 
L 603 3500 
z
M 603 4863 
L 1178 4863 
L 1178 4134 
L 603 4134 
L 603 4863 
z
" transform="scale(0.015625)"/>
       <path id="DejaVuSans-73" d="M 2834 3397 
L 2834 2853 
Q 2591 2978 2328 3040 
Q 2066 3103 1784 3103 
Q 1356 3103 1142 2972 
Q 928 2841 928 2578 
Q 928 2378 1081 2264 
Q 1234 2150 1697 2047 
L 1894 2003 
Q 2506 1872 2764 1633 
Q 3022 1394 3022 966 
Q 3022 478 2636 193 
Q 2250 -91 1575 -91 
Q 1294 -91 989 -36 
Q 684 19 347 128 
L 347 722 
Q 666 556 975 473 
Q 1284 391 1588 391 
Q 1994 391 2212 530 
Q 2431 669 2431 922 
Q 2431 1156 2273 1281 
Q 2116 1406 1581 1522 
L 1381 1569 
Q 847 1681 609 1914 
Q 372 2147 372 2553 
Q 372 3047 722 3315 
Q 1072 3584 1716 3584 
Q 2034 3584 2315 3537 
Q 2597 3491 2834 3397 
z
" transform="scale(0.015625)"/>
       <path id="DejaVuSans-6f" d="M 1959 3097 
Q 1497 3097 1228 2736 
Q 959 2375 959 1747 
Q 959 1119 1226 758 
Q 1494 397 1959 397 
Q 2419 397 2687 759 
Q 2956 1122 2956 1747 
Q 2956 2369 2687 2733 
Q 2419 3097 1959 3097 
z
M 1959 3584 
Q 2709 3584 3137 3096 
Q 3566 2609 3566 1747 
Q 3566 888 3137 398 
Q 2709 -91 1959 -91 
Q 1206 -91 779 398 
Q 353 888 353 1747 
Q 353 2609 779 3096 
Q 1206 3584 1959 3584 
z
" transform="scale(0.015625)"/>
       <path id="DejaVuSans-64" d="M 2906 2969 
L 2906 4863 
L 3481 4863 
L 3481 0 
L 2906 0 
L 2906 525 
Q 2725 213 2448 61 
Q 2172 -91 1784 -91 
Q 1150 -91 751 415 
Q 353 922 353 1747 
Q 353 2572 751 3078 
Q 1150 3584 1784 3584 
Q 2172 3584 2448 3432 
Q 2725 3281 2906 2969 
z
M 947 1747 
Q 947 1113 1208 752 
Q 1469 391 1925 391 
Q 2381 391 2643 752 
Q 2906 1113 2906 1747 
Q 2906 2381 2643 2742 
Q 2381 3103 1925 3103 
Q 1469 3103 1208 2742 
Q 947 2381 947 1747 
z
" transform="scale(0.015625)"/>
       <path id="DejaVuSans-65" d="M 3597 1894 
L 3597 1613 
L 953 1613 
Q 991 1019 1311 708 
Q 1631 397 2203 397 
Q 2534 397 2845 478 
Q 3156 559 3463 722 
L 3463 178 
Q 3153 47 2828 -22 
Q 2503 -91 2169 -91 
Q 1331 -91 842 396 
Q 353 884 353 1716 
Q 353 2575 817 3079 
Q 1281 3584 2069 3584 
Q 2775 3584 3186 3129 
Q 3597 2675 3597 1894 
z
M 3022 2063 
Q 3016 2534 2758 2815 
Q 2500 3097 2075 3097 
Q 1594 3097 1305 2825 
Q 1016 2553 972 2059 
L 3022 2063 
z
" transform="scale(0.015625)"/>
      </defs>
      <use xlink:href="#DejaVuSans-45"/>
      <use xlink:href="#DejaVuSans-70" x="63.183594"/>
      <use xlink:href="#DejaVuSans-69" x="126.660156"/>
      <use xlink:href="#DejaVuSans-73" x="154.443359"/>
      <use xlink:href="#DejaVuSans-6f" x="206.542969"/>
      <use xlink:href="#DejaVuSans-64" x="267.724609"/>
      <use xlink:href="#DejaVuSans-65" x="331.201172"/>
     </g>
    </g>
   </g>
   <g id="matplotlib.axis_2">
    <g id="ytick_1">
     <g id="line2d_7">
      <defs>
       <path id="ma55e38f6fe" d="M 0 0 
L -3.5 0 
" style="stroke: #000000; stroke-width: 0.8"/>
      </defs>
      <g>
       <use xlink:href="#ma55e38f6fe" x="114.32" y="308.77026" style="stroke: #000000; stroke-width: 0.8"/>
      </g>
     </g>
     <g id="text_8">
      <!-- 120 -->
      <g transform="translate(53.875 319.408073) scale(0.28 -0.28)">
       <use xlink:href="#DejaVuSans-31"/>
       <use xlink:href="#DejaVuSans-32" x="63.623047"/>
       <use xlink:href="#DejaVuSans-30" x="127.246094"/>
      </g>
     </g>
    </g>
    <g id="ytick_2">
     <g id="line2d_8">
      <g>
       <use xlink:href="#ma55e38f6fe" x="114.32" y="267.744123" style="stroke: #000000; stroke-width: 0.8"/>
      </g>
     </g>
     <g id="text_9">
      <!-- 140 -->
      <g transform="translate(53.875 278.381936) scale(0.28 -0.28)">
       <use xlink:href="#DejaVuSans-31"/>
       <use xlink:href="#DejaVuSans-34" x="63.623047"/>
       <use xlink:href="#DejaVuSans-30" x="127.246094"/>
      </g>
     </g>
    </g>
    <g id="ytick_3">
     <g id="line2d_9">
      <g>
       <use xlink:href="#ma55e38f6fe" x="114.32" y="226.717986" style="stroke: #000000; stroke-width: 0.8"/>
      </g>
     </g>
     <g id="text_10">
      <!-- 160 -->
      <g transform="translate(53.875 237.355798) scale(0.28 -0.28)">
       <defs>
        <path id="DejaVuSans-36" d="M 2113 2584 
Q 1688 2584 1439 2293 
Q 1191 2003 1191 1497 
Q 1191 994 1439 701 
Q 1688 409 2113 409 
Q 2538 409 2786 701 
Q 3034 994 3034 1497 
Q 3034 2003 2786 2293 
Q 2538 2584 2113 2584 
z
M 3366 4563 
L 3366 3988 
Q 3128 4100 2886 4159 
Q 2644 4219 2406 4219 
Q 1781 4219 1451 3797 
Q 1122 3375 1075 2522 
Q 1259 2794 1537 2939 
Q 1816 3084 2150 3084 
Q 2853 3084 3261 2657 
Q 3669 2231 3669 1497 
Q 3669 778 3244 343 
Q 2819 -91 2113 -91 
Q 1303 -91 875 529 
Q 447 1150 447 2328 
Q 447 3434 972 4092 
Q 1497 4750 2381 4750 
Q 2619 4750 2861 4703 
Q 3103 4656 3366 4563 
z
" transform="scale(0.015625)"/>
       </defs>
       <use xlink:href="#DejaVuSans-31"/>
       <use xlink:href="#DejaVuSans-36" x="63.623047"/>
       <use xlink:href="#DejaVuSans-30" x="127.246094"/>
      </g>
     </g>
    </g>
    <g id="ytick_4">
     <g id="line2d_10">
      <g>
       <use xlink:href="#ma55e38f6fe" x="114.32" y="185.691849" style="stroke: #000000; stroke-width: 0.8"/>
      </g>
     </g>
     <g id="text_11">
      <!-- 180 -->
      <g transform="translate(53.875 196.329661) scale(0.28 -0.28)">
       <defs>
        <path id="DejaVuSans-38" d="M 2034 2216 
Q 1584 2216 1326 1975 
Q 1069 1734 1069 1313 
Q 1069 891 1326 650 
Q 1584 409 2034 409 
Q 2484 409 2743 651 
Q 3003 894 3003 1313 
Q 3003 1734 2745 1975 
Q 2488 2216 2034 2216 
z
M 1403 2484 
Q 997 2584 770 2862 
Q 544 3141 544 3541 
Q 544 4100 942 4425 
Q 1341 4750 2034 4750 
Q 2731 4750 3128 4425 
Q 3525 4100 3525 3541 
Q 3525 3141 3298 2862 
Q 3072 2584 2669 2484 
Q 3125 2378 3379 2068 
Q 3634 1759 3634 1313 
Q 3634 634 3220 271 
Q 2806 -91 2034 -91 
Q 1263 -91 848 271 
Q 434 634 434 1313 
Q 434 1759 690 2068 
Q 947 2378 1403 2484 
z
M 1172 3481 
Q 1172 3119 1398 2916 
Q 1625 2713 2034 2713 
Q 2441 2713 2670 2916 
Q 2900 3119 2900 3481 
Q 2900 3844 2670 4047 
Q 2441 4250 2034 4250 
Q 1625 4250 1398 4047 
Q 1172 3844 1172 3481 
z
" transform="scale(0.015625)"/>
       </defs>
       <use xlink:href="#DejaVuSans-31"/>
       <use xlink:href="#DejaVuSans-38" x="63.623047"/>
       <use xlink:href="#DejaVuSans-30" x="127.246094"/>
      </g>
     </g>
    </g>
    <g id="ytick_5">
     <g id="line2d_11">
      <g>
       <use xlink:href="#ma55e38f6fe" x="114.32" y="144.665711" style="stroke: #000000; stroke-width: 0.8"/>
      </g>
     </g>
     <g id="text_12">
      <!-- 200 -->
      <g transform="translate(53.875 155.303524) scale(0.28 -0.28)">
       <use xlink:href="#DejaVuSans-32"/>
       <use xlink:href="#DejaVuSans-30" x="63.623047"/>
       <use xlink:href="#DejaVuSans-30" x="127.246094"/>
      </g>
     </g>
    </g>
    <g id="ytick_6">
     <g id="line2d_12">
      <g>
       <use xlink:href="#ma55e38f6fe" x="114.32" y="103.639574" style="stroke: #000000; stroke-width: 0.8"/>
      </g>
     </g>
     <g id="text_13">
      <!-- 220 -->
      <g transform="translate(53.875 114.277387) scale(0.28 -0.28)">
       <use xlink:href="#DejaVuSans-32"/>
       <use xlink:href="#DejaVuSans-32" x="63.623047"/>
       <use xlink:href="#DejaVuSans-30" x="127.246094"/>
      </g>
     </g>
    </g>
    <g id="ytick_7">
     <g id="line2d_13">
      <g>
       <use xlink:href="#ma55e38f6fe" x="114.32" y="62.613437" style="stroke: #000000; stroke-width: 0.8"/>
      </g>
     </g>
     <g id="text_14">
      <!-- 240 -->
      <g transform="translate(53.875 73.251249) scale(0.28 -0.28)">
       <use xlink:href="#DejaVuSans-32"/>
       <use xlink:href="#DejaVuSans-34" x="63.623047"/>
       <use xlink:href="#DejaVuSans-30" x="127.246094"/>
      </g>
     </g>
    </g>
    <g id="ytick_8">
     <g id="line2d_14">
      <g>
       <use xlink:href="#ma55e38f6fe" x="114.32" y="21.5873" style="stroke: #000000; stroke-width: 0.8"/>
      </g>
     </g>
     <g id="text_15">
      <!-- 260 -->
      <g transform="translate(53.875 32.225112) scale(0.28 -0.28)">
       <use xlink:href="#DejaVuSans-32"/>
       <use xlink:href="#DejaVuSans-36" x="63.623047"/>
       <use xlink:href="#DejaVuSans-30" x="127.246094"/>
      </g>
     </g>
    </g>
    <g id="text_16">
     <!-- $m_{to}$ -->
     <g transform="translate(41.55625 216.765578) rotate(-90) scale(0.4 -0.4)">
      <defs>
       <path id="DejaVuSans-Oblique-6d" d="M 5747 2113 
L 5338 0 
L 4763 0 
L 5166 2094 
Q 5191 2228 5203 2325 
Q 5216 2422 5216 2491 
Q 5216 2772 5059 2928 
Q 4903 3084 4622 3084 
Q 4203 3084 3875 2770 
Q 3547 2456 3450 1953 
L 3066 0 
L 2491 0 
L 2900 2094 
Q 2925 2209 2937 2307 
Q 2950 2406 2950 2484 
Q 2950 2769 2794 2926 
Q 2638 3084 2363 3084 
Q 1938 3084 1609 2770 
Q 1281 2456 1184 1953 
L 800 0 
L 225 0 
L 909 3500 
L 1484 3500 
L 1375 2956 
Q 1609 3263 1923 3423 
Q 2238 3584 2597 3584 
Q 2978 3584 3223 3384 
Q 3469 3184 3519 2828 
Q 3781 3197 4126 3390 
Q 4472 3584 4856 3584 
Q 5306 3584 5551 3325 
Q 5797 3066 5797 2591 
Q 5797 2488 5784 2364 
Q 5772 2241 5747 2113 
z
" transform="scale(0.015625)"/>
       <path id="DejaVuSans-Oblique-74" d="M 2706 3500 
L 2619 3053 
L 1472 3053 
L 1100 1153 
Q 1081 1047 1072 975 
Q 1063 903 1063 863 
Q 1063 663 1183 572 
Q 1303 481 1569 481 
L 2150 481 
L 2053 0 
L 1503 0 
Q 991 0 739 200 
Q 488 400 488 806 
Q 488 878 497 964 
Q 506 1050 525 1153 
L 897 3053 
L 409 3053 
L 500 3500 
L 978 3500 
L 1172 4494 
L 1747 4494 
L 1556 3500 
L 2706 3500 
z
" transform="scale(0.015625)"/>
       <path id="DejaVuSans-Oblique-6f" d="M 1625 -91 
Q 1009 -91 651 289 
Q 294 669 294 1325 
Q 294 1706 417 2101 
Q 541 2497 738 2766 
Q 1047 3184 1428 3384 
Q 1809 3584 2291 3584 
Q 2888 3584 3255 3212 
Q 3622 2841 3622 2241 
Q 3622 1825 3500 1412 
Q 3378 1000 3181 728 
Q 2875 309 2494 109 
Q 2113 -91 1625 -91 
z
M 891 1344 
Q 891 869 1089 633 
Q 1288 397 1691 397 
Q 2269 397 2648 901 
Q 3028 1406 3028 2181 
Q 3028 2634 2825 2865 
Q 2622 3097 2228 3097 
Q 1903 3097 1650 2945 
Q 1397 2794 1197 2484 
Q 1050 2253 970 1956 
Q 891 1659 891 1344 
z
" transform="scale(0.015625)"/>
      </defs>
      <use xlink:href="#DejaVuSans-Oblique-6d"/>
      <use xlink:href="#DejaVuSans-Oblique-74" transform="translate(97.412109 -16.40625) scale(0.7)"/>
      <use xlink:href="#DejaVuSans-Oblique-6f" transform="translate(124.858398 -16.40625) scale(0.7)"/>
     </g>
    </g>
   </g>
   <g id="line2d_15">
    <path d="M 141.207336 160.392397 
L 144.446774 172.130431 
L 147.686212 182.159042 
L 150.92565 189.794462 
L 154.165089 207.002648 
L 157.404527 211.561107 
L 160.643965 207.116609 
L 163.883403 211.675069 
L 167.122841 219.766335 
L 170.362279 229.908908 
L 173.601717 221.361796 
L 176.841155 223.641026 
L 180.080593 224.78064 
L 183.320031 230.592677 
L 186.55947 233.327752 
L 189.798908 251.561591 
L 193.038346 258.855127 
L 196.277784 251.44763 
L 199.517222 256.575897 
L 202.75666 255.436282 
L 205.996098 259.424934 
L 209.235536 270.365237 
L 212.474974 272.644467 
L 215.714412 266.832431 
L 218.953851 262.387933 
L 222.193289 272.302583 
L 225.432727 267.060354 
L 228.672165 276.975004 
L 231.911603 276.975004 
L 235.151041 269.79543 
L 238.390479 268.541853 
L 241.629917 272.758429 
L 244.869355 267.972046 
L 248.108793 264.211317 
L 251.348231 273.100313 
L 254.58767 272.530506 
L 257.827108 271.162968 
L 261.066546 272.530506 
L 264.305984 268.199969 
L 267.545422 256.234012 
L 270.78486 262.16001 
L 274.024298 270.707122 
L 277.263736 257.031743 
L 280.503174 263.185663 
L 283.742612 272.986352 
L 286.982051 274.125967 
L 290.221489 279.368195 
L 293.460927 277.772734 
L 296.700365 275.835389 
L 299.939803 263.755471 
L 303.179241 259.197011 
L 306.418679 256.917781 
L 309.658117 263.869432 
L 312.897555 279.254234 
L 316.136993 277.088965 
L 319.376432 270.251276 
L 322.61587 287.3455 
L 325.855308 285.750039 
L 329.094746 271.504852 
L 332.334184 275.94935 
L 335.573622 260.108703 
L 338.81306 272.644467 
L 342.052498 284.040616 
L 345.291936 276.975004 
L 348.531374 280.50781 
L 351.770813 275.379543 
L 355.010251 266.832431 
L 358.249689 253.384975 
L 361.489127 246.775208 
L 364.728565 251.44763 
L 367.968003 270.935045 
L 371.207441 271.162968 
L 374.446879 244.60994 
L 377.686317 258.627204 
L 380.925755 238.000174 
L 384.165193 248.256708 
L 387.404632 232.871906 
L 390.64407 238.569981 
L 393.883508 239.025827 
L 397.122946 243.81221 
L 400.362384 253.157052 
L 403.601822 239.25375 
L 406.84126 261.134356 
L 410.080698 267.288277 
L 413.320136 278.000657 
L 416.559574 273.556159 
L 419.799013 275.379543 
L 423.038451 272.758429 
L 426.277889 275.607466 
L 429.517327 289.396807 
L 432.756765 295.550727 
L 435.996203 291.789998 
L 439.235641 290.42246 
L 442.475079 278.114619 
L 445.714517 290.42246 
L 448.953955 277.886696 
L 452.193394 291.676036 
L 455.432832 281.98931 
L 458.67227 280.50781 
L 461.911708 274.467851 
L 465.151146 273.442198 
L 468.390584 263.185663 
L 471.630022 269.681468 
L 474.86946 280.849695 
L 478.108898 281.077618 
L 481.348336 284.724385 
L 484.587774 277.886696 
L 487.827213 288.940961 
L 491.066651 284.610424 
L 494.306089 285.636077 
L 497.545527 285.522116 
L 500.784965 288.485115 
L 504.024403 294.752997 
L 507.263841 292.815651 
L 510.503279 298.171841 
L 513.742717 311.163452 
L 516.982155 295.77865 
L 520.221594 290.194537 
L 523.461032 288.257192 
L 526.70047 290.764344 
L 529.939908 294.525074 
L 533.179346 281.647425 
L 536.418784 273.100313 
L 539.658222 276.405196 
L 542.89766 284.610424 
L 546.137098 283.242886 
L 549.376536 289.738691 
L 552.615975 287.231538 
L 555.855413 288.485115 
L 559.094851 284.838347 
L 562.334289 271.162968 
L 565.573727 274.581813 
L 568.813165 292.473767 
L 572.052603 302.388417 
L 575.292041 296.120535 
L 578.531479 299.767302 
L 581.770917 314.696258 
L 585.010355 289.168884 
L 588.249794 301.590686 
L 591.489232 301.704648 
L 594.72867 290.650383 
L 597.968108 289.738691 
L 601.207546 284.040616 
L 604.446984 287.801346 
L 607.686422 285.636077 
L 610.92586 277.886696 
L 614.165298 286.547769 
L 617.404736 293.157536 
L 620.644175 297.715996 
L 623.883613 301.818609 
L 627.123051 299.767302 
L 630.362489 302.958224 
L 633.601927 302.160494 
L 636.841365 300.792956 
L 640.080803 289.282845 
L 643.320241 283.356847 
L 646.559679 289.966614 
L 649.799117 290.308499 
L 653.038556 279.026311 
L 656.277994 297.374111 
L 659.517432 304.553685 
L 662.75687 301.932571 
L 665.996308 302.160494 
L 672.475184 295.436766 
L 675.714622 294.639035 
L 678.95406 295.77865 
L 678.95406 295.77865 
" clip-path="url(#p115db60dbe)" style="fill: none; stroke: #0000ff; stroke-width: 3; stroke-linecap: square"/>
   </g>
   <g id="line2d_16">
    <path d="M 141.207336 160.164474 
L 144.446774 166.090472 
L 147.686212 178.398313 
L 150.92565 187.629194 
L 154.165089 183.412619 
L 157.404527 191.503885 
L 160.643965 198.113651 
L 163.883403 201.190612 
L 167.122841 201.760419 
L 170.362279 211.333184 
L 173.601717 217.487105 
L 176.841155 215.54976 
L 180.080593 209.053955 
L 183.320031 204.837379 
L 186.55947 205.749071 
L 189.798908 212.358838 
L 193.038346 204.951341 
L 196.277784 216.119567 
L 199.517222 211.78903 
L 202.75666 210.877338 
L 205.996098 212.016953 
L 209.235536 219.42445 
L 212.474974 208.256224 
L 215.714412 198.569497 
L 218.953851 195.378575 
L 222.193289 192.871423 
L 225.432727 177.600583 
L 228.672165 188.312963 
L 231.911603 201.418535 
L 235.151041 196.062344 
L 238.390479 206.43284 
L 241.629917 202.558149 
L 244.869355 205.179264 
L 248.108793 201.532496 
L 251.348231 211.675069 
L 254.58767 194.922729 
L 257.827108 205.63511 
L 261.066546 199.823074 
L 264.305984 190.592193 
L 267.545422 212.130915 
L 270.78486 222.045565 
L 274.024298 226.26214 
L 277.263736 221.589719 
L 280.503174 209.281878 
L 283.742612 217.601066 
L 286.982051 202.558149 
L 290.221489 197.201959 
L 293.460927 201.304573 
L 296.700365 199.937035 
L 299.939803 197.087998 
L 303.179241 194.466884 
L 306.418679 209.281878 
L 309.658117 205.293225 
L 312.897555 212.700722 
L 316.136993 208.142263 
L 319.376432 215.321837 
L 322.61587 217.828989 
L 325.855308 222.273488 
L 329.094746 200.848727 
L 332.334184 196.062344 
L 335.573622 206.660763 
L 338.81306 210.535454 
L 342.052498 215.663721 
L 345.291936 198.569497 
L 348.531374 202.444188 
L 351.770813 203.469841 
L 355.010251 211.105261 
L 358.249689 214.296183 
L 361.489127 211.333184 
L 364.728565 214.979952 
L 367.968003 211.675069 
L 371.207441 203.013995 
L 374.446879 205.407187 
L 377.686317 188.08504 
L 380.925755 202.102304 
L 384.165193 212.928645 
L 387.404632 200.392881 
L 390.64407 200.392881 
L 393.883508 203.811726 
L 397.122946 195.264614 
L 400.362384 210.193569 
L 403.601822 219.994258 
L 406.84126 223.299141 
L 410.080698 213.27053 
L 413.320136 197.429882 
L 416.559574 198.341574 
L 419.799013 193.897076 
L 423.038451 197.543844 
L 426.277889 212.700722 
L 429.517327 210.877338 
L 432.756765 209.851685 
L 435.996203 209.509801 
L 439.235641 207.572455 
L 442.475079 218.170874 
L 445.714517 224.78064 
L 448.953955 215.207875 
L 452.193394 214.638068 
L 455.432832 204.951341 
L 458.67227 209.509801 
L 461.911708 201.874381 
L 465.151146 203.127957 
L 468.390584 208.939993 
L 471.630022 212.700722 
L 474.86946 221.475757 
L 478.108898 218.284835 
L 481.348336 205.976994 
L 484.587774 203.127957 
L 487.827213 198.113651 
L 491.066651 202.102304 
L 494.306089 199.709112 
L 497.545527 200.506843 
L 500.784965 216.34749 
L 504.024403 217.942951 
L 507.263841 227.971562 
L 510.503279 224.438756 
L 513.742717 217.601066 
L 520.221594 209.509801 
L 523.461032 201.532496 
L 526.70047 195.606498 
L 529.939908 214.638068 
L 533.179346 204.609456 
L 536.418784 196.176306 
L 539.658222 204.267572 
L 542.89766 214.182222 
L 546.137098 190.136347 
L 549.376536 192.529538 
L 552.615975 183.640542 
L 555.855413 173.270046 
L 559.094851 183.184696 
L 562.334289 199.253266 
L 565.573727 199.709112 
L 568.813165 202.330226 
L 572.052603 208.826032 
L 575.292041 203.583803 
L 578.531479 197.657805 
L 581.770917 200.734766 
L 585.010355 197.429882 
L 588.249794 195.036691 
L 591.489232 195.948383 
L 594.72867 193.213307 
L 597.968108 187.743155 
L 601.207546 204.951341 
L 604.446984 187.971078 
L 607.686422 194.808768 
L 610.92586 198.455536 
L 614.165298 205.976994 
L 617.404736 208.598109 
L 620.644175 179.993774 
L 623.883613 180.335658 
L 627.123051 181.589235 
L 630.362489 183.298657 
L 633.601927 159.366744 
L 636.841365 160.962205 
L 640.080803 163.355396 
L 643.320241 165.520664 
L 646.559679 168.25574 
L 649.799117 169.395355 
L 653.038556 185.577887 
L 656.277994 177.486621 
L 659.517432 169.965163 
L 662.75687 191.048039 
L 665.996308 195.492537 
L 669.235746 191.617846 
L 672.475184 185.349964 
L 675.714622 193.213307 
L 678.95406 189.794462 
L 678.95406 189.794462 
" clip-path="url(#p115db60dbe)" style="fill: none; stroke: #008000; stroke-width: 3; stroke-linecap: square"/>
   </g>
   <g id="line2d_17">
    <path d="M 141.207336 53.268595 
L 144.446774 50.077673 
L 147.686212 45.975059 
L 150.92565 49.393904 
L 154.165089 55.775747 
L 157.404527 57.941016 
L 160.643965 54.636133 
L 163.883403 52.92671 
L 167.122841 57.713093 
L 170.362279 64.778705 
L 173.601717 69.793011 
L 176.841155 67.969627 
L 180.080593 59.992323 
L 183.320031 80.163507 
L 186.55947 83.46839 
L 189.798908 83.240467 
L 193.038346 84.608005 
L 196.277784 79.479738 
L 199.517222 87.343081 
L 202.75666 92.357386 
L 205.996098 89.622311 
L 209.235536 89.850234 
L 212.474974 94.978501 
L 215.714412 96.346039 
L 218.953851 94.066809 
L 222.193289 98.283384 
L 225.432727 95.66227 
L 228.672165 110.591225 
L 231.911603 106.944457 
L 235.151041 101.246383 
L 238.390479 111.274994 
L 241.629917 116.517223 
L 244.869355 129.508833 
L 248.108793 126.659796 
L 251.348231 136.118599 
L 254.58767 143.070251 
L 257.827108 141.132905 
L 261.066546 143.412135 
L 264.305984 151.389439 
L 267.545422 152.870939 
L 270.78486 144.323827 
L 274.024298 134.751062 
L 277.263736 131.902024 
L 280.503174 138.055945 
L 283.742612 137.258214 
L 286.982051 160.392397 
L 290.221489 160.848243 
L 293.460927 154.238477 
L 296.700365 158.113167 
L 299.939803 146.489095 
L 303.179241 144.095904 
L 306.418679 148.312479 
L 309.658117 135.206908 
L 312.897555 147.400787 
L 316.136993 150.249825 
L 319.376432 164.153127 
L 322.61587 158.113167 
L 325.855308 171.332701 
L 329.094746 162.557666 
L 332.334184 169.965163 
L 335.573622 159.594667 
L 338.81306 171.104778 
L 342.052498 175.207391 
L 345.291936 172.928161 
L 348.531374 174.181738 
L 351.770813 177.37266 
L 355.010251 184.438272 
L 358.249689 182.842811 
L 361.489127 184.666195 
L 364.728565 187.743155 
L 367.968003 172.130431 
L 371.207441 182.386965 
L 374.446879 170.307047 
L 377.686317 182.614888 
L 380.925755 176.005122 
L 384.165193 168.483663 
L 387.404632 172.8142 
L 390.64407 179.423967 
L 393.883508 179.65189 
L 397.122946 173.156084 
L 400.362384 176.802852 
L 403.601822 186.261656 
L 406.84126 188.768809 
L 410.080698 178.398313 
L 413.320136 187.401271 
L 416.559574 189.452578 
L 419.799013 184.552234 
L 423.038451 189.566539 
L 426.277889 180.677543 
L 429.517327 190.250308 
L 432.756765 190.706154 
L 435.996203 194.694807 
L 439.235641 188.08504 
L 442.475079 196.632152 
L 445.714517 207.230571 
L 448.953955 210.649415 
L 452.193394 205.976994 
L 455.432832 207.91434 
L 458.67227 211.902992 
L 461.911708 197.087998 
L 465.151146 188.312963 
L 468.390584 194.238961 
L 471.630022 189.110693 
L 474.86946 202.444188 
L 478.108898 213.27053 
L 481.348336 210.877338 
L 484.587774 203.35588 
L 487.827213 206.888686 
L 491.066651 198.79742 
L 494.306089 200.164958 
L 497.545527 203.583803 
L 500.784965 207.458494 
L 504.024403 201.874381 
L 507.263841 200.27892 
L 510.503279 196.404229 
L 516.982155 212.016953 
L 520.221594 226.831947 
L 523.461032 223.98291 
L 526.70047 227.287793 
L 529.939908 209.851685 
L 533.179346 202.216265 
L 536.418784 211.447146 
L 539.658222 205.863033 
L 542.89766 221.70368 
L 546.137098 216.917297 
L 549.376536 228.54137 
L 552.615975 228.085524 
L 555.855413 225.920255 
L 559.094851 232.302099 
L 562.334289 234.239444 
L 565.573727 231.61833 
L 568.813165 226.376101 
L 572.052603 223.98291 
L 575.292041 226.376101 
L 578.531479 223.299141 
L 581.770917 229.111177 
L 585.010355 225.122525 
L 588.249794 230.022869 
L 591.489232 231.846253 
L 594.72867 236.518674 
L 597.968108 231.048523 
L 601.207546 255.094397 
L 604.446984 260.564549 
L 607.686422 250.649899 
L 610.92586 265.806778 
L 614.165298 260.678511 
L 617.404736 256.80382 
L 620.644175 253.498937 
L 623.883613 256.120051 
L 627.123051 264.43924 
L 630.362489 262.16001 
L 633.601927 274.239928 
L 636.841365 271.162968 
L 640.080803 257.60155 
L 643.320241 270.365237 
L 646.559679 271.732775 
L 649.799117 281.191579 
L 653.038556 284.838347 
L 656.277994 274.35389 
L 659.517432 274.923697 
L 662.75687 282.445156 
L 665.996308 275.265582 
L 669.235746 267.288277 
L 672.475184 263.071702 
L 675.714622 271.390891 
L 678.95406 271.504852 
L 678.95406 271.504852 
" clip-path="url(#p115db60dbe)" style="fill: none; stroke: #ff0000; stroke-width: 3; stroke-linecap: square"/>
   </g>
   <g id="line2d_18">
    <path d="M 141.207336 46.77279 
L 144.446774 50.64748 
L 147.686212 55.889709 
L 150.92565 57.029324 
L 154.165089 62.385514 
L 157.404527 64.778705 
L 160.643965 64.322859 
L 163.883403 70.362818 
L 167.122841 68.539435 
L 170.362279 75.605047 
L 173.601717 74.807317 
L 176.841155 68.995281 
L 180.080593 77.770315 
L 183.320031 79.365776 
L 186.55947 75.719009 
L 189.798908 85.405735 
L 193.038346 74.921278 
L 196.277784 73.55374 
L 199.517222 71.844318 
L 202.75666 73.439779 
L 205.996098 66.374166 
L 209.235536 72.983933 
L 212.474974 66.830012 
L 218.953851 62.613437 
L 222.193289 71.730356 
L 225.432727 67.171897 
L 228.672165 76.744662 
L 231.911603 77.200508 
L 235.151041 74.009586 
L 238.390479 74.351471 
L 241.629917 77.428431 
L 244.869355 72.300164 
L 248.108793 68.767358 
L 251.348231 75.946932 
L 254.58767 68.995281 
L 257.827108 75.719009 
L 261.066546 81.645006 
L 264.305984 71.160549 
L 267.545422 74.693355 
L 270.78486 73.439779 
L 274.024298 80.619353 
L 277.263736 84.152159 
L 280.503174 86.887235 
L 283.742612 84.038198 
L 286.982051 91.673617 
L 290.221489 82.214814 
L 293.460927 94.066809 
L 296.700365 90.534003 
L 299.939803 92.813232 
L 303.179241 81.18916 
L 306.418679 84.380082 
L 309.658117 80.619353 
L 312.897555 83.240467 
L 316.136993 75.377124 
L 319.376432 81.075199 
L 322.61587 79.593699 
L 325.855308 82.214814 
L 329.094746 81.758968 
L 332.334184 81.872929 
L 335.573622 79.593699 
L 338.81306 76.060893 
L 342.052498 83.354429 
L 345.291936 79.023892 
L 348.531374 82.556698 
L 351.770813 75.03524 
L 355.010251 76.516739 
L 358.249689 72.642048 
L 361.489127 75.149201 
L 364.728565 72.300164 
L 367.968003 73.097894 
L 371.207441 67.057935 
L 374.446879 70.704703 
L 377.686317 72.75601 
L 380.925755 69.906972 
L 384.165193 81.18916 
L 387.404632 79.707661 
L 390.64407 76.516739 
L 393.883508 76.858624 
L 397.122946 81.18916 
L 400.362384 89.280426 
L 403.601822 82.328775 
L 406.84126 80.619353 
L 410.080698 82.898583 
L 413.320136 90.989849 
L 416.559574 95.434347 
L 419.799013 92.015502 
L 423.038451 95.890193 
L 426.277889 104.779189 
L 429.517327 92.813232 
L 432.756765 101.930152 
L 435.996203 101.01846 
L 439.235641 109.337649 
L 442.475079 105.007112 
L 445.714517 105.804843 
L 448.953955 97.485654 
L 452.193394 98.283384 
L 455.432832 89.850234 
L 458.67227 102.499959 
L 461.911708 104.323343 
L 465.151146 101.81619 
L 468.390584 98.73923 
L 471.630022 98.853192 
L 474.86946 110.705187 
L 478.108898 102.613921 
L 481.348336 106.944457 
L 484.587774 97.713577 
L 487.827213 107.628226 
L 491.066651 105.121074 
L 494.306089 103.411651 
L 497.545527 98.283384 
L 500.784965 91.331733 
L 504.024403 92.927194 
L 507.263841 93.952847 
L 510.503279 92.813232 
L 513.742717 89.166465 
L 516.982155 85.74762 
L 520.221594 96.915846 
L 523.461032 89.280426 
L 526.70047 95.776231 
L 529.939908 95.890193 
L 533.179346 88.938542 
L 536.418784 93.952847 
L 539.658222 95.548308 
L 542.89766 85.291774 
L 546.137098 86.317427 
L 549.376536 83.012544 
L 552.615975 83.126506 
L 555.855413 77.086546 
L 559.094851 80.961237 
L 562.334289 81.075199 
L 565.573727 87.343081 
L 568.813165 92.015502 
L 572.052603 101.474306 
L 575.292041 97.713577 
L 578.531479 92.471348 
L 581.770917 102.044113 
L 585.010355 102.841844 
L 588.249794 99.53696 
L 591.489232 103.981459 
L 594.72867 102.499959 
L 597.968108 94.522655 
L 601.207546 96.801885 
L 604.446984 97.9415 
L 607.686422 100.562614 
L 610.92586 92.813232 
L 614.165298 93.041155 
L 617.404736 87.912888 
L 620.644175 87.229119 
L 623.883613 87.684965 
L 627.123051 84.835928 
L 630.362489 87.571004 
L 633.601927 89.850234 
L 636.841365 93.724924 
L 640.080803 88.02685 
L 643.320241 96.004154 
L 646.559679 95.320385 
L 649.799117 104.893151 
L 653.038556 108.881803 
L 656.277994 98.853192 
L 659.517432 95.890193 
L 662.75687 102.385998 
L 665.996308 101.930152 
L 669.235746 92.585309 
L 672.475184 92.813232 
L 675.714622 96.801885 
L 678.95406 94.522655 
L 678.95406 94.522655 
" clip-path="url(#p115db60dbe)" style="fill: none; stroke: #ffa500; stroke-width: 3; stroke-linecap: square"/>
   </g>
   <g id="patch_3">
    <path d="M 114.32 343.96 
L 114.32 21.171156 
" style="fill: none; stroke: #000000; stroke-width: 0.8; stroke-linejoin: miter; stroke-linecap: square"/>
   </g>
   <g id="patch_4">
    <path d="M 705.841396 343.96 
L 705.841396 21.171156 
" style="fill: none; stroke: #000000; stroke-width: 0.8; stroke-linejoin: miter; stroke-linecap: square"/>
   </g>
   <g id="patch_5">
    <path d="M 114.32 343.96 
L 705.841396 343.96 
" style="fill: none; stroke: #000000; stroke-width: 0.8; stroke-linejoin: miter; stroke-linecap: square"/>
   </g>
   <g id="patch_6">
    <path d="M 114.32 21.171156 
L 705.841396 21.171156 
" style="fill: none; stroke: #000000; stroke-width: 0.8; stroke-linejoin: miter; stroke-linecap: square"/>
   </g>
  </g>
 </g>
 <defs>
  <clipPath id="p115db60dbe">
   <rect x="114.32" y="21.171156" width="591.521396" height="322.788844"/>
  </clipPath>
 </defs>
</svg>
