<?xml version="1.0" encoding="utf-8" standalone="no"?>
<!DOCTYPE svg PUBLIC "-//W3C//DTD SVG 1.1//EN"
  "http://www.w3.org/Graphics/SVG/1.1/DTD/svg11.dtd">
<svg xmlns:xlink="http://www.w3.org/1999/xlink" width="720pt" height="432pt" viewBox="0 0 720 432" xmlns="http://www.w3.org/2000/svg" version="1.1">
 <metadata>
  <rdf:RDF xmlns:dc="http://purl.org/dc/elements/1.1/" xmlns:cc="http://creativecommons.org/ns#" xmlns:rdf="http://www.w3.org/1999/02/22-rdf-syntax-ns#">
   <cc:Work>
    <dc:type rdf:resource="http://purl.org/dc/dcmitype/StillImage"/>
    <dc:date>2025-06-20T06:27:43.124646</dc:date>
    <dc:format>image/svg+xml</dc:format>
    <dc:creator>
     <cc:Agent>
      <dc:title>Matplotlib v3.7.1, https://matplotlib.org/</dc:title>
     </cc:Agent>
    </dc:creator>
   </cc:Work>
  </rdf:RDF>
 </metadata>
 <defs>
  <style type="text/css">*{stroke-linejoin: round; stroke-linecap: butt}</style>
 </defs>
 <g id="figure_1">
  <g id="patch_1">
   <path d="M 0 432 
L 720 432 
L 720 0 
L 0 0 
z
" style="fill: #ffffff"/>
  </g>
  <g id="axes_1">
   <g id="patch_2">
    <path d="M 114.23 343.96 
L 705.841396 343.96 
L 705.841396 10.8 
L 114.23 10.8 
z
" style="fill: #ffffff"/>
   </g>
   <g id="PolyCollection_1">
    <defs>
     <path id="m8d0cf65e8e" d="M 141.121427 -257.979007 
L 141.121427 -252.188326 
L 144.361358 -242.855164 
L 147.601289 -228.690127 
L 150.84122 -219.560398 
L 154.081151 -202.844788 
L 157.321082 -187.825616 
L 160.561013 -201.804532 
L 163.800944 -192.181783 
L 167.040875 -185.574829 
L 170.280806 -175.885741 
L 173.520737 -182.923987 
L 176.760668 -179.867144 
L 180.000599 -184.81822 
L 183.24053 -183.027478 
L 186.480461 -180.139779 
L 189.720392 -161.50352 
L 192.960323 -160.374138 
L 196.200254 -167.163872 
L 199.440185 -158.642677 
L 202.680116 -158.686306 
L 205.920047 -151.519421 
L 209.159978 -142.505684 
L 212.399909 -135.73068 
L 215.63984 -143.384331 
L 218.879771 -158.265985 
L 222.119702 -139.777619 
L 225.359633 -144.830229 
L 228.599564 -131.398 
L 231.839494 -136.520371 
L 235.079425 -143.528682 
L 238.319356 -148.46915 
L 241.559287 -143.660071 
L 244.799218 -154.696987 
L 248.039149 -157.218284 
L 251.27908 -142.859567 
L 254.519011 -142.461998 
L 257.758942 -145.629746 
L 260.998873 -137.030786 
L 264.238804 -144.711386 
L 267.478735 -157.107033 
L 270.718666 -157.624307 
L 273.958597 -148.265609 
L 277.198528 -154.198759 
L 280.438459 -157.120372 
L 283.67839 -132.931493 
L 286.918321 -140.081328 
L 290.158252 -138.382522 
L 293.398183 -139.947215 
L 296.638114 -144.641873 
L 299.878045 -152.858564 
L 303.117976 -154.915446 
L 306.357907 -151.202437 
L 309.597838 -147.834209 
L 312.837769 -128.277007 
L 316.0777 -140.337537 
L 319.317631 -137.692176 
L 322.557562 -131.574521 
L 325.797493 -132.190838 
L 329.037424 -140.925703 
L 332.277355 -133.17128 
L 335.517286 -147.406843 
L 338.757217 -140.125542 
L 341.997148 -132.252012 
L 345.237079 -125.387777 
L 348.47701 -123.20411 
L 351.716941 -137.526825 
L 354.956872 -144.637247 
L 358.196803 -150.69719 
L 361.436734 -147.699007 
L 364.676665 -135.999398 
L 367.916596 -132.824712 
L 371.156527 -133.465105 
L 374.396457 -145.179853 
L 377.636388 -134.777135 
L 380.876319 -142.959137 
L 384.11625 -135.542397 
L 387.356181 -137.74693 
L 390.596112 -138.462793 
L 393.836043 -130.067553 
L 397.075974 -159.171955 
L 400.315905 -146.646752 
L 403.555836 -152.969705 
L 406.795767 -140.828444 
L 410.035698 -136.345883 
L 413.275629 -130.473881 
L 416.51556 -137.12222 
L 419.755491 -122.238481 
L 422.995422 -133.854932 
L 426.235353 -137.654105 
L 429.475284 -132.029406 
L 432.715215 -129.344898 
L 435.955146 -127.473136 
L 439.195077 -124.455229 
L 442.435008 -133.043245 
L 445.674939 -116.613858 
L 448.91487 -136.303597 
L 452.154801 -126.481165 
L 455.394732 -133.034058 
L 458.634663 -132.231291 
L 461.874594 -122.814212 
L 465.114525 -115.205682 
L 468.354456 -121.208565 
L 471.594387 -139.645744 
L 474.834318 -132.00268 
L 478.074249 -133.959594 
L 481.31418 -139.744974 
L 484.554111 -136.337298 
L 487.794042 -125.151391 
L 491.033973 -120.769593 
L 494.273904 -118.37485 
L 497.513835 -119.386672 
L 500.753766 -126.977628 
L 503.993697 -130.847057 
L 507.233628 -132.577104 
L 510.473559 -122.182859 
L 513.71349 -114.3329 
L 516.953421 -122.525371 
L 520.193351 -132.539696 
L 523.433282 -131.04389 
L 526.673213 -127.662491 
L 529.913144 -127.101543 
L 533.153075 -133.105301 
L 536.393006 -140.290056 
L 539.632937 -137.822461 
L 542.872868 -131.925362 
L 546.112799 -118.862884 
L 549.35273 -125.38239 
L 552.592661 -126.49207 
L 555.832592 -135.9884 
L 559.072523 -132.934484 
L 562.312454 -108.908115 
L 565.552385 -118.918616 
L 568.792316 -121.431208 
L 572.032247 -121.153553 
L 575.272178 -126.76713 
L 578.512109 -117.608923 
L 581.75204 -103.183636 
L 584.991971 -128.110136 
L 588.231902 -119.29589 
L 591.471833 -115.515509 
L 594.711764 -123.012559 
L 597.951695 -121.275491 
L 601.191626 -119.946332 
L 604.431557 -111.18145 
L 607.671488 -134.156643 
L 610.911419 -135.882431 
L 614.15135 -130.995082 
L 617.391281 -131.519946 
L 620.631212 -128.636333 
L 623.871143 -119.147202 
L 627.111074 -109.752246 
L 630.351005 -114.873263 
L 633.590936 -114.593149 
L 636.830867 -121.362135 
L 640.070798 -125.474028 
L 643.310729 -129.747813 
L 646.55066 -124.74215 
L 649.790591 -124.528579 
L 653.030522 -134.035389 
L 656.270453 -117.681008 
L 659.510384 -118.005263 
L 662.750314 -123.653252 
L 665.990245 -119.133061 
L 669.230176 -121.530026 
L 672.470107 -124.271593 
L 675.710038 -117.878367 
L 678.949969 -125.627666 
L 678.949969 -141.014052 
L 678.949969 -141.014052 
L 675.710038 -150.81323 
L 672.470107 -142.98509 
L 669.230176 -139.782008 
L 665.990245 -136.029336 
L 662.750314 -131.91912 
L 659.510384 -132.852388 
L 656.270453 -146.09088 
L 653.030522 -162.73955 
L 649.790591 -151.952558 
L 646.55066 -152.353951 
L 643.310729 -159.237585 
L 640.070798 -152.852 
L 636.830867 -136.260116 
L 633.590936 -140.569248 
L 630.351005 -138.854218 
L 627.111074 -149.714897 
L 623.871143 -136.630158 
L 620.631212 -134.520592 
L 617.391281 -139.836494 
L 614.15135 -152.250656 
L 610.911419 -162.942386 
L 607.671488 -150.728998 
L 604.431557 -169.80942 
L 601.191626 -167.809139 
L 597.951695 -156.230585 
L 594.711764 -152.853614 
L 591.471833 -140.466839 
L 588.231902 -136.891446 
L 584.991971 -150.420881 
L 581.75204 -129.430092 
L 578.512109 -141.858219 
L 575.272178 -139.259625 
L 572.032247 -133.598868 
L 568.792316 -151.155159 
L 565.552385 -185.85085 
L 562.312454 -202.010988 
L 559.072523 -153.386072 
L 555.832592 -143.772544 
L 552.592661 -155.52374 
L 549.35273 -152.123687 
L 546.112799 -170.327502 
L 542.872868 -154.80517 
L 539.632937 -163.667199 
L 536.393006 -167.144252 
L 533.153075 -158.954916 
L 529.913144 -141.795043 
L 526.673213 -147.998695 
L 523.433282 -149.127029 
L 520.193351 -144.146429 
L 516.953421 -144.116348 
L 513.71349 -124.635453 
L 510.473559 -140.154114 
L 507.233628 -139.3943 
L 503.993697 -137.639553 
L 500.753766 -152.783316 
L 497.513835 -165.703957 
L 494.273904 -166.510791 
L 491.033973 -165.960939 
L 487.794042 -153.789601 
L 484.554111 -162.487519 
L 481.31418 -146.78057 
L 478.074249 -159.125562 
L 474.834318 -161.492452 
L 471.594387 -173.938202 
L 468.354456 -204.05969 
L 465.114525 -191.613663 
L 461.874594 -182.160242 
L 458.634663 -161.878805 
L 455.394732 -158.411195 
L 452.154801 -147.540117 
L 448.91487 -162.52122 
L 445.674939 -159.662291 
L 442.435008 -165.371597 
L 439.195077 -151.82092 
L 435.955146 -146.343159 
L 432.715215 -137.706796 
L 429.475284 -146.091635 
L 426.235353 -165.27047 
L 422.995422 -174.19434 
L 419.755491 -181.09607 
L 416.51556 -169.492138 
L 413.275629 -168.145948 
L 410.035698 -181.542808 
L 406.795767 -188.129594 
L 403.555836 -215.346007 
L 400.315905 -196.660437 
L 397.075974 -200.944242 
L 393.836043 -238.658135 
L 390.596112 -231.082846 
L 387.356181 -242.048104 
L 384.11625 -216.579272 
L 380.876319 -227.611442 
L 377.636388 -198.690636 
L 374.396457 -213.501428 
L 371.156527 -177.453997 
L 367.916596 -178.504367 
L 364.676665 -210.382609 
L 361.436734 -207.087505 
L 358.196803 -192.200024 
L 354.956872 -174.071395 
L 351.716941 -165.807726 
L 348.47701 -170.905986 
L 345.237079 -175.076943 
L 341.997148 -155.503459 
L 338.757217 -168.128718 
L 335.517286 -183.396085 
L 332.277355 -169.138332 
L 329.037424 -169.378436 
L 325.797493 -152.489815 
L 322.557562 -150.236301 
L 319.317631 -174.86683 
L 316.0777 -159.922196 
L 312.837769 -168.087956 
L 309.597838 -176.204119 
L 306.357907 -185.340153 
L 303.117976 -177.527385 
L 299.878045 -171.384752 
L 296.638114 -157.872726 
L 293.398183 -159.08259 
L 290.158252 -157.777453 
L 286.918321 -165.50809 
L 283.67839 -174.707804 
L 280.438459 -168.147883 
L 277.198528 -182.138842 
L 273.958597 -163.473445 
L 270.718666 -169.488839 
L 267.478735 -180.665484 
L 264.238804 -171.537402 
L 260.998873 -171.428462 
L 257.758942 -165.289357 
L 254.519011 -165.99725 
L 251.27908 -164.574742 
L 248.039149 -166.20508 
L 244.799218 -161.961777 
L 241.559287 -164.389202 
L 238.319356 -167.164675 
L 235.079425 -169.850276 
L 231.839494 -163.944349 
L 228.599564 -169.066721 
L 225.359633 -173.468438 
L 222.119702 -169.091604 
L 218.879771 -168.437186 
L 215.63984 -175.324312 
L 212.399909 -172.52358 
L 209.159978 -169.848334 
L 205.920047 -180.513435 
L 202.680116 -180.521125 
L 199.440185 -178.514876 
L 196.200254 -179.218136 
L 192.960323 -172.683657 
L 189.720392 -184.6735 
L 186.480461 -198.835304 
L 183.24053 -200.867314 
L 180.000599 -209.530954 
L 176.760668 -216.531909 
L 173.520737 -217.574824 
L 170.280806 -209.238978 
L 167.040875 -217.793813 
L 163.800944 -225.740999 
L 160.561013 -224.317765 
L 157.321082 -230.302154 
L 154.081151 -223.482498 
L 150.84122 -237.720058 
L 147.601289 -242.324518 
L 144.361358 -246.198415 
L 141.121427 -257.979007 
z
" style="stroke: #0000ff; stroke-opacity: 0.3"/>
    </defs>
    <g clip-path="url(#p4a144f998c)">
     <use xlink:href="#m8d0cf65e8e" x="0" y="432" style="fill: #0000ff; fill-opacity: 0.3; stroke: #0000ff; stroke-opacity: 0.3"/>
    </g>
   </g>
   <g id="PolyCollection_2">
    <defs>
     <path id="m126a6063e9" d="M 141.121427 -358.573772 
L 141.121427 -348.381935 
L 144.361358 -344.1105 
L 147.601289 -336.44611 
L 150.84122 -336.891861 
L 154.081151 -339.229772 
L 157.321082 -337.489963 
L 160.561013 -337.879454 
L 163.800944 -334.661299 
L 167.040875 -333.449583 
L 170.280806 -333.693509 
L 173.520737 -327.221047 
L 176.760668 -331.79955 
L 180.000599 -318.845152 
L 183.24053 -324.106264 
L 186.480461 -323.446444 
L 189.720392 -337.011082 
L 192.960323 -337.881704 
L 196.200254 -338.410455 
L 199.440185 -335.550508 
L 202.680116 -335.549355 
L 205.920047 -347.724655 
L 209.159978 -348.880293 
L 212.399909 -338.813512 
L 215.63984 -343.800236 
L 218.879771 -349.008282 
L 222.119702 -351.149174 
L 225.359633 -344.43742 
L 228.599564 -337.723763 
L 231.839494 -335.483807 
L 235.079425 -332.70171 
L 238.319356 -333.96766 
L 241.559287 -338.120325 
L 244.799218 -344.339271 
L 248.039149 -349.023917 
L 251.27908 -338.342945 
L 254.519011 -348.499765 
L 257.758942 -337.93632 
L 260.998873 -339.846833 
L 264.238804 -344.951606 
L 267.478735 -341.365925 
L 270.718666 -348.58932 
L 273.958597 -347.956879 
L 277.198528 -343.893123 
L 280.438459 -342.597488 
L 283.67839 -345.395372 
L 286.918321 -343.614087 
L 290.158252 -351.141148 
L 293.398183 -358.407176 
L 296.638114 -347.257447 
L 299.878045 -367.634177 
L 303.117976 -362.185047 
L 306.357907 -359.341987 
L 309.597838 -357.803491 
L 312.837769 -354.851693 
L 316.0777 -362.172269 
L 319.317631 -362.682551 
L 322.557562 -363.076645 
L 325.797493 -367.971419 
L 329.037424 -366.081434 
L 332.277355 -366.635317 
L 335.517286 -366.062214 
L 338.757217 -372.058096 
L 341.997148 -371.339426 
L 345.237079 -365.87351 
L 348.47701 -369.38264 
L 351.716941 -371.283157 
L 354.956872 -367.911736 
L 358.196803 -376.435277 
L 361.436734 -373.779456 
L 364.676665 -361.795885 
L 367.916596 -366.041462 
L 371.156527 -364.869494 
L 374.396457 -369.013225 
L 377.636388 -373.556883 
L 380.876319 -378.995313 
L 384.11625 -378.883361 
L 387.356181 -376.233559 
L 390.596112 -372.502403 
L 393.836043 -374.590183 
L 397.075974 -377.954587 
L 400.315905 -379.257055 
L 403.555836 -381.987313 
L 406.795767 -375.408679 
L 410.035698 -375.39876 
L 413.275629 -379.625209 
L 416.51556 -382.38435 
L 419.755491 -371.554759 
L 422.995422 -379.538565 
L 426.235353 -377.47637 
L 429.475284 -373.472802 
L 432.715215 -374.010538 
L 435.955146 -372.367115 
L 439.195077 -379.208291 
L 442.435008 -383.489286 
L 445.674939 -380.488628 
L 448.91487 -381.485395 
L 452.154801 -380.581169 
L 455.394732 -370.517269 
L 458.634663 -373.448079 
L 461.874594 -378.536509 
L 465.114525 -383.207938 
L 468.354456 -383.590609 
L 471.594387 -380.285406 
L 474.834318 -379.832558 
L 478.074249 -388.670361 
L 481.31418 -382.503379 
L 484.554111 -378.445703 
L 487.794042 -383.046008 
L 491.033973 -380.182494 
L 494.273904 -386.109668 
L 497.513835 -375.93736 
L 500.753766 -376.132432 
L 503.993697 -382.871449 
L 507.233628 -383.892566 
L 510.473559 -371.910669 
L 513.71349 -383.767625 
L 516.953421 -382.515649 
L 520.193351 -376.688574 
L 523.433282 -379.395692 
L 526.673213 -378.741262 
L 529.913144 -372.329032 
L 533.153075 -370.171222 
L 536.393006 -381.115619 
L 539.632937 -381.924238 
L 542.872868 -378.247106 
L 546.112799 -376.923037 
L 549.35273 -371.116535 
L 552.592661 -378.746799 
L 555.832592 -371.03492 
L 559.072523 -379.207533 
L 562.312454 -372.377707 
L 565.552385 -383.979098 
L 568.792316 -367.459666 
L 572.032247 -380.744447 
L 575.272178 -365.942231 
L 578.512109 -382.279536 
L 581.75204 -375.719456 
L 584.991971 -372.079879 
L 588.231902 -376.053575 
L 591.471833 -376.352658 
L 594.711764 -373.170873 
L 597.951695 -382.022591 
L 601.191626 -383.734485 
L 604.431557 -387.149962 
L 607.671488 -382.759399 
L 610.911419 -385.951385 
L 614.15135 -384.851284 
L 617.391281 -385.066696 
L 620.631212 -375.867474 
L 623.871143 -369.744028 
L 627.111074 -367.006663 
L 630.351005 -366.107524 
L 633.590936 -371.884557 
L 636.830867 -360.686345 
L 640.070798 -363.652672 
L 643.310729 -366.298083 
L 646.55066 -373.034039 
L 649.790591 -381.195183 
L 653.030522 -377.931069 
L 656.270453 -382.418728 
L 659.510384 -379.566048 
L 662.750314 -389.158583 
L 665.990245 -381.57359 
L 669.230176 -379.63382 
L 672.470107 -385.497876 
L 675.710038 -377.777892 
L 678.949969 -378.084126 
L 678.949969 -393.03279 
L 678.949969 -393.03279 
L 675.710038 -394.158976 
L 672.470107 -394.228532 
L 669.230176 -391.688084 
L 665.990245 -387.493447 
L 662.750314 -395.692522 
L 659.510384 -392.37082 
L 656.270453 -393.002934 
L 653.030522 -390.725992 
L 649.790591 -392.381588 
L 646.55066 -386.603556 
L 643.310729 -397.234281 
L 640.070798 -395.984923 
L 636.830867 -398.131298 
L 633.590936 -393.082723 
L 630.351005 -394.964985 
L 627.111074 -393.860859 
L 623.871143 -393.993324 
L 620.631212 -387.254915 
L 617.391281 -387.075159 
L 614.15135 -387.905535 
L 610.911419 -394.594974 
L 607.671488 -386.10265 
L 604.431557 -395.446276 
L 601.191626 -394.761995 
L 597.951695 -397.088853 
L 594.711764 -402.045802 
L 591.471833 -394.354283 
L 588.231902 -398.548136 
L 584.991971 -401.496892 
L 581.75204 -400.932133 
L 578.512109 -406.056364 
L 575.272178 -395.745243 
L 572.032247 -387.297651 
L 568.792316 -391.562965 
L 565.552385 -391.032588 
L 562.312454 -386.439936 
L 559.072523 -399.08396 
L 555.832592 -393.317396 
L 552.592661 -394.419997 
L 549.35273 -394.875684 
L 546.112799 -391.939012 
L 542.872868 -398.199495 
L 539.632937 -392.267497 
L 536.393006 -397.380862 
L 533.153075 -393.361142 
L 529.913144 -395.508078 
L 526.673213 -392.375654 
L 523.433282 -395.411006 
L 520.193351 -396.273233 
L 516.953421 -396.595795 
L 513.71349 -399.648565 
L 510.473559 -393.466586 
L 507.233628 -396.448806 
L 503.993697 -395.215056 
L 500.753766 -397.649327 
L 497.513835 -396.409484 
L 494.273904 -390.951897 
L 491.033973 -393.394277 
L 487.794042 -396.6804 
L 484.554111 -396.565983 
L 481.31418 -395.788113 
L 478.074249 -391.466023 
L 474.834318 -396.614044 
L 471.594387 -392.471414 
L 468.354456 -395.930811 
L 465.114525 -389.343894 
L 461.874594 -395.040262 
L 458.634663 -395.003995 
L 455.394732 -393.220083 
L 452.154801 -390.125772 
L 448.91487 -396.806097 
L 445.674939 -398.622816 
L 442.435008 -396.032133 
L 439.195077 -398.058262 
L 435.955146 -392.395177 
L 432.715215 -395.671464 
L 429.475284 -394.15932 
L 426.235353 -393.640546 
L 422.995422 -396.088085 
L 419.755491 -396.692327 
L 416.51556 -388.937554 
L 413.275629 -390.671756 
L 410.035698 -386.903677 
L 406.795767 -393.658358 
L 403.555836 -389.129604 
L 400.315905 -380.585528 
L 397.075974 -387.217681 
L 393.836043 -389.352158 
L 390.596112 -388.570107 
L 387.356181 -391.603551 
L 384.11625 -392.643531 
L 380.876319 -390.891677 
L 377.636388 -391.820372 
L 374.396457 -391.649309 
L 371.156527 -392.513234 
L 367.916596 -389.701363 
L 364.676665 -394.561903 
L 361.436734 -392.622739 
L 358.196803 -393.6567 
L 354.956872 -388.036077 
L 351.716941 -393.684123 
L 348.47701 -394.149724 
L 345.237079 -388.229411 
L 341.997148 -395.267757 
L 338.757217 -386.964535 
L 335.517286 -385.785841 
L 332.277355 -385.827702 
L 329.037424 -389.251414 
L 325.797493 -383.46666 
L 322.557562 -395.53601 
L 319.317631 -388.755528 
L 316.0777 -390.29075 
L 312.837769 -388.796846 
L 309.597838 -390.969746 
L 306.357907 -389.431249 
L 303.117976 -390.687948 
L 299.878045 -387.493684 
L 296.638114 -382.656903 
L 293.398183 -378.066787 
L 290.158252 -380.618093 
L 286.918321 -381.175566 
L 283.67839 -372.834669 
L 280.438459 -375.427565 
L 277.198528 -382.946409 
L 273.958597 -374.782895 
L 270.718666 -370.460673 
L 267.478735 -378.299031 
L 264.238804 -373.893399 
L 260.998873 -371.003644 
L 257.758942 -377.628878 
L 254.519011 -374.649985 
L 251.27908 -376.402302 
L 248.039149 -381.915373 
L 244.799218 -375.325685 
L 241.559287 -378.059837 
L 238.319356 -373.603011 
L 235.079425 -385.323343 
L 231.839494 -378.031512 
L 228.599564 -380.096302 
L 225.359633 -375.022548 
L 222.119702 -377.125273 
L 218.879771 -369.631735 
L 215.63984 -372.789902 
L 212.399909 -361.992558 
L 209.159978 -357.46045 
L 205.920047 -365.585677 
L 202.680116 -364.641752 
L 199.440185 -360.950816 
L 196.200254 -351.736245 
L 192.960323 -361.284463 
L 189.720392 -350.880751 
L 186.480461 -354.195994 
L 183.24053 -362.350654 
L 180.000599 -357.772347 
L 176.760668 -353.837416 
L 173.520737 -348.986476 
L 170.280806 -340.669123 
L 167.040875 -340.503073 
L 163.800944 -348.515812 
L 160.561013 -347.142548 
L 157.321082 -355.526568 
L 154.081151 -353.991747 
L 150.84122 -352.024911 
L 147.601289 -346.526013 
L 144.361358 -354.030728 
L 141.121427 -358.573772 
z
" style="stroke: #008000; stroke-opacity: 0.3"/>
    </defs>
    <g clip-path="url(#p4a144f998c)">
     <use xlink:href="#m126a6063e9" x="0" y="432" style="fill: #008000; fill-opacity: 0.3; stroke: #008000; stroke-opacity: 0.3"/>
    </g>
   </g>
   <g id="PolyCollection_3">
    <defs>
     <path id="m10c381425a" d="M 141.121427 -361.456046 
L 141.121427 -352.469249 
L 144.361358 -353.4457 
L 147.601289 -358.765084 
L 150.84122 -348.354924 
L 154.081151 -336.256371 
L 157.321082 -342.884557 
L 160.561013 -343.246044 
L 163.800944 -338.675021 
L 167.040875 -331.02918 
L 170.280806 -332.280959 
L 173.520737 -330.690795 
L 176.760668 -332.134244 
L 180.000599 -333.373222 
L 183.24053 -331.665996 
L 186.480461 -330.36271 
L 189.720392 -337.774428 
L 192.960323 -337.137612 
L 196.200254 -333.416926 
L 199.440185 -332.458061 
L 202.680116 -339.693926 
L 205.920047 -333.607346 
L 209.159978 -341.051217 
L 212.399909 -331.646643 
L 215.63984 -335.399482 
L 218.879771 -331.179645 
L 222.119702 -329.260146 
L 225.359633 -319.949533 
L 228.599564 -309.980251 
L 231.839494 -329.831406 
L 235.079425 -321.539697 
L 238.319356 -327.826998 
L 241.559287 -321.761021 
L 244.799218 -322.513649 
L 248.039149 -338.442147 
L 251.27908 -327.986515 
L 254.519011 -329.57668 
L 257.758942 -326.416952 
L 260.998873 -323.425793 
L 264.238804 -334.540093 
L 267.478735 -333.478733 
L 270.718666 -324.222125 
L 273.958597 -308.590808 
L 277.198528 -328.008367 
L 280.438459 -329.958769 
L 283.67839 -317.848666 
L 286.918321 -317.721303 
L 290.158252 -328.569325 
L 293.398183 -328.941114 
L 296.638114 -327.604425 
L 299.878045 -314.519121 
L 303.117976 -323.268776 
L 306.357907 -325.081514 
L 309.597838 -329.58823 
L 312.837769 -333.204655 
L 316.0777 -327.785794 
L 319.317631 -325.123968 
L 322.557562 -334.636553 
L 325.797493 -324.806185 
L 329.037424 -325.823841 
L 332.277355 -329.906013 
L 335.517286 -331.390667 
L 338.757217 -320.320071 
L 341.997148 -316.683045 
L 345.237079 -330.425767 
L 348.47701 -321.85748 
L 351.716941 -322.812079 
L 354.956872 -321.688913 
L 358.196803 -323.20447 
L 361.436734 -323.149947 
L 364.676665 -317.617041 
L 367.916596 -324.689123 
L 371.156527 -333.692255 
L 374.396457 -320.671257 
L 377.636388 -328.315849 
L 380.876319 -336.335246 
L 384.11625 -342.3339 
L 387.356181 -347.593244 
L 390.596112 -335.133205 
L 393.836043 -339.410064 
L 397.075974 -340.106919 
L 400.315905 -339.994124 
L 403.555836 -338.764197 
L 406.795767 -328.495967 
L 410.035698 -334.688058 
L 413.275629 -338.367539 
L 416.51556 -323.162015 
L 419.755491 -323.946797 
L 422.995422 -323.904342 
L 426.235353 -321.888384 
L 429.475284 -331.665996 
L 432.715215 -328.252792 
L 435.955146 -324.040757 
L 439.195077 -331.368815 
L 442.435008 -326.68198 
L 445.674939 -324.115364 
L 448.91487 -339.502257 
L 452.154801 -342.686853 
L 455.394732 -337.647065 
L 458.634663 -337.191617 
L 461.874594 -343.991388 
L 465.114525 -334.310236 
L 468.354456 -329.131533 
L 471.594387 -345.768955 
L 474.834318 -338.816952 
L 478.074249 -339.682375 
L 481.31418 -341.527266 
L 484.554111 -344.680959 
L 487.794042 -337.329282 
L 491.033973 -339.639921 
L 494.273904 -331.592638 
L 497.513835 -338.007302 
L 500.753766 -330.626488 
L 503.993697 -343.531674 
L 507.233628 -348.218509 
L 510.473559 -344.486273 
L 513.71349 -345.701632 
L 516.953421 -339.17719 
L 520.193351 -338.463999 
L 523.433282 -348.780717 
L 526.673213 -337.077572 
L 529.913144 -340.226998 
L 533.153075 -330.103717 
L 536.393006 -336.993913 
L 539.632937 -331.439156 
L 542.872868 -343.068943 
L 546.112799 -334.663189 
L 549.35273 -334.020857 
L 552.592661 -332.734639 
L 555.832592 -336.207882 
L 559.072523 -339.679358 
L 562.312454 -333.373222 
L 565.552385 -332.974797 
L 568.792316 -339.553763 
L 572.032247 -336.671864 
L 575.272178 -335.285437 
L 578.512109 -326.675946 
L 581.75204 -338.368789 
L 584.991971 -329.614349 
L 588.231902 -323.141413 
L 591.471833 -332.134244 
L 594.711764 -328.888358 
L 597.951695 -329.366907 
L 601.191626 -324.532624 
L 604.431557 -335.405516 
L 607.671488 -328.926545 
L 610.911419 -338.172853 
L 614.15135 -331.153526 
L 617.391281 -320.660956 
L 620.631212 -328.287962 
L 623.871143 -328.400757 
L 627.111074 -319.130831 
L 630.351005 -321.006625 
L 633.590936 -328.437178 
L 636.830867 -329.608833 
L 640.070798 -339.68841 
L 643.310729 -330.334824 
L 646.55066 -326.257436 
L 649.790591 -332.494481 
L 653.030522 -313.013865 
L 656.270453 -324.485385 
L 659.510384 -322.725921 
L 662.750314 -310.794169 
L 665.990245 -319.682006 
L 669.230176 -315.362692 
L 672.470107 -321.577885 
L 675.710038 -313.321347 
L 678.949969 -316.723732 
L 678.949969 -324.840838 
L 678.949969 -324.840838 
L 675.710038 -337.672666 
L 672.470107 -342.740341 
L 669.230176 -349.570497 
L 665.990245 -350.990844 
L 662.750314 -336.305074 
L 659.510384 -347.94693 
L 656.270453 -329.993422 
L 653.030522 -337.365184 
L 649.790591 -335.103551 
L 646.55066 -346.260305 
L 643.310729 -334.393377 
L 640.070798 -354.763036 
L 636.830867 -343.523872 
L 633.590936 -330.756351 
L 630.351005 -333.472182 
L 627.111074 -325.508557 
L 623.871143 -337.967347 
L 620.631212 -335.825275 
L 617.391281 -328.488166 
L 614.15135 -343.619082 
L 610.911419 -348.899029 
L 607.671488 -344.001172 
L 604.431557 -346.131692 
L 601.191626 -345.115287 
L 597.951695 -330.236597 
L 594.711764 -339.324638 
L 591.471833 -333.003934 
L 588.231902 -335.027176 
L 584.991971 -330.194143 
L 581.75204 -338.658686 
L 578.512109 -336.822328 
L 575.272178 -345.43182 
L 572.032247 -340.150623 
L 568.792316 -356.947562 
L 565.552385 -337.903041 
L 562.312454 -344.679192 
L 559.072523 -344.317705 
L 555.832592 -346.354265 
L 552.592661 -336.503296 
L 549.35273 -363.300419 
L 546.112799 -346.259055 
L 542.872868 -346.257806 
L 539.632937 -348.253162 
L 536.393006 -337.573707 
L 533.153075 -343.438963 
L 529.913144 -346.024931 
L 526.673213 -345.484575 
L 523.433282 -349.36051 
L 520.193351 -340.203379 
L 516.953421 -345.844813 
L 513.71349 -351.209668 
L 510.473559 -347.095342 
L 507.233628 -350.537682 
L 503.993697 -348.459917 
L 500.753766 -345.991011 
L 497.513835 -344.964822 
L 494.273904 -338.260261 
L 491.033973 -348.046924 
L 487.794042 -340.518145 
L 484.554111 -345.260753 
L 481.31418 -349.644373 
L 478.074249 -347.799482 
L 474.834318 -343.745195 
L 471.594387 -350.117405 
L 468.354456 -344.206159 
L 465.114525 -342.717239 
L 461.874594 -347.180251 
L 458.634663 -339.220894 
L 455.394732 -342.865204 
L 452.154801 -348.484786 
L 448.91487 -346.749673 
L 445.674939 -346.14751 
L 442.435008 -343.785882 
L 439.195077 -345.863648 
L 435.955146 -348.681972 
L 432.715215 -334.630518 
L 429.475284 -344.131552 
L 426.235353 -346.5296 
L 422.995422 -338.978968 
L 419.755491 -338.731526 
L 416.51556 -339.106331 
L 413.275629 -347.064439 
L 410.035698 -345.414235 
L 406.795767 -339.51204 
L 403.555836 -341.95306 
L 400.315905 -343.182987 
L 397.075974 -345.325059 
L 393.836043 -348.686757 
L 390.596112 -347.018967 
L 387.356181 -347.883141 
L 384.11625 -344.94297 
L 380.876319 -345.611939 
L 377.636388 -338.462232 
L 374.396457 -330.527743 
L 371.156527 -338.620498 
L 367.916596 -338.604163 
L 364.676665 -331.532081 
L 361.436734 -325.179223 
L 358.196803 -338.858889 
L 354.956872 -332.994882 
L 351.716941 -339.046292 
L 348.47701 -340.410866 
L 345.237079 -340.862047 
L 341.997148 -336.975811 
L 338.757217 -338.873457 
L 335.517286 -341.53705 
L 332.277355 -341.791776 
L 329.037424 -338.289397 
L 325.797493 -335.822258 
L 322.557562 -335.216346 
L 319.317631 -338.169318 
L 316.0777 -337.352383 
L 312.837769 -337.263208 
L 309.597838 -339.444717 
L 306.357907 -338.41676 
L 303.117976 -334.284849 
L 299.878045 -341.189613 
L 296.638114 -344.708328 
L 293.398183 -341.116773 
L 290.158252 -345.383331 
L 286.918321 -343.522105 
L 283.67839 -342.779778 
L 280.438459 -343.583912 
L 277.198528 -338.15475 
L 273.958597 -344.248096 
L 270.718666 -341.326028 
L 267.478735 -348.263463 
L 264.238804 -342.077406 
L 260.998873 -348.067009 
L 257.758942 -343.230958 
L 254.519011 -345.810892 
L 251.27908 -342.481348 
L 248.039149 -344.529977 
L 244.799218 -349.184141 
L 241.559287 -347.271926 
L 238.319356 -345.510694 
L 235.079425 -338.063807 
L 231.839494 -344.326239 
L 228.599564 -342.448677 
L 225.359633 -334.734262 
L 222.119702 -335.058079 
L 218.879771 -334.368508 
L 215.63984 -339.168138 
L 212.399909 -331.646643 
L 209.159978 -341.920907 
L 205.920047 -339.115383 
L 202.680116 -341.433306 
L 199.440185 -342.314547 
L 196.200254 -336.025996 
L 192.960323 -345.834512 
L 189.720392 -342.122878 
L 186.480461 -337.030334 
L 183.24053 -344.131552 
L 180.000599 -344.679192 
L 176.760668 -333.003934 
L 173.520737 -341.416971 
L 170.280806 -344.746515 
L 167.040875 -347.843186 
L 163.800944 -347.371921 
L 160.561013 -343.825837 
L 157.321082 -350.131973 
L 154.081151 -353.070377 
L 150.84122 -360.240686 
L 147.601289 -359.054981 
L 144.361358 -355.764873 
L 141.121427 -361.456046 
z
" style="stroke: #ff0000; stroke-opacity: 0.3"/>
    </defs>
    <g clip-path="url(#p4a144f998c)">
     <use xlink:href="#m10c381425a" x="0" y="432" style="fill: #ff0000; fill-opacity: 0.3; stroke: #ff0000; stroke-opacity: 0.3"/>
    </g>
   </g>
   <g id="PolyCollection_4">
    <defs>
     <path id="m8df7ed9102" d="M 141.121427 -359.267253 
L 141.121427 -357.527873 
L 144.361358 -356.081407 
L 147.601289 -351.318197 
L 150.84122 -342.381139 
L 154.081151 -338.684073 
L 157.321082 -335.563783 
L 160.561013 -335.37638 
L 163.800944 -327.371551 
L 167.040875 -332.119676 
L 170.280806 -334.819689 
L 173.520737 -329.673139 
L 176.760668 -340.4041 
L 180.000599 -335.049546 
L 183.24053 -331.624791 
L 186.480461 -322.229269 
L 189.720392 -317.618291 
L 192.960323 -320.765217 
L 196.200254 -320.5954 
L 199.440185 -332.229454 
L 202.680116 -329.302601 
L 205.920047 -338.704157 
L 209.159978 -335.484391 
L 212.399909 -323.892791 
L 215.63984 -337.918126 
L 218.879771 -337.625213 
L 222.119702 -328.740393 
L 225.359633 -334.812404 
L 228.599564 -324.367074 
L 231.839494 -324.119631 
L 235.079425 -324.441681 
L 238.319356 -324.92023 
L 241.559287 -324.65822 
L 244.799218 -324.4678 
L 248.039149 -333.829919 
L 251.27908 -323.464713 
L 254.519011 -325.462354 
L 257.758942 -328.189735 
L 260.998873 -324.447198 
L 264.238804 -321.476641 
L 267.478735 -324.192471 
L 270.718666 -317.861466 
L 273.958597 -317.975511 
L 277.198528 -315.717627 
L 280.438459 -319.962333 
L 283.67839 -315.335538 
L 286.918321 -308.390819 
L 290.158252 -318.020983 
L 293.398183 -300.841955 
L 296.638114 -303.667563 
L 299.878045 -304.013233 
L 303.117976 -312.668196 
L 306.357907 -312.29339 
L 309.597838 -320.895598 
L 312.837769 -314.518603 
L 316.0777 -323.545355 
L 319.317631 -318.742707 
L 322.557562 -321.76352 
L 325.797493 -305.703392 
L 329.037424 -307.091586 
L 332.277355 -306.163624 
L 335.517286 -310.632153 
L 338.757217 -320.904649 
L 341.997148 -305.112048 
L 345.237079 -314.125481 
L 348.47701 -308.237854 
L 351.716941 -314.425678 
L 354.956872 -313.173899 
L 358.196803 -319.458183 
L 361.436734 -318.992434 
L 364.676665 -318.362903 
L 367.916596 -324.390693 
L 371.156527 -329.625168 
L 374.396457 -330.869664 
L 377.636388 -331.881285 
L 380.876319 -339.470104 
L 384.11625 -320.437133 
L 387.356181 -314.923063 
L 390.596112 -317.690399 
L 393.836043 -337.41419 
L 397.075974 -330.192893 
L 400.315905 -328.932062 
L 403.555836 -333.63825 
L 406.795767 -322.885437 
L 410.035698 -314.12673 
L 413.275629 -316.322807 
L 416.51556 -311.000406 
L 419.755491 -326.079817 
L 422.995422 -324.489652 
L 426.235353 -309.230123 
L 429.475284 -306.281418 
L 432.715215 -307.216664 
L 435.955146 -305.254711 
L 439.195077 -295.201771 
L 442.435008 -300.822602 
L 445.674939 -306.973489 
L 448.91487 -312.953308 
L 452.154801 -302.2417 
L 455.394732 -318.359368 
L 458.634663 -296.888395 
L 461.874594 -292.210611 
L 465.114525 -309.846336 
L 468.354456 -314.121946 
L 471.594387 -313.46276 
L 474.834318 -303.247287 
L 478.074249 -313.46276 
L 481.31418 -309.878489 
L 484.554111 -304.522685 
L 487.794042 -302.15929 
L 491.033973 -274.109138 
L 494.273904 -292.380429 
L 497.513835 -297.374746 
L 500.753766 -303.036782 
L 503.993697 -302.53888 
L 507.233628 -281.499003 
L 510.473559 -299.25179 
L 513.71349 -288.540182 
L 516.953421 -295.295731 
L 520.193351 -280.99205 
L 523.433282 -287.958621 
L 526.673213 -272.041674 
L 529.913144 -256.802747 
L 533.153075 -271.828152 
L 536.393006 -284.342197 
L 539.632937 -280.80038 
L 542.872868 -291.647153 
L 546.112799 -302.887567 
L 549.35273 -297.256434 
L 552.592661 -312.325544 
L 555.832592 -303.88337 
L 559.072523 -299.365103 
L 562.312454 -297.764637 
L 565.552385 -299.133478 
L 568.792316 -297.596069 
L 572.032247 -287.671742 
L 575.272178 -284.235436 
L 578.512109 -291.786068 
L 581.75204 -280.885289 
L 584.991971 -287.163539 
L 588.231902 -298.213532 
L 591.471833 -288.298256 
L 594.711764 -296.496004 
L 597.951695 -304.808315 
L 601.191626 -296.803486 
L 604.431557 -291.245711 
L 607.671488 -290.779963 
L 610.911419 -288.349762 
L 614.15135 -302.517028 
L 617.391281 -301.805605 
L 620.631212 -300.681189 
L 623.871143 -310.851191 
L 627.111074 -295.719025 
L 630.351005 -288.263604 
L 633.590936 -278.687963 
L 636.830867 -269.526564 
L 640.070798 -279.090654 
L 643.310729 -277.755216 
L 646.55066 -275.222003 
L 649.790591 -271.383006 
L 653.030522 -258.265548 
L 656.270453 -261.933478 
L 659.510384 -264.702065 
L 662.750314 -260.78846 
L 665.990245 -279.039148 
L 669.230176 -276.121347 
L 672.470107 -289.48323 
L 675.710038 -274.964778 
L 678.949969 -280.565007 
L 678.949969 -333.326198 
L 678.949969 -333.326198 
L 675.710038 -340.771318 
L 672.470107 -333.837418 
L 669.230176 -336.129954 
L 665.990245 -325.422613 
L 662.750314 -328.914174 
L 659.510384 -325.000569 
L 656.270453 -330.638986 
L 653.030522 -322.622606 
L 649.790591 -323.854301 
L 646.55066 -322.475158 
L 643.310729 -330.806304 
L 640.070798 -335.620502 
L 636.830867 -328.375585 
L 633.590936 -333.768327 
L 630.351005 -334.647068 
L 627.111074 -331.086417 
L 623.871143 -333.173233 
L 620.631212 -335.758684 
L 617.391281 -333.40434 
L 614.15135 -327.158244 
L 610.911419 -325.74643 
L 607.671488 -313.681799 
L 604.431557 -319.365687 
L 601.191626 -312.168009 
L 597.951695 -322.202114 
L 594.711764 -311.860527 
L 591.471833 -315.548542 
L 588.231902 -314.447745 
L 584.991971 -315.863308 
L 581.75204 -318.861751 
L 578.512109 -322.515113 
L 575.272178 -324.531071 
L 572.032247 -321.299754 
L 568.792316 -330.644288 
L 565.552385 -332.181697 
L 562.312454 -338.060272 
L 559.072523 -343.429394 
L 555.832592 -338.091175 
L 552.592661 -330.878929 
L 549.35273 -332.623826 
L 546.112799 -331.297439 
L 542.872868 -329.623615 
L 539.632937 -319.356636 
L 536.393006 -319.709589 
L 533.153075 -325.459033 
L 529.913144 -318.550734 
L 526.673213 -315.816069 
L 523.433282 -317.52808 
L 520.193351 -314.040269 
L 516.953421 -325.155086 
L 513.71349 -328.835817 
L 510.473559 -320.994039 
L 507.233628 -327.882468 
L 503.993697 -322.831646 
L 500.753766 -326.228514 
L 497.513835 -321.436168 
L 494.273904 -319.050921 
L 491.033973 -318.463326 
L 487.794042 -308.24712 
L 484.554111 -317.568035 
L 481.31418 -313.647146 
L 478.074249 -313.752657 
L 474.834318 -313.103773 
L 471.594387 -313.752657 
L 468.354456 -326.007709 
L 465.114525 -315.934166 
L 461.874594 -320.04069 
L 458.634663 -311.673124 
L 455.394732 -331.404717 
L 452.154801 -324.563742 
L 448.91487 -316.721964 
L 445.674939 -309.582559 
L 442.435008 -311.838675 
L 439.195077 -315.20464 
L 435.955146 -315.401094 
L 432.715215 -314.46408 
L 429.475284 -328.313564 
L 426.235353 -323.724956 
L 422.995422 -325.069445 
L 419.755491 -328.39899 
L 416.51556 -328.104309 
L 413.275629 -334.876193 
L 410.035698 -341.377016 
L 406.795767 -344.917583 
L 403.555836 -345.234116 
L 400.315905 -330.671442 
L 397.075974 -338.020103 
L 393.836043 -340.02326 
L 390.596112 -337.403372 
L 387.356181 -334.636035 
L 384.11625 -336.091553 
L 380.876319 -349.036693 
L 377.636388 -346.376117 
L 374.396457 -350.872533 
L 371.156527 -352.527004 
L 367.916596 -348.742012 
L 364.676665 -355.179778 
L 361.436734 -352.910343 
L 358.196803 -358.594231 
L 354.956872 -354.629121 
L 351.716941 -351.53245 
L 348.47701 -340.70628 
L 345.237079 -349.782769 
L 341.997148 -347.726856 
L 338.757217 -353.662971 
L 335.517286 -356.145928 
L 332.277355 -359.794505 
L 329.037424 -347.387221 
L 325.797493 -340.780887 
L 322.557562 -330.46042 
L 319.317631 -320.771984 
L 316.0777 -328.473598 
L 312.837769 -320.89633 
L 309.597838 -343.21764 
L 306.357907 -333.165949 
L 303.117976 -332.381168 
L 299.878045 -320.537342 
L 296.638114 -315.553326 
L 293.398183 -324.323584 
L 290.158252 -324.978502 
L 286.918321 -310.420095 
L 283.67839 -318.234504 
L 280.438459 -319.962333 
L 277.198528 -316.007524 
L 273.958597 -321.744168 
L 270.718666 -328.007849 
L 267.478735 -326.801541 
L 264.238804 -334.232094 
L 260.998873 -325.316888 
L 257.758942 -330.798805 
L 254.519011 -344.595533 
L 251.27908 -324.044506 
L 248.039149 -339.917749 
L 244.799218 -329.396043 
L 241.559287 -332.48543 
L 238.319356 -329.558577 
L 235.079425 -338.646617 
L 231.839494 -341.223534 
L 228.599564 -341.181079 
L 225.359633 -341.190131 
L 222.119702 -335.987809 
L 218.879771 -347.191802 
L 215.63984 -350.383682 
L 212.399909 -345.345144 
L 209.159978 -338.673254 
L 205.920047 -341.603124 
L 202.680116 -334.810637 
L 199.440185 -334.548627 
L 196.200254 -341.467959 
L 192.960323 -340.47819 
L 189.720392 -323.126327 
L 186.480461 -336.144308 
L 183.24053 -335.973241 
L 180.000599 -339.108099 
L 176.760668 -343.592963 
L 173.520737 -338.949832 
L 170.280806 -339.747932 
L 167.040875 -335.888332 
L 163.800944 -341.866384 
L 160.561013 -351.900489 
L 157.321082 -351.508099 
L 154.081151 -357.817252 
L 150.84122 -360.064835 
L 147.601289 -352.76768 
L 144.361358 -364.198513 
L 141.121427 -359.267253 
z
" style="stroke: #ffa500; stroke-opacity: 0.3"/>
    </defs>
    <g clip-path="url(#p4a144f998c)">
     <use xlink:href="#m8df7ed9102" x="0" y="432" style="fill: #ffa500; fill-opacity: 0.3; stroke: #ffa500; stroke-opacity: 0.3"/>
    </g>
   </g>
   <g id="matplotlib.axis_1">
    <g id="xtick_1">
     <g id="line2d_1">
      <defs>
       <path id="m2dabbedcaf" d="M 0 0 
L 0 3.5 
" style="stroke: #000000; stroke-width: 0.8"/>
      </defs>
      <g>
       <use xlink:href="#m2dabbedcaf" x="141.121427" y="343.96" style="stroke: #000000; stroke-width: 0.8"/>
      </g>
     </g>
     <g id="text_1">
      <!-- 0 -->
      <g transform="translate(132.213927 372.235625) scale(0.28 -0.28)">
       <defs>
        <path id="DejaVuSans-30" d="M 2034 4250 
Q 1547 4250 1301 3770 
Q 1056 3291 1056 2328 
Q 1056 1369 1301 889 
Q 1547 409 2034 409 
Q 2525 409 2770 889 
Q 3016 1369 3016 2328 
Q 3016 3291 2770 3770 
Q 2525 4250 2034 4250 
z
M 2034 4750 
Q 2819 4750 3233 4129 
Q 3647 3509 3647 2328 
Q 3647 1150 3233 529 
Q 2819 -91 2034 -91 
Q 1250 -91 836 529 
Q 422 1150 422 2328 
Q 422 3509 836 4129 
Q 1250 4750 2034 4750 
z
" transform="scale(0.015625)"/>
       </defs>
       <use xlink:href="#DejaVuSans-30"/>
      </g>
     </g>
    </g>
    <g id="xtick_2">
     <g id="line2d_2">
      <g>
       <use xlink:href="#m2dabbedcaf" x="249.119126" y="343.96" style="stroke: #000000; stroke-width: 0.8"/>
      </g>
     </g>
     <g id="text_2">
      <!-- 100 -->
      <g transform="translate(222.396626 372.235625) scale(0.28 -0.28)">
       <defs>
        <path id="DejaVuSans-31" d="M 794 531 
L 1825 531 
L 1825 4091 
L 703 3866 
L 703 4441 
L 1819 4666 
L 2450 4666 
L 2450 531 
L 3481 531 
L 3481 0 
L 794 0 
L 794 531 
z
" transform="scale(0.015625)"/>
       </defs>
       <use xlink:href="#DejaVuSans-31"/>
       <use xlink:href="#DejaVuSans-30" x="63.623047"/>
       <use xlink:href="#DejaVuSans-30" x="127.246094"/>
      </g>
     </g>
    </g>
    <g id="xtick_3">
     <g id="line2d_3">
      <g>
       <use xlink:href="#m2dabbedcaf" x="357.116826" y="343.96" style="stroke: #000000; stroke-width: 0.8"/>
      </g>
     </g>
     <g id="text_3">
      <!-- 200 -->
      <g transform="translate(330.394326 372.235625) scale(0.28 -0.28)">
       <defs>
        <path id="DejaVuSans-32" d="M 1228 531 
L 3431 531 
L 3431 0 
L 469 0 
L 469 531 
Q 828 903 1448 1529 
Q 2069 2156 2228 2338 
Q 2531 2678 2651 2914 
Q 2772 3150 2772 3378 
Q 2772 3750 2511 3984 
Q 2250 4219 1831 4219 
Q 1534 4219 1204 4116 
Q 875 4013 500 3803 
L 500 4441 
Q 881 4594 1212 4672 
Q 1544 4750 1819 4750 
Q 2544 4750 2975 4387 
Q 3406 4025 3406 3419 
Q 3406 3131 3298 2873 
Q 3191 2616 2906 2266 
Q 2828 2175 2409 1742 
Q 1991 1309 1228 531 
z
" transform="scale(0.015625)"/>
       </defs>
       <use xlink:href="#DejaVuSans-32"/>
       <use xlink:href="#DejaVuSans-30" x="63.623047"/>
       <use xlink:href="#DejaVuSans-30" x="127.246094"/>
      </g>
     </g>
    </g>
    <g id="xtick_4">
     <g id="line2d_4">
      <g>
       <use xlink:href="#m2dabbedcaf" x="465.114525" y="343.96" style="stroke: #000000; stroke-width: 0.8"/>
      </g>
     </g>
     <g id="text_4">
      <!-- 300 -->
      <g transform="translate(438.392025 372.235625) scale(0.28 -0.28)">
       <defs>
        <path id="DejaVuSans-33" d="M 2597 2516 
Q 3050 2419 3304 2112 
Q 3559 1806 3559 1356 
Q 3559 666 3084 287 
Q 2609 -91 1734 -91 
Q 1441 -91 1130 -33 
Q 819 25 488 141 
L 488 750 
Q 750 597 1062 519 
Q 1375 441 1716 441 
Q 2309 441 2620 675 
Q 2931 909 2931 1356 
Q 2931 1769 2642 2001 
Q 2353 2234 1838 2234 
L 1294 2234 
L 1294 2753 
L 1863 2753 
Q 2328 2753 2575 2939 
Q 2822 3125 2822 3475 
Q 2822 3834 2567 4026 
Q 2313 4219 1838 4219 
Q 1578 4219 1281 4162 
Q 984 4106 628 3988 
L 628 4550 
Q 988 4650 1302 4700 
Q 1616 4750 1894 4750 
Q 2613 4750 3031 4423 
Q 3450 4097 3450 3541 
Q 3450 3153 3228 2886 
Q 3006 2619 2597 2516 
z
" transform="scale(0.015625)"/>
       </defs>
       <use xlink:href="#DejaVuSans-33"/>
       <use xlink:href="#DejaVuSans-30" x="63.623047"/>
       <use xlink:href="#DejaVuSans-30" x="127.246094"/>
      </g>
     </g>
    </g>
    <g id="xtick_5">
     <g id="line2d_5">
      <g>
       <use xlink:href="#m2dabbedcaf" x="573.112224" y="343.96" style="stroke: #000000; stroke-width: 0.8"/>
      </g>
     </g>
     <g id="text_5">
      <!-- 400 -->
      <g transform="translate(546.389724 372.235625) scale(0.28 -0.28)">
       <defs>
        <path id="DejaVuSans-34" d="M 2419 4116 
L 825 1625 
L 2419 1625 
L 2419 4116 
z
M 2253 4666 
L 3047 4666 
L 3047 1625 
L 3713 1625 
L 3713 1100 
L 3047 1100 
L 3047 0 
L 2419 0 
L 2419 1100 
L 313 1100 
L 313 1709 
L 2253 4666 
z
" transform="scale(0.015625)"/>
       </defs>
       <use xlink:href="#DejaVuSans-34"/>
       <use xlink:href="#DejaVuSans-30" x="63.623047"/>
       <use xlink:href="#DejaVuSans-30" x="127.246094"/>
      </g>
     </g>
    </g>
    <g id="xtick_6">
     <g id="line2d_6">
      <g>
       <use xlink:href="#m2dabbedcaf" x="681.109923" y="343.96" style="stroke: #000000; stroke-width: 0.8"/>
      </g>
     </g>
     <g id="text_6">
      <!-- 500 -->
      <g transform="translate(654.387423 372.235625) scale(0.28 -0.28)">
       <defs>
        <path id="DejaVuSans-35" d="M 691 4666 
L 3169 4666 
L 3169 4134 
L 1269 4134 
L 1269 2991 
Q 1406 3038 1543 3061 
Q 1681 3084 1819 3084 
Q 2600 3084 3056 2656 
Q 3513 2228 3513 1497 
Q 3513 744 3044 326 
Q 2575 -91 1722 -91 
Q 1428 -91 1123 -41 
Q 819 9 494 109 
L 494 744 
Q 775 591 1075 516 
Q 1375 441 1709 441 
Q 2250 441 2565 725 
Q 2881 1009 2881 1497 
Q 2881 1984 2565 2268 
Q 2250 2553 1709 2553 
Q 1456 2553 1204 2497 
Q 953 2441 691 2322 
L 691 4666 
z
" transform="scale(0.015625)"/>
       </defs>
       <use xlink:href="#DejaVuSans-35"/>
       <use xlink:href="#DejaVuSans-30" x="63.623047"/>
       <use xlink:href="#DejaVuSans-30" x="127.246094"/>
      </g>
     </g>
    </g>
    <g id="text_7">
     <!-- Episode -->
     <g transform="translate(331.485698 412.4525) scale(0.4 -0.4)">
      <defs>
       <path id="DejaVuSans-45" d="M 628 4666 
L 3578 4666 
L 3578 4134 
L 1259 4134 
L 1259 2753 
L 3481 2753 
L 3481 2222 
L 1259 2222 
L 1259 531 
L 3634 531 
L 3634 0 
L 628 0 
L 628 4666 
z
" transform="scale(0.015625)"/>
       <path id="DejaVuSans-70" d="M 1159 525 
L 1159 -1331 
L 581 -1331 
L 581 3500 
L 1159 3500 
L 1159 2969 
Q 1341 3281 1617 3432 
Q 1894 3584 2278 3584 
Q 2916 3584 3314 3078 
Q 3713 2572 3713 1747 
Q 3713 922 3314 415 
Q 2916 -91 2278 -91 
Q 1894 -91 1617 61 
Q 1341 213 1159 525 
z
M 3116 1747 
Q 3116 2381 2855 2742 
Q 2594 3103 2138 3103 
Q 1681 3103 1420 2742 
Q 1159 2381 1159 1747 
Q 1159 1113 1420 752 
Q 1681 391 2138 391 
Q 2594 391 2855 752 
Q 3116 1113 3116 1747 
z
" transform="scale(0.015625)"/>
       <path id="DejaVuSans-69" d="M 603 3500 
L 1178 3500 
L 1178 0 
L 603 0 
L 603 3500 
z
M 603 4863 
L 1178 4863 
L 1178 4134 
L 603 4134 
L 603 4863 
z
" transform="scale(0.015625)"/>
       <path id="DejaVuSans-73" d="M 2834 3397 
L 2834 2853 
Q 2591 2978 2328 3040 
Q 2066 3103 1784 3103 
Q 1356 3103 1142 2972 
Q 928 2841 928 2578 
Q 928 2378 1081 2264 
Q 1234 2150 1697 2047 
L 1894 2003 
Q 2506 1872 2764 1633 
Q 3022 1394 3022 966 
Q 3022 478 2636 193 
Q 2250 -91 1575 -91 
Q 1294 -91 989 -36 
Q 684 19 347 128 
L 347 722 
Q 666 556 975 473 
Q 1284 391 1588 391 
Q 1994 391 2212 530 
Q 2431 669 2431 922 
Q 2431 1156 2273 1281 
Q 2116 1406 1581 1522 
L 1381 1569 
Q 847 1681 609 1914 
Q 372 2147 372 2553 
Q 372 3047 722 3315 
Q 1072 3584 1716 3584 
Q 2034 3584 2315 3537 
Q 2597 3491 2834 3397 
z
" transform="scale(0.015625)"/>
       <path id="DejaVuSans-6f" d="M 1959 3097 
Q 1497 3097 1228 2736 
Q 959 2375 959 1747 
Q 959 1119 1226 758 
Q 1494 397 1959 397 
Q 2419 397 2687 759 
Q 2956 1122 2956 1747 
Q 2956 2369 2687 2733 
Q 2419 3097 1959 3097 
z
M 1959 3584 
Q 2709 3584 3137 3096 
Q 3566 2609 3566 1747 
Q 3566 888 3137 398 
Q 2709 -91 1959 -91 
Q 1206 -91 779 398 
Q 353 888 353 1747 
Q 353 2609 779 3096 
Q 1206 3584 1959 3584 
z
" transform="scale(0.015625)"/>
       <path id="DejaVuSans-64" d="M 2906 2969 
L 2906 4863 
L 3481 4863 
L 3481 0 
L 2906 0 
L 2906 525 
Q 2725 213 2448 61 
Q 2172 -91 1784 -91 
Q 1150 -91 751 415 
Q 353 922 353 1747 
Q 353 2572 751 3078 
Q 1150 3584 1784 3584 
Q 2172 3584 2448 3432 
Q 2725 3281 2906 2969 
z
M 947 1747 
Q 947 1113 1208 752 
Q 1469 391 1925 391 
Q 2381 391 2643 752 
Q 2906 1113 2906 1747 
Q 2906 2381 2643 2742 
Q 2381 3103 1925 3103 
Q 1469 3103 1208 2742 
Q 947 2381 947 1747 
z
" transform="scale(0.015625)"/>
       <path id="DejaVuSans-65" d="M 3597 1894 
L 3597 1613 
L 953 1613 
Q 991 1019 1311 708 
Q 1631 397 2203 397 
Q 2534 397 2845 478 
Q 3156 559 3463 722 
L 3463 178 
Q 3153 47 2828 -22 
Q 2503 -91 2169 -91 
Q 1331 -91 842 396 
Q 353 884 353 1716 
Q 353 2575 817 3079 
Q 1281 3584 2069 3584 
Q 2775 3584 3186 3129 
Q 3597 2675 3597 1894 
z
M 3022 2063 
Q 3016 2534 2758 2815 
Q 2500 3097 2075 3097 
Q 1594 3097 1305 2825 
Q 1016 2553 972 2059 
L 3022 2063 
z
" transform="scale(0.015625)"/>
      </defs>
      <use xlink:href="#DejaVuSans-45"/>
      <use xlink:href="#DejaVuSans-70" x="63.183594"/>
      <use xlink:href="#DejaVuSans-69" x="126.660156"/>
      <use xlink:href="#DejaVuSans-73" x="154.443359"/>
      <use xlink:href="#DejaVuSans-6f" x="206.542969"/>
      <use xlink:href="#DejaVuSans-64" x="267.724609"/>
      <use xlink:href="#DejaVuSans-65" x="331.201172"/>
     </g>
    </g>
   </g>
   <g id="matplotlib.axis_2">
    <g id="ytick_1">
     <g id="line2d_7">
      <defs>
       <path id="m20e005985c" d="M 0 0 
L -3.5 0 
" style="stroke: #000000; stroke-width: 0.8"/>
      </defs>
      <g>
       <use xlink:href="#m20e005985c" x="114.23" y="301.138995" style="stroke: #000000; stroke-width: 0.8"/>
      </g>
     </g>
     <g id="text_8">
      <!-- 125 -->
      <g transform="translate(53.785 311.776808) scale(0.28 -0.28)">
       <use xlink:href="#DejaVuSans-31"/>
       <use xlink:href="#DejaVuSans-32" x="63.623047"/>
       <use xlink:href="#DejaVuSans-35" x="127.246094"/>
      </g>
     </g>
    </g>
    <g id="ytick_2">
     <g id="line2d_8">
      <g>
       <use xlink:href="#m20e005985c" x="114.23" y="255.01672" style="stroke: #000000; stroke-width: 0.8"/>
      </g>
     </g>
     <g id="text_9">
      <!-- 150 -->
      <g transform="translate(53.785 265.654533) scale(0.28 -0.28)">
       <use xlink:href="#DejaVuSans-31"/>
       <use xlink:href="#DejaVuSans-35" x="63.623047"/>
       <use xlink:href="#DejaVuSans-30" x="127.246094"/>
      </g>
     </g>
    </g>
    <g id="ytick_3">
     <g id="line2d_9">
      <g>
       <use xlink:href="#m20e005985c" x="114.23" y="208.894445" style="stroke: #000000; stroke-width: 0.8"/>
      </g>
     </g>
     <g id="text_10">
      <!-- 175 -->
      <g transform="translate(53.785 219.532257) scale(0.28 -0.28)">
       <defs>
        <path id="DejaVuSans-37" d="M 525 4666 
L 3525 4666 
L 3525 4397 
L 1831 0 
L 1172 0 
L 2766 4134 
L 525 4134 
L 525 4666 
z
" transform="scale(0.015625)"/>
       </defs>
       <use xlink:href="#DejaVuSans-31"/>
       <use xlink:href="#DejaVuSans-37" x="63.623047"/>
       <use xlink:href="#DejaVuSans-35" x="127.246094"/>
      </g>
     </g>
    </g>
    <g id="ytick_4">
     <g id="line2d_10">
      <g>
       <use xlink:href="#m20e005985c" x="114.23" y="162.772169" style="stroke: #000000; stroke-width: 0.8"/>
      </g>
     </g>
     <g id="text_11">
      <!-- 200 -->
      <g transform="translate(53.785 173.409982) scale(0.28 -0.28)">
       <use xlink:href="#DejaVuSans-32"/>
       <use xlink:href="#DejaVuSans-30" x="63.623047"/>
       <use xlink:href="#DejaVuSans-30" x="127.246094"/>
      </g>
     </g>
    </g>
    <g id="ytick_5">
     <g id="line2d_11">
      <g>
       <use xlink:href="#m20e005985c" x="114.23" y="116.649894" style="stroke: #000000; stroke-width: 0.8"/>
      </g>
     </g>
     <g id="text_12">
      <!-- 225 -->
      <g transform="translate(53.785 127.287707) scale(0.28 -0.28)">
       <use xlink:href="#DejaVuSans-32"/>
       <use xlink:href="#DejaVuSans-32" x="63.623047"/>
       <use xlink:href="#DejaVuSans-35" x="127.246094"/>
      </g>
     </g>
    </g>
    <g id="ytick_6">
     <g id="line2d_12">
      <g>
       <use xlink:href="#m20e005985c" x="114.23" y="70.527619" style="stroke: #000000; stroke-width: 0.8"/>
      </g>
     </g>
     <g id="text_13">
      <!-- 250 -->
      <g transform="translate(53.785 81.165431) scale(0.28 -0.28)">
       <use xlink:href="#DejaVuSans-32"/>
       <use xlink:href="#DejaVuSans-35" x="63.623047"/>
       <use xlink:href="#DejaVuSans-30" x="127.246094"/>
      </g>
     </g>
    </g>
    <g id="ytick_7">
     <g id="line2d_13">
      <g>
       <use xlink:href="#m20e005985c" x="114.23" y="24.405344" style="stroke: #000000; stroke-width: 0.8"/>
      </g>
     </g>
     <g id="text_14">
      <!-- 275 -->
      <g transform="translate(53.785 35.043156) scale(0.28 -0.28)">
       <use xlink:href="#DejaVuSans-32"/>
       <use xlink:href="#DejaVuSans-37" x="63.623047"/>
       <use xlink:href="#DejaVuSans-35" x="127.246094"/>
      </g>
     </g>
    </g>
    <g id="text_15">
     <!-- $m_{to}$ -->
     <g transform="translate(41.46625 211.58) rotate(-90) scale(0.4 -0.4)">
      <defs>
       <path id="DejaVuSans-Oblique-6d" d="M 5747 2113 
L 5338 0 
L 4763 0 
L 5166 2094 
Q 5191 2228 5203 2325 
Q 5216 2422 5216 2491 
Q 5216 2772 5059 2928 
Q 4903 3084 4622 3084 
Q 4203 3084 3875 2770 
Q 3547 2456 3450 1953 
L 3066 0 
L 2491 0 
L 2900 2094 
Q 2925 2209 2937 2307 
Q 2950 2406 2950 2484 
Q 2950 2769 2794 2926 
Q 2638 3084 2363 3084 
Q 1938 3084 1609 2770 
Q 1281 2456 1184 1953 
L 800 0 
L 225 0 
L 909 3500 
L 1484 3500 
L 1375 2956 
Q 1609 3263 1923 3423 
Q 2238 3584 2597 3584 
Q 2978 3584 3223 3384 
Q 3469 3184 3519 2828 
Q 3781 3197 4126 3390 
Q 4472 3584 4856 3584 
Q 5306 3584 5551 3325 
Q 5797 3066 5797 2591 
Q 5797 2488 5784 2364 
Q 5772 2241 5747 2113 
z
" transform="scale(0.015625)"/>
       <path id="DejaVuSans-Oblique-74" d="M 2706 3500 
L 2619 3053 
L 1472 3053 
L 1100 1153 
Q 1081 1047 1072 975 
Q 1063 903 1063 863 
Q 1063 663 1183 572 
Q 1303 481 1569 481 
L 2150 481 
L 2053 0 
L 1503 0 
Q 991 0 739 200 
Q 488 400 488 806 
Q 488 878 497 964 
Q 506 1050 525 1153 
L 897 3053 
L 409 3053 
L 500 3500 
L 978 3500 
L 1172 4494 
L 1747 4494 
L 1556 3500 
L 2706 3500 
z
" transform="scale(0.015625)"/>
       <path id="DejaVuSans-Oblique-6f" d="M 1625 -91 
Q 1009 -91 651 289 
Q 294 669 294 1325 
Q 294 1706 417 2101 
Q 541 2497 738 2766 
Q 1047 3184 1428 3384 
Q 1809 3584 2291 3584 
Q 2888 3584 3255 3212 
Q 3622 2841 3622 2241 
Q 3622 1825 3500 1412 
Q 3378 1000 3181 728 
Q 2875 309 2494 109 
Q 2113 -91 1625 -91 
z
M 891 1344 
Q 891 869 1089 633 
Q 1288 397 1691 397 
Q 2269 397 2648 901 
Q 3028 1406 3028 2181 
Q 3028 2634 2825 2865 
Q 2622 3097 2228 3097 
Q 1903 3097 1650 2945 
Q 1397 2794 1197 2484 
Q 1050 2253 970 1956 
Q 891 1659 891 1344 
z
" transform="scale(0.015625)"/>
      </defs>
      <use xlink:href="#DejaVuSans-Oblique-6d"/>
      <use xlink:href="#DejaVuSans-Oblique-74" transform="translate(97.412109 -16.40625) scale(0.7)"/>
      <use xlink:href="#DejaVuSans-Oblique-6f" transform="translate(124.858398 -16.40625) scale(0.7)"/>
     </g>
    </g>
   </g>
   <g id="line2d_14">
    <path d="M 141.121427 176.916334 
L 144.361358 187.47321 
L 147.601289 196.492677 
L 150.84122 203.359772 
L 154.081151 218.836357 
L 157.321082 222.936115 
L 160.561013 218.938851 
L 163.800944 223.038609 
L 167.040875 230.315679 
L 170.280806 239.43764 
L 173.520737 231.750595 
L 176.760668 233.800473 
L 180.000599 234.825413 
L 183.24053 240.052604 
L 186.480461 242.512459 
L 189.720392 258.91149 
L 192.960323 265.471102 
L 196.200254 258.808996 
L 199.440185 263.421224 
L 202.680116 262.396284 
L 205.920047 265.983572 
L 209.159978 275.822991 
L 212.399909 277.87287 
L 215.63984 272.645679 
L 218.879771 268.648415 
L 222.119702 277.565388 
L 225.359633 272.850667 
L 228.599564 281.76764 
L 231.839494 281.76764 
L 235.079425 275.310521 
L 238.319356 274.183088 
L 241.559287 277.975364 
L 244.799218 273.670618 
L 248.039149 270.288318 
L 251.27908 278.282846 
L 254.519011 277.770376 
L 257.758942 276.540449 
L 260.998873 277.770376 
L 264.238804 273.875606 
L 267.478735 263.113742 
L 270.718666 268.443427 
L 273.958597 276.130473 
L 277.198528 263.831199 
L 280.438459 269.365872 
L 283.67839 278.180352 
L 286.918321 279.205291 
L 290.158252 283.920013 
L 293.398183 282.485097 
L 296.638114 280.7427 
L 299.878045 269.878342 
L 303.117976 265.778584 
L 306.357907 263.728705 
L 309.597838 269.980836 
L 312.837769 283.817519 
L 316.0777 281.870134 
L 319.317631 275.720497 
L 322.557562 291.094589 
L 325.797493 289.659674 
L 329.037424 276.84793 
L 332.277355 280.845194 
L 335.517286 266.598536 
L 338.757217 277.87287 
L 341.997148 288.122264 
L 345.237079 281.76764 
L 348.47701 284.944952 
L 351.716941 280.332725 
L 354.956872 272.645679 
L 358.196803 260.551393 
L 361.436734 254.606744 
L 364.676665 258.808996 
L 367.916596 276.335461 
L 371.156527 276.540449 
L 374.396457 252.659359 
L 377.636388 265.266115 
L 380.876319 246.714711 
L 384.11625 255.939166 
L 387.356181 242.102483 
L 390.596112 247.22718 
L 393.836043 247.637156 
L 397.075974 251.941902 
L 400.315905 260.346405 
L 403.555836 247.842144 
L 406.795767 267.520981 
L 410.035698 273.055654 
L 413.275629 282.690085 
L 416.51556 278.692821 
L 419.755491 280.332725 
L 422.995422 277.975364 
L 426.235353 280.537712 
L 429.475284 292.93948 
L 432.715215 298.474153 
L 435.955146 295.091853 
L 439.195077 293.861925 
L 442.435008 282.792579 
L 445.674939 293.861925 
L 448.91487 282.587591 
L 452.154801 294.989359 
L 455.394732 286.277373 
L 458.634663 284.944952 
L 461.874594 279.512773 
L 465.114525 278.590327 
L 468.354456 269.365872 
L 471.594387 275.208027 
L 474.834318 285.252434 
L 478.074249 285.457422 
L 481.31418 288.737228 
L 484.554111 282.587591 
L 487.794042 292.529504 
L 491.033973 288.634734 
L 494.273904 289.55718 
L 497.513835 289.454686 
L 500.753766 292.119528 
L 503.993697 297.756695 
L 507.233628 296.014298 
L 510.473559 300.831514 
L 513.71349 312.515823 
L 516.953421 298.679141 
L 520.193351 293.656937 
L 523.433282 291.91454 
L 526.673213 294.169407 
L 529.913144 297.551707 
L 533.153075 285.969892 
L 536.393006 278.282846 
L 539.632937 281.25517 
L 542.872868 288.634734 
L 546.112799 287.404807 
L 549.35273 293.246962 
L 552.592661 290.992095 
L 555.832592 292.119528 
L 559.072523 288.839722 
L 562.312454 276.540449 
L 565.552385 279.615267 
L 568.792316 295.706816 
L 572.032247 304.62379 
L 575.272178 298.986623 
L 578.512109 302.266429 
L 581.75204 315.693136 
L 584.991971 292.734492 
L 588.231902 303.906332 
L 591.471833 304.008826 
L 594.711764 294.066913 
L 597.951695 293.246962 
L 601.191626 288.122264 
L 604.431557 291.504565 
L 607.671488 289.55718 
L 610.911419 282.587591 
L 614.15135 290.377131 
L 617.391281 296.32178 
L 620.631212 300.421538 
L 623.871143 304.11132 
L 627.111074 302.266429 
L 630.351005 305.136259 
L 633.590936 304.418802 
L 636.830867 303.188874 
L 640.070798 292.836986 
L 643.310729 287.507301 
L 646.55066 293.45195 
L 649.790591 293.759431 
L 653.030522 283.612531 
L 656.270453 300.114056 
L 659.510384 306.571174 
L 662.750314 304.213814 
L 665.990245 304.418802 
L 672.470107 298.371659 
L 675.710038 297.654201 
L 678.949969 298.679141 
L 678.949969 298.679141 
" clip-path="url(#p4a144f998c)" style="fill: none; stroke: #0000ff; stroke-width: 3; stroke-linecap: square"/>
   </g>
   <g id="line2d_15">
    <path d="M 141.121427 78.522147 
L 144.361358 82.929386 
L 147.601289 90.513938 
L 150.84122 87.541614 
L 154.081151 85.389241 
L 157.321082 85.491735 
L 160.561013 89.488999 
L 163.800944 90.411444 
L 167.040875 95.023672 
L 170.280806 94.818684 
L 173.520737 93.896238 
L 176.760668 89.181517 
L 180.000599 93.69125 
L 183.24053 88.771541 
L 186.480461 93.178781 
L 189.720392 88.054084 
L 192.960323 82.416917 
L 196.200254 86.92665 
L 199.440185 83.749338 
L 202.680116 81.904447 
L 205.920047 75.344834 
L 209.159978 78.829628 
L 212.399909 81.596965 
L 215.63984 73.704931 
L 218.879771 72.679992 
L 222.119702 67.862776 
L 225.359633 72.270016 
L 228.599564 73.089968 
L 231.839494 75.24234 
L 235.079425 72.987474 
L 238.319356 78.214665 
L 241.559287 73.909919 
L 244.799218 72.167522 
L 248.039149 66.530355 
L 251.27908 74.627377 
L 254.519011 70.425125 
L 257.758942 74.217401 
L 260.998873 76.574762 
L 264.238804 72.577498 
L 267.478735 72.167522 
L 270.718666 72.475004 
L 273.958597 70.630113 
L 277.198528 68.580234 
L 280.438459 72.987474 
L 283.67839 72.88498 
L 286.918321 69.605173 
L 290.158252 66.120379 
L 293.398183 63.763019 
L 296.638114 67.042825 
L 299.878045 54.43607 
L 303.117976 55.563503 
L 306.357907 57.613382 
L 309.597838 57.613382 
L 312.837769 60.17573 
L 316.0777 55.768491 
L 319.317631 56.280961 
L 322.557562 52.693672 
L 325.797493 56.280961 
L 329.037424 54.333576 
L 332.277355 55.768491 
L 335.517286 56.075973 
L 338.757217 52.488685 
L 341.997148 48.696409 
L 345.237079 54.948539 
L 348.47701 50.233818 
L 351.716941 49.51636 
L 354.956872 54.026094 
L 358.196803 46.954012 
L 361.436734 48.798903 
L 364.676665 53.821106 
L 367.916596 54.128588 
L 371.156527 53.308636 
L 374.396457 51.668733 
L 380.876319 47.056505 
L 384.11625 46.236554 
L 387.356181 48.081445 
L 390.596112 51.463745 
L 393.836043 50.02883 
L 397.075974 49.413866 
L 400.315905 52.078709 
L 403.555836 46.441542 
L 406.795767 47.466481 
L 410.035698 50.848781 
L 413.275629 46.851518 
L 416.51556 46.339048 
L 419.755491 47.876457 
L 422.995422 44.186675 
L 426.235353 46.441542 
L 429.475284 48.183939 
L 432.715215 47.158999 
L 435.955146 49.618854 
L 439.195077 43.366723 
L 442.435008 42.23929 
L 445.674939 42.444278 
L 448.91487 42.854254 
L 452.154801 46.64653 
L 455.394732 50.131324 
L 458.634663 47.773963 
L 461.874594 45.211614 
L 465.114525 45.724084 
L 468.354456 42.23929 
L 471.594387 45.62159 
L 478.074249 41.931808 
L 481.31418 42.854254 
L 484.554111 44.494157 
L 487.794042 42.136796 
L 491.033973 45.211614 
L 494.273904 43.469217 
L 497.513835 45.826578 
L 500.753766 45.10912 
L 503.993697 42.956748 
L 507.233628 41.829314 
L 510.473559 49.311372 
L 513.71349 40.291905 
L 516.953421 42.444278 
L 520.193351 45.519096 
L 523.433282 44.596651 
L 526.673213 46.441542 
L 529.913144 48.081445 
L 533.153075 50.233818 
L 536.393006 42.75176 
L 539.632937 44.904133 
L 542.872868 43.776699 
L 546.112799 47.568975 
L 549.35273 49.00389 
L 552.592661 45.416602 
L 555.832592 49.823842 
L 559.072523 42.854254 
L 562.312454 52.591178 
L 565.552385 44.494157 
L 568.792316 52.488685 
L 572.032247 47.978951 
L 575.272178 51.156263 
L 578.512109 37.83205 
L 581.75204 43.674205 
L 584.991971 45.211614 
L 588.231902 44.699145 
L 591.471833 46.64653 
L 594.711764 44.391663 
L 597.951695 42.444278 
L 601.191626 42.75176 
L 604.431557 40.701881 
L 607.671488 47.568975 
L 610.911419 41.72682 
L 614.15135 45.62159 
L 617.391281 45.929072 
L 620.631212 50.438806 
L 623.871143 50.131324 
L 627.111074 51.566239 
L 630.351005 51.463745 
L 633.590936 49.51636 
L 636.830867 52.591178 
L 640.070798 52.181203 
L 643.310729 50.233818 
L 646.55066 52.181203 
L 649.790591 45.211614 
L 653.030522 47.671469 
L 656.270453 44.289169 
L 659.510384 46.031566 
L 662.750314 39.574447 
L 665.990245 47.466481 
L 669.230176 46.339048 
L 672.470107 42.136796 
L 675.710038 46.031566 
L 678.949969 46.441542 
L 678.949969 46.441542 
" clip-path="url(#p4a144f998c)" style="fill: none; stroke: #008000; stroke-width: 3; stroke-linecap: square"/>
   </g>
   <g id="line2d_16">
    <path d="M 141.121427 75.037352 
L 144.361358 77.394713 
L 147.601289 73.089968 
L 150.84122 77.702195 
L 154.081151 87.336626 
L 157.321082 85.491735 
L 160.561013 88.464059 
L 163.800944 88.976529 
L 167.040875 92.563817 
L 170.280806 93.486263 
L 173.520737 95.946117 
L 176.760668 99.430911 
L 180.000599 92.973793 
L 183.24053 94.101226 
L 186.480461 98.303478 
L 189.720392 92.051347 
L 192.960323 90.513938 
L 196.200254 97.278539 
L 199.440185 94.613696 
L 202.680116 91.436384 
L 205.920047 95.638635 
L 209.159978 90.513938 
L 212.399909 100.353357 
L 215.63984 94.71619 
L 218.879771 99.225924 
L 222.119702 99.840887 
L 225.359633 104.658103 
L 228.599564 105.785536 
L 231.839494 94.921178 
L 235.079425 102.198248 
L 238.319356 95.331154 
L 241.559287 97.483526 
L 244.799218 96.151105 
L 248.039149 90.513938 
L 251.27908 96.766069 
L 254.519011 94.306214 
L 257.758942 97.176045 
L 260.998873 96.253599 
L 267.478735 91.128902 
L 270.718666 99.225924 
L 273.958597 105.580548 
L 277.198528 98.918442 
L 280.438459 95.22866 
L 283.67839 101.685778 
L 286.918321 101.378296 
L 290.158252 95.023672 
L 293.398183 96.971057 
L 296.638114 95.843623 
L 299.878045 104.145633 
L 303.117976 103.223187 
L 306.357907 100.250863 
L 309.597838 97.483526 
L 312.837769 96.766069 
L 316.0777 99.430911 
L 319.317631 100.353357 
L 322.557562 97.073551 
L 325.797493 101.685778 
L 329.037424 99.943381 
L 332.277355 96.151105 
L 335.517286 95.536141 
L 338.757217 102.403236 
L 341.997148 105.170572 
L 345.237079 96.356093 
L 348.47701 100.865827 
L 351.716941 101.070815 
L 354.956872 104.658103 
L 358.196803 100.968321 
L 361.436734 107.835415 
L 364.676665 107.425439 
L 367.916596 100.353357 
L 371.156527 95.843623 
L 374.396457 106.4005 
L 380.876319 91.026408 
L 384.11625 88.361565 
L 387.356181 84.261808 
L 390.596112 90.923914 
L 393.836043 87.95159 
L 397.075974 89.284011 
L 403.555836 91.641372 
L 406.795767 97.995996 
L 410.035698 91.948853 
L 413.275629 89.284011 
L 416.51556 100.865827 
L 422.995422 100.558345 
L 426.235353 97.791008 
L 429.475284 94.101226 
L 432.715215 100.558345 
L 435.955146 95.638635 
L 439.195077 93.383769 
L 442.435008 96.766069 
L 445.674939 96.868563 
L 448.91487 88.874035 
L 452.154801 86.41418 
L 455.394732 91.743866 
L 458.634663 93.793744 
L 461.874594 86.41418 
L 465.114525 93.486263 
L 468.354456 95.331154 
L 471.594387 84.05682 
L 474.834318 90.718926 
L 478.074249 88.259071 
L 481.31418 86.41418 
L 484.554111 87.029144 
L 487.794042 93.076287 
L 491.033973 88.156577 
L 494.273904 97.073551 
L 497.513835 90.513938 
L 500.753766 93.69125 
L 503.993697 86.004205 
L 507.233628 82.621904 
L 510.473559 86.209192 
L 513.71349 83.54435 
L 516.953421 89.488999 
L 520.193351 92.666311 
L 523.433282 82.929386 
L 526.673213 90.718926 
L 529.913144 88.874035 
L 533.153075 95.22866 
L 536.393006 94.71619 
L 539.632937 92.153841 
L 542.872868 87.336626 
L 546.112799 91.538878 
L 549.35273 83.339362 
L 552.592661 97.381033 
L 555.832592 90.718926 
L 559.072523 90.001468 
L 562.312454 92.973793 
L 565.552385 96.561081 
L 568.792316 83.749338 
L 572.032247 93.588757 
L 575.272178 91.641372 
L 578.512109 100.250863 
L 581.75204 93.486263 
L 584.991971 102.095754 
L 588.231902 102.915706 
L 591.471833 99.430911 
L 594.711764 97.893502 
L 597.951695 102.198248 
L 601.191626 97.176045 
L 604.431557 91.231396 
L 607.671488 95.536141 
L 610.911419 88.464059 
L 614.15135 94.613696 
L 617.391281 107.425439 
L 620.631212 99.943381 
L 623.871143 98.815948 
L 627.111074 109.680306 
L 630.351005 104.760597 
L 633.590936 102.403236 
L 636.830867 95.433648 
L 640.070798 84.774277 
L 643.310729 99.635899 
L 646.55066 95.741129 
L 649.790591 98.200984 
L 653.030522 106.810475 
L 656.270453 104.760597 
L 659.510384 96.663575 
L 662.750314 108.450379 
L 665.990245 96.663575 
L 669.230176 99.533405 
L 672.470107 99.840887 
L 675.710038 106.502994 
L 678.949969 111.217715 
L 678.949969 111.217715 
" clip-path="url(#p4a144f998c)" style="fill: none; stroke: #ff0000; stroke-width: 3; stroke-linecap: square"/>
   </g>
   <g id="line2d_17">
    <path d="M 141.121427 73.602437 
L 144.361358 71.86004 
L 147.601289 79.957062 
L 150.84122 80.777013 
L 154.081151 83.749338 
L 157.321082 88.464059 
L 160.561013 88.361565 
L 163.800944 97.381033 
L 167.040875 97.995996 
L 170.280806 94.71619 
L 173.520737 97.688514 
L 176.760668 90.001468 
L 180.000599 94.921178 
L 183.24053 98.200984 
L 186.480461 102.813212 
L 189.720392 111.627691 
L 192.960323 101.378296 
L 196.200254 100.968321 
L 199.440185 98.61096 
L 202.680116 99.943381 
L 205.920047 91.846359 
L 209.159978 94.921178 
L 212.399909 97.381033 
L 215.63984 87.849096 
L 218.879771 89.591493 
L 222.119702 99.635899 
L 225.359633 93.998732 
L 228.599564 99.225924 
L 231.839494 99.328417 
L 235.079425 100.455851 
L 238.319356 104.760597 
L 241.559287 103.428175 
L 244.799218 105.068078 
L 248.039149 95.126166 
L 251.27908 108.245391 
L 254.519011 96.971057 
L 257.758942 102.50573 
L 260.998873 107.117957 
L 264.238804 104.145633 
L 267.478735 106.502994 
L 270.718666 109.065342 
L 273.958597 112.140161 
L 277.198528 116.137424 
L 280.438459 112.037667 
L 283.67839 115.214979 
L 286.918321 122.594543 
L 290.158252 110.500257 
L 293.398183 119.417231 
L 296.638114 122.389555 
L 299.878045 119.724713 
L 303.117976 109.475318 
L 306.357907 109.27033 
L 309.597838 99.943381 
L 312.837769 114.292533 
L 316.0777 105.990524 
L 319.317631 112.242655 
L 322.557562 105.88803 
L 325.797493 108.75786 
L 329.037424 104.760597 
L 332.277355 99.020936 
L 335.517286 98.61096 
L 338.757217 94.71619 
L 341.997148 105.580548 
L 345.237079 100.045875 
L 348.47701 107.527933 
L 351.716941 99.020936 
L 354.956872 98.09849 
L 358.196803 92.973793 
L 361.436734 96.048611 
L 364.676665 95.22866 
L 367.916596 95.433648 
L 371.156527 90.923914 
L 374.396457 91.128902 
L 377.636388 92.871299 
L 380.876319 87.746602 
L 384.11625 103.735657 
L 387.356181 107.220451 
L 390.596112 104.453115 
L 393.836043 93.281275 
L 397.075974 97.893502 
L 400.315905 102.198248 
L 403.555836 92.563817 
L 406.795767 98.09849 
L 410.035698 104.248127 
L 413.275629 106.4005 
L 416.51556 112.447642 
L 419.755491 104.760597 
L 422.995422 107.220451 
L 426.235353 115.522461 
L 429.475284 114.702509 
L 432.715215 121.159628 
L 435.955146 121.672097 
L 439.195077 126.796795 
L 442.435008 125.669361 
L 445.674939 123.721976 
L 448.91487 117.162364 
L 452.154801 118.597279 
L 455.394732 107.117957 
L 458.634663 127.71924 
L 461.874594 125.874349 
L 465.114525 119.109749 
L 468.354456 111.935173 
L 471.594387 118.392291 
L 474.834318 123.82447 
L 478.074249 118.392291 
L 481.31418 120.237182 
L 484.554111 120.95464 
L 487.794042 126.796795 
L 491.033973 135.713768 
L 494.273904 126.284325 
L 497.513835 122.594543 
L 500.753766 117.367352 
L 503.993697 119.314737 
L 507.233628 127.309264 
L 510.473559 121.877085 
L 513.71349 123.312001 
L 516.953421 121.774591 
L 520.193351 134.483841 
L 523.433282 129.256649 
L 526.673213 138.071129 
L 529.913144 144.323259 
L 533.153075 133.356407 
L 536.393006 129.974107 
L 539.632937 131.921492 
L 542.872868 121.364616 
L 546.112799 114.907497 
L 549.35273 117.05987 
L 552.592661 110.397764 
L 555.832592 111.012727 
L 559.072523 110.602751 
L 562.312454 114.087546 
L 565.552385 116.342412 
L 568.792316 117.879822 
L 572.032247 127.514252 
L 575.272178 127.616746 
L 578.512109 124.84941 
L 581.75204 132.12648 
L 584.991971 130.486577 
L 588.231902 125.669361 
L 591.471833 130.076601 
L 594.711764 127.821734 
L 597.951695 118.494785 
L 601.191626 127.514252 
L 604.431557 126.694301 
L 607.671488 129.769119 
L 610.911419 124.951904 
L 614.15135 117.162364 
L 617.391281 114.395027 
L 620.631212 113.780064 
L 623.871143 109.987788 
L 627.111074 118.597279 
L 630.351005 120.544664 
L 633.590936 125.771855 
L 636.830867 133.048925 
L 640.070798 124.644422 
L 643.310729 127.71924 
L 646.55066 133.151419 
L 649.790591 134.381347 
L 653.030522 141.555923 
L 656.270453 135.713768 
L 659.510384 137.148683 
L 662.750314 137.148683 
L 665.990245 129.769119 
L 669.230176 125.874349 
L 672.470107 120.339676 
L 675.710038 124.131952 
L 678.949969 125.054398 
L 678.949969 125.054398 
" clip-path="url(#p4a144f998c)" style="fill: none; stroke: #ffa500; stroke-width: 3; stroke-linecap: square"/>
   </g>
   <g id="patch_3">
    <path d="M 114.23 343.96 
L 114.23 10.8 
" style="fill: none; stroke: #000000; stroke-width: 0.8; stroke-linejoin: miter; stroke-linecap: square"/>
   </g>
   <g id="patch_4">
    <path d="M 705.841396 343.96 
L 705.841396 10.8 
" style="fill: none; stroke: #000000; stroke-width: 0.8; stroke-linejoin: miter; stroke-linecap: square"/>
   </g>
   <g id="patch_5">
    <path d="M 114.23 343.96 
L 705.841396 343.96 
" style="fill: none; stroke: #000000; stroke-width: 0.8; stroke-linejoin: miter; stroke-linecap: square"/>
   </g>
   <g id="patch_6">
    <path d="M 114.23 10.8 
L 705.841396 10.8 
" style="fill: none; stroke: #000000; stroke-width: 0.8; stroke-linejoin: miter; stroke-linecap: square"/>
   </g>
  </g>
 </g>
 <defs>
  <clipPath id="p4a144f998c">
   <rect x="114.23" y="10.8" width="591.611396" height="333.16"/>
  </clipPath>
 </defs>
</svg>
