<?xml version="1.0" encoding="utf-8" standalone="no"?>
<!DOCTYPE svg PUBLIC "-//W3C//DTD SVG 1.1//EN"
  "http://www.w3.org/Graphics/SVG/1.1/DTD/svg11.dtd">
<svg xmlns:xlink="http://www.w3.org/1999/xlink" width="720pt" height="432pt" viewBox="0 0 720 432" xmlns="http://www.w3.org/2000/svg" version="1.1">
 <metadata>
  <rdf:RDF xmlns:dc="http://purl.org/dc/elements/1.1/" xmlns:cc="http://creativecommons.org/ns#" xmlns:rdf="http://www.w3.org/1999/02/22-rdf-syntax-ns#">
   <cc:Work>
    <dc:type rdf:resource="http://purl.org/dc/dcmitype/StillImage"/>
    <dc:date>2025-06-20T06:30:27.689525</dc:date>
    <dc:format>image/svg+xml</dc:format>
    <dc:creator>
     <cc:Agent>
      <dc:title>Matplotlib v3.7.1, https://matplotlib.org/</dc:title>
     </cc:Agent>
    </dc:creator>
   </cc:Work>
  </rdf:RDF>
 </metadata>
 <defs>
  <style type="text/css">*{stroke-linejoin: round; stroke-linecap: butt}</style>
 </defs>
 <g id="figure_1">
  <g id="patch_1">
   <path d="M 0 432 
L 720 432 
L 720 0 
L 0 0 
z
" style="fill: #ffffff"/>
  </g>
  <g id="axes_1">
   <g id="patch_2">
    <path d="M 111.71 351.16 
L 709.2 351.16 
L 709.2 10.8 
L 111.71 10.8 
z
" style="fill: #ffffff"/>
   </g>
   <g id="PolyCollection_1">
    <defs>
     <path id="m274ab0a0a3" d="M 138.868636 -313.650361 
L 138.868636 -270.68342 
L 142.140761 -183.430814 
L 145.412886 -137.229999 
L 148.685011 -118.322283 
L 151.957136 -146.343951 
L 155.229261 -138.011398 
L 158.501386 -152.063708 
L 161.77351 -129.844045 
L 165.045635 -130.560091 
L 168.31776 -124.639905 
L 171.589885 -124.369024 
L 174.86201 -119.571789 
L 178.134135 -129.457262 
L 181.40626 -126.370737 
L 184.678384 -133.27564 
L 187.950509 -117.77671 
L 191.222634 -112.617281 
L 194.494759 -118.980721 
L 197.766884 -139.686201 
L 201.039009 -112.899098 
L 204.311134 -119.683052 
L 207.583258 -127.662957 
L 210.855383 -123.596944 
L 214.127508 -111.17334 
L 217.399633 -117.060635 
L 220.671758 -110.191969 
L 223.943883 -110.001438 
L 227.216008 -118.322797 
L 230.488133 -116.457179 
L 233.760257 -119.681831 
L 237.032382 -133.360651 
L 240.304507 -117.545965 
L 243.576632 -131.926379 
L 246.848757 -124.958939 
L 250.120882 -107.997086 
L 253.393007 -111.451678 
L 256.665131 -108.505157 
L 259.937256 -119.602011 
L 263.209381 -118.311603 
L 266.481506 -115.723687 
L 269.753631 -108.20954 
L 273.025756 -115.489909 
L 276.297881 -117.549559 
L 279.570005 -110.518949 
L 282.84213 -110.006839 
L 286.114255 -111.547459 
L 289.38638 -110.425371 
L 292.658505 -109.086233 
L 295.93063 -112.348559 
L 299.202755 -110.186784 
L 302.47488 -116.882129 
L 305.747004 -113.525853 
L 309.019129 -108.578193 
L 312.291254 -114.797433 
L 315.563379 -115.193629 
L 318.835504 -113.356053 
L 322.107629 -107.643855 
L 325.379754 -112.029644 
L 328.651878 -109.731003 
L 331.924003 -113.314714 
L 335.196128 -110.62111 
L 338.468253 -110.900841 
L 341.740378 -112.717228 
L 345.012503 -130.345237 
L 348.284628 -109.97655 
L 351.556752 -110.674175 
L 354.828877 -112.351611 
L 358.101002 -113.444649 
L 361.373127 -106.574127 
L 364.645252 -105.437429 
L 367.917377 -113.466932 
L 371.189502 -114.40528 
L 374.461627 -108.971555 
L 377.733751 -115.362398 
L 381.005876 -105.93924 
L 384.278001 -114.305213 
L 387.550126 -103.803777 
L 390.822251 -113.304612 
L 394.094376 -111.351086 
L 397.366501 -116.543359 
L 400.638625 -104.929872 
L 403.91075 -106.031178 
L 407.182875 -107.029987 
L 410.455 -108.196335 
L 413.727125 -107.111274 
L 416.99925 -111.741297 
L 420.271375 -115.882959 
L 423.543499 -112.428615 
L 426.815624 -109.45754 
L 430.087749 -110.222097 
L 433.359874 -113.174927 
L 436.631999 -111.509744 
L 439.904124 -110.590417 
L 443.176249 -110.652988 
L 446.448373 -109.666804 
L 449.720498 -114.75316 
L 452.992623 -110.62111 
L 456.264748 -110.527358 
L 459.536873 -110.62111 
L 462.808998 -109.213698 
L 466.081123 -113.746982 
L 469.353248 -113.348147 
L 472.625372 -110.62111 
L 475.897497 -116.106218 
L 479.169622 -108.104255 
L 482.441747 -110.865754 
L 485.713872 -110.62111 
L 488.985997 -111.837017 
L 492.258122 -106.60028 
L 495.530246 -110.498337 
L 498.802371 -109.638923 
L 502.074496 -110.62111 
L 505.346621 -110.099323 
L 508.618746 -110.314177 
L 511.890871 -111.689734 
L 515.162996 -112.342283 
L 518.43512 -110.099323 
L 521.707245 -112.353461 
L 524.97937 -114.328443 
L 528.251495 -109.4958 
L 531.52362 -108.932976 
L 534.795745 -113.439441 
L 538.06787 -111.017778 
L 541.339995 -111.029348 
L 544.612119 -110.342522 
L 547.884244 -111.711046 
L 551.156369 -108.963669 
L 554.428494 -108.196335 
L 557.700619 -116.01276 
L 560.972744 -110.928308 
L 564.244869 -110.314177 
L 567.516993 -112.072793 
L 570.789118 -110.62111 
L 574.061243 -108.871589 
L 577.333368 -110.43695 
L 580.605493 -108.932976 
L 583.877618 -110.34487 
L 587.149743 -110.986098 
L 590.421867 -112.100154 
L 593.693992 -110.743489 
L 596.966117 -109.88685 
L 600.238242 -113.171545 
L 603.510367 -112.991262 
L 606.782492 -113.957236 
L 610.054617 -112.283102 
L 613.326742 -110.130017 
L 616.598866 -112.656462 
L 619.870991 -110.736057 
L 623.143116 -112.125938 
L 626.415241 -112.39212 
L 629.687366 -110.575276 
L 632.959491 -110.43695 
L 636.231616 -111.009378 
L 639.50374 -122.478337 
L 642.775865 -112.498975 
L 646.04799 -111.303919 
L 649.320115 -112.768961 
L 652.59224 -110.559724 
L 655.864365 -109.97655 
L 659.13649 -109.945856 
L 662.408614 -113.76438 
L 665.680739 -110.16071 
L 668.952864 -112.87767 
L 672.224989 -110.158011 
L 675.497114 -110.559724 
L 678.769239 -114.132431 
L 682.041364 -106.089508 
L 682.041364 -140.05042 
L 682.041364 -140.05042 
L 678.769239 -121.781652 
L 675.497114 -110.978898 
L 672.224989 -122.643859 
L 668.952864 -115.626382 
L 665.680739 -113.30452 
L 662.408614 -119.037491 
L 659.13649 -114.556778 
L 655.864365 -114.377884 
L 652.59224 -110.978898 
L 649.320115 -123.145123 
L 646.04799 -120.608747 
L 642.775865 -121.784901 
L 639.50374 -141.149265 
L 636.231616 -117.791075 
L 632.959491 -111.694474 
L 629.687366 -117.928776 
L 626.415241 -116.852935 
L 623.143116 -116.674515 
L 619.870991 -116.87879 
L 616.598866 -125.777032 
L 613.326742 -113.483414 
L 610.054617 -120.370567 
L 606.782492 -120.771243 
L 603.510367 -123.367423 
L 600.238242 -125.706551 
L 596.966117 -116.394192 
L 593.693992 -111.832537 
L 590.421867 -119.516111 
L 587.149743 -117.962555 
L 583.877618 -112.231156 
L 580.605493 -120.46028 
L 577.333368 -111.694474 
L 574.061243 -120.818068 
L 570.789118 -110.62111 
L 567.516993 -120.432676 
L 564.244869 -112.41005 
L 560.972744 -122.614565 
L 557.700619 -122.865337 
L 554.428494 -124.753736 
L 551.156369 -120.281386 
L 547.884244 -122.42463 
L 544.612119 -113.715511 
L 541.339995 -113.028684 
L 538.06787 -113.929458 
L 534.795745 -128.69907 
L 531.52362 -120.46028 
L 528.251495 -119.452854 
L 524.97937 -119.06623 
L 521.707245 -120.744811 
L 518.43512 -113.662308 
L 515.162996 -123.720001 
L 511.890871 -117.110718 
L 508.618746 -112.41005 
L 505.346621 -113.662308 
L 502.074496 -110.62111 
L 498.802371 -116.345718 
L 495.530246 -111.336686 
L 492.258122 -134.056223 
L 488.985997 -118.149042 
L 485.713872 -110.62111 
L 482.441747 -115.267088 
L 479.169622 -125.290418 
L 475.897497 -122.623677 
L 472.625372 -110.62111 
L 469.353248 -114.859503 
L 466.081123 -136.246162 
L 462.808998 -120.327758 
L 459.536873 -110.62111 
L 456.264748 -117.532092 
L 452.992623 -110.62111 
L 449.720498 -129.46016 
L 446.448373 -124.913474 
L 443.176249 -112.515841 
L 439.904124 -110.800004 
L 436.631999 -121.143925 
L 433.359874 -116.811131 
L 430.087749 -112.946732 
L 426.815624 -118.157308 
L 423.543499 -137.119927 
L 420.271375 -123.439739 
L 416.99925 -118.689363 
L 413.727125 -137.102045 
L 410.455 -124.753736 
L 407.182875 -131.551707 
L 403.91075 -141.887157 
L 400.638625 -166.700565 
L 397.366501 -132.708782 
L 394.094376 -125.304001 
L 390.822251 -135.058325 
L 387.550126 -156.415211 
L 384.278001 -146.358377 
L 381.005876 -142.423697 
L 377.733751 -183.240555 
L 374.461627 -141.910793 
L 371.189502 -133.957657 
L 367.917377 -136.674413 
L 364.645252 -141.591702 
L 361.373127 -142.529813 
L 358.101002 -120.542826 
L 354.828877 -121.339463 
L 351.556752 -131.316135 
L 348.284628 -114.377884 
L 345.012503 -140.544197 
L 341.740378 -121.714849 
L 338.468253 -112.564389 
L 335.196128 -110.62111 
L 331.924003 -125.118781 
L 328.651878 -115.809036 
L 325.379754 -129.516063 
L 322.107629 -127.973828 
L 318.835504 -127.152251 
L 315.563379 -120.275852 
L 312.291254 -124.228864 
L 309.019129 -174.315492 
L 305.747004 -134.244281 
L 302.47488 -137.853435 
L 299.202755 -122.466886 
L 295.93063 -122.52812 
L 292.658505 -130.532867 
L 289.38638 -117.634079 
L 286.114255 -125.996831 
L 282.84213 -116.422404 
L 279.570005 -127.766345 
L 276.297881 -137.334206 
L 273.025756 -132.873028 
L 269.753631 -127.704544 
L 266.481506 -119.449393 
L 263.209381 -139.684375 
L 259.937256 -134.837152 
L 256.665131 -129.631936 
L 253.393007 -137.355861 
L 250.120882 -138.439243 
L 246.848757 -160.305956 
L 243.576632 -132.886829 
L 240.304507 -138.968007 
L 237.032382 -148.792031 
L 233.760257 -139.499753 
L 230.488133 -145.688417 
L 227.216008 -124.112114 
L 223.943883 -139.250703 
L 220.671758 -139.652974 
L 217.399633 -149.086378 
L 214.127508 -123.258737 
L 210.855383 -138.845054 
L 207.583258 -150.043706 
L 204.311134 -160.394821 
L 201.039009 -130.721419 
L 197.766884 -146.467898 
L 194.494759 -124.195194 
L 191.222634 -179.168443 
L 187.950509 -138.14446 
L 184.678384 -143.097217 
L 181.40626 -166.600591 
L 178.134135 -150.027809 
L 174.86201 -150.13204 
L 171.589885 -139.258579 
L 168.31776 -144.471121 
L 165.045635 -150.703387 
L 161.77351 -142.230994 
L 158.501386 -164.619722 
L 155.229261 -183.266253 
L 151.957136 -158.187027 
L 148.685011 -167.387214 
L 145.412886 -231.471855 
L 142.140761 -235.511056 
L 138.868636 -313.650361 
z
" style="stroke: #0000ff; stroke-opacity: 0.3"/>
    </defs>
    <g clip-path="url(#p726d14fa9e)">
     <use xlink:href="#m274ab0a0a3" x="0" y="432" style="fill: #0000ff; fill-opacity: 0.3; stroke: #0000ff; stroke-opacity: 0.3"/>
    </g>
   </g>
   <g id="PolyCollection_2">
    <defs>
     <path id="m50bbec5125" d="M 138.868636 -286.583882 
L 138.868636 -234.468227 
L 142.140761 -224.519344 
L 145.412886 -163.111063 
L 148.685011 -145.219243 
L 151.957136 -151.720955 
L 155.229261 -131.333172 
L 158.501386 -152.404926 
L 161.77351 -117.587714 
L 165.045635 -128.586734 
L 168.31776 -135.015349 
L 171.589885 -123.137093 
L 174.86201 -123.606603 
L 178.134135 -108.53331 
L 181.40626 -128.984331 
L 184.678384 -113.07762 
L 187.950509 -115.414994 
L 191.222634 -114.074486 
L 194.494759 -144.273636 
L 197.766884 -113.657098 
L 201.039009 -127.720364 
L 204.311134 -113.591691 
L 207.583258 -125.692917 
L 210.855383 -131.141609 
L 214.127508 -112.646124 
L 217.399633 -123.214301 
L 220.671758 -114.136974 
L 223.943883 -114.184164 
L 227.216008 -116.882713 
L 230.488133 -106.605737 
L 233.760257 -111.409797 
L 237.032382 -142.329197 
L 240.304507 -115.933444 
L 243.576632 -112.686932 
L 246.848757 -116.843739 
L 250.120882 -116.278378 
L 253.393007 -117.515404 
L 256.665131 -117.861488 
L 259.937256 -110.146246 
L 263.209381 -118.555808 
L 266.481506 -115.200851 
L 269.753631 -118.834066 
L 273.025756 -126.727708 
L 276.297881 -140.246259 
L 279.570005 -122.025297 
L 282.84213 -150.095956 
L 286.114255 -132.757893 
L 289.38638 -122.976359 
L 292.658505 -148.223469 
L 295.93063 -133.66803 
L 299.202755 -118.873325 
L 302.47488 -112.276287 
L 305.747004 -115.491163 
L 309.019129 -130.415176 
L 312.291254 -112.356658 
L 315.563379 -119.789479 
L 318.835504 -112.009652 
L 322.107629 -105.768048 
L 325.379754 -115.065277 
L 328.651878 -110.079856 
L 331.924003 -113.044301 
L 335.196128 -109.884224 
L 338.468253 -117.870085 
L 341.740378 -109.100468 
L 345.012503 -124.80091 
L 348.284628 -117.740963 
L 351.556752 -122.319939 
L 354.828877 -117.08785 
L 358.101002 -123.539844 
L 361.373127 -115.455173 
L 364.645252 -103.800668 
L 367.917377 -135.023735 
L 371.189502 -130.238991 
L 374.461627 -130.615008 
L 377.733751 -128.13563 
L 381.005876 -118.220246 
L 384.278001 -106.081958 
L 387.550126 -115.799142 
L 390.822251 -116.245386 
L 394.094376 -113.597703 
L 397.366501 -115.534172 
L 400.638625 -117.336237 
L 403.91075 -119.069389 
L 407.182875 -136.442664 
L 410.455 -117.873603 
L 413.727125 -114.039758 
L 416.99925 -114.639378 
L 420.271375 -118.665879 
L 423.543499 -121.395393 
L 426.815624 -134.600022 
L 430.087749 -128.395585 
L 433.359874 -125.340539 
L 436.631999 -141.91528 
L 439.904124 -150.578315 
L 443.176249 -137.529411 
L 446.448373 -131.864945 
L 449.720498 -128.664201 
L 452.992623 -153.08113 
L 456.264748 -127.271357 
L 459.536873 -139.634666 
L 462.808998 -133.74015 
L 466.081123 -141.185505 
L 469.353248 -147.812592 
L 472.625372 -133.031147 
L 475.897497 -128.702647 
L 479.169622 -147.311672 
L 482.441747 -130.991291 
L 485.713872 -122.29307 
L 488.985997 -144.151798 
L 492.258122 -125.127966 
L 495.530246 -119.273196 
L 498.802371 -117.267814 
L 502.074496 -118.836986 
L 505.346621 -113.921448 
L 508.618746 -114.738822 
L 511.890871 -123.588856 
L 515.162996 -118.936873 
L 518.43512 -117.296261 
L 521.707245 -110.546369 
L 524.97937 -114.496444 
L 528.251495 -109.796352 
L 531.52362 -107.042451 
L 534.795745 -106.062879 
L 538.06787 -118.168396 
L 541.339995 -128.997573 
L 544.612119 -119.974634 
L 547.884244 -124.80273 
L 551.156369 -121.937886 
L 554.428494 -115.036446 
L 557.700619 -130.601926 
L 560.972744 -123.286189 
L 564.244869 -113.668722 
L 567.516993 -111.123336 
L 570.789118 -114.883895 
L 574.061243 -120.311524 
L 577.333368 -102.011 
L 580.605493 -113.978382 
L 583.877618 -106.816646 
L 587.149743 -132.384275 
L 590.421867 -141.902545 
L 593.693992 -147.369904 
L 596.966117 -133.227589 
L 600.238242 -135.748647 
L 603.510367 -125.100983 
L 606.782492 -117.004072 
L 610.054617 -117.714325 
L 613.326742 -120.960264 
L 616.598866 -121.226738 
L 619.870991 -144.412863 
L 623.143116 -143.889403 
L 626.415241 -113.640077 
L 629.687366 -118.80857 
L 632.959491 -104.933729 
L 636.231616 -103.968711 
L 639.50374 -120.869514 
L 642.775865 -128.433471 
L 646.04799 -119.699998 
L 649.320115 -136.005182 
L 652.59224 -125.568397 
L 655.864365 -132.273591 
L 659.13649 -114.558989 
L 662.408614 -114.643371 
L 665.680739 -116.185233 
L 668.952864 -124.133629 
L 672.224989 -119.94738 
L 675.497114 -114.110673 
L 678.769239 -122.405646 
L 682.041364 -119.453809 
L 682.041364 -171.14631 
L 682.041364 -171.14631 
L 678.769239 -160.63624 
L 675.497114 -141.365894 
L 672.224989 -145.903232 
L 668.952864 -151.498225 
L 665.680739 -148.627974 
L 662.408614 -149.132432 
L 659.13649 -143.140588 
L 655.864365 -147.804282 
L 652.59224 -139.985814 
L 649.320115 -157.262548 
L 646.04799 -134.294563 
L 642.775865 -152.089004 
L 639.50374 -155.651544 
L 636.231616 -173.293351 
L 632.959491 -148.319829 
L 629.687366 -169.272138 
L 626.415241 -179.331252 
L 623.143116 -177.832849 
L 619.870991 -174.493577 
L 616.598866 -196.345897 
L 613.326742 -157.191001 
L 610.054617 -156.731924 
L 606.782492 -147.809135 
L 603.510367 -154.235887 
L 600.238242 -154.703271 
L 596.966117 -170.562386 
L 593.693992 -176.130756 
L 590.421867 -171.07587 
L 587.149743 -149.620207 
L 583.877618 -145.399508 
L 580.605493 -160.764269 
L 577.333368 -207.114198 
L 574.061243 -184.664056 
L 570.789118 -180.903245 
L 567.516993 -210.450715 
L 564.244869 -166.26095 
L 560.972744 -197.398659 
L 557.700619 -182.67289 
L 554.428494 -196.311762 
L 551.156369 -161.993204 
L 547.884244 -166.834793 
L 544.612119 -149.877395 
L 541.339995 -155.378119 
L 538.06787 -154.795847 
L 534.795745 -146.153274 
L 531.52362 -136.726266 
L 528.251495 -141.085996 
L 524.97937 -148.982958 
L 521.707245 -153.377635 
L 518.43512 -151.370163 
L 515.162996 -143.505124 
L 511.890871 -152.4876 
L 508.618746 -144.887363 
L 505.346621 -144.963734 
L 502.074496 -143.753212 
L 498.802371 -135.244741 
L 495.530246 -144.799008 
L 492.258122 -133.312614 
L 488.985997 -148.81953 
L 485.713872 -170.826459 
L 482.441747 -150.272188 
L 479.169622 -164.92574 
L 475.897497 -165.009685 
L 472.625372 -165.868208 
L 469.353248 -168.574438 
L 466.081123 -162.604471 
L 462.808998 -154.93336 
L 459.536873 -166.82292 
L 456.264748 -145.248284 
L 452.992623 -183.757588 
L 449.720498 -157.193497 
L 446.448373 -182.595476 
L 443.176249 -223.61421 
L 439.904124 -172.033141 
L 436.631999 -151.797052 
L 433.359874 -159.924357 
L 430.087749 -152.423292 
L 426.815624 -152.443281 
L 423.543499 -164.758707 
L 420.271375 -166.154414 
L 416.99925 -145.57961 
L 413.727125 -126.616746 
L 410.455 -134.935353 
L 407.182875 -149.563234 
L 403.91075 -132.10936 
L 400.638625 -139.325936 
L 397.366501 -138.756791 
L 394.094376 -130.171014 
L 390.822251 -152.86564 
L 387.550126 -146.346454 
L 384.278001 -137.83496 
L 381.005876 -144.221751 
L 377.733751 -150.608438 
L 374.461627 -152.278677 
L 371.189502 -159.027322 
L 367.917377 -171.730253 
L 364.645252 -187.540454 
L 361.373127 -151.432843 
L 358.101002 -146.756787 
L 354.828877 -150.541169 
L 351.556752 -145.457281 
L 348.284628 -138.032006 
L 345.012503 -146.829527 
L 341.740378 -149.784714 
L 338.468253 -139.23669 
L 335.196128 -135.218299 
L 331.924003 -157.25233 
L 328.651878 -163.180788 
L 325.379754 -132.853058 
L 322.107629 -173.272421 
L 318.835504 -193.41053 
L 315.563379 -158.658187 
L 312.291254 -157.495371 
L 309.019129 -135.139035 
L 305.747004 -143.54222 
L 302.47488 -134.901045 
L 299.202755 -142.97587 
L 295.93063 -194.278648 
L 292.658505 -166.385153 
L 289.38638 -167.475559 
L 286.114255 -156.212019 
L 282.84213 -169.551488 
L 279.570005 -181.764678 
L 276.297881 -159.690499 
L 273.025756 -167.429226 
L 269.753631 -162.577613 
L 266.481506 -151.242564 
L 263.209381 -144.330792 
L 259.937256 -166.967615 
L 256.665131 -155.250955 
L 253.393007 -139.739571 
L 250.120882 -144.088811 
L 246.848757 -147.376667 
L 243.576632 -127.969572 
L 240.304507 -138.505719 
L 237.032382 -146.344313 
L 233.760257 -125.986292 
L 230.488133 -158.948474 
L 227.216008 -127.775208 
L 223.943883 -129.139951 
L 220.671758 -147.564021 
L 217.399633 -147.378732 
L 214.127508 -143.571446 
L 210.855383 -138.414019 
L 207.583258 -160.164781 
L 204.311134 -136.994256 
L 201.039009 -169.104181 
L 197.766884 -149.822304 
L 194.494759 -176.263011 
L 191.222634 -149.849518 
L 187.950509 -157.401048 
L 184.678384 -167.000254 
L 181.40626 -176.435851 
L 178.134135 -205.334308 
L 174.86201 -193.076827 
L 171.589885 -193.249936 
L 168.31776 -183.298289 
L 165.045635 -140.079691 
L 161.77351 -150.337707 
L 158.501386 -171.836737 
L 155.229261 -164.898571 
L 151.957136 -190.008383 
L 148.685011 -195.917293 
L 145.412886 -205.29439 
L 142.140761 -266.299835 
L 138.868636 -286.583882 
z
" style="stroke: #008000; stroke-opacity: 0.3"/>
    </defs>
    <g clip-path="url(#p726d14fa9e)">
     <use xlink:href="#m50bbec5125" x="0" y="432" style="fill: #008000; fill-opacity: 0.3; stroke: #008000; stroke-opacity: 0.3"/>
    </g>
   </g>
   <g id="PolyCollection_3">
    <defs>
     <path id="mc79d58ab57" d="M 138.868636 -405.729091 
L 138.868636 -364.89289 
L 142.140761 -394.576902 
L 145.412886 -388.385317 
L 148.685011 -378.668667 
L 151.957136 -377.141765 
L 155.229261 -316.656263 
L 158.501386 -334.508162 
L 161.77351 -334.060714 
L 165.045635 -333.547672 
L 168.31776 -336.091341 
L 171.589885 -329.156029 
L 174.86201 -341.126893 
L 178.134135 -313.370898 
L 181.40626 -314.970735 
L 184.678384 -326.434656 
L 187.950509 -300.031739 
L 191.222634 -309.445962 
L 194.494759 -283.565254 
L 197.766884 -274.335076 
L 201.039009 -270.656165 
L 204.311134 -307.293896 
L 207.583258 -301.061399 
L 210.855383 -298.246965 
L 214.127508 -253.57035 
L 217.399633 -262.644882 
L 220.671758 -292.652532 
L 223.943883 -276.005267 
L 227.216008 -304.680338 
L 230.488133 -302.206539 
L 233.760257 -258.142405 
L 237.032382 -265.760916 
L 240.304507 -223.263536 
L 243.576632 -251.761256 
L 246.848757 -245.509168 
L 250.120882 -262.540743 
L 253.393007 -253.434887 
L 256.665131 -233.917014 
L 259.937256 -248.873801 
L 263.209381 -204.313049 
L 266.481506 -217.806726 
L 269.753631 -257.629454 
L 273.025756 -262.408048 
L 276.297881 -240.284027 
L 279.570005 -249.832234 
L 282.84213 -234.005734 
L 286.114255 -205.112129 
L 289.38638 -223.389271 
L 292.658505 -184.45397 
L 295.93063 -197.668498 
L 299.202755 -173.838495 
L 302.47488 -159.791183 
L 305.747004 -156.798606 
L 309.019129 -155.474733 
L 312.291254 -170.166016 
L 315.563379 -170.602363 
L 318.835504 -182.698359 
L 322.107629 -176.598893 
L 325.379754 -170.881922 
L 328.651878 -168.178856 
L 331.924003 -166.06061 
L 335.196128 -146.540317 
L 338.468253 -161.408544 
L 341.740378 -161.377442 
L 345.012503 -153.572993 
L 348.284628 -163.273436 
L 351.556752 -139.735707 
L 354.828877 -146.785462 
L 358.101002 -165.740961 
L 361.373127 -153.939925 
L 364.645252 -151.668336 
L 367.917377 -154.667157 
L 371.189502 -152.902124 
L 374.461627 -151.559911 
L 377.733751 -142.575087 
L 381.005876 -143.317988 
L 384.278001 -141.243921 
L 387.550126 -127.249525 
L 390.822251 -137.040777 
L 394.094376 -130.985068 
L 397.366501 -126.35882 
L 400.638625 -111.595823 
L 403.91075 -116.969058 
L 407.182875 -115.253638 
L 410.455 -133.983218 
L 413.727125 -109.528901 
L 416.99925 -108.661078 
L 420.271375 -128.745578 
L 423.543499 -111.83922 
L 426.815624 -100.032586 
L 430.087749 -120.863646 
L 433.359874 -102.626983 
L 436.631999 -113.264822 
L 439.904124 -119.745819 
L 443.176249 -108.244127 
L 446.448373 -118.207343 
L 449.720498 -100.185369 
L 452.992623 -101.29033 
L 456.264748 -99.482215 
L 459.536873 -111.599285 
L 462.808998 -96.348699 
L 466.081123 -96.310909 
L 469.353248 -100.517969 
L 472.625372 -116.98107 
L 475.897497 -99.538551 
L 479.169622 -120.837662 
L 482.441747 -120.359055 
L 485.713872 -117.714026 
L 488.985997 -111.449548 
L 492.258122 -103.064162 
L 495.530246 -104.162158 
L 498.802371 -105.971456 
L 502.074496 -101.812117 
L 505.346621 -125.646395 
L 508.618746 -108.165099 
L 511.890871 -110.070146 
L 515.162996 -108.879236 
L 518.43512 -111.343445 
L 521.707245 -118.752673 
L 524.97937 -108.410022 
L 528.251495 -110.099323 
L 531.52362 -111.067396 
L 534.795745 -109.307901 
L 538.06787 -109.117136 
L 541.339995 -107.060681 
L 544.612119 -110.329 
L 547.884244 -111.034006 
L 551.156369 -110.947301 
L 554.428494 -112.129109 
L 557.700619 -111.607543 
L 560.972744 -116.257375 
L 564.244869 -111.499422 
L 567.516993 -109.519943 
L 570.789118 -115.231087 
L 574.061243 -119.211302 
L 577.333368 -108.439771 
L 580.605493 -111.85711 
L 583.877618 -111.07692 
L 587.149743 -113.151115 
L 590.421867 -110.784282 
L 593.693992 -110.25279 
L 596.966117 -105.556706 
L 600.238242 -113.095307 
L 603.510367 -108.472575 
L 606.782492 -115.053263 
L 610.054617 -108.626042 
L 613.326742 -112.429257 
L 616.598866 -108.756763 
L 619.870991 -111.407756 
L 623.143116 -109.45754 
L 626.415241 -113.80815 
L 629.687366 -112.535091 
L 632.959491 -111.207063 
L 636.231616 -111.112644 
L 639.50374 -108.194338 
L 642.775865 -112.096347 
L 646.04799 -106.977041 
L 649.320115 -127.886173 
L 652.59224 -115.535158 
L 655.864365 -111.052522 
L 659.13649 -113.325078 
L 662.408614 -112.00099 
L 665.680739 -112.313077 
L 668.952864 -109.670559 
L 672.224989 -111.754665 
L 675.497114 -110.467643 
L 678.769239 -114.777002 
L 682.041364 -122.425403 
L 682.041364 -126.826738 
L 682.041364 -126.826738 
L 678.769239 -124.397495 
L 675.497114 -111.51558 
L 672.224989 -121.195406 
L 668.952864 -119.129894 
L 665.680739 -129.232631 
L 662.408614 -154.738826 
L 659.13649 -127.183225 
L 655.864365 -115.22852 
L 652.59224 -125.121346 
L 649.320115 -145.522672 
L 646.04799 -134.124065 
L 642.775865 -125.892545 
L 639.50374 -133.647771 
L 636.231616 -114.575595 
L 632.959491 -115.222179 
L 629.687366 -125.157401 
L 626.415241 -121.36493 
L 623.143116 -118.157308 
L 619.870991 -120.50491 
L 616.598866 -130.565935 
L 613.326742 -121.261816 
L 610.054617 -122.24922 
L 606.782492 -122.194627 
L 603.510367 -123.14369 
L 600.238242 -125.041786 
L 596.966117 -140.138619 
L 593.693992 -112.767838 
L 590.421867 -112.236346 
L 587.149743 -127.65359 
L 583.877618 -130.172386 
L 580.605493 -130.874203 
L 577.333368 -137.255555 
L 574.061243 -129.299836 
L 570.789118 -126.01822 
L 567.516993 -118.539507 
L 564.244869 -134.195903 
L 560.972744 -118.619304 
L 557.700619 -117.044709 
L 554.428494 -123.933175 
L 551.156369 -116.815747 
L 547.884244 -115.395236 
L 544.612119 -124.399478 
L 541.339995 -131.372813 
L 538.06787 -119.386916 
L 534.795745 -141.278045 
L 531.52362 -137.14734 
L 528.251495 -113.662308 
L 524.97937 -150.771561 
L 521.707245 -153.174165 
L 518.43512 -147.245336 
L 515.162996 -170.013032 
L 511.890871 -156.225068 
L 508.618746 -148.200672 
L 505.346621 -182.886001 
L 502.074496 -161.963686 
L 498.802371 -166.844586 
L 495.530246 -163.911464 
L 492.258122 -162.934651 
L 488.985997 -182.262784 
L 485.713872 -170.218481 
L 482.441747 -222.111286 
L 479.169622 -211.851437 
L 475.897497 -202.769417 
L 472.625372 -197.18295 
L 469.353248 -193.787166 
L 466.081123 -206.886264 
L 462.808998 -193.806817 
L 459.536873 -159.58655 
L 456.264748 -186.079082 
L 452.992623 -165.004884 
L 449.720498 -171.445068 
L 446.448373 -179.951008 
L 443.176249 -206.216294 
L 439.904124 -195.455605 
L 436.631999 -173.48208 
L 433.359874 -183.971719 
L 430.087749 -192.559371 
L 426.815624 -196.199156 
L 423.543499 -196.100373 
L 420.271375 -196.978091 
L 416.99925 -227.140235 
L 413.727125 -195.446679 
L 410.455 -192.333254 
L 407.182875 -221.140478 
L 403.91075 -236.023529 
L 400.638625 -231.911923 
L 397.366501 -192.54762 
L 394.094376 -253.870655 
L 390.822251 -247.222144 
L 387.550126 -224.409256 
L 384.278001 -202.708427 
L 381.005876 -268.510251 
L 377.733751 -228.497977 
L 374.461627 -231.813806 
L 371.189502 -259.96352 
L 367.917377 -244.415828 
L 364.645252 -229.926973 
L 361.373127 -268.855161 
L 358.101002 -271.133186 
L 354.828877 -289.051281 
L 351.556752 -253.122851 
L 348.284628 -228.695918 
L 345.012503 -264.035071 
L 341.740378 -248.82059 
L 338.468253 -261.386543 
L 335.196128 -280.107986 
L 331.924003 -265.626514 
L 328.651878 -262.619065 
L 325.379754 -280.664088 
L 322.107629 -254.79183 
L 318.835504 -262.771425 
L 315.563379 -248.191306 
L 312.291254 -201.499851 
L 309.019129 -244.052854 
L 305.747004 -281.409347 
L 302.47488 -259.89169 
L 299.202755 -303.642627 
L 295.93063 -264.696158 
L 292.658505 -249.307964 
L 289.38638 -243.569605 
L 286.114255 -262.884152 
L 282.84213 -246.2912 
L 279.570005 -316.56927 
L 276.297881 -315.447031 
L 273.025756 -270.944713 
L 269.753631 -278.983721 
L 266.481506 -281.60809 
L 263.209381 -267.98105 
L 259.937256 -264.916477 
L 256.665131 -302.696162 
L 253.393007 -274.434451 
L 250.120882 -280.59326 
L 246.848757 -290.955807 
L 243.576632 -302.339595 
L 240.304507 -302.234592 
L 237.032382 -292.341352 
L 233.760257 -297.440452 
L 230.488133 -335.627672 
L 227.216008 -338.192694 
L 223.943883 -333.374421 
L 220.671758 -317.764561 
L 217.399633 -305.386829 
L 214.127508 -342.767683 
L 210.855383 -348.182883 
L 207.583258 -343.29364 
L 204.311134 -339.580553 
L 201.039009 -315.604224 
L 197.766884 -359.497718 
L 194.494759 -372.349434 
L 191.222634 -374.775048 
L 187.950509 -382.262662 
L 184.678384 -371.420812 
L 181.40626 -366.286262 
L 178.134135 -387.596784 
L 174.86201 -382.515486 
L 171.589885 -374.479264 
L 168.31776 -395.405672 
L 165.045635 -348.746729 
L 161.77351 -390.470869 
L 158.501386 -390.319822 
L 155.229261 -399.131482 
L 151.957136 -402.816857 
L 148.685011 -388.100098 
L 145.412886 -399.87254 
L 142.140761 -397.830573 
L 138.868636 -405.729091 
z
" style="stroke: #ff0000; stroke-opacity: 0.3"/>
    </defs>
    <g clip-path="url(#p726d14fa9e)">
     <use xlink:href="#mc79d58ab57" x="0" y="432" style="fill: #ff0000; fill-opacity: 0.3; stroke: #ff0000; stroke-opacity: 0.3"/>
    </g>
   </g>
   <g id="PolyCollection_4">
    <defs>
     <path id="m84dce8d382" d="M 138.868636 -368.535822 
L 138.868636 -359.700777 
L 142.140761 -330.4421 
L 145.412886 -297.050237 
L 148.685011 -288.993569 
L 151.957136 -295.552063 
L 155.229261 -238.552915 
L 158.501386 -203.351201 
L 161.77351 -190.232626 
L 165.045635 -198.277255 
L 168.31776 -194.763012 
L 171.589885 -191.732754 
L 174.86201 -197.558409 
L 178.134135 -149.432514 
L 181.40626 -152.440336 
L 184.678384 -159.891391 
L 187.950509 -164.787165 
L 191.222634 -144.976254 
L 194.494759 -167.617108 
L 197.766884 -151.808743 
L 201.039009 -137.308124 
L 204.311134 -127.817614 
L 207.583258 -148.405606 
L 210.855383 -151.918259 
L 214.127508 -120.055919 
L 217.399633 -144.847351 
L 220.671758 -145.027752 
L 223.943883 -141.316381 
L 227.216008 -146.416495 
L 230.488133 -168.996996 
L 233.760257 -189.767538 
L 237.032382 -151.297179 
L 240.304507 -156.423351 
L 243.576632 -124.02238 
L 246.848757 -146.715668 
L 250.120882 -153.636733 
L 253.393007 -154.095953 
L 256.665131 -164.950042 
L 259.937256 -188.016662 
L 263.209381 -159.885194 
L 266.481506 -151.752885 
L 269.753631 -153.890251 
L 273.025756 -173.709722 
L 276.297881 -163.759491 
L 279.570005 -140.502502 
L 282.84213 -154.216641 
L 286.114255 -147.548674 
L 289.38638 -133.682419 
L 292.658505 -145.514962 
L 295.93063 -141.459687 
L 299.202755 -179.388386 
L 302.47488 -154.669419 
L 305.747004 -139.716625 
L 309.019129 -146.168426 
L 312.291254 -131.817867 
L 315.563379 -151.694286 
L 318.835504 -146.312691 
L 322.107629 -134.76171 
L 325.379754 -137.391705 
L 328.651878 -143.844773 
L 331.924003 -131.761061 
L 335.196128 -145.447478 
L 338.468253 -133.799098 
L 341.740378 -152.202426 
L 345.012503 -137.221753 
L 348.284628 -143.630832 
L 351.556752 -134.011567 
L 354.828877 -118.734572 
L 358.101002 -136.004175 
L 361.373127 -133.287693 
L 364.645252 -137.542526 
L 367.917377 -131.890187 
L 371.189502 -133.728064 
L 374.461627 -150.346602 
L 377.733751 -134.715103 
L 381.005876 -146.393788 
L 384.278001 -116.323624 
L 387.550126 -127.066471 
L 390.822251 -141.174348 
L 394.094376 -152.22953 
L 397.366501 -144.039058 
L 400.638625 -144.281216 
L 403.91075 -153.290558 
L 407.182875 -164.269495 
L 410.455 -147.542102 
L 413.727125 -153.790028 
L 416.99925 -142.311545 
L 420.271375 -144.153581 
L 423.543499 -147.661405 
L 426.815624 -143.924832 
L 430.087749 -149.402299 
L 433.359874 -140.434657 
L 436.631999 -138.785876 
L 439.904124 -148.937307 
L 443.176249 -143.885901 
L 446.448373 -148.024203 
L 449.720498 -139.913949 
L 452.992623 -135.542158 
L 456.264748 -147.085914 
L 459.536873 -144.754731 
L 462.808998 -134.788653 
L 466.081123 -147.925077 
L 469.353248 -147.200251 
L 472.625372 -135.845525 
L 475.897497 -132.366986 
L 479.169622 -142.856699 
L 482.441747 -128.28602 
L 485.713872 -137.442741 
L 488.985997 -119.938945 
L 492.258122 -120.596176 
L 495.530246 -147.205325 
L 498.802371 -134.966355 
L 502.074496 -130.340944 
L 505.346621 -139.200581 
L 508.618746 -129.53683 
L 511.890871 -122.44877 
L 515.162996 -127.802357 
L 518.43512 -122.027859 
L 521.707245 -131.986383 
L 524.97937 -128.173388 
L 528.251495 -119.113434 
L 531.52362 -114.669446 
L 534.795745 -132.492885 
L 538.06787 -121.372183 
L 541.339995 -135.59231 
L 544.612119 -128.296479 
L 547.884244 -141.108813 
L 551.156369 -140.010379 
L 554.428494 -138.685207 
L 557.700619 -137.832832 
L 560.972744 -139.433446 
L 564.244869 -127.235395 
L 567.516993 -140.151686 
L 570.789118 -140.192191 
L 574.061243 -137.468463 
L 577.333368 -140.575617 
L 580.605493 -141.464595 
L 583.877618 -136.533697 
L 587.149743 -151.354334 
L 590.421867 -145.878708 
L 593.693992 -139.494454 
L 596.966117 -161.23557 
L 600.238242 -141.686453 
L 603.510367 -140.611269 
L 606.782492 -138.368728 
L 610.054617 -151.502917 
L 613.326742 -142.042411 
L 616.598866 -144.027813 
L 619.870991 -141.4549 
L 623.143116 -138.33788 
L 626.415241 -137.977322 
L 629.687366 -150.032987 
L 632.959491 -145.023824 
L 636.231616 -140.388042 
L 639.50374 -132.416455 
L 642.775865 -150.795882 
L 646.04799 -135.64774 
L 649.320115 -136.32498 
L 652.59224 -133.852606 
L 655.864365 -130.68995 
L 659.13649 -134.786715 
L 662.408614 -124.523264 
L 665.680739 -138.915287 
L 668.952864 -144.316968 
L 672.224989 -144.182614 
L 675.497114 -138.897733 
L 678.769239 -148.443875 
L 682.041364 -136.123428 
L 682.041364 -156.106898 
L 682.041364 -156.106898 
L 678.769239 -172.389173 
L 675.497114 -161.483627 
L 672.224989 -175.61303 
L 668.952864 -157.101797 
L 665.680739 -157.464656 
L 662.408614 -143.105756 
L 659.13649 -168.706859 
L 655.864365 -174.28563 
L 652.59224 -156.15471 
L 649.320115 -166.42759 
L 646.04799 -178.960882 
L 642.775865 -153.883297 
L 639.50374 -167.520303 
L 636.231616 -148.87827 
L 632.959491 -158.617951 
L 629.687366 -161.611622 
L 626.415241 -164.182446 
L 623.143116 -155.226251 
L 619.870991 -165.299088 
L 616.598866 -181.695856 
L 613.326742 -161.895765 
L 610.054617 -162.216501 
L 606.782492 -160.234224 
L 603.510367 -165.846317 
L 600.238242 -157.212901 
L 596.966117 -175.158545 
L 593.693992 -147.400649 
L 590.421867 -174.213337 
L 587.149743 -168.885912 
L 583.877618 -172.146899 
L 580.605493 -165.882196 
L 577.333368 -175.070409 
L 574.061243 -173.435143 
L 570.789118 -159.744568 
L 567.516993 -154.746251 
L 564.244869 -147.359055 
L 560.972744 -160.651513 
L 557.700619 -157.954309 
L 554.428494 -154.137921 
L 551.156369 -147.922128 
L 547.884244 -148.009299 
L 544.612119 -164.823051 
L 541.339995 -144.633764 
L 538.06787 -173.525754 
L 534.795745 -153.216613 
L 531.52362 -174.893268 
L 528.251495 -157.111222 
L 524.97937 -162.871332 
L 521.707245 -158.761936 
L 518.43512 -161.75503 
L 515.162996 -142.049673 
L 511.890871 -153.034883 
L 508.618746 -145.057619 
L 505.346621 -162.366384 
L 502.074496 -165.742598 
L 498.802371 -158.745977 
L 495.530246 -167.551497 
L 492.258122 -155.332079 
L 488.985997 -157.915919 
L 485.713872 -147.673954 
L 482.441747 -137.712792 
L 479.169622 -151.300235 
L 475.897497 -157.49213 
L 472.625372 -147.04816 
L 469.353248 -161.776746 
L 466.081123 -159.569914 
L 462.808998 -166.18551 
L 459.536873 -150.143206 
L 456.264748 -148.553026 
L 452.992623 -145.869521 
L 449.720498 -149.352364 
L 446.448373 -162.731202 
L 443.176249 -155.309854 
L 439.904124 -155.000869 
L 436.631999 -187.530596 
L 433.359874 -166.319331 
L 430.087749 -188.622023 
L 426.815624 -161.198949 
L 423.543499 -177.17306 
L 420.271375 -160.673798 
L 416.99925 -173.03808 
L 413.727125 -188.087511 
L 410.455 -196.854848 
L 407.182875 -186.648282 
L 403.91075 -163.985675 
L 400.638625 -153.728934 
L 397.366501 -165.23434 
L 394.094376 -153.487054 
L 390.822251 -151.945181 
L 387.550126 -163.978249 
L 384.278001 -160.790237 
L 381.005876 -157.840789 
L 377.733751 -161.220239 
L 374.461627 -178.785682 
L 371.189502 -168.431704 
L 367.917377 -199.168706 
L 364.645252 -178.1035 
L 361.373127 -179.987123 
L 358.101002 -163.04338 
L 354.828877 -158.082887 
L 351.556752 -156.440351 
L 348.284628 -154.082917 
L 345.012503 -145.227331 
L 341.740378 -157.663775 
L 338.468253 -177.993711 
L 335.196128 -180.572592 
L 331.924003 -171.584312 
L 328.651878 -164.984024 
L 325.379754 -189.369368 
L 322.107629 -189.331752 
L 318.835504 -188.451217 
L 315.563379 -185.737234 
L 312.291254 -179.085739 
L 309.019129 -168.588396 
L 305.747004 -166.44456 
L 302.47488 -169.572244 
L 299.202755 -184.422847 
L 295.93063 -171.370527 
L 292.658505 -149.975777 
L 289.38638 -168.773751 
L 286.114255 -170.468562 
L 282.84213 -162.022187 
L 279.570005 -153.802632 
L 276.297881 -189.084895 
L 273.025756 -207.292785 
L 269.753631 -163.978785 
L 266.481506 -175.156389 
L 263.209381 -172.507504 
L 259.937256 -202.174284 
L 256.665131 -182.559121 
L 253.393007 -203.935455 
L 250.120882 -213.731315 
L 246.848757 -214.427954 
L 243.576632 -206.740111 
L 240.304507 -219.688535 
L 237.032382 -200.658003 
L 233.760257 -225.172915 
L 230.488133 -171.546737 
L 227.216008 -185.3834 
L 223.943883 -182.777082 
L 220.671758 -171.211076 
L 217.399633 -198.363994 
L 214.127508 -194.404502 
L 210.855383 -192.478691 
L 207.583258 -213.479019 
L 204.311134 -251.702887 
L 201.039009 -185.155131 
L 197.766884 -170.358111 
L 194.494759 -211.606991 
L 191.222634 -204.311317 
L 187.950509 -224.959179 
L 184.678384 -220.518313 
L 181.40626 -225.153556 
L 178.134135 -238.387222 
L 174.86201 -255.173206 
L 171.589885 -203.052412 
L 168.31776 -251.595976 
L 165.045635 -254.009759 
L 161.77351 -232.710661 
L 158.501386 -238.858169 
L 155.229261 -283.833 
L 151.957136 -344.060556 
L 148.685011 -329.129957 
L 145.412886 -346.119197 
L 142.140761 -358.52133 
L 138.868636 -368.535822 
z
" style="stroke: #ffa500; stroke-opacity: 0.3"/>
    </defs>
    <g clip-path="url(#p726d14fa9e)">
     <use xlink:href="#m84dce8d382" x="0" y="432" style="fill: #ffa500; fill-opacity: 0.3; stroke: #ffa500; stroke-opacity: 0.3"/>
    </g>
   </g>
   <g id="matplotlib.axis_1">
    <g id="xtick_1">
     <g id="line2d_1">
      <defs>
       <path id="mebb1b68c90" d="M 0 0 
L 0 3.5 
" style="stroke: #000000; stroke-width: 0.8"/>
      </defs>
      <g>
       <use xlink:href="#mebb1b68c90" x="138.868636" y="351.16" style="stroke: #000000; stroke-width: 0.8"/>
      </g>
     </g>
     <g id="text_1">
      <!-- 0 -->
      <g transform="translate(132.506136 373.356875) scale(0.2 -0.2)">
       <defs>
        <path id="DejaVuSans-30" d="M 2034 4250 
Q 1547 4250 1301 3770 
Q 1056 3291 1056 2328 
Q 1056 1369 1301 889 
Q 1547 409 2034 409 
Q 2525 409 2770 889 
Q 3016 1369 3016 2328 
Q 3016 3291 2770 3770 
Q 2525 4250 2034 4250 
z
M 2034 4750 
Q 2819 4750 3233 4129 
Q 3647 3509 3647 2328 
Q 3647 1150 3233 529 
Q 2819 -91 2034 -91 
Q 1250 -91 836 529 
Q 422 1150 422 2328 
Q 422 3509 836 4129 
Q 1250 4750 2034 4750 
z
" transform="scale(0.015625)"/>
       </defs>
       <use xlink:href="#DejaVuSans-30"/>
      </g>
     </g>
    </g>
    <g id="xtick_2">
     <g id="line2d_2">
      <g>
       <use xlink:href="#mebb1b68c90" x="247.939465" y="351.16" style="stroke: #000000; stroke-width: 0.8"/>
      </g>
     </g>
     <g id="text_2">
      <!-- 100 -->
      <g transform="translate(228.851965 373.356875) scale(0.2 -0.2)">
       <defs>
        <path id="DejaVuSans-31" d="M 794 531 
L 1825 531 
L 1825 4091 
L 703 3866 
L 703 4441 
L 1819 4666 
L 2450 4666 
L 2450 531 
L 3481 531 
L 3481 0 
L 794 0 
L 794 531 
z
" transform="scale(0.015625)"/>
       </defs>
       <use xlink:href="#DejaVuSans-31"/>
       <use xlink:href="#DejaVuSans-30" x="63.623047"/>
       <use xlink:href="#DejaVuSans-30" x="127.246094"/>
      </g>
     </g>
    </g>
    <g id="xtick_3">
     <g id="line2d_3">
      <g>
       <use xlink:href="#mebb1b68c90" x="357.010294" y="351.16" style="stroke: #000000; stroke-width: 0.8"/>
      </g>
     </g>
     <g id="text_3">
      <!-- 200 -->
      <g transform="translate(337.922794 373.356875) scale(0.2 -0.2)">
       <defs>
        <path id="DejaVuSans-32" d="M 1228 531 
L 3431 531 
L 3431 0 
L 469 0 
L 469 531 
Q 828 903 1448 1529 
Q 2069 2156 2228 2338 
Q 2531 2678 2651 2914 
Q 2772 3150 2772 3378 
Q 2772 3750 2511 3984 
Q 2250 4219 1831 4219 
Q 1534 4219 1204 4116 
Q 875 4013 500 3803 
L 500 4441 
Q 881 4594 1212 4672 
Q 1544 4750 1819 4750 
Q 2544 4750 2975 4387 
Q 3406 4025 3406 3419 
Q 3406 3131 3298 2873 
Q 3191 2616 2906 2266 
Q 2828 2175 2409 1742 
Q 1991 1309 1228 531 
z
" transform="scale(0.015625)"/>
       </defs>
       <use xlink:href="#DejaVuSans-32"/>
       <use xlink:href="#DejaVuSans-30" x="63.623047"/>
       <use xlink:href="#DejaVuSans-30" x="127.246094"/>
      </g>
     </g>
    </g>
    <g id="xtick_4">
     <g id="line2d_4">
      <g>
       <use xlink:href="#mebb1b68c90" x="466.081123" y="351.16" style="stroke: #000000; stroke-width: 0.8"/>
      </g>
     </g>
     <g id="text_4">
      <!-- 300 -->
      <g transform="translate(446.993623 373.356875) scale(0.2 -0.2)">
       <defs>
        <path id="DejaVuSans-33" d="M 2597 2516 
Q 3050 2419 3304 2112 
Q 3559 1806 3559 1356 
Q 3559 666 3084 287 
Q 2609 -91 1734 -91 
Q 1441 -91 1130 -33 
Q 819 25 488 141 
L 488 750 
Q 750 597 1062 519 
Q 1375 441 1716 441 
Q 2309 441 2620 675 
Q 2931 909 2931 1356 
Q 2931 1769 2642 2001 
Q 2353 2234 1838 2234 
L 1294 2234 
L 1294 2753 
L 1863 2753 
Q 2328 2753 2575 2939 
Q 2822 3125 2822 3475 
Q 2822 3834 2567 4026 
Q 2313 4219 1838 4219 
Q 1578 4219 1281 4162 
Q 984 4106 628 3988 
L 628 4550 
Q 988 4650 1302 4700 
Q 1616 4750 1894 4750 
Q 2613 4750 3031 4423 
Q 3450 4097 3450 3541 
Q 3450 3153 3228 2886 
Q 3006 2619 2597 2516 
z
" transform="scale(0.015625)"/>
       </defs>
       <use xlink:href="#DejaVuSans-33"/>
       <use xlink:href="#DejaVuSans-30" x="63.623047"/>
       <use xlink:href="#DejaVuSans-30" x="127.246094"/>
      </g>
     </g>
    </g>
    <g id="xtick_5">
     <g id="line2d_5">
      <g>
       <use xlink:href="#mebb1b68c90" x="575.151951" y="351.16" style="stroke: #000000; stroke-width: 0.8"/>
      </g>
     </g>
     <g id="text_5">
      <!-- 400 -->
      <g transform="translate(556.064451 373.356875) scale(0.2 -0.2)">
       <defs>
        <path id="DejaVuSans-34" d="M 2419 4116 
L 825 1625 
L 2419 1625 
L 2419 4116 
z
M 2253 4666 
L 3047 4666 
L 3047 1625 
L 3713 1625 
L 3713 1100 
L 3047 1100 
L 3047 0 
L 2419 0 
L 2419 1100 
L 313 1100 
L 313 1709 
L 2253 4666 
z
" transform="scale(0.015625)"/>
       </defs>
       <use xlink:href="#DejaVuSans-34"/>
       <use xlink:href="#DejaVuSans-30" x="63.623047"/>
       <use xlink:href="#DejaVuSans-30" x="127.246094"/>
      </g>
     </g>
    </g>
    <g id="xtick_6">
     <g id="line2d_6">
      <g>
       <use xlink:href="#mebb1b68c90" x="684.22278" y="351.16" style="stroke: #000000; stroke-width: 0.8"/>
      </g>
     </g>
     <g id="text_6">
      <!-- 500 -->
      <g transform="translate(665.13528 373.356875) scale(0.2 -0.2)">
       <defs>
        <path id="DejaVuSans-35" d="M 691 4666 
L 3169 4666 
L 3169 4134 
L 1269 4134 
L 1269 2991 
Q 1406 3038 1543 3061 
Q 1681 3084 1819 3084 
Q 2600 3084 3056 2656 
Q 3513 2228 3513 1497 
Q 3513 744 3044 326 
Q 2575 -91 1722 -91 
Q 1428 -91 1123 -41 
Q 819 9 494 109 
L 494 744 
Q 775 591 1075 516 
Q 1375 441 1709 441 
Q 2250 441 2565 725 
Q 2881 1009 2881 1497 
Q 2881 1984 2565 2268 
Q 2250 2553 1709 2553 
Q 1456 2553 1204 2497 
Q 953 2441 691 2322 
L 691 4666 
z
" transform="scale(0.015625)"/>
       </defs>
       <use xlink:href="#DejaVuSans-35"/>
       <use xlink:href="#DejaVuSans-30" x="63.623047"/>
       <use xlink:href="#DejaVuSans-30" x="127.246094"/>
      </g>
     </g>
    </g>
    <g id="text_7">
     <!-- Episode -->
     <g transform="translate(331.905 411.91) scale(0.4 -0.4)">
      <defs>
       <path id="DejaVuSans-45" d="M 628 4666 
L 3578 4666 
L 3578 4134 
L 1259 4134 
L 1259 2753 
L 3481 2753 
L 3481 2222 
L 1259 2222 
L 1259 531 
L 3634 531 
L 3634 0 
L 628 0 
L 628 4666 
z
" transform="scale(0.015625)"/>
       <path id="DejaVuSans-70" d="M 1159 525 
L 1159 -1331 
L 581 -1331 
L 581 3500 
L 1159 3500 
L 1159 2969 
Q 1341 3281 1617 3432 
Q 1894 3584 2278 3584 
Q 2916 3584 3314 3078 
Q 3713 2572 3713 1747 
Q 3713 922 3314 415 
Q 2916 -91 2278 -91 
Q 1894 -91 1617 61 
Q 1341 213 1159 525 
z
M 3116 1747 
Q 3116 2381 2855 2742 
Q 2594 3103 2138 3103 
Q 1681 3103 1420 2742 
Q 1159 2381 1159 1747 
Q 1159 1113 1420 752 
Q 1681 391 2138 391 
Q 2594 391 2855 752 
Q 3116 1113 3116 1747 
z
" transform="scale(0.015625)"/>
       <path id="DejaVuSans-69" d="M 603 3500 
L 1178 3500 
L 1178 0 
L 603 0 
L 603 3500 
z
M 603 4863 
L 1178 4863 
L 1178 4134 
L 603 4134 
L 603 4863 
z
" transform="scale(0.015625)"/>
       <path id="DejaVuSans-73" d="M 2834 3397 
L 2834 2853 
Q 2591 2978 2328 3040 
Q 2066 3103 1784 3103 
Q 1356 3103 1142 2972 
Q 928 2841 928 2578 
Q 928 2378 1081 2264 
Q 1234 2150 1697 2047 
L 1894 2003 
Q 2506 1872 2764 1633 
Q 3022 1394 3022 966 
Q 3022 478 2636 193 
Q 2250 -91 1575 -91 
Q 1294 -91 989 -36 
Q 684 19 347 128 
L 347 722 
Q 666 556 975 473 
Q 1284 391 1588 391 
Q 1994 391 2212 530 
Q 2431 669 2431 922 
Q 2431 1156 2273 1281 
Q 2116 1406 1581 1522 
L 1381 1569 
Q 847 1681 609 1914 
Q 372 2147 372 2553 
Q 372 3047 722 3315 
Q 1072 3584 1716 3584 
Q 2034 3584 2315 3537 
Q 2597 3491 2834 3397 
z
" transform="scale(0.015625)"/>
       <path id="DejaVuSans-6f" d="M 1959 3097 
Q 1497 3097 1228 2736 
Q 959 2375 959 1747 
Q 959 1119 1226 758 
Q 1494 397 1959 397 
Q 2419 397 2687 759 
Q 2956 1122 2956 1747 
Q 2956 2369 2687 2733 
Q 2419 3097 1959 3097 
z
M 1959 3584 
Q 2709 3584 3137 3096 
Q 3566 2609 3566 1747 
Q 3566 888 3137 398 
Q 2709 -91 1959 -91 
Q 1206 -91 779 398 
Q 353 888 353 1747 
Q 353 2609 779 3096 
Q 1206 3584 1959 3584 
z
" transform="scale(0.015625)"/>
       <path id="DejaVuSans-64" d="M 2906 2969 
L 2906 4863 
L 3481 4863 
L 3481 0 
L 2906 0 
L 2906 525 
Q 2725 213 2448 61 
Q 2172 -91 1784 -91 
Q 1150 -91 751 415 
Q 353 922 353 1747 
Q 353 2572 751 3078 
Q 1150 3584 1784 3584 
Q 2172 3584 2448 3432 
Q 2725 3281 2906 2969 
z
M 947 1747 
Q 947 1113 1208 752 
Q 1469 391 1925 391 
Q 2381 391 2643 752 
Q 2906 1113 2906 1747 
Q 2906 2381 2643 2742 
Q 2381 3103 1925 3103 
Q 1469 3103 1208 2742 
Q 947 2381 947 1747 
z
" transform="scale(0.015625)"/>
       <path id="DejaVuSans-65" d="M 3597 1894 
L 3597 1613 
L 953 1613 
Q 991 1019 1311 708 
Q 1631 397 2203 397 
Q 2534 397 2845 478 
Q 3156 559 3463 722 
L 3463 178 
Q 3153 47 2828 -22 
Q 2503 -91 2169 -91 
Q 1331 -91 842 396 
Q 353 884 353 1716 
Q 353 2575 817 3079 
Q 1281 3584 2069 3584 
Q 2775 3584 3186 3129 
Q 3597 2675 3597 1894 
z
M 3022 2063 
Q 3016 2534 2758 2815 
Q 2500 3097 2075 3097 
Q 1594 3097 1305 2825 
Q 1016 2553 972 2059 
L 3022 2063 
z
" transform="scale(0.015625)"/>
      </defs>
      <use xlink:href="#DejaVuSans-45"/>
      <use xlink:href="#DejaVuSans-70" x="63.183594"/>
      <use xlink:href="#DejaVuSans-69" x="126.660156"/>
      <use xlink:href="#DejaVuSans-73" x="154.443359"/>
      <use xlink:href="#DejaVuSans-6f" x="206.542969"/>
      <use xlink:href="#DejaVuSans-64" x="267.724609"/>
      <use xlink:href="#DejaVuSans-65" x="331.201172"/>
     </g>
    </g>
   </g>
   <g id="matplotlib.axis_2">
    <g id="ytick_1">
     <g id="line2d_7">
      <defs>
       <path id="m90c3c8fabd" d="M 0 0 
L -3.5 0 
" style="stroke: #000000; stroke-width: 0.8"/>
      </defs>
      <g>
       <use xlink:href="#m90c3c8fabd" x="111.71" y="321.37889" style="stroke: #000000; stroke-width: 0.8"/>
      </g>
     </g>
     <g id="text_8">
      <!-- 0 -->
      <g transform="translate(91.985 328.977327) scale(0.2 -0.2)">
       <use xlink:href="#DejaVuSans-30"/>
      </g>
     </g>
    </g>
    <g id="ytick_2">
     <g id="line2d_8">
      <g>
       <use xlink:href="#m90c3c8fabd" x="111.71" y="276.918699" style="stroke: #000000; stroke-width: 0.8"/>
      </g>
     </g>
     <g id="text_9">
      <!-- 200 -->
      <g transform="translate(66.535 284.517136) scale(0.2 -0.2)">
       <use xlink:href="#DejaVuSans-32"/>
       <use xlink:href="#DejaVuSans-30" x="63.623047"/>
       <use xlink:href="#DejaVuSans-30" x="127.246094"/>
      </g>
     </g>
    </g>
    <g id="ytick_3">
     <g id="line2d_9">
      <g>
       <use xlink:href="#m90c3c8fabd" x="111.71" y="232.458508" style="stroke: #000000; stroke-width: 0.8"/>
      </g>
     </g>
     <g id="text_10">
      <!-- 400 -->
      <g transform="translate(66.535 240.056945) scale(0.2 -0.2)">
       <use xlink:href="#DejaVuSans-34"/>
       <use xlink:href="#DejaVuSans-30" x="63.623047"/>
       <use xlink:href="#DejaVuSans-30" x="127.246094"/>
      </g>
     </g>
    </g>
    <g id="ytick_4">
     <g id="line2d_10">
      <g>
       <use xlink:href="#m90c3c8fabd" x="111.71" y="187.998317" style="stroke: #000000; stroke-width: 0.8"/>
      </g>
     </g>
     <g id="text_11">
      <!-- 600 -->
      <g transform="translate(66.535 195.596754) scale(0.2 -0.2)">
       <defs>
        <path id="DejaVuSans-36" d="M 2113 2584 
Q 1688 2584 1439 2293 
Q 1191 2003 1191 1497 
Q 1191 994 1439 701 
Q 1688 409 2113 409 
Q 2538 409 2786 701 
Q 3034 994 3034 1497 
Q 3034 2003 2786 2293 
Q 2538 2584 2113 2584 
z
M 3366 4563 
L 3366 3988 
Q 3128 4100 2886 4159 
Q 2644 4219 2406 4219 
Q 1781 4219 1451 3797 
Q 1122 3375 1075 2522 
Q 1259 2794 1537 2939 
Q 1816 3084 2150 3084 
Q 2853 3084 3261 2657 
Q 3669 2231 3669 1497 
Q 3669 778 3244 343 
Q 2819 -91 2113 -91 
Q 1303 -91 875 529 
Q 447 1150 447 2328 
Q 447 3434 972 4092 
Q 1497 4750 2381 4750 
Q 2619 4750 2861 4703 
Q 3103 4656 3366 4563 
z
" transform="scale(0.015625)"/>
       </defs>
       <use xlink:href="#DejaVuSans-36"/>
       <use xlink:href="#DejaVuSans-30" x="63.623047"/>
       <use xlink:href="#DejaVuSans-30" x="127.246094"/>
      </g>
     </g>
    </g>
    <g id="ytick_5">
     <g id="line2d_11">
      <g>
       <use xlink:href="#m90c3c8fabd" x="111.71" y="143.538126" style="stroke: #000000; stroke-width: 0.8"/>
      </g>
     </g>
     <g id="text_12">
      <!-- 800 -->
      <g transform="translate(66.535 151.136563) scale(0.2 -0.2)">
       <defs>
        <path id="DejaVuSans-38" d="M 2034 2216 
Q 1584 2216 1326 1975 
Q 1069 1734 1069 1313 
Q 1069 891 1326 650 
Q 1584 409 2034 409 
Q 2484 409 2743 651 
Q 3003 894 3003 1313 
Q 3003 1734 2745 1975 
Q 2488 2216 2034 2216 
z
M 1403 2484 
Q 997 2584 770 2862 
Q 544 3141 544 3541 
Q 544 4100 942 4425 
Q 1341 4750 2034 4750 
Q 2731 4750 3128 4425 
Q 3525 4100 3525 3541 
Q 3525 3141 3298 2862 
Q 3072 2584 2669 2484 
Q 3125 2378 3379 2068 
Q 3634 1759 3634 1313 
Q 3634 634 3220 271 
Q 2806 -91 2034 -91 
Q 1263 -91 848 271 
Q 434 634 434 1313 
Q 434 1759 690 2068 
Q 947 2378 1403 2484 
z
M 1172 3481 
Q 1172 3119 1398 2916 
Q 1625 2713 2034 2713 
Q 2441 2713 2670 2916 
Q 2900 3119 2900 3481 
Q 2900 3844 2670 4047 
Q 2441 4250 2034 4250 
Q 1625 4250 1398 4047 
Q 1172 3844 1172 3481 
z
" transform="scale(0.015625)"/>
       </defs>
       <use xlink:href="#DejaVuSans-38"/>
       <use xlink:href="#DejaVuSans-30" x="63.623047"/>
       <use xlink:href="#DejaVuSans-30" x="127.246094"/>
      </g>
     </g>
    </g>
    <g id="ytick_6">
     <g id="line2d_12">
      <g>
       <use xlink:href="#m90c3c8fabd" x="111.71" y="99.077935" style="stroke: #000000; stroke-width: 0.8"/>
      </g>
     </g>
     <g id="text_13">
      <!-- 1000 -->
      <g transform="translate(53.81 106.676372) scale(0.2 -0.2)">
       <use xlink:href="#DejaVuSans-31"/>
       <use xlink:href="#DejaVuSans-30" x="63.623047"/>
       <use xlink:href="#DejaVuSans-30" x="127.246094"/>
       <use xlink:href="#DejaVuSans-30" x="190.869141"/>
      </g>
     </g>
    </g>
    <g id="ytick_7">
     <g id="line2d_13">
      <g>
       <use xlink:href="#m90c3c8fabd" x="111.71" y="54.617744" style="stroke: #000000; stroke-width: 0.8"/>
      </g>
     </g>
     <g id="text_14">
      <!-- 1200 -->
      <g transform="translate(53.81 62.216181) scale(0.2 -0.2)">
       <use xlink:href="#DejaVuSans-31"/>
       <use xlink:href="#DejaVuSans-32" x="63.623047"/>
       <use xlink:href="#DejaVuSans-30" x="127.246094"/>
       <use xlink:href="#DejaVuSans-30" x="190.869141"/>
      </g>
     </g>
    </g>
    <g id="text_15">
     <!-- $m_{vct}$ -->
     <g transform="translate(41.49125 222.58) rotate(-90) scale(0.4 -0.4)">
      <defs>
       <path id="DejaVuSans-Oblique-6d" d="M 5747 2113 
L 5338 0 
L 4763 0 
L 5166 2094 
Q 5191 2228 5203 2325 
Q 5216 2422 5216 2491 
Q 5216 2772 5059 2928 
Q 4903 3084 4622 3084 
Q 4203 3084 3875 2770 
Q 3547 2456 3450 1953 
L 3066 0 
L 2491 0 
L 2900 2094 
Q 2925 2209 2937 2307 
Q 2950 2406 2950 2484 
Q 2950 2769 2794 2926 
Q 2638 3084 2363 3084 
Q 1938 3084 1609 2770 
Q 1281 2456 1184 1953 
L 800 0 
L 225 0 
L 909 3500 
L 1484 3500 
L 1375 2956 
Q 1609 3263 1923 3423 
Q 2238 3584 2597 3584 
Q 2978 3584 3223 3384 
Q 3469 3184 3519 2828 
Q 3781 3197 4126 3390 
Q 4472 3584 4856 3584 
Q 5306 3584 5551 3325 
Q 5797 3066 5797 2591 
Q 5797 2488 5784 2364 
Q 5772 2241 5747 2113 
z
" transform="scale(0.015625)"/>
       <path id="DejaVuSans-Oblique-76" d="M 459 3500 
L 1069 3500 
L 1581 525 
L 3256 3500 
L 3866 3500 
L 1875 0 
L 1100 0 
L 459 3500 
z
" transform="scale(0.015625)"/>
       <path id="DejaVuSans-Oblique-63" d="M 3431 3366 
L 3316 2797 
Q 3109 2947 2876 3022 
Q 2644 3097 2394 3097 
Q 2119 3097 1870 3000 
Q 1622 2903 1453 2725 
Q 1184 2453 1037 2087 
Q 891 1722 891 1331 
Q 891 859 1127 628 
Q 1363 397 1844 397 
Q 2081 397 2348 469 
Q 2616 541 2906 684 
L 2797 116 
Q 2547 13 2283 -39 
Q 2019 -91 1741 -91 
Q 1044 -91 669 257 
Q 294 606 294 1253 
Q 294 1797 489 2255 
Q 684 2713 1069 3078 
Q 1331 3328 1684 3456 
Q 2038 3584 2456 3584 
Q 2700 3584 2940 3529 
Q 3181 3475 3431 3366 
z
" transform="scale(0.015625)"/>
       <path id="DejaVuSans-Oblique-74" d="M 2706 3500 
L 2619 3053 
L 1472 3053 
L 1100 1153 
Q 1081 1047 1072 975 
Q 1063 903 1063 863 
Q 1063 663 1183 572 
Q 1303 481 1569 481 
L 2150 481 
L 2053 0 
L 1503 0 
Q 991 0 739 200 
Q 488 400 488 806 
Q 488 878 497 964 
Q 506 1050 525 1153 
L 897 3053 
L 409 3053 
L 500 3500 
L 978 3500 
L 1172 4494 
L 1747 4494 
L 1556 3500 
L 2706 3500 
z
" transform="scale(0.015625)"/>
      </defs>
      <use xlink:href="#DejaVuSans-Oblique-6d"/>
      <use xlink:href="#DejaVuSans-Oblique-76" transform="translate(97.412109 -16.40625) scale(0.7)"/>
      <use xlink:href="#DejaVuSans-Oblique-63" transform="translate(138.837891 -16.40625) scale(0.7)"/>
      <use xlink:href="#DejaVuSans-Oblique-74" transform="translate(177.324219 -16.40625) scale(0.7)"/>
     </g>
    </g>
   </g>
   <g id="line2d_14">
    <path d="M 138.868636 139.83311 
L 142.140761 222.529065 
L 145.412886 247.649073 
L 148.685011 289.145251 
L 151.957136 279.734511 
L 155.229261 271.361175 
L 158.501386 273.658285 
L 161.77351 295.962481 
L 165.045635 291.368261 
L 168.31776 297.444487 
L 171.589885 300.186199 
L 174.86201 297.148086 
L 178.134135 292.257465 
L 181.40626 285.514336 
L 184.678384 293.813571 
L 187.950509 304.039415 
L 191.222634 286.107138 
L 194.494759 310.412043 
L 197.766884 288.92295 
L 201.039009 310.189742 
L 204.311134 291.961063 
L 207.583258 293.146668 
L 210.855383 300.779001 
L 214.127508 314.783961 
L 217.399633 298.926493 
L 220.671758 307.077528 
L 223.943883 307.37393 
L 227.216008 310.782544 
L 230.488133 300.927202 
L 233.760257 302.409208 
L 237.032382 290.923659 
L 240.304507 303.743014 
L 243.576632 299.593396 
L 246.848757 289.367552 
L 250.120882 308.781836 
L 253.393007 307.596231 
L 256.665131 312.931453 
L 259.937256 304.780418 
L 263.209381 303.002011 
L 266.481506 314.41346 
L 269.753631 314.042958 
L 273.025756 307.818532 
L 276.297881 304.558118 
L 279.570005 312.857353 
L 282.84213 318.785379 
L 286.114255 313.227855 
L 289.38638 317.970275 
L 292.658505 312.19045 
L 295.93063 314.56166 
L 299.202755 315.673165 
L 302.47488 304.632218 
L 305.747004 308.114933 
L 309.019129 290.553157 
L 312.291254 312.486852 
L 315.563379 314.265259 
L 318.835504 311.745848 
L 322.107629 314.191159 
L 325.379754 311.227146 
L 328.651878 319.229981 
L 331.924003 312.783253 
L 335.196128 321.37889 
L 338.468253 320.267385 
L 341.740378 314.783961 
L 345.012503 296.555283 
L 348.284628 319.822783 
L 351.556752 311.004845 
L 354.828877 315.154463 
L 358.101002 315.006262 
L 361.373127 307.44803 
L 364.645252 308.485434 
L 367.917377 306.929328 
L 371.189502 307.818532 
L 374.461627 306.558826 
L 377.733751 282.698524 
L 381.005876 307.818532 
L 384.278001 301.668205 
L 387.550126 301.890506 
L 394.094376 313.672457 
L 397.366501 307.37393 
L 400.638625 296.184782 
L 403.91075 308.040832 
L 407.182875 312.709153 
L 410.455 315.524965 
L 413.727125 309.89334 
L 416.99925 316.78467 
L 420.271375 312.338651 
L 423.543499 307.225729 
L 426.815624 318.192576 
L 430.087749 320.415586 
L 433.359874 317.006971 
L 436.631999 315.673165 
L 439.904124 321.304789 
L 443.176249 320.415586 
L 446.448373 314.709861 
L 449.720498 309.89334 
L 452.992623 321.37889 
L 456.264748 317.970275 
L 459.536873 321.37889 
L 462.808998 317.229272 
L 466.081123 307.003428 
L 469.353248 317.896175 
L 472.625372 321.37889 
L 475.897497 312.635052 
L 479.169622 315.302664 
L 482.441747 318.933579 
L 485.713872 321.37889 
L 488.985997 317.006971 
L 492.258122 311.671748 
L 495.530246 321.082489 
L 498.802371 319.00768 
L 502.074496 321.37889 
L 505.346621 320.119184 
L 508.618746 320.637887 
L 511.890871 317.599774 
L 515.162996 313.968858 
L 518.43512 320.119184 
L 521.707245 315.450864 
L 524.97937 315.302664 
L 528.251495 317.525673 
L 531.52362 317.303372 
L 534.795745 310.930745 
L 538.06787 319.526382 
L 541.339995 319.970984 
L 544.612119 319.970984 
L 547.884244 314.932162 
L 551.156369 317.377473 
L 554.428494 315.524965 
L 557.700619 312.560952 
L 560.972744 315.228563 
L 564.244869 320.637887 
L 567.516993 315.747266 
L 570.789118 321.37889 
L 574.061243 317.155172 
L 577.333368 320.934288 
L 580.605493 317.303372 
L 583.877618 320.711987 
L 587.149743 317.525673 
L 590.421867 316.191867 
L 593.693992 320.711987 
L 596.966117 318.859479 
L 600.238242 312.560952 
L 603.510367 313.820657 
L 606.782492 314.635761 
L 610.054617 315.673165 
L 613.326742 320.193285 
L 616.598866 312.783253 
L 619.870991 318.192576 
L 623.143116 317.599774 
L 626.415241 317.377473 
L 629.687366 317.747974 
L 632.959491 320.934288 
L 636.231616 317.599774 
L 639.50374 300.186199 
L 642.775865 314.858062 
L 646.04799 316.043667 
L 649.320115 314.042958 
L 652.59224 321.230689 
L 655.864365 319.822783 
L 659.13649 319.748683 
L 662.408614 315.599065 
L 665.680739 320.267385 
L 668.952864 317.747974 
L 672.224989 315.599065 
L 675.497114 321.230689 
L 678.769239 314.042958 
L 682.041364 308.930036 
L 682.041364 308.930036 
" clip-path="url(#p726d14fa9e)" style="fill: none; stroke: #0000ff; stroke-width: 3; stroke-linecap: square"/>
   </g>
   <g id="line2d_15">
    <path d="M 138.868636 171.473946 
L 142.140761 186.590411 
L 145.412886 247.797274 
L 148.685011 261.431732 
L 151.957136 261.135331 
L 155.229261 283.884129 
L 158.501386 269.879168 
L 161.77351 298.037289 
L 165.045635 297.666788 
L 168.31776 272.843181 
L 171.589885 273.806485 
L 174.86201 273.658285 
L 178.134135 275.066191 
L 181.40626 279.289909 
L 184.678384 291.961063 
L 187.950509 295.591979 
L 191.222634 300.037998 
L 194.494759 271.731676 
L 197.766884 300.260299 
L 201.039009 283.587727 
L 204.311134 306.707027 
L 207.583258 289.071151 
L 210.855383 297.222186 
L 214.127508 303.891215 
L 217.399633 296.703484 
L 220.671758 301.149503 
L 223.943883 310.337942 
L 227.216008 309.671039 
L 230.488133 299.222895 
L 233.760257 313.301955 
L 237.032382 287.663245 
L 240.304507 304.780418 
L 243.576632 311.671748 
L 246.848757 299.889797 
L 250.120882 301.816406 
L 253.393007 303.372512 
L 256.665131 295.443778 
L 259.937256 293.44307 
L 263.209381 300.5567 
L 266.481506 298.778293 
L 269.753631 291.294161 
L 273.025756 284.921533 
L 276.297881 282.031621 
L 279.570005 280.105012 
L 282.84213 272.176278 
L 286.114255 287.515044 
L 289.38638 286.774041 
L 292.658505 274.695689 
L 295.93063 268.026661 
L 299.202755 301.075403 
L 302.47488 308.411334 
L 305.747004 302.483309 
L 309.019129 299.222895 
L 312.291254 297.073985 
L 315.563379 292.776167 
L 318.835504 279.289909 
L 322.107629 292.479766 
L 325.379754 308.040832 
L 328.651878 295.369678 
L 331.924003 296.851684 
L 335.196128 309.448739 
L 338.468253 303.446613 
L 341.740378 302.557409 
L 345.012503 296.184782 
L 348.284628 304.113516 
L 351.556752 298.11139 
L 354.828877 298.18549 
L 358.101002 296.851684 
L 361.373127 298.555992 
L 364.645252 286.329439 
L 367.917377 278.623006 
L 371.189502 287.366844 
L 374.461627 290.553157 
L 377.733751 292.627966 
L 381.005876 300.779001 
L 384.278001 310.041541 
L 387.550126 300.927202 
L 390.822251 297.444487 
L 394.094376 310.115641 
L 397.366501 304.854519 
L 400.638625 303.668914 
L 403.91075 306.410625 
L 407.182875 288.997051 
L 410.455 305.595522 
L 413.727125 311.671748 
L 416.99925 301.890506 
L 420.271375 289.589853 
L 423.543499 288.92295 
L 426.815624 288.478348 
L 430.087749 291.590562 
L 433.359874 289.367552 
L 436.631999 285.143834 
L 439.904124 270.694272 
L 443.176249 251.428189 
L 446.448373 274.76979 
L 449.720498 289.071151 
L 452.992623 263.580641 
L 456.264748 295.74018 
L 459.536873 278.771207 
L 462.808998 287.663245 
L 466.081123 280.105012 
L 469.353248 273.806485 
L 472.625372 282.550323 
L 475.897497 285.143834 
L 479.169622 275.881294 
L 482.441747 291.368261 
L 485.713872 285.440235 
L 488.985997 285.514336 
L 492.258122 302.77971 
L 495.530246 299.963898 
L 498.802371 305.743723 
L 502.074496 300.704901 
L 505.346621 302.557409 
L 508.618746 302.186907 
L 511.890871 293.961772 
L 515.162996 300.779001 
L 518.43512 297.666788 
L 521.707245 300.037998 
L 524.97937 300.260299 
L 528.251495 306.558826 
L 531.52362 310.115641 
L 534.795745 305.891923 
L 538.06787 295.517879 
L 541.339995 289.812154 
L 544.612119 297.073985 
L 547.884244 286.181239 
L 551.156369 290.034455 
L 554.428494 276.325896 
L 557.700619 275.362592 
L 560.972744 271.657576 
L 564.244869 292.035164 
L 567.516993 271.212974 
L 570.789118 284.10643 
L 574.061243 279.51221 
L 577.333368 277.437401 
L 580.605493 294.628675 
L 583.877618 305.891923 
L 587.149743 290.997759 
L 590.421867 275.510793 
L 593.693992 270.24967 
L 596.966117 280.105012 
L 600.238242 286.774041 
L 603.510367 292.331565 
L 606.782492 299.593396 
L 610.054617 294.776875 
L 613.326742 292.924368 
L 616.598866 273.213683 
L 619.870991 272.54678 
L 623.143116 271.138874 
L 626.415241 285.514336 
L 629.687366 287.959646 
L 632.959491 305.373221 
L 636.231616 293.368969 
L 639.50374 293.739471 
L 642.775865 291.738762 
L 646.04799 305.002719 
L 649.320115 285.366135 
L 652.59224 299.222895 
L 655.864365 291.961063 
L 659.13649 303.150211 
L 662.408614 300.112098 
L 665.680739 299.593396 
L 668.952864 294.184073 
L 672.224989 299.074694 
L 675.497114 304.261716 
L 678.769239 290.479057 
L 682.041364 286.699941 
L 682.041364 286.699941 
" clip-path="url(#p726d14fa9e)" style="fill: none; stroke: #008000; stroke-width: 3; stroke-linecap: square"/>
   </g>
   <g id="line2d_16">
    <path d="M 138.868636 46.689009 
L 142.140761 35.796263 
L 145.412886 37.871072 
L 148.685011 48.615618 
L 151.957136 42.020689 
L 155.229261 74.106127 
L 158.501386 69.586008 
L 161.77351 69.734208 
L 165.045635 90.852799 
L 168.31776 66.251494 
L 171.589885 80.182353 
L 174.86201 70.17881 
L 178.134135 81.516159 
L 181.40626 91.371501 
L 184.678384 83.072266 
L 187.950509 90.852799 
L 191.222634 89.889495 
L 194.494759 104.042656 
L 197.766884 115.083603 
L 201.039009 138.869806 
L 204.311134 108.562775 
L 207.583258 109.822481 
L 210.855383 108.785076 
L 214.127508 133.830984 
L 217.399633 147.984145 
L 220.671758 126.791454 
L 223.943883 127.310156 
L 227.216008 110.563484 
L 230.488133 113.082895 
L 233.760257 154.208571 
L 237.032382 152.948866 
L 240.304507 169.250936 
L 243.576632 154.949575 
L 246.848757 163.767513 
L 250.120882 160.432998 
L 253.393007 168.065331 
L 256.665131 163.693412 
L 259.937256 175.104861 
L 263.209381 195.85295 
L 266.481506 182.292592 
L 269.753631 163.693412 
L 273.025756 165.323619 
L 276.297881 154.134471 
L 279.570005 148.799248 
L 282.84213 191.851533 
L 286.114255 198.00186 
L 289.38638 198.520562 
L 292.658505 215.119033 
L 295.93063 200.817672 
L 299.202755 193.259439 
L 302.47488 222.158563 
L 305.747004 212.896024 
L 309.019129 232.236207 
L 312.291254 246.167067 
L 315.563379 222.603165 
L 318.835504 209.265108 
L 322.107629 216.304638 
L 325.379754 206.226995 
L 328.651878 216.60104 
L 331.924003 216.156438 
L 335.196128 218.675848 
L 338.468253 220.602457 
L 341.740378 226.900984 
L 345.012503 223.195968 
L 348.284628 236.015323 
L 351.556752 235.570721 
L 354.828877 214.081629 
L 358.101002 213.562927 
L 361.373127 220.602457 
L 364.645252 241.202345 
L 367.917377 232.458508 
L 371.189502 225.567178 
L 374.461627 240.313141 
L 377.733751 246.463468 
L 381.005876 226.08588 
L 384.278001 260.023826 
L 387.550126 256.17061 
L 390.822251 239.86854 
L 394.094376 239.572138 
L 397.366501 272.54678 
L 400.638625 260.246127 
L 403.91075 255.503707 
L 407.182875 263.802942 
L 410.455 268.841764 
L 413.727125 279.51221 
L 416.99925 264.099344 
L 420.271375 269.138165 
L 423.543499 278.030204 
L 426.815624 283.884129 
L 430.087749 275.288492 
L 433.359874 288.700649 
L 436.631999 288.626549 
L 439.904124 274.399288 
L 443.176249 274.76979 
L 446.448373 282.920825 
L 449.720498 296.184782 
L 452.992623 298.852393 
L 456.264748 289.219352 
L 459.536873 296.407082 
L 462.808998 286.922242 
L 466.081123 280.401414 
L 469.353248 284.847433 
L 472.625372 274.91799 
L 475.897497 280.846016 
L 479.169622 265.65545 
L 482.441747 260.764829 
L 485.713872 288.033746 
L 488.985997 285.143834 
L 492.258122 299.000594 
L 495.530246 297.963189 
L 498.802371 295.591979 
L 502.074496 300.112098 
L 505.346621 277.733802 
L 508.618746 303.817114 
L 511.890871 298.852393 
L 515.162996 292.553866 
L 518.43512 302.70561 
L 521.707245 296.036581 
L 524.97937 302.409208 
L 528.251495 320.119184 
L 531.52362 307.892632 
L 534.795745 306.707027 
L 538.06787 317.747974 
L 541.339995 312.783253 
L 544.612119 314.635761 
L 547.884244 318.785379 
L 551.156369 318.118476 
L 554.428494 313.968858 
L 557.700619 317.673874 
L 560.972744 314.56166 
L 564.244869 309.152337 
L 567.516993 317.970275 
L 570.789118 311.375347 
L 574.061243 307.744431 
L 580.605493 310.634344 
L 583.877618 311.375347 
L 587.149743 311.597648 
L 590.421867 320.489686 
L 593.693992 320.489686 
L 596.966117 309.152337 
L 600.238242 312.931453 
L 603.510367 316.191867 
L 606.782492 313.376055 
L 610.054617 316.562369 
L 613.326742 315.154463 
L 616.598866 312.338651 
L 619.870991 316.043667 
L 623.143116 318.192576 
L 626.415241 314.41346 
L 629.687366 313.153754 
L 632.959491 318.785379 
L 636.231616 319.15588 
L 639.50374 311.078946 
L 642.775865 313.005554 
L 646.04799 311.449447 
L 649.320115 295.295578 
L 652.59224 311.671748 
L 655.864365 318.859479 
L 659.13649 311.745848 
L 662.408614 298.630092 
L 665.680739 311.227146 
L 668.952864 317.599774 
L 672.224989 315.524965 
L 675.497114 321.008388 
L 678.769239 312.412751 
L 682.041364 307.37393 
L 682.041364 307.37393 
" clip-path="url(#p726d14fa9e)" style="fill: none; stroke: #ff0000; stroke-width: 3; stroke-linecap: square"/>
   </g>
   <g id="line2d_17">
    <path d="M 138.868636 67.881701 
L 142.140761 87.518285 
L 145.412886 110.415283 
L 148.685011 122.938237 
L 151.957136 112.193691 
L 155.229261 170.807043 
L 158.501386 210.895315 
L 161.77351 220.528356 
L 165.045635 205.856493 
L 168.31776 208.820506 
L 171.589885 234.607417 
L 174.86201 205.634192 
L 178.134135 238.090132 
L 181.40626 243.203054 
L 184.678384 241.795148 
L 187.950509 237.126828 
L 191.222634 257.356215 
L 194.494759 242.38795 
L 197.766884 270.916573 
L 201.039009 270.768372 
L 204.311134 242.23975 
L 210.855383 259.801525 
L 214.127508 274.76979 
L 217.399633 260.394328 
L 220.671758 273.880586 
L 227.216008 266.100052 
L 230.488133 261.728133 
L 233.760257 224.529774 
L 237.032382 256.022409 
L 240.304507 243.944057 
L 243.576632 266.618754 
L 246.848757 251.428189 
L 250.120882 248.315976 
L 253.393007 252.984296 
L 256.665131 258.245418 
L 259.937256 236.904527 
L 263.209381 265.803651 
L 266.481506 268.545363 
L 269.753631 273.065482 
L 273.025756 241.498747 
L 276.297881 255.577807 
L 279.570005 284.847433 
L 282.84213 273.880586 
L 286.114255 272.991382 
L 289.38638 280.771915 
L 292.658505 284.25463 
L 295.93063 275.584893 
L 299.202755 250.094383 
L 302.47488 269.879168 
L 305.747004 278.919407 
L 309.019129 274.621589 
L 312.291254 276.548197 
L 315.563379 263.28424 
L 318.835504 264.618046 
L 322.107629 269.953269 
L 325.379754 268.619463 
L 328.651878 277.585602 
L 331.924003 280.327313 
L 335.196128 268.989965 
L 338.468253 276.103595 
L 341.740378 277.066899 
L 345.012503 290.775458 
L 348.284628 283.143125 
L 351.556752 286.774041 
L 354.828877 293.59127 
L 358.101002 282.476223 
L 361.373127 275.362592 
L 364.645252 274.176987 
L 367.917377 266.470554 
L 371.189502 280.920116 
L 374.461627 267.433858 
L 377.733751 284.032329 
L 381.005876 279.882711 
L 384.278001 293.44307 
L 387.550126 286.47764 
L 390.822251 285.440235 
L 394.094376 279.141708 
L 397.366501 277.363301 
L 400.638625 282.994925 
L 403.91075 273.361883 
L 407.182875 256.541111 
L 410.455 259.801525 
L 413.727125 261.061231 
L 416.99925 274.325188 
L 420.271375 279.58631 
L 423.543499 269.582767 
L 426.815624 279.43811 
L 430.087749 262.987839 
L 433.359874 278.623006 
L 436.631999 268.841764 
L 439.904124 280.030912 
L 443.176249 282.402122 
L 446.448373 276.622297 
L 449.720498 287.366844 
L 452.992623 291.294161 
L 456.264748 284.18053 
L 459.536873 284.551032 
L 462.808998 281.512918 
L 466.081123 278.252504 
L 469.353248 277.511501 
L 472.625372 290.553157 
L 475.897497 287.070442 
L 479.169622 284.921533 
L 482.441747 299.000594 
L 485.713872 289.441653 
L 488.985997 293.072568 
L 492.258122 294.035872 
L 495.530246 274.621589 
L 498.802371 285.143834 
L 502.074496 283.958229 
L 505.346621 281.216517 
L 508.618746 294.702775 
L 511.890871 294.258173 
L 515.162996 297.073985 
L 518.43512 290.108555 
L 521.707245 286.62584 
L 524.97937 286.47764 
L 528.251495 293.887672 
L 531.52362 287.218643 
L 534.795745 289.145251 
L 538.06787 284.551032 
L 541.339995 291.886963 
L 544.612119 285.440235 
L 547.884244 287.440944 
L 551.156369 288.033746 
L 554.428494 285.588436 
L 557.700619 284.10643 
L 560.972744 281.95752 
L 564.244869 294.702775 
L 567.516993 284.551032 
L 570.789118 282.031621 
L 574.061243 276.548197 
L 577.333368 274.176987 
L 580.605493 278.326605 
L 583.877618 277.659702 
L 587.149743 271.879877 
L 590.421867 271.953977 
L 593.693992 288.552449 
L 596.966117 263.802942 
L 600.238242 282.550323 
L 603.510367 278.771207 
L 606.782492 282.698524 
L 610.054617 275.140291 
L 613.326742 280.030912 
L 616.598866 269.138165 
L 619.870991 278.623006 
L 623.143116 285.217934 
L 626.415241 280.920116 
L 629.687366 276.177696 
L 632.959491 280.179113 
L 636.231616 287.366844 
L 639.50374 282.031621 
L 642.775865 279.660411 
L 646.04799 274.695689 
L 649.320115 280.623715 
L 652.59224 286.996342 
L 655.864365 279.51221 
L 659.13649 280.253213 
L 662.408614 298.18549 
L 665.680739 283.810028 
L 668.952864 281.290618 
L 672.224989 272.102178 
L 675.497114 281.80932 
L 678.769239 271.583476 
L 682.041364 285.884837 
L 682.041364 285.884837 
" clip-path="url(#p726d14fa9e)" style="fill: none; stroke: #ffa500; stroke-width: 3; stroke-linecap: square"/>
   </g>
   <g id="patch_3">
    <path d="M 111.71 351.16 
L 111.71 10.8 
" style="fill: none; stroke: #000000; stroke-width: 0.8; stroke-linejoin: miter; stroke-linecap: square"/>
   </g>
   <g id="patch_4">
    <path d="M 709.2 351.16 
L 709.2 10.8 
" style="fill: none; stroke: #000000; stroke-width: 0.8; stroke-linejoin: miter; stroke-linecap: square"/>
   </g>
   <g id="patch_5">
    <path d="M 111.71 351.16 
L 709.2 351.16 
" style="fill: none; stroke: #000000; stroke-width: 0.8; stroke-linejoin: miter; stroke-linecap: square"/>
   </g>
   <g id="patch_6">
    <path d="M 111.71 10.8 
L 709.2 10.8 
" style="fill: none; stroke: #000000; stroke-width: 0.8; stroke-linejoin: miter; stroke-linecap: square"/>
   </g>
  </g>
 </g>
 <defs>
  <clipPath id="p726d14fa9e">
   <rect x="111.71" y="10.8" width="597.49" height="340.36"/>
  </clipPath>
 </defs>
</svg>
