<?xml version="1.0" encoding="utf-8" standalone="no"?>
<!DOCTYPE svg PUBLIC "-//W3C//DTD SVG 1.1//EN"
  "http://www.w3.org/Graphics/SVG/1.1/DTD/svg11.dtd">
<svg xmlns:xlink="http://www.w3.org/1999/xlink" width="720pt" height="432pt" viewBox="0 0 720 432" xmlns="http://www.w3.org/2000/svg" version="1.1">
 <metadata>
  <rdf:RDF xmlns:dc="http://purl.org/dc/elements/1.1/" xmlns:cc="http://creativecommons.org/ns#" xmlns:rdf="http://www.w3.org/1999/02/22-rdf-syntax-ns#">
   <cc:Work>
    <dc:type rdf:resource="http://purl.org/dc/dcmitype/StillImage"/>
    <dc:date>2025-06-20T06:29:19.341208</dc:date>
    <dc:format>image/svg+xml</dc:format>
    <dc:creator>
     <cc:Agent>
      <dc:title>Matplotlib v3.7.1, https://matplotlib.org/</dc:title>
     </cc:Agent>
    </dc:creator>
   </cc:Work>
  </rdf:RDF>
 </metadata>
 <defs>
  <style type="text/css">*{stroke-linejoin: round; stroke-linecap: butt}</style>
 </defs>
 <g id="figure_1">
  <g id="patch_1">
   <path d="M 0 432 
L 720 432 
L 720 0 
L 0 0 
z
" style="fill: #ffffff"/>
  </g>
  <g id="axes_1">
   <g id="patch_2">
    <path d="M 98.93 351.16 
L 709.2 351.16 
L 709.2 10.8 
L 98.93 10.8 
z
" style="fill: #ffffff"/>
   </g>
   <g id="PolyCollection_1">
    <defs>
     <path id="m97389d6f3d" d="M 126.669545 -249.767885 
L 126.669545 -231.042352 
L 130.011659 -212.279141 
L 133.353773 -185.437352 
L 136.695887 -155.426138 
L 140.038001 -173.570211 
L 143.380115 -174.816302 
L 146.722229 -163.644854 
L 150.064343 -168.055875 
L 153.406457 -161.261258 
L 156.748571 -139.828839 
L 160.090685 -129.431759 
L 163.432798 -142.367877 
L 166.774912 -139.305616 
L 170.117026 -140.353847 
L 173.45914 -126.77007 
L 176.801254 -129.044076 
L 180.143368 -127.558363 
L 183.485482 -112.975774 
L 186.827596 -114.86967 
L 190.16971 -114.738773 
L 193.511824 -113.475362 
L 196.853938 -101.254781 
L 200.196051 -96.310909 
L 203.538165 -112.900721 
L 206.880279 -117.899045 
L 210.222393 -120.246675 
L 213.564507 -109.001149 
L 216.906621 -108.724555 
L 220.248735 -105.025204 
L 223.590849 -105.60686 
L 226.932963 -111.828564 
L 230.275077 -113.876017 
L 233.617191 -121.582074 
L 236.959304 -121.786368 
L 240.301418 -111.183917 
L 243.643532 -122.917195 
L 246.985646 -123.736114 
L 250.32776 -124.785633 
L 253.669874 -133.848711 
L 257.011988 -127.738659 
L 260.354102 -132.562175 
L 263.696216 -116.959926 
L 267.03833 -124.75605 
L 270.380444 -119.322025 
L 273.722558 -114.068005 
L 277.064671 -122.936388 
L 280.406785 -110.886509 
L 283.748899 -113.132193 
L 287.091013 -118.623799 
L 290.433127 -115.752494 
L 293.775241 -115.516625 
L 297.117355 -109.72732 
L 300.459469 -96.476393 
L 303.801583 -104.580685 
L 307.143697 -119.925382 
L 310.485811 -118.380602 
L 313.827924 -120.828014 
L 317.170038 -126.443714 
L 320.512152 -127.069226 
L 323.854266 -120.191053 
L 327.19638 -126.573471 
L 330.538494 -130.399677 
L 333.880608 -125.922264 
L 337.222722 -150.168494 
L 340.564836 -147.219017 
L 343.90695 -141.938929 
L 347.249064 -121.342125 
L 350.591177 -125.53211 
L 353.933291 -123.600253 
L 357.275405 -138.419434 
L 360.617519 -124.174947 
L 363.959633 -127.945009 
L 367.301747 -126.872001 
L 370.643861 -132.941808 
L 373.985975 -137.989599 
L 377.328089 -111.102751 
L 380.670203 -120.789793 
L 384.012317 -111.497802 
L 387.35443 -114.732302 
L 390.696544 -129.753106 
L 394.038658 -111.961743 
L 397.380772 -129.564909 
L 400.722886 -126.586168 
L 404.065 -139.107043 
L 407.407114 -124.268546 
L 410.749228 -121.970405 
L 414.091342 -130.952822 
L 417.433456 -106.078726 
L 420.77557 -130.113987 
L 424.117683 -129.059379 
L 427.459797 -117.166155 
L 430.801911 -127.339734 
L 434.144025 -126.074914 
L 437.486139 -118.601099 
L 440.828253 -131.224941 
L 444.170367 -129.745694 
L 447.512481 -123.451371 
L 450.854595 -127.401158 
L 454.196709 -133.895027 
L 457.538823 -134.075794 
L 460.880936 -110.269562 
L 464.22305 -138.424528 
L 467.565164 -129.535869 
L 470.907278 -124.832945 
L 474.249392 -116.99419 
L 477.591506 -147.276868 
L 480.93362 -140.540766 
L 484.275734 -122.623544 
L 487.617848 -140.754169 
L 490.959962 -123.868392 
L 494.302076 -135.188991 
L 497.644189 -135.28685 
L 500.986303 -133.566056 
L 504.328417 -141.831364 
L 507.670531 -130.198679 
L 511.012645 -127.336029 
L 514.354759 -136.346611 
L 517.696873 -126.858123 
L 521.038987 -132.359383 
L 524.381101 -124.076052 
L 527.723215 -137.295556 
L 531.065329 -114.48621 
L 534.407442 -125.981251 
L 537.749556 -136.114447 
L 541.09167 -147.976682 
L 544.433784 -131.559471 
L 547.775898 -129.181156 
L 551.118012 -126.998699 
L 554.460126 -118.813137 
L 557.80224 -119.20557 
L 561.144354 -127.471722 
L 564.486468 -132.71781 
L 567.828582 -143.193866 
L 571.170696 -129.080084 
L 574.512809 -127.854128 
L 577.854923 -143.776907 
L 581.197037 -115.356493 
L 584.539151 -114.93527 
L 587.881265 -135.737559 
L 591.223379 -112.272062 
L 594.565493 -113.938287 
L 597.907607 -114.249775 
L 601.249721 -110.96545 
L 604.591835 -125.907331 
L 607.933949 -118.138452 
L 611.276062 -127.161013 
L 614.618176 -124.029916 
L 617.96029 -121.4723 
L 621.302404 -108.351246 
L 624.644518 -115.821986 
L 627.986632 -122.753114 
L 631.328746 -115.907308 
L 634.67086 -113.051253 
L 638.012974 -114.789315 
L 641.355088 -115.819742 
L 644.697202 -118.668639 
L 648.039315 -120.168569 
L 651.381429 -116.784746 
L 654.723543 -116.886686 
L 658.065657 -104.66965 
L 661.407771 -112.355984 
L 664.749885 -112.269272 
L 668.091999 -106.45078 
L 671.434113 -117.803888 
L 674.776227 -115.752494 
L 678.118341 -115.875178 
L 681.460455 -109.391617 
L 681.460455 -132.965252 
L 681.460455 -132.965252 
L 678.118341 -125.278899 
L 674.776227 -137.730193 
L 671.434113 -129.364145 
L 668.091999 -134.101902 
L 664.749885 -122.269453 
L 661.407771 -133.909956 
L 658.065657 -131.372564 
L 654.723543 -135.994606 
L 651.381429 -125.572122 
L 648.039315 -140.831564 
L 644.697202 -129.401488 
L 641.355088 -132.551083 
L 638.012974 -122.756388 
L 634.67086 -118.480494 
L 631.328746 -133.666308 
L 627.986632 -155.386794 
L 624.644518 -125.031393 
L 621.302404 -155.956563 
L 617.96029 -141.33202 
L 614.618176 -145.991152 
L 611.276062 -143.762147 
L 607.933949 -133.239351 
L 604.591835 -163.358396 
L 601.249721 -165.67097 
L 597.907607 -159.078969 
L 594.565493 -150.67022 
L 591.223379 -131.888994 
L 587.881265 -137.591185 
L 584.539151 -137.946022 
L 581.197037 -148.951316 
L 577.854923 -154.509755 
L 574.512809 -145.775314 
L 571.170696 -156.877967 
L 567.828582 -159.603263 
L 564.486468 -147.226285 
L 561.144354 -160.290516 
L 557.80224 -168.556669 
L 554.460126 -182.179806 
L 551.118012 -164.071216 
L 547.775898 -148.958753 
L 544.433784 -164.020911 
L 541.09167 -154.820448 
L 537.749556 -143.52895 
L 534.407442 -142.23563 
L 531.065329 -137.793686 
L 527.723215 -150.165985 
L 524.381101 -147.749202 
L 521.038987 -147.88541 
L 517.696873 -135.645499 
L 514.354759 -149.611441 
L 511.012645 -161.027605 
L 507.670531 -162.97612 
L 504.328417 -157.357391 
L 500.986303 -158.405952 
L 497.644189 -158.489345 
L 494.302076 -160.090693 
L 490.959962 -137.733137 
L 487.617848 -143.700394 
L 484.275734 -160.628227 
L 480.93362 -152.333335 
L 477.591506 -147.702119 
L 474.249392 -150.621295 
L 470.907278 -135.565793 
L 467.565164 -150.708924 
L 464.22305 -148.736315 
L 460.880936 -146.520801 
L 457.538823 -161.805285 
L 454.196709 -160.482564 
L 450.854595 -159.458987 
L 447.512481 -143.863416 
L 444.170367 -172.750738 
L 440.828253 -172.474282 
L 437.486139 -168.259047 
L 434.144025 -162.28872 
L 430.801911 -134.863191 
L 427.459797 -149.246539 
L 424.117683 -154.192392 
L 420.77557 -156.144763 
L 417.433456 -145.900473 
L 414.091342 -157.410812 
L 410.749228 -156.7709 
L 407.407114 -170.409742 
L 404.065 -204.284292 
L 400.722886 -192.147946 
L 397.380772 -212.322936 
L 394.038658 -224.513542 
L 390.696544 -195.897057 
L 387.35443 -192.575295 
L 384.012317 -192.201421 
L 380.670203 -230.118987 
L 377.328089 -209.134851 
L 373.985975 -222.240813 
L 370.643861 -234.80605 
L 367.301747 -183.141876 
L 363.959633 -179.663285 
L 360.617519 -171.706132 
L 357.275405 -194.146779 
L 353.933291 -176.490597 
L 350.591177 -157.118265 
L 347.249064 -158.60197 
L 343.90695 -182.207745 
L 340.564836 -153.17253 
L 337.222722 -163.453757 
L 333.880608 -161.238579 
L 330.538494 -162.474424 
L 327.19638 -144.650388 
L 323.854266 -173.284444 
L 320.512152 -162.797897 
L 317.170038 -185.374349 
L 313.827924 -165.430735 
L 310.485811 -159.458609 
L 307.143697 -154.606153 
L 303.801583 -162.132707 
L 300.459469 -135.356051 
L 297.117355 -143.755367 
L 293.775241 -134.357689 
L 290.433127 -137.730193 
L 287.091013 -153.502153 
L 283.748899 -146.063753 
L 280.406785 -144.099668 
L 277.064671 -137.161651 
L 273.722558 -124.379792 
L 270.380444 -143.181597 
L 267.03833 -143.160132 
L 263.696216 -142.837415 
L 260.354102 -160.612624 
L 257.011988 -152.806832 
L 253.669874 -144.291198 
L 250.32776 -163.277303 
L 246.985646 -149.592629 
L 243.643532 -151.313642 
L 240.301418 -149.515518 
L 236.959304 -149.43749 
L 233.617191 -136.411081 
L 230.275077 -117.65573 
L 226.932963 -154.283432 
L 223.590849 -143.966756 
L 220.248735 -139.737247 
L 216.906621 -136.639291 
L 213.564507 -132.152928 
L 210.222393 -156.089047 
L 206.880279 -155.429698 
L 203.538165 -171.253144 
L 200.196051 -164.989922 
L 196.853938 -173.577451 
L 193.511824 -153.238029 
L 190.16971 -170.016487 
L 186.827596 -180.109316 
L 183.485482 -175.087163 
L 180.143368 -186.364586 
L 176.801254 -182.773988 
L 173.45914 -196.775208 
L 170.117026 -209.953538 
L 166.774912 -202.281532 
L 163.432798 -181.778797 
L 160.090685 -183.589097 
L 156.748571 -193.639467 
L 153.406457 -189.046127 
L 150.064343 -177.440345 
L 146.722229 -188.166019 
L 143.380115 -189.022484 
L 140.038001 -191.170668 
L 136.695887 -193.077059 
L 133.353773 -211.778892 
L 130.011659 -227.034797 
L 126.669545 -249.767885 
z
" style="stroke: #0000ff; stroke-opacity: 0.3"/>
    </defs>
    <g clip-path="url(#p2411ad92e6)">
     <use xlink:href="#m97389d6f3d" x="0" y="432" style="fill: #0000ff; fill-opacity: 0.3; stroke: #0000ff; stroke-opacity: 0.3"/>
    </g>
   </g>
   <g id="PolyCollection_2">
    <defs>
     <path id="m8c5f919e61" d="M 126.669545 -230.914954 
L 126.669545 -222.231084 
L 130.011659 -213.423819 
L 133.353773 -196.260581 
L 136.695887 -186.46751 
L 140.038001 -176.128889 
L 143.380115 -170.267605 
L 146.722229 -182.091275 
L 150.064343 -158.886548 
L 153.406457 -179.230729 
L 156.748571 -177.466629 
L 160.090685 -178.268457 
L 163.432798 -171.700325 
L 166.774912 -150.003516 
L 170.117026 -155.649287 
L 173.45914 -167.659008 
L 176.801254 -163.182095 
L 180.143368 -172.478661 
L 183.485482 -176.920421 
L 186.827596 -168.729111 
L 190.16971 -157.615608 
L 193.511824 -145.611922 
L 196.853938 -159.265192 
L 200.196051 -150.159207 
L 203.538165 -142.488262 
L 206.880279 -156.203668 
L 210.222393 -159.309372 
L 213.564507 -164.624629 
L 216.906621 -160.396792 
L 220.248735 -158.066654 
L 223.590849 -152.020073 
L 226.932963 -139.440706 
L 230.275077 -151.774578 
L 233.617191 -155.050122 
L 236.959304 -142.629531 
L 240.301418 -149.163689 
L 243.643532 -146.584734 
L 246.985646 -152.272099 
L 250.32776 -134.183675 
L 253.669874 -170.56829 
L 257.011988 -147.959056 
L 260.354102 -167.549147 
L 263.696216 -186.657595 
L 267.03833 -188.419044 
L 270.380444 -191.620109 
L 273.722558 -191.454111 
L 277.064671 -163.780601 
L 280.406785 -166.816461 
L 283.748899 -202.874553 
L 287.091013 -198.957817 
L 290.433127 -189.130359 
L 293.775241 -155.073441 
L 297.117355 -154.70968 
L 300.459469 -150.73893 
L 303.801583 -152.148743 
L 307.143697 -145.433389 
L 310.485811 -154.40246 
L 313.827924 -150.987073 
L 317.170038 -136.663811 
L 320.512152 -129.934319 
L 323.854266 -162.720638 
L 327.19638 -179.12225 
L 330.538494 -165.832819 
L 333.880608 -155.351009 
L 337.222722 -165.632119 
L 340.564836 -152.608191 
L 343.90695 -170.805062 
L 347.249064 -178.67597 
L 350.591177 -177.027652 
L 353.933291 -180.690959 
L 357.275405 -174.0767 
L 360.617519 -186.924422 
L 363.959633 -221.073029 
L 367.301747 -213.820296 
L 370.643861 -181.804067 
L 373.985975 -183.126141 
L 377.328089 -149.636762 
L 380.670203 -170.163511 
L 384.012317 -186.785747 
L 387.35443 -185.094932 
L 390.696544 -176.242709 
L 394.038658 -178.154658 
L 397.380772 -177.935293 
L 400.722886 -173.234179 
L 404.065 -180.268447 
L 407.407114 -187.683562 
L 410.749228 -183.216511 
L 414.091342 -183.525831 
L 417.433456 -201.944182 
L 420.77557 -227.068945 
L 424.117683 -220.327856 
L 427.459797 -228.988333 
L 430.801911 -245.156599 
L 434.144025 -258.667145 
L 437.486139 -244.6422 
L 440.828253 -241.967404 
L 444.170367 -229.577331 
L 447.512481 -256.921606 
L 450.854595 -227.550619 
L 454.196709 -247.283624 
L 457.538823 -227.546815 
L 460.880936 -238.439148 
L 464.22305 -254.84858 
L 467.565164 -258.212737 
L 470.907278 -219.419049 
L 474.249392 -230.664886 
L 477.591506 -216.191575 
L 480.93362 -222.571052 
L 484.275734 -232.95776 
L 487.617848 -213.675736 
L 490.959962 -206.681478 
L 494.302076 -202.465129 
L 497.644189 -194.003421 
L 500.986303 -179.606134 
L 504.328417 -171.068793 
L 507.670531 -195.083018 
L 511.012645 -200.37179 
L 514.354759 -197.088352 
L 517.696873 -184.60407 
L 521.038987 -173.015479 
L 524.381101 -171.013332 
L 527.723215 -161.797876 
L 531.065329 -154.702661 
L 534.407442 -153.91567 
L 537.749556 -202.314345 
L 541.09167 -205.811854 
L 544.433784 -193.386195 
L 547.775898 -181.611536 
L 551.118012 -184.469311 
L 554.460126 -186.838768 
L 557.80224 -174.029222 
L 561.144354 -185.654018 
L 564.486468 -187.526612 
L 567.828582 -164.895266 
L 571.170696 -168.258108 
L 574.512809 -166.879596 
L 577.854923 -183.541872 
L 581.197037 -174.802915 
L 584.539151 -204.218642 
L 587.881265 -218.626021 
L 591.223379 -241.053278 
L 594.565493 -230.213665 
L 597.907607 -205.900168 
L 601.249721 -204.709786 
L 604.591835 -191.689583 
L 607.933949 -170.628193 
L 611.276062 -155.144156 
L 614.618176 -171.400196 
L 617.96029 -201.712114 
L 621.302404 -211.631581 
L 624.644518 -193.204583 
L 627.986632 -188.961241 
L 631.328746 -183.534465 
L 634.67086 -190.11553 
L 638.012974 -206.705742 
L 641.355088 -195.632486 
L 644.697202 -189.831444 
L 648.039315 -206.024879 
L 651.381429 -202.174649 
L 654.723543 -206.698007 
L 658.065657 -199.783943 
L 661.407771 -188.94173 
L 664.749885 -209.39481 
L 668.091999 -199.235324 
L 671.434113 -202.329084 
L 674.776227 -209.385503 
L 678.118341 -211.089957 
L 681.460455 -217.693127 
L 681.460455 -280.858281 
L 681.460455 -280.858281 
L 678.118341 -266.111906 
L 674.776227 -232.634715 
L 671.434113 -259.236493 
L 668.091999 -260.526066 
L 664.749885 -261.1917 
L 661.407771 -251.574999 
L 658.065657 -246.746743 
L 654.723543 -268.398971 
L 651.381429 -241.649756 
L 648.039315 -250.128137 
L 644.697202 -231.139927 
L 641.355088 -246.087035 
L 638.012974 -246.139598 
L 634.67086 -256.715854 
L 631.328746 -249.464819 
L 627.986632 -279.219687 
L 624.644518 -260.843548 
L 621.302404 -271.28354 
L 617.96029 -245.419967 
L 614.618176 -283.850726 
L 611.276062 -255.002094 
L 607.933949 -251.846667 
L 604.591835 -237.099931 
L 601.249721 -241.219504 
L 597.907607 -251.455639 
L 594.565493 -249.093082 
L 591.223379 -269.526043 
L 587.881265 -248.051419 
L 584.539151 -230.284131 
L 581.197037 -243.462176 
L 577.854923 -259.981836 
L 574.512809 -282.056673 
L 571.170696 -269.853039 
L 567.828582 -278.929139 
L 564.486468 -298.696185 
L 561.144354 -280.422025 
L 557.80224 -276.410536 
L 554.460126 -275.929599 
L 551.118012 -289.725574 
L 547.775898 -282.66032 
L 544.433784 -256.752864 
L 541.09167 -259.662794 
L 537.749556 -280.300079 
L 534.407442 -262.244536 
L 531.065329 -243.114978 
L 527.723215 -249.551165 
L 524.381101 -248.45455 
L 521.038987 -247.655195 
L 517.696873 -232.758927 
L 514.354759 -233.204651 
L 511.012645 -246.158896 
L 507.670531 -246.035107 
L 504.328417 -241.182342 
L 500.986303 -232.645001 
L 497.644189 -224.562368 
L 494.302076 -239.855787 
L 490.959962 -225.115015 
L 487.617848 -241.274489 
L 484.275734 -267.397835 
L 480.93362 -283.497802 
L 477.591506 -262.213079 
L 474.249392 -263.376054 
L 470.907278 -277.328172 
L 467.565164 -273.114733 
L 464.22305 -279.786565 
L 460.880936 -266.126216 
L 457.538823 -264.990636 
L 454.196709 -279.834076 
L 450.854595 -244.539381 
L 447.512481 -271.398886 
L 444.170367 -271.981055 
L 440.828253 -283.045411 
L 437.486139 -298.412485 
L 434.144025 -266.044973 
L 430.801911 -263.017138 
L 427.459797 -254.528184 
L 424.117683 -251.160748 
L 420.77557 -258.251758 
L 417.433456 -279.166753 
L 414.091342 -273.228581 
L 410.749228 -223.622063 
L 407.407114 -209.83338 
L 404.065 -195.89895 
L 400.722886 -203.534613 
L 397.380772 -216.57467 
L 394.038658 -208.236465 
L 390.696544 -219.470046 
L 387.35443 -213.624801 
L 384.012317 -236.290508 
L 380.670203 -215.926913 
L 377.328089 -225.327844 
L 373.985975 -223.111037 
L 370.643861 -212.104501 
L 367.301747 -222.185966 
L 363.959633 -235.380685 
L 360.617519 -259.606263 
L 357.275405 -264.335145 
L 353.933291 -205.399465 
L 350.591177 -226.202548 
L 347.249064 -244.400286 
L 343.90695 -214.082571 
L 340.564836 -198.901985 
L 337.222722 -213.542256 
L 333.880608 -206.382892 
L 330.538494 -195.600384 
L 327.19638 -187.422817 
L 323.854266 -210.43978 
L 320.512152 -222.47795 
L 317.170038 -217.251947 
L 313.827924 -232.096373 
L 310.485811 -249.729833 
L 307.143697 -239.454244 
L 303.801583 -238.752846 
L 300.459469 -231.141725 
L 297.117355 -200.709567 
L 293.775241 -196.136037 
L 290.433127 -216.505423 
L 287.091013 -250.579847 
L 283.748899 -234.3345 
L 280.406785 -237.315832 
L 277.064671 -200.960278 
L 273.722558 -234.629124 
L 270.380444 -221.533119 
L 267.03833 -199.475568 
L 263.696216 -209.656555 
L 260.354102 -223.953838 
L 257.011988 -207.760889 
L 253.669874 -194.17259 
L 250.32776 -228.45232 
L 246.985646 -203.748544 
L 243.643532 -188.988457 
L 240.301418 -174.682288 
L 236.959304 -178.810863 
L 233.617191 -191.648888 
L 230.275077 -191.917455 
L 226.932963 -191.32132 
L 223.590849 -203.699872 
L 220.248735 -182.017004 
L 216.906621 -186.302219 
L 213.564507 -188.990431 
L 210.222393 -182.879171 
L 206.880279 -193.50232 
L 203.538165 -194.889116 
L 200.196051 -173.68677 
L 196.853938 -194.650567 
L 193.511824 -174.024285 
L 190.16971 -181.565958 
L 186.827596 -201.123632 
L 183.485482 -187.820458 
L 180.143368 -184.744773 
L 176.801254 -201.258086 
L 173.45914 -213.319553 
L 170.117026 -203.077636 
L 166.774912 -207.219918 
L 163.432798 -205.669863 
L 160.090685 -207.52127 
L 156.748571 -192.686811 
L 153.406457 -193.328294 
L 150.064343 -182.7006 
L 146.722229 -190.467747 
L 143.380115 -192.669088 
L 140.038001 -195.227343 
L 136.695887 -209.245245 
L 133.353773 -211.780784 
L 130.011659 -228.5964 
L 126.669545 -230.914954 
z
" style="stroke: #008000; stroke-opacity: 0.3"/>
    </defs>
    <g clip-path="url(#p2411ad92e6)">
     <use xlink:href="#m8c5f919e61" x="0" y="432" style="fill: #008000; fill-opacity: 0.3; stroke: #008000; stroke-opacity: 0.3"/>
    </g>
   </g>
   <g id="PolyCollection_3">
    <defs>
     <path id="m15c79c24c3" d="M 126.669545 -404.912446 
L 126.669545 -379.301887 
L 130.011659 -399.979709 
L 133.353773 -359.26661 
L 136.695887 -363.94789 
L 140.038001 -363.77033 
L 143.380115 -337.004389 
L 146.722229 -326.595332 
L 150.064343 -327.517904 
L 153.406457 -345.021322 
L 156.748571 -340.042387 
L 160.090685 -329.423116 
L 163.432798 -341.262016 
L 166.774912 -321.425188 
L 170.117026 -300.328373 
L 173.45914 -305.034654 
L 176.801254 -314.535325 
L 180.143368 -312.254782 
L 183.485482 -301.452344 
L 186.827596 -288.745919 
L 190.16971 -303.969137 
L 193.511824 -299.140336 
L 196.853938 -309.401658 
L 200.196051 -299.498902 
L 203.538165 -286.262809 
L 206.880279 -273.040233 
L 210.222393 -276.630995 
L 213.564507 -279.001699 
L 216.906621 -301.950695 
L 220.248735 -301.251853 
L 223.590849 -283.844091 
L 226.932963 -258.436833 
L 230.275077 -255.83853 
L 233.617191 -257.077462 
L 236.959304 -257.325434 
L 240.301418 -242.072087 
L 243.643532 -256.301584 
L 246.985646 -243.030498 
L 250.32776 -253.974496 
L 253.669874 -215.795973 
L 257.011988 -236.81981 
L 260.354102 -258.200091 
L 263.696216 -259.639043 
L 267.03833 -260.283252 
L 270.380444 -270.975511 
L 273.722558 -249.122287 
L 277.064671 -233.918375 
L 280.406785 -258.081958 
L 283.748899 -222.708664 
L 287.091013 -223.62697 
L 290.433127 -208.673771 
L 293.775241 -189.432323 
L 297.117355 -195.93338 
L 300.459469 -187.969923 
L 303.801583 -196.177499 
L 307.143697 -196.032054 
L 310.485811 -205.986371 
L 313.827924 -194.043348 
L 317.170038 -206.636953 
L 320.512152 -209.649114 
L 323.854266 -206.46261 
L 327.19638 -190.772442 
L 330.538494 -210.656626 
L 333.880608 -204.087865 
L 337.222722 -176.274367 
L 340.564836 -186.899118 
L 343.90695 -196.733622 
L 347.249064 -200.187688 
L 350.591177 -183.682375 
L 353.933291 -195.98777 
L 357.275405 -191.794265 
L 360.617519 -193.858203 
L 363.959633 -181.397634 
L 367.301747 -190.342349 
L 370.643861 -182.3962 
L 373.985975 -194.611208 
L 377.328089 -183.876902 
L 380.670203 -202.747315 
L 384.012317 -177.68614 
L 387.35443 -183.284339 
L 390.696544 -184.89328 
L 394.038658 -156.567475 
L 397.380772 -171.375294 
L 400.722886 -158.32694 
L 404.065 -172.6128 
L 407.407114 -164.279446 
L 410.749228 -171.320697 
L 414.091342 -169.666106 
L 417.433456 -163.66893 
L 420.77557 -154.147919 
L 424.117683 -157.03909 
L 427.459797 -147.566285 
L 430.801911 -167.806872 
L 434.144025 -174.915049 
L 437.486139 -151.054987 
L 440.828253 -141.541234 
L 444.170367 -156.226525 
L 447.512481 -137.881089 
L 450.854595 -140.718183 
L 454.196709 -138.521247 
L 457.538823 -153.442405 
L 460.880936 -135.82846 
L 464.22305 -134.420626 
L 467.565164 -121.377035 
L 470.907278 -127.163149 
L 474.249392 -124.356927 
L 477.591506 -115.222571 
L 480.93362 -118.638655 
L 484.275734 -113.404893 
L 487.617848 -130.378583 
L 490.959962 -127.921296 
L 494.302076 -128.425482 
L 497.644189 -124.123082 
L 500.986303 -122.109555 
L 504.328417 -121.824804 
L 507.670531 -136.620314 
L 511.012645 -141.038416 
L 514.354759 -118.69676 
L 517.696873 -129.514507 
L 521.038987 -115.044856 
L 524.381101 -115.280806 
L 527.723215 -135.796627 
L 531.065329 -126.912667 
L 534.407442 -123.703777 
L 537.749556 -107.569965 
L 541.09167 -109.060268 
L 544.433784 -100.033784 
L 547.775898 -108.084019 
L 551.118012 -123.680821 
L 554.460126 -109.765595 
L 557.80224 -114.731643 
L 561.144354 -125.909968 
L 564.486468 -117.302421 
L 567.828582 -117.042627 
L 571.170696 -112.498723 
L 574.512809 -110.562228 
L 577.854923 -114.341132 
L 581.197037 -110.235205 
L 584.539151 -115.323183 
L 587.881265 -115.540609 
L 591.223379 -112.459227 
L 594.565493 -122.232351 
L 597.907607 -124.595325 
L 601.249721 -109.473554 
L 604.591835 -102.994272 
L 607.933949 -121.643609 
L 611.276062 -104.465536 
L 614.618176 -113.65358 
L 617.96029 -106.853107 
L 621.302404 -116.400186 
L 624.644518 -114.694215 
L 627.986632 -115.392129 
L 631.328746 -115.029746 
L 634.67086 -120.849484 
L 638.012974 -114.985232 
L 641.355088 -138.580186 
L 644.697202 -109.324969 
L 648.039315 -103.709487 
L 651.381429 -125.024207 
L 654.723543 -110.430238 
L 658.065657 -127.537127 
L 661.407771 -138.421027 
L 664.749885 -128.259422 
L 668.091999 -124.378887 
L 671.434113 -104.908158 
L 674.776227 -111.283448 
L 678.118341 -111.307227 
L 681.460455 -128.749194 
L 681.460455 -171.943051 
L 681.460455 -171.943051 
L 678.118341 -161.420121 
L 674.776227 -182.192049 
L 671.434113 -170.826168 
L 668.091999 -173.607078 
L 664.749885 -188.670504 
L 661.407771 -186.026345 
L 658.065657 -168.043255 
L 654.723543 -165.304088 
L 651.381429 -194.010604 
L 648.039315 -200.591132 
L 644.697202 -187.157507 
L 641.355088 -167.223922 
L 638.012974 -165.860957 
L 634.67086 -153.682051 
L 631.328746 -130.935496 
L 627.986632 -139.29335 
L 624.644518 -140.59266 
L 621.302404 -154.823673 
L 617.96029 -150.83935 
L 614.618176 -135.017943 
L 611.276062 -139.094124 
L 607.933949 -171.230493 
L 604.591835 -153.495394 
L 601.249721 -159.044024 
L 597.907607 -143.320858 
L 594.565493 -137.564991 
L 591.223379 -156.359049 
L 587.881265 -137.340683 
L 584.539151 -134.250433 
L 581.197037 -154.373302 
L 577.854923 -153.875748 
L 574.512809 -145.62674 
L 571.170696 -147.599317 
L 567.828582 -149.670765 
L 564.486468 -156.928416 
L 561.144354 -134.789468 
L 557.80224 -143.261512 
L 554.460126 -129.584296 
L 551.118012 -142.731873 
L 547.775898 -154.720301 
L 544.433784 -141.420991 
L 541.09167 -129.688226 
L 537.749556 -128.472249 
L 534.407442 -148.121477 
L 531.065329 -145.213285 
L 527.723215 -142.343282 
L 524.381101 -150.530492 
L 521.038987 -157.682492 
L 517.696873 -161.555408 
L 514.354759 -161.848731 
L 511.012645 -181.604769 
L 507.670531 -173.092865 
L 504.328417 -175.559765 
L 500.986303 -190.610603 
L 497.644189 -184.387306 
L 494.302076 -171.665368 
L 490.959962 -189.309328 
L 487.617848 -185.949948 
L 484.275734 -181.273396 
L 480.93362 -199.794761 
L 477.591506 -186.371767 
L 474.249392 -205.503006 
L 470.907278 -188.263288 
L 467.565164 -176.608929 
L 464.22305 -177.698136 
L 460.880936 -195.534962 
L 457.538823 -179.424506 
L 454.196709 -180.513565 
L 450.854595 -181.022909 
L 447.512481 -178.447442 
L 444.170367 -187.164809 
L 440.828253 -193.430561 
L 437.486139 -216.993569 
L 434.144025 -219.294217 
L 430.801911 -202.346568 
L 427.459797 -206.950869 
L 424.117683 -214.918538 
L 420.77557 -197.662955 
L 417.433456 -201.372647 
L 414.091342 -207.704082 
L 410.749228 -227.699733 
L 407.407114 -220.006792 
L 404.065 -219.190883 
L 400.722886 -231.672556 
L 397.380772 -241.477236 
L 394.038658 -246.061329 
L 390.696544 -235.476695 
L 387.35443 -256.029599 
L 384.012317 -245.089418 
L 380.670203 -223.636617 
L 377.328089 -237.094469 
L 373.985975 -247.709708 
L 370.643861 -226.246561 
L 367.301747 -243.25833 
L 363.959633 -273.853289 
L 360.617519 -258.385741 
L 357.275405 -262.253866 
L 353.933291 -259.56385 
L 350.591177 -267.659475 
L 347.249064 -256.566724 
L 343.90695 -244.384502 
L 340.564836 -263.841337 
L 337.222722 -247.102587 
L 333.880608 -237.330957 
L 330.538494 -261.132676 
L 327.19638 -262.974991 
L 323.854266 -259.914131 
L 320.512152 -269.958332 
L 317.170038 -270.264213 
L 313.827924 -252.788035 
L 310.485811 -268.80991 
L 307.143697 -242.079092 
L 303.801583 -230.50713 
L 300.459469 -253.4489 
L 297.117355 -270.443362 
L 293.775241 -274.538836 
L 290.433127 -273.038559 
L 287.091013 -274.022345 
L 283.748899 -264.115529 
L 280.406785 -266.930857 
L 277.064671 -256.81489 
L 273.722558 -278.596809 
L 270.380444 -293.729416 
L 267.03833 -299.009115 
L 263.696216 -289.1289 
L 260.354102 -285.455989 
L 257.011988 -281.878352 
L 253.669874 -277.342874 
L 250.32776 -286.674606 
L 246.985646 -297.317906 
L 243.643532 -302.088689 
L 240.301418 -279.933751 
L 236.959304 -317.903917 
L 233.617191 -297.103041 
L 230.275077 -307.964304 
L 226.932963 -280.70878 
L 223.590849 -301.00759 
L 220.248735 -322.089149 
L 216.906621 -321.991702 
L 213.564507 -338.325347 
L 210.222393 -312.430456 
L 206.880279 -292.26609 
L 203.538165 -321.742603 
L 200.196051 -323.240704 
L 196.853938 -347.617499 
L 193.511824 -331.417413 
L 190.16971 -312.756513 
L 186.827596 -352.636952 
L 183.485482 -350.154252 
L 180.143368 -373.029969 
L 176.801254 -377.966174 
L 173.45914 -364.613811 
L 170.117026 -369.62079 
L 166.774912 -364.160262 
L 163.432798 -382.812754 
L 160.090685 -357.064427 
L 156.748571 -376.514937 
L 153.406457 -363.71786 
L 150.064343 -383.62686 
L 146.722229 -373.122915 
L 143.380115 -395.189222 
L 140.038001 -399.695854 
L 136.695887 -374.259677 
L 133.353773 -397.88492 
L 130.011659 -404.08068 
L 126.669545 -404.912446 
z
" style="stroke: #ff0000; stroke-opacity: 0.3"/>
    </defs>
    <g clip-path="url(#p2411ad92e6)">
     <use xlink:href="#m15c79c24c3" x="0" y="432" style="fill: #ff0000; fill-opacity: 0.3; stroke: #ff0000; stroke-opacity: 0.3"/>
    </g>
   </g>
   <g id="PolyCollection_4">
    <defs>
     <path id="m8b237eb122" d="M 126.669545 -405.729091 
L 126.669545 -388.40827 
L 130.011659 -370.009146 
L 133.353773 -380.748309 
L 136.695887 -344.581377 
L 140.038001 -352.134426 
L 143.380115 -323.67097 
L 146.722229 -321.061615 
L 150.064343 -302.811644 
L 153.406457 -289.507485 
L 156.748571 -287.165398 
L 160.090685 -298.9612 
L 163.432798 -301.8621 
L 166.774912 -306.450161 
L 170.117026 -278.088914 
L 173.45914 -274.299138 
L 176.801254 -280.150656 
L 180.143368 -251.621452 
L 183.485482 -257.003234 
L 186.827596 -250.44057 
L 190.16971 -253.04711 
L 193.511824 -241.546399 
L 196.853938 -234.870815 
L 200.196051 -243.412888 
L 203.538165 -233.21724 
L 206.880279 -259.120723 
L 210.222393 -238.210653 
L 213.564507 -246.090022 
L 216.906621 -274.268424 
L 220.248735 -278.60735 
L 223.590849 -275.38517 
L 226.932963 -273.792237 
L 230.275077 -282.558545 
L 233.617191 -290.534622 
L 236.959304 -274.365706 
L 240.301418 -262.212438 
L 243.643532 -280.526993 
L 246.985646 -272.020338 
L 250.32776 -283.91483 
L 253.669874 -258.797154 
L 257.011988 -265.958651 
L 260.354102 -277.078386 
L 263.696216 -281.238686 
L 267.03833 -260.551427 
L 270.380444 -266.527888 
L 273.722558 -277.225076 
L 277.064671 -266.171007 
L 280.406785 -247.438923 
L 283.748899 -266.254976 
L 287.091013 -267.562607 
L 290.433127 -268.68022 
L 293.775241 -271.466782 
L 297.117355 -286.163924 
L 300.459469 -259.557254 
L 303.801583 -253.935971 
L 307.143697 -241.610366 
L 310.485811 -256.127287 
L 313.827924 -252.635946 
L 317.170038 -242.979928 
L 320.512152 -268.224425 
L 323.854266 -238.945571 
L 327.19638 -254.508396 
L 330.538494 -257.240374 
L 333.880608 -276.75124 
L 337.222722 -255.210966 
L 340.564836 -244.516258 
L 343.90695 -234.508911 
L 347.249064 -225.883269 
L 350.591177 -242.960373 
L 353.933291 -256.172135 
L 357.275405 -242.199909 
L 360.617519 -236.320298 
L 363.959633 -243.577189 
L 367.301747 -252.70868 
L 370.643861 -251.06224 
L 373.985975 -232.693029 
L 377.328089 -259.562352 
L 380.670203 -256.24297 
L 384.012317 -261.649277 
L 387.35443 -258.61727 
L 390.696544 -248.232004 
L 394.038658 -277.265315 
L 397.380772 -269.741618 
L 400.722886 -263.055232 
L 404.065 -262.0656 
L 407.407114 -280.991865 
L 410.749228 -282.989951 
L 414.091342 -260.266373 
L 417.433456 -281.850485 
L 420.77557 -269.066129 
L 424.117683 -272.998231 
L 427.459797 -268.33537 
L 430.801911 -263.423761 
L 434.144025 -258.030694 
L 437.486139 -253.502055 
L 440.828253 -266.970339 
L 444.170367 -270.152739 
L 447.512481 -267.428467 
L 450.854595 -273.801379 
L 454.196709 -250.67882 
L 457.538823 -238.436626 
L 460.880936 -268.697465 
L 464.22305 -244.274159 
L 467.565164 -270.482999 
L 470.907278 -255.245875 
L 474.249392 -254.811209 
L 477.591506 -247.217918 
L 480.93362 -251.525645 
L 484.275734 -266.771307 
L 487.617848 -245.714471 
L 490.959962 -256.452025 
L 494.302076 -264.684293 
L 497.644189 -240.245834 
L 500.986303 -248.811754 
L 504.328417 -249.436378 
L 507.670531 -230.921417 
L 511.012645 -247.780576 
L 514.354759 -242.534245 
L 517.696873 -239.401669 
L 521.038987 -223.456007 
L 524.381101 -241.493232 
L 527.723215 -238.640051 
L 531.065329 -272.75027 
L 534.407442 -240.019875 
L 537.749556 -249.85131 
L 541.09167 -268.931582 
L 544.433784 -262.888895 
L 547.775898 -287.587046 
L 551.118012 -269.934261 
L 554.460126 -271.065981 
L 557.80224 -254.552018 
L 561.144354 -269.613775 
L 564.486468 -270.493288 
L 567.828582 -256.207585 
L 571.170696 -259.3232 
L 574.512809 -266.952759 
L 577.854923 -282.342314 
L 581.197037 -265.948526 
L 584.539151 -267.934289 
L 587.881265 -271.27457 
L 591.223379 -261.434706 
L 594.565493 -276.055047 
L 597.907607 -280.702584 
L 601.249721 -257.548851 
L 604.591835 -256.881394 
L 607.933949 -271.634132 
L 611.276062 -244.115078 
L 614.618176 -275.043761 
L 617.96029 -268.705306 
L 621.302404 -249.995254 
L 624.644518 -260.187712 
L 627.986632 -278.273328 
L 631.328746 -278.106998 
L 634.67086 -270.01489 
L 638.012974 -268.21422 
L 641.355088 -279.137286 
L 644.697202 -276.758454 
L 648.039315 -259.38 
L 651.381429 -264.222344 
L 654.723543 -274.859475 
L 658.065657 -269.000634 
L 661.407771 -268.638032 
L 664.749885 -254.802379 
L 668.091999 -260.687191 
L 671.434113 -264.392479 
L 674.776227 -253.518817 
L 678.118341 -261.479447 
L 681.460455 -254.642291 
L 681.460455 -304.349378 
L 681.460455 -304.349378 
L 678.118341 -334.197356 
L 674.776227 -311.787506 
L 671.434113 -325.871763 
L 668.091999 -307.325412 
L 664.749885 -305.993477 
L 661.407771 -294.262709 
L 658.065657 -305.326623 
L 654.723543 -298.866387 
L 651.381429 -298.377698 
L 648.039315 -308.331905 
L 644.697202 -306.589738 
L 641.355088 -284.665548 
L 638.012974 -288.973262 
L 634.67086 -302.808878 
L 631.328746 -290.807699 
L 627.986632 -284.026016 
L 624.644518 -287.678137 
L 621.302404 -294.262222 
L 617.96029 -290.887758 
L 614.618176 -296.276519 
L 611.276062 -290.520068 
L 607.933949 -284.651257 
L 604.591835 -278.05445 
L 601.249721 -297.533746 
L 597.907607 -292.121185 
L 594.565493 -304.887562 
L 591.223379 -284.927655 
L 587.881265 -297.640127 
L 584.539151 -300.379012 
L 581.197037 -307.17594 
L 577.854923 -293.488432 
L 574.512809 -300.157751 
L 571.170696 -313.500569 
L 567.828582 -301.88199 
L 564.486468 -297.519315 
L 561.144354 -280.056262 
L 557.80224 -283.390804 
L 554.460126 -301.757787 
L 551.118012 -297.777645 
L 547.775898 -299.068822 
L 544.433784 -297.90696 
L 541.09167 -303.591489 
L 537.749556 -290.196397 
L 534.407442 -297.321551 
L 531.065329 -294.059542 
L 527.723215 -291.183929 
L 524.381101 -299.757265 
L 521.038987 -298.549831 
L 517.696873 -284.107658 
L 514.354759 -260.226932 
L 511.012645 -255.882695 
L 507.670531 -263.720919 
L 504.328417 -264.751316 
L 500.986303 -278.606644 
L 497.644189 -283.263492 
L 494.302076 -282.880859 
L 490.959962 -287.805451 
L 487.617848 -277.794856 
L 484.275734 -282.297334 
L 480.93362 -272.885775 
L 477.591506 -266.36838 
L 474.249392 -273.809981 
L 470.907278 -284.200436 
L 467.565164 -290.012159 
L 464.22305 -294.570756 
L 460.880936 -277.965594 
L 457.538823 -280.562233 
L 454.196709 -286.361909 
L 450.854595 -312.253094 
L 447.512481 -302.989719 
L 444.170367 -299.664051 
L 440.828253 -297.133193 
L 437.486139 -312.104966 
L 434.144025 -309.380514 
L 430.801911 -344.88235 
L 427.459797 -326.439339 
L 424.117683 -320.874385 
L 420.77557 -310.974387 
L 417.433456 -324.952137 
L 414.091342 -316.767165 
L 410.749228 -334.93849 
L 407.407114 -320.398196 
L 404.065 -339.324461 
L 400.722886 -317.285981 
L 397.380772 -319.921228 
L 394.038658 -319.31358 
L 390.696544 -325.794556 
L 387.35443 -308.49324 
L 384.012317 -310.873794 
L 380.670203 -320.189172 
L 377.328089 -314.464207 
L 373.985975 -313.368634 
L 370.643861 -330.481765 
L 367.301747 -323.122067 
L 363.959633 -304.890056 
L 360.617519 -322.671371 
L 357.275405 -333.630837 
L 353.933291 -331.085129 
L 350.591177 -309.716642 
L 347.249064 -300.933733 
L 343.90695 -316.363916 
L 340.564836 -278.993069 
L 337.222722 -304.983494 
L 333.880608 -290.35927 
L 330.538494 -310.471532 
L 327.19638 -321.923746 
L 323.854266 -322.752378 
L 320.512152 -315.725163 
L 317.170038 -313.606158 
L 313.827924 -324.397592 
L 310.485811 -328.423697 
L 307.143697 -333.618985 
L 303.801583 -336.32827 
L 300.459469 -316.574191 
L 297.117355 -310.114274 
L 293.775241 -305.867453 
L 290.433127 -320.982627 
L 287.091013 -295.638831 
L 283.748899 -288.526923 
L 280.406785 -313.356933 
L 277.064671 -318.379976 
L 273.722558 -313.640562 
L 270.380444 -294.568665 
L 267.03833 -311.370248 
L 263.696216 -327.368122 
L 260.354102 -311.381668 
L 257.011988 -316.788146 
L 253.669874 -313.124521 
L 250.32776 -316.873835 
L 246.985646 -308.621574 
L 243.643532 -332.590282 
L 240.301418 -339.478321 
L 236.959304 -349.877388 
L 233.617191 -324.38684 
L 230.275077 -312.516862 
L 226.932963 -327.597824 
L 223.590849 -326.606287 
L 220.248735 -310.153403 
L 216.906621 -302.163718 
L 213.564507 -309.894669 
L 210.222393 -294.319608 
L 206.880279 -304.982809 
L 203.538165 -292.69767 
L 200.196051 -300.54389 
L 196.853938 -311.491545 
L 193.511824 -321.354341 
L 190.16971 -302.937581 
L 186.827596 -279.684109 
L 183.485482 -315.219139 
L 180.143368 -307.971613 
L 176.801254 -317.330333 
L 173.45914 -343.930001 
L 170.117026 -320.594866 
L 166.774912 -322.6041 
L 163.432798 -332.905418 
L 160.090685 -316.561658 
L 156.748571 -338.280489 
L 153.406457 -347.06422 
L 150.064343 -335.564249 
L 146.722229 -335.957542 
L 143.380115 -354.99843 
L 140.038001 -370.136157 
L 136.695887 -398.437355 
L 133.353773 -404.06742 
L 130.011659 -390.750757 
L 126.669545 -405.729091 
z
" style="stroke: #ffa500; stroke-opacity: 0.3"/>
    </defs>
    <g clip-path="url(#p2411ad92e6)">
     <use xlink:href="#m8b237eb122" x="0" y="432" style="fill: #ffa500; fill-opacity: 0.3; stroke: #ffa500; stroke-opacity: 0.3"/>
    </g>
   </g>
   <g id="matplotlib.axis_1">
    <g id="xtick_1">
     <g id="line2d_1">
      <defs>
       <path id="m695f648dc0" d="M 0 0 
L 0 3.5 
" style="stroke: #000000; stroke-width: 0.8"/>
      </defs>
      <g>
       <use xlink:href="#m695f648dc0" x="126.669545" y="351.16" style="stroke: #000000; stroke-width: 0.8"/>
      </g>
     </g>
     <g id="text_1">
      <!-- 0 -->
      <g transform="translate(120.307045 373.356875) scale(0.2 -0.2)">
       <defs>
        <path id="DejaVuSans-30" d="M 2034 4250 
Q 1547 4250 1301 3770 
Q 1056 3291 1056 2328 
Q 1056 1369 1301 889 
Q 1547 409 2034 409 
Q 2525 409 2770 889 
Q 3016 1369 3016 2328 
Q 3016 3291 2770 3770 
Q 2525 4250 2034 4250 
z
M 2034 4750 
Q 2819 4750 3233 4129 
Q 3647 3509 3647 2328 
Q 3647 1150 3233 529 
Q 2819 -91 2034 -91 
Q 1250 -91 836 529 
Q 422 1150 422 2328 
Q 422 3509 836 4129 
Q 1250 4750 2034 4750 
z
" transform="scale(0.015625)"/>
       </defs>
       <use xlink:href="#DejaVuSans-30"/>
      </g>
     </g>
    </g>
    <g id="xtick_2">
     <g id="line2d_2">
      <g>
       <use xlink:href="#m695f648dc0" x="238.073342" y="351.16" style="stroke: #000000; stroke-width: 0.8"/>
      </g>
     </g>
     <g id="text_2">
      <!-- 100 -->
      <g transform="translate(218.985842 373.356875) scale(0.2 -0.2)">
       <defs>
        <path id="DejaVuSans-31" d="M 794 531 
L 1825 531 
L 1825 4091 
L 703 3866 
L 703 4441 
L 1819 4666 
L 2450 4666 
L 2450 531 
L 3481 531 
L 3481 0 
L 794 0 
L 794 531 
z
" transform="scale(0.015625)"/>
       </defs>
       <use xlink:href="#DejaVuSans-31"/>
       <use xlink:href="#DejaVuSans-30" x="63.623047"/>
       <use xlink:href="#DejaVuSans-30" x="127.246094"/>
      </g>
     </g>
    </g>
    <g id="xtick_3">
     <g id="line2d_3">
      <g>
       <use xlink:href="#m695f648dc0" x="349.477139" y="351.16" style="stroke: #000000; stroke-width: 0.8"/>
      </g>
     </g>
     <g id="text_3">
      <!-- 200 -->
      <g transform="translate(330.389639 373.356875) scale(0.2 -0.2)">
       <defs>
        <path id="DejaVuSans-32" d="M 1228 531 
L 3431 531 
L 3431 0 
L 469 0 
L 469 531 
Q 828 903 1448 1529 
Q 2069 2156 2228 2338 
Q 2531 2678 2651 2914 
Q 2772 3150 2772 3378 
Q 2772 3750 2511 3984 
Q 2250 4219 1831 4219 
Q 1534 4219 1204 4116 
Q 875 4013 500 3803 
L 500 4441 
Q 881 4594 1212 4672 
Q 1544 4750 1819 4750 
Q 2544 4750 2975 4387 
Q 3406 4025 3406 3419 
Q 3406 3131 3298 2873 
Q 3191 2616 2906 2266 
Q 2828 2175 2409 1742 
Q 1991 1309 1228 531 
z
" transform="scale(0.015625)"/>
       </defs>
       <use xlink:href="#DejaVuSans-32"/>
       <use xlink:href="#DejaVuSans-30" x="63.623047"/>
       <use xlink:href="#DejaVuSans-30" x="127.246094"/>
      </g>
     </g>
    </g>
    <g id="xtick_4">
     <g id="line2d_4">
      <g>
       <use xlink:href="#m695f648dc0" x="460.880936" y="351.16" style="stroke: #000000; stroke-width: 0.8"/>
      </g>
     </g>
     <g id="text_4">
      <!-- 300 -->
      <g transform="translate(441.793436 373.356875) scale(0.2 -0.2)">
       <defs>
        <path id="DejaVuSans-33" d="M 2597 2516 
Q 3050 2419 3304 2112 
Q 3559 1806 3559 1356 
Q 3559 666 3084 287 
Q 2609 -91 1734 -91 
Q 1441 -91 1130 -33 
Q 819 25 488 141 
L 488 750 
Q 750 597 1062 519 
Q 1375 441 1716 441 
Q 2309 441 2620 675 
Q 2931 909 2931 1356 
Q 2931 1769 2642 2001 
Q 2353 2234 1838 2234 
L 1294 2234 
L 1294 2753 
L 1863 2753 
Q 2328 2753 2575 2939 
Q 2822 3125 2822 3475 
Q 2822 3834 2567 4026 
Q 2313 4219 1838 4219 
Q 1578 4219 1281 4162 
Q 984 4106 628 3988 
L 628 4550 
Q 988 4650 1302 4700 
Q 1616 4750 1894 4750 
Q 2613 4750 3031 4423 
Q 3450 4097 3450 3541 
Q 3450 3153 3228 2886 
Q 3006 2619 2597 2516 
z
" transform="scale(0.015625)"/>
       </defs>
       <use xlink:href="#DejaVuSans-33"/>
       <use xlink:href="#DejaVuSans-30" x="63.623047"/>
       <use xlink:href="#DejaVuSans-30" x="127.246094"/>
      </g>
     </g>
    </g>
    <g id="xtick_5">
     <g id="line2d_5">
      <g>
       <use xlink:href="#m695f648dc0" x="572.284733" y="351.16" style="stroke: #000000; stroke-width: 0.8"/>
      </g>
     </g>
     <g id="text_5">
      <!-- 400 -->
      <g transform="translate(553.197233 373.356875) scale(0.2 -0.2)">
       <defs>
        <path id="DejaVuSans-34" d="M 2419 4116 
L 825 1625 
L 2419 1625 
L 2419 4116 
z
M 2253 4666 
L 3047 4666 
L 3047 1625 
L 3713 1625 
L 3713 1100 
L 3047 1100 
L 3047 0 
L 2419 0 
L 2419 1100 
L 313 1100 
L 313 1709 
L 2253 4666 
z
" transform="scale(0.015625)"/>
       </defs>
       <use xlink:href="#DejaVuSans-34"/>
       <use xlink:href="#DejaVuSans-30" x="63.623047"/>
       <use xlink:href="#DejaVuSans-30" x="127.246094"/>
      </g>
     </g>
    </g>
    <g id="xtick_6">
     <g id="line2d_6">
      <g>
       <use xlink:href="#m695f648dc0" x="683.68853" y="351.16" style="stroke: #000000; stroke-width: 0.8"/>
      </g>
     </g>
     <g id="text_6">
      <!-- 500 -->
      <g transform="translate(664.60103 373.356875) scale(0.2 -0.2)">
       <defs>
        <path id="DejaVuSans-35" d="M 691 4666 
L 3169 4666 
L 3169 4134 
L 1269 4134 
L 1269 2991 
Q 1406 3038 1543 3061 
Q 1681 3084 1819 3084 
Q 2600 3084 3056 2656 
Q 3513 2228 3513 1497 
Q 3513 744 3044 326 
Q 2575 -91 1722 -91 
Q 1428 -91 1123 -41 
Q 819 9 494 109 
L 494 744 
Q 775 591 1075 516 
Q 1375 441 1709 441 
Q 2250 441 2565 725 
Q 2881 1009 2881 1497 
Q 2881 1984 2565 2268 
Q 2250 2553 1709 2553 
Q 1456 2553 1204 2497 
Q 953 2441 691 2322 
L 691 4666 
z
" transform="scale(0.015625)"/>
       </defs>
       <use xlink:href="#DejaVuSans-35"/>
       <use xlink:href="#DejaVuSans-30" x="63.623047"/>
       <use xlink:href="#DejaVuSans-30" x="127.246094"/>
      </g>
     </g>
    </g>
    <g id="text_7">
     <!-- Episode -->
     <g transform="translate(325.515 411.91) scale(0.4 -0.4)">
      <defs>
       <path id="DejaVuSans-45" d="M 628 4666 
L 3578 4666 
L 3578 4134 
L 1259 4134 
L 1259 2753 
L 3481 2753 
L 3481 2222 
L 1259 2222 
L 1259 531 
L 3634 531 
L 3634 0 
L 628 0 
L 628 4666 
z
" transform="scale(0.015625)"/>
       <path id="DejaVuSans-70" d="M 1159 525 
L 1159 -1331 
L 581 -1331 
L 581 3500 
L 1159 3500 
L 1159 2969 
Q 1341 3281 1617 3432 
Q 1894 3584 2278 3584 
Q 2916 3584 3314 3078 
Q 3713 2572 3713 1747 
Q 3713 922 3314 415 
Q 2916 -91 2278 -91 
Q 1894 -91 1617 61 
Q 1341 213 1159 525 
z
M 3116 1747 
Q 3116 2381 2855 2742 
Q 2594 3103 2138 3103 
Q 1681 3103 1420 2742 
Q 1159 2381 1159 1747 
Q 1159 1113 1420 752 
Q 1681 391 2138 391 
Q 2594 391 2855 752 
Q 3116 1113 3116 1747 
z
" transform="scale(0.015625)"/>
       <path id="DejaVuSans-69" d="M 603 3500 
L 1178 3500 
L 1178 0 
L 603 0 
L 603 3500 
z
M 603 4863 
L 1178 4863 
L 1178 4134 
L 603 4134 
L 603 4863 
z
" transform="scale(0.015625)"/>
       <path id="DejaVuSans-73" d="M 2834 3397 
L 2834 2853 
Q 2591 2978 2328 3040 
Q 2066 3103 1784 3103 
Q 1356 3103 1142 2972 
Q 928 2841 928 2578 
Q 928 2378 1081 2264 
Q 1234 2150 1697 2047 
L 1894 2003 
Q 2506 1872 2764 1633 
Q 3022 1394 3022 966 
Q 3022 478 2636 193 
Q 2250 -91 1575 -91 
Q 1294 -91 989 -36 
Q 684 19 347 128 
L 347 722 
Q 666 556 975 473 
Q 1284 391 1588 391 
Q 1994 391 2212 530 
Q 2431 669 2431 922 
Q 2431 1156 2273 1281 
Q 2116 1406 1581 1522 
L 1381 1569 
Q 847 1681 609 1914 
Q 372 2147 372 2553 
Q 372 3047 722 3315 
Q 1072 3584 1716 3584 
Q 2034 3584 2315 3537 
Q 2597 3491 2834 3397 
z
" transform="scale(0.015625)"/>
       <path id="DejaVuSans-6f" d="M 1959 3097 
Q 1497 3097 1228 2736 
Q 959 2375 959 1747 
Q 959 1119 1226 758 
Q 1494 397 1959 397 
Q 2419 397 2687 759 
Q 2956 1122 2956 1747 
Q 2956 2369 2687 2733 
Q 2419 3097 1959 3097 
z
M 1959 3584 
Q 2709 3584 3137 3096 
Q 3566 2609 3566 1747 
Q 3566 888 3137 398 
Q 2709 -91 1959 -91 
Q 1206 -91 779 398 
Q 353 888 353 1747 
Q 353 2609 779 3096 
Q 1206 3584 1959 3584 
z
" transform="scale(0.015625)"/>
       <path id="DejaVuSans-64" d="M 2906 2969 
L 2906 4863 
L 3481 4863 
L 3481 0 
L 2906 0 
L 2906 525 
Q 2725 213 2448 61 
Q 2172 -91 1784 -91 
Q 1150 -91 751 415 
Q 353 922 353 1747 
Q 353 2572 751 3078 
Q 1150 3584 1784 3584 
Q 2172 3584 2448 3432 
Q 2725 3281 2906 2969 
z
M 947 1747 
Q 947 1113 1208 752 
Q 1469 391 1925 391 
Q 2381 391 2643 752 
Q 2906 1113 2906 1747 
Q 2906 2381 2643 2742 
Q 2381 3103 1925 3103 
Q 1469 3103 1208 2742 
Q 947 2381 947 1747 
z
" transform="scale(0.015625)"/>
       <path id="DejaVuSans-65" d="M 3597 1894 
L 3597 1613 
L 953 1613 
Q 991 1019 1311 708 
Q 1631 397 2203 397 
Q 2534 397 2845 478 
Q 3156 559 3463 722 
L 3463 178 
Q 3153 47 2828 -22 
Q 2503 -91 2169 -91 
Q 1331 -91 842 396 
Q 353 884 353 1716 
Q 353 2575 817 3079 
Q 1281 3584 2069 3584 
Q 2775 3584 3186 3129 
Q 3597 2675 3597 1894 
z
M 3022 2063 
Q 3016 2534 2758 2815 
Q 2500 3097 2075 3097 
Q 1594 3097 1305 2825 
Q 1016 2553 972 2059 
L 3022 2063 
z
" transform="scale(0.015625)"/>
      </defs>
      <use xlink:href="#DejaVuSans-45"/>
      <use xlink:href="#DejaVuSans-70" x="63.183594"/>
      <use xlink:href="#DejaVuSans-69" x="126.660156"/>
      <use xlink:href="#DejaVuSans-73" x="154.443359"/>
      <use xlink:href="#DejaVuSans-6f" x="206.542969"/>
      <use xlink:href="#DejaVuSans-64" x="267.724609"/>
      <use xlink:href="#DejaVuSans-65" x="331.201172"/>
     </g>
    </g>
   </g>
   <g id="matplotlib.axis_2">
    <g id="ytick_1">
     <g id="line2d_7">
      <defs>
       <path id="mb91e9591f8" d="M 0 0 
L -3.5 0 
" style="stroke: #000000; stroke-width: 0.8"/>
      </defs>
      <g>
       <use xlink:href="#mb91e9591f8" x="98.93" y="309.618775" style="stroke: #000000; stroke-width: 0.8"/>
      </g>
     </g>
     <g id="text_8">
      <!-- 40 -->
      <g transform="translate(66.48 317.217212) scale(0.2 -0.2)">
       <use xlink:href="#DejaVuSans-34"/>
       <use xlink:href="#DejaVuSans-30" x="63.623047"/>
      </g>
     </g>
    </g>
    <g id="ytick_2">
     <g id="line2d_8">
      <g>
       <use xlink:href="#mb91e9591f8" x="98.93" y="255.493168" style="stroke: #000000; stroke-width: 0.8"/>
      </g>
     </g>
     <g id="text_9">
      <!-- 60 -->
      <g transform="translate(66.48 263.091605) scale(0.2 -0.2)">
       <defs>
        <path id="DejaVuSans-36" d="M 2113 2584 
Q 1688 2584 1439 2293 
Q 1191 2003 1191 1497 
Q 1191 994 1439 701 
Q 1688 409 2113 409 
Q 2538 409 2786 701 
Q 3034 994 3034 1497 
Q 3034 2003 2786 2293 
Q 2538 2584 2113 2584 
z
M 3366 4563 
L 3366 3988 
Q 3128 4100 2886 4159 
Q 2644 4219 2406 4219 
Q 1781 4219 1451 3797 
Q 1122 3375 1075 2522 
Q 1259 2794 1537 2939 
Q 1816 3084 2150 3084 
Q 2853 3084 3261 2657 
Q 3669 2231 3669 1497 
Q 3669 778 3244 343 
Q 2819 -91 2113 -91 
Q 1303 -91 875 529 
Q 447 1150 447 2328 
Q 447 3434 972 4092 
Q 1497 4750 2381 4750 
Q 2619 4750 2861 4703 
Q 3103 4656 3366 4563 
z
" transform="scale(0.015625)"/>
       </defs>
       <use xlink:href="#DejaVuSans-36"/>
       <use xlink:href="#DejaVuSans-30" x="63.623047"/>
      </g>
     </g>
    </g>
    <g id="ytick_3">
     <g id="line2d_9">
      <g>
       <use xlink:href="#mb91e9591f8" x="98.93" y="201.367561" style="stroke: #000000; stroke-width: 0.8"/>
      </g>
     </g>
     <g id="text_10">
      <!-- 80 -->
      <g transform="translate(66.48 208.965998) scale(0.2 -0.2)">
       <defs>
        <path id="DejaVuSans-38" d="M 2034 2216 
Q 1584 2216 1326 1975 
Q 1069 1734 1069 1313 
Q 1069 891 1326 650 
Q 1584 409 2034 409 
Q 2484 409 2743 651 
Q 3003 894 3003 1313 
Q 3003 1734 2745 1975 
Q 2488 2216 2034 2216 
z
M 1403 2484 
Q 997 2584 770 2862 
Q 544 3141 544 3541 
Q 544 4100 942 4425 
Q 1341 4750 2034 4750 
Q 2731 4750 3128 4425 
Q 3525 4100 3525 3541 
Q 3525 3141 3298 2862 
Q 3072 2584 2669 2484 
Q 3125 2378 3379 2068 
Q 3634 1759 3634 1313 
Q 3634 634 3220 271 
Q 2806 -91 2034 -91 
Q 1263 -91 848 271 
Q 434 634 434 1313 
Q 434 1759 690 2068 
Q 947 2378 1403 2484 
z
M 1172 3481 
Q 1172 3119 1398 2916 
Q 1625 2713 2034 2713 
Q 2441 2713 2670 2916 
Q 2900 3119 2900 3481 
Q 2900 3844 2670 4047 
Q 2441 4250 2034 4250 
Q 1625 4250 1398 4047 
Q 1172 3844 1172 3481 
z
" transform="scale(0.015625)"/>
       </defs>
       <use xlink:href="#DejaVuSans-38"/>
       <use xlink:href="#DejaVuSans-30" x="63.623047"/>
      </g>
     </g>
    </g>
    <g id="ytick_4">
     <g id="line2d_10">
      <g>
       <use xlink:href="#mb91e9591f8" x="98.93" y="147.241954" style="stroke: #000000; stroke-width: 0.8"/>
      </g>
     </g>
     <g id="text_11">
      <!-- 100 -->
      <g transform="translate(53.755 154.840391) scale(0.2 -0.2)">
       <use xlink:href="#DejaVuSans-31"/>
       <use xlink:href="#DejaVuSans-30" x="63.623047"/>
       <use xlink:href="#DejaVuSans-30" x="127.246094"/>
      </g>
     </g>
    </g>
    <g id="ytick_5">
     <g id="line2d_11">
      <g>
       <use xlink:href="#mb91e9591f8" x="98.93" y="93.116347" style="stroke: #000000; stroke-width: 0.8"/>
      </g>
     </g>
     <g id="text_12">
      <!-- 120 -->
      <g transform="translate(53.755 100.714784) scale(0.2 -0.2)">
       <use xlink:href="#DejaVuSans-31"/>
       <use xlink:href="#DejaVuSans-32" x="63.623047"/>
       <use xlink:href="#DejaVuSans-30" x="127.246094"/>
      </g>
     </g>
    </g>
    <g id="ytick_6">
     <g id="line2d_12">
      <g>
       <use xlink:href="#mb91e9591f8" x="98.93" y="38.99074" style="stroke: #000000; stroke-width: 0.8"/>
      </g>
     </g>
     <g id="text_13">
      <!-- 140 -->
      <g transform="translate(53.755 46.589177) scale(0.2 -0.2)">
       <use xlink:href="#DejaVuSans-31"/>
       <use xlink:href="#DejaVuSans-34" x="63.623047"/>
       <use xlink:href="#DejaVuSans-30" x="127.246094"/>
      </g>
     </g>
    </g>
    <g id="text_14">
     <!-- $m_{do}$ -->
     <g transform="translate(41.43625 218.58) rotate(-90) scale(0.4 -0.4)">
      <defs>
       <path id="DejaVuSans-Oblique-6d" d="M 5747 2113 
L 5338 0 
L 4763 0 
L 5166 2094 
Q 5191 2228 5203 2325 
Q 5216 2422 5216 2491 
Q 5216 2772 5059 2928 
Q 4903 3084 4622 3084 
Q 4203 3084 3875 2770 
Q 3547 2456 3450 1953 
L 3066 0 
L 2491 0 
L 2900 2094 
Q 2925 2209 2937 2307 
Q 2950 2406 2950 2484 
Q 2950 2769 2794 2926 
Q 2638 3084 2363 3084 
Q 1938 3084 1609 2770 
Q 1281 2456 1184 1953 
L 800 0 
L 225 0 
L 909 3500 
L 1484 3500 
L 1375 2956 
Q 1609 3263 1923 3423 
Q 2238 3584 2597 3584 
Q 2978 3584 3223 3384 
Q 3469 3184 3519 2828 
Q 3781 3197 4126 3390 
Q 4472 3584 4856 3584 
Q 5306 3584 5551 3325 
Q 5797 3066 5797 2591 
Q 5797 2488 5784 2364 
Q 5772 2241 5747 2113 
z
" transform="scale(0.015625)"/>
       <path id="DejaVuSans-Oblique-64" d="M 2675 525 
Q 2444 222 2128 65 
Q 1813 -91 1428 -91 
Q 903 -91 598 267 
Q 294 625 294 1247 
Q 294 1766 478 2236 
Q 663 2706 1013 3078 
Q 1244 3325 1534 3454 
Q 1825 3584 2144 3584 
Q 2481 3584 2739 3421 
Q 2997 3259 3138 2956 
L 3513 4863 
L 4091 4863 
L 3144 0 
L 2566 0 
L 2675 525 
z
M 891 1350 
Q 891 897 1095 644 
Q 1300 391 1663 391 
Q 1931 391 2161 520 
Q 2391 650 2566 903 
Q 2750 1166 2856 1509 
Q 2963 1853 2963 2188 
Q 2963 2622 2758 2865 
Q 2553 3109 2194 3109 
Q 1922 3109 1687 2981 
Q 1453 2853 1288 2613 
Q 1106 2353 998 2009 
Q 891 1666 891 1350 
z
" transform="scale(0.015625)"/>
       <path id="DejaVuSans-Oblique-6f" d="M 1625 -91 
Q 1009 -91 651 289 
Q 294 669 294 1325 
Q 294 1706 417 2101 
Q 541 2497 738 2766 
Q 1047 3184 1428 3384 
Q 1809 3584 2291 3584 
Q 2888 3584 3255 3212 
Q 3622 2841 3622 2241 
Q 3622 1825 3500 1412 
Q 3378 1000 3181 728 
Q 2875 309 2494 109 
Q 2113 -91 1625 -91 
z
M 891 1344 
Q 891 869 1089 633 
Q 1288 397 1691 397 
Q 2269 397 2648 901 
Q 3028 1406 3028 2181 
Q 3028 2634 2825 2865 
Q 2622 3097 2228 3097 
Q 1903 3097 1650 2945 
Q 1397 2794 1197 2484 
Q 1050 2253 970 1956 
Q 891 1659 891 1344 
z
" transform="scale(0.015625)"/>
      </defs>
      <use xlink:href="#DejaVuSans-Oblique-6d"/>
      <use xlink:href="#DejaVuSans-Oblique-64" transform="translate(97.412109 -16.40625) scale(0.7)"/>
      <use xlink:href="#DejaVuSans-Oblique-6f" transform="translate(141.845703 -16.40625) scale(0.7)"/>
     </g>
    </g>
   </g>
   <g id="line2d_13">
    <path d="M 126.669545 191.594882 
L 133.353773 233.391878 
L 136.695887 257.748401 
L 140.038001 249.62956 
L 143.380115 250.080607 
L 146.722229 256.094563 
L 150.064343 259.25189 
L 153.406457 256.846308 
L 156.748571 265.265847 
L 160.090685 275.489572 
L 163.432798 269.926663 
L 166.774912 261.206426 
L 170.117026 256.846308 
L 173.45914 270.227361 
L 176.801254 276.090968 
L 180.143368 275.038526 
L 183.485482 287.968532 
L 186.827596 284.510507 
L 190.16971 289.62237 
L 193.511824 298.643304 
L 196.853938 294.583884 
L 200.196051 301.349585 
L 203.538165 289.923068 
L 206.880279 295.335628 
L 210.222393 293.832139 
L 213.564507 311.422961 
L 216.906621 309.318077 
L 220.248735 309.618775 
L 223.590849 307.213192 
L 226.932963 298.944002 
L 230.275077 316.234127 
L 233.617191 303.003423 
L 236.959304 296.388071 
L 240.301418 301.650282 
L 243.643532 294.884582 
L 246.985646 295.335628 
L 250.32776 287.968532 
L 253.669874 292.930046 
L 257.011988 291.727254 
L 260.354102 285.4126 
L 263.696216 302.101329 
L 267.03833 298.041909 
L 270.380444 300.748189 
L 273.722558 312.776102 
L 277.064671 301.95098 
L 280.406785 304.506912 
L 283.748899 302.402027 
L 287.091013 295.937024 
L 290.433127 305.258656 
L 293.775241 307.062843 
L 297.117355 305.258656 
L 300.459469 316.083778 
L 303.801583 298.643304 
L 307.143697 294.734233 
L 310.485811 293.080395 
L 313.827924 288.870625 
L 317.170038 276.090968 
L 320.512152 287.066438 
L 323.854266 285.262251 
L 327.19638 296.388071 
L 330.538494 285.562949 
L 333.880608 288.419579 
L 337.222722 275.188875 
L 340.564836 281.804227 
L 343.90695 269.926663 
L 347.249064 292.027952 
L 350.591177 290.674812 
L 353.933291 281.954575 
L 357.275405 265.716893 
L 360.617519 284.05946 
L 363.959633 278.195853 
L 367.301747 276.993061 
L 370.643861 248.126071 
L 373.985975 251.884794 
L 377.328089 271.881199 
L 380.670203 256.54561 
L 384.012317 280.150389 
L 387.35443 278.346202 
L 390.696544 269.174918 
L 394.038658 263.762358 
L 397.380772 261.056077 
L 400.722886 272.632943 
L 404.065 260.304333 
L 407.407114 284.660856 
L 410.749228 292.629348 
L 414.091342 287.818183 
L 417.433456 306.010401 
L 420.77557 288.870625 
L 424.117683 290.374114 
L 427.459797 298.793653 
L 430.801911 300.898538 
L 434.144025 287.818183 
L 437.486139 288.569927 
L 440.828253 280.150389 
L 444.170367 280.751784 
L 447.512481 298.342606 
L 450.854595 288.569927 
L 454.196709 284.811205 
L 457.538823 284.05946 
L 460.880936 303.604818 
L 464.22305 288.419579 
L 467.565164 291.877603 
L 470.907278 301.800631 
L 474.249392 298.192258 
L 477.591506 284.510507 
L 480.93362 285.562949 
L 484.275734 290.374114 
L 487.617848 289.772719 
L 490.959962 301.199236 
L 494.302076 284.360158 
L 497.644189 285.111903 
L 500.986303 286.013996 
L 504.328417 282.405622 
L 507.670531 285.4126 
L 511.012645 287.818183 
L 514.354759 289.020974 
L 517.696873 300.748189 
L 521.038987 291.877603 
L 524.381101 296.087373 
L 527.723215 288.26923 
L 531.065329 305.860052 
L 534.407442 297.89156 
L 537.749556 292.178301 
L 541.09167 280.601435 
L 544.433784 284.209809 
L 547.775898 292.930046 
L 551.118012 286.465043 
L 554.460126 281.503529 
L 557.80224 288.118881 
L 561.144354 288.118881 
L 564.486468 292.027952 
L 567.828582 280.601435 
L 571.170696 289.020974 
L 574.512809 295.185279 
L 577.854923 282.856669 
L 581.197037 299.846096 
L 584.539151 305.559354 
L 587.881265 295.335628 
L 591.223379 309.919472 
L 594.565493 299.695747 
L 597.907607 295.335628 
L 601.249721 293.68179 
L 604.591835 287.367136 
L 607.933949 306.311099 
L 611.276062 296.53842 
L 614.618176 296.989466 
L 617.96029 300.59784 
L 621.302404 299.846096 
L 624.644518 311.57331 
L 627.986632 292.930046 
L 631.328746 307.213192 
L 634.67086 316.234127 
L 638.012974 313.227148 
L 641.355088 307.814588 
L 644.697202 307.964937 
L 648.039315 301.499934 
L 651.381429 310.821566 
L 654.723543 305.559354 
L 658.065657 313.978893 
L 661.407771 308.86703 
L 664.749885 314.730637 
L 668.091999 311.723659 
L 674.776227 305.258656 
L 678.118341 311.422961 
L 681.460455 310.821566 
L 681.460455 310.821566 
" clip-path="url(#p2411ad92e6)" style="fill: none; stroke: #0000ff; stroke-width: 3; stroke-linecap: square"/>
   </g>
   <g id="line2d_14">
    <path d="M 126.669545 205.426981 
L 130.011659 210.989891 
L 133.353773 227.979317 
L 136.695887 234.143623 
L 140.038001 246.321884 
L 143.380115 250.531654 
L 146.722229 245.720489 
L 150.064343 261.206426 
L 153.406457 245.720489 
L 156.748571 246.92328 
L 160.090685 239.105137 
L 163.432798 243.314906 
L 166.774912 253.388283 
L 170.117026 252.636538 
L 173.45914 241.510719 
L 176.801254 249.779909 
L 180.143368 253.388283 
L 183.485482 249.62956 
L 186.827596 247.073629 
L 190.16971 262.409217 
L 193.511824 272.181896 
L 196.853938 255.042121 
L 200.196051 270.077012 
L 203.538165 263.311311 
L 206.880279 257.147006 
L 210.222393 260.905728 
L 213.564507 255.19247 
L 220.248735 261.958171 
L 223.590849 254.140027 
L 226.932963 266.618987 
L 230.275077 260.153984 
L 233.617191 258.650495 
L 236.959304 271.279803 
L 240.301418 270.077012 
L 243.643532 264.213404 
L 246.985646 253.989679 
L 250.32776 250.682003 
L 253.669874 249.62956 
L 257.011988 254.140027 
L 260.354102 236.248507 
L 263.696216 233.842925 
L 267.03833 238.052694 
L 270.380444 225.423386 
L 273.722558 218.958383 
L 277.064671 249.62956 
L 280.406785 229.933853 
L 283.748899 213.395473 
L 287.091013 207.231168 
L 290.433127 229.182109 
L 293.775241 256.395261 
L 297.117355 254.290376 
L 300.459469 241.059672 
L 303.801583 236.549205 
L 307.143697 239.556183 
L 310.485811 229.933853 
L 313.827924 240.458277 
L 317.170038 255.042121 
L 320.512152 255.793865 
L 323.854266 245.419791 
L 327.19638 248.727467 
L 330.538494 251.283398 
L 333.880608 251.133049 
L 337.222722 242.412813 
L 340.564836 256.244912 
L 343.90695 239.556183 
L 347.249064 220.461872 
L 350.591177 230.3849 
L 353.933291 238.954788 
L 357.275405 212.794078 
L 360.617519 208.734657 
L 363.959633 203.773143 
L 367.301747 213.996869 
L 370.643861 235.045716 
L 373.985975 228.881411 
L 377.328089 244.517697 
L 380.670203 238.954788 
L 384.012317 220.461872 
L 387.35443 232.640134 
L 390.696544 234.143623 
L 394.038658 238.804439 
L 397.380772 234.745018 
L 400.722886 243.615604 
L 404.065 243.916302 
L 407.407114 233.241529 
L 410.749228 228.580713 
L 414.091342 203.622794 
L 417.433456 191.444533 
L 420.77557 189.339648 
L 424.117683 196.255698 
L 427.459797 190.241742 
L 430.801911 177.913131 
L 434.144025 169.643941 
L 437.486139 160.472658 
L 440.828253 169.493592 
L 444.170367 181.220807 
L 447.512481 167.839754 
L 450.854595 195.955 
L 454.196709 168.44115 
L 457.538823 185.731274 
L 460.880936 179.717318 
L 464.22305 164.682427 
L 467.565164 166.336265 
L 470.907278 183.62639 
L 474.249392 184.97953 
L 477.591506 192.797673 
L 480.93362 178.965573 
L 484.275734 181.822203 
L 487.617848 204.524888 
L 490.959962 216.101754 
L 494.302076 210.839542 
L 497.644189 222.717106 
L 500.986303 225.874433 
L 504.328417 225.874433 
L 507.670531 211.440938 
L 511.012645 208.734657 
L 514.354759 216.853498 
L 517.696873 223.318501 
L 521.038987 221.664663 
L 524.381101 222.266059 
L 527.723215 226.325479 
L 531.065329 233.09118 
L 534.407442 223.919897 
L 537.749556 190.692788 
L 541.09167 199.262676 
L 544.433784 206.93047 
L 547.775898 199.864072 
L 551.118012 194.902558 
L 554.460126 200.615816 
L 557.80224 206.780121 
L 561.144354 198.961978 
L 564.486468 188.888601 
L 567.828582 210.087797 
L 571.170696 212.944427 
L 574.512809 207.531866 
L 577.854923 210.238146 
L 581.197037 222.867455 
L 584.539151 214.748614 
L 587.881265 198.66128 
L 591.223379 176.71034 
L 594.565493 192.346626 
L 597.907607 203.322097 
L 601.249721 209.035355 
L 604.591835 217.605243 
L 607.933949 220.76257 
L 611.276062 226.926875 
L 614.618176 204.374539 
L 617.96029 208.433959 
L 621.302404 190.542439 
L 624.644518 204.975935 
L 627.986632 197.909536 
L 631.328746 215.500358 
L 634.67086 208.584308 
L 638.012974 205.57733 
L 641.355088 211.14024 
L 644.697202 221.514314 
L 648.039315 203.923492 
L 651.381429 210.087797 
L 654.723543 194.451511 
L 658.065657 208.734657 
L 661.407771 211.741635 
L 664.749885 196.706745 
L 668.091999 202.119305 
L 671.434113 201.217212 
L 674.776227 210.989891 
L 678.118341 193.399069 
L 681.460455 182.724296 
L 681.460455 182.724296 
" clip-path="url(#p2411ad92e6)" style="fill: none; stroke: #008000; stroke-width: 3; stroke-linecap: square"/>
   </g>
   <g id="line2d_15">
    <path d="M 126.669545 39.892833 
L 130.011659 29.969805 
L 133.353773 53.424235 
L 136.695887 62.896216 
L 140.038001 50.266908 
L 143.380115 65.903194 
L 146.722229 82.140877 
L 150.064343 76.427618 
L 153.406457 77.630409 
L 156.748571 73.721338 
L 160.090685 88.756229 
L 163.432798 69.962615 
L 166.774912 89.207275 
L 170.117026 97.025418 
L 173.45914 97.175767 
L 176.801254 85.74925 
L 180.143368 89.357624 
L 183.485482 106.196702 
L 186.827596 111.308565 
L 190.16971 123.637175 
L 193.511824 116.721125 
L 196.853938 103.490422 
L 200.196051 120.630197 
L 203.538165 127.997294 
L 206.880279 149.346839 
L 210.222393 137.469275 
L 213.564507 123.336477 
L 216.906621 120.028801 
L 220.248735 120.329499 
L 223.590849 139.574159 
L 226.932963 162.427194 
L 230.275077 150.098583 
L 233.617191 154.909748 
L 236.959304 144.385325 
L 240.301418 170.997081 
L 243.643532 152.804863 
L 246.985646 161.825798 
L 250.32776 161.675449 
L 253.669874 185.430576 
L 260.354102 160.17196 
L 263.696216 157.616028 
L 267.03833 152.353817 
L 270.380444 149.647536 
L 277.064671 186.633368 
L 280.406785 169.493592 
L 283.748899 188.587904 
L 287.091013 183.175343 
L 290.433127 191.143835 
L 293.775241 200.014421 
L 297.117355 198.811629 
L 300.459469 211.290589 
L 303.801583 218.657685 
L 307.143697 212.944427 
L 310.485811 194.60186 
L 313.827924 208.584308 
L 317.170038 193.549417 
L 320.512152 192.196277 
L 323.854266 198.811629 
L 327.19638 205.126283 
L 330.538494 196.105349 
L 333.880608 211.290589 
L 337.222722 220.311523 
L 340.564836 206.629772 
L 343.90695 211.440938 
L 347.249064 203.622794 
L 350.591177 206.329075 
L 353.933291 204.22419 
L 357.275405 204.975935 
L 360.617519 205.878028 
L 363.959633 204.374539 
L 367.301747 215.19966 
L 370.643861 227.67862 
L 373.985975 210.839542 
L 377.328089 221.514314 
L 380.670203 218.808034 
L 384.012317 220.612221 
L 387.35443 212.343031 
L 390.696544 221.815012 
L 394.038658 230.685598 
L 397.380772 225.573735 
L 400.722886 237.000252 
L 404.065 236.098158 
L 407.407114 239.856881 
L 410.749228 232.489785 
L 414.091342 243.314906 
L 417.433456 249.479211 
L 420.77557 256.094563 
L 424.117683 246.021186 
L 427.459797 254.741423 
L 430.801911 246.92328 
L 434.144025 234.895367 
L 437.486139 247.975722 
L 440.828253 264.514102 
L 444.170367 260.304333 
L 447.512481 273.835734 
L 450.854595 271.129454 
L 454.196709 272.482594 
L 457.538823 265.566544 
L 460.880936 266.318289 
L 464.22305 275.940619 
L 467.565164 283.007018 
L 470.907278 274.286781 
L 474.249392 267.070034 
L 477.591506 281.202831 
L 480.93362 272.783292 
L 484.275734 284.660856 
L 487.617848 273.835734 
L 490.959962 273.384688 
L 494.302076 281.954575 
L 497.644189 277.744806 
L 500.986303 275.639921 
L 504.328417 283.307716 
L 507.670531 277.14341 
L 511.012645 270.678407 
L 514.354759 291.727254 
L 517.696873 286.465043 
L 521.038987 295.636326 
L 524.381101 299.094351 
L 527.723215 292.930046 
L 531.065329 295.937024 
L 534.407442 296.087373 
L 537.749556 313.978893 
L 544.433784 311.272613 
L 547.775898 300.59784 
L 551.118012 298.793653 
L 554.460126 312.325055 
L 557.80224 303.003423 
L 561.144354 301.650282 
L 564.486468 294.884582 
L 567.828582 298.643304 
L 571.170696 301.95098 
L 574.512809 303.905516 
L 577.854923 297.89156 
L 581.197037 299.695747 
L 584.539151 307.213192 
L 587.881265 305.559354 
L 591.223379 297.590862 
L 594.565493 302.101329 
L 597.907607 298.041909 
L 601.249721 297.741211 
L 604.591835 303.755167 
L 607.933949 285.562949 
L 611.276062 310.22017 
L 614.618176 307.664239 
L 617.96029 303.153772 
L 621.302404 296.388071 
L 624.644518 304.356563 
L 627.986632 304.657261 
L 631.328746 309.017379 
L 634.67086 294.734233 
L 638.012974 291.576906 
L 641.355088 279.097946 
L 644.697202 283.758762 
L 648.039315 279.849691 
L 651.381429 272.482594 
L 654.723543 294.132837 
L 658.065657 284.209809 
L 661.407771 269.776314 
L 664.749885 273.535037 
L 668.091999 283.007018 
L 671.434113 294.132837 
L 674.776227 285.262251 
L 678.118341 295.636326 
L 681.460455 281.653878 
L 681.460455 281.653878 
" clip-path="url(#p2411ad92e6)" style="fill: none; stroke: #ff0000; stroke-width: 3; stroke-linecap: square"/>
   </g>
   <g id="line2d_16">
    <path d="M 126.669545 34.931319 
L 130.011659 51.620048 
L 133.353773 39.592136 
L 136.695887 60.490634 
L 140.038001 70.864708 
L 143.380115 92.6653 
L 146.722229 103.490422 
L 150.064343 112.812054 
L 153.406457 113.714147 
L 156.748571 119.277057 
L 160.090685 124.238571 
L 163.432798 114.616241 
L 166.774912 117.47287 
L 170.117026 132.65811 
L 173.45914 122.885431 
L 176.801254 133.259505 
L 180.143368 152.203468 
L 183.485482 145.888814 
L 186.827596 166.937661 
L 190.16971 154.007655 
L 193.511824 150.54963 
L 196.853938 158.81882 
L 200.196051 160.021611 
L 203.538165 169.042545 
L 206.880279 149.948234 
L 210.222393 165.734869 
L 213.564507 154.007655 
L 216.906621 143.783929 
L 220.248735 137.619624 
L 223.590849 131.004272 
L 226.932963 131.30497 
L 230.275077 134.462297 
L 233.617191 124.539269 
L 236.959304 119.878453 
L 240.301418 131.154621 
L 243.643532 125.441362 
L 246.985646 141.679044 
L 250.32776 131.605667 
L 253.669874 146.039163 
L 257.011988 140.626602 
L 260.354102 137.769973 
L 263.696216 127.696596 
L 267.03833 146.039163 
L 270.380444 151.451723 
L 273.722558 136.567181 
L 277.064671 139.724508 
L 280.406785 151.602072 
L 283.748899 154.60905 
L 287.091013 150.399281 
L 290.433127 137.168577 
L 293.775241 143.332882 
L 297.117355 133.860901 
L 300.459469 143.934278 
L 303.801583 136.867879 
L 307.143697 144.385325 
L 310.485811 139.724508 
L 313.827924 143.483231 
L 317.170038 153.706957 
L 320.512152 140.025206 
L 323.854266 151.151025 
L 327.19638 143.783929 
L 330.538494 148.144047 
L 333.880608 148.444745 
L 337.222722 151.90277 
L 340.564836 170.245337 
L 343.90695 156.563586 
L 347.249064 168.591499 
L 350.591177 155.661493 
L 353.933291 138.371368 
L 357.275405 144.084627 
L 360.617519 152.504166 
L 363.959633 157.766377 
L 367.301747 144.084627 
L 370.643861 141.227997 
L 373.985975 158.969169 
L 377.328089 144.98672 
L 380.670203 143.783929 
L 384.012317 145.738465 
L 387.35443 148.444745 
L 390.696544 144.98672 
L 394.038658 133.710552 
L 397.380772 137.168577 
L 400.722886 141.829393 
L 404.065 131.30497 
L 407.407114 131.30497 
L 410.749228 123.03578 
L 414.091342 143.483231 
L 417.433456 128.598689 
L 420.77557 141.979742 
L 424.117683 135.063692 
L 427.459797 134.612646 
L 430.801911 127.846945 
L 434.144025 148.294396 
L 437.486139 149.19649 
L 440.828253 149.948234 
L 444.170367 147.091605 
L 447.512481 146.790907 
L 450.854595 138.972764 
L 454.196709 163.479636 
L 457.538823 172.50057 
L 460.880936 158.668471 
L 464.22305 162.577542 
L 467.565164 151.752421 
L 470.907278 162.276845 
L 474.249392 167.689405 
L 477.591506 175.206851 
L 480.93362 169.79429 
L 484.275734 157.46568 
L 487.617848 170.245337 
L 490.959962 159.871262 
L 494.302076 158.217424 
L 497.644189 170.245337 
L 500.986303 168.290801 
L 504.328417 174.906153 
L 507.670531 184.678832 
L 511.012645 180.168365 
L 514.354759 180.619411 
L 517.696873 170.245337 
L 521.038987 170.997081 
L 524.381101 161.374751 
L 527.723215 167.08801 
L 531.065329 148.595094 
L 534.407442 163.329287 
L 537.749556 161.976147 
L 541.09167 145.738465 
L 544.433784 151.602072 
L 547.775898 138.672066 
L 551.118012 148.144047 
L 554.460126 145.588116 
L 557.80224 163.028589 
L 561.144354 157.164982 
L 564.486468 147.993698 
L 567.828582 152.955212 
L 571.170696 145.588116 
L 574.512809 148.444745 
L 577.854923 144.084627 
L 581.197037 145.437767 
L 584.539151 147.843349 
L 587.881265 147.542652 
L 591.223379 158.81882 
L 594.565493 141.528695 
L 597.907607 145.588116 
L 601.249721 154.458701 
L 604.591835 164.532078 
L 607.933949 153.857306 
L 611.276062 164.682427 
L 614.618176 146.33986 
L 617.96029 152.203468 
L 621.302404 159.871262 
L 624.644518 158.067075 
L 627.986632 150.850328 
L 631.328746 147.542652 
L 634.67086 145.588116 
L 638.012974 153.406259 
L 641.355088 150.098583 
L 644.697202 140.325904 
L 648.039315 148.144047 
L 651.381429 150.699979 
L 654.723543 145.137069 
L 658.065657 144.836371 
L 661.407771 150.54963 
L 664.749885 151.602072 
L 668.091999 147.993698 
L 671.434113 136.867879 
L 674.776227 149.346839 
L 678.118341 134.161599 
L 681.460455 152.504166 
L 681.460455 152.504166 
" clip-path="url(#p2411ad92e6)" style="fill: none; stroke: #ffa500; stroke-width: 3; stroke-linecap: square"/>
   </g>
   <g id="patch_3">
    <path d="M 98.93 351.16 
L 98.93 10.8 
" style="fill: none; stroke: #000000; stroke-width: 0.8; stroke-linejoin: miter; stroke-linecap: square"/>
   </g>
   <g id="patch_4">
    <path d="M 709.2 351.16 
L 709.2 10.8 
" style="fill: none; stroke: #000000; stroke-width: 0.8; stroke-linejoin: miter; stroke-linecap: square"/>
   </g>
   <g id="patch_5">
    <path d="M 98.93 351.16 
L 709.2 351.16 
" style="fill: none; stroke: #000000; stroke-width: 0.8; stroke-linejoin: miter; stroke-linecap: square"/>
   </g>
   <g id="patch_6">
    <path d="M 98.93 10.8 
L 709.2 10.8 
" style="fill: none; stroke: #000000; stroke-width: 0.8; stroke-linejoin: miter; stroke-linecap: square"/>
   </g>
  </g>
 </g>
 <defs>
  <clipPath id="p2411ad92e6">
   <rect x="98.93" y="10.8" width="610.27" height="340.36"/>
  </clipPath>
 </defs>
</svg>
