<?xml version="1.0" encoding="utf-8" standalone="no"?>
<!DOCTYPE svg PUBLIC "-//W3C//DTD SVG 1.1//EN"
  "http://www.w3.org/Graphics/SVG/1.1/DTD/svg11.dtd">
<svg xmlns:xlink="http://www.w3.org/1999/xlink" width="720pt" height="432pt" viewBox="0 0 720 432" xmlns="http://www.w3.org/2000/svg" version="1.1">
 <metadata>
  <rdf:RDF xmlns:dc="http://purl.org/dc/elements/1.1/" xmlns:cc="http://creativecommons.org/ns#" xmlns:rdf="http://www.w3.org/1999/02/22-rdf-syntax-ns#">
   <cc:Work>
    <dc:type rdf:resource="http://purl.org/dc/dcmitype/StillImage"/>
    <dc:date>2025-06-19T21:22:10.780517</dc:date>
    <dc:format>image/svg+xml</dc:format>
    <dc:creator>
     <cc:Agent>
      <dc:title>Matplotlib v3.7.1, https://matplotlib.org/</dc:title>
     </cc:Agent>
    </dc:creator>
   </cc:Work>
  </rdf:RDF>
 </metadata>
 <defs>
  <style type="text/css">*{stroke-linejoin: round; stroke-linecap: butt}</style>
 </defs>
 <g id="figure_1">
  <g id="patch_1">
   <path d="M 0 432 
L 720 432 
L 720 0 
L 0 0 
z
" style="fill: #ffffff"/>
  </g>
  <g id="axes_1">
   <g id="patch_2">
    <path d="M 132.05 343.96 
L 709.2 343.96 
L 709.2 10.8 
L 132.05 10.8 
z
" style="fill: #ffffff"/>
   </g>
   <g id="PolyCollection_1">
    <defs>
     <path id="mec61bd9093" d="M 158.284091 -344.660763 
L 158.284091 -333.087743 
L 161.78197 -337.919446 
L 165.279848 -341.798521 
L 168.777727 -347.529983 
L 172.275606 -334.372105 
L 175.773485 -338.526377 
L 179.271364 -315.116546 
L 182.769242 -332.310361 
L 186.267121 -329.174808 
L 189.765 -327.947872 
L 193.262879 -327.460763 
L 196.760758 -334.237841 
L 200.258636 -319.396497 
L 203.756515 -337.734699 
L 207.254394 -326.504459 
L 210.752273 -316.8662 
L 214.250152 -315.832549 
L 217.74803 -318.750433 
L 221.245909 -279.101221 
L 224.743788 -274.80677 
L 228.241667 -231.921709 
L 231.739545 -254.736402 
L 235.237424 -222.918525 
L 238.735303 -195.148611 
L 242.233182 -195.537848 
L 245.731061 -189.202394 
L 249.228939 -144.081827 
L 252.726818 -154.911617 
L 256.224697 -130.762561 
L 259.722576 -131.829442 
L 263.220455 -137.038835 
L 266.718333 -144.625295 
L 270.216212 -149.103735 
L 273.714091 -127.04977 
L 277.21197 -136.361745 
L 280.709848 -130.400068 
L 284.207727 -136.061381 
L 287.705606 -114.539675 
L 291.203485 -110.121962 
L 294.701364 -130.136567 
L 298.199242 -130.361583 
L 301.697121 -122.675805 
L 305.195 -132.740401 
L 308.692879 -124.438834 
L 312.190758 -124.439166 
L 315.688636 -116.220939 
L 319.186515 -128.140421 
L 322.684394 -129.362853 
L 326.182273 -129.061566 
L 329.680152 -123.231517 
L 333.17803 -124.629872 
L 336.675909 -124.190054 
L 340.173788 -139.438689 
L 343.671667 -117.492655 
L 347.169545 -132.484681 
L 350.667424 -139.315494 
L 354.165303 -140.414844 
L 357.663182 -120.629397 
L 361.161061 -133.504328 
L 364.658939 -122.938707 
L 368.156818 -135.560785 
L 371.654697 -117.801923 
L 375.152576 -150.434198 
L 378.650455 -126.425746 
L 382.148333 -130.022446 
L 385.646212 -132.573875 
L 389.144091 -129.448021 
L 392.64197 -129.119634 
L 396.139848 -123.272357 
L 399.637727 -120.154392 
L 403.135606 -128.47977 
L 406.633485 -119.149096 
L 410.131364 -115.670396 
L 413.629242 -121.73125 
L 417.127121 -127.797569 
L 420.625 -119.497171 
L 424.122879 -123.038928 
L 427.620758 -139.776349 
L 431.118636 -129.39755 
L 434.616515 -116.17019 
L 438.114394 -129.845887 
L 441.612273 -126.111305 
L 445.110152 -117.680712 
L 448.60803 -122.500964 
L 452.105909 -118.095035 
L 455.603788 -119.573279 
L 459.101667 -112.236363 
L 462.599545 -117.718838 
L 466.097424 -117.298804 
L 469.595303 -117.735796 
L 473.093182 -121.692165 
L 476.591061 -116.45348 
L 480.088939 -120.348357 
L 483.586818 -121.06921 
L 487.084697 -120.07059 
L 490.582576 -117.97666 
L 494.080455 -116.342253 
L 497.578333 -120.395613 
L 501.076212 -117.896509 
L 504.574091 -117.341689 
L 508.07197 -110.515422 
L 511.569848 -123.159893 
L 515.067727 -118.515507 
L 518.565606 -116.82918 
L 522.063485 -117.961928 
L 525.561364 -115.490094 
L 529.059242 -116.158466 
L 532.557121 -116.270993 
L 536.055 -120.16616 
L 539.552879 -115.165872 
L 543.050758 -112.23555 
L 546.548636 -115.728499 
L 550.046515 -114.233284 
L 553.544394 -114.647488 
L 557.042273 -117.040295 
L 560.540152 -112.379276 
L 564.03803 -114.620106 
L 567.535909 -113.364012 
L 571.033788 -115.868741 
L 574.531667 -114.224274 
L 578.029545 -114.485175 
L 581.527424 -118.315818 
L 585.025303 -115.646787 
L 588.523182 -117.844931 
L 592.021061 -115.974289 
L 595.518939 -116.015451 
L 599.016818 -114.603891 
L 602.514697 -114.566416 
L 606.012576 -112.619694 
L 609.510455 -114.861258 
L 613.008333 -115.601057 
L 616.506212 -120.751822 
L 620.004091 -116.379061 
L 623.50197 -115.532289 
L 626.999848 -114.040879 
L 630.497727 -115.212231 
L 633.995606 -116.546499 
L 637.493485 -113.430973 
L 640.991364 -115.167013 
L 644.489242 -113.945193 
L 647.987121 -114.601053 
L 651.485 -115.870517 
L 654.982879 -116.737156 
L 658.480758 -120.247314 
L 661.978636 -115.110837 
L 665.476515 -118.143507 
L 668.974394 -115.163322 
L 672.472273 -115.936212 
L 675.970152 -117.948189 
L 679.46803 -111.91986 
L 682.965909 -115.949107 
L 682.965909 -119.133433 
L 682.965909 -119.133433 
L 679.46803 -134.633241 
L 675.970152 -126.994152 
L 672.472273 -121.049954 
L 668.974394 -119.772786 
L 665.476515 -120.111742 
L 661.978636 -118.458566 
L 658.480758 -130.308279 
L 654.982879 -129.913566 
L 651.485 -125.362196 
L 647.987121 -120.432677 
L 644.489242 -117.818207 
L 640.991364 -128.066947 
L 637.493485 -120.577728 
L 633.995606 -118.780097 
L 630.497727 -120.260797 
L 626.999848 -125.434642 
L 623.50197 -121.161012 
L 620.004091 -123.194082 
L 616.506212 -132.439559 
L 613.008333 -123.288733 
L 609.510455 -130.959679 
L 606.012576 -124.561715 
L 602.514697 -121.638775 
L 599.016818 -124.578764 
L 595.518939 -125.65656 
L 592.021061 -129.944269 
L 588.523182 -124.510433 
L 585.025303 -121.827487 
L 581.527424 -123.697869 
L 578.029545 -118.010389 
L 574.531667 -121.443997 
L 571.033788 -131.416523 
L 567.535909 -130.504489 
L 564.03803 -116.36232 
L 560.540152 -126.461704 
L 557.042273 -131.172375 
L 553.544394 -118.677861 
L 550.046515 -132.271005 
L 546.548636 -120.135016 
L 543.050758 -126.800673 
L 539.552879 -119.233316 
L 536.055 -123.018989 
L 532.557121 -130.233297 
L 529.059242 -124.68376 
L 525.561364 -126.133107 
L 522.063485 -124.051759 
L 518.565606 -125.770238 
L 515.067727 -129.941218 
L 511.569848 -152.435687 
L 508.07197 -146.824885 
L 504.574091 -129.016168 
L 501.076212 -131.145946 
L 497.578333 -128.012301 
L 494.080455 -141.486163 
L 490.582576 -120.571454 
L 487.084697 -128.630189 
L 483.586818 -125.581512 
L 480.088939 -125.521391 
L 476.591061 -130.001998 
L 473.093182 -130.767053 
L 469.595303 -128.524439 
L 466.097424 -131.548408 
L 462.599545 -130.103345 
L 459.101667 -136.269172 
L 455.603788 -123.221383 
L 452.105909 -135.828509 
L 448.60803 -138.744214 
L 445.110152 -143.076357 
L 441.612273 -132.986194 
L 438.114394 -155.219006 
L 434.616515 -139.315303 
L 431.118636 -139.022829 
L 427.620758 -159.541324 
L 424.122879 -133.959703 
L 420.625 -130.667935 
L 417.127121 -140.671621 
L 413.629242 -129.263642 
L 410.131364 -140.644883 
L 406.633485 -126.867084 
L 403.135606 -144.040724 
L 399.637727 -156.807893 
L 396.139848 -205.234228 
L 392.64197 -136.713768 
L 389.144091 -145.171341 
L 385.646212 -146.04798 
L 382.148333 -167.147548 
L 378.650455 -181.092156 
L 375.152576 -168.163776 
L 371.654697 -178.001366 
L 368.156818 -171.810685 
L 364.658939 -160.076129 
L 361.161061 -155.807113 
L 357.663182 -140.713403 
L 354.165303 -159.732614 
L 350.667424 -144.919614 
L 347.169545 -169.712834 
L 343.671667 -202.716079 
L 340.173788 -156.3646 
L 336.675909 -154.236557 
L 333.17803 -154.772958 
L 329.680152 -228.557863 
L 326.182273 -168.987024 
L 322.684394 -167.270221 
L 319.186515 -166.833082 
L 315.688636 -204.671148 
L 312.190758 -152.864795 
L 308.692879 -167.410773 
L 305.195 -195.668562 
L 301.697121 -157.361566 
L 298.199242 -170.469227 
L 294.701364 -184.654158 
L 291.203485 -221.606142 
L 287.705606 -294.992989 
L 284.207727 -259.218503 
L 280.709848 -267.90609 
L 277.21197 -244.372493 
L 273.714091 -250.46295 
L 270.216212 -273.022138 
L 266.718333 -218.048914 
L 263.220455 -243.109673 
L 259.722576 -232.553148 
L 256.224697 -263.345861 
L 252.726818 -280.832495 
L 249.228939 -290.686066 
L 245.731061 -292.033468 
L 242.233182 -317.620335 
L 238.735303 -312.445131 
L 235.237424 -338.269575 
L 231.739545 -358.142431 
L 228.241667 -328.192551 
L 224.743788 -342.220989 
L 221.245909 -360.233115 
L 217.74803 -356.801583 
L 214.250152 -333.117532 
L 210.752273 -340.332921 
L 207.254394 -335.673374 
L 203.756515 -355.193994 
L 200.258636 -340.145547 
L 196.760758 -356.250308 
L 193.262879 -337.694534 
L 189.765 -364.785578 
L 186.267121 -360.434745 
L 182.769242 -349.587072 
L 179.271364 -347.647018 
L 175.773485 -359.185784 
L 172.275606 -350.94209 
L 168.777727 -384.496234 
L 165.279848 -356.743424 
L 161.78197 -354.228274 
L 158.284091 -344.660763 
z
" style="stroke: #0000ff; stroke-opacity: 0.3"/>
    </defs>
    <g clip-path="url(#p79f9fd5a2d)">
     <use xlink:href="#mec61bd9093" x="0" y="432" style="fill: #0000ff; fill-opacity: 0.3; stroke: #0000ff; stroke-opacity: 0.3"/>
    </g>
   </g>
   <g id="PolyCollection_2">
    <defs>
     <path id="m06987975ee" d="M 158.284091 -369.060092 
L 158.284091 -342.319118 
L 161.78197 -352.966885 
L 165.279848 -321.810324 
L 168.777727 -325.614709 
L 172.275606 -341.661587 
L 175.773485 -324.109661 
L 179.271364 -343.002898 
L 182.769242 -334.99296 
L 186.267121 -331.712801 
L 189.765 -333.023675 
L 193.262879 -310.809154 
L 196.760758 -326.579523 
L 200.258636 -337.96296 
L 203.756515 -316.758773 
L 207.254394 -260.714548 
L 210.752273 -207.5309 
L 214.250152 -199.652476 
L 217.74803 -179.137521 
L 221.245909 -171.420625 
L 224.743788 -152.713442 
L 228.241667 -144.805675 
L 231.739545 -131.982845 
L 235.237424 -118.639235 
L 238.735303 -105.973645 
L 242.233182 -125.490293 
L 245.731061 -128.376222 
L 249.228939 -136.274194 
L 252.726818 -120.840393 
L 256.224697 -124.975335 
L 259.722576 -129.59902 
L 263.220455 -116.343661 
L 266.718333 -124.150182 
L 270.216212 -121.709424 
L 273.714091 -118.396645 
L 277.21197 -117.387333 
L 280.709848 -119.875853 
L 284.207727 -121.702027 
L 287.705606 -115.080392 
L 291.203485 -123.026438 
L 294.701364 -118.119203 
L 298.199242 -125.390925 
L 301.697121 -131.604455 
L 305.195 -122.221395 
L 308.692879 -117.589105 
L 312.190758 -117.673305 
L 315.688636 -117.109429 
L 319.186515 -118.232922 
L 322.684394 -116.450016 
L 326.182273 -118.817433 
L 329.680152 -117.656567 
L 333.17803 -120.034449 
L 336.675909 -119.956384 
L 340.173788 -117.302417 
L 343.671667 -118.008964 
L 347.169545 -118.674575 
L 350.667424 -116.470968 
L 354.165303 -114.681412 
L 357.663182 -118.194355 
L 361.161061 -118.205936 
L 364.658939 -121.113794 
L 368.156818 -112.316124 
L 371.654697 -129.045825 
L 375.152576 -117.254198 
L 378.650455 -112.053586 
L 382.148333 -119.105815 
L 385.646212 -120.545389 
L 389.144091 -116.601231 
L 392.64197 -118.774405 
L 396.139848 -120.550247 
L 399.637727 -134.07095 
L 403.135606 -128.291013 
L 406.633485 -119.940609 
L 410.131364 -119.205923 
L 413.629242 -117.686223 
L 417.127121 -121.949545 
L 420.625 -120.550388 
L 424.122879 -126.697314 
L 427.620758 -126.754836 
L 431.118636 -127.965436 
L 434.616515 -115.820694 
L 438.114394 -115.575227 
L 441.612273 -124.008693 
L 445.110152 -113.550919 
L 448.60803 -110.003916 
L 452.105909 -116.930708 
L 455.603788 -114.308835 
L 459.101667 -114.781871 
L 462.599545 -121.096449 
L 466.097424 -123.23251 
L 469.595303 -115.416183 
L 473.093182 -113.091223 
L 476.591061 -119.838977 
L 480.088939 -111.875735 
L 483.586818 -115.743975 
L 487.084697 -109.367739 
L 490.582576 -111.952496 
L 494.080455 -115.636278 
L 497.578333 -113.057673 
L 501.076212 -115.099988 
L 504.574091 -115.567121 
L 508.07197 -117.81926 
L 511.569848 -114.091961 
L 515.067727 -114.9608 
L 518.565606 -112.823109 
L 522.063485 -117.620827 
L 525.561364 -106.157472 
L 529.059242 -109.332272 
L 532.557121 -123.604121 
L 536.055 -104.168799 
L 539.552879 -107.910989 
L 543.050758 -116.766056 
L 546.548636 -112.890124 
L 550.046515 -103.183636 
L 553.544394 -116.045516 
L 557.042273 -118.08635 
L 560.540152 -113.6964 
L 564.03803 -115.03767 
L 567.535909 -115.151102 
L 571.033788 -115.585238 
L 574.531667 -116.097068 
L 578.029545 -115.957935 
L 581.527424 -118.158709 
L 585.025303 -115.462428 
L 588.523182 -116.470087 
L 592.021061 -115.896292 
L 595.518939 -111.420537 
L 599.016818 -111.875966 
L 602.514697 -116.852378 
L 606.012576 -118.396522 
L 609.510455 -113.092842 
L 613.008333 -114.046243 
L 616.506212 -114.519265 
L 620.004091 -121.622754 
L 623.50197 -111.602359 
L 626.999848 -113.440613 
L 630.497727 -114.716887 
L 633.995606 -115.705292 
L 637.493485 -117.623502 
L 640.991364 -114.780174 
L 644.489242 -112.289769 
L 647.987121 -116.137364 
L 651.485 -114.126639 
L 654.982879 -120.51439 
L 658.480758 -116.093999 
L 661.978636 -119.031919 
L 665.476515 -118.872777 
L 668.974394 -115.324764 
L 672.472273 -114.708669 
L 675.970152 -119.903089 
L 679.46803 -117.181657 
L 682.965909 -116.141896 
L 682.965909 -129.483797 
L 682.965909 -129.483797 
L 679.46803 -131.079824 
L 675.970152 -141.098035 
L 672.472273 -119.641709 
L 668.974394 -145.041818 
L 665.476515 -133.342386 
L 661.978636 -130.840322 
L 658.480758 -131.093642 
L 654.982879 -121.889784 
L 651.485 -120.272549 
L 647.987121 -123.923887 
L 644.489242 -148.4673 
L 640.991364 -117.324903 
L 637.493485 -122.43775 
L 633.995606 -123.623796 
L 630.497727 -122.415712 
L 626.999848 -122.227658 
L 623.50197 -138.806801 
L 620.004091 -137.914043 
L 616.506212 -124.419336 
L 613.008333 -118.888618 
L 609.510455 -130.23874 
L 606.012576 -122.885002 
L 602.514697 -121.158816 
L 599.016818 -144.585745 
L 595.518939 -146.798366 
L 592.021061 -127.923398 
L 588.523182 -118.710076 
L 585.025303 -120.498709 
L 581.527424 -140.255437 
L 578.029545 -125.030723 
L 574.531667 -140.169399 
L 571.033788 -131.651215 
L 567.535909 -118.955221 
L 564.03803 -126.048611 
L 560.540152 -142.960554 
L 557.042273 -128.661993 
L 553.544394 -161.600121 
L 550.046515 -202.430641 
L 546.548636 -129.660483 
L 543.050758 -173.326358 
L 539.552879 -187.501812 
L 536.055 -202.61694 
L 532.557121 -187.379355 
L 529.059242 -169.387205 
L 525.561364 -215.466778 
L 522.063485 -128.981084 
L 518.565606 -132.55853 
L 515.067727 -145.893891 
L 511.569848 -161.650052 
L 508.07197 -123.559886 
L 504.574091 -125.079861 
L 501.076212 -125.595805 
L 497.578333 -146.723178 
L 494.080455 -138.726564 
L 490.582576 -128.450432 
L 487.084697 -164.177783 
L 483.586818 -126.269713 
L 480.088939 -129.893897 
L 476.591061 -158.441202 
L 473.093182 -127.311705 
L 469.595303 -122.643822 
L 466.097424 -129.470763 
L 462.599545 -145.029818 
L 459.101667 -129.818794 
L 455.603788 -152.403163 
L 452.105909 -130.891476 
L 448.60803 -149.874557 
L 445.110152 -169.366295 
L 441.612273 -183.167533 
L 438.114394 -123.949105 
L 434.616515 -135.223008 
L 431.118636 -155.781563 
L 427.620758 -134.051044 
L 424.122879 -150.509025 
L 420.625 -142.403171 
L 417.127121 -138.56347 
L 413.629242 -141.020789 
L 410.131364 -131.740157 
L 406.633485 -137.790185 
L 403.135606 -144.815212 
L 399.637727 -144.746149 
L 396.139848 -129.175561 
L 392.64197 -140.66477 
L 389.144091 -121.80045 
L 385.646212 -124.250519 
L 382.148333 -129.88783 
L 378.650455 -127.861233 
L 375.152576 -129.689389 
L 371.654697 -132.638651 
L 368.156818 -128.330858 
L 364.658939 -138.471814 
L 361.161061 -122.782722 
L 357.663182 -120.841868 
L 354.165303 -122.499997 
L 350.667424 -128.422562 
L 347.169545 -139.349084 
L 343.671667 -128.007217 
L 340.173788 -134.131772 
L 336.675909 -136.798192 
L 333.17803 -121.588752 
L 329.680152 -129.433453 
L 326.182273 -126.466584 
L 322.684394 -128.541135 
L 319.186515 -135.593001 
L 315.688636 -131.640161 
L 312.190758 -135.518076 
L 308.692879 -134.674869 
L 305.195 -133.264098 
L 301.697121 -139.402902 
L 298.199242 -151.03444 
L 294.701364 -129.507737 
L 291.203485 -130.604241 
L 287.705606 -119.611662 
L 284.207727 -130.903624 
L 280.709848 -127.311788 
L 277.21197 -119.696454 
L 273.714091 -131.475596 
L 270.216212 -138.510725 
L 266.718333 -155.594323 
L 263.220455 -122.497319 
L 259.722576 -149.999053 
L 256.224697 -144.226018 
L 252.726818 -173.108082 
L 249.228939 -173.244955 
L 245.731061 -236.201611 
L 242.233182 -272.718244 
L 238.735303 -280.764333 
L 235.237424 -282.20509 
L 231.739545 -298.880178 
L 228.241667 -306.313867 
L 224.743788 -322.811545 
L 221.245909 -310.791454 
L 217.74803 -323.379888 
L 214.250152 -363.536871 
L 210.752273 -355.26796 
L 207.254394 -365.001549 
L 203.756515 -341.61181 
L 200.258636 -348.961994 
L 196.760758 -343.017564 
L 193.262879 -353.321114 
L 189.765 -353.022683 
L 186.267121 -337.200934 
L 182.769242 -368.820562 
L 179.271364 -357.149807 
L 175.773485 -346.170779 
L 172.275606 -344.33596 
L 168.777727 -332.072521 
L 165.279848 -348.811792 
L 161.78197 -356.020591 
L 158.284091 -369.060092 
z
" style="stroke: #008000; stroke-opacity: 0.3"/>
    </defs>
    <g clip-path="url(#p79f9fd5a2d)">
     <use xlink:href="#m06987975ee" x="0" y="432" style="fill: #008000; fill-opacity: 0.3; stroke: #008000; stroke-opacity: 0.3"/>
    </g>
   </g>
   <g id="PolyCollection_3">
    <defs>
     <path id="mf3b29a3c93" d="M 158.284091 -364.5656 
L 158.284091 -347.301719 
L 161.78197 -333.093719 
L 165.279848 -350.49039 
L 168.777727 -357.838688 
L 172.275606 -342.099086 
L 175.773485 -347.194135 
L 179.271364 -353.962089 
L 182.769242 -358.974076 
L 186.267121 -359.561511 
L 189.765 -336.181052 
L 193.262879 -329.721624 
L 196.760758 -358.05717 
L 200.258636 -349.49501 
L 203.756515 -339.335336 
L 207.254394 -343.684106 
L 210.752273 -351.746655 
L 214.250152 -344.266699 
L 217.74803 -346.560844 
L 221.245909 -356.619557 
L 224.743788 -343.458767 
L 228.241667 -348.011586 
L 231.739545 -335.205479 
L 235.237424 -340.232567 
L 238.735303 -362.360568 
L 242.233182 -349.959472 
L 245.731061 -333.274465 
L 249.228939 -334.132998 
L 252.726818 -333.281189 
L 256.224697 -344.812536 
L 259.722576 -329.996952 
L 263.220455 -349.496655 
L 266.718333 -338.25754 
L 270.216212 -323.307027 
L 273.714091 -337.313929 
L 277.21197 -348.375421 
L 280.709848 -338.173942 
L 284.207727 -342.742322 
L 287.705606 -346.673762 
L 291.203485 -339.720176 
L 294.701364 -342.156346 
L 298.199242 -351.322418 
L 301.697121 -343.295672 
L 305.195 -358.701424 
L 308.692879 -333.056575 
L 312.190758 -356.49062 
L 315.688636 -334.371762 
L 319.186515 -343.75237 
L 322.684394 -351.718116 
L 326.182273 -326.115276 
L 329.680152 -322.211239 
L 333.17803 -345.117658 
L 336.675909 -338.332248 
L 340.173788 -334.930078 
L 343.671667 -351.205083 
L 347.169545 -331.47479 
L 350.667424 -336.47771 
L 354.165303 -352.520417 
L 357.663182 -340.719907 
L 361.161061 -337.322749 
L 364.658939 -349.242053 
L 368.156818 -335.725445 
L 371.654697 -344.252553 
L 375.152576 -349.82227 
L 378.650455 -330.570239 
L 382.148333 -320.508708 
L 385.646212 -335.150457 
L 389.144091 -341.860551 
L 392.64197 -347.392236 
L 396.139848 -334.769625 
L 399.637727 -338.53745 
L 403.135606 -343.946647 
L 406.633485 -354.940968 
L 410.131364 -341.19773 
L 413.629242 -338.452449 
L 417.127121 -335.498882 
L 420.625 -350.943824 
L 424.122879 -341.442721 
L 427.620758 -332.152249 
L 431.118636 -337.251861 
L 434.616515 -349.095275 
L 438.114394 -333.384882 
L 441.612273 -334.507239 
L 445.110152 -332.76992 
L 448.60803 -330.523676 
L 452.105909 -330.358322 
L 455.603788 -343.435169 
L 459.101667 -347.955301 
L 462.599545 -341.337407 
L 466.097424 -337.980625 
L 469.595303 -337.412491 
L 473.093182 -337.664505 
L 476.591061 -333.9462 
L 480.088939 -331.565555 
L 483.586818 -336.346929 
L 487.084697 -338.679535 
L 490.582576 -324.495578 
L 494.080455 -336.012614 
L 497.578333 -328.416229 
L 501.076212 -325.875661 
L 504.574091 -332.12996 
L 508.07197 -348.944562 
L 511.569848 -347.397581 
L 515.067727 -348.212525 
L 518.565606 -319.593315 
L 522.063485 -341.051194 
L 525.561364 -338.508197 
L 529.059242 -356.94837 
L 532.557121 -333.634377 
L 536.055 -333.630417 
L 539.552879 -340.899415 
L 543.050758 -333.571725 
L 546.548636 -330.079278 
L 550.046515 -329.376271 
L 553.544394 -348.59695 
L 557.042273 -337.475414 
L 560.540152 -343.510229 
L 564.03803 -347.63152 
L 567.535909 -333.001526 
L 571.033788 -348.418925 
L 574.531667 -344.988521 
L 578.029545 -345.805064 
L 581.527424 -331.561067 
L 585.025303 -343.213055 
L 588.523182 -325.258331 
L 592.021061 -340.89268 
L 595.518939 -340.299542 
L 599.016818 -335.41825 
L 602.514697 -340.350008 
L 606.012576 -339.754166 
L 609.510455 -337.31655 
L 613.008333 -315.211093 
L 616.506212 -341.576116 
L 620.004091 -326.265728 
L 623.50197 -319.026938 
L 626.999848 -344.416835 
L 630.497727 -334.611449 
L 633.995606 -340.177868 
L 637.493485 -324.910533 
L 640.991364 -357.953161 
L 644.489242 -317.177349 
L 647.987121 -339.340055 
L 651.485 -336.450854 
L 654.982879 -345.561398 
L 658.480758 -323.798057 
L 661.978636 -346.251688 
L 665.476515 -340.370887 
L 668.974394 -322.031981 
L 672.472273 -342.924557 
L 675.970152 -332.497309 
L 679.46803 -332.879466 
L 682.965909 -343.731436 
L 682.965909 -356.860567 
L 682.965909 -356.860567 
L 679.46803 -356.290789 
L 675.970152 -342.371355 
L 672.472273 -366.746272 
L 668.974394 -357.083231 
L 665.476515 -351.142291 
L 661.978636 -364.053683 
L 658.480758 -357.26959 
L 654.982879 -368.209546 
L 651.485 -352.865834 
L 647.987121 -360.910272 
L 644.489242 -384.049196 
L 640.991364 -363.285849 
L 637.493485 -355.278518 
L 633.995606 -367.638147 
L 630.497727 -369.836615 
L 626.999848 -360.324094 
L 623.50197 -337.147155 
L 620.004091 -356.071002 
L 616.506212 -356.42891 
L 613.008333 -344.330952 
L 609.510455 -364.251671 
L 606.012576 -366.45109 
L 602.514697 -360.144374 
L 599.016818 -368.395272 
L 595.518939 -359.365054 
L 592.021061 -353.842017 
L 588.523182 -371.038314 
L 585.025303 -360.307602 
L 581.527424 -352.142368 
L 578.029545 -361.766897 
L 574.531667 -360.43576 
L 571.033788 -361.203093 
L 567.535909 -344.063628 
L 564.03803 -367.359696 
L 560.540152 -362.646215 
L 557.042273 -371.853739 
L 553.544394 -380.8911 
L 550.046515 -369.751405 
L 546.548636 -361.141034 
L 543.050758 -365.604762 
L 539.552879 -367.648763 
L 536.055 -366.66872 
L 532.557121 -349.141651 
L 529.059242 -358.921442 
L 525.561364 -362.181428 
L 522.063485 -354.171612 
L 518.565606 -342.975005 
L 515.067727 -363.94766 
L 511.569848 -361.394652 
L 508.07197 -381.666139 
L 504.574091 -339.663617 
L 501.076212 -337.766498 
L 497.578333 -368.856634 
L 494.080455 -368.191395 
L 490.582576 -352.374332 
L 487.084697 -357.958786 
L 483.586818 -370.395246 
L 480.088939 -348.037766 
L 476.591061 -368.451806 
L 473.093182 -373.763516 
L 469.595303 -349.024354 
L 466.097424 -351.824171 
L 462.599545 -370.188236 
L 459.101667 -367.524024 
L 455.603788 -366.626147 
L 452.105909 -366.426432 
L 448.60803 -369.629029 
L 445.110152 -349.810864 
L 441.612273 -381.850682 
L 438.114394 -368.720259 
L 434.616515 -378.635584 
L 431.118636 -350.06358 
L 427.620758 -349.793994 
L 424.122879 -355.781331 
L 420.625 -364.340257 
L 417.127121 -351.962992 
L 413.629242 -346.129582 
L 410.131364 -353.683399 
L 406.633485 -368.299288 
L 403.135606 -353.326216 
L 399.637727 -350.38875 
L 396.139848 -376.609585 
L 392.64197 -356.030799 
L 389.144091 -367.273358 
L 385.646212 -355.679368 
L 382.148333 -349.430056 
L 378.650455 -373.780202 
L 375.152576 -364.680837 
L 371.654697 -375.326886 
L 368.156818 -375.751387 
L 364.658939 -367.848032 
L 361.161061 -363.659741 
L 357.663182 -368.169947 
L 354.165303 -370.622217 
L 350.667424 -390.472175 
L 347.169545 -356.914491 
L 343.671667 -406.056364 
L 340.173788 -348.578113 
L 336.675909 -367.970629 
L 333.17803 -378.366653 
L 329.680152 -341.674975 
L 326.182273 -367.692013 
L 322.684394 -372.742412 
L 319.186515 -366.601811 
L 315.688636 -380.42421 
L 312.190758 -372.460511 
L 308.692879 -364.655586 
L 305.195 -368.150839 
L 301.697121 -365.594183 
L 298.199242 -380.508555 
L 294.701364 -358.09398 
L 291.203485 -366.094593 
L 287.705606 -355.821866 
L 284.207727 -384.939725 
L 280.709848 -351.92372 
L 277.21197 -354.364261 
L 273.714091 -350.147945 
L 270.216212 -351.464015 
L 266.718333 -345.68995 
L 263.220455 -362.028988 
L 259.722576 -360.149521 
L 256.224697 -369.983437 
L 252.726818 -365.065513 
L 249.228939 -355.622987 
L 245.731061 -360.776879 
L 242.233182 -370.205698 
L 238.735303 -372.643113 
L 235.237424 -370.268047 
L 231.739545 -368.071124 
L 228.241667 -368.395145 
L 224.743788 -387.932908 
L 221.245909 -368.085026 
L 217.74803 -360.327765 
L 214.250152 -350.956106 
L 210.752273 -356.508658 
L 207.254394 -369.549918 
L 203.756515 -367.065163 
L 200.258636 -385.45986 
L 196.760758 -378.166783 
L 193.262879 -356.08068 
L 189.765 -366.656252 
L 186.267121 -365.484748 
L 182.769242 -392.234821 
L 179.271364 -371.132981 
L 175.773485 -369.017353 
L 172.275606 -356.833347 
L 168.777727 -368.867141 
L 165.279848 -365.81872 
L 161.78197 -336.942667 
L 158.284091 -364.5656 
z
" style="stroke: #ff0000; stroke-opacity: 0.3"/>
    </defs>
    <g clip-path="url(#p79f9fd5a2d)">
     <use xlink:href="#mf3b29a3c93" x="0" y="432" style="fill: #ff0000; fill-opacity: 0.3; stroke: #ff0000; stroke-opacity: 0.3"/>
    </g>
   </g>
   <g id="PolyCollection_4">
    <defs>
     <path id="mcee6ed9e31" d="M 158.284091 -370.627623 
L 158.284091 -359.885456 
L 161.78197 -344.28505 
L 165.279848 -331.239034 
L 168.777727 -347.486991 
L 172.275606 -344.42935 
L 175.773485 -343.771275 
L 179.271364 -352.175863 
L 182.769242 -347.753217 
L 186.267121 -338.927202 
L 189.765 -348.273955 
L 193.262879 -331.634558 
L 196.760758 -335.915758 
L 200.258636 -341.730848 
L 203.756515 -328.829522 
L 207.254394 -348.502074 
L 210.752273 -358.252145 
L 214.250152 -335.78082 
L 217.74803 -352.77983 
L 221.245909 -346.47965 
L 224.743788 -342.025944 
L 228.241667 -335.418335 
L 231.739545 -326.736531 
L 235.237424 -331.398874 
L 238.735303 -329.780074 
L 242.233182 -328.703246 
L 245.731061 -344.871111 
L 249.228939 -339.008827 
L 252.726818 -334.025479 
L 256.224697 -342.893329 
L 259.722576 -330.770635 
L 263.220455 -344.089591 
L 266.718333 -337.499948 
L 270.216212 -350.618821 
L 273.714091 -338.460572 
L 277.21197 -346.839556 
L 280.709848 -347.690782 
L 284.207727 -348.472435 
L 287.705606 -319.084019 
L 291.203485 -345.03405 
L 294.701364 -329.737246 
L 298.199242 -335.574474 
L 301.697121 -338.486978 
L 305.195 -330.773951 
L 308.692879 -347.858277 
L 312.190758 -334.020392 
L 315.688636 -339.868699 
L 319.186515 -340.763122 
L 322.684394 -330.804772 
L 326.182273 -323.111275 
L 329.680152 -336.480391 
L 333.17803 -330.119106 
L 336.675909 -337.371746 
L 340.173788 -339.587959 
L 343.671667 -325.462958 
L 347.169545 -347.847327 
L 350.667424 -334.363682 
L 354.165303 -340.01399 
L 357.663182 -336.818915 
L 361.161061 -322.087766 
L 364.658939 -336.515462 
L 368.156818 -331.313336 
L 371.654697 -333.919392 
L 375.152576 -327.437311 
L 378.650455 -352.734107 
L 382.148333 -335.812802 
L 385.646212 -314.520618 
L 389.144091 -319.443931 
L 392.64197 -318.498962 
L 396.139848 -329.160523 
L 399.637727 -322.555521 
L 403.135606 -335.325799 
L 406.633485 -338.593429 
L 410.131364 -324.809939 
L 413.629242 -322.721724 
L 417.127121 -316.738249 
L 420.625 -299.176764 
L 424.122879 -304.254341 
L 427.620758 -296.205138 
L 431.118636 -313.140676 
L 434.616515 -269.325721 
L 438.114394 -239.284538 
L 441.612273 -250.908986 
L 445.110152 -195.149254 
L 448.60803 -186.903655 
L 452.105909 -192.940795 
L 455.603788 -183.42885 
L 459.101667 -175.198936 
L 462.599545 -166.963027 
L 466.097424 -182.885839 
L 469.595303 -177.885601 
L 473.093182 -186.069561 
L 476.591061 -173.779045 
L 480.088939 -177.011743 
L 483.586818 -169.591614 
L 487.084697 -165.454869 
L 490.582576 -164.775484 
L 494.080455 -184.452232 
L 497.578333 -178.205642 
L 501.076212 -174.159626 
L 504.574091 -176.352058 
L 508.07197 -176.120546 
L 511.569848 -181.091615 
L 515.067727 -173.180169 
L 518.565606 -181.440889 
L 522.063485 -162.326644 
L 525.561364 -175.764499 
L 529.059242 -183.000402 
L 532.557121 -176.048421 
L 536.055 -175.7946 
L 539.552879 -167.7525 
L 543.050758 -179.819333 
L 546.548636 -164.294346 
L 550.046515 -169.405521 
L 553.544394 -173.004645 
L 557.042273 -174.735726 
L 560.540152 -171.321554 
L 564.03803 -167.565187 
L 567.535909 -183.535304 
L 571.033788 -165.612724 
L 574.531667 -173.088993 
L 578.029545 -170.966594 
L 581.527424 -167.990635 
L 585.025303 -168.537813 
L 588.523182 -170.382226 
L 592.021061 -163.005236 
L 595.518939 -176.925088 
L 599.016818 -160.694847 
L 602.514697 -165.842451 
L 606.012576 -167.795542 
L 609.510455 -173.242011 
L 613.008333 -162.252273 
L 616.506212 -172.762131 
L 620.004091 -189.05603 
L 623.50197 -169.19129 
L 626.999848 -170.946532 
L 630.497727 -174.917087 
L 633.995606 -184.477247 
L 637.493485 -175.783979 
L 640.991364 -175.985844 
L 644.489242 -180.155811 
L 647.987121 -173.287075 
L 651.485 -183.350366 
L 654.982879 -169.436249 
L 658.480758 -163.548842 
L 661.978636 -161.832225 
L 665.476515 -166.002012 
L 668.974394 -163.588342 
L 672.472273 -152.096238 
L 675.970152 -148.046876 
L 679.46803 -127.018346 
L 682.965909 -111.26494 
L 682.965909 -305.345302 
L 682.965909 -305.345302 
L 679.46803 -315.608101 
L 675.970152 -342.951164 
L 672.472273 -330.408707 
L 668.974394 -342.882749 
L 665.476515 -358.626731 
L 661.978636 -358.842836 
L 658.480758 -362.007308 
L 654.982879 -363.685589 
L 651.485 -354.164452 
L 647.987121 -357.150164 
L 644.489242 -372.685627 
L 640.991364 -383.933173 
L 637.493485 -365.04998 
L 633.995606 -374.270309 
L 630.497727 -364.550167 
L 626.999848 -354.463186 
L 623.50197 -367.640176 
L 620.004091 -370.667743 
L 616.506212 -392.526084 
L 613.008333 -374.43276 
L 609.510455 -350.312893 
L 606.012576 -365.765594 
L 602.514697 -370.15923 
L 599.016818 -374.52586 
L 595.518939 -377.380677 
L 592.021061 -377.535857 
L 588.523182 -370.500543 
L 585.025303 -378.104641 
L 581.527424 -367.962235 
L 578.029545 -379.922408 
L 574.531667 -366.768748 
L 571.033788 -383.860762 
L 567.535909 -352.1247 
L 564.03803 -362.725619 
L 560.540152 -386.937893 
L 557.042273 -385.524967 
L 553.544394 -371.343697 
L 550.046515 -373.673738 
L 546.548636 -380.590917 
L 543.050758 -386.640343 
L 539.552879 -378.011358 
L 536.055 -372.946723 
L 532.557121 -370.838088 
L 529.059242 -383.996194 
L 525.561364 -394.941725 
L 522.063485 -370.06303 
L 518.565606 -367.202813 
L 515.067727 -369.362171 
L 511.569848 -361.304292 
L 508.07197 -378.966192 
L 504.574091 -383.859824 
L 501.076212 -388.883288 
L 497.578333 -381.42051 
L 494.080455 -370.780939 
L 490.582576 -373.666741 
L 487.084697 -371.474218 
L 483.586818 -388.472589 
L 480.088939 -364.944866 
L 476.591061 -359.19636 
L 473.093182 -385.661691 
L 469.595303 -372.515292 
L 466.097424 -377.081989 
L 462.599545 -357.079985 
L 459.101667 -377.984178 
L 455.603788 -375.269895 
L 452.105909 -375.032019 
L 448.60803 -373.845147 
L 445.110152 -372.677127 
L 441.612273 -359.187627 
L 438.114394 -365.003579 
L 434.616515 -358.147568 
L 431.118636 -336.248703 
L 427.620758 -339.126705 
L 424.122879 -350.943534 
L 420.625 -364.172529 
L 417.127121 -372.920114 
L 413.629242 -343.312169 
L 410.131364 -354.256461 
L 406.633485 -345.061195 
L 403.135606 -354.62543 
L 399.637727 -347.041567 
L 396.139848 -357.032268 
L 392.64197 -346.851578 
L 389.144091 -336.876595 
L 385.646212 -366.547029 
L 382.148333 -342.570246 
L 378.650455 -356.155747 
L 375.152576 -351.287413 
L 371.654697 -352.126966 
L 368.156818 -337.551589 
L 364.658939 -355.973934 
L 361.161061 -368.839681 
L 357.663182 -349.569119 
L 354.165303 -359.064875 
L 350.667424 -355.978035 
L 347.169545 -360.163931 
L 343.671667 -353.554632 
L 340.173788 -362.614804 
L 336.675909 -350.919912 
L 333.17803 -346.750804 
L 329.680152 -347.955207 
L 326.182273 -341.751156 
L 322.684394 -345.137731 
L 319.186515 -362.171804 
L 315.688636 -351.156369 
L 312.190758 -348.99969 
L 308.692879 -349.756262 
L 305.195 -339.5553 
L 301.697121 -352.391658 
L 298.199242 -348.568259 
L 294.701364 -338.200272 
L 291.203485 -362.53791 
L 287.705606 -334.307853 
L 284.207727 -370.228408 
L 280.709848 -357.928743 
L 277.21197 -349.5059 
L 273.714091 -352.22282 
L 270.216212 -364.567638 
L 266.718333 -353.573931 
L 263.220455 -368.314648 
L 259.722576 -354.934047 
L 256.224697 -349.449633 
L 252.726818 -359.244891 
L 249.228939 -356.750898 
L 245.731061 -365.043773 
L 242.233182 -374.866221 
L 238.735303 -352.80071 
L 235.237424 -364.067985 
L 231.739545 -367.7053 
L 228.241667 -357.803224 
L 224.743788 -360.128008 
L 221.245909 -351.134889 
L 217.74803 -370.997346 
L 214.250152 -355.732357 
L 210.752273 -377.044401 
L 207.254394 -356.678153 
L 203.756515 -370.346965 
L 200.258636 -355.102716 
L 196.760758 -359.697534 
L 193.262879 -344.600811 
L 189.765 -361.982605 
L 186.267121 -344.825044 
L 182.769242 -377.293042 
L 179.271364 -354.956799 
L 175.773485 -355.942132 
L 172.275606 -364.070018 
L 168.777727 -385.710687 
L 165.279848 -366.473127 
L 161.78197 -366.508429 
L 158.284091 -370.627623 
z
" style="stroke: #ffa500; stroke-opacity: 0.3"/>
    </defs>
    <g clip-path="url(#p79f9fd5a2d)">
     <use xlink:href="#mcee6ed9e31" x="0" y="432" style="fill: #ffa500; fill-opacity: 0.3; stroke: #ffa500; stroke-opacity: 0.3"/>
    </g>
   </g>
   <g id="matplotlib.axis_1">
    <g id="xtick_1">
     <g id="line2d_1">
      <defs>
       <path id="medb4cc1f3a" d="M 0 0 
L 0 3.5 
" style="stroke: #000000; stroke-width: 0.8"/>
      </defs>
      <g>
       <use xlink:href="#medb4cc1f3a" x="158.284091" y="343.96" style="stroke: #000000; stroke-width: 0.8"/>
      </g>
     </g>
     <g id="text_1">
      <!-- 0 -->
      <g transform="translate(149.376591 372.235625) scale(0.28 -0.28)">
       <defs>
        <path id="DejaVuSans-30" d="M 2034 4250 
Q 1547 4250 1301 3770 
Q 1056 3291 1056 2328 
Q 1056 1369 1301 889 
Q 1547 409 2034 409 
Q 2525 409 2770 889 
Q 3016 1369 3016 2328 
Q 3016 3291 2770 3770 
Q 2525 4250 2034 4250 
z
M 2034 4750 
Q 2819 4750 3233 4129 
Q 3647 3509 3647 2328 
Q 3647 1150 3233 529 
Q 2819 -91 2034 -91 
Q 1250 -91 836 529 
Q 422 1150 422 2328 
Q 422 3509 836 4129 
Q 1250 4750 2034 4750 
z
" transform="scale(0.015625)"/>
       </defs>
       <use xlink:href="#DejaVuSans-30"/>
      </g>
     </g>
    </g>
    <g id="xtick_2">
     <g id="line2d_2">
      <g>
       <use xlink:href="#medb4cc1f3a" x="228.241667" y="343.96" style="stroke: #000000; stroke-width: 0.8"/>
      </g>
     </g>
     <g id="text_2">
      <!-- 20 -->
      <g transform="translate(210.426667 372.235625) scale(0.28 -0.28)">
       <defs>
        <path id="DejaVuSans-32" d="M 1228 531 
L 3431 531 
L 3431 0 
L 469 0 
L 469 531 
Q 828 903 1448 1529 
Q 2069 2156 2228 2338 
Q 2531 2678 2651 2914 
Q 2772 3150 2772 3378 
Q 2772 3750 2511 3984 
Q 2250 4219 1831 4219 
Q 1534 4219 1204 4116 
Q 875 4013 500 3803 
L 500 4441 
Q 881 4594 1212 4672 
Q 1544 4750 1819 4750 
Q 2544 4750 2975 4387 
Q 3406 4025 3406 3419 
Q 3406 3131 3298 2873 
Q 3191 2616 2906 2266 
Q 2828 2175 2409 1742 
Q 1991 1309 1228 531 
z
" transform="scale(0.015625)"/>
       </defs>
       <use xlink:href="#DejaVuSans-32"/>
       <use xlink:href="#DejaVuSans-30" x="63.623047"/>
      </g>
     </g>
    </g>
    <g id="xtick_3">
     <g id="line2d_3">
      <g>
       <use xlink:href="#medb4cc1f3a" x="298.199242" y="343.96" style="stroke: #000000; stroke-width: 0.8"/>
      </g>
     </g>
     <g id="text_3">
      <!-- 40 -->
      <g transform="translate(280.384242 372.235625) scale(0.28 -0.28)">
       <defs>
        <path id="DejaVuSans-34" d="M 2419 4116 
L 825 1625 
L 2419 1625 
L 2419 4116 
z
M 2253 4666 
L 3047 4666 
L 3047 1625 
L 3713 1625 
L 3713 1100 
L 3047 1100 
L 3047 0 
L 2419 0 
L 2419 1100 
L 313 1100 
L 313 1709 
L 2253 4666 
z
" transform="scale(0.015625)"/>
       </defs>
       <use xlink:href="#DejaVuSans-34"/>
       <use xlink:href="#DejaVuSans-30" x="63.623047"/>
      </g>
     </g>
    </g>
    <g id="xtick_4">
     <g id="line2d_4">
      <g>
       <use xlink:href="#medb4cc1f3a" x="368.156818" y="343.96" style="stroke: #000000; stroke-width: 0.8"/>
      </g>
     </g>
     <g id="text_4">
      <!-- 60 -->
      <g transform="translate(350.341818 372.235625) scale(0.28 -0.28)">
       <defs>
        <path id="DejaVuSans-36" d="M 2113 2584 
Q 1688 2584 1439 2293 
Q 1191 2003 1191 1497 
Q 1191 994 1439 701 
Q 1688 409 2113 409 
Q 2538 409 2786 701 
Q 3034 994 3034 1497 
Q 3034 2003 2786 2293 
Q 2538 2584 2113 2584 
z
M 3366 4563 
L 3366 3988 
Q 3128 4100 2886 4159 
Q 2644 4219 2406 4219 
Q 1781 4219 1451 3797 
Q 1122 3375 1075 2522 
Q 1259 2794 1537 2939 
Q 1816 3084 2150 3084 
Q 2853 3084 3261 2657 
Q 3669 2231 3669 1497 
Q 3669 778 3244 343 
Q 2819 -91 2113 -91 
Q 1303 -91 875 529 
Q 447 1150 447 2328 
Q 447 3434 972 4092 
Q 1497 4750 2381 4750 
Q 2619 4750 2861 4703 
Q 3103 4656 3366 4563 
z
" transform="scale(0.015625)"/>
       </defs>
       <use xlink:href="#DejaVuSans-36"/>
       <use xlink:href="#DejaVuSans-30" x="63.623047"/>
      </g>
     </g>
    </g>
    <g id="xtick_5">
     <g id="line2d_5">
      <g>
       <use xlink:href="#medb4cc1f3a" x="438.114394" y="343.96" style="stroke: #000000; stroke-width: 0.8"/>
      </g>
     </g>
     <g id="text_5">
      <!-- 80 -->
      <g transform="translate(420.299394 372.235625) scale(0.28 -0.28)">
       <defs>
        <path id="DejaVuSans-38" d="M 2034 2216 
Q 1584 2216 1326 1975 
Q 1069 1734 1069 1313 
Q 1069 891 1326 650 
Q 1584 409 2034 409 
Q 2484 409 2743 651 
Q 3003 894 3003 1313 
Q 3003 1734 2745 1975 
Q 2488 2216 2034 2216 
z
M 1403 2484 
Q 997 2584 770 2862 
Q 544 3141 544 3541 
Q 544 4100 942 4425 
Q 1341 4750 2034 4750 
Q 2731 4750 3128 4425 
Q 3525 4100 3525 3541 
Q 3525 3141 3298 2862 
Q 3072 2584 2669 2484 
Q 3125 2378 3379 2068 
Q 3634 1759 3634 1313 
Q 3634 634 3220 271 
Q 2806 -91 2034 -91 
Q 1263 -91 848 271 
Q 434 634 434 1313 
Q 434 1759 690 2068 
Q 947 2378 1403 2484 
z
M 1172 3481 
Q 1172 3119 1398 2916 
Q 1625 2713 2034 2713 
Q 2441 2713 2670 2916 
Q 2900 3119 2900 3481 
Q 2900 3844 2670 4047 
Q 2441 4250 2034 4250 
Q 1625 4250 1398 4047 
Q 1172 3844 1172 3481 
z
" transform="scale(0.015625)"/>
       </defs>
       <use xlink:href="#DejaVuSans-38"/>
       <use xlink:href="#DejaVuSans-30" x="63.623047"/>
      </g>
     </g>
    </g>
    <g id="xtick_6">
     <g id="line2d_6">
      <g>
       <use xlink:href="#medb4cc1f3a" x="508.07197" y="343.96" style="stroke: #000000; stroke-width: 0.8"/>
      </g>
     </g>
     <g id="text_6">
      <!-- 100 -->
      <g transform="translate(481.34947 372.235625) scale(0.28 -0.28)">
       <defs>
        <path id="DejaVuSans-31" d="M 794 531 
L 1825 531 
L 1825 4091 
L 703 3866 
L 703 4441 
L 1819 4666 
L 2450 4666 
L 2450 531 
L 3481 531 
L 3481 0 
L 794 0 
L 794 531 
z
" transform="scale(0.015625)"/>
       </defs>
       <use xlink:href="#DejaVuSans-31"/>
       <use xlink:href="#DejaVuSans-30" x="63.623047"/>
       <use xlink:href="#DejaVuSans-30" x="127.246094"/>
      </g>
     </g>
    </g>
    <g id="xtick_7">
     <g id="line2d_7">
      <g>
       <use xlink:href="#medb4cc1f3a" x="578.029545" y="343.96" style="stroke: #000000; stroke-width: 0.8"/>
      </g>
     </g>
     <g id="text_7">
      <!-- 120 -->
      <g transform="translate(551.307045 372.235625) scale(0.28 -0.28)">
       <use xlink:href="#DejaVuSans-31"/>
       <use xlink:href="#DejaVuSans-32" x="63.623047"/>
       <use xlink:href="#DejaVuSans-30" x="127.246094"/>
      </g>
     </g>
    </g>
    <g id="xtick_8">
     <g id="line2d_8">
      <g>
       <use xlink:href="#medb4cc1f3a" x="647.987121" y="343.96" style="stroke: #000000; stroke-width: 0.8"/>
      </g>
     </g>
     <g id="text_8">
      <!-- 140 -->
      <g transform="translate(621.264621 372.235625) scale(0.28 -0.28)">
       <use xlink:href="#DejaVuSans-31"/>
       <use xlink:href="#DejaVuSans-34" x="63.623047"/>
       <use xlink:href="#DejaVuSans-30" x="127.246094"/>
      </g>
     </g>
    </g>
    <g id="text_9">
     <!-- Episode -->
     <g transform="translate(342.075 412.4525) scale(0.4 -0.4)">
      <defs>
       <path id="DejaVuSans-45" d="M 628 4666 
L 3578 4666 
L 3578 4134 
L 1259 4134 
L 1259 2753 
L 3481 2753 
L 3481 2222 
L 1259 2222 
L 1259 531 
L 3634 531 
L 3634 0 
L 628 0 
L 628 4666 
z
" transform="scale(0.015625)"/>
       <path id="DejaVuSans-70" d="M 1159 525 
L 1159 -1331 
L 581 -1331 
L 581 3500 
L 1159 3500 
L 1159 2969 
Q 1341 3281 1617 3432 
Q 1894 3584 2278 3584 
Q 2916 3584 3314 3078 
Q 3713 2572 3713 1747 
Q 3713 922 3314 415 
Q 2916 -91 2278 -91 
Q 1894 -91 1617 61 
Q 1341 213 1159 525 
z
M 3116 1747 
Q 3116 2381 2855 2742 
Q 2594 3103 2138 3103 
Q 1681 3103 1420 2742 
Q 1159 2381 1159 1747 
Q 1159 1113 1420 752 
Q 1681 391 2138 391 
Q 2594 391 2855 752 
Q 3116 1113 3116 1747 
z
" transform="scale(0.015625)"/>
       <path id="DejaVuSans-69" d="M 603 3500 
L 1178 3500 
L 1178 0 
L 603 0 
L 603 3500 
z
M 603 4863 
L 1178 4863 
L 1178 4134 
L 603 4134 
L 603 4863 
z
" transform="scale(0.015625)"/>
       <path id="DejaVuSans-73" d="M 2834 3397 
L 2834 2853 
Q 2591 2978 2328 3040 
Q 2066 3103 1784 3103 
Q 1356 3103 1142 2972 
Q 928 2841 928 2578 
Q 928 2378 1081 2264 
Q 1234 2150 1697 2047 
L 1894 2003 
Q 2506 1872 2764 1633 
Q 3022 1394 3022 966 
Q 3022 478 2636 193 
Q 2250 -91 1575 -91 
Q 1294 -91 989 -36 
Q 684 19 347 128 
L 347 722 
Q 666 556 975 473 
Q 1284 391 1588 391 
Q 1994 391 2212 530 
Q 2431 669 2431 922 
Q 2431 1156 2273 1281 
Q 2116 1406 1581 1522 
L 1381 1569 
Q 847 1681 609 1914 
Q 372 2147 372 2553 
Q 372 3047 722 3315 
Q 1072 3584 1716 3584 
Q 2034 3584 2315 3537 
Q 2597 3491 2834 3397 
z
" transform="scale(0.015625)"/>
       <path id="DejaVuSans-6f" d="M 1959 3097 
Q 1497 3097 1228 2736 
Q 959 2375 959 1747 
Q 959 1119 1226 758 
Q 1494 397 1959 397 
Q 2419 397 2687 759 
Q 2956 1122 2956 1747 
Q 2956 2369 2687 2733 
Q 2419 3097 1959 3097 
z
M 1959 3584 
Q 2709 3584 3137 3096 
Q 3566 2609 3566 1747 
Q 3566 888 3137 398 
Q 2709 -91 1959 -91 
Q 1206 -91 779 398 
Q 353 888 353 1747 
Q 353 2609 779 3096 
Q 1206 3584 1959 3584 
z
" transform="scale(0.015625)"/>
       <path id="DejaVuSans-64" d="M 2906 2969 
L 2906 4863 
L 3481 4863 
L 3481 0 
L 2906 0 
L 2906 525 
Q 2725 213 2448 61 
Q 2172 -91 1784 -91 
Q 1150 -91 751 415 
Q 353 922 353 1747 
Q 353 2572 751 3078 
Q 1150 3584 1784 3584 
Q 2172 3584 2448 3432 
Q 2725 3281 2906 2969 
z
M 947 1747 
Q 947 1113 1208 752 
Q 1469 391 1925 391 
Q 2381 391 2643 752 
Q 2906 1113 2906 1747 
Q 2906 2381 2643 2742 
Q 2381 3103 1925 3103 
Q 1469 3103 1208 2742 
Q 947 2381 947 1747 
z
" transform="scale(0.015625)"/>
       <path id="DejaVuSans-65" d="M 3597 1894 
L 3597 1613 
L 953 1613 
Q 991 1019 1311 708 
Q 1631 397 2203 397 
Q 2534 397 2845 478 
Q 3156 559 3463 722 
L 3463 178 
Q 3153 47 2828 -22 
Q 2503 -91 2169 -91 
Q 1331 -91 842 396 
Q 353 884 353 1716 
Q 353 2575 817 3079 
Q 1281 3584 2069 3584 
Q 2775 3584 3186 3129 
Q 3597 2675 3597 1894 
z
M 3022 2063 
Q 3016 2534 2758 2815 
Q 2500 3097 2075 3097 
Q 1594 3097 1305 2825 
Q 1016 2553 972 2059 
L 3022 2063 
z
" transform="scale(0.015625)"/>
      </defs>
      <use xlink:href="#DejaVuSans-45"/>
      <use xlink:href="#DejaVuSans-70" x="63.183594"/>
      <use xlink:href="#DejaVuSans-69" x="126.660156"/>
      <use xlink:href="#DejaVuSans-73" x="154.443359"/>
      <use xlink:href="#DejaVuSans-6f" x="206.542969"/>
      <use xlink:href="#DejaVuSans-64" x="267.724609"/>
      <use xlink:href="#DejaVuSans-65" x="331.201172"/>
     </g>
    </g>
   </g>
   <g id="matplotlib.axis_2">
    <g id="ytick_1">
     <g id="line2d_9">
      <defs>
       <path id="m02928fdb3b" d="M 0 0 
L -3.5 0 
" style="stroke: #000000; stroke-width: 0.8"/>
      </defs>
      <g>
       <use xlink:href="#m02928fdb3b" x="132.05" y="317.631437" style="stroke: #000000; stroke-width: 0.8"/>
      </g>
     </g>
     <g id="text_10">
      <!-- 0 -->
      <g transform="translate(107.235 328.26925) scale(0.28 -0.28)">
       <use xlink:href="#DejaVuSans-30"/>
      </g>
     </g>
    </g>
    <g id="ytick_2">
     <g id="line2d_10">
      <g>
       <use xlink:href="#m02928fdb3b" x="132.05" y="244.415102" style="stroke: #000000; stroke-width: 0.8"/>
      </g>
     </g>
     <g id="text_11">
      <!-- 1000 -->
      <g transform="translate(53.79 255.052914) scale(0.28 -0.28)">
       <use xlink:href="#DejaVuSans-31"/>
       <use xlink:href="#DejaVuSans-30" x="63.623047"/>
       <use xlink:href="#DejaVuSans-30" x="127.246094"/>
       <use xlink:href="#DejaVuSans-30" x="190.869141"/>
      </g>
     </g>
    </g>
    <g id="ytick_3">
     <g id="line2d_11">
      <g>
       <use xlink:href="#m02928fdb3b" x="132.05" y="171.198766" style="stroke: #000000; stroke-width: 0.8"/>
      </g>
     </g>
     <g id="text_12">
      <!-- 2000 -->
      <g transform="translate(53.79 181.836579) scale(0.28 -0.28)">
       <use xlink:href="#DejaVuSans-32"/>
       <use xlink:href="#DejaVuSans-30" x="63.623047"/>
       <use xlink:href="#DejaVuSans-30" x="127.246094"/>
       <use xlink:href="#DejaVuSans-30" x="190.869141"/>
      </g>
     </g>
    </g>
    <g id="ytick_4">
     <g id="line2d_12">
      <g>
       <use xlink:href="#m02928fdb3b" x="132.05" y="97.98243" style="stroke: #000000; stroke-width: 0.8"/>
      </g>
     </g>
     <g id="text_13">
      <!-- 3000 -->
      <g transform="translate(53.79 108.620243) scale(0.28 -0.28)">
       <defs>
        <path id="DejaVuSans-33" d="M 2597 2516 
Q 3050 2419 3304 2112 
Q 3559 1806 3559 1356 
Q 3559 666 3084 287 
Q 2609 -91 1734 -91 
Q 1441 -91 1130 -33 
Q 819 25 488 141 
L 488 750 
Q 750 597 1062 519 
Q 1375 441 1716 441 
Q 2309 441 2620 675 
Q 2931 909 2931 1356 
Q 2931 1769 2642 2001 
Q 2353 2234 1838 2234 
L 1294 2234 
L 1294 2753 
L 1863 2753 
Q 2328 2753 2575 2939 
Q 2822 3125 2822 3475 
Q 2822 3834 2567 4026 
Q 2313 4219 1838 4219 
Q 1578 4219 1281 4162 
Q 984 4106 628 3988 
L 628 4550 
Q 988 4650 1302 4700 
Q 1616 4750 1894 4750 
Q 2613 4750 3031 4423 
Q 3450 4097 3450 3541 
Q 3450 3153 3228 2886 
Q 3006 2619 2597 2516 
z
" transform="scale(0.015625)"/>
       </defs>
       <use xlink:href="#DejaVuSans-33"/>
       <use xlink:href="#DejaVuSans-30" x="63.623047"/>
       <use xlink:href="#DejaVuSans-30" x="127.246094"/>
       <use xlink:href="#DejaVuSans-30" x="190.869141"/>
      </g>
     </g>
    </g>
    <g id="ytick_5">
     <g id="line2d_13">
      <g>
       <use xlink:href="#m02928fdb3b" x="132.05" y="24.766095" style="stroke: #000000; stroke-width: 0.8"/>
      </g>
     </g>
     <g id="text_14">
      <!-- 4000 -->
      <g transform="translate(53.79 35.403907) scale(0.28 -0.28)">
       <use xlink:href="#DejaVuSans-34"/>
       <use xlink:href="#DejaVuSans-30" x="63.623047"/>
       <use xlink:href="#DejaVuSans-30" x="127.246094"/>
       <use xlink:href="#DejaVuSans-30" x="190.869141"/>
      </g>
     </g>
    </g>
    <g id="text_15">
     <!-- $m_{vct}$ -->
     <g transform="translate(41.47125 218.98) rotate(-90) scale(0.4 -0.4)">
      <defs>
       <path id="DejaVuSans-Oblique-6d" d="M 5747 2113 
L 5338 0 
L 4763 0 
L 5166 2094 
Q 5191 2228 5203 2325 
Q 5216 2422 5216 2491 
Q 5216 2772 5059 2928 
Q 4903 3084 4622 3084 
Q 4203 3084 3875 2770 
Q 3547 2456 3450 1953 
L 3066 0 
L 2491 0 
L 2900 2094 
Q 2925 2209 2937 2307 
Q 2950 2406 2950 2484 
Q 2950 2769 2794 2926 
Q 2638 3084 2363 3084 
Q 1938 3084 1609 2770 
Q 1281 2456 1184 1953 
L 800 0 
L 225 0 
L 909 3500 
L 1484 3500 
L 1375 2956 
Q 1609 3263 1923 3423 
Q 2238 3584 2597 3584 
Q 2978 3584 3223 3384 
Q 3469 3184 3519 2828 
Q 3781 3197 4126 3390 
Q 4472 3584 4856 3584 
Q 5306 3584 5551 3325 
Q 5797 3066 5797 2591 
Q 5797 2488 5784 2364 
Q 5772 2241 5747 2113 
z
" transform="scale(0.015625)"/>
       <path id="DejaVuSans-Oblique-76" d="M 459 3500 
L 1069 3500 
L 1581 525 
L 3256 3500 
L 3866 3500 
L 1875 0 
L 1100 0 
L 459 3500 
z
" transform="scale(0.015625)"/>
       <path id="DejaVuSans-Oblique-63" d="M 3431 3366 
L 3316 2797 
Q 3109 2947 2876 3022 
Q 2644 3097 2394 3097 
Q 2119 3097 1870 3000 
Q 1622 2903 1453 2725 
Q 1184 2453 1037 2087 
Q 891 1722 891 1331 
Q 891 859 1127 628 
Q 1363 397 1844 397 
Q 2081 397 2348 469 
Q 2616 541 2906 684 
L 2797 116 
Q 2547 13 2283 -39 
Q 2019 -91 1741 -91 
Q 1044 -91 669 257 
Q 294 606 294 1253 
Q 294 1797 489 2255 
Q 684 2713 1069 3078 
Q 1331 3328 1684 3456 
Q 2038 3584 2456 3584 
Q 2700 3584 2940 3529 
Q 3181 3475 3431 3366 
z
" transform="scale(0.015625)"/>
       <path id="DejaVuSans-Oblique-74" d="M 2706 3500 
L 2619 3053 
L 1472 3053 
L 1100 1153 
Q 1081 1047 1072 975 
Q 1063 903 1063 863 
Q 1063 663 1183 572 
Q 1303 481 1569 481 
L 2150 481 
L 2053 0 
L 1503 0 
Q 991 0 739 200 
Q 488 400 488 806 
Q 488 878 497 964 
Q 506 1050 525 1153 
L 897 3053 
L 409 3053 
L 500 3500 
L 978 3500 
L 1172 4494 
L 1747 4494 
L 1556 3500 
L 2706 3500 
z
" transform="scale(0.015625)"/>
      </defs>
      <use xlink:href="#DejaVuSans-Oblique-6d"/>
      <use xlink:href="#DejaVuSans-Oblique-76" transform="translate(97.412109 -16.40625) scale(0.7)"/>
      <use xlink:href="#DejaVuSans-Oblique-63" transform="translate(138.837891 -16.40625) scale(0.7)"/>
      <use xlink:href="#DejaVuSans-Oblique-74" transform="translate(177.324219 -16.40625) scale(0.7)"/>
     </g>
    </g>
   </g>
   <g id="line2d_14">
    <path d="M 158.284091 93.125747 
L 161.78197 85.92614 
L 165.279848 82.729027 
L 168.777727 65.986892 
L 172.275606 89.342903 
L 175.773485 83.14392 
L 179.271364 100.618218 
L 182.769242 91.051284 
L 186.267121 87.195224 
L 189.765 85.633275 
L 193.262879 99.422352 
L 196.760758 86.755926 
L 200.258636 102.228978 
L 203.756515 85.535653 
L 207.254394 100.911084 
L 210.752273 103.400439 
L 214.250152 107.524959 
L 217.74803 94.223992 
L 221.245909 112.332832 
L 224.743788 123.486121 
L 228.241667 151.94287 
L 231.739545 125.560583 
L 235.237424 151.40595 
L 238.735303 178.203129 
L 242.233182 175.420908 
L 245.731061 191.382069 
L 249.228939 214.616053 
L 252.726818 214.127944 
L 256.224697 234.945789 
L 259.722576 249.808705 
L 263.220455 241.925746 
L 266.718333 250.662896 
L 270.216212 220.937063 
L 273.714091 243.24364 
L 277.21197 241.632881 
L 280.709848 232.846921 
L 284.207727 234.360058 
L 287.705606 227.233668 
L 291.203485 266.135948 
L 294.701364 274.604638 
L 298.199242 281.584595 
L 301.697121 291.981315 
L 305.195 267.795518 
L 308.692879 286.075197 
L 312.190758 293.348019 
L 315.688636 271.553957 
L 319.186515 284.513248 
L 322.684394 283.683463 
L 326.182273 282.975705 
L 329.680152 256.10531 
L 333.17803 292.298585 
L 336.675909 292.786694 
L 340.173788 284.098356 
L 343.671667 271.895633 
L 350.667424 289.882446 
L 354.165303 281.926271 
L 357.663182 301.3286 
L 361.161061 287.34428 
L 364.658939 290.492582 
L 368.156818 278.314265 
L 371.654697 284.098356 
L 375.152576 272.701013 
L 378.650455 278.241049 
L 382.148333 283.415003 
L 385.646212 292.689072 
L 389.144091 294.690319 
L 392.64197 299.083299 
L 396.139848 267.746707 
L 399.637727 293.518858 
L 403.135606 295.739753 
L 406.633485 308.99191 
L 410.131364 303.842361 
L 413.629242 306.502554 
L 417.127121 297.765405 
L 420.625 306.917447 
L 424.122879 303.500685 
L 427.620758 282.341164 
L 431.118636 297.78981 
L 434.616515 304.257253 
L 438.114394 289.467554 
L 441.612273 302.451251 
L 445.110152 301.621465 
L 448.60803 301.377411 
L 452.105909 305.038228 
L 455.603788 310.602669 
L 459.101667 307.747232 
L 462.599545 308.088908 
L 466.097424 307.576394 
L 469.595303 308.869883 
L 473.093182 305.770391 
L 476.591061 308.772261 
L 480.088939 309.065126 
L 483.586818 308.674639 
L 487.084697 307.64961 
L 490.582576 312.725943 
L 494.080455 303.085792 
L 497.578333 307.796043 
L 501.076212 307.478772 
L 504.574091 308.821072 
L 508.07197 303.329847 
L 511.569848 294.20221 
L 515.067727 307.771638 
L 518.565606 310.700291 
L 529.059242 311.578887 
L 532.557121 308.747855 
L 536.055 310.407426 
L 539.552879 314.800406 
L 543.050758 312.481889 
L 546.548636 314.068242 
L 550.046515 308.747855 
L 553.544394 315.337326 
L 557.042273 307.893665 
L 560.540152 312.57951 
L 564.03803 316.508787 
L 567.535909 310.065749 
L 571.033788 308.357368 
L 574.531667 314.165864 
L 578.029545 315.752218 
L 581.527424 310.993156 
L 585.025303 313.262863 
L 588.523182 310.822318 
L 592.021061 309.040721 
L 595.518939 311.163994 
L 599.016818 312.408672 
L 602.514697 313.897404 
L 606.012576 313.409295 
L 609.510455 309.089532 
L 613.008333 312.555105 
L 616.506212 305.404309 
L 620.004091 312.213429 
L 623.50197 313.65335 
L 626.999848 312.262239 
L 630.497727 314.263486 
L 633.995606 314.336702 
L 637.493485 314.995649 
L 640.991364 310.38302 
L 644.489242 316.1183 
L 647.987121 314.483135 
L 651.485 311.383643 
L 654.982879 308.674639 
L 658.480758 306.722203 
L 661.978636 315.215298 
L 665.476515 312.872376 
L 668.974394 314.531946 
L 672.472273 313.506917 
L 675.970152 309.52883 
L 679.46803 308.72345 
L 682.965909 314.45873 
L 682.965909 314.45873 
" clip-path="url(#p79f9fd5a2d)" style="fill: none; stroke: #0000ff; stroke-width: 3; stroke-linecap: square"/>
   </g>
   <g id="line2d_15">
    <path d="M 158.284091 76.310395 
L 161.78197 77.506262 
L 165.279848 96.688942 
L 168.777727 103.156385 
L 172.275606 89.001227 
L 175.773485 96.85978 
L 179.271364 81.923647 
L 182.769242 80.093239 
L 186.267121 97.543132 
L 189.765 88.976821 
L 193.262879 99.934866 
L 196.760758 97.201456 
L 200.258636 88.537523 
L 203.756515 102.814709 
L 207.254394 119.141951 
L 210.752273 150.60057 
L 214.250152 150.405327 
L 217.74803 180.741295 
L 221.245909 190.89396 
L 224.743788 194.237506 
L 228.241667 206.440229 
L 231.739545 216.568489 
L 235.237424 231.577838 
L 238.735303 238.631011 
L 242.233182 232.895732 
L 245.731061 249.711083 
L 249.228939 277.240426 
L 252.726818 285.025763 
L 256.224697 297.399323 
L 259.722576 292.200964 
L 263.220455 312.57951 
L 266.718333 292.127747 
L 270.216212 301.889925 
L 273.714091 307.06388 
L 277.21197 313.458106 
L 280.709848 308.406179 
L 284.207727 305.697175 
L 287.705606 314.653973 
L 291.203485 305.18466 
L 294.701364 308.18653 
L 298.199242 293.787317 
L 301.697121 296.496322 
L 305.195 304.257253 
L 308.692879 305.868013 
L 312.190758 305.404309 
L 315.688636 307.625205 
L 319.186515 305.087039 
L 322.684394 309.504424 
L 326.182273 309.357992 
L 329.680152 308.45499 
L 333.17803 311.1884 
L 336.675909 303.622712 
L 343.671667 308.99191 
L 347.169545 302.98817 
L 350.667424 309.553235 
L 354.165303 313.409295 
L 361.161061 311.505671 
L 364.658939 302.207196 
L 368.156818 311.676509 
L 371.654697 301.157762 
L 375.152576 308.528206 
L 378.650455 312.04259 
L 382.148333 307.503178 
L 385.646212 309.602046 
L 389.144091 312.799159 
L 392.64197 302.280412 
L 396.139848 307.137096 
L 399.637727 292.591451 
L 403.135606 295.446888 
L 406.633485 303.134603 
L 410.131364 306.52696 
L 413.629242 302.646494 
L 417.127121 301.743493 
L 420.625 300.52322 
L 424.122879 293.39683 
L 427.620758 301.59706 
L 431.118636 290.126501 
L 434.616515 306.478149 
L 438.114394 312.237834 
L 441.612273 278.411887 
L 445.110152 290.541393 
L 448.60803 302.060763 
L 452.105909 308.088908 
L 455.603788 298.644001 
L 459.101667 309.699668 
L 462.599545 298.936866 
L 466.097424 305.648364 
L 469.595303 312.969997 
L 473.093182 311.798536 
L 476.591061 292.859911 
L 480.088939 311.115184 
L 483.586818 310.993156 
L 487.084697 295.227239 
L 490.582576 311.798536 
L 494.080455 304.818579 
L 497.578333 302.109574 
L 501.076212 311.652103 
L 504.574091 311.676509 
L 508.07197 311.310427 
L 511.569848 294.128994 
L 515.067727 301.572654 
L 518.565606 309.309181 
L 522.063485 308.699044 
L 525.561364 271.187875 
L 529.059242 292.640262 
L 532.557121 276.508262 
L 536.055 278.607131 
L 539.552879 284.293599 
L 543.050758 286.953793 
L 546.548636 310.724696 
L 550.046515 279.192861 
L 553.544394 293.177181 
L 557.042273 308.625828 
L 560.540152 303.671523 
L 564.03803 311.45686 
L 567.535909 314.946838 
L 571.033788 308.381774 
L 574.531667 303.866766 
L 578.029545 311.505671 
L 581.527424 302.792927 
L 585.025303 314.019432 
L 588.523182 314.409919 
L 592.021061 310.090155 
L 595.518939 302.890549 
L 599.016818 303.769145 
L 602.514697 312.994403 
L 606.012576 311.359238 
L 609.510455 310.334209 
L 613.008333 315.532569 
L 616.506212 312.530699 
L 620.004091 302.231602 
L 623.50197 306.79542 
L 626.999848 314.165864 
L 630.497727 313.433701 
L 633.995606 312.335456 
L 637.493485 311.969374 
L 640.991364 315.947462 
L 644.489242 301.621465 
L 647.987121 311.969374 
L 651.485 314.800406 
L 654.982879 310.797913 
L 658.480758 308.406179 
L 661.978636 307.06388 
L 665.476515 305.892418 
L 668.974394 301.816709 
L 672.472273 314.824811 
L 675.970152 301.499438 
L 679.46803 307.869259 
L 682.965909 309.187153 
L 682.965909 309.187153 
" clip-path="url(#p79f9fd5a2d)" style="fill: none; stroke: #008000; stroke-width: 3; stroke-linecap: square"/>
   </g>
   <g id="line2d_16">
    <path d="M 158.284091 76.066341 
L 161.78197 96.981807 
L 165.279848 73.845445 
L 168.777727 68.647085 
L 172.275606 82.533784 
L 175.773485 73.894256 
L 179.271364 69.452465 
L 182.769242 56.395552 
L 186.267121 69.47687 
L 189.765 80.581348 
L 193.262879 89.098848 
L 196.760758 63.888023 
L 200.258636 64.522565 
L 203.756515 78.79975 
L 207.254394 75.382988 
L 210.752273 77.872343 
L 214.250152 84.388597 
L 217.74803 78.555696 
L 221.245909 69.647708 
L 224.743788 66.304162 
L 228.241667 73.796634 
L 231.739545 80.361699 
L 235.237424 76.749693 
L 238.735303 64.49816 
L 242.233182 71.917415 
L 245.731061 84.974328 
L 249.228939 87.122007 
L 252.726818 82.826649 
L 256.224697 74.602014 
L 259.722576 86.926764 
L 263.220455 76.237179 
L 266.718333 90.026255 
L 270.216212 94.614479 
L 273.714091 88.269063 
L 277.21197 80.630159 
L 280.709848 86.951169 
L 284.207727 68.158976 
L 287.705606 80.752186 
L 291.203485 79.092616 
L 294.701364 81.874837 
L 298.199242 66.084513 
L 301.697121 77.555073 
L 305.195 68.573869 
L 308.692879 83.14392 
L 312.190758 67.524435 
L 315.688636 74.602014 
L 319.186515 76.822909 
L 322.684394 69.769736 
L 329.680152 100.056893 
L 333.17803 70.257845 
L 336.675909 78.848561 
L 340.173788 90.245904 
L 343.671667 53.369276 
L 347.169545 87.80536 
L 350.667424 68.525058 
L 354.165303 70.428683 
L 357.663182 77.555073 
L 361.161061 81.508755 
L 364.658939 73.454958 
L 368.156818 76.261584 
L 371.654697 72.21028 
L 375.152576 74.748447 
L 378.650455 79.824779 
L 382.148333 97.030618 
L 385.646212 86.585087 
L 389.144091 77.433045 
L 392.64197 80.288483 
L 396.139848 76.310395 
L 399.637727 87.5369 
L 403.135606 83.363569 
L 406.633485 70.379872 
L 410.131364 84.559435 
L 413.629242 89.708984 
L 417.127121 88.269063 
L 420.625 74.357959 
L 424.122879 83.387974 
L 427.620758 91.026878 
L 431.118636 88.342279 
L 434.616515 68.134571 
L 438.114394 80.94743 
L 441.612273 73.82104 
L 445.110152 90.709608 
L 448.60803 81.923647 
L 452.105909 83.607623 
L 455.603788 76.969342 
L 459.101667 74.260338 
L 462.599545 76.237179 
L 466.097424 87.097602 
L 469.595303 88.781578 
L 473.093182 76.28599 
L 476.591061 80.800997 
L 480.088939 92.19834 
L 483.586818 78.628912 
L 487.084697 83.680839 
L 490.582576 93.565045 
L 494.080455 79.897995 
L 497.578333 83.363569 
L 501.076212 100.17892 
L 504.574091 96.103211 
L 508.07197 66.69465 
L 511.569848 77.603884 
L 515.067727 75.919908 
L 518.565606 100.71584 
L 522.063485 84.388597 
L 525.561364 81.655188 
L 529.059242 74.065094 
L 532.557121 90.611986 
L 536.055 81.850431 
L 539.552879 77.725911 
L 543.050758 82.411756 
L 546.548636 86.389844 
L 550.046515 82.436162 
L 553.544394 67.255975 
L 557.042273 77.335424 
L 560.540152 78.921778 
L 564.03803 74.504392 
L 567.535909 93.467423 
L 571.033788 77.188991 
L 574.531667 79.287859 
L 578.029545 78.21402 
L 581.527424 90.148282 
L 585.025303 80.239672 
L 588.523182 83.851678 
L 592.021061 84.632652 
L 595.518939 82.167702 
L 599.016818 80.093239 
L 602.514697 81.752809 
L 606.012576 78.897372 
L 609.510455 81.215889 
L 613.008333 102.228978 
L 616.506212 82.997487 
L 620.004091 90.831635 
L 623.50197 103.912954 
L 626.999848 79.629536 
L 630.497727 79.775968 
L 633.995606 78.091993 
L 637.493485 91.905475 
L 640.991364 71.380495 
L 644.489242 81.386728 
L 647.987121 81.874837 
L 651.485 87.341656 
L 654.982879 75.114528 
L 658.480758 91.466176 
L 661.978636 76.847315 
L 665.476515 86.243411 
L 668.974394 92.442394 
L 672.472273 77.164586 
L 675.970152 94.565668 
L 679.46803 87.414873 
L 682.965909 81.703998 
L 682.965909 81.703998 
" clip-path="url(#p79f9fd5a2d)" style="fill: none; stroke: #ff0000; stroke-width: 3; stroke-linecap: square"/>
   </g>
   <g id="line2d_17">
    <path d="M 158.284091 66.74346 
L 161.78197 76.60326 
L 165.279848 83.14392 
L 168.777727 65.401161 
L 172.275606 77.750316 
L 175.773485 82.143296 
L 179.271364 78.433669 
L 182.769242 69.47687 
L 186.267121 90.123877 
L 189.765 76.87172 
L 193.262879 93.882316 
L 196.760758 84.193354 
L 200.258636 83.583218 
L 203.756515 82.411756 
L 207.254394 79.409887 
L 210.752273 64.351727 
L 214.250152 86.243411 
L 217.74803 70.111412 
L 221.245909 83.192731 
L 224.743788 80.923024 
L 228.241667 85.389221 
L 235.237424 84.26657 
L 238.735303 90.709608 
L 242.233182 80.215266 
L 245.731061 77.042558 
L 249.228939 84.120137 
L 252.726818 85.364815 
L 256.224697 85.828519 
L 259.722576 89.147659 
L 263.220455 75.797881 
L 266.718333 86.46306 
L 270.216212 74.40677 
L 273.714091 86.658304 
L 277.21197 83.827272 
L 280.709848 79.190238 
L 284.207727 72.649578 
L 287.705606 105.304064 
L 291.203485 78.21402 
L 294.701364 98.031241 
L 298.199242 89.928633 
L 301.697121 86.560682 
L 305.195 96.835374 
L 308.692879 83.192731 
L 312.190758 90.489959 
L 315.688636 86.487466 
L 319.186515 80.532537 
L 322.684394 94.028748 
L 326.182273 99.568784 
L 329.680152 89.782201 
L 333.17803 93.565045 
L 336.675909 87.854171 
L 340.173788 80.898619 
L 343.671667 92.491205 
L 347.169545 77.994371 
L 350.667424 86.829142 
L 354.165303 82.460567 
L 357.663182 88.805983 
L 361.161061 86.536277 
L 364.658939 85.755302 
L 368.156818 97.567538 
L 371.654697 88.976821 
L 375.152576 92.637638 
L 378.650455 77.555073 
L 382.148333 92.808476 
L 385.646212 91.466176 
L 389.144091 103.839737 
L 392.64197 99.32473 
L 396.139848 88.903605 
L 399.637727 97.201456 
L 403.135606 87.024385 
L 406.633485 90.172688 
L 410.131364 92.4668 
L 413.629242 98.983054 
L 417.127121 87.170818 
L 420.625 100.325353 
L 424.122879 104.401062 
L 427.620758 114.334079 
L 431.118636 107.30531 
L 434.616515 118.263355 
L 438.114394 129.855942 
L 441.612273 126.951694 
L 445.110152 148.086809 
L 448.60803 151.625599 
L 452.105909 148.013593 
L 455.603788 152.650628 
L 459.101667 155.408443 
L 462.599545 169.978494 
L 466.097424 152.016086 
L 469.595303 156.799553 
L 473.093182 146.134374 
L 476.591061 165.512297 
L 480.088939 161.021695 
L 483.586818 152.967898 
L 487.084697 163.535456 
L 490.582576 162.778887 
L 494.080455 154.383414 
L 497.578333 152.186924 
L 501.076212 150.478543 
L 504.574091 151.894059 
L 508.07197 154.456631 
L 511.569848 160.802046 
L 515.067727 160.72883 
L 518.565606 157.678149 
L 522.063485 165.805163 
L 525.561364 146.646888 
L 529.059242 148.501702 
L 532.557121 158.556745 
L 536.055 157.629339 
L 539.552879 159.118071 
L 543.050758 148.770162 
L 546.548636 159.557369 
L 550.046515 160.46037 
L 553.544394 159.825829 
L 557.042273 151.869653 
L 560.540152 152.870277 
L 564.03803 166.854597 
L 567.535909 164.169998 
L 571.033788 157.263257 
L 574.531667 162.07113 
L 578.029545 156.555499 
L 581.527424 164.023565 
L 585.025303 158.678773 
L 588.523182 161.558615 
L 592.021061 161.729453 
L 595.518939 154.847118 
L 599.016818 164.389647 
L 602.514697 163.99916 
L 606.012576 165.219432 
L 609.510455 170.222548 
L 613.008333 163.657483 
L 616.506212 149.355893 
L 620.004091 152.138113 
L 623.50197 163.584267 
L 626.999848 169.295141 
L 630.497727 162.266373 
L 633.995606 152.626222 
L 637.493485 161.583021 
L 640.991364 152.040492 
L 644.489242 155.579281 
L 647.987121 166.78138 
L 651.485 163.242591 
L 654.982879 165.439081 
L 658.480758 169.221925 
L 661.978636 171.66247 
L 665.476515 169.685628 
L 668.974394 178.764454 
L 672.472273 190.747528 
L 675.970152 186.50098 
L 679.46803 210.686776 
L 682.965909 223.694879 
L 682.965909 223.694879 
" clip-path="url(#p79f9fd5a2d)" style="fill: none; stroke: #ffa500; stroke-width: 3; stroke-linecap: square"/>
   </g>
   <g id="patch_3">
    <path d="M 132.05 343.96 
L 132.05 10.8 
" style="fill: none; stroke: #000000; stroke-width: 0.8; stroke-linejoin: miter; stroke-linecap: square"/>
   </g>
   <g id="patch_4">
    <path d="M 709.2 343.96 
L 709.2 10.8 
" style="fill: none; stroke: #000000; stroke-width: 0.8; stroke-linejoin: miter; stroke-linecap: square"/>
   </g>
   <g id="patch_5">
    <path d="M 132.05 343.96 
L 709.2 343.96 
" style="fill: none; stroke: #000000; stroke-width: 0.8; stroke-linejoin: miter; stroke-linecap: square"/>
   </g>
   <g id="patch_6">
    <path d="M 132.05 10.8 
L 709.2 10.8 
" style="fill: none; stroke: #000000; stroke-width: 0.8; stroke-linejoin: miter; stroke-linecap: square"/>
   </g>
  </g>
 </g>
 <defs>
  <clipPath id="p79f9fd5a2d">
   <rect x="132.05" y="10.8" width="577.15" height="333.16"/>
  </clipPath>
 </defs>
</svg>
