<?xml version="1.0" encoding="utf-8" standalone="no"?>
<!DOCTYPE svg PUBLIC "-//W3C//DTD SVG 1.1//EN"
  "http://www.w3.org/Graphics/SVG/1.1/DTD/svg11.dtd">
<svg xmlns:xlink="http://www.w3.org/1999/xlink" width="720pt" height="432pt" viewBox="0 0 720 432" xmlns="http://www.w3.org/2000/svg" version="1.1">
 <metadata>
  <rdf:RDF xmlns:dc="http://purl.org/dc/elements/1.1/" xmlns:cc="http://creativecommons.org/ns#" xmlns:rdf="http://www.w3.org/1999/02/22-rdf-syntax-ns#">
   <cc:Work>
    <dc:type rdf:resource="http://purl.org/dc/dcmitype/StillImage"/>
    <dc:date>2025-06-19T21:21:26.185523</dc:date>
    <dc:format>image/svg+xml</dc:format>
    <dc:creator>
     <cc:Agent>
      <dc:title>Matplotlib v3.7.1, https://matplotlib.org/</dc:title>
     </cc:Agent>
    </dc:creator>
   </cc:Work>
  </rdf:RDF>
 </metadata>
 <defs>
  <style type="text/css">*{stroke-linejoin: round; stroke-linecap: butt}</style>
 </defs>
 <g id="figure_1">
  <g id="patch_1">
   <path d="M 0 432 
L 720 432 
L 720 0 
L 0 0 
z
" style="fill: #ffffff"/>
  </g>
  <g id="axes_1">
   <g id="patch_2">
    <path d="M 96.41 343.96 
L 709.2 343.96 
L 709.2 17.821121 
L 96.41 17.821121 
z
" style="fill: #ffffff"/>
   </g>
   <g id="PolyCollection_1">
    <defs>
     <path id="m8ffada8b33" d="M 124.264091 -356.002171 
L 124.264091 -348.546149 
L 127.97797 -368.504799 
L 131.691848 -354.210872 
L 135.405727 -361.454622 
L 139.119606 -348.7375 
L 142.833485 -355.983771 
L 146.547364 -352.739397 
L 150.261242 -366.203753 
L 153.975121 -342.504735 
L 157.689 -356.028357 
L 161.402879 -335.117492 
L 165.116758 -353.624258 
L 168.830636 -345.293468 
L 172.544515 -345.185148 
L 176.258394 -356.197858 
L 179.972273 -356.945074 
L 183.686152 -350.494513 
L 187.40003 -356.290004 
L 191.113909 -337.315577 
L 194.827788 -313.366065 
L 198.541667 -298.935617 
L 202.255545 -307.495199 
L 205.969424 -287.596603 
L 209.683303 -281.481594 
L 213.397182 -278.130352 
L 217.111061 -264.472302 
L 220.824939 -245.530359 
L 224.538818 -236.413674 
L 228.252697 -246.081358 
L 231.966576 -223.630098 
L 235.680455 -219.527661 
L 239.394333 -240.724332 
L 243.108212 -231.458967 
L 246.822091 -222.058205 
L 250.53597 -229.933671 
L 254.249848 -217.468627 
L 257.963727 -222.096394 
L 261.677606 -223.510863 
L 265.391485 -213.616368 
L 269.105364 -217.354068 
L 272.819242 -207.178827 
L 276.533121 -211.76648 
L 280.247 -206.545869 
L 283.960879 -202.742671 
L 287.674758 -201.904827 
L 291.388636 -214.632953 
L 295.102515 -199.898355 
L 298.816394 -206.951117 
L 302.530273 -207.591862 
L 306.244152 -204.633056 
L 309.95803 -190.167442 
L 313.671909 -187.161586 
L 317.385788 -191.604284 
L 321.099667 -188.861383 
L 324.813545 -177.370854 
L 328.527424 -177.532182 
L 332.241303 -185.735085 
L 335.955182 -184.157845 
L 339.669061 -176.097375 
L 343.382939 -188.987025 
L 347.096818 -180.477887 
L 350.810697 -187.265696 
L 354.524576 -183.469678 
L 358.238455 -185.224162 
L 361.952333 -177.691696 
L 365.666212 -176.733574 
L 369.380091 -194.404937 
L 373.09397 -181.201336 
L 376.807848 -185.780834 
L 380.521727 -183.459201 
L 384.235606 -185.475981 
L 387.949485 -180.130968 
L 391.663364 -178.487916 
L 395.377242 -187.347343 
L 399.091121 -174.292635 
L 402.805 -176.246263 
L 406.518879 -171.435697 
L 410.232758 -164.658294 
L 413.946636 -172.239305 
L 417.660515 -171.145127 
L 421.374394 -169.400914 
L 425.088273 -172.76795 
L 428.802152 -166.220144 
L 432.51603 -167.255611 
L 436.229909 -152.161856 
L 439.943788 -158.113798 
L 443.657667 -158.057182 
L 447.371545 -148.525846 
L 451.085424 -141.48831 
L 454.799303 -148.58845 
L 458.513182 -143.297008 
L 462.227061 -141.503679 
L 465.940939 -145.072404 
L 469.654818 -150.059877 
L 473.368697 -148.967546 
L 477.082576 -150.732093 
L 480.796455 -149.933304 
L 484.510333 -153.095751 
L 488.224212 -152.952205 
L 491.938091 -153.49038 
L 495.65197 -153.900204 
L 499.365848 -142.284802 
L 503.079727 -144.080197 
L 506.793606 -139.36854 
L 510.507485 -138.432216 
L 514.221364 -130.474551 
L 517.935242 -138.11267 
L 521.649121 -134.12762 
L 525.363 -141.351957 
L 529.076879 -139.705549 
L 532.790758 -144.014178 
L 536.504636 -145.291625 
L 540.218515 -135.826004 
L 543.932394 -141.236111 
L 547.646273 -140.380036 
L 551.360152 -148.574526 
L 555.07403 -142.15473 
L 558.787909 -138.842943 
L 562.501788 -137.701244 
L 566.215667 -131.100081 
L 569.929545 -138.384776 
L 573.643424 -140.09731 
L 577.357303 -126.916174 
L 581.071182 -131.167195 
L 584.785061 -116.576951 
L 588.498939 -116.558568 
L 592.212818 -122.183587 
L 595.926697 -117.536277 
L 599.640576 -112.880288 
L 603.354455 -107.673446 
L 607.068333 -114.859487 
L 610.782212 -107.803186 
L 614.496091 -113.529334 
L 618.20997 -115.873191 
L 621.923848 -122.295294 
L 625.637727 -117.628987 
L 629.351606 -118.257322 
L 633.065485 -124.001943 
L 636.779364 -122.241229 
L 640.493242 -120.355805 
L 644.207121 -117.468208 
L 647.921 -106.524187 
L 651.634879 -102.864494 
L 655.348758 -107.991287 
L 659.062636 -116.505969 
L 662.776515 -110.763334 
L 666.490394 -109.15637 
L 670.204273 -114.936001 
L 673.918152 -113.79822 
L 677.63203 -121.4129 
L 681.345909 -117.402498 
L 681.345909 -144.338198 
L 681.345909 -144.338198 
L 677.63203 -149.607085 
L 673.918152 -147.422836 
L 670.204273 -141.53406 
L 666.490394 -140.187197 
L 662.776515 -145.187086 
L 659.062636 -149.985723 
L 655.348758 -143.430841 
L 651.634879 -159.767013 
L 647.921 -156.701195 
L 644.207121 -163.424939 
L 640.493242 -165.585274 
L 636.779364 -153.975157 
L 633.065485 -168.54599 
L 629.351606 -176.146468 
L 625.637727 -182.119673 
L 621.923848 -190.370135 
L 618.20997 -188.997636 
L 614.496091 -194.830505 
L 610.782212 -208.94513 
L 607.068333 -211.539288 
L 603.354455 -205.957029 
L 599.640576 -212.108036 
L 595.926697 -216.285928 
L 592.212818 -193.748151 
L 588.498939 -197.740016 
L 584.785061 -203.586143 
L 581.071182 -207.554474 
L 577.357303 -214.106759 
L 573.643424 -192.017506 
L 569.929545 -208.799604 
L 566.215667 -212.81799 
L 562.501788 -212.749445 
L 558.787909 -203.441974 
L 555.07403 -203.173793 
L 551.360152 -197.49634 
L 547.646273 -196.931182 
L 543.932394 -210.402328 
L 540.218515 -195.249532 
L 536.504636 -206.643751 
L 532.790758 -197.751098 
L 529.076879 -219.133617 
L 525.363 -213.849728 
L 521.649121 -217.213882 
L 517.935242 -214.41658 
L 514.221364 -216.709829 
L 510.507485 -218.922264 
L 506.793606 -232.016223 
L 503.079727 -211.938066 
L 499.365848 -210.838323 
L 495.65197 -221.641681 
L 491.938091 -213.811497 
L 488.224212 -230.829687 
L 484.510333 -222.594602 
L 480.796455 -222.713443 
L 477.082576 -207.958605 
L 473.368697 -211.95018 
L 469.654818 -221.027949 
L 465.940939 -231.657229 
L 462.227061 -216.221972 
L 458.513182 -222.668651 
L 454.799303 -219.752707 
L 451.085424 -205.993008 
L 447.371545 -210.758726 
L 443.657667 -196.9218 
L 439.943788 -201.541945 
L 436.229909 -196.804147 
L 432.51603 -197.819236 
L 428.802152 -203.382996 
L 425.088273 -208.193039 
L 421.374394 -214.974852 
L 417.660515 -216.571183 
L 413.946636 -219.040252 
L 410.232758 -216.896569 
L 406.518879 -213.533944 
L 402.805 -206.050943 
L 399.091121 -225.301164 
L 395.377242 -223.084665 
L 391.663364 -220.140837 
L 387.949485 -212.559041 
L 384.235606 -217.384127 
L 380.521727 -211.457837 
L 376.807848 -230.144512 
L 373.09397 -213.047593 
L 369.380091 -223.970141 
L 365.666212 -213.284 
L 361.952333 -217.299576 
L 358.238455 -227.880281 
L 354.524576 -223.918723 
L 350.810697 -212.328103 
L 347.096818 -222.679159 
L 343.382939 -216.91669 
L 339.669061 -224.016064 
L 335.955182 -233.400655 
L 332.241303 -246.892979 
L 328.527424 -245.000016 
L 324.813545 -241.672332 
L 321.099667 -245.548304 
L 317.385788 -240.801077 
L 313.671909 -242.794043 
L 309.95803 -229.766556 
L 306.244152 -280.775598 
L 302.530273 -238.175674 
L 298.816394 -254.776794 
L 295.102515 -253.366846 
L 291.388636 -251.994423 
L 287.674758 -237.107388 
L 283.960879 -244.212614 
L 280.247 -239.518604 
L 276.533121 -250.555306 
L 272.819242 -239.850693 
L 269.105364 -242.889158 
L 265.391485 -256.945425 
L 261.677606 -268.059239 
L 257.963727 -273.111189 
L 254.249848 -267.865793 
L 250.53597 -272.623108 
L 246.822091 -290.297501 
L 243.108212 -306.581809 
L 239.394333 -291.3777 
L 235.680455 -313.465182 
L 231.966576 -321.759874 
L 228.252697 -329.225038 
L 224.538818 -330.875418 
L 220.824939 -342.76704 
L 217.111061 -344.536468 
L 213.397182 -351.144384 
L 209.683303 -336.286825 
L 205.969424 -353.110216 
L 202.255545 -399.354384 
L 198.541667 -356.543828 
L 194.827788 -362.602048 
L 191.113909 -359.58661 
L 187.40003 -369.118156 
L 183.686152 -379.070767 
L 179.972273 -370.615881 
L 176.258394 -379.083464 
L 172.544515 -371.686067 
L 168.830636 -369.57342 
L 165.116758 -366.513266 
L 161.402879 -362.378569 
L 157.689 -366.039259 
L 153.975121 -362.414757 
L 150.261242 -371.750004 
L 146.547364 -376.825884 
L 142.833485 -370.389435 
L 139.119606 -363.531188 
L 135.405727 -371.451202 
L 131.691848 -360.656017 
L 127.97797 -373.903016 
L 124.264091 -356.002171 
z
" style="stroke: #0000ff; stroke-opacity: 0.3"/>
    </defs>
    <g clip-path="url(#p8e404343f7)">
     <use xlink:href="#m8ffada8b33" x="0" y="432" style="fill: #0000ff; fill-opacity: 0.3; stroke: #0000ff; stroke-opacity: 0.3"/>
    </g>
   </g>
   <g id="PolyCollection_2">
    <defs>
     <path id="m24e5a91a91" d="M 124.264091 -367.610279 
L 124.264091 -364.3305 
L 127.97797 -366.017316 
L 131.691848 -342.094786 
L 135.405727 -338.121637 
L 139.119606 -352.569434 
L 142.833485 -346.972403 
L 146.547364 -348.887932 
L 150.261242 -347.719527 
L 153.975121 -344.818288 
L 157.689 -350.120829 
L 161.402879 -352.01125 
L 165.116758 -359.839436 
L 168.830636 -355.90919 
L 172.544515 -355.166649 
L 176.258394 -297.936281 
L 179.972273 -300.081136 
L 183.686152 -282.49557 
L 187.40003 -269.525668 
L 191.113909 -252.671996 
L 194.827788 -254.475643 
L 198.541667 -253.56571 
L 202.255545 -225.419782 
L 205.969424 -230.108727 
L 209.683303 -222.22298 
L 213.397182 -246.42273 
L 217.111061 -234.572893 
L 220.824939 -227.814287 
L 224.538818 -226.966069 
L 228.252697 -211.13768 
L 231.966576 -213.294851 
L 235.680455 -209.798588 
L 239.394333 -213.675401 
L 243.108212 -199.325537 
L 246.822091 -205.403628 
L 250.53597 -206.844391 
L 254.249848 -199.648207 
L 257.963727 -187.405726 
L 261.677606 -196.707266 
L 265.391485 -199.351702 
L 269.105364 -211.421051 
L 272.819242 -207.551005 
L 276.533121 -219.595672 
L 280.247 -205.17705 
L 283.960879 -208.291587 
L 287.674758 -192.781214 
L 291.388636 -208.82303 
L 295.102515 -201.952684 
L 298.816394 -204.758996 
L 302.530273 -197.095033 
L 306.244152 -209.622573 
L 309.95803 -201.084397 
L 313.671909 -198.242524 
L 317.385788 -197.659322 
L 321.099667 -194.541754 
L 324.813545 -190.537178 
L 328.527424 -203.854048 
L 332.241303 -201.834002 
L 335.955182 -207.613593 
L 339.669061 -195.341085 
L 343.382939 -181.861256 
L 347.096818 -204.57176 
L 350.810697 -188.709331 
L 354.524576 -183.668503 
L 358.238455 -192.201274 
L 361.952333 -184.21579 
L 365.666212 -181.912619 
L 369.380091 -182.561518 
L 373.09397 -181.715821 
L 376.807848 -168.890042 
L 380.521727 -168.017469 
L 384.235606 -173.369686 
L 387.949485 -173.292318 
L 391.663364 -180.075924 
L 395.377242 -179.116783 
L 399.091121 -164.930565 
L 402.805 -178.352475 
L 406.518879 -179.825794 
L 410.232758 -179.596043 
L 413.946636 -181.340652 
L 417.660515 -205.338514 
L 421.374394 -194.787442 
L 425.088273 -176.833886 
L 428.802152 -173.210752 
L 432.51603 -179.246347 
L 436.229909 -174.761734 
L 439.943788 -175.644111 
L 443.657667 -183.974322 
L 447.371545 -167.640023 
L 451.085424 -188.651808 
L 454.799303 -193.887075 
L 458.513182 -185.93305 
L 462.227061 -178.687102 
L 465.940939 -196.990387 
L 469.654818 -182.786925 
L 473.368697 -199.302503 
L 477.082576 -187.822948 
L 480.796455 -189.313442 
L 484.510333 -187.246987 
L 488.224212 -188.590227 
L 491.938091 -187.976568 
L 495.65197 -189.094464 
L 499.365848 -184.606639 
L 503.079727 -179.713099 
L 506.793606 -199.124978 
L 510.507485 -183.801666 
L 514.221364 -186.712993 
L 517.935242 -184.93063 
L 521.649121 -179.012884 
L 525.363 -176.181626 
L 529.076879 -193.198102 
L 532.790758 -185.654154 
L 536.504636 -190.152692 
L 540.218515 -191.739073 
L 543.932394 -186.49656 
L 547.646273 -175.024171 
L 551.360152 -195.420655 
L 555.07403 -193.55376 
L 558.787909 -189.546529 
L 562.501788 -194.337479 
L 566.215667 -186.954401 
L 569.929545 -189.941211 
L 573.643424 -198.616853 
L 577.357303 -194.118615 
L 581.071182 -193.123683 
L 584.785061 -195.168314 
L 588.498939 -185.906541 
L 592.212818 -192.016727 
L 595.926697 -187.125723 
L 599.640576 -194.8391 
L 603.354455 -184.940305 
L 607.068333 -194.96654 
L 610.782212 -186.471147 
L 614.496091 -184.895912 
L 618.20997 -195.804286 
L 621.923848 -185.578893 
L 625.637727 -200.764388 
L 629.351606 -199.737782 
L 633.065485 -183.811445 
L 636.779364 -197.583669 
L 640.493242 -195.227502 
L 644.207121 -189.48495 
L 647.921 -180.617009 
L 651.634879 -183.72873 
L 655.348758 -193.81573 
L 659.062636 -191.378294 
L 662.776515 -184.291268 
L 666.490394 -182.325966 
L 670.204273 -183.667817 
L 673.918152 -203.462022 
L 677.63203 -194.894274 
L 681.345909 -185.247447 
L 681.345909 -217.389958 
L 681.345909 -217.389958 
L 677.63203 -224.96549 
L 673.918152 -238.074159 
L 670.204273 -222.829772 
L 666.490394 -223.355045 
L 662.776515 -209.363787 
L 659.062636 -205.171899 
L 655.348758 -226.266737 
L 651.634879 -201.537848 
L 647.921 -205.094975 
L 644.207121 -206.545602 
L 640.493242 -211.121619 
L 636.779364 -213.145276 
L 633.065485 -194.32864 
L 629.351606 -214.851347 
L 625.637727 -206.40131 
L 621.923848 -210.080487 
L 618.20997 -202.230593 
L 614.496091 -206.457879 
L 610.782212 -200.354351 
L 607.068333 -201.954824 
L 603.354455 -198.396181 
L 599.640576 -211.287318 
L 595.926697 -204.376536 
L 592.212818 -209.95257 
L 588.498939 -199.137335 
L 584.785061 -207.988731 
L 581.071182 -201.867589 
L 577.357303 -200.57572 
L 573.643424 -215.601104 
L 569.929545 -222.643591 
L 566.215667 -225.333464 
L 562.501788 -213.719031 
L 558.787909 -202.1042 
L 555.07403 -215.913201 
L 551.360152 -211.967746 
L 547.646273 -199.25573 
L 543.932394 -231.73005 
L 540.218515 -224.112039 
L 536.504636 -218.79463 
L 532.790758 -227.82146 
L 529.076879 -224.657336 
L 525.363 -228.53434 
L 521.649121 -232.755341 
L 517.935242 -236.41382 
L 514.221364 -233.369474 
L 510.507485 -211.857715 
L 506.793606 -215.389916 
L 503.079727 -225.225569 
L 499.365848 -214.838691 
L 495.65197 -195.726708 
L 491.938091 -199.368571 
L 488.224212 -216.571144 
L 484.510333 -219.176368 
L 480.796455 -204.935487 
L 477.082576 -206.500216 
L 473.368697 -220.779964 
L 469.654818 -205.894431 
L 465.940939 -213.44162 
L 462.227061 -224.915349 
L 458.513182 -203.936055 
L 454.799303 -213.05592 
L 451.085424 -217.474609 
L 447.371545 -225.64386 
L 443.657667 -226.977326 
L 439.943788 -224.023923 
L 436.229909 -214.661965 
L 432.51603 -232.89305 
L 428.802152 -245.015857 
L 425.088273 -230.480281 
L 421.374394 -222.177184 
L 417.660515 -234.34181 
L 413.946636 -227.309732 
L 410.232758 -216.137572 
L 406.518879 -218.283319 
L 402.805 -186.648138 
L 399.091121 -227.685209 
L 395.377242 -230.350178 
L 391.663364 -219.072469 
L 387.949485 -228.676979 
L 384.235606 -221.992758 
L 380.521727 -224.301368 
L 376.807848 -223.725732 
L 373.09397 -231.611325 
L 369.380091 -211.984348 
L 365.666212 -220.873255 
L 361.952333 -212.63134 
L 358.238455 -225.728398 
L 354.524576 -241.536131 
L 350.810697 -234.268273 
L 347.096818 -246.689114 
L 343.382939 -225.972551 
L 339.669061 -224.37021 
L 335.955182 -226.424923 
L 332.241303 -208.820708 
L 328.527424 -213.407515 
L 324.813545 -207.274997 
L 321.099667 -213.292052 
L 317.385788 -212.401514 
L 313.671909 -216.123902 
L 309.95803 -210.238422 
L 306.244152 -227.830721 
L 302.530273 -213.040037 
L 298.816394 -221.039512 
L 295.102515 -221.767264 
L 291.388636 -218.534398 
L 287.674758 -210.5243 
L 283.960879 -220.624762 
L 280.247 -226.931374 
L 276.533121 -224.612944 
L 272.819242 -229.159946 
L 269.105364 -230.11513 
L 265.391485 -219.171844 
L 261.677606 -215.580599 
L 257.963727 -223.026281 
L 254.249848 -211.971549 
L 250.53597 -228.233405 
L 246.822091 -231.08462 
L 243.108212 -226.1018 
L 239.394333 -242.781875 
L 235.680455 -221.493259 
L 231.966576 -240.118819 
L 228.252697 -259.424113 
L 224.538818 -248.124017 
L 220.824939 -265.092032 
L 217.111061 -281.197592 
L 213.397182 -316.041132 
L 209.683303 -329.105736 
L 205.969424 -334.582164 
L 202.255545 -333.703537 
L 198.541667 -346.163773 
L 194.827788 -329.21923 
L 191.113909 -347.725595 
L 187.40003 -350.321311 
L 183.686152 -371.499189 
L 179.972273 -367.350032 
L 176.258394 -374.765522 
L 172.544515 -358.809428 
L 168.830636 -379.520601 
L 165.116758 -368.166924 
L 161.402879 -354.689864 
L 157.689 -375.806971 
L 153.975121 -355.127506 
L 150.261242 -387.339092 
L 146.547364 -365.459316 
L 142.833485 -366.038628 
L 139.119606 -363.336735 
L 135.405727 -356.479286 
L 131.691848 -359.038756 
L 127.97797 -380.473386 
L 124.264091 -367.610279 
z
" style="stroke: #008000; stroke-opacity: 0.3"/>
    </defs>
    <g clip-path="url(#p8e404343f7)">
     <use xlink:href="#m24e5a91a91" x="0" y="432" style="fill: #008000; fill-opacity: 0.3; stroke: #008000; stroke-opacity: 0.3"/>
    </g>
   </g>
   <g id="PolyCollection_3">
    <defs>
     <path id="mbd8b5504b9" d="M 124.264091 -370.004633 
L 124.264091 -341.447477 
L 127.97797 -349.872878 
L 131.691848 -365.459439 
L 135.405727 -363.706036 
L 139.119606 -365.917653 
L 142.833485 -366.297662 
L 146.547364 -351.722111 
L 150.261242 -365.550497 
L 153.975121 -373.8728 
L 157.689 -363.669221 
L 161.402879 -353.479599 
L 165.116758 -369.08512 
L 168.830636 -370.64722 
L 172.544515 -353.089934 
L 176.258394 -354.180236 
L 179.972273 -350.329434 
L 183.686152 -364.196424 
L 187.40003 -354.774162 
L 191.113909 -364.579807 
L 194.827788 -358.340452 
L 198.541667 -354.724546 
L 202.255545 -363.950261 
L 205.969424 -353.549247 
L 209.683303 -361.488841 
L 213.397182 -358.65043 
L 217.111061 -354.978613 
L 220.824939 -346.148341 
L 224.538818 -340.288407 
L 228.252697 -360.892032 
L 231.966576 -367.841429 
L 235.680455 -342.569674 
L 239.394333 -353.444051 
L 243.108212 -337.951753 
L 246.822091 -352.699596 
L 250.53597 -358.99131 
L 254.249848 -350.814447 
L 257.963727 -346.429032 
L 261.677606 -341.457884 
L 265.391485 -343.724192 
L 269.105364 -326.071371 
L 272.819242 -342.300537 
L 276.533121 -345.348345 
L 280.247 -345.999221 
L 283.960879 -338.631549 
L 287.674758 -344.351542 
L 291.388636 -340.278437 
L 295.102515 -343.400436 
L 298.816394 -347.422239 
L 302.530273 -337.237237 
L 306.244152 -355.447405 
L 309.95803 -356.933568 
L 313.671909 -353.054112 
L 317.385788 -345.912278 
L 321.099667 -350.577356 
L 324.813545 -349.570541 
L 328.527424 -350.406061 
L 332.241303 -324.01152 
L 335.955182 -343.201685 
L 339.669061 -348.157971 
L 343.382939 -333.140964 
L 347.096818 -343.130009 
L 350.810697 -337.845369 
L 354.524576 -344.516766 
L 358.238455 -350.222065 
L 361.952333 -363.622409 
L 365.666212 -350.897384 
L 369.380091 -351.436153 
L 373.09397 -342.975177 
L 376.807848 -345.995347 
L 380.521727 -343.66221 
L 384.235606 -350.813621 
L 387.949485 -344.772126 
L 391.663364 -327.247674 
L 395.377242 -335.928052 
L 399.091121 -344.025728 
L 402.805 -346.76084 
L 406.518879 -341.287204 
L 410.232758 -355.399144 
L 413.946636 -345.013604 
L 417.660515 -339.705055 
L 421.374394 -340.278783 
L 425.088273 -346.484746 
L 428.802152 -356.904911 
L 432.51603 -335.088227 
L 436.229909 -349.099965 
L 439.943788 -335.630737 
L 443.657667 -342.500114 
L 447.371545 -340.728562 
L 451.085424 -345.920227 
L 454.799303 -332.787417 
L 458.513182 -338.118921 
L 462.227061 -346.28335 
L 465.940939 -335.438755 
L 469.654818 -339.623678 
L 473.368697 -326.786243 
L 477.082576 -354.136343 
L 480.796455 -346.103513 
L 484.510333 -338.283699 
L 488.224212 -353.105578 
L 491.938091 -341.270992 
L 495.65197 -353.195989 
L 499.365848 -349.52179 
L 503.079727 -333.04553 
L 506.793606 -351.59898 
L 510.507485 -359.761297 
L 514.221364 -359.69637 
L 517.935242 -336.652716 
L 521.649121 -355.66199 
L 525.363 -366.621803 
L 529.076879 -360.178402 
L 532.790758 -348.832779 
L 536.504636 -360.395139 
L 540.218515 -359.288541 
L 543.932394 -354.152873 
L 547.646273 -363.573686 
L 551.360152 -358.706619 
L 555.07403 -368.055613 
L 558.787909 -357.040233 
L 562.501788 -352.566943 
L 566.215667 -366.245005 
L 569.929545 -359.984525 
L 573.643424 -349.918049 
L 577.357303 -349.719265 
L 581.071182 -368.696373 
L 584.785061 -338.099932 
L 588.498939 -353.113152 
L 592.212818 -346.979216 
L 595.926697 -348.938661 
L 599.640576 -368.514726 
L 603.354455 -345.312446 
L 607.068333 -351.937843 
L 610.782212 -351.093826 
L 614.496091 -358.416588 
L 618.20997 -354.331579 
L 621.923848 -370.072764 
L 625.637727 -341.933069 
L 629.351606 -364.458884 
L 633.065485 -358.604382 
L 636.779364 -352.388573 
L 640.493242 -350.864152 
L 644.207121 -353.45568 
L 647.921 -345.963976 
L 651.634879 -338.778648 
L 655.348758 -363.833302 
L 659.062636 -365.980776 
L 662.776515 -345.846836 
L 666.490394 -354.081934 
L 670.204273 -356.139231 
L 673.918152 -337.679614 
L 677.63203 -345.131555 
L 681.345909 -352.214427 
L 681.345909 -369.110846 
L 681.345909 -369.110846 
L 677.63203 -368.918756 
L 673.918152 -360.633024 
L 670.204273 -364.592168 
L 666.490394 -367.911448 
L 662.776515 -367.461132 
L 659.062636 -375.387759 
L 655.348758 -372.413066 
L 651.634879 -377.275989 
L 647.921 -381.96815 
L 644.207121 -374.253743 
L 640.493242 -381.893203 
L 636.779364 -387.940682 
L 633.065485 -377.71622 
L 629.351606 -381.437943 
L 625.637727 -373.824631 
L 621.923848 -388.221192 
L 618.20997 -363.801619 
L 614.496091 -381.615729 
L 610.782212 -378.026048 
L 607.068333 -358.029581 
L 603.354455 -353.742535 
L 599.640576 -377.827507 
L 595.926697 -362.587683 
L 592.212818 -379.987864 
L 588.498939 -383.20745 
L 584.785061 -370.679743 
L 581.071182 -376.309643 
L 577.357303 -364.627983 
L 573.643424 -370.293709 
L 569.929545 -372.25319 
L 566.215667 -372.748032 
L 562.501788 -382.417442 
L 558.787909 -375.939826 
L 555.07403 -377.766981 
L 551.360152 -360.911265 
L 547.646273 -375.938991 
L 543.932394 -376.674391 
L 540.218515 -377.403233 
L 536.504636 -367.75969 
L 532.790758 -358.387976 
L 529.076879 -380.299322 
L 525.363 -384.54566 
L 521.649121 -387.488168 
L 517.935242 -354.162258 
L 514.221364 -370.982426 
L 510.507485 -366.314971 
L 506.793606 -368.167372 
L 503.079727 -359.25413 
L 499.365848 -376.109073 
L 495.65197 -385.500111 
L 491.938091 -362.757688 
L 488.224212 -361.909779 
L 484.510333 -360.177408 
L 480.796455 -373.217434 
L 477.082576 -367.634336 
L 473.368697 -343.688532 
L 469.654818 -369.230232 
L 465.940939 -371.039657 
L 462.227061 -368.509304 
L 458.513182 -372.665081 
L 454.799303 -361.665038 
L 451.085424 -361.300528 
L 447.371545 -370.649315 
L 443.657667 -366.94767 
L 439.943788 -363.127308 
L 436.229909 -372.967651 
L 432.51603 -378.88785 
L 428.802152 -373.18001 
L 425.088273 -381.670083 
L 421.374394 -355.881061 
L 417.660515 -370.262369 
L 413.946636 -380.765727 
L 410.232758 -365.035317 
L 406.518879 -366.007785 
L 402.805 -365.87902 
L 399.091121 -372.325847 
L 395.377242 -356.000437 
L 391.663364 -360.523693 
L 387.949485 -371.579448 
L 384.235606 -378.974363 
L 380.521727 -366.899089 
L 376.807848 -378.299298 
L 373.09397 -359.643051 
L 369.380091 -362.836861 
L 365.666212 -369.314375 
L 361.952333 -384.872619 
L 358.238455 -373.256002 
L 354.524576 -374.952649 
L 350.810697 -376.427645 
L 347.096818 -382.723556 
L 343.382939 -389.075121 
L 339.669061 -380.293795 
L 335.955182 -380.499086 
L 332.241303 -370.737872 
L 328.527424 -376.189848 
L 324.813545 -363.960129 
L 321.099667 -374.385398 
L 317.385788 -367.544159 
L 313.671909 -383.860365 
L 309.95803 -384.65767 
L 306.244152 -364.318948 
L 302.530273 -368.944237 
L 298.816394 -372.12141 
L 295.102515 -370.204469 
L 291.388636 -392.924325 
L 287.674758 -366.358226 
L 283.960879 -366.58488 
L 280.247 -385.273448 
L 276.533121 -361.946644 
L 272.819242 -386.819338 
L 269.105364 -371.276222 
L 265.391485 -373.147022 
L 261.677606 -366.059809 
L 257.963727 -376.974802 
L 254.249848 -367.615688 
L 250.53597 -372.058656 
L 246.822091 -364.171619 
L 243.108212 -351.97241 
L 239.394333 -365.728427 
L 235.680455 -377.864787 
L 231.966576 -377.535758 
L 228.252697 -384.55939 
L 224.538818 -375.543528 
L 220.824939 -370.203234 
L 217.111061 -360.927556 
L 213.397182 -380.862247 
L 209.683303 -371.639686 
L 205.969424 -378.243063 
L 202.255545 -370.069078 
L 198.541667 -375.805781 
L 194.827788 -380.355648 
L 191.113909 -371.146921 
L 187.40003 -379.690583 
L 183.686152 -377.320579 
L 179.972273 -370.773136 
L 176.258394 -368.258552 
L 172.544515 -387.387789 
L 168.830636 -390.46764 
L 165.116758 -381.933875 
L 161.402879 -365.767114 
L 157.689 -378.14472 
L 153.975121 -380.486739 
L 150.261242 -374.704523 
L 146.547364 -372.201363 
L 142.833485 -380.118806 
L 139.119606 -368.844029 
L 135.405727 -390.282331 
L 131.691848 -380.511623 
L 127.97797 -361.653467 
L 124.264091 -370.004633 
z
" style="stroke: #ff0000; stroke-opacity: 0.3"/>
    </defs>
    <g clip-path="url(#p8e404343f7)">
     <use xlink:href="#mbd8b5504b9" x="0" y="432" style="fill: #ff0000; fill-opacity: 0.3; stroke: #ff0000; stroke-opacity: 0.3"/>
    </g>
   </g>
   <g id="PolyCollection_4">
    <defs>
     <path id="medb0f7500e" d="M 124.264091 -377.30652 
L 124.264091 -366.73445 
L 127.97797 -350.364646 
L 131.691848 -352.11183 
L 135.405727 -372.353342 
L 139.119606 -350.444053 
L 142.833485 -351.397624 
L 146.547364 -362.87504 
L 150.261242 -361.797803 
L 153.975121 -345.665947 
L 157.689 -346.244789 
L 161.402879 -361.170723 
L 165.116758 -365.057546 
L 168.830636 -349.574148 
L 172.544515 -357.969199 
L 176.258394 -344.929416 
L 179.972273 -372.469946 
L 183.686152 -352.986265 
L 187.40003 -364.003973 
L 191.113909 -364.785375 
L 194.827788 -352.218502 
L 198.541667 -354.395488 
L 202.255545 -342.799219 
L 205.969424 -351.369195 
L 209.683303 -329.955065 
L 213.397182 -348.026477 
L 217.111061 -351.351777 
L 220.824939 -334.058743 
L 224.538818 -338.986295 
L 228.252697 -347.785415 
L 231.966576 -338.493395 
L 235.680455 -349.29548 
L 239.394333 -341.639726 
L 243.108212 -347.5721 
L 246.822091 -346.693999 
L 250.53597 -343.664218 
L 254.249848 -353.885229 
L 257.963727 -344.06936 
L 261.677606 -348.417616 
L 265.391485 -336.17736 
L 269.105364 -342.296033 
L 272.819242 -327.601334 
L 276.533121 -333.033719 
L 280.247 -349.872019 
L 283.960879 -340.352568 
L 287.674758 -331.099316 
L 291.388636 -341.235881 
L 295.102515 -346.640161 
L 298.816394 -337.547433 
L 302.530273 -340.228623 
L 306.244152 -356.718865 
L 309.95803 -335.515779 
L 313.671909 -340.145355 
L 317.385788 -330.868535 
L 321.099667 -338.827276 
L 324.813545 -355.070648 
L 328.527424 -345.1338 
L 332.241303 -340.542134 
L 335.955182 -349.124349 
L 339.669061 -349.007546 
L 343.382939 -345.714221 
L 347.096818 -344.069286 
L 350.810697 -351.458014 
L 354.524576 -348.397625 
L 358.238455 -346.876371 
L 361.952333 -348.014792 
L 365.666212 -344.867341 
L 369.380091 -349.353514 
L 373.09397 -338.934843 
L 376.807848 -344.503235 
L 380.521727 -342.676164 
L 384.235606 -336.812137 
L 387.949485 -351.966431 
L 391.663364 -339.735809 
L 395.377242 -339.464967 
L 399.091121 -343.64001 
L 402.805 -322.453506 
L 406.518879 -343.760878 
L 410.232758 -326.545337 
L 413.946636 -329.811431 
L 417.660515 -294.756583 
L 421.374394 -292.440255 
L 425.088273 -291.050638 
L 428.802152 -275.598736 
L 432.51603 -273.862948 
L 436.229909 -278.226642 
L 439.943788 -271.272368 
L 443.657667 -262.325226 
L 447.371545 -247.783427 
L 451.085424 -253.814225 
L 454.799303 -256.809211 
L 458.513182 -239.61397 
L 462.227061 -236.583684 
L 465.940939 -240.669535 
L 469.654818 -236.638276 
L 473.368697 -246.741335 
L 477.082576 -237.42559 
L 480.796455 -259.596217 
L 484.510333 -232.993022 
L 488.224212 -235.979127 
L 491.938091 -247.87219 
L 495.65197 -233.627414 
L 499.365848 -240.063268 
L 503.079727 -237.77603 
L 506.793606 -260.940172 
L 510.507485 -242.082907 
L 514.221364 -236.862157 
L 517.935242 -245.84762 
L 521.649121 -235.933707 
L 525.363 -254.616839 
L 529.076879 -247.14186 
L 532.790758 -252.686685 
L 536.504636 -245.362573 
L 540.218515 -244.33319 
L 543.932394 -255.92305 
L 547.646273 -249.353527 
L 551.360152 -259.736827 
L 555.07403 -263.037203 
L 558.787909 -263.316988 
L 562.501788 -245.152111 
L 566.215667 -250.294894 
L 569.929545 -225.968776 
L 573.643424 -237.769477 
L 577.357303 -250.996808 
L 581.071182 -241.322476 
L 584.785061 -234.697781 
L 588.498939 -240.087377 
L 592.212818 -250.540745 
L 595.926697 -235.49151 
L 599.640576 -229.093504 
L 603.354455 -235.394167 
L 607.068333 -241.755226 
L 610.782212 -240.459917 
L 614.496091 -237.298188 
L 618.20997 -236.382745 
L 621.923848 -251.364283 
L 625.637727 -247.151704 
L 629.351606 -242.500775 
L 633.065485 -233.255627 
L 636.779364 -227.433427 
L 640.493242 -229.046786 
L 644.207121 -238.673438 
L 647.921 -230.625421 
L 651.634879 -238.325173 
L 655.348758 -243.800972 
L 659.062636 -228.957949 
L 662.776515 -230.73488 
L 666.490394 -225.856253 
L 670.204273 -218.409708 
L 673.918152 -234.800295 
L 677.63203 -203.180104 
L 681.345909 -212.563266 
L 681.345909 -327.259133 
L 681.345909 -327.259133 
L 677.63203 -333.153283 
L 673.918152 -343.772411 
L 670.204273 -346.058481 
L 666.490394 -352.864921 
L 662.776515 -379.758577 
L 659.062636 -366.614413 
L 655.348758 -366.395548 
L 651.634879 -365.858368 
L 647.921 -364.130363 
L 644.207121 -368.924881 
L 640.493242 -393.992269 
L 636.779364 -377.71516 
L 633.065485 -365.954216 
L 629.351606 -377.940078 
L 625.637727 -362.005536 
L 621.923848 -365.142152 
L 618.20997 -362.752863 
L 614.496091 -359.907328 
L 610.782212 -378.793188 
L 607.068333 -387.074104 
L 603.354455 -361.069007 
L 599.640576 -354.378666 
L 595.926697 -361.194366 
L 592.212818 -373.389121 
L 588.498939 -382.803208 
L 584.785061 -382.328294 
L 581.071182 -360.708271 
L 577.357303 -372.190715 
L 573.643424 -373.837494 
L 569.929545 -373.241067 
L 566.215667 -379.202544 
L 562.501788 -382.341001 
L 558.787909 -362.914141 
L 555.07403 -379.30277 
L 551.360152 -369.686377 
L 547.646273 -377.916883 
L 543.932394 -377.583041 
L 540.218515 -364.081706 
L 536.504636 -377.231075 
L 532.790758 -379.186252 
L 529.076879 -377.38188 
L 525.363 -368.422216 
L 521.649121 -363.647307 
L 517.935242 -371.401159 
L 514.221364 -371.775443 
L 510.507485 -367.445504 
L 506.793606 -367.146815 
L 503.079727 -366.481745 
L 499.365848 -370.133251 
L 495.65197 -378.276494 
L 491.938091 -369.599292 
L 488.224212 -373.252346 
L 484.510333 -359.238796 
L 480.796455 -364.482117 
L 477.082576 -370.246963 
L 473.368697 -386.542053 
L 469.654818 -381.798252 
L 465.940939 -357.278324 
L 462.227061 -367.377154 
L 458.513182 -373.329219 
L 454.799303 -377.364989 
L 451.085424 -371.154922 
L 447.371545 -357.068223 
L 443.657667 -371.774739 
L 439.943788 -367.87553 
L 436.229909 -372.353339 
L 432.51603 -361.053595 
L 428.802152 -353.972937 
L 425.088273 -363.61223 
L 421.374394 -364.226939 
L 417.660515 -361.910611 
L 413.946636 -336.654691 
L 410.232758 -354.990349 
L 406.518879 -356.77879 
L 402.805 -366.060205 
L 399.091121 -364.174619 
L 395.377242 -356.620642 
L 391.663364 -344.10114 
L 387.949485 -358.743336 
L 384.235606 -353.854368 
L 380.521727 -358.011972 
L 376.807848 -352.102015 
L 373.09397 -357.596172 
L 369.380091 -363.583283 
L 365.666212 -365.916661 
L 361.952333 -359.354431 
L 358.238455 -352.995188 
L 354.524576 -366.023857 
L 350.810697 -357.841301 
L 347.096818 -355.876508 
L 343.382939 -353.8604 
L 339.669061 -353.536447 
L 335.955182 -355.275502 
L 332.241303 -367.124027 
L 328.527424 -375.152192 
L 324.813545 -359.722006 
L 321.099667 -354.882836 
L 317.385788 -363.880857 
L 313.671909 -356.014489 
L 309.95803 -360.941002 
L 306.244152 -364.829111 
L 302.530273 -347.98815 
L 298.816394 -362.324126 
L 295.102515 -359.689783 
L 291.388636 -367.692263 
L 287.674758 -359.864127 
L 283.960879 -364.418455 
L 280.247 -358.016845 
L 276.533121 -368.099823 
L 272.819242 -372.418693 
L 269.105364 -365.370128 
L 265.391485 -353.895271 
L 261.677606 -363.554134 
L 257.963727 -380.15105 
L 254.249848 -365.509952 
L 250.53597 -347.002287 
L 246.822091 -358.745133 
L 243.108212 -364.696588 
L 239.394333 -363.057063 
L 235.680455 -370.470872 
L 231.966576 -351.208065 
L 228.252697 -374.43067 
L 224.538818 -375.657891 
L 220.824939 -361.136055 
L 217.111061 -375.689537 
L 213.397182 -377.827089 
L 209.683303 -381.719748 
L 205.969424 -360.825258 
L 202.255545 -367.168205 
L 198.541667 -368.043299 
L 194.827788 -371.408034 
L 191.113909 -374.356131 
L 187.40003 -381.373214 
L 183.686152 -360.989811 
L 179.972273 -378.92022 
L 176.258394 -365.038008 
L 172.544515 -372.486893 
L 168.830636 -373.681217 
L 165.116758 -372.896211 
L 161.402879 -375.372582 
L 157.689 -376.936342 
L 153.975121 -374.026171 
L 150.261242 -383.282447 
L 146.547364 -382.576382 
L 142.833485 -365.473591 
L 139.119606 -366.57563 
L 135.405727 -376.958263 
L 131.691848 -373.296329 
L 127.97797 -365.541522 
L 124.264091 -377.30652 
z
" style="stroke: #ffa500; stroke-opacity: 0.3"/>
    </defs>
    <g clip-path="url(#p8e404343f7)">
     <use xlink:href="#medb0f7500e" x="0" y="432" style="fill: #ffa500; fill-opacity: 0.3; stroke: #ffa500; stroke-opacity: 0.3"/>
    </g>
   </g>
   <g id="matplotlib.axis_1">
    <g id="xtick_1">
     <g id="line2d_1">
      <defs>
       <path id="mba74b27509" d="M 0 0 
L 0 3.5 
" style="stroke: #000000; stroke-width: 0.8"/>
      </defs>
      <g>
       <use xlink:href="#mba74b27509" x="124.264091" y="343.96" style="stroke: #000000; stroke-width: 0.8"/>
      </g>
     </g>
     <g id="text_1">
      <!-- 0 -->
      <g transform="translate(115.356591 372.235625) scale(0.28 -0.28)">
       <defs>
        <path id="DejaVuSans-30" d="M 2034 4250 
Q 1547 4250 1301 3770 
Q 1056 3291 1056 2328 
Q 1056 1369 1301 889 
Q 1547 409 2034 409 
Q 2525 409 2770 889 
Q 3016 1369 3016 2328 
Q 3016 3291 2770 3770 
Q 2525 4250 2034 4250 
z
M 2034 4750 
Q 2819 4750 3233 4129 
Q 3647 3509 3647 2328 
Q 3647 1150 3233 529 
Q 2819 -91 2034 -91 
Q 1250 -91 836 529 
Q 422 1150 422 2328 
Q 422 3509 836 4129 
Q 1250 4750 2034 4750 
z
" transform="scale(0.015625)"/>
       </defs>
       <use xlink:href="#DejaVuSans-30"/>
      </g>
     </g>
    </g>
    <g id="xtick_2">
     <g id="line2d_2">
      <g>
       <use xlink:href="#mba74b27509" x="198.541667" y="343.96" style="stroke: #000000; stroke-width: 0.8"/>
      </g>
     </g>
     <g id="text_2">
      <!-- 20 -->
      <g transform="translate(180.726667 372.235625) scale(0.28 -0.28)">
       <defs>
        <path id="DejaVuSans-32" d="M 1228 531 
L 3431 531 
L 3431 0 
L 469 0 
L 469 531 
Q 828 903 1448 1529 
Q 2069 2156 2228 2338 
Q 2531 2678 2651 2914 
Q 2772 3150 2772 3378 
Q 2772 3750 2511 3984 
Q 2250 4219 1831 4219 
Q 1534 4219 1204 4116 
Q 875 4013 500 3803 
L 500 4441 
Q 881 4594 1212 4672 
Q 1544 4750 1819 4750 
Q 2544 4750 2975 4387 
Q 3406 4025 3406 3419 
Q 3406 3131 3298 2873 
Q 3191 2616 2906 2266 
Q 2828 2175 2409 1742 
Q 1991 1309 1228 531 
z
" transform="scale(0.015625)"/>
       </defs>
       <use xlink:href="#DejaVuSans-32"/>
       <use xlink:href="#DejaVuSans-30" x="63.623047"/>
      </g>
     </g>
    </g>
    <g id="xtick_3">
     <g id="line2d_3">
      <g>
       <use xlink:href="#mba74b27509" x="272.819242" y="343.96" style="stroke: #000000; stroke-width: 0.8"/>
      </g>
     </g>
     <g id="text_3">
      <!-- 40 -->
      <g transform="translate(255.004242 372.235625) scale(0.28 -0.28)">
       <defs>
        <path id="DejaVuSans-34" d="M 2419 4116 
L 825 1625 
L 2419 1625 
L 2419 4116 
z
M 2253 4666 
L 3047 4666 
L 3047 1625 
L 3713 1625 
L 3713 1100 
L 3047 1100 
L 3047 0 
L 2419 0 
L 2419 1100 
L 313 1100 
L 313 1709 
L 2253 4666 
z
" transform="scale(0.015625)"/>
       </defs>
       <use xlink:href="#DejaVuSans-34"/>
       <use xlink:href="#DejaVuSans-30" x="63.623047"/>
      </g>
     </g>
    </g>
    <g id="xtick_4">
     <g id="line2d_4">
      <g>
       <use xlink:href="#mba74b27509" x="347.096818" y="343.96" style="stroke: #000000; stroke-width: 0.8"/>
      </g>
     </g>
     <g id="text_4">
      <!-- 60 -->
      <g transform="translate(329.281818 372.235625) scale(0.28 -0.28)">
       <defs>
        <path id="DejaVuSans-36" d="M 2113 2584 
Q 1688 2584 1439 2293 
Q 1191 2003 1191 1497 
Q 1191 994 1439 701 
Q 1688 409 2113 409 
Q 2538 409 2786 701 
Q 3034 994 3034 1497 
Q 3034 2003 2786 2293 
Q 2538 2584 2113 2584 
z
M 3366 4563 
L 3366 3988 
Q 3128 4100 2886 4159 
Q 2644 4219 2406 4219 
Q 1781 4219 1451 3797 
Q 1122 3375 1075 2522 
Q 1259 2794 1537 2939 
Q 1816 3084 2150 3084 
Q 2853 3084 3261 2657 
Q 3669 2231 3669 1497 
Q 3669 778 3244 343 
Q 2819 -91 2113 -91 
Q 1303 -91 875 529 
Q 447 1150 447 2328 
Q 447 3434 972 4092 
Q 1497 4750 2381 4750 
Q 2619 4750 2861 4703 
Q 3103 4656 3366 4563 
z
" transform="scale(0.015625)"/>
       </defs>
       <use xlink:href="#DejaVuSans-36"/>
       <use xlink:href="#DejaVuSans-30" x="63.623047"/>
      </g>
     </g>
    </g>
    <g id="xtick_5">
     <g id="line2d_5">
      <g>
       <use xlink:href="#mba74b27509" x="421.374394" y="343.96" style="stroke: #000000; stroke-width: 0.8"/>
      </g>
     </g>
     <g id="text_5">
      <!-- 80 -->
      <g transform="translate(403.559394 372.235625) scale(0.28 -0.28)">
       <defs>
        <path id="DejaVuSans-38" d="M 2034 2216 
Q 1584 2216 1326 1975 
Q 1069 1734 1069 1313 
Q 1069 891 1326 650 
Q 1584 409 2034 409 
Q 2484 409 2743 651 
Q 3003 894 3003 1313 
Q 3003 1734 2745 1975 
Q 2488 2216 2034 2216 
z
M 1403 2484 
Q 997 2584 770 2862 
Q 544 3141 544 3541 
Q 544 4100 942 4425 
Q 1341 4750 2034 4750 
Q 2731 4750 3128 4425 
Q 3525 4100 3525 3541 
Q 3525 3141 3298 2862 
Q 3072 2584 2669 2484 
Q 3125 2378 3379 2068 
Q 3634 1759 3634 1313 
Q 3634 634 3220 271 
Q 2806 -91 2034 -91 
Q 1263 -91 848 271 
Q 434 634 434 1313 
Q 434 1759 690 2068 
Q 947 2378 1403 2484 
z
M 1172 3481 
Q 1172 3119 1398 2916 
Q 1625 2713 2034 2713 
Q 2441 2713 2670 2916 
Q 2900 3119 2900 3481 
Q 2900 3844 2670 4047 
Q 2441 4250 2034 4250 
Q 1625 4250 1398 4047 
Q 1172 3844 1172 3481 
z
" transform="scale(0.015625)"/>
       </defs>
       <use xlink:href="#DejaVuSans-38"/>
       <use xlink:href="#DejaVuSans-30" x="63.623047"/>
      </g>
     </g>
    </g>
    <g id="xtick_6">
     <g id="line2d_6">
      <g>
       <use xlink:href="#mba74b27509" x="495.65197" y="343.96" style="stroke: #000000; stroke-width: 0.8"/>
      </g>
     </g>
     <g id="text_6">
      <!-- 100 -->
      <g transform="translate(468.92947 372.235625) scale(0.28 -0.28)">
       <defs>
        <path id="DejaVuSans-31" d="M 794 531 
L 1825 531 
L 1825 4091 
L 703 3866 
L 703 4441 
L 1819 4666 
L 2450 4666 
L 2450 531 
L 3481 531 
L 3481 0 
L 794 0 
L 794 531 
z
" transform="scale(0.015625)"/>
       </defs>
       <use xlink:href="#DejaVuSans-31"/>
       <use xlink:href="#DejaVuSans-30" x="63.623047"/>
       <use xlink:href="#DejaVuSans-30" x="127.246094"/>
      </g>
     </g>
    </g>
    <g id="xtick_7">
     <g id="line2d_7">
      <g>
       <use xlink:href="#mba74b27509" x="569.929545" y="343.96" style="stroke: #000000; stroke-width: 0.8"/>
      </g>
     </g>
     <g id="text_7">
      <!-- 120 -->
      <g transform="translate(543.207045 372.235625) scale(0.28 -0.28)">
       <use xlink:href="#DejaVuSans-31"/>
       <use xlink:href="#DejaVuSans-32" x="63.623047"/>
       <use xlink:href="#DejaVuSans-30" x="127.246094"/>
      </g>
     </g>
    </g>
    <g id="xtick_8">
     <g id="line2d_8">
      <g>
       <use xlink:href="#mba74b27509" x="644.207121" y="343.96" style="stroke: #000000; stroke-width: 0.8"/>
      </g>
     </g>
     <g id="text_8">
      <!-- 140 -->
      <g transform="translate(617.484621 372.235625) scale(0.28 -0.28)">
       <use xlink:href="#DejaVuSans-31"/>
       <use xlink:href="#DejaVuSans-34" x="63.623047"/>
       <use xlink:href="#DejaVuSans-30" x="127.246094"/>
      </g>
     </g>
    </g>
    <g id="text_9">
     <!-- Episode -->
     <g transform="translate(324.255 412.4525) scale(0.4 -0.4)">
      <defs>
       <path id="DejaVuSans-45" d="M 628 4666 
L 3578 4666 
L 3578 4134 
L 1259 4134 
L 1259 2753 
L 3481 2753 
L 3481 2222 
L 1259 2222 
L 1259 531 
L 3634 531 
L 3634 0 
L 628 0 
L 628 4666 
z
" transform="scale(0.015625)"/>
       <path id="DejaVuSans-70" d="M 1159 525 
L 1159 -1331 
L 581 -1331 
L 581 3500 
L 1159 3500 
L 1159 2969 
Q 1341 3281 1617 3432 
Q 1894 3584 2278 3584 
Q 2916 3584 3314 3078 
Q 3713 2572 3713 1747 
Q 3713 922 3314 415 
Q 2916 -91 2278 -91 
Q 1894 -91 1617 61 
Q 1341 213 1159 525 
z
M 3116 1747 
Q 3116 2381 2855 2742 
Q 2594 3103 2138 3103 
Q 1681 3103 1420 2742 
Q 1159 2381 1159 1747 
Q 1159 1113 1420 752 
Q 1681 391 2138 391 
Q 2594 391 2855 752 
Q 3116 1113 3116 1747 
z
" transform="scale(0.015625)"/>
       <path id="DejaVuSans-69" d="M 603 3500 
L 1178 3500 
L 1178 0 
L 603 0 
L 603 3500 
z
M 603 4863 
L 1178 4863 
L 1178 4134 
L 603 4134 
L 603 4863 
z
" transform="scale(0.015625)"/>
       <path id="DejaVuSans-73" d="M 2834 3397 
L 2834 2853 
Q 2591 2978 2328 3040 
Q 2066 3103 1784 3103 
Q 1356 3103 1142 2972 
Q 928 2841 928 2578 
Q 928 2378 1081 2264 
Q 1234 2150 1697 2047 
L 1894 2003 
Q 2506 1872 2764 1633 
Q 3022 1394 3022 966 
Q 3022 478 2636 193 
Q 2250 -91 1575 -91 
Q 1294 -91 989 -36 
Q 684 19 347 128 
L 347 722 
Q 666 556 975 473 
Q 1284 391 1588 391 
Q 1994 391 2212 530 
Q 2431 669 2431 922 
Q 2431 1156 2273 1281 
Q 2116 1406 1581 1522 
L 1381 1569 
Q 847 1681 609 1914 
Q 372 2147 372 2553 
Q 372 3047 722 3315 
Q 1072 3584 1716 3584 
Q 2034 3584 2315 3537 
Q 2597 3491 2834 3397 
z
" transform="scale(0.015625)"/>
       <path id="DejaVuSans-6f" d="M 1959 3097 
Q 1497 3097 1228 2736 
Q 959 2375 959 1747 
Q 959 1119 1226 758 
Q 1494 397 1959 397 
Q 2419 397 2687 759 
Q 2956 1122 2956 1747 
Q 2956 2369 2687 2733 
Q 2419 3097 1959 3097 
z
M 1959 3584 
Q 2709 3584 3137 3096 
Q 3566 2609 3566 1747 
Q 3566 888 3137 398 
Q 2709 -91 1959 -91 
Q 1206 -91 779 398 
Q 353 888 353 1747 
Q 353 2609 779 3096 
Q 1206 3584 1959 3584 
z
" transform="scale(0.015625)"/>
       <path id="DejaVuSans-64" d="M 2906 2969 
L 2906 4863 
L 3481 4863 
L 3481 0 
L 2906 0 
L 2906 525 
Q 2725 213 2448 61 
Q 2172 -91 1784 -91 
Q 1150 -91 751 415 
Q 353 922 353 1747 
Q 353 2572 751 3078 
Q 1150 3584 1784 3584 
Q 2172 3584 2448 3432 
Q 2725 3281 2906 2969 
z
M 947 1747 
Q 947 1113 1208 752 
Q 1469 391 1925 391 
Q 2381 391 2643 752 
Q 2906 1113 2906 1747 
Q 2906 2381 2643 2742 
Q 2381 3103 1925 3103 
Q 1469 3103 1208 2742 
Q 947 2381 947 1747 
z
" transform="scale(0.015625)"/>
       <path id="DejaVuSans-65" d="M 3597 1894 
L 3597 1613 
L 953 1613 
Q 991 1019 1311 708 
Q 1631 397 2203 397 
Q 2534 397 2845 478 
Q 3156 559 3463 722 
L 3463 178 
Q 3153 47 2828 -22 
Q 2503 -91 2169 -91 
Q 1331 -91 842 396 
Q 353 884 353 1716 
Q 353 2575 817 3079 
Q 1281 3584 2069 3584 
Q 2775 3584 3186 3129 
Q 3597 2675 3597 1894 
z
M 3022 2063 
Q 3016 2534 2758 2815 
Q 2500 3097 2075 3097 
Q 1594 3097 1305 2825 
Q 1016 2553 972 2059 
L 3022 2063 
z
" transform="scale(0.015625)"/>
      </defs>
      <use xlink:href="#DejaVuSans-45"/>
      <use xlink:href="#DejaVuSans-70" x="63.183594"/>
      <use xlink:href="#DejaVuSans-69" x="126.660156"/>
      <use xlink:href="#DejaVuSans-73" x="154.443359"/>
      <use xlink:href="#DejaVuSans-6f" x="206.542969"/>
      <use xlink:href="#DejaVuSans-64" x="267.724609"/>
      <use xlink:href="#DejaVuSans-65" x="331.201172"/>
     </g>
    </g>
   </g>
   <g id="matplotlib.axis_2">
    <g id="ytick_1">
     <g id="line2d_9">
      <defs>
       <path id="md378392bef" d="M 0 0 
L -3.5 0 
" style="stroke: #000000; stroke-width: 0.8"/>
      </defs>
      <g>
       <use xlink:href="#md378392bef" x="96.41" y="333.310223" style="stroke: #000000; stroke-width: 0.8"/>
      </g>
     </g>
     <g id="text_10">
      <!-- 20 -->
      <g transform="translate(53.78 343.948035) scale(0.28 -0.28)">
       <use xlink:href="#DejaVuSans-32"/>
       <use xlink:href="#DejaVuSans-30" x="63.623047"/>
      </g>
     </g>
    </g>
    <g id="ytick_2">
     <g id="line2d_10">
      <g>
       <use xlink:href="#md378392bef" x="96.41" y="288.76964" style="stroke: #000000; stroke-width: 0.8"/>
      </g>
     </g>
     <g id="text_11">
      <!-- 30 -->
      <g transform="translate(53.78 299.407453) scale(0.28 -0.28)">
       <defs>
        <path id="DejaVuSans-33" d="M 2597 2516 
Q 3050 2419 3304 2112 
Q 3559 1806 3559 1356 
Q 3559 666 3084 287 
Q 2609 -91 1734 -91 
Q 1441 -91 1130 -33 
Q 819 25 488 141 
L 488 750 
Q 750 597 1062 519 
Q 1375 441 1716 441 
Q 2309 441 2620 675 
Q 2931 909 2931 1356 
Q 2931 1769 2642 2001 
Q 2353 2234 1838 2234 
L 1294 2234 
L 1294 2753 
L 1863 2753 
Q 2328 2753 2575 2939 
Q 2822 3125 2822 3475 
Q 2822 3834 2567 4026 
Q 2313 4219 1838 4219 
Q 1578 4219 1281 4162 
Q 984 4106 628 3988 
L 628 4550 
Q 988 4650 1302 4700 
Q 1616 4750 1894 4750 
Q 2613 4750 3031 4423 
Q 3450 4097 3450 3541 
Q 3450 3153 3228 2886 
Q 3006 2619 2597 2516 
z
" transform="scale(0.015625)"/>
       </defs>
       <use xlink:href="#DejaVuSans-33"/>
       <use xlink:href="#DejaVuSans-30" x="63.623047"/>
      </g>
     </g>
    </g>
    <g id="ytick_3">
     <g id="line2d_11">
      <g>
       <use xlink:href="#md378392bef" x="96.41" y="244.229058" style="stroke: #000000; stroke-width: 0.8"/>
      </g>
     </g>
     <g id="text_12">
      <!-- 40 -->
      <g transform="translate(53.78 254.86687) scale(0.28 -0.28)">
       <use xlink:href="#DejaVuSans-34"/>
       <use xlink:href="#DejaVuSans-30" x="63.623047"/>
      </g>
     </g>
    </g>
    <g id="ytick_4">
     <g id="line2d_12">
      <g>
       <use xlink:href="#md378392bef" x="96.41" y="199.688475" style="stroke: #000000; stroke-width: 0.8"/>
      </g>
     </g>
     <g id="text_13">
      <!-- 50 -->
      <g transform="translate(53.78 210.326288) scale(0.28 -0.28)">
       <defs>
        <path id="DejaVuSans-35" d="M 691 4666 
L 3169 4666 
L 3169 4134 
L 1269 4134 
L 1269 2991 
Q 1406 3038 1543 3061 
Q 1681 3084 1819 3084 
Q 2600 3084 3056 2656 
Q 3513 2228 3513 1497 
Q 3513 744 3044 326 
Q 2575 -91 1722 -91 
Q 1428 -91 1123 -41 
Q 819 9 494 109 
L 494 744 
Q 775 591 1075 516 
Q 1375 441 1709 441 
Q 2250 441 2565 725 
Q 2881 1009 2881 1497 
Q 2881 1984 2565 2268 
Q 2250 2553 1709 2553 
Q 1456 2553 1204 2497 
Q 953 2441 691 2322 
L 691 4666 
z
" transform="scale(0.015625)"/>
       </defs>
       <use xlink:href="#DejaVuSans-35"/>
       <use xlink:href="#DejaVuSans-30" x="63.623047"/>
      </g>
     </g>
    </g>
    <g id="ytick_5">
     <g id="line2d_13">
      <g>
       <use xlink:href="#md378392bef" x="96.41" y="155.147893" style="stroke: #000000; stroke-width: 0.8"/>
      </g>
     </g>
     <g id="text_14">
      <!-- 60 -->
      <g transform="translate(53.78 165.785705) scale(0.28 -0.28)">
       <use xlink:href="#DejaVuSans-36"/>
       <use xlink:href="#DejaVuSans-30" x="63.623047"/>
      </g>
     </g>
    </g>
    <g id="ytick_6">
     <g id="line2d_14">
      <g>
       <use xlink:href="#md378392bef" x="96.41" y="110.60731" style="stroke: #000000; stroke-width: 0.8"/>
      </g>
     </g>
     <g id="text_15">
      <!-- 70 -->
      <g transform="translate(53.78 121.245123) scale(0.28 -0.28)">
       <defs>
        <path id="DejaVuSans-37" d="M 525 4666 
L 3525 4666 
L 3525 4397 
L 1831 0 
L 1172 0 
L 2766 4134 
L 525 4134 
L 525 4666 
z
" transform="scale(0.015625)"/>
       </defs>
       <use xlink:href="#DejaVuSans-37"/>
       <use xlink:href="#DejaVuSans-30" x="63.623047"/>
      </g>
     </g>
    </g>
    <g id="ytick_7">
     <g id="line2d_15">
      <g>
       <use xlink:href="#md378392bef" x="96.41" y="66.066728" style="stroke: #000000; stroke-width: 0.8"/>
      </g>
     </g>
     <g id="text_16">
      <!-- 80 -->
      <g transform="translate(53.78 76.70454) scale(0.28 -0.28)">
       <use xlink:href="#DejaVuSans-38"/>
       <use xlink:href="#DejaVuSans-30" x="63.623047"/>
      </g>
     </g>
    </g>
    <g id="ytick_8">
     <g id="line2d_16">
      <g>
       <use xlink:href="#md378392bef" x="96.41" y="21.526146" style="stroke: #000000; stroke-width: 0.8"/>
      </g>
     </g>
     <g id="text_17">
      <!-- 90 -->
      <g transform="translate(53.78 32.163958) scale(0.28 -0.28)">
       <defs>
        <path id="DejaVuSans-39" d="M 703 97 
L 703 672 
Q 941 559 1184 500 
Q 1428 441 1663 441 
Q 2288 441 2617 861 
Q 2947 1281 2994 2138 
Q 2813 1869 2534 1725 
Q 2256 1581 1919 1581 
Q 1219 1581 811 2004 
Q 403 2428 403 3163 
Q 403 3881 828 4315 
Q 1253 4750 1959 4750 
Q 2769 4750 3195 4129 
Q 3622 3509 3622 2328 
Q 3622 1225 3098 567 
Q 2575 -91 1691 -91 
Q 1453 -91 1209 -44 
Q 966 3 703 97 
z
M 1959 2075 
Q 2384 2075 2632 2365 
Q 2881 2656 2881 3163 
Q 2881 3666 2632 3958 
Q 2384 4250 1959 4250 
Q 1534 4250 1286 3958 
Q 1038 3666 1038 3163 
Q 1038 2656 1286 2365 
Q 1534 2075 1959 2075 
z
" transform="scale(0.015625)"/>
       </defs>
       <use xlink:href="#DejaVuSans-39"/>
       <use xlink:href="#DejaVuSans-30" x="63.623047"/>
      </g>
     </g>
    </g>
    <g id="text_18">
     <!-- $m_{do}$ -->
     <g transform="translate(41.46125 218.490561) rotate(-90) scale(0.4 -0.4)">
      <defs>
       <path id="DejaVuSans-Oblique-6d" d="M 5747 2113 
L 5338 0 
L 4763 0 
L 5166 2094 
Q 5191 2228 5203 2325 
Q 5216 2422 5216 2491 
Q 5216 2772 5059 2928 
Q 4903 3084 4622 3084 
Q 4203 3084 3875 2770 
Q 3547 2456 3450 1953 
L 3066 0 
L 2491 0 
L 2900 2094 
Q 2925 2209 2937 2307 
Q 2950 2406 2950 2484 
Q 2950 2769 2794 2926 
Q 2638 3084 2363 3084 
Q 1938 3084 1609 2770 
Q 1281 2456 1184 1953 
L 800 0 
L 225 0 
L 909 3500 
L 1484 3500 
L 1375 2956 
Q 1609 3263 1923 3423 
Q 2238 3584 2597 3584 
Q 2978 3584 3223 3384 
Q 3469 3184 3519 2828 
Q 3781 3197 4126 3390 
Q 4472 3584 4856 3584 
Q 5306 3584 5551 3325 
Q 5797 3066 5797 2591 
Q 5797 2488 5784 2364 
Q 5772 2241 5747 2113 
z
" transform="scale(0.015625)"/>
       <path id="DejaVuSans-Oblique-64" d="M 2675 525 
Q 2444 222 2128 65 
Q 1813 -91 1428 -91 
Q 903 -91 598 267 
Q 294 625 294 1247 
Q 294 1766 478 2236 
Q 663 2706 1013 3078 
Q 1244 3325 1534 3454 
Q 1825 3584 2144 3584 
Q 2481 3584 2739 3421 
Q 2997 3259 3138 2956 
L 3513 4863 
L 4091 4863 
L 3144 0 
L 2566 0 
L 2675 525 
z
M 891 1350 
Q 891 897 1095 644 
Q 1300 391 1663 391 
Q 1931 391 2161 520 
Q 2391 650 2566 903 
Q 2750 1166 2856 1509 
Q 2963 1853 2963 2188 
Q 2963 2622 2758 2865 
Q 2553 3109 2194 3109 
Q 1922 3109 1687 2981 
Q 1453 2853 1288 2613 
Q 1106 2353 998 2009 
Q 891 1666 891 1350 
z
" transform="scale(0.015625)"/>
       <path id="DejaVuSans-Oblique-6f" d="M 1625 -91 
Q 1009 -91 651 289 
Q 294 669 294 1325 
Q 294 1706 417 2101 
Q 541 2497 738 2766 
Q 1047 3184 1428 3384 
Q 1809 3584 2291 3584 
Q 2888 3584 3255 3212 
Q 3622 2841 3622 2241 
Q 3622 1825 3500 1412 
Q 3378 1000 3181 728 
Q 2875 309 2494 109 
Q 2113 -91 1625 -91 
z
M 891 1344 
Q 891 869 1089 633 
Q 1288 397 1691 397 
Q 2269 397 2648 901 
Q 3028 1406 3028 2181 
Q 3028 2634 2825 2865 
Q 2622 3097 2228 3097 
Q 1903 3097 1650 2945 
Q 1397 2794 1197 2484 
Q 1050 2253 970 1956 
Q 891 1659 891 1344 
z
" transform="scale(0.015625)"/>
      </defs>
      <use xlink:href="#DejaVuSans-Oblique-6d"/>
      <use xlink:href="#DejaVuSans-Oblique-64" transform="translate(97.412109 -16.40625) scale(0.7)"/>
      <use xlink:href="#DejaVuSans-Oblique-6f" transform="translate(141.845703 -16.40625) scale(0.7)"/>
     </g>
    </g>
   </g>
   <g id="line2d_17">
    <path d="M 124.264091 79.72584 
L 127.97797 60.796092 
L 131.691848 74.566556 
L 135.405727 65.547088 
L 139.119606 75.865656 
L 142.833485 68.813397 
L 146.547364 67.21736 
L 150.261242 63.023122 
L 153.975121 79.540254 
L 157.689 70.966192 
L 161.402879 83.251969 
L 165.116758 71.931238 
L 168.830636 74.566556 
L 172.544515 73.564393 
L 176.258394 64.359339 
L 179.972273 68.219523 
L 183.686152 67.21736 
L 187.40003 69.29592 
L 191.113909 83.548907 
L 198.541667 104.260277 
L 202.255545 78.575208 
L 205.969424 111.646591 
L 209.683303 123.115791 
L 213.397182 117.362632 
L 220.824939 137.8513 
L 224.538818 148.355454 
L 228.252697 144.346802 
L 231.966576 159.305014 
L 235.680455 165.503578 
L 239.394333 165.948984 
L 243.108212 162.979612 
L 246.822091 175.822147 
L 250.53597 180.721611 
L 254.249848 189.33279 
L 257.963727 184.396209 
L 261.677606 186.214949 
L 265.391485 196.719103 
L 269.105364 201.878387 
L 272.819242 208.48524 
L 276.533121 200.839107 
L 280.247 208.967763 
L 283.960879 208.522358 
L 287.674758 212.493893 
L 291.388636 198.686312 
L 295.102515 205.3674 
L 298.816394 201.136044 
L 302.530273 209.116232 
L 306.244152 189.295673 
L 309.95803 222.033001 
L 313.671909 217.022185 
L 317.385788 215.797319 
L 321.099667 214.795156 
L 324.813545 222.478407 
L 328.527424 220.733901 
L 332.241303 215.685968 
L 335.955182 223.22075 
L 339.669061 231.94328 
L 343.382939 229.048143 
L 347.096818 230.421477 
L 350.810697 232.203101 
L 354.524576 228.3058 
L 358.238455 225.447779 
L 361.952333 234.504364 
L 365.666212 236.991213 
L 369.380091 222.812461 
L 373.09397 234.875535 
L 376.807848 224.037327 
L 380.521727 234.541481 
L 384.235606 230.569946 
L 387.949485 235.654996 
L 391.663364 232.685624 
L 395.377242 226.783996 
L 399.091121 232.203101 
L 402.805 240.851397 
L 406.518879 239.515179 
L 410.232758 241.222568 
L 413.946636 236.360222 
L 421.374394 239.812117 
L 425.088273 241.519506 
L 428.802152 247.19843 
L 432.51603 249.462576 
L 436.229909 257.516998 
L 439.943788 252.172128 
L 443.657667 254.510509 
L 447.371545 252.357714 
L 451.085424 258.259341 
L 454.799303 247.829422 
L 458.513182 249.01717 
L 462.227061 253.137174 
L 465.940939 243.635183 
L 469.654818 246.456087 
L 473.368697 251.541137 
L 477.082576 252.654651 
L 480.796455 245.676627 
L 484.510333 244.154823 
L 488.224212 240.109054 
L 491.938091 248.349062 
L 495.65197 244.229058 
L 499.365848 255.438438 
L 503.079727 253.990869 
L 506.793606 246.307618 
L 510.507485 253.32276 
L 514.221364 258.40781 
L 517.935242 255.735375 
L 521.649121 256.329249 
L 529.076879 252.580417 
L 532.790758 261.117362 
L 536.504636 256.032312 
L 540.218515 266.462232 
L 543.932394 256.180781 
L 547.646273 263.344391 
L 551.360152 258.964567 
L 555.07403 259.335739 
L 558.787909 260.857542 
L 562.501788 256.774655 
L 566.215667 260.040965 
L 569.929545 258.40781 
L 573.643424 265.942592 
L 577.357303 261.488533 
L 581.071182 262.639165 
L 584.785061 271.918453 
L 588.498939 274.850708 
L 592.212818 274.034131 
L 595.926697 265.088897 
L 599.640576 269.505838 
L 603.354455 275.184763 
L 607.068333 268.800612 
L 610.782212 273.625842 
L 614.496091 277.82008 
L 618.20997 279.564587 
L 621.923848 275.667286 
L 625.637727 282.12567 
L 629.351606 284.798105 
L 633.065485 285.726034 
L 636.779364 293.891807 
L 640.493242 289.02946 
L 644.207121 291.553427 
L 647.921 300.387309 
L 651.634879 300.684246 
L 655.348758 306.288936 
L 659.062636 298.754154 
L 662.776515 304.02479 
L 666.490394 307.328216 
L 670.204273 303.76497 
L 673.918152 301.389472 
L 677.63203 296.490008 
L 681.345909 301.129652 
L 681.345909 301.129652 
" clip-path="url(#p8e404343f7)" style="fill: none; stroke: #0000ff; stroke-width: 3; stroke-linecap: square"/>
   </g>
   <g id="line2d_18">
    <path d="M 124.264091 66.029611 
L 127.97797 58.754649 
L 131.691848 81.433229 
L 135.405727 84.699538 
L 139.119606 74.046916 
L 142.833485 75.494485 
L 146.547364 74.826376 
L 150.261242 64.47069 
L 153.975121 82.027103 
L 157.689 69.0361 
L 161.402879 78.649443 
L 165.116758 67.99682 
L 168.830636 64.285105 
L 172.544515 75.011962 
L 176.258394 95.649098 
L 179.972273 98.284416 
L 183.686152 105.00262 
L 187.40003 122.07651 
L 191.113909 131.801204 
L 194.827788 140.152563 
L 198.541667 132.135259 
L 202.255545 152.438341 
L 205.969424 149.654554 
L 209.683303 156.335642 
L 213.397182 150.768069 
L 217.111061 174.114758 
L 220.824939 185.54684 
L 224.538818 194.454957 
L 228.252697 196.719103 
L 231.966576 205.293165 
L 235.680455 216.354077 
L 239.394333 203.771362 
L 243.108212 219.286332 
L 246.822091 213.755876 
L 250.53597 214.461102 
L 254.249848 226.190122 
L 257.963727 226.783996 
L 261.677606 225.856068 
L 265.391485 222.738227 
L 269.105364 211.23191 
L 272.819242 213.644525 
L 276.533121 209.895692 
L 280.247 215.945788 
L 283.960879 217.541825 
L 287.674758 230.347243 
L 291.388636 218.321286 
L 295.102515 220.140026 
L 298.816394 219.100746 
L 302.530273 226.932465 
L 306.244152 213.273353 
L 309.95803 226.338591 
L 313.671909 224.816787 
L 317.385788 226.969582 
L 321.099667 228.083097 
L 324.813545 233.093912 
L 328.527424 223.369218 
L 332.241303 226.672645 
L 335.955182 214.980742 
L 339.669061 222.144352 
L 343.382939 228.083097 
L 347.096818 206.369563 
L 350.810697 220.511198 
L 354.524576 219.397683 
L 358.238455 223.035164 
L 361.952333 233.576435 
L 365.666212 230.607063 
L 369.380091 234.727067 
L 373.09397 225.336427 
L 376.807848 235.692113 
L 380.521727 235.840581 
L 384.235606 234.318778 
L 387.949485 231.015352 
L 391.663364 232.425803 
L 395.377242 227.266519 
L 399.091121 235.692113 
L 402.805 249.499693 
L 406.518879 232.945444 
L 410.232758 234.133192 
L 413.946636 227.674808 
L 417.660515 212.159838 
L 421.374394 223.517687 
L 425.088273 228.342917 
L 428.802152 222.886695 
L 432.51603 225.930302 
L 436.229909 237.28815 
L 439.943788 232.165983 
L 443.657667 226.524176 
L 447.371545 235.358058 
L 451.085424 228.936791 
L 454.799303 228.528502 
L 458.513182 237.065447 
L 462.227061 230.198774 
L 465.940939 226.783996 
L 469.654818 237.659322 
L 473.368697 221.958767 
L 477.082576 234.838418 
L 480.796455 234.875535 
L 484.510333 228.788323 
L 488.224212 229.419314 
L 491.938091 238.327431 
L 495.65197 239.589414 
L 499.365848 232.277335 
L 503.079727 229.530666 
L 506.793606 224.742553 
L 510.507485 234.17031 
L 514.221364 221.958767 
L 517.935242 221.327775 
L 521.649121 226.115888 
L 525.363 229.642017 
L 529.076879 223.072281 
L 536.504636 227.526339 
L 540.218515 224.074444 
L 543.932394 222.886695 
L 547.646273 244.860049 
L 551.360152 228.3058 
L 555.07403 227.266519 
L 558.787909 236.174636 
L 562.501788 227.971745 
L 566.215667 225.856068 
L 569.929545 225.707599 
L 573.643424 224.891022 
L 577.357303 234.652833 
L 581.071182 234.504364 
L 584.785061 230.421477 
L 588.498939 239.478062 
L 592.212818 231.015352 
L 595.926697 236.24887 
L 599.640576 228.936791 
L 603.354455 240.331757 
L 607.068333 233.539318 
L 610.782212 238.587251 
L 614.496091 236.323104 
L 618.20997 232.982561 
L 621.923848 234.17031 
L 625.637727 228.417151 
L 629.351606 224.705436 
L 633.065485 242.929957 
L 636.779364 226.635528 
L 640.493242 228.82544 
L 647.921 239.144008 
L 651.634879 239.366711 
L 655.348758 221.958767 
L 659.062636 233.724904 
L 662.776515 235.172473 
L 666.490394 229.159494 
L 670.204273 228.751205 
L 673.918152 211.23191 
L 677.63203 222.070118 
L 681.345909 230.681297 
L 681.345909 230.681297 
" clip-path="url(#p8e404343f7)" style="fill: none; stroke: #008000; stroke-width: 3; stroke-linecap: square"/>
   </g>
   <g id="line2d_19">
    <path d="M 124.264091 76.273945 
L 127.97797 76.236828 
L 131.691848 59.014469 
L 135.405727 55.005817 
L 139.119606 64.619159 
L 142.833485 58.791766 
L 146.547364 70.038263 
L 150.261242 61.87249 
L 153.975121 54.820231 
L 157.689 61.09303 
L 161.402879 72.376644 
L 165.116758 56.490503 
L 168.830636 51.44257 
L 172.544515 61.761138 
L 176.258394 70.780606 
L 179.972273 71.448715 
L 183.686152 61.241498 
L 187.40003 64.767628 
L 191.113909 64.136636 
L 194.827788 62.65195 
L 198.541667 66.734837 
L 202.255545 64.990331 
L 205.969424 66.103845 
L 209.683303 65.435736 
L 213.397182 62.243661 
L 217.111061 74.046916 
L 220.824939 73.824213 
L 224.538818 74.084033 
L 228.252697 59.274289 
L 231.966576 59.311406 
L 235.680455 71.782769 
L 239.394333 72.413761 
L 243.108212 87.037919 
L 246.822091 73.564393 
L 250.53597 66.475017 
L 254.249848 72.784933 
L 257.963727 70.298083 
L 261.677606 78.241154 
L 265.391485 73.564393 
L 269.105364 83.326204 
L 272.819242 67.440063 
L 276.533121 78.352505 
L 280.247 66.363665 
L 283.960879 79.391786 
L 287.674758 76.645116 
L 291.388636 65.398619 
L 295.102515 75.197547 
L 298.816394 72.228175 
L 302.530273 78.909263 
L 306.244152 72.116824 
L 309.95803 61.204381 
L 313.671909 63.542762 
L 317.385788 75.271782 
L 321.099667 69.518623 
L 324.813545 75.234665 
L 328.527424 68.702046 
L 332.241303 84.625304 
L 335.955182 70.149615 
L 339.669061 67.774117 
L 343.382939 70.891958 
L 347.096818 69.073217 
L 350.810697 74.863493 
L 354.524576 72.265292 
L 358.238455 70.260966 
L 361.952333 57.752486 
L 365.666212 71.894121 
L 369.380091 74.863493 
L 373.09397 80.690886 
L 376.807848 69.852677 
L 380.521727 76.719351 
L 384.235606 67.106008 
L 387.949485 73.824213 
L 391.663364 88.114316 
L 395.377242 86.035756 
L 399.091121 73.824213 
L 402.805 75.68007 
L 406.518879 78.352505 
L 410.232758 71.782769 
L 413.946636 69.110334 
L 417.660515 77.016288 
L 421.374394 83.920078 
L 425.088273 67.922586 
L 428.802152 66.95754 
L 432.51603 75.011962 
L 436.229909 70.966192 
L 439.943788 82.620978 
L 443.657667 77.276108 
L 447.371545 76.311062 
L 451.085424 78.389622 
L 454.799303 84.773773 
L 458.513182 76.607999 
L 462.227061 74.603673 
L 465.940939 78.760794 
L 469.654818 77.573045 
L 473.368697 96.762613 
L 477.082576 71.114661 
L 480.796455 72.339527 
L 484.510333 82.769446 
L 488.224212 74.492322 
L 491.938091 79.98566 
L 495.65197 62.65195 
L 499.365848 69.184569 
L 503.079727 85.85017 
L 506.793606 72.116824 
L 510.507485 68.961866 
L 514.221364 66.660602 
L 517.935242 86.592513 
L 521.649121 60.424921 
L 525.363 56.416268 
L 529.076879 61.761138 
L 532.790758 78.389622 
L 536.504636 67.922586 
L 540.218515 63.654113 
L 543.932394 66.586368 
L 547.646273 62.243661 
L 551.360152 72.191058 
L 555.07403 59.088703 
L 558.787909 65.509971 
L 562.501788 64.507808 
L 566.215667 62.503481 
L 569.929545 65.881142 
L 573.643424 71.894121 
L 577.357303 74.826376 
L 581.071182 59.496992 
L 584.785061 77.610162 
L 588.498939 63.839699 
L 592.212818 68.51646 
L 595.926697 76.236828 
L 599.640576 58.828883 
L 603.354455 82.472509 
L 607.068333 77.016288 
L 610.782212 67.440063 
L 614.496091 61.983841 
L 618.20997 72.933401 
L 621.923848 52.853022 
L 625.637727 74.12115 
L 629.351606 59.051586 
L 633.065485 63.839699 
L 636.779364 61.835373 
L 640.493242 65.621322 
L 644.207121 68.145289 
L 647.921 68.033937 
L 651.634879 73.972681 
L 655.348758 63.876816 
L 659.062636 61.315733 
L 662.776515 75.346016 
L 666.490394 71.003309 
L 670.204273 71.634301 
L 673.918152 82.843681 
L 677.63203 74.974844 
L 681.345909 71.337364 
L 681.345909 71.337364 
" clip-path="url(#p8e404343f7)" style="fill: none; stroke: #ff0000; stroke-width: 3; stroke-linecap: square"/>
   </g>
   <g id="line2d_20">
    <path d="M 124.264091 59.979515 
L 127.97797 74.046916 
L 131.691848 69.29592 
L 135.405727 57.344197 
L 139.119606 73.490158 
L 142.833485 73.564393 
L 146.547364 59.274289 
L 150.261242 59.459875 
L 153.975121 72.153941 
L 157.689 70.409435 
L 161.402879 63.728347 
L 165.116758 63.023122 
L 168.830636 70.372318 
L 172.544515 66.771954 
L 176.258394 77.016288 
L 179.972273 56.304917 
L 183.686152 75.011962 
L 187.40003 59.311406 
L 191.113909 62.429247 
L 194.827788 70.186732 
L 198.541667 70.780606 
L 202.255545 77.016288 
L 205.969424 75.902773 
L 209.683303 76.162593 
L 213.397182 69.073217 
L 217.111061 68.479343 
L 220.824939 84.402601 
L 224.538818 74.677907 
L 228.252697 70.891958 
L 231.966576 87.14927 
L 235.680455 72.116824 
L 239.394333 79.651606 
L 243.108212 75.865656 
L 246.822091 79.280434 
L 250.53597 86.666747 
L 254.249848 72.30241 
L 257.963727 69.889795 
L 261.677606 76.014125 
L 265.391485 86.963685 
L 269.105364 78.16692 
L 272.819242 81.989986 
L 276.533121 81.433229 
L 280.247 78.055568 
L 283.960879 79.614488 
L 287.674758 86.518279 
L 291.388636 77.535928 
L 295.102515 78.835028 
L 298.816394 82.064221 
L 302.530273 87.891613 
L 306.244152 71.226012 
L 309.95803 83.77161 
L 313.671909 83.920078 
L 317.385788 84.625304 
L 321.099667 85.144944 
L 324.813545 74.603673 
L 328.527424 71.857004 
L 332.241303 78.16692 
L 335.955182 79.800074 
L 339.669061 80.728003 
L 343.382939 82.212689 
L 347.096818 82.027103 
L 350.810697 77.350342 
L 354.524576 74.789259 
L 358.238455 82.064221 
L 361.952333 78.315388 
L 365.666212 76.607999 
L 369.380091 75.531602 
L 373.09397 83.734492 
L 376.807848 83.697375 
L 380.521727 81.655932 
L 384.235606 86.666747 
L 387.949485 76.645116 
L 391.663364 90.081525 
L 395.377242 83.957195 
L 399.091121 78.092685 
L 402.805 87.743145 
L 406.518879 81.730166 
L 410.232758 91.232157 
L 413.946636 98.766939 
L 417.660515 103.666403 
L 421.374394 103.666403 
L 425.088273 104.668566 
L 428.802152 117.214164 
L 432.51603 114.541729 
L 436.229909 106.710009 
L 439.943788 112.426051 
L 443.657667 114.950017 
L 447.371545 129.574175 
L 451.085424 119.515427 
L 454.799303 114.9129 
L 458.513182 125.528406 
L 462.227061 130.019581 
L 465.940939 133.02607 
L 469.654818 122.781736 
L 473.368697 115.358306 
L 477.082576 128.163723 
L 480.796455 119.960833 
L 484.510333 135.884091 
L 488.224212 127.384263 
L 491.938091 123.264259 
L 495.65197 126.048046 
L 499.365848 126.90174 
L 503.079727 129.871112 
L 506.793606 117.956507 
L 510.507485 127.235795 
L 514.221364 127.6812 
L 517.935242 123.375611 
L 521.649121 132.209493 
L 525.363 120.480473 
L 529.076879 119.73813 
L 532.790758 116.063532 
L 536.504636 120.703176 
L 540.218515 127.792552 
L 543.932394 115.246954 
L 547.646273 118.364795 
L 551.360152 117.288398 
L 555.07403 110.830013 
L 558.787909 118.884435 
L 562.501788 118.253444 
L 566.215667 117.251281 
L 569.929545 132.395079 
L 573.643424 126.196514 
L 577.357303 120.406239 
L 581.071182 130.984627 
L 584.785061 123.486962 
L 588.498939 120.554707 
L 592.212818 120.035067 
L 595.926697 133.657062 
L 599.640576 140.263915 
L 603.354455 133.768413 
L 607.068333 117.585335 
L 610.782212 122.373448 
L 614.496091 133.397242 
L 618.20997 132.432196 
L 621.923848 123.746782 
L 625.637727 127.42138 
L 629.351606 121.779573 
L 633.065485 132.395079 
L 636.779364 129.425707 
L 640.493242 120.480473 
L 644.207121 128.200841 
L 647.921 134.622108 
L 651.634879 129.90823 
L 655.348758 126.90174 
L 659.062636 134.213819 
L 662.776515 126.753272 
L 666.490394 142.639413 
L 670.204273 149.765906 
L 673.918152 142.713647 
L 677.63203 163.833306 
L 681.345909 162.0888 
L 681.345909 162.0888 
" clip-path="url(#p8e404343f7)" style="fill: none; stroke: #ffa500; stroke-width: 3; stroke-linecap: square"/>
   </g>
   <g id="patch_3">
    <path d="M 96.41 343.96 
L 96.41 17.821121 
" style="fill: none; stroke: #000000; stroke-width: 0.8; stroke-linejoin: miter; stroke-linecap: square"/>
   </g>
   <g id="patch_4">
    <path d="M 709.2 343.96 
L 709.2 17.821121 
" style="fill: none; stroke: #000000; stroke-width: 0.8; stroke-linejoin: miter; stroke-linecap: square"/>
   </g>
   <g id="patch_5">
    <path d="M 96.41 343.96 
L 709.2 343.96 
" style="fill: none; stroke: #000000; stroke-width: 0.8; stroke-linejoin: miter; stroke-linecap: square"/>
   </g>
   <g id="patch_6">
    <path d="M 96.41 17.821121 
L 709.2 17.821121 
" style="fill: none; stroke: #000000; stroke-width: 0.8; stroke-linejoin: miter; stroke-linecap: square"/>
   </g>
  </g>
 </g>
 <defs>
  <clipPath id="p8e404343f7">
   <rect x="96.41" y="17.821121" width="612.79" height="326.138879"/>
  </clipPath>
 </defs>
</svg>
