<?xml version="1.0" encoding="utf-8" standalone="no"?>
<!DOCTYPE svg PUBLIC "-//W3C//DTD SVG 1.1//EN"
  "http://www.w3.org/Graphics/SVG/1.1/DTD/svg11.dtd">
<svg xmlns:xlink="http://www.w3.org/1999/xlink" width="720pt" height="432pt" viewBox="0 0 720 432" xmlns="http://www.w3.org/2000/svg" version="1.1">
 <metadata>
  <rdf:RDF xmlns:dc="http://purl.org/dc/elements/1.1/" xmlns:cc="http://creativecommons.org/ns#" xmlns:rdf="http://www.w3.org/1999/02/22-rdf-syntax-ns#">
   <cc:Work>
    <dc:type rdf:resource="http://purl.org/dc/dcmitype/StillImage"/>
    <dc:date>2025-06-20T06:29:54.716519</dc:date>
    <dc:format>image/svg+xml</dc:format>
    <dc:creator>
     <cc:Agent>
      <dc:title>Matplotlib v3.7.1, https://matplotlib.org/</dc:title>
     </cc:Agent>
    </dc:creator>
   </cc:Work>
  </rdf:RDF>
 </metadata>
 <defs>
  <style type="text/css">*{stroke-linejoin: round; stroke-linecap: butt}</style>
 </defs>
 <g id="figure_1">
  <g id="patch_1">
   <path d="M 0 432 
L 720 432 
L 720 0 
L 0 0 
z
" style="fill: #ffffff"/>
  </g>
  <g id="axes_1">
   <g id="patch_2">
    <path d="M 98.93 351.16 
L 709.2 351.16 
L 709.2 10.8 
L 98.93 10.8 
z
" style="fill: #ffffff"/>
   </g>
   <g id="PolyCollection_1">
    <defs>
     <path id="mdd6906a91d" d="M 126.669545 -276.18647 
L 126.669545 -259.474782 
L 130.011659 -239.323864 
L 133.353773 -225.765744 
L 136.695887 -194.241574 
L 140.038001 -204.715093 
L 143.380115 -209.244312 
L 146.722229 -194.667687 
L 150.064343 -201.049469 
L 153.406457 -203.803596 
L 156.748571 -178.294106 
L 160.090685 -172.395393 
L 163.432798 -170.135057 
L 166.774912 -177.475923 
L 170.117026 -187.205305 
L 173.45914 -163.29094 
L 176.801254 -165.341829 
L 180.143368 -153.867826 
L 183.485482 -151.758039 
L 186.827596 -133.683591 
L 190.16971 -122.433843 
L 193.511824 -126.4713 
L 196.853938 -117.817543 
L 200.196051 -108.564378 
L 203.538165 -123.064701 
L 206.880279 -133.790849 
L 210.222393 -151.294432 
L 213.564507 -122.965859 
L 216.906621 -127.795648 
L 220.248735 -118.651298 
L 223.590849 -122.925548 
L 226.932963 -121.939587 
L 230.275077 -124.547635 
L 233.617191 -135.700736 
L 236.959304 -134.678091 
L 240.301418 -134.92982 
L 243.643532 -141.476077 
L 246.985646 -145.374544 
L 250.32776 -136.1137 
L 253.669874 -161.27813 
L 257.011988 -159.195079 
L 260.354102 -146.403071 
L 263.696216 -126.743612 
L 267.03833 -144.416978 
L 270.380444 -130.828092 
L 273.722558 -132.611454 
L 277.064671 -128.075639 
L 280.406785 -133.912614 
L 283.748899 -125.49007 
L 287.091013 -135.222371 
L 290.433127 -136.775449 
L 293.775241 -117.497533 
L 297.117355 -111.373875 
L 300.459469 -97.019274 
L 303.801583 -110.639983 
L 307.143697 -103.563097 
L 310.485811 -125.028416 
L 313.827924 -124.503567 
L 317.170038 -141.211714 
L 320.512152 -138.166405 
L 323.854266 -129.03912 
L 327.19638 -131.342062 
L 330.538494 -135.863869 
L 333.880608 -140.3958 
L 337.222722 -158.407921 
L 340.564836 -151.147376 
L 343.90695 -149.612446 
L 347.249064 -124.760561 
L 350.591177 -132.350896 
L 353.933291 -137.14772 
L 357.275405 -130.054352 
L 360.617519 -140.286142 
L 363.959633 -134.620293 
L 367.301747 -133.00472 
L 370.643861 -133.874424 
L 373.985975 -132.618147 
L 377.328089 -123.09483 
L 380.670203 -125.563829 
L 384.012317 -118.04083 
L 387.35443 -121.260116 
L 390.696544 -128.108094 
L 394.038658 -111.793953 
L 397.380772 -123.394134 
L 400.722886 -133.840737 
L 404.065 -131.860291 
L 407.407114 -132.478249 
L 410.749228 -135.176213 
L 414.091342 -131.685122 
L 417.433456 -112.960591 
L 420.77557 -134.331112 
L 424.117683 -142.002178 
L 427.459797 -127.70747 
L 430.801911 -129.822311 
L 434.144025 -139.541218 
L 437.486139 -129.970653 
L 440.828253 -139.768116 
L 444.170367 -145.634756 
L 447.512481 -128.293253 
L 450.854595 -134.098616 
L 454.196709 -137.579322 
L 457.538823 -134.484773 
L 460.880936 -108.010481 
L 464.22305 -123.533542 
L 467.565164 -138.376064 
L 470.907278 -115.663191 
L 474.249392 -121.07039 
L 477.591506 -132.501408 
L 480.93362 -129.216481 
L 484.275734 -125.839264 
L 487.617848 -128.091925 
L 490.959962 -123.630054 
L 494.302076 -131.020806 
L 497.644189 -123.133122 
L 500.986303 -127.552914 
L 504.328417 -144.548934 
L 507.670531 -124.347574 
L 511.012645 -126.846301 
L 514.354759 -131.738079 
L 517.696873 -126.935156 
L 521.038987 -127.646315 
L 524.381101 -124.589521 
L 527.723215 -148.000285 
L 531.065329 -115.021322 
L 534.407442 -131.947285 
L 537.749556 -144.087937 
L 541.09167 -148.064366 
L 544.433784 -140.893864 
L 547.775898 -134.831634 
L 551.118012 -120.931941 
L 554.460126 -111.098678 
L 557.80224 -121.76105 
L 561.144354 -126.677596 
L 564.486468 -138.31175 
L 567.828582 -142.405942 
L 571.170696 -134.020004 
L 574.512809 -127.690593 
L 577.854923 -139.472659 
L 581.197037 -109.145851 
L 584.539151 -113.943293 
L 587.881265 -118.981628 
L 591.223379 -108.077337 
L 594.565493 -102.36128 
L 597.907607 -106.987818 
L 601.249721 -109.140584 
L 604.591835 -118.211121 
L 607.933949 -118.88975 
L 611.276062 -128.532744 
L 614.618176 -113.58901 
L 617.96029 -119.371078 
L 621.302404 -116.685691 
L 624.644518 -113.210985 
L 627.986632 -118.402723 
L 631.328746 -108.745599 
L 634.67086 -106.474221 
L 638.012974 -112.303793 
L 641.355088 -115.403394 
L 644.697202 -116.372459 
L 648.039315 -108.177406 
L 651.381429 -110.898665 
L 654.723543 -110.218884 
L 658.065657 -98.423399 
L 661.407771 -100.880839 
L 664.749885 -96.749378 
L 668.091999 -106.892915 
L 671.434113 -113.787293 
L 674.776227 -103.430996 
L 678.118341 -106.645073 
L 681.460455 -96.310909 
L 681.460455 -115.750479 
L 681.460455 -115.750479 
L 678.118341 -129.358071 
L 674.776227 -120.472551 
L 671.434113 -127.622054 
L 668.091999 -132.971803 
L 664.749885 -116.341764 
L 661.407771 -116.071876 
L 658.065657 -131.916104 
L 654.723543 -131.70534 
L 651.381429 -122.272658 
L 648.039315 -121.389782 
L 644.697202 -126.066641 
L 641.355088 -129.352651 
L 638.012974 -124.471666 
L 634.67086 -115.36982 
L 631.328746 -139.61458 
L 627.986632 -155.958718 
L 624.644518 -135.149195 
L 621.302404 -150.210041 
L 617.96029 -147.267217 
L 614.618176 -151.247217 
L 611.276062 -142.482001 
L 607.933949 -129.212991 
L 604.591835 -178.804885 
L 601.249721 -175.775825 
L 597.907607 -166.601309 
L 594.565493 -133.899303 
L 591.223379 -126.123739 
L 587.881265 -146.369475 
L 584.539151 -149.348305 
L 581.197037 -156.462691 
L 577.854923 -167.326001 
L 574.512809 -142.294399 
L 571.170696 -161.451374 
L 567.828582 -164.650155 
L 564.486468 -143.772839 
L 561.144354 -152.832611 
L 557.80224 -175.254956 
L 554.460126 -191.58097 
L 551.118012 -179.173324 
L 547.775898 -162.699249 
L 544.433784 -172.855628 
L 541.09167 -163.110744 
L 537.749556 -157.047082 
L 534.407442 -148.077798 
L 531.065329 -146.983085 
L 527.723215 -154.936801 
L 524.381101 -155.178124 
L 521.038987 -152.893644 
L 517.696873 -153.347365 
L 514.354759 -156.782466 
L 511.012645 -177.635414 
L 507.670531 -178.589512 
L 504.328417 -169.457996 
L 500.986303 -172.552352 
L 497.644189 -159.723781 
L 494.302076 -165.737762 
L 490.959962 -156.652467 
L 487.617848 -158.369114 
L 484.275734 -156.245325 
L 480.93362 -146.432152 
L 477.591506 -153.702193 
L 474.249392 -132.438555 
L 470.907278 -145.054025 
L 467.565164 -152.718863 
L 464.22305 -151.600214 
L 460.880936 -150.904667 
L 457.538823 -155.322963 
L 454.196709 -168.189584 
L 450.854595 -154.936806 
L 447.512481 -145.295874 
L 444.170367 -180.471771 
L 440.828253 -188.140479 
L 437.486139 -176.055692 
L 434.144025 -168.029757 
L 430.801911 -143.766816 
L 427.459797 -154.11968 
L 424.117683 -165.311358 
L 420.77557 -158.565883 
L 417.433456 -156.509524 
L 414.091342 -171.251964 
L 410.749228 -187.841055 
L 407.407114 -186.420007 
L 404.065 -224.881386 
L 400.722886 -217.752176 
L 397.380772 -235.149611 
L 394.038658 -235.937386 
L 390.696544 -210.09803 
L 387.35443 -217.203447 
L 384.012317 -223.511991 
L 380.670203 -239.930748 
L 377.328089 -232.102218 
L 373.985975 -247.55041 
L 370.643861 -260.968112 
L 367.301747 -223.479519 
L 363.959633 -208.219719 
L 360.617519 -200.751803 
L 357.275405 -211.498469 
L 353.933291 -196.424516 
L 350.591177 -177.279584 
L 347.249064 -181.78066 
L 343.90695 -198.118893 
L 340.564836 -157.710789 
L 337.222722 -177.223821 
L 333.880608 -168.977242 
L 330.538494 -185.60877 
L 327.19638 -168.248327 
L 323.854266 -191.146328 
L 320.512152 -184.078549 
L 317.170038 -205.489872 
L 313.827924 -186.156666 
L 310.485811 -190.780581 
L 307.143697 -171.570659 
L 303.801583 -180.712382 
L 300.459469 -158.291738 
L 297.117355 -164.017319 
L 293.775241 -143.47712 
L 290.433127 -155.864108 
L 287.091013 -173.120917 
L 283.748899 -158.911463 
L 280.406785 -150.488918 
L 277.064671 -156.325894 
L 273.722558 -148.443382 
L 270.380444 -158.979643 
L 267.03833 -158.005231 
L 263.696216 -146.588076 
L 260.354102 -176.356759 
L 257.011988 -168.970955 
L 253.669874 -167.40278 
L 250.32776 -186.388692 
L 246.985646 -165.28569 
L 243.643532 -182.828383 
L 240.301418 -176.760166 
L 236.959304 -171.090816 
L 233.617191 -150.245427 
L 230.275077 -144.150166 
L 226.932963 -168.897902 
L 223.590849 -160.446232 
L 220.248735 -151.076255 
L 216.906621 -159.695144 
L 213.564507 -169.673698 
L 210.222393 -179.445983 
L 206.880279 -188.711543 
L 203.538165 -196.090994 
L 200.196051 -196.94709 
L 196.853938 -195.159634 
L 193.511824 -193.456709 
L 190.16971 -195.692099 
L 186.827596 -216.879568 
L 183.485482 -211.162156 
L 180.143368 -229.647428 
L 176.801254 -217.915987 
L 173.45914 -235.41317 
L 170.117026 -237.500067 
L 166.774912 -245.169943 
L 163.432798 -221.875659 
L 160.090685 -232.487235 
L 156.748571 -223.499263 
L 153.406457 -225.793102 
L 150.064343 -222.368712 
L 146.722229 -223.601729 
L 143.380115 -228.332971 
L 140.038001 -218.960526 
L 136.695887 -229.691483 
L 133.353773 -239.614869 
L 130.011659 -254.889832 
L 126.669545 -276.18647 
z
" style="stroke: #0000ff; stroke-opacity: 0.3"/>
    </defs>
    <g clip-path="url(#pd53a0bbb49)">
     <use xlink:href="#mdd6906a91d" x="0" y="432" style="fill: #0000ff; fill-opacity: 0.3; stroke: #0000ff; stroke-opacity: 0.3"/>
    </g>
   </g>
   <g id="PolyCollection_2">
    <defs>
     <path id="mf85e425339" d="M 126.669545 -278.419916 
L 126.669545 -251.835133 
L 130.011659 -244.843772 
L 133.353773 -238.219384 
L 136.695887 -217.864793 
L 140.038001 -208.189644 
L 143.380115 -203.402352 
L 146.722229 -216.182222 
L 150.064343 -196.594767 
L 153.406457 -210.369637 
L 156.748571 -206.396996 
L 160.090685 -212.119174 
L 163.432798 -201.015921 
L 166.774912 -177.587605 
L 170.117026 -183.779556 
L 173.45914 -191.058059 
L 176.801254 -188.167734 
L 180.143368 -204.054239 
L 183.485482 -203.758668 
L 186.827596 -195.451742 
L 190.16971 -193.788573 
L 193.511824 -178.092342 
L 196.853938 -187.399805 
L 200.196051 -189.790458 
L 203.538165 -174.156436 
L 206.880279 -178.0445 
L 210.222393 -183.024365 
L 213.564507 -189.317628 
L 216.906621 -192.400408 
L 220.248735 -178.105707 
L 223.590849 -184.727644 
L 226.932963 -167.543541 
L 230.275077 -180.760273 
L 233.617191 -187.14442 
L 236.959304 -173.339998 
L 240.301418 -182.393374 
L 243.643532 -178.805737 
L 246.985646 -176.64568 
L 250.32776 -174.074672 
L 253.669874 -194.378046 
L 257.011988 -172.11854 
L 260.354102 -195.705045 
L 263.696216 -225.714251 
L 267.03833 -217.108449 
L 270.380444 -220.513449 
L 273.722558 -213.368627 
L 277.064671 -196.115695 
L 280.406785 -200.431375 
L 283.748899 -226.943979 
L 287.091013 -220.149775 
L 290.433127 -201.679779 
L 293.775241 -168.853909 
L 297.117355 -154.916256 
L 300.459469 -178.025711 
L 303.801583 -168.542768 
L 307.143697 -171.51709 
L 310.485811 -156.96357 
L 313.827924 -178.943473 
L 317.170038 -154.681053 
L 320.512152 -153.301069 
L 323.854266 -180.548545 
L 327.19638 -193.348375 
L 330.538494 -175.297676 
L 333.880608 -175.062008 
L 337.222722 -165.166084 
L 340.564836 -161.352082 
L 343.90695 -178.175761 
L 347.249064 -183.626589 
L 350.591177 -198.457829 
L 353.933291 -200.138677 
L 357.275405 -191.027377 
L 360.617519 -206.978783 
L 363.959633 -247.612577 
L 367.301747 -237.89026 
L 370.643861 -214.329969 
L 373.985975 -209.334498 
L 377.328089 -163.186308 
L 380.670203 -176.986207 
L 384.012317 -203.703266 
L 387.35443 -208.298291 
L 390.696544 -189.497632 
L 394.038658 -200.258735 
L 397.380772 -190.565966 
L 400.722886 -178.612435 
L 404.065 -183.546122 
L 407.407114 -199.95749 
L 410.749228 -199.444152 
L 414.091342 -204.538656 
L 417.433456 -216.966053 
L 420.77557 -255.028094 
L 424.117683 -235.333261 
L 427.459797 -251.937751 
L 430.801911 -243.923349 
L 434.144025 -265.083983 
L 437.486139 -276.90987 
L 440.828253 -257.528294 
L 444.170367 -256.473245 
L 447.512481 -271.694998 
L 450.854595 -241.005866 
L 454.196709 -254.922423 
L 457.538823 -246.555532 
L 460.880936 -255.616068 
L 464.22305 -262.478128 
L 467.565164 -257.390706 
L 470.907278 -240.859513 
L 474.249392 -247.921845 
L 477.591506 -224.512669 
L 480.93362 -221.952779 
L 484.275734 -256.999607 
L 487.617848 -237.233025 
L 490.959962 -220.381706 
L 494.302076 -216.502814 
L 497.644189 -201.166018 
L 500.986303 -186.915597 
L 504.328417 -182.552614 
L 507.670531 -198.274377 
L 511.012645 -205.127609 
L 514.354759 -221.211456 
L 517.696873 -193.388101 
L 521.038987 -193.766384 
L 524.381101 -184.71516 
L 527.723215 -164.16731 
L 531.065329 -177.986499 
L 534.407442 -189.674416 
L 537.749556 -214.361417 
L 541.09167 -215.372653 
L 544.433784 -205.335759 
L 547.775898 -206.181812 
L 551.118012 -200.586826 
L 554.460126 -202.630014 
L 557.80224 -181.011428 
L 561.144354 -205.542174 
L 564.486468 -195.456779 
L 567.828582 -181.62077 
L 571.170696 -168.557413 
L 574.512809 -171.457477 
L 577.854923 -192.235681 
L 581.197037 -203.16068 
L 584.539151 -241.967999 
L 587.881265 -253.596672 
L 591.223379 -258.013377 
L 594.565493 -250.249102 
L 597.907607 -236.281579 
L 601.249721 -226.243935 
L 604.591835 -209.255066 
L 607.933949 -184.973983 
L 611.276062 -164.875643 
L 614.618176 -186.211651 
L 617.96029 -209.224924 
L 621.302404 -222.478518 
L 624.644518 -208.773931 
L 627.986632 -201.796689 
L 631.328746 -189.798797 
L 634.67086 -195.14948 
L 638.012974 -214.657545 
L 641.355088 -204.569966 
L 644.697202 -212.45771 
L 648.039315 -225.355033 
L 651.381429 -227.004376 
L 654.723543 -226.982089 
L 658.065657 -205.742085 
L 661.407771 -193.523271 
L 664.749885 -209.454756 
L 668.091999 -208.904544 
L 671.434113 -226.44168 
L 674.776227 -227.52325 
L 678.118341 -231.190007 
L 681.460455 -242.906991 
L 681.460455 -278.852597 
L 681.460455 -278.852597 
L 678.118341 -267.400139 
L 674.776227 -255.620602 
L 671.434113 -260.306307 
L 668.091999 -267.803352 
L 664.749885 -263.906443 
L 661.407771 -257.69824 
L 658.065657 -252.687696 
L 654.723543 -255.646886 
L 651.381429 -239.663428 
L 648.039315 -263.967336 
L 644.697202 -246.744386 
L 641.355088 -260.810647 
L 638.012974 -265.397048 
L 634.67086 -262.250548 
L 631.328746 -260.135522 
L 627.986632 -266.158307 
L 624.644518 -270.765785 
L 621.302404 -273.794684 
L 617.96029 -281.127198 
L 614.618176 -295.645009 
L 611.276062 -270.899573 
L 607.933949 -265.475212 
L 604.591835 -254.838357 
L 601.249721 -253.295782 
L 597.907607 -254.327981 
L 594.565493 -267.391473 
L 591.223379 -278.162751 
L 587.881265 -265.845971 
L 584.539151 -248.641561 
L 581.197037 -255.783977 
L 577.854923 -266.966414 
L 574.512809 -285.942551 
L 571.170696 -281.119467 
L 567.828582 -286.849102 
L 564.486468 -309.054446 
L 561.144354 -294.077725 
L 557.80224 -308.825818 
L 554.460126 -300.079143 
L 551.118012 -300.83514 
L 547.775898 -288.546761 
L 544.433784 -279.352722 
L 541.09167 -268.286075 
L 537.749556 -287.832864 
L 534.407442 -282.65703 
L 531.065329 -269.115999 
L 527.723215 -257.448803 
L 524.381101 -265.991474 
L 521.038987 -264.663397 
L 517.696873 -252.169769 
L 514.354759 -268.368351 
L 511.012645 -274.154669 
L 507.670531 -265.04673 
L 504.328417 -263.005255 
L 500.986303 -265.850543 
L 497.644189 -248.510863 
L 494.302076 -262.264588 
L 490.959962 -259.672887 
L 487.617848 -242.049253 
L 484.275734 -276.602139 
L 480.93362 -301.093999 
L 477.591506 -298.534109 
L 474.249392 -289.026598 
L 470.907278 -291.969918 
L 467.565164 -298.608167 
L 464.22305 -302.531083 
L 460.880936 -285.708825 
L 457.538823 -271.59992 
L 454.196709 -286.917346 
L 450.854595 -271.485945 
L 447.512481 -283.53156 
L 444.170367 -276.871063 
L 440.828253 -292.034623 
L 437.486139 -299.684062 
L 434.144025 -279.587607 
L 430.801911 -265.99408 
L 427.459797 -269.821836 
L 424.117683 -259.910187 
L 420.77557 -269.048437 
L 417.433456 -276.732767 
L 414.091342 -270.624611 
L 410.749228 -223.459152 
L 407.407114 -217.79705 
L 404.065 -222.881135 
L 400.722886 -229.874328 
L 397.380772 -247.011318 
L 394.038658 -229.595401 
L 390.696544 -233.66311 
L 387.35443 -224.387666 
L 384.012317 -244.428986 
L 380.670203 -230.98568 
L 377.328089 -228.309532 
L 373.985975 -239.570068 
L 370.643861 -236.376665 
L 367.301747 -240.104827 
L 363.959633 -249.43294 
L 360.617519 -284.403092 
L 357.275405 -274.095799 
L 353.933291 -241.815057 
L 350.591177 -251.991366 
L 347.249064 -260.644089 
L 343.90695 -242.410599 
L 340.564836 -234.005331 
L 337.222722 -242.805803 
L 333.880608 -234.969385 
L 330.538494 -214.396095 
L 327.19638 -207.672679 
L 323.854266 -234.116735 
L 320.512152 -244.11585 
L 317.170038 -233.468089 
L 313.827924 -258.633811 
L 310.485811 -274.950073 
L 307.143697 -264.773003 
L 303.801583 -257.964672 
L 300.459469 -241.788334 
L 297.117355 -227.311807 
L 293.775241 -220.839863 
L 290.433127 -255.462811 
L 287.091013 -282.816821 
L 283.748899 -261.091199 
L 280.406785 -262.889732 
L 277.064671 -246.610353 
L 273.722558 -262.566954 
L 270.380444 -243.322535 
L 267.03833 -241.321332 
L 263.696216 -246.102319 
L 260.354102 -254.486713 
L 257.011988 -242.031864 
L 253.669874 -226.723191 
L 250.32776 -259.641038 
L 246.985646 -240.336545 
L 243.643532 -218.86862 
L 240.301418 -198.804936 
L 236.959304 -211.719886 
L 233.617191 -215.163825 
L 230.275077 -217.943837 
L 226.932963 -226.526681 
L 223.590849 -224.788872 
L 220.248735 -225.48973 
L 216.906621 -212.739658 
L 213.564507 -221.486079 
L 210.222393 -219.28388 
L 206.880279 -220.917049 
L 203.538165 -232.785698 
L 200.196051 -211.230597 
L 196.853938 -218.512576 
L 193.511824 -207.224979 
L 190.16971 -212.381246 
L 186.827596 -236.976777 
L 183.485482 -227.897536 
L 180.143368 -221.938324 
L 176.801254 -246.320291 
L 173.45914 -254.757248 
L 170.117026 -249.678716 
L 166.774912 -248.919834 
L 163.432798 -249.948151 
L 160.090685 -239.102336 
L 156.748571 -233.239794 
L 153.406457 -232.61385 
L 150.064343 -226.308537 
L 146.722229 -223.454568 
L 143.380115 -232.887741 
L 140.038001 -245.863687 
L 136.695887 -241.85218 
L 133.353773 -243.894715 
L 130.011659 -257.093071 
L 126.669545 -278.419916 
z
" style="stroke: #008000; stroke-opacity: 0.3"/>
    </defs>
    <g clip-path="url(#pd53a0bbb49)">
     <use xlink:href="#mf85e425339" x="0" y="432" style="fill: #008000; fill-opacity: 0.3; stroke: #008000; stroke-opacity: 0.3"/>
    </g>
   </g>
   <g id="PolyCollection_3">
    <defs>
     <path id="m7b8622b7df" d="M 126.669545 -402.015784 
L 126.669545 -386.449816 
L 130.011659 -392.964782 
L 133.353773 -388.025542 
L 136.695887 -378.429918 
L 140.038001 -388.194369 
L 143.380115 -374.774803 
L 146.722229 -373.988679 
L 150.064343 -369.480569 
L 153.406457 -377.459026 
L 156.748571 -383.239711 
L 160.090685 -382.031066 
L 163.432798 -369.521304 
L 166.774912 -362.616092 
L 170.117026 -357.70957 
L 173.45914 -360.026164 
L 176.801254 -362.905734 
L 180.143368 -355.570378 
L 183.485482 -349.209448 
L 186.827596 -342.50724 
L 190.16971 -350.517095 
L 193.511824 -353.796855 
L 196.853938 -349.872925 
L 200.196051 -340.858589 
L 203.538165 -341.63183 
L 206.880279 -324.462965 
L 210.222393 -315.823205 
L 213.564507 -324.191177 
L 216.906621 -332.311073 
L 220.248735 -333.215817 
L 223.590849 -326.351887 
L 226.932963 -319.569778 
L 230.275077 -339.731767 
L 233.617191 -328.976038 
L 236.959304 -340.787101 
L 240.301418 -334.056715 
L 243.643532 -325.239978 
L 246.985646 -321.348709 
L 250.32776 -307.86893 
L 253.669874 -291.575102 
L 257.011988 -291.931773 
L 260.354102 -313.222887 
L 263.696216 -312.159571 
L 267.03833 -322.80228 
L 270.380444 -324.117098 
L 273.722558 -315.645904 
L 277.064671 -299.242064 
L 280.406785 -302.775709 
L 283.748899 -294.037737 
L 287.091013 -282.214558 
L 290.433127 -270.041843 
L 293.775241 -272.88593 
L 297.117355 -256.852177 
L 300.459469 -255.669843 
L 303.801583 -254.715387 
L 307.143697 -263.54356 
L 310.485811 -274.186303 
L 313.827924 -263.003731 
L 317.170038 -265.474347 
L 320.512152 -275.108574 
L 323.854266 -259.933832 
L 327.19638 -257.668126 
L 330.538494 -267.829344 
L 333.880608 -265.797018 
L 337.222722 -259.480989 
L 340.564836 -249.731628 
L 343.90695 -241.005336 
L 347.249064 -245.581154 
L 350.591177 -235.747507 
L 353.933291 -240.799852 
L 357.275405 -246.19765 
L 360.617519 -242.791239 
L 363.959633 -236.730547 
L 367.301747 -238.235369 
L 370.643861 -226.215679 
L 373.985975 -240.325608 
L 377.328089 -228.27559 
L 380.670203 -241.197066 
L 384.012317 -229.338861 
L 387.35443 -230.64179 
L 390.696544 -215.628694 
L 394.038658 -205.240823 
L 397.380772 -211.010582 
L 400.722886 -201.774504 
L 404.065 -213.386439 
L 407.407114 -207.444124 
L 410.749228 -209.495656 
L 414.091342 -218.552663 
L 417.433456 -201.945587 
L 420.77557 -190.494867 
L 424.117683 -195.861701 
L 427.459797 -177.485717 
L 430.801911 -201.95055 
L 434.144025 -204.915879 
L 437.486139 -185.237674 
L 440.828253 -174.319771 
L 444.170367 -184.007688 
L 447.512481 -167.075746 
L 450.854595 -169.247787 
L 454.196709 -171.478066 
L 457.538823 -162.338169 
L 460.880936 -156.275304 
L 464.22305 -153.057062 
L 467.565164 -148.225142 
L 470.907278 -142.008809 
L 474.249392 -141.404779 
L 477.591506 -134.730797 
L 480.93362 -137.898709 
L 484.275734 -143.589649 
L 487.617848 -156.661011 
L 490.959962 -142.488077 
L 494.302076 -137.203068 
L 497.644189 -140.074546 
L 500.986303 -135.021013 
L 504.328417 -135.588748 
L 507.670531 -136.348902 
L 511.012645 -140.318495 
L 514.354759 -135.466257 
L 517.696873 -144.389855 
L 521.038987 -124.495151 
L 524.381101 -129.351953 
L 527.723215 -141.192476 
L 531.065329 -140.171313 
L 534.407442 -133.662311 
L 537.749556 -127.891264 
L 541.09167 -130.008245 
L 544.433784 -119.133838 
L 547.775898 -141.08284 
L 551.118012 -147.912526 
L 554.460126 -137.068123 
L 557.80224 -146.175863 
L 561.144354 -136.379754 
L 564.486468 -137.359433 
L 567.828582 -146.877966 
L 571.170696 -124.65585 
L 574.512809 -127.643512 
L 577.854923 -135.234711 
L 581.197037 -125.699321 
L 584.539151 -135.053433 
L 587.881265 -130.59166 
L 591.223379 -130.871645 
L 594.565493 -118.819623 
L 597.907607 -139.364974 
L 601.249721 -126.503728 
L 604.591835 -108.079685 
L 607.933949 -137.451488 
L 611.276062 -123.005235 
L 614.618176 -128.729586 
L 617.96029 -133.361778 
L 621.302404 -125.925576 
L 624.644518 -119.476078 
L 627.986632 -125.057606 
L 631.328746 -127.110238 
L 634.67086 -124.816388 
L 638.012974 -133.820066 
L 641.355088 -160.136161 
L 644.697202 -141.001228 
L 648.039315 -131.072695 
L 651.381429 -135.110721 
L 654.723543 -120.496672 
L 658.065657 -141.268509 
L 661.407771 -159.238729 
L 664.749885 -146.494799 
L 668.091999 -146.703037 
L 671.434113 -126.090103 
L 674.776227 -129.969746 
L 678.118341 -138.244885 
L 681.460455 -150.562913 
L 681.460455 -179.405188 
L 681.460455 -179.405188 
L 678.118341 -164.692201 
L 674.776227 -160.610304 
L 671.434113 -175.559792 
L 668.091999 -175.284479 
L 664.749885 -195.830337 
L 661.407771 -201.107084 
L 658.065657 -194.363234 
L 654.723543 -193.510258 
L 651.381429 -218.799136 
L 648.039315 -229.01568 
L 644.697202 -208.017302 
L 641.355088 -194.803448 
L 638.012974 -182.503808 
L 634.67086 -174.774001 
L 631.328746 -155.489228 
L 627.986632 -172.988153 
L 624.644518 -159.004376 
L 621.302404 -160.535463 
L 617.96029 -166.743487 
L 614.618176 -153.355003 
L 611.276062 -164.485557 
L 607.933949 -195.86331 
L 604.591835 -186.876815 
L 601.249721 -190.849899 
L 597.907607 -160.225415 
L 594.565493 -170.215798 
L 591.223379 -148.895999 
L 587.881265 -153.037558 
L 584.539151 -153.209674 
L 581.197037 -156.385268 
L 577.854923 -168.989566 
L 574.512809 -158.045213 
L 571.170696 -174.6771 
L 567.828582 -151.425232 
L 564.486468 -155.537562 
L 561.144354 -157.804432 
L 557.80224 -160.365358 
L 554.460126 -145.273904 
L 551.118012 -159.915886 
L 547.775898 -159.022425 
L 544.433784 -167.842077 
L 541.09167 -162.373873 
L 537.749556 -174.530945 
L 534.407442 -175.710731 
L 531.065329 -190.311664 
L 527.723215 -192.894637 
L 524.381101 -196.754574 
L 521.038987 -212.423783 
L 517.696873 -221.104722 
L 514.354759 -219.730791 
L 511.012645 -234.186421 
L 507.670531 -232.749811 
L 504.328417 -240.975674 
L 500.986303 -252.355815 
L 497.644189 -250.906416 
L 494.302076 -236.529533 
L 490.959962 -246.175941 
L 487.617848 -255.944763 
L 484.275734 -264.382237 
L 480.93362 -277.02401 
L 477.591506 -282.508866 
L 474.249392 -290.508863 
L 470.907278 -293.508969 
L 467.565164 -284.460815 
L 464.22305 -295.332628 
L 460.880936 -290.569756 
L 457.538823 -287.081274 
L 454.196709 -281.288074 
L 450.854595 -264.467923 
L 447.512481 -273.07592 
L 444.170367 -268.758452 
L 440.828253 -277.159177 
L 437.486139 -274.479298 
L 434.144025 -288.010625 
L 430.801911 -268.578828 
L 427.459797 -269.101905 
L 424.117683 -282.390824 
L 420.77557 -283.381208 
L 417.433456 -283.257771 
L 414.091342 -288.790383 
L 410.749228 -297.589952 
L 407.407114 -293.977843 
L 404.065 -304.511575 
L 400.722886 -308.142924 
L 397.380772 -316.670084 
L 394.038658 -323.212158 
L 390.696544 -324.923884 
L 387.35443 -325.614521 
L 384.012317 -330.521586 
L 380.670203 -304.246839 
L 377.328089 -327.465844 
L 373.985975 -329.060053 
L 370.643861 -317.941035 
L 367.301747 -313.387054 
L 363.959633 -314.634437 
L 360.617519 -307.543992 
L 357.275405 -315.207426 
L 353.933291 -309.535379 
L 350.591177 -312.785657 
L 347.249064 -302.437133 
L 343.90695 -317.310481 
L 340.564836 -311.158571 
L 337.222722 -312.736492 
L 333.880608 -313.113858 
L 330.538494 -332.448905 
L 327.19638 -336.431606 
L 323.854266 -330.046888 
L 320.512152 -350.656061 
L 317.170038 -337.120847 
L 313.827924 -320.283594 
L 310.485811 -336.389476 
L 307.143697 -335.19006 
L 303.801583 -340.414098 
L 300.459469 -340.489394 
L 297.117355 -345.22814 
L 293.775241 -359.31466 
L 290.433127 -356.495107 
L 287.091013 -337.628998 
L 283.748899 -333.271527 
L 280.406785 -346.930682 
L 277.064671 -340.939112 
L 273.722558 -340.239005 
L 270.380444 -342.837655 
L 267.03833 -330.508246 
L 263.696216 -352.220799 
L 260.354102 -355.791372 
L 257.011988 -362.665944 
L 253.669874 -369.458572 
L 250.32776 -375.046993 
L 246.985646 -374.954002 
L 243.643532 -378.271005 
L 240.301418 -374.603033 
L 236.959304 -373.021411 
L 233.617191 -372.218 
L 230.275077 -389.008162 
L 226.932963 -392.179228 
L 223.590849 -389.51613 
L 220.248735 -385.484021 
L 216.906621 -380.982562 
L 213.564507 -382.666503 
L 210.222393 -377.390247 
L 206.880279 -385.483973 
L 203.538165 -379.384952 
L 200.196051 -388.396217 
L 196.853938 -386.590152 
L 193.511824 -383.953413 
L 190.16971 -386.460858 
L 186.827596 -382.371116 
L 183.485482 -387.768505 
L 180.143368 -398.913375 
L 176.801254 -398.271414 
L 173.45914 -397.546848 
L 170.117026 -389.308475 
L 166.774912 -386.976334 
L 163.432798 -382.388066 
L 160.090685 -390.730802 
L 156.748571 -391.581663 
L 153.406457 -384.490436 
L 150.064343 -387.320128 
L 146.722229 -376.376063 
L 143.380115 -385.63003 
L 140.038001 -401.300984 
L 136.695887 -390.727815 
L 133.353773 -395.548732 
L 130.011659 -402.451651 
L 126.669545 -402.015784 
z
" style="stroke: #ff0000; stroke-opacity: 0.3"/>
    </defs>
    <g clip-path="url(#pd53a0bbb49)">
     <use xlink:href="#m7b8622b7df" x="0" y="432" style="fill: #ff0000; fill-opacity: 0.3; stroke: #ff0000; stroke-opacity: 0.3"/>
    </g>
   </g>
   <g id="PolyCollection_4">
    <defs>
     <path id="m69dc9a8a7b" d="M 126.669545 -405.729091 
L 126.669545 -398.69768 
L 130.011659 -388.324609 
L 133.353773 -387.43744 
L 136.695887 -379.581951 
L 140.038001 -383.244044 
L 143.380115 -377.797775 
L 146.722229 -365.854447 
L 150.064343 -373.117412 
L 153.406457 -369.02771 
L 156.748571 -372.017938 
L 160.090685 -359.661068 
L 163.432798 -361.343988 
L 166.774912 -360.353484 
L 170.117026 -352.705131 
L 173.45914 -357.481288 
L 176.801254 -345.480891 
L 180.143368 -337.755113 
L 183.485482 -349.734852 
L 186.827596 -342.223891 
L 190.16971 -334.554902 
L 193.511824 -332.700929 
L 196.853938 -331.316572 
L 200.196051 -327.606335 
L 203.538165 -329.198144 
L 206.880279 -326.691348 
L 210.222393 -317.354655 
L 213.564507 -317.409123 
L 216.906621 -322.826978 
L 220.248735 -340.414537 
L 223.590849 -346.508388 
L 226.932963 -352.185927 
L 230.275077 -341.00666 
L 233.617191 -349.96182 
L 236.959304 -358.418247 
L 240.301418 -341.568356 
L 243.643532 -352.310782 
L 246.985646 -341.361672 
L 250.32776 -351.268044 
L 253.669874 -347.032672 
L 257.011988 -347.652825 
L 260.354102 -340.227376 
L 263.696216 -336.581743 
L 267.03833 -350.56188 
L 270.380444 -329.421271 
L 273.722558 -345.216823 
L 277.064671 -335.114784 
L 280.406785 -317.321728 
L 283.748899 -317.760781 
L 287.091013 -321.650299 
L 290.433127 -324.034325 
L 293.775241 -320.445454 
L 297.117355 -330.539967 
L 300.459469 -311.477816 
L 303.801583 -307.177547 
L 307.143697 -295.171866 
L 310.485811 -297.883785 
L 313.827924 -304.106616 
L 317.170038 -305.658539 
L 320.512152 -330.136344 
L 323.854266 -307.828501 
L 327.19638 -313.28807 
L 330.538494 -307.809221 
L 333.880608 -311.759254 
L 337.222722 -310.271799 
L 340.564836 -295.36908 
L 343.90695 -292.647254 
L 347.249064 -285.128724 
L 350.591177 -298.255963 
L 353.933291 -297.641633 
L 357.275405 -291.845108 
L 360.617519 -297.087031 
L 363.959633 -299.458136 
L 367.301747 -302.285931 
L 370.643861 -298.075427 
L 373.985975 -279.39733 
L 377.328089 -295.540857 
L 380.670203 -308.895412 
L 384.012317 -307.065436 
L 387.35443 -314.700702 
L 390.696544 -320.240109 
L 394.038658 -331.174812 
L 397.380772 -324.140081 
L 400.722886 -340.764082 
L 404.065 -353.424689 
L 407.407114 -343.055918 
L 410.749228 -348.417327 
L 414.091342 -343.011124 
L 417.433456 -328.535095 
L 420.77557 -331.004591 
L 424.117683 -342.814651 
L 427.459797 -338.392122 
L 430.801911 -353.764069 
L 434.144025 -345.898103 
L 437.486139 -336.203016 
L 440.828253 -330.360995 
L 444.170367 -335.532649 
L 447.512481 -324.568067 
L 450.854595 -336.324476 
L 454.196709 -318.873436 
L 457.538823 -323.560443 
L 460.880936 -316.566212 
L 464.22305 -328.642826 
L 467.565164 -329.626264 
L 470.907278 -327.234587 
L 474.249392 -327.071773 
L 477.591506 -320.603149 
L 480.93362 -315.391498 
L 484.275734 -325.526464 
L 487.617848 -312.62646 
L 490.959962 -336.526245 
L 494.302076 -319.558914 
L 497.644189 -301.63516 
L 500.986303 -308.914174 
L 504.328417 -314.028873 
L 507.670531 -317.106511 
L 511.012645 -313.715312 
L 514.354759 -309.012937 
L 517.696873 -301.02536 
L 521.038987 -285.412908 
L 524.381101 -302.669247 
L 527.723215 -298.527953 
L 531.065329 -319.840363 
L 534.407442 -293.56441 
L 537.749556 -314.760053 
L 541.09167 -319.831311 
L 544.433784 -322.872942 
L 547.775898 -335.97117 
L 551.118012 -335.811265 
L 554.460126 -353.483643 
L 557.80224 -359.590432 
L 561.144354 -349.911196 
L 564.486468 -360.391911 
L 567.828582 -356.974577 
L 571.170696 -352.363973 
L 574.512809 -351.275451 
L 577.854923 -349.902468 
L 581.197037 -364.53339 
L 584.539151 -355.649846 
L 587.881265 -359.290873 
L 591.223379 -359.44423 
L 594.565493 -361.853339 
L 597.907607 -358.478634 
L 601.249721 -356.955262 
L 604.591835 -328.109316 
L 607.933949 -330.692317 
L 611.276062 -342.174517 
L 614.618176 -344.569274 
L 617.96029 -343.271568 
L 621.302404 -323.141586 
L 624.644518 -326.068496 
L 627.986632 -346.381104 
L 631.328746 -332.959493 
L 634.67086 -325.862657 
L 638.012974 -336.320056 
L 641.355088 -344.787444 
L 644.697202 -359.065592 
L 648.039315 -354.364352 
L 651.381429 -354.272277 
L 654.723543 -356.328956 
L 658.065657 -358.167466 
L 661.407771 -354.487156 
L 664.749885 -354.752932 
L 668.091999 -352.389233 
L 671.434113 -352.880454 
L 674.776227 -353.269918 
L 678.118341 -365.740756 
L 681.460455 -365.711635 
L 681.460455 -385.425421 
L 681.460455 -385.425421 
L 678.118341 -384.881423 
L 674.776227 -387.31217 
L 671.434113 -389.503702 
L 668.091999 -380.984584 
L 664.749885 -384.799404 
L 661.407771 -379.401538 
L 658.065657 -375.46379 
L 654.723543 -374.213041 
L 651.381429 -369.576326 
L 648.039315 -376.435083 
L 644.697202 -387.437575 
L 641.355088 -381.378103 
L 638.012974 -379.033086 
L 634.67086 -392.837182 
L 631.328746 -388.05729 
L 627.986632 -389.05222 
L 624.644518 -404.730939 
L 621.302404 -401.994208 
L 617.96029 -397.825397 
L 614.618176 -382.111149 
L 611.276062 -388.882356 
L 607.933949 -381.314127 
L 604.591835 -394.966973 
L 601.249721 -378.992938 
L 597.907607 -378.499319 
L 594.565493 -391.343223 
L 591.223379 -384.999432 
L 587.881265 -372.538315 
L 584.539151 -384.932243 
L 581.197037 -387.890857 
L 577.854923 -392.22425 
L 574.512809 -385.95994 
L 571.170696 -383.069351 
L 567.828582 -374.339735 
L 564.486468 -391.51746 
L 561.144354 -377.026666 
L 557.80224 -384.080915 
L 554.460126 -384.266625 
L 551.118012 -374.907988 
L 547.775898 -378.609657 
L 544.433784 -383.212423 
L 541.09167 -382.907357 
L 537.749556 -376.651332 
L 534.407442 -394.24284 
L 531.065329 -379.551607 
L 527.723215 -387.734667 
L 524.381101 -395.178094 
L 521.038987 -392.354251 
L 517.696873 -400.683555 
L 514.354759 -387.547213 
L 511.012645 -375.636567 
L 507.670531 -380.483392 
L 504.328417 -376.610197 
L 500.986303 -388.933167 
L 497.644189 -383.855146 
L 494.302076 -371.852471 
L 490.959962 -376.767391 
L 487.617848 -385.993196 
L 484.275734 -377.984519 
L 480.93362 -389.149237 
L 477.591506 -392.175609 
L 474.249392 -385.449548 
L 470.907278 -374.216889 
L 467.565164 -370.79546 
L 464.22305 -384.908248 
L 460.880936 -379.221623 
L 457.538823 -365.27656 
L 454.196709 -377.944152 
L 450.854595 -366.671629 
L 447.512481 -361.694553 
L 444.170367 -374.671728 
L 440.828253 -373.149987 
L 437.486139 -377.348058 
L 434.144025 -389.277783 
L 430.801911 -376.263052 
L 427.459797 -372.32713 
L 424.117683 -388.757099 
L 420.77557 -373.793583 
L 417.433456 -370.856876 
L 414.091342 -364.361432 
L 410.749228 -369.767635 
L 407.407114 -360.712503 
L 404.065 -369.394162 
L 400.722886 -362.232023 
L 397.380772 -368.301057 
L 394.038658 -357.662191 
L 390.696544 -370.398962 
L 387.35443 -370.532165 
L 384.012317 -364.523205 
L 380.670203 -377.367208 
L 377.328089 -368.067199 
L 373.985975 -369.536747 
L 370.643861 -365.27519 
L 367.301747 -370.332463 
L 363.959633 -354.882143 
L 360.617519 -355.451181 
L 357.275405 -359.66335 
L 353.933291 -348.203184 
L 350.591177 -339.608269 
L 347.249064 -346.042114 
L 343.90695 -346.50417 
L 340.564836 -346.614164 
L 337.222722 -345.613109 
L 333.880608 -350.56161 
L 330.538494 -369.7005 
L 327.19638 -366.538595 
L 323.854266 -369.681219 
L 320.512152 -362.304794 
L 317.170038 -355.89001 
L 313.827924 -377.522116 
L 310.485811 -368.556091 
L 307.143697 -363.544864 
L 303.801583 -367.242914 
L 300.459469 -352.13024 
L 297.117355 -350.573889 
L 293.775241 -349.598558 
L 290.433127 -344.722495 
L 287.091013 -333.719733 
L 283.748899 -335.807183 
L 280.406785 -338.048304 
L 277.064671 -348.058578 
L 273.722558 -347.739192 
L 270.380444 -349.375641 
L 267.03833 -358.612744 
L 263.696216 -357.404025 
L 260.354102 -365.343112 
L 257.011988 -364.868496 
L 253.669874 -376.558492 
L 250.32776 -377.214447 
L 246.985646 -378.625357 
L 243.643532 -382.607665 
L 240.301418 -384.082315 
L 236.959304 -375.213009 
L 233.617191 -385.471503 
L 230.275077 -377.950617 
L 226.932963 -381.702767 
L 223.590849 -387.380306 
L 220.248735 -381.631998 
L 216.906621 -383.515825 
L 213.564507 -380.18078 
L 210.222393 -392.077406 
L 206.880279 -386.344849 
L 203.538165 -391.818639 
L 200.196051 -389.806312 
L 196.853938 -385.066322 
L 193.511824 -388.83073 
L 190.16971 -388.263948 
L 186.827596 -375.961071 
L 183.485482 -382.094336 
L 180.143368 -383.004231 
L 176.801254 -384.031353 
L 173.45914 -385.675183 
L 170.117026 -396.629858 
L 166.774912 -381.258357 
L 163.432798 -388.248439 
L 160.090685 -396.624753 
L 156.748571 -402.288559 
L 153.406457 -396.783325 
L 150.064343 -403.50603 
L 146.722229 -390.431373 
L 143.380115 -403.202116 
L 140.038001 -393.379398 
L 136.695887 -399.615873 
L 133.353773 -397.938901 
L 130.011659 -398.596362 
L 126.669545 -405.729091 
z
" style="stroke: #ffa500; stroke-opacity: 0.3"/>
    </defs>
    <g clip-path="url(#pd53a0bbb49)">
     <use xlink:href="#m69dc9a8a7b" x="0" y="432" style="fill: #ffa500; fill-opacity: 0.3; stroke: #ffa500; stroke-opacity: 0.3"/>
    </g>
   </g>
   <g id="matplotlib.axis_1">
    <g id="xtick_1">
     <g id="line2d_1">
      <defs>
       <path id="m87a60d2faf" d="M 0 0 
L 0 3.5 
" style="stroke: #000000; stroke-width: 0.8"/>
      </defs>
      <g>
       <use xlink:href="#m87a60d2faf" x="126.669545" y="351.16" style="stroke: #000000; stroke-width: 0.8"/>
      </g>
     </g>
     <g id="text_1">
      <!-- 0 -->
      <g transform="translate(120.307045 373.356875) scale(0.2 -0.2)">
       <defs>
        <path id="DejaVuSans-30" d="M 2034 4250 
Q 1547 4250 1301 3770 
Q 1056 3291 1056 2328 
Q 1056 1369 1301 889 
Q 1547 409 2034 409 
Q 2525 409 2770 889 
Q 3016 1369 3016 2328 
Q 3016 3291 2770 3770 
Q 2525 4250 2034 4250 
z
M 2034 4750 
Q 2819 4750 3233 4129 
Q 3647 3509 3647 2328 
Q 3647 1150 3233 529 
Q 2819 -91 2034 -91 
Q 1250 -91 836 529 
Q 422 1150 422 2328 
Q 422 3509 836 4129 
Q 1250 4750 2034 4750 
z
" transform="scale(0.015625)"/>
       </defs>
       <use xlink:href="#DejaVuSans-30"/>
      </g>
     </g>
    </g>
    <g id="xtick_2">
     <g id="line2d_2">
      <g>
       <use xlink:href="#m87a60d2faf" x="238.073342" y="351.16" style="stroke: #000000; stroke-width: 0.8"/>
      </g>
     </g>
     <g id="text_2">
      <!-- 100 -->
      <g transform="translate(218.985842 373.356875) scale(0.2 -0.2)">
       <defs>
        <path id="DejaVuSans-31" d="M 794 531 
L 1825 531 
L 1825 4091 
L 703 3866 
L 703 4441 
L 1819 4666 
L 2450 4666 
L 2450 531 
L 3481 531 
L 3481 0 
L 794 0 
L 794 531 
z
" transform="scale(0.015625)"/>
       </defs>
       <use xlink:href="#DejaVuSans-31"/>
       <use xlink:href="#DejaVuSans-30" x="63.623047"/>
       <use xlink:href="#DejaVuSans-30" x="127.246094"/>
      </g>
     </g>
    </g>
    <g id="xtick_3">
     <g id="line2d_3">
      <g>
       <use xlink:href="#m87a60d2faf" x="349.477139" y="351.16" style="stroke: #000000; stroke-width: 0.8"/>
      </g>
     </g>
     <g id="text_3">
      <!-- 200 -->
      <g transform="translate(330.389639 373.356875) scale(0.2 -0.2)">
       <defs>
        <path id="DejaVuSans-32" d="M 1228 531 
L 3431 531 
L 3431 0 
L 469 0 
L 469 531 
Q 828 903 1448 1529 
Q 2069 2156 2228 2338 
Q 2531 2678 2651 2914 
Q 2772 3150 2772 3378 
Q 2772 3750 2511 3984 
Q 2250 4219 1831 4219 
Q 1534 4219 1204 4116 
Q 875 4013 500 3803 
L 500 4441 
Q 881 4594 1212 4672 
Q 1544 4750 1819 4750 
Q 2544 4750 2975 4387 
Q 3406 4025 3406 3419 
Q 3406 3131 3298 2873 
Q 3191 2616 2906 2266 
Q 2828 2175 2409 1742 
Q 1991 1309 1228 531 
z
" transform="scale(0.015625)"/>
       </defs>
       <use xlink:href="#DejaVuSans-32"/>
       <use xlink:href="#DejaVuSans-30" x="63.623047"/>
       <use xlink:href="#DejaVuSans-30" x="127.246094"/>
      </g>
     </g>
    </g>
    <g id="xtick_4">
     <g id="line2d_4">
      <g>
       <use xlink:href="#m87a60d2faf" x="460.880936" y="351.16" style="stroke: #000000; stroke-width: 0.8"/>
      </g>
     </g>
     <g id="text_4">
      <!-- 300 -->
      <g transform="translate(441.793436 373.356875) scale(0.2 -0.2)">
       <defs>
        <path id="DejaVuSans-33" d="M 2597 2516 
Q 3050 2419 3304 2112 
Q 3559 1806 3559 1356 
Q 3559 666 3084 287 
Q 2609 -91 1734 -91 
Q 1441 -91 1130 -33 
Q 819 25 488 141 
L 488 750 
Q 750 597 1062 519 
Q 1375 441 1716 441 
Q 2309 441 2620 675 
Q 2931 909 2931 1356 
Q 2931 1769 2642 2001 
Q 2353 2234 1838 2234 
L 1294 2234 
L 1294 2753 
L 1863 2753 
Q 2328 2753 2575 2939 
Q 2822 3125 2822 3475 
Q 2822 3834 2567 4026 
Q 2313 4219 1838 4219 
Q 1578 4219 1281 4162 
Q 984 4106 628 3988 
L 628 4550 
Q 988 4650 1302 4700 
Q 1616 4750 1894 4750 
Q 2613 4750 3031 4423 
Q 3450 4097 3450 3541 
Q 3450 3153 3228 2886 
Q 3006 2619 2597 2516 
z
" transform="scale(0.015625)"/>
       </defs>
       <use xlink:href="#DejaVuSans-33"/>
       <use xlink:href="#DejaVuSans-30" x="63.623047"/>
       <use xlink:href="#DejaVuSans-30" x="127.246094"/>
      </g>
     </g>
    </g>
    <g id="xtick_5">
     <g id="line2d_5">
      <g>
       <use xlink:href="#m87a60d2faf" x="572.284733" y="351.16" style="stroke: #000000; stroke-width: 0.8"/>
      </g>
     </g>
     <g id="text_5">
      <!-- 400 -->
      <g transform="translate(553.197233 373.356875) scale(0.2 -0.2)">
       <defs>
        <path id="DejaVuSans-34" d="M 2419 4116 
L 825 1625 
L 2419 1625 
L 2419 4116 
z
M 2253 4666 
L 3047 4666 
L 3047 1625 
L 3713 1625 
L 3713 1100 
L 3047 1100 
L 3047 0 
L 2419 0 
L 2419 1100 
L 313 1100 
L 313 1709 
L 2253 4666 
z
" transform="scale(0.015625)"/>
       </defs>
       <use xlink:href="#DejaVuSans-34"/>
       <use xlink:href="#DejaVuSans-30" x="63.623047"/>
       <use xlink:href="#DejaVuSans-30" x="127.246094"/>
      </g>
     </g>
    </g>
    <g id="xtick_6">
     <g id="line2d_6">
      <g>
       <use xlink:href="#m87a60d2faf" x="683.68853" y="351.16" style="stroke: #000000; stroke-width: 0.8"/>
      </g>
     </g>
     <g id="text_6">
      <!-- 500 -->
      <g transform="translate(664.60103 373.356875) scale(0.2 -0.2)">
       <defs>
        <path id="DejaVuSans-35" d="M 691 4666 
L 3169 4666 
L 3169 4134 
L 1269 4134 
L 1269 2991 
Q 1406 3038 1543 3061 
Q 1681 3084 1819 3084 
Q 2600 3084 3056 2656 
Q 3513 2228 3513 1497 
Q 3513 744 3044 326 
Q 2575 -91 1722 -91 
Q 1428 -91 1123 -41 
Q 819 9 494 109 
L 494 744 
Q 775 591 1075 516 
Q 1375 441 1709 441 
Q 2250 441 2565 725 
Q 2881 1009 2881 1497 
Q 2881 1984 2565 2268 
Q 2250 2553 1709 2553 
Q 1456 2553 1204 2497 
Q 953 2441 691 2322 
L 691 4666 
z
" transform="scale(0.015625)"/>
       </defs>
       <use xlink:href="#DejaVuSans-35"/>
       <use xlink:href="#DejaVuSans-30" x="63.623047"/>
       <use xlink:href="#DejaVuSans-30" x="127.246094"/>
      </g>
     </g>
    </g>
    <g id="text_7">
     <!-- Episode -->
     <g transform="translate(325.515 411.91) scale(0.4 -0.4)">
      <defs>
       <path id="DejaVuSans-45" d="M 628 4666 
L 3578 4666 
L 3578 4134 
L 1259 4134 
L 1259 2753 
L 3481 2753 
L 3481 2222 
L 1259 2222 
L 1259 531 
L 3634 531 
L 3634 0 
L 628 0 
L 628 4666 
z
" transform="scale(0.015625)"/>
       <path id="DejaVuSans-70" d="M 1159 525 
L 1159 -1331 
L 581 -1331 
L 581 3500 
L 1159 3500 
L 1159 2969 
Q 1341 3281 1617 3432 
Q 1894 3584 2278 3584 
Q 2916 3584 3314 3078 
Q 3713 2572 3713 1747 
Q 3713 922 3314 415 
Q 2916 -91 2278 -91 
Q 1894 -91 1617 61 
Q 1341 213 1159 525 
z
M 3116 1747 
Q 3116 2381 2855 2742 
Q 2594 3103 2138 3103 
Q 1681 3103 1420 2742 
Q 1159 2381 1159 1747 
Q 1159 1113 1420 752 
Q 1681 391 2138 391 
Q 2594 391 2855 752 
Q 3116 1113 3116 1747 
z
" transform="scale(0.015625)"/>
       <path id="DejaVuSans-69" d="M 603 3500 
L 1178 3500 
L 1178 0 
L 603 0 
L 603 3500 
z
M 603 4863 
L 1178 4863 
L 1178 4134 
L 603 4134 
L 603 4863 
z
" transform="scale(0.015625)"/>
       <path id="DejaVuSans-73" d="M 2834 3397 
L 2834 2853 
Q 2591 2978 2328 3040 
Q 2066 3103 1784 3103 
Q 1356 3103 1142 2972 
Q 928 2841 928 2578 
Q 928 2378 1081 2264 
Q 1234 2150 1697 2047 
L 1894 2003 
Q 2506 1872 2764 1633 
Q 3022 1394 3022 966 
Q 3022 478 2636 193 
Q 2250 -91 1575 -91 
Q 1294 -91 989 -36 
Q 684 19 347 128 
L 347 722 
Q 666 556 975 473 
Q 1284 391 1588 391 
Q 1994 391 2212 530 
Q 2431 669 2431 922 
Q 2431 1156 2273 1281 
Q 2116 1406 1581 1522 
L 1381 1569 
Q 847 1681 609 1914 
Q 372 2147 372 2553 
Q 372 3047 722 3315 
Q 1072 3584 1716 3584 
Q 2034 3584 2315 3537 
Q 2597 3491 2834 3397 
z
" transform="scale(0.015625)"/>
       <path id="DejaVuSans-6f" d="M 1959 3097 
Q 1497 3097 1228 2736 
Q 959 2375 959 1747 
Q 959 1119 1226 758 
Q 1494 397 1959 397 
Q 2419 397 2687 759 
Q 2956 1122 2956 1747 
Q 2956 2369 2687 2733 
Q 2419 3097 1959 3097 
z
M 1959 3584 
Q 2709 3584 3137 3096 
Q 3566 2609 3566 1747 
Q 3566 888 3137 398 
Q 2709 -91 1959 -91 
Q 1206 -91 779 398 
Q 353 888 353 1747 
Q 353 2609 779 3096 
Q 1206 3584 1959 3584 
z
" transform="scale(0.015625)"/>
       <path id="DejaVuSans-64" d="M 2906 2969 
L 2906 4863 
L 3481 4863 
L 3481 0 
L 2906 0 
L 2906 525 
Q 2725 213 2448 61 
Q 2172 -91 1784 -91 
Q 1150 -91 751 415 
Q 353 922 353 1747 
Q 353 2572 751 3078 
Q 1150 3584 1784 3584 
Q 2172 3584 2448 3432 
Q 2725 3281 2906 2969 
z
M 947 1747 
Q 947 1113 1208 752 
Q 1469 391 1925 391 
Q 2381 391 2643 752 
Q 2906 1113 2906 1747 
Q 2906 2381 2643 2742 
Q 2381 3103 1925 3103 
Q 1469 3103 1208 2742 
Q 947 2381 947 1747 
z
" transform="scale(0.015625)"/>
       <path id="DejaVuSans-65" d="M 3597 1894 
L 3597 1613 
L 953 1613 
Q 991 1019 1311 708 
Q 1631 397 2203 397 
Q 2534 397 2845 478 
Q 3156 559 3463 722 
L 3463 178 
Q 3153 47 2828 -22 
Q 2503 -91 2169 -91 
Q 1331 -91 842 396 
Q 353 884 353 1716 
Q 353 2575 817 3079 
Q 1281 3584 2069 3584 
Q 2775 3584 3186 3129 
Q 3597 2675 3597 1894 
z
M 3022 2063 
Q 3016 2534 2758 2815 
Q 2500 3097 2075 3097 
Q 1594 3097 1305 2825 
Q 1016 2553 972 2059 
L 3022 2063 
z
" transform="scale(0.015625)"/>
      </defs>
      <use xlink:href="#DejaVuSans-45"/>
      <use xlink:href="#DejaVuSans-70" x="63.183594"/>
      <use xlink:href="#DejaVuSans-69" x="126.660156"/>
      <use xlink:href="#DejaVuSans-73" x="154.443359"/>
      <use xlink:href="#DejaVuSans-6f" x="206.542969"/>
      <use xlink:href="#DejaVuSans-64" x="267.724609"/>
      <use xlink:href="#DejaVuSans-65" x="331.201172"/>
     </g>
    </g>
   </g>
   <g id="matplotlib.axis_2">
    <g id="ytick_1">
     <g id="line2d_7">
      <defs>
       <path id="m0df55de689" d="M 0 0 
L -3.5 0 
" style="stroke: #000000; stroke-width: 0.8"/>
      </defs>
      <g>
       <use xlink:href="#m0df55de689" x="98.93" y="330.345756" style="stroke: #000000; stroke-width: 0.8"/>
      </g>
     </g>
     <g id="text_8">
      <!-- 120 -->
      <g transform="translate(53.755 337.944193) scale(0.2 -0.2)">
       <use xlink:href="#DejaVuSans-31"/>
       <use xlink:href="#DejaVuSans-32" x="63.623047"/>
       <use xlink:href="#DejaVuSans-30" x="127.246094"/>
      </g>
     </g>
    </g>
    <g id="ytick_2">
     <g id="line2d_8">
      <g>
       <use xlink:href="#m0df55de689" x="98.93" y="284.006873" style="stroke: #000000; stroke-width: 0.8"/>
      </g>
     </g>
     <g id="text_9">
      <!-- 140 -->
      <g transform="translate(53.755 291.605311) scale(0.2 -0.2)">
       <use xlink:href="#DejaVuSans-31"/>
       <use xlink:href="#DejaVuSans-34" x="63.623047"/>
       <use xlink:href="#DejaVuSans-30" x="127.246094"/>
      </g>
     </g>
    </g>
    <g id="ytick_3">
     <g id="line2d_9">
      <g>
       <use xlink:href="#m0df55de689" x="98.93" y="237.667991" style="stroke: #000000; stroke-width: 0.8"/>
      </g>
     </g>
     <g id="text_10">
      <!-- 160 -->
      <g transform="translate(53.755 245.266428) scale(0.2 -0.2)">
       <defs>
        <path id="DejaVuSans-36" d="M 2113 2584 
Q 1688 2584 1439 2293 
Q 1191 2003 1191 1497 
Q 1191 994 1439 701 
Q 1688 409 2113 409 
Q 2538 409 2786 701 
Q 3034 994 3034 1497 
Q 3034 2003 2786 2293 
Q 2538 2584 2113 2584 
z
M 3366 4563 
L 3366 3988 
Q 3128 4100 2886 4159 
Q 2644 4219 2406 4219 
Q 1781 4219 1451 3797 
Q 1122 3375 1075 2522 
Q 1259 2794 1537 2939 
Q 1816 3084 2150 3084 
Q 2853 3084 3261 2657 
Q 3669 2231 3669 1497 
Q 3669 778 3244 343 
Q 2819 -91 2113 -91 
Q 1303 -91 875 529 
Q 447 1150 447 2328 
Q 447 3434 972 4092 
Q 1497 4750 2381 4750 
Q 2619 4750 2861 4703 
Q 3103 4656 3366 4563 
z
" transform="scale(0.015625)"/>
       </defs>
       <use xlink:href="#DejaVuSans-31"/>
       <use xlink:href="#DejaVuSans-36" x="63.623047"/>
       <use xlink:href="#DejaVuSans-30" x="127.246094"/>
      </g>
     </g>
    </g>
    <g id="ytick_4">
     <g id="line2d_10">
      <g>
       <use xlink:href="#m0df55de689" x="98.93" y="191.329108" style="stroke: #000000; stroke-width: 0.8"/>
      </g>
     </g>
     <g id="text_11">
      <!-- 180 -->
      <g transform="translate(53.755 198.927545) scale(0.2 -0.2)">
       <defs>
        <path id="DejaVuSans-38" d="M 2034 2216 
Q 1584 2216 1326 1975 
Q 1069 1734 1069 1313 
Q 1069 891 1326 650 
Q 1584 409 2034 409 
Q 2484 409 2743 651 
Q 3003 894 3003 1313 
Q 3003 1734 2745 1975 
Q 2488 2216 2034 2216 
z
M 1403 2484 
Q 997 2584 770 2862 
Q 544 3141 544 3541 
Q 544 4100 942 4425 
Q 1341 4750 2034 4750 
Q 2731 4750 3128 4425 
Q 3525 4100 3525 3541 
Q 3525 3141 3298 2862 
Q 3072 2584 2669 2484 
Q 3125 2378 3379 2068 
Q 3634 1759 3634 1313 
Q 3634 634 3220 271 
Q 2806 -91 2034 -91 
Q 1263 -91 848 271 
Q 434 634 434 1313 
Q 434 1759 690 2068 
Q 947 2378 1403 2484 
z
M 1172 3481 
Q 1172 3119 1398 2916 
Q 1625 2713 2034 2713 
Q 2441 2713 2670 2916 
Q 2900 3119 2900 3481 
Q 2900 3844 2670 4047 
Q 2441 4250 2034 4250 
Q 1625 4250 1398 4047 
Q 1172 3844 1172 3481 
z
" transform="scale(0.015625)"/>
       </defs>
       <use xlink:href="#DejaVuSans-31"/>
       <use xlink:href="#DejaVuSans-38" x="63.623047"/>
       <use xlink:href="#DejaVuSans-30" x="127.246094"/>
      </g>
     </g>
    </g>
    <g id="ytick_5">
     <g id="line2d_11">
      <g>
       <use xlink:href="#m0df55de689" x="98.93" y="144.990225" style="stroke: #000000; stroke-width: 0.8"/>
      </g>
     </g>
     <g id="text_12">
      <!-- 200 -->
      <g transform="translate(53.755 152.588663) scale(0.2 -0.2)">
       <use xlink:href="#DejaVuSans-32"/>
       <use xlink:href="#DejaVuSans-30" x="63.623047"/>
       <use xlink:href="#DejaVuSans-30" x="127.246094"/>
      </g>
     </g>
    </g>
    <g id="ytick_6">
     <g id="line2d_12">
      <g>
       <use xlink:href="#m0df55de689" x="98.93" y="98.651343" style="stroke: #000000; stroke-width: 0.8"/>
      </g>
     </g>
     <g id="text_13">
      <!-- 220 -->
      <g transform="translate(53.755 106.24978) scale(0.2 -0.2)">
       <use xlink:href="#DejaVuSans-32"/>
       <use xlink:href="#DejaVuSans-32" x="63.623047"/>
       <use xlink:href="#DejaVuSans-30" x="127.246094"/>
      </g>
     </g>
    </g>
    <g id="ytick_7">
     <g id="line2d_13">
      <g>
       <use xlink:href="#m0df55de689" x="98.93" y="52.31246" style="stroke: #000000; stroke-width: 0.8"/>
      </g>
     </g>
     <g id="text_14">
      <!-- 240 -->
      <g transform="translate(53.755 59.910898) scale(0.2 -0.2)">
       <use xlink:href="#DejaVuSans-32"/>
       <use xlink:href="#DejaVuSans-34" x="63.623047"/>
       <use xlink:href="#DejaVuSans-30" x="127.246094"/>
      </g>
     </g>
    </g>
    <g id="text_15">
     <!-- $m_{to}$ -->
     <g transform="translate(41.43625 215.18) rotate(-90) scale(0.4 -0.4)">
      <defs>
       <path id="DejaVuSans-Oblique-6d" d="M 5747 2113 
L 5338 0 
L 4763 0 
L 5166 2094 
Q 5191 2228 5203 2325 
Q 5216 2422 5216 2491 
Q 5216 2772 5059 2928 
Q 4903 3084 4622 3084 
Q 4203 3084 3875 2770 
Q 3547 2456 3450 1953 
L 3066 0 
L 2491 0 
L 2900 2094 
Q 2925 2209 2937 2307 
Q 2950 2406 2950 2484 
Q 2950 2769 2794 2926 
Q 2638 3084 2363 3084 
Q 1938 3084 1609 2770 
Q 1281 2456 1184 1953 
L 800 0 
L 225 0 
L 909 3500 
L 1484 3500 
L 1375 2956 
Q 1609 3263 1923 3423 
Q 2238 3584 2597 3584 
Q 2978 3584 3223 3384 
Q 3469 3184 3519 2828 
Q 3781 3197 4126 3390 
Q 4472 3584 4856 3584 
Q 5306 3584 5551 3325 
Q 5797 3066 5797 2591 
Q 5797 2488 5784 2364 
Q 5772 2241 5747 2113 
z
" transform="scale(0.015625)"/>
       <path id="DejaVuSans-Oblique-74" d="M 2706 3500 
L 2619 3053 
L 1472 3053 
L 1100 1153 
Q 1081 1047 1072 975 
Q 1063 903 1063 863 
Q 1063 663 1183 572 
Q 1303 481 1569 481 
L 2150 481 
L 2053 0 
L 1503 0 
Q 991 0 739 200 
Q 488 400 488 806 
Q 488 878 497 964 
Q 506 1050 525 1153 
L 897 3053 
L 409 3053 
L 500 3500 
L 978 3500 
L 1172 4494 
L 1747 4494 
L 1556 3500 
L 2706 3500 
z
" transform="scale(0.015625)"/>
       <path id="DejaVuSans-Oblique-6f" d="M 1625 -91 
Q 1009 -91 651 289 
Q 294 669 294 1325 
Q 294 1706 417 2101 
Q 541 2497 738 2766 
Q 1047 3184 1428 3384 
Q 1809 3584 2291 3584 
Q 2888 3584 3255 3212 
Q 3622 2841 3622 2241 
Q 3622 1825 3500 1412 
Q 3378 1000 3181 728 
Q 2875 309 2494 109 
Q 2113 -91 1625 -91 
z
M 891 1344 
Q 891 869 1089 633 
Q 1288 397 1691 397 
Q 2269 397 2648 901 
Q 3028 1406 3028 2181 
Q 3028 2634 2825 2865 
Q 2622 3097 2228 3097 
Q 1903 3097 1650 2945 
Q 1397 2794 1197 2484 
Q 1050 2253 970 1956 
Q 891 1659 891 1344 
z
" transform="scale(0.015625)"/>
      </defs>
      <use xlink:href="#DejaVuSans-Oblique-6d"/>
      <use xlink:href="#DejaVuSans-Oblique-74" transform="translate(97.412109 -16.40625) scale(0.7)"/>
      <use xlink:href="#DejaVuSans-Oblique-6f" transform="translate(124.858398 -16.40625) scale(0.7)"/>
     </g>
    </g>
   </g>
   <g id="line2d_14">
    <path d="M 126.669545 164.169374 
L 130.011659 184.893152 
L 133.353773 199.309693 
L 136.695887 220.033471 
L 140.038001 220.162191 
L 143.380115 213.211358 
L 146.722229 222.865292 
L 150.064343 220.29091 
L 153.406457 217.201651 
L 156.748571 231.103316 
L 160.090685 229.558686 
L 163.432798 235.994642 
L 166.774912 220.677067 
L 170.117026 219.647314 
L 173.45914 232.647945 
L 176.801254 240.371092 
L 180.143368 240.242373 
L 183.485482 250.539902 
L 186.827596 256.71842 
L 190.16971 272.937029 
L 193.511824 272.035995 
L 196.853938 275.511411 
L 200.196051 279.244266 
L 203.538165 272.422153 
L 206.880279 270.748804 
L 210.222393 266.629792 
L 213.564507 285.680222 
L 216.906621 288.254604 
L 220.248735 297.136223 
L 223.590849 290.31411 
L 226.932963 286.581256 
L 230.275077 297.6511 
L 233.617191 289.026919 
L 236.959304 279.115547 
L 240.301418 276.155007 
L 243.643532 269.84777 
L 246.985646 276.669883 
L 250.32776 270.748804 
L 253.669874 267.659545 
L 257.011988 267.916983 
L 260.354102 270.620085 
L 263.696216 295.334156 
L 267.03833 280.788895 
L 270.380444 287.096132 
L 273.722558 291.472582 
L 277.064671 289.799234 
L 283.748899 289.799234 
L 287.091013 277.828356 
L 290.433127 285.680222 
L 293.775241 301.512673 
L 297.117355 294.304403 
L 300.459469 304.344494 
L 303.801583 286.323817 
L 307.143697 294.433122 
L 310.485811 274.095501 
L 313.827924 276.669883 
L 317.170038 258.649207 
L 320.512152 270.877523 
L 323.854266 271.907276 
L 327.19638 282.204806 
L 330.538494 271.263681 
L 333.880608 277.313479 
L 337.222722 264.184129 
L 340.564836 277.570917 
L 343.90695 258.13433 
L 347.249064 278.729389 
L 350.591177 277.18476 
L 353.933291 265.213882 
L 357.275405 261.223589 
L 360.617519 261.481028 
L 363.959633 260.579994 
L 367.301747 253.75788 
L 370.643861 234.578732 
L 373.985975 241.915722 
L 377.328089 254.401476 
L 380.670203 249.252711 
L 384.012317 261.223589 
L 387.35443 262.768219 
L 390.696544 262.896938 
L 394.038658 258.13433 
L 397.380772 252.728127 
L 400.722886 256.203544 
L 404.065 253.629161 
L 407.407114 272.550872 
L 410.749228 270.491366 
L 414.091342 280.531457 
L 417.433456 297.264942 
L 420.77557 285.551503 
L 424.117683 278.343232 
L 427.459797 291.086425 
L 430.801911 295.205437 
L 434.144025 278.214513 
L 437.486139 278.986828 
L 440.828253 268.045703 
L 444.170367 268.946736 
L 447.512481 295.205437 
L 450.854595 287.482289 
L 454.196709 279.115547 
L 457.538823 287.096132 
L 460.880936 302.542426 
L 467.565164 286.452536 
L 470.907278 301.641392 
L 474.249392 305.245528 
L 477.591506 288.8982 
L 480.93362 294.175684 
L 484.275734 290.957706 
L 487.617848 288.769481 
L 490.959962 291.858739 
L 494.302076 283.620716 
L 497.644189 290.571548 
L 500.986303 281.947367 
L 504.328417 274.996535 
L 507.670531 280.531457 
L 511.012645 279.759142 
L 514.354759 287.739728 
L 517.696873 291.858739 
L 521.038987 291.73002 
L 524.381101 292.116178 
L 527.723215 280.531457 
L 531.065329 300.997797 
L 534.407442 291.987459 
L 537.749556 281.432491 
L 541.09167 276.412445 
L 544.433784 275.125254 
L 547.775898 283.234559 
L 554.460126 280.660176 
L 557.80224 283.491997 
L 561.144354 292.244897 
L 564.486468 290.957706 
L 567.828582 278.471951 
L 571.170696 284.264311 
L 574.512809 297.007504 
L 577.854923 278.60067 
L 581.197037 299.195729 
L 584.539151 300.354201 
L 587.881265 299.324448 
L 591.223379 314.899462 
L 594.565493 313.869709 
L 597.907607 295.205437 
L 601.249721 289.541795 
L 604.591835 283.491997 
L 607.933949 307.948629 
L 611.276062 296.492628 
L 614.618176 299.581887 
L 617.96029 298.680853 
L 621.302404 298.552134 
L 624.644518 307.81991 
L 627.986632 294.819279 
L 634.67086 321.077979 
L 638.012974 313.61227 
L 641.355088 309.621978 
L 644.697202 310.78045 
L 648.039315 317.216406 
L 651.381429 315.414338 
L 654.723543 311.037888 
L 658.065657 316.830248 
L 661.407771 323.523643 
L 664.749885 325.454429 
L 668.091999 312.067641 
L 671.434113 311.295326 
L 674.776227 320.048226 
L 678.118341 313.998428 
L 681.460455 325.969306 
L 681.460455 325.969306 
" clip-path="url(#pd53a0bbb49)" style="fill: none; stroke: #0000ff; stroke-width: 3; stroke-linecap: square"/>
   </g>
   <g id="line2d_15">
    <path d="M 126.669545 166.872476 
L 130.011659 181.031579 
L 133.353773 190.942951 
L 136.695887 202.141514 
L 140.038001 204.973335 
L 143.380115 213.854954 
L 146.722229 212.181605 
L 150.064343 220.548348 
L 153.406457 210.508257 
L 156.748571 212.181605 
L 160.090685 206.389245 
L 163.432798 206.517964 
L 166.774912 218.74628 
L 170.117026 215.270864 
L 173.45914 209.092346 
L 176.801254 214.755988 
L 180.143368 219.003718 
L 183.485482 216.171898 
L 186.827596 215.78574 
L 190.16971 228.915091 
L 193.511824 239.341339 
L 196.853938 229.04381 
L 200.196051 231.489473 
L 203.538165 228.528933 
L 206.880279 232.519226 
L 210.222393 230.845877 
L 213.564507 226.598146 
L 216.906621 229.429967 
L 220.248735 230.202282 
L 223.590849 227.241742 
L 226.932963 234.964889 
L 230.275077 232.647945 
L 233.617191 230.845877 
L 236.959304 239.470058 
L 240.301418 241.400845 
L 243.643532 233.162821 
L 246.985646 223.508888 
L 250.32776 215.142145 
L 253.669874 221.449382 
L 257.011988 224.924798 
L 260.354102 206.904121 
L 263.696216 196.091715 
L 267.03833 202.78511 
L 270.380444 200.082008 
L 273.722558 194.032209 
L 277.064671 210.636976 
L 280.406785 200.339446 
L 283.748899 187.982411 
L 287.091013 180.516702 
L 290.433127 203.428705 
L 293.775241 237.153114 
L 297.117355 240.885969 
L 300.459469 222.092977 
L 303.801583 218.74628 
L 307.143697 213.854954 
L 310.485811 216.043179 
L 313.827924 213.211358 
L 317.170038 237.925429 
L 320.512152 233.291541 
L 323.854266 224.66736 
L 327.19638 231.489473 
L 330.538494 237.153114 
L 333.880608 226.984304 
L 337.222722 228.014057 
L 340.564836 234.321294 
L 343.90695 221.70682 
L 347.249064 209.864661 
L 350.591177 206.775402 
L 353.933291 211.023133 
L 357.275405 199.438412 
L 360.617519 186.309062 
L 363.959633 183.477242 
L 367.301747 193.002457 
L 370.643861 206.646683 
L 373.985975 207.547717 
L 377.328089 236.25208 
L 380.670203 228.014057 
L 384.012317 207.933874 
L 387.35443 215.657021 
L 390.696544 220.419629 
L 394.038658 217.072932 
L 397.380772 213.211358 
L 400.722886 227.756618 
L 404.065 228.786371 
L 407.407114 223.12273 
L 410.749228 220.548348 
L 414.091342 194.418367 
L 417.433456 185.15059 
L 420.77557 169.961734 
L 424.117683 184.378276 
L 427.459797 171.120206 
L 430.801911 177.041286 
L 434.144025 159.664205 
L 437.486139 143.703034 
L 440.828253 157.218542 
L 444.170367 165.327846 
L 447.512481 154.386721 
L 450.854595 175.754095 
L 454.196709 161.080115 
L 457.538823 172.922274 
L 464.22305 149.495395 
L 467.565164 154.000564 
L 470.907278 165.585284 
L 474.249392 163.525778 
L 477.591506 170.476611 
L 480.93362 170.476611 
L 484.275734 165.199127 
L 487.617848 192.358861 
L 490.959962 191.972704 
L 494.302076 192.616299 
L 497.644189 207.16156 
L 500.986303 205.61693 
L 504.328417 209.221065 
L 507.670531 200.339446 
L 511.012645 192.358861 
L 514.354759 187.210096 
L 517.696873 209.221065 
L 521.038987 202.78511 
L 524.381101 206.646683 
L 527.723215 221.191943 
L 534.407442 195.834277 
L 537.749556 180.902859 
L 541.09167 190.170636 
L 544.433784 189.655759 
L 547.775898 184.635714 
L 551.118012 181.289017 
L 554.460126 180.645421 
L 557.80224 187.081377 
L 561.144354 182.190051 
L 564.486468 179.744387 
L 567.828582 197.765064 
L 571.170696 207.16156 
L 574.512809 203.299986 
L 577.854923 202.398952 
L 581.197037 202.527671 
L 584.539151 186.69522 
L 587.881265 172.278678 
L 591.223379 163.911936 
L 594.565493 173.179712 
L 597.907607 186.69522 
L 601.249721 192.230142 
L 604.591835 199.953289 
L 607.933949 206.775402 
L 611.276062 214.112392 
L 614.618176 191.07167 
L 617.96029 186.823939 
L 621.302404 183.863399 
L 624.644518 192.230142 
L 627.986632 198.022502 
L 631.328746 207.03284 
L 634.67086 203.299986 
L 638.012974 191.972704 
L 641.355088 199.309693 
L 644.697202 202.398952 
L 648.039315 187.338815 
L 651.381429 198.666098 
L 654.723543 190.685512 
L 658.065657 202.78511 
L 661.407771 206.389245 
L 664.749885 195.319401 
L 668.091999 193.646052 
L 671.434113 188.626007 
L 674.776227 190.428074 
L 678.118341 182.704927 
L 681.460455 171.120206 
L 681.460455 171.120206 
" clip-path="url(#pd53a0bbb49)" style="fill: none; stroke: #008000; stroke-width: 3; stroke-linecap: square"/>
   </g>
   <g id="line2d_16">
    <path d="M 126.669545 37.7672 
L 130.011659 34.291784 
L 133.353773 40.212863 
L 136.695887 47.421134 
L 140.038001 37.252323 
L 143.380115 51.797584 
L 146.722229 56.817629 
L 150.064343 53.599651 
L 153.406457 51.025269 
L 156.748571 44.589313 
L 160.090685 45.619066 
L 163.432798 56.045315 
L 166.774912 57.203787 
L 170.117026 58.490978 
L 173.45914 53.213494 
L 176.801254 51.411426 
L 180.143368 54.758123 
L 183.485482 63.511023 
L 186.827596 69.560822 
L 190.16971 63.511023 
L 193.511824 63.124866 
L 196.853938 63.768462 
L 200.196051 67.372597 
L 203.538165 71.491609 
L 206.880279 77.026531 
L 210.222393 85.393274 
L 213.564507 78.57116 
L 216.906621 75.353182 
L 220.248735 72.650081 
L 223.590849 74.065991 
L 226.932963 76.125497 
L 230.275077 67.630035 
L 233.617191 81.402981 
L 236.959304 75.095744 
L 243.643532 80.244509 
L 246.985646 83.848644 
L 250.32776 90.542038 
L 253.669874 101.483163 
L 257.011988 104.701141 
L 260.354102 97.492871 
L 263.696216 99.809815 
L 267.03833 105.344737 
L 270.380444 98.522624 
L 273.722558 104.057546 
L 277.064671 111.909412 
L 280.406785 107.146805 
L 283.748899 118.345368 
L 287.091013 122.078222 
L 290.433127 118.731525 
L 293.775241 115.899705 
L 297.117355 130.959841 
L 300.459469 133.920381 
L 303.801583 134.435258 
L 307.143697 132.63319 
L 310.485811 126.712111 
L 313.827924 140.356337 
L 317.170038 130.702403 
L 320.512152 119.117683 
L 323.854266 137.00964 
L 327.19638 134.950134 
L 330.538494 131.860875 
L 333.880608 142.544562 
L 337.222722 145.891259 
L 340.564836 151.5549 
L 343.90695 152.842092 
L 347.249064 157.990856 
L 350.591177 157.733418 
L 353.933291 156.832384 
L 357.275405 151.297462 
L 360.617519 156.832384 
L 363.959633 156.317508 
L 367.301747 156.188789 
L 370.643861 159.921643 
L 373.985975 147.30717 
L 377.328089 154.129283 
L 380.670203 159.278048 
L 384.012317 152.069777 
L 387.35443 153.871845 
L 390.696544 161.723711 
L 394.038658 167.773509 
L 397.380772 168.159667 
L 400.722886 177.041286 
L 404.065 173.050993 
L 407.407114 181.289017 
L 410.749228 178.457196 
L 414.091342 178.328477 
L 417.433456 189.398321 
L 420.77557 195.061962 
L 424.117683 192.873737 
L 427.459797 208.706189 
L 430.801911 196.735311 
L 434.144025 185.536748 
L 437.486139 202.141514 
L 440.828253 206.260526 
L 444.170367 205.61693 
L 447.512481 211.924167 
L 450.854595 215.142145 
L 454.196709 205.61693 
L 457.538823 207.290279 
L 460.880936 208.57747 
L 464.22305 207.805155 
L 467.565164 215.657021 
L 470.907278 214.241111 
L 474.249392 216.043179 
L 477.591506 223.380168 
L 480.93362 224.538641 
L 484.275734 228.014057 
L 487.617848 225.697113 
L 490.959962 237.667991 
L 494.302076 245.133699 
L 497.644189 236.509519 
L 500.986303 238.311586 
L 504.328417 243.717789 
L 507.670531 247.450644 
L 511.012645 244.747542 
L 514.354759 254.401476 
L 517.696873 249.252711 
L 521.038987 263.540533 
L 524.381101 268.946736 
L 527.723215 264.956444 
L 531.065329 266.758511 
L 534.407442 277.313479 
L 537.749556 280.788895 
L 541.09167 285.808941 
L 544.433784 288.512042 
L 547.775898 281.947367 
L 551.118012 278.085794 
L 554.460126 290.828986 
L 557.80224 278.729389 
L 561.144354 284.907907 
L 564.486468 285.551503 
L 567.828582 282.848401 
L 571.170696 282.333525 
L 574.512809 289.155638 
L 577.854923 279.887861 
L 581.197037 290.957706 
L 584.539151 287.868447 
L 587.881265 290.185391 
L 591.223379 292.116178 
L 594.565493 287.482289 
L 597.907607 282.204806 
L 601.249721 273.323186 
L 604.591835 284.52175 
L 607.933949 265.342601 
L 611.276062 288.254604 
L 614.618176 290.957706 
L 617.96029 281.947367 
L 621.302404 288.769481 
L 624.644518 292.759773 
L 627.986632 282.97712 
L 631.328746 290.700267 
L 638.012974 273.838063 
L 641.355088 254.530195 
L 644.697202 257.490735 
L 648.039315 251.955813 
L 651.381429 255.045072 
L 654.723543 274.996535 
L 658.065657 264.184129 
L 661.407771 251.827094 
L 664.749885 260.837432 
L 671.434113 281.175053 
L 674.776227 286.709975 
L 678.118341 280.531457 
L 681.460455 267.01595 
L 681.460455 267.01595 
" clip-path="url(#pd53a0bbb49)" style="fill: none; stroke: #ff0000; stroke-width: 3; stroke-linecap: square"/>
   </g>
   <g id="line2d_17">
    <path d="M 126.669545 29.786614 
L 130.011659 38.539514 
L 133.353773 39.311829 
L 136.695887 42.401088 
L 140.038001 43.688279 
L 143.380115 41.500054 
L 146.722229 53.85709 
L 150.064343 43.688279 
L 153.406457 49.094482 
L 156.748571 44.846751 
L 160.090685 53.85709 
L 163.432798 57.203787 
L 166.774912 61.194079 
L 170.117026 57.332506 
L 173.45914 60.421765 
L 176.801254 67.243878 
L 180.143368 71.620328 
L 183.485482 66.085406 
L 186.827596 72.907519 
L 190.16971 70.590575 
L 193.511824 71.234171 
L 196.853938 73.808553 
L 200.196051 73.293676 
L 203.538165 71.491609 
L 206.880279 75.481901 
L 210.222393 77.283969 
L 213.564507 83.205049 
L 216.906621 78.828599 
L 220.248735 70.976732 
L 223.590849 65.055653 
L 226.932963 65.055653 
L 230.275077 72.521362 
L 233.617191 64.283338 
L 236.959304 65.184372 
L 240.301418 69.174665 
L 243.643532 64.540776 
L 246.985646 72.006485 
L 250.32776 67.758754 
L 253.669874 70.204418 
L 257.011988 75.73934 
L 260.354102 79.214756 
L 263.696216 85.007116 
L 267.03833 77.412688 
L 270.380444 92.601544 
L 273.722558 85.521993 
L 277.064671 90.413319 
L 280.406785 104.314984 
L 283.748899 105.216018 
L 287.091013 104.314984 
L 290.433127 97.62159 
L 293.775241 96.977994 
L 297.117355 91.443072 
L 300.459469 100.195972 
L 303.801583 94.789769 
L 307.143697 102.641635 
L 310.485811 98.780062 
L 313.827924 91.185634 
L 317.170038 101.225725 
L 320.512152 85.779431 
L 323.854266 93.24514 
L 327.19638 92.086668 
L 330.538494 93.24514 
L 333.880608 100.839568 
L 337.222722 104.057546 
L 340.564836 111.008378 
L 343.90695 112.424288 
L 347.249064 116.414581 
L 350.591177 113.067884 
L 353.933291 109.077591 
L 357.275405 106.245771 
L 360.617519 105.730894 
L 363.959633 104.82986 
L 367.301747 95.690803 
L 370.643861 100.324691 
L 373.985975 107.532962 
L 377.328089 100.195972 
L 380.670203 88.86869 
L 384.012317 96.20568 
L 387.35443 89.383566 
L 390.696544 86.680465 
L 394.038658 87.581499 
L 397.380772 85.779431 
L 400.722886 80.501947 
L 404.065 70.590575 
L 407.407114 80.11579 
L 410.749228 72.907519 
L 414.091342 78.313722 
L 417.433456 82.304015 
L 420.77557 79.600913 
L 424.117683 66.214125 
L 427.459797 76.640374 
L 430.801911 66.98644 
L 434.144025 64.412057 
L 437.486139 75.224463 
L 440.828253 80.244509 
L 444.170367 76.897812 
L 447.512481 88.86869 
L 450.854595 80.501947 
L 454.196709 83.591206 
L 457.538823 87.581499 
L 460.880936 84.106082 
L 464.22305 75.224463 
L 467.565164 81.789138 
L 470.907278 81.274262 
L 474.249392 75.73934 
L 477.591506 75.610621 
L 480.93362 79.729632 
L 484.275734 80.244509 
L 487.617848 82.690172 
L 490.959962 75.353182 
L 494.302076 86.294307 
L 497.644189 89.254847 
L 500.986303 83.076329 
L 504.328417 86.680465 
L 507.670531 83.205049 
L 511.012645 87.32406 
L 514.354759 83.719925 
L 517.696873 81.145543 
L 521.038987 93.116421 
L 524.381101 83.076329 
L 527.723215 88.86869 
L 531.065329 82.304015 
L 534.407442 88.096375 
L 537.749556 86.294307 
L 541.09167 80.630666 
L 544.433784 78.957318 
L 547.775898 74.709587 
L 551.118012 76.640374 
L 554.460126 63.124866 
L 557.80224 60.164326 
L 561.144354 68.531069 
L 564.486468 56.045315 
L 567.828582 66.342844 
L 571.170696 64.283338 
L 574.512809 63.382304 
L 577.854923 60.936641 
L 581.197037 55.787876 
L 584.539151 61.708956 
L 587.881265 66.085406 
L 591.223379 59.778169 
L 594.565493 55.401719 
L 597.907607 63.511023 
L 601.249721 64.0259 
L 604.591835 70.461856 
L 607.933949 75.996778 
L 611.276062 66.471563 
L 614.618176 68.659788 
L 617.96029 61.451518 
L 621.302404 69.432103 
L 624.644518 66.600282 
L 627.986632 64.283338 
L 631.328746 71.491609 
L 634.67086 72.650081 
L 638.012974 74.323429 
L 641.355088 68.917226 
L 644.697202 58.748416 
L 648.039315 66.600282 
L 651.381429 70.075698 
L 654.723543 66.729001 
L 658.065657 65.184372 
L 661.407771 65.055653 
L 664.749885 62.223832 
L 668.091999 65.313091 
L 671.434113 60.807922 
L 674.776227 61.708956 
L 678.118341 56.68891 
L 681.460455 56.431472 
L 681.460455 56.431472 
" clip-path="url(#pd53a0bbb49)" style="fill: none; stroke: #ffa500; stroke-width: 3; stroke-linecap: square"/>
   </g>
   <g id="patch_3">
    <path d="M 98.93 351.16 
L 98.93 10.8 
" style="fill: none; stroke: #000000; stroke-width: 0.8; stroke-linejoin: miter; stroke-linecap: square"/>
   </g>
   <g id="patch_4">
    <path d="M 709.2 351.16 
L 709.2 10.8 
" style="fill: none; stroke: #000000; stroke-width: 0.8; stroke-linejoin: miter; stroke-linecap: square"/>
   </g>
   <g id="patch_5">
    <path d="M 98.93 351.16 
L 709.2 351.16 
" style="fill: none; stroke: #000000; stroke-width: 0.8; stroke-linejoin: miter; stroke-linecap: square"/>
   </g>
   <g id="patch_6">
    <path d="M 98.93 10.8 
L 709.2 10.8 
" style="fill: none; stroke: #000000; stroke-width: 0.8; stroke-linejoin: miter; stroke-linecap: square"/>
   </g>
  </g>
 </g>
 <defs>
  <clipPath id="pd53a0bbb49">
   <rect x="98.93" y="10.8" width="610.27" height="340.36"/>
  </clipPath>
 </defs>
</svg>
