<?xml version="1.0" encoding="utf-8" standalone="no"?>
<!DOCTYPE svg PUBLIC "-//W3C//DTD SVG 1.1//EN"
  "http://www.w3.org/Graphics/SVG/1.1/DTD/svg11.dtd">
<svg xmlns:xlink="http://www.w3.org/1999/xlink" width="720pt" height="432pt" viewBox="0 0 720 432" xmlns="http://www.w3.org/2000/svg" version="1.1">
 <metadata>
  <rdf:RDF xmlns:dc="http://purl.org/dc/elements/1.1/" xmlns:cc="http://creativecommons.org/ns#" xmlns:rdf="http://www.w3.org/1999/02/22-rdf-syntax-ns#">
   <cc:Work>
    <dc:type rdf:resource="http://purl.org/dc/dcmitype/StillImage"/>
    <dc:date>2025-06-20T06:21:30.517267</dc:date>
    <dc:format>image/svg+xml</dc:format>
    <dc:creator>
     <cc:Agent>
      <dc:title>Matplotlib v3.7.1, https://matplotlib.org/</dc:title>
     </cc:Agent>
    </dc:creator>
   </cc:Work>
  </rdf:RDF>
 </metadata>
 <defs>
  <style type="text/css">*{stroke-linejoin: round; stroke-linecap: butt}</style>
 </defs>
 <g id="figure_1">
  <g id="patch_1">
   <path d="M 0 432 
L 720 432 
L 720 0 
L 0 0 
z
" style="fill: #ffffff"/>
  </g>
  <g id="axes_1">
   <g id="patch_2">
    <path d="M 132.05 343.96 
L 705.841396 343.96 
L 705.841396 13.173177 
L 132.05 13.173177 
z
" style="fill: #ffffff"/>
   </g>
   <g id="PolyCollection_1">
    <defs>
     <path id="m8f5b1e4f17" d="M 158.131427 -305.883783 
L 158.131427 -264.358017 
L 161.273768 -180.031993 
L 164.416108 -135.380822 
L 167.558449 -117.107299 
L 170.70079 -144.189079 
L 173.84313 -136.136012 
L 176.985471 -149.716987 
L 180.127811 -128.242604 
L 183.270152 -128.934633 
L 186.412493 -123.213018 
L 189.554833 -122.951223 
L 192.697174 -118.314895 
L 195.839515 -127.868794 
L 198.981855 -124.885796 
L 202.124196 -131.559098 
L 205.266536 -116.580025 
L 208.408877 -111.593651 
L 211.551218 -117.743652 
L 214.693558 -137.754639 
L 217.835899 -111.866016 
L 220.978239 -118.422425 
L 224.12058 -126.134673 
L 227.262921 -122.20504 
L 230.405261 -110.198142 
L 233.547602 -115.887969 
L 236.689943 -109.249688 
L 239.832283 -109.065547 
L 242.974624 -117.107796 
L 246.116964 -115.304754 
L 249.259305 -118.421245 
L 252.401646 -131.641258 
L 255.543986 -116.35702 
L 258.686327 -130.255093 
L 261.828667 -123.521352 
L 264.971008 -107.128424 
L 268.113349 -110.467144 
L 271.255689 -107.619454 
L 274.39803 -118.344103 
L 277.540371 -117.096977 
L 280.682711 -114.595864 
L 283.825052 -107.333752 
L 286.967392 -114.369927 
L 290.109733 -116.360494 
L 293.252074 -109.5657 
L 296.394414 -109.070767 
L 299.536755 -110.559713 
L 302.679095 -109.475261 
L 305.821436 -108.181039 
L 308.963777 -111.333943 
L 312.106117 -109.244676 
L 315.248458 -115.71545 
L 318.390799 -112.471749 
L 321.533139 -107.69004 
L 324.67548 -113.700678 
L 327.81782 -114.083585 
L 330.960161 -112.307643 
L 334.102502 -106.787041 
L 337.244842 -111.025725 
L 340.387183 -108.804183 
L 343.529523 -112.267691 
L 346.671864 -109.664435 
L 349.814205 -109.934783 
L 352.956545 -111.690245 
L 356.098886 -128.726985 
L 359.241227 -109.041494 
L 362.383567 -109.71572 
L 365.525908 -111.336892 
L 368.668248 -112.393268 
L 371.810589 -105.753194 
L 374.95293 -104.654622 
L 378.09527 -112.414803 
L 381.237611 -113.321678 
L 384.379951 -108.070208 
L 387.522292 -114.246693 
L 390.664633 -105.139602 
L 393.806973 -113.224968 
L 396.949314 -103.075765 
L 400.091655 -112.257928 
L 403.233995 -110.369926 
L 406.376336 -115.388043 
L 409.518676 -104.164089 
L 412.661017 -105.228456 
L 415.803358 -106.193764 
L 418.945698 -107.32099 
L 422.088039 -106.272324 
L 425.230379 -110.747049 
L 428.37272 -114.749794 
L 431.515061 -111.411314 
L 434.657401 -108.539892 
L 437.799742 -109.278805 
L 440.942083 -112.132593 
L 444.084423 -110.523263 
L 447.226764 -109.634771 
L 450.369104 -109.695243 
L 453.511445 -108.742138 
L 456.653786 -113.657889 
L 459.796126 -109.664435 
L 462.938467 -109.573827 
L 466.080807 -109.664435 
L 469.223148 -108.30423 
L 472.365489 -112.68546 
L 475.507829 -112.300003 
L 478.65017 -109.664435 
L 481.792511 -114.965564 
L 484.934851 -107.231999 
L 488.077192 -109.900873 
L 491.219532 -109.664435 
L 494.361873 -110.839558 
L 497.504214 -105.77847 
L 500.646554 -109.545779 
L 503.788895 -108.715191 
L 506.931235 -109.664435 
L 510.073576 -109.160149 
L 513.215917 -109.367796 
L 516.358257 -110.697216 
L 519.500598 -111.327877 
L 522.642939 -109.160149 
L 525.785279 -111.33868 
L 528.92762 -113.247418 
L 532.06996 -108.576869 
L 535.212301 -108.032923 
L 538.354642 -112.388234 
L 541.496982 -110.047798 
L 544.639323 -110.05898 
L 547.781664 -109.395191 
L 550.924004 -110.717813 
L 554.066345 -108.062587 
L 557.208685 -107.32099 
L 560.351026 -114.87524 
L 563.493367 -109.961329 
L 566.635707 -109.367796 
L 569.778048 -111.067426 
L 572.920388 -109.664435 
L 576.062729 -107.973595 
L 579.20507 -109.486452 
L 582.34741 -108.032923 
L 585.489751 -109.39746 
L 588.632092 -110.01718 
L 591.774432 -111.093869 
L 594.916773 -109.782709 
L 598.059113 -108.954803 
L 601.201454 -112.129325 
L 604.343795 -111.955088 
L 607.486135 -112.888662 
L 610.628476 -111.270681 
L 613.770816 -109.189813 
L 616.913157 -111.631518 
L 620.055498 -109.775526 
L 623.197838 -111.118789 
L 626.340179 -111.376042 
L 629.48252 -109.620138 
L 632.62486 -109.486452 
L 635.767201 -110.039679 
L 638.909541 -121.123953 
L 642.051882 -111.479314 
L 645.194223 -110.324341 
L 648.336563 -111.740244 
L 651.478904 -109.605107 
L 654.621244 -109.041494 
L 657.763585 -109.01183 
L 660.905926 -112.702274 
L 664.048266 -109.219477 
L 667.190607 -111.845306 
L 670.332948 -109.216868 
L 673.475288 -109.605107 
L 676.617629 -113.057981 
L 679.759969 -105.284829 
L 679.759969 -138.106642 
L 679.759969 -138.106642 
L 676.617629 -120.450636 
L 673.475288 -110.010222 
L 670.332948 -121.283923 
L 667.190607 -114.501822 
L 664.048266 -112.257839 
L 660.905926 -117.798517 
L 657.763585 -113.468095 
L 654.621244 -113.295201 
L 651.478904 -110.010222 
L 648.336563 -121.768373 
L 645.194223 -119.317072 
L 642.051882 -120.453776 
L 638.909541 -139.16863 
L 635.767201 -116.593909 
L 632.62486 -110.701797 
L 629.48252 -116.726991 
L 626.340179 -115.687235 
L 623.197838 -115.514799 
L 620.055498 -115.712223 
L 616.913157 -124.312005 
L 613.770816 -112.430733 
L 610.628476 -119.086881 
L 607.486135 -119.474117 
L 604.343795 -121.983218 
L 601.201454 -124.243888 
L 598.059113 -115.243879 
L 594.916773 -110.835229 
L 591.774432 -118.261084 
L 588.632092 -116.759637 
L 585.489751 -111.220477 
L 582.34741 -119.173584 
L 579.20507 -110.701797 
L 576.062729 -119.519371 
L 572.920388 -109.664435 
L 569.778048 -119.146906 
L 566.635707 -111.393371 
L 563.493367 -121.255611 
L 560.351026 -121.497972 
L 557.208685 -123.323031 
L 554.066345 -119.000691 
L 550.924004 -121.072047 
L 547.781664 -112.655045 
L 544.639323 -111.991255 
L 541.496982 -112.861816 
L 538.354642 -127.136033 
L 535.212301 -119.173584 
L 532.06996 -118.199948 
L 528.92762 -117.826293 
L 525.785279 -119.448571 
L 522.642939 -112.603626 
L 519.500598 -122.323969 
L 516.358257 -115.936372 
L 513.215917 -111.393371 
L 510.073576 -112.603626 
L 506.931235 -109.664435 
L 503.788895 -115.197031 
L 500.646554 -110.356009 
L 497.504214 -132.3135 
L 494.361873 -116.939868 
L 491.219532 -109.664435 
L 488.077192 -114.15458 
L 484.934851 -123.841712 
L 481.792511 -121.264418 
L 478.65017 -109.664435 
L 475.507829 -113.760666 
L 472.365489 -134.429984 
L 469.223148 -119.045507 
L 466.080807 -109.664435 
L 462.938467 -116.343612 
L 459.796126 -109.664435 
L 456.653786 -127.871595 
L 453.511445 -123.477411 
L 450.369104 -111.495613 
L 447.226764 -109.837328 
L 444.084423 -119.834299 
L 440.942083 -115.646833 
L 437.799742 -111.912052 
L 434.657401 -116.947858 
L 431.515061 -135.274442 
L 428.37272 -122.053108 
L 425.230379 -117.462066 
L 422.088039 -135.25716 
L 418.945698 -123.323031 
L 415.803358 -129.892989 
L 412.661017 -139.881772 
L 409.518676 -163.862902 
L 406.376336 -131.011253 
L 403.233995 -123.854839 
L 400.091655 -133.281989 
L 396.949314 -153.922534 
L 393.806973 -144.20302 
L 390.664633 -140.400315 
L 387.522292 -179.848116 
L 384.379951 -139.904615 
L 381.237611 -132.218239 
L 378.09527 -134.843871 
L 374.95293 -139.596227 
L 371.810589 -140.502872 
L 368.668248 -119.253361 
L 365.525908 -120.023278 
L 362.383567 -129.665318 
L 359.241227 -113.295201 
L 356.098886 -138.583857 
L 352.956545 -120.386074 
L 349.814205 -111.542533 
L 346.671864 -109.664435 
L 343.529523 -123.675832 
L 340.387183 -114.67835 
L 337.244842 -127.925623 
L 334.102502 -126.435116 
L 330.960161 -125.641096 
L 327.81782 -118.995343 
L 324.67548 -122.815764 
L 321.533139 -171.222413 
L 318.390799 -132.49525 
L 315.248458 -135.983348 
L 312.106117 -121.112885 
L 308.963777 -121.172066 
L 305.821436 -128.908322 
L 302.679095 -116.442178 
L 299.536755 -124.524431 
L 296.394414 -115.271144 
L 293.252074 -126.234593 
L 290.109733 -135.481533 
L 286.967392 -131.169991 
L 283.825052 -126.174865 
L 280.682711 -118.196604 
L 277.540371 -137.752875 
L 274.39803 -133.068235 
L 271.255689 -128.037609 
L 268.113349 -135.502462 
L 264.971008 -136.549506 
L 261.828667 -157.682777 
L 258.686327 -131.183328 
L 255.543986 -137.060535 
L 252.401646 -146.555047 
L 249.259305 -137.574445 
L 246.116964 -143.555532 
L 242.974624 -122.702931 
L 239.832283 -137.333748 
L 236.689943 -137.722527 
L 233.547602 -146.839521 
L 230.405261 -121.878177 
L 227.262921 -136.941705 
L 224.12058 -147.764739 
L 220.978239 -157.768662 
L 217.835899 -129.090549 
L 214.693558 -144.308869 
L 211.551218 -122.783223 
L 208.408877 -175.912588 
L 205.266536 -136.26461 
L 202.124196 -141.051245 
L 198.981855 -163.766281 
L 195.839515 -147.749375 
L 192.697174 -147.850109 
L 189.554833 -137.34136 
L 186.412493 -142.379066 
L 183.270152 -148.402293 
L 180.127811 -140.214076 
L 176.985471 -161.851853 
L 173.84313 -179.872951 
L 170.70079 -155.634921 
L 167.558449 -164.52652 
L 164.416108 -226.461666 
L 161.273768 -230.365387 
L 158.131427 -305.883783 
z
" style="stroke: #0000ff; stroke-opacity: 0.3"/>
    </defs>
    <g clip-path="url(#p776f37fb60)">
     <use xlink:href="#m8f5b1e4f17" x="0" y="432" style="fill: #0000ff; fill-opacity: 0.3; stroke: #0000ff; stroke-opacity: 0.3"/>
    </g>
   </g>
   <g id="PolyCollection_2">
    <defs>
     <path id="m37d01f8769" d="M 158.131427 -346.889573 
L 158.131427 -311.581764 
L 161.273768 -341.232851 
L 164.416108 -297.886262 
L 167.558449 -293.569572 
L 170.70079 -276.964702 
L 173.84313 -242.897615 
L 176.985471 -249.043172 
L 180.127811 -248.441034 
L 183.270152 -222.660789 
L 186.412493 -247.424528 
L 189.554833 -225.64992 
L 192.697174 -229.009969 
L 195.839515 -178.137414 
L 198.981855 -171.409308 
L 202.124196 -188.589095 
L 205.266536 -182.334133 
L 208.408877 -169.262018 
L 211.551218 -169.300489 
L 214.693558 -152.644008 
L 217.835899 -157.367622 
L 220.978239 -143.69592 
L 224.12058 -150.769007 
L 227.262921 -162.572075 
L 230.405261 -208.736565 
L 233.547602 -181.322001 
L 236.689943 -190.402282 
L 239.832283 -158.279071 
L 242.974624 -154.063028 
L 246.116964 -161.074975 
L 249.259305 -156.616908 
L 252.401646 -172.430744 
L 255.543986 -173.021559 
L 258.686327 -152.510628 
L 261.828667 -173.454697 
L 264.971008 -171.336545 
L 268.113349 -161.132142 
L 271.255689 -154.663916 
L 274.39803 -150.731484 
L 277.540371 -137.268944 
L 280.682711 -142.369503 
L 283.825052 -152.509442 
L 286.967392 -159.643803 
L 290.109733 -133.148015 
L 293.252074 -144.445001 
L 296.394414 -154.654555 
L 299.536755 -138.779963 
L 302.679095 -140.12994 
L 305.821436 -126.339675 
L 308.963777 -137.757351 
L 312.106117 -136.491497 
L 315.248458 -156.781233 
L 318.390799 -152.544841 
L 321.533139 -157.495778 
L 324.67548 -160.760737 
L 327.81782 -155.0946 
L 330.960161 -144.50219 
L 334.102502 -152.081414 
L 337.244842 -117.655913 
L 340.387183 -144.354214 
L 343.529523 -122.208577 
L 346.671864 -164.103607 
L 349.814205 -134.615583 
L 352.956545 -131.539202 
L 356.098886 -129.63816 
L 359.241227 -137.808182 
L 362.383567 -136.599838 
L 365.525908 -131.77002 
L 368.668248 -171.533733 
L 371.810589 -136.242137 
L 374.95293 -157.767009 
L 378.09527 -135.945157 
L 381.237611 -147.066737 
L 384.379951 -129.466705 
L 387.522292 -139.967159 
L 390.664633 -139.471949 
L 393.806973 -142.937335 
L 396.949314 -139.92296 
L 400.091655 -129.910174 
L 403.233995 -127.757573 
L 406.376336 -132.034679 
L 409.518676 -151.541988 
L 412.661017 -146.879633 
L 415.803358 -152.046012 
L 418.945698 -160.907434 
L 422.088039 -123.028708 
L 425.230379 -125.24991 
L 428.37272 -153.319185 
L 431.515061 -138.829526 
L 434.657401 -131.803042 
L 437.799742 -152.978046 
L 440.942083 -140.303617 
L 444.084423 -125.065216 
L 447.226764 -128.147374 
L 450.369104 -131.580866 
L 453.511445 -131.654263 
L 456.653786 -127.993567 
L 459.796126 -155.588935 
L 462.938467 -129.670312 
L 466.080807 -127.38715 
L 469.223148 -118.770577 
L 472.365489 -129.795872 
L 475.507829 -138.28904 
L 478.65017 -124.388175 
L 481.792511 -138.680407 
L 484.934851 -140.240481 
L 488.077192 -127.983369 
L 491.219532 -123.777842 
L 494.361873 -136.186878 
L 497.504214 -135.267766 
L 500.646554 -117.91699 
L 503.788895 -129.530395 
L 506.931235 -145.252003 
L 510.073576 -133.725215 
L 513.215917 -124.103732 
L 516.358257 -125.891132 
L 519.500598 -131.854377 
L 522.642939 -148.313936 
L 525.785279 -128.750768 
L 528.92762 -131.073188 
L 532.06996 -140.832091 
L 535.212301 -131.498847 
L 538.354642 -138.838889 
L 541.496982 -141.186705 
L 544.639323 -140.9105 
L 547.781664 -145.740219 
L 550.924004 -126.404605 
L 554.066345 -126.009863 
L 557.208685 -143.36999 
L 560.351026 -127.347683 
L 563.493367 -126.244983 
L 566.635707 -118.701697 
L 569.778048 -124.394499 
L 572.920388 -124.556234 
L 576.062729 -119.520868 
L 579.20507 -132.886952 
L 582.34741 -125.26702 
L 585.489751 -123.689701 
L 588.632092 -143.535026 
L 591.774432 -134.610222 
L 594.916773 -131.601694 
L 598.059113 -124.757547 
L 601.201454 -127.182113 
L 604.343795 -125.931735 
L 607.486135 -132.736593 
L 610.628476 -129.302677 
L 613.770816 -136.791306 
L 616.913157 -142.481505 
L 620.055498 -141.445307 
L 623.197838 -132.733813 
L 626.340179 -125.775286 
L 629.48252 -140.391967 
L 632.62486 -141.776126 
L 635.767201 -125.864277 
L 638.909541 -123.368023 
L 642.051882 -129.574745 
L 645.194223 -121.693881 
L 648.336563 -120.649183 
L 651.478904 -133.546073 
L 654.621244 -143.7929 
L 657.763585 -116.186701 
L 660.905926 -127.169836 
L 664.048266 -119.499949 
L 667.190607 -116.839109 
L 670.332948 -120.939365 
L 673.475288 -121.253741 
L 676.617629 -128.508106 
L 679.759969 -128.627472 
L 679.759969 -145.844858 
L 679.759969 -145.844858 
L 676.617629 -146.823603 
L 673.475288 -157.945171 
L 670.332948 -136.918313 
L 667.190607 -177.112469 
L 664.048266 -133.631146 
L 660.905926 -136.130572 
L 657.763585 -146.111099 
L 654.621244 -164.768115 
L 651.478904 -164.845628 
L 648.336563 -154.539296 
L 645.194223 -157.648261 
L 642.051882 -170.678943 
L 638.909541 -176.169517 
L 635.767201 -141.016876 
L 632.62486 -171.368242 
L 629.48252 -152.270543 
L 626.340179 -144.256922 
L 623.197838 -144.746342 
L 620.055498 -163.391734 
L 616.913157 -147.459641 
L 613.770816 -154.725366 
L 610.628476 -157.917103 
L 607.486135 -193.011995 
L 604.343795 -145.53277 
L 601.201454 -149.581893 
L 598.059113 -144.558512 
L 594.916773 -142.011257 
L 591.774432 -152.466328 
L 588.632092 -145.117051 
L 585.489751 -163.816538 
L 582.34741 -137.746928 
L 579.20507 -158.91618 
L 576.062729 -144.782149 
L 572.920388 -153.353611 
L 569.778048 -142.343424 
L 566.635707 -131.708032 
L 563.493367 -145.076293 
L 560.351026 -170.18464 
L 557.208685 -203.576602 
L 554.066345 -140.871289 
L 550.924004 -168.406353 
L 547.781664 -156.232227 
L 544.639323 -146.02282 
L 541.496982 -156.488847 
L 538.354642 -189.917524 
L 535.212301 -137.817212 
L 532.06996 -166.153396 
L 528.92762 -159.870565 
L 525.785279 -161.906526 
L 522.642939 -161.536146 
L 519.500598 -169.831609 
L 516.358257 -165.912 
L 513.215917 -134.613323 
L 510.073576 -159.080525 
L 506.931235 -162.592863 
L 503.788895 -152.246654 
L 500.646554 -161.138693 
L 497.504214 -166.991139 
L 494.361873 -151.176131 
L 491.219532 -142.243932 
L 488.077192 -146.77542 
L 484.934851 -147.552217 
L 481.792511 -155.414401 
L 478.65017 -154.381049 
L 475.507829 -156.808377 
L 472.365489 -146.538445 
L 469.223148 -145.67567 
L 466.080807 -168.426415 
L 462.938467 -167.718781 
L 459.796126 -180.472196 
L 456.653786 -173.54919 
L 453.511445 -174.615076 
L 450.369104 -156.355062 
L 447.226764 -156.637499 
L 444.084423 -196.672938 
L 440.942083 -202.775772 
L 437.799742 -195.114384 
L 434.657401 -208.125292 
L 431.515061 -207.257688 
L 428.37272 -226.570254 
L 425.230379 -217.54302 
L 422.088039 -161.183247 
L 418.945698 -205.661637 
L 415.803358 -177.999468 
L 412.661017 -171.564236 
L 409.518676 -172.487842 
L 406.376336 -175.523728 
L 403.233995 -181.233131 
L 400.091655 -199.848846 
L 396.949314 -207.310092 
L 393.806973 -198.423297 
L 390.664633 -194.583965 
L 387.522292 -179.909008 
L 384.379951 -199.146478 
L 381.237611 -184.98396 
L 378.09527 -194.100323 
L 374.95293 -202.213493 
L 371.810589 -208.556009 
L 368.668248 -176.701927 
L 365.525908 -166.621681 
L 362.383567 -191.583655 
L 359.241227 -188.943014 
L 356.098886 -191.240615 
L 352.956545 -142.646668 
L 349.814205 -171.510526 
L 346.671864 -207.335276 
L 343.529523 -173.318529 
L 340.387183 -181.824063 
L 337.244842 -189.759264 
L 334.102502 -194.865179 
L 330.960161 -208.030364 
L 327.81782 -243.701169 
L 324.67548 -204.089577 
L 321.533139 -183.148705 
L 318.390799 -168.333934 
L 315.248458 -171.831949 
L 312.106117 -191.548766 
L 308.963777 -205.322038 
L 305.821436 -194.25264 
L 302.679095 -220.42348 
L 299.536755 -189.403531 
L 296.394414 -178.39875 
L 293.252074 -181.876505 
L 290.109733 -177.704676 
L 286.967392 -206.209119 
L 283.825052 -227.666456 
L 280.682711 -183.092625 
L 277.540371 -170.719152 
L 274.39803 -173.011886 
L 271.255689 -176.097713 
L 268.113349 -169.486257 
L 264.971008 -241.92543 
L 261.828667 -250.406281 
L 258.686327 -212.053226 
L 255.543986 -226.776818 
L 252.401646 -209.320682 
L 249.259305 -209.665703 
L 246.116964 -175.988764 
L 242.974624 -187.154374 
L 239.832283 -212.300433 
L 236.689943 -275.568248 
L 233.547602 -232.226433 
L 230.405261 -278.28874 
L 227.262921 -200.989171 
L 224.12058 -194.029139 
L 220.978239 -201.675146 
L 217.835899 -205.477475 
L 214.693558 -218.651645 
L 211.551218 -212.450937 
L 208.408877 -228.960831 
L 205.266536 -234.938275 
L 202.124196 -213.930647 
L 198.981855 -228.10261 
L 195.839515 -217.36407 
L 192.697174 -242.403292 
L 189.554833 -273.406686 
L 186.412493 -268.389961 
L 183.270152 -271.669235 
L 180.127811 -260.641655 
L 176.985471 -300.716772 
L 173.84313 -312.591519 
L 170.70079 -304.87871 
L 167.558449 -312.6229 
L 164.416108 -332.7985 
L 161.273768 -360.207417 
L 158.131427 -346.889573 
z
" style="stroke: #008000; stroke-opacity: 0.3"/>
    </defs>
    <g clip-path="url(#p776f37fb60)">
     <use xlink:href="#m37d01f8769" x="0" y="432" style="fill: #008000; fill-opacity: 0.3; stroke: #008000; stroke-opacity: 0.3"/>
    </g>
   </g>
   <g id="PolyCollection_3">
    <defs>
     <path id="m7682cce3a2" d="M 158.131427 -393.216671 
L 158.131427 -388.575496 
L 161.273768 -381.451758 
L 164.416108 -380.366263 
L 167.558449 -373.305457 
L 170.70079 -388.027327 
L 173.84313 -365.685335 
L 176.985471 -386.909933 
L 180.127811 -382.298001 
L 183.270152 -381.146562 
L 186.412493 -376.619619 
L 189.554833 -382.17259 
L 192.697174 -349.535619 
L 195.839515 -378.984188 
L 198.981855 -337.252601 
L 202.124196 -342.405042 
L 205.266536 -340.308662 
L 208.408877 -326.011442 
L 211.551218 -317.279912 
L 214.693558 -327.954386 
L 217.835899 -308.289692 
L 220.978239 -315.230718 
L 224.12058 -280.292567 
L 227.262921 -264.158734 
L 230.405261 -287.542594 
L 233.547602 -277.631154 
L 236.689943 -269.368191 
L 239.832283 -278.242297 
L 242.974624 -290.347994 
L 246.116964 -249.485449 
L 249.259305 -254.062426 
L 252.401646 -221.23956 
L 255.543986 -291.460106 
L 258.686327 -260.061601 
L 261.828667 -243.218566 
L 264.971008 -261.109405 
L 268.113349 -223.012653 
L 271.255689 -210.011204 
L 274.39803 -226.524912 
L 277.540371 -214.485292 
L 280.682711 -219.570408 
L 283.825052 -227.50738 
L 286.967392 -212.716494 
L 290.109733 -256.989248 
L 293.252074 -207.172245 
L 296.394414 -235.339984 
L 299.536755 -246.918985 
L 302.679095 -200.333544 
L 305.821436 -224.266339 
L 308.963777 -244.990713 
L 312.106117 -213.45589 
L 315.248458 -239.417873 
L 318.390799 -208.63178 
L 321.533139 -209.175692 
L 324.67548 -226.895893 
L 327.81782 -222.408258 
L 330.960161 -188.525357 
L 334.102502 -232.376561 
L 337.244842 -197.203457 
L 340.387183 -201.995657 
L 343.529523 -211.022309 
L 346.671864 -192.925711 
L 349.814205 -213.959973 
L 352.956545 -206.179599 
L 356.098886 -215.018373 
L 359.241227 -216.173131 
L 362.383567 -202.940633 
L 365.525908 -218.334458 
L 368.668248 -196.087834 
L 371.810589 -203.852904 
L 374.95293 -216.168092 
L 378.09527 -192.120114 
L 381.237611 -215.837282 
L 384.379951 -197.170045 
L 387.522292 -202.902194 
L 390.664633 -206.517656 
L 393.806973 -207.694785 
L 396.949314 -204.688343 
L 400.091655 -211.390511 
L 403.233995 -185.235384 
L 406.376336 -198.027815 
L 409.518676 -202.5009 
L 412.661017 -194.327506 
L 415.803358 -203.153598 
L 418.945698 -198.858327 
L 422.088039 -222.744117 
L 425.230379 -207.415008 
L 428.37272 -181.93031 
L 431.515061 -195.0982 
L 434.657401 -189.839061 
L 437.799742 -211.718838 
L 440.942083 -181.759896 
L 444.084423 -192.224224 
L 447.226764 -196.663685 
L 450.369104 -204.207485 
L 453.511445 -217.704607 
L 456.653786 -205.078054 
L 459.796126 -185.407066 
L 462.938467 -183.81261 
L 466.080807 -178.774064 
L 469.223148 -195.425693 
L 472.365489 -181.949436 
L 475.507829 -173.495711 
L 478.65017 -176.05927 
L 481.792511 -196.2011 
L 484.934851 -205.427534 
L 488.077192 -203.878276 
L 491.219532 -187.828525 
L 494.361873 -179.274485 
L 497.504214 -193.652575 
L 500.646554 -176.385347 
L 503.788895 -202.218501 
L 506.931235 -194.040674 
L 510.073576 -195.342735 
L 513.215917 -230.267383 
L 516.358257 -204.838825 
L 519.500598 -177.571162 
L 522.642939 -177.11503 
L 525.785279 -170.614556 
L 528.92762 -204.299572 
L 532.06996 -193.572872 
L 535.212301 -166.184386 
L 538.354642 -193.504221 
L 541.496982 -187.725123 
L 544.639323 -184.059109 
L 547.781664 -174.164243 
L 550.924004 -188.217242 
L 554.066345 -171.513791 
L 557.208685 -189.103488 
L 560.351026 -164.878006 
L 563.493367 -183.540734 
L 566.635707 -178.345733 
L 569.778048 -186.457781 
L 572.920388 -160.599165 
L 576.062729 -191.47067 
L 579.20507 -176.909063 
L 582.34741 -180.862351 
L 585.489751 -173.311533 
L 588.632092 -164.04159 
L 591.774432 -159.724588 
L 594.916773 -195.836685 
L 598.059113 -166.084488 
L 601.201454 -212.881121 
L 604.343795 -187.018385 
L 607.486135 -197.4401 
L 610.628476 -171.652524 
L 613.770816 -174.013937 
L 616.913157 -179.53904 
L 620.055498 -188.126401 
L 623.197838 -182.958897 
L 626.340179 -172.661008 
L 629.48252 -187.500162 
L 632.62486 -183.168191 
L 635.767201 -192.488542 
L 638.909541 -178.997479 
L 642.051882 -192.362633 
L 645.194223 -174.347174 
L 648.336563 -158.839206 
L 651.478904 -176.838331 
L 654.621244 -208.768948 
L 657.763585 -177.076188 
L 660.905926 -147.469297 
L 664.048266 -183.949982 
L 667.190607 -152.626904 
L 670.332948 -164.295152 
L 673.475288 -180.971391 
L 676.617629 -177.375972 
L 679.759969 -166.306547 
L 679.759969 -206.278174 
L 679.759969 -206.278174 
L 676.617629 -204.088995 
L 673.475288 -208.944132 
L 670.332948 -192.104605 
L 667.190607 -182.001929 
L 664.048266 -218.99945 
L 660.905926 -215.23257 
L 657.763585 -227.305542 
L 654.621244 -211.224827 
L 651.478904 -206.488623 
L 648.336563 -186.531859 
L 645.194223 -210.412077 
L 642.051882 -234.935859 
L 638.909541 -193.587243 
L 635.767201 -248.273549 
L 632.62486 -207.177021 
L 629.48252 -196.542941 
L 626.340179 -213.673771 
L 623.197838 -209.964451 
L 620.055498 -239.172091 
L 616.913157 -222.694243 
L 613.770816 -223.779223 
L 610.628476 -232.585976 
L 607.486135 -223.126593 
L 604.343795 -230.110793 
L 601.201454 -238.193513 
L 598.059113 -235.575876 
L 594.916773 -224.157089 
L 591.774432 -224.318514 
L 588.632092 -224.728095 
L 585.489751 -262.437515 
L 582.34741 -233.259003 
L 579.20507 -267.863461 
L 576.062729 -229.382483 
L 572.920388 -268.131625 
L 569.778048 -227.806803 
L 566.635707 -238.926676 
L 563.493367 -270.684955 
L 560.351026 -301.235754 
L 557.208685 -243.064816 
L 554.066345 -236.878372 
L 550.924004 -282.90956 
L 547.781664 -289.371381 
L 544.639323 -271.169188 
L 541.496982 -198.752885 
L 538.354642 -254.849047 
L 535.212301 -265.12454 
L 532.06996 -258.21791 
L 528.92762 -237.894816 
L 525.785279 -253.819341 
L 522.642939 -265.938737 
L 519.500598 -280.66496 
L 516.358257 -256.405122 
L 513.215917 -303.880516 
L 510.073576 -271.200714 
L 506.931235 -260.041784 
L 503.788895 -278.647924 
L 500.646554 -281.277856 
L 497.504214 -284.349255 
L 494.361873 -286.409585 
L 491.219532 -308.649945 
L 488.077192 -270.829269 
L 484.934851 -265.126348 
L 481.792511 -293.259111 
L 478.65017 -285.327907 
L 475.507829 -297.48786 
L 472.365489 -285.166932 
L 469.223148 -297.042343 
L 466.080807 -267.860447 
L 462.938467 -280.152703 
L 459.796126 -261.227445 
L 456.653786 -270.20241 
L 453.511445 -244.828408 
L 450.369104 -287.401173 
L 447.226764 -249.827596 
L 444.084423 -249.540475 
L 440.942083 -285.213242 
L 437.799742 -287.194538 
L 434.657401 -271.977805 
L 431.515061 -279.609346 
L 428.37272 -251.813522 
L 425.230379 -270.443592 
L 422.088039 -269.43746 
L 418.945698 -273.844001 
L 415.803358 -255.798673 
L 412.661017 -258.609115 
L 409.518676 -292.974962 
L 406.376336 -259.778618 
L 403.233995 -235.474539 
L 400.091655 -282.509824 
L 396.949314 -246.099831 
L 393.806973 -259.851272 
L 390.664633 -265.325294 
L 387.522292 -247.599521 
L 384.379951 -273.670296 
L 381.237611 -254.143681 
L 378.09527 -255.660235 
L 374.95293 -225.310147 
L 371.810589 -304.370407 
L 368.668248 -251.406056 
L 365.525908 -302.922762 
L 362.383567 -277.352874 
L 359.241227 -267.844349 
L 356.098886 -250.236007 
L 352.956545 -280.416017 
L 349.814205 -297.414393 
L 346.671864 -283.357362 
L 343.529523 -263.828466 
L 340.387183 -267.269157 
L 337.244842 -285.811415 
L 334.102502 -287.73482 
L 330.960161 -284.463431 
L 327.81782 -311.453181 
L 324.67548 -319.426536 
L 321.533139 -296.039794 
L 318.390799 -321.075996 
L 315.248458 -312.347287 
L 312.106117 -320.835238 
L 308.963777 -290.446254 
L 305.821436 -308.735722 
L 302.679095 -308.032996 
L 299.536755 -313.726421 
L 296.394414 -340.058088 
L 293.252074 -308.928704 
L 290.109733 -289.333181 
L 286.967392 -332.316867 
L 283.825052 -355.052181 
L 280.682711 -341.791147 
L 277.540371 -351.889304 
L 274.39803 -306.477149 
L 271.255689 -345.048241 
L 268.113349 -328.752508 
L 264.971008 -343.65077 
L 261.828667 -357.531175 
L 258.686327 -348.565777 
L 255.543986 -340.227265 
L 252.401646 -322.218273 
L 249.259305 -343.39303 
L 246.116964 -381.772233 
L 242.974624 -374.425453 
L 239.832283 -357.169047 
L 236.689943 -361.316571 
L 233.547602 -351.048391 
L 230.405261 -359.756821 
L 227.262921 -363.804662 
L 224.12058 -378.17877 
L 220.978239 -365.727693 
L 217.835899 -361.353567 
L 214.693558 -377.353085 
L 211.551218 -362.96235 
L 208.408877 -368.840256 
L 205.266536 -386.340044 
L 202.124196 -369.490999 
L 198.981855 -363.328288 
L 195.839515 -391.063138 
L 192.697174 -384.847495 
L 189.554833 -390.882561 
L 186.412493 -387.268827 
L 183.270152 -394.629954 
L 180.127811 -403.791059 
L 176.985471 -396.600991 
L 173.84313 -374.5702 
L 170.70079 -394.194529 
L 167.558449 -393.304354 
L 164.416108 -395.123795 
L 161.273768 -403.491464 
L 158.131427 -393.216671 
z
" style="stroke: #ff0000; stroke-opacity: 0.3"/>
    </defs>
    <g clip-path="url(#p776f37fb60)">
     <use xlink:href="#m7682cce3a2" x="0" y="432" style="fill: #ff0000; fill-opacity: 0.3; stroke: #ff0000; stroke-opacity: 0.3"/>
    </g>
   </g>
   <g id="PolyCollection_4">
    <defs>
     <path id="ma2a6cc48e2" d="M 158.131427 -358.928305 
L 158.131427 -350.3896 
L 161.273768 -322.112303 
L 164.416108 -289.840452 
L 167.558449 -282.054017 
L 170.70079 -288.392529 
L 173.84313 -233.305217 
L 176.985471 -199.284221 
L 180.127811 -186.605662 
L 183.270152 -194.380462 
L 186.412493 -190.984092 
L 189.554833 -188.055474 
L 192.697174 -193.685728 
L 195.839515 -147.174046 
L 198.981855 -150.080982 
L 202.124196 -157.282117 
L 205.266536 -162.01368 
L 208.408877 -142.867256 
L 211.551218 -164.748702 
L 214.693558 -149.470573 
L 217.835899 -135.456327 
L 220.978239 -126.284142 
L 224.12058 -146.181583 
L 227.262921 -149.576416 
L 230.405261 -118.782786 
L 233.547602 -142.742676 
L 236.689943 -142.917027 
L 239.832283 -139.330141 
L 242.974624 -144.25919 
L 246.116964 -166.082307 
L 249.259305 -186.156174 
L 252.401646 -148.976168 
L 255.543986 -153.930401 
L 258.686327 -122.616206 
L 261.828667 -144.548328 
L 264.971008 -151.23725 
L 268.113349 -151.681067 
L 271.255689 -162.171093 
L 274.39803 -184.464025 
L 277.540371 -157.276128 
L 280.682711 -149.416589 
L 283.825052 -151.482264 
L 286.967392 -170.636961 
L 290.109733 -161.020476 
L 293.252074 -138.543561 
L 296.394414 -151.797707 
L 299.536755 -145.353393 
L 302.679095 -131.952233 
L 305.821436 -143.387896 
L 308.963777 -139.46864 
L 312.106117 -176.125154 
L 315.248458 -152.235298 
L 318.390799 -137.784043 
L 321.533139 -144.019441 
L 324.67548 -130.150221 
L 327.81782 -149.359955 
L 330.960161 -144.158867 
L 334.102502 -132.995323 
L 337.244842 -135.537105 
L 340.387183 -141.773727 
L 343.529523 -130.09532 
L 346.671864 -143.322675 
L 349.814205 -132.064999 
L 352.956545 -149.851052 
L 356.098886 -135.372852 
L 359.241227 -141.566961 
L 362.383567 -132.270341 
L 365.525908 -117.505759 
L 368.668248 -134.196114 
L 371.810589 -131.570747 
L 374.95293 -135.682867 
L 378.09527 -130.220115 
L 381.237611 -131.996347 
L 384.379951 -148.057474 
L 387.522292 -132.950279 
L 390.664633 -144.237244 
L 393.806973 -115.175678 
L 396.949314 -125.558194 
L 400.091655 -139.192872 
L 403.233995 -149.877246 
L 406.376336 -141.961496 
L 409.518676 -142.195531 
L 412.661017 -150.902686 
L 415.803358 -161.513374 
L 418.945698 -145.347042 
L 422.088039 -151.385403 
L 425.230379 -140.291925 
L 428.37272 -142.072177 
L 431.515061 -145.462343 
L 434.657401 -141.8511 
L 437.799742 -147.144845 
L 440.942083 -138.477991 
L 444.084423 -136.884513 
L 447.226764 -146.69545 
L 450.369104 -141.813476 
L 453.511445 -145.812972 
L 456.653786 -137.974749 
L 459.796126 -133.749594 
L 462.938467 -144.906155 
L 466.080807 -142.653164 
L 469.223148 -133.021363 
L 472.365489 -145.717172 
L 475.507829 -145.016657 
L 478.65017 -134.042786 
L 481.792511 -130.680921 
L 484.934851 -140.818794 
L 488.077192 -126.736838 
L 491.219532 -135.586429 
L 494.361873 -118.669736 
L 497.504214 -119.304923 
L 500.646554 -145.021561 
L 503.788895 -133.193104 
L 506.931235 -128.722836 
L 510.073576 -137.285308 
L 513.215917 -127.945694 
L 516.358257 -121.095378 
L 519.500598 -126.269397 
L 522.642939 -120.688585 
L 525.785279 -130.313085 
L 528.92762 -126.627983 
L 532.06996 -117.871914 
L 535.212301 -113.576983 
L 538.354642 -130.802598 
L 541.496982 -120.054901 
L 544.639323 -133.798064 
L 547.781664 -126.746945 
L 550.924004 -139.129535 
L 554.066345 -138.067944 
L 557.208685 -136.78722 
L 560.351026 -135.963435 
L 563.493367 -137.510362 
L 566.635707 -125.721452 
L 569.778048 -138.204511 
L 572.920388 -138.243658 
L 576.062729 -135.611288 
L 579.20507 -138.614223 
L 582.34741 -139.473383 
L 585.489751 -134.707875 
L 588.632092 -149.031406 
L 591.774432 -143.739441 
L 594.916773 -137.569324 
L 598.059113 -158.581211 
L 601.201454 -139.6878 
L 604.343795 -138.648679 
L 607.486135 -136.481357 
L 610.628476 -149.175005 
L 613.770816 -140.031818 
L 616.913157 -141.950628 
L 620.055498 -139.464013 
L 623.197838 -136.451543 
L 626.340179 -136.103078 
L 629.48252 -147.754379 
L 632.62486 -142.91323 
L 635.767201 -138.43294 
L 638.909541 -130.728732 
L 642.051882 -148.491685 
L 645.194223 -133.851634 
L 648.336563 -134.506159 
L 651.478904 -132.116712 
L 654.621244 -129.060136 
L 657.763585 -133.019489 
L 660.905926 -123.100289 
L 664.048266 -137.009583 
L 667.190607 -142.230084 
L 670.332948 -142.100236 
L 673.475288 -136.992618 
L 676.617629 -146.218568 
L 679.759969 -134.311367 
L 679.759969 -153.624561 
L 679.759969 -153.624561 
L 676.617629 -169.360705 
L 673.475288 -158.820948 
L 670.332948 -172.47643 
L 667.190607 -154.58609 
L 664.048266 -154.936779 
L 660.905926 -141.059498 
L 657.763585 -165.801901 
L 654.621244 -171.193552 
L 651.478904 -153.67077 
L 648.336563 -163.599083 
L 645.194223 -175.711989 
L 642.051882 -151.475543 
L 638.909541 -164.655145 
L 635.767201 -146.638393 
L 632.62486 -156.05139 
L 629.48252 -158.944649 
L 626.340179 -161.429244 
L 623.197838 -152.773453 
L 620.055498 -162.508432 
L 616.913157 -178.355228 
L 613.770816 -159.219262 
L 610.628476 -159.52924 
L 607.486135 -157.613452 
L 604.343795 -163.037307 
L 601.201454 -154.693468 
L 598.059113 -172.037188 
L 594.916773 -145.210333 
L 591.774432 -171.123684 
L 588.632092 -165.974949 
L 585.489751 -169.126558 
L 582.34741 -163.071982 
L 579.20507 -171.952009 
L 576.062729 -170.371591 
L 572.920388 -157.140219 
L 569.778048 -152.309553 
L 566.635707 -145.170134 
L 563.493367 -158.016744 
L 560.351026 -155.410008 
L 557.208685 -151.721628 
L 554.066345 -145.714321 
L 550.924004 -145.798569 
L 547.781664 -162.048362 
L 544.639323 -142.536254 
L 541.496982 -170.459163 
L 538.354642 -150.831221 
L 535.212301 -171.78081 
L 532.06996 -154.5952 
L 528.92762 -160.162107 
L 525.785279 -156.190546 
L 522.642939 -159.083247 
L 519.500598 -140.038837 
L 516.358257 -150.655587 
L 513.215917 -142.945892 
L 510.073576 -159.674096 
L 506.931235 -162.937067 
L 503.788895 -156.175122 
L 500.646554 -164.685292 
L 497.504214 -152.875731 
L 494.361873 -155.372905 
L 491.219532 -145.474471 
L 488.077192 -135.847422 
L 484.934851 -148.979121 
L 481.792511 -154.963331 
L 478.65017 -144.869668 
L 475.507829 -159.104235 
L 472.365489 -156.971423 
L 469.223148 -163.365122 
L 466.080807 -147.8609 
L 462.938467 -146.324058 
L 459.796126 -143.730561 
L 456.653786 -147.096585 
L 453.511445 -160.026677 
L 450.369104 -152.854252 
L 447.226764 -152.55563 
L 444.084423 -183.994262 
L 440.942083 -163.494455 
L 437.799742 -185.049082 
L 434.657401 -158.545818 
L 431.515061 -173.984134 
L 428.37272 -158.038281 
L 425.230379 -169.987847 
L 422.088039 -184.532497 
L 418.945698 -193.005765 
L 415.803358 -183.141543 
L 412.661017 -161.239073 
L 409.518676 -151.326358 
L 406.376336 -162.445856 
L 403.233995 -151.092591 
L 400.091655 -149.602435 
L 396.949314 -161.231896 
L 393.806973 -158.150814 
L 390.664633 -155.300295 
L 387.522292 -158.566393 
L 384.379951 -175.542666 
L 381.237611 -165.535976 
L 378.09527 -195.242013 
L 374.95293 -174.883365 
L 371.810589 -176.703808 
L 368.668248 -160.328384 
L 365.525908 -155.534274 
L 362.383567 -153.94683 
L 359.241227 -151.668469 
L 356.098886 -143.109912 
L 352.956545 -155.129219 
L 349.814205 -174.777259 
L 346.671864 -177.269641 
L 343.529523 -168.582841 
L 340.387183 -162.203936 
L 337.244842 -185.77136 
L 334.102502 -185.735005 
L 330.960161 -184.884004 
L 327.81782 -182.261052 
L 324.67548 -175.832658 
L 321.533139 -165.687412 
L 318.390799 -163.615483 
L 315.248458 -166.63826 
L 312.106117 -180.990752 
L 308.963777 -168.376226 
L 305.821436 -147.699088 
L 302.679095 -165.86655 
L 299.536755 -167.504515 
L 296.394414 -159.341444 
L 293.252074 -151.397584 
L 290.109733 -185.496427 
L 286.967392 -203.093598 
L 283.825052 -161.232414 
L 280.682711 -172.035105 
L 277.540371 -169.475067 
L 274.39803 -198.146779 
L 271.255689 -179.189538 
L 268.113349 -199.848878 
L 264.971008 -209.31617 
L 261.828667 -209.989443 
L 258.686327 -202.559462 
L 255.543986 -215.073576 
L 252.401646 -196.681357 
L 249.259305 -220.374002 
L 246.116964 -168.546525 
L 242.974624 -181.919087 
L 239.832283 -179.400188 
L 236.689943 -168.222124 
L 233.547602 -194.464292 
L 230.405261 -190.637607 
L 227.262921 -188.776391 
L 224.12058 -209.072337 
L 220.978239 -246.014119 
L 217.835899 -181.698474 
L 214.693558 -167.397768 
L 211.551218 -207.2631 
L 208.408877 -200.212133 
L 205.266536 -220.167435 
L 202.124196 -215.875523 
L 198.981855 -220.355292 
L 195.839515 -233.145082 
L 192.697174 -249.368039 
L 189.554833 -198.995453 
L 186.412493 -245.910794 
L 183.270152 -248.243615 
L 180.127811 -227.658921 
L 176.985471 -233.600232 
L 173.84313 -277.066541 
L 170.70079 -335.273975 
L 167.558449 -320.844171 
L 164.416108 -337.263566 
L 161.273768 -349.249714 
L 158.131427 -358.928305 
z
" style="stroke: #ffa500; stroke-opacity: 0.3"/>
    </defs>
    <g clip-path="url(#p776f37fb60)">
     <use xlink:href="#ma2a6cc48e2" x="0" y="432" style="fill: #ffa500; fill-opacity: 0.3; stroke: #ffa500; stroke-opacity: 0.3"/>
    </g>
   </g>
   <g id="matplotlib.axis_1">
    <g id="xtick_1">
     <g id="line2d_1">
      <defs>
       <path id="mddf900f390" d="M 0 0 
L 0 3.5 
" style="stroke: #000000; stroke-width: 0.8"/>
      </defs>
      <g>
       <use xlink:href="#mddf900f390" x="158.131427" y="343.96" style="stroke: #000000; stroke-width: 0.8"/>
      </g>
     </g>
     <g id="text_1">
      <!-- 0 -->
      <g transform="translate(149.223927 372.235625) scale(0.28 -0.28)">
       <defs>
        <path id="DejaVuSans-30" d="M 2034 4250 
Q 1547 4250 1301 3770 
Q 1056 3291 1056 2328 
Q 1056 1369 1301 889 
Q 1547 409 2034 409 
Q 2525 409 2770 889 
Q 3016 1369 3016 2328 
Q 3016 3291 2770 3770 
Q 2525 4250 2034 4250 
z
M 2034 4750 
Q 2819 4750 3233 4129 
Q 3647 3509 3647 2328 
Q 3647 1150 3233 529 
Q 2819 -91 2034 -91 
Q 1250 -91 836 529 
Q 422 1150 422 2328 
Q 422 3509 836 4129 
Q 1250 4750 2034 4750 
z
" transform="scale(0.015625)"/>
       </defs>
       <use xlink:href="#DejaVuSans-30"/>
      </g>
     </g>
    </g>
    <g id="xtick_2">
     <g id="line2d_2">
      <g>
       <use xlink:href="#mddf900f390" x="262.876114" y="343.96" style="stroke: #000000; stroke-width: 0.8"/>
      </g>
     </g>
     <g id="text_2">
      <!-- 100 -->
      <g transform="translate(236.153614 372.235625) scale(0.28 -0.28)">
       <defs>
        <path id="DejaVuSans-31" d="M 794 531 
L 1825 531 
L 1825 4091 
L 703 3866 
L 703 4441 
L 1819 4666 
L 2450 4666 
L 2450 531 
L 3481 531 
L 3481 0 
L 794 0 
L 794 531 
z
" transform="scale(0.015625)"/>
       </defs>
       <use xlink:href="#DejaVuSans-31"/>
       <use xlink:href="#DejaVuSans-30" x="63.623047"/>
       <use xlink:href="#DejaVuSans-30" x="127.246094"/>
      </g>
     </g>
    </g>
    <g id="xtick_3">
     <g id="line2d_3">
      <g>
       <use xlink:href="#mddf900f390" x="367.620802" y="343.96" style="stroke: #000000; stroke-width: 0.8"/>
      </g>
     </g>
     <g id="text_3">
      <!-- 200 -->
      <g transform="translate(340.898302 372.235625) scale(0.28 -0.28)">
       <defs>
        <path id="DejaVuSans-32" d="M 1228 531 
L 3431 531 
L 3431 0 
L 469 0 
L 469 531 
Q 828 903 1448 1529 
Q 2069 2156 2228 2338 
Q 2531 2678 2651 2914 
Q 2772 3150 2772 3378 
Q 2772 3750 2511 3984 
Q 2250 4219 1831 4219 
Q 1534 4219 1204 4116 
Q 875 4013 500 3803 
L 500 4441 
Q 881 4594 1212 4672 
Q 1544 4750 1819 4750 
Q 2544 4750 2975 4387 
Q 3406 4025 3406 3419 
Q 3406 3131 3298 2873 
Q 3191 2616 2906 2266 
Q 2828 2175 2409 1742 
Q 1991 1309 1228 531 
z
" transform="scale(0.015625)"/>
       </defs>
       <use xlink:href="#DejaVuSans-32"/>
       <use xlink:href="#DejaVuSans-30" x="63.623047"/>
       <use xlink:href="#DejaVuSans-30" x="127.246094"/>
      </g>
     </g>
    </g>
    <g id="xtick_4">
     <g id="line2d_4">
      <g>
       <use xlink:href="#mddf900f390" x="472.365489" y="343.96" style="stroke: #000000; stroke-width: 0.8"/>
      </g>
     </g>
     <g id="text_4">
      <!-- 300 -->
      <g transform="translate(445.642989 372.235625) scale(0.28 -0.28)">
       <defs>
        <path id="DejaVuSans-33" d="M 2597 2516 
Q 3050 2419 3304 2112 
Q 3559 1806 3559 1356 
Q 3559 666 3084 287 
Q 2609 -91 1734 -91 
Q 1441 -91 1130 -33 
Q 819 25 488 141 
L 488 750 
Q 750 597 1062 519 
Q 1375 441 1716 441 
Q 2309 441 2620 675 
Q 2931 909 2931 1356 
Q 2931 1769 2642 2001 
Q 2353 2234 1838 2234 
L 1294 2234 
L 1294 2753 
L 1863 2753 
Q 2328 2753 2575 2939 
Q 2822 3125 2822 3475 
Q 2822 3834 2567 4026 
Q 2313 4219 1838 4219 
Q 1578 4219 1281 4162 
Q 984 4106 628 3988 
L 628 4550 
Q 988 4650 1302 4700 
Q 1616 4750 1894 4750 
Q 2613 4750 3031 4423 
Q 3450 4097 3450 3541 
Q 3450 3153 3228 2886 
Q 3006 2619 2597 2516 
z
" transform="scale(0.015625)"/>
       </defs>
       <use xlink:href="#DejaVuSans-33"/>
       <use xlink:href="#DejaVuSans-30" x="63.623047"/>
       <use xlink:href="#DejaVuSans-30" x="127.246094"/>
      </g>
     </g>
    </g>
    <g id="xtick_5">
     <g id="line2d_5">
      <g>
       <use xlink:href="#mddf900f390" x="577.110176" y="343.96" style="stroke: #000000; stroke-width: 0.8"/>
      </g>
     </g>
     <g id="text_5">
      <!-- 400 -->
      <g transform="translate(550.387676 372.235625) scale(0.28 -0.28)">
       <defs>
        <path id="DejaVuSans-34" d="M 2419 4116 
L 825 1625 
L 2419 1625 
L 2419 4116 
z
M 2253 4666 
L 3047 4666 
L 3047 1625 
L 3713 1625 
L 3713 1100 
L 3047 1100 
L 3047 0 
L 2419 0 
L 2419 1100 
L 313 1100 
L 313 1709 
L 2253 4666 
z
" transform="scale(0.015625)"/>
       </defs>
       <use xlink:href="#DejaVuSans-34"/>
       <use xlink:href="#DejaVuSans-30" x="63.623047"/>
       <use xlink:href="#DejaVuSans-30" x="127.246094"/>
      </g>
     </g>
    </g>
    <g id="xtick_6">
     <g id="line2d_6">
      <g>
       <use xlink:href="#mddf900f390" x="681.854863" y="343.96" style="stroke: #000000; stroke-width: 0.8"/>
      </g>
     </g>
     <g id="text_6">
      <!-- 500 -->
      <g transform="translate(655.132363 372.235625) scale(0.28 -0.28)">
       <defs>
        <path id="DejaVuSans-35" d="M 691 4666 
L 3169 4666 
L 3169 4134 
L 1269 4134 
L 1269 2991 
Q 1406 3038 1543 3061 
Q 1681 3084 1819 3084 
Q 2600 3084 3056 2656 
Q 3513 2228 3513 1497 
Q 3513 744 3044 326 
Q 2575 -91 1722 -91 
Q 1428 -91 1123 -41 
Q 819 9 494 109 
L 494 744 
Q 775 591 1075 516 
Q 1375 441 1709 441 
Q 2250 441 2565 725 
Q 2881 1009 2881 1497 
Q 2881 1984 2565 2268 
Q 2250 2553 1709 2553 
Q 1456 2553 1204 2497 
Q 953 2441 691 2322 
L 691 4666 
z
" transform="scale(0.015625)"/>
       </defs>
       <use xlink:href="#DejaVuSans-35"/>
       <use xlink:href="#DejaVuSans-30" x="63.623047"/>
       <use xlink:href="#DejaVuSans-30" x="127.246094"/>
      </g>
     </g>
    </g>
    <g id="text_7">
     <!-- Episode -->
     <g transform="translate(340.395698 412.4525) scale(0.4 -0.4)">
      <defs>
       <path id="DejaVuSans-45" d="M 628 4666 
L 3578 4666 
L 3578 4134 
L 1259 4134 
L 1259 2753 
L 3481 2753 
L 3481 2222 
L 1259 2222 
L 1259 531 
L 3634 531 
L 3634 0 
L 628 0 
L 628 4666 
z
" transform="scale(0.015625)"/>
       <path id="DejaVuSans-70" d="M 1159 525 
L 1159 -1331 
L 581 -1331 
L 581 3500 
L 1159 3500 
L 1159 2969 
Q 1341 3281 1617 3432 
Q 1894 3584 2278 3584 
Q 2916 3584 3314 3078 
Q 3713 2572 3713 1747 
Q 3713 922 3314 415 
Q 2916 -91 2278 -91 
Q 1894 -91 1617 61 
Q 1341 213 1159 525 
z
M 3116 1747 
Q 3116 2381 2855 2742 
Q 2594 3103 2138 3103 
Q 1681 3103 1420 2742 
Q 1159 2381 1159 1747 
Q 1159 1113 1420 752 
Q 1681 391 2138 391 
Q 2594 391 2855 752 
Q 3116 1113 3116 1747 
z
" transform="scale(0.015625)"/>
       <path id="DejaVuSans-69" d="M 603 3500 
L 1178 3500 
L 1178 0 
L 603 0 
L 603 3500 
z
M 603 4863 
L 1178 4863 
L 1178 4134 
L 603 4134 
L 603 4863 
z
" transform="scale(0.015625)"/>
       <path id="DejaVuSans-73" d="M 2834 3397 
L 2834 2853 
Q 2591 2978 2328 3040 
Q 2066 3103 1784 3103 
Q 1356 3103 1142 2972 
Q 928 2841 928 2578 
Q 928 2378 1081 2264 
Q 1234 2150 1697 2047 
L 1894 2003 
Q 2506 1872 2764 1633 
Q 3022 1394 3022 966 
Q 3022 478 2636 193 
Q 2250 -91 1575 -91 
Q 1294 -91 989 -36 
Q 684 19 347 128 
L 347 722 
Q 666 556 975 473 
Q 1284 391 1588 391 
Q 1994 391 2212 530 
Q 2431 669 2431 922 
Q 2431 1156 2273 1281 
Q 2116 1406 1581 1522 
L 1381 1569 
Q 847 1681 609 1914 
Q 372 2147 372 2553 
Q 372 3047 722 3315 
Q 1072 3584 1716 3584 
Q 2034 3584 2315 3537 
Q 2597 3491 2834 3397 
z
" transform="scale(0.015625)"/>
       <path id="DejaVuSans-6f" d="M 1959 3097 
Q 1497 3097 1228 2736 
Q 959 2375 959 1747 
Q 959 1119 1226 758 
Q 1494 397 1959 397 
Q 2419 397 2687 759 
Q 2956 1122 2956 1747 
Q 2956 2369 2687 2733 
Q 2419 3097 1959 3097 
z
M 1959 3584 
Q 2709 3584 3137 3096 
Q 3566 2609 3566 1747 
Q 3566 888 3137 398 
Q 2709 -91 1959 -91 
Q 1206 -91 779 398 
Q 353 888 353 1747 
Q 353 2609 779 3096 
Q 1206 3584 1959 3584 
z
" transform="scale(0.015625)"/>
       <path id="DejaVuSans-64" d="M 2906 2969 
L 2906 4863 
L 3481 4863 
L 3481 0 
L 2906 0 
L 2906 525 
Q 2725 213 2448 61 
Q 2172 -91 1784 -91 
Q 1150 -91 751 415 
Q 353 922 353 1747 
Q 353 2572 751 3078 
Q 1150 3584 1784 3584 
Q 2172 3584 2448 3432 
Q 2725 3281 2906 2969 
z
M 947 1747 
Q 947 1113 1208 752 
Q 1469 391 1925 391 
Q 2381 391 2643 752 
Q 2906 1113 2906 1747 
Q 2906 2381 2643 2742 
Q 2381 3103 1925 3103 
Q 1469 3103 1208 2742 
Q 947 2381 947 1747 
z
" transform="scale(0.015625)"/>
       <path id="DejaVuSans-65" d="M 3597 1894 
L 3597 1613 
L 953 1613 
Q 991 1019 1311 708 
Q 1631 397 2203 397 
Q 2534 397 2845 478 
Q 3156 559 3463 722 
L 3463 178 
Q 3153 47 2828 -22 
Q 2503 -91 2169 -91 
Q 1331 -91 842 396 
Q 353 884 353 1716 
Q 353 2575 817 3079 
Q 1281 3584 2069 3584 
Q 2775 3584 3186 3129 
Q 3597 2675 3597 1894 
z
M 3022 2063 
Q 3016 2534 2758 2815 
Q 2500 3097 2075 3097 
Q 1594 3097 1305 2825 
Q 1016 2553 972 2059 
L 3022 2063 
z
" transform="scale(0.015625)"/>
      </defs>
      <use xlink:href="#DejaVuSans-45"/>
      <use xlink:href="#DejaVuSans-70" x="63.183594"/>
      <use xlink:href="#DejaVuSans-69" x="126.660156"/>
      <use xlink:href="#DejaVuSans-73" x="154.443359"/>
      <use xlink:href="#DejaVuSans-6f" x="206.542969"/>
      <use xlink:href="#DejaVuSans-64" x="267.724609"/>
      <use xlink:href="#DejaVuSans-65" x="331.201172"/>
     </g>
    </g>
   </g>
   <g id="matplotlib.axis_2">
    <g id="ytick_1">
     <g id="line2d_7">
      <defs>
       <path id="md02cadba67" d="M 0 0 
L -3.5 0 
" style="stroke: #000000; stroke-width: 0.8"/>
      </defs>
      <g>
       <use xlink:href="#md02cadba67" x="132.05" y="322.335565" style="stroke: #000000; stroke-width: 0.8"/>
      </g>
     </g>
     <g id="text_8">
      <!-- 0 -->
      <g transform="translate(107.235 332.973378) scale(0.28 -0.28)">
       <use xlink:href="#DejaVuSans-30"/>
      </g>
     </g>
    </g>
    <g id="ytick_2">
     <g id="line2d_8">
      <g>
       <use xlink:href="#md02cadba67" x="132.05" y="279.366635" style="stroke: #000000; stroke-width: 0.8"/>
      </g>
     </g>
     <g id="text_9">
      <!-- 200 -->
      <g transform="translate(71.605 290.004447) scale(0.28 -0.28)">
       <use xlink:href="#DejaVuSans-32"/>
       <use xlink:href="#DejaVuSans-30" x="63.623047"/>
       <use xlink:href="#DejaVuSans-30" x="127.246094"/>
      </g>
     </g>
    </g>
    <g id="ytick_3">
     <g id="line2d_9">
      <g>
       <use xlink:href="#md02cadba67" x="132.05" y="236.397705" style="stroke: #000000; stroke-width: 0.8"/>
      </g>
     </g>
     <g id="text_10">
      <!-- 400 -->
      <g transform="translate(71.605 247.035517) scale(0.28 -0.28)">
       <use xlink:href="#DejaVuSans-34"/>
       <use xlink:href="#DejaVuSans-30" x="63.623047"/>
       <use xlink:href="#DejaVuSans-30" x="127.246094"/>
      </g>
     </g>
    </g>
    <g id="ytick_4">
     <g id="line2d_10">
      <g>
       <use xlink:href="#md02cadba67" x="132.05" y="193.428774" style="stroke: #000000; stroke-width: 0.8"/>
      </g>
     </g>
     <g id="text_11">
      <!-- 600 -->
      <g transform="translate(71.605 204.066587) scale(0.28 -0.28)">
       <defs>
        <path id="DejaVuSans-36" d="M 2113 2584 
Q 1688 2584 1439 2293 
Q 1191 2003 1191 1497 
Q 1191 994 1439 701 
Q 1688 409 2113 409 
Q 2538 409 2786 701 
Q 3034 994 3034 1497 
Q 3034 2003 2786 2293 
Q 2538 2584 2113 2584 
z
M 3366 4563 
L 3366 3988 
Q 3128 4100 2886 4159 
Q 2644 4219 2406 4219 
Q 1781 4219 1451 3797 
Q 1122 3375 1075 2522 
Q 1259 2794 1537 2939 
Q 1816 3084 2150 3084 
Q 2853 3084 3261 2657 
Q 3669 2231 3669 1497 
Q 3669 778 3244 343 
Q 2819 -91 2113 -91 
Q 1303 -91 875 529 
Q 447 1150 447 2328 
Q 447 3434 972 4092 
Q 1497 4750 2381 4750 
Q 2619 4750 2861 4703 
Q 3103 4656 3366 4563 
z
" transform="scale(0.015625)"/>
       </defs>
       <use xlink:href="#DejaVuSans-36"/>
       <use xlink:href="#DejaVuSans-30" x="63.623047"/>
       <use xlink:href="#DejaVuSans-30" x="127.246094"/>
      </g>
     </g>
    </g>
    <g id="ytick_5">
     <g id="line2d_11">
      <g>
       <use xlink:href="#md02cadba67" x="132.05" y="150.459844" style="stroke: #000000; stroke-width: 0.8"/>
      </g>
     </g>
     <g id="text_12">
      <!-- 800 -->
      <g transform="translate(71.605 161.097657) scale(0.28 -0.28)">
       <defs>
        <path id="DejaVuSans-38" d="M 2034 2216 
Q 1584 2216 1326 1975 
Q 1069 1734 1069 1313 
Q 1069 891 1326 650 
Q 1584 409 2034 409 
Q 2484 409 2743 651 
Q 3003 894 3003 1313 
Q 3003 1734 2745 1975 
Q 2488 2216 2034 2216 
z
M 1403 2484 
Q 997 2584 770 2862 
Q 544 3141 544 3541 
Q 544 4100 942 4425 
Q 1341 4750 2034 4750 
Q 2731 4750 3128 4425 
Q 3525 4100 3525 3541 
Q 3525 3141 3298 2862 
Q 3072 2584 2669 2484 
Q 3125 2378 3379 2068 
Q 3634 1759 3634 1313 
Q 3634 634 3220 271 
Q 2806 -91 2034 -91 
Q 1263 -91 848 271 
Q 434 634 434 1313 
Q 434 1759 690 2068 
Q 947 2378 1403 2484 
z
M 1172 3481 
Q 1172 3119 1398 2916 
Q 1625 2713 2034 2713 
Q 2441 2713 2670 2916 
Q 2900 3119 2900 3481 
Q 2900 3844 2670 4047 
Q 2441 4250 2034 4250 
Q 1625 4250 1398 4047 
Q 1172 3844 1172 3481 
z
" transform="scale(0.015625)"/>
       </defs>
       <use xlink:href="#DejaVuSans-38"/>
       <use xlink:href="#DejaVuSans-30" x="63.623047"/>
       <use xlink:href="#DejaVuSans-30" x="127.246094"/>
      </g>
     </g>
    </g>
    <g id="ytick_6">
     <g id="line2d_12">
      <g>
       <use xlink:href="#md02cadba67" x="132.05" y="107.490914" style="stroke: #000000; stroke-width: 0.8"/>
      </g>
     </g>
     <g id="text_13">
      <!-- 1000 -->
      <g transform="translate(53.79 118.128726) scale(0.28 -0.28)">
       <use xlink:href="#DejaVuSans-31"/>
       <use xlink:href="#DejaVuSans-30" x="63.623047"/>
       <use xlink:href="#DejaVuSans-30" x="127.246094"/>
       <use xlink:href="#DejaVuSans-30" x="190.869141"/>
      </g>
     </g>
    </g>
    <g id="ytick_7">
     <g id="line2d_13">
      <g>
       <use xlink:href="#md02cadba67" x="132.05" y="64.521983" style="stroke: #000000; stroke-width: 0.8"/>
      </g>
     </g>
     <g id="text_14">
      <!-- 1200 -->
      <g transform="translate(53.79 75.159796) scale(0.28 -0.28)">
       <use xlink:href="#DejaVuSans-31"/>
       <use xlink:href="#DejaVuSans-32" x="63.623047"/>
       <use xlink:href="#DejaVuSans-30" x="127.246094"/>
       <use xlink:href="#DejaVuSans-30" x="190.869141"/>
      </g>
     </g>
    </g>
    <g id="ytick_8">
     <g id="line2d_14">
      <g>
       <use xlink:href="#md02cadba67" x="132.05" y="21.553053" style="stroke: #000000; stroke-width: 0.8"/>
      </g>
     </g>
     <g id="text_15">
      <!-- 1400 -->
      <g transform="translate(53.79 32.190866) scale(0.28 -0.28)">
       <use xlink:href="#DejaVuSans-31"/>
       <use xlink:href="#DejaVuSans-34" x="63.623047"/>
       <use xlink:href="#DejaVuSans-30" x="127.246094"/>
       <use xlink:href="#DejaVuSans-30" x="190.869141"/>
      </g>
     </g>
    </g>
    <g id="text_16">
     <!-- $m_{vct}$ -->
     <g transform="translate(41.47125 220.166588) rotate(-90) scale(0.4 -0.4)">
      <defs>
       <path id="DejaVuSans-Oblique-6d" d="M 5747 2113 
L 5338 0 
L 4763 0 
L 5166 2094 
Q 5191 2228 5203 2325 
Q 5216 2422 5216 2491 
Q 5216 2772 5059 2928 
Q 4903 3084 4622 3084 
Q 4203 3084 3875 2770 
Q 3547 2456 3450 1953 
L 3066 0 
L 2491 0 
L 2900 2094 
Q 2925 2209 2937 2307 
Q 2950 2406 2950 2484 
Q 2950 2769 2794 2926 
Q 2638 3084 2363 3084 
Q 1938 3084 1609 2770 
Q 1281 2456 1184 1953 
L 800 0 
L 225 0 
L 909 3500 
L 1484 3500 
L 1375 2956 
Q 1609 3263 1923 3423 
Q 2238 3584 2597 3584 
Q 2978 3584 3223 3384 
Q 3469 3184 3519 2828 
Q 3781 3197 4126 3390 
Q 4472 3584 4856 3584 
Q 5306 3584 5551 3325 
Q 5797 3066 5797 2591 
Q 5797 2488 5784 2364 
Q 5772 2241 5747 2113 
z
" transform="scale(0.015625)"/>
       <path id="DejaVuSans-Oblique-76" d="M 459 3500 
L 1069 3500 
L 1581 525 
L 3256 3500 
L 3866 3500 
L 1875 0 
L 1100 0 
L 459 3500 
z
" transform="scale(0.015625)"/>
       <path id="DejaVuSans-Oblique-63" d="M 3431 3366 
L 3316 2797 
Q 3109 2947 2876 3022 
Q 2644 3097 2394 3097 
Q 2119 3097 1870 3000 
Q 1622 2903 1453 2725 
Q 1184 2453 1037 2087 
Q 891 1722 891 1331 
Q 891 859 1127 628 
Q 1363 397 1844 397 
Q 2081 397 2348 469 
Q 2616 541 2906 684 
L 2797 116 
Q 2547 13 2283 -39 
Q 2019 -91 1741 -91 
Q 1044 -91 669 257 
Q 294 606 294 1253 
Q 294 1797 489 2255 
Q 684 2713 1069 3078 
Q 1331 3328 1684 3456 
Q 2038 3584 2456 3584 
Q 2700 3584 2940 3529 
Q 3181 3475 3431 3366 
z
" transform="scale(0.015625)"/>
       <path id="DejaVuSans-Oblique-74" d="M 2706 3500 
L 2619 3053 
L 1472 3053 
L 1100 1153 
Q 1081 1047 1072 975 
Q 1063 903 1063 863 
Q 1063 663 1183 572 
Q 1303 481 1569 481 
L 2150 481 
L 2053 0 
L 1503 0 
Q 991 0 739 200 
Q 488 400 488 806 
Q 488 878 497 964 
Q 506 1050 525 1153 
L 897 3053 
L 409 3053 
L 500 3500 
L 978 3500 
L 1172 4494 
L 1747 4494 
L 1556 3500 
L 2706 3500 
z
" transform="scale(0.015625)"/>
      </defs>
      <use xlink:href="#DejaVuSans-Oblique-6d"/>
      <use xlink:href="#DejaVuSans-Oblique-76" transform="translate(97.412109 -16.40625) scale(0.7)"/>
      <use xlink:href="#DejaVuSans-Oblique-63" transform="translate(138.837891 -16.40625) scale(0.7)"/>
      <use xlink:href="#DejaVuSans-Oblique-74" transform="translate(177.324219 -16.40625) scale(0.7)"/>
     </g>
    </g>
   </g>
   <g id="line2d_15">
    <path d="M 158.131427 146.8791 
L 161.273768 226.80131 
L 164.416108 251.078756 
L 167.558449 291.183091 
L 170.70079 282.088 
L 173.84313 273.995519 
L 176.985471 276.21558 
L 180.127811 297.77166 
L 183.270152 293.331537 
L 186.412493 299.203958 
L 189.554833 301.853708 
L 192.697174 298.917498 
L 195.839515 294.190916 
L 198.981855 287.673961 
L 202.124196 295.694828 
L 205.266536 305.577682 
L 208.408877 288.24688 
L 211.551218 311.736562 
L 214.693558 290.968246 
L 217.835899 311.521718 
L 220.978239 293.904456 
L 224.12058 295.050294 
L 227.262921 302.426627 
L 230.405261 315.96184 
L 233.547602 300.636255 
L 236.689943 308.513893 
L 239.832283 308.800352 
L 242.974624 312.094637 
L 246.116964 302.569857 
L 249.259305 304.002155 
L 252.401646 292.901848 
L 255.543986 305.291223 
L 258.686327 301.280789 
L 261.828667 291.397935 
L 264.971008 310.161035 
L 268.113349 309.015197 
L 271.255689 314.171468 
L 274.39803 306.293831 
L 277.540371 304.575074 
L 280.682711 315.603766 
L 283.825052 315.245692 
L 286.967392 309.230041 
L 290.109733 306.078987 
L 293.252074 314.099853 
L 296.394414 319.829044 
L 299.536755 314.457928 
L 302.679095 319.04128 
L 305.821436 313.45532 
L 308.963777 315.746996 
L 312.106117 316.821219 
L 315.248458 306.150601 
L 318.390799 309.516501 
L 321.533139 292.543773 
L 324.67548 313.741779 
L 327.81782 315.460536 
L 330.960161 313.02563 
L 334.102502 315.388921 
L 337.244842 312.524326 
L 340.387183 320.258733 
L 343.529523 314.028239 
L 346.671864 322.335565 
L 349.814205 321.261342 
L 352.956545 315.96184 
L 356.098886 298.344579 
L 359.241227 320.831653 
L 362.383567 312.309481 
L 365.525908 316.319915 
L 368.668248 316.176685 
L 371.810589 308.871967 
L 374.95293 309.874575 
L 378.09527 308.370663 
L 381.237611 309.230041 
L 384.379951 308.012588 
L 387.522292 284.952596 
L 390.664633 309.230041 
L 393.806973 303.286006 
L 396.949314 303.500851 
L 403.233995 314.887617 
L 406.376336 308.800352 
L 409.518676 297.986505 
L 412.661017 309.444886 
L 415.803358 313.956624 
L 418.945698 316.677989 
L 422.088039 311.235258 
L 425.230379 317.895442 
L 428.37272 313.598549 
L 431.515061 308.657122 
L 434.657401 319.256125 
L 437.799742 321.404572 
L 440.942083 318.110287 
L 444.084423 316.821219 
L 447.226764 322.26395 
L 450.369104 321.404572 
L 453.511445 315.890226 
L 456.653786 311.235258 
L 459.796126 322.335565 
L 462.938467 319.04128 
L 466.080807 322.335565 
L 469.223148 318.325132 
L 472.365489 308.442278 
L 475.507829 318.969666 
L 478.65017 322.335565 
L 481.792511 313.885009 
L 484.934851 316.463145 
L 488.077192 319.972274 
L 491.219532 322.335565 
L 494.361873 318.110287 
L 497.504214 312.954015 
L 500.646554 322.049106 
L 503.788895 320.043889 
L 506.931235 322.335565 
L 510.073576 321.118112 
L 513.215917 321.619416 
L 516.358257 318.683206 
L 519.500598 315.174077 
L 522.642939 321.118112 
L 525.785279 316.606374 
L 528.92762 316.463145 
L 532.06996 318.611591 
L 535.212301 318.396747 
L 538.354642 312.237867 
L 541.496982 320.545193 
L 544.639323 320.974882 
L 547.781664 320.974882 
L 550.924004 316.10507 
L 554.066345 318.468361 
L 557.208685 316.677989 
L 560.351026 313.813394 
L 563.493367 316.39153 
L 566.635707 321.619416 
L 569.778048 316.892834 
L 572.920388 322.335565 
L 576.062729 318.253517 
L 579.20507 321.905876 
L 582.34741 318.396747 
L 585.489751 321.691031 
L 588.632092 318.611591 
L 591.774432 317.322523 
L 594.916773 321.691031 
L 598.059113 319.900659 
L 601.201454 313.813394 
L 604.343795 315.030847 
L 607.486135 315.818611 
L 610.628476 316.821219 
L 613.770816 321.189727 
L 616.913157 314.028239 
L 620.055498 319.256125 
L 623.197838 318.683206 
L 626.340179 318.468361 
L 629.48252 318.826436 
L 632.62486 321.905876 
L 635.767201 318.683206 
L 638.909541 301.853708 
L 642.051882 316.033455 
L 645.194223 317.179293 
L 648.336563 315.245692 
L 651.478904 322.192335 
L 654.621244 320.831653 
L 657.763585 320.760038 
L 660.905926 316.749604 
L 664.048266 321.261342 
L 667.190607 318.826436 
L 670.332948 316.749604 
L 673.475288 322.192335 
L 676.617629 315.245692 
L 679.759969 310.304265 
L 679.759969 310.304265 
" clip-path="url(#p776f37fb60)" style="fill: none; stroke: #0000ff; stroke-width: 3; stroke-linecap: square"/>
   </g>
   <g id="line2d_16">
    <path d="M 158.131427 102.764331 
L 161.273768 81.279866 
L 164.416108 116.657619 
L 170.70079 141.078294 
L 173.84313 154.255433 
L 176.985471 157.120028 
L 180.127811 177.458655 
L 183.270152 184.834988 
L 186.412493 174.092756 
L 189.554833 182.471697 
L 192.697174 196.29337 
L 195.839515 234.249258 
L 198.981855 232.244041 
L 202.124196 230.740129 
L 205.266536 223.363796 
L 208.408877 232.888575 
L 211.551218 241.124287 
L 214.693558 246.352173 
L 217.835899 250.577452 
L 220.978239 259.314467 
L 224.12058 259.600927 
L 227.262921 250.219377 
L 230.405261 188.487347 
L 233.547602 225.225783 
L 236.689943 199.014735 
L 239.832283 246.710248 
L 242.974624 261.391299 
L 246.116964 263.468131 
L 249.259305 248.858694 
L 252.401646 241.124287 
L 255.543986 232.100812 
L 258.686327 249.718073 
L 261.828667 220.069511 
L 264.971008 225.369012 
L 268.113349 266.6908 
L 271.255689 266.619186 
L 274.39803 270.128315 
L 277.540371 278.005952 
L 280.682711 269.268936 
L 283.825052 241.912051 
L 286.967392 249.073539 
L 290.109733 276.573654 
L 293.252074 268.839247 
L 296.394414 265.473347 
L 299.536755 267.908253 
L 302.679095 251.72329 
L 305.821436 271.703842 
L 308.963777 260.460306 
L 312.106117 267.979868 
L 315.248458 267.693409 
L 318.390799 271.560613 
L 321.533139 261.677759 
L 324.67548 249.574843 
L 327.81782 232.602116 
L 330.960161 255.733723 
L 334.102502 258.526704 
L 337.244842 278.292412 
L 340.387183 268.910862 
L 343.529523 284.236447 
L 346.671864 246.280559 
L 349.814205 278.936946 
L 352.956545 294.907065 
L 356.098886 271.560613 
L 359.241227 268.624402 
L 362.383567 267.908253 
L 365.525908 282.804149 
L 368.668248 257.88217 
L 371.810589 259.600927 
L 374.95293 252.009749 
L 378.09527 266.97726 
L 381.237611 265.974652 
L 384.379951 267.693409 
L 387.522292 272.061917 
L 390.664633 264.972043 
L 393.806973 261.319684 
L 396.949314 258.383474 
L 400.091655 267.12049 
L 403.233995 277.504648 
L 406.376336 278.220797 
L 409.518676 269.985085 
L 412.661017 272.778066 
L 415.803358 266.97726 
L 418.945698 248.715465 
L 422.088039 289.894023 
L 425.230379 260.603535 
L 428.37272 242.05528 
L 431.515061 258.956393 
L 434.657401 262.035833 
L 437.799742 257.953785 
L 440.942083 260.460306 
L 444.084423 271.130923 
L 447.226764 289.607563 
L 450.369104 288.032036 
L 453.511445 278.865331 
L 456.653786 281.228622 
L 459.796126 263.969435 
L 462.938467 283.305453 
L 466.080807 284.093217 
L 469.223148 299.776877 
L 472.365489 293.832841 
L 475.507829 284.451292 
L 478.65017 292.615388 
L 481.792511 284.952596 
L 484.934851 288.103651 
L 488.077192 294.620605 
L 491.219532 298.989113 
L 494.361873 288.318495 
L 497.504214 280.870547 
L 500.646554 292.472159 
L 503.788895 291.111476 
L 506.931235 278.077567 
L 510.073576 285.59713 
L 513.215917 302.641472 
L 516.358257 286.098434 
L 519.500598 281.157007 
L 522.642939 277.074959 
L 525.785279 286.671353 
L 528.92762 286.528123 
L 532.06996 278.507256 
L 535.212301 297.341971 
L 538.354642 267.621794 
L 541.496982 283.162224 
L 544.639323 288.53334 
L 547.781664 281.013777 
L 550.924004 284.594521 
L 554.066345 298.559424 
L 557.208685 258.526704 
L 560.351026 283.233839 
L 563.493367 296.339362 
L 566.635707 306.795135 
L 569.778048 298.631039 
L 572.920388 293.045078 
L 576.062729 299.848492 
L 579.20507 286.098434 
L 582.34741 300.493026 
L 585.489751 288.24688 
L 588.632092 287.673961 
L 591.774432 288.461725 
L 594.916773 295.193524 
L 598.059113 297.341971 
L 601.201454 293.617997 
L 604.343795 296.267747 
L 607.486135 269.125706 
L 610.628476 288.39011 
L 613.770816 286.241664 
L 616.913157 287.029427 
L 620.055498 279.581479 
L 623.197838 293.259922 
L 626.340179 296.983896 
L 629.48252 285.668745 
L 632.62486 275.427816 
L 635.767201 298.559424 
L 638.909541 282.23123 
L 642.051882 281.873156 
L 645.194223 292.328929 
L 648.336563 294.40576 
L 651.478904 282.804149 
L 654.621244 277.719493 
L 657.763585 300.8511 
L 660.905926 300.349796 
L 664.048266 305.434453 
L 667.190607 285.024211 
L 670.332948 303.071161 
L 673.475288 292.400544 
L 676.617629 294.334146 
L 679.759969 294.763835 
L 679.759969 294.763835 
" clip-path="url(#p776f37fb60)" style="fill: none; stroke: #008000; stroke-width: 3; stroke-linecap: square"/>
   </g>
   <g id="line2d_17">
    <path d="M 158.131427 41.103916 
L 161.273768 39.528389 
L 164.416108 44.254971 
L 167.558449 48.695094 
L 170.70079 40.889072 
L 173.84313 61.872233 
L 176.985471 40.244538 
L 180.127811 38.95547 
L 183.270152 44.111742 
L 186.412493 50.055777 
L 189.554833 45.472424 
L 192.697174 64.808443 
L 195.839515 46.976337 
L 198.981855 81.709556 
L 202.124196 76.05198 
L 205.266536 68.675647 
L 208.408877 84.574151 
L 211.551218 91.878869 
L 214.693558 79.346264 
L 217.835899 97.17837 
L 220.978239 91.520795 
L 224.12058 102.764331 
L 227.262921 118.018302 
L 230.405261 108.350292 
L 233.547602 117.660227 
L 236.689943 116.657619 
L 239.832283 114.294328 
L 242.974624 99.613277 
L 249.259305 133.272272 
L 252.401646 160.271083 
L 255.543986 116.156315 
L 258.686327 127.686311 
L 261.828667 131.62513 
L 264.971008 129.619913 
L 268.113349 156.11742 
L 271.255689 154.470278 
L 274.39803 165.49897 
L 277.540371 148.812702 
L 280.682711 151.319223 
L 283.825052 140.72022 
L 286.967392 159.483319 
L 290.109733 158.838785 
L 293.252074 173.949526 
L 296.394414 144.300964 
L 299.536755 151.677297 
L 302.679095 177.81673 
L 305.821436 165.49897 
L 308.963777 164.281517 
L 312.106117 164.854436 
L 315.248458 156.11742 
L 318.390799 167.146112 
L 321.533139 179.392257 
L 324.67548 158.838785 
L 327.81782 165.06928 
L 330.960161 195.505606 
L 334.102502 171.944309 
L 337.244842 190.492564 
L 340.387183 197.367593 
L 343.529523 194.574612 
L 346.671864 193.858464 
L 349.814205 176.312817 
L 352.956545 188.702192 
L 356.098886 199.37281 
L 359.241227 189.99126 
L 362.383567 191.853247 
L 365.525908 171.37139 
L 368.668248 208.253055 
L 371.810589 177.888345 
L 374.95293 211.26088 
L 378.09527 208.109825 
L 381.237611 197.009518 
L 384.379951 196.579829 
L 387.522292 206.749143 
L 390.664633 196.078525 
L 393.806973 198.226972 
L 396.949314 206.605913 
L 400.091655 185.049833 
L 403.233995 221.645039 
L 409.518676 184.262069 
L 412.661017 205.53169 
L 415.803358 202.523865 
L 418.945698 195.648836 
L 422.088039 185.909211 
L 425.230379 193.0707 
L 428.37272 215.128084 
L 431.515061 194.646227 
L 434.657401 201.091567 
L 437.799742 182.543312 
L 440.942083 198.513431 
L 444.084423 211.117651 
L 447.226764 208.754359 
L 450.369104 186.195671 
L 453.511445 200.733492 
L 456.653786 194.359768 
L 459.796126 208.682745 
L 462.938467 200.017344 
L 466.080807 208.682745 
L 469.223148 185.765982 
L 472.365489 198.441816 
L 475.507829 196.508214 
L 478.65017 201.306412 
L 481.792511 187.269894 
L 484.934851 196.723059 
L 488.077192 194.646227 
L 491.219532 183.760765 
L 494.361873 199.157965 
L 497.504214 192.999085 
L 500.646554 203.168398 
L 503.788895 191.566787 
L 506.931235 204.958771 
L 510.073576 198.728276 
L 513.215917 164.926051 
L 516.358257 201.378026 
L 519.500598 202.881939 
L 522.642939 210.473117 
L 525.785279 219.783052 
L 528.92762 210.902806 
L 532.06996 206.104609 
L 535.212301 216.345537 
L 538.354642 207.823366 
L 541.496982 238.760996 
L 544.639323 204.385852 
L 547.781664 200.232188 
L 550.924004 196.436599 
L 554.066345 227.803919 
L 557.208685 215.915848 
L 560.351026 198.94312 
L 563.493367 204.887156 
L 566.635707 223.363796 
L 569.778048 224.867708 
L 572.920388 217.634605 
L 576.062729 221.573424 
L 579.20507 209.613738 
L 582.34741 224.939323 
L 585.489751 214.125476 
L 588.632092 237.615158 
L 591.774432 239.978449 
L 594.916773 222.003113 
L 598.059113 231.169818 
L 601.201454 206.462683 
L 604.343795 223.435411 
L 607.486135 221.716653 
L 610.628476 229.88075 
L 613.770816 233.10342 
L 616.913157 230.883359 
L 620.055498 218.350754 
L 623.197838 235.538326 
L 626.340179 238.832611 
L 629.48252 239.978449 
L 632.62486 236.827394 
L 635.767201 211.618955 
L 638.909541 245.707639 
L 642.051882 218.350754 
L 645.194223 239.620374 
L 648.336563 259.314467 
L 654.621244 222.003113 
L 657.763585 229.809135 
L 660.905926 250.649066 
L 664.048266 230.525284 
L 667.190607 264.685584 
L 670.332948 253.800121 
L 673.475288 237.042239 
L 676.617629 241.267517 
L 679.759969 245.707639 
L 679.759969 245.707639 
" clip-path="url(#p776f37fb60)" style="fill: none; stroke: #ff0000; stroke-width: 3; stroke-linecap: square"/>
   </g>
   <g id="line2d_18">
    <path d="M 158.131427 77.341048 
L 161.273768 96.318992 
L 164.416108 118.447991 
L 167.558449 130.550906 
L 170.70079 120.166748 
L 173.84313 176.814121 
L 176.985471 215.557773 
L 180.127811 224.867708 
L 183.270152 210.687961 
L 186.412493 213.552557 
L 189.554833 238.474536 
L 192.697174 210.473117 
L 195.839515 241.840436 
L 198.981855 246.781863 
L 202.124196 245.42118 
L 205.266536 240.909442 
L 208.408877 260.460306 
L 211.551218 245.994099 
L 214.693558 273.565829 
L 217.835899 273.422599 
L 220.978239 245.850869 
L 227.262921 262.823597 
L 230.405261 277.289803 
L 233.547602 263.396516 
L 236.689943 276.430425 
L 242.974624 268.910862 
L 246.116964 264.685584 
L 249.259305 228.734912 
L 252.401646 259.171238 
L 255.543986 247.498012 
L 258.686327 269.412166 
L 261.828667 254.731115 
L 264.971008 251.72329 
L 268.113349 256.235027 
L 271.255689 261.319684 
L 274.39803 240.694598 
L 277.540371 268.624402 
L 280.682711 271.274153 
L 283.825052 275.642661 
L 286.967392 245.13472 
L 290.109733 258.741548 
L 293.252074 287.029427 
L 296.394414 276.430425 
L 299.536755 275.571046 
L 302.679095 283.090609 
L 305.821436 286.456508 
L 308.963777 278.077567 
L 312.106117 253.442047 
L 315.248458 272.563221 
L 318.390799 281.300237 
L 321.533139 277.146573 
L 324.67548 279.00856 
L 327.81782 266.189496 
L 330.960161 267.478564 
L 334.102502 272.634836 
L 337.244842 271.345768 
L 340.387183 280.011169 
L 343.529523 282.66092 
L 346.671864 271.703842 
L 349.814205 278.578871 
L 352.956545 279.509865 
L 356.098886 292.758618 
L 359.241227 285.382285 
L 362.383567 288.891414 
L 365.525908 295.479984 
L 368.668248 284.737751 
L 371.810589 277.862722 
L 374.95293 276.716884 
L 378.09527 269.268936 
L 381.237611 283.233839 
L 384.379951 270.19993 
L 387.522292 286.241664 
L 390.664633 282.23123 
L 393.806973 295.336754 
L 396.949314 288.604955 
L 400.091655 287.602346 
L 403.233995 281.515081 
L 406.376336 279.796324 
L 409.518676 285.239055 
L 412.661017 275.92912 
L 415.803358 259.672542 
L 418.945698 262.823597 
L 422.088039 264.04105 
L 425.230379 276.860114 
L 428.37272 281.944771 
L 431.515061 272.276761 
L 434.657401 281.801541 
L 437.799742 265.903037 
L 440.942083 281.013777 
L 444.084423 271.560613 
L 447.226764 282.37446 
L 450.369104 284.666136 
L 453.511445 279.080175 
L 456.653786 289.464333 
L 459.796126 293.259922 
L 462.938467 286.384893 
L 466.080807 286.742968 
L 469.223148 283.806758 
L 472.365489 280.655703 
L 475.507829 279.939554 
L 478.65017 292.543773 
L 481.792511 289.177874 
L 484.934851 287.101042 
L 488.077192 300.70787 
L 491.219532 291.46955 
L 494.361873 294.97868 
L 497.504214 295.909673 
L 500.646554 277.146573 
L 503.788895 287.315887 
L 506.931235 286.170049 
L 510.073576 283.520298 
L 513.215917 296.554207 
L 516.358257 296.124518 
L 519.500598 298.845883 
L 522.642939 292.114084 
L 525.785279 288.748185 
L 528.92762 288.604955 
L 532.06996 295.766443 
L 535.212301 289.321104 
L 538.354642 291.183091 
L 541.496982 286.742968 
L 544.639323 293.832841 
L 547.781664 287.602346 
L 550.924004 289.535948 
L 554.066345 290.108867 
L 557.208685 287.745576 
L 560.351026 286.313279 
L 563.493367 284.236447 
L 566.635707 296.554207 
L 569.778048 286.742968 
L 572.920388 284.308062 
L 576.062729 279.00856 
L 579.20507 276.716884 
L 582.34741 280.727318 
L 585.489751 280.082784 
L 588.632092 274.496823 
L 591.774432 274.568438 
L 594.916773 290.610172 
L 598.059113 266.6908 
L 601.201454 284.809366 
L 604.343795 281.157007 
L 607.486135 284.952596 
L 610.628476 277.647878 
L 613.770816 282.37446 
L 616.913157 271.847072 
L 620.055498 281.013777 
L 623.197838 287.387502 
L 626.340179 283.233839 
L 629.48252 278.650486 
L 632.62486 282.51769 
L 635.767201 289.464333 
L 638.909541 284.308062 
L 642.051882 282.016386 
L 645.194223 277.218188 
L 648.336563 282.947379 
L 651.478904 289.106259 
L 654.621244 281.873156 
L 657.763585 282.589305 
L 660.905926 299.920106 
L 664.048266 286.026819 
L 667.190607 283.591913 
L 670.332948 274.711667 
L 673.475288 284.093217 
L 676.617629 274.210363 
L 679.759969 288.032036 
L 679.759969 288.032036 
" clip-path="url(#p776f37fb60)" style="fill: none; stroke: #ffa500; stroke-width: 3; stroke-linecap: square"/>
   </g>
   <g id="patch_3">
    <path d="M 132.05 343.96 
L 132.05 13.173177 
" style="fill: none; stroke: #000000; stroke-width: 0.8; stroke-linejoin: miter; stroke-linecap: square"/>
   </g>
   <g id="patch_4">
    <path d="M 705.841396 343.96 
L 705.841396 13.173177 
" style="fill: none; stroke: #000000; stroke-width: 0.8; stroke-linejoin: miter; stroke-linecap: square"/>
   </g>
   <g id="patch_5">
    <path d="M 132.05 343.96 
L 705.841396 343.96 
" style="fill: none; stroke: #000000; stroke-width: 0.8; stroke-linejoin: miter; stroke-linecap: square"/>
   </g>
   <g id="patch_6">
    <path d="M 132.05 13.173177 
L 705.841396 13.173177 
" style="fill: none; stroke: #000000; stroke-width: 0.8; stroke-linejoin: miter; stroke-linecap: square"/>
   </g>
  </g>
 </g>
 <defs>
  <clipPath id="p776f37fb60">
   <rect x="132.05" y="13.173177" width="573.791396" height="330.786823"/>
  </clipPath>
 </defs>
</svg>
