<?xml version="1.0" encoding="utf-8" standalone="no"?>
<!DOCTYPE svg PUBLIC "-//W3C//DTD SVG 1.1//EN"
  "http://www.w3.org/Graphics/SVG/1.1/DTD/svg11.dtd">
<svg xmlns:xlink="http://www.w3.org/1999/xlink" width="864pt" height="432pt" viewBox="0 0 864 432" xmlns="http://www.w3.org/2000/svg" version="1.1">
 <metadata>
  <rdf:RDF xmlns:dc="http://purl.org/dc/elements/1.1/" xmlns:cc="http://creativecommons.org/ns#" xmlns:rdf="http://www.w3.org/1999/02/22-rdf-syntax-ns#">
   <cc:Work>
    <dc:type rdf:resource="http://purl.org/dc/dcmitype/StillImage"/>
    <dc:date>2025-06-20T06:42:33.469169</dc:date>
    <dc:format>image/svg+xml</dc:format>
    <dc:creator>
     <cc:Agent>
      <dc:title>Matplotlib v3.7.1, https://matplotlib.org/</dc:title>
     </cc:Agent>
    </dc:creator>
   </cc:Work>
  </rdf:RDF>
 </metadata>
 <defs>
  <style type="text/css">*{stroke-linejoin: round; stroke-linecap: butt}</style>
 </defs>
 <g id="figure_1">
  <g id="patch_1">
   <path d="M 0 432 
L 864 432 
L 864 0 
L 0 0 
z
" style="fill: #ffffff"/>
  </g>
  <g id="axes_1">
   <g id="patch_2">
    <path d="M 110 354.76 
L 835.093351 354.76 
L 835.093351 10.8 
L 110 10.8 
z
" style="fill: #ffffff"/>
   </g>
   <g id="PolyCollection_1">
    <defs>
     <path id="m30e39072c3" d="M 142.958789 -132.576089 
L 142.958789 -132.576089 
L 145.255568 -132.576089 
L 147.552348 -132.576089 
L 149.849128 -132.576089 
L 152.145907 -132.576089 
L 154.442687 -132.576089 
L 156.739467 -132.576089 
L 159.036247 -132.576089 
L 161.333026 -132.576089 
L 163.629806 -132.576089 
L 165.926586 -132.576089 
L 168.223365 -132.576089 
L 170.520145 -132.576089 
L 172.816925 -132.576089 
L 175.113704 -132.576089 
L 177.410484 -132.576089 
L 179.707264 -132.576089 
L 182.004044 -132.576089 
L 184.300823 -132.576089 
L 186.597603 -132.576089 
L 188.894383 -132.576089 
L 191.191162 -132.576089 
L 193.487942 -132.576089 
L 195.784722 -132.576089 
L 198.081501 -132.576089 
L 200.378281 -132.576089 
L 202.675061 -132.576089 
L 204.971841 -132.576089 
L 207.26862 -132.576089 
L 209.5654 -132.576089 
L 211.86218 -132.576089 
L 214.158959 -132.576089 
L 216.455739 -132.576089 
L 218.752519 -132.576089 
L 221.049298 -132.576089 
L 223.346078 -132.576089 
L 225.642858 -132.576089 
L 227.939638 -132.576089 
L 230.236417 -132.576089 
L 232.533197 -132.576089 
L 234.829977 -132.576089 
L 237.126756 -132.576089 
L 239.423536 -132.576089 
L 241.720316 -132.576089 
L 244.017095 -132.576089 
L 246.313875 -132.576089 
L 248.610655 -132.576089 
L 250.907435 -132.576089 
L 253.204214 -132.576089 
L 255.500994 -132.576089 
L 257.797774 -132.576089 
L 260.094553 -132.576089 
L 262.391333 -132.576089 
L 264.688113 -132.576089 
L 266.984892 -132.576089 
L 269.281672 -132.576089 
L 271.578452 -132.576089 
L 273.875232 -132.576089 
L 276.172011 -132.576089 
L 278.468791 -132.576089 
L 280.765571 -132.576089 
L 283.06235 -132.576089 
L 285.35913 -132.576089 
L 287.65591 -132.576089 
L 289.952689 -132.576089 
L 292.249469 -132.576089 
L 294.546249 -132.576089 
L 296.843029 -132.576089 
L 299.139808 -132.576089 
L 301.436588 -132.576089 
L 303.733368 -132.576089 
L 306.030147 -132.576089 
L 308.326927 -132.576089 
L 310.623707 -132.576089 
L 312.920486 -132.576089 
L 315.217266 -132.576089 
L 317.514046 -132.576089 
L 319.810826 -132.576089 
L 322.107605 -132.576089 
L 324.404385 -132.576089 
L 326.701165 -132.576089 
L 328.997944 -132.576089 
L 331.294724 -132.576089 
L 333.591504 -132.576089 
L 335.888283 -132.576089 
L 338.185063 -132.576089 
L 340.481843 -132.576089 
L 342.778623 -132.576089 
L 345.075402 -132.576089 
L 347.372182 -132.576089 
L 349.668962 -132.576089 
L 351.965741 -132.576089 
L 354.262521 -132.576089 
L 356.559301 -132.576089 
L 358.85608 -132.576089 
L 361.15286 -132.576089 
L 363.44964 -132.576089 
L 365.74642 -132.576089 
L 368.043199 -132.576089 
L 370.339979 -132.576089 
L 372.636759 -132.576089 
L 374.933538 -132.576089 
L 377.230318 -132.576089 
L 379.527098 -132.576089 
L 381.823877 -132.576089 
L 384.120657 -132.576089 
L 386.417437 -132.576089 
L 388.714217 -132.576089 
L 391.010996 -132.576089 
L 393.307776 -132.576089 
L 395.604556 -132.576089 
L 397.901335 -132.576089 
L 400.198115 -132.576089 
L 402.494895 -132.576089 
L 404.791674 -132.576089 
L 407.088454 -132.576089 
L 409.385234 -132.576089 
L 411.682014 -132.576089 
L 413.978793 -132.576089 
L 416.275573 -132.576089 
L 418.572353 -132.576089 
L 420.869132 -132.576089 
L 423.165912 -132.576089 
L 425.462692 -132.576089 
L 427.759471 -132.576089 
L 430.056251 -132.576089 
L 432.353031 -132.576089 
L 434.649811 -132.576089 
L 436.94659 -132.576089 
L 439.24337 -132.576089 
L 441.54015 -132.576089 
L 443.836929 -132.576089 
L 446.133709 -132.576089 
L 448.430489 -132.576089 
L 450.727268 -132.576089 
L 453.024048 -132.576089 
L 455.320828 -132.576089 
L 457.617608 -132.576089 
L 459.914387 -132.576089 
L 462.211167 -132.576089 
L 464.507947 -132.576089 
L 466.804726 -132.576089 
L 469.101506 -132.576089 
L 471.398286 -132.576089 
L 473.695065 -132.576089 
L 475.991845 -132.576089 
L 478.288625 -132.576089 
L 480.585405 -132.576089 
L 482.882184 -132.576089 
L 485.178964 -132.576089 
L 487.475744 -132.576089 
L 489.772523 -132.576089 
L 492.069303 -132.576089 
L 494.366083 -132.576089 
L 496.662862 -132.576089 
L 498.959642 -132.576089 
L 501.256422 -132.576089 
L 503.553202 -132.576089 
L 505.849981 -132.576089 
L 508.146761 -132.576089 
L 510.443541 -132.576089 
L 512.74032 -132.576089 
L 515.0371 -132.576089 
L 517.33388 -132.576089 
L 519.630659 -132.576089 
L 521.927439 -132.576089 
L 524.224219 -132.576089 
L 526.520999 -132.576089 
L 528.817778 -132.576089 
L 531.114558 -132.576089 
L 533.411338 -132.576089 
L 535.708117 -132.576089 
L 538.004897 -132.576089 
L 540.301677 -132.576089 
L 542.598456 -132.576089 
L 544.895236 -132.499686 
L 547.192016 -132.423283 
L 549.488796 -132.34688 
L 551.785575 -132.270477 
L 554.082355 -132.194073 
L 556.379135 -132.11767 
L 558.675914 -132.11767 
L 560.972694 -132.041267 
L 563.269474 -131.964864 
L 565.566253 -131.964864 
L 567.863033 -131.964864 
L 570.159813 -131.964864 
L 572.456593 -131.964864 
L 574.753372 -131.964864 
L 577.050152 -131.964864 
L 579.346932 -131.964864 
L 581.643711 -131.964864 
L 583.940491 -131.964864 
L 586.237271 -131.964864 
L 588.53405 -131.964864 
L 590.83083 -131.964864 
L 593.12761 -131.964864 
L 595.42439 -131.964864 
L 597.721169 -131.964864 
L 600.017949 -131.964864 
L 602.314729 -131.964864 
L 604.611508 -131.964864 
L 606.908288 -131.964864 
L 609.205068 -131.964864 
L 611.501847 -131.964864 
L 613.798627 -131.964864 
L 616.095407 -131.964864 
L 618.392187 -131.964864 
L 620.688966 -131.964864 
L 622.985746 -131.964864 
L 625.282526 -131.964864 
L 627.579305 -131.964864 
L 629.876085 -131.964864 
L 632.172865 -131.964864 
L 634.469644 -131.964864 
L 636.766424 -131.964864 
L 639.063204 -131.964864 
L 641.359984 -131.964864 
L 643.656763 -131.964864 
L 645.953543 -131.964864 
L 648.250323 -131.964864 
L 650.547102 -131.964864 
L 652.843882 -131.964864 
L 655.140662 -131.964864 
L 657.437441 -131.964864 
L 659.734221 -131.964864 
L 662.031001 -131.964864 
L 664.327781 -131.964864 
L 666.62456 -131.964864 
L 668.92134 -131.964864 
L 671.21812 -131.964864 
L 673.514899 -131.964864 
L 675.811679 -131.964864 
L 678.108459 -131.964864 
L 680.405238 -131.964864 
L 682.702018 -131.964864 
L 684.998798 -131.964864 
L 687.295578 -131.964864 
L 689.592357 -131.964864 
L 691.889137 -131.964864 
L 694.185917 -131.964864 
L 696.482696 -131.964864 
L 698.779476 -131.964864 
L 701.076256 -131.964864 
L 703.373035 -131.964864 
L 705.669815 -131.964864 
L 707.966595 -131.964864 
L 710.263375 -131.964864 
L 712.560154 -131.964864 
L 714.856934 -131.964864 
L 717.153714 -131.964864 
L 719.450493 -131.964864 
L 721.747273 -131.964864 
L 724.044053 -131.888461 
L 726.340832 -131.888461 
L 728.637612 -131.888461 
L 730.934392 -131.888461 
L 733.231172 -131.812057 
L 735.527951 -131.812057 
L 737.824731 -131.812057 
L 740.121511 -131.812057 
L 742.41829 -131.812057 
L 744.71507 -131.812057 
L 747.01185 -131.812057 
L 749.308629 -131.812057 
L 751.605409 -131.735654 
L 753.902189 -131.659251 
L 756.198969 -131.582848 
L 758.495748 -131.506445 
L 760.792528 -131.430041 
L 763.089308 -131.430041 
L 765.386087 -131.430041 
L 767.682867 -131.430041 
L 769.979647 -131.430041 
L 772.276426 -131.430041 
L 774.573206 -131.430041 
L 776.869986 -131.430041 
L 779.166766 -131.430041 
L 781.463545 -131.430041 
L 783.760325 -131.430041 
L 786.057105 -131.430041 
L 788.353884 -131.430041 
L 790.650664 -131.430041 
L 792.947444 -131.430041 
L 795.244223 -131.430041 
L 797.541003 -131.430041 
L 799.837783 -131.430041 
L 802.134563 -131.430041 
L 802.134563 -139.255746 
L 802.134563 -139.255746 
L 799.837783 -139.255746 
L 797.541003 -139.255746 
L 795.244223 -139.255746 
L 792.947444 -139.255746 
L 790.650664 -139.255746 
L 788.353884 -139.255746 
L 786.057105 -139.255746 
L 783.760325 -139.255746 
L 781.463545 -139.255746 
L 779.166766 -139.255746 
L 776.869986 -139.255746 
L 774.573206 -139.255746 
L 772.276426 -139.255746 
L 769.979647 -139.255746 
L 767.682867 -139.255746 
L 765.386087 -139.255746 
L 763.089308 -139.255746 
L 760.792528 -139.255746 
L 758.495748 -138.810436 
L 756.198969 -138.365125 
L 753.902189 -137.919815 
L 751.605409 -137.474504 
L 749.308629 -137.029194 
L 747.01185 -137.029194 
L 744.71507 -137.029194 
L 742.41829 -137.029194 
L 740.121511 -137.029194 
L 737.824731 -137.029194 
L 735.527951 -137.029194 
L 733.231172 -137.029194 
L 730.934392 -136.583883 
L 728.637612 -136.583883 
L 726.340832 -136.583883 
L 724.044053 -136.583883 
L 721.747273 -136.138573 
L 719.450493 -136.138573 
L 717.153714 -136.138573 
L 714.856934 -136.138573 
L 712.560154 -136.138573 
L 710.263375 -136.138573 
L 707.966595 -136.138573 
L 705.669815 -136.138573 
L 703.373035 -136.138573 
L 701.076256 -136.138573 
L 698.779476 -136.138573 
L 696.482696 -136.138573 
L 694.185917 -136.138573 
L 691.889137 -136.138573 
L 689.592357 -136.138573 
L 687.295578 -136.138573 
L 684.998798 -136.138573 
L 682.702018 -136.138573 
L 680.405238 -136.138573 
L 678.108459 -136.138573 
L 675.811679 -136.138573 
L 673.514899 -136.138573 
L 671.21812 -136.138573 
L 668.92134 -136.138573 
L 666.62456 -136.138573 
L 664.327781 -136.138573 
L 662.031001 -136.138573 
L 659.734221 -136.138573 
L 657.437441 -136.138573 
L 655.140662 -136.138573 
L 652.843882 -136.138573 
L 650.547102 -136.138573 
L 648.250323 -136.138573 
L 645.953543 -136.138573 
L 643.656763 -136.138573 
L 641.359984 -136.138573 
L 639.063204 -136.138573 
L 636.766424 -136.138573 
L 634.469644 -136.138573 
L 632.172865 -136.138573 
L 629.876085 -136.138573 
L 627.579305 -136.138573 
L 625.282526 -136.138573 
L 622.985746 -136.138573 
L 620.688966 -136.138573 
L 618.392187 -136.138573 
L 616.095407 -136.138573 
L 613.798627 -136.138573 
L 611.501847 -136.138573 
L 609.205068 -136.138573 
L 606.908288 -136.138573 
L 604.611508 -136.138573 
L 602.314729 -136.138573 
L 600.017949 -136.138573 
L 597.721169 -136.138573 
L 595.42439 -136.138573 
L 593.12761 -136.138573 
L 590.83083 -136.138573 
L 588.53405 -136.138573 
L 586.237271 -136.138573 
L 583.940491 -136.138573 
L 581.643711 -136.138573 
L 579.346932 -136.138573 
L 577.050152 -136.138573 
L 574.753372 -136.138573 
L 572.456593 -136.138573 
L 570.159813 -136.138573 
L 567.863033 -136.138573 
L 565.566253 -136.138573 
L 563.269474 -136.138573 
L 560.972694 -135.693263 
L 558.675914 -135.247952 
L 556.379135 -135.247952 
L 554.082355 -134.802642 
L 551.785575 -134.357331 
L 549.488796 -133.912021 
L 547.192016 -133.46671 
L 544.895236 -133.0214 
L 542.598456 -132.576089 
L 540.301677 -132.576089 
L 538.004897 -132.576089 
L 535.708117 -132.576089 
L 533.411338 -132.576089 
L 531.114558 -132.576089 
L 528.817778 -132.576089 
L 526.520999 -132.576089 
L 524.224219 -132.576089 
L 521.927439 -132.576089 
L 519.630659 -132.576089 
L 517.33388 -132.576089 
L 515.0371 -132.576089 
L 512.74032 -132.576089 
L 510.443541 -132.576089 
L 508.146761 -132.576089 
L 505.849981 -132.576089 
L 503.553202 -132.576089 
L 501.256422 -132.576089 
L 498.959642 -132.576089 
L 496.662862 -132.576089 
L 494.366083 -132.576089 
L 492.069303 -132.576089 
L 489.772523 -132.576089 
L 487.475744 -132.576089 
L 485.178964 -132.576089 
L 482.882184 -132.576089 
L 480.585405 -132.576089 
L 478.288625 -132.576089 
L 475.991845 -132.576089 
L 473.695065 -132.576089 
L 471.398286 -132.576089 
L 469.101506 -132.576089 
L 466.804726 -132.576089 
L 464.507947 -132.576089 
L 462.211167 -132.576089 
L 459.914387 -132.576089 
L 457.617608 -132.576089 
L 455.320828 -132.576089 
L 453.024048 -132.576089 
L 450.727268 -132.576089 
L 448.430489 -132.576089 
L 446.133709 -132.576089 
L 443.836929 -132.576089 
L 441.54015 -132.576089 
L 439.24337 -132.576089 
L 436.94659 -132.576089 
L 434.649811 -132.576089 
L 432.353031 -132.576089 
L 430.056251 -132.576089 
L 427.759471 -132.576089 
L 425.462692 -132.576089 
L 423.165912 -132.576089 
L 420.869132 -132.576089 
L 418.572353 -132.576089 
L 416.275573 -132.576089 
L 413.978793 -132.576089 
L 411.682014 -132.576089 
L 409.385234 -132.576089 
L 407.088454 -132.576089 
L 404.791674 -132.576089 
L 402.494895 -132.576089 
L 400.198115 -132.576089 
L 397.901335 -132.576089 
L 395.604556 -132.576089 
L 393.307776 -132.576089 
L 391.010996 -132.576089 
L 388.714217 -132.576089 
L 386.417437 -132.576089 
L 384.120657 -132.576089 
L 381.823877 -132.576089 
L 379.527098 -132.576089 
L 377.230318 -132.576089 
L 374.933538 -132.576089 
L 372.636759 -132.576089 
L 370.339979 -132.576089 
L 368.043199 -132.576089 
L 365.74642 -132.576089 
L 363.44964 -132.576089 
L 361.15286 -132.576089 
L 358.85608 -132.576089 
L 356.559301 -132.576089 
L 354.262521 -132.576089 
L 351.965741 -132.576089 
L 349.668962 -132.576089 
L 347.372182 -132.576089 
L 345.075402 -132.576089 
L 342.778623 -132.576089 
L 340.481843 -132.576089 
L 338.185063 -132.576089 
L 335.888283 -132.576089 
L 333.591504 -132.576089 
L 331.294724 -132.576089 
L 328.997944 -132.576089 
L 326.701165 -132.576089 
L 324.404385 -132.576089 
L 322.107605 -132.576089 
L 319.810826 -132.576089 
L 317.514046 -132.576089 
L 315.217266 -132.576089 
L 312.920486 -132.576089 
L 310.623707 -132.576089 
L 308.326927 -132.576089 
L 306.030147 -132.576089 
L 303.733368 -132.576089 
L 301.436588 -132.576089 
L 299.139808 -132.576089 
L 296.843029 -132.576089 
L 294.546249 -132.576089 
L 292.249469 -132.576089 
L 289.952689 -132.576089 
L 287.65591 -132.576089 
L 285.35913 -132.576089 
L 283.06235 -132.576089 
L 280.765571 -132.576089 
L 278.468791 -132.576089 
L 276.172011 -132.576089 
L 273.875232 -132.576089 
L 271.578452 -132.576089 
L 269.281672 -132.576089 
L 266.984892 -132.576089 
L 264.688113 -132.576089 
L 262.391333 -132.576089 
L 260.094553 -132.576089 
L 257.797774 -132.576089 
L 255.500994 -132.576089 
L 253.204214 -132.576089 
L 250.907435 -132.576089 
L 248.610655 -132.576089 
L 246.313875 -132.576089 
L 244.017095 -132.576089 
L 241.720316 -132.576089 
L 239.423536 -132.576089 
L 237.126756 -132.576089 
L 234.829977 -132.576089 
L 232.533197 -132.576089 
L 230.236417 -132.576089 
L 227.939638 -132.576089 
L 225.642858 -132.576089 
L 223.346078 -132.576089 
L 221.049298 -132.576089 
L 218.752519 -132.576089 
L 216.455739 -132.576089 
L 214.158959 -132.576089 
L 211.86218 -132.576089 
L 209.5654 -132.576089 
L 207.26862 -132.576089 
L 204.971841 -132.576089 
L 202.675061 -132.576089 
L 200.378281 -132.576089 
L 198.081501 -132.576089 
L 195.784722 -132.576089 
L 193.487942 -132.576089 
L 191.191162 -132.576089 
L 188.894383 -132.576089 
L 186.597603 -132.576089 
L 184.300823 -132.576089 
L 182.004044 -132.576089 
L 179.707264 -132.576089 
L 177.410484 -132.576089 
L 175.113704 -132.576089 
L 172.816925 -132.576089 
L 170.520145 -132.576089 
L 168.223365 -132.576089 
L 165.926586 -132.576089 
L 163.629806 -132.576089 
L 161.333026 -132.576089 
L 159.036247 -132.576089 
L 156.739467 -132.576089 
L 154.442687 -132.576089 
L 152.145907 -132.576089 
L 149.849128 -132.576089 
L 147.552348 -132.576089 
L 145.255568 -132.576089 
L 142.958789 -132.576089 
z
" style="stroke: #0000ff; stroke-opacity: 0.3"/>
    </defs>
    <g clip-path="url(#pe5f18cf5eb)">
     <use xlink:href="#m30e39072c3" x="0" y="432" style="fill: #0000ff; fill-opacity: 0.3; stroke: #0000ff; stroke-opacity: 0.3"/>
    </g>
   </g>
   <g id="PolyCollection_2">
    <defs>
     <path id="m3225f7332a" d="M 142.958789 -132.576089 
L 142.958789 -132.576089 
L 145.255568 -132.576089 
L 147.552348 -132.576089 
L 149.849128 -132.576089 
L 152.145907 -132.576089 
L 154.442687 -132.576089 
L 156.739467 -132.576089 
L 159.036247 -132.576089 
L 161.333026 -132.576089 
L 163.629806 -132.576089 
L 165.926586 -132.576089 
L 168.223365 -132.576089 
L 170.520145 -132.576089 
L 172.816925 -132.576089 
L 175.113704 -132.576089 
L 177.410484 -132.576089 
L 179.707264 -132.576089 
L 182.004044 -132.576089 
L 184.300823 -132.576089 
L 186.597603 -132.576089 
L 188.894383 -132.576089 
L 191.191162 -132.576089 
L 193.487942 -132.576089 
L 195.784722 -132.576089 
L 198.081501 -132.576089 
L 200.378281 -132.576089 
L 202.675061 -132.576089 
L 204.971841 -132.576089 
L 207.26862 -132.576089 
L 209.5654 -132.576089 
L 211.86218 -132.576089 
L 214.158959 -132.576089 
L 216.455739 -132.576089 
L 218.752519 -132.576089 
L 221.049298 -132.576089 
L 223.346078 -132.576089 
L 225.642858 -132.576089 
L 227.939638 -132.576089 
L 230.236417 -132.576089 
L 232.533197 -132.576089 
L 234.829977 -132.576089 
L 237.126756 -132.576089 
L 239.423536 -132.576089 
L 241.720316 -132.499686 
L 244.017095 -132.423283 
L 246.313875 -132.623742 
L 248.610655 -132.779177 
L 250.907435 -132.91467 
L 253.204214 -133.040301 
L 255.500994 -133.160483 
L 257.797774 -133.277375 
L 260.094553 -133.392142 
L 262.391333 -133.505462 
L 264.688113 -133.592293 
L 266.984892 -133.656594 
L 269.281672 -133.701318 
L 271.578452 -133.729291 
L 273.875232 -133.743066 
L 276.172011 -133.744876 
L 278.468791 -133.862414 
L 280.765571 -133.97866 
L 283.06235 -133.977765 
L 285.35913 -133.968725 
L 287.65591 -134.090314 
L 289.952689 -134.21042 
L 292.249469 -134.329269 
L 294.546249 -134.444594 
L 296.843029 -134.547345 
L 299.139808 -134.638123 
L 301.436588 -134.71757 
L 303.733368 -134.786354 
L 306.030147 -134.845148 
L 308.326927 -134.894626 
L 310.623707 -134.935441 
L 312.920486 -134.968225 
L 315.217266 -134.993581 
L 317.514046 -134.993581 
L 319.810826 -134.993581 
L 322.107605 -134.993581 
L 324.404385 -135.077925 
L 326.701165 -135.077925 
L 328.997944 -135.077925 
L 331.294724 -135.077925 
L 333.591504 -135.077925 
L 335.888283 -135.077925 
L 338.185063 -135.077925 
L 340.481843 -135.077925 
L 342.778623 -135.077925 
L 345.075402 -135.077925 
L 347.372182 -135.077925 
L 349.668962 -135.077925 
L 351.965741 -135.077925 
L 354.262521 -135.077925 
L 356.559301 -135.077925 
L 358.85608 -135.077925 
L 361.15286 -135.077925 
L 363.44964 -135.077925 
L 365.74642 -135.077925 
L 368.043199 -135.077925 
L 370.339979 -135.077925 
L 372.636759 -135.077925 
L 374.933538 -135.077925 
L 377.230318 -135.077925 
L 379.527098 -135.077925 
L 381.823877 -135.077925 
L 384.120657 -135.077925 
L 386.417437 -135.077925 
L 388.714217 -135.077925 
L 391.010996 -135.077925 
L 393.307776 -135.077925 
L 395.604556 -135.077925 
L 397.901335 -135.077925 
L 400.198115 -135.077925 
L 402.494895 -135.077925 
L 404.791674 -135.077925 
L 407.088454 -135.077925 
L 409.385234 -135.077925 
L 411.682014 -135.077925 
L 413.978793 -135.077925 
L 416.275573 -135.077925 
L 418.572353 -135.077925 
L 420.869132 -135.077925 
L 423.165912 -135.077925 
L 425.462692 -135.077925 
L 427.759471 -135.077925 
L 430.056251 -135.077925 
L 432.353031 -135.077925 
L 434.649811 -135.077925 
L 436.94659 -135.077925 
L 439.24337 -135.077925 
L 441.54015 -135.077925 
L 443.836929 -135.077925 
L 446.133709 -135.077925 
L 448.430489 -135.077925 
L 450.727268 -135.077925 
L 453.024048 -135.077925 
L 455.320828 -135.077925 
L 457.617608 -135.077925 
L 459.914387 -135.077925 
L 462.211167 -135.077925 
L 464.507947 -135.077925 
L 466.804726 -135.077925 
L 469.101506 -135.077925 
L 471.398286 -135.077925 
L 473.695065 -135.077925 
L 475.991845 -135.077925 
L 478.288625 -135.077925 
L 480.585405 -135.077925 
L 482.882184 -135.077925 
L 485.178964 -135.077925 
L 487.475744 -135.077925 
L 489.772523 -135.077925 
L 492.069303 -135.077925 
L 494.366083 -135.077925 
L 496.662862 -135.521586 
L 498.959642 -135.965095 
L 501.256422 -136.408431 
L 503.553202 -136.851567 
L 505.849981 -137.31415 
L 508.146761 -137.764759 
L 510.443541 -138.202829 
L 512.74032 -138.637308 
L 515.0371 -139.057863 
L 517.33388 -139.46402 
L 519.630659 -139.855425 
L 521.927439 -140.231856 
L 524.224219 -140.593239 
L 526.520999 -141.193598 
L 528.817778 -141.546689 
L 531.114558 -141.884135 
L 533.411338 -142.206274 
L 535.708117 -142.759635 
L 538.004897 -143.312996 
L 540.301677 -143.866357 
L 542.598456 -144.419718 
L 544.895236 -145.035942 
L 547.192016 -145.6504 
L 549.488796 -146.262735 
L 551.785575 -146.816096 
L 554.082355 -147.369457 
L 556.379135 -147.922818 
L 558.675914 -148.476179 
L 560.972694 -149.085936 
L 563.269474 -149.639297 
L 565.566253 -150.192658 
L 567.863033 -150.746019 
L 570.159813 -151.299379 
L 572.456593 -151.85274 
L 574.753372 -152.406101 
L 577.050152 -152.959462 
L 579.346932 -153.512823 
L 581.643711 -154.066184 
L 583.940491 -154.619545 
L 586.237271 -155.377366 
L 588.53405 -155.930727 
L 590.83083 -156.668542 
L 593.12761 -157.386349 
L 595.42439 -158.084498 
L 597.721169 -158.637859 
L 600.017949 -159.19122 
L 602.314729 -159.870376 
L 604.611508 -160.531472 
L 606.908288 -161.175636 
L 609.205068 -161.804125 
L 611.501847 -162.418251 
L 613.798627 -163.019331 
L 616.095407 -163.634018 
L 618.392187 -164.203304 
L 620.688966 -164.764118 
L 622.985746 -165.298035 
L 625.282526 -165.959222 
L 627.579305 -166.619496 
L 629.876085 -167.27904 
L 632.172865 -167.937994 
L 634.469644 -168.596463 
L 636.766424 -169.254528 
L 639.063204 -169.936763 
L 641.359984 -170.617761 
L 643.656763 -171.297627 
L 645.953543 -171.976452 
L 648.250323 -172.65432 
L 650.547102 -173.331304 
L 652.843882 -174.007473 
L 655.140662 -174.682887 
L 657.437441 -175.357601 
L 659.734221 -176.031664 
L 662.031001 -176.705124 
L 664.327781 -177.811845 
L 666.62456 -178.484741 
L 668.92134 -179.584132 
L 671.21812 -180.690854 
L 673.514899 -181.797575 
L 675.811679 -182.471171 
L 678.108459 -183.702518 
L 680.405238 -184.80924 
L 682.702018 -185.915961 
L 684.998798 -187.141685 
L 687.295578 -188.799726 
L 689.592357 -190.015789 
L 691.889137 -191.226395 
L 694.185917 -192.431662 
L 696.482696 -193.631705 
L 698.779476 -194.826648 
L 701.076256 -196.016616 
L 703.373035 -197.201734 
L 705.669815 -198.382131 
L 707.966595 -199.557936 
L 710.263375 -200.729279 
L 712.560154 -201.896289 
L 714.856934 -202.613785 
L 717.153714 -203.327285 
L 719.450493 -204.482299 
L 721.747273 -206.142381 
L 724.044053 -207.357301 
L 726.340832 -208.953797 
L 728.637612 -210.101563 
L 730.934392 -211.208284 
L 733.231172 -212.382338 
L 735.527951 -213.552463 
L 737.824731 -214.718763 
L 740.121511 -215.881338 
L 742.41829 -217.97935 
L 744.71507 -219.617314 
L 747.01185 -221.722141 
L 749.308629 -223.864223 
L 751.605409 -225.558179 
L 753.902189 -227.16595 
L 756.198969 -228.759067 
L 758.495748 -230.877417 
L 760.792528 -232.551187 
L 763.089308 -234.661583 
L 765.386087 -236.875027 
L 767.682867 -238.984946 
L 769.979647 -241.199875 
L 772.276426 -243.412374 
L 774.573206 -245.743451 
L 776.869986 -247.519917 
L 779.166766 -249.734149 
L 781.463545 -251.511155 
L 783.760325 -253.723933 
L 786.057105 -255.93451 
L 788.353884 -258.142967 
L 790.650664 -260.34938 
L 792.947444 -262.553821 
L 795.244223 -264.756363 
L 797.541003 -266.957074 
L 799.837783 -269.156019 
L 802.134563 -271.353261 
L 802.134563 -304.78774 
L 802.134563 -304.78774 
L 799.837783 -302.189187 
L 797.541003 -299.592338 
L 795.244223 -296.997254 
L 792.947444 -294.404002 
L 790.650664 -291.812649 
L 788.353884 -289.223267 
L 786.057105 -286.635929 
L 783.760325 -284.050713 
L 781.463545 -281.467696 
L 779.166766 -279.186722 
L 776.869986 -276.60516 
L 774.573206 -274.323646 
L 772.276426 -271.858928 
L 769.979647 -269.275633 
L 767.682867 -266.694768 
L 765.386087 -264.3778 
L 763.089308 -262.164356 
L 760.792528 -260.216772 
L 758.495748 -258.20147 
L 756.198969 -256.26184 
L 753.902189 -254.534792 
L 751.605409 -252.822397 
L 749.308629 -250.827281 
L 747.01185 -248.911382 
L 744.71507 -247.327137 
L 742.41829 -245.644936 
L 740.121511 -244.053875 
L 737.824731 -242.6341 
L 735.527951 -241.218048 
L 733.231172 -239.805823 
L 730.934392 -238.397525 
L 728.637612 -237.290804 
L 726.340832 -235.856218 
L 724.044053 -234.501456 
L 721.747273 -232.765118 
L 719.450493 -231.105035 
L 717.153714 -229.677698 
L 714.856934 -228.177754 
L 712.560154 -226.681806 
L 710.263375 -225.266466 
L 707.966595 -223.855458 
L 705.669815 -222.448912 
L 703.373035 -221.046959 
L 701.076256 -219.649726 
L 698.779476 -218.257342 
L 696.482696 -216.869935 
L 694.185917 -215.487628 
L 691.889137 -214.110543 
L 689.592357 -212.738799 
L 687.295578 -211.37251 
L 684.998798 -210.079293 
L 682.702018 -208.722666 
L 680.405238 -207.615945 
L 678.108459 -206.509223 
L 675.811679 -205.158218 
L 673.514899 -203.987278 
L 671.21812 -202.880556 
L 668.92134 -201.773835 
L 666.62456 -200.290874 
L 664.327781 -199.119234 
L 662.031001 -198.012512 
L 659.734221 -196.841435 
L 657.437441 -195.670962 
L 655.140662 -194.50114 
L 652.843882 -193.332017 
L 650.547102 -192.16365 
L 648.250323 -190.996098 
L 645.953543 -189.829429 
L 643.656763 -188.663718 
L 641.359984 -187.499048 
L 639.063204 -186.33551 
L 636.766424 -185.173208 
L 634.469644 -183.61783 
L 632.172865 -182.062855 
L 629.876085 -180.508365 
L 627.579305 -178.954466 
L 625.282526 -177.401296 
L 622.985746 -175.84904 
L 620.688966 -174.53842 
L 618.392187 -173.254698 
L 616.095407 -172.348355 
L 613.798627 -171.118505 
L 611.501847 -170.243956 
L 609.205068 -169.382454 
L 606.908288 -168.535313 
L 604.611508 -167.703849 
L 602.314729 -166.889315 
L 600.017949 -166.092843 
L 597.721169 -165.539482 
L 595.42439 -164.986121 
L 593.12761 -164.208641 
L 590.83083 -163.450819 
L 588.53405 -162.713005 
L 586.237271 -162.159644 
L 583.940491 -161.441836 
L 581.643711 -160.888475 
L 579.346932 -160.335114 
L 577.050152 -159.781753 
L 574.753372 -159.228393 
L 572.456593 -158.675032 
L 570.159813 -158.121671 
L 567.863033 -157.56831 
L 565.566253 -157.014949 
L 563.269474 -156.461588 
L 560.972694 -155.908227 
L 558.675914 -155.78017 
L 556.379135 -155.226809 
L 554.082355 -154.673448 
L 551.785575 -154.120087 
L 549.488796 -153.566726 
L 547.192016 -153.441247 
L 544.895236 -153.31789 
L 542.598456 -153.1963 
L 540.301677 -152.642939 
L 538.004897 -152.089578 
L 535.708117 -151.536217 
L 533.411338 -150.982856 
L 531.114558 -150.567181 
L 528.817778 -150.166813 
L 526.520999 -149.782089 
L 524.224219 -149.644633 
L 521.927439 -149.268202 
L 519.630659 -148.906819 
L 517.33388 -148.560409 
L 515.0371 -148.228752 
L 512.74032 -147.911492 
L 510.443541 -147.608156 
L 508.146761 -147.677319 
L 505.849981 -147.390114 
L 503.553202 -147.114882 
L 501.256422 -147.189111 
L 498.959642 -147.263539 
L 496.662862 -147.338141 
L 494.366083 -147.412895 
L 492.069303 -147.412895 
L 489.772523 -147.412895 
L 487.475744 -147.412895 
L 485.178964 -147.412895 
L 482.882184 -147.412895 
L 480.585405 -147.412895 
L 478.288625 -147.412895 
L 475.991845 -147.412895 
L 473.695065 -147.412895 
L 471.398286 -147.412895 
L 469.101506 -147.412895 
L 466.804726 -147.412895 
L 464.507947 -147.412895 
L 462.211167 -147.412895 
L 459.914387 -147.412895 
L 457.617608 -147.412895 
L 455.320828 -147.412895 
L 453.024048 -147.412895 
L 450.727268 -147.412895 
L 448.430489 -147.412895 
L 446.133709 -147.412895 
L 443.836929 -147.412895 
L 441.54015 -147.412895 
L 439.24337 -147.412895 
L 436.94659 -147.412895 
L 434.649811 -147.412895 
L 432.353031 -147.412895 
L 430.056251 -147.412895 
L 427.759471 -147.412895 
L 425.462692 -147.412895 
L 423.165912 -147.412895 
L 420.869132 -147.412895 
L 418.572353 -147.412895 
L 416.275573 -147.412895 
L 413.978793 -147.412895 
L 411.682014 -147.412895 
L 409.385234 -147.412895 
L 407.088454 -147.412895 
L 404.791674 -147.412895 
L 402.494895 -147.412895 
L 400.198115 -147.412895 
L 397.901335 -147.412895 
L 395.604556 -147.412895 
L 393.307776 -147.412895 
L 391.010996 -147.412895 
L 388.714217 -147.412895 
L 386.417437 -147.412895 
L 384.120657 -147.412895 
L 381.823877 -147.412895 
L 379.527098 -147.412895 
L 377.230318 -147.412895 
L 374.933538 -147.412895 
L 372.636759 -147.412895 
L 370.339979 -147.412895 
L 368.043199 -147.412895 
L 365.74642 -147.412895 
L 363.44964 -147.412895 
L 361.15286 -147.412895 
L 358.85608 -147.412895 
L 356.559301 -147.412895 
L 354.262521 -147.412895 
L 351.965741 -147.412895 
L 349.668962 -147.412895 
L 347.372182 -147.412895 
L 345.075402 -147.412895 
L 342.778623 -147.412895 
L 340.481843 -147.412895 
L 338.185063 -147.412895 
L 335.888283 -147.412895 
L 333.591504 -147.412895 
L 331.294724 -147.412895 
L 328.997944 -147.412895 
L 326.701165 -147.412895 
L 324.404385 -147.412895 
L 322.107605 -147.128331 
L 319.810826 -147.128331 
L 317.514046 -147.128331 
L 315.217266 -147.128331 
L 312.920486 -146.78478 
L 310.623707 -146.448658 
L 308.326927 -146.120565 
L 306.030147 -145.801135 
L 303.733368 -145.491023 
L 301.436588 -145.190899 
L 299.139808 -144.901439 
L 296.843029 -144.623309 
L 294.546249 -144.357153 
L 292.249469 -144.103571 
L 289.952689 -143.484605 
L 287.65591 -142.866897 
L 285.35913 -142.250672 
L 283.06235 -141.872725 
L 280.765571 -141.502922 
L 278.468791 -140.881353 
L 276.172011 -140.261077 
L 273.875232 -139.893979 
L 271.578452 -139.538848 
L 269.281672 -139.197913 
L 266.984892 -138.87373 
L 264.688113 -138.569124 
L 262.391333 -138.287047 
L 260.094553 -137.662553 
L 257.797774 -137.039506 
L 255.500994 -136.418583 
L 253.204214 -135.80095 
L 250.907435 -135.188767 
L 248.610655 -134.586446 
L 246.313875 -134.004066 
L 244.017095 -133.46671 
L 241.720316 -133.0214 
L 239.423536 -132.576089 
L 237.126756 -132.576089 
L 234.829977 -132.576089 
L 232.533197 -132.576089 
L 230.236417 -132.576089 
L 227.939638 -132.576089 
L 225.642858 -132.576089 
L 223.346078 -132.576089 
L 221.049298 -132.576089 
L 218.752519 -132.576089 
L 216.455739 -132.576089 
L 214.158959 -132.576089 
L 211.86218 -132.576089 
L 209.5654 -132.576089 
L 207.26862 -132.576089 
L 204.971841 -132.576089 
L 202.675061 -132.576089 
L 200.378281 -132.576089 
L 198.081501 -132.576089 
L 195.784722 -132.576089 
L 193.487942 -132.576089 
L 191.191162 -132.576089 
L 188.894383 -132.576089 
L 186.597603 -132.576089 
L 184.300823 -132.576089 
L 182.004044 -132.576089 
L 179.707264 -132.576089 
L 177.410484 -132.576089 
L 175.113704 -132.576089 
L 172.816925 -132.576089 
L 170.520145 -132.576089 
L 168.223365 -132.576089 
L 165.926586 -132.576089 
L 163.629806 -132.576089 
L 161.333026 -132.576089 
L 159.036247 -132.576089 
L 156.739467 -132.576089 
L 154.442687 -132.576089 
L 152.145907 -132.576089 
L 149.849128 -132.576089 
L 147.552348 -132.576089 
L 145.255568 -132.576089 
L 142.958789 -132.576089 
z
" style="stroke: #008000; stroke-opacity: 0.3"/>
    </defs>
    <g clip-path="url(#pe5f18cf5eb)">
     <use xlink:href="#m3225f7332a" x="0" y="432" style="fill: #008000; fill-opacity: 0.3; stroke: #008000; stroke-opacity: 0.3"/>
    </g>
   </g>
   <g id="PolyCollection_3">
    <defs>
     <path id="m5be5758c7a" d="M 142.958789 -132.576089 
L 142.958789 -132.576089 
L 145.255568 -132.576089 
L 147.552348 -132.576089 
L 149.849128 -132.576089 
L 152.145907 -132.576089 
L 154.442687 -132.576089 
L 156.739467 -132.576089 
L 159.036247 -132.576089 
L 161.333026 -132.576089 
L 163.629806 -132.576089 
L 165.926586 -132.576089 
L 168.223365 -132.576089 
L 170.520145 -132.576089 
L 172.816925 -132.576089 
L 175.113704 -132.576089 
L 177.410484 -132.576089 
L 179.707264 -132.576089 
L 182.004044 -132.576089 
L 184.300823 -132.576089 
L 186.597603 -132.576089 
L 188.894383 -132.576089 
L 191.191162 -132.576089 
L 193.487942 -132.576089 
L 195.784722 -132.576089 
L 198.081501 -132.576089 
L 200.378281 -132.576089 
L 202.675061 -132.576089 
L 204.971841 -132.576089 
L 207.26862 -132.576089 
L 209.5654 -132.576089 
L 211.86218 -132.576089 
L 214.158959 -132.576089 
L 216.455739 -132.576089 
L 218.752519 -132.576089 
L 221.049298 -132.576089 
L 223.346078 -132.576089 
L 225.642858 -132.576089 
L 227.939638 -132.576089 
L 230.236417 -132.576089 
L 232.533197 -132.576089 
L 234.829977 -132.576089 
L 237.126756 -132.576089 
L 239.423536 -132.576089 
L 241.720316 -132.576089 
L 244.017095 -132.576089 
L 246.313875 -132.576089 
L 248.610655 -132.576089 
L 250.907435 -132.576089 
L 253.204214 -132.576089 
L 255.500994 -132.576089 
L 257.797774 -132.576089 
L 260.094553 -132.576089 
L 262.391333 -132.576089 
L 264.688113 -132.576089 
L 266.984892 -132.576089 
L 269.281672 -132.576089 
L 271.578452 -132.576089 
L 273.875232 -132.576089 
L 276.172011 -132.576089 
L 278.468791 -132.576089 
L 280.765571 -132.576089 
L 283.06235 -132.576089 
L 285.35913 -132.576089 
L 287.65591 -132.576089 
L 289.952689 -132.576089 
L 292.249469 -132.576089 
L 294.546249 -132.576089 
L 296.843029 -132.576089 
L 299.139808 -132.576089 
L 301.436588 -132.576089 
L 303.733368 -132.576089 
L 306.030147 -132.576089 
L 308.326927 -132.576089 
L 310.623707 -132.576089 
L 312.920486 -132.576089 
L 315.217266 -132.576089 
L 317.514046 -132.576089 
L 319.810826 -132.576089 
L 322.107605 -132.576089 
L 324.404385 -132.576089 
L 326.701165 -132.576089 
L 328.997944 -132.576089 
L 331.294724 -132.576089 
L 333.591504 -132.576089 
L 335.888283 -132.576089 
L 338.185063 -132.576089 
L 340.481843 -132.576089 
L 342.778623 -132.576089 
L 345.075402 -132.576089 
L 347.372182 -132.576089 
L 349.668962 -132.576089 
L 351.965741 -132.576089 
L 354.262521 -132.576089 
L 356.559301 -132.576089 
L 358.85608 -132.576089 
L 361.15286 -132.576089 
L 363.44964 -132.576089 
L 365.74642 -132.576089 
L 368.043199 -132.499686 
L 370.339979 -132.423283 
L 372.636759 -132.623742 
L 374.933538 -132.779177 
L 377.230318 -132.91467 
L 379.527098 -133.040301 
L 381.823877 -133.160483 
L 384.120657 -133.277375 
L 386.417437 -133.392142 
L 388.714217 -133.505462 
L 391.010996 -133.617754 
L 393.307776 -134.171115 
L 395.604556 -134.724476 
L 397.901335 -135.277837 
L 400.198115 -135.831198 
L 402.494895 -136.384559 
L 404.791674 -136.93792 
L 407.088454 -137.93235 
L 409.385234 -138.925751 
L 411.682014 -139.917706 
L 413.978793 -140.907535 
L 416.275573 -141.894075 
L 418.572353 -142.875166 
L 420.869132 -143.846394 
L 423.165912 -144.797681 
L 425.462692 -145.627541 
L 427.759471 -146.391847 
L 430.056251 -147.117599 
L 432.353031 -147.77464 
L 434.649811 -148.213151 
L 436.94659 -148.636764 
L 439.24337 -149.052718 
L 441.54015 -149.464254 
L 443.836929 -149.873024 
L 446.133709 -150.27995 
L 448.430489 -150.685589 
L 450.727268 -151.090293 
L 453.024048 -151.778862 
L 455.320828 -152.462916 
L 457.617608 -153.143284 
L 459.914387 -154.178479 
L 462.211167 -155.213334 
L 464.507947 -155.892674 
L 466.804726 -156.856609 
L 469.101506 -157.819378 
L 471.398286 -158.781172 
L 473.695065 -159.742143 
L 475.991845 -160.702412 
L 478.288625 -161.662079 
L 480.585405 -162.621225 
L 482.882184 -163.579917 
L 485.178964 -164.538212 
L 487.475744 -165.496158 
L 489.772523 -166.453793 
L 492.069303 -167.411154 
L 494.366083 -168.368268 
L 496.662862 -169.325162 
L 498.959642 -170.281857 
L 501.256422 -171.238372 
L 503.553202 -172.194725 
L 505.849981 -173.15093 
L 508.146761 -174.107001 
L 510.443541 -175.062948 
L 512.74032 -176.018782 
L 515.0371 -176.974512 
L 517.33388 -177.930146 
L 519.630659 -178.885692 
L 521.927439 -179.841157 
L 524.224219 -181.126727 
L 526.520999 -182.637427 
L 528.817778 -183.91765 
L 531.114558 -185.100533 
L 533.411338 -186.283411 
L 535.708117 -187.789864 
L 538.004897 -189.29408 
L 540.301677 -190.719536 
L 542.598456 -192.142435 
L 544.895236 -193.249157 
L 547.192016 -194.669448 
L 549.488796 -196.087078 
L 551.785575 -197.501994 
L 554.082355 -198.914144 
L 556.379135 -200.323475 
L 558.675914 -201.729933 
L 560.972694 -203.208923 
L 563.269474 -204.609172 
L 565.566253 -206.006343 
L 567.863033 -207.400382 
L 570.159813 -209.072129 
L 572.456593 -210.456453 
L 574.753372 -211.837433 
L 577.050152 -213.21502 
L 579.346932 -214.589163 
L 581.643711 -215.959813 
L 583.940491 -217.326922 
L 586.237271 -218.690444 
L 588.53405 -220.050334 
L 590.83083 -221.406549 
L 593.12761 -222.759046 
L 595.42439 -224.107786 
L 597.721169 -225.452731 
L 600.017949 -226.793844 
L 602.314729 -228.131092 
L 604.611508 -229.237814 
L 606.908288 -230.512045 
L 609.205068 -231.784693 
L 611.501847 -233.055813 
L 613.798627 -234.381878 
L 616.095407 -235.6492 
L 618.392187 -236.700401 
L 620.688966 -237.967245 
L 622.985746 -239.232761 
L 625.282526 -240.285143 
L 627.579305 -241.550248 
L 629.876085 -242.602903 
L 632.172865 -243.867618 
L 634.469644 -245.131125 
L 636.766424 -246.393463 
L 639.063204 -247.654671 
L 641.359984 -248.914784 
L 643.656763 -250.420818 
L 645.953543 -251.913359 
L 648.250323 -253.392372 
L 650.547102 -254.85785 
L 652.843882 -256.309815 
L 655.140662 -257.748313 
L 657.437441 -259.147039 
L 659.734221 -260.562828 
L 662.031001 -261.965556 
L 664.327781 -263.492105 
L 666.62456 -264.732403 
L 668.92134 -266.096863 
L 671.21812 -267.327797 
L 673.514899 -268.555663 
L 675.811679 -269.780487 
L 678.108459 -271.002298 
L 680.405238 -272.221126 
L 682.702018 -273.437001 
L 684.998798 -274.649955 
L 687.295578 -275.860019 
L 689.592357 -277.164889 
L 691.889137 -278.547997 
L 694.185917 -279.825492 
L 696.482696 -281.092535 
L 698.779476 -282.384703 
L 701.076256 -283.673884 
L 703.373035 -284.960219 
L 705.669815 -286.243844 
L 707.966595 -287.524885 
L 710.263375 -288.803461 
L 712.560154 -290.018409 
L 714.856934 -291.294554 
L 717.153714 -292.568481 
L 719.450493 -293.895296 
L 721.747273 -295.16313 
L 724.044053 -296.321005 
L 726.340832 -297.477 
L 728.637612 -298.631143 
L 730.934392 -299.846061 
L 733.231172 -301.060977 
L 735.527951 -302.213455 
L 737.824731 -303.36417 
L 740.121511 -304.134246 
L 742.41829 -305.349317 
L 744.71507 -306.564383 
L 747.01185 -307.779443 
L 749.308629 -308.994498 
L 751.605409 -310.209548 
L 753.902189 -311.424593 
L 756.198969 -312.639633 
L 758.495748 -313.854669 
L 760.792528 -315.069701 
L 763.089308 -316.284727 
L 765.386087 -317.543269 
L 767.682867 -318.800454 
L 769.979647 -320.056333 
L 772.276426 -321.310954 
L 774.573206 -322.564366 
L 776.869986 -323.816611 
L 779.166766 -324.992659 
L 781.463545 -326.208585 
L 783.760325 -327.424493 
L 786.057105 -328.640384 
L 788.353884 -329.780209 
L 790.650664 -330.91873 
L 792.947444 -332.055965 
L 795.244223 -333.19193 
L 797.541003 -334.326642 
L 799.837783 -335.460118 
L 802.134563 -336.592375 
L 802.134563 -407.401431 
L 802.134563 -407.401431 
L 799.837783 -405.951336 
L 797.541003 -404.502462 
L 795.244223 -403.054823 
L 792.947444 -401.608437 
L 790.650664 -400.163321 
L 788.353884 -398.719491 
L 786.057105 -397.276965 
L 783.760325 -395.541598 
L 781.463545 -393.806248 
L 779.166766 -392.070916 
L 776.869986 -390.295706 
L 774.573206 -388.227786 
L 772.276426 -386.161032 
L 769.979647 -384.095488 
L 767.682867 -382.031202 
L 765.386087 -379.968221 
L 763.089308 -377.906597 
L 760.792528 -376.170366 
L 758.495748 -374.434139 
L 756.198969 -372.697917 
L 753.902189 -370.961699 
L 751.605409 -369.225486 
L 749.308629 -367.489278 
L 747.01185 -365.753075 
L 744.71507 -364.016877 
L 742.41829 -362.280685 
L 740.121511 -360.544497 
L 737.824731 -358.732223 
L 735.527951 -357.300587 
L 733.231172 -355.870715 
L 730.934392 -354.134372 
L 728.637612 -352.398032 
L 726.340832 -350.969825 
L 724.044053 -349.543469 
L 721.747273 -348.118993 
L 719.450493 -346.066661 
L 717.153714 -343.704404 
L 714.856934 -341.658165 
L 712.560154 -339.614145 
L 710.263375 -337.877834 
L 707.966595 -335.836245 
L 705.669815 -333.797121 
L 703.373035 -331.76058 
L 701.076256 -329.726751 
L 698.779476 -327.695766 
L 696.482696 -325.667769 
L 694.185917 -323.983553 
L 691.889137 -322.309791 
L 689.592357 -320.372733 
L 687.295578 -318.726345 
L 684.998798 -317.354058 
L 682.702018 -315.984661 
L 680.405238 -314.618185 
L 678.108459 -313.254663 
L 675.811679 -311.894123 
L 673.514899 -310.536596 
L 671.21812 -309.182111 
L 668.92134 -307.830694 
L 666.62456 -306.243896 
L 664.327781 -304.901843 
L 662.031001 -303.108227 
L 659.734221 -301.559697 
L 657.437441 -300.024228 
L 655.140662 -298.102788 
L 652.843882 -296.590028 
L 650.547102 -295.090735 
L 648.250323 -293.604955 
L 645.953543 -292.13271 
L 643.656763 -290.673993 
L 641.359984 -289.228769 
L 639.063204 -287.537624 
L 636.766424 -285.847573 
L 634.469644 -284.158654 
L 632.172865 -282.470903 
L 629.876085 -280.784359 
L 627.579305 -279.254664 
L 625.282526 -277.56851 
L 622.985746 -276.038541 
L 620.688966 -274.352799 
L 618.392187 -272.668386 
L 616.095407 -271.137235 
L 613.798627 -269.4533 
L 611.501847 -268.197013 
L 609.205068 -266.516876 
L 606.908288 -264.838266 
L 604.611508 -263.161239 
L 602.314729 -262.054517 
L 600.017949 -260.809414 
L 597.721169 -259.568176 
L 595.42439 -258.33077 
L 593.12761 -257.097159 
L 590.83083 -255.867306 
L 588.53405 -254.641169 
L 586.237271 -253.418709 
L 583.940491 -252.19988 
L 581.643711 -250.984638 
L 579.346932 -249.772938 
L 577.050152 -248.56473 
L 574.753372 -247.359965 
L 572.456593 -246.158595 
L 570.159813 -244.960568 
L 567.863033 -243.681057 
L 565.566253 -242.492745 
L 563.269474 -241.307565 
L 560.972694 -240.125464 
L 558.675914 -239.39101 
L 556.379135 -238.215117 
L 554.082355 -237.042097 
L 551.785575 -235.871896 
L 549.488796 -234.704462 
L 547.192016 -233.539741 
L 544.895236 -232.377681 
L 542.598456 -231.270959 
L 540.301677 -230.111508 
L 538.004897 -228.954613 
L 535.708117 -228.245385 
L 533.411338 -227.538394 
L 531.114558 -226.876736 
L 528.817778 -226.215083 
L 526.520999 -224.17514 
L 524.224219 -223.472396 
L 521.927439 -221.437802 
L 519.630659 -219.442008 
L 517.33388 -217.446296 
L 515.0371 -215.450673 
L 512.74032 -213.455144 
L 510.443541 -211.45972 
L 508.146761 -209.464409 
L 505.849981 -207.469221 
L 503.553202 -205.474168 
L 501.256422 -203.479263 
L 498.959642 -201.484521 
L 496.662862 -199.489958 
L 494.366083 -197.495593 
L 492.069303 -195.501449 
L 489.772523 -193.507552 
L 487.475744 -191.513929 
L 485.178964 -189.520617 
L 482.882184 -187.527654 
L 480.585405 -185.535088 
L 478.288625 -183.542976 
L 475.991845 -181.551385 
L 473.695065 -179.560396 
L 471.398286 -177.570108 
L 469.101506 -175.580644 
L 466.804726 -173.592155 
L 464.507947 -171.604832 
L 462.211167 -170.070728 
L 459.914387 -168.523233 
L 457.617608 -166.976077 
L 455.320828 -165.443001 
L 453.024048 -163.913612 
L 450.727268 -162.388737 
L 448.430489 -160.948905 
L 446.133709 -159.510007 
L 443.836929 -158.072397 
L 441.54015 -156.636631 
L 439.24337 -155.203631 
L 436.94659 -153.775048 
L 434.649811 -152.354125 
L 432.353031 -150.9481 
L 430.056251 -149.391697 
L 427.759471 -148.272913 
L 425.462692 -147.192682 
L 423.165912 -146.178006 
L 420.869132 -145.653664 
L 418.572353 -145.149263 
L 416.275573 -144.654725 
L 413.978793 -144.165636 
L 411.682014 -143.679836 
L 409.385234 -143.196162 
L 407.088454 -142.713934 
L 404.791674 -142.232735 
L 402.494895 -141.679374 
L 400.198115 -141.126013 
L 397.901335 -140.572652 
L 395.604556 -140.019291 
L 393.307776 -139.465931 
L 391.010996 -138.91257 
L 388.714217 -138.287047 
L 386.417437 -137.662553 
L 384.120657 -137.039506 
L 381.823877 -136.418583 
L 379.527098 -135.80095 
L 377.230318 -135.188767 
L 374.933538 -134.586446 
L 372.636759 -134.004066 
L 370.339979 -133.46671 
L 368.043199 -133.0214 
L 365.74642 -132.576089 
L 363.44964 -132.576089 
L 361.15286 -132.576089 
L 358.85608 -132.576089 
L 356.559301 -132.576089 
L 354.262521 -132.576089 
L 351.965741 -132.576089 
L 349.668962 -132.576089 
L 347.372182 -132.576089 
L 345.075402 -132.576089 
L 342.778623 -132.576089 
L 340.481843 -132.576089 
L 338.185063 -132.576089 
L 335.888283 -132.576089 
L 333.591504 -132.576089 
L 331.294724 -132.576089 
L 328.997944 -132.576089 
L 326.701165 -132.576089 
L 324.404385 -132.576089 
L 322.107605 -132.576089 
L 319.810826 -132.576089 
L 317.514046 -132.576089 
L 315.217266 -132.576089 
L 312.920486 -132.576089 
L 310.623707 -132.576089 
L 308.326927 -132.576089 
L 306.030147 -132.576089 
L 303.733368 -132.576089 
L 301.436588 -132.576089 
L 299.139808 -132.576089 
L 296.843029 -132.576089 
L 294.546249 -132.576089 
L 292.249469 -132.576089 
L 289.952689 -132.576089 
L 287.65591 -132.576089 
L 285.35913 -132.576089 
L 283.06235 -132.576089 
L 280.765571 -132.576089 
L 278.468791 -132.576089 
L 276.172011 -132.576089 
L 273.875232 -132.576089 
L 271.578452 -132.576089 
L 269.281672 -132.576089 
L 266.984892 -132.576089 
L 264.688113 -132.576089 
L 262.391333 -132.576089 
L 260.094553 -132.576089 
L 257.797774 -132.576089 
L 255.500994 -132.576089 
L 253.204214 -132.576089 
L 250.907435 -132.576089 
L 248.610655 -132.576089 
L 246.313875 -132.576089 
L 244.017095 -132.576089 
L 241.720316 -132.576089 
L 239.423536 -132.576089 
L 237.126756 -132.576089 
L 234.829977 -132.576089 
L 232.533197 -132.576089 
L 230.236417 -132.576089 
L 227.939638 -132.576089 
L 225.642858 -132.576089 
L 223.346078 -132.576089 
L 221.049298 -132.576089 
L 218.752519 -132.576089 
L 216.455739 -132.576089 
L 214.158959 -132.576089 
L 211.86218 -132.576089 
L 209.5654 -132.576089 
L 207.26862 -132.576089 
L 204.971841 -132.576089 
L 202.675061 -132.576089 
L 200.378281 -132.576089 
L 198.081501 -132.576089 
L 195.784722 -132.576089 
L 193.487942 -132.576089 
L 191.191162 -132.576089 
L 188.894383 -132.576089 
L 186.597603 -132.576089 
L 184.300823 -132.576089 
L 182.004044 -132.576089 
L 179.707264 -132.576089 
L 177.410484 -132.576089 
L 175.113704 -132.576089 
L 172.816925 -132.576089 
L 170.520145 -132.576089 
L 168.223365 -132.576089 
L 165.926586 -132.576089 
L 163.629806 -132.576089 
L 161.333026 -132.576089 
L 159.036247 -132.576089 
L 156.739467 -132.576089 
L 154.442687 -132.576089 
L 152.145907 -132.576089 
L 149.849128 -132.576089 
L 147.552348 -132.576089 
L 145.255568 -132.576089 
L 142.958789 -132.576089 
z
" style="stroke: #ff0000; stroke-opacity: 0.3"/>
    </defs>
    <g clip-path="url(#pe5f18cf5eb)">
     <use xlink:href="#m5be5758c7a" x="0" y="432" style="fill: #ff0000; fill-opacity: 0.3; stroke: #ff0000; stroke-opacity: 0.3"/>
    </g>
   </g>
   <g id="PolyCollection_4">
    <defs>
     <path id="m52df96d4dc" d="M 142.958789 -132.576089 
L 142.958789 -132.576089 
L 145.255568 -132.576089 
L 147.552348 -132.576089 
L 149.849128 -132.576089 
L 152.145907 -132.576089 
L 154.442687 -132.576089 
L 156.739467 -132.576089 
L 159.036247 -132.576089 
L 161.333026 -132.576089 
L 163.629806 -132.576089 
L 165.926586 -132.576089 
L 168.223365 -132.576089 
L 170.520145 -132.576089 
L 172.816925 -132.576089 
L 175.113704 -132.576089 
L 177.410484 -132.576089 
L 179.707264 -132.576089 
L 182.004044 -132.576089 
L 184.300823 -132.576089 
L 186.597603 -132.576089 
L 188.894383 -132.576089 
L 191.191162 -132.576089 
L 193.487942 -132.576089 
L 195.784722 -132.576089 
L 198.081501 -132.576089 
L 200.378281 -132.576089 
L 202.675061 -132.576089 
L 204.971841 -132.576089 
L 207.26862 -132.576089 
L 209.5654 -132.576089 
L 211.86218 -132.576089 
L 214.158959 -132.576089 
L 216.455739 -132.576089 
L 218.752519 -132.576089 
L 221.049298 -132.576089 
L 223.346078 -132.576089 
L 225.642858 -132.576089 
L 227.939638 -132.576089 
L 230.236417 -132.576089 
L 232.533197 -132.576089 
L 234.829977 -132.576089 
L 237.126756 -132.576089 
L 239.423536 -132.576089 
L 241.720316 -132.576089 
L 244.017095 -132.576089 
L 246.313875 -132.576089 
L 248.610655 -132.576089 
L 250.907435 -132.576089 
L 253.204214 -132.576089 
L 255.500994 -132.576089 
L 257.797774 -132.576089 
L 260.094553 -132.576089 
L 262.391333 -132.576089 
L 264.688113 -132.576089 
L 266.984892 -132.576089 
L 269.281672 -132.576089 
L 271.578452 -132.499686 
L 273.875232 -132.499686 
L 276.172011 -132.499686 
L 278.468791 -132.423283 
L 280.765571 -132.34688 
L 283.06235 -132.270477 
L 285.35913 -132.194073 
L 287.65591 -132.11767 
L 289.952689 -132.041267 
L 292.249469 -131.964864 
L 294.546249 -131.888461 
L 296.843029 -131.812057 
L 299.139808 -131.735654 
L 301.436588 -131.659251 
L 303.733368 -131.582848 
L 306.030147 -131.506445 
L 308.326927 -131.506445 
L 310.623707 -131.506445 
L 312.920486 -131.506445 
L 315.217266 -131.506445 
L 317.514046 -131.430041 
L 319.810826 -131.430041 
L 322.107605 -131.430041 
L 324.404385 -131.738183 
L 326.701165 -131.738183 
L 328.997944 -132.031963 
L 331.294724 -132.310066 
L 333.591504 -132.571239 
L 335.888283 -132.814351 
L 338.185063 -133.03847 
L 340.481843 -133.24293 
L 342.778623 -133.427384 
L 345.075402 -133.591831 
L 347.372182 -133.736619 
L 349.668962 -133.862414 
L 351.965741 -133.862414 
L 354.262521 -133.862414 
L 356.559301 -133.862414 
L 358.85608 -133.862414 
L 361.15286 -133.862414 
L 363.44964 -133.862414 
L 365.74642 -133.862414 
L 368.043199 -133.862414 
L 370.339979 -133.862414 
L 372.636759 -133.862414 
L 374.933538 -133.862414 
L 377.230318 -133.862414 
L 379.527098 -133.862414 
L 381.823877 -133.862414 
L 384.120657 -133.862414 
L 386.417437 -133.862414 
L 388.714217 -133.862414 
L 391.010996 -133.862414 
L 393.307776 -134.298237 
L 395.604556 -134.298237 
L 397.901335 -134.298237 
L 400.198115 -134.298237 
L 402.494895 -134.298237 
L 404.791674 -134.298237 
L 407.088454 -134.298237 
L 409.385234 -134.28998 
L 411.682014 -134.273249 
L 413.978793 -134.273249 
L 416.275573 -134.273249 
L 418.572353 -134.24937 
L 420.869132 -134.219438 
L 423.165912 -134.18436 
L 425.462692 -134.144886 
L 427.759471 -134.101639 
L 430.056251 -134.055135 
L 432.353031 -134.005809 
L 434.649811 -133.954023 
L 436.94659 -133.900085 
L 439.24337 -133.844253 
L 441.54015 -134.004392 
L 443.836929 -134.160675 
L 446.133709 -134.313478 
L 448.430489 -134.463133 
L 450.727268 -134.609935 
L 453.024048 -134.711552 
L 455.320828 -134.813161 
L 457.617608 -134.957235 
L 459.914387 -135.058779 
L 462.211167 -135.160323 
L 464.507947 -135.261866 
L 466.804726 -135.403989 
L 469.101506 -135.916771 
L 471.398286 -136.42784 
L 473.695065 -136.937309 
L 475.991845 -137.445281 
L 478.288625 -137.547119 
L 480.585405 -138.053896 
L 482.882184 -138.559402 
L 485.178964 -139.063712 
L 487.475744 -139.566896 
L 489.772523 -140.466519 
L 492.069303 -140.966303 
L 494.366083 -141.465177 
L 496.662862 -142.354845 
L 498.959642 -143.239186 
L 501.256422 -143.733212 
L 503.553202 -144.226579 
L 505.849981 -144.719322 
L 508.146761 -145.211477 
L 510.443541 -145.703074 
L 512.74032 -146.194142 
L 515.0371 -146.747503 
L 517.33388 -147.300864 
L 519.630659 -147.854225 
L 521.927439 -148.407586 
L 524.224219 -148.960947 
L 526.520999 -149.686029 
L 528.817778 -150.469289 
L 531.114558 -151.247889 
L 533.411338 -151.965019 
L 535.708117 -152.680368 
L 538.004897 -153.394009 
L 540.301677 -154.15947 
L 542.598456 -154.920363 
L 544.895236 -155.676666 
L 547.192016 -156.428363 
L 549.488796 -157.175439 
L 551.785575 -157.917887 
L 554.082355 -159.066643 
L 556.379135 -159.802104 
L 558.675914 -160.947256 
L 560.972694 -162.505619 
L 563.269474 -164.238221 
L 565.566253 -165.964832 
L 567.863033 -167.262732 
L 570.159813 -168.948768 
L 572.456593 -170.63287 
L 574.753372 -171.906706 
L 577.050152 -173.597069 
L 579.346932 -175.268623 
L 581.643711 -176.807226 
L 583.940491 -178.345211 
L 586.237271 -179.882535 
L 588.53405 -181.402374 
L 590.83083 -182.916041 
L 593.12761 -184.423473 
L 595.42439 -185.924612 
L 597.721169 -187.451453 
L 600.017949 -188.943419 
L 602.314729 -190.428862 
L 604.611508 -191.907765 
L 606.908288 -193.38012 
L 609.205068 -194.845935 
L 611.501847 -196.305227 
L 613.798627 -197.758028 
L 616.095407 -199.204379 
L 618.392187 -200.644334 
L 620.688966 -202.07796 
L 622.985746 -203.505329 
L 625.282526 -204.926529 
L 627.579305 -206.341652 
L 629.876085 -207.750802 
L 632.172865 -209.154087 
L 634.469644 -210.551625 
L 636.766424 -211.943537 
L 639.063204 -213.32995 
L 641.359984 -214.710997 
L 643.656763 -216.086812 
L 645.953543 -217.457532 
L 648.250323 -218.489105 
L 650.547102 -219.520623 
L 652.843882 -220.214987 
L 655.140662 -221.246853 
L 657.437441 -222.278656 
L 659.734221 -223.3104 
L 662.031001 -224.342089 
L 664.327781 -225.373725 
L 666.62456 -226.739978 
L 668.92134 -227.846699 
L 671.21812 -228.248955 
L 673.514899 -228.946443 
L 675.811679 -229.977858 
L 678.108459 -231.009235 
L 680.405238 -232.448963 
L 682.702018 -233.885605 
L 684.998798 -235.319068 
L 687.295578 -236.42579 
L 689.592357 -237.855982 
L 691.889137 -239.206437 
L 694.185917 -240.553369 
L 696.482696 -241.896868 
L 698.779476 -243.31331 
L 701.076256 -244.65007 
L 703.373035 -245.983613 
L 705.669815 -247.314028 
L 707.966595 -248.641403 
L 710.263375 -249.965825 
L 712.560154 -251.28738 
L 714.856934 -252.947462 
L 717.153714 -254.607545 
L 719.450493 -256.267628 
L 721.747273 -257.92771 
L 724.044053 -259.587793 
L 726.340832 -261.247876 
L 728.637612 -262.907958 
L 730.934392 -264.568041 
L 733.231172 -266.228124 
L 735.527951 -267.888206 
L 737.824731 -269.886818 
L 740.121511 -271.882561 
L 742.41829 -273.542644 
L 744.71507 -275.202726 
L 747.01185 -276.862809 
L 749.308629 -278.855599 
L 751.605409 -280.845349 
L 753.902189 -282.831972 
L 756.198969 -284.815377 
L 758.495748 -286.795474 
L 760.792528 -288.77217 
L 763.089308 -290.745372 
L 765.386087 -292.714986 
L 767.682867 -294.680919 
L 769.979647 -296.643074 
L 772.276426 -298.676894 
L 774.573206 -300.99507 
L 776.869986 -303.293566 
L 779.166766 -305.570217 
L 781.463545 -307.822657 
L 783.760325 -310.04833 
L 786.057105 -312.244514 
L 788.353884 -314.40836 
L 790.650664 -316.536956 
L 792.947444 -318.627409 
L 795.244223 -320.505873 
L 797.541003 -322.337041 
L 799.837783 -324.161557 
L 802.134563 -325.82164 
L 802.134563 -346.235249 
L 802.134563 -346.235249 
L 799.837783 -344.575166 
L 797.541003 -342.71061 
L 795.244223 -340.852705 
L 792.947444 -339.411004 
L 790.650664 -337.812385 
L 788.353884 -336.251907 
L 786.057105 -334.726681 
L 783.760325 -333.233792 
L 781.463545 -331.770393 
L 779.166766 -330.333761 
L 776.869986 -328.921339 
L 774.573206 -327.530762 
L 772.276426 -326.159866 
L 769.979647 -324.87352 
L 767.682867 -323.146603 
L 765.386087 -321.423462 
L 763.089308 -319.704004 
L 760.792528 -317.988134 
L 758.495748 -316.275757 
L 756.198969 -314.566781 
L 753.902189 -312.861114 
L 751.605409 -311.158664 
L 749.308629 -309.459341 
L 747.01185 -307.763059 
L 744.71507 -306.102976 
L 742.41829 -304.442894 
L 740.121511 -302.782811 
L 737.824731 -301.089482 
L 735.527951 -299.39902 
L 733.231172 -297.738937 
L 730.934392 -296.078855 
L 728.637612 -294.418772 
L 726.340832 -292.758689 
L 724.044053 -291.098607 
L 721.747273 -289.438524 
L 719.450493 -287.778441 
L 717.153714 -286.118359 
L 714.856934 -284.458276 
L 712.560154 -282.798193 
L 710.263375 -281.168489 
L 707.966595 -279.541653 
L 705.669815 -277.917771 
L 703.373035 -276.296927 
L 701.076256 -274.679212 
L 698.779476 -273.064714 
L 696.482696 -271.898805 
L 694.185917 -270.291047 
L 691.889137 -268.686721 
L 689.592357 -267.085917 
L 687.295578 -265.933759 
L 684.998798 -264.827037 
L 682.702018 -263.678149 
L 680.405238 -262.53244 
L 678.108459 -261.389817 
L 675.811679 -259.838844 
L 673.514899 -258.287908 
L 671.21812 -256.771952 
L 668.92134 -255.329671 
L 666.62456 -254.22295 
L 664.327781 -252.637944 
L 662.031001 -251.087229 
L 659.734221 -249.536567 
L 657.437441 -247.985961 
L 655.140662 -246.435413 
L 652.843882 -244.884928 
L 650.547102 -243.365848 
L 648.250323 -241.815015 
L 645.953543 -240.264237 
L 643.656763 -238.683699 
L 641.359984 -237.108256 
L 639.063204 -235.538045 
L 636.766424 -233.973201 
L 634.469644 -232.413855 
L 632.172865 -230.860134 
L 629.876085 -229.312161 
L 627.579305 -227.770052 
L 625.282526 -226.233918 
L 622.985746 -224.703859 
L 620.688966 -223.179971 
L 618.392187 -221.662338 
L 616.095407 -220.151036 
L 613.798627 -218.646129 
L 611.501847 -217.147671 
L 609.205068 -215.655705 
L 606.908288 -214.170262 
L 604.611508 -212.691359 
L 602.314729 -211.219004 
L 600.017949 -209.753189 
L 597.721169 -208.293897 
L 595.42439 -207.238387 
L 593.12761 -205.788268 
L 590.83083 -204.344441 
L 588.53405 -202.906851 
L 586.237271 -201.475431 
L 583.940491 -200.430404 
L 581.643711 -199.386038 
L 579.346932 -198.342291 
L 577.050152 -197.062587 
L 574.753372 -196.170598 
L 572.456593 -195.230991 
L 570.159813 -193.963836 
L 567.863033 -192.698613 
L 565.566253 -191.78307 
L 563.269474 -190.92733 
L 560.972694 -190.077581 
L 558.675914 -189.4225 
L 556.379135 -188.723116 
L 554.082355 -187.982948 
L 551.785575 -187.287168 
L 549.488796 -186.553987 
L 547.192016 -185.825434 
L 544.895236 -185.101501 
L 542.598456 -184.382175 
L 540.301677 -183.667439 
L 538.004897 -182.957271 
L 535.708117 -181.826376 
L 533.411338 -180.697188 
L 531.114558 -179.569782 
L 528.817778 -178.872753 
L 526.520999 -178.180384 
L 524.224219 -177.06093 
L 521.927439 -176.507569 
L 519.630659 -175.954209 
L 517.33388 -175.400848 
L 515.0371 -174.847487 
L 512.74032 -174.294126 
L 510.443541 -173.309565 
L 508.146761 -172.325533 
L 505.849981 -171.342059 
L 503.553202 -170.359173 
L 501.256422 -169.376911 
L 498.959642 -168.395308 
L 496.662862 -167.435113 
L 494.366083 -166.480245 
L 492.069303 -165.503489 
L 489.772523 -164.527645 
L 487.475744 -163.582731 
L 485.178964 -162.610286 
L 482.882184 -161.638967 
L 480.585405 -160.668844 
L 478.288625 -159.699992 
L 475.991845 -158.695108 
L 473.695065 -157.727451 
L 471.398286 -156.761291 
L 469.101506 -155.796731 
L 466.804726 -154.833883 
L 464.507947 -154.238192 
L 462.211167 -153.233014 
L 459.914387 -152.227835 
L 457.617608 -151.222657 
L 455.320828 -150.628917 
L 453.024048 -149.623804 
L 450.727268 -148.6187 
L 448.430489 -148.027688 
L 446.133709 -147.439528 
L 443.836929 -146.854516 
L 441.54015 -146.272985 
L 439.24337 -145.695309 
L 436.94659 -145.27057 
L 434.649811 -144.847724 
L 432.353031 -144.427031 
L 430.056251 -144.008797 
L 427.759471 -143.593387 
L 425.462692 -143.181232 
L 423.165912 -142.772851 
L 420.869132 -142.368866 
L 418.572353 -141.970027 
L 416.275573 -141.57724 
L 413.978793 -141.57724 
L 411.682014 -141.57724 
L 409.385234 -141.191602 
L 407.088454 -140.814438 
L 404.791674 -140.814438 
L 402.494895 -140.814438 
L 400.198115 -140.814438 
L 397.901335 -140.814438 
L 395.604556 -140.814438 
L 393.307776 -140.814438 
L 391.010996 -140.881353 
L 388.714217 -140.881353 
L 386.417437 -140.881353 
L 384.120657 -140.881353 
L 381.823877 -140.881353 
L 379.527098 -140.881353 
L 377.230318 -140.881353 
L 374.933538 -140.881353 
L 372.636759 -140.881353 
L 370.339979 -140.881353 
L 368.043199 -140.881353 
L 365.74642 -140.881353 
L 363.44964 -140.881353 
L 361.15286 -140.881353 
L 358.85608 -140.881353 
L 356.559301 -140.881353 
L 354.262521 -140.881353 
L 351.965741 -140.881353 
L 349.668962 -140.881353 
L 347.372182 -140.638242 
L 345.075402 -140.414122 
L 342.778623 -140.209662 
L 340.481843 -140.025208 
L 338.185063 -139.860761 
L 335.888283 -139.715973 
L 333.591504 -139.590178 
L 331.294724 -139.482443 
L 328.997944 -139.391639 
L 326.701165 -139.316512 
L 324.404385 -139.316512 
L 322.107605 -139.255746 
L 319.810826 -139.255746 
L 317.514046 -139.255746 
L 315.217266 -138.810436 
L 312.920486 -138.810436 
L 310.623707 -138.810436 
L 308.326927 -138.810436 
L 306.030147 -138.810436 
L 303.733368 -138.365125 
L 301.436588 -137.919815 
L 299.139808 -137.474504 
L 296.843029 -137.029194 
L 294.546249 -136.583883 
L 292.249469 -136.138573 
L 289.952689 -135.693263 
L 287.65591 -135.247952 
L 285.35913 -134.802642 
L 283.06235 -134.357331 
L 280.765571 -133.912021 
L 278.468791 -133.46671 
L 276.172011 -133.0214 
L 273.875232 -133.0214 
L 271.578452 -133.0214 
L 269.281672 -132.576089 
L 266.984892 -132.576089 
L 264.688113 -132.576089 
L 262.391333 -132.576089 
L 260.094553 -132.576089 
L 257.797774 -132.576089 
L 255.500994 -132.576089 
L 253.204214 -132.576089 
L 250.907435 -132.576089 
L 248.610655 -132.576089 
L 246.313875 -132.576089 
L 244.017095 -132.576089 
L 241.720316 -132.576089 
L 239.423536 -132.576089 
L 237.126756 -132.576089 
L 234.829977 -132.576089 
L 232.533197 -132.576089 
L 230.236417 -132.576089 
L 227.939638 -132.576089 
L 225.642858 -132.576089 
L 223.346078 -132.576089 
L 221.049298 -132.576089 
L 218.752519 -132.576089 
L 216.455739 -132.576089 
L 214.158959 -132.576089 
L 211.86218 -132.576089 
L 209.5654 -132.576089 
L 207.26862 -132.576089 
L 204.971841 -132.576089 
L 202.675061 -132.576089 
L 200.378281 -132.576089 
L 198.081501 -132.576089 
L 195.784722 -132.576089 
L 193.487942 -132.576089 
L 191.191162 -132.576089 
L 188.894383 -132.576089 
L 186.597603 -132.576089 
L 184.300823 -132.576089 
L 182.004044 -132.576089 
L 179.707264 -132.576089 
L 177.410484 -132.576089 
L 175.113704 -132.576089 
L 172.816925 -132.576089 
L 170.520145 -132.576089 
L 168.223365 -132.576089 
L 165.926586 -132.576089 
L 163.629806 -132.576089 
L 161.333026 -132.576089 
L 159.036247 -132.576089 
L 156.739467 -132.576089 
L 154.442687 -132.576089 
L 152.145907 -132.576089 
L 149.849128 -132.576089 
L 147.552348 -132.576089 
L 145.255568 -132.576089 
L 142.958789 -132.576089 
z
" style="stroke: #ffa500; stroke-opacity: 0.3"/>
    </defs>
    <g clip-path="url(#pe5f18cf5eb)">
     <use xlink:href="#m52df96d4dc" x="0" y="432" style="fill: #ffa500; fill-opacity: 0.3; stroke: #ffa500; stroke-opacity: 0.3"/>
    </g>
   </g>
   <g id="matplotlib.axis_1">
    <g id="xtick_1">
     <g id="line2d_1">
      <defs>
       <path id="m4c2e64e594" d="M 0 0 
L 0 3.5 
" style="stroke: #000000; stroke-width: 0.8"/>
      </defs>
      <g>
       <use xlink:href="#m4c2e64e594" x="142.958789" y="354.76" style="stroke: #000000; stroke-width: 0.8"/>
      </g>
     </g>
     <g id="text_1">
      <!-- 0 -->
      <g transform="translate(135.958789 381.01) scale(0.28 -0.28)">
       <defs>
        <path id="SimHei-30" d="M 225 2537 
Q 250 3200 412 3587 
Q 575 3975 875 4225 
Q 1175 4475 1612 4475 
Q 2050 4475 2375 4112 
Q 2700 3750 2800 3200 
Q 2900 2650 2862 1937 
Q 2825 1225 2612 775 
Q 2400 325 1975 150 
Q 1550 -25 1125 187 
Q 700 400 525 750 
Q 350 1100 275 1487 
Q 200 1875 225 2537 
z
M 750 2687 
Q 675 2000 800 1462 
Q 925 925 1212 700 
Q 1500 475 1800 612 
Q 2100 750 2237 1162 
Q 2375 1575 2375 2062 
Q 2375 2550 2337 2950 
Q 2300 3350 2112 3675 
Q 1925 4000 1612 4012 
Q 1300 4025 1062 3700 
Q 825 3375 750 2687 
z
" transform="scale(0.015625)"/>
       </defs>
       <use xlink:href="#SimHei-30"/>
      </g>
     </g>
    </g>
    <g id="xtick_2">
     <g id="line2d_2">
      <g>
       <use xlink:href="#m4c2e64e594" x="257.797774" y="354.76" style="stroke: #000000; stroke-width: 0.8"/>
      </g>
     </g>
     <g id="text_2">
      <!-- 50 -->
      <g transform="translate(243.797774 381.01) scale(0.28 -0.28)">
       <defs>
        <path id="SimHei-35" d="M 550 1325 
Q 725 650 1150 575 
Q 1575 500 1837 662 
Q 2100 825 2212 1087 
Q 2325 1350 2312 1675 
Q 2300 2000 2137 2225 
Q 1975 2450 1725 2525 
Q 1475 2600 1162 2525 
Q 850 2450 650 2175 
L 225 2225 
Q 275 2375 700 4375 
L 2675 4375 
L 2675 3925 
L 1075 3925 
Q 950 3250 825 2850 
Q 1200 3025 1525 3012 
Q 1850 3000 2150 2862 
Q 2450 2725 2587 2487 
Q 2725 2250 2787 2012 
Q 2850 1775 2837 1500 
Q 2825 1225 2725 937 
Q 2625 650 2425 462 
Q 2225 275 1937 162 
Q 1650 50 1275 75 
Q 900 100 562 350 
Q 225 600 100 1200 
L 550 1325 
z
" transform="scale(0.015625)"/>
       </defs>
       <use xlink:href="#SimHei-35"/>
       <use xlink:href="#SimHei-30" x="50"/>
      </g>
     </g>
    </g>
    <g id="xtick_3">
     <g id="line2d_3">
      <g>
       <use xlink:href="#m4c2e64e594" x="372.636759" y="354.76" style="stroke: #000000; stroke-width: 0.8"/>
      </g>
     </g>
     <g id="text_3">
      <!-- 100 -->
      <g transform="translate(351.636759 381.01) scale(0.28 -0.28)">
       <defs>
        <path id="SimHei-31" d="M 1400 3600 
Q 1075 3275 575 2975 
L 575 3450 
Q 1200 3875 1600 4450 
L 1900 4450 
L 1900 150 
L 1400 150 
L 1400 3600 
z
" transform="scale(0.015625)"/>
       </defs>
       <use xlink:href="#SimHei-31"/>
       <use xlink:href="#SimHei-30" x="50"/>
       <use xlink:href="#SimHei-30" x="100"/>
      </g>
     </g>
    </g>
    <g id="xtick_4">
     <g id="line2d_4">
      <g>
       <use xlink:href="#m4c2e64e594" x="487.475744" y="354.76" style="stroke: #000000; stroke-width: 0.8"/>
      </g>
     </g>
     <g id="text_4">
      <!-- 150 -->
      <g transform="translate(466.475744 381.01) scale(0.28 -0.28)">
       <use xlink:href="#SimHei-31"/>
       <use xlink:href="#SimHei-35" x="50"/>
       <use xlink:href="#SimHei-30" x="100"/>
      </g>
     </g>
    </g>
    <g id="xtick_5">
     <g id="line2d_5">
      <g>
       <use xlink:href="#m4c2e64e594" x="602.314729" y="354.76" style="stroke: #000000; stroke-width: 0.8"/>
      </g>
     </g>
     <g id="text_5">
      <!-- 200 -->
      <g transform="translate(581.314729 381.01) scale(0.28 -0.28)">
       <defs>
        <path id="SimHei-32" d="M 300 250 
Q 325 625 650 925 
Q 975 1225 1475 1862 
Q 1975 2500 2125 2850 
Q 2275 3200 2237 3450 
Q 2200 3700 2000 3862 
Q 1800 4025 1537 4000 
Q 1275 3975 1037 3800 
Q 800 3625 675 3275 
L 200 3350 
Q 400 3925 712 4187 
Q 1025 4450 1450 4475 
Q 1700 4500 1900 4462 
Q 2100 4425 2312 4287 
Q 2525 4150 2662 3875 
Q 2800 3600 2762 3212 
Q 2725 2825 2375 2287 
Q 2025 1750 1025 600 
L 2825 600 
L 2825 150 
L 300 150 
L 300 250 
z
" transform="scale(0.015625)"/>
       </defs>
       <use xlink:href="#SimHei-32"/>
       <use xlink:href="#SimHei-30" x="50"/>
       <use xlink:href="#SimHei-30" x="100"/>
      </g>
     </g>
    </g>
    <g id="xtick_6">
     <g id="line2d_6">
      <g>
       <use xlink:href="#m4c2e64e594" x="717.153714" y="354.76" style="stroke: #000000; stroke-width: 0.8"/>
      </g>
     </g>
     <g id="text_6">
      <!-- 250 -->
      <g transform="translate(696.153714 381.01) scale(0.28 -0.28)">
       <use xlink:href="#SimHei-32"/>
       <use xlink:href="#SimHei-35" x="50"/>
       <use xlink:href="#SimHei-30" x="100"/>
      </g>
     </g>
    </g>
    <g id="xtick_7">
     <g id="line2d_7">
      <g>
       <use xlink:href="#m4c2e64e594" x="831.992699" y="354.76" style="stroke: #000000; stroke-width: 0.8"/>
      </g>
     </g>
     <g id="text_7">
      <!-- 300 -->
      <g transform="translate(810.992699 381.01) scale(0.28 -0.28)">
       <defs>
        <path id="SimHei-33" d="M 250 1225 
L 700 1300 
Q 800 975 1025 762 
Q 1250 550 1587 562 
Q 1925 575 2125 837 
Q 2325 1100 2300 1437 
Q 2275 1775 2037 1962 
Q 1800 2150 1275 2225 
L 1275 2550 
Q 1800 2600 2037 2825 
Q 2275 3050 2250 3412 
Q 2225 3775 1925 3937 
Q 1625 4100 1287 3975 
Q 950 3850 750 3275 
L 300 3350 
Q 450 3800 712 4100 
Q 975 4400 1425 4450 
Q 1875 4500 2212 4337 
Q 2550 4175 2687 3837 
Q 2825 3500 2725 3100 
Q 2625 2700 2150 2400 
Q 2500 2250 2687 1950 
Q 2875 1650 2812 1162 
Q 2750 675 2375 375 
Q 2000 75 1525 87 
Q 1050 100 700 387 
Q 350 675 250 1225 
z
" transform="scale(0.015625)"/>
       </defs>
       <use xlink:href="#SimHei-33"/>
       <use xlink:href="#SimHei-30" x="50"/>
       <use xlink:href="#SimHei-30" x="100"/>
      </g>
     </g>
    </g>
    <g id="text_8">
     <!-- Time Steps -->
     <g transform="translate(372.546676 416.3225) scale(0.4 -0.4)">
      <defs>
       <path id="SimHei-54" d="M 2850 3925 
L 1850 3925 
L 1850 125 
L 1275 125 
L 1275 3925 
L 275 3925 
L 275 4400 
L 2850 4400 
L 2850 3925 
z
" transform="scale(0.015625)"/>
       <path id="SimHei-69" d="M 1800 3725 
L 1300 3725 
L 1300 4375 
L 1800 4375 
L 1800 3725 
z
M 1800 125 
L 1300 125 
L 1300 2925 
L 1800 2925 
L 1800 125 
z
" transform="scale(0.015625)"/>
       <path id="SimHei-6d" d="M 3050 125 
L 2550 125 
L 2550 2150 
Q 2550 2300 2500 2400 
Q 2450 2500 2300 2500 
Q 2125 2500 1975 2312 
Q 1825 2125 1825 1825 
L 1825 125 
L 1325 125 
L 1325 2150 
Q 1325 2300 1275 2400 
Q 1225 2500 1075 2500 
Q 900 2500 750 2312 
Q 600 2125 600 1825 
L 600 125 
L 100 125 
L 100 2925 
L 600 2925 
L 600 2550 
Q 725 2750 900 2862 
Q 1075 2975 1275 2975 
Q 1475 2975 1612 2862 
Q 1750 2750 1800 2550 
Q 1925 2750 2087 2862 
Q 2250 2975 2450 2975 
Q 2750 2975 2900 2812 
Q 3050 2650 3050 2350 
L 3050 125 
z
" transform="scale(0.015625)"/>
       <path id="SimHei-65" d="M 2850 1075 
Q 2800 625 2450 350 
Q 2100 75 1625 75 
Q 1025 75 637 462 
Q 250 850 250 1525 
Q 250 2200 637 2587 
Q 1025 2975 1625 2975 
Q 2150 2975 2487 2637 
Q 2825 2300 2825 1525 
L 800 1525 
Q 800 975 1037 750 
Q 1275 525 1625 525 
Q 1900 525 2075 662 
Q 2250 800 2300 1075 
L 2850 1075 
z
M 2250 1925 
Q 2200 2275 2025 2412 
Q 1850 2550 1575 2550 
Q 1325 2550 1125 2412 
Q 925 2275 825 1925 
L 2250 1925 
z
" transform="scale(0.015625)"/>
       <path id="SimHei-20" transform="scale(0.015625)"/>
       <path id="SimHei-53" d="M 2900 1325 
Q 2900 750 2537 412 
Q 2175 75 1550 75 
Q 925 75 575 425 
Q 225 775 225 1300 
L 225 1475 
L 800 1475 
L 800 1325 
Q 800 950 1025 750 
Q 1250 550 1550 550 
Q 1950 550 2137 762 
Q 2325 975 2325 1275 
Q 2325 1525 2100 1737 
Q 1875 1950 1450 2125 
Q 850 2350 587 2625 
Q 325 2900 325 3275 
Q 325 3800 687 4125 
Q 1050 4450 1550 4450 
Q 2200 4450 2487 4062 
Q 2775 3675 2775 3225 
L 2200 3225 
Q 2225 3500 2050 3725 
Q 1875 3950 1550 3950 
Q 1250 3950 1075 3787 
Q 900 3625 900 3350 
Q 900 3125 1037 2962 
Q 1175 2800 1750 2575 
Q 2300 2350 2600 2037 
Q 2900 1725 2900 1325 
z
" transform="scale(0.015625)"/>
       <path id="SimHei-74" d="M 2750 200 
Q 2625 150 2462 112 
Q 2300 75 2025 75 
Q 1575 75 1300 325 
Q 1025 575 1025 1025 
L 1025 2525 
L 175 2525 
L 175 2925 
L 1025 2925 
L 1025 3900 
L 1525 3900 
L 1525 2925 
L 2550 2925 
L 2550 2525 
L 1525 2525 
L 1525 1000 
Q 1525 800 1625 662 
Q 1725 525 2000 525 
Q 2275 525 2450 575 
Q 2625 625 2750 700 
L 2750 200 
z
" transform="scale(0.015625)"/>
       <path id="SimHei-70" d="M 2825 1525 
Q 2825 800 2475 425 
Q 2125 50 1625 50 
Q 1350 50 1150 162 
Q 950 275 800 500 
L 800 -800 
L 300 -800 
L 300 2925 
L 800 2925 
L 800 2550 
Q 950 2775 1150 2875 
Q 1350 2975 1625 2975 
Q 2125 2975 2475 2612 
Q 2825 2250 2825 1525 
z
M 2275 1525 
Q 2275 2000 2087 2262 
Q 1900 2525 1525 2525 
Q 1225 2525 1012 2262 
Q 800 2000 800 1525 
Q 800 1050 1012 775 
Q 1225 500 1525 500 
Q 1900 500 2087 775 
Q 2275 1050 2275 1525 
z
" transform="scale(0.015625)"/>
       <path id="SimHei-73" d="M 2750 900 
Q 2750 500 2437 287 
Q 2125 75 1650 75 
Q 1050 75 725 312 
Q 400 550 400 1000 
L 900 1000 
Q 900 700 1112 600 
Q 1325 500 1625 500 
Q 1925 500 2075 612 
Q 2225 725 2225 900 
Q 2225 1025 2100 1150 
Q 1975 1275 1475 1350 
Q 900 1425 687 1637 
Q 475 1850 475 2200 
Q 475 2500 762 2737 
Q 1050 2975 1600 2975 
Q 2100 2975 2387 2750 
Q 2675 2525 2675 2150 
L 2175 2150 
Q 2175 2375 2012 2462 
Q 1850 2550 1600 2550 
Q 1275 2550 1137 2437 
Q 1000 2325 1000 2175 
Q 1000 2000 1125 1900 
Q 1250 1800 1650 1750 
Q 2300 1650 2525 1437 
Q 2750 1225 2750 900 
z
" transform="scale(0.015625)"/>
      </defs>
      <use xlink:href="#SimHei-54"/>
      <use xlink:href="#SimHei-69" x="50"/>
      <use xlink:href="#SimHei-6d" x="100"/>
      <use xlink:href="#SimHei-65" x="150"/>
      <use xlink:href="#SimHei-20" x="200"/>
      <use xlink:href="#SimHei-53" x="250"/>
      <use xlink:href="#SimHei-74" x="300"/>
      <use xlink:href="#SimHei-65" x="350"/>
      <use xlink:href="#SimHei-70" x="400"/>
      <use xlink:href="#SimHei-73" x="450"/>
     </g>
    </g>
   </g>
   <g id="matplotlib.axis_2">
    <g id="ytick_1">
     <g id="line2d_8">
      <defs>
       <path id="m08815857fa" d="M 0 0 
L -3.5 0 
" style="stroke: #000000; stroke-width: 0.8"/>
      </defs>
      <g>
       <use xlink:href="#m08815857fa" x="110" y="354.76" style="stroke: #000000; stroke-width: 0.8"/>
      </g>
     </g>
     <g id="text_9">
      <!-- -100 -->
      <g transform="translate(47 364.385) scale(0.28 -0.28)">
       <defs>
        <path id="SimHei-2d" d="M 2975 2125 
L 125 2125 
L 125 2525 
L 2975 2525 
L 2975 2125 
z
" transform="scale(0.015625)"/>
       </defs>
       <use xlink:href="#SimHei-2d"/>
       <use xlink:href="#SimHei-31" x="50"/>
       <use xlink:href="#SimHei-30" x="100"/>
       <use xlink:href="#SimHei-30" x="150"/>
      </g>
     </g>
    </g>
    <g id="ytick_2">
     <g id="line2d_9">
      <g>
       <use xlink:href="#m08815857fa" x="110" y="299.423911" style="stroke: #000000; stroke-width: 0.8"/>
      </g>
     </g>
     <g id="text_10">
      <!-- 0 -->
      <g transform="translate(89 309.048911) scale(0.28 -0.28)">
       <use xlink:href="#SimHei-30"/>
      </g>
     </g>
    </g>
    <g id="ytick_3">
     <g id="line2d_10">
      <g>
       <use xlink:href="#m08815857fa" x="110" y="244.087821" style="stroke: #000000; stroke-width: 0.8"/>
      </g>
     </g>
     <g id="text_11">
      <!-- 100 -->
      <g transform="translate(61 253.712821) scale(0.28 -0.28)">
       <use xlink:href="#SimHei-31"/>
       <use xlink:href="#SimHei-30" x="50"/>
       <use xlink:href="#SimHei-30" x="100"/>
      </g>
     </g>
    </g>
    <g id="ytick_4">
     <g id="line2d_11">
      <g>
       <use xlink:href="#m08815857fa" x="110" y="188.751732" style="stroke: #000000; stroke-width: 0.8"/>
      </g>
     </g>
     <g id="text_12">
      <!-- 200 -->
      <g transform="translate(61 198.376732) scale(0.28 -0.28)">
       <use xlink:href="#SimHei-32"/>
       <use xlink:href="#SimHei-30" x="50"/>
       <use xlink:href="#SimHei-30" x="100"/>
      </g>
     </g>
    </g>
    <g id="ytick_5">
     <g id="line2d_12">
      <g>
       <use xlink:href="#m08815857fa" x="110" y="133.415643" style="stroke: #000000; stroke-width: 0.8"/>
      </g>
     </g>
     <g id="text_13">
      <!-- 300 -->
      <g transform="translate(61 143.040643) scale(0.28 -0.28)">
       <use xlink:href="#SimHei-33"/>
       <use xlink:href="#SimHei-30" x="50"/>
       <use xlink:href="#SimHei-30" x="100"/>
      </g>
     </g>
    </g>
    <g id="ytick_6">
     <g id="line2d_13">
      <g>
       <use xlink:href="#m08815857fa" x="110" y="78.079553" style="stroke: #000000; stroke-width: 0.8"/>
      </g>
     </g>
     <g id="text_14">
      <!-- 400 -->
      <g transform="translate(61 87.704553) scale(0.28 -0.28)">
       <defs>
        <path id="SimHei-34" d="M 2000 1100 
L 75 1100 
L 75 1525 
L 2100 4450 
L 2475 4450 
L 2475 1525 
L 3075 1525 
L 3075 1100 
L 2475 1100 
L 2475 150 
L 2000 150 
L 2000 1100 
z
M 2000 1525 
L 2000 3500 
L 600 1525 
L 2000 1525 
z
" transform="scale(0.015625)"/>
       </defs>
       <use xlink:href="#SimHei-34"/>
       <use xlink:href="#SimHei-30" x="50"/>
       <use xlink:href="#SimHei-30" x="100"/>
      </g>
     </g>
    </g>
    <g id="ytick_7">
     <g id="line2d_14">
      <g>
       <use xlink:href="#m08815857fa" x="110" y="22.743464" style="stroke: #000000; stroke-width: 0.8"/>
      </g>
     </g>
     <g id="text_15">
      <!-- 500 -->
      <g transform="translate(61 32.368464) scale(0.28 -0.28)">
       <use xlink:href="#SimHei-35"/>
       <use xlink:href="#SimHei-30" x="50"/>
       <use xlink:href="#SimHei-30" x="100"/>
      </g>
     </g>
    </g>
    <g id="text_16">
     <!-- $m_{vct}$ -->
     <g transform="translate(35.8 224.38) rotate(-90) scale(0.4 -0.4)">
      <defs>
       <path id="DejaVuSans-Oblique-6d" d="M 5747 2113 
L 5338 0 
L 4763 0 
L 5166 2094 
Q 5191 2228 5203 2325 
Q 5216 2422 5216 2491 
Q 5216 2772 5059 2928 
Q 4903 3084 4622 3084 
Q 4203 3084 3875 2770 
Q 3547 2456 3450 1953 
L 3066 0 
L 2491 0 
L 2900 2094 
Q 2925 2209 2937 2307 
Q 2950 2406 2950 2484 
Q 2950 2769 2794 2926 
Q 2638 3084 2363 3084 
Q 1938 3084 1609 2770 
Q 1281 2456 1184 1953 
L 800 0 
L 225 0 
L 909 3500 
L 1484 3500 
L 1375 2956 
Q 1609 3263 1923 3423 
Q 2238 3584 2597 3584 
Q 2978 3584 3223 3384 
Q 3469 3184 3519 2828 
Q 3781 3197 4126 3390 
Q 4472 3584 4856 3584 
Q 5306 3584 5551 3325 
Q 5797 3066 5797 2591 
Q 5797 2488 5784 2364 
Q 5772 2241 5747 2113 
z
" transform="scale(0.015625)"/>
       <path id="DejaVuSans-Oblique-76" d="M 459 3500 
L 1069 3500 
L 1581 525 
L 3256 3500 
L 3866 3500 
L 1875 0 
L 1100 0 
L 459 3500 
z
" transform="scale(0.015625)"/>
       <path id="DejaVuSans-Oblique-63" d="M 3431 3366 
L 3316 2797 
Q 3109 2947 2876 3022 
Q 2644 3097 2394 3097 
Q 2119 3097 1870 3000 
Q 1622 2903 1453 2725 
Q 1184 2453 1037 2087 
Q 891 1722 891 1331 
Q 891 859 1127 628 
Q 1363 397 1844 397 
Q 2081 397 2348 469 
Q 2616 541 2906 684 
L 2797 116 
Q 2547 13 2283 -39 
Q 2019 -91 1741 -91 
Q 1044 -91 669 257 
Q 294 606 294 1253 
Q 294 1797 489 2255 
Q 684 2713 1069 3078 
Q 1331 3328 1684 3456 
Q 2038 3584 2456 3584 
Q 2700 3584 2940 3529 
Q 3181 3475 3431 3366 
z
" transform="scale(0.015625)"/>
       <path id="DejaVuSans-Oblique-74" d="M 2706 3500 
L 2619 3053 
L 1472 3053 
L 1100 1153 
Q 1081 1047 1072 975 
Q 1063 903 1063 863 
Q 1063 663 1183 572 
Q 1303 481 1569 481 
L 2150 481 
L 2053 0 
L 1503 0 
Q 991 0 739 200 
Q 488 400 488 806 
Q 488 878 497 964 
Q 506 1050 525 1153 
L 897 3053 
L 409 3053 
L 500 3500 
L 978 3500 
L 1172 4494 
L 1747 4494 
L 1556 3500 
L 2706 3500 
z
" transform="scale(0.015625)"/>
      </defs>
      <use xlink:href="#DejaVuSans-Oblique-6d"/>
      <use xlink:href="#DejaVuSans-Oblique-76" transform="translate(97.412109 -16.40625) scale(0.7)"/>
      <use xlink:href="#DejaVuSans-Oblique-63" transform="translate(138.837891 -16.40625) scale(0.7)"/>
      <use xlink:href="#DejaVuSans-Oblique-74" transform="translate(177.324219 -16.40625) scale(0.7)"/>
     </g>
    </g>
   </g>
   <g id="line2d_15">
    <path d="M 142.958789 299.423911 
L 542.598456 299.423911 
L 556.379135 298.317189 
L 558.675914 298.317189 
L 563.269474 297.948282 
L 721.747273 297.948282 
L 724.044053 297.763828 
L 730.934392 297.763828 
L 733.231172 297.579374 
L 749.308629 297.579374 
L 760.792528 296.657106 
L 802.134563 296.657106 
L 802.134563 296.657106 
" clip-path="url(#pe5f18cf5eb)" style="fill: none; stroke: #0000ff; stroke-width: 3; stroke-linecap: square"/>
   </g>
   <g id="line2d_16">
    <path d="M 142.958789 299.423911 
L 239.423536 299.423911 
L 244.017095 299.055003 
L 262.391333 296.103745 
L 276.172011 294.997024 
L 280.765571 294.259209 
L 285.35913 293.890302 
L 292.249469 292.78358 
L 315.217266 290.939044 
L 322.107605 290.939044 
L 324.404385 290.75459 
L 494.366083 290.75459 
L 503.553202 290.016775 
L 508.146761 289.278961 
L 510.443541 289.094507 
L 533.411338 285.405435 
L 542.598456 283.191991 
L 549.488796 282.085269 
L 558.675914 279.871826 
L 560.972694 279.502918 
L 583.940491 273.96931 
L 586.237271 273.231495 
L 588.53405 272.678134 
L 595.42439 270.464691 
L 600.017949 269.357969 
L 613.798627 264.931082 
L 616.095407 264.008813 
L 618.392187 263.270999 
L 622.985746 261.426463 
L 636.766424 254.786132 
L 662.031001 244.641182 
L 664.327781 243.53446 
L 666.62456 242.612192 
L 668.92134 241.321017 
L 673.514899 239.107573 
L 675.811679 238.185305 
L 678.108459 236.89413 
L 682.702018 234.680686 
L 684.998798 233.389511 
L 687.295578 231.913882 
L 712.560154 217.710952 
L 717.153714 215.497508 
L 719.450493 214.206333 
L 721.747273 212.54625 
L 726.340832 209.594992 
L 728.637612 208.303817 
L 730.934392 207.197095 
L 740.121511 202.032393 
L 742.41829 200.187857 
L 744.71507 198.527774 
L 747.01185 196.683238 
L 749.308629 194.654248 
L 751.605409 192.809712 
L 756.198969 189.489546 
L 758.495748 187.460557 
L 760.792528 185.61602 
L 763.089308 183.58703 
L 767.682867 179.160143 
L 774.573206 171.966452 
L 776.869986 169.937462 
L 779.166766 167.539564 
L 781.463545 165.510574 
L 802.134563 143.9295 
L 802.134563 143.9295 
" clip-path="url(#pe5f18cf5eb)" style="fill: none; stroke: #008000; stroke-width: 3; stroke-linecap: square"/>
   </g>
   <g id="line2d_17">
    <path d="M 142.958789 299.423911 
L 365.74642 299.423911 
L 370.339979 299.055003 
L 391.010996 295.734838 
L 404.791674 292.414673 
L 423.165912 286.512156 
L 430.056251 283.745352 
L 432.353031 282.63863 
L 450.727268 275.260485 
L 457.617608 271.94032 
L 462.211167 269.357969 
L 464.507947 268.251247 
L 521.927439 231.360521 
L 524.224219 229.700438 
L 526.520999 228.593716 
L 528.817778 226.933634 
L 533.411338 225.089097 
L 538.004897 222.875654 
L 542.598456 220.293303 
L 544.895236 219.186581 
L 558.675914 211.439529 
L 560.972694 210.332807 
L 567.863033 206.459281 
L 570.159813 204.983651 
L 602.314729 186.907196 
L 604.611508 185.800474 
L 611.501847 181.373587 
L 613.798627 180.082411 
L 616.095407 178.606782 
L 618.392187 177.315607 
L 622.985746 174.364349 
L 625.282526 173.073173 
L 627.579305 171.597544 
L 629.876085 170.306369 
L 655.140662 154.074449 
L 657.437441 152.414367 
L 662.031001 149.463109 
L 664.327781 147.803026 
L 666.62456 146.51185 
L 668.92134 145.036221 
L 687.295578 134.706818 
L 689.592357 133.231189 
L 691.889137 131.571106 
L 696.482696 128.619848 
L 710.263375 118.659352 
L 712.560154 117.183723 
L 717.153714 113.863558 
L 719.450493 112.019021 
L 721.747273 110.358939 
L 728.637612 106.485412 
L 733.231172 103.534154 
L 740.121511 99.660628 
L 763.089308 84.904338 
L 776.869986 74.943842 
L 786.057105 69.041325 
L 802.134563 60.003097 
L 802.134563 60.003097 
" clip-path="url(#pe5f18cf5eb)" style="fill: none; stroke: #ff0000; stroke-width: 3; stroke-linecap: square"/>
   </g>
   <g id="line2d_18">
    <path d="M 142.958789 299.423911 
L 269.281672 299.423911 
L 271.578452 299.239457 
L 276.172011 299.239457 
L 306.030147 296.84156 
L 315.217266 296.84156 
L 317.514046 296.657106 
L 322.107605 296.657106 
L 324.404385 296.472653 
L 326.701165 296.472653 
L 349.668962 294.628116 
L 391.010996 294.628116 
L 393.307776 294.443663 
L 407.088454 294.443663 
L 411.682014 294.074755 
L 416.275573 294.074755 
L 439.24337 292.230219 
L 450.727268 290.385683 
L 455.320828 289.278961 
L 457.617608 288.910054 
L 464.507947 287.249971 
L 466.804726 286.881064 
L 475.991845 283.929806 
L 478.288625 283.376445 
L 487.475744 280.425187 
L 489.772523 279.502918 
L 494.366083 278.027289 
L 498.959642 276.182753 
L 512.74032 271.755866 
L 524.224219 268.989062 
L 526.520999 268.066793 
L 531.114558 266.591164 
L 538.004897 263.82436 
L 551.785575 259.397473 
L 554.082355 258.475205 
L 556.379135 257.73739 
L 558.675914 256.815122 
L 560.972694 255.7084 
L 565.566253 253.126049 
L 567.863033 252.019327 
L 572.456593 249.068069 
L 574.753372 247.961348 
L 577.050152 246.670172 
L 579.346932 245.194543 
L 586.237271 241.321017 
L 595.42439 235.418501 
L 597.721169 234.127325 
L 645.953543 203.139115 
L 650.547102 200.556764 
L 652.843882 199.450043 
L 664.327781 192.994165 
L 666.62456 191.518536 
L 668.92134 190.411815 
L 671.21812 189.489546 
L 673.514899 188.382825 
L 684.998798 181.926948 
L 687.295578 180.820226 
L 689.592357 179.52905 
L 696.482696 175.102163 
L 698.779476 173.810988 
L 712.560154 164.957214 
L 735.527951 148.356387 
L 740.121511 144.667314 
L 747.01185 139.687066 
L 769.979647 121.241703 
L 772.276426 119.58162 
L 792.947444 102.980793 
L 795.244223 101.320711 
L 799.837783 97.631638 
L 802.134563 95.971555 
L 802.134563 95.971555 
" clip-path="url(#pe5f18cf5eb)" style="fill: none; stroke: #ffa500; stroke-width: 3; stroke-linecap: square"/>
   </g>
   <g id="patch_3">
    <path d="M 110 354.76 
L 110 10.8 
" style="fill: none; stroke: #000000; stroke-width: 0.8; stroke-linejoin: miter; stroke-linecap: square"/>
   </g>
   <g id="patch_4">
    <path d="M 835.093351 354.76 
L 835.093351 10.8 
" style="fill: none; stroke: #000000; stroke-width: 0.8; stroke-linejoin: miter; stroke-linecap: square"/>
   </g>
   <g id="patch_5">
    <path d="M 110 354.76 
L 835.093351 354.76 
" style="fill: none; stroke: #000000; stroke-width: 0.8; stroke-linejoin: miter; stroke-linecap: square"/>
   </g>
   <g id="patch_6">
    <path d="M 110 10.8 
L 835.093351 10.8 
" style="fill: none; stroke: #000000; stroke-width: 0.8; stroke-linejoin: miter; stroke-linecap: square"/>
   </g>
  </g>
 </g>
 <defs>
  <clipPath id="pe5f18cf5eb">
   <rect x="110" y="10.8" width="725.093351" height="343.96"/>
  </clipPath>
 </defs>
</svg>
