<?xml version="1.0" encoding="utf-8" standalone="no"?>
<!DOCTYPE svg PUBLIC "-//W3C//DTD SVG 1.1//EN"
  "http://www.w3.org/Graphics/SVG/1.1/DTD/svg11.dtd">
<svg xmlns:xlink="http://www.w3.org/1999/xlink" width="720pt" height="432pt" viewBox="0 0 720 432" xmlns="http://www.w3.org/2000/svg" version="1.1">
 <metadata>
  <rdf:RDF xmlns:dc="http://purl.org/dc/elements/1.1/" xmlns:cc="http://creativecommons.org/ns#" xmlns:rdf="http://www.w3.org/1999/02/22-rdf-syntax-ns#">
   <cc:Work>
    <dc:type rdf:resource="http://purl.org/dc/dcmitype/StillImage"/>
    <dc:date>2025-06-20T06:28:17.091427</dc:date>
    <dc:format>image/svg+xml</dc:format>
    <dc:creator>
     <cc:Agent>
      <dc:title>Matplotlib v3.7.1, https://matplotlib.org/</dc:title>
     </cc:Agent>
    </dc:creator>
   </cc:Work>
  </rdf:RDF>
 </metadata>
 <defs>
  <style type="text/css">*{stroke-linejoin: round; stroke-linecap: butt}</style>
 </defs>
 <g id="figure_1">
  <g id="patch_1">
   <path d="M 0 432 
L 720 432 
L 720 0 
L 0 0 
z
" style="fill: #ffffff"/>
  </g>
  <g id="axes_1">
   <g id="patch_2">
    <path d="M 114.23 343.96 
L 705.841396 343.96 
L 705.841396 10.8 
L 114.23 10.8 
z
" style="fill: #ffffff"/>
   </g>
   <g id="PolyCollection_1">
    <defs>
     <path id="mf44021fcec" d="M 141.121427 -267.004365 
L 141.121427 -247.60348 
L 144.361358 -224.085131 
L 147.601289 -212.095588 
L 150.84122 -193.503474 
L 154.081151 -188.034149 
L 157.321082 -178.01614 
L 160.561013 -182.033248 
L 163.800944 -174.880149 
L 167.040875 -161.33148 
L 170.280806 -160.767378 
L 173.520737 -167.253288 
L 176.760668 -181.809794 
L 180.000599 -175.49031 
L 183.24053 -175.48508 
L 186.480461 -165.67795 
L 189.720392 -162.838175 
L 192.960323 -153.4693 
L 196.200254 -160.414356 
L 199.440185 -153.502262 
L 202.680116 -158.464389 
L 205.920047 -144.712572 
L 209.159978 -135.497026 
L 212.399909 -136.649264 
L 215.63984 -144.984914 
L 218.879771 -153.963003 
L 222.119702 -139.922304 
L 225.359633 -130.491104 
L 228.599564 -129.905963 
L 231.839494 -138.46597 
L 235.079425 -141.438405 
L 238.319356 -139.990634 
L 241.559287 -137.407793 
L 244.799218 -150.47079 
L 248.039149 -147.279376 
L 251.27908 -140.357088 
L 254.519011 -144.439371 
L 257.758942 -130.111591 
L 260.998873 -130.426098 
L 264.238804 -135.146604 
L 267.478735 -164.589768 
L 270.718666 -146.877927 
L 273.958597 -150.915804 
L 277.198528 -156.791427 
L 280.438459 -155.443449 
L 283.67839 -135.533025 
L 286.918321 -139.561272 
L 290.158252 -136.757268 
L 293.398183 -143.11919 
L 296.638114 -141.100878 
L 299.878045 -153.126737 
L 303.117976 -153.468337 
L 306.357907 -148.618403 
L 309.597838 -144.51625 
L 312.837769 -133.375779 
L 316.0777 -142.878482 
L 319.317631 -133.264684 
L 322.557562 -137.93661 
L 325.797493 -131.609303 
L 329.037424 -133.07258 
L 332.277355 -133.087592 
L 335.517286 -149.395936 
L 338.757217 -140.358026 
L 341.997148 -132.494286 
L 345.237079 -134.306134 
L 348.47701 -127.732938 
L 351.716941 -136.063411 
L 354.956872 -143.396302 
L 358.196803 -147.723373 
L 361.436734 -141.043116 
L 364.676665 -135.328005 
L 367.916596 -133.123865 
L 371.156527 -130.34725 
L 374.396457 -143.502209 
L 377.636388 -142.527316 
L 380.876319 -135.59851 
L 384.11625 -140.309613 
L 387.356181 -146.670313 
L 390.596112 -137.80651 
L 393.836043 -131.782869 
L 397.075974 -152.917268 
L 400.315905 -147.052271 
L 403.555836 -147.731558 
L 406.795767 -146.364971 
L 410.035698 -133.812719 
L 413.275629 -136.340297 
L 416.51556 -135.196597 
L 419.755491 -124.859471 
L 422.995422 -143.647208 
L 426.235353 -138.138215 
L 429.475284 -140.979271 
L 432.715215 -137.473385 
L 435.955146 -136.624279 
L 439.195077 -131.015423 
L 442.435008 -136.697213 
L 445.674939 -131.931064 
L 448.91487 -125.659116 
L 452.154801 -124.164232 
L 455.394732 -123.727605 
L 458.634663 -127.293966 
L 461.874594 -119.960326 
L 465.114525 -120.617246 
L 468.354456 -118.930259 
L 471.594387 -136.641697 
L 474.834318 -130.964049 
L 478.074249 -134.638519 
L 481.31418 -138.341728 
L 484.554111 -131.733398 
L 487.794042 -123.498503 
L 491.033973 -127.906375 
L 494.273904 -123.093198 
L 497.513835 -121.571754 
L 500.753766 -135.307044 
L 503.993697 -122.718092 
L 507.233628 -140.02573 
L 510.473559 -126.90375 
L 513.71349 -108.619842 
L 516.953421 -127.947943 
L 520.193351 -131.379247 
L 523.433282 -134.888448 
L 526.673213 -137.257322 
L 529.913144 -126.263826 
L 533.153075 -126.84094 
L 536.393006 -148.093733 
L 539.632937 -142.434891 
L 542.872868 -136.874961 
L 546.112799 -143.674354 
L 549.35273 -138.271591 
L 552.592661 -130.486629 
L 555.832592 -125.59994 
L 559.072523 -121.710382 
L 562.312454 -103.183636 
L 565.552385 -115.07372 
L 568.792316 -118.948874 
L 572.032247 -115.824225 
L 575.272178 -118.047355 
L 578.512109 -117.128591 
L 581.75204 -107.960547 
L 584.991971 -117.077803 
L 588.231902 -120.906874 
L 591.471833 -117.518207 
L 594.711764 -116.302438 
L 597.951695 -120.652641 
L 601.191626 -124.436243 
L 604.431557 -108.006167 
L 607.671488 -126.40558 
L 610.911419 -136.272344 
L 614.15135 -126.891816 
L 617.391281 -118.192169 
L 620.631212 -125.572233 
L 623.871143 -119.739874 
L 627.111074 -122.522672 
L 630.351005 -118.975829 
L 633.590936 -121.119423 
L 636.830867 -125.820316 
L 640.070798 -128.940202 
L 643.310729 -125.95248 
L 646.55066 -130.435059 
L 649.790591 -118.429777 
L 653.030522 -121.736474 
L 656.270453 -110.406209 
L 659.510384 -108.000143 
L 662.750314 -116.594192 
L 665.990245 -119.368774 
L 669.230176 -117.35528 
L 672.470107 -116.406516 
L 675.710038 -131.351915 
L 678.949969 -123.707981 
L 678.949969 -148.776422 
L 678.949969 -148.776422 
L 675.710038 -145.793982 
L 672.470107 -148.674339 
L 669.230176 -143.886698 
L 665.990245 -153.938246 
L 662.750314 -146.841431 
L 659.510384 -141.999411 
L 656.270453 -149.190537 
L 653.030522 -162.538765 
L 649.790591 -156.24827 
L 646.55066 -147.807659 
L 643.310729 -160.790608 
L 640.070798 -142.721585 
L 636.830867 -143.922032 
L 633.590936 -137.928912 
L 630.351005 -136.507834 
L 627.111074 -132.686786 
L 623.871143 -138.211639 
L 620.631212 -136.492361 
L 617.391281 -150.179152 
L 614.15135 -162.593328 
L 610.911419 -165.552046 
L 607.671488 -166.370029 
L 604.431557 -176.543278 
L 601.191626 -182.872256 
L 597.951695 -149.638119 
L 594.711764 -147.133184 
L 591.471833 -144.820593 
L 588.231902 -144.173981 
L 584.991971 -162.810148 
L 581.75204 -145.603678 
L 578.512109 -160.565717 
L 575.272178 -145.388268 
L 572.032247 -155.837561 
L 568.792316 -152.712912 
L 565.552385 -193.880013 
L 562.312454 -202.753836 
L 559.072523 -156.806542 
L 555.832592 -161.143148 
L 552.592661 -151.046555 
L 549.35273 -141.067949 
L 546.112799 -163.35994 
L 542.872868 -141.916168 
L 539.632937 -144.856608 
L 536.393006 -176.215507 
L 533.153075 -137.96571 
L 529.913144 -141.83329 
L 526.673213 -142.63063 
L 523.433282 -137.047544 
L 520.193351 -150.428142 
L 516.953421 -138.229734 
L 513.71349 -139.186068 
L 510.473559 -143.93542 
L 507.233628 -148.911003 
L 503.993697 -147.572667 
L 500.753766 -142.935675 
L 497.513835 -162.97769 
L 494.273904 -149.391205 
L 491.033973 -166.240262 
L 487.794042 -161.873558 
L 484.554111 -167.897348 
L 481.31418 -151.417621 
L 478.074249 -138.6685 
L 474.834318 -146.456053 
L 471.594387 -160.5212 
L 468.354456 -204.83057 
L 465.114525 -187.788076 
L 461.874594 -179.67042 
L 458.634663 -155.610246 
L 455.394732 -166.031744 
L 452.154801 -153.25587 
L 448.91487 -159.438739 
L 445.674939 -157.279874 
L 442.435008 -160.73989 
L 439.195077 -149.96935 
L 435.955146 -142.441056 
L 432.715215 -144.334004 
L 429.475284 -152.344749 
L 426.235353 -159.024682 
L 422.995422 -169.419606 
L 419.755491 -183.545851 
L 416.51556 -169.644053 
L 413.275629 -161.919422 
L 410.035698 -168.560082 
L 406.795767 -177.670063 
L 403.555836 -204.272436 
L 400.315905 -189.047805 
L 397.075974 -190.586355 
L 393.836043 -238.044481 
L 390.596112 -210.358607 
L 387.356181 -225.899092 
L 384.11625 -209.500736 
L 380.876319 -214.21184 
L 377.636388 -183.427157 
L 374.396457 -193.146277 
L 371.156527 -170.654523 
L 367.916596 -172.265197 
L 364.676665 -193.916933 
L 361.436734 -197.799014 
L 358.196803 -178.505305 
L 354.956872 -169.944718 
L 351.716941 -160.002664 
L 348.47701 -163.671644 
L 345.237079 -162.582557 
L 341.997148 -156.168241 
L 338.757217 -160.917953 
L 335.517286 -165.590317 
L 332.277355 -163.252688 
L 329.037424 -165.461344 
L 325.797493 -157.875841 
L 322.557562 -149.35489 
L 319.317631 -167.188679 
L 316.0777 -171.010949 
L 312.837769 -171.739077 
L 309.597838 -177.050935 
L 306.357907 -180.626535 
L 303.117976 -168.921464 
L 299.878045 -165.698393 
L 296.638114 -153.868375 
L 293.398183 -155.140529 
L 290.158252 -158.211985 
L 286.918321 -159.246858 
L 283.67839 -165.742954 
L 280.438459 -160.913831 
L 277.198528 -171.9051 
L 273.958597 -161.328394 
L 270.718666 -165.640476 
L 267.478735 -177.268622 
L 264.238804 -165.85517 
L 260.998873 -172.76932 
L 257.758942 -154.163648 
L 254.519011 -160.675485 
L 251.27908 -161.193096 
L 248.039149 -158.932302 
L 244.799218 -164.241257 
L 241.559287 -158.932487 
L 238.319356 -155.252824 
L 235.079425 -160.66019 
L 231.839494 -154.035434 
L 228.599564 -163.692263 
L 225.359633 -161.736094 
L 222.119702 -161.627881 
L 218.879771 -158.281195 
L 215.63984 -172.743394 
L 212.399909 -167.642975 
L 209.159978 -161.391665 
L 205.920047 -177.951435 
L 202.680116 -186.136056 
L 199.440185 -166.145484 
L 196.200254 -170.20161 
L 192.960323 -170.017323 
L 189.720392 -172.439284 
L 186.480461 -193.455386 
L 183.24053 -188.583954 
L 180.000599 -198.998533 
L 176.760668 -207.211939 
L 173.520737 -200.654623 
L 170.280806 -196.720725 
L 167.040875 -197.253445 
L 163.800944 -220.722517 
L 160.561013 -211.649979 
L 157.321082 -224.167457 
L 154.081151 -209.213749 
L 150.84122 -236.923287 
L 147.601289 -234.783503 
L 144.361358 -250.488713 
L 141.121427 -267.004365 
z
" style="stroke: #0000ff; stroke-opacity: 0.3"/>
    </defs>
    <g clip-path="url(#p72b009f3ae)">
     <use xlink:href="#mf44021fcec" x="0" y="432" style="fill: #0000ff; fill-opacity: 0.3; stroke: #0000ff; stroke-opacity: 0.3"/>
    </g>
   </g>
   <g id="PolyCollection_2">
    <defs>
     <path id="m6380a07d8a" d="M 141.121427 -393.117391 
L 141.121427 -364.984924 
L 144.361358 -372.237521 
L 147.601289 -353.009705 
L 150.84122 -355.850697 
L 154.081151 -329.881847 
L 157.321082 -329.410709 
L 160.561013 -298.465811 
L 163.800944 -302.99817 
L 167.040875 -283.242543 
L 170.280806 -275.507341 
L 173.520737 -264.575096 
L 176.760668 -267.345033 
L 180.000599 -262.018344 
L 183.24053 -255.239025 
L 186.480461 -232.864384 
L 189.720392 -250.312289 
L 192.960323 -251.589841 
L 196.200254 -245.858623 
L 199.440185 -242.147472 
L 202.680116 -229.712244 
L 205.920047 -222.285759 
L 209.159978 -225.591266 
L 212.399909 -226.292298 
L 215.63984 -218.274325 
L 218.879771 -234.028026 
L 222.119702 -236.985833 
L 225.359633 -240.977005 
L 228.599564 -221.718181 
L 231.839494 -247.778868 
L 235.079425 -233.471218 
L 238.319356 -215.76547 
L 241.559287 -229.119912 
L 244.799218 -220.30436 
L 248.039149 -221.805477 
L 251.27908 -225.100365 
L 254.519011 -205.37379 
L 257.758942 -224.038924 
L 260.998873 -211.272427 
L 264.238804 -235.059819 
L 267.478735 -220.472768 
L 270.718666 -227.951844 
L 273.958597 -225.700625 
L 277.198528 -238.418292 
L 280.438459 -217.622812 
L 283.67839 -216.742619 
L 286.918321 -206.004147 
L 290.158252 -217.002309 
L 293.398183 -205.057055 
L 296.638114 -206.965688 
L 299.878045 -219.272974 
L 303.117976 -236.19991 
L 306.357907 -218.79448 
L 309.597838 -216.059697 
L 312.837769 -215.589987 
L 316.0777 -226.812688 
L 319.317631 -204.75595 
L 322.557562 -209.470305 
L 325.797493 -212.506896 
L 329.037424 -215.669153 
L 332.277355 -216.879975 
L 335.517286 -222.816522 
L 338.757217 -219.176432 
L 341.997148 -229.275659 
L 345.237079 -207.636512 
L 348.47701 -211.329627 
L 351.716941 -195.119507 
L 354.956872 -227.306523 
L 358.196803 -226.609677 
L 361.436734 -242.886362 
L 364.676665 -238.664186 
L 367.916596 -226.0303 
L 371.156527 -234.961846 
L 374.396457 -195.984891 
L 377.636388 -231.173553 
L 380.876319 -220.479295 
L 384.11625 -216.4214 
L 387.356181 -233.481547 
L 390.596112 -219.446932 
L 393.836043 -219.444379 
L 397.075974 -217.184489 
L 400.315905 -182.910944 
L 403.555836 -226.809635 
L 406.795767 -221.718908 
L 410.035698 -250.07586 
L 413.275629 -241.772487 
L 416.51556 -208.112412 
L 419.755491 -211.6343 
L 422.995422 -213.302516 
L 426.235353 -240.517522 
L 429.475284 -216.530184 
L 432.715215 -231.580747 
L 435.955146 -235.790076 
L 439.195077 -226.740596 
L 442.435008 -244.466639 
L 445.674939 -239.70103 
L 448.91487 -258.612702 
L 452.154801 -234.772133 
L 455.394732 -253.558205 
L 458.634663 -245.98509 
L 461.874594 -237.863279 
L 465.114525 -238.400148 
L 468.354456 -252.023878 
L 471.594387 -218.827631 
L 474.834318 -234.318598 
L 478.074249 -244.79305 
L 481.31418 -195.263603 
L 484.554111 -247.239842 
L 487.794042 -218.824865 
L 491.033973 -222.65123 
L 494.273904 -238.644658 
L 497.513835 -230.513507 
L 500.753766 -236.873511 
L 503.993697 -263.060644 
L 507.233628 -233.168261 
L 510.473559 -241.481779 
L 513.71349 -238.132038 
L 516.953421 -243.040122 
L 520.193351 -237.104025 
L 523.433282 -228.263146 
L 526.673213 -243.769134 
L 529.913144 -219.452785 
L 533.153075 -245.29779 
L 536.393006 -233.007696 
L 539.632937 -230.628899 
L 542.872868 -240.895493 
L 546.112799 -266.509055 
L 549.35273 -260.035595 
L 552.592661 -248.145392 
L 555.832592 -253.003156 
L 559.072523 -253.928584 
L 562.312454 -276.370576 
L 565.552385 -284.296534 
L 568.792316 -261.213576 
L 572.032247 -270.638784 
L 575.272178 -233.397822 
L 578.512109 -253.454226 
L 581.75204 -234.677353 
L 584.991971 -260.593509 
L 588.231902 -253.22163 
L 591.471833 -251.165845 
L 594.711764 -244.398401 
L 597.951695 -265.948781 
L 601.191626 -247.681492 
L 604.431557 -254.75907 
L 607.671488 -255.259098 
L 610.911419 -274.253576 
L 614.15135 -253.728373 
L 617.391281 -250.247618 
L 620.631212 -267.566477 
L 623.871143 -232.339011 
L 627.111074 -240.072673 
L 630.351005 -249.090862 
L 633.590936 -225.654725 
L 636.830867 -229.410307 
L 640.070798 -248.697748 
L 643.310729 -258.560718 
L 646.55066 -235.908879 
L 649.790591 -227.431293 
L 653.030522 -213.687766 
L 656.270453 -238.167834 
L 659.510384 -226.185208 
L 662.750314 -219.014028 
L 665.990245 -236.612104 
L 669.230176 -208.474835 
L 672.470107 -213.772546 
L 675.710038 -237.966425 
L 678.949969 -227.736641 
L 678.949969 -260.547478 
L 678.949969 -260.547478 
L 675.710038 -253.608159 
L 672.470107 -239.961682 
L 669.230176 -251.566119 
L 665.990245 -266.479111 
L 662.750314 -237.73646 
L 659.510384 -262.647321 
L 656.270453 -259.713476 
L 653.030522 -253.48253 
L 649.790591 -278.676182 
L 646.55066 -270.747007 
L 643.310729 -284.016086 
L 640.070798 -305.121481 
L 636.830867 -318.650607 
L 633.590936 -291.969381 
L 630.351005 -310.760888 
L 627.111074 -314.020762 
L 623.871143 -307.769944 
L 620.631212 -304.898725 
L 617.391281 -276.425268 
L 614.15135 -288.30002 
L 610.911419 -311.099284 
L 607.671488 -266.47809 
L 604.431557 -285.349885 
L 601.191626 -284.201298 
L 597.951695 -283.757366 
L 594.711764 -302.291485 
L 591.471833 -271.393959 
L 588.231902 -269.063969 
L 584.991971 -303.371323 
L 581.75204 -287.608245 
L 578.512109 -284.735291 
L 575.272178 -286.968339 
L 572.032247 -311.972021 
L 568.792316 -313.99368 
L 565.552385 -312.572956 
L 562.312454 -314.466393 
L 559.072523 -308.939426 
L 555.832592 -301.364484 
L 552.592661 -292.786179 
L 549.35273 -287.202703 
L 546.112799 -273.325695 
L 542.872868 -284.954777 
L 539.632937 -274.107549 
L 536.393006 -267.341464 
L 533.153075 -268.213233 
L 529.913144 -268.282923 
L 526.673213 -248.628067 
L 523.433282 -280.86059 
L 520.193351 -281.891107 
L 516.953421 -279.793887 
L 513.71349 -272.362724 
L 510.473559 -281.626436 
L 507.233628 -280.342762 
L 503.993697 -274.854667 
L 500.753766 -281.573211 
L 497.513835 -273.67453 
L 494.273904 -257.043008 
L 491.033973 -269.745971 
L 487.794042 -260.136267 
L 484.554111 -273.674729 
L 481.31418 -248.325021 
L 478.074249 -278.04096 
L 474.834318 -263.288507 
L 471.594387 -283.989378 
L 468.354456 -272.72957 
L 465.114525 -263.594245 
L 461.874594 -282.228676 
L 458.634663 -274.106865 
L 455.394732 -290.389626 
L 452.154801 -283.674588 
L 448.91487 -289.174007 
L 445.674939 -252.696171 
L 442.435008 -269.044384 
L 439.195077 -267.576044 
L 435.955146 -279.091975 
L 432.715215 -261.090659 
L 429.475284 -264.076181 
L 426.235353 -271.348268 
L 422.995422 -230.83452 
L 419.755491 -265.133188 
L 416.51556 -228.621076 
L 413.275629 -284.900399 
L 410.035698 -254.934793 
L 406.795767 -242.983539 
L 403.555836 -244.199538 
L 400.315905 -256.564599 
L 397.075974 -245.872725 
L 393.836043 -267.468712 
L 390.596112 -275.966529 
L 387.356181 -244.108558 
L 384.11625 -236.764417 
L 380.876319 -268.079029 
L 377.636388 -270.546634 
L 374.396457 -258.297748 
L 371.156527 -271.419834 
L 367.916596 -256.495504 
L 364.676665 -247.700494 
L 361.436734 -254.994948 
L 358.196803 -251.254633 
L 354.956872 -256.041897 
L 351.716941 -266.840885 
L 348.47701 -267.083094 
L 345.237079 -255.420702 
L 341.997148 -262.298926 
L 338.757217 -248.26807 
L 335.517286 -265.467596 
L 332.277355 -267.016856 
L 329.037424 -254.517403 
L 325.797493 -235.194811 
L 322.557562 -253.861115 
L 319.317631 -280.237703 
L 316.0777 -243.099663 
L 312.837769 -279.000858 
L 309.597838 -246.1749 
L 306.357907 -238.230214 
L 303.117976 -241.938606 
L 299.878045 -227.057706 
L 296.638114 -235.800321 
L 293.398183 -245.386707 
L 290.158252 -245.506494 
L 286.918321 -255.133629 
L 283.67839 -245.217773 
L 280.438459 -251.466923 
L 277.198528 -242.736484 
L 273.958597 -255.179946 
L 270.718666 -255.944987 
L 267.478735 -245.874912 
L 264.238804 -248.014396 
L 260.998873 -250.413759 
L 257.758942 -270.826126 
L 254.519011 -254.392958 
L 251.27908 -261.264315 
L 248.039149 -245.364819 
L 244.799218 -265.786115 
L 241.559287 -244.631316 
L 238.319356 -271.970237 
L 235.079425 -274.007285 
L 231.839494 -280.539252 
L 228.599564 -265.743321 
L 225.359633 -252.242813 
L 222.119702 -252.395108 
L 218.879771 -261.385435 
L 215.63984 -271.655027 
L 212.399909 -282.557232 
L 209.159978 -270.919017 
L 205.920047 -281.079661 
L 202.680116 -272.282149 
L 199.440185 -264.234209 
L 196.200254 -261.071468 
L 192.960323 -271.518374 
L 189.720392 -281.296296 
L 186.480461 -270.226831 
L 183.24053 -277.740588 
L 180.000599 -276.171173 
L 176.760668 -289.216251 
L 173.520737 -312.277394 
L 170.280806 -303.812998 
L 167.040875 -331.998715 
L 163.800944 -330.88906 
L 160.561013 -324.4532 
L 157.321082 -339.574823 
L 154.081151 -354.733397 
L 150.84122 -369.621164 
L 147.601289 -371.639541 
L 144.361358 -397.107218 
L 141.121427 -393.117391 
z
" style="stroke: #008000; stroke-opacity: 0.3"/>
    </defs>
    <g clip-path="url(#p72b009f3ae)">
     <use xlink:href="#m6380a07d8a" x="0" y="432" style="fill: #008000; fill-opacity: 0.3; stroke: #008000; stroke-opacity: 0.3"/>
    </g>
   </g>
   <g id="PolyCollection_3">
    <defs>
     <path id="m6d57719d01" d="M 141.121427 -403.852974 
L 141.121427 -401.138478 
L 144.361358 -377.735248 
L 147.601289 -399.847764 
L 150.84122 -362.14353 
L 154.081151 -367.50766 
L 157.321082 -375.393086 
L 160.561013 -336.74222 
L 163.800944 -379.797497 
L 167.040875 -355.622732 
L 170.280806 -353.73656 
L 173.520737 -313.55237 
L 176.760668 -322.886772 
L 180.000599 -293.322682 
L 183.24053 -329.281883 
L 186.480461 -304.940785 
L 189.720392 -337.693175 
L 192.960323 -279.863091 
L 196.200254 -305.823534 
L 199.440185 -310.277355 
L 202.680116 -312.478379 
L 205.920047 -259.808788 
L 209.159978 -279.496464 
L 212.399909 -280.673599 
L 215.63984 -284.99839 
L 218.879771 -265.653123 
L 222.119702 -280.728717 
L 225.359633 -267.381033 
L 228.599564 -262.787745 
L 231.839494 -282.817833 
L 235.079425 -251.424362 
L 238.319356 -268.549404 
L 241.559287 -259.653869 
L 244.799218 -286.419807 
L 248.039149 -274.12357 
L 251.27908 -264.47766 
L 254.519011 -266.747581 
L 257.758942 -283.041649 
L 260.998873 -268.461712 
L 264.238804 -262.106268 
L 267.478735 -274.32317 
L 270.718666 -267.738895 
L 273.958597 -275.016756 
L 277.198528 -282.122575 
L 280.438459 -305.542929 
L 283.67839 -262.166401 
L 286.918321 -269.470149 
L 290.158252 -266.193463 
L 293.398183 -258.449176 
L 296.638114 -283.373623 
L 299.878045 -250.67733 
L 303.117976 -247.044453 
L 306.357907 -279.983357 
L 309.597838 -267.489192 
L 312.837769 -255.332423 
L 316.0777 -260.653542 
L 319.317631 -270.46815 
L 322.557562 -252.21567 
L 325.797493 -251.831921 
L 329.037424 -237.291651 
L 332.277355 -230.893196 
L 335.517286 -220.298983 
L 338.757217 -228.767758 
L 341.997148 -235.119858 
L 345.237079 -241.518313 
L 348.47701 -218.552278 
L 351.716941 -230.906976 
L 354.956872 -207.885823 
L 358.196803 -212.398106 
L 361.436734 -213.193163 
L 364.676665 -186.212174 
L 367.916596 -226.723324 
L 371.156527 -208.69466 
L 374.396457 -209.716877 
L 377.636388 -197.685794 
L 380.876319 -205.247604 
L 384.11625 -178.791503 
L 387.356181 -202.270318 
L 390.596112 -196.878629 
L 393.836043 -205.077235 
L 397.075974 -200.0313 
L 400.315905 -199.41872 
L 403.555836 -203.815751 
L 406.795767 -198.128005 
L 410.035698 -205.273491 
L 413.275629 -194.324759 
L 416.51556 -181.176676 
L 419.755491 -189.191132 
L 422.995422 -208.073315 
L 426.235353 -199.744007 
L 429.475284 -195.231725 
L 432.715215 -225.246789 
L 435.955146 -209.642964 
L 439.195077 -210.112734 
L 442.435008 -209.090517 
L 445.674939 -216.117003 
L 448.91487 -186.578801 
L 452.154801 -211.431007 
L 455.394732 -191.118642 
L 458.634663 -184.861327 
L 461.874594 -195.443433 
L 465.114525 -204.36987 
L 468.354456 -192.581398 
L 471.594387 -205.166599 
L 474.834318 -185.940333 
L 478.074249 -188.012326 
L 481.31418 -195.248848 
L 484.554111 -188.64745 
L 487.794042 -174.54939 
L 491.033973 -192.693306 
L 494.273904 -166.751657 
L 497.513835 -171.981741 
L 500.753766 -159.589048 
L 503.993697 -170.350287 
L 507.233628 -161.387527 
L 510.473559 -173.045296 
L 513.71349 -169.742722 
L 516.953421 -184.525603 
L 520.193351 -185.718189 
L 523.433282 -181.247245 
L 526.673213 -173.403158 
L 529.913144 -184.876778 
L 533.153075 -204.722716 
L 536.393006 -176.537034 
L 539.632937 -192.280326 
L 542.872868 -196.720368 
L 546.112799 -191.459381 
L 549.35273 -185.19163 
L 552.592661 -212.210613 
L 555.832592 -185.869764 
L 559.072523 -183.388135 
L 562.312454 -201.60262 
L 565.552385 -174.933139 
L 568.792316 -188.624906 
L 572.032247 -169.584461 
L 575.272178 -184.893901 
L 578.512109 -191.092755 
L 581.75204 -183.02318 
L 584.991971 -198.668344 
L 588.231902 -189.60244 
L 591.471833 -175.858899 
L 594.711764 -193.858333 
L 597.951695 -195.08015 
L 601.191626 -207.777259 
L 604.431557 -184.398244 
L 607.671488 -194.96657 
L 610.911419 -181.52243 
L 614.15135 -183.646197 
L 617.391281 -204.275085 
L 620.631212 -189.734815 
L 623.871143 -181.620558 
L 627.111074 -189.95863 
L 630.351005 -205.169942 
L 633.590936 -205.989215 
L 636.830867 -216.175464 
L 640.070798 -200.046751 
L 643.310729 -201.624758 
L 646.55066 -206.219718 
L 649.790591 -185.098516 
L 653.030522 -209.698369 
L 656.270453 -207.130719 
L 659.510384 -198.87296 
L 662.750314 -218.856693 
L 665.990245 -208.556865 
L 669.230176 -207.220776 
L 672.470107 -210.861724 
L 675.710038 -219.406776 
L 678.949969 -204.222331 
L 678.949969 -230.591719 
L 678.949969 -230.591719 
L 675.710038 -219.794561 
L 672.470107 -225.597558 
L 669.230176 -226.222246 
L 665.990245 -239.967459 
L 662.750314 -230.490247 
L 659.510384 -209.343158 
L 656.270453 -227.68333 
L 653.030522 -226.760914 
L 649.790591 -213.794615 
L 646.55066 -217.077701 
L 643.310729 -210.156031 
L 640.070798 -233.396271 
L 636.830867 -232.074654 
L 633.590936 -240.889875 
L 630.351005 -217.579066 
L 627.111074 -250.065323 
L 623.871143 -231.257053 
L 620.631212 -228.901111 
L 617.391281 -225.603266 
L 614.15135 -250.345236 
L 610.911419 -223.403222 
L 607.671488 -246.154205 
L 604.431557 -248.770573 
L 601.191626 -236.085572 
L 597.951695 -245.492215 
L 594.711764 -258.230662 
L 591.471833 -247.986931 
L 588.231902 -260.567116 
L 584.991971 -249.855979 
L 581.75204 -242.742088 
L 578.512109 -254.689514 
L 575.272178 -254.307436 
L 572.032247 -278.939863 
L 568.792316 -252.221664 
L 565.552385 -273.042773 
L 562.312454 -263.648238 
L 559.072523 -268.70086 
L 555.832592 -273.896985 
L 552.592661 -280.460793 
L 549.35273 -255.380735 
L 546.112799 -269.404189 
L 542.872868 -280.869737 
L 539.632937 -281.470902 
L 536.393006 -266.50318 
L 533.153075 -267.93169 
L 529.913144 -274.067354 
L 526.673213 -259.491453 
L 523.433282 -261.518763 
L 520.193351 -243.885956 
L 516.953421 -250.836857 
L 513.71349 -263.974505 
L 510.473559 -281.237343 
L 507.233628 -264.926152 
L 503.993697 -280.093475 
L 500.753766 -244.513988 
L 497.513835 -279.010432 
L 494.273904 -250.513241 
L 491.033973 -270.638114 
L 487.794042 -278.088016 
L 484.554111 -291.410505 
L 481.31418 -255.743325 
L 478.074249 -269.834984 
L 474.834318 -276.294265 
L 471.594387 -240.067259 
L 468.354456 -260.056008 
L 465.114525 -255.94529 
L 461.874594 -282.695083 
L 458.634663 -282.583175 
L 455.394732 -271.390161 
L 452.154801 -276.578906 
L 448.91487 -275.381592 
L 445.674939 -243.649746 
L 442.435008 -276.177341 
L 439.195077 -270.219426 
L 435.955146 -281.38321 
L 432.715215 -280.312275 
L 429.475284 -275.503243 
L 426.235353 -266.055262 
L 422.995422 -248.402967 
L 419.755491 -260.155808 
L 416.51556 -259.121483 
L 413.275629 -269.555071 
L 410.035698 -284.381655 
L 406.795767 -258.622483 
L 403.555836 -261.983518 
L 400.315905 -259.525412 
L 397.075974 -241.912092 
L 393.836043 -268.673993 
L 390.596112 -265.904379 
L 387.356181 -256.948019 
L 384.11625 -273.023286 
L 380.876319 -267.681007 
L 377.636388 -275.242817 
L 374.396457 -261.292297 
L 371.156527 -267.250212 
L 367.916596 -271.706397 
L 364.676665 -260.666916 
L 361.436734 -255.073955 
L 358.196803 -259.707889 
L 354.956872 -269.155871 
L 351.716941 -278.21676 
L 348.47701 -274.393334 
L 345.237079 -272.541122 
L 341.997148 -278.939576 
L 338.757217 -259.790567 
L 335.517286 -261.404205 
L 332.277355 -275.488484 
L 329.037424 -269.09003 
L 325.797493 -265.792185 
L 322.557562 -260.746942 
L 319.317631 -286.36734 
L 316.0777 -276.164947 
L 312.837769 -287.518587 
L 309.597838 -286.878448 
L 306.357907 -306.74053 
L 303.117976 -313.355708 
L 299.878045 -303.416105 
L 296.638114 -306.64073 
L 293.398183 -314.290232 
L 290.158252 -319.707808 
L 286.918321 -320.269999 
L 283.67839 -309.476185 
L 280.438459 -320.666548 
L 277.198528 -325.166723 
L 273.958597 -318.836474 
L 270.718666 -324.743307 
L 267.478735 -308.836045 
L 264.238804 -332.295373 
L 260.998873 -328.956189 
L 257.758942 -345.087267 
L 254.519011 -313.66958 
L 251.27908 -315.665295 
L 248.039149 -315.616577 
L 244.799218 -331.015095 
L 241.559287 -321.311703 
L 238.319356 -311.593552 
L 235.079425 -335.573731 
L 231.839494 -323.923055 
L 228.599564 -328.32343 
L 225.359633 -346.489197 
L 222.119702 -350.142253 
L 218.879771 -328.474312 
L 215.63984 -350.534074 
L 212.399909 -339.229151 
L 209.159978 -337.664231 
L 205.920047 -328.834538 
L 202.680116 -327.989783 
L 199.440185 -343.626875 
L 196.200254 -341.499765 
L 192.960323 -352.378907 
L 189.720392 -339.244316 
L 186.480461 -363.496337 
L 183.24053 -367.672609 
L 180.000599 -366.614069 
L 176.760668 -351.58287 
L 173.520737 -355.433162 
L 170.280806 -371.18689 
L 167.040875 -374.236417 
L 163.800944 -384.063133 
L 160.561013 -374.745162 
L 157.321082 -399.435763 
L 154.081151 -389.223627 
L 150.84122 -403.636537 
L 147.601289 -402.950044 
L 144.361358 -388.593231 
L 141.121427 -403.852974 
z
" style="stroke: #ff0000; stroke-opacity: 0.3"/>
    </defs>
    <g clip-path="url(#p72b009f3ae)">
     <use xlink:href="#m6d57719d01" x="0" y="432" style="fill: #ff0000; fill-opacity: 0.3; stroke: #ff0000; stroke-opacity: 0.3"/>
    </g>
   </g>
   <g id="PolyCollection_4">
    <defs>
     <path id="m1d8d5cf745" d="M 141.121427 -406.056364 
L 141.121427 -392.079951 
L 144.361358 -373.923485 
L 147.601289 -359.739271 
L 150.84122 -350.415985 
L 154.081151 -338.159109 
L 157.321082 -324.20708 
L 160.561013 -325.615389 
L 163.800944 -326.922019 
L 167.040875 -330.45516 
L 170.280806 -301.922253 
L 173.520737 -295.346607 
L 176.760668 -282.563905 
L 180.000599 -302.040967 
L 183.24053 -295.698765 
L 186.480461 -279.780415 
L 189.720392 -305.353541 
L 192.960323 -294.459572 
L 196.200254 -317.56618 
L 199.440185 -280.507198 
L 202.680116 -299.897932 
L 205.920047 -284.082626 
L 209.159978 -290.310373 
L 212.399909 -293.541118 
L 215.63984 -285.119742 
L 218.879771 -279.219742 
L 222.119702 -289.435602 
L 225.359633 -269.18499 
L 228.599564 -276.113945 
L 231.839494 -278.209098 
L 235.079425 -277.688473 
L 238.319356 -266.833656 
L 241.559287 -266.660117 
L 244.799218 -279.043808 
L 248.039149 -268.917476 
L 251.27908 -291.734761 
L 254.519011 -253.816791 
L 257.758942 -286.937194 
L 260.998873 -255.81174 
L 264.238804 -285.279839 
L 267.478735 -271.730155 
L 270.718666 -297.790732 
L 273.958597 -277.992732 
L 277.198528 -278.449315 
L 280.438459 -276.961436 
L 283.67839 -274.585461 
L 286.918321 -272.515863 
L 290.158252 -256.05287 
L 293.398183 -279.164681 
L 296.638114 -272.818765 
L 299.878045 -286.867847 
L 303.117976 -280.918757 
L 306.357907 -286.449328 
L 309.597838 -276.529992 
L 312.837769 -255.375105 
L 316.0777 -254.283416 
L 319.317631 -262.562972 
L 322.557562 -264.779832 
L 325.797493 -247.079929 
L 329.037424 -247.699115 
L 332.277355 -240.031851 
L 335.517286 -248.430548 
L 338.757217 -240.734668 
L 341.997148 -251.482404 
L 345.237079 -255.648194 
L 348.47701 -248.034934 
L 351.716941 -244.933548 
L 354.956872 -253.607228 
L 358.196803 -227.621288 
L 361.436734 -264.294568 
L 364.676665 -239.498744 
L 367.916596 -245.042151 
L 371.156527 -228.115628 
L 374.396457 -228.380656 
L 377.636388 -252.471536 
L 380.876319 -258.498261 
L 384.11625 -237.685836 
L 387.356181 -243.039902 
L 390.596112 -263.653781 
L 393.836043 -247.178408 
L 397.075974 -252.43567 
L 400.315905 -254.740309 
L 403.555836 -250.905355 
L 406.795767 -243.233811 
L 410.035698 -261.510247 
L 413.275629 -269.382065 
L 416.51556 -265.903356 
L 419.755491 -270.370729 
L 422.995422 -272.664711 
L 426.235353 -264.321116 
L 429.475284 -270.894657 
L 432.715215 -265.852638 
L 435.955146 -256.72921 
L 439.195077 -243.642739 
L 442.435008 -247.891407 
L 445.674939 -242.763904 
L 448.91487 -241.261632 
L 452.154801 -249.082726 
L 455.394732 -243.823013 
L 458.634663 -251.22539 
L 461.874594 -243.549917 
L 465.114525 -229.983528 
L 468.354456 -244.762277 
L 471.594387 -242.209123 
L 474.834318 -240.814944 
L 478.074249 -259.972591 
L 481.31418 -258.545066 
L 484.554111 -243.233162 
L 487.794042 -238.93823 
L 491.033973 -243.426166 
L 494.273904 -223.817616 
L 497.513835 -240.799297 
L 500.753766 -230.444972 
L 503.993697 -241.996462 
L 507.233628 -246.923781 
L 510.473559 -258.144354 
L 513.71349 -247.219899 
L 516.953421 -246.070641 
L 520.193351 -257.887964 
L 523.433282 -236.534428 
L 526.673213 -252.487949 
L 529.913144 -237.34495 
L 533.153075 -259.994462 
L 536.393006 -245.431288 
L 539.632937 -241.132857 
L 542.872868 -247.728324 
L 546.112799 -247.448617 
L 549.35273 -245.157426 
L 552.592661 -240.861119 
L 555.832592 -247.556699 
L 559.072523 -242.884632 
L 562.312454 -233.248877 
L 565.552385 -256.369474 
L 568.792316 -241.280427 
L 572.032247 -226.169642 
L 575.272178 -244.09426 
L 578.512109 -238.910381 
L 581.75204 -226.231871 
L 584.991971 -245.840022 
L 588.231902 -246.530551 
L 591.471833 -238.435115 
L 594.711764 -235.50862 
L 597.951695 -238.710737 
L 601.191626 -212.444028 
L 604.431557 -242.589165 
L 607.671488 -227.209353 
L 610.911419 -229.912856 
L 614.15135 -250.53394 
L 617.391281 -248.105263 
L 620.631212 -239.51329 
L 623.871143 -268.779907 
L 627.111074 -257.539664 
L 630.351005 -254.530622 
L 633.590936 -249.697055 
L 636.830867 -255.007064 
L 640.070798 -256.521295 
L 643.310729 -265.827537 
L 646.55066 -254.361056 
L 649.790591 -229.384268 
L 653.030522 -247.047084 
L 656.270453 -230.926574 
L 659.510384 -238.489916 
L 662.750314 -240.496539 
L 665.990245 -251.267463 
L 669.230176 -240.009277 
L 672.470107 -220.924325 
L 675.710038 -236.561968 
L 678.949969 -231.394908 
L 678.949969 -270.051074 
L 678.949969 -270.051074 
L 675.710038 -290.933535 
L 672.470107 -279.699041 
L 669.230176 -283.921554 
L 665.990245 -275.131218 
L 662.750314 -279.869621 
L 659.510384 -272.553257 
L 656.270453 -276.551928 
L 653.030522 -280.448419 
L 649.790591 -283.852549 
L 646.55066 -278.618557 
L 643.310729 -298.959912 
L 640.070798 -301.136811 
L 636.830867 -300.457398 
L 633.590936 -300.009092 
L 630.351005 -282.836279 
L 627.111074 -297.650593 
L 623.871143 -287.781377 
L 620.631212 -275.094555 
L 617.391281 -280.487062 
L 614.15135 -298.34959 
L 610.911419 -290.453304 
L 607.671488 -290.688958 
L 604.431557 -264.889338 
L 601.191626 -279.953173 
L 597.951695 -288.51056 
L 594.711764 -268.131006 
L 591.471833 -286.318333 
L 588.231902 -266.980472 
L 584.991971 -297.833604 
L 581.75204 -306.19933 
L 578.512109 -274.326437 
L 575.272178 -296.837312 
L 572.032247 -290.631847 
L 568.792316 -290.602364 
L 565.552385 -297.998166 
L 562.312454 -268.745516 
L 559.072523 -280.497789 
L 555.832592 -276.648338 
L 552.592661 -260.584863 
L 549.35273 -253.546501 
L 546.112799 -269.627078 
L 542.872868 -257.282329 
L 539.632937 -278.410687 
L 536.393006 -276.3059 
L 533.153075 -280.114493 
L 529.913144 -258.342717 
L 526.673213 -270.894471 
L 523.433282 -287.396404 
L 520.193351 -272.623799 
L 516.953421 -270.730848 
L 513.71349 -278.904577 
L 510.473559 -265.512272 
L 507.233628 -266.313037 
L 503.993697 -280.289137 
L 500.753766 -273.194654 
L 497.513835 -280.389479 
L 494.273904 -297.371161 
L 491.033973 -301.618488 
L 487.794042 -282.250546 
L 484.554111 -270.552066 
L 481.31418 -279.370245 
L 478.074249 -282.330008 
L 474.834318 -268.034586 
L 471.594387 -278.431242 
L 468.354456 -269.297157 
L 465.114525 -271.736659 
L 461.874594 -289.15549 
L 458.634663 -284.770483 
L 455.394732 -289.979216 
L 452.154801 -286.913147 
L 448.91487 -270.878363 
L 445.674939 -277.053845 
L 442.435008 -292.491753 
L 439.195077 -262.738941 
L 435.955146 -267.475827 
L 432.715215 -287.966592 
L 429.475284 -282.650367 
L 426.235353 -288.401291 
L 422.995422 -276.21882 
L 419.755491 -288.658405 
L 416.51556 -298.061476 
L 413.275629 -293.760151 
L 410.035698 -296.69627 
L 406.795767 -289.19739 
L 403.555836 -260.412024 
L 400.315905 -262.883796 
L 397.075974 -282.189176 
L 393.836043 -301.430917 
L 390.596112 -294.552736 
L 387.356181 -288.842889 
L 384.11625 -289.261256 
L 380.876319 -293.675736 
L 377.636388 -293.66994 
L 374.396457 -290.888682 
L 371.156527 -279.63708 
L 367.916596 -275.049804 
L 364.676665 -284.980499 
L 361.436734 -276.088592 
L 358.196803 -270.808434 
L 354.956872 -268.404165 
L 351.716941 -275.158407 
L 348.47701 -289.057761 
L 345.237079 -286.105994 
L 341.997148 -266.415907 
L 338.757217 -268.663273 
L 335.517286 -293.049434 
L 332.277355 -285.818419 
L 329.037424 -292.135634 
L 325.797493 -288.641738 
L 322.557562 -275.877534 
L 319.317631 -275.90075 
L 316.0777 -285.277128 
L 312.837769 -307.492905 
L 309.597838 -297.854648 
L 306.357907 -303.839231 
L 303.117976 -296.756349 
L 299.878045 -293.275109 
L 296.638114 -292.242889 
L 293.398183 -299.607247 
L 290.158252 -284.604496 
L 286.918321 -287.061682 
L 283.67839 -303.089645 
L 280.438459 -283.438725 
L 277.198528 -305.806723 
L 273.958597 -313.666854 
L 270.718666 -322.660429 
L 267.478735 -322.945691 
L 264.238804 -304.186103 
L 260.998873 -302.943188 
L 257.758942 -296.770433 
L 254.519011 -329.61663 
L 251.27908 -322.958086 
L 248.039149 -326.032576 
L 244.799218 -316.72886 
L 241.559287 -327.193113 
L 238.319356 -339.907231 
L 235.079425 -340.020633 
L 231.839494 -326.886557 
L 228.599564 -322.126573 
L 225.359633 -337.007487 
L 222.119702 -332.934998 
L 218.879771 -341.23142 
L 215.63984 -323.81479 
L 212.399909 -303.328372 
L 209.159978 -316.430514 
L 205.920047 -326.222933 
L 202.680116 -319.182202 
L 199.440185 -327.878923 
L 196.200254 -338.531695 
L 192.960323 -317.765425 
L 189.720392 -312.081361 
L 186.480461 -302.281979 
L 183.24053 -339.011082 
L 180.000599 -306.070948 
L 176.760668 -336.516229 
L 173.520737 -327.846609 
L 170.280806 -327.577689 
L 167.040875 -331.126824 
L 163.800944 -340.692486 
L 160.561013 -372.71013 
L 157.321082 -362.053397 
L 154.081151 -385.941726 
L 150.84122 -396.169699 
L 147.601289 -386.572208 
L 144.361358 -398.985926 
L 141.121427 -406.056364 
z
" style="stroke: #ffa500; stroke-opacity: 0.3"/>
    </defs>
    <g clip-path="url(#p72b009f3ae)">
     <use xlink:href="#m1d8d5cf745" x="0" y="432" style="fill: #ffa500; fill-opacity: 0.3; stroke: #ffa500; stroke-opacity: 0.3"/>
    </g>
   </g>
   <g id="matplotlib.axis_1">
    <g id="xtick_1">
     <g id="line2d_1">
      <defs>
       <path id="m02fd72d330" d="M 0 0 
L 0 3.5 
" style="stroke: #000000; stroke-width: 0.8"/>
      </defs>
      <g>
       <use xlink:href="#m02fd72d330" x="141.121427" y="343.96" style="stroke: #000000; stroke-width: 0.8"/>
      </g>
     </g>
     <g id="text_1">
      <!-- 0 -->
      <g transform="translate(132.213927 372.235625) scale(0.28 -0.28)">
       <defs>
        <path id="DejaVuSans-30" d="M 2034 4250 
Q 1547 4250 1301 3770 
Q 1056 3291 1056 2328 
Q 1056 1369 1301 889 
Q 1547 409 2034 409 
Q 2525 409 2770 889 
Q 3016 1369 3016 2328 
Q 3016 3291 2770 3770 
Q 2525 4250 2034 4250 
z
M 2034 4750 
Q 2819 4750 3233 4129 
Q 3647 3509 3647 2328 
Q 3647 1150 3233 529 
Q 2819 -91 2034 -91 
Q 1250 -91 836 529 
Q 422 1150 422 2328 
Q 422 3509 836 4129 
Q 1250 4750 2034 4750 
z
" transform="scale(0.015625)"/>
       </defs>
       <use xlink:href="#DejaVuSans-30"/>
      </g>
     </g>
    </g>
    <g id="xtick_2">
     <g id="line2d_2">
      <g>
       <use xlink:href="#m02fd72d330" x="249.119126" y="343.96" style="stroke: #000000; stroke-width: 0.8"/>
      </g>
     </g>
     <g id="text_2">
      <!-- 100 -->
      <g transform="translate(222.396626 372.235625) scale(0.28 -0.28)">
       <defs>
        <path id="DejaVuSans-31" d="M 794 531 
L 1825 531 
L 1825 4091 
L 703 3866 
L 703 4441 
L 1819 4666 
L 2450 4666 
L 2450 531 
L 3481 531 
L 3481 0 
L 794 0 
L 794 531 
z
" transform="scale(0.015625)"/>
       </defs>
       <use xlink:href="#DejaVuSans-31"/>
       <use xlink:href="#DejaVuSans-30" x="63.623047"/>
       <use xlink:href="#DejaVuSans-30" x="127.246094"/>
      </g>
     </g>
    </g>
    <g id="xtick_3">
     <g id="line2d_3">
      <g>
       <use xlink:href="#m02fd72d330" x="357.116826" y="343.96" style="stroke: #000000; stroke-width: 0.8"/>
      </g>
     </g>
     <g id="text_3">
      <!-- 200 -->
      <g transform="translate(330.394326 372.235625) scale(0.28 -0.28)">
       <defs>
        <path id="DejaVuSans-32" d="M 1228 531 
L 3431 531 
L 3431 0 
L 469 0 
L 469 531 
Q 828 903 1448 1529 
Q 2069 2156 2228 2338 
Q 2531 2678 2651 2914 
Q 2772 3150 2772 3378 
Q 2772 3750 2511 3984 
Q 2250 4219 1831 4219 
Q 1534 4219 1204 4116 
Q 875 4013 500 3803 
L 500 4441 
Q 881 4594 1212 4672 
Q 1544 4750 1819 4750 
Q 2544 4750 2975 4387 
Q 3406 4025 3406 3419 
Q 3406 3131 3298 2873 
Q 3191 2616 2906 2266 
Q 2828 2175 2409 1742 
Q 1991 1309 1228 531 
z
" transform="scale(0.015625)"/>
       </defs>
       <use xlink:href="#DejaVuSans-32"/>
       <use xlink:href="#DejaVuSans-30" x="63.623047"/>
       <use xlink:href="#DejaVuSans-30" x="127.246094"/>
      </g>
     </g>
    </g>
    <g id="xtick_4">
     <g id="line2d_4">
      <g>
       <use xlink:href="#m02fd72d330" x="465.114525" y="343.96" style="stroke: #000000; stroke-width: 0.8"/>
      </g>
     </g>
     <g id="text_4">
      <!-- 300 -->
      <g transform="translate(438.392025 372.235625) scale(0.28 -0.28)">
       <defs>
        <path id="DejaVuSans-33" d="M 2597 2516 
Q 3050 2419 3304 2112 
Q 3559 1806 3559 1356 
Q 3559 666 3084 287 
Q 2609 -91 1734 -91 
Q 1441 -91 1130 -33 
Q 819 25 488 141 
L 488 750 
Q 750 597 1062 519 
Q 1375 441 1716 441 
Q 2309 441 2620 675 
Q 2931 909 2931 1356 
Q 2931 1769 2642 2001 
Q 2353 2234 1838 2234 
L 1294 2234 
L 1294 2753 
L 1863 2753 
Q 2328 2753 2575 2939 
Q 2822 3125 2822 3475 
Q 2822 3834 2567 4026 
Q 2313 4219 1838 4219 
Q 1578 4219 1281 4162 
Q 984 4106 628 3988 
L 628 4550 
Q 988 4650 1302 4700 
Q 1616 4750 1894 4750 
Q 2613 4750 3031 4423 
Q 3450 4097 3450 3541 
Q 3450 3153 3228 2886 
Q 3006 2619 2597 2516 
z
" transform="scale(0.015625)"/>
       </defs>
       <use xlink:href="#DejaVuSans-33"/>
       <use xlink:href="#DejaVuSans-30" x="63.623047"/>
       <use xlink:href="#DejaVuSans-30" x="127.246094"/>
      </g>
     </g>
    </g>
    <g id="xtick_5">
     <g id="line2d_5">
      <g>
       <use xlink:href="#m02fd72d330" x="573.112224" y="343.96" style="stroke: #000000; stroke-width: 0.8"/>
      </g>
     </g>
     <g id="text_5">
      <!-- 400 -->
      <g transform="translate(546.389724 372.235625) scale(0.28 -0.28)">
       <defs>
        <path id="DejaVuSans-34" d="M 2419 4116 
L 825 1625 
L 2419 1625 
L 2419 4116 
z
M 2253 4666 
L 3047 4666 
L 3047 1625 
L 3713 1625 
L 3713 1100 
L 3047 1100 
L 3047 0 
L 2419 0 
L 2419 1100 
L 313 1100 
L 313 1709 
L 2253 4666 
z
" transform="scale(0.015625)"/>
       </defs>
       <use xlink:href="#DejaVuSans-34"/>
       <use xlink:href="#DejaVuSans-30" x="63.623047"/>
       <use xlink:href="#DejaVuSans-30" x="127.246094"/>
      </g>
     </g>
    </g>
    <g id="xtick_6">
     <g id="line2d_6">
      <g>
       <use xlink:href="#m02fd72d330" x="681.109923" y="343.96" style="stroke: #000000; stroke-width: 0.8"/>
      </g>
     </g>
     <g id="text_6">
      <!-- 500 -->
      <g transform="translate(654.387423 372.235625) scale(0.28 -0.28)">
       <defs>
        <path id="DejaVuSans-35" d="M 691 4666 
L 3169 4666 
L 3169 4134 
L 1269 4134 
L 1269 2991 
Q 1406 3038 1543 3061 
Q 1681 3084 1819 3084 
Q 2600 3084 3056 2656 
Q 3513 2228 3513 1497 
Q 3513 744 3044 326 
Q 2575 -91 1722 -91 
Q 1428 -91 1123 -41 
Q 819 9 494 109 
L 494 744 
Q 775 591 1075 516 
Q 1375 441 1709 441 
Q 2250 441 2565 725 
Q 2881 1009 2881 1497 
Q 2881 1984 2565 2268 
Q 2250 2553 1709 2553 
Q 1456 2553 1204 2497 
Q 953 2441 691 2322 
L 691 4666 
z
" transform="scale(0.015625)"/>
       </defs>
       <use xlink:href="#DejaVuSans-35"/>
       <use xlink:href="#DejaVuSans-30" x="63.623047"/>
       <use xlink:href="#DejaVuSans-30" x="127.246094"/>
      </g>
     </g>
    </g>
    <g id="text_7">
     <!-- Episode -->
     <g transform="translate(331.485698 412.4525) scale(0.4 -0.4)">
      <defs>
       <path id="DejaVuSans-45" d="M 628 4666 
L 3578 4666 
L 3578 4134 
L 1259 4134 
L 1259 2753 
L 3481 2753 
L 3481 2222 
L 1259 2222 
L 1259 531 
L 3634 531 
L 3634 0 
L 628 0 
L 628 4666 
z
" transform="scale(0.015625)"/>
       <path id="DejaVuSans-70" d="M 1159 525 
L 1159 -1331 
L 581 -1331 
L 581 3500 
L 1159 3500 
L 1159 2969 
Q 1341 3281 1617 3432 
Q 1894 3584 2278 3584 
Q 2916 3584 3314 3078 
Q 3713 2572 3713 1747 
Q 3713 922 3314 415 
Q 2916 -91 2278 -91 
Q 1894 -91 1617 61 
Q 1341 213 1159 525 
z
M 3116 1747 
Q 3116 2381 2855 2742 
Q 2594 3103 2138 3103 
Q 1681 3103 1420 2742 
Q 1159 2381 1159 1747 
Q 1159 1113 1420 752 
Q 1681 391 2138 391 
Q 2594 391 2855 752 
Q 3116 1113 3116 1747 
z
" transform="scale(0.015625)"/>
       <path id="DejaVuSans-69" d="M 603 3500 
L 1178 3500 
L 1178 0 
L 603 0 
L 603 3500 
z
M 603 4863 
L 1178 4863 
L 1178 4134 
L 603 4134 
L 603 4863 
z
" transform="scale(0.015625)"/>
       <path id="DejaVuSans-73" d="M 2834 3397 
L 2834 2853 
Q 2591 2978 2328 3040 
Q 2066 3103 1784 3103 
Q 1356 3103 1142 2972 
Q 928 2841 928 2578 
Q 928 2378 1081 2264 
Q 1234 2150 1697 2047 
L 1894 2003 
Q 2506 1872 2764 1633 
Q 3022 1394 3022 966 
Q 3022 478 2636 193 
Q 2250 -91 1575 -91 
Q 1294 -91 989 -36 
Q 684 19 347 128 
L 347 722 
Q 666 556 975 473 
Q 1284 391 1588 391 
Q 1994 391 2212 530 
Q 2431 669 2431 922 
Q 2431 1156 2273 1281 
Q 2116 1406 1581 1522 
L 1381 1569 
Q 847 1681 609 1914 
Q 372 2147 372 2553 
Q 372 3047 722 3315 
Q 1072 3584 1716 3584 
Q 2034 3584 2315 3537 
Q 2597 3491 2834 3397 
z
" transform="scale(0.015625)"/>
       <path id="DejaVuSans-6f" d="M 1959 3097 
Q 1497 3097 1228 2736 
Q 959 2375 959 1747 
Q 959 1119 1226 758 
Q 1494 397 1959 397 
Q 2419 397 2687 759 
Q 2956 1122 2956 1747 
Q 2956 2369 2687 2733 
Q 2419 3097 1959 3097 
z
M 1959 3584 
Q 2709 3584 3137 3096 
Q 3566 2609 3566 1747 
Q 3566 888 3137 398 
Q 2709 -91 1959 -91 
Q 1206 -91 779 398 
Q 353 888 353 1747 
Q 353 2609 779 3096 
Q 1206 3584 1959 3584 
z
" transform="scale(0.015625)"/>
       <path id="DejaVuSans-64" d="M 2906 2969 
L 2906 4863 
L 3481 4863 
L 3481 0 
L 2906 0 
L 2906 525 
Q 2725 213 2448 61 
Q 2172 -91 1784 -91 
Q 1150 -91 751 415 
Q 353 922 353 1747 
Q 353 2572 751 3078 
Q 1150 3584 1784 3584 
Q 2172 3584 2448 3432 
Q 2725 3281 2906 2969 
z
M 947 1747 
Q 947 1113 1208 752 
Q 1469 391 1925 391 
Q 2381 391 2643 752 
Q 2906 1113 2906 1747 
Q 2906 2381 2643 2742 
Q 2381 3103 1925 3103 
Q 1469 3103 1208 2742 
Q 947 2381 947 1747 
z
" transform="scale(0.015625)"/>
       <path id="DejaVuSans-65" d="M 3597 1894 
L 3597 1613 
L 953 1613 
Q 991 1019 1311 708 
Q 1631 397 2203 397 
Q 2534 397 2845 478 
Q 3156 559 3463 722 
L 3463 178 
Q 3153 47 2828 -22 
Q 2503 -91 2169 -91 
Q 1331 -91 842 396 
Q 353 884 353 1716 
Q 353 2575 817 3079 
Q 1281 3584 2069 3584 
Q 2775 3584 3186 3129 
Q 3597 2675 3597 1894 
z
M 3022 2063 
Q 3016 2534 2758 2815 
Q 2500 3097 2075 3097 
Q 1594 3097 1305 2825 
Q 1016 2553 972 2059 
L 3022 2063 
z
" transform="scale(0.015625)"/>
      </defs>
      <use xlink:href="#DejaVuSans-45"/>
      <use xlink:href="#DejaVuSans-70" x="63.183594"/>
      <use xlink:href="#DejaVuSans-69" x="126.660156"/>
      <use xlink:href="#DejaVuSans-73" x="154.443359"/>
      <use xlink:href="#DejaVuSans-6f" x="206.542969"/>
      <use xlink:href="#DejaVuSans-64" x="267.724609"/>
      <use xlink:href="#DejaVuSans-65" x="331.201172"/>
     </g>
    </g>
   </g>
   <g id="matplotlib.axis_2">
    <g id="ytick_1">
     <g id="line2d_7">
      <defs>
       <path id="m29197b6580" d="M 0 0 
L -3.5 0 
" style="stroke: #000000; stroke-width: 0.8"/>
      </defs>
      <g>
       <use xlink:href="#m29197b6580" x="114.23" y="333.598155" style="stroke: #000000; stroke-width: 0.8"/>
      </g>
     </g>
     <g id="text_8">
      <!-- 20 -->
      <g transform="translate(71.6 344.235968) scale(0.28 -0.28)">
       <use xlink:href="#DejaVuSans-32"/>
       <use xlink:href="#DejaVuSans-30" x="63.623047"/>
      </g>
     </g>
    </g>
    <g id="ytick_2">
     <g id="line2d_8">
      <g>
       <use xlink:href="#m29197b6580" x="114.23" y="284.241168" style="stroke: #000000; stroke-width: 0.8"/>
      </g>
     </g>
     <g id="text_9">
      <!-- 40 -->
      <g transform="translate(71.6 294.878981) scale(0.28 -0.28)">
       <use xlink:href="#DejaVuSans-34"/>
       <use xlink:href="#DejaVuSans-30" x="63.623047"/>
      </g>
     </g>
    </g>
    <g id="ytick_3">
     <g id="line2d_9">
      <g>
       <use xlink:href="#m29197b6580" x="114.23" y="234.884181" style="stroke: #000000; stroke-width: 0.8"/>
      </g>
     </g>
     <g id="text_10">
      <!-- 60 -->
      <g transform="translate(71.6 245.521994) scale(0.28 -0.28)">
       <defs>
        <path id="DejaVuSans-36" d="M 2113 2584 
Q 1688 2584 1439 2293 
Q 1191 2003 1191 1497 
Q 1191 994 1439 701 
Q 1688 409 2113 409 
Q 2538 409 2786 701 
Q 3034 994 3034 1497 
Q 3034 2003 2786 2293 
Q 2538 2584 2113 2584 
z
M 3366 4563 
L 3366 3988 
Q 3128 4100 2886 4159 
Q 2644 4219 2406 4219 
Q 1781 4219 1451 3797 
Q 1122 3375 1075 2522 
Q 1259 2794 1537 2939 
Q 1816 3084 2150 3084 
Q 2853 3084 3261 2657 
Q 3669 2231 3669 1497 
Q 3669 778 3244 343 
Q 2819 -91 2113 -91 
Q 1303 -91 875 529 
Q 447 1150 447 2328 
Q 447 3434 972 4092 
Q 1497 4750 2381 4750 
Q 2619 4750 2861 4703 
Q 3103 4656 3366 4563 
z
" transform="scale(0.015625)"/>
       </defs>
       <use xlink:href="#DejaVuSans-36"/>
       <use xlink:href="#DejaVuSans-30" x="63.623047"/>
      </g>
     </g>
    </g>
    <g id="ytick_4">
     <g id="line2d_10">
      <g>
       <use xlink:href="#m29197b6580" x="114.23" y="185.527194" style="stroke: #000000; stroke-width: 0.8"/>
      </g>
     </g>
     <g id="text_11">
      <!-- 80 -->
      <g transform="translate(71.6 196.165007) scale(0.28 -0.28)">
       <defs>
        <path id="DejaVuSans-38" d="M 2034 2216 
Q 1584 2216 1326 1975 
Q 1069 1734 1069 1313 
Q 1069 891 1326 650 
Q 1584 409 2034 409 
Q 2484 409 2743 651 
Q 3003 894 3003 1313 
Q 3003 1734 2745 1975 
Q 2488 2216 2034 2216 
z
M 1403 2484 
Q 997 2584 770 2862 
Q 544 3141 544 3541 
Q 544 4100 942 4425 
Q 1341 4750 2034 4750 
Q 2731 4750 3128 4425 
Q 3525 4100 3525 3541 
Q 3525 3141 3298 2862 
Q 3072 2584 2669 2484 
Q 3125 2378 3379 2068 
Q 3634 1759 3634 1313 
Q 3634 634 3220 271 
Q 2806 -91 2034 -91 
Q 1263 -91 848 271 
Q 434 634 434 1313 
Q 434 1759 690 2068 
Q 947 2378 1403 2484 
z
M 1172 3481 
Q 1172 3119 1398 2916 
Q 1625 2713 2034 2713 
Q 2441 2713 2670 2916 
Q 2900 3119 2900 3481 
Q 2900 3844 2670 4047 
Q 2441 4250 2034 4250 
Q 1625 4250 1398 4047 
Q 1172 3844 1172 3481 
z
" transform="scale(0.015625)"/>
       </defs>
       <use xlink:href="#DejaVuSans-38"/>
       <use xlink:href="#DejaVuSans-30" x="63.623047"/>
      </g>
     </g>
    </g>
    <g id="ytick_5">
     <g id="line2d_11">
      <g>
       <use xlink:href="#m29197b6580" x="114.23" y="136.170207" style="stroke: #000000; stroke-width: 0.8"/>
      </g>
     </g>
     <g id="text_12">
      <!-- 100 -->
      <g transform="translate(53.785 146.80802) scale(0.28 -0.28)">
       <use xlink:href="#DejaVuSans-31"/>
       <use xlink:href="#DejaVuSans-30" x="63.623047"/>
       <use xlink:href="#DejaVuSans-30" x="127.246094"/>
      </g>
     </g>
    </g>
    <g id="ytick_6">
     <g id="line2d_12">
      <g>
       <use xlink:href="#m29197b6580" x="114.23" y="86.81322" style="stroke: #000000; stroke-width: 0.8"/>
      </g>
     </g>
     <g id="text_13">
      <!-- 120 -->
      <g transform="translate(53.785 97.451033) scale(0.28 -0.28)">
       <use xlink:href="#DejaVuSans-31"/>
       <use xlink:href="#DejaVuSans-32" x="63.623047"/>
       <use xlink:href="#DejaVuSans-30" x="127.246094"/>
      </g>
     </g>
    </g>
    <g id="ytick_7">
     <g id="line2d_13">
      <g>
       <use xlink:href="#m29197b6580" x="114.23" y="37.456233" style="stroke: #000000; stroke-width: 0.8"/>
      </g>
     </g>
     <g id="text_14">
      <!-- 140 -->
      <g transform="translate(53.785 48.094046) scale(0.28 -0.28)">
       <use xlink:href="#DejaVuSans-31"/>
       <use xlink:href="#DejaVuSans-34" x="63.623047"/>
       <use xlink:href="#DejaVuSans-30" x="127.246094"/>
      </g>
     </g>
    </g>
    <g id="text_15">
     <!-- $m_{do}$ -->
     <g transform="translate(41.46625 214.98) rotate(-90) scale(0.4 -0.4)">
      <defs>
       <path id="DejaVuSans-Oblique-6d" d="M 5747 2113 
L 5338 0 
L 4763 0 
L 5166 2094 
Q 5191 2228 5203 2325 
Q 5216 2422 5216 2491 
Q 5216 2772 5059 2928 
Q 4903 3084 4622 3084 
Q 4203 3084 3875 2770 
Q 3547 2456 3450 1953 
L 3066 0 
L 2491 0 
L 2900 2094 
Q 2925 2209 2937 2307 
Q 2950 2406 2950 2484 
Q 2950 2769 2794 2926 
Q 2638 3084 2363 3084 
Q 1938 3084 1609 2770 
Q 1281 2456 1184 1953 
L 800 0 
L 225 0 
L 909 3500 
L 1484 3500 
L 1375 2956 
Q 1609 3263 1923 3423 
Q 2238 3584 2597 3584 
Q 2978 3584 3223 3384 
Q 3469 3184 3519 2828 
Q 3781 3197 4126 3390 
Q 4472 3584 4856 3584 
Q 5306 3584 5551 3325 
Q 5797 3066 5797 2591 
Q 5797 2488 5784 2364 
Q 5772 2241 5747 2113 
z
" transform="scale(0.015625)"/>
       <path id="DejaVuSans-Oblique-64" d="M 2675 525 
Q 2444 222 2128 65 
Q 1813 -91 1428 -91 
Q 903 -91 598 267 
Q 294 625 294 1247 
Q 294 1766 478 2236 
Q 663 2706 1013 3078 
Q 1244 3325 1534 3454 
Q 1825 3584 2144 3584 
Q 2481 3584 2739 3421 
Q 2997 3259 3138 2956 
L 3513 4863 
L 4091 4863 
L 3144 0 
L 2566 0 
L 2675 525 
z
M 891 1350 
Q 891 897 1095 644 
Q 1300 391 1663 391 
Q 1931 391 2161 520 
Q 2391 650 2566 903 
Q 2750 1166 2856 1509 
Q 2963 1853 2963 2188 
Q 2963 2622 2758 2865 
Q 2553 3109 2194 3109 
Q 1922 3109 1687 2981 
Q 1453 2853 1288 2613 
Q 1106 2353 998 2009 
Q 891 1666 891 1350 
z
" transform="scale(0.015625)"/>
       <path id="DejaVuSans-Oblique-6f" d="M 1625 -91 
Q 1009 -91 651 289 
Q 294 669 294 1325 
Q 294 1706 417 2101 
Q 541 2497 738 2766 
Q 1047 3184 1428 3384 
Q 1809 3584 2291 3584 
Q 2888 3584 3255 3212 
Q 3622 2841 3622 2241 
Q 3622 1825 3500 1412 
Q 3378 1000 3181 728 
Q 2875 309 2494 109 
Q 2113 -91 1625 -91 
z
M 891 1344 
Q 891 869 1089 633 
Q 1288 397 1691 397 
Q 2269 397 2648 901 
Q 3028 1406 3028 2181 
Q 3028 2634 2825 2865 
Q 2622 3097 2228 3097 
Q 1903 3097 1650 2945 
Q 1397 2794 1197 2484 
Q 1050 2253 970 1956 
Q 891 1659 891 1344 
z
" transform="scale(0.015625)"/>
      </defs>
      <use xlink:href="#DejaVuSans-Oblique-6d"/>
      <use xlink:href="#DejaVuSans-Oblique-64" transform="translate(97.412109 -16.40625) scale(0.7)"/>
      <use xlink:href="#DejaVuSans-Oblique-6f" transform="translate(141.845703 -16.40625) scale(0.7)"/>
     </g>
    </g>
   </g>
   <g id="line2d_14">
    <path d="M 141.121427 174.696077 
L 144.361358 194.713078 
L 147.601289 208.560455 
L 150.84122 216.786619 
L 154.081151 233.376051 
L 157.321082 230.908202 
L 160.561013 235.158387 
L 163.800944 234.198667 
L 167.040875 252.707537 
L 170.280806 253.255948 
L 173.520737 248.046044 
L 176.760668 237.489133 
L 180.000599 244.755578 
L 183.24053 249.965483 
L 186.480461 252.433332 
L 189.720392 264.361271 
L 192.960323 270.256688 
L 196.200254 266.692017 
L 199.440185 272.176127 
L 202.680116 259.699777 
L 205.920047 270.667997 
L 209.159978 283.555654 
L 212.399909 279.85388 
L 215.63984 273.135846 
L 218.879771 275.877901 
L 222.119702 281.224908 
L 225.359633 285.886401 
L 228.599564 285.200887 
L 231.839494 285.749298 
L 235.079425 280.950702 
L 238.319356 284.378271 
L 241.559287 283.82986 
L 244.799218 274.643976 
L 248.039149 278.894161 
L 251.27908 281.224908 
L 254.519011 279.442572 
L 257.758942 289.86238 
L 260.998873 280.402291 
L 264.238804 281.499113 
L 267.478735 261.070805 
L 270.718666 275.740798 
L 273.958597 275.877901 
L 277.198528 267.651736 
L 280.438459 273.82136 
L 283.67839 281.36201 
L 286.918321 282.595935 
L 290.158252 284.515374 
L 293.398183 282.870141 
L 296.638114 284.515374 
L 299.878045 272.587435 
L 303.117976 270.805099 
L 306.357907 267.377531 
L 309.597838 271.216408 
L 312.837769 279.442572 
L 316.0777 275.055284 
L 322.557562 288.35425 
L 325.797493 287.257428 
L 329.037424 282.733038 
L 332.277355 283.82986 
L 335.517286 274.506873 
L 338.757217 281.36201 
L 341.997148 287.668737 
L 345.237079 283.555654 
L 348.47701 286.297709 
L 351.716941 283.966963 
L 354.956872 275.32949 
L 361.436734 262.578935 
L 364.676665 267.377531 
L 367.916596 279.305469 
L 371.156527 281.499113 
L 374.396457 263.675757 
L 377.636388 269.022764 
L 380.876319 257.094825 
L 384.11625 257.094825 
L 387.356181 245.715298 
L 390.596112 257.917442 
L 393.836043 247.086325 
L 397.075974 260.248188 
L 400.315905 263.949962 
L 403.555836 255.998003 
L 406.795767 269.982483 
L 410.035698 280.8136 
L 413.275629 282.870141 
L 416.51556 279.579675 
L 419.755491 277.797339 
L 422.995422 275.466593 
L 426.235353 283.418552 
L 429.475284 285.33799 
L 432.715215 291.096305 
L 435.955146 292.467333 
L 439.195077 291.507613 
L 442.435008 283.281449 
L 445.674939 287.394531 
L 448.91487 289.451072 
L 452.154801 293.289949 
L 455.394732 287.120326 
L 458.634663 290.547894 
L 461.874594 282.184627 
L 465.114525 277.797339 
L 468.354456 270.119586 
L 471.594387 283.418552 
L 474.834318 293.289949 
L 478.074249 295.34649 
L 481.31418 287.120326 
L 484.554111 282.184627 
L 487.794042 289.31397 
L 491.033973 284.926682 
L 494.273904 295.757798 
L 497.513835 289.725278 
L 500.753766 292.878641 
L 503.993697 296.85462 
L 507.233628 287.531634 
L 510.473559 296.580415 
L 513.71349 308.097045 
L 516.953421 298.911161 
L 520.193351 291.096305 
L 523.433282 296.032004 
L 526.673213 292.056024 
L 529.913144 297.951442 
L 533.153075 299.596675 
L 536.393006 269.84538 
L 539.632937 288.35425 
L 542.872868 292.604435 
L 546.112799 278.482853 
L 549.35273 292.33023 
L 552.592661 291.233408 
L 555.832592 288.628456 
L 559.072523 292.741538 
L 562.312454 279.031264 
L 565.552385 277.523134 
L 568.792316 296.169107 
L 572.032247 296.169107 
L 575.272178 300.282189 
L 578.512109 293.152846 
L 581.75204 305.217888 
L 584.991971 292.056024 
L 588.231902 299.459572 
L 591.471833 300.8306 
L 594.711764 300.282189 
L 597.951695 296.85462 
L 601.191626 278.34575 
L 604.431557 289.725278 
L 607.671488 285.612195 
L 610.911419 281.087805 
L 614.15135 287.257428 
L 617.391281 297.814339 
L 620.631212 300.967703 
L 623.871143 303.024244 
L 627.111074 304.395271 
L 630.351005 304.258168 
L 633.590936 302.475833 
L 636.830867 297.128826 
L 640.070798 296.169107 
L 643.310729 288.628456 
L 646.55066 292.878641 
L 649.790591 294.660976 
L 653.030522 289.86238 
L 656.270453 302.201627 
L 659.510384 307.000223 
L 662.750314 300.282189 
L 665.990245 295.34649 
L 669.230176 301.379011 
L 672.470107 299.459572 
L 675.710038 293.427052 
L 678.949969 295.757798 
L 678.949969 295.757798 
" clip-path="url(#p72b009f3ae)" style="fill: none; stroke: #0000ff; stroke-width: 3; stroke-linecap: square"/>
   </g>
   <g id="line2d_15">
    <path d="M 141.121427 52.948843 
L 144.361358 47.32763 
L 147.601289 69.675377 
L 150.84122 69.264069 
L 154.081151 89.692378 
L 157.321082 97.507234 
L 160.561013 120.540495 
L 163.800944 115.056385 
L 167.040875 124.379371 
L 170.280806 142.33983 
L 173.520737 143.573755 
L 176.760668 153.719358 
L 180.000599 162.905242 
L 183.24053 165.510194 
L 186.480461 180.454393 
L 189.720392 166.195707 
L 192.960323 170.445892 
L 196.200254 178.534954 
L 199.440185 178.80916 
L 202.680116 181.002804 
L 205.920047 180.31729 
L 209.159978 183.744858 
L 212.399909 177.575235 
L 215.63984 187.035324 
L 218.879771 184.293269 
L 222.119702 187.30953 
L 225.359633 185.390091 
L 228.599564 188.269249 
L 231.839494 167.84094 
L 235.079425 178.260749 
L 238.319356 188.132146 
L 241.559287 195.124386 
L 244.799218 188.954763 
L 248.039149 198.414852 
L 251.27908 188.81766 
L 254.519011 202.116626 
L 257.758942 184.567475 
L 260.998873 201.156907 
L 264.238804 190.462893 
L 267.478735 198.82616 
L 270.718666 190.051585 
L 273.958597 191.559715 
L 277.198528 191.422612 
L 280.438459 197.455133 
L 283.67839 201.019804 
L 286.918321 201.431112 
L 290.158252 200.745598 
L 293.398183 206.778119 
L 296.638114 210.616996 
L 299.878045 208.83466 
L 303.117976 192.930742 
L 306.357907 203.487653 
L 309.597838 200.882701 
L 312.837769 184.704578 
L 316.0777 197.043824 
L 319.317631 189.503174 
L 322.557562 200.33429 
L 325.797493 208.149146 
L 329.037424 196.906722 
L 332.277355 190.051585 
L 335.517286 187.857941 
L 338.757217 198.277749 
L 341.997148 186.212708 
L 345.237079 200.471393 
L 348.47701 192.793639 
L 351.716941 201.019804 
L 354.956872 190.32579 
L 358.196803 193.067845 
L 361.436734 183.059345 
L 364.676665 188.81766 
L 367.916596 190.737098 
L 371.156527 178.80916 
L 374.396457 204.858681 
L 377.636388 181.139906 
L 380.876319 187.720838 
L 384.11625 205.407092 
L 387.356181 193.204948 
L 390.596112 184.293269 
L 393.836043 188.543454 
L 400.315905 212.262229 
L 403.555836 196.495413 
L 406.795767 199.648776 
L 410.035698 179.494673 
L 413.275629 168.663557 
L 416.51556 213.633256 
L 419.755491 193.616256 
L 422.995422 209.931482 
L 426.235353 176.067105 
L 429.475284 191.696817 
L 432.715215 185.664297 
L 435.955146 174.558975 
L 439.195077 184.84168 
L 442.435008 175.244488 
L 445.674939 185.8014 
L 448.91487 158.106646 
L 452.154801 172.776639 
L 455.394732 160.026084 
L 458.634663 171.954023 
L 461.874594 171.954023 
L 465.114525 181.002804 
L 468.354456 169.623276 
L 471.594387 180.591495 
L 474.834318 183.196447 
L 478.074249 170.582995 
L 481.31418 210.205688 
L 484.554111 171.542714 
L 487.794042 192.519434 
L 491.033973 185.8014 
L 494.273904 184.156167 
L 497.513835 179.905982 
L 500.753766 172.776639 
L 503.993697 163.042344 
L 507.233628 175.244488 
L 510.473559 170.445892 
L 513.71349 176.752619 
L 516.953421 170.582995 
L 520.193351 172.502434 
L 523.433282 177.438132 
L 526.673213 185.8014 
L 529.913144 188.132146 
L 533.153075 175.244488 
L 536.393006 181.82542 
L 539.632937 179.631776 
L 542.872868 169.074865 
L 546.112799 162.082625 
L 549.35273 158.380851 
L 552.592661 161.534214 
L 555.832592 154.81618 
L 559.072523 150.565995 
L 562.312454 136.581515 
L 565.552385 133.565255 
L 568.792316 144.396372 
L 572.032247 140.694598 
L 575.272178 171.81692 
L 578.512109 162.905242 
L 581.75204 170.857201 
L 584.991971 150.017584 
L 588.231902 170.857201 
L 591.471833 170.720098 
L 594.711764 158.655057 
L 597.951695 157.146927 
L 601.191626 166.058605 
L 604.431557 161.945523 
L 607.671488 171.131406 
L 610.911419 139.32357 
L 614.15135 160.985803 
L 617.391281 168.663557 
L 620.631212 145.767399 
L 623.871143 161.945523 
L 627.111074 154.953283 
L 630.351005 152.074125 
L 633.590936 173.187947 
L 636.830867 157.969543 
L 640.070798 155.090385 
L 643.310729 160.711598 
L 646.55066 178.672057 
L 649.790591 178.946262 
L 653.030522 198.414852 
L 656.270453 183.059345 
L 659.510384 187.583735 
L 662.750314 203.624756 
L 665.990245 180.454393 
L 669.230176 201.979523 
L 672.470107 205.132886 
L 675.710038 186.212708 
L 678.949969 187.857941 
L 678.949969 187.857941 
" clip-path="url(#p72b009f3ae)" style="fill: none; stroke: #008000; stroke-width: 3; stroke-linecap: square"/>
   </g>
   <g id="line2d_16">
    <path d="M 141.121427 29.504274 
L 144.361358 48.835761 
L 147.601289 30.601096 
L 150.84122 49.109966 
L 154.081151 53.634357 
L 157.321082 44.585576 
L 160.561013 76.256309 
L 163.800944 50.069685 
L 167.040875 67.070425 
L 170.280806 69.538275 
L 173.520737 97.507234 
L 176.760668 94.765179 
L 180.000599 102.031624 
L 183.24053 83.522754 
L 186.480461 97.781439 
L 189.720392 93.531254 
L 192.960323 115.879001 
L 196.200254 108.338351 
L 199.440185 105.047885 
L 202.680116 111.765919 
L 205.920047 137.678337 
L 209.159978 123.419652 
L 212.399909 122.048625 
L 215.63984 114.233768 
L 218.879771 134.936282 
L 222.119702 116.564515 
L 225.359633 125.064885 
L 228.599564 136.444413 
L 231.839494 128.629556 
L 235.079425 138.500954 
L 238.319356 141.928522 
L 241.559287 141.517214 
L 244.799218 123.282549 
L 248.039149 137.129926 
L 251.27908 141.928522 
L 254.519011 141.791419 
L 257.758942 117.935542 
L 260.998873 133.291049 
L 264.238804 134.79918 
L 267.478735 140.420392 
L 270.718666 135.758899 
L 273.958597 135.073385 
L 277.198528 128.355351 
L 280.438459 118.895262 
L 283.67839 146.178707 
L 286.918321 137.129926 
L 290.158252 139.049365 
L 293.398183 145.630296 
L 296.638114 136.992824 
L 299.878045 154.953283 
L 303.117976 151.79992 
L 306.357907 138.638056 
L 309.597838 154.81618 
L 312.837769 160.574495 
L 316.0777 163.590755 
L 319.317631 153.582255 
L 322.557562 175.518694 
L 325.797493 173.187947 
L 329.037424 178.80916 
L 332.277355 178.80916 
L 335.517286 191.148406 
L 338.757217 187.720838 
L 341.997148 174.970283 
L 345.237079 174.970283 
L 348.47701 185.527194 
L 351.716941 177.438132 
L 354.956872 193.479153 
L 358.196803 195.947002 
L 361.436734 197.866441 
L 364.676665 208.560455 
L 367.916596 182.785139 
L 371.156527 194.027564 
L 374.396457 196.495413 
L 377.636388 195.535694 
L 380.876319 195.535694 
L 384.11625 206.092605 
L 387.356181 202.390831 
L 390.596112 200.608496 
L 393.836043 195.124386 
L 397.075974 211.028304 
L 400.315905 202.527934 
L 403.555836 199.100365 
L 406.795767 203.624756 
L 410.035698 187.172427 
L 413.275629 200.060085 
L 416.51556 211.85092 
L 419.755491 207.32653 
L 422.995422 203.761859 
L 426.235353 199.100365 
L 429.475284 196.632516 
L 432.715215 179.220468 
L 435.955146 186.486913 
L 439.195077 191.83392 
L 442.435008 189.366071 
L 445.674939 202.116626 
L 448.91487 201.019804 
L 452.154801 187.995043 
L 455.394732 200.745598 
L 458.634663 198.277749 
L 461.874594 192.930742 
L 465.114525 201.84242 
L 471.594387 209.383071 
L 474.834318 200.882701 
L 478.074249 203.076345 
L 481.31418 206.503914 
L 484.554111 191.971023 
L 487.794042 205.681297 
L 491.033973 200.33429 
L 494.273904 223.367551 
L 497.513835 206.503914 
L 500.753766 229.948482 
L 503.993697 206.778119 
L 507.233628 218.84316 
L 510.473559 204.858681 
L 513.71349 215.141386 
L 516.953421 214.31877 
L 520.193351 217.197927 
L 523.433282 210.616996 
L 526.673213 215.552694 
L 529.913144 202.527934 
L 533.153075 195.672797 
L 536.393006 210.479893 
L 539.632937 195.124386 
L 542.872868 193.204948 
L 546.112799 201.568215 
L 549.35273 211.713818 
L 552.592661 185.664297 
L 555.832592 202.116626 
L 559.072523 205.955503 
L 562.312454 199.374571 
L 565.552385 208.012044 
L 568.792316 211.576715 
L 572.032247 207.737838 
L 575.272178 212.399331 
L 578.512109 209.108866 
L 581.75204 219.117366 
L 584.991971 207.737838 
L 588.231902 206.915222 
L 591.471833 220.077085 
L 594.711764 205.955503 
L 597.951695 211.713818 
L 601.191626 210.068585 
L 604.431557 215.415592 
L 607.671488 211.439612 
L 610.911419 229.537174 
L 614.15135 215.004284 
L 617.391281 217.060825 
L 620.631212 222.682037 
L 623.871143 225.561195 
L 627.111074 211.988023 
L 630.351005 220.625496 
L 633.590936 208.560455 
L 636.830867 207.874941 
L 640.070798 215.278489 
L 643.310729 226.109606 
L 646.55066 220.35129 
L 649.790591 232.553434 
L 653.030522 213.770359 
L 656.270453 214.592975 
L 659.510384 227.891941 
L 662.750314 207.32653 
L 665.990245 207.737838 
L 669.230176 215.278489 
L 672.470107 213.770359 
L 675.710038 212.399331 
L 678.949969 214.592975 
L 678.949969 214.592975 
" clip-path="url(#p72b009f3ae)" style="fill: none; stroke: #ff0000; stroke-width: 3; stroke-linecap: square"/>
   </g>
   <g id="line2d_17">
    <path d="M 141.121427 32.931843 
L 144.361358 45.545295 
L 147.601289 58.844261 
L 150.84122 58.707158 
L 154.081151 69.949583 
L 157.321082 88.869761 
L 160.561013 82.837241 
L 163.800944 98.192748 
L 167.040875 101.209008 
L 170.280806 117.250029 
L 173.520737 120.403392 
L 176.760668 122.459933 
L 180.000599 127.944043 
L 183.24053 114.645077 
L 186.480461 140.968803 
L 189.720392 123.282549 
L 192.960323 125.887501 
L 196.200254 103.951063 
L 199.440185 127.80694 
L 202.680116 122.459933 
L 205.920047 126.847221 
L 209.159978 128.629556 
L 212.399909 133.565255 
L 215.63984 127.532734 
L 218.879771 121.774419 
L 222.119702 120.8147 
L 225.359633 128.903762 
L 228.599564 132.879741 
L 231.839494 129.452173 
L 235.079425 123.145447 
L 238.319356 128.629556 
L 241.559287 135.073385 
L 244.799218 134.113666 
L 248.039149 134.524974 
L 251.27908 124.653577 
L 254.519011 140.283289 
L 257.758942 140.146187 
L 260.998873 152.622536 
L 264.238804 137.267029 
L 267.478735 134.662077 
L 270.718666 121.774419 
L 273.958597 136.170207 
L 277.198528 139.871981 
L 280.438459 151.79992 
L 283.67839 143.162447 
L 286.918321 152.211228 
L 290.158252 161.671317 
L 293.398183 142.614036 
L 296.638114 149.469173 
L 299.878045 141.928522 
L 303.117976 143.162447 
L 306.357907 136.855721 
L 309.597838 144.80768 
L 312.837769 150.565995 
L 316.0777 162.219728 
L 319.317631 162.768139 
L 322.557562 161.671317 
L 325.797493 164.139166 
L 329.037424 162.082625 
L 332.277355 169.074865 
L 335.517286 161.260009 
L 338.757217 177.30103 
L 341.997148 173.050845 
L 345.237079 161.122906 
L 348.47701 163.453653 
L 351.716941 171.954023 
L 354.956872 170.994303 
L 358.196803 182.785139 
L 361.436734 161.80842 
L 364.676665 169.760379 
L 367.916596 171.954023 
L 371.156527 178.123646 
L 374.396457 172.365331 
L 377.636388 158.929262 
L 380.876319 155.913002 
L 384.11625 168.526454 
L 387.356181 166.058605 
L 390.596112 152.896742 
L 393.836043 157.695338 
L 397.075974 164.687577 
L 400.315905 173.187947 
L 403.555836 176.34131 
L 406.795767 165.784399 
L 410.035698 152.896742 
L 413.275629 150.428892 
L 416.51556 150.017584 
L 419.755491 152.485433 
L 422.995422 157.558235 
L 426.235353 155.638796 
L 429.475284 155.227488 
L 432.715215 155.090385 
L 435.955146 169.897482 
L 439.195077 178.80916 
L 442.435008 161.80842 
L 445.674939 172.091125 
L 448.91487 175.930002 
L 452.154801 164.002064 
L 455.394732 165.098886 
L 458.634663 164.002064 
L 461.874594 165.647297 
L 465.114525 181.139906 
L 468.354456 174.970283 
L 471.594387 171.679817 
L 474.834318 177.575235 
L 478.074249 160.848701 
L 481.31418 163.042344 
L 484.554111 175.107386 
L 487.794042 171.405612 
L 491.033973 159.477673 
L 494.273904 171.405612 
L 497.513835 171.405612 
L 500.753766 180.180187 
L 503.993697 170.857201 
L 507.233628 175.381591 
L 510.473559 170.171687 
L 513.71349 168.937762 
L 516.953421 173.599256 
L 520.193351 166.744118 
L 523.433282 170.034584 
L 526.673213 170.30879 
L 529.913144 184.156167 
L 533.153075 161.945523 
L 536.393006 171.131406 
L 539.632937 172.228228 
L 542.872868 179.494673 
L 546.112799 173.462153 
L 549.35273 182.648036 
L 552.592661 181.277009 
L 555.832592 169.897482 
L 559.072523 170.30879 
L 562.312454 181.002804 
L 565.552385 154.81618 
L 568.792316 166.058605 
L 572.032247 173.599256 
L 575.272178 161.534214 
L 578.512109 175.381591 
L 581.75204 165.784399 
L 584.991971 160.163187 
L 588.231902 175.244488 
L 591.471833 169.623276 
L 594.711764 180.180187 
L 597.951695 168.389351 
L 601.191626 185.8014 
L 604.431557 178.260749 
L 607.671488 173.050845 
L 610.911419 171.81692 
L 614.15135 157.558235 
L 617.391281 167.703838 
L 620.631212 174.696077 
L 623.871143 153.719358 
L 627.111074 154.404872 
L 630.351005 163.31655 
L 633.590936 157.146927 
L 636.830867 154.267769 
L 640.070798 153.170947 
L 643.310729 149.606276 
L 646.55066 165.510194 
L 649.790591 175.381591 
L 653.030522 168.252249 
L 656.270453 178.260749 
L 659.510384 176.478413 
L 662.750314 171.81692 
L 665.990245 168.80066 
L 669.230176 170.034584 
L 672.470107 181.688317 
L 675.710038 168.252249 
L 678.949969 181.277009 
L 678.949969 181.277009 
" clip-path="url(#p72b009f3ae)" style="fill: none; stroke: #ffa500; stroke-width: 3; stroke-linecap: square"/>
   </g>
   <g id="patch_3">
    <path d="M 114.23 343.96 
L 114.23 10.8 
" style="fill: none; stroke: #000000; stroke-width: 0.8; stroke-linejoin: miter; stroke-linecap: square"/>
   </g>
   <g id="patch_4">
    <path d="M 705.841396 343.96 
L 705.841396 10.8 
" style="fill: none; stroke: #000000; stroke-width: 0.8; stroke-linejoin: miter; stroke-linecap: square"/>
   </g>
   <g id="patch_5">
    <path d="M 114.23 343.96 
L 705.841396 343.96 
" style="fill: none; stroke: #000000; stroke-width: 0.8; stroke-linejoin: miter; stroke-linecap: square"/>
   </g>
   <g id="patch_6">
    <path d="M 114.23 10.8 
L 705.841396 10.8 
" style="fill: none; stroke: #000000; stroke-width: 0.8; stroke-linejoin: miter; stroke-linecap: square"/>
   </g>
  </g>
 </g>
 <defs>
  <clipPath id="p72b009f3ae">
   <rect x="114.23" y="10.8" width="591.611396" height="333.16"/>
  </clipPath>
 </defs>
</svg>
