<?xml version="1.0" encoding="utf-8" standalone="no"?>
<!DOCTYPE svg PUBLIC "-//W3C//DTD SVG 1.1//EN"
  "http://www.w3.org/Graphics/SVG/1.1/DTD/svg11.dtd">
<svg xmlns:xlink="http://www.w3.org/1999/xlink" width="720pt" height="432pt" viewBox="0 0 720 432" xmlns="http://www.w3.org/2000/svg" version="1.1">
 <metadata>
  <rdf:RDF xmlns:dc="http://purl.org/dc/elements/1.1/" xmlns:cc="http://creativecommons.org/ns#" xmlns:rdf="http://www.w3.org/1999/02/22-rdf-syntax-ns#">
   <cc:Work>
    <dc:type rdf:resource="http://purl.org/dc/dcmitype/StillImage"/>
    <dc:date>2025-06-19T21:17:28.202379</dc:date>
    <dc:format>image/svg+xml</dc:format>
    <dc:creator>
     <cc:Agent>
      <dc:title>Matplotlib v3.7.1, https://matplotlib.org/</dc:title>
     </cc:Agent>
    </dc:creator>
   </cc:Work>
  </rdf:RDF>
 </metadata>
 <defs>
  <style type="text/css">*{stroke-linejoin: round; stroke-linecap: butt}</style>
 </defs>
 <g id="figure_1">
  <g id="patch_1">
   <path d="M 0 432 
L 720 432 
L 720 0 
L 0 0 
z
" style="fill: #ffffff"/>
  </g>
  <g id="axes_1">
   <g id="patch_2">
    <path d="M 111.8 351.16 
L 709.2 351.16 
L 709.2 12.643252 
L 111.8 12.643252 
z
" style="fill: #ffffff"/>
   </g>
   <g id="PolyCollection_1">
    <defs>
     <path id="m062a10fcf2" d="M 138.954545 -362.559009 
L 138.954545 -330.283835 
L 142.575152 -328.783434 
L 146.195758 -318.201091 
L 149.816364 -319.38394 
L 153.43697 -310.38544 
L 157.057576 -317.57227 
L 160.678182 -302.599601 
L 164.298788 -294.509403 
L 167.919394 -309.398082 
L 171.54 -256.725065 
L 175.160606 -226.883182 
L 178.781212 -233.219744 
L 182.401818 -193.11773 
L 186.022424 -176.557733 
L 189.64303 -169.625701 
L 193.263636 -156.628652 
L 196.884242 -163.813312 
L 200.504848 -146.967241 
L 204.125455 -138.52349 
L 207.746061 -122.473352 
L 211.366667 -130.573755 
L 214.987273 -126.721538 
L 218.607879 -112.819467 
L 222.228485 -113.188331 
L 225.849091 -122.016255 
L 229.469697 -128.353618 
L 233.090303 -123.705481 
L 236.710909 -131.000823 
L 240.331515 -114.043076 
L 243.952121 -115.890813 
L 247.572727 -121.108733 
L 251.193333 -109.381244 
L 254.813939 -121.019833 
L 258.434545 -120.913437 
L 262.055152 -108.712584 
L 265.675758 -114.000536 
L 269.296364 -112.115301 
L 272.91697 -103.841981 
L 276.537576 -115.272725 
L 280.158182 -112.8046 
L 283.778788 -122.310701 
L 287.399394 -114.417427 
L 291.02 -112.783464 
L 294.640606 -100.979211 
L 298.261212 -107.250423 
L 301.881818 -114.713064 
L 305.502424 -109.038049 
L 309.12303 -112.60269 
L 312.743636 -110.999903 
L 316.364242 -105.304383 
L 319.984848 -99.656617 
L 323.605455 -106.490759 
L 327.226061 -101.004373 
L 330.846667 -102.833529 
L 334.467273 -103.392822 
L 338.087879 -108.151502 
L 341.708485 -104.165716 
L 345.329091 -110.964572 
L 348.949697 -106.483521 
L 352.570303 -107.199432 
L 356.190909 -102.116777 
L 359.811515 -101.861876 
L 363.432121 -102.04383 
L 367.052727 -104.172014 
L 370.673333 -101.394127 
L 374.293939 -107.210081 
L 377.914545 -106.133906 
L 381.535152 -103.068975 
L 385.155758 -104.391645 
L 388.776364 -102.547098 
L 392.39697 -106.920054 
L 396.017576 -107.134243 
L 399.638182 -106.779342 
L 403.258788 -100.115863 
L 406.879394 -111.687975 
L 410.5 -110.213721 
L 414.120606 -105.867752 
L 417.741212 -104.306745 
L 421.361818 -102.347617 
L 424.982424 -111.222853 
L 428.60303 -105.973015 
L 432.223636 -103.041765 
L 435.844242 -101.900483 
L 439.464848 -102.801386 
L 443.085455 -101.28603 
L 446.706061 -105.620634 
L 450.326667 -106.916459 
L 453.947273 -102.637457 
L 457.567879 -106.874556 
L 461.188485 -101.170404 
L 464.809091 -106.031622 
L 468.429697 -108.592138 
L 472.050303 -97.92925 
L 475.670909 -114.579461 
L 479.291515 -105.510672 
L 482.912121 -103.316544 
L 486.532727 -105.630204 
L 490.153333 -104.170108 
L 493.773939 -114.107269 
L 497.394545 -104.025686 
L 501.015152 -109.508426 
L 504.635758 -105.746702 
L 508.256364 -104.434936 
L 511.87697 -103.42694 
L 515.497576 -104.442574 
L 519.118182 -103.483512 
L 522.738788 -102.66629 
L 526.359394 -104.491656 
L 529.98 -106.400778 
L 533.600606 -100.952327 
L 537.221212 -100.721918 
L 540.841818 -102.969012 
L 544.462424 -100.001878 
L 548.08303 -100.845077 
L 551.703636 -99.212647 
L 555.324242 -99.503869 
L 558.944848 -102.192584 
L 562.565455 -101.219597 
L 566.186061 -106.406255 
L 569.806667 -100.928755 
L 573.427273 -103.628256 
L 577.047879 -102.872305 
L 580.668485 -101.575149 
L 584.289091 -101.552802 
L 587.909697 -102.464454 
L 591.530303 -104.001672 
L 595.150909 -101.456895 
L 598.771515 -101.412919 
L 602.392121 -105.403706 
L 606.012727 -99.910165 
L 609.633333 -104.691912 
L 613.253939 -102.531067 
L 616.874545 -102.609916 
L 620.495152 -106.206603 
L 624.115758 -101.888383 
L 627.736364 -102.263935 
L 631.35697 -103.160371 
L 634.977576 -102.358726 
L 638.598182 -106.503167 
L 642.218788 -105.529419 
L 645.839394 -103.172409 
L 649.46 -103.593242 
L 653.080606 -103.93612 
L 656.701212 -101.792347 
L 660.321818 -102.012597 
L 663.942424 -101.959466 
L 667.56303 -103.3947 
L 671.183636 -104.586606 
L 674.804242 -103.024496 
L 678.424848 -103.344668 
L 682.045455 -101.260554 
L 682.045455 -110.745026 
L 682.045455 -110.745026 
L 678.424848 -107.310829 
L 674.804242 -106.177066 
L 671.183636 -107.834385 
L 667.56303 -109.130144 
L 663.942424 -104.386151 
L 660.321818 -106.15044 
L 656.701212 -111.719096 
L 653.080606 -109.05606 
L 649.46 -111.372137 
L 645.839394 -109.923623 
L 642.218788 -107.099277 
L 638.598182 -109.44881 
L 634.977576 -104.194597 
L 631.35697 -108.4298 
L 627.736364 -106.366439 
L 624.115758 -111.103797 
L 620.495152 -115.561117 
L 616.874545 -108.045582 
L 613.253939 -108.955251 
L 609.633333 -110.533098 
L 606.012727 -113.133942 
L 602.392121 -107.848105 
L 598.771515 -107.061676 
L 595.150909 -111.223728 
L 591.530303 -117.091006 
L 587.909697 -107.516002 
L 584.289091 -105.623636 
L 580.668485 -102.849196 
L 577.047879 -109.08135 
L 573.427273 -106.248347 
L 569.806667 -112.530762 
L 566.186061 -113.076709 
L 562.565455 -110.474426 
L 558.944848 -113.39591 
L 555.324242 -117.902044 
L 551.703636 -121.360769 
L 548.08303 -132.917611 
L 544.462424 -111.017103 
L 540.841818 -127.626173 
L 537.221212 -118.241783 
L 533.600606 -115.57084 
L 529.98 -117.599771 
L 526.359394 -109.227491 
L 522.738788 -107.625724 
L 519.118182 -111.378013 
L 515.497576 -112.496002 
L 511.87697 -109.928723 
L 508.256364 -112.815199 
L 504.635758 -110.880317 
L 501.015152 -120.515571 
L 497.394545 -108.343379 
L 493.773939 -120.538165 
L 490.153333 -116.50716 
L 486.532727 -122.005184 
L 482.912121 -116.426051 
L 479.291515 -107.221877 
L 475.670909 -123.648886 
L 472.050303 -127.057898 
L 468.429697 -114.889148 
L 464.809091 -110.024208 
L 461.188485 -106.577223 
L 457.567879 -112.348777 
L 453.947273 -114.301119 
L 450.326667 -124.717251 
L 446.706061 -127.155455 
L 443.085455 -111.550371 
L 439.464848 -111.385098 
L 435.844242 -112.078296 
L 432.223636 -123.347393 
L 428.60303 -108.62888 
L 424.982424 -116.256756 
L 421.361818 -117.550757 
L 417.741212 -112.060643 
L 414.120606 -113.874843 
L 410.5 -113.371418 
L 406.879394 -118.959137 
L 403.258788 -165.166071 
L 399.638182 -117.428912 
L 396.017576 -109.181218 
L 392.39697 -135.202764 
L 388.776364 -113.456806 
L 385.155758 -117.58378 
L 381.535152 -138.119169 
L 377.914545 -107.169832 
L 374.293939 -140.001511 
L 370.673333 -146.284801 
L 367.052727 -161.161847 
L 363.432121 -118.581512 
L 359.811515 -122.346378 
L 356.190909 -126.816767 
L 352.570303 -131.132768 
L 348.949697 -129.771628 
L 345.329091 -132.456403 
L 341.708485 -118.692455 
L 338.087879 -112.162282 
L 334.467273 -111.157146 
L 330.846667 -125.061491 
L 327.226061 -147.86886 
L 323.605455 -124.831394 
L 319.984848 -119.826347 
L 316.364242 -113.34776 
L 312.743636 -114.194951 
L 309.12303 -152.938875 
L 305.502424 -117.091477 
L 301.881818 -125.540408 
L 298.261212 -137.053298 
L 294.640606 -157.863865 
L 291.02 -154.835152 
L 287.399394 -164.832674 
L 283.778788 -135.07844 
L 280.158182 -172.365096 
L 276.537576 -119.580415 
L 272.91697 -147.83527 
L 269.296364 -143.352568 
L 265.675758 -132.380235 
L 262.055152 -127.957975 
L 258.434545 -184.974841 
L 254.813939 -140.93882 
L 251.193333 -142.192155 
L 247.572727 -145.57521 
L 243.952121 -138.69431 
L 240.331515 -125.846912 
L 236.710909 -172.810404 
L 233.090303 -163.333561 
L 229.469697 -149.96181 
L 225.849091 -161.959136 
L 222.228485 -150.847373 
L 218.607879 -118.918096 
L 214.987273 -143.026056 
L 211.366667 -144.678023 
L 207.746061 -159.580767 
L 204.125455 -140.05157 
L 200.504848 -182.080152 
L 196.884242 -191.560701 
L 193.263636 -232.653216 
L 189.64303 -251.694675 
L 186.022424 -310.033965 
L 182.401818 -286.775479 
L 178.781212 -306.544455 
L 175.160606 -330.068612 
L 171.54 -345.558363 
L 167.919394 -324.14496 
L 164.298788 -334.983391 
L 160.678182 -319.311957 
L 157.057576 -336.118165 
L 153.43697 -344.4993 
L 149.816364 -353.103806 
L 146.195758 -341.408939 
L 142.575152 -348.896939 
L 138.954545 -362.559009 
z
" style="stroke: #0000ff; stroke-opacity: 0.3"/>
    </defs>
    <g clip-path="url(#p80dd646277)">
     <use xlink:href="#m062a10fcf2" x="0" y="432" style="fill: #0000ff; fill-opacity: 0.3; stroke: #0000ff; stroke-opacity: 0.3"/>
    </g>
   </g>
   <g id="PolyCollection_2">
    <defs>
     <path id="m7ab1059ca6" d="M 138.954545 -383.01988 
L 138.954545 -353.492957 
L 142.575152 -314.661612 
L 146.195758 -317.308987 
L 149.816364 -323.385182 
L 153.43697 -322.118523 
L 157.057576 -331.390346 
L 160.678182 -331.689755 
L 164.298788 -329.030958 
L 167.919394 -336.092677 
L 171.54 -320.421672 
L 175.160606 -313.935357 
L 178.781212 -326.69627 
L 182.401818 -318.458174 
L 186.022424 -289.397735 
L 189.64303 -262.318034 
L 193.263636 -235.051078 
L 196.884242 -211.872665 
L 200.504848 -209.969256 
L 204.125455 -168.966539 
L 207.746061 -176.949898 
L 211.366667 -168.06764 
L 214.987273 -117.320757 
L 218.607879 -159.488128 
L 222.228485 -142.140342 
L 225.849091 -124.125892 
L 229.469697 -145.010273 
L 233.090303 -134.662611 
L 236.710909 -149.74187 
L 240.331515 -127.57341 
L 243.952121 -130.500111 
L 247.572727 -141.069903 
L 251.193333 -119.271573 
L 254.813939 -139.64969 
L 258.434545 -146.776354 
L 262.055152 -116.717708 
L 265.675758 -129.392795 
L 269.296364 -105.215921 
L 272.91697 -103.184481 
L 276.537576 -122.599112 
L 280.158182 -116.39411 
L 283.778788 -114.238267 
L 287.399394 -110.968066 
L 291.02 -110.122953 
L 294.640606 -134.054126 
L 298.261212 -104.478611 
L 301.881818 -101.72305 
L 305.502424 -113.070359 
L 309.12303 -96.838446 
L 312.743636 -109.256735 
L 316.364242 -118.742491 
L 319.984848 -112.877604 
L 323.605455 -109.138828 
L 327.226061 -102.612358 
L 330.846667 -108.949882 
L 334.467273 -114.014043 
L 338.087879 -113.052188 
L 341.708485 -114.640847 
L 345.329091 -120.093689 
L 348.949697 -106.179181 
L 352.570303 -118.942044 
L 356.190909 -103.700151 
L 359.811515 -117.331258 
L 363.432121 -105.014313 
L 367.052727 -107.506299 
L 370.673333 -105.623405 
L 374.293939 -107.842793 
L 377.914545 -105.017288 
L 381.535152 -108.206904 
L 385.155758 -104.699171 
L 388.776364 -110.519655 
L 392.39697 -113.518855 
L 396.017576 -106.788203 
L 399.638182 -116.001306 
L 403.258788 -112.023643 
L 406.879394 -111.704407 
L 410.5 -109.789594 
L 414.120606 -110.463586 
L 417.741212 -105.433216 
L 421.361818 -102.058626 
L 424.982424 -106.254372 
L 428.60303 -108.463462 
L 432.223636 -107.555695 
L 435.844242 -111.738004 
L 439.464848 -110.294011 
L 443.085455 -99.3894 
L 446.706061 -110.489057 
L 450.326667 -103.115713 
L 453.947273 -106.198039 
L 457.567879 -105.470665 
L 461.188485 -105.131918 
L 464.809091 -105.510307 
L 468.429697 -105.405455 
L 472.050303 -103.034671 
L 475.670909 -104.489584 
L 479.291515 -102.552427 
L 482.912121 -102.526629 
L 486.532727 -102.550589 
L 490.153333 -96.227125 
L 493.773939 -108.367894 
L 497.394545 -102.206909 
L 501.015152 -105.974664 
L 504.635758 -105.638403 
L 508.256364 -96.618735 
L 511.87697 -106.787634 
L 515.497576 -103.062658 
L 519.118182 -100.941226 
L 522.738788 -99.60065 
L 526.359394 -104.023917 
L 529.98 -104.021441 
L 533.600606 -104.151739 
L 537.221212 -101.028506 
L 540.841818 -105.537597 
L 544.462424 -103.205703 
L 548.08303 -100.178347 
L 551.703636 -101.191545 
L 555.324242 -98.682978 
L 558.944848 -105.280413 
L 562.565455 -110.875174 
L 566.186061 -97.336601 
L 569.806667 -101.332444 
L 573.427273 -106.395716 
L 577.047879 -104.198384 
L 580.668485 -103.180561 
L 584.289091 -104.855735 
L 587.909697 -108.885069 
L 591.530303 -103.617571 
L 595.150909 -104.372491 
L 598.771515 -101.700571 
L 602.392121 -104.846605 
L 606.012727 -103.256274 
L 609.633333 -101.954375 
L 613.253939 -102.332932 
L 616.874545 -107.689096 
L 620.495152 -103.817865 
L 624.115758 -105.868999 
L 627.736364 -106.53354 
L 631.35697 -106.102667 
L 634.977576 -101.773841 
L 638.598182 -108.430763 
L 642.218788 -105.891139 
L 645.839394 -98.383133 
L 649.46 -110.332669 
L 653.080606 -101.328396 
L 656.701212 -102.968449 
L 660.321818 -101.893873 
L 663.942424 -101.873675 
L 667.56303 -101.208016 
L 671.183636 -102.696831 
L 674.804242 -102.230016 
L 678.424848 -102.456172 
L 682.045455 -100.85337 
L 682.045455 -106.582699 
L 682.045455 -106.582699 
L 678.424848 -105.447233 
L 674.804242 -105.309905 
L 671.183636 -108.32215 
L 667.56303 -112.66691 
L 663.942424 -140.508774 
L 660.321818 -119.198805 
L 656.701212 -126.74399 
L 653.080606 -104.601811 
L 649.46 -121.301042 
L 645.839394 -127.071352 
L 642.218788 -126.729171 
L 638.598182 -115.258228 
L 634.977576 -104.208292 
L 631.35697 -112.549476 
L 627.736364 -122.659636 
L 624.115758 -112.315808 
L 620.495152 -112.705301 
L 616.874545 -120.153997 
L 613.253939 -107.180188 
L 609.633333 -111.141657 
L 606.012727 -120.900054 
L 602.392121 -106.276229 
L 598.771515 -113.835997 
L 595.150909 -112.514159 
L 591.530303 -121.317651 
L 587.909697 -112.519166 
L 584.289091 -113.796408 
L 580.668485 -108.82502 
L 577.047879 -109.57269 
L 573.427273 -120.14922 
L 569.806667 -110.932768 
L 566.186061 -129.208335 
L 562.565455 -115.617836 
L 558.944848 -112.177426 
L 555.324242 -129.523599 
L 551.703636 -116.577852 
L 548.08303 -113.12539 
L 544.462424 -109.422993 
L 540.841818 -110.881716 
L 537.221212 -115.910071 
L 533.600606 -140.463539 
L 529.98 -115.77308 
L 526.359394 -122.676799 
L 522.738788 -138.264213 
L 519.118182 -139.312245 
L 515.497576 -113.772066 
L 511.87697 -132.842723 
L 508.256364 -141.713465 
L 504.635758 -133.991953 
L 501.015152 -130.280485 
L 497.394545 -111.304534 
L 493.773939 -141.543864 
L 490.153333 -133.017978 
L 486.532727 -111.583969 
L 482.912121 -119.500722 
L 479.291515 -110.439753 
L 475.670909 -121.016827 
L 472.050303 -110.009435 
L 468.429697 -112.779351 
L 464.809091 -114.595772 
L 461.188485 -119.595599 
L 457.567879 -129.642106 
L 453.947273 -114.219597 
L 450.326667 -115.899914 
L 446.706061 -122.702442 
L 443.085455 -131.828901 
L 439.464848 -119.054944 
L 435.844242 -130.384814 
L 432.223636 -111.563784 
L 428.60303 -123.741438 
L 424.982424 -120.498269 
L 421.361818 -116.853149 
L 417.741212 -115.036347 
L 414.120606 -132.23042 
L 410.5 -131.710108 
L 406.879394 -130.678042 
L 403.258788 -115.40404 
L 399.638182 -132.923853 
L 396.017576 -132.634449 
L 392.39697 -128.240479 
L 388.776364 -134.822592 
L 385.155758 -112.602889 
L 381.535152 -121.920945 
L 377.914545 -138.819096 
L 374.293939 -137.759085 
L 370.673333 -154.517828 
L 367.052727 -125.26979 
L 363.432121 -112.910863 
L 359.811515 -128.530251 
L 356.190909 -116.873264 
L 352.570303 -141.303042 
L 348.949697 -127.220023 
L 345.329091 -124.002327 
L 341.708485 -130.649473 
L 338.087879 -143.298427 
L 334.467273 -131.535909 
L 330.846667 -153.57996 
L 327.226061 -189.671237 
L 323.605455 -150.067732 
L 319.984848 -175.096111 
L 316.364242 -168.660034 
L 312.743636 -148.495889 
L 309.12303 -174.518862 
L 305.502424 -191.000499 
L 301.881818 -179.500249 
L 298.261212 -169.89042 
L 294.640606 -147.948067 
L 291.02 -147.318114 
L 287.399394 -186.404303 
L 283.778788 -158.365271 
L 280.158182 -145.616469 
L 276.537576 -147.823523 
L 272.91697 -150.414043 
L 269.296364 -138.101201 
L 265.675758 -164.55244 
L 262.055152 -210.668045 
L 258.434545 -186.944404 
L 254.813939 -187.528358 
L 251.193333 -198.300115 
L 247.572727 -144.567129 
L 243.952121 -174.661198 
L 240.331515 -143.628119 
L 236.710909 -185.588602 
L 233.090303 -179.793501 
L 229.469697 -192.449177 
L 225.849091 -175.063896 
L 222.228485 -224.553598 
L 218.607879 -282.291199 
L 214.987273 -277.569148 
L 211.366667 -322.989717 
L 207.746061 -305.124214 
L 204.125455 -326.868035 
L 200.504848 -337.843514 
L 196.884242 -342.534742 
L 193.263636 -314.423333 
L 189.64303 -323.193209 
L 186.022424 -348.14363 
L 182.401818 -344.682843 
L 178.781212 -340.702701 
L 175.160606 -376.415025 
L 171.54 -361.568581 
L 167.919394 -369.472102 
L 164.298788 -363.448401 
L 160.678182 -361.931982 
L 157.057576 -356.571428 
L 153.43697 -361.481444 
L 149.816364 -378.960169 
L 146.195758 -338.250794 
L 142.575152 -340.378907 
L 138.954545 -383.01988 
z
" style="stroke: #008000; stroke-opacity: 0.3"/>
    </defs>
    <g clip-path="url(#p80dd646277)">
     <use xlink:href="#m7ab1059ca6" x="0" y="432" style="fill: #008000; fill-opacity: 0.3; stroke: #008000; stroke-opacity: 0.3"/>
    </g>
   </g>
   <g id="PolyCollection_3">
    <defs>
     <path id="mea68e331ea" d="M 138.954545 -349.00184 
L 138.954545 -335.065464 
L 142.575152 -367.119138 
L 146.195758 -350.265045 
L 149.816364 -334.873264 
L 153.43697 -355.124955 
L 157.057576 -330.82421 
L 160.678182 -355.232728 
L 164.298788 -330.954129 
L 167.919394 -340.769834 
L 171.54 -336.05048 
L 175.160606 -331.004813 
L 178.781212 -345.442362 
L 182.401818 -329.307286 
L 186.022424 -325.692878 
L 189.64303 -354.549282 
L 193.263636 -325.337669 
L 196.884242 -318.947793 
L 200.504848 -322.02906 
L 204.125455 -329.122739 
L 207.746061 -342.347328 
L 211.366667 -338.855179 
L 214.987273 -336.141098 
L 218.607879 -356.213359 
L 222.228485 -340.352606 
L 225.849091 -353.096816 
L 229.469697 -353.148342 
L 233.090303 -346.247218 
L 236.710909 -359.921093 
L 240.331515 -331.30227 
L 243.952121 -347.450377 
L 247.572727 -342.928548 
L 251.193333 -340.785384 
L 254.813939 -335.328789 
L 258.434545 -311.273566 
L 262.055152 -341.775541 
L 265.675758 -338.655959 
L 269.296364 -332.031762 
L 272.91697 -367.474308 
L 276.537576 -337.63312 
L 280.158182 -345.886152 
L 283.778788 -330.144522 
L 287.399394 -340.232305 
L 291.02 -315.109286 
L 294.640606 -336.838587 
L 298.261212 -313.462646 
L 301.881818 -339.890673 
L 305.502424 -348.452222 
L 309.12303 -345.151385 
L 312.743636 -327.643102 
L 316.364242 -331.058169 
L 319.984848 -324.517522 
L 323.605455 -325.504715 
L 327.226061 -327.158137 
L 330.846667 -324.382133 
L 334.467273 -316.039459 
L 338.087879 -336.056764 
L 341.708485 -337.105644 
L 345.329091 -333.049695 
L 348.949697 -334.784855 
L 352.570303 -337.535468 
L 356.190909 -348.234382 
L 359.811515 -338.358446 
L 363.432121 -324.423427 
L 367.052727 -340.988308 
L 370.673333 -335.116762 
L 374.293939 -334.878496 
L 377.914545 -346.959599 
L 381.535152 -318.945067 
L 385.155758 -344.69671 
L 388.776364 -343.534195 
L 392.39697 -321.925601 
L 396.017576 -317.92611 
L 399.638182 -322.39216 
L 403.258788 -329.667374 
L 406.879394 -326.082341 
L 410.5 -331.291855 
L 414.120606 -347.88897 
L 417.741212 -321.421313 
L 421.361818 -327.265069 
L 424.982424 -330.881409 
L 428.60303 -306.517972 
L 432.223636 -328.353767 
L 435.844242 -339.366906 
L 439.464848 -346.102982 
L 443.085455 -342.591038 
L 446.706061 -328.582985 
L 450.326667 -343.213899 
L 453.947273 -331.017932 
L 457.567879 -335.033727 
L 461.188485 -330.520087 
L 464.809091 -330.571295 
L 468.429697 -328.050704 
L 472.050303 -337.451977 
L 475.670909 -329.548635 
L 479.291515 -329.064649 
L 482.912121 -326.867364 
L 486.532727 -315.562741 
L 490.153333 -340.200607 
L 493.773939 -328.779316 
L 497.394545 -325.713038 
L 501.015152 -324.475599 
L 504.635758 -333.572493 
L 508.256364 -332.479169 
L 511.87697 -323.717027 
L 515.497576 -326.874366 
L 519.118182 -318.599197 
L 522.738788 -331.96999 
L 526.359394 -331.170521 
L 529.98 -334.051098 
L 533.600606 -329.319341 
L 537.221212 -322.116618 
L 540.841818 -339.308534 
L 544.462424 -319.317873 
L 548.08303 -324.582098 
L 551.703636 -334.553284 
L 555.324242 -326.578061 
L 558.944848 -342.875079 
L 562.565455 -322.190733 
L 566.186061 -318.439257 
L 569.806667 -343.008036 
L 573.427273 -335.868093 
L 577.047879 -315.023271 
L 580.668485 -332.675684 
L 584.289091 -330.26969 
L 587.909697 -328.756461 
L 591.530303 -320.962031 
L 595.150909 -332.58293 
L 598.771515 -313.768251 
L 602.392121 -319.893315 
L 606.012727 -330.985852 
L 609.633333 -326.361498 
L 613.253939 -294.979146 
L 616.874545 -311.557243 
L 620.495152 -304.52821 
L 624.115758 -296.96829 
L 627.736364 -284.349124 
L 631.35697 -303.776317 
L 634.977576 -276.571892 
L 638.598182 -275.82112 
L 642.218788 -262.205376 
L 645.839394 -258.79133 
L 649.46 -247.55631 
L 653.080606 -245.577652 
L 656.701212 -201.708556 
L 660.321818 -214.714978 
L 663.942424 -208.013044 
L 667.56303 -206.268287 
L 671.183636 -189.007613 
L 674.804242 -175.821501 
L 678.424848 -131.064445 
L 682.045455 -181.745597 
L 682.045455 -322.916443 
L 682.045455 -322.916443 
L 678.424848 -311.753407 
L 674.804242 -330.813737 
L 671.183636 -348.783388 
L 667.56303 -353.279821 
L 663.942424 -377.238568 
L 660.321818 -355.737646 
L 656.701212 -344.754131 
L 653.080606 -344.658881 
L 649.46 -350.261459 
L 645.839394 -344.582549 
L 642.218788 -331.665997 
L 638.598182 -340.066991 
L 634.977576 -366.265953 
L 631.35697 -348.771741 
L 627.736364 -349.349698 
L 624.115758 -351.166035 
L 620.495152 -353.00477 
L 616.874545 -339.3811 
L 613.253939 -334.254016 
L 609.633333 -350.488054 
L 606.012727 -363.934042 
L 602.392121 -350.569306 
L 598.771515 -368.222002 
L 595.150909 -351.795931 
L 591.530303 -354.381659 
L 587.909697 -343.419727 
L 584.289091 -354.836139 
L 580.668485 -343.602679 
L 577.047879 -341.315404 
L 573.427273 -369.540908 
L 569.806667 -364.322236 
L 566.186061 -326.839123 
L 562.565455 -345.987132 
L 558.944848 -351.889037 
L 555.324242 -358.475841 
L 551.703636 -344.944508 
L 548.08303 -386.590719 
L 544.462424 -333.385964 
L 540.841818 -355.974844 
L 537.221212 -369.791552 
L 533.600606 -380.139909 
L 529.98 -366.996096 
L 526.359394 -352.221741 
L 522.738788 -344.723784 
L 519.118182 -340.803128 
L 515.497576 -335.124273 
L 511.87697 -331.531197 
L 508.256364 -346.239729 
L 504.635758 -341.926976 
L 501.015152 -364.888184 
L 497.394545 -347.449749 
L 493.773939 -362.298035 
L 490.153333 -366.143067 
L 486.532727 -350.641925 
L 482.912121 -345.412677 
L 479.291515 -348.044535 
L 475.670909 -361.684494 
L 472.050303 -357.415991 
L 468.429697 -354.926148 
L 464.809091 -334.698699 
L 461.188485 -353.027954 
L 457.567879 -363.261375 
L 453.947273 -348.999123 
L 450.326667 -366.868466 
L 446.706061 -341.204594 
L 443.085455 -381.771052 
L 439.464848 -375.29931 
L 435.844242 -374.973413 
L 432.223636 -355.194274 
L 428.60303 -340.422049 
L 424.982424 -378.31821 
L 421.361818 -378.559342 
L 417.741212 -364.567263 
L 414.120606 -367.386022 
L 410.5 -336.626379 
L 406.879394 -345.678437 
L 403.258788 -357.671285 
L 399.638182 -350.355216 
L 396.017576 -370.191443 
L 392.39697 -356.274034 
L 388.776364 -362.549847 
L 385.155758 -375.61513 
L 381.535152 -372.184209 
L 377.914545 -361.980389 
L 374.293939 -380.292643 
L 370.673333 -358.193418 
L 367.052727 -369.665246 
L 363.432121 -360.474697 
L 359.811515 -356.249891 
L 356.190909 -368.494546 
L 352.570303 -365.692629 
L 348.949697 -372.856975 
L 345.329091 -377.551933 
L 341.708485 -353.452443 
L 338.087879 -368.46949 
L 334.467273 -364.600711 
L 330.846667 -345.509299 
L 327.226061 -375.187214 
L 323.605455 -375.80211 
L 319.984848 -372.064012 
L 316.364242 -349.062738 
L 312.743636 -366.030561 
L 309.12303 -396.086742 
L 305.502424 -371.132651 
L 301.881818 -347.655691 
L 298.261212 -326.830812 
L 294.640606 -347.072938 
L 291.02 -355.924524 
L 287.399394 -358.166649 
L 283.778788 -343.381749 
L 280.158182 -373.906426 
L 276.537576 -375.253264 
L 272.91697 -385.291451 
L 269.296364 -395.757461 
L 265.675758 -377.449853 
L 262.055152 -382.119212 
L 258.434545 -374.351525 
L 254.813939 -344.324781 
L 251.193333 -363.948575 
L 247.572727 -386.47039 
L 243.952121 -367.253426 
L 240.331515 -342.431706 
L 236.710909 -365.739153 
L 233.090303 -373.96077 
L 229.469697 -359.426484 
L 225.849091 -357.089402 
L 222.228485 -356.07315 
L 218.607879 -370.79697 
L 214.987273 -350.522519 
L 211.366667 -363.074762 
L 207.746061 -359.842244 
L 204.125455 -353.542555 
L 200.504848 -368.165544 
L 196.884242 -352.864911 
L 193.263636 -363.299147 
L 189.64303 -357.921692 
L 186.022424 -364.138242 
L 182.401818 -368.416627 
L 178.781212 -353.839339 
L 175.160606 -355.29532 
L 171.54 -350.353505 
L 167.919394 -373.518559 
L 164.298788 -335.250538 
L 160.678182 -369.181288 
L 157.057576 -350.127517 
L 153.43697 -367.263936 
L 149.816364 -349.869082 
L 146.195758 -401.462189 
L 142.575152 -375.313294 
L 138.954545 -349.00184 
z
" style="stroke: #ff0000; stroke-opacity: 0.3"/>
    </defs>
    <g clip-path="url(#p80dd646277)">
     <use xlink:href="#mea68e331ea" x="0" y="432" style="fill: #ff0000; fill-opacity: 0.3; stroke: #ff0000; stroke-opacity: 0.3"/>
    </g>
   </g>
   <g id="PolyCollection_4">
    <defs>
     <path id="m0117710e22" d="M 138.954545 -369.014098 
L 138.954545 -337.069944 
L 142.575152 -342.410784 
L 146.195758 -370.256606 
L 149.816364 -307.946185 
L 153.43697 -316.174315 
L 157.057576 -334.701872 
L 160.678182 -355.045081 
L 164.298788 -344.70137 
L 167.919394 -331.952335 
L 171.54 -347.271218 
L 175.160606 -341.301859 
L 178.781212 -339.583706 
L 182.401818 -339.120508 
L 186.022424 -337.653208 
L 189.64303 -349.789457 
L 193.263636 -328.703832 
L 196.884242 -320.251368 
L 200.504848 -367.620704 
L 204.125455 -333.672704 
L 207.746061 -334.418308 
L 211.366667 -316.957632 
L 214.987273 -333.787758 
L 218.607879 -324.362561 
L 222.228485 -353.763585 
L 225.849091 -348.328009 
L 229.469697 -353.177056 
L 233.090303 -342.280367 
L 236.710909 -338.849543 
L 240.331515 -323.525966 
L 243.952121 -335.839054 
L 247.572727 -345.170999 
L 251.193333 -349.952223 
L 254.813939 -319.981091 
L 258.434545 -319.473107 
L 262.055152 -317.728992 
L 265.675758 -334.242048 
L 269.296364 -309.676282 
L 272.91697 -334.272465 
L 276.537576 -327.533383 
L 280.158182 -346.886357 
L 283.778788 -326.741813 
L 287.399394 -329.317699 
L 291.02 -331.726495 
L 294.640606 -317.508239 
L 298.261212 -332.150105 
L 301.881818 -320.787739 
L 305.502424 -335.410836 
L 309.12303 -326.120751 
L 312.743636 -322.535043 
L 316.364242 -320.744035 
L 319.984848 -326.141549 
L 323.605455 -314.700137 
L 327.226061 -316.585926 
L 330.846667 -285.120899 
L 334.467273 -262.054686 
L 338.087879 -238.523362 
L 341.708485 -220.331186 
L 345.329091 -191.892667 
L 348.949697 -238.701337 
L 352.570303 -217.274655 
L 356.190909 -189.489668 
L 359.811515 -176.144354 
L 363.432121 -152.825452 
L 367.052727 -208.197547 
L 370.673333 -178.010634 
L 374.293939 -165.275736 
L 377.914545 -182.474642 
L 381.535152 -160.177311 
L 385.155758 -172.394429 
L 388.776364 -168.859436 
L 392.39697 -169.467505 
L 396.017576 -160.915164 
L 399.638182 -183.233403 
L 403.258788 -153.911874 
L 406.879394 -162.188719 
L 410.5 -128.846803 
L 414.120606 -143.933524 
L 417.741212 -176.743578 
L 421.361818 -163.964574 
L 424.982424 -136.424991 
L 428.60303 -140.155013 
L 432.223636 -126.941274 
L 435.844242 -129.691227 
L 439.464848 -137.788863 
L 443.085455 -116.076116 
L 446.706061 -121.771499 
L 450.326667 -122.398969 
L 453.947273 -121.923302 
L 457.567879 -133.498908 
L 461.188485 -134.477199 
L 464.809091 -125.720722 
L 468.429697 -114.164888 
L 472.050303 -117.897881 
L 475.670909 -139.379045 
L 479.291515 -102.682458 
L 482.912121 -136.495283 
L 486.532727 -138.593272 
L 490.153333 -121.571043 
L 493.773939 -131.052707 
L 497.394545 -111.517883 
L 501.015152 -132.43787 
L 504.635758 -135.675958 
L 508.256364 -116.907013 
L 511.87697 -175.118415 
L 515.497576 -123.99115 
L 519.118182 -133.808851 
L 522.738788 -120.629207 
L 526.359394 -129.166832 
L 529.98 -117.017165 
L 533.600606 -131.146886 
L 537.221212 -120.032263 
L 540.841818 -123.132182 
L 544.462424 -126.350585 
L 548.08303 -116.079698 
L 551.703636 -105.622831 
L 555.324242 -127.31501 
L 558.944848 -129.927405 
L 562.565455 -118.503156 
L 566.186061 -110.631184 
L 569.806667 -112.383553 
L 573.427273 -120.437475 
L 577.047879 -145.277493 
L 580.668485 -133.517644 
L 584.289091 -121.644401 
L 587.909697 -121.023022 
L 591.530303 -109.675712 
L 595.150909 -127.284701 
L 598.771515 -114.881549 
L 602.392121 -115.019772 
L 606.012727 -145.1897 
L 609.633333 -150.105347 
L 613.253939 -135.597567 
L 616.874545 -116.982664 
L 620.495152 -116.327571 
L 624.115758 -134.324324 
L 627.736364 -123.109376 
L 631.35697 -125.282614 
L 634.977576 -129.878645 
L 638.598182 -123.090477 
L 642.218788 -126.902526 
L 645.839394 -108.266431 
L 649.46 -117.029132 
L 653.080606 -108.106645 
L 656.701212 -113.067897 
L 660.321818 -109.008368 
L 663.942424 -120.504348 
L 667.56303 -107.854001 
L 671.183636 -111.724485 
L 674.804242 -130.229344 
L 678.424848 -123.695019 
L 682.045455 -119.800996 
L 682.045455 -130.889656 
L 682.045455 -130.889656 
L 678.424848 -131.77285 
L 674.804242 -158.575191 
L 671.183636 -118.039881 
L 667.56303 -109.396133 
L 663.942424 -121.826175 
L 660.321818 -144.330524 
L 656.701212 -134.143695 
L 653.080606 -126.538789 
L 649.46 -152.718462 
L 645.839394 -123.834616 
L 642.218788 -191.084572 
L 638.598182 -204.970318 
L 634.977576 -150.513834 
L 631.35697 -167.727949 
L 627.736364 -204.328304 
L 624.115758 -156.868819 
L 620.495152 -173.827047 
L 616.874545 -134.019546 
L 613.253939 -199.265569 
L 609.633333 -197.323946 
L 606.012727 -160.023536 
L 602.392121 -128.972391 
L 598.771515 -119.14077 
L 595.150909 -168.11447 
L 591.530303 -148.596175 
L 587.909697 -186.526896 
L 584.289091 -162.694474 
L 580.668485 -186.390726 
L 577.047879 -213.939064 
L 573.427273 -131.966744 
L 569.806667 -117.744296 
L 566.186061 -136.113072 
L 562.565455 -127.462206 
L 558.944848 -171.858697 
L 555.324242 -193.112623 
L 551.703636 -114.067837 
L 548.08303 -154.706421 
L 544.462424 -145.370207 
L 540.841818 -153.3139 
L 537.221212 -153.298243 
L 533.600606 -142.235546 
L 529.98 -148.887884 
L 526.359394 -162.285943 
L 522.738788 -131.203823 
L 519.118182 -203.131336 
L 515.497576 -181.637496 
L 511.87697 -229.533628 
L 508.256364 -148.998036 
L 504.635758 -189.944302 
L 501.015152 -167.686591 
L 497.394545 -146.5463 
L 493.773939 -143.316324 
L 490.153333 -180.318912 
L 486.532727 -141.383796 
L 482.912121 -219.917256 
L 479.291515 -131.028304 
L 475.670909 -150.100531 
L 472.050303 -157.405823 
L 468.429697 -115.339846 
L 464.809091 -141.949821 
L 461.188485 -188.598673 
L 457.567879 -149.801442 
L 453.947273 -147.772365 
L 450.326667 -140.390504 
L 446.706061 -187.128502 
L 443.085455 -130.616213 
L 439.464848 -143.590215 
L 435.844242 -218.620813 
L 432.223636 -183.412663 
L 428.60303 -152.492065 
L 424.982424 -168.736319 
L 421.361818 -215.295524 
L 417.741212 -211.55169 
L 414.120606 -219.64484 
L 410.5 -237.016316 
L 406.879394 -229.01442 
L 403.258788 -286.828927 
L 399.638182 -296.763659 
L 396.017576 -363.375006 
L 392.39697 -331.611622 
L 388.776364 -368.308449 
L 385.155758 -368.979484 
L 381.535152 -357.570149 
L 377.914545 -329.197444 
L 374.293939 -333.882119 
L 370.673333 -403.969623 
L 367.052727 -344.859777 
L 363.432121 -312.839959 
L 359.811515 -333.294903 
L 356.190909 -356.921093 
L 352.570303 -354.891537 
L 348.949697 -334.607232 
L 345.329091 -370.926796 
L 341.708485 -369.697642 
L 338.087879 -351.245835 
L 334.467273 -382.340947 
L 330.846667 -325.730363 
L 327.226061 -354.551736 
L 323.605455 -318.739053 
L 319.984848 -338.037993 
L 316.364242 -355.845886 
L 312.743636 -354.626067 
L 309.12303 -351.455769 
L 305.502424 -350.318108 
L 301.881818 -338.926144 
L 298.261212 -341.843503 
L 294.640606 -336.234123 
L 291.02 -354.417859 
L 287.399394 -331.227005 
L 283.778788 -329.752641 
L 280.158182 -369.063677 
L 276.537576 -347.654528 
L 272.91697 -346.315778 
L 269.296364 -328.695904 
L 265.675758 -346.138491 
L 262.055152 -339.025094 
L 258.434545 -346.056518 
L 254.813939 -326.076183 
L 251.193333 -357.222271 
L 247.572727 -355.305006 
L 243.952121 -372.997081 
L 240.331515 -350.62342 
L 236.710909 -342.154111 
L 233.090303 -344.850586 
L 229.469697 -354.205143 
L 225.849091 -368.816329 
L 222.228485 -360.005546 
L 218.607879 -330.677957 
L 214.987273 -348.254421 
L 211.366667 -371.886889 
L 207.746061 -335.005787 
L 204.125455 -345.201973 
L 200.504848 -368.061313 
L 196.884242 -351.093999 
L 193.263636 -358.73868 
L 189.64303 -373.949518 
L 186.022424 -348.594999 
L 182.401818 -350.502907 
L 178.781212 -348.689626 
L 175.160606 -355.695086 
L 171.54 -364.16123 
L 167.919394 -353.101568 
L 164.298788 -352.191723 
L 160.678182 -377.002097 
L 157.057576 -342.926574 
L 153.43697 -328.584802 
L 149.816364 -347.821301 
L 146.195758 -381.418701 
L 142.575152 -383.093683 
L 138.954545 -369.014098 
z
" style="stroke: #ffa500; stroke-opacity: 0.3"/>
    </defs>
    <g clip-path="url(#p80dd646277)">
     <use xlink:href="#m0117710e22" x="0" y="432" style="fill: #ffa500; fill-opacity: 0.3; stroke: #ffa500; stroke-opacity: 0.3"/>
    </g>
   </g>
   <g id="matplotlib.axis_1">
    <g id="xtick_1">
     <g id="line2d_1">
      <defs>
       <path id="m36efd48a8b" d="M 0 0 
L 0 3.5 
" style="stroke: #000000; stroke-width: 0.8"/>
      </defs>
      <g>
       <use xlink:href="#m36efd48a8b" x="138.954545" y="351.16" style="stroke: #000000; stroke-width: 0.8"/>
      </g>
     </g>
     <g id="text_1">
      <!-- 0 -->
      <g transform="translate(132.592045 373.356875) scale(0.2 -0.2)">
       <defs>
        <path id="DejaVuSans-30" d="M 2034 4250 
Q 1547 4250 1301 3770 
Q 1056 3291 1056 2328 
Q 1056 1369 1301 889 
Q 1547 409 2034 409 
Q 2525 409 2770 889 
Q 3016 1369 3016 2328 
Q 3016 3291 2770 3770 
Q 2525 4250 2034 4250 
z
M 2034 4750 
Q 2819 4750 3233 4129 
Q 3647 3509 3647 2328 
Q 3647 1150 3233 529 
Q 2819 -91 2034 -91 
Q 1250 -91 836 529 
Q 422 1150 422 2328 
Q 422 3509 836 4129 
Q 1250 4750 2034 4750 
z
" transform="scale(0.015625)"/>
       </defs>
       <use xlink:href="#DejaVuSans-30"/>
      </g>
     </g>
    </g>
    <g id="xtick_2">
     <g id="line2d_2">
      <g>
       <use xlink:href="#m36efd48a8b" x="211.366667" y="351.16" style="stroke: #000000; stroke-width: 0.8"/>
      </g>
     </g>
     <g id="text_2">
      <!-- 20 -->
      <g transform="translate(198.641667 373.356875) scale(0.2 -0.2)">
       <defs>
        <path id="DejaVuSans-32" d="M 1228 531 
L 3431 531 
L 3431 0 
L 469 0 
L 469 531 
Q 828 903 1448 1529 
Q 2069 2156 2228 2338 
Q 2531 2678 2651 2914 
Q 2772 3150 2772 3378 
Q 2772 3750 2511 3984 
Q 2250 4219 1831 4219 
Q 1534 4219 1204 4116 
Q 875 4013 500 3803 
L 500 4441 
Q 881 4594 1212 4672 
Q 1544 4750 1819 4750 
Q 2544 4750 2975 4387 
Q 3406 4025 3406 3419 
Q 3406 3131 3298 2873 
Q 3191 2616 2906 2266 
Q 2828 2175 2409 1742 
Q 1991 1309 1228 531 
z
" transform="scale(0.015625)"/>
       </defs>
       <use xlink:href="#DejaVuSans-32"/>
       <use xlink:href="#DejaVuSans-30" x="63.623047"/>
      </g>
     </g>
    </g>
    <g id="xtick_3">
     <g id="line2d_3">
      <g>
       <use xlink:href="#m36efd48a8b" x="283.778788" y="351.16" style="stroke: #000000; stroke-width: 0.8"/>
      </g>
     </g>
     <g id="text_3">
      <!-- 40 -->
      <g transform="translate(271.053788 373.356875) scale(0.2 -0.2)">
       <defs>
        <path id="DejaVuSans-34" d="M 2419 4116 
L 825 1625 
L 2419 1625 
L 2419 4116 
z
M 2253 4666 
L 3047 4666 
L 3047 1625 
L 3713 1625 
L 3713 1100 
L 3047 1100 
L 3047 0 
L 2419 0 
L 2419 1100 
L 313 1100 
L 313 1709 
L 2253 4666 
z
" transform="scale(0.015625)"/>
       </defs>
       <use xlink:href="#DejaVuSans-34"/>
       <use xlink:href="#DejaVuSans-30" x="63.623047"/>
      </g>
     </g>
    </g>
    <g id="xtick_4">
     <g id="line2d_4">
      <g>
       <use xlink:href="#m36efd48a8b" x="356.190909" y="351.16" style="stroke: #000000; stroke-width: 0.8"/>
      </g>
     </g>
     <g id="text_4">
      <!-- 60 -->
      <g transform="translate(343.465909 373.356875) scale(0.2 -0.2)">
       <defs>
        <path id="DejaVuSans-36" d="M 2113 2584 
Q 1688 2584 1439 2293 
Q 1191 2003 1191 1497 
Q 1191 994 1439 701 
Q 1688 409 2113 409 
Q 2538 409 2786 701 
Q 3034 994 3034 1497 
Q 3034 2003 2786 2293 
Q 2538 2584 2113 2584 
z
M 3366 4563 
L 3366 3988 
Q 3128 4100 2886 4159 
Q 2644 4219 2406 4219 
Q 1781 4219 1451 3797 
Q 1122 3375 1075 2522 
Q 1259 2794 1537 2939 
Q 1816 3084 2150 3084 
Q 2853 3084 3261 2657 
Q 3669 2231 3669 1497 
Q 3669 778 3244 343 
Q 2819 -91 2113 -91 
Q 1303 -91 875 529 
Q 447 1150 447 2328 
Q 447 3434 972 4092 
Q 1497 4750 2381 4750 
Q 2619 4750 2861 4703 
Q 3103 4656 3366 4563 
z
" transform="scale(0.015625)"/>
       </defs>
       <use xlink:href="#DejaVuSans-36"/>
       <use xlink:href="#DejaVuSans-30" x="63.623047"/>
      </g>
     </g>
    </g>
    <g id="xtick_5">
     <g id="line2d_5">
      <g>
       <use xlink:href="#m36efd48a8b" x="428.60303" y="351.16" style="stroke: #000000; stroke-width: 0.8"/>
      </g>
     </g>
     <g id="text_5">
      <!-- 80 -->
      <g transform="translate(415.87803 373.356875) scale(0.2 -0.2)">
       <defs>
        <path id="DejaVuSans-38" d="M 2034 2216 
Q 1584 2216 1326 1975 
Q 1069 1734 1069 1313 
Q 1069 891 1326 650 
Q 1584 409 2034 409 
Q 2484 409 2743 651 
Q 3003 894 3003 1313 
Q 3003 1734 2745 1975 
Q 2488 2216 2034 2216 
z
M 1403 2484 
Q 997 2584 770 2862 
Q 544 3141 544 3541 
Q 544 4100 942 4425 
Q 1341 4750 2034 4750 
Q 2731 4750 3128 4425 
Q 3525 4100 3525 3541 
Q 3525 3141 3298 2862 
Q 3072 2584 2669 2484 
Q 3125 2378 3379 2068 
Q 3634 1759 3634 1313 
Q 3634 634 3220 271 
Q 2806 -91 2034 -91 
Q 1263 -91 848 271 
Q 434 634 434 1313 
Q 434 1759 690 2068 
Q 947 2378 1403 2484 
z
M 1172 3481 
Q 1172 3119 1398 2916 
Q 1625 2713 2034 2713 
Q 2441 2713 2670 2916 
Q 2900 3119 2900 3481 
Q 2900 3844 2670 4047 
Q 2441 4250 2034 4250 
Q 1625 4250 1398 4047 
Q 1172 3844 1172 3481 
z
" transform="scale(0.015625)"/>
       </defs>
       <use xlink:href="#DejaVuSans-38"/>
       <use xlink:href="#DejaVuSans-30" x="63.623047"/>
      </g>
     </g>
    </g>
    <g id="xtick_6">
     <g id="line2d_6">
      <g>
       <use xlink:href="#m36efd48a8b" x="501.015152" y="351.16" style="stroke: #000000; stroke-width: 0.8"/>
      </g>
     </g>
     <g id="text_6">
      <!-- 100 -->
      <g transform="translate(481.927652 373.356875) scale(0.2 -0.2)">
       <defs>
        <path id="DejaVuSans-31" d="M 794 531 
L 1825 531 
L 1825 4091 
L 703 3866 
L 703 4441 
L 1819 4666 
L 2450 4666 
L 2450 531 
L 3481 531 
L 3481 0 
L 794 0 
L 794 531 
z
" transform="scale(0.015625)"/>
       </defs>
       <use xlink:href="#DejaVuSans-31"/>
       <use xlink:href="#DejaVuSans-30" x="63.623047"/>
       <use xlink:href="#DejaVuSans-30" x="127.246094"/>
      </g>
     </g>
    </g>
    <g id="xtick_7">
     <g id="line2d_7">
      <g>
       <use xlink:href="#m36efd48a8b" x="573.427273" y="351.16" style="stroke: #000000; stroke-width: 0.8"/>
      </g>
     </g>
     <g id="text_7">
      <!-- 120 -->
      <g transform="translate(554.339773 373.356875) scale(0.2 -0.2)">
       <use xlink:href="#DejaVuSans-31"/>
       <use xlink:href="#DejaVuSans-32" x="63.623047"/>
       <use xlink:href="#DejaVuSans-30" x="127.246094"/>
      </g>
     </g>
    </g>
    <g id="xtick_8">
     <g id="line2d_8">
      <g>
       <use xlink:href="#m36efd48a8b" x="645.839394" y="351.16" style="stroke: #000000; stroke-width: 0.8"/>
      </g>
     </g>
     <g id="text_8">
      <!-- 140 -->
      <g transform="translate(626.751894 373.356875) scale(0.2 -0.2)">
       <use xlink:href="#DejaVuSans-31"/>
       <use xlink:href="#DejaVuSans-34" x="63.623047"/>
       <use xlink:href="#DejaVuSans-30" x="127.246094"/>
      </g>
     </g>
    </g>
    <g id="text_9">
     <!-- Episode -->
     <g transform="translate(331.95 411.91) scale(0.4 -0.4)">
      <defs>
       <path id="DejaVuSans-45" d="M 628 4666 
L 3578 4666 
L 3578 4134 
L 1259 4134 
L 1259 2753 
L 3481 2753 
L 3481 2222 
L 1259 2222 
L 1259 531 
L 3634 531 
L 3634 0 
L 628 0 
L 628 4666 
z
" transform="scale(0.015625)"/>
       <path id="DejaVuSans-70" d="M 1159 525 
L 1159 -1331 
L 581 -1331 
L 581 3500 
L 1159 3500 
L 1159 2969 
Q 1341 3281 1617 3432 
Q 1894 3584 2278 3584 
Q 2916 3584 3314 3078 
Q 3713 2572 3713 1747 
Q 3713 922 3314 415 
Q 2916 -91 2278 -91 
Q 1894 -91 1617 61 
Q 1341 213 1159 525 
z
M 3116 1747 
Q 3116 2381 2855 2742 
Q 2594 3103 2138 3103 
Q 1681 3103 1420 2742 
Q 1159 2381 1159 1747 
Q 1159 1113 1420 752 
Q 1681 391 2138 391 
Q 2594 391 2855 752 
Q 3116 1113 3116 1747 
z
" transform="scale(0.015625)"/>
       <path id="DejaVuSans-69" d="M 603 3500 
L 1178 3500 
L 1178 0 
L 603 0 
L 603 3500 
z
M 603 4863 
L 1178 4863 
L 1178 4134 
L 603 4134 
L 603 4863 
z
" transform="scale(0.015625)"/>
       <path id="DejaVuSans-73" d="M 2834 3397 
L 2834 2853 
Q 2591 2978 2328 3040 
Q 2066 3103 1784 3103 
Q 1356 3103 1142 2972 
Q 928 2841 928 2578 
Q 928 2378 1081 2264 
Q 1234 2150 1697 2047 
L 1894 2003 
Q 2506 1872 2764 1633 
Q 3022 1394 3022 966 
Q 3022 478 2636 193 
Q 2250 -91 1575 -91 
Q 1294 -91 989 -36 
Q 684 19 347 128 
L 347 722 
Q 666 556 975 473 
Q 1284 391 1588 391 
Q 1994 391 2212 530 
Q 2431 669 2431 922 
Q 2431 1156 2273 1281 
Q 2116 1406 1581 1522 
L 1381 1569 
Q 847 1681 609 1914 
Q 372 2147 372 2553 
Q 372 3047 722 3315 
Q 1072 3584 1716 3584 
Q 2034 3584 2315 3537 
Q 2597 3491 2834 3397 
z
" transform="scale(0.015625)"/>
       <path id="DejaVuSans-6f" d="M 1959 3097 
Q 1497 3097 1228 2736 
Q 959 2375 959 1747 
Q 959 1119 1226 758 
Q 1494 397 1959 397 
Q 2419 397 2687 759 
Q 2956 1122 2956 1747 
Q 2956 2369 2687 2733 
Q 2419 3097 1959 3097 
z
M 1959 3584 
Q 2709 3584 3137 3096 
Q 3566 2609 3566 1747 
Q 3566 888 3137 398 
Q 2709 -91 1959 -91 
Q 1206 -91 779 398 
Q 353 888 353 1747 
Q 353 2609 779 3096 
Q 1206 3584 1959 3584 
z
" transform="scale(0.015625)"/>
       <path id="DejaVuSans-64" d="M 2906 2969 
L 2906 4863 
L 3481 4863 
L 3481 0 
L 2906 0 
L 2906 525 
Q 2725 213 2448 61 
Q 2172 -91 1784 -91 
Q 1150 -91 751 415 
Q 353 922 353 1747 
Q 353 2572 751 3078 
Q 1150 3584 1784 3584 
Q 2172 3584 2448 3432 
Q 2725 3281 2906 2969 
z
M 947 1747 
Q 947 1113 1208 752 
Q 1469 391 1925 391 
Q 2381 391 2643 752 
Q 2906 1113 2906 1747 
Q 2906 2381 2643 2742 
Q 2381 3103 1925 3103 
Q 1469 3103 1208 2742 
Q 947 2381 947 1747 
z
" transform="scale(0.015625)"/>
       <path id="DejaVuSans-65" d="M 3597 1894 
L 3597 1613 
L 953 1613 
Q 991 1019 1311 708 
Q 1631 397 2203 397 
Q 2534 397 2845 478 
Q 3156 559 3463 722 
L 3463 178 
Q 3153 47 2828 -22 
Q 2503 -91 2169 -91 
Q 1331 -91 842 396 
Q 353 884 353 1716 
Q 353 2575 817 3079 
Q 1281 3584 2069 3584 
Q 2775 3584 3186 3129 
Q 3597 2675 3597 1894 
z
M 3022 2063 
Q 3016 2534 2758 2815 
Q 2500 3097 2075 3097 
Q 1594 3097 1305 2825 
Q 1016 2553 972 2059 
L 3022 2063 
z
" transform="scale(0.015625)"/>
      </defs>
      <use xlink:href="#DejaVuSans-45"/>
      <use xlink:href="#DejaVuSans-70" x="63.183594"/>
      <use xlink:href="#DejaVuSans-69" x="126.660156"/>
      <use xlink:href="#DejaVuSans-73" x="154.443359"/>
      <use xlink:href="#DejaVuSans-6f" x="206.542969"/>
      <use xlink:href="#DejaVuSans-64" x="267.724609"/>
      <use xlink:href="#DejaVuSans-65" x="331.201172"/>
     </g>
    </g>
   </g>
   <g id="matplotlib.axis_2">
    <g id="ytick_1">
     <g id="line2d_9">
      <defs>
       <path id="m51624daea7" d="M 0 0 
L -3.5 0 
" style="stroke: #000000; stroke-width: 0.8"/>
      </defs>
      <g>
       <use xlink:href="#m51624daea7" x="111.8" y="330.384979" style="stroke: #000000; stroke-width: 0.8"/>
      </g>
     </g>
     <g id="text_10">
      <!-- 0 -->
      <g transform="translate(92.075 337.983417) scale(0.2 -0.2)">
       <use xlink:href="#DejaVuSans-30"/>
      </g>
     </g>
    </g>
    <g id="ytick_2">
     <g id="line2d_10">
      <g>
       <use xlink:href="#m51624daea7" x="111.8" y="291.440277" style="stroke: #000000; stroke-width: 0.8"/>
      </g>
     </g>
     <g id="text_11">
      <!-- 500 -->
      <g transform="translate(66.625 299.038714) scale(0.2 -0.2)">
       <defs>
        <path id="DejaVuSans-35" d="M 691 4666 
L 3169 4666 
L 3169 4134 
L 1269 4134 
L 1269 2991 
Q 1406 3038 1543 3061 
Q 1681 3084 1819 3084 
Q 2600 3084 3056 2656 
Q 3513 2228 3513 1497 
Q 3513 744 3044 326 
Q 2575 -91 1722 -91 
Q 1428 -91 1123 -41 
Q 819 9 494 109 
L 494 744 
Q 775 591 1075 516 
Q 1375 441 1709 441 
Q 2250 441 2565 725 
Q 2881 1009 2881 1497 
Q 2881 1984 2565 2268 
Q 2250 2553 1709 2553 
Q 1456 2553 1204 2497 
Q 953 2441 691 2322 
L 691 4666 
z
" transform="scale(0.015625)"/>
       </defs>
       <use xlink:href="#DejaVuSans-35"/>
       <use xlink:href="#DejaVuSans-30" x="63.623047"/>
       <use xlink:href="#DejaVuSans-30" x="127.246094"/>
      </g>
     </g>
    </g>
    <g id="ytick_3">
     <g id="line2d_11">
      <g>
       <use xlink:href="#m51624daea7" x="111.8" y="252.495574" style="stroke: #000000; stroke-width: 0.8"/>
      </g>
     </g>
     <g id="text_12">
      <!-- 1000 -->
      <g transform="translate(53.9 260.094012) scale(0.2 -0.2)">
       <use xlink:href="#DejaVuSans-31"/>
       <use xlink:href="#DejaVuSans-30" x="63.623047"/>
       <use xlink:href="#DejaVuSans-30" x="127.246094"/>
       <use xlink:href="#DejaVuSans-30" x="190.869141"/>
      </g>
     </g>
    </g>
    <g id="ytick_4">
     <g id="line2d_12">
      <g>
       <use xlink:href="#m51624daea7" x="111.8" y="213.550871" style="stroke: #000000; stroke-width: 0.8"/>
      </g>
     </g>
     <g id="text_13">
      <!-- 1500 -->
      <g transform="translate(53.9 221.149309) scale(0.2 -0.2)">
       <use xlink:href="#DejaVuSans-31"/>
       <use xlink:href="#DejaVuSans-35" x="63.623047"/>
       <use xlink:href="#DejaVuSans-30" x="127.246094"/>
       <use xlink:href="#DejaVuSans-30" x="190.869141"/>
      </g>
     </g>
    </g>
    <g id="ytick_5">
     <g id="line2d_13">
      <g>
       <use xlink:href="#m51624daea7" x="111.8" y="174.606169" style="stroke: #000000; stroke-width: 0.8"/>
      </g>
     </g>
     <g id="text_14">
      <!-- 2000 -->
      <g transform="translate(53.9 182.204606) scale(0.2 -0.2)">
       <use xlink:href="#DejaVuSans-32"/>
       <use xlink:href="#DejaVuSans-30" x="63.623047"/>
       <use xlink:href="#DejaVuSans-30" x="127.246094"/>
       <use xlink:href="#DejaVuSans-30" x="190.869141"/>
      </g>
     </g>
    </g>
    <g id="ytick_6">
     <g id="line2d_14">
      <g>
       <use xlink:href="#m51624daea7" x="111.8" y="135.661466" style="stroke: #000000; stroke-width: 0.8"/>
      </g>
     </g>
     <g id="text_15">
      <!-- 2500 -->
      <g transform="translate(53.9 143.259903) scale(0.2 -0.2)">
       <use xlink:href="#DejaVuSans-32"/>
       <use xlink:href="#DejaVuSans-35" x="63.623047"/>
       <use xlink:href="#DejaVuSans-30" x="127.246094"/>
       <use xlink:href="#DejaVuSans-30" x="190.869141"/>
      </g>
     </g>
    </g>
    <g id="ytick_7">
     <g id="line2d_15">
      <g>
       <use xlink:href="#m51624daea7" x="111.8" y="96.716763" style="stroke: #000000; stroke-width: 0.8"/>
      </g>
     </g>
     <g id="text_16">
      <!-- 3000 -->
      <g transform="translate(53.9 104.315201) scale(0.2 -0.2)">
       <defs>
        <path id="DejaVuSans-33" d="M 2597 2516 
Q 3050 2419 3304 2112 
Q 3559 1806 3559 1356 
Q 3559 666 3084 287 
Q 2609 -91 1734 -91 
Q 1441 -91 1130 -33 
Q 819 25 488 141 
L 488 750 
Q 750 597 1062 519 
Q 1375 441 1716 441 
Q 2309 441 2620 675 
Q 2931 909 2931 1356 
Q 2931 1769 2642 2001 
Q 2353 2234 1838 2234 
L 1294 2234 
L 1294 2753 
L 1863 2753 
Q 2328 2753 2575 2939 
Q 2822 3125 2822 3475 
Q 2822 3834 2567 4026 
Q 2313 4219 1838 4219 
Q 1578 4219 1281 4162 
Q 984 4106 628 3988 
L 628 4550 
Q 988 4650 1302 4700 
Q 1616 4750 1894 4750 
Q 2613 4750 3031 4423 
Q 3450 4097 3450 3541 
Q 3450 3153 3228 2886 
Q 3006 2619 2597 2516 
z
" transform="scale(0.015625)"/>
       </defs>
       <use xlink:href="#DejaVuSans-33"/>
       <use xlink:href="#DejaVuSans-30" x="63.623047"/>
       <use xlink:href="#DejaVuSans-30" x="127.246094"/>
       <use xlink:href="#DejaVuSans-30" x="190.869141"/>
      </g>
     </g>
    </g>
    <g id="ytick_8">
     <g id="line2d_16">
      <g>
       <use xlink:href="#m51624daea7" x="111.8" y="57.772061" style="stroke: #000000; stroke-width: 0.8"/>
      </g>
     </g>
     <g id="text_17">
      <!-- 3500 -->
      <g transform="translate(53.9 65.370498) scale(0.2 -0.2)">
       <use xlink:href="#DejaVuSans-33"/>
       <use xlink:href="#DejaVuSans-35" x="63.623047"/>
       <use xlink:href="#DejaVuSans-30" x="127.246094"/>
       <use xlink:href="#DejaVuSans-30" x="190.869141"/>
      </g>
     </g>
    </g>
    <g id="ytick_9">
     <g id="line2d_17">
      <g>
       <use xlink:href="#m51624daea7" x="111.8" y="18.827358" style="stroke: #000000; stroke-width: 0.8"/>
      </g>
     </g>
     <g id="text_18">
      <!-- 4000 -->
      <g transform="translate(53.9 26.425795) scale(0.2 -0.2)">
       <use xlink:href="#DejaVuSans-34"/>
       <use xlink:href="#DejaVuSans-30" x="63.623047"/>
       <use xlink:href="#DejaVuSans-30" x="127.246094"/>
       <use xlink:href="#DejaVuSans-30" x="190.869141"/>
      </g>
     </g>
    </g>
    <g id="text_19">
     <!-- $m_{vct}$ -->
     <g transform="translate(41.58125 223.501626) rotate(-90) scale(0.4 -0.4)">
      <defs>
       <path id="DejaVuSans-Oblique-6d" d="M 5747 2113 
L 5338 0 
L 4763 0 
L 5166 2094 
Q 5191 2228 5203 2325 
Q 5216 2422 5216 2491 
Q 5216 2772 5059 2928 
Q 4903 3084 4622 3084 
Q 4203 3084 3875 2770 
Q 3547 2456 3450 1953 
L 3066 0 
L 2491 0 
L 2900 2094 
Q 2925 2209 2937 2307 
Q 2950 2406 2950 2484 
Q 2950 2769 2794 2926 
Q 2638 3084 2363 3084 
Q 1938 3084 1609 2770 
Q 1281 2456 1184 1953 
L 800 0 
L 225 0 
L 909 3500 
L 1484 3500 
L 1375 2956 
Q 1609 3263 1923 3423 
Q 2238 3584 2597 3584 
Q 2978 3584 3223 3384 
Q 3469 3184 3519 2828 
Q 3781 3197 4126 3390 
Q 4472 3584 4856 3584 
Q 5306 3584 5551 3325 
Q 5797 3066 5797 2591 
Q 5797 2488 5784 2364 
Q 5772 2241 5747 2113 
z
" transform="scale(0.015625)"/>
       <path id="DejaVuSans-Oblique-76" d="M 459 3500 
L 1069 3500 
L 1581 525 
L 3256 3500 
L 3866 3500 
L 1875 0 
L 1100 0 
L 459 3500 
z
" transform="scale(0.015625)"/>
       <path id="DejaVuSans-Oblique-63" d="M 3431 3366 
L 3316 2797 
Q 3109 2947 2876 3022 
Q 2644 3097 2394 3097 
Q 2119 3097 1870 3000 
Q 1622 2903 1453 2725 
Q 1184 2453 1037 2087 
Q 891 1722 891 1331 
Q 891 859 1127 628 
Q 1363 397 1844 397 
Q 2081 397 2348 469 
Q 2616 541 2906 684 
L 2797 116 
Q 2547 13 2283 -39 
Q 2019 -91 1741 -91 
Q 1044 -91 669 257 
Q 294 606 294 1253 
Q 294 1797 489 2255 
Q 684 2713 1069 3078 
Q 1331 3328 1684 3456 
Q 2038 3584 2456 3584 
Q 2700 3584 2940 3529 
Q 3181 3475 3431 3366 
z
" transform="scale(0.015625)"/>
       <path id="DejaVuSans-Oblique-74" d="M 2706 3500 
L 2619 3053 
L 1472 3053 
L 1100 1153 
Q 1081 1047 1072 975 
Q 1063 903 1063 863 
Q 1063 663 1183 572 
Q 1303 481 1569 481 
L 2150 481 
L 2053 0 
L 1503 0 
Q 991 0 739 200 
Q 488 400 488 806 
Q 488 878 497 964 
Q 506 1050 525 1153 
L 897 3053 
L 409 3053 
L 500 3500 
L 978 3500 
L 1172 4494 
L 1747 4494 
L 1556 3500 
L 2706 3500 
z
" transform="scale(0.015625)"/>
      </defs>
      <use xlink:href="#DejaVuSans-Oblique-6d"/>
      <use xlink:href="#DejaVuSans-Oblique-76" transform="translate(97.412109 -16.40625) scale(0.7)"/>
      <use xlink:href="#DejaVuSans-Oblique-63" transform="translate(138.837891 -16.40625) scale(0.7)"/>
      <use xlink:href="#DejaVuSans-Oblique-74" transform="translate(177.324219 -16.40625) scale(0.7)"/>
     </g>
    </g>
   </g>
   <g id="line2d_18">
    <path d="M 138.954545 85.578578 
L 142.575152 93.159814 
L 146.195758 102.194985 
L 149.816364 95.756127 
L 153.43697 104.55763 
L 157.057576 105.154782 
L 160.678182 121.044221 
L 164.298788 117.253603 
L 167.919394 115.228479 
L 171.54 130.858286 
L 175.160606 153.524103 
L 178.781212 162.117901 
L 182.401818 192.053395 
L 186.022424 188.704151 
L 189.64303 221.339812 
L 193.263636 237.359066 
L 196.884242 254.312994 
L 200.504848 267.476303 
L 204.125455 292.71247 
L 207.746061 290.97294 
L 211.366667 294.374111 
L 214.987273 297.126203 
L 218.607879 316.131218 
L 222.228485 299.982148 
L 225.849091 290.012304 
L 229.469697 292.842286 
L 233.090303 288.480479 
L 236.710909 280.094387 
L 240.331515 312.055006 
L 243.952121 304.707439 
L 247.572727 298.658028 
L 251.193333 306.213301 
L 254.813939 301.020674 
L 258.434545 279.055861 
L 262.055152 313.66472 
L 265.675758 308.809614 
L 269.296364 304.266066 
L 272.91697 306.161374 
L 276.537576 314.57343 
L 280.158182 289.415152 
L 283.778788 303.30543 
L 287.399394 292.37495 
L 291.02 298.190692 
L 294.640606 302.578462 
L 298.261212 309.84814 
L 301.881818 311.873264 
L 305.502424 318.935237 
L 309.12303 299.229217 
L 312.743636 319.402573 
L 316.364242 322.673928 
L 319.984848 322.258518 
L 323.605455 316.338923 
L 327.226061 307.563384 
L 330.846667 318.05249 
L 334.467273 324.725016 
L 338.087879 321.843108 
L 341.708485 320.570914 
L 345.329091 310.289513 
L 348.949697 313.872426 
L 352.570303 312.8339 
L 356.190909 317.533228 
L 359.811515 319.895873 
L 363.432121 321.687329 
L 367.052727 299.33307 
L 370.673333 308.160536 
L 374.293939 308.394204 
L 377.914545 325.348131 
L 381.535152 311.405928 
L 385.155758 321.012288 
L 388.776364 323.998048 
L 392.39697 310.938591 
L 396.017576 323.842269 
L 399.638182 319.895873 
L 403.258788 299.359033 
L 406.879394 316.676444 
L 410.5 320.20743 
L 414.120606 322.128702 
L 417.741212 323.816306 
L 421.361818 322.050813 
L 424.982424 318.260195 
L 428.60303 324.699053 
L 432.223636 318.805421 
L 435.844242 325.01061 
L 439.464848 324.906758 
L 443.085455 325.581799 
L 446.706061 315.611956 
L 450.326667 316.183145 
L 453.947273 323.530712 
L 457.567879 322.388334 
L 461.188485 328.126187 
L 464.809091 323.972085 
L 468.429697 320.259357 
L 472.050303 319.506426 
L 475.670909 312.885826 
L 479.291515 325.633726 
L 482.912121 322.128702 
L 486.532727 318.182306 
L 490.153333 321.661366 
L 493.773939 314.677283 
L 497.394545 325.815468 
L 501.015152 316.988002 
L 504.635758 323.686491 
L 508.256364 323.374933 
L 511.87697 325.322168 
L 515.497576 323.530712 
L 519.118182 324.569237 
L 522.738788 326.853993 
L 526.359394 325.140426 
L 529.98 319.999725 
L 533.600606 323.738417 
L 537.221212 322.51815 
L 540.841818 316.702407 
L 544.462424 326.490509 
L 548.08303 315.118656 
L 551.703636 321.713292 
L 555.324242 323.297044 
L 558.944848 324.205753 
L 562.565455 326.152988 
L 566.186061 322.258518 
L 569.806667 325.270242 
L 573.427273 327.061698 
L 577.047879 326.023173 
L 580.668485 329.787827 
L 587.909697 327.009772 
L 591.530303 321.453661 
L 595.150909 325.659689 
L 598.771515 327.762703 
L 602.392121 325.374094 
L 606.012727 325.477947 
L 609.633333 324.387495 
L 613.253939 326.256841 
L 616.874545 326.672251 
L 620.495152 321.11614 
L 624.115758 325.50391 
L 627.736364 327.684813 
L 631.35697 326.204915 
L 634.977576 328.723339 
L 638.598182 324.024011 
L 642.218788 325.685652 
L 645.839394 325.451984 
L 649.46 324.517311 
L 653.080606 325.50391 
L 656.701212 325.244279 
L 660.321818 327.918482 
L 663.942424 328.827191 
L 667.56303 325.737578 
L 671.183636 325.789505 
L 674.804242 327.399219 
L 682.045455 325.99721 
L 682.045455 325.99721 
" clip-path="url(#p80dd646277)" style="fill: none; stroke: #0000ff; stroke-width: 3; stroke-linecap: square"/>
   </g>
   <g id="line2d_19">
    <path d="M 138.954545 63.743582 
L 142.575152 104.479741 
L 146.195758 104.220109 
L 149.816364 80.827325 
L 153.43697 90.200016 
L 157.057576 88.019113 
L 160.678182 85.189131 
L 164.298788 85.76032 
L 167.919394 79.21761 
L 171.54 91.004874 
L 175.160606 86.824809 
L 178.781212 98.300514 
L 182.401818 100.429492 
L 186.022424 113.229317 
L 189.64303 139.244379 
L 193.263636 157.262794 
L 196.884242 154.796297 
L 200.504848 158.093615 
L 204.125455 184.082713 
L 207.746061 190.962944 
L 211.366667 186.471321 
L 214.987273 234.555048 
L 218.607879 211.110337 
L 222.228485 248.65303 
L 225.849091 282.405106 
L 229.469697 263.270275 
L 233.090303 274.771944 
L 236.710909 264.334764 
L 240.331515 296.399236 
L 243.952121 279.419345 
L 247.572727 289.181484 
L 251.193333 273.214156 
L 254.813939 268.410976 
L 258.434545 265.139621 
L 262.055152 268.307123 
L 265.675758 285.027382 
L 269.296364 310.341439 
L 272.91697 305.200738 
L 276.537576 296.788683 
L 280.158182 300.99471 
L 283.778788 295.698231 
L 287.399394 283.313815 
L 291.02 303.279466 
L 294.640606 290.998903 
L 298.261212 294.815484 
L 301.881818 291.38835 
L 305.502424 279.964571 
L 309.12303 296.321346 
L 312.743636 303.123688 
L 316.364242 288.298737 
L 319.984848 288.013143 
L 323.605455 302.39672 
L 327.226061 285.858203 
L 330.846667 300.735079 
L 334.467273 309.225024 
L 338.087879 303.824692 
L 341.708485 309.35484 
L 345.329091 309.951992 
L 348.949697 315.300398 
L 352.570303 301.877457 
L 356.190909 321.713292 
L 359.811515 309.069246 
L 363.432121 323.037412 
L 367.052727 315.611956 
L 370.673333 301.929383 
L 374.293939 309.199061 
L 377.914545 310.081808 
L 381.535152 316.936075 
L 385.155758 323.34897 
L 388.776364 309.328877 
L 392.39697 311.120333 
L 396.017576 312.288674 
L 399.638182 307.537421 
L 403.258788 318.286158 
L 406.879394 310.808776 
L 410.5 311.250149 
L 414.120606 310.652997 
L 417.741212 321.765219 
L 421.361818 322.544113 
L 424.982424 318.623679 
L 428.60303 315.89755 
L 432.223636 322.44026 
L 435.844242 310.938591 
L 439.464848 317.325522 
L 446.706061 315.40425 
L 450.326667 322.492186 
L 453.947273 321.791182 
L 457.567879 314.443614 
L 461.188485 319.636242 
L 464.809091 321.946961 
L 468.429697 322.907597 
L 472.050303 325.477947 
L 475.670909 319.246794 
L 479.291515 325.50391 
L 482.912121 320.986325 
L 486.532727 324.932721 
L 490.153333 317.377449 
L 493.773939 307.044121 
L 497.394545 325.244279 
L 501.015152 313.872426 
L 504.635758 312.184822 
L 508.256364 312.8339 
L 511.87697 312.184822 
L 515.497576 323.582638 
L 519.118182 311.873264 
L 522.738788 313.067568 
L 526.359394 318.649642 
L 529.98 322.102739 
L 533.600606 309.692361 
L 537.221212 323.530712 
L 540.841818 323.790343 
L 544.462424 325.685652 
L 548.08303 325.348131 
L 551.703636 323.115302 
L 555.324242 317.896711 
L 558.944848 323.27108 
L 562.565455 318.753495 
L 566.186061 318.727532 
L 569.806667 325.867394 
L 573.427273 318.727532 
L 577.047879 325.114463 
L 580.668485 325.99721 
L 584.289091 322.673928 
L 587.909697 321.297882 
L 591.530303 319.532389 
L 595.150909 323.556675 
L 598.771515 324.231716 
L 602.392121 326.438583 
L 606.012727 319.921836 
L 609.633333 325.451984 
L 613.253939 327.24344 
L 616.874545 318.078453 
L 620.495152 323.738417 
L 624.115758 322.907597 
L 627.736364 317.403412 
L 631.35697 322.673928 
L 634.977576 329.008933 
L 638.598182 320.155504 
L 642.218788 315.689845 
L 645.839394 319.272758 
L 649.46 316.183145 
L 653.080606 329.034896 
L 656.701212 317.143781 
L 660.321818 321.453661 
L 663.942424 310.808776 
L 667.56303 325.062537 
L 671.183636 326.490509 
L 674.804242 328.230039 
L 678.424848 328.048297 
L 682.045455 328.281966 
L 682.045455 328.281966 
" clip-path="url(#p80dd646277)" style="fill: none; stroke: #008000; stroke-width: 3; stroke-linecap: square"/>
   </g>
   <g id="line2d_20">
    <path d="M 138.954545 89.966348 
L 142.575152 60.783784 
L 146.195758 56.136383 
L 149.816364 89.628827 
L 153.43697 70.805554 
L 157.057576 91.524136 
L 160.678182 69.792992 
L 164.298788 98.897667 
L 167.919394 74.855803 
L 171.54 88.798007 
L 175.160606 88.849933 
L 178.781212 82.35915 
L 182.401818 83.138044 
L 186.022424 87.08444 
L 189.64303 75.764513 
L 193.263636 87.681592 
L 196.884242 96.093648 
L 200.504848 86.902698 
L 204.125455 90.667353 
L 207.746061 80.905214 
L 211.366667 81.03503 
L 214.987273 88.668191 
L 218.607879 68.494835 
L 222.228485 83.787122 
L 225.849091 76.906891 
L 229.469697 75.712587 
L 233.090303 71.896006 
L 236.710909 69.169877 
L 240.331515 95.133012 
L 243.952121 74.648098 
L 247.572727 67.300531 
L 254.813939 92.173215 
L 258.434545 89.187454 
L 262.055152 70.052623 
L 265.675758 73.947094 
L 269.296364 68.105388 
L 272.91697 55.61712 
L 276.537576 75.556808 
L 280.158182 72.103711 
L 283.778788 95.236865 
L 287.399394 82.800523 
L 291.02 96.483095 
L 294.640606 90.044238 
L 298.261212 111.853271 
L 301.881818 88.226818 
L 305.502424 72.207564 
L 309.12303 61.380936 
L 312.743636 85.163168 
L 316.364242 91.939546 
L 319.984848 83.709233 
L 323.605455 81.346587 
L 327.226061 80.827325 
L 330.846667 97.054284 
L 334.467273 91.679915 
L 338.087879 79.736873 
L 341.708485 86.720956 
L 345.329091 76.699186 
L 348.949697 78.179085 
L 352.570303 80.385951 
L 356.190909 73.635536 
L 359.811515 84.695832 
L 363.432121 89.550938 
L 367.052727 76.673223 
L 370.673333 85.34491 
L 374.293939 74.41443 
L 377.914545 77.530006 
L 381.535152 86.435362 
L 385.155758 71.84408 
L 388.776364 78.957979 
L 392.39697 92.900182 
L 396.017576 87.941224 
L 399.638182 95.626312 
L 403.258788 88.330671 
L 406.879394 96.119611 
L 410.5 98.040883 
L 414.120606 74.362504 
L 417.741212 89.005712 
L 421.361818 79.087794 
L 424.982424 77.400191 
L 428.60303 108.52999 
L 432.223636 90.225979 
L 435.844242 74.82984 
L 439.464848 71.298854 
L 443.085455 69.818955 
L 446.706061 97.10621 
L 450.326667 76.958817 
L 453.947273 91.991473 
L 457.567879 82.852449 
L 461.188485 90.225979 
L 464.809091 99.365003 
L 468.429697 90.511574 
L 472.050303 84.566016 
L 475.670909 86.383435 
L 479.291515 93.445408 
L 482.912121 95.85998 
L 486.532727 98.897667 
L 490.153333 78.828163 
L 493.773939 86.461325 
L 497.394545 95.418606 
L 501.015152 87.318108 
L 504.635758 94.250265 
L 508.256364 92.640551 
L 511.87697 104.375888 
L 515.497576 101.000681 
L 519.118182 102.298837 
L 522.738788 93.653113 
L 526.359394 90.303869 
L 529.98 81.476403 
L 533.600606 77.270375 
L 537.221212 86.045915 
L 540.841818 84.358311 
L 544.462424 105.648082 
L 548.08303 76.413592 
L 551.703636 92.251104 
L 555.324242 89.473049 
L 558.944848 84.617942 
L 562.565455 97.911067 
L 566.186061 109.36081 
L 569.806667 78.334864 
L 573.427273 79.2955 
L 577.047879 103.830662 
L 580.668485 93.860818 
L 584.289091 89.447085 
L 587.909697 95.911906 
L 591.530303 94.328155 
L 595.150909 89.810569 
L 598.771515 91.004874 
L 602.392121 96.76869 
L 606.012727 84.540053 
L 609.633333 93.575224 
L 613.253939 117.383419 
L 616.874545 106.530828 
L 620.495152 103.23351 
L 624.115758 107.932838 
L 627.736364 115.150589 
L 631.35697 105.725971 
L 634.977576 110.581077 
L 638.598182 124.055945 
L 642.218788 135.064314 
L 645.839394 130.31306 
L 649.46 133.091116 
L 653.080606 136.881733 
L 656.701212 158.768656 
L 660.321818 146.773688 
L 663.942424 139.374194 
L 667.56303 152.225946 
L 671.183636 163.1045 
L 674.804242 178.682381 
L 678.424848 210.591074 
L 682.045455 179.66898 
L 682.045455 179.66898 
" clip-path="url(#p80dd646277)" style="fill: none; stroke: #ff0000; stroke-width: 3; stroke-linecap: square"/>
   </g>
   <g id="line2d_21">
    <path d="M 138.954545 78.957979 
L 142.575152 69.247766 
L 146.195758 56.162346 
L 149.816364 104.116257 
L 153.43697 109.620441 
L 157.057576 93.185777 
L 160.678182 65.976411 
L 164.298788 83.553454 
L 167.919394 89.473049 
L 171.54 76.283776 
L 175.160606 83.501527 
L 178.781212 87.863334 
L 182.401818 87.188293 
L 186.022424 88.875896 
L 189.64303 70.130513 
L 193.263636 88.278744 
L 196.884242 96.327316 
L 200.504848 64.158992 
L 204.125455 92.562662 
L 207.746061 97.287952 
L 211.366667 87.57774 
L 214.987273 90.97891 
L 218.607879 104.479741 
L 222.228485 75.115435 
L 225.849091 73.427831 
L 229.469697 78.3089 
L 233.090303 88.434523 
L 236.710909 91.498173 
L 240.331515 94.925307 
L 243.952121 77.581933 
L 247.572727 81.761997 
L 251.193333 78.412753 
L 254.813939 108.971363 
L 258.434545 99.235187 
L 262.055152 103.622957 
L 265.675758 91.809731 
L 269.296364 112.813907 
L 272.91697 91.705878 
L 276.537576 94.406044 
L 280.158182 74.024983 
L 283.778788 103.752773 
L 287.399394 101.727648 
L 291.02 88.927823 
L 294.640606 105.128819 
L 298.261212 95.003196 
L 301.881818 102.143058 
L 305.502424 89.135528 
L 309.12303 93.21174 
L 316.364242 93.70504 
L 319.984848 99.910229 
L 323.605455 115.280405 
L 327.226061 96.431169 
L 330.846667 126.574369 
L 334.467273 109.802183 
L 338.087879 137.115402 
L 341.708485 136.985586 
L 345.329091 150.590269 
L 348.949697 145.345715 
L 352.570303 145.916904 
L 356.190909 158.794619 
L 359.811515 177.280372 
L 363.432121 199.167294 
L 367.052727 155.471338 
L 370.673333 141.009872 
L 374.293939 182.421072 
L 377.914545 176.163957 
L 381.535152 173.12627 
L 385.155758 161.313043 
L 388.776364 163.416057 
L 392.39697 181.460436 
L 396.017576 169.854915 
L 399.638182 192.001469 
L 403.258788 211.629599 
L 406.879394 236.39843 
L 410.5 249.06844 
L 414.120606 250.210818 
L 417.741212 237.852366 
L 421.361818 242.369951 
L 424.982424 279.419345 
L 428.60303 285.676461 
L 432.223636 276.823032 
L 435.844242 257.84398 
L 439.464848 291.310461 
L 443.085455 308.653835 
L 446.706061 277.549999 
L 450.326667 300.605263 
L 453.947273 297.152166 
L 457.567879 290.349825 
L 461.188485 270.462064 
L 464.809091 298.164729 
L 468.429697 317.247633 
L 472.050303 294.348148 
L 475.670909 287.260212 
L 479.291515 315.144619 
L 482.912121 253.793731 
L 486.532727 292.011466 
L 490.153333 281.055023 
L 493.773939 294.815484 
L 497.394545 302.967909 
L 501.015152 281.937769 
L 504.635758 269.18987 
L 508.256364 299.047475 
L 511.87697 229.673978 
L 515.497576 279.185677 
L 519.118182 263.529906 
L 522.738788 306.083485 
L 526.359394 286.273613 
L 529.98 299.047475 
L 533.600606 295.308784 
L 537.221212 295.334747 
L 540.841818 293.776959 
L 544.462424 296.139604 
L 548.08303 296.606941 
L 551.703636 322.154666 
L 555.324242 271.786183 
L 558.944848 281.106949 
L 562.565455 309.017319 
L 566.186061 308.627872 
L 569.806667 316.936075 
L 573.427273 305.79789 
L 577.047879 252.391722 
L 580.668485 272.045815 
L 584.289091 289.830562 
L 587.909697 278.225041 
L 591.530303 302.864056 
L 595.150909 284.300415 
L 598.771515 314.98884 
L 602.392121 310.003918 
L 606.012727 279.393382 
L 609.633333 258.285353 
L 613.253939 264.568432 
L 616.874545 306.498895 
L 620.495152 286.922691 
L 624.115758 286.403429 
L 627.736364 268.28116 
L 631.35697 285.494719 
L 634.977576 291.803761 
L 638.598182 267.969603 
L 642.218788 273.006451 
L 645.839394 315.949476 
L 649.46 297.126203 
L 653.080606 314.677283 
L 656.701212 308.394204 
L 660.321818 305.330554 
L 663.942424 310.834739 
L 667.56303 323.374933 
L 671.183636 317.117817 
L 674.804242 287.597733 
L 678.424848 304.266066 
L 682.045455 306.654674 
L 682.045455 306.654674 
" clip-path="url(#p80dd646277)" style="fill: none; stroke: #ffa500; stroke-width: 3; stroke-linecap: square"/>
   </g>
   <g id="patch_3">
    <path d="M 111.8 351.16 
L 111.8 12.643252 
" style="fill: none; stroke: #000000; stroke-width: 0.8; stroke-linejoin: miter; stroke-linecap: square"/>
   </g>
   <g id="patch_4">
    <path d="M 709.2 351.16 
L 709.2 12.643252 
" style="fill: none; stroke: #000000; stroke-width: 0.8; stroke-linejoin: miter; stroke-linecap: square"/>
   </g>
   <g id="patch_5">
    <path d="M 111.8 351.16 
L 709.2 351.16 
" style="fill: none; stroke: #000000; stroke-width: 0.8; stroke-linejoin: miter; stroke-linecap: square"/>
   </g>
   <g id="patch_6">
    <path d="M 111.8 12.643252 
L 709.2 12.643252 
" style="fill: none; stroke: #000000; stroke-width: 0.8; stroke-linejoin: miter; stroke-linecap: square"/>
   </g>
  </g>
 </g>
 <defs>
  <clipPath id="p80dd646277">
   <rect x="111.8" y="12.643252" width="597.4" height="338.516748"/>
  </clipPath>
 </defs>
</svg>
