<?xml version="1.0" encoding="utf-8" standalone="no"?>
<!DOCTYPE svg PUBLIC "-//W3C//DTD SVG 1.1//EN"
  "http://www.w3.org/Graphics/SVG/1.1/DTD/svg11.dtd">
<svg xmlns:xlink="http://www.w3.org/1999/xlink" width="720pt" height="432pt" viewBox="0 0 720 432" xmlns="http://www.w3.org/2000/svg" version="1.1">
 <metadata>
  <rdf:RDF xmlns:dc="http://purl.org/dc/elements/1.1/" xmlns:cc="http://creativecommons.org/ns#" xmlns:rdf="http://www.w3.org/1999/02/22-rdf-syntax-ns#">
   <cc:Work>
    <dc:type rdf:resource="http://purl.org/dc/dcmitype/StillImage"/>
    <dc:date>2025-06-19T21:15:31.548131</dc:date>
    <dc:format>image/svg+xml</dc:format>
    <dc:creator>
     <cc:Agent>
      <dc:title>Matplotlib v3.7.1, https://matplotlib.org/</dc:title>
     </cc:Agent>
    </dc:creator>
   </cc:Work>
  </rdf:RDF>
 </metadata>
 <defs>
  <style type="text/css">*{stroke-linejoin: round; stroke-linecap: butt}</style>
 </defs>
 <g id="figure_1">
  <g id="patch_1">
   <path d="M 0 432 
L 720 432 
L 720 0 
L 0 0 
z
" style="fill: #ffffff"/>
  </g>
  <g id="axes_1">
   <g id="patch_2">
    <path d="M 132.05 343.96 
L 709.2 343.96 
L 709.2 10.8 
L 132.05 10.8 
z
" style="fill: #ffffff"/>
   </g>
   <g id="PolyCollection_1">
    <defs>
     <path id="mc3f4298e3a" d="M 158.284091 -360.277304 
L 158.284091 -331.172991 
L 161.78197 -329.819997 
L 165.279848 -320.277312 
L 168.777727 -321.343952 
L 172.275606 -313.229506 
L 175.773485 -319.71027 
L 179.271364 -306.208584 
L 182.769242 -298.913204 
L 186.267121 -312.339151 
L 189.765 -264.840973 
L 193.262879 -237.930894 
L 196.760758 -243.644923 
L 200.258636 -207.482716 
L 203.756515 -192.549648 
L 207.254394 -186.298652 
L 210.752273 -174.578492 
L 214.250152 -181.057298 
L 217.74803 -165.866263 
L 221.245909 -158.252064 
L 224.743788 -143.778766 
L 228.241667 -151.083348 
L 231.739545 -147.60959 
L 235.237424 -135.073323 
L 238.735303 -135.405948 
L 242.233182 -143.366577 
L 245.731061 -149.081327 
L 249.228939 -144.889845 
L 252.726818 -151.468459 
L 256.224697 -136.176719 
L 259.722576 -137.842925 
L 263.220455 -142.548213 
L 266.718333 -131.972887 
L 270.216212 -142.468047 
L 273.714091 -142.372104 
L 277.21197 -131.369919 
L 280.709848 -136.138359 
L 284.207727 -134.438338 
L 287.705606 -126.977826 
L 291.203485 -137.285561 
L 294.701364 -135.059916 
L 298.199242 -143.632094 
L 301.697121 -136.514292 
L 305.195 -135.040857 
L 308.692879 -124.396308 
L 312.190758 -130.051408 
L 315.688636 -136.780885 
L 319.186515 -131.663409 
L 322.684394 -134.877843 
L 326.182273 -133.432521 
L 329.680152 -128.296555 
L 333.17803 -123.203652 
L 336.675909 -129.366376 
L 340.173788 -124.418998 
L 343.671667 -126.068449 
L 347.169545 -126.572795 
L 350.667424 -130.863961 
L 354.165303 -127.269756 
L 357.663182 -133.400661 
L 361.161061 -129.359849 
L 364.658939 -130.005426 
L 368.156818 -125.422115 
L 371.654697 -125.192256 
L 375.152576 -125.356334 
L 378.650455 -127.275435 
L 382.148333 -124.770461 
L 385.646212 -130.015029 
L 389.144091 -129.044582 
L 392.64197 -126.280764 
L 396.139848 -127.473489 
L 399.637727 -125.810158 
L 403.135606 -129.753495 
L 406.633485 -129.946641 
L 410.131364 -129.626608 
L 413.629242 -123.617779 
L 417.127121 -134.052994 
L 420.625 -132.723577 
L 424.122879 -128.804576 
L 427.620758 -127.39693 
L 431.118636 -125.630276 
L 434.616515 -133.633568 
L 438.114394 -128.899498 
L 441.612273 -126.256227 
L 445.110152 -125.22707 
L 448.60803 -126.039464 
L 452.105909 -124.672984 
L 455.603788 -128.581737 
L 459.101667 -129.750254 
L 462.599545 -125.891641 
L 466.097424 -129.712467 
L 469.595303 -124.568717 
L 473.093182 -128.952347 
L 476.591061 -131.261306 
L 480.088939 -121.64599 
L 483.586818 -136.660407 
L 487.084697 -128.482577 
L 490.582576 -126.504011 
L 494.080455 -128.590366 
L 497.578333 -127.273717 
L 501.076212 -136.234606 
L 504.574091 -127.143483 
L 508.07197 -132.087574 
L 511.569848 -128.695419 
L 515.067727 -127.512526 
L 518.565606 -126.603561 
L 522.063485 -127.519415 
L 525.561364 -126.654575 
L 529.059242 -125.91764 
L 532.557121 -127.563675 
L 536.055 -129.285236 
L 539.552879 -124.372065 
L 543.050758 -124.164293 
L 546.548636 -126.190622 
L 550.046515 -123.514993 
L 553.544394 -124.275353 
L 557.042273 -122.803299 
L 560.540152 -123.065911 
L 564.03803 -125.490474 
L 567.535909 -124.613078 
L 571.033788 -129.290174 
L 574.531667 -124.350809 
L 578.029545 -126.785099 
L 581.527424 -126.103416 
L 585.025303 -124.933699 
L 588.523182 -124.913547 
L 592.021061 -125.735634 
L 595.518939 -127.121828 
L 599.016818 -124.827062 
L 602.514697 -124.787406 
L 606.012576 -128.386121 
L 609.510455 -123.43229 
L 613.008333 -127.744256 
L 616.506212 -125.795703 
L 620.004091 -125.866805 
L 623.50197 -129.110137 
L 626.999848 -125.216159 
L 630.497727 -125.554815 
L 633.995606 -126.363181 
L 637.493485 -125.640293 
L 640.991364 -129.377565 
L 644.489242 -128.499483 
L 647.987121 -126.374037 
L 651.485 -126.753524 
L 654.982879 -127.062716 
L 658.480758 -125.129558 
L 661.978636 -125.32817 
L 665.476515 -125.280258 
L 668.974394 -126.574488 
L 672.472273 -127.649296 
L 675.970152 -126.240655 
L 679.46803 -126.529372 
L 682.965909 -124.650011 
L 682.965909 -133.202685 
L 682.965909 -133.202685 
L 679.46803 -130.105879 
L 675.970152 -129.083502 
L 672.472273 -130.577999 
L 668.974394 -131.746456 
L 665.476515 -127.468535 
L 661.978636 -129.059492 
L 658.480758 -134.081057 
L 654.982879 -131.679651 
L 651.485 -133.768185 
L 647.987121 -132.46198 
L 644.489242 -129.915111 
L 640.991364 -132.033815 
L 637.493485 -127.2958 
L 633.995606 -131.114917 
L 630.497727 -129.25427 
L 626.999848 -133.526208 
L 623.50197 -137.545621 
L 620.004091 -130.768446 
L 616.506212 -131.588745 
L 613.008333 -133.011577 
L 609.510455 -135.356902 
L 606.012576 -130.59037 
L 602.514697 -129.881204 
L 599.016818 -133.634356 
L 595.518939 -138.925207 
L 592.021061 -130.290895 
L 588.523182 -128.584443 
L 585.025303 -126.082577 
L 581.527424 -131.702455 
L 578.029545 -129.14778 
L 574.531667 -134.812981 
L 571.033788 -135.305292 
L 567.535909 -132.95867 
L 564.03803 -135.593133 
L 560.540152 -139.656564 
L 557.042273 -142.775488 
L 553.544394 -153.196933 
L 550.046515 -133.448032 
L 546.548636 -148.42535 
L 543.050758 -139.962926 
L 539.552879 -137.554388 
L 536.055 -139.383988 
L 532.557121 -131.83424 
L 529.059242 -130.389837 
L 525.561364 -133.773484 
L 522.063485 -134.781637 
L 518.565606 -132.466579 
L 515.067727 -135.069474 
L 511.569848 -133.324684 
L 508.07197 -142.013326 
L 504.574091 -131.036987 
L 501.076212 -142.033701 
L 497.578333 -138.39872 
L 494.080455 -143.356593 
L 490.582576 -138.325579 
L 487.084697 -130.025666 
L 483.586818 -144.83881 
L 480.088939 -147.912905 
L 476.591061 -136.939669 
L 473.093182 -132.552683 
L 469.595303 -129.444346 
L 466.097424 -134.648875 
L 462.599545 -136.409411 
L 459.101667 -145.802214 
L 455.603788 -148.000877 
L 452.105909 -133.928909 
L 448.60803 -133.779873 
L 445.110152 -134.404968 
L 441.612273 -144.566937 
L 438.114394 -131.294438 
L 434.616515 -138.172917 
L 431.118636 -139.339789 
L 427.620758 -134.389049 
L 424.122879 -136.025014 
L 420.625 -135.571048 
L 417.127121 -140.609803 
L 413.629242 -182.277156 
L 410.131364 -139.229915 
L 406.633485 -131.792513 
L 403.135606 -155.257582 
L 399.637727 -135.648047 
L 396.139848 -139.369568 
L 392.64197 -157.887466 
L 389.144091 -129.978734 
L 385.646212 -159.584878 
L 382.148333 -165.250869 
L 378.650455 -178.666325 
L 375.152576 -140.269278 
L 371.654697 -143.664267 
L 368.156818 -147.695464 
L 364.658939 -151.587441 
L 361.161061 -150.360026 
L 357.663182 -152.781036 
L 354.165303 -140.369322 
L 350.667424 -134.480702 
L 347.169545 -133.574316 
L 343.671667 -146.112634 
L 340.173788 -166.679302 
L 336.675909 -145.905143 
L 333.17803 -141.391815 
L 329.680152 -135.549714 
L 326.182273 -136.313673 
L 322.684394 -171.251216 
L 319.186515 -138.925631 
L 315.688636 -146.5445 
L 312.190758 -156.926311 
L 308.692879 -175.692353 
L 305.195 -172.961194 
L 301.697121 -181.976514 
L 298.199242 -155.145472 
L 294.701364 -188.768915 
L 291.203485 -141.170044 
L 287.705606 -166.649013 
L 284.207727 -162.606711 
L 280.709848 -152.712352 
L 277.21197 -148.724555 
L 273.714091 -200.139821 
L 270.216212 -160.430102 
L 266.718333 -161.560303 
L 263.220455 -164.610991 
L 259.722576 -158.406102 
L 256.224697 -146.820892 
L 252.726818 -189.170474 
L 249.228939 -180.62468 
L 245.731061 -168.566632 
L 242.233182 -179.385285 
L 238.735303 -169.365192 
L 235.237424 -140.572795 
L 231.739545 -162.312278 
L 228.241667 -163.801948 
L 224.743788 -177.240578 
L 221.245909 -159.630019 
L 217.74803 -197.52952 
L 214.250152 -206.078656 
L 210.752273 -243.134053 
L 207.254394 -260.304792 
L 203.756515 -312.912562 
L 200.258636 -291.939096 
L 196.760758 -309.765877 
L 193.262879 -330.978913 
L 189.765 -344.94688 
L 186.267121 -325.637228 
L 182.769242 -335.410841 
L 179.271364 -321.279041 
L 175.773485 -336.43413 
L 172.275606 -343.991864 
L 168.777727 -351.751024 
L 165.279848 -341.205114 
L 161.78197 -347.957459 
L 158.284091 -360.277304 
z
" style="stroke: #0000ff; stroke-opacity: 0.3"/>
    </defs>
    <g clip-path="url(#p9e5605f4cd)">
     <use xlink:href="#mc3f4298e3a" x="0" y="432" style="fill: #0000ff; fill-opacity: 0.3; stroke: #0000ff; stroke-opacity: 0.3"/>
    </g>
   </g>
   <g id="PolyCollection_2">
    <defs>
     <path id="m7c96212380" d="M 158.284091 -365.444117 
L 158.284091 -349.4654 
L 161.78197 -331.717097 
L 165.279848 -336.290198 
L 168.777727 -320.31032 
L 172.275606 -355.881628 
L 175.773485 -361.626204 
L 179.271364 -346.389183 
L 182.769242 -333.468069 
L 186.267121 -337.512212 
L 189.765 -343.025081 
L 193.262879 -330.585785 
L 196.760758 -336.683358 
L 200.258636 -332.432031 
L 203.756515 -336.776965 
L 207.254394 -325.535444 
L 210.752273 -333.580848 
L 214.250152 -343.432326 
L 217.74803 -317.010703 
L 221.245909 -286.676329 
L 224.743788 -284.562138 
L 228.241667 -249.029377 
L 231.739545 -217.377694 
L 235.237424 -213.617223 
L 238.735303 -176.935357 
L 242.233182 -165.526043 
L 245.731061 -136.522748 
L 249.228939 -153.798974 
L 252.726818 -170.56418 
L 256.224697 -154.47705 
L 259.722576 -167.076932 
L 263.220455 -161.906229 
L 266.718333 -156.335468 
L 270.216212 -156.752192 
L 273.714091 -163.652495 
L 277.21197 -155.464861 
L 280.709848 -159.598814 
L 284.207727 -168.752124 
L 287.705606 -165.547945 
L 291.203485 -175.095253 
L 294.701364 -163.974969 
L 298.199242 -174.724068 
L 301.697121 -170.660804 
L 305.195 -160.492391 
L 308.692879 -171.739748 
L 312.190758 -165.157943 
L 315.688636 -160.511446 
L 319.186515 -167.674147 
L 322.684394 -173.444078 
L 326.182273 -167.735905 
L 329.680152 -173.771425 
L 333.17803 -172.4514 
L 336.675909 -164.123778 
L 340.173788 -165.822769 
L 343.671667 -169.293356 
L 347.169545 -158.895849 
L 350.667424 -168.518668 
L 354.165303 -169.513478 
L 357.663182 -160.746982 
L 361.161061 -180.942976 
L 364.658939 -173.561477 
L 368.156818 -176.989307 
L 371.654697 -178.03712 
L 375.152576 -190.624098 
L 378.650455 -181.564334 
L 382.148333 -152.397845 
L 385.646212 -176.984813 
L 389.144091 -182.589622 
L 392.64197 -164.07837 
L 396.139848 -180.342258 
L 399.637727 -184.749855 
L 403.135606 -190.110726 
L 406.633485 -182.071352 
L 410.131364 -182.919061 
L 413.629242 -193.301289 
L 417.127121 -187.975198 
L 420.625 -204.526716 
L 424.122879 -186.206127 
L 427.620758 -195.070521 
L 431.118636 -218.114489 
L 434.616515 -195.576058 
L 438.114394 -214.567205 
L 441.612273 -199.738213 
L 445.110152 -199.298994 
L 448.60803 -228.338953 
L 452.105909 -176.230794 
L 455.603788 -172.721409 
L 459.101667 -182.639412 
L 462.599545 -153.49806 
L 466.097424 -174.134162 
L 469.595303 -188.943321 
L 473.093182 -197.690666 
L 476.591061 -196.648678 
L 480.088939 -186.932542 
L 483.586818 -185.981722 
L 487.084697 -194.071563 
L 490.582576 -181.294405 
L 494.080455 -179.526534 
L 497.578333 -196.431109 
L 501.076212 -198.631327 
L 504.574091 -191.671199 
L 508.07197 -183.525985 
L 511.569848 -196.84718 
L 515.067727 -199.350694 
L 518.565606 -216.197149 
L 522.063485 -199.642453 
L 525.561364 -209.295525 
L 529.059242 -212.068083 
L 532.557121 -189.390904 
L 536.055 -195.256209 
L 539.552879 -199.257763 
L 543.050758 -194.062324 
L 546.548636 -200.286479 
L 550.046515 -180.34631 
L 553.544394 -196.079211 
L 557.042273 -185.631932 
L 560.540152 -167.487762 
L 564.03803 -198.890779 
L 567.535909 -214.04561 
L 571.033788 -199.26935 
L 574.531667 -216.175524 
L 578.029545 -183.650606 
L 581.527424 -203.995191 
L 585.025303 -202.95864 
L 588.523182 -221.019618 
L 592.021061 -207.382829 
L 595.518939 -188.856681 
L 599.016818 -179.092618 
L 602.514697 -199.507879 
L 606.012576 -206.829681 
L 609.510455 -219.184515 
L 613.008333 -214.498484 
L 616.506212 -192.541734 
L 620.004091 -190.348243 
L 623.50197 -185.975161 
L 626.999848 -205.18503 
L 630.497727 -210.098794 
L 633.995606 -201.178641 
L 637.493485 -212.410251 
L 640.991364 -208.211336 
L 644.489242 -182.605037 
L 647.987121 -209.848274 
L 651.485 -212.197887 
L 654.982879 -217.005698 
L 658.480758 -214.550221 
L 661.978636 -199.643527 
L 665.476515 -194.062872 
L 668.974394 -199.081733 
L 672.472273 -203.027988 
L 675.970152 -196.667833 
L 679.46803 -187.818518 
L 682.965909 -187.847456 
L 682.965909 -224.99531 
L 682.965909 -224.99531 
L 679.46803 -216.502136 
L 675.970152 -244.550759 
L 672.472273 -240.157245 
L 668.974394 -264.565936 
L 665.476515 -296.930477 
L 661.978636 -270.606438 
L 658.480758 -280.282761 
L 654.982879 -235.357195 
L 651.485 -225.134248 
L 647.987121 -249.304214 
L 644.489242 -240.024112 
L 640.991364 -275.102747 
L 637.493485 -244.681946 
L 633.995606 -276.610116 
L 630.497727 -266.425694 
L 626.999848 -216.741746 
L 623.50197 -224.432716 
L 620.004091 -214.955731 
L 616.506212 -258.697364 
L 613.008333 -239.409627 
L 609.510455 -235.098195 
L 606.012576 -239.961061 
L 602.514697 -224.572838 
L 599.016818 -243.302406 
L 595.518939 -230.447907 
L 592.021061 -229.481057 
L 588.523182 -230.31313 
L 585.025303 -229.269592 
L 581.527424 -274.261814 
L 578.029545 -249.233173 
L 574.531667 -270.322645 
L 571.033788 -228.510526 
L 567.535909 -271.235114 
L 564.03803 -230.949388 
L 560.540152 -258.746896 
L 557.042273 -201.550847 
L 553.544394 -228.563404 
L 550.046515 -224.021169 
L 546.548636 -234.236167 
L 543.050758 -221.402631 
L 539.552879 -255.680494 
L 536.055 -282.907147 
L 532.557121 -255.011774 
L 529.059242 -250.455791 
L 525.561364 -242.973719 
L 522.063485 -221.628776 
L 518.565606 -255.551209 
L 515.067727 -267.059638 
L 511.569848 -248.772943 
L 508.07197 -285.412886 
L 504.574091 -247.299804 
L 501.076212 -262.160029 
L 497.578333 -262.580906 
L 494.080455 -212.526024 
L 490.582576 -211.928773 
L 487.084697 -234.644809 
L 483.586818 -254.721797 
L 480.088939 -250.118643 
L 476.591061 -234.549408 
L 473.093182 -208.877578 
L 469.595303 -235.231046 
L 466.097424 -266.850306 
L 462.599545 -276.76353 
L 459.101667 -267.944139 
L 455.603788 -261.613938 
L 452.105909 -244.478538 
L 448.60803 -247.857761 
L 445.110152 -240.140256 
L 441.612273 -275.709304 
L 438.114394 -245.33448 
L 434.616515 -260.111396 
L 431.118636 -246.469676 
L 427.620758 -272.978678 
L 424.122879 -281.374824 
L 420.625 -274.900909 
L 417.127121 -268.320979 
L 413.629242 -284.768417 
L 410.131364 -279.885761 
L 406.633485 -217.239049 
L 403.135606 -232.284298 
L 399.637727 -227.20324 
L 396.139848 -192.09071 
L 392.64197 -197.022999 
L 389.144091 -191.903638 
L 385.646212 -187.441116 
L 382.148333 -196.9505 
L 378.650455 -209.692203 
L 375.152576 -211.074368 
L 371.654697 -203.901282 
L 368.156818 -197.550778 
L 364.658939 -211.280062 
L 361.161061 -191.396343 
L 357.663182 -188.788662 
L 354.165303 -173.373045 
L 350.667424 -186.729601 
L 347.169545 -174.67254 
L 343.671667 -188.717576 
L 340.173788 -201.225348 
L 336.675909 -182.415079 
L 333.17803 -204.055326 
L 329.680152 -198.474245 
L 326.182273 -179.645799 
L 322.684394 -194.212762 
L 319.186515 -185.232883 
L 315.688636 -169.779207 
L 312.190758 -182.176936 
L 308.692879 -194.090925 
L 305.195 -188.200407 
L 301.697121 -184.306516 
L 298.199242 -208.104005 
L 294.701364 -184.858303 
L 291.203485 -183.102978 
L 287.705606 -237.040191 
L 284.207727 -178.114507 
L 280.709848 -185.956723 
L 277.21197 -179.180498 
L 273.714091 -192.719569 
L 270.216212 -183.558968 
L 266.718333 -198.116779 
L 263.220455 -202.753824 
L 259.722576 -261.826739 
L 256.224697 -264.35929 
L 252.726818 -321.599789 
L 249.228939 -337.662623 
L 245.731061 -363.180013 
L 242.233182 -324.203037 
L 238.735303 -355.872534 
L 235.237424 -323.451724 
L 231.739545 -349.752771 
L 228.241667 -354.858552 
L 224.743788 -359.922888 
L 221.245909 -348.022315 
L 217.74803 -354.117632 
L 214.250152 -359.25592 
L 210.752273 -356.932951 
L 207.254394 -361.700619 
L 203.756515 -343.622679 
L 200.258636 -348.576335 
L 196.760758 -339.783003 
L 193.262879 -341.010797 
L 189.765 -370.292394 
L 186.267121 -362.319721 
L 182.769242 -382.612068 
L 179.271364 -365.429898 
L 175.773485 -385.779721 
L 172.275606 -364.412741 
L 168.777727 -379.006541 
L 165.279848 -354.083127 
L 161.78197 -361.278417 
L 158.284091 -365.444117 
z
" style="stroke: #008000; stroke-opacity: 0.3"/>
    </defs>
    <g clip-path="url(#p9e5605f4cd)">
     <use xlink:href="#m7c96212380" x="0" y="432" style="fill: #008000; fill-opacity: 0.3; stroke: #008000; stroke-opacity: 0.3"/>
    </g>
   </g>
   <g id="PolyCollection_3">
    <defs>
     <path id="m7d67fcdbb8" d="M 158.284091 -353.280958 
L 158.284091 -336.998717 
L 161.78197 -354.927985 
L 165.279848 -322.726957 
L 168.777727 -344.151714 
L 172.275606 -353.116327 
L 175.773485 -330.565348 
L 179.271364 -351.739002 
L 182.769242 -338.0079 
L 186.267121 -353.914092 
L 189.765 -351.368961 
L 193.262879 -345.170808 
L 196.760758 -345.041529 
L 200.258636 -340.916998 
L 203.756515 -334.260146 
L 207.254394 -340.612942 
L 210.752273 -340.923204 
L 214.250152 -339.992168 
L 217.74803 -354.700516 
L 221.245909 -328.930513 
L 224.743788 -335.609517 
L 228.241667 -340.349881 
L 231.739545 -337.954247 
L 235.237424 -356.076942 
L 238.735303 -353.646312 
L 242.233182 -353.040011 
L 245.731061 -343.002432 
L 249.228939 -336.797283 
L 252.726818 -339.978107 
L 256.224697 -343.207567 
L 259.722576 -345.316659 
L 263.220455 -342.858197 
L 266.718333 -328.82115 
L 270.216212 -336.042721 
L 273.714091 -344.819263 
L 277.21197 -313.326186 
L 280.709848 -329.796695 
L 284.207727 -336.905463 
L 287.705606 -353.426509 
L 291.203485 -331.591944 
L 294.701364 -322.965173 
L 298.199242 -335.367511 
L 301.697121 -350.096354 
L 305.195 -332.928771 
L 308.692879 -340.979055 
L 312.190758 -352.726042 
L 315.688636 -326.749505 
L 319.186515 -338.019894 
L 322.684394 -339.397143 
L 326.182273 -317.263568 
L 329.680152 -345.866737 
L 333.17803 -341.495985 
L 336.675909 -341.589646 
L 340.173788 -346.295309 
L 343.671667 -335.165242 
L 347.169545 -337.281833 
L 350.667424 -335.258134 
L 354.165303 -319.263912 
L 357.663182 -335.830555 
L 361.161061 -330.705584 
L 364.658939 -352.037039 
L 368.156818 -340.637195 
L 371.654697 -332.5259 
L 375.152576 -353.552789 
L 378.650455 -342.184736 
L 382.148333 -324.161955 
L 385.646212 -339.999904 
L 389.144091 -354.402299 
L 392.64197 -344.437603 
L 396.139848 -322.303012 
L 399.637727 -340.629771 
L 403.135606 -327.055301 
L 406.633485 -335.908391 
L 410.131364 -338.216588 
L 413.629242 -332.585675 
L 417.127121 -340.738194 
L 420.625 -343.759498 
L 424.122879 -327.659392 
L 427.620758 -330.553537 
L 431.118636 -368.104668 
L 434.616515 -338.551885 
L 438.114394 -337.329632 
L 441.612273 -339.958367 
L 445.110152 -344.044833 
L 448.60803 -337.982588 
L 452.105909 -353.169433 
L 455.603788 -342.731546 
L 459.101667 -327.177231 
L 462.599545 -330.744204 
L 466.097424 -322.43441 
L 469.595303 -357.363134 
L 473.093182 -334.921063 
L 476.591061 -334.778018 
L 480.088939 -346.395649 
L 483.586818 -333.568961 
L 487.084697 -324.108566 
L 490.582576 -352.695822 
L 494.080455 -340.384149 
L 497.578333 -350.023144 
L 501.076212 -345.829951 
L 504.574091 -351.699257 
L 508.07197 -331.454632 
L 511.569848 -338.717788 
L 515.067727 -339.080143 
L 518.565606 -349.081945 
L 522.063485 -338.637241 
L 525.561364 -343.024351 
L 529.059242 -365.174193 
L 532.557121 -341.116024 
L 536.055 -355.462023 
L 539.552879 -345.530715 
L 543.050758 -335.450054 
L 546.548636 -331.759904 
L 550.046515 -341.580606 
L 553.544394 -332.524298 
L 557.042273 -356.717238 
L 560.540152 -344.823451 
L 564.03803 -339.113175 
L 567.535909 -333.108213 
L 571.033788 -350.259392 
L 574.531667 -349.403187 
L 578.029545 -319.498943 
L 581.527424 -331.246835 
L 585.025303 -342.388243 
L 588.523182 -337.482139 
L 592.021061 -340.884135 
L 595.518939 -339.211265 
L 599.016818 -346.622558 
L 602.514697 -350.854995 
L 606.012576 -340.719008 
L 609.510455 -354.24509 
L 613.008333 -338.125571 
L 616.506212 -326.288108 
L 620.004091 -339.280465 
L 623.50197 -342.047079 
L 626.999848 -337.568474 
L 630.497727 -350.180236 
L 633.995606 -336.96924 
L 637.493485 -330.995453 
L 640.991364 -364.954992 
L 644.489242 -328.077832 
L 647.987121 -362.390933 
L 651.485 -338.670599 
L 654.982879 -323.559388 
L 658.480758 -333.855984 
L 661.978636 -329.765097 
L 665.476515 -357.432647 
L 668.974394 -338.467245 
L 672.472273 -348.820781 
L 675.970152 -355.594702 
L 679.46803 -368.971035 
L 682.965909 -366.808339 
L 682.965909 -387.293531 
L 682.965909 -387.293531 
L 679.46803 -385.27131 
L 675.970152 -389.610458 
L 672.472273 -365.480014 
L 668.974394 -384.870735 
L 665.476515 -365.437085 
L 661.978636 -389.639601 
L 658.480758 -390.371668 
L 654.982879 -357.027555 
L 651.485 -395.952157 
L 647.987121 -386.653859 
L 644.489242 -388.704677 
L 640.991364 -375.754987 
L 637.493485 -367.244438 
L 633.995606 -353.638209 
L 630.497727 -353.023083 
L 626.999848 -360.437293 
L 623.50197 -376.514772 
L 620.004091 -357.461032 
L 616.506212 -374.527147 
L 613.008333 -371.633219 
L 609.510455 -386.324415 
L 606.012576 -373.628612 
L 602.514697 -406.056364 
L 599.016818 -362.621159 
L 595.518939 -364.132528 
L 592.021061 -386.949025 
L 588.523182 -366.61085 
L 585.025303 -386.849662 
L 581.527424 -373.595351 
L 578.029545 -362.399094 
L 574.531667 -371.874503 
L 571.033788 -389.186317 
L 567.535909 -371.172076 
L 564.03803 -372.659081 
L 560.540152 -368.447198 
L 557.042273 -388.066499 
L 553.544394 -364.451323 
L 550.046515 -366.632965 
L 546.548636 -371.490239 
L 543.050758 -372.997642 
L 539.552879 -364.977272 
L 536.055 -390.211384 
L 532.557121 -359.746055 
L 529.059242 -388.646729 
L 525.561364 -352.593351 
L 522.063485 -400.246572 
L 518.565606 -366.155346 
L 515.067727 -361.313688 
L 511.569848 -351.936486 
L 508.07197 -356.202854 
L 504.574091 -375.852955 
L 501.076212 -379.334196 
L 497.578333 -359.126924 
L 494.080455 -394.613205 
L 490.582576 -395.880723 
L 487.084697 -358.398194 
L 483.586818 -346.12831 
L 480.088939 -352.172015 
L 476.591061 -362.197603 
L 473.093182 -387.199473 
L 469.595303 -379.554037 
L 466.097424 -351.878011 
L 462.599545 -352.371278 
L 459.101667 -358.326315 
L 455.603788 -354.431374 
L 452.105909 -388.336568 
L 448.60803 -373.180946 
L 445.110152 -360.141806 
L 441.612273 -350.508607 
L 438.114394 -361.003908 
L 434.616515 -354.396803 
L 431.118636 -389.977311 
L 427.620758 -349.424684 
L 424.122879 -348.900618 
L 420.625 -360.333491 
L 417.127121 -369.957091 
L 413.629242 -365.045493 
L 410.131364 -363.769286 
L 406.633485 -365.047337 
L 403.135606 -354.187189 
L 399.637727 -354.379209 
L 396.139848 -360.250572 
L 392.64197 -348.417436 
L 389.144091 -363.269881 
L 385.646212 -366.293851 
L 382.148333 -385.690484 
L 378.650455 -356.055154 
L 375.152576 -359.858335 
L 371.654697 -363.185451 
L 368.156818 -359.522512 
L 364.658939 -376.451669 
L 361.161061 -339.018007 
L 357.663182 -374.95838 
L 354.165303 -373.591127 
L 350.667424 -360.827816 
L 347.169545 -367.560354 
L 343.671667 -359.750088 
L 340.173788 -355.175493 
L 336.675909 -374.303192 
L 333.17803 -366.951711 
L 329.680152 -363.564279 
L 326.182273 -350.025134 
L 322.684394 -362.86968 
L 319.186515 -370.8024 
L 315.688636 -348.78036 
L 312.190758 -378.853102 
L 308.692879 -353.468027 
L 305.195 -364.234149 
L 301.697121 -372.071006 
L 298.199242 -384.880033 
L 294.701364 -354.016261 
L 291.203485 -384.909617 
L 287.705606 -367.570232 
L 284.207727 -363.862966 
L 280.709848 -378.042279 
L 277.21197 -361.548132 
L 273.714091 -360.116573 
L 270.216212 -367.254248 
L 266.718333 -337.718354 
L 263.220455 -358.37848 
L 259.722576 -374.88406 
L 256.224697 -375.260635 
L 252.726818 -352.642808 
L 249.228939 -340.699224 
L 245.731061 -368.910299 
L 242.233182 -389.964383 
L 238.735303 -363.65127 
L 235.237424 -378.686288 
L 231.739545 -359.442797 
L 228.241667 -369.22161 
L 224.743788 -352.328919 
L 221.245909 -351.703255 
L 217.74803 -382.684903 
L 214.250152 -354.689038 
L 210.752273 -351.650886 
L 207.254394 -378.979054 
L 203.756515 -366.18051 
L 200.258636 -359.710957 
L 196.760758 -373.520322 
L 193.262879 -373.156919 
L 189.765 -367.895262 
L 186.267121 -362.962067 
L 182.769242 -356.345532 
L 179.271364 -375.017189 
L 175.773485 -342.155029 
L 172.275606 -366.101071 
L 168.777727 -356.710365 
L 165.279848 -345.217291 
L 161.78197 -358.342665 
L 158.284091 -353.280958 
z
" style="stroke: #ff0000; stroke-opacity: 0.3"/>
    </defs>
    <g clip-path="url(#p9e5605f4cd)">
     <use xlink:href="#m7d67fcdbb8" x="0" y="432" style="fill: #ff0000; fill-opacity: 0.3; stroke: #ff0000; stroke-opacity: 0.3"/>
    </g>
   </g>
   <g id="PolyCollection_4">
    <defs>
     <path id="m2569a30bf0" d="M 158.284091 -365.771483 
L 158.284091 -334.669173 
L 161.78197 -340.931118 
L 165.279848 -350.503478 
L 168.777727 -323.950363 
L 172.275606 -322.435715 
L 175.773485 -337.727347 
L 179.271364 -345.607886 
L 182.769242 -340.901919 
L 186.267121 -339.732924 
L 189.765 -341.461853 
L 193.262879 -338.108227 
L 196.760758 -338.252856 
L 200.258636 -337.48313 
L 203.756515 -340.787824 
L 207.254394 -345.011763 
L 210.752273 -339.622838 
L 214.250152 -330.710947 
L 217.74803 -341.060053 
L 221.245909 -333.14061 
L 224.743788 -332.522228 
L 228.241667 -321.64301 
L 231.739545 -337.126513 
L 235.237424 -321.41936 
L 238.735303 -351.083601 
L 242.233182 -328.759411 
L 245.731061 -349.575444 
L 249.228939 -340.648956 
L 252.726818 -321.369137 
L 256.224697 -323.976283 
L 259.722576 -343.891883 
L 263.220455 -336.656834 
L 266.718333 -344.203775 
L 270.216212 -320.718717 
L 273.714091 -329.557543 
L 277.21197 -317.116805 
L 280.709848 -338.712364 
L 284.207727 -318.239649 
L 287.705606 -334.54086 
L 291.203485 -327.698796 
L 294.701364 -337.370671 
L 298.199242 -326.747759 
L 301.697121 -330.860618 
L 305.195 -326.156093 
L 308.692879 -325.523107 
L 312.190758 -335.343056 
L 315.688636 -324.571615 
L 319.186515 -329.61973 
L 322.684394 -327.241321 
L 326.182273 -324.562013 
L 329.680152 -321.685951 
L 333.17803 -321.977086 
L 336.675909 -312.555458 
L 340.173788 -318.854518 
L 343.671667 -290.603422 
L 347.169545 -265.611938 
L 350.667424 -248.851408 
L 354.165303 -233.286212 
L 357.663182 -206.771339 
L 361.161061 -249.887831 
L 364.658939 -230.998659 
L 368.156818 -203.564656 
L 371.654697 -194.211488 
L 375.152576 -173.322025 
L 378.650455 -222.789856 
L 382.148333 -190.240009 
L 385.646212 -184.948881 
L 389.144091 -199.881949 
L 392.64197 -179.323514 
L 396.139848 -189.029729 
L 399.637727 -186.502822 
L 403.135606 -188.609509 
L 406.633485 -179.283846 
L 410.131364 -200.260012 
L 413.629242 -173.19736 
L 417.127121 -173.109077 
L 420.625 -147.604876 
L 424.122879 -156.636728 
L 427.620758 -179.446338 
L 431.118636 -172.912356 
L 434.616515 -141.451821 
L 438.114394 -141.054785 
L 441.612273 -135.443482 
L 445.110152 -141.932551 
L 448.60803 -132.80155 
L 452.105909 -118.341874 
L 455.603788 -134.163911 
L 459.101667 -120.109447 
L 462.599545 -121.517091 
L 466.097424 -131.543313 
L 469.595303 -143.187752 
L 473.093182 -130.948272 
L 476.591061 -109.386965 
L 480.088939 -125.004498 
L 483.586818 -140.994535 
L 487.084697 -111.555397 
L 490.582576 -153.021988 
L 494.080455 -137.472767 
L 497.578333 -133.417582 
L 501.076212 -131.833348 
L 504.574091 -117.048144 
L 508.07197 -137.444569 
L 511.569848 -146.282575 
L 515.067727 -121.809089 
L 518.565606 -184.516896 
L 522.063485 -134.258462 
L 525.561364 -148.727838 
L 529.059242 -119.083038 
L 532.557121 -144.913206 
L 536.055 -119.833515 
L 539.552879 -129.832345 
L 543.050758 -123.631345 
L 546.548636 -129.590664 
L 550.046515 -125.420816 
L 553.544394 -123.104887 
L 557.042273 -103.634515 
L 560.540152 -141.330881 
L 564.03803 -139.494098 
L 567.535909 -117.399029 
L 571.033788 -116.259035 
L 574.531667 -109.951988 
L 578.029545 -115.513794 
L 581.527424 -157.488368 
L 585.025303 -146.5933 
L 588.523182 -129.817737 
L 592.021061 -133.432622 
L 595.518939 -117.808136 
L 599.016818 -132.772358 
L 602.514697 -110.51136 
L 606.012576 -111.03256 
L 609.510455 -145.908558 
L 613.008333 -158.019572 
L 616.506212 -148.998446 
L 620.004091 -118.322462 
L 623.50197 -126.50036 
L 626.999848 -135.254346 
L 630.497727 -138.115521 
L 633.995606 -130.234419 
L 637.493485 -131.133806 
L 640.991364 -138.768307 
L 644.489242 -141.409626 
L 647.987121 -108.085106 
L 651.485 -122.25925 
L 654.982879 -116.399842 
L 658.480758 -113.706779 
L 661.978636 -115.921424 
L 665.476515 -117.958291 
L 668.974394 -103.183636 
L 672.472273 -108.478687 
L 675.970152 -133.648994 
L 679.46803 -123.075542 
L 682.965909 -120.064875 
L 682.965909 -287.065267 
L 682.965909 -287.065267 
L 679.46803 -287.753758 
L 675.970152 -303.495841 
L 672.472273 -295.748317 
L 668.974394 -296.782312 
L 665.476515 -284.77032 
L 661.978636 -288.165106 
L 658.480758 -301.336753 
L 654.982879 -290.262052 
L 651.485 -301.446868 
L 647.987121 -294.362556 
L 644.489242 -291.848751 
L 640.991364 -309.801778 
L 637.493485 -302.311871 
L 633.995606 -317.352345 
L 630.497727 -313.732299 
L 626.999848 -309.148332 
L 623.50197 -307.413564 
L 620.004091 -291.008445 
L 616.506212 -300.648609 
L 613.008333 -314.243859 
L 609.510455 -299.711565 
L 606.012576 -315.81082 
L 602.514697 -299.334619 
L 599.016818 -311.911269 
L 595.518939 -287.168065 
L 592.021061 -306.896299 
L 588.523182 -294.122506 
L 585.025303 -285.447632 
L 581.527424 -318.801995 
L 578.029545 -318.446955 
L 574.531667 -289.358413 
L 571.033788 -279.024433 
L 567.535909 -290.573959 
L 564.03803 -289.362748 
L 560.540152 -297.874245 
L 557.042273 -290.525159 
L 553.544394 -295.356855 
L 550.046515 -311.068472 
L 546.548636 -286.295714 
L 543.050758 -307.941339 
L 539.552879 -324.216241 
L 536.055 -309.21063 
L 532.557121 -311.523445 
L 529.059242 -296.943814 
L 525.561364 -298.203379 
L 522.063485 -309.114071 
L 518.565606 -322.631007 
L 515.067727 -297.074076 
L 511.569848 -304.5351 
L 508.07197 -306.77081 
L 504.574091 -296.777944 
L 501.076212 -316.736737 
L 497.578333 -299.981269 
L 494.080455 -291.384079 
L 490.582576 -307.48842 
L 487.084697 -325.074366 
L 483.586818 -308.277922 
L 480.088939 -296.922279 
L 476.591061 -295.401937 
L 473.093182 -305.072768 
L 469.595303 -316.198861 
L 466.097424 -314.357758 
L 462.599545 -319.092779 
L 459.101667 -315.864768 
L 455.603788 -306.961032 
L 452.105909 -312.434789 
L 448.60803 -313.47412 
L 445.110152 -346.672733 
L 441.612273 -319.307476 
L 438.114394 -292.344066 
L 434.616515 -302.763558 
L 431.118636 -317.987344 
L 427.620758 -333.50784 
L 424.122879 -325.928158 
L 420.625 -324.003008 
L 417.127121 -328.60715 
L 413.629242 -347.951157 
L 410.131364 -331.049485 
L 406.633485 -366.447688 
L 403.135606 -362.647351 
L 399.637727 -371.309509 
L 396.139848 -367.471508 
L 392.64197 -367.016742 
L 389.144091 -350.016992 
L 385.646212 -367.619073 
L 382.148333 -381.666585 
L 378.650455 -359.886442 
L 375.152576 -336.96314 
L 371.654697 -353.01844 
L 368.156818 -351.719136 
L 364.658939 -369.236936 
L 361.161061 -347.912875 
L 357.663182 -370.239158 
L 354.165303 -376.127043 
L 350.667424 -352.788931 
L 347.169545 -363.65503 
L 343.671667 -346.576936 
L 340.173788 -353.257137 
L 336.675909 -351.455507 
L 333.17803 -338.100597 
L 329.680152 -350.753477 
L 326.182273 -364.547043 
L 322.684394 -365.613718 
L 319.186515 -344.318092 
L 315.688636 -339.486176 
L 312.190758 -342.996296 
L 308.692879 -353.518618 
L 305.195 -352.604683 
L 301.697121 -334.133668 
L 298.199242 -347.377362 
L 294.701364 -358.855753 
L 291.203485 -343.757312 
L 287.705606 -354.334072 
L 284.207727 -334.111942 
L 280.709848 -351.333188 
L 277.21197 -333.830043 
L 273.714091 -352.293669 
L 270.216212 -353.219105 
L 266.718333 -353.052794 
L 263.220455 -353.99744 
L 259.722576 -372.937451 
L 256.224697 -349.352816 
L 252.726818 -344.327521 
L 249.228939 -343.449846 
L 245.731061 -352.597729 
L 242.233182 -359.506798 
L 238.735303 -357.879168 
L 235.237424 -363.428639 
L 231.739545 -348.470683 
L 228.241667 -369.198563 
L 224.743788 -351.201976 
L 221.245909 -344.496371 
L 217.74803 -369.073336 
L 214.250152 -355.588621 
L 210.752273 -368.778033 
L 207.254394 -364.18513 
L 203.756515 -349.538676 
L 200.258636 -346.475198 
L 196.760758 -362.749698 
L 193.262879 -349.923859 
L 189.765 -356.403439 
L 186.267121 -362.065651 
L 182.769242 -350.87615 
L 179.271364 -373.047615 
L 175.773485 -350.117439 
L 172.275606 -339.795909 
L 168.777727 -361.084935 
L 165.279848 -378.640777 
L 161.78197 -378.614054 
L 158.284091 -365.771483 
z
" style="stroke: #ffa500; stroke-opacity: 0.3"/>
    </defs>
    <g clip-path="url(#p9e5605f4cd)">
     <use xlink:href="#m2569a30bf0" x="0" y="432" style="fill: #ffa500; fill-opacity: 0.3; stroke: #ffa500; stroke-opacity: 0.3"/>
    </g>
   </g>
   <g id="matplotlib.axis_1">
    <g id="xtick_1">
     <g id="line2d_1">
      <defs>
       <path id="mdd67631a73" d="M 0 0 
L 0 3.5 
" style="stroke: #000000; stroke-width: 0.8"/>
      </defs>
      <g>
       <use xlink:href="#mdd67631a73" x="158.284091" y="343.96" style="stroke: #000000; stroke-width: 0.8"/>
      </g>
     </g>
     <g id="text_1">
      <!-- 0 -->
      <g transform="translate(149.376591 372.235625) scale(0.28 -0.28)">
       <defs>
        <path id="DejaVuSans-30" d="M 2034 4250 
Q 1547 4250 1301 3770 
Q 1056 3291 1056 2328 
Q 1056 1369 1301 889 
Q 1547 409 2034 409 
Q 2525 409 2770 889 
Q 3016 1369 3016 2328 
Q 3016 3291 2770 3770 
Q 2525 4250 2034 4250 
z
M 2034 4750 
Q 2819 4750 3233 4129 
Q 3647 3509 3647 2328 
Q 3647 1150 3233 529 
Q 2819 -91 2034 -91 
Q 1250 -91 836 529 
Q 422 1150 422 2328 
Q 422 3509 836 4129 
Q 1250 4750 2034 4750 
z
" transform="scale(0.015625)"/>
       </defs>
       <use xlink:href="#DejaVuSans-30"/>
      </g>
     </g>
    </g>
    <g id="xtick_2">
     <g id="line2d_2">
      <g>
       <use xlink:href="#mdd67631a73" x="228.241667" y="343.96" style="stroke: #000000; stroke-width: 0.8"/>
      </g>
     </g>
     <g id="text_2">
      <!-- 20 -->
      <g transform="translate(210.426667 372.235625) scale(0.28 -0.28)">
       <defs>
        <path id="DejaVuSans-32" d="M 1228 531 
L 3431 531 
L 3431 0 
L 469 0 
L 469 531 
Q 828 903 1448 1529 
Q 2069 2156 2228 2338 
Q 2531 2678 2651 2914 
Q 2772 3150 2772 3378 
Q 2772 3750 2511 3984 
Q 2250 4219 1831 4219 
Q 1534 4219 1204 4116 
Q 875 4013 500 3803 
L 500 4441 
Q 881 4594 1212 4672 
Q 1544 4750 1819 4750 
Q 2544 4750 2975 4387 
Q 3406 4025 3406 3419 
Q 3406 3131 3298 2873 
Q 3191 2616 2906 2266 
Q 2828 2175 2409 1742 
Q 1991 1309 1228 531 
z
" transform="scale(0.015625)"/>
       </defs>
       <use xlink:href="#DejaVuSans-32"/>
       <use xlink:href="#DejaVuSans-30" x="63.623047"/>
      </g>
     </g>
    </g>
    <g id="xtick_3">
     <g id="line2d_3">
      <g>
       <use xlink:href="#mdd67631a73" x="298.199242" y="343.96" style="stroke: #000000; stroke-width: 0.8"/>
      </g>
     </g>
     <g id="text_3">
      <!-- 40 -->
      <g transform="translate(280.384242 372.235625) scale(0.28 -0.28)">
       <defs>
        <path id="DejaVuSans-34" d="M 2419 4116 
L 825 1625 
L 2419 1625 
L 2419 4116 
z
M 2253 4666 
L 3047 4666 
L 3047 1625 
L 3713 1625 
L 3713 1100 
L 3047 1100 
L 3047 0 
L 2419 0 
L 2419 1100 
L 313 1100 
L 313 1709 
L 2253 4666 
z
" transform="scale(0.015625)"/>
       </defs>
       <use xlink:href="#DejaVuSans-34"/>
       <use xlink:href="#DejaVuSans-30" x="63.623047"/>
      </g>
     </g>
    </g>
    <g id="xtick_4">
     <g id="line2d_4">
      <g>
       <use xlink:href="#mdd67631a73" x="368.156818" y="343.96" style="stroke: #000000; stroke-width: 0.8"/>
      </g>
     </g>
     <g id="text_4">
      <!-- 60 -->
      <g transform="translate(350.341818 372.235625) scale(0.28 -0.28)">
       <defs>
        <path id="DejaVuSans-36" d="M 2113 2584 
Q 1688 2584 1439 2293 
Q 1191 2003 1191 1497 
Q 1191 994 1439 701 
Q 1688 409 2113 409 
Q 2538 409 2786 701 
Q 3034 994 3034 1497 
Q 3034 2003 2786 2293 
Q 2538 2584 2113 2584 
z
M 3366 4563 
L 3366 3988 
Q 3128 4100 2886 4159 
Q 2644 4219 2406 4219 
Q 1781 4219 1451 3797 
Q 1122 3375 1075 2522 
Q 1259 2794 1537 2939 
Q 1816 3084 2150 3084 
Q 2853 3084 3261 2657 
Q 3669 2231 3669 1497 
Q 3669 778 3244 343 
Q 2819 -91 2113 -91 
Q 1303 -91 875 529 
Q 447 1150 447 2328 
Q 447 3434 972 4092 
Q 1497 4750 2381 4750 
Q 2619 4750 2861 4703 
Q 3103 4656 3366 4563 
z
" transform="scale(0.015625)"/>
       </defs>
       <use xlink:href="#DejaVuSans-36"/>
       <use xlink:href="#DejaVuSans-30" x="63.623047"/>
      </g>
     </g>
    </g>
    <g id="xtick_5">
     <g id="line2d_5">
      <g>
       <use xlink:href="#mdd67631a73" x="438.114394" y="343.96" style="stroke: #000000; stroke-width: 0.8"/>
      </g>
     </g>
     <g id="text_5">
      <!-- 80 -->
      <g transform="translate(420.299394 372.235625) scale(0.28 -0.28)">
       <defs>
        <path id="DejaVuSans-38" d="M 2034 2216 
Q 1584 2216 1326 1975 
Q 1069 1734 1069 1313 
Q 1069 891 1326 650 
Q 1584 409 2034 409 
Q 2484 409 2743 651 
Q 3003 894 3003 1313 
Q 3003 1734 2745 1975 
Q 2488 2216 2034 2216 
z
M 1403 2484 
Q 997 2584 770 2862 
Q 544 3141 544 3541 
Q 544 4100 942 4425 
Q 1341 4750 2034 4750 
Q 2731 4750 3128 4425 
Q 3525 4100 3525 3541 
Q 3525 3141 3298 2862 
Q 3072 2584 2669 2484 
Q 3125 2378 3379 2068 
Q 3634 1759 3634 1313 
Q 3634 634 3220 271 
Q 2806 -91 2034 -91 
Q 1263 -91 848 271 
Q 434 634 434 1313 
Q 434 1759 690 2068 
Q 947 2378 1403 2484 
z
M 1172 3481 
Q 1172 3119 1398 2916 
Q 1625 2713 2034 2713 
Q 2441 2713 2670 2916 
Q 2900 3119 2900 3481 
Q 2900 3844 2670 4047 
Q 2441 4250 2034 4250 
Q 1625 4250 1398 4047 
Q 1172 3844 1172 3481 
z
" transform="scale(0.015625)"/>
       </defs>
       <use xlink:href="#DejaVuSans-38"/>
       <use xlink:href="#DejaVuSans-30" x="63.623047"/>
      </g>
     </g>
    </g>
    <g id="xtick_6">
     <g id="line2d_6">
      <g>
       <use xlink:href="#mdd67631a73" x="508.07197" y="343.96" style="stroke: #000000; stroke-width: 0.8"/>
      </g>
     </g>
     <g id="text_6">
      <!-- 100 -->
      <g transform="translate(481.34947 372.235625) scale(0.28 -0.28)">
       <defs>
        <path id="DejaVuSans-31" d="M 794 531 
L 1825 531 
L 1825 4091 
L 703 3866 
L 703 4441 
L 1819 4666 
L 2450 4666 
L 2450 531 
L 3481 531 
L 3481 0 
L 794 0 
L 794 531 
z
" transform="scale(0.015625)"/>
       </defs>
       <use xlink:href="#DejaVuSans-31"/>
       <use xlink:href="#DejaVuSans-30" x="63.623047"/>
       <use xlink:href="#DejaVuSans-30" x="127.246094"/>
      </g>
     </g>
    </g>
    <g id="xtick_7">
     <g id="line2d_7">
      <g>
       <use xlink:href="#mdd67631a73" x="578.029545" y="343.96" style="stroke: #000000; stroke-width: 0.8"/>
      </g>
     </g>
     <g id="text_7">
      <!-- 120 -->
      <g transform="translate(551.307045 372.235625) scale(0.28 -0.28)">
       <use xlink:href="#DejaVuSans-31"/>
       <use xlink:href="#DejaVuSans-32" x="63.623047"/>
       <use xlink:href="#DejaVuSans-30" x="127.246094"/>
      </g>
     </g>
    </g>
    <g id="xtick_8">
     <g id="line2d_8">
      <g>
       <use xlink:href="#mdd67631a73" x="647.987121" y="343.96" style="stroke: #000000; stroke-width: 0.8"/>
      </g>
     </g>
     <g id="text_8">
      <!-- 140 -->
      <g transform="translate(621.264621 372.235625) scale(0.28 -0.28)">
       <use xlink:href="#DejaVuSans-31"/>
       <use xlink:href="#DejaVuSans-34" x="63.623047"/>
       <use xlink:href="#DejaVuSans-30" x="127.246094"/>
      </g>
     </g>
    </g>
    <g id="text_9">
     <!-- Episode -->
     <g transform="translate(342.075 412.4525) scale(0.4 -0.4)">
      <defs>
       <path id="DejaVuSans-45" d="M 628 4666 
L 3578 4666 
L 3578 4134 
L 1259 4134 
L 1259 2753 
L 3481 2753 
L 3481 2222 
L 1259 2222 
L 1259 531 
L 3634 531 
L 3634 0 
L 628 0 
L 628 4666 
z
" transform="scale(0.015625)"/>
       <path id="DejaVuSans-70" d="M 1159 525 
L 1159 -1331 
L 581 -1331 
L 581 3500 
L 1159 3500 
L 1159 2969 
Q 1341 3281 1617 3432 
Q 1894 3584 2278 3584 
Q 2916 3584 3314 3078 
Q 3713 2572 3713 1747 
Q 3713 922 3314 415 
Q 2916 -91 2278 -91 
Q 1894 -91 1617 61 
Q 1341 213 1159 525 
z
M 3116 1747 
Q 3116 2381 2855 2742 
Q 2594 3103 2138 3103 
Q 1681 3103 1420 2742 
Q 1159 2381 1159 1747 
Q 1159 1113 1420 752 
Q 1681 391 2138 391 
Q 2594 391 2855 752 
Q 3116 1113 3116 1747 
z
" transform="scale(0.015625)"/>
       <path id="DejaVuSans-69" d="M 603 3500 
L 1178 3500 
L 1178 0 
L 603 0 
L 603 3500 
z
M 603 4863 
L 1178 4863 
L 1178 4134 
L 603 4134 
L 603 4863 
z
" transform="scale(0.015625)"/>
       <path id="DejaVuSans-73" d="M 2834 3397 
L 2834 2853 
Q 2591 2978 2328 3040 
Q 2066 3103 1784 3103 
Q 1356 3103 1142 2972 
Q 928 2841 928 2578 
Q 928 2378 1081 2264 
Q 1234 2150 1697 2047 
L 1894 2003 
Q 2506 1872 2764 1633 
Q 3022 1394 3022 966 
Q 3022 478 2636 193 
Q 2250 -91 1575 -91 
Q 1294 -91 989 -36 
Q 684 19 347 128 
L 347 722 
Q 666 556 975 473 
Q 1284 391 1588 391 
Q 1994 391 2212 530 
Q 2431 669 2431 922 
Q 2431 1156 2273 1281 
Q 2116 1406 1581 1522 
L 1381 1569 
Q 847 1681 609 1914 
Q 372 2147 372 2553 
Q 372 3047 722 3315 
Q 1072 3584 1716 3584 
Q 2034 3584 2315 3537 
Q 2597 3491 2834 3397 
z
" transform="scale(0.015625)"/>
       <path id="DejaVuSans-6f" d="M 1959 3097 
Q 1497 3097 1228 2736 
Q 959 2375 959 1747 
Q 959 1119 1226 758 
Q 1494 397 1959 397 
Q 2419 397 2687 759 
Q 2956 1122 2956 1747 
Q 2956 2369 2687 2733 
Q 2419 3097 1959 3097 
z
M 1959 3584 
Q 2709 3584 3137 3096 
Q 3566 2609 3566 1747 
Q 3566 888 3137 398 
Q 2709 -91 1959 -91 
Q 1206 -91 779 398 
Q 353 888 353 1747 
Q 353 2609 779 3096 
Q 1206 3584 1959 3584 
z
" transform="scale(0.015625)"/>
       <path id="DejaVuSans-64" d="M 2906 2969 
L 2906 4863 
L 3481 4863 
L 3481 0 
L 2906 0 
L 2906 525 
Q 2725 213 2448 61 
Q 2172 -91 1784 -91 
Q 1150 -91 751 415 
Q 353 922 353 1747 
Q 353 2572 751 3078 
Q 1150 3584 1784 3584 
Q 2172 3584 2448 3432 
Q 2725 3281 2906 2969 
z
M 947 1747 
Q 947 1113 1208 752 
Q 1469 391 1925 391 
Q 2381 391 2643 752 
Q 2906 1113 2906 1747 
Q 2906 2381 2643 2742 
Q 2381 3103 1925 3103 
Q 1469 3103 1208 2742 
Q 947 2381 947 1747 
z
" transform="scale(0.015625)"/>
       <path id="DejaVuSans-65" d="M 3597 1894 
L 3597 1613 
L 953 1613 
Q 991 1019 1311 708 
Q 1631 397 2203 397 
Q 2534 397 2845 478 
Q 3156 559 3463 722 
L 3463 178 
Q 3153 47 2828 -22 
Q 2503 -91 2169 -91 
Q 1331 -91 842 396 
Q 353 884 353 1716 
Q 353 2575 817 3079 
Q 1281 3584 2069 3584 
Q 2775 3584 3186 3129 
Q 3597 2675 3597 1894 
z
M 3022 2063 
Q 3016 2534 2758 2815 
Q 2500 3097 2075 3097 
Q 1594 3097 1305 2825 
Q 1016 2553 972 2059 
L 3022 2063 
z
" transform="scale(0.015625)"/>
      </defs>
      <use xlink:href="#DejaVuSans-45"/>
      <use xlink:href="#DejaVuSans-70" x="63.183594"/>
      <use xlink:href="#DejaVuSans-69" x="126.660156"/>
      <use xlink:href="#DejaVuSans-73" x="154.443359"/>
      <use xlink:href="#DejaVuSans-6f" x="206.542969"/>
      <use xlink:href="#DejaVuSans-64" x="267.724609"/>
      <use xlink:href="#DejaVuSans-65" x="331.201172"/>
     </g>
    </g>
   </g>
   <g id="matplotlib.axis_2">
    <g id="ytick_1">
     <g id="line2d_9">
      <defs>
       <path id="m62c83fd085" d="M 0 0 
L -3.5 0 
" style="stroke: #000000; stroke-width: 0.8"/>
      </defs>
      <g>
       <use xlink:href="#m62c83fd085" x="132.05" y="307.030347" style="stroke: #000000; stroke-width: 0.8"/>
      </g>
     </g>
     <g id="text_10">
      <!-- 0 -->
      <g transform="translate(107.235 317.66816) scale(0.28 -0.28)">
       <use xlink:href="#DejaVuSans-30"/>
      </g>
     </g>
    </g>
    <g id="ytick_2">
     <g id="line2d_10">
      <g>
       <use xlink:href="#m62c83fd085" x="132.05" y="236.793155" style="stroke: #000000; stroke-width: 0.8"/>
      </g>
     </g>
     <g id="text_11">
      <!-- 1000 -->
      <g transform="translate(53.79 247.430968) scale(0.28 -0.28)">
       <use xlink:href="#DejaVuSans-31"/>
       <use xlink:href="#DejaVuSans-30" x="63.623047"/>
       <use xlink:href="#DejaVuSans-30" x="127.246094"/>
       <use xlink:href="#DejaVuSans-30" x="190.869141"/>
      </g>
     </g>
    </g>
    <g id="ytick_3">
     <g id="line2d_11">
      <g>
       <use xlink:href="#m62c83fd085" x="132.05" y="166.555963" style="stroke: #000000; stroke-width: 0.8"/>
      </g>
     </g>
     <g id="text_12">
      <!-- 2000 -->
      <g transform="translate(53.79 177.193775) scale(0.28 -0.28)">
       <use xlink:href="#DejaVuSans-32"/>
       <use xlink:href="#DejaVuSans-30" x="63.623047"/>
       <use xlink:href="#DejaVuSans-30" x="127.246094"/>
       <use xlink:href="#DejaVuSans-30" x="190.869141"/>
      </g>
     </g>
    </g>
    <g id="ytick_4">
     <g id="line2d_12">
      <g>
       <use xlink:href="#m62c83fd085" x="132.05" y="96.318771" style="stroke: #000000; stroke-width: 0.8"/>
      </g>
     </g>
     <g id="text_13">
      <!-- 3000 -->
      <g transform="translate(53.79 106.956583) scale(0.28 -0.28)">
       <defs>
        <path id="DejaVuSans-33" d="M 2597 2516 
Q 3050 2419 3304 2112 
Q 3559 1806 3559 1356 
Q 3559 666 3084 287 
Q 2609 -91 1734 -91 
Q 1441 -91 1130 -33 
Q 819 25 488 141 
L 488 750 
Q 750 597 1062 519 
Q 1375 441 1716 441 
Q 2309 441 2620 675 
Q 2931 909 2931 1356 
Q 2931 1769 2642 2001 
Q 2353 2234 1838 2234 
L 1294 2234 
L 1294 2753 
L 1863 2753 
Q 2328 2753 2575 2939 
Q 2822 3125 2822 3475 
Q 2822 3834 2567 4026 
Q 2313 4219 1838 4219 
Q 1578 4219 1281 4162 
Q 984 4106 628 3988 
L 628 4550 
Q 988 4650 1302 4700 
Q 1616 4750 1894 4750 
Q 2613 4750 3031 4423 
Q 3450 4097 3450 3541 
Q 3450 3153 3228 2886 
Q 3006 2619 2597 2516 
z
" transform="scale(0.015625)"/>
       </defs>
       <use xlink:href="#DejaVuSans-33"/>
       <use xlink:href="#DejaVuSans-30" x="63.623047"/>
       <use xlink:href="#DejaVuSans-30" x="127.246094"/>
       <use xlink:href="#DejaVuSans-30" x="190.869141"/>
      </g>
     </g>
    </g>
    <g id="ytick_5">
     <g id="line2d_13">
      <g>
       <use xlink:href="#m62c83fd085" x="132.05" y="26.081579" style="stroke: #000000; stroke-width: 0.8"/>
      </g>
     </g>
     <g id="text_14">
      <!-- 4000 -->
      <g transform="translate(53.79 36.719391) scale(0.28 -0.28)">
       <use xlink:href="#DejaVuSans-34"/>
       <use xlink:href="#DejaVuSans-30" x="63.623047"/>
       <use xlink:href="#DejaVuSans-30" x="127.246094"/>
       <use xlink:href="#DejaVuSans-30" x="190.869141"/>
      </g>
     </g>
    </g>
    <g id="text_15">
     <!-- $m_{vct}$ -->
     <g transform="translate(41.47125 218.98) rotate(-90) scale(0.4 -0.4)">
      <defs>
       <path id="DejaVuSans-Oblique-6d" d="M 5747 2113 
L 5338 0 
L 4763 0 
L 5166 2094 
Q 5191 2228 5203 2325 
Q 5216 2422 5216 2491 
Q 5216 2772 5059 2928 
Q 4903 3084 4622 3084 
Q 4203 3084 3875 2770 
Q 3547 2456 3450 1953 
L 3066 0 
L 2491 0 
L 2900 2094 
Q 2925 2209 2937 2307 
Q 2950 2406 2950 2484 
Q 2950 2769 2794 2926 
Q 2638 3084 2363 3084 
Q 1938 3084 1609 2770 
Q 1281 2456 1184 1953 
L 800 0 
L 225 0 
L 909 3500 
L 1484 3500 
L 1375 2956 
Q 1609 3263 1923 3423 
Q 2238 3584 2597 3584 
Q 2978 3584 3223 3384 
Q 3469 3184 3519 2828 
Q 3781 3197 4126 3390 
Q 4472 3584 4856 3584 
Q 5306 3584 5551 3325 
Q 5797 3066 5797 2591 
Q 5797 2488 5784 2364 
Q 5772 2241 5747 2113 
z
" transform="scale(0.015625)"/>
       <path id="DejaVuSans-Oblique-76" d="M 459 3500 
L 1069 3500 
L 1581 525 
L 3256 3500 
L 3866 3500 
L 1875 0 
L 1100 0 
L 459 3500 
z
" transform="scale(0.015625)"/>
       <path id="DejaVuSans-Oblique-63" d="M 3431 3366 
L 3316 2797 
Q 3109 2947 2876 3022 
Q 2644 3097 2394 3097 
Q 2119 3097 1870 3000 
Q 1622 2903 1453 2725 
Q 1184 2453 1037 2087 
Q 891 1722 891 1331 
Q 891 859 1127 628 
Q 1363 397 1844 397 
Q 2081 397 2348 469 
Q 2616 541 2906 684 
L 2797 116 
Q 2547 13 2283 -39 
Q 2019 -91 1741 -91 
Q 1044 -91 669 257 
Q 294 606 294 1253 
Q 294 1797 489 2255 
Q 684 2713 1069 3078 
Q 1331 3328 1684 3456 
Q 2038 3584 2456 3584 
Q 2700 3584 2940 3529 
Q 3181 3475 3431 3366 
z
" transform="scale(0.015625)"/>
       <path id="DejaVuSans-Oblique-74" d="M 2706 3500 
L 2619 3053 
L 1472 3053 
L 1100 1153 
Q 1081 1047 1072 975 
Q 1063 903 1063 863 
Q 1063 663 1183 572 
Q 1303 481 1569 481 
L 2150 481 
L 2053 0 
L 1503 0 
Q 991 0 739 200 
Q 488 400 488 806 
Q 488 878 497 964 
Q 506 1050 525 1153 
L 897 3053 
L 409 3053 
L 500 3500 
L 978 3500 
L 1172 4494 
L 1747 4494 
L 1556 3500 
L 2706 3500 
z
" transform="scale(0.015625)"/>
      </defs>
      <use xlink:href="#DejaVuSans-Oblique-6d"/>
      <use xlink:href="#DejaVuSans-Oblique-76" transform="translate(97.412109 -16.40625) scale(0.7)"/>
      <use xlink:href="#DejaVuSans-Oblique-63" transform="translate(138.837891 -16.40625) scale(0.7)"/>
      <use xlink:href="#DejaVuSans-Oblique-74" transform="translate(177.324219 -16.40625) scale(0.7)"/>
     </g>
    </g>
   </g>
   <g id="line2d_14">
    <path d="M 158.284091 86.274852 
L 161.78197 93.111272 
L 165.279848 101.258787 
L 168.777727 95.452512 
L 172.275606 103.389315 
L 175.773485 103.9278 
L 179.271364 118.256187 
L 182.769242 114.837977 
L 186.267121 113.01181 
L 189.765 127.106073 
L 193.262879 147.545096 
L 196.760758 155.2946 
L 200.258636 182.289094 
L 203.756515 179.268895 
L 207.254394 208.698278 
L 210.752273 223.143727 
L 214.250152 238.432023 
L 217.74803 250.302108 
L 221.245909 273.058959 
L 224.743788 271.490328 
L 228.241667 274.557352 
L 231.739545 277.039066 
L 235.237424 294.176941 
L 238.735303 279.61443 
L 242.233182 270.624069 
L 245.731061 273.176021 
L 249.228939 269.242738 
L 252.726818 261.680533 
L 256.224697 290.501195 
L 259.722576 283.875486 
L 263.220455 278.420398 
L 266.718333 285.233405 
L 270.216212 280.550926 
L 273.714091 260.744038 
L 277.21197 291.952763 
L 280.709848 287.574645 
L 284.207727 283.477475 
L 287.705606 285.18658 
L 291.203485 292.772197 
L 294.701364 270.085584 
L 298.199242 282.611217 
L 301.697121 272.754597 
L 305.195 277.998974 
L 308.692879 281.95567 
L 312.190758 288.511141 
L 315.688636 290.337308 
L 319.186515 296.70548 
L 322.684394 278.93547 
L 326.182273 297.126903 
L 329.680152 300.076865 
L 333.17803 299.702267 
L 336.675909 294.36424 
L 340.173788 286.45085 
L 343.671667 295.909458 
L 347.169545 301.926445 
L 350.667424 299.327668 
L 354.165303 298.180461 
L 357.663182 288.909152 
L 361.161061 292.140062 
L 364.658939 291.203567 
L 368.156818 295.44121 
L 371.654697 297.571739 
L 375.152576 299.187194 
L 378.650455 279.02912 
L 382.148333 286.989335 
L 385.646212 287.200047 
L 389.144091 302.488342 
L 392.64197 289.915885 
L 396.139848 298.578472 
L 399.637727 301.270897 
L 403.135606 289.494462 
L 406.633485 301.130423 
L 410.131364 297.571739 
L 413.629242 279.052532 
L 417.127121 294.668601 
L 420.625 297.852687 
L 424.122879 299.585205 
L 427.620758 301.107011 
L 431.118636 299.514968 
L 434.616515 296.096758 
L 438.114394 301.903032 
L 441.612273 296.588418 
L 445.110152 302.183981 
L 448.60803 302.090331 
L 452.105909 302.699054 
L 455.603788 293.708693 
L 459.101667 294.223766 
L 462.599545 300.849474 
L 466.097424 299.819329 
L 469.595303 304.993469 
L 473.093182 301.247485 
L 476.591061 297.899512 
L 480.088939 297.220553 
L 483.586818 291.250391 
L 487.084697 302.745878 
L 490.582576 299.585205 
L 494.080455 296.02652 
L 497.578333 299.163782 
L 501.076212 292.865847 
L 504.574091 302.909765 
L 508.07197 294.94955 
L 511.569848 300.989949 
L 515.067727 300.709 
L 518.565606 302.46493 
L 522.063485 300.849474 
L 525.561364 301.78597 
L 529.059242 303.846261 
L 532.557121 302.301043 
L 536.055 297.665388 
L 539.552879 301.036773 
L 543.050758 299.936391 
L 546.548636 294.692014 
L 550.046515 303.518488 
L 553.544394 293.263857 
L 557.042273 299.210606 
L 560.540152 300.638763 
L 564.03803 301.458197 
L 567.535909 303.214126 
L 571.033788 299.702267 
L 574.531667 302.418105 
L 578.029545 304.03356 
L 581.527424 303.097064 
L 585.025303 306.491862 
L 592.021061 303.986735 
L 595.518939 298.976482 
L 599.016818 302.769291 
L 602.514697 304.665695 
L 606.012576 302.511754 
L 609.510455 302.605404 
L 613.008333 301.622083 
L 616.506212 303.307776 
L 620.004091 303.682374 
L 623.50197 298.672121 
L 626.999848 302.628816 
L 630.497727 304.595458 
L 633.995606 303.260951 
L 637.493485 305.531954 
L 640.991364 301.29431 
L 644.489242 302.792703 
L 647.987121 302.581992 
L 651.485 301.739145 
L 654.982879 302.628816 
L 658.480758 302.394692 
L 661.978636 304.806169 
L 665.476515 305.625603 
L 668.974394 302.839528 
L 672.472273 302.886353 
L 675.970152 304.337921 
L 682.965909 303.073652 
L 682.965909 303.073652 
" clip-path="url(#p9e5605f4cd)" style="fill: none; stroke: #0000ff; stroke-width: 3; stroke-linecap: square"/>
   </g>
   <g id="line2d_15">
    <path d="M 158.284091 74.545241 
L 161.78197 85.502243 
L 165.279848 86.813338 
L 168.777727 82.34157 
L 172.275606 71.852816 
L 175.773485 58.297038 
L 179.271364 76.09046 
L 182.769242 73.959931 
L 186.267121 82.084033 
L 189.765 75.341263 
L 193.262879 96.201709 
L 196.760758 93.76682 
L 200.258636 91.495817 
L 203.756515 91.800178 
L 207.254394 88.381968 
L 210.752273 86.7431 
L 214.250152 80.655877 
L 217.74803 96.435833 
L 221.245909 114.650678 
L 224.743788 109.757487 
L 228.241667 130.056035 
L 231.739545 148.434767 
L 235.237424 163.465526 
L 238.735303 165.596055 
L 242.233182 187.13546 
L 245.731061 182.14862 
L 249.228939 186.269202 
L 252.726818 185.918016 
L 256.224697 222.58183 
L 259.722576 217.548164 
L 263.220455 249.669974 
L 266.718333 254.773876 
L 270.216212 261.84442 
L 273.714091 253.813968 
L 277.21197 264.67732 
L 280.709848 259.222232 
L 284.207727 258.566685 
L 287.705606 230.705932 
L 291.203485 252.900884 
L 294.701364 257.583364 
L 298.199242 240.585963 
L 301.697121 254.51634 
L 305.195 257.653601 
L 308.692879 249.084664 
L 312.190758 258.332561 
L 315.688636 266.854673 
L 319.186515 255.546485 
L 322.684394 248.17158 
L 326.182273 258.309148 
L 329.680152 245.877165 
L 333.17803 243.746637 
L 336.675909 258.730571 
L 340.173788 248.475941 
L 343.671667 252.994534 
L 347.169545 265.215805 
L 350.667424 254.375865 
L 354.165303 260.556738 
L 357.663182 257.232178 
L 361.161061 245.83034 
L 364.658939 239.57923 
L 368.156818 244.729958 
L 371.654697 241.030799 
L 375.152576 231.150767 
L 378.650455 236.371732 
L 382.148333 257.325828 
L 385.646212 249.787036 
L 389.144091 244.75337 
L 392.64197 251.449316 
L 396.139848 245.783516 
L 399.637727 226.023452 
L 403.135606 220.802488 
L 406.633485 232.3448 
L 410.131364 200.597589 
L 413.629242 192.965147 
L 417.127121 203.851912 
L 420.625 192.286188 
L 424.122879 198.209524 
L 427.620758 197.9754 
L 431.118636 199.707918 
L 434.616515 204.156273 
L 438.114394 202.049157 
L 441.612273 194.276241 
L 445.110152 212.280375 
L 448.60803 193.901643 
L 452.105909 221.645334 
L 455.603788 214.832326 
L 459.101667 206.708224 
L 462.599545 216.869205 
L 466.097424 211.507766 
L 469.595303 219.912817 
L 473.093182 228.715878 
L 476.591061 216.400957 
L 480.088939 213.474407 
L 483.586818 211.64824 
L 487.084697 217.641814 
L 490.582576 235.388411 
L 494.080455 235.973721 
L 497.578333 202.493993 
L 501.076212 201.604322 
L 504.574091 212.514499 
L 508.07197 197.530565 
L 511.569848 209.189939 
L 515.067727 198.794834 
L 518.565606 196.125821 
L 522.063485 221.364385 
L 525.561364 205.865378 
L 529.059242 200.738063 
L 532.557121 209.798661 
L 536.055 192.918322 
L 539.552879 204.530871 
L 543.050758 224.267522 
L 546.548636 214.738677 
L 550.046515 229.816261 
L 553.544394 219.678693 
L 557.042273 238.40861 
L 560.540152 218.882671 
L 564.03803 217.079916 
L 567.535909 189.359638 
L 571.033788 218.110062 
L 574.531667 188.750916 
L 578.029545 215.558111 
L 581.527424 192.871498 
L 585.025303 215.885884 
L 588.523182 206.333626 
L 592.021061 213.568057 
L 595.518939 222.347706 
L 599.016818 220.802488 
L 602.514697 219.959641 
L 606.012576 208.604629 
L 609.510455 204.858645 
L 613.008333 205.045944 
L 616.506212 206.380451 
L 620.004091 229.348013 
L 623.50197 226.796061 
L 626.999848 221.036612 
L 630.497727 193.737756 
L 633.995606 193.105622 
L 637.493485 203.453901 
L 640.991364 190.342959 
L 644.489242 220.685426 
L 647.987121 202.423756 
L 651.485 213.333933 
L 654.982879 205.818553 
L 658.480758 184.583509 
L 661.978636 196.875018 
L 665.476515 186.503326 
L 668.974394 200.176166 
L 672.472273 210.407383 
L 675.970152 211.390704 
L 679.46803 229.839673 
L 682.965909 225.578617 
L 682.965909 225.578617 
" clip-path="url(#p9e5605f4cd)" style="fill: none; stroke: #008000; stroke-width: 3; stroke-linecap: square"/>
   </g>
   <g id="line2d_16">
    <path d="M 158.284091 86.860162 
L 161.78197 75.364675 
L 165.279848 98.027876 
L 168.777727 81.568961 
L 172.275606 72.391301 
L 175.773485 95.639811 
L 179.271364 68.621905 
L 182.769242 84.823284 
L 186.267121 73.561921 
L 189.765 72.367888 
L 193.262879 72.836136 
L 196.760758 72.719074 
L 200.258636 81.686023 
L 203.756515 81.779672 
L 207.254394 72.204002 
L 210.752273 85.712955 
L 214.250152 84.659397 
L 217.74803 63.307291 
L 221.245909 91.683116 
L 224.743788 88.030782 
L 228.241667 77.214255 
L 231.739545 83.301478 
L 235.237424 64.618385 
L 238.735303 73.351209 
L 242.233182 60.497803 
L 245.731061 76.043635 
L 249.228939 93.251747 
L 252.726818 85.689542 
L 256.224697 72.765899 
L 259.722576 71.89964 
L 263.220455 81.381661 
L 266.718333 98.730248 
L 270.216212 80.351516 
L 273.714091 79.532082 
L 277.21197 94.562841 
L 280.709848 78.080513 
L 284.207727 81.615785 
L 287.705606 71.50163 
L 291.203485 73.74922 
L 294.701364 93.509283 
L 298.199242 71.876228 
L 301.697121 70.91632 
L 305.195 83.41854 
L 308.692879 84.776459 
L 312.190758 66.210428 
L 315.688636 94.235067 
L 319.186515 77.588853 
L 322.684394 80.866589 
L 326.182273 98.355649 
L 329.680152 77.284492 
L 333.17803 77.776152 
L 336.675909 74.053581 
L 340.173788 81.264599 
L 343.671667 84.542335 
L 347.169545 79.578907 
L 350.667424 83.957025 
L 354.165303 85.57248 
L 357.663182 76.605532 
L 361.161061 97.138205 
L 364.658939 67.755646 
L 368.156818 81.920146 
L 371.654697 84.144324 
L 375.152576 75.294438 
L 378.650455 82.880055 
L 382.148333 77.07378 
L 385.646212 78.853122 
L 389.144091 73.16391 
L 392.64197 85.57248 
L 396.139848 90.723208 
L 399.637727 84.49551 
L 403.135606 91.378755 
L 406.633485 81.522136 
L 410.131364 81.007063 
L 413.629242 83.184416 
L 417.127121 76.652357 
L 420.625 79.953505 
L 424.122879 93.719995 
L 427.620758 92.01089 
L 431.118636 52.959011 
L 434.616515 85.525656 
L 438.114394 82.83323 
L 441.612273 86.766513 
L 445.110152 79.90668 
L 448.60803 76.418233 
L 452.105909 61.247 
L 455.603788 83.41854 
L 459.101667 89.248227 
L 462.599545 90.442259 
L 466.097424 94.84379 
L 469.595303 63.541415 
L 473.093182 70.939732 
L 476.591061 83.512189 
L 480.088939 82.716168 
L 483.586818 92.151364 
L 487.084697 90.74662 
L 490.582576 57.711728 
L 494.080455 64.501323 
L 497.578333 77.424966 
L 501.076212 69.417926 
L 504.574091 68.223894 
L 508.07197 88.171257 
L 511.569848 86.672863 
L 515.067727 81.803084 
L 518.565606 74.381355 
L 522.063485 62.558094 
L 525.561364 84.191149 
L 529.059242 55.089539 
L 532.557121 81.568961 
L 536.055 59.163296 
L 539.552879 76.746007 
L 543.050758 77.776152 
L 546.548636 80.374928 
L 550.046515 77.893214 
L 553.544394 83.512189 
L 557.042273 59.608132 
L 560.540152 75.364675 
L 564.03803 76.113872 
L 567.535909 79.859856 
L 571.033788 62.277145 
L 574.531667 71.361155 
L 578.029545 91.050981 
L 581.527424 79.578907 
L 585.025303 67.381048 
L 588.523182 79.953505 
L 592.021061 68.08342 
L 595.518939 80.328103 
L 599.016818 77.378141 
L 602.514697 53.544321 
L 606.012576 74.82619 
L 609.510455 61.715248 
L 613.008333 77.120605 
L 616.506212 81.592373 
L 620.004091 83.629251 
L 623.50197 72.719074 
L 626.999848 82.997117 
L 630.497727 80.398341 
L 633.995606 86.696276 
L 637.493485 82.880055 
L 640.991364 61.64501 
L 644.489242 73.608745 
L 647.987121 57.477604 
L 651.485 64.688622 
L 654.982879 91.706529 
L 658.480758 69.886174 
L 661.978636 72.297651 
L 665.476515 70.565134 
L 668.974394 70.33101 
L 672.472273 74.849602 
L 675.970152 59.39742 
L 679.46803 54.878828 
L 682.965909 54.949065 
L 682.965909 54.949065 
" clip-path="url(#p9e5605f4cd)" style="fill: none; stroke: #ff0000; stroke-width: 3; stroke-linecap: square"/>
   </g>
   <g id="line2d_17">
    <path d="M 158.284091 81.779672 
L 161.78197 72.227414 
L 165.279848 67.427873 
L 168.777727 89.482351 
L 172.275606 100.884188 
L 175.773485 88.077607 
L 179.271364 72.67225 
L 182.769242 86.110966 
L 186.267121 81.100713 
L 189.765 83.067354 
L 193.262879 87.983957 
L 196.760758 81.498723 
L 200.258636 90.020836 
L 203.756515 86.83675 
L 207.254394 77.401554 
L 210.752273 77.799565 
L 214.250152 88.850216 
L 217.74803 76.933306 
L 221.245909 93.18151 
L 224.743788 90.137898 
L 228.241667 86.579214 
L 231.739545 89.201402 
L 235.237424 89.576 
L 238.735303 77.518616 
L 242.233182 87.866895 
L 245.731061 80.913413 
L 252.726818 99.151671 
L 256.224697 95.33545 
L 259.722576 73.585333 
L 263.220455 86.672863 
L 266.718333 83.371715 
L 270.216212 95.031089 
L 273.714091 91.074394 
L 277.21197 106.526576 
L 280.709848 86.977224 
L 284.207727 105.824204 
L 287.705606 87.562534 
L 291.203485 96.271946 
L 294.701364 83.886788 
L 298.199242 94.937439 
L 301.697121 99.502857 
L 305.195 92.619612 
L 308.692879 92.479138 
L 312.190758 92.830324 
L 315.688636 99.971105 
L 319.186515 95.031089 
L 322.684394 85.57248 
L 326.182273 87.445472 
L 329.680152 95.780286 
L 333.17803 101.961159 
L 336.675909 99.994517 
L 340.173788 95.944172 
L 343.671667 113.409821 
L 347.169545 117.366516 
L 350.667424 131.179831 
L 354.165303 127.293373 
L 357.663182 143.494752 
L 361.161061 133.099647 
L 364.658939 131.882202 
L 368.156818 154.358104 
L 371.654697 158.385036 
L 375.152576 176.857418 
L 378.650455 140.661851 
L 382.148333 146.046703 
L 385.646212 155.716023 
L 389.144091 157.05053 
L 392.64197 158.829872 
L 396.139848 153.749382 
L 399.637727 153.093834 
L 403.135606 156.37157 
L 406.633485 159.134233 
L 410.131364 166.345251 
L 413.629242 171.425742 
L 417.127121 181.141887 
L 420.625 196.196058 
L 424.122879 190.717557 
L 427.620758 175.522911 
L 431.118636 186.55015 
L 434.616515 209.89231 
L 438.114394 215.300574 
L 441.612273 204.624521 
L 445.110152 187.697358 
L 448.60803 208.862165 
L 452.105909 216.611669 
L 455.603788 211.437529 
L 459.101667 214.012892 
L 462.599545 211.695065 
L 466.097424 209.049464 
L 469.595303 202.306694 
L 473.093182 213.98948 
L 476.591061 229.605549 
L 480.088939 221.036612 
L 483.586818 207.363772 
L 487.084697 213.685119 
L 490.582576 201.744796 
L 494.080455 217.571577 
L 497.578333 215.300574 
L 501.076212 207.714958 
L 504.574091 225.086956 
L 508.07197 209.89231 
L 511.569848 206.591162 
L 515.067727 222.558417 
L 518.565606 178.426048 
L 522.063485 210.313734 
L 525.561364 208.534391 
L 529.059242 223.986574 
L 532.557121 203.781675 
L 536.055 217.477927 
L 539.552879 204.975707 
L 543.050758 216.213658 
L 546.548636 224.056811 
L 550.046515 213.755356 
L 553.544394 222.769129 
L 557.042273 234.920163 
L 560.540152 212.397437 
L 564.03803 217.571577 
L 567.535909 228.013506 
L 571.033788 234.358266 
L 574.531667 232.3448 
L 578.029545 215.019625 
L 581.527424 193.854818 
L 585.025303 215.979534 
L 588.523182 220.029879 
L 592.021061 211.835539 
L 595.518939 229.511899 
L 599.016818 209.658187 
L 602.514697 227.07701 
L 606.012576 218.57831 
L 609.510455 209.189939 
L 613.008333 195.868284 
L 616.506212 207.176472 
L 620.004091 227.334547 
L 623.50197 215.043038 
L 626.999848 209.798661 
L 630.497727 206.07609 
L 633.995606 208.206618 
L 637.493485 215.277162 
L 640.991364 207.714958 
L 644.489242 215.370811 
L 647.987121 230.776169 
L 651.485 220.146941 
L 654.982879 228.669053 
L 658.480758 224.478234 
L 661.978636 229.956735 
L 665.476515 230.635695 
L 668.974394 232.017026 
L 672.472273 229.886498 
L 675.970152 213.427582 
L 679.46803 226.58535 
L 682.965909 228.434929 
L 682.965909 228.434929 
" clip-path="url(#p9e5605f4cd)" style="fill: none; stroke: #ffa500; stroke-width: 3; stroke-linecap: square"/>
   </g>
   <g id="patch_3">
    <path d="M 132.05 343.96 
L 132.05 10.8 
" style="fill: none; stroke: #000000; stroke-width: 0.8; stroke-linejoin: miter; stroke-linecap: square"/>
   </g>
   <g id="patch_4">
    <path d="M 709.2 343.96 
L 709.2 10.8 
" style="fill: none; stroke: #000000; stroke-width: 0.8; stroke-linejoin: miter; stroke-linecap: square"/>
   </g>
   <g id="patch_5">
    <path d="M 132.05 343.96 
L 709.2 343.96 
" style="fill: none; stroke: #000000; stroke-width: 0.8; stroke-linejoin: miter; stroke-linecap: square"/>
   </g>
   <g id="patch_6">
    <path d="M 132.05 10.8 
L 709.2 10.8 
" style="fill: none; stroke: #000000; stroke-width: 0.8; stroke-linejoin: miter; stroke-linecap: square"/>
   </g>
  </g>
 </g>
 <defs>
  <clipPath id="p9e5605f4cd">
   <rect x="132.05" y="10.8" width="577.15" height="333.16"/>
  </clipPath>
 </defs>
</svg>
