<?xml version="1.0" encoding="utf-8" standalone="no"?>
<!DOCTYPE svg PUBLIC "-//W3C//DTD SVG 1.1//EN"
  "http://www.w3.org/Graphics/SVG/1.1/DTD/svg11.dtd">
<svg xmlns:xlink="http://www.w3.org/1999/xlink" width="720pt" height="432pt" viewBox="0 0 720 432" xmlns="http://www.w3.org/2000/svg" version="1.1">
 <metadata>
  <rdf:RDF xmlns:dc="http://purl.org/dc/elements/1.1/" xmlns:cc="http://creativecommons.org/ns#" xmlns:rdf="http://www.w3.org/1999/02/22-rdf-syntax-ns#">
   <cc:Work>
    <dc:type rdf:resource="http://purl.org/dc/dcmitype/StillImage"/>
    <dc:date>2025-06-19T21:21:49.075884</dc:date>
    <dc:format>image/svg+xml</dc:format>
    <dc:creator>
     <cc:Agent>
      <dc:title>Matplotlib v3.7.1, https://matplotlib.org/</dc:title>
     </cc:Agent>
    </dc:creator>
   </cc:Work>
  </rdf:RDF>
 </metadata>
 <defs>
  <style type="text/css">*{stroke-linejoin: round; stroke-linecap: butt}</style>
 </defs>
 <g id="figure_1">
  <g id="patch_1">
   <path d="M 0 432 
L 720 432 
L 720 0 
L 0 0 
z
" style="fill: #ffffff"/>
  </g>
  <g id="axes_1">
   <g id="patch_2">
    <path d="M 114.23 343.96 
L 709.2 343.96 
L 709.2 10.8 
L 114.23 10.8 
z
" style="fill: #ffffff"/>
   </g>
   <g id="PolyCollection_1">
    <defs>
     <path id="mb4ca2ffbb5" d="M 141.274091 -303.132899 
L 141.274091 -292.645866 
L 144.87997 -294.42037 
L 148.485848 -292.327331 
L 152.091727 -291.501277 
L 155.697606 -289.953476 
L 159.303485 -287.705448 
L 162.909364 -282.489205 
L 166.515242 -279.07278 
L 170.121121 -273.757662 
L 173.727 -272.097845 
L 177.332879 -270.269601 
L 180.938758 -268.57894 
L 184.544636 -270.066561 
L 188.150515 -266.791775 
L 191.756394 -266.84228 
L 195.362273 -267.075846 
L 198.968152 -264.521615 
L 202.57403 -262.694181 
L 206.179909 -262.583593 
L 209.785788 -261.191521 
L 213.391667 -256.421216 
L 216.997545 -257.459076 
L 220.603424 -252.339708 
L 224.209303 -250.525532 
L 227.815182 -247.464831 
L 231.421061 -248.441087 
L 235.026939 -241.5669 
L 238.632818 -244.026285 
L 242.238697 -240.390866 
L 245.844576 -241.745343 
L 249.450455 -244.243594 
L 253.056333 -242.416285 
L 256.662212 -239.886849 
L 260.268091 -235.320778 
L 263.87397 -231.845695 
L 267.479848 -235.928216 
L 271.085727 -230.865002 
L 274.691606 -230.406558 
L 278.297485 -232.675106 
L 281.903364 -232.525286 
L 285.509242 -234.044775 
L 289.115121 -232.477494 
L 292.721 -227.38521 
L 296.326879 -228.090385 
L 299.932758 -225.747891 
L 303.538636 -220.742168 
L 307.144515 -219.560818 
L 310.750394 -218.94131 
L 314.356273 -220.332362 
L 317.962152 -220.452851 
L 321.56803 -215.024472 
L 325.173909 -216.410383 
L 328.779788 -209.092972 
L 332.385667 -210.44866 
L 335.991545 -205.08524 
L 339.597424 -208.352559 
L 343.203303 -209.786403 
L 346.809182 -209.849316 
L 350.415061 -209.121107 
L 354.020939 -209.205439 
L 357.626818 -207.050744 
L 361.232697 -205.400907 
L 364.838576 -205.563948 
L 368.444455 -203.284814 
L 372.050333 -202.89381 
L 375.656212 -197.927624 
L 379.262091 -196.494246 
L 382.86797 -190.167988 
L 386.473848 -185.035201 
L 390.079727 -180.293046 
L 393.685606 -175.593181 
L 397.291485 -172.380794 
L 400.897364 -170.964843 
L 404.503242 -163.779982 
L 408.109121 -164.83767 
L 411.715 -164.833954 
L 415.320879 -163.616841 
L 418.926758 -152.672047 
L 422.532636 -154.506212 
L 426.138515 -156.785448 
L 429.744394 -155.520286 
L 433.350273 -150.259891 
L 436.956152 -151.679132 
L 440.56203 -145.119837 
L 444.167909 -142.596705 
L 447.773788 -142.404571 
L 451.379667 -139.514893 
L 454.985545 -137.762863 
L 458.591424 -136.210002 
L 462.197303 -139.753522 
L 465.803182 -136.290502 
L 469.409061 -131.824258 
L 473.014939 -133.652645 
L 476.620818 -135.652589 
L 480.226697 -135.676853 
L 483.832576 -137.548319 
L 487.438455 -135.51896 
L 491.044333 -137.796524 
L 494.650212 -134.918235 
L 498.256091 -138.265257 
L 501.86197 -141.000034 
L 505.467848 -135.401181 
L 509.073727 -134.525265 
L 512.679606 -128.200683 
L 516.285485 -127.479436 
L 519.891364 -125.617879 
L 523.497242 -126.149567 
L 527.103121 -124.602766 
L 530.709 -124.918417 
L 534.314879 -130.729154 
L 537.920758 -132.675557 
L 541.526636 -133.613012 
L 545.132515 -130.026363 
L 548.738394 -130.725577 
L 552.344273 -132.337491 
L 555.950152 -134.149262 
L 559.55603 -133.498591 
L 563.161909 -130.082481 
L 566.767788 -131.342018 
L 570.373667 -124.211777 
L 573.979545 -127.54862 
L 577.585424 -125.376913 
L 581.191303 -117.493964 
L 584.797182 -119.148418 
L 588.403061 -121.150186 
L 592.008939 -116.087001 
L 595.614818 -114.491127 
L 599.220697 -110.809484 
L 602.826576 -109.579256 
L 606.432455 -108.303518 
L 610.038333 -107.643742 
L 613.644212 -103.183636 
L 617.250091 -104.418153 
L 620.85597 -110.140648 
L 624.461848 -114.019932 
L 628.067727 -110.71604 
L 631.673606 -110.366504 
L 635.279485 -113.930308 
L 638.885364 -121.722794 
L 642.491242 -113.020265 
L 646.097121 -112.049044 
L 649.703 -110.290068 
L 653.308879 -108.894008 
L 656.914758 -110.072572 
L 660.520636 -113.728997 
L 664.126515 -110.737735 
L 667.732394 -107.597954 
L 671.338273 -110.577441 
L 674.944152 -111.982572 
L 678.55003 -117.015751 
L 682.155909 -116.511909 
L 682.155909 -135.719339 
L 682.155909 -135.719339 
L 678.55003 -134.167359 
L 674.944152 -126.999132 
L 671.338273 -126.146734 
L 667.732394 -123.778027 
L 664.126515 -127.088329 
L 660.520636 -129.257133 
L 656.914758 -129.688517 
L 653.308879 -138.284675 
L 649.703 -137.587374 
L 646.097121 -138.569684 
L 642.491242 -134.66905 
L 638.885364 -132.0941 
L 635.279485 -137.279677 
L 631.673606 -137.107808 
L 628.067727 -140.332693 
L 624.461848 -143.828263 
L 620.85597 -146.310029 
L 617.250091 -146.979959 
L 613.644212 -154.207678 
L 610.038333 -154.71951 
L 606.432455 -158.736044 
L 602.826576 -159.34158 
L 599.220697 -161.658898 
L 595.614818 -158.702889 
L 592.008939 -158.208904 
L 588.403061 -162.337087 
L 584.797182 -165.575121 
L 581.191303 -170.320239 
L 577.585424 -176.896225 
L 573.979545 -180.475841 
L 570.373667 -187.118352 
L 566.767788 -191.571384 
L 563.161909 -193.395303 
L 559.55603 -196.321774 
L 555.950152 -196.880494 
L 552.344273 -208.474889 
L 548.738394 -206.727386 
L 545.132515 -203.879054 
L 541.526636 -204.968715 
L 537.920758 -211.603743 
L 534.314879 -212.31388 
L 530.709 -207.992613 
L 527.103121 -216.773997 
L 523.497242 -212.244033 
L 519.891364 -216.726396 
L 516.285485 -220.884916 
L 512.679606 -225.162483 
L 509.073727 -226.524249 
L 505.467848 -230.539646 
L 501.86197 -230.477114 
L 498.256091 -224.719282 
L 494.650212 -224.088754 
L 491.044333 -217.555417 
L 487.438455 -217.172322 
L 483.832576 -219.738647 
L 480.226697 -221.287609 
L 476.620818 -224.563789 
L 473.014939 -222.236803 
L 469.409061 -228.633999 
L 465.803182 -226.425284 
L 462.197303 -230.111105 
L 458.591424 -230.778963 
L 454.985545 -228.984224 
L 451.379667 -225.646549 
L 447.773788 -229.556333 
L 444.167909 -227.939806 
L 440.56203 -227.969831 
L 436.956152 -227.457489 
L 433.350273 -227.156707 
L 429.744394 -231.705813 
L 426.138515 -231.273787 
L 422.532636 -234.144281 
L 418.926758 -232.242773 
L 415.320879 -234.063766 
L 411.715 -238.705479 
L 408.109121 -243.055568 
L 404.503242 -250.939593 
L 400.897364 -253.859862 
L 397.291485 -257.4696 
L 393.685606 -259.793534 
L 390.079727 -253.723026 
L 386.473848 -255.56533 
L 382.86797 -256.855751 
L 379.262091 -251.658257 
L 375.656212 -252.509283 
L 372.050333 -258.293235 
L 368.444455 -255.859705 
L 364.838576 -260.353157 
L 361.232697 -265.810641 
L 357.626818 -269.724 
L 354.020939 -269.531205 
L 350.415061 -276.441874 
L 346.809182 -278.750579 
L 343.203303 -279.727253 
L 339.597424 -278.15106 
L 335.991545 -284.401541 
L 332.385667 -282.290038 
L 328.779788 -283.753228 
L 325.173909 -284.740298 
L 321.56803 -288.303111 
L 317.962152 -283.277863 
L 314.356273 -287.080274 
L 310.750394 -284.735653 
L 307.144515 -288.281823 
L 303.538636 -286.240462 
L 299.932758 -287.469819 
L 296.326879 -284.536067 
L 292.721 -289.648798 
L 289.115121 -291.839732 
L 285.509242 -292.207477 
L 281.903364 -292.275697 
L 278.297485 -296.26468 
L 274.691606 -297.162585 
L 271.085727 -297.617903 
L 267.479848 -300.160411 
L 263.87397 -300.587886 
L 260.268091 -303.240381 
L 256.662212 -305.016891 
L 253.056333 -301.546818 
L 249.450455 -303.213304 
L 245.844576 -304.636541 
L 242.238697 -304.808503 
L 238.632818 -302.919981 
L 235.026939 -303.417466 
L 231.421061 -300.843334 
L 227.815182 -296.33702 
L 224.209303 -298.113881 
L 220.603424 -300.868513 
L 216.997545 -300.129826 
L 213.391667 -304.070223 
L 209.785788 -304.13748 
L 206.179909 -302.718533 
L 202.57403 -301.989812 
L 198.968152 -302.796162 
L 195.362273 -302.606961 
L 191.756394 -306.549324 
L 188.150515 -302.78353 
L 184.544636 -302.115653 
L 180.938758 -299.733225 
L 177.332879 -298.606946 
L 173.727 -301.374385 
L 170.121121 -297.080785 
L 166.515242 -302.220175 
L 162.909364 -300.980653 
L 159.303485 -298.317568 
L 155.697606 -300.047091 
L 152.091727 -302.07371 
L 148.485848 -299.581384 
L 144.87997 -296.923964 
L 141.274091 -303.132899 
z
" style="stroke: #0000ff; stroke-opacity: 0.3"/>
    </defs>
    <g clip-path="url(#pf13286f9f2)">
     <use xlink:href="#mb4ca2ffbb5" x="0" y="432" style="fill: #0000ff; fill-opacity: 0.3; stroke: #0000ff; stroke-opacity: 0.3"/>
    </g>
   </g>
   <g id="PolyCollection_2">
    <defs>
     <path id="mcdca2cbfbf" d="M 141.274091 -303.996155 
L 141.274091 -292.803873 
L 144.87997 -292.650751 
L 148.485848 -291.603075 
L 152.091727 -287.778849 
L 155.697606 -288.202421 
L 159.303485 -286.752595 
L 162.909364 -285.143022 
L 166.515242 -288.306838 
L 170.121121 -288.591736 
L 173.727 -286.264579 
L 177.332879 -284.237913 
L 180.938758 -283.361044 
L 184.544636 -279.744288 
L 188.150515 -279.99432 
L 191.756394 -274.607865 
L 195.362273 -272.145872 
L 198.968152 -268.777315 
L 202.57403 -261.333568 
L 206.179909 -264.579675 
L 209.785788 -258.977592 
L 213.391667 -263.435504 
L 216.997545 -257.708337 
L 220.603424 -255.986298 
L 224.209303 -256.175175 
L 227.815182 -255.220857 
L 231.421061 -253.382187 
L 235.026939 -246.554243 
L 238.632818 -243.713308 
L 242.238697 -241.726187 
L 245.844576 -242.115776 
L 249.450455 -237.784415 
L 253.056333 -236.325046 
L 256.662212 -231.650871 
L 260.268091 -234.82082 
L 263.87397 -239.386542 
L 267.479848 -235.338163 
L 271.085727 -230.147697 
L 274.691606 -228.468643 
L 278.297485 -231.574193 
L 281.903364 -234.566123 
L 285.509242 -235.304546 
L 289.115121 -233.060465 
L 292.721 -233.647279 
L 296.326879 -236.084878 
L 299.932758 -236.542052 
L 303.538636 -237.721187 
L 307.144515 -238.117888 
L 310.750394 -233.192921 
L 314.356273 -223.004271 
L 317.962152 -226.292664 
L 321.56803 -228.855513 
L 325.173909 -233.118206 
L 328.779788 -228.297962 
L 332.385667 -226.107998 
L 335.991545 -226.222343 
L 339.597424 -226.655937 
L 343.203303 -217.799849 
L 346.809182 -215.500434 
L 350.415061 -219.654718 
L 354.020939 -218.79666 
L 357.626818 -219.473718 
L 361.232697 -215.622646 
L 364.838576 -211.59793 
L 368.444455 -208.629154 
L 372.050333 -211.027396 
L 375.656212 -207.788243 
L 379.262091 -206.39116 
L 382.86797 -202.9911 
L 386.473848 -212.904338 
L 390.079727 -224.21625 
L 393.685606 -226.529827 
L 397.291485 -232.061985 
L 400.897364 -230.802763 
L 404.503242 -231.94356 
L 408.109121 -232.618658 
L 411.715 -226.212716 
L 415.320879 -235.734381 
L 418.926758 -235.230689 
L 422.532636 -233.48616 
L 426.138515 -221.872266 
L 429.744394 -220.89649 
L 433.350273 -223.994164 
L 436.956152 -215.753011 
L 440.56203 -207.680565 
L 444.167909 -207.315898 
L 447.773788 -205.553023 
L 451.379667 -215.352969 
L 454.985545 -214.799314 
L 458.591424 -214.519501 
L 462.197303 -213.756699 
L 465.803182 -214.542717 
L 469.409061 -221.353892 
L 473.014939 -211.14294 
L 476.620818 -215.161446 
L 480.226697 -208.843471 
L 483.832576 -211.531512 
L 487.438455 -207.996614 
L 491.044333 -213.21937 
L 494.650212 -215.421402 
L 498.256091 -215.019729 
L 501.86197 -219.4375 
L 505.467848 -215.275805 
L 509.073727 -221.436739 
L 512.679606 -215.573393 
L 516.285485 -217.405791 
L 519.891364 -218.025766 
L 523.497242 -211.328397 
L 527.103121 -213.756978 
L 530.709 -214.958813 
L 534.314879 -218.706574 
L 537.920758 -216.014889 
L 541.526636 -219.92271 
L 545.132515 -225.279132 
L 548.738394 -222.537566 
L 552.344273 -227.698836 
L 555.950152 -227.724999 
L 559.55603 -228.824882 
L 563.161909 -227.532393 
L 566.767788 -225.69238 
L 570.373667 -230.082858 
L 573.979545 -229.644085 
L 577.585424 -230.164161 
L 581.191303 -231.070283 
L 584.797182 -229.061525 
L 588.403061 -228.489472 
L 592.008939 -229.834713 
L 595.614818 -225.341892 
L 599.220697 -224.899645 
L 602.826576 -222.832974 
L 606.432455 -221.838572 
L 610.038333 -223.816972 
L 613.644212 -223.150803 
L 617.250091 -227.42663 
L 620.85597 -230.124574 
L 624.461848 -229.587351 
L 628.067727 -234.097883 
L 631.673606 -233.608614 
L 635.279485 -234.517113 
L 638.885364 -230.295218 
L 642.491242 -229.183139 
L 646.097121 -223.255619 
L 649.703 -225.855556 
L 653.308879 -226.45618 
L 656.914758 -226.712606 
L 660.520636 -227.529052 
L 664.126515 -226.212899 
L 667.732394 -232.08417 
L 671.338273 -232.753215 
L 674.944152 -235.287515 
L 678.55003 -236.010288 
L 682.155909 -241.974935 
L 682.155909 -252.376283 
L 682.155909 -252.376283 
L 678.55003 -248.800184 
L 674.944152 -252.936126 
L 671.338273 -250.417861 
L 667.732394 -244.072441 
L 664.126515 -248.22369 
L 660.520636 -244.75751 
L 656.914758 -250.734022 
L 653.308879 -251.178575 
L 649.703 -251.376069 
L 646.097121 -251.476599 
L 642.491242 -249.687882 
L 638.885364 -246.560152 
L 635.279485 -246.611436 
L 631.673606 -245.289282 
L 628.067727 -248.750689 
L 624.461848 -249.122417 
L 620.85597 -244.097013 
L 617.250091 -257.760096 
L 613.644212 -257.386489 
L 610.038333 -250.83462 
L 606.432455 -254.667418 
L 602.826576 -249.829842 
L 599.220697 -247.467542 
L 595.614818 -248.96032 
L 592.008939 -243.741865 
L 588.403061 -242.829577 
L 584.797182 -237.849968 
L 581.191303 -234.819947 
L 577.585424 -234.086673 
L 573.979545 -235.86989 
L 570.373667 -241.048064 
L 566.767788 -240.654731 
L 563.161909 -241.851631 
L 559.55603 -246.095464 
L 555.950152 -248.512239 
L 552.344273 -252.300949 
L 548.738394 -257.059089 
L 545.132515 -260.041971 
L 541.526636 -260.587707 
L 537.920758 -258.529202 
L 534.314879 -253.230608 
L 530.709 -250.689539 
L 527.103121 -259.604597 
L 523.497242 -252.573058 
L 519.891364 -255.335809 
L 516.285485 -252.91887 
L 512.679606 -248.086183 
L 509.073727 -251.763584 
L 505.467848 -250.265046 
L 501.86197 -242.313927 
L 498.256091 -242.754147 
L 494.650212 -244.099371 
L 491.044333 -240.173825 
L 487.438455 -238.328366 
L 483.832576 -236.137235 
L 480.226697 -238.502772 
L 476.620818 -242.370552 
L 473.014939 -244.346532 
L 469.409061 -249.481401 
L 465.803182 -249.761868 
L 462.197303 -250.52101 
L 458.591424 -255.402031 
L 454.985545 -261.007917 
L 451.379667 -258.599864 
L 447.773788 -256.010276 
L 444.167909 -255.833047 
L 440.56203 -258.612795 
L 436.956152 -249.89534 
L 433.350273 -258.343776 
L 429.744394 -262.301461 
L 426.138515 -261.137557 
L 422.532636 -264.815734 
L 418.926758 -265.167482 
L 415.320879 -265.443174 
L 411.715 -262.145301 
L 408.109121 -262.270068 
L 404.503242 -258.403233 
L 400.897364 -259.920284 
L 397.291485 -259.843578 
L 393.685606 -261.156306 
L 390.079727 -262.04549 
L 386.473848 -263.628528 
L 382.86797 -260.6416 
L 379.262091 -260.466582 
L 375.656212 -264.525194 
L 372.050333 -267.52112 
L 368.444455 -272.902526 
L 364.838576 -268.858736 
L 361.232697 -266.634668 
L 357.626818 -263.401729 
L 354.020939 -261.068748 
L 350.415061 -267.171405 
L 346.809182 -267.375013 
L 343.203303 -260.883045 
L 339.597424 -258.907044 
L 335.991545 -255.819968 
L 332.385667 -255.181804 
L 328.779788 -251.164316 
L 325.173909 -253.22416 
L 321.56803 -251.681779 
L 317.962152 -244.730756 
L 314.356273 -246.218501 
L 310.750394 -245.463097 
L 307.144515 -240.59188 
L 303.538636 -244.05237 
L 299.932758 -245.742138 
L 296.326879 -244.318037 
L 292.721 -245.734373 
L 289.115121 -242.048008 
L 285.509242 -244.050231 
L 281.903364 -241.939867 
L 278.297485 -242.566767 
L 274.691606 -246.559203 
L 271.085727 -242.810748 
L 267.479848 -247.187904 
L 263.87397 -250.180866 
L 260.268091 -247.732123 
L 256.662212 -252.245839 
L 253.056333 -252.651104 
L 249.450455 -256.271175 
L 245.844576 -260.432422 
L 242.238697 -266.707712 
L 238.632818 -269.477527 
L 235.026939 -273.91981 
L 231.421061 -279.911405 
L 227.815182 -279.604629 
L 224.209303 -283.944754 
L 220.603424 -286.068656 
L 216.997545 -287.867287 
L 213.391667 -287.165809 
L 209.785788 -287.861173 
L 206.179909 -290.778573 
L 202.57403 -293.487174 
L 198.968152 -291.687249 
L 195.362273 -293.505633 
L 191.756394 -291.849901 
L 188.150515 -294.28417 
L 184.544636 -294.023571 
L 180.938758 -293.712483 
L 177.332879 -296.678788 
L 173.727 -297.689035 
L 170.121121 -296.866898 
L 166.515242 -295.969281 
L 162.909364 -299.4556 
L 159.303485 -299.807928 
L 155.697606 -296.100572 
L 152.091727 -297.70666 
L 148.485848 -301.40753 
L 144.87997 -304.041776 
L 141.274091 -303.996155 
z
" style="stroke: #008000; stroke-opacity: 0.3"/>
    </defs>
    <g clip-path="url(#pf13286f9f2)">
     <use xlink:href="#mcdca2cbfbf" x="0" y="432" style="fill: #008000; fill-opacity: 0.3; stroke: #008000; stroke-opacity: 0.3"/>
    </g>
   </g>
   <g id="PolyCollection_3">
    <defs>
     <path id="m7195be351f" d="M 141.274091 -388.810013 
L 141.274091 -385.582286 
L 144.87997 -387.855812 
L 148.485848 -386.493491 
L 152.091727 -386.949577 
L 155.697606 -387.91587 
L 159.303485 -387.294843 
L 162.909364 -387.292721 
L 166.515242 -385.815657 
L 170.121121 -389.900181 
L 173.727 -387.298441 
L 177.332879 -387.524425 
L 180.938758 -392.230754 
L 184.544636 -390.73408 
L 188.150515 -392.115683 
L 191.756394 -392.881391 
L 195.362273 -392.514643 
L 198.968152 -396.435486 
L 202.57403 -395.318301 
L 206.179909 -392.319863 
L 209.785788 -393.793208 
L 213.391667 -397.509653 
L 216.997545 -395.447234 
L 220.603424 -393.776716 
L 224.209303 -395.802731 
L 227.815182 -396.355929 
L 231.421061 -394.627841 
L 235.026939 -396.507293 
L 238.632818 -397.409505 
L 242.238697 -397.195077 
L 245.844576 -395.900682 
L 249.450455 -395.333807 
L 253.056333 -397.420372 
L 256.662212 -397.110913 
L 260.268091 -392.369676 
L 263.87397 -393.529021 
L 267.479848 -394.42619 
L 271.085727 -392.449996 
L 274.691606 -394.310876 
L 278.297485 -394.190411 
L 281.903364 -393.321325 
L 285.509242 -395.88084 
L 289.115121 -393.964912 
L 292.721 -395.970548 
L 296.326879 -394.556702 
L 299.932758 -394.03026 
L 303.538636 -392.71267 
L 307.144515 -393.477339 
L 310.750394 -393.642129 
L 314.356273 -393.735455 
L 317.962152 -391.513943 
L 321.56803 -390.452197 
L 325.173909 -391.579384 
L 328.779788 -390.585122 
L 332.385667 -388.94168 
L 335.991545 -391.840498 
L 339.597424 -390.659433 
L 343.203303 -387.608096 
L 346.809182 -393.682857 
L 350.415061 -391.306983 
L 354.020939 -390.135551 
L 357.626818 -388.486913 
L 361.232697 -390.686313 
L 364.838576 -390.678414 
L 368.444455 -389.50173 
L 372.050333 -389.243 
L 375.656212 -392.96664 
L 379.262091 -395.442316 
L 382.86797 -396.68191 
L 386.473848 -392.105499 
L 390.079727 -394.292928 
L 393.685606 -393.170359 
L 397.291485 -394.644989 
L 400.897364 -393.96533 
L 404.503242 -391.978181 
L 408.109121 -390.38835 
L 411.715 -388.395229 
L 415.320879 -387.134488 
L 418.926758 -387.118073 
L 422.532636 -388.367801 
L 426.138515 -387.748762 
L 429.744394 -387.657277 
L 433.350273 -388.536769 
L 436.956152 -383.324552 
L 440.56203 -383.099254 
L 444.167909 -386.078393 
L 447.773788 -384.603012 
L 451.379667 -385.983037 
L 454.985545 -383.192019 
L 458.591424 -388.130164 
L 462.197303 -385.65713 
L 465.803182 -386.896591 
L 469.409061 -386.792196 
L 473.014939 -387.724999 
L 476.620818 -388.961399 
L 480.226697 -388.107942 
L 483.832576 -387.1135 
L 487.438455 -385.510538 
L 491.044333 -384.328371 
L 494.650212 -383.948184 
L 498.256091 -385.801862 
L 501.86197 -387.308381 
L 505.467848 -389.870005 
L 509.073727 -391.928384 
L 512.679606 -389.248149 
L 516.285485 -387.741634 
L 519.891364 -388.904597 
L 523.497242 -389.296529 
L 527.103121 -390.139509 
L 530.709 -390.935824 
L 534.314879 -391.057097 
L 537.920758 -391.983841 
L 541.526636 -392.071279 
L 545.132515 -390.770692 
L 548.738394 -394.31535 
L 552.344273 -392.709084 
L 555.950152 -389.991564 
L 559.55603 -389.266371 
L 563.161909 -387.009659 
L 566.767788 -390.394332 
L 570.373667 -387.725615 
L 573.979545 -388.458807 
L 577.585424 -390.817874 
L 581.191303 -391.740588 
L 584.797182 -389.622062 
L 588.403061 -388.670428 
L 592.008939 -387.90529 
L 595.614818 -387.549636 
L 599.220697 -386.916408 
L 602.826576 -388.770056 
L 606.432455 -387.678733 
L 610.038333 -389.411706 
L 613.644212 -390.232334 
L 617.250091 -391.056178 
L 620.85597 -390.740661 
L 624.461848 -389.979894 
L 628.067727 -389.934325 
L 631.673606 -392.835094 
L 635.279485 -393.16783 
L 638.885364 -391.152045 
L 642.491242 -391.554462 
L 646.097121 -392.505588 
L 649.703 -389.745454 
L 653.308879 -389.452072 
L 656.914758 -388.051235 
L 660.520636 -390.610908 
L 664.126515 -393.042009 
L 667.732394 -393.977049 
L 671.338273 -394.216963 
L 674.944152 -393.937396 
L 678.55003 -393.894387 
L 682.155909 -391.624105 
L 682.155909 -403.704086 
L 682.155909 -403.704086 
L 678.55003 -406.056364 
L 674.944152 -403.567698 
L 671.338273 -402.885001 
L 667.732394 -402.157403 
L 664.126515 -402.984942 
L 660.520636 -402.647882 
L 656.914758 -400.558121 
L 653.308879 -399.345411 
L 649.703 -399.965791 
L 646.097121 -400.269446 
L 642.491242 -398.882417 
L 638.885364 -400.037344 
L 635.279485 -398.693442 
L 631.673606 -401.09558 
L 628.067727 -400.448803 
L 624.461848 -401.585749 
L 620.85597 -402.410628 
L 617.250091 -402.202612 
L 613.644212 -404.10147 
L 610.038333 -403.12145 
L 606.432455 -400.769371 
L 602.826576 -403.440596 
L 599.220697 -402.391706 
L 595.614818 -403.02162 
L 592.008939 -400.435312 
L 588.403061 -398.810164 
L 584.797182 -400.223559 
L 581.191303 -399.4488 
L 577.585424 -402.951548 
L 573.979545 -401.144937 
L 570.373667 -402.44251 
L 566.767788 -401.171311 
L 563.161909 -401.787824 
L 559.55603 -399.611738 
L 555.950152 -401.896583 
L 552.344273 -402.538482 
L 548.738394 -403.001617 
L 545.132515 -401.117455 
L 541.526636 -401.348763 
L 537.920758 -398.587415 
L 534.314879 -398.46602 
L 530.709 -400.092313 
L 527.103121 -400.781127 
L 523.497242 -400.602843 
L 519.891364 -399.75851 
L 516.285485 -400.115212 
L 512.679606 -401.323107 
L 509.073727 -399.234129 
L 505.467848 -400.351871 
L 501.86197 -401.999733 
L 498.256091 -401.114347 
L 494.650212 -401.812385 
L 491.044333 -401.727827 
L 487.438455 -402.830065 
L 483.832576 -402.732122 
L 480.226697 -400.58204 
L 476.620818 -402.147364 
L 473.014939 -402.792506 
L 469.409061 -398.860872 
L 465.803182 -402.707153 
L 462.197303 -398.894049 
L 458.591424 -399.861059 
L 454.985545 -399.04788 
L 451.379667 -398.648768 
L 447.773788 -396.534999 
L 444.167909 -396.188382 
L 440.56203 -395.216845 
L 436.956152 -397.786583 
L 433.350273 -395.826282 
L 429.744394 -396.114517 
L 426.138515 -398.898694 
L 422.532636 -396.290879 
L 418.926758 -397.244979 
L 415.320879 -395.884796 
L 411.715 -398.037224 
L 408.109121 -399.081017 
L 404.503242 -398.270571 
L 400.897364 -399.535338 
L 397.291485 -399.393186 
L 393.685606 -400.652814 
L 390.079727 -400.605259 
L 386.473848 -401.7983 
L 382.86797 -400.0438 
L 379.262091 -400.15463 
L 375.656212 -400.587779 
L 372.050333 -398.425719 
L 368.444455 -400.881399 
L 364.838576 -396.829053 
L 361.232697 -397.949918 
L 357.626818 -397.918665 
L 354.020939 -396.108774 
L 350.415061 -399.398649 
L 346.809182 -399.414681 
L 343.203303 -401.40439 
L 339.597424 -403.674371 
L 335.991545 -401.821423 
L 332.385667 -404.532113 
L 328.779788 -402.915546 
L 325.173909 -403.1038 
L 321.56803 -402.994721 
L 317.962152 -400.159202 
L 314.356273 -401.834615 
L 310.750394 -403.459836 
L 307.144515 -404.00088 
L 303.538636 -403.986164 
L 299.932758 -403.662962 
L 296.326879 -402.679639 
L 292.721 -405.861477 
L 289.115121 -405.206454 
L 285.509242 -403.183025 
L 281.903364 -402.114369 
L 278.297485 -400.949653 
L 274.691606 -401.850452 
L 271.085727 -401.373177 
L 267.479848 -401.358883 
L 263.87397 -398.708507 
L 260.268091 -400.244106 
L 256.662212 -400.501683 
L 253.056333 -399.574091 
L 249.450455 -401.98316 
L 245.844576 -403.35131 
L 242.238697 -402.056915 
L 238.632818 -402.890626 
L 235.026939 -401.320306 
L 231.421061 -401.479736 
L 227.815182 -397.816623 
L 224.209303 -397.079805 
L 220.603424 -394.940142 
L 216.997545 -396.467789 
L 213.391667 -398.006666 
L 209.785788 -394.22489 
L 206.179909 -398.197642 
L 202.57403 -396.8386 
L 198.968152 -397.25331 
L 195.362273 -396.417217 
L 191.756394 -397.125483 
L 188.150515 -393.322383 
L 184.544636 -394.462107 
L 180.938758 -394.551078 
L 177.332879 -394.339219 
L 173.727 -394.027697 
L 170.121121 -391.667835 
L 166.515242 -389.033523 
L 162.909364 -388.658348 
L 159.303485 -392.633777 
L 155.697606 -388.868335 
L 152.091727 -391.6084 
L 148.485848 -390.989472 
L 144.87997 -390.67529 
L 141.274091 -388.810013 
z
" style="stroke: #ff0000; stroke-opacity: 0.3"/>
    </defs>
    <g clip-path="url(#pf13286f9f2)">
     <use xlink:href="#m7195be351f" x="0" y="432" style="fill: #ff0000; fill-opacity: 0.3; stroke: #ff0000; stroke-opacity: 0.3"/>
    </g>
   </g>
   <g id="PolyCollection_4">
    <defs>
     <path id="m1833794e23" d="M 141.274091 -389.759318 
L 141.274091 -385.600494 
L 144.87997 -386.791677 
L 148.485848 -385.053643 
L 152.091727 -386.14563 
L 155.697606 -385.20837 
L 159.303485 -385.702609 
L 162.909364 -383.703191 
L 166.515242 -384.162547 
L 170.121121 -382.913943 
L 173.727 -384.076548 
L 177.332879 -385.586193 
L 180.938758 -382.185277 
L 184.544636 -384.022091 
L 188.150515 -383.355939 
L 191.756394 -383.654272 
L 195.362273 -382.808753 
L 198.968152 -379.715319 
L 202.57403 -383.007074 
L 206.179909 -381.592661 
L 209.785788 -378.889949 
L 213.391667 -380.985973 
L 216.997545 -378.253697 
L 220.603424 -380.209733 
L 224.209303 -379.770911 
L 227.815182 -379.841706 
L 231.421061 -378.852862 
L 235.026939 -380.566378 
L 238.632818 -381.01802 
L 242.238697 -381.033368 
L 245.844576 -381.69621 
L 249.450455 -381.847077 
L 253.056333 -382.989096 
L 256.662212 -381.330639 
L 260.268091 -380.725167 
L 263.87397 -380.312992 
L 267.479848 -378.926056 
L 271.085727 -379.109077 
L 274.691606 -378.489869 
L 278.297485 -380.284335 
L 281.903364 -379.269018 
L 285.509242 -381.808899 
L 289.115121 -380.530707 
L 292.721 -378.695687 
L 296.326879 -379.934527 
L 299.932758 -376.24173 
L 303.538636 -375.848175 
L 307.144515 -376.786027 
L 310.750394 -377.78973 
L 314.356273 -376.801995 
L 317.962152 -377.2159 
L 321.56803 -380.531372 
L 325.173909 -377.732497 
L 328.779788 -379.141239 
L 332.385667 -379.900551 
L 335.991545 -379.835834 
L 339.597424 -378.504882 
L 343.203303 -376.38166 
L 346.809182 -377.901199 
L 350.415061 -378.390521 
L 354.020939 -378.00799 
L 357.626818 -376.342863 
L 361.232697 -378.190961 
L 364.838576 -376.283852 
L 368.444455 -375.748846 
L 372.050333 -375.745822 
L 375.656212 -377.061861 
L 379.262091 -375.919986 
L 382.86797 -374.435422 
L 386.473848 -375.973189 
L 390.079727 -375.421932 
L 393.685606 -373.23387 
L 397.291485 -371.2225 
L 400.897364 -376.113301 
L 404.503242 -375.811478 
L 408.109121 -374.569653 
L 411.715 -373.452791 
L 415.320879 -373.554948 
L 418.926758 -374.81609 
L 422.532636 -374.998499 
L 426.138515 -369.949272 
L 429.744394 -369.109679 
L 433.350273 -371.22454 
L 436.956152 -368.71759 
L 440.56203 -366.723012 
L 444.167909 -369.806089 
L 447.773788 -371.110661 
L 451.379667 -371.910977 
L 454.985545 -373.293112 
L 458.591424 -373.123605 
L 462.197303 -373.16466 
L 465.803182 -373.33413 
L 469.409061 -373.795357 
L 473.014939 -370.202907 
L 476.620818 -370.992743 
L 480.226697 -370.968039 
L 483.832576 -370.816663 
L 487.438455 -370.056554 
L 491.044333 -371.168036 
L 494.650212 -370.656606 
L 498.256091 -370.341044 
L 501.86197 -369.406368 
L 505.467848 -364.792625 
L 509.073727 -368.989712 
L 512.679606 -368.962014 
L 516.285485 -366.542735 
L 519.891364 -366.906955 
L 523.497242 -361.535893 
L 527.103121 -363.800825 
L 530.709 -362.509172 
L 534.314879 -363.867546 
L 537.920758 -365.507237 
L 541.526636 -365.891494 
L 545.132515 -368.769626 
L 548.738394 -369.616209 
L 552.344273 -371.992876 
L 555.950152 -371.932187 
L 559.55603 -369.751933 
L 563.161909 -369.401506 
L 566.767788 -370.931023 
L 570.373667 -370.755311 
L 573.979545 -370.493409 
L 577.585424 -370.440801 
L 581.191303 -368.247177 
L 584.797182 -367.285864 
L 588.403061 -365.446394 
L 592.008939 -360.649238 
L 595.614818 -360.986698 
L 599.220697 -360.954292 
L 602.826576 -361.969012 
L 606.432455 -363.89841 
L 610.038333 -360.269665 
L 613.644212 -363.233502 
L 617.250091 -363.793925 
L 620.85597 -360.530619 
L 624.461848 -361.102633 
L 628.067727 -362.416429 
L 631.673606 -360.963723 
L 635.279485 -356.729935 
L 638.885364 -361.272804 
L 642.491242 -356.552245 
L 646.097121 -354.737331 
L 649.703 -358.474425 
L 653.308879 -354.963182 
L 656.914758 -355.05015 
L 660.520636 -355.393271 
L 664.126515 -352.550975 
L 667.732394 -356.64357 
L 671.338273 -359.660219 
L 674.944152 -357.675581 
L 678.55003 -354.112929 
L 682.155909 -353.535449 
L 682.155909 -366.246152 
L 682.155909 -366.246152 
L 678.55003 -366.25993 
L 674.944152 -364.094795 
L 671.338273 -367.001469 
L 667.732394 -371.550013 
L 664.126515 -371.261928 
L 660.520636 -372.692811 
L 656.914758 -373.761566 
L 653.308879 -375.461055 
L 649.703 -374.906099 
L 646.097121 -372.08561 
L 642.491242 -374.517 
L 638.885364 -373.102108 
L 635.279485 -375.736828 
L 631.673606 -375.641843 
L 628.067727 -377.064798 
L 624.461848 -375.368556 
L 620.85597 -375.913695 
L 617.250091 -375.526051 
L 613.644212 -373.425815 
L 610.038333 -379.775945 
L 606.432455 -373.08341 
L 602.826576 -372.35215 
L 599.220697 -373.581872 
L 595.614818 -372.958209 
L 592.008939 -373.833176 
L 588.403061 -374.384213 
L 584.797182 -374.721646 
L 581.191303 -378.27539 
L 577.585424 -375.624886 
L 573.979545 -374.92727 
L 570.373667 -375.767257 
L 566.767788 -375.887174 
L 563.161909 -379.271089 
L 559.55603 -373.760596 
L 555.950152 -375.154763 
L 552.344273 -376.249713 
L 548.738394 -377.175112 
L 545.132515 -375.68354 
L 541.526636 -373.885362 
L 537.920758 -378.24717 
L 534.314879 -376.876823 
L 530.709 -377.966444 
L 527.103121 -377.158547 
L 523.497242 -378.805346 
L 519.891364 -380.475624 
L 516.285485 -378.501689 
L 512.679606 -380.463091 
L 509.073727 -379.656008 
L 505.467848 -380.224924 
L 501.86197 -380.69062 
L 498.256091 -381.39534 
L 494.650212 -383.444809 
L 491.044333 -381.240232 
L 487.438455 -381.975459 
L 483.832576 -382.505367 
L 480.226697 -384.907148 
L 476.620818 -387.2206 
L 473.014939 -385.645405 
L 469.409061 -384.579237 
L 465.803182 -385.551095 
L 462.197303 -387.413713 
L 458.591424 -387.401016 
L 454.985545 -387.58089 
L 451.379667 -384.259839 
L 447.773788 -385.973917 
L 444.167909 -387.412865 
L 440.56203 -387.190275 
L 436.956152 -384.308811 
L 433.350273 -385.053778 
L 429.744394 -384.722982 
L 426.138515 -386.490298 
L 422.532636 -388.02553 
L 418.926758 -386.891047 
L 415.320879 -387.157801 
L 411.715 -387.07183 
L 408.109121 -385.954969 
L 404.503242 -386.110662 
L 400.897364 -390.807652 
L 397.291485 -390.135258 
L 393.685606 -390.999549 
L 390.079727 -391.257143 
L 386.473848 -388.233355 
L 382.86797 -390.523632 
L 379.262091 -389.119693 
L 375.656212 -387.897192 
L 372.050333 -390.637624 
L 368.444455 -391.38711 
L 364.838576 -393.378387 
L 361.232697 -393.94381 
L 357.626818 -394.179387 
L 354.020939 -394.664287 
L 350.415061 -394.335507 
L 346.809182 -394.394823 
L 343.203303 -395.161853 
L 339.597424 -394.033018 
L 335.991545 -394.314587 
L 332.385667 -397.313659 
L 328.779788 -396.997958 
L 325.173909 -392.359747 
L 321.56803 -391.684024 
L 317.962152 -389.812555 
L 314.356273 -388.909568 
L 310.750394 -392.356265 
L 307.144515 -391.102439 
L 303.538636 -394.270944 
L 299.932758 -394.119268 
L 296.326879 -393.517135 
L 292.721 -393.92284 
L 289.115121 -392.168445 
L 285.509242 -396.614701 
L 281.903364 -394.935154 
L 278.297485 -394.618596 
L 274.691606 -395.042419 
L 271.085727 -393.590075 
L 267.479848 -392.644332 
L 263.87397 -392.198033 
L 260.268091 -394.25839 
L 256.662212 -393.545416 
L 253.056333 -394.547618 
L 249.450455 -395.205881 
L 245.844576 -397.775529 
L 242.238697 -398.518997 
L 238.632818 -400.093115 
L 235.026939 -399.281616 
L 231.421061 -399.221359 
L 227.815182 -400.597546 
L 224.209303 -399.647077 
L 220.603424 -398.832 
L 216.997545 -397.697372 
L 213.391667 -399.480154 
L 209.785788 -402.516815 
L 206.179909 -399.061593 
L 202.57403 -401.382853 
L 198.968152 -397.068885 
L 195.362273 -397.388621 
L 191.756394 -395.978719 
L 188.150515 -393.831395 
L 184.544636 -394.724014 
L 180.938758 -392.529526 
L 177.332879 -390.794881 
L 173.727 -389.509491 
L 170.121121 -390.564594 
L 166.515242 -391.466018 
L 162.909364 -389.103463 
L 159.303485 -389.576576 
L 155.697606 -388.108915 
L 152.091727 -387.816663 
L 148.485848 -391.864939 
L 144.87997 -388.541259 
L 141.274091 -389.759318 
z
" style="stroke: #ffa500; stroke-opacity: 0.3"/>
    </defs>
    <g clip-path="url(#pf13286f9f2)">
     <use xlink:href="#m1833794e23" x="0" y="432" style="fill: #ffa500; fill-opacity: 0.3; stroke: #ffa500; stroke-opacity: 0.3"/>
    </g>
   </g>
   <g id="matplotlib.axis_1">
    <g id="xtick_1">
     <g id="line2d_1">
      <defs>
       <path id="meb0c06277e" d="M 0 0 
L 0 3.5 
" style="stroke: #000000; stroke-width: 0.8"/>
      </defs>
      <g>
       <use xlink:href="#meb0c06277e" x="141.274091" y="343.96" style="stroke: #000000; stroke-width: 0.8"/>
      </g>
     </g>
     <g id="text_1">
      <!-- 0 -->
      <g transform="translate(132.366591 372.235625) scale(0.28 -0.28)">
       <defs>
        <path id="DejaVuSans-30" d="M 2034 4250 
Q 1547 4250 1301 3770 
Q 1056 3291 1056 2328 
Q 1056 1369 1301 889 
Q 1547 409 2034 409 
Q 2525 409 2770 889 
Q 3016 1369 3016 2328 
Q 3016 3291 2770 3770 
Q 2525 4250 2034 4250 
z
M 2034 4750 
Q 2819 4750 3233 4129 
Q 3647 3509 3647 2328 
Q 3647 1150 3233 529 
Q 2819 -91 2034 -91 
Q 1250 -91 836 529 
Q 422 1150 422 2328 
Q 422 3509 836 4129 
Q 1250 4750 2034 4750 
z
" transform="scale(0.015625)"/>
       </defs>
       <use xlink:href="#DejaVuSans-30"/>
      </g>
     </g>
    </g>
    <g id="xtick_2">
     <g id="line2d_2">
      <g>
       <use xlink:href="#meb0c06277e" x="213.391667" y="343.96" style="stroke: #000000; stroke-width: 0.8"/>
      </g>
     </g>
     <g id="text_2">
      <!-- 20 -->
      <g transform="translate(195.576667 372.235625) scale(0.28 -0.28)">
       <defs>
        <path id="DejaVuSans-32" d="M 1228 531 
L 3431 531 
L 3431 0 
L 469 0 
L 469 531 
Q 828 903 1448 1529 
Q 2069 2156 2228 2338 
Q 2531 2678 2651 2914 
Q 2772 3150 2772 3378 
Q 2772 3750 2511 3984 
Q 2250 4219 1831 4219 
Q 1534 4219 1204 4116 
Q 875 4013 500 3803 
L 500 4441 
Q 881 4594 1212 4672 
Q 1544 4750 1819 4750 
Q 2544 4750 2975 4387 
Q 3406 4025 3406 3419 
Q 3406 3131 3298 2873 
Q 3191 2616 2906 2266 
Q 2828 2175 2409 1742 
Q 1991 1309 1228 531 
z
" transform="scale(0.015625)"/>
       </defs>
       <use xlink:href="#DejaVuSans-32"/>
       <use xlink:href="#DejaVuSans-30" x="63.623047"/>
      </g>
     </g>
    </g>
    <g id="xtick_3">
     <g id="line2d_3">
      <g>
       <use xlink:href="#meb0c06277e" x="285.509242" y="343.96" style="stroke: #000000; stroke-width: 0.8"/>
      </g>
     </g>
     <g id="text_3">
      <!-- 40 -->
      <g transform="translate(267.694242 372.235625) scale(0.28 -0.28)">
       <defs>
        <path id="DejaVuSans-34" d="M 2419 4116 
L 825 1625 
L 2419 1625 
L 2419 4116 
z
M 2253 4666 
L 3047 4666 
L 3047 1625 
L 3713 1625 
L 3713 1100 
L 3047 1100 
L 3047 0 
L 2419 0 
L 2419 1100 
L 313 1100 
L 313 1709 
L 2253 4666 
z
" transform="scale(0.015625)"/>
       </defs>
       <use xlink:href="#DejaVuSans-34"/>
       <use xlink:href="#DejaVuSans-30" x="63.623047"/>
      </g>
     </g>
    </g>
    <g id="xtick_4">
     <g id="line2d_4">
      <g>
       <use xlink:href="#meb0c06277e" x="357.626818" y="343.96" style="stroke: #000000; stroke-width: 0.8"/>
      </g>
     </g>
     <g id="text_4">
      <!-- 60 -->
      <g transform="translate(339.811818 372.235625) scale(0.28 -0.28)">
       <defs>
        <path id="DejaVuSans-36" d="M 2113 2584 
Q 1688 2584 1439 2293 
Q 1191 2003 1191 1497 
Q 1191 994 1439 701 
Q 1688 409 2113 409 
Q 2538 409 2786 701 
Q 3034 994 3034 1497 
Q 3034 2003 2786 2293 
Q 2538 2584 2113 2584 
z
M 3366 4563 
L 3366 3988 
Q 3128 4100 2886 4159 
Q 2644 4219 2406 4219 
Q 1781 4219 1451 3797 
Q 1122 3375 1075 2522 
Q 1259 2794 1537 2939 
Q 1816 3084 2150 3084 
Q 2853 3084 3261 2657 
Q 3669 2231 3669 1497 
Q 3669 778 3244 343 
Q 2819 -91 2113 -91 
Q 1303 -91 875 529 
Q 447 1150 447 2328 
Q 447 3434 972 4092 
Q 1497 4750 2381 4750 
Q 2619 4750 2861 4703 
Q 3103 4656 3366 4563 
z
" transform="scale(0.015625)"/>
       </defs>
       <use xlink:href="#DejaVuSans-36"/>
       <use xlink:href="#DejaVuSans-30" x="63.623047"/>
      </g>
     </g>
    </g>
    <g id="xtick_5">
     <g id="line2d_5">
      <g>
       <use xlink:href="#meb0c06277e" x="429.744394" y="343.96" style="stroke: #000000; stroke-width: 0.8"/>
      </g>
     </g>
     <g id="text_5">
      <!-- 80 -->
      <g transform="translate(411.929394 372.235625) scale(0.28 -0.28)">
       <defs>
        <path id="DejaVuSans-38" d="M 2034 2216 
Q 1584 2216 1326 1975 
Q 1069 1734 1069 1313 
Q 1069 891 1326 650 
Q 1584 409 2034 409 
Q 2484 409 2743 651 
Q 3003 894 3003 1313 
Q 3003 1734 2745 1975 
Q 2488 2216 2034 2216 
z
M 1403 2484 
Q 997 2584 770 2862 
Q 544 3141 544 3541 
Q 544 4100 942 4425 
Q 1341 4750 2034 4750 
Q 2731 4750 3128 4425 
Q 3525 4100 3525 3541 
Q 3525 3141 3298 2862 
Q 3072 2584 2669 2484 
Q 3125 2378 3379 2068 
Q 3634 1759 3634 1313 
Q 3634 634 3220 271 
Q 2806 -91 2034 -91 
Q 1263 -91 848 271 
Q 434 634 434 1313 
Q 434 1759 690 2068 
Q 947 2378 1403 2484 
z
M 1172 3481 
Q 1172 3119 1398 2916 
Q 1625 2713 2034 2713 
Q 2441 2713 2670 2916 
Q 2900 3119 2900 3481 
Q 2900 3844 2670 4047 
Q 2441 4250 2034 4250 
Q 1625 4250 1398 4047 
Q 1172 3844 1172 3481 
z
" transform="scale(0.015625)"/>
       </defs>
       <use xlink:href="#DejaVuSans-38"/>
       <use xlink:href="#DejaVuSans-30" x="63.623047"/>
      </g>
     </g>
    </g>
    <g id="xtick_6">
     <g id="line2d_6">
      <g>
       <use xlink:href="#meb0c06277e" x="501.86197" y="343.96" style="stroke: #000000; stroke-width: 0.8"/>
      </g>
     </g>
     <g id="text_6">
      <!-- 100 -->
      <g transform="translate(475.13947 372.235625) scale(0.28 -0.28)">
       <defs>
        <path id="DejaVuSans-31" d="M 794 531 
L 1825 531 
L 1825 4091 
L 703 3866 
L 703 4441 
L 1819 4666 
L 2450 4666 
L 2450 531 
L 3481 531 
L 3481 0 
L 794 0 
L 794 531 
z
" transform="scale(0.015625)"/>
       </defs>
       <use xlink:href="#DejaVuSans-31"/>
       <use xlink:href="#DejaVuSans-30" x="63.623047"/>
       <use xlink:href="#DejaVuSans-30" x="127.246094"/>
      </g>
     </g>
    </g>
    <g id="xtick_7">
     <g id="line2d_7">
      <g>
       <use xlink:href="#meb0c06277e" x="573.979545" y="343.96" style="stroke: #000000; stroke-width: 0.8"/>
      </g>
     </g>
     <g id="text_7">
      <!-- 120 -->
      <g transform="translate(547.257045 372.235625) scale(0.28 -0.28)">
       <use xlink:href="#DejaVuSans-31"/>
       <use xlink:href="#DejaVuSans-32" x="63.623047"/>
       <use xlink:href="#DejaVuSans-30" x="127.246094"/>
      </g>
     </g>
    </g>
    <g id="xtick_8">
     <g id="line2d_8">
      <g>
       <use xlink:href="#meb0c06277e" x="646.097121" y="343.96" style="stroke: #000000; stroke-width: 0.8"/>
      </g>
     </g>
     <g id="text_8">
      <!-- 140 -->
      <g transform="translate(619.374621 372.235625) scale(0.28 -0.28)">
       <use xlink:href="#DejaVuSans-31"/>
       <use xlink:href="#DejaVuSans-34" x="63.623047"/>
       <use xlink:href="#DejaVuSans-30" x="127.246094"/>
      </g>
     </g>
    </g>
    <g id="text_9">
     <!-- Episode -->
     <g transform="translate(333.165 412.4525) scale(0.4 -0.4)">
      <defs>
       <path id="DejaVuSans-45" d="M 628 4666 
L 3578 4666 
L 3578 4134 
L 1259 4134 
L 1259 2753 
L 3481 2753 
L 3481 2222 
L 1259 2222 
L 1259 531 
L 3634 531 
L 3634 0 
L 628 0 
L 628 4666 
z
" transform="scale(0.015625)"/>
       <path id="DejaVuSans-70" d="M 1159 525 
L 1159 -1331 
L 581 -1331 
L 581 3500 
L 1159 3500 
L 1159 2969 
Q 1341 3281 1617 3432 
Q 1894 3584 2278 3584 
Q 2916 3584 3314 3078 
Q 3713 2572 3713 1747 
Q 3713 922 3314 415 
Q 2916 -91 2278 -91 
Q 1894 -91 1617 61 
Q 1341 213 1159 525 
z
M 3116 1747 
Q 3116 2381 2855 2742 
Q 2594 3103 2138 3103 
Q 1681 3103 1420 2742 
Q 1159 2381 1159 1747 
Q 1159 1113 1420 752 
Q 1681 391 2138 391 
Q 2594 391 2855 752 
Q 3116 1113 3116 1747 
z
" transform="scale(0.015625)"/>
       <path id="DejaVuSans-69" d="M 603 3500 
L 1178 3500 
L 1178 0 
L 603 0 
L 603 3500 
z
M 603 4863 
L 1178 4863 
L 1178 4134 
L 603 4134 
L 603 4863 
z
" transform="scale(0.015625)"/>
       <path id="DejaVuSans-73" d="M 2834 3397 
L 2834 2853 
Q 2591 2978 2328 3040 
Q 2066 3103 1784 3103 
Q 1356 3103 1142 2972 
Q 928 2841 928 2578 
Q 928 2378 1081 2264 
Q 1234 2150 1697 2047 
L 1894 2003 
Q 2506 1872 2764 1633 
Q 3022 1394 3022 966 
Q 3022 478 2636 193 
Q 2250 -91 1575 -91 
Q 1294 -91 989 -36 
Q 684 19 347 128 
L 347 722 
Q 666 556 975 473 
Q 1284 391 1588 391 
Q 1994 391 2212 530 
Q 2431 669 2431 922 
Q 2431 1156 2273 1281 
Q 2116 1406 1581 1522 
L 1381 1569 
Q 847 1681 609 1914 
Q 372 2147 372 2553 
Q 372 3047 722 3315 
Q 1072 3584 1716 3584 
Q 2034 3584 2315 3537 
Q 2597 3491 2834 3397 
z
" transform="scale(0.015625)"/>
       <path id="DejaVuSans-6f" d="M 1959 3097 
Q 1497 3097 1228 2736 
Q 959 2375 959 1747 
Q 959 1119 1226 758 
Q 1494 397 1959 397 
Q 2419 397 2687 759 
Q 2956 1122 2956 1747 
Q 2956 2369 2687 2733 
Q 2419 3097 1959 3097 
z
M 1959 3584 
Q 2709 3584 3137 3096 
Q 3566 2609 3566 1747 
Q 3566 888 3137 398 
Q 2709 -91 1959 -91 
Q 1206 -91 779 398 
Q 353 888 353 1747 
Q 353 2609 779 3096 
Q 1206 3584 1959 3584 
z
" transform="scale(0.015625)"/>
       <path id="DejaVuSans-64" d="M 2906 2969 
L 2906 4863 
L 3481 4863 
L 3481 0 
L 2906 0 
L 2906 525 
Q 2725 213 2448 61 
Q 2172 -91 1784 -91 
Q 1150 -91 751 415 
Q 353 922 353 1747 
Q 353 2572 751 3078 
Q 1150 3584 1784 3584 
Q 2172 3584 2448 3432 
Q 2725 3281 2906 2969 
z
M 947 1747 
Q 947 1113 1208 752 
Q 1469 391 1925 391 
Q 2381 391 2643 752 
Q 2906 1113 2906 1747 
Q 2906 2381 2643 2742 
Q 2381 3103 1925 3103 
Q 1469 3103 1208 2742 
Q 947 2381 947 1747 
z
" transform="scale(0.015625)"/>
       <path id="DejaVuSans-65" d="M 3597 1894 
L 3597 1613 
L 953 1613 
Q 991 1019 1311 708 
Q 1631 397 2203 397 
Q 2534 397 2845 478 
Q 3156 559 3463 722 
L 3463 178 
Q 3153 47 2828 -22 
Q 2503 -91 2169 -91 
Q 1331 -91 842 396 
Q 353 884 353 1716 
Q 353 2575 817 3079 
Q 1281 3584 2069 3584 
Q 2775 3584 3186 3129 
Q 3597 2675 3597 1894 
z
M 3022 2063 
Q 3016 2534 2758 2815 
Q 2500 3097 2075 3097 
Q 1594 3097 1305 2825 
Q 1016 2553 972 2059 
L 3022 2063 
z
" transform="scale(0.015625)"/>
      </defs>
      <use xlink:href="#DejaVuSans-45"/>
      <use xlink:href="#DejaVuSans-70" x="63.183594"/>
      <use xlink:href="#DejaVuSans-69" x="126.660156"/>
      <use xlink:href="#DejaVuSans-73" x="154.443359"/>
      <use xlink:href="#DejaVuSans-6f" x="206.542969"/>
      <use xlink:href="#DejaVuSans-64" x="267.724609"/>
      <use xlink:href="#DejaVuSans-65" x="331.201172"/>
     </g>
    </g>
   </g>
   <g id="matplotlib.axis_2">
    <g id="ytick_1">
     <g id="line2d_9">
      <defs>
       <path id="m27b4a15094" d="M 0 0 
L -3.5 0 
" style="stroke: #000000; stroke-width: 0.8"/>
      </defs>
      <g>
       <use xlink:href="#m27b4a15094" x="114.23" y="321.794579" style="stroke: #000000; stroke-width: 0.8"/>
      </g>
     </g>
     <g id="text_10">
      <!-- 75 -->
      <g transform="translate(71.6 332.432392) scale(0.28 -0.28)">
       <defs>
        <path id="DejaVuSans-37" d="M 525 4666 
L 3525 4666 
L 3525 4397 
L 1831 0 
L 1172 0 
L 2766 4134 
L 525 4134 
L 525 4666 
z
" transform="scale(0.015625)"/>
        <path id="DejaVuSans-35" d="M 691 4666 
L 3169 4666 
L 3169 4134 
L 1269 4134 
L 1269 2991 
Q 1406 3038 1543 3061 
Q 1681 3084 1819 3084 
Q 2600 3084 3056 2656 
Q 3513 2228 3513 1497 
Q 3513 744 3044 326 
Q 2575 -91 1722 -91 
Q 1428 -91 1123 -41 
Q 819 9 494 109 
L 494 744 
Q 775 591 1075 516 
Q 1375 441 1709 441 
Q 2250 441 2565 725 
Q 2881 1009 2881 1497 
Q 2881 1984 2565 2268 
Q 2250 2553 1709 2553 
Q 1456 2553 1204 2497 
Q 953 2441 691 2322 
L 691 4666 
z
" transform="scale(0.015625)"/>
       </defs>
       <use xlink:href="#DejaVuSans-37"/>
       <use xlink:href="#DejaVuSans-35" x="63.623047"/>
      </g>
     </g>
    </g>
    <g id="ytick_2">
     <g id="line2d_10">
      <g>
       <use xlink:href="#m27b4a15094" x="114.23" y="281.481564" style="stroke: #000000; stroke-width: 0.8"/>
      </g>
     </g>
     <g id="text_11">
      <!-- 100 -->
      <g transform="translate(53.785 292.119376) scale(0.28 -0.28)">
       <use xlink:href="#DejaVuSans-31"/>
       <use xlink:href="#DejaVuSans-30" x="63.623047"/>
       <use xlink:href="#DejaVuSans-30" x="127.246094"/>
      </g>
     </g>
    </g>
    <g id="ytick_3">
     <g id="line2d_11">
      <g>
       <use xlink:href="#m27b4a15094" x="114.23" y="241.168549" style="stroke: #000000; stroke-width: 0.8"/>
      </g>
     </g>
     <g id="text_12">
      <!-- 125 -->
      <g transform="translate(53.785 251.806361) scale(0.28 -0.28)">
       <use xlink:href="#DejaVuSans-31"/>
       <use xlink:href="#DejaVuSans-32" x="63.623047"/>
       <use xlink:href="#DejaVuSans-35" x="127.246094"/>
      </g>
     </g>
    </g>
    <g id="ytick_4">
     <g id="line2d_12">
      <g>
       <use xlink:href="#m27b4a15094" x="114.23" y="200.855533" style="stroke: #000000; stroke-width: 0.8"/>
      </g>
     </g>
     <g id="text_13">
      <!-- 150 -->
      <g transform="translate(53.785 211.493346) scale(0.28 -0.28)">
       <use xlink:href="#DejaVuSans-31"/>
       <use xlink:href="#DejaVuSans-35" x="63.623047"/>
       <use xlink:href="#DejaVuSans-30" x="127.246094"/>
      </g>
     </g>
    </g>
    <g id="ytick_5">
     <g id="line2d_13">
      <g>
       <use xlink:href="#m27b4a15094" x="114.23" y="160.542518" style="stroke: #000000; stroke-width: 0.8"/>
      </g>
     </g>
     <g id="text_14">
      <!-- 175 -->
      <g transform="translate(53.785 171.18033) scale(0.28 -0.28)">
       <use xlink:href="#DejaVuSans-31"/>
       <use xlink:href="#DejaVuSans-37" x="63.623047"/>
       <use xlink:href="#DejaVuSans-35" x="127.246094"/>
      </g>
     </g>
    </g>
    <g id="ytick_6">
     <g id="line2d_14">
      <g>
       <use xlink:href="#m27b4a15094" x="114.23" y="120.229502" style="stroke: #000000; stroke-width: 0.8"/>
      </g>
     </g>
     <g id="text_15">
      <!-- 200 -->
      <g transform="translate(53.785 130.867315) scale(0.28 -0.28)">
       <use xlink:href="#DejaVuSans-32"/>
       <use xlink:href="#DejaVuSans-30" x="63.623047"/>
       <use xlink:href="#DejaVuSans-30" x="127.246094"/>
      </g>
     </g>
    </g>
    <g id="ytick_7">
     <g id="line2d_15">
      <g>
       <use xlink:href="#m27b4a15094" x="114.23" y="79.916487" style="stroke: #000000; stroke-width: 0.8"/>
      </g>
     </g>
     <g id="text_16">
      <!-- 225 -->
      <g transform="translate(53.785 90.554299) scale(0.28 -0.28)">
       <use xlink:href="#DejaVuSans-32"/>
       <use xlink:href="#DejaVuSans-32" x="63.623047"/>
       <use xlink:href="#DejaVuSans-35" x="127.246094"/>
      </g>
     </g>
    </g>
    <g id="ytick_8">
     <g id="line2d_16">
      <g>
       <use xlink:href="#m27b4a15094" x="114.23" y="39.603471" style="stroke: #000000; stroke-width: 0.8"/>
      </g>
     </g>
     <g id="text_17">
      <!-- 250 -->
      <g transform="translate(53.785 50.241284) scale(0.28 -0.28)">
       <use xlink:href="#DejaVuSans-32"/>
       <use xlink:href="#DejaVuSans-35" x="63.623047"/>
       <use xlink:href="#DejaVuSans-30" x="127.246094"/>
      </g>
     </g>
    </g>
    <g id="text_18">
     <!-- $m_{to}$ -->
     <g transform="translate(41.46625 211.58) rotate(-90) scale(0.4 -0.4)">
      <defs>
       <path id="DejaVuSans-Oblique-6d" d="M 5747 2113 
L 5338 0 
L 4763 0 
L 5166 2094 
Q 5191 2228 5203 2325 
Q 5216 2422 5216 2491 
Q 5216 2772 5059 2928 
Q 4903 3084 4622 3084 
Q 4203 3084 3875 2770 
Q 3547 2456 3450 1953 
L 3066 0 
L 2491 0 
L 2900 2094 
Q 2925 2209 2937 2307 
Q 2950 2406 2950 2484 
Q 2950 2769 2794 2926 
Q 2638 3084 2363 3084 
Q 1938 3084 1609 2770 
Q 1281 2456 1184 1953 
L 800 0 
L 225 0 
L 909 3500 
L 1484 3500 
L 1375 2956 
Q 1609 3263 1923 3423 
Q 2238 3584 2597 3584 
Q 2978 3584 3223 3384 
Q 3469 3184 3519 2828 
Q 3781 3197 4126 3390 
Q 4472 3584 4856 3584 
Q 5306 3584 5551 3325 
Q 5797 3066 5797 2591 
Q 5797 2488 5784 2364 
Q 5772 2241 5747 2113 
z
" transform="scale(0.015625)"/>
       <path id="DejaVuSans-Oblique-74" d="M 2706 3500 
L 2619 3053 
L 1472 3053 
L 1100 1153 
Q 1081 1047 1072 975 
Q 1063 903 1063 863 
Q 1063 663 1183 572 
Q 1303 481 1569 481 
L 2150 481 
L 2053 0 
L 1503 0 
Q 991 0 739 200 
Q 488 400 488 806 
Q 488 878 497 964 
Q 506 1050 525 1153 
L 897 3053 
L 409 3053 
L 500 3500 
L 978 3500 
L 1172 4494 
L 1747 4494 
L 1556 3500 
L 2706 3500 
z
" transform="scale(0.015625)"/>
       <path id="DejaVuSans-Oblique-6f" d="M 1625 -91 
Q 1009 -91 651 289 
Q 294 669 294 1325 
Q 294 1706 417 2101 
Q 541 2497 738 2766 
Q 1047 3184 1428 3384 
Q 1809 3584 2291 3584 
Q 2888 3584 3255 3212 
Q 3622 2841 3622 2241 
Q 3622 1825 3500 1412 
Q 3378 1000 3181 728 
Q 2875 309 2494 109 
Q 2113 -91 1625 -91 
z
M 891 1344 
Q 891 869 1089 633 
Q 1288 397 1691 397 
Q 2269 397 2648 901 
Q 3028 1406 3028 2181 
Q 3028 2634 2825 2865 
Q 2622 3097 2228 3097 
Q 1903 3097 1650 2945 
Q 1397 2794 1197 2484 
Q 1050 2253 970 1956 
Q 891 1659 891 1344 
z
" transform="scale(0.015625)"/>
      </defs>
      <use xlink:href="#DejaVuSans-Oblique-6d"/>
      <use xlink:href="#DejaVuSans-Oblique-74" transform="translate(97.412109 -16.40625) scale(0.7)"/>
      <use xlink:href="#DejaVuSans-Oblique-6f" transform="translate(124.858398 -16.40625) scale(0.7)"/>
     </g>
    </g>
   </g>
   <g id="line2d_17">
    <path d="M 141.274091 134.110617 
L 144.87997 136.327833 
L 148.485848 136.045642 
L 152.091727 135.212506 
L 155.697606 136.999717 
L 159.303485 138.988492 
L 162.909364 140.265071 
L 166.515242 141.353522 
L 170.121121 146.580777 
L 173.727 145.263885 
L 177.332879 147.561727 
L 180.938758 147.843918 
L 184.544636 145.908893 
L 188.150515 147.212347 
L 191.756394 145.304198 
L 195.362273 147.158597 
L 198.968152 148.341112 
L 202.57403 149.658004 
L 206.179909 149.348937 
L 209.785788 149.335499 
L 213.391667 151.75428 
L 216.997545 153.205549 
L 224.209303 157.680294 
L 227.815182 160.099075 
L 231.421061 157.357789 
L 235.026939 159.507817 
L 238.632818 158.526867 
L 242.238697 159.400316 
L 249.450455 158.271551 
L 253.056333 160.018449 
L 256.662212 159.54813 
L 263.87397 165.78321 
L 267.479848 163.955686 
L 271.085727 167.758547 
L 274.691606 168.215428 
L 278.297485 167.530107 
L 281.903364 169.599509 
L 285.509242 168.873874 
L 289.115121 169.841387 
L 292.721 173.482996 
L 296.326879 175.686774 
L 299.932758 175.391145 
L 303.538636 178.508685 
L 307.144515 178.078679 
L 310.750394 180.161519 
L 314.356273 178.293682 
L 317.962152 180.134643 
L 321.56803 180.336208 
L 325.173909 181.42466 
L 328.779788 185.5769 
L 332.385667 185.630651 
L 335.991545 187.256609 
L 339.597424 188.748191 
L 343.203303 187.243172 
L 346.809182 187.700052 
L 350.415061 189.218509 
L 354.020939 192.631678 
L 357.626818 193.612628 
L 364.838576 199.041447 
L 368.444455 202.427741 
L 372.050333 201.406478 
L 375.656212 206.781546 
L 379.262091 207.923749 
L 382.86797 208.488131 
L 390.079727 214.991964 
L 393.685606 214.306643 
L 397.291485 217.074803 
L 400.897364 219.587648 
L 404.503242 224.640212 
L 408.109121 228.053381 
L 411.715 230.230284 
L 415.320879 233.159696 
L 418.926758 239.54259 
L 422.532636 237.674754 
L 426.138515 237.970383 
L 429.744394 238.38695 
L 433.350273 243.291701 
L 436.956152 242.43169 
L 440.56203 245.455166 
L 444.167909 246.731745 
L 447.773788 246.019548 
L 451.379667 249.419279 
L 454.985545 248.626456 
L 458.591424 248.505517 
L 462.197303 247.067686 
L 465.803182 250.642107 
L 469.409061 251.770872 
L 473.014939 254.055276 
L 476.620818 251.891811 
L 480.226697 253.517769 
L 483.832576 253.356517 
L 487.438455 255.654359 
L 491.044333 254.324029 
L 494.650212 252.496506 
L 498.256091 250.50773 
L 501.86197 246.261426 
L 505.467848 249.029587 
L 509.073727 251.475243 
L 512.679606 255.318417 
L 516.285485 257.817824 
L 519.891364 260.827862 
L 523.497242 262.8032 
L 527.103121 261.311619 
L 530.709 265.544485 
L 534.314879 260.478483 
L 537.920758 259.86035 
L 541.526636 262.709136 
L 545.132515 265.047291 
L 552.344273 261.59381 
L 555.950152 266.485122 
L 559.55603 267.089817 
L 563.161909 270.261108 
L 566.767788 270.543299 
L 570.373667 276.334936 
L 573.979545 277.987769 
L 577.585424 280.863431 
L 581.191303 288.092898 
L 584.797182 289.638231 
L 588.403061 290.256364 
L 592.008939 294.852047 
L 595.614818 295.402992 
L 599.220697 295.765809 
L 602.826576 297.539582 
L 606.432455 298.480219 
L 610.038333 300.818374 
L 613.644212 303.304343 
L 617.250091 306.300944 
L 620.85597 303.774661 
L 624.461848 303.075903 
L 628.067727 306.475634 
L 631.673606 308.262844 
L 635.279485 306.395007 
L 638.885364 305.091553 
L 642.491242 308.155342 
L 646.097121 306.690636 
L 649.703 308.061279 
L 653.308879 308.410658 
L 656.914758 312.119456 
L 660.520636 310.506935 
L 664.126515 313.086968 
L 667.732394 316.312009 
L 671.338273 313.637913 
L 674.944152 312.509148 
L 678.55003 306.408445 
L 682.155909 305.884376 
L 682.155909 305.884376 
" clip-path="url(#pf13286f9f2)" style="fill: none; stroke: #0000ff; stroke-width: 3; stroke-linecap: square"/>
   </g>
   <g id="line2d_18">
    <path d="M 141.274091 133.599986 
L 144.87997 133.653736 
L 148.485848 135.494697 
L 152.091727 139.257246 
L 155.697606 139.848503 
L 159.303485 138.719739 
L 162.909364 139.700689 
L 166.515242 139.861941 
L 170.121121 139.270683 
L 173.727 140.023193 
L 177.332879 141.54165 
L 180.938758 143.463237 
L 184.544636 145.11607 
L 188.150515 144.860755 
L 191.756394 148.771117 
L 195.362273 149.174247 
L 198.968152 151.767718 
L 202.57403 154.589629 
L 206.179909 154.320876 
L 209.785788 158.580618 
L 213.391667 156.699344 
L 216.997545 159.212188 
L 220.603424 160.972523 
L 224.209303 161.940036 
L 227.815182 164.587257 
L 231.421061 165.353204 
L 235.026939 171.762974 
L 238.632818 175.404583 
L 242.238697 177.783051 
L 245.844576 180.725901 
L 249.450455 184.972205 
L 256.662212 190.051645 
L 260.268091 190.723529 
L 263.87397 187.216296 
L 267.479848 190.736966 
L 271.085727 195.520777 
L 274.691606 194.486077 
L 278.297485 194.92952 
L 281.903364 193.747005 
L 285.509242 192.322612 
L 289.115121 194.445764 
L 292.721 192.309174 
L 296.326879 191.798542 
L 299.932758 190.857905 
L 303.538636 191.113221 
L 307.144515 192.645116 
L 310.750394 192.671991 
L 314.356273 197.388614 
L 317.962152 196.48829 
L 321.56803 191.731354 
L 325.173909 188.828817 
L 328.779788 192.268861 
L 332.385667 191.355099 
L 335.991545 190.978844 
L 339.597424 189.218509 
L 343.203303 192.658553 
L 350.415061 188.586939 
L 354.020939 192.067296 
L 357.626818 190.562277 
L 361.232697 190.871343 
L 364.838576 191.771667 
L 368.444455 191.23416 
L 372.050333 192.725742 
L 375.656212 195.843282 
L 379.262091 198.571129 
L 382.86797 200.18365 
L 386.473848 193.733567 
L 390.079727 188.86913 
L 393.685606 188.156933 
L 397.291485 186.047219 
L 400.897364 186.638476 
L 404.503242 186.826604 
L 408.109121 184.555637 
L 411.715 187.820991 
L 415.320879 181.411222 
L 418.926758 181.800915 
L 422.532636 182.849053 
L 426.138515 190.495088 
L 429.744394 190.401024 
L 433.350273 190.83103 
L 436.956152 199.175824 
L 440.56203 198.85332 
L 444.167909 200.425528 
L 447.773788 201.21835 
L 451.379667 195.023584 
L 454.985545 194.096384 
L 462.197303 199.861145 
L 465.803182 199.847708 
L 469.409061 196.582353 
L 473.014939 204.255264 
L 476.620818 203.234001 
L 480.226697 208.326879 
L 483.832576 208.165627 
L 487.438455 208.83751 
L 491.044333 205.303402 
L 494.650212 202.239613 
L 498.256091 203.113062 
L 505.467848 199.229575 
L 509.073727 195.399838 
L 512.679606 200.170212 
L 516.285485 196.837669 
L 519.891364 195.319212 
L 523.497242 200.049273 
L 527.103121 195.319212 
L 530.709 199.175824 
L 534.314879 196.031409 
L 537.920758 194.727955 
L 541.526636 191.744792 
L 545.132515 189.339448 
L 548.738394 192.201672 
L 552.344273 192.000107 
L 555.950152 193.881381 
L 559.55603 194.539827 
L 563.161909 197.307988 
L 566.767788 198.826445 
L 570.373667 196.434539 
L 573.979545 199.243013 
L 577.585424 199.874583 
L 581.191303 199.054885 
L 584.797182 198.544254 
L 588.403061 196.340475 
L 592.008939 195.211711 
L 595.614818 194.848894 
L 599.220697 195.816406 
L 602.826576 195.668592 
L 606.432455 193.747005 
L 610.038333 194.674204 
L 613.644212 191.731354 
L 617.250091 189.406637 
L 620.85597 194.889207 
L 624.461848 192.645116 
L 628.067727 190.575714 
L 631.673606 192.551052 
L 635.279485 191.435725 
L 638.885364 193.572315 
L 642.491242 192.56449 
L 646.097121 194.633891 
L 649.703 193.384188 
L 653.308879 193.182623 
L 656.914758 193.276686 
L 660.520636 195.856719 
L 664.126515 194.781705 
L 667.732394 193.921694 
L 671.338273 190.414462 
L 674.944152 187.88818 
L 678.55003 189.594764 
L 682.155909 184.824391 
L 682.155909 184.824391 
" clip-path="url(#pf13286f9f2)" style="fill: none; stroke: #008000; stroke-width: 3; stroke-linecap: square"/>
   </g>
   <g id="line2d_19">
    <path d="M 141.274091 44.80385 
L 144.87997 42.734449 
L 148.485848 43.258518 
L 152.091727 42.721011 
L 155.697606 43.607898 
L 159.303485 42.03569 
L 162.909364 44.024465 
L 166.515242 44.57541 
L 170.121121 41.215992 
L 173.727 41.336931 
L 177.332879 41.068178 
L 180.938758 38.609084 
L 184.544636 39.401906 
L 188.150515 39.280967 
L 191.756394 36.996563 
L 195.362273 37.53407 
L 198.968152 35.155602 
L 206.179909 36.741247 
L 209.785788 37.990951 
L 213.391667 34.24184 
L 216.997545 36.042488 
L 220.603424 37.641571 
L 224.209303 35.558732 
L 227.815182 34.913724 
L 235.026939 33.086201 
L 238.632818 31.849935 
L 242.238697 32.374004 
L 245.844576 32.374004 
L 249.450455 33.341516 
L 253.056333 33.502768 
L 256.662212 33.193702 
L 260.268091 35.693109 
L 263.87397 35.881236 
L 267.479848 34.107464 
L 271.085727 35.088414 
L 274.691606 33.919336 
L 278.297485 34.429968 
L 281.903364 34.282153 
L 285.509242 32.468068 
L 289.115121 32.414317 
L 292.721 31.083988 
L 296.326879 33.381829 
L 299.932758 33.153389 
L 303.538636 33.650583 
L 307.144515 33.26089 
L 310.750394 33.449018 
L 314.356273 34.214965 
L 317.962152 36.163427 
L 321.56803 35.276541 
L 325.173909 34.658408 
L 328.779788 35.249666 
L 335.991545 35.16904 
L 339.597424 34.833098 
L 343.203303 37.493757 
L 346.809182 35.451231 
L 350.415061 36.647184 
L 354.020939 38.877837 
L 357.626818 38.797211 
L 361.232697 37.681884 
L 364.838576 38.246267 
L 368.444455 36.808436 
L 372.050333 38.165641 
L 375.656212 35.22279 
L 379.262091 34.201527 
L 382.86797 33.637145 
L 386.473848 35.048101 
L 390.079727 34.550907 
L 393.685606 35.088414 
L 397.291485 34.980912 
L 400.897364 35.249666 
L 404.503242 36.875624 
L 408.109121 37.265317 
L 411.715 38.783773 
L 415.320879 40.490358 
L 418.926758 39.818474 
L 422.532636 39.67066 
L 426.138515 38.676272 
L 429.744394 40.114103 
L 433.350273 39.818474 
L 436.956152 41.444433 
L 440.56203 42.84195 
L 444.167909 40.866613 
L 447.773788 41.430995 
L 451.379667 39.684098 
L 454.985545 40.88005 
L 458.591424 38.004389 
L 462.197303 39.724411 
L 465.803182 37.198128 
L 469.409061 39.173466 
L 473.014939 36.741247 
L 476.620818 36.445619 
L 480.226697 37.655009 
L 483.832576 37.077189 
L 487.438455 37.829699 
L 491.044333 38.971901 
L 494.650212 39.119715 
L 498.256091 38.541895 
L 501.86197 37.345943 
L 509.073727 36.418743 
L 512.679606 36.714372 
L 516.285485 38.071577 
L 519.891364 37.668447 
L 527.103121 36.539682 
L 530.709 36.485932 
L 534.314879 37.238441 
L 537.920758 36.714372 
L 541.526636 35.289979 
L 545.132515 36.055926 
L 548.738394 33.341516 
L 552.344273 34.376217 
L 555.950152 36.055926 
L 559.55603 37.560945 
L 563.161909 37.601258 
L 566.767788 36.217178 
L 570.373667 36.915937 
L 573.979545 37.198128 
L 577.585424 35.115289 
L 581.191303 36.405306 
L 584.797182 37.077189 
L 588.403061 38.259704 
L 592.008939 37.829699 
L 595.614818 36.714372 
L 599.220697 37.345943 
L 602.826576 35.894674 
L 606.432455 37.775948 
L 610.038333 35.733422 
L 613.644212 34.833098 
L 617.250091 35.370605 
L 620.85597 35.424356 
L 624.461848 36.217178 
L 628.067727 36.808436 
L 631.673606 35.034663 
L 635.279485 36.069364 
L 642.491242 36.78156 
L 646.097121 35.612483 
L 649.703 37.144378 
L 653.308879 37.601258 
L 656.914758 37.695322 
L 660.520636 35.370605 
L 664.126515 33.986525 
L 667.732394 33.932774 
L 671.338273 33.449018 
L 674.944152 33.247453 
L 678.55003 32.024625 
L 682.155909 34.335904 
L 682.155909 34.335904 
" clip-path="url(#pf13286f9f2)" style="fill: none; stroke: #ff0000; stroke-width: 3; stroke-linecap: square"/>
   </g>
   <g id="line2d_20">
    <path d="M 141.274091 44.320094 
L 144.87997 44.333532 
L 148.485848 43.540709 
L 152.091727 45.018853 
L 155.697606 45.341357 
L 159.303485 44.360407 
L 162.909364 45.596673 
L 166.515242 44.185718 
L 170.121121 45.260731 
L 173.727 45.206981 
L 177.332879 43.809463 
L 180.938758 44.642598 
L 184.544636 42.626948 
L 188.150515 43.406333 
L 191.756394 42.183504 
L 195.362273 41.901313 
L 198.968152 43.607898 
L 202.57403 39.805037 
L 206.179909 41.672873 
L 209.785788 41.296618 
L 213.391667 41.766937 
L 216.997545 44.024465 
L 220.603424 42.479133 
L 224.209303 42.291006 
L 227.815182 41.780374 
L 231.421061 42.962889 
L 235.026939 42.076003 
L 238.632818 41.444433 
L 242.238697 42.223817 
L 245.844576 42.26413 
L 249.450455 43.473521 
L 253.056333 43.231643 
L 256.662212 44.561972 
L 260.268091 44.508222 
L 263.87397 45.744487 
L 267.479848 46.214806 
L 271.085727 45.650424 
L 274.691606 45.233856 
L 278.297485 44.548535 
L 281.903364 44.897914 
L 285.509242 42.7882 
L 289.115121 45.650424 
L 292.721 45.690737 
L 296.326879 45.274169 
L 299.932758 46.819501 
L 303.538636 46.94044 
L 307.144515 48.055767 
L 310.750394 46.927003 
L 314.356273 49.144218 
L 317.962152 48.485773 
L 321.56803 45.892302 
L 325.173909 46.953878 
L 328.779788 43.930402 
L 332.385667 43.392895 
L 335.991545 44.92479 
L 339.597424 45.73105 
L 343.203303 46.228244 
L 346.809182 45.851989 
L 350.415061 45.636986 
L 354.020939 45.663861 
L 357.626818 46.738875 
L 361.232697 45.932615 
L 368.444455 48.432022 
L 372.050333 48.808277 
L 375.656212 49.520473 
L 382.86797 49.520473 
L 386.473848 49.896728 
L 390.079727 48.660462 
L 393.685606 49.88329 
L 397.291485 51.321121 
L 400.897364 48.539523 
L 404.503242 51.03893 
L 408.109121 51.737689 
L 415.320879 51.643625 
L 418.926758 51.146432 
L 422.532636 50.487986 
L 426.138515 53.780215 
L 429.744394 55.083669 
L 433.350273 53.860841 
L 436.956152 55.4868 
L 440.56203 55.043356 
L 444.167909 53.390523 
L 447.773788 53.457711 
L 451.379667 53.914592 
L 454.985545 51.562999 
L 458.591424 51.737689 
L 462.197303 51.710814 
L 465.803182 52.557387 
L 469.409061 52.812703 
L 473.014939 54.075844 
L 476.620818 52.893329 
L 483.832576 55.338985 
L 487.438455 55.983993 
L 491.044333 55.795866 
L 494.650212 54.949293 
L 498.256091 56.131808 
L 501.86197 56.951506 
L 505.467848 59.491226 
L 509.073727 57.67714 
L 512.679606 57.287448 
L 516.285485 59.477788 
L 519.891364 58.308711 
L 523.497242 61.829381 
L 527.103121 61.520314 
L 530.709 61.762192 
L 534.314879 61.627816 
L 537.920758 60.122796 
L 541.526636 62.111572 
L 545.132515 59.773417 
L 548.738394 58.604339 
L 552.344273 57.878705 
L 555.950152 58.456525 
L 559.55603 60.243735 
L 563.161909 57.663702 
L 566.767788 58.590902 
L 570.373667 58.738716 
L 573.979545 59.289661 
L 581.191303 58.738716 
L 584.797182 60.996245 
L 588.403061 62.084696 
L 592.008939 64.758793 
L 595.614818 65.027547 
L 599.220697 64.731918 
L 602.826576 64.839419 
L 606.432455 63.50909 
L 610.038333 61.977195 
L 613.644212 63.670342 
L 617.250091 62.340012 
L 620.85597 63.777843 
L 624.461848 63.764405 
L 628.067727 62.259386 
L 631.673606 63.697217 
L 635.279485 65.766618 
L 638.885364 64.812544 
L 642.491242 66.465377 
L 646.097121 68.58853 
L 649.703 65.309738 
L 653.308879 66.787882 
L 656.914758 67.594142 
L 660.520636 67.956959 
L 664.126515 70.093549 
L 667.732394 67.903208 
L 671.338273 68.669156 
L 674.944152 71.114812 
L 678.55003 71.813571 
L 682.155909 72.1092 
L 682.155909 72.1092 
" clip-path="url(#pf13286f9f2)" style="fill: none; stroke: #ffa500; stroke-width: 3; stroke-linecap: square"/>
   </g>
   <g id="patch_3">
    <path d="M 114.23 343.96 
L 114.23 10.8 
" style="fill: none; stroke: #000000; stroke-width: 0.8; stroke-linejoin: miter; stroke-linecap: square"/>
   </g>
   <g id="patch_4">
    <path d="M 709.2 343.96 
L 709.2 10.8 
" style="fill: none; stroke: #000000; stroke-width: 0.8; stroke-linejoin: miter; stroke-linecap: square"/>
   </g>
   <g id="patch_5">
    <path d="M 114.23 343.96 
L 709.2 343.96 
" style="fill: none; stroke: #000000; stroke-width: 0.8; stroke-linejoin: miter; stroke-linecap: square"/>
   </g>
   <g id="patch_6">
    <path d="M 114.23 10.8 
L 709.2 10.8 
" style="fill: none; stroke: #000000; stroke-width: 0.8; stroke-linejoin: miter; stroke-linecap: square"/>
   </g>
  </g>
 </g>
 <defs>
  <clipPath id="pf13286f9f2">
   <rect x="114.23" y="10.8" width="594.97" height="333.16"/>
  </clipPath>
 </defs>
</svg>
