<?xml version="1.0" encoding="utf-8" standalone="no"?>
<!DOCTYPE svg PUBLIC "-//W3C//DTD SVG 1.1//EN"
  "http://www.w3.org/Graphics/SVG/1.1/DTD/svg11.dtd">
<svg xmlns:xlink="http://www.w3.org/1999/xlink" width="864pt" height="432pt" viewBox="0 0 864 432" xmlns="http://www.w3.org/2000/svg" version="1.1">
 <metadata>
  <rdf:RDF xmlns:dc="http://purl.org/dc/elements/1.1/" xmlns:cc="http://creativecommons.org/ns#" xmlns:rdf="http://www.w3.org/1999/02/22-rdf-syntax-ns#">
   <cc:Work>
    <dc:type rdf:resource="http://purl.org/dc/dcmitype/StillImage"/>
    <dc:date>2025-06-20T06:39:58.890484</dc:date>
    <dc:format>image/svg+xml</dc:format>
    <dc:creator>
     <cc:Agent>
      <dc:title>Matplotlib v3.7.1, https://matplotlib.org/</dc:title>
     </cc:Agent>
    </dc:creator>
   </cc:Work>
  </rdf:RDF>
 </metadata>
 <defs>
  <style type="text/css">*{stroke-linejoin: round; stroke-linecap: butt}</style>
 </defs>
 <g id="figure_1">
  <g id="patch_1">
   <path d="M 0 432 
L 864 432 
L 864 0 
L 0 0 
z
" style="fill: #ffffff"/>
  </g>
  <g id="axes_1">
   <g id="patch_2">
    <path d="M 110 354.76 
L 835.093351 354.76 
L 835.093351 10.984769 
L 110 10.984769 
z
" style="fill: #ffffff"/>
   </g>
   <g id="PolyCollection_1">
    <defs>
     <path id="m6f2ed2bfc7" d="M 142.958789 -132.893468 
L 142.958789 -132.893468 
L 145.255568 -132.893468 
L 147.552348 -132.893468 
L 149.849128 -132.893468 
L 152.145907 -132.893468 
L 154.442687 -132.893468 
L 156.739467 -132.893468 
L 159.036247 -132.893468 
L 161.333026 -132.893468 
L 163.629806 -132.893468 
L 165.926586 -132.893468 
L 168.223365 -132.893468 
L 170.520145 -132.893468 
L 172.816925 -132.893468 
L 175.113704 -132.893468 
L 177.410484 -132.893468 
L 179.707264 -132.893468 
L 182.004044 -132.893468 
L 184.300823 -132.893468 
L 186.597603 -132.893468 
L 188.894383 -132.893468 
L 191.191162 -132.893468 
L 193.487942 -132.893468 
L 195.784722 -132.893468 
L 198.081501 -132.893468 
L 200.378281 -132.893468 
L 202.675061 -132.893468 
L 204.971841 -132.893468 
L 207.26862 -132.893468 
L 209.5654 -132.893468 
L 211.86218 -132.893468 
L 214.158959 -132.893468 
L 216.455739 -132.893468 
L 218.752519 -132.893468 
L 221.049298 -132.893468 
L 223.346078 -132.893468 
L 225.642858 -132.893468 
L 227.939638 -132.893468 
L 230.236417 -132.893468 
L 232.533197 -132.893468 
L 234.829977 -132.893468 
L 237.126756 -132.893468 
L 239.423536 -132.893468 
L 241.720316 -132.893468 
L 244.017095 -132.893468 
L 246.313875 -132.893468 
L 248.610655 -132.893468 
L 250.907435 -132.893468 
L 253.204214 -132.893468 
L 255.500994 -132.893468 
L 257.797774 -132.893468 
L 260.094553 -132.893468 
L 262.391333 -132.893468 
L 264.688113 -132.893468 
L 266.984892 -132.893468 
L 269.281672 -132.893468 
L 271.578452 -132.893468 
L 273.875232 -132.893468 
L 276.172011 -132.893468 
L 278.468791 -132.893468 
L 280.765571 -132.893468 
L 283.06235 -132.893468 
L 285.35913 -132.893468 
L 287.65591 -132.893468 
L 289.952689 -132.893468 
L 292.249469 -132.893468 
L 294.546249 -132.893468 
L 296.843029 -132.893468 
L 299.139808 -132.893468 
L 301.436588 -132.893468 
L 303.733368 -132.893468 
L 306.030147 -132.893468 
L 308.326927 -132.893468 
L 310.623707 -132.893468 
L 312.920486 -132.893468 
L 315.217266 -132.893468 
L 317.514046 -132.893468 
L 319.810826 -132.893468 
L 322.107605 -132.893468 
L 324.404385 -132.893468 
L 326.701165 -132.893468 
L 328.997944 -132.893468 
L 331.294724 -132.893468 
L 333.591504 -132.893468 
L 335.888283 -132.893468 
L 338.185063 -132.893468 
L 340.481843 -132.893468 
L 342.778623 -132.893468 
L 345.075402 -132.893468 
L 347.372182 -132.893468 
L 349.668962 -132.893468 
L 351.965741 -132.893468 
L 354.262521 -132.893468 
L 356.559301 -132.893468 
L 358.85608 -132.893468 
L 361.15286 -132.893468 
L 363.44964 -132.893468 
L 365.74642 -132.893468 
L 368.043199 -132.893468 
L 370.339979 -132.893468 
L 372.636759 -132.893468 
L 374.933538 -132.893468 
L 377.230318 -132.893468 
L 379.527098 -132.893468 
L 381.823877 -132.893468 
L 384.120657 -132.893468 
L 386.417437 -132.893468 
L 388.714217 -132.893468 
L 391.010996 -132.893468 
L 393.307776 -132.893468 
L 395.604556 -132.893468 
L 397.901335 -132.893468 
L 400.198115 -132.893468 
L 402.494895 -132.816626 
L 404.791674 -132.739785 
L 407.088454 -132.941393 
L 409.385234 -133.09772 
L 411.682014 -133.23399 
L 413.978793 -133.360342 
L 416.275573 -133.338264 
L 418.572353 -133.301972 
L 420.869132 -133.256076 
L 423.165912 -133.203489 
L 425.462692 -133.146101 
L 427.759471 -133.08517 
L 430.056251 -133.021562 
L 432.353031 -132.955888 
L 434.649811 -132.888589 
L 436.94659 -132.81999 
L 439.24337 -132.750338 
L 441.54015 -132.750338 
L 443.836929 -132.750338 
L 446.133709 -132.750338 
L 448.430489 -132.750338 
L 450.727268 -132.750338 
L 453.024048 -132.750338 
L 455.320828 -132.750338 
L 457.617608 -132.750338 
L 459.914387 -132.750338 
L 462.211167 -132.750338 
L 464.507947 -132.750338 
L 466.804726 -132.750338 
L 469.101506 -132.750338 
L 471.398286 -132.750338 
L 473.695065 -132.750338 
L 475.991845 -132.750338 
L 478.288625 -132.750338 
L 480.585405 -132.750338 
L 482.882184 -132.750338 
L 485.178964 -132.750338 
L 487.475744 -132.750338 
L 489.772523 -132.750338 
L 492.069303 -132.750338 
L 494.366083 -132.750338 
L 496.662862 -132.750338 
L 498.959642 -132.750338 
L 501.256422 -132.750338 
L 503.553202 -132.750338 
L 505.849981 -132.750338 
L 508.146761 -132.750338 
L 510.443541 -132.750338 
L 512.74032 -132.750338 
L 515.0371 -132.750338 
L 517.33388 -132.750338 
L 519.630659 -132.750338 
L 521.927439 -132.750338 
L 524.224219 -132.750338 
L 526.520999 -132.750338 
L 528.817778 -132.750338 
L 531.114558 -132.750338 
L 533.411338 -132.750338 
L 535.708117 -132.750338 
L 538.004897 -132.750338 
L 540.301677 -132.750338 
L 542.598456 -132.750338 
L 544.895236 -132.750338 
L 547.192016 -132.750338 
L 549.488796 -132.750338 
L 551.785575 -132.750338 
L 554.082355 -132.750338 
L 556.379135 -132.750338 
L 558.675914 -132.750338 
L 560.972694 -132.750338 
L 563.269474 -132.750338 
L 565.566253 -132.750338 
L 567.863033 -132.750338 
L 570.159813 -132.750338 
L 572.456593 -132.750338 
L 574.753372 -132.750338 
L 577.050152 -132.750338 
L 579.346932 -132.750338 
L 581.643711 -132.750338 
L 583.940491 -132.750338 
L 586.237271 -132.750338 
L 588.53405 -132.750338 
L 590.83083 -132.750338 
L 593.12761 -132.750338 
L 595.42439 -132.750338 
L 597.721169 -132.750338 
L 600.017949 -132.750338 
L 602.314729 -132.750338 
L 604.611508 -132.750338 
L 606.908288 -132.750338 
L 609.205068 -132.750338 
L 611.501847 -132.750338 
L 613.798627 -132.750338 
L 616.095407 -132.750338 
L 618.392187 -132.750338 
L 620.688966 -132.750338 
L 622.985746 -132.750338 
L 625.282526 -132.750338 
L 627.579305 -132.750338 
L 629.876085 -132.750338 
L 632.172865 -132.750338 
L 634.469644 -132.750338 
L 636.766424 -132.750338 
L 639.063204 -132.750338 
L 641.359984 -132.750338 
L 643.656763 -132.750338 
L 645.953543 -132.750338 
L 648.250323 -132.750338 
L 650.547102 -132.750338 
L 652.843882 -132.750338 
L 655.140662 -132.750338 
L 657.437441 -132.750338 
L 659.734221 -132.750338 
L 662.031001 -132.750338 
L 664.327781 -132.750338 
L 666.62456 -132.750338 
L 668.92134 -132.750338 
L 671.21812 -132.750338 
L 673.514899 -132.750338 
L 675.811679 -132.750338 
L 678.108459 -132.750338 
L 680.405238 -132.750338 
L 682.702018 -132.750338 
L 684.998798 -132.750338 
L 687.295578 -132.750338 
L 689.592357 -132.750338 
L 691.889137 -132.750338 
L 694.185917 -132.750338 
L 696.482696 -132.750338 
L 698.779476 -132.750338 
L 701.076256 -132.750338 
L 703.373035 -132.750338 
L 705.669815 -132.750338 
L 707.966595 -132.750338 
L 710.263375 -132.750338 
L 712.560154 -132.750338 
L 714.856934 -132.750338 
L 717.153714 -132.750338 
L 719.450493 -132.750338 
L 721.747273 -132.750338 
L 724.044053 -132.750338 
L 726.340832 -132.750338 
L 728.637612 -132.750338 
L 730.934392 -132.750338 
L 733.231172 -132.750338 
L 735.527951 -132.750338 
L 737.824731 -132.750338 
L 740.121511 -132.750338 
L 742.41829 -132.750338 
L 744.71507 -132.750338 
L 747.01185 -132.750338 
L 749.308629 -132.750338 
L 751.605409 -132.750338 
L 753.902189 -132.750338 
L 756.198969 -132.750338 
L 758.495748 -132.750338 
L 760.792528 -132.750338 
L 763.089308 -132.750338 
L 765.386087 -132.750338 
L 767.682867 -132.750338 
L 769.979647 -132.750338 
L 772.276426 -132.750338 
L 774.573206 -132.750338 
L 776.869986 -132.750338 
L 779.166766 -132.750338 
L 781.463545 -132.750338 
L 783.760325 -132.750338 
L 786.057105 -132.750338 
L 788.353884 -132.750338 
L 790.650664 -132.750338 
L 792.947444 -132.750338 
L 795.244223 -132.750338 
L 797.541003 -132.750338 
L 799.837783 -132.750338 
L 802.134563 -132.750338 
L 802.134563 -140.828083 
L 802.134563 -140.828083 
L 799.837783 -140.828083 
L 797.541003 -140.828083 
L 795.244223 -140.828083 
L 792.947444 -140.828083 
L 790.650664 -140.828083 
L 788.353884 -140.828083 
L 786.057105 -140.828083 
L 783.760325 -140.828083 
L 781.463545 -140.828083 
L 779.166766 -140.828083 
L 776.869986 -140.828083 
L 774.573206 -140.828083 
L 772.276426 -140.828083 
L 769.979647 -140.828083 
L 767.682867 -140.828083 
L 765.386087 -140.828083 
L 763.089308 -140.828083 
L 760.792528 -140.828083 
L 758.495748 -140.828083 
L 756.198969 -140.828083 
L 753.902189 -140.828083 
L 751.605409 -140.828083 
L 749.308629 -140.828083 
L 747.01185 -140.828083 
L 744.71507 -140.828083 
L 742.41829 -140.828083 
L 740.121511 -140.828083 
L 737.824731 -140.828083 
L 735.527951 -140.828083 
L 733.231172 -140.828083 
L 730.934392 -140.828083 
L 728.637612 -140.828083 
L 726.340832 -140.828083 
L 724.044053 -140.828083 
L 721.747273 -140.828083 
L 719.450493 -140.828083 
L 717.153714 -140.828083 
L 714.856934 -140.828083 
L 712.560154 -140.828083 
L 710.263375 -140.828083 
L 707.966595 -140.828083 
L 705.669815 -140.828083 
L 703.373035 -140.828083 
L 701.076256 -140.828083 
L 698.779476 -140.828083 
L 696.482696 -140.828083 
L 694.185917 -140.828083 
L 691.889137 -140.828083 
L 689.592357 -140.828083 
L 687.295578 -140.828083 
L 684.998798 -140.828083 
L 682.702018 -140.828083 
L 680.405238 -140.828083 
L 678.108459 -140.828083 
L 675.811679 -140.828083 
L 673.514899 -140.828083 
L 671.21812 -140.828083 
L 668.92134 -140.828083 
L 666.62456 -140.828083 
L 664.327781 -140.828083 
L 662.031001 -140.828083 
L 659.734221 -140.828083 
L 657.437441 -140.828083 
L 655.140662 -140.828083 
L 652.843882 -140.828083 
L 650.547102 -140.828083 
L 648.250323 -140.828083 
L 645.953543 -140.828083 
L 643.656763 -140.828083 
L 641.359984 -140.828083 
L 639.063204 -140.828083 
L 636.766424 -140.828083 
L 634.469644 -140.828083 
L 632.172865 -140.828083 
L 629.876085 -140.828083 
L 627.579305 -140.828083 
L 625.282526 -140.828083 
L 622.985746 -140.828083 
L 620.688966 -140.828083 
L 618.392187 -140.828083 
L 616.095407 -140.828083 
L 613.798627 -140.828083 
L 611.501847 -140.828083 
L 609.205068 -140.828083 
L 606.908288 -140.828083 
L 604.611508 -140.828083 
L 602.314729 -140.828083 
L 600.017949 -140.828083 
L 597.721169 -140.828083 
L 595.42439 -140.828083 
L 593.12761 -140.828083 
L 590.83083 -140.828083 
L 588.53405 -140.828083 
L 586.237271 -140.828083 
L 583.940491 -140.828083 
L 581.643711 -140.828083 
L 579.346932 -140.828083 
L 577.050152 -140.828083 
L 574.753372 -140.828083 
L 572.456593 -140.828083 
L 570.159813 -140.828083 
L 567.863033 -140.828083 
L 565.566253 -140.828083 
L 563.269474 -140.828083 
L 560.972694 -140.828083 
L 558.675914 -140.828083 
L 556.379135 -140.828083 
L 554.082355 -140.828083 
L 551.785575 -140.828083 
L 549.488796 -140.828083 
L 547.192016 -140.828083 
L 544.895236 -140.828083 
L 542.598456 -140.828083 
L 540.301677 -140.828083 
L 538.004897 -140.828083 
L 535.708117 -140.828083 
L 533.411338 -140.828083 
L 531.114558 -140.828083 
L 528.817778 -140.828083 
L 526.520999 -140.828083 
L 524.224219 -140.828083 
L 521.927439 -140.828083 
L 519.630659 -140.828083 
L 517.33388 -140.828083 
L 515.0371 -140.828083 
L 512.74032 -140.828083 
L 510.443541 -140.828083 
L 508.146761 -140.828083 
L 505.849981 -140.828083 
L 503.553202 -140.828083 
L 501.256422 -140.828083 
L 498.959642 -140.828083 
L 496.662862 -140.828083 
L 494.366083 -140.828083 
L 492.069303 -140.828083 
L 489.772523 -140.828083 
L 487.475744 -140.828083 
L 485.178964 -140.828083 
L 482.882184 -140.828083 
L 480.585405 -140.828083 
L 478.288625 -140.828083 
L 475.991845 -140.828083 
L 473.695065 -140.828083 
L 471.398286 -140.828083 
L 469.101506 -140.828083 
L 466.804726 -140.828083 
L 464.507947 -140.828083 
L 462.211167 -140.828083 
L 459.914387 -140.828083 
L 457.617608 -140.828083 
L 455.320828 -140.828083 
L 453.024048 -140.828083 
L 450.727268 -140.828083 
L 448.430489 -140.828083 
L 446.133709 -140.828083 
L 443.836929 -140.828083 
L 441.54015 -140.828083 
L 439.24337 -140.828083 
L 436.94659 -140.387407 
L 434.649811 -139.947785 
L 432.353031 -139.509463 
L 430.056251 -139.072766 
L 427.759471 -138.638135 
L 425.462692 -138.206181 
L 423.165912 -137.777769 
L 420.869132 -137.35416 
L 418.572353 -136.937241 
L 416.275573 -136.529925 
L 413.978793 -136.136824 
L 411.682014 -135.52113 
L 409.385234 -134.915354 
L 407.088454 -134.329634 
L 404.791674 -133.789197 
L 402.494895 -133.341332 
L 400.198115 -132.893468 
L 397.901335 -132.893468 
L 395.604556 -132.893468 
L 393.307776 -132.893468 
L 391.010996 -132.893468 
L 388.714217 -132.893468 
L 386.417437 -132.893468 
L 384.120657 -132.893468 
L 381.823877 -132.893468 
L 379.527098 -132.893468 
L 377.230318 -132.893468 
L 374.933538 -132.893468 
L 372.636759 -132.893468 
L 370.339979 -132.893468 
L 368.043199 -132.893468 
L 365.74642 -132.893468 
L 363.44964 -132.893468 
L 361.15286 -132.893468 
L 358.85608 -132.893468 
L 356.559301 -132.893468 
L 354.262521 -132.893468 
L 351.965741 -132.893468 
L 349.668962 -132.893468 
L 347.372182 -132.893468 
L 345.075402 -132.893468 
L 342.778623 -132.893468 
L 340.481843 -132.893468 
L 338.185063 -132.893468 
L 335.888283 -132.893468 
L 333.591504 -132.893468 
L 331.294724 -132.893468 
L 328.997944 -132.893468 
L 326.701165 -132.893468 
L 324.404385 -132.893468 
L 322.107605 -132.893468 
L 319.810826 -132.893468 
L 317.514046 -132.893468 
L 315.217266 -132.893468 
L 312.920486 -132.893468 
L 310.623707 -132.893468 
L 308.326927 -132.893468 
L 306.030147 -132.893468 
L 303.733368 -132.893468 
L 301.436588 -132.893468 
L 299.139808 -132.893468 
L 296.843029 -132.893468 
L 294.546249 -132.893468 
L 292.249469 -132.893468 
L 289.952689 -132.893468 
L 287.65591 -132.893468 
L 285.35913 -132.893468 
L 283.06235 -132.893468 
L 280.765571 -132.893468 
L 278.468791 -132.893468 
L 276.172011 -132.893468 
L 273.875232 -132.893468 
L 271.578452 -132.893468 
L 269.281672 -132.893468 
L 266.984892 -132.893468 
L 264.688113 -132.893468 
L 262.391333 -132.893468 
L 260.094553 -132.893468 
L 257.797774 -132.893468 
L 255.500994 -132.893468 
L 253.204214 -132.893468 
L 250.907435 -132.893468 
L 248.610655 -132.893468 
L 246.313875 -132.893468 
L 244.017095 -132.893468 
L 241.720316 -132.893468 
L 239.423536 -132.893468 
L 237.126756 -132.893468 
L 234.829977 -132.893468 
L 232.533197 -132.893468 
L 230.236417 -132.893468 
L 227.939638 -132.893468 
L 225.642858 -132.893468 
L 223.346078 -132.893468 
L 221.049298 -132.893468 
L 218.752519 -132.893468 
L 216.455739 -132.893468 
L 214.158959 -132.893468 
L 211.86218 -132.893468 
L 209.5654 -132.893468 
L 207.26862 -132.893468 
L 204.971841 -132.893468 
L 202.675061 -132.893468 
L 200.378281 -132.893468 
L 198.081501 -132.893468 
L 195.784722 -132.893468 
L 193.487942 -132.893468 
L 191.191162 -132.893468 
L 188.894383 -132.893468 
L 186.597603 -132.893468 
L 184.300823 -132.893468 
L 182.004044 -132.893468 
L 179.707264 -132.893468 
L 177.410484 -132.893468 
L 175.113704 -132.893468 
L 172.816925 -132.893468 
L 170.520145 -132.893468 
L 168.223365 -132.893468 
L 165.926586 -132.893468 
L 163.629806 -132.893468 
L 161.333026 -132.893468 
L 159.036247 -132.893468 
L 156.739467 -132.893468 
L 154.442687 -132.893468 
L 152.145907 -132.893468 
L 149.849128 -132.893468 
L 147.552348 -132.893468 
L 145.255568 -132.893468 
L 142.958789 -132.893468 
z
" style="stroke: #0000ff; stroke-opacity: 0.3"/>
    </defs>
    <g clip-path="url(#p4ae00cf1ef)">
     <use xlink:href="#m6f2ed2bfc7" x="0" y="432" style="fill: #0000ff; fill-opacity: 0.3; stroke: #0000ff; stroke-opacity: 0.3"/>
    </g>
   </g>
   <g id="PolyCollection_2">
    <defs>
     <path id="m50d47c31e5" d="M 142.958789 -132.893468 
L 142.958789 -132.893468 
L 145.255568 -132.893468 
L 147.552348 -132.893468 
L 149.849128 -132.893468 
L 152.145907 -132.893468 
L 154.442687 -132.893468 
L 156.739467 -132.893468 
L 159.036247 -132.893468 
L 161.333026 -132.893468 
L 163.629806 -132.893468 
L 165.926586 -132.893468 
L 168.223365 -132.893468 
L 170.520145 -132.893468 
L 172.816925 -132.893468 
L 175.113704 -132.893468 
L 177.410484 -132.893468 
L 179.707264 -132.893468 
L 182.004044 -132.893468 
L 184.300823 -132.893468 
L 186.597603 -132.893468 
L 188.894383 -132.893468 
L 191.191162 -132.893468 
L 193.487942 -132.893468 
L 195.784722 -132.893468 
L 198.081501 -132.893468 
L 200.378281 -132.893468 
L 202.675061 -132.893468 
L 204.971841 -132.893468 
L 207.26862 -132.893468 
L 209.5654 -132.893468 
L 211.86218 -132.893468 
L 214.158959 -132.893468 
L 216.455739 -132.893468 
L 218.752519 -132.893468 
L 221.049298 -132.893468 
L 223.346078 -132.893468 
L 225.642858 -132.893468 
L 227.939638 -132.893468 
L 230.236417 -132.893468 
L 232.533197 -132.893468 
L 234.829977 -132.893468 
L 237.126756 -132.893468 
L 239.423536 -132.893468 
L 241.720316 -132.893468 
L 244.017095 -132.893468 
L 246.313875 -132.893468 
L 248.610655 -132.893468 
L 250.907435 -132.893468 
L 253.204214 -132.893468 
L 255.500994 -132.893468 
L 257.797774 -132.893468 
L 260.094553 -132.893468 
L 262.391333 -132.893468 
L 264.688113 -132.893468 
L 266.984892 -132.893468 
L 269.281672 -132.893468 
L 271.578452 -132.893468 
L 273.875232 -132.893468 
L 276.172011 -132.893468 
L 278.468791 -132.893468 
L 280.765571 -132.893468 
L 283.06235 -132.893468 
L 285.35913 -132.893468 
L 287.65591 -132.893468 
L 289.952689 -132.893468 
L 292.249469 -132.893468 
L 294.546249 -132.893468 
L 296.843029 -132.893468 
L 299.139808 -132.893468 
L 301.436588 -132.893468 
L 303.733368 -132.893468 
L 306.030147 -132.893468 
L 308.326927 -132.893468 
L 310.623707 -132.893468 
L 312.920486 -132.893468 
L 315.217266 -132.893468 
L 317.514046 -132.893468 
L 319.810826 -132.893468 
L 322.107605 -132.893468 
L 324.404385 -132.893468 
L 326.701165 -132.893468 
L 328.997944 -132.893468 
L 331.294724 -132.893468 
L 333.591504 -132.893468 
L 335.888283 -132.893468 
L 338.185063 -132.893468 
L 340.481843 -132.893468 
L 342.778623 -132.893468 
L 345.075402 -132.893468 
L 347.372182 -132.893468 
L 349.668962 -132.893468 
L 351.965741 -132.893468 
L 354.262521 -132.893468 
L 356.559301 -132.893468 
L 358.85608 -132.893468 
L 361.15286 -132.893468 
L 363.44964 -132.893468 
L 365.74642 -132.893468 
L 368.043199 -132.893468 
L 370.339979 -132.816626 
L 372.636759 -132.739785 
L 374.933538 -132.662943 
L 377.230318 -132.586102 
L 379.527098 -132.586102 
L 381.823877 -132.586102 
L 384.120657 -132.586102 
L 386.417437 -132.586102 
L 388.714217 -132.586102 
L 391.010996 -132.586102 
L 393.307776 -132.586102 
L 395.604556 -132.586102 
L 397.901335 -132.586102 
L 400.198115 -132.586102 
L 402.494895 -132.586102 
L 404.791674 -132.586102 
L 407.088454 -132.586102 
L 409.385234 -132.586102 
L 411.682014 -132.586102 
L 413.978793 -132.586102 
L 416.275573 -132.586102 
L 418.572353 -132.586102 
L 420.869132 -132.586102 
L 423.165912 -132.586102 
L 425.462692 -132.586102 
L 427.759471 -132.586102 
L 430.056251 -132.586102 
L 432.353031 -132.586102 
L 434.649811 -132.586102 
L 436.94659 -132.586102 
L 439.24337 -132.586102 
L 441.54015 -132.586102 
L 443.836929 -132.586102 
L 446.133709 -132.586102 
L 448.430489 -132.586102 
L 450.727268 -132.586102 
L 453.024048 -132.875098 
L 455.320828 -132.875098 
L 457.617608 -132.875098 
L 459.914387 -132.875098 
L 462.211167 -133.09772 
L 464.507947 -133.246121 
L 466.804726 -133.328148 
L 469.101506 -133.328148 
L 471.398286 -133.328148 
L 473.695065 -133.328148 
L 475.991845 -133.328148 
L 478.288625 -133.328148 
L 480.585405 -133.776013 
L 482.882184 -134.223877 
L 485.178964 -134.671742 
L 487.475744 -134.671742 
L 489.772523 -135.119606 
L 492.069303 -135.042765 
L 494.366083 -135.221732 
L 496.662862 -135.353043 
L 498.959642 -135.47226 
L 501.256422 -135.586958 
L 503.553202 -135.699514 
L 505.849981 -135.810893 
L 508.146761 -135.921558 
L 510.443541 -136.031758 
L 512.74032 -136.141638 
L 515.0371 -136.251289 
L 517.33388 -136.36077 
L 519.630659 -136.470122 
L 521.927439 -136.579373 
L 524.224219 -136.688545 
L 526.520999 -136.797651 
L 528.817778 -136.906705 
L 531.114558 -137.46324 
L 533.411338 -138.019775 
L 535.708117 -138.576309 
L 538.004897 -139.132844 
L 540.301677 -139.689379 
L 542.598456 -140.245913 
L 544.895236 -140.802448 
L 547.192016 -141.358983 
L 549.488796 -141.915517 
L 551.785575 -142.532346 
L 554.082355 -143.137597 
L 556.379135 -143.732273 
L 558.675914 -144.317327 
L 560.972694 -144.893654 
L 563.269474 -145.462081 
L 565.566253 -146.023367 
L 567.863033 -146.578204 
L 570.159813 -147.127214 
L 572.456593 -147.670961 
L 574.753372 -148.20995 
L 577.050152 -148.744632 
L 579.346932 -149.275411 
L 581.643711 -149.802651 
L 583.940491 -150.326674 
L 586.237271 -150.847769 
L 588.53405 -151.366195 
L 590.83083 -152.063243 
L 593.12761 -152.791943 
L 595.42439 -153.314853 
L 597.721169 -153.79671 
L 600.017949 -154.455423 
L 602.314729 -155.114131 
L 604.611508 -155.772835 
L 606.908288 -156.431535 
L 609.205068 -157.090231 
L 611.501847 -157.748925 
L 613.798627 -158.407616 
L 616.095407 -159.066305 
L 618.392187 -159.724991 
L 620.688966 -160.383676 
L 622.985746 -161.042359 
L 625.282526 -161.701041 
L 627.579305 -162.359721 
L 629.876085 -163.018401 
L 632.172865 -163.677079 
L 634.469644 -164.37577 
L 636.766424 -165.073412 
L 639.063204 -165.770051 
L 641.359984 -166.46573 
L 643.656763 -167.160488 
L 645.953543 -167.854366 
L 648.250323 -168.5474 
L 650.547102 -169.239624 
L 652.843882 -169.931071 
L 655.140662 -170.783775 
L 657.437441 -171.415624 
L 659.734221 -172.045502 
L 662.031001 -172.839802 
L 664.327781 -173.633807 
L 666.62456 -174.427545 
L 668.92134 -175.614308 
L 671.21812 -176.40844 
L 673.514899 -177.594274 
L 675.811679 -178.778678 
L 678.108459 -179.96177 
L 680.405238 -181.143656 
L 682.702018 -181.905648 
L 684.998798 -182.667558 
L 687.295578 -183.429395 
L 689.592357 -184.191166 
L 691.889137 -185.370939 
L 694.185917 -186.549854 
L 696.482696 -187.904511 
L 698.779476 -189.258809 
L 701.076256 -191.030931 
L 703.373035 -192.803041 
L 705.669815 -194.575141 
L 707.966595 -196.310605 
L 710.263375 -198.045349 
L 712.560154 -199.779414 
L 714.856934 -201.512839 
L 717.153714 -203.24566 
L 719.450493 -204.977911 
L 721.747273 -206.525947 
L 724.044053 -208.069801 
L 726.340832 -209.609692 
L 728.637612 -211.337431 
L 730.934392 -213.064821 
L 733.231172 -214.791878 
L 735.527951 -216.518619 
L 737.824731 -218.24506 
L 740.121511 -219.56281 
L 742.41829 -220.880542 
L 744.71507 -222.819447 
L 747.01185 -224.346864 
L 749.308629 -226.325087 
L 751.605409 -228.045939 
L 753.902189 -229.962968 
L 756.198969 -231.874954 
L 758.495748 -233.782054 
L 760.792528 -235.739549 
L 763.089308 -237.694249 
L 765.386087 -239.864476 
L 767.682867 -241.815666 
L 769.979647 -243.984922 
L 772.276426 -246.153973 
L 774.573206 -248.543245 
L 776.869986 -251.150212 
L 779.166766 -253.753641 
L 781.463545 -256.353569 
L 783.760325 -258.738371 
L 786.057105 -261.521045 
L 788.353884 -263.905375 
L 790.650664 -266.634344 
L 792.947444 -269.417018 
L 795.244223 -272.199691 
L 797.541003 -274.769586 
L 799.837783 -277.283109 
L 802.134563 -279.849776 
L 802.134563 -381.447802 
L 802.134563 -381.447802 
L 799.837783 -378.820145 
L 797.541003 -375.768321 
L 795.244223 -373.143892 
L 792.947444 -370.361219 
L 790.650664 -367.578546 
L 788.353884 -364.371145 
L 786.057105 -361.561152 
L 783.760325 -358.778478 
L 781.463545 -355.968957 
L 779.166766 -353.003538 
L 776.869986 -350.04162 
L 774.573206 -347.083241 
L 772.276426 -344.278189 
L 769.979647 -341.62394 
L 767.682867 -338.969895 
L 765.386087 -336.468808 
L 763.089308 -333.815734 
L 760.792528 -331.318157 
L 758.495748 -328.823375 
L 756.198969 -325.907174 
L 753.902189 -322.995859 
L 751.605409 -320.089588 
L 749.308629 -317.358162 
L 747.01185 -314.884108 
L 744.71507 -311.959247 
L 742.41829 -309.074852 
L 740.121511 -305.940307 
L 737.824731 -302.805779 
L 735.527951 -299.708919 
L 733.231172 -296.61236 
L 730.934392 -293.516117 
L 728.637612 -290.420206 
L 726.340832 -287.324645 
L 724.044053 -284.412259 
L 721.747273 -281.503835 
L 719.450493 -278.599593 
L 717.153714 -275.508544 
L 714.856934 -272.418065 
L 712.560154 -269.328189 
L 710.263375 -266.238954 
L 707.966595 -263.150397 
L 705.669815 -260.06256 
L 703.373035 -257.382383 
L 701.076256 -254.702216 
L 698.779476 -252.02206 
L 696.482696 -249.295104 
L 694.185917 -246.568506 
L 691.889137 -244.037191 
L 689.592357 -241.506732 
L 687.295578 -238.929295 
L 684.998798 -236.351924 
L 682.702018 -233.774626 
L 680.405238 -231.197411 
L 678.108459 -228.669065 
L 675.811679 -226.141926 
L 673.514899 -223.616099 
L 671.21812 -221.091701 
L 668.92134 -218.917649 
L 666.62456 -216.39418 
L 664.327781 -214.219734 
L 662.031001 -212.045553 
L 659.734221 -209.871668 
L 657.437441 -207.904385 
L 655.140662 -205.939072 
L 652.843882 -204.565637 
L 650.547102 -203.401969 
L 648.250323 -202.239077 
L 645.953543 -201.076995 
L 643.656763 -199.915757 
L 641.359984 -198.755401 
L 639.063204 -197.595963 
L 636.766424 -196.437487 
L 634.469644 -195.280014 
L 632.172865 -194.123589 
L 629.876085 -192.556129 
L 627.579305 -190.988669 
L 625.282526 -189.421211 
L 622.985746 -187.853754 
L 620.688966 -186.286298 
L 618.392187 -184.718845 
L 616.095407 -183.151392 
L 613.798627 -181.583942 
L 611.501847 -180.016495 
L 609.205068 -178.44905 
L 606.908288 -176.881607 
L 604.611508 -175.314169 
L 602.314729 -173.746734 
L 600.017949 -172.179303 
L 597.721169 -170.611877 
L 595.42439 -169.238619 
L 593.12761 -168.277436 
L 590.83083 -167.522044 
L 588.53405 -166.363976 
L 586.237271 -165.39831 
L 583.940491 -164.435313 
L 581.643711 -163.475243 
L 579.346932 -162.51839 
L 577.050152 -161.565078 
L 574.753372 -160.615667 
L 572.456593 -159.670563 
L 570.159813 -158.730217 
L 567.863033 -157.795135 
L 565.566253 -156.865879 
L 563.269474 -155.943073 
L 560.972694 -155.027408 
L 558.675914 -154.119642 
L 556.379135 -153.220604 
L 554.082355 -152.331187 
L 551.785575 -151.452346 
L 549.488796 -150.585082 
L 547.192016 -150.028547 
L 544.895236 -149.472013 
L 542.598456 -148.915478 
L 540.301677 -148.358943 
L 538.004897 -147.802409 
L 535.708117 -147.245874 
L 533.411338 -146.689339 
L 531.114558 -146.132805 
L 528.817778 -145.57627 
L 526.520999 -144.943278 
L 524.224219 -144.310338 
L 521.927439 -143.677463 
L 519.630659 -143.044668 
L 517.33388 -142.411974 
L 515.0371 -141.779409 
L 512.74032 -141.147014 
L 510.443541 -140.514847 
L 508.146761 -139.883001 
L 505.849981 -139.25162 
L 503.553202 -138.620953 
L 501.256422 -137.991463 
L 498.959642 -137.364114 
L 496.662862 -136.741285 
L 494.366083 -136.13055 
L 492.069303 -135.567471 
L 489.772523 -135.119606 
L 487.475744 -135.196448 
L 485.178964 -135.196448 
L 482.882184 -135.273289 
L 480.585405 -135.35013 
L 478.288625 -135.426972 
L 475.991845 -135.426972 
L 473.695065 -135.426972 
L 471.398286 -135.426972 
L 469.101506 -135.426972 
L 466.804726 -135.426972 
L 464.507947 -135.137975 
L 462.211167 -134.915354 
L 459.914387 -134.766952 
L 457.617608 -134.766952 
L 455.320828 -134.766952 
L 453.024048 -134.766952 
L 450.727268 -134.684926 
L 448.430489 -134.684926 
L 446.133709 -134.684926 
L 443.836929 -134.684926 
L 441.54015 -134.684926 
L 439.24337 -134.684926 
L 436.94659 -134.684926 
L 434.649811 -134.684926 
L 432.353031 -134.684926 
L 430.056251 -134.684926 
L 427.759471 -134.684926 
L 425.462692 -134.684926 
L 423.165912 -134.684926 
L 420.869132 -134.684926 
L 418.572353 -134.684926 
L 416.275573 -134.684926 
L 413.978793 -134.684926 
L 411.682014 -134.684926 
L 409.385234 -134.684926 
L 407.088454 -134.684926 
L 404.791674 -134.684926 
L 402.494895 -134.684926 
L 400.198115 -134.684926 
L 397.901335 -134.684926 
L 395.604556 -134.684926 
L 393.307776 -134.684926 
L 391.010996 -134.684926 
L 388.714217 -134.684926 
L 386.417437 -134.684926 
L 384.120657 -134.684926 
L 381.823877 -134.684926 
L 379.527098 -134.684926 
L 377.230318 -134.684926 
L 374.933538 -134.237061 
L 372.636759 -133.789197 
L 370.339979 -133.341332 
L 368.043199 -132.893468 
L 365.74642 -132.893468 
L 363.44964 -132.893468 
L 361.15286 -132.893468 
L 358.85608 -132.893468 
L 356.559301 -132.893468 
L 354.262521 -132.893468 
L 351.965741 -132.893468 
L 349.668962 -132.893468 
L 347.372182 -132.893468 
L 345.075402 -132.893468 
L 342.778623 -132.893468 
L 340.481843 -132.893468 
L 338.185063 -132.893468 
L 335.888283 -132.893468 
L 333.591504 -132.893468 
L 331.294724 -132.893468 
L 328.997944 -132.893468 
L 326.701165 -132.893468 
L 324.404385 -132.893468 
L 322.107605 -132.893468 
L 319.810826 -132.893468 
L 317.514046 -132.893468 
L 315.217266 -132.893468 
L 312.920486 -132.893468 
L 310.623707 -132.893468 
L 308.326927 -132.893468 
L 306.030147 -132.893468 
L 303.733368 -132.893468 
L 301.436588 -132.893468 
L 299.139808 -132.893468 
L 296.843029 -132.893468 
L 294.546249 -132.893468 
L 292.249469 -132.893468 
L 289.952689 -132.893468 
L 287.65591 -132.893468 
L 285.35913 -132.893468 
L 283.06235 -132.893468 
L 280.765571 -132.893468 
L 278.468791 -132.893468 
L 276.172011 -132.893468 
L 273.875232 -132.893468 
L 271.578452 -132.893468 
L 269.281672 -132.893468 
L 266.984892 -132.893468 
L 264.688113 -132.893468 
L 262.391333 -132.893468 
L 260.094553 -132.893468 
L 257.797774 -132.893468 
L 255.500994 -132.893468 
L 253.204214 -132.893468 
L 250.907435 -132.893468 
L 248.610655 -132.893468 
L 246.313875 -132.893468 
L 244.017095 -132.893468 
L 241.720316 -132.893468 
L 239.423536 -132.893468 
L 237.126756 -132.893468 
L 234.829977 -132.893468 
L 232.533197 -132.893468 
L 230.236417 -132.893468 
L 227.939638 -132.893468 
L 225.642858 -132.893468 
L 223.346078 -132.893468 
L 221.049298 -132.893468 
L 218.752519 -132.893468 
L 216.455739 -132.893468 
L 214.158959 -132.893468 
L 211.86218 -132.893468 
L 209.5654 -132.893468 
L 207.26862 -132.893468 
L 204.971841 -132.893468 
L 202.675061 -132.893468 
L 200.378281 -132.893468 
L 198.081501 -132.893468 
L 195.784722 -132.893468 
L 193.487942 -132.893468 
L 191.191162 -132.893468 
L 188.894383 -132.893468 
L 186.597603 -132.893468 
L 184.300823 -132.893468 
L 182.004044 -132.893468 
L 179.707264 -132.893468 
L 177.410484 -132.893468 
L 175.113704 -132.893468 
L 172.816925 -132.893468 
L 170.520145 -132.893468 
L 168.223365 -132.893468 
L 165.926586 -132.893468 
L 163.629806 -132.893468 
L 161.333026 -132.893468 
L 159.036247 -132.893468 
L 156.739467 -132.893468 
L 154.442687 -132.893468 
L 152.145907 -132.893468 
L 149.849128 -132.893468 
L 147.552348 -132.893468 
L 145.255568 -132.893468 
L 142.958789 -132.893468 
z
" style="stroke: #008000; stroke-opacity: 0.3"/>
    </defs>
    <g clip-path="url(#p4ae00cf1ef)">
     <use xlink:href="#m50d47c31e5" x="0" y="432" style="fill: #008000; fill-opacity: 0.3; stroke: #008000; stroke-opacity: 0.3"/>
    </g>
   </g>
   <g id="PolyCollection_3">
    <defs>
     <path id="m194e39976a" d="M 142.958789 -132.893468 
L 142.958789 -132.893468 
L 145.255568 -132.893468 
L 147.552348 -132.893468 
L 149.849128 -132.893468 
L 152.145907 -132.893468 
L 154.442687 -132.893468 
L 156.739467 -132.893468 
L 159.036247 -132.893468 
L 161.333026 -132.893468 
L 163.629806 -132.893468 
L 165.926586 -132.893468 
L 168.223365 -132.893468 
L 170.520145 -132.893468 
L 172.816925 -132.893468 
L 175.113704 -132.893468 
L 177.410484 -132.893468 
L 179.707264 -132.893468 
L 182.004044 -132.893468 
L 184.300823 -132.893468 
L 186.597603 -132.893468 
L 188.894383 -132.893468 
L 191.191162 -132.893468 
L 193.487942 -132.893468 
L 195.784722 -132.893468 
L 198.081501 -132.893468 
L 200.378281 -132.893468 
L 202.675061 -132.893468 
L 204.971841 -132.893468 
L 207.26862 -132.893468 
L 209.5654 -132.893468 
L 211.86218 -132.893468 
L 214.158959 -132.893468 
L 216.455739 -132.893468 
L 218.752519 -132.893468 
L 221.049298 -132.893468 
L 223.346078 -132.893468 
L 225.642858 -132.893468 
L 227.939638 -132.893468 
L 230.236417 -132.893468 
L 232.533197 -132.893468 
L 234.829977 -132.893468 
L 237.126756 -132.893468 
L 239.423536 -132.893468 
L 241.720316 -132.893468 
L 244.017095 -132.893468 
L 246.313875 -132.893468 
L 248.610655 -132.893468 
L 250.907435 -132.893468 
L 253.204214 -132.893468 
L 255.500994 -132.893468 
L 257.797774 -132.893468 
L 260.094553 -132.893468 
L 262.391333 -132.893468 
L 264.688113 -132.893468 
L 266.984892 -132.893468 
L 269.281672 -132.893468 
L 271.578452 -132.893468 
L 273.875232 -132.893468 
L 276.172011 -132.893468 
L 278.468791 -132.893468 
L 280.765571 -132.893468 
L 283.06235 -132.893468 
L 285.35913 -132.893468 
L 287.65591 -132.893468 
L 289.952689 -132.893468 
L 292.249469 -132.893468 
L 294.546249 -132.893468 
L 296.843029 -132.893468 
L 299.139808 -132.893468 
L 301.436588 -132.893468 
L 303.733368 -132.893468 
L 306.030147 -132.893468 
L 308.326927 -132.893468 
L 310.623707 -132.893468 
L 312.920486 -132.893468 
L 315.217266 -132.893468 
L 317.514046 -132.893468 
L 319.810826 -132.893468 
L 322.107605 -132.893468 
L 324.404385 -132.893468 
L 326.701165 -132.893468 
L 328.997944 -132.893468 
L 331.294724 -132.893468 
L 333.591504 -132.893468 
L 335.888283 -132.893468 
L 338.185063 -132.893468 
L 340.481843 -132.893468 
L 342.778623 -132.893468 
L 345.075402 -132.893468 
L 347.372182 -132.893468 
L 349.668962 -132.893468 
L 351.965741 -132.893468 
L 354.262521 -132.893468 
L 356.559301 -132.893468 
L 358.85608 -132.893468 
L 361.15286 -132.893468 
L 363.44964 -132.893468 
L 365.74642 -132.893468 
L 368.043199 -132.893468 
L 370.339979 -132.893468 
L 372.636759 -132.816626 
L 374.933538 -132.739785 
L 377.230318 -132.662943 
L 379.527098 -132.586102 
L 381.823877 -132.50926 
L 384.120657 -132.731329 
L 386.417437 -132.924678 
L 388.714217 -133.097624 
L 391.010996 -133.256076 
L 393.307776 -133.404098 
L 395.604556 -133.544476 
L 397.901335 -133.679142 
L 400.198115 -133.809453 
L 402.494895 -133.936386 
L 404.791674 -134.060653 
L 407.088454 -134.182784 
L 409.385234 -134.303182 
L 411.682014 -134.422154 
L 413.978793 -134.539943 
L 416.275573 -134.656737 
L 418.572353 -134.772689 
L 420.869132 -134.887922 
L 423.165912 -135.002536 
L 425.462692 -135.116615 
L 427.759471 -135.230226 
L 430.056251 -135.343428 
L 432.353031 -135.547556 
L 434.649811 -135.739894 
L 436.94659 -136.369536 
L 439.24337 -137.439119 
L 441.54015 -138.501565 
L 443.836929 -139.556442 
L 446.133709 -140.15605 
L 448.430489 -141.19527 
L 450.727268 -142.198263 
L 453.024048 -143.227787 
L 455.320828 -144.22938 
L 457.617608 -145.230722 
L 459.914387 -146.231779 
L 462.211167 -147.232509 
L 464.507947 -148.244754 
L 466.804726 -149.245054 
L 469.101506 -150.232899 
L 471.398286 -151.223567 
L 473.695065 -152.19381 
L 475.991845 -153.150036 
L 478.288625 -154.091992 
L 480.585405 -155.01955 
L 482.882184 -155.932709 
L 485.178964 -156.831599 
L 487.475744 -157.716472 
L 489.772523 -158.587693 
L 492.069303 -159.445726 
L 494.366083 -160.291113 
L 496.662862 -161.124458 
L 498.959642 -161.946407 
L 501.256422 -162.757631 
L 503.553202 -163.558809 
L 505.849981 -164.350616 
L 508.146761 -165.133712 
L 510.443541 -165.563209 
L 512.74032 -165.965075 
L 515.0371 -166.713498 
L 517.33388 -167.081501 
L 519.630659 -167.431153 
L 521.927439 -167.765225 
L 524.224219 -168.483693 
L 526.520999 -168.798623 
L 528.817778 -169.508594 
L 531.114558 -170.216142 
L 533.411338 -170.921444 
L 535.708117 -171.62466 
L 538.004897 -172.325937 
L 540.301677 -173.02541 
L 542.598456 -173.723202 
L 544.895236 -174.419427 
L 547.192016 -175.114188 
L 549.488796 -175.807581 
L 551.785575 -176.499694 
L 554.082355 -177.190608 
L 556.379135 -177.880397 
L 558.675914 -178.569131 
L 560.972694 -179.256873 
L 563.269474 -179.943681 
L 565.566253 -180.629611 
L 567.863033 -181.314713 
L 570.159813 -181.999033 
L 572.456593 -182.682615 
L 574.753372 -183.3655 
L 577.050152 -184.047726 
L 579.346932 -184.729327 
L 581.643711 -185.410335 
L 583.940491 -186.523405 
L 586.237271 -187.636474 
L 588.53405 -188.749544 
L 590.83083 -189.862613 
L 593.12761 -190.975682 
L 595.42439 -192.088752 
L 597.721169 -193.201821 
L 600.017949 -194.31489 
L 602.314729 -195.42796 
L 604.611508 -196.541029 
L 606.908288 -197.654098 
L 609.205068 -198.767168 
L 611.501847 -199.880237 
L 613.798627 -200.993306 
L 616.095407 -202.106376 
L 618.392187 -203.219445 
L 620.688966 -204.332514 
L 622.985746 -205.445584 
L 625.282526 -206.558653 
L 627.579305 -207.671722 
L 629.876085 -208.784792 
L 632.172865 -209.897861 
L 634.469644 -211.010931 
L 636.766424 -212.124 
L 639.063204 -213.237069 
L 641.359984 -214.350139 
L 643.656763 -215.463208 
L 645.953543 -216.576277 
L 648.250323 -217.689347 
L 650.547102 -218.802416 
L 652.843882 -219.915485 
L 655.140662 -221.028555 
L 657.437441 -222.141624 
L 659.734221 -223.254693 
L 662.031001 -224.367763 
L 664.327781 -225.480832 
L 666.62456 -226.593901 
L 668.92134 -227.706971 
L 671.21812 -228.82004 
L 673.514899 -229.93311 
L 675.811679 -231.046179 
L 678.108459 -231.726626 
L 680.405238 -232.839696 
L 682.702018 -233.952765 
L 684.998798 -235.065835 
L 687.295578 -236.178904 
L 689.592357 -237.291973 
L 691.889137 -238.405043 
L 694.185917 -239.518112 
L 696.482696 -240.631181 
L 698.779476 -241.744251 
L 701.076256 -242.85732 
L 703.373035 -243.970389 
L 705.669815 -245.083459 
L 707.966595 -246.196528 
L 710.263375 -247.309597 
L 712.560154 -248.422667 
L 714.856934 -249.535736 
L 717.153714 -250.648805 
L 719.450493 -251.761875 
L 721.747273 -252.874944 
L 724.044053 -253.554859 
L 726.340832 -254.667928 
L 728.637612 -255.780998 
L 730.934392 -256.894067 
L 733.231172 -258.007136 
L 735.527951 -259.120206 
L 737.824731 -259.799615 
L 740.121511 -260.478542 
L 742.41829 -261.591612 
L 744.71507 -262.569483 
L 747.01185 -263.542926 
L 749.308629 -264.655996 
L 751.605409 -265.769065 
L 753.902189 -266.882134 
L 756.198969 -267.995204 
L 758.495748 -268.964179 
L 760.792528 -269.92865 
L 763.089308 -270.888581 
L 765.386087 -271.843944 
L 767.682867 -272.794712 
L 769.979647 -273.319993 
L 772.276426 -274.01131 
L 774.573206 -274.95691 
L 776.869986 -275.898014 
L 779.166766 -276.834609 
L 781.463545 -277.766687 
L 783.760325 -278.879756 
L 786.057105 -279.992826 
L 788.353884 -280.920384 
L 790.650664 -281.843421 
L 792.947444 -282.95649 
L 795.244223 -284.069559 
L 797.541003 -285.182629 
L 799.837783 -286.295698 
L 802.134563 -287.408768 
L 802.134563 -317.864319 
L 802.134563 -317.864319 
L 799.837783 -316.75125 
L 797.541003 -315.638181 
L 795.244223 -314.525111 
L 792.947444 -313.412042 
L 790.650664 -312.298973 
L 788.353884 -311.366894 
L 786.057105 -310.439336 
L 783.760325 -309.326267 
L 781.463545 -308.213198 
L 779.166766 -307.290161 
L 776.869986 -306.37164 
L 774.573206 -305.457628 
L 772.276426 -304.548113 
L 769.979647 -303.384314 
L 767.682867 -302.425502 
L 765.386087 -301.521155 
L 763.089308 -300.621402 
L 760.792528 -299.726218 
L 758.495748 -298.835573 
L 756.198969 -297.949433 
L 753.902189 -296.836363 
L 751.605409 -295.723294 
L 749.308629 -294.610225 
L 747.01185 -293.497155 
L 744.71507 -292.615483 
L 742.41829 -291.738239 
L 740.121511 -290.625169 
L 737.824731 -289.448982 
L 735.527951 -288.273275 
L 733.231172 -287.160206 
L 730.934392 -286.047136 
L 728.637612 -284.934067 
L 726.340832 -283.820997 
L 724.044053 -282.707928 
L 721.747273 -281.532727 
L 719.450493 -280.419658 
L 717.153714 -279.306589 
L 714.856934 -278.193519 
L 712.560154 -277.08045 
L 710.263375 -275.967381 
L 707.966595 -274.854311 
L 705.669815 -273.741242 
L 703.373035 -272.628173 
L 701.076256 -271.515103 
L 698.779476 -270.402034 
L 696.482696 -269.288965 
L 694.185917 -268.175895 
L 691.889137 -267.062826 
L 689.592357 -265.949757 
L 687.295578 -264.836687 
L 684.998798 -263.723618 
L 682.702018 -262.610548 
L 680.405238 -261.497479 
L 678.108459 -260.38441 
L 675.811679 -259.209742 
L 673.514899 -258.096672 
L 671.21812 -256.983603 
L 668.92134 -255.870534 
L 666.62456 -254.757464 
L 664.327781 -253.644395 
L 662.031001 -252.531326 
L 659.734221 -251.418256 
L 657.437441 -250.305187 
L 655.140662 -249.192118 
L 652.843882 -248.079048 
L 650.547102 -246.965979 
L 648.250323 -245.85291 
L 645.953543 -244.73984 
L 643.656763 -243.626771 
L 641.359984 -242.513702 
L 639.063204 -241.400632 
L 636.766424 -240.287563 
L 634.469644 -239.174494 
L 632.172865 -238.061424 
L 629.876085 -236.948355 
L 627.579305 -235.835285 
L 625.282526 -234.722216 
L 622.985746 -233.609147 
L 620.688966 -232.496077 
L 618.392187 -231.383008 
L 616.095407 -230.269939 
L 613.798627 -229.156869 
L 611.501847 -228.0438 
L 609.205068 -226.930731 
L 606.908288 -225.817661 
L 604.611508 -224.704592 
L 602.314729 -223.591523 
L 600.017949 -222.478453 
L 597.721169 -221.365384 
L 595.42439 -220.252315 
L 593.12761 -219.139245 
L 590.83083 -218.026176 
L 588.53405 -216.913107 
L 586.237271 -215.800037 
L 583.940491 -214.686968 
L 581.643711 -213.573898 
L 579.346932 -212.399792 
L 577.050152 -211.226277 
L 574.753372 -210.053387 
L 572.456593 -208.881156 
L 570.159813 -207.709623 
L 567.863033 -206.538828 
L 565.566253 -205.368814 
L 563.269474 -204.199628 
L 560.972694 -203.031321 
L 558.675914 -201.863947 
L 556.379135 -200.697565 
L 554.082355 -199.532239 
L 551.785575 -198.368037 
L 549.488796 -197.205035 
L 547.192016 -196.043312 
L 544.895236 -194.882958 
L 542.598456 -193.724067 
L 540.301677 -192.566743 
L 538.004897 -191.411101 
L 535.708117 -190.257262 
L 533.411338 -189.105362 
L 531.114558 -187.955549 
L 528.817778 -186.807982 
L 526.520999 -185.662837 
L 524.224219 -184.493674 
L 521.927439 -183.357027 
L 519.630659 -182.207006 
L 517.33388 -181.072566 
L 515.0371 -179.956477 
L 512.74032 -178.849784 
L 510.443541 -177.767557 
L 508.146761 -176.712962 
L 505.849981 -175.640942 
L 503.553202 -174.577634 
L 501.256422 -173.523696 
L 498.959642 -172.479805 
L 496.662862 -171.446638 
L 494.366083 -170.424868 
L 492.069303 -169.415139 
L 489.772523 -168.418056 
L 487.475744 -167.434162 
L 485.178964 -166.463919 
L 482.882184 -165.507694 
L 480.585405 -164.565737 
L 478.288625 -163.638179 
L 475.991845 -162.72502 
L 473.695065 -161.82613 
L 471.398286 -160.941257 
L 469.101506 -160.447833 
L 466.804726 -159.580562 
L 464.507947 -158.725747 
L 462.211167 -157.882876 
L 459.914387 -157.399514 
L 457.617608 -156.916478 
L 455.320828 -156.433728 
L 453.024048 -155.951229 
L 450.727268 -155.125637 
L 448.430489 -154.644538 
L 446.133709 -153.828642 
L 443.836929 -152.944157 
L 441.54015 -152.143919 
L 439.24337 -151.351249 
L 436.94659 -150.565717 
L 434.649811 -149.711267 
L 432.353031 -148.790535 
L 430.056251 -147.881594 
L 427.759471 -147.252749 
L 425.462692 -146.624314 
L 423.165912 -145.996346 
L 420.869132 -145.368915 
L 418.572353 -144.742101 
L 416.275573 -144.116007 
L 413.978793 -143.490755 
L 411.682014 -142.866497 
L 409.385234 -142.243423 
L 407.088454 -141.621775 
L 404.791674 -141.00186 
L 402.494895 -140.384081 
L 400.198115 -139.768967 
L 397.901335 -139.157232 
L 395.604556 -138.549852 
L 393.307776 -137.948184 
L 391.010996 -137.35416 
L 388.714217 -136.770565 
L 386.417437 -136.201465 
L 384.120657 -135.652768 
L 381.823877 -135.13279 
L 379.527098 -134.684926 
L 377.230318 -134.237061 
L 374.933538 -133.789197 
L 372.636759 -133.341332 
L 370.339979 -132.893468 
L 368.043199 -132.893468 
L 365.74642 -132.893468 
L 363.44964 -132.893468 
L 361.15286 -132.893468 
L 358.85608 -132.893468 
L 356.559301 -132.893468 
L 354.262521 -132.893468 
L 351.965741 -132.893468 
L 349.668962 -132.893468 
L 347.372182 -132.893468 
L 345.075402 -132.893468 
L 342.778623 -132.893468 
L 340.481843 -132.893468 
L 338.185063 -132.893468 
L 335.888283 -132.893468 
L 333.591504 -132.893468 
L 331.294724 -132.893468 
L 328.997944 -132.893468 
L 326.701165 -132.893468 
L 324.404385 -132.893468 
L 322.107605 -132.893468 
L 319.810826 -132.893468 
L 317.514046 -132.893468 
L 315.217266 -132.893468 
L 312.920486 -132.893468 
L 310.623707 -132.893468 
L 308.326927 -132.893468 
L 306.030147 -132.893468 
L 303.733368 -132.893468 
L 301.436588 -132.893468 
L 299.139808 -132.893468 
L 296.843029 -132.893468 
L 294.546249 -132.893468 
L 292.249469 -132.893468 
L 289.952689 -132.893468 
L 287.65591 -132.893468 
L 285.35913 -132.893468 
L 283.06235 -132.893468 
L 280.765571 -132.893468 
L 278.468791 -132.893468 
L 276.172011 -132.893468 
L 273.875232 -132.893468 
L 271.578452 -132.893468 
L 269.281672 -132.893468 
L 266.984892 -132.893468 
L 264.688113 -132.893468 
L 262.391333 -132.893468 
L 260.094553 -132.893468 
L 257.797774 -132.893468 
L 255.500994 -132.893468 
L 253.204214 -132.893468 
L 250.907435 -132.893468 
L 248.610655 -132.893468 
L 246.313875 -132.893468 
L 244.017095 -132.893468 
L 241.720316 -132.893468 
L 239.423536 -132.893468 
L 237.126756 -132.893468 
L 234.829977 -132.893468 
L 232.533197 -132.893468 
L 230.236417 -132.893468 
L 227.939638 -132.893468 
L 225.642858 -132.893468 
L 223.346078 -132.893468 
L 221.049298 -132.893468 
L 218.752519 -132.893468 
L 216.455739 -132.893468 
L 214.158959 -132.893468 
L 211.86218 -132.893468 
L 209.5654 -132.893468 
L 207.26862 -132.893468 
L 204.971841 -132.893468 
L 202.675061 -132.893468 
L 200.378281 -132.893468 
L 198.081501 -132.893468 
L 195.784722 -132.893468 
L 193.487942 -132.893468 
L 191.191162 -132.893468 
L 188.894383 -132.893468 
L 186.597603 -132.893468 
L 184.300823 -132.893468 
L 182.004044 -132.893468 
L 179.707264 -132.893468 
L 177.410484 -132.893468 
L 175.113704 -132.893468 
L 172.816925 -132.893468 
L 170.520145 -132.893468 
L 168.223365 -132.893468 
L 165.926586 -132.893468 
L 163.629806 -132.893468 
L 161.333026 -132.893468 
L 159.036247 -132.893468 
L 156.739467 -132.893468 
L 154.442687 -132.893468 
L 152.145907 -132.893468 
L 149.849128 -132.893468 
L 147.552348 -132.893468 
L 145.255568 -132.893468 
L 142.958789 -132.893468 
z
" style="stroke: #ff0000; stroke-opacity: 0.3"/>
    </defs>
    <g clip-path="url(#p4ae00cf1ef)">
     <use xlink:href="#m194e39976a" x="0" y="432" style="fill: #ff0000; fill-opacity: 0.3; stroke: #ff0000; stroke-opacity: 0.3"/>
    </g>
   </g>
   <g id="PolyCollection_4">
    <defs>
     <path id="mf2455b86e1" d="M 142.958789 -132.893468 
L 142.958789 -132.893468 
L 145.255568 -132.893468 
L 147.552348 -132.893468 
L 149.849128 -132.893468 
L 152.145907 -132.893468 
L 154.442687 -132.893468 
L 156.739467 -132.893468 
L 159.036247 -132.893468 
L 161.333026 -132.893468 
L 163.629806 -132.893468 
L 165.926586 -132.893468 
L 168.223365 -132.893468 
L 170.520145 -132.893468 
L 172.816925 -132.893468 
L 175.113704 -132.893468 
L 177.410484 -132.893468 
L 179.707264 -132.893468 
L 182.004044 -132.893468 
L 184.300823 -132.893468 
L 186.597603 -132.893468 
L 188.894383 -132.893468 
L 191.191162 -132.893468 
L 193.487942 -132.893468 
L 195.784722 -132.893468 
L 198.081501 -132.893468 
L 200.378281 -132.893468 
L 202.675061 -132.893468 
L 204.971841 -132.893468 
L 207.26862 -132.893468 
L 209.5654 -132.893468 
L 211.86218 -132.893468 
L 214.158959 -132.893468 
L 216.455739 -132.893468 
L 218.752519 -132.893468 
L 221.049298 -132.893468 
L 223.346078 -132.893468 
L 225.642858 -132.893468 
L 227.939638 -132.893468 
L 230.236417 -132.893468 
L 232.533197 -132.893468 
L 234.829977 -132.893468 
L 237.126756 -132.893468 
L 239.423536 -132.893468 
L 241.720316 -132.893468 
L 244.017095 -132.893468 
L 246.313875 -132.893468 
L 248.610655 -132.893468 
L 250.907435 -132.893468 
L 253.204214 -132.893468 
L 255.500994 -132.893468 
L 257.797774 -132.893468 
L 260.094553 -132.893468 
L 262.391333 -132.893468 
L 264.688113 -132.893468 
L 266.984892 -132.893468 
L 269.281672 -132.893468 
L 271.578452 -132.893468 
L 273.875232 -132.893468 
L 276.172011 -132.893468 
L 278.468791 -132.893468 
L 280.765571 -132.893468 
L 283.06235 -132.893468 
L 285.35913 -132.893468 
L 287.65591 -132.893468 
L 289.952689 -132.816626 
L 292.249469 -132.739785 
L 294.546249 -132.662943 
L 296.843029 -132.586102 
L 299.139808 -132.50926 
L 301.436588 -132.432419 
L 303.733368 -132.355578 
L 306.030147 -132.278736 
L 308.326927 -132.201895 
L 310.623707 -132.125053 
L 312.920486 -132.048212 
L 315.217266 -131.971371 
L 317.514046 -131.894529 
L 319.810826 -131.817688 
L 322.107605 -131.740846 
L 324.404385 -131.664005 
L 326.701165 -131.587164 
L 328.997944 -131.510322 
L 331.294724 -131.433481 
L 333.591504 -131.433481 
L 335.888283 -131.433481 
L 338.185063 -131.433481 
L 340.481843 -131.433481 
L 342.778623 -131.433481 
L 345.075402 -131.433481 
L 347.372182 -131.433481 
L 349.668962 -131.433481 
L 351.965741 -131.433481 
L 354.262521 -131.433481 
L 356.559301 -131.433481 
L 358.85608 -131.433481 
L 361.15286 -131.433481 
L 363.44964 -131.433481 
L 365.74642 -131.433481 
L 368.043199 -131.433481 
L 370.339979 -131.433481 
L 372.636759 -131.433481 
L 374.933538 -131.433481 
L 377.230318 -131.744854 
L 379.527098 -132.045045 
L 381.823877 -132.333224 
L 384.120657 -132.60858 
L 386.417437 -132.870339 
L 388.714217 -133.117797 
L 391.010996 -133.350345 
L 393.307776 -133.567497 
L 395.604556 -133.721649 
L 397.901335 -133.914728 
L 400.198115 -134.092672 
L 402.494895 -134.255557 
L 404.791674 -134.3847 
L 407.088454 -134.511803 
L 409.385234 -134.637146 
L 411.682014 -134.760964 
L 413.978793 -134.883452 
L 416.275573 -135.004772 
L 418.572353 -135.125065 
L 420.869132 -135.681599 
L 423.165912 -136.238134 
L 425.462692 -136.794669 
L 427.759471 -137.351203 
L 430.056251 -137.907738 
L 432.353031 -138.464273 
L 434.649811 -139.020808 
L 436.94659 -139.577342 
L 439.24337 -140.133877 
L 441.54015 -140.690412 
L 443.836929 -141.246946 
L 446.133709 -141.803481 
L 448.430489 -142.360016 
L 450.727268 -142.91655 
L 453.024048 -143.473085 
L 455.320828 -144.02962 
L 457.617608 -144.586154 
L 459.914387 -145.142689 
L 462.211167 -145.699224 
L 464.507947 -146.255758 
L 466.804726 -146.812293 
L 469.101506 -147.368828 
L 471.398286 -147.925362 
L 473.695065 -148.481897 
L 475.991845 -149.038432 
L 478.288625 -149.594966 
L 480.585405 -150.151501 
L 482.882184 -150.708036 
L 485.178964 -151.26457 
L 487.475744 -151.812997 
L 489.772523 -152.35674 
L 492.069303 -152.913274 
L 494.366083 -153.452738 
L 496.662862 -153.988287 
L 498.959642 -154.520255 
L 501.256422 -155.048941 
L 503.553202 -155.574616 
L 505.849981 -156.097526 
L 508.146761 -156.200178 
L 510.443541 -156.302775 
L 512.74032 -156.405327 
L 515.0371 -156.679282 
L 517.33388 -156.94776 
L 519.630659 -157.211486 
L 521.927439 -157.471066 
L 524.224219 -157.727014 
L 526.520999 -157.979762 
L 528.817778 -158.66159 
L 531.114558 -159.342752 
L 533.411338 -160.023286 
L 535.708117 -160.703229 
L 538.004897 -161.382612 
L 540.301677 -161.62675 
L 542.598456 -161.86899 
L 544.895236 -162.109522 
L 547.192016 -162.785734 
L 549.488796 -163.461581 
L 551.785575 -164.137079 
L 554.082355 -164.812245 
L 556.379135 -165.487094 
L 558.675914 -166.161641 
L 560.972694 -166.8359 
L 563.269474 -167.509884 
L 565.566253 -168.183604 
L 567.863033 -168.858317 
L 570.159813 -169.532238 
L 572.456593 -170.324184 
L 574.753372 -171.115153 
L 577.050152 -171.905223 
L 579.346932 -173.020729 
L 581.643711 -173.812289 
L 583.940491 -175.043207 
L 586.237271 -176.27335 
L 588.53405 -177.50288 
L 590.83083 -178.731834 
L 593.12761 -179.960245 
L 595.42439 -181.188145 
L 597.721169 -182.415561 
L 600.017949 -183.642521 
L 602.314729 -184.869049 
L 604.611508 -186.095169 
L 606.908288 -187.320902 
L 609.205068 -188.546268 
L 611.501847 -189.771285 
L 613.798627 -190.995971 
L 616.095407 -191.785999 
L 618.392187 -192.576024 
L 620.688966 -193.366047 
L 622.985746 -194.156067 
L 625.282526 -194.946085 
L 627.579305 -195.736101 
L 629.876085 -196.526115 
L 632.172865 -197.326622 
L 634.469644 -198.126292 
L 636.766424 -198.794916 
L 639.063204 -199.897877 
L 641.359984 -201.433883 
L 643.656763 -202.967889 
L 645.953543 -204.067264 
L 648.250323 -205.150347 
L 650.547102 -206.660879 
L 652.843882 -208.166079 
L 655.140662 -209.666027 
L 657.437441 -211.160799 
L 659.734221 -212.650474 
L 662.031001 -214.135132 
L 664.327781 -215.614852 
L 666.62456 -217.120649 
L 668.92134 -218.624485 
L 671.21812 -220.126357 
L 673.514899 -221.62626 
L 675.811679 -223.124193 
L 678.108459 -224.583815 
L 680.405238 -226.038826 
L 682.702018 -227.489311 
L 684.998798 -228.935353 
L 687.295578 -230.377035 
L 689.592357 -231.81444 
L 691.889137 -233.247649 
L 694.185917 -234.676745 
L 696.482696 -236.101806 
L 698.779476 -237.522914 
L 701.076256 -238.940147 
L 703.373035 -240.353583 
L 705.669815 -241.763298 
L 707.966595 -243.169371 
L 710.263375 -244.785178 
L 712.560154 -246.186663 
L 714.856934 -247.584689 
L 717.153714 -248.979329 
L 719.450493 -250.591931 
L 721.747273 -252.204282 
L 724.044053 -254.037261 
L 726.340832 -255.869599 
L 728.637612 -257.701305 
L 730.934392 -259.53239 
L 733.231172 -261.362863 
L 735.527951 -263.192733 
L 737.824731 -265.02201 
L 740.121511 -266.850702 
L 742.41829 -268.678819 
L 744.71507 -270.50637 
L 747.01185 -272.333363 
L 749.308629 -274.159806 
L 751.605409 -275.985708 
L 753.902189 -277.60297 
L 756.198969 -279.219946 
L 758.495748 -280.836641 
L 760.792528 -282.663176 
L 763.089308 -284.489184 
L 765.386087 -286.106367 
L 767.682867 -287.723274 
L 769.979647 -289.738901 
L 772.276426 -291.539379 
L 774.573206 -293.333693 
L 776.869986 -295.121867 
L 779.166766 -297.12673 
L 781.463545 -299.130068 
L 783.760325 -301.131886 
L 786.057105 -303.132188 
L 788.353884 -305.130978 
L 790.650664 -307.12826 
L 792.947444 -309.354398 
L 795.244223 -311.580537 
L 797.541003 -313.806676 
L 799.837783 -316.032814 
L 802.134563 -318.258953 
L 802.134563 -407.225624 
L 802.134563 -407.225624 
L 799.837783 -404.999485 
L 797.541003 -402.773346 
L 795.244223 -400.547208 
L 792.947444 -398.321069 
L 790.650664 -396.09493 
L 788.353884 -394.010958 
L 786.057105 -391.928493 
L 783.760325 -389.84754 
L 781.463545 -387.768104 
L 779.166766 -385.690189 
L 776.869986 -383.613797 
L 774.573206 -381.69174 
L 772.276426 -379.775822 
L 769.979647 -377.866069 
L 767.682867 -375.800442 
L 765.386087 -373.707118 
L 763.089308 -371.61407 
L 760.792528 -369.358823 
L 758.495748 -367.104104 
L 756.198969 -365.010568 
L 753.902189 -362.917313 
L 751.605409 -360.824344 
L 749.308629 -358.568992 
L 747.01185 -356.314181 
L 744.71507 -354.059919 
L 742.41829 -351.806215 
L 740.121511 -349.553078 
L 737.824731 -347.300516 
L 735.527951 -345.048539 
L 733.231172 -342.797155 
L 730.934392 -340.546373 
L 728.637612 -338.296204 
L 726.340832 -336.046656 
L 724.044053 -333.797739 
L 721.747273 -331.549464 
L 719.450493 -329.451584 
L 717.153714 -327.353955 
L 714.856934 -325.409386 
L 712.560154 -323.468205 
L 710.263375 -321.530482 
L 707.966595 -319.436058 
L 705.669815 -317.502922 
L 703.373035 -315.57343 
L 701.076256 -313.647658 
L 698.779476 -311.725682 
L 696.482696 -309.807582 
L 694.185917 -307.893435 
L 691.889137 -305.983323 
L 689.592357 -304.077324 
L 687.295578 -302.175521 
L 684.998798 -300.277995 
L 682.702018 -298.384829 
L 680.405238 -296.496106 
L 678.108459 -294.611909 
L 675.811679 -292.732323 
L 673.514899 -291.262071 
L 671.21812 -289.793789 
L 668.92134 -288.327476 
L 666.62456 -286.863127 
L 664.327781 -285.400739 
L 662.031001 -283.541251 
L 659.734221 -281.686701 
L 657.437441 -279.837168 
L 655.140662 -277.992732 
L 652.843882 -276.153471 
L 650.547102 -274.319464 
L 648.250323 -272.490787 
L 645.953543 -270.605686 
L 643.656763 -269.107898 
L 641.359984 -267.67372 
L 639.063204 -266.241541 
L 636.766424 -264.74734 
L 634.469644 -263.189826 
L 632.172865 -261.392334 
L 629.876085 -259.595679 
L 627.579305 -257.417508 
L 625.282526 -255.239339 
L 622.985746 -253.061172 
L 620.688966 -250.883007 
L 618.392187 -248.704845 
L 616.095407 -246.526685 
L 613.798627 -244.348528 
L 611.501847 -242.234006 
L 609.205068 -240.119816 
L 606.908288 -238.005973 
L 604.611508 -235.892498 
L 602.314729 -233.77941 
L 600.017949 -231.66673 
L 597.721169 -229.554482 
L 595.42439 -227.44269 
L 593.12761 -225.331382 
L 590.83083 -223.220585 
L 588.53405 -221.110331 
L 586.237271 -219.000653 
L 583.940491 -216.891588 
L 581.643711 -215.154321 
L 579.346932 -212.977696 
L 577.050152 -211.125017 
L 574.753372 -209.317925 
L 572.456593 -207.511733 
L 570.159813 -205.706516 
L 567.863033 -204.154298 
L 565.566253 -202.602873 
L 563.269474 -201.421478 
L 560.972694 -200.240346 
L 558.675914 -199.059489 
L 556.379135 -197.878921 
L 554.082355 -196.698654 
L 551.785575 -195.518705 
L 549.488796 -194.339087 
L 547.192016 -193.159818 
L 544.895236 -191.980915 
L 542.598456 -190.737354 
L 540.301677 -189.495502 
L 538.004897 -188.255548 
L 535.708117 -187.079815 
L 533.411338 -185.904642 
L 531.114558 -184.730061 
L 528.817778 -183.556107 
L 526.520999 -182.382819 
L 524.224219 -181.151475 
L 521.927439 -179.92333 
L 519.630659 -178.698818 
L 517.33388 -177.478451 
L 515.0371 -176.262837 
L 512.74032 -175.0527 
L 510.443541 -174.042182 
L 508.146761 -173.03171 
L 505.849981 -172.021292 
L 503.553202 -171.06011 
L 501.256422 -170.101692 
L 498.959642 -169.146286 
L 496.662862 -168.194161 
L 494.366083 -167.245619 
L 492.069303 -166.300989 
L 489.772523 -165.744455 
L 487.475744 -164.804105 
L 485.178964 -163.868439 
L 482.882184 -163.311905 
L 480.585405 -162.75537 
L 478.288625 -162.198835 
L 475.991845 -161.6423 
L 473.695065 -161.085766 
L 471.398286 -160.529231 
L 469.101506 -159.972696 
L 466.804726 -159.416162 
L 464.507947 -158.859627 
L 462.211167 -158.303092 
L 459.914387 -157.746558 
L 457.617608 -157.190023 
L 455.320828 -156.633488 
L 453.024048 -156.076954 
L 450.727268 -155.520419 
L 448.430489 -154.963884 
L 446.133709 -154.40735 
L 443.836929 -153.850815 
L 441.54015 -153.29428 
L 439.24337 -152.737746 
L 436.94659 -152.181211 
L 434.649811 -151.624676 
L 432.353031 -151.068142 
L 430.056251 -150.511607 
L 427.759471 -149.955072 
L 425.462692 -149.398538 
L 423.165912 -148.842003 
L 420.869132 -148.285468 
L 418.572353 -147.728934 
L 416.275573 -147.10718 
L 413.978793 -146.486454 
L 411.682014 -145.866895 
L 409.385234 -145.248667 
L 407.088454 -144.631964 
L 404.791674 -144.017021 
L 402.494895 -143.404118 
L 400.198115 -143.19598 
L 397.901335 -143.002901 
L 395.604556 -142.824956 
L 393.307776 -142.237062 
L 391.010996 -142.083192 
L 388.714217 -141.944716 
L 386.417437 -141.821151 
L 384.120657 -141.711887 
L 381.823877 -141.61622 
L 379.527098 -141.533376 
L 377.230318 -141.462544 
L 374.933538 -141.402893 
L 372.636759 -141.402893 
L 370.339979 -141.402893 
L 368.043199 -141.402893 
L 365.74642 -141.402893 
L 363.44964 -141.402893 
L 361.15286 -141.402893 
L 358.85608 -141.402893 
L 356.559301 -141.402893 
L 354.262521 -141.402893 
L 351.965741 -141.402893 
L 349.668962 -141.402893 
L 347.372182 -141.402893 
L 345.075402 -141.402893 
L 342.778623 -141.402893 
L 340.481843 -141.402893 
L 338.185063 -141.402893 
L 335.888283 -141.402893 
L 333.591504 -141.402893 
L 331.294724 -141.402893 
L 328.997944 -140.955029 
L 326.701165 -140.507164 
L 324.404385 -140.0593 
L 322.107605 -139.611435 
L 319.810826 -139.163571 
L 317.514046 -138.715706 
L 315.217266 -138.267842 
L 312.920486 -137.819977 
L 310.623707 -137.372113 
L 308.326927 -136.924248 
L 306.030147 -136.476384 
L 303.733368 -136.028519 
L 301.436588 -135.580655 
L 299.139808 -135.13279 
L 296.843029 -134.684926 
L 294.546249 -134.237061 
L 292.249469 -133.789197 
L 289.952689 -133.341332 
L 287.65591 -132.893468 
L 285.35913 -132.893468 
L 283.06235 -132.893468 
L 280.765571 -132.893468 
L 278.468791 -132.893468 
L 276.172011 -132.893468 
L 273.875232 -132.893468 
L 271.578452 -132.893468 
L 269.281672 -132.893468 
L 266.984892 -132.893468 
L 264.688113 -132.893468 
L 262.391333 -132.893468 
L 260.094553 -132.893468 
L 257.797774 -132.893468 
L 255.500994 -132.893468 
L 253.204214 -132.893468 
L 250.907435 -132.893468 
L 248.610655 -132.893468 
L 246.313875 -132.893468 
L 244.017095 -132.893468 
L 241.720316 -132.893468 
L 239.423536 -132.893468 
L 237.126756 -132.893468 
L 234.829977 -132.893468 
L 232.533197 -132.893468 
L 230.236417 -132.893468 
L 227.939638 -132.893468 
L 225.642858 -132.893468 
L 223.346078 -132.893468 
L 221.049298 -132.893468 
L 218.752519 -132.893468 
L 216.455739 -132.893468 
L 214.158959 -132.893468 
L 211.86218 -132.893468 
L 209.5654 -132.893468 
L 207.26862 -132.893468 
L 204.971841 -132.893468 
L 202.675061 -132.893468 
L 200.378281 -132.893468 
L 198.081501 -132.893468 
L 195.784722 -132.893468 
L 193.487942 -132.893468 
L 191.191162 -132.893468 
L 188.894383 -132.893468 
L 186.597603 -132.893468 
L 184.300823 -132.893468 
L 182.004044 -132.893468 
L 179.707264 -132.893468 
L 177.410484 -132.893468 
L 175.113704 -132.893468 
L 172.816925 -132.893468 
L 170.520145 -132.893468 
L 168.223365 -132.893468 
L 165.926586 -132.893468 
L 163.629806 -132.893468 
L 161.333026 -132.893468 
L 159.036247 -132.893468 
L 156.739467 -132.893468 
L 154.442687 -132.893468 
L 152.145907 -132.893468 
L 149.849128 -132.893468 
L 147.552348 -132.893468 
L 145.255568 -132.893468 
L 142.958789 -132.893468 
z
" style="stroke: #ffa500; stroke-opacity: 0.3"/>
    </defs>
    <g clip-path="url(#p4ae00cf1ef)">
     <use xlink:href="#mf2455b86e1" x="0" y="432" style="fill: #ffa500; fill-opacity: 0.3; stroke: #ffa500; stroke-opacity: 0.3"/>
    </g>
   </g>
   <g id="matplotlib.axis_1">
    <g id="xtick_1">
     <g id="line2d_1">
      <defs>
       <path id="mdc6fd30f35" d="M 0 0 
L 0 3.5 
" style="stroke: #000000; stroke-width: 0.8"/>
      </defs>
      <g>
       <use xlink:href="#mdc6fd30f35" x="142.958789" y="354.76" style="stroke: #000000; stroke-width: 0.8"/>
      </g>
     </g>
     <g id="text_1">
      <!-- 0 -->
      <g transform="translate(135.958789 381.01) scale(0.28 -0.28)">
       <defs>
        <path id="SimHei-30" d="M 225 2537 
Q 250 3200 412 3587 
Q 575 3975 875 4225 
Q 1175 4475 1612 4475 
Q 2050 4475 2375 4112 
Q 2700 3750 2800 3200 
Q 2900 2650 2862 1937 
Q 2825 1225 2612 775 
Q 2400 325 1975 150 
Q 1550 -25 1125 187 
Q 700 400 525 750 
Q 350 1100 275 1487 
Q 200 1875 225 2537 
z
M 750 2687 
Q 675 2000 800 1462 
Q 925 925 1212 700 
Q 1500 475 1800 612 
Q 2100 750 2237 1162 
Q 2375 1575 2375 2062 
Q 2375 2550 2337 2950 
Q 2300 3350 2112 3675 
Q 1925 4000 1612 4012 
Q 1300 4025 1062 3700 
Q 825 3375 750 2687 
z
" transform="scale(0.015625)"/>
       </defs>
       <use xlink:href="#SimHei-30"/>
      </g>
     </g>
    </g>
    <g id="xtick_2">
     <g id="line2d_2">
      <g>
       <use xlink:href="#mdc6fd30f35" x="257.797774" y="354.76" style="stroke: #000000; stroke-width: 0.8"/>
      </g>
     </g>
     <g id="text_2">
      <!-- 50 -->
      <g transform="translate(243.797774 381.01) scale(0.28 -0.28)">
       <defs>
        <path id="SimHei-35" d="M 550 1325 
Q 725 650 1150 575 
Q 1575 500 1837 662 
Q 2100 825 2212 1087 
Q 2325 1350 2312 1675 
Q 2300 2000 2137 2225 
Q 1975 2450 1725 2525 
Q 1475 2600 1162 2525 
Q 850 2450 650 2175 
L 225 2225 
Q 275 2375 700 4375 
L 2675 4375 
L 2675 3925 
L 1075 3925 
Q 950 3250 825 2850 
Q 1200 3025 1525 3012 
Q 1850 3000 2150 2862 
Q 2450 2725 2587 2487 
Q 2725 2250 2787 2012 
Q 2850 1775 2837 1500 
Q 2825 1225 2725 937 
Q 2625 650 2425 462 
Q 2225 275 1937 162 
Q 1650 50 1275 75 
Q 900 100 562 350 
Q 225 600 100 1200 
L 550 1325 
z
" transform="scale(0.015625)"/>
       </defs>
       <use xlink:href="#SimHei-35"/>
       <use xlink:href="#SimHei-30" x="50"/>
      </g>
     </g>
    </g>
    <g id="xtick_3">
     <g id="line2d_3">
      <g>
       <use xlink:href="#mdc6fd30f35" x="372.636759" y="354.76" style="stroke: #000000; stroke-width: 0.8"/>
      </g>
     </g>
     <g id="text_3">
      <!-- 100 -->
      <g transform="translate(351.636759 381.01) scale(0.28 -0.28)">
       <defs>
        <path id="SimHei-31" d="M 1400 3600 
Q 1075 3275 575 2975 
L 575 3450 
Q 1200 3875 1600 4450 
L 1900 4450 
L 1900 150 
L 1400 150 
L 1400 3600 
z
" transform="scale(0.015625)"/>
       </defs>
       <use xlink:href="#SimHei-31"/>
       <use xlink:href="#SimHei-30" x="50"/>
       <use xlink:href="#SimHei-30" x="100"/>
      </g>
     </g>
    </g>
    <g id="xtick_4">
     <g id="line2d_4">
      <g>
       <use xlink:href="#mdc6fd30f35" x="487.475744" y="354.76" style="stroke: #000000; stroke-width: 0.8"/>
      </g>
     </g>
     <g id="text_4">
      <!-- 150 -->
      <g transform="translate(466.475744 381.01) scale(0.28 -0.28)">
       <use xlink:href="#SimHei-31"/>
       <use xlink:href="#SimHei-35" x="50"/>
       <use xlink:href="#SimHei-30" x="100"/>
      </g>
     </g>
    </g>
    <g id="xtick_5">
     <g id="line2d_5">
      <g>
       <use xlink:href="#mdc6fd30f35" x="602.314729" y="354.76" style="stroke: #000000; stroke-width: 0.8"/>
      </g>
     </g>
     <g id="text_5">
      <!-- 200 -->
      <g transform="translate(581.314729 381.01) scale(0.28 -0.28)">
       <defs>
        <path id="SimHei-32" d="M 300 250 
Q 325 625 650 925 
Q 975 1225 1475 1862 
Q 1975 2500 2125 2850 
Q 2275 3200 2237 3450 
Q 2200 3700 2000 3862 
Q 1800 4025 1537 4000 
Q 1275 3975 1037 3800 
Q 800 3625 675 3275 
L 200 3350 
Q 400 3925 712 4187 
Q 1025 4450 1450 4475 
Q 1700 4500 1900 4462 
Q 2100 4425 2312 4287 
Q 2525 4150 2662 3875 
Q 2800 3600 2762 3212 
Q 2725 2825 2375 2287 
Q 2025 1750 1025 600 
L 2825 600 
L 2825 150 
L 300 150 
L 300 250 
z
" transform="scale(0.015625)"/>
       </defs>
       <use xlink:href="#SimHei-32"/>
       <use xlink:href="#SimHei-30" x="50"/>
       <use xlink:href="#SimHei-30" x="100"/>
      </g>
     </g>
    </g>
    <g id="xtick_6">
     <g id="line2d_6">
      <g>
       <use xlink:href="#mdc6fd30f35" x="717.153714" y="354.76" style="stroke: #000000; stroke-width: 0.8"/>
      </g>
     </g>
     <g id="text_6">
      <!-- 250 -->
      <g transform="translate(696.153714 381.01) scale(0.28 -0.28)">
       <use xlink:href="#SimHei-32"/>
       <use xlink:href="#SimHei-35" x="50"/>
       <use xlink:href="#SimHei-30" x="100"/>
      </g>
     </g>
    </g>
    <g id="xtick_7">
     <g id="line2d_7">
      <g>
       <use xlink:href="#mdc6fd30f35" x="831.992699" y="354.76" style="stroke: #000000; stroke-width: 0.8"/>
      </g>
     </g>
     <g id="text_7">
      <!-- 300 -->
      <g transform="translate(810.992699 381.01) scale(0.28 -0.28)">
       <defs>
        <path id="SimHei-33" d="M 250 1225 
L 700 1300 
Q 800 975 1025 762 
Q 1250 550 1587 562 
Q 1925 575 2125 837 
Q 2325 1100 2300 1437 
Q 2275 1775 2037 1962 
Q 1800 2150 1275 2225 
L 1275 2550 
Q 1800 2600 2037 2825 
Q 2275 3050 2250 3412 
Q 2225 3775 1925 3937 
Q 1625 4100 1287 3975 
Q 950 3850 750 3275 
L 300 3350 
Q 450 3800 712 4100 
Q 975 4400 1425 4450 
Q 1875 4500 2212 4337 
Q 2550 4175 2687 3837 
Q 2825 3500 2725 3100 
Q 2625 2700 2150 2400 
Q 2500 2250 2687 1950 
Q 2875 1650 2812 1162 
Q 2750 675 2375 375 
Q 2000 75 1525 87 
Q 1050 100 700 387 
Q 350 675 250 1225 
z
" transform="scale(0.015625)"/>
       </defs>
       <use xlink:href="#SimHei-33"/>
       <use xlink:href="#SimHei-30" x="50"/>
       <use xlink:href="#SimHei-30" x="100"/>
      </g>
     </g>
    </g>
    <g id="text_8">
     <!-- Time Steps -->
     <g transform="translate(372.546676 416.3225) scale(0.4 -0.4)">
      <defs>
       <path id="SimHei-54" d="M 2850 3925 
L 1850 3925 
L 1850 125 
L 1275 125 
L 1275 3925 
L 275 3925 
L 275 4400 
L 2850 4400 
L 2850 3925 
z
" transform="scale(0.015625)"/>
       <path id="SimHei-69" d="M 1800 3725 
L 1300 3725 
L 1300 4375 
L 1800 4375 
L 1800 3725 
z
M 1800 125 
L 1300 125 
L 1300 2925 
L 1800 2925 
L 1800 125 
z
" transform="scale(0.015625)"/>
       <path id="SimHei-6d" d="M 3050 125 
L 2550 125 
L 2550 2150 
Q 2550 2300 2500 2400 
Q 2450 2500 2300 2500 
Q 2125 2500 1975 2312 
Q 1825 2125 1825 1825 
L 1825 125 
L 1325 125 
L 1325 2150 
Q 1325 2300 1275 2400 
Q 1225 2500 1075 2500 
Q 900 2500 750 2312 
Q 600 2125 600 1825 
L 600 125 
L 100 125 
L 100 2925 
L 600 2925 
L 600 2550 
Q 725 2750 900 2862 
Q 1075 2975 1275 2975 
Q 1475 2975 1612 2862 
Q 1750 2750 1800 2550 
Q 1925 2750 2087 2862 
Q 2250 2975 2450 2975 
Q 2750 2975 2900 2812 
Q 3050 2650 3050 2350 
L 3050 125 
z
" transform="scale(0.015625)"/>
       <path id="SimHei-65" d="M 2850 1075 
Q 2800 625 2450 350 
Q 2100 75 1625 75 
Q 1025 75 637 462 
Q 250 850 250 1525 
Q 250 2200 637 2587 
Q 1025 2975 1625 2975 
Q 2150 2975 2487 2637 
Q 2825 2300 2825 1525 
L 800 1525 
Q 800 975 1037 750 
Q 1275 525 1625 525 
Q 1900 525 2075 662 
Q 2250 800 2300 1075 
L 2850 1075 
z
M 2250 1925 
Q 2200 2275 2025 2412 
Q 1850 2550 1575 2550 
Q 1325 2550 1125 2412 
Q 925 2275 825 1925 
L 2250 1925 
z
" transform="scale(0.015625)"/>
       <path id="SimHei-20" transform="scale(0.015625)"/>
       <path id="SimHei-53" d="M 2900 1325 
Q 2900 750 2537 412 
Q 2175 75 1550 75 
Q 925 75 575 425 
Q 225 775 225 1300 
L 225 1475 
L 800 1475 
L 800 1325 
Q 800 950 1025 750 
Q 1250 550 1550 550 
Q 1950 550 2137 762 
Q 2325 975 2325 1275 
Q 2325 1525 2100 1737 
Q 1875 1950 1450 2125 
Q 850 2350 587 2625 
Q 325 2900 325 3275 
Q 325 3800 687 4125 
Q 1050 4450 1550 4450 
Q 2200 4450 2487 4062 
Q 2775 3675 2775 3225 
L 2200 3225 
Q 2225 3500 2050 3725 
Q 1875 3950 1550 3950 
Q 1250 3950 1075 3787 
Q 900 3625 900 3350 
Q 900 3125 1037 2962 
Q 1175 2800 1750 2575 
Q 2300 2350 2600 2037 
Q 2900 1725 2900 1325 
z
" transform="scale(0.015625)"/>
       <path id="SimHei-74" d="M 2750 200 
Q 2625 150 2462 112 
Q 2300 75 2025 75 
Q 1575 75 1300 325 
Q 1025 575 1025 1025 
L 1025 2525 
L 175 2525 
L 175 2925 
L 1025 2925 
L 1025 3900 
L 1525 3900 
L 1525 2925 
L 2550 2925 
L 2550 2525 
L 1525 2525 
L 1525 1000 
Q 1525 800 1625 662 
Q 1725 525 2000 525 
Q 2275 525 2450 575 
Q 2625 625 2750 700 
L 2750 200 
z
" transform="scale(0.015625)"/>
       <path id="SimHei-70" d="M 2825 1525 
Q 2825 800 2475 425 
Q 2125 50 1625 50 
Q 1350 50 1150 162 
Q 950 275 800 500 
L 800 -800 
L 300 -800 
L 300 2925 
L 800 2925 
L 800 2550 
Q 950 2775 1150 2875 
Q 1350 2975 1625 2975 
Q 2125 2975 2475 2612 
Q 2825 2250 2825 1525 
z
M 2275 1525 
Q 2275 2000 2087 2262 
Q 1900 2525 1525 2525 
Q 1225 2525 1012 2262 
Q 800 2000 800 1525 
Q 800 1050 1012 775 
Q 1225 500 1525 500 
Q 1900 500 2087 775 
Q 2275 1050 2275 1525 
z
" transform="scale(0.015625)"/>
       <path id="SimHei-73" d="M 2750 900 
Q 2750 500 2437 287 
Q 2125 75 1650 75 
Q 1050 75 725 312 
Q 400 550 400 1000 
L 900 1000 
Q 900 700 1112 600 
Q 1325 500 1625 500 
Q 1925 500 2075 612 
Q 2225 725 2225 900 
Q 2225 1025 2100 1150 
Q 1975 1275 1475 1350 
Q 900 1425 687 1637 
Q 475 1850 475 2200 
Q 475 2500 762 2737 
Q 1050 2975 1600 2975 
Q 2100 2975 2387 2750 
Q 2675 2525 2675 2150 
L 2175 2150 
Q 2175 2375 2012 2462 
Q 1850 2550 1600 2550 
Q 1275 2550 1137 2437 
Q 1000 2325 1000 2175 
Q 1000 2000 1125 1900 
Q 1250 1800 1650 1750 
Q 2300 1650 2525 1437 
Q 2750 1225 2750 900 
z
" transform="scale(0.015625)"/>
      </defs>
      <use xlink:href="#SimHei-54"/>
      <use xlink:href="#SimHei-69" x="50"/>
      <use xlink:href="#SimHei-6d" x="100"/>
      <use xlink:href="#SimHei-65" x="150"/>
      <use xlink:href="#SimHei-20" x="200"/>
      <use xlink:href="#SimHei-53" x="250"/>
      <use xlink:href="#SimHei-74" x="300"/>
      <use xlink:href="#SimHei-65" x="350"/>
      <use xlink:href="#SimHei-70" x="400"/>
      <use xlink:href="#SimHei-73" x="450"/>
     </g>
    </g>
   </g>
   <g id="matplotlib.axis_2">
    <g id="ytick_1">
     <g id="line2d_8">
      <defs>
       <path id="me4728cdf24" d="M 0 0 
L -3.5 0 
" style="stroke: #000000; stroke-width: 0.8"/>
      </defs>
      <g>
       <use xlink:href="#me4728cdf24" x="110" y="354.76" style="stroke: #000000; stroke-width: 0.8"/>
      </g>
     </g>
     <g id="text_9">
      <!-- -100 -->
      <g transform="translate(47 364.385) scale(0.28 -0.28)">
       <defs>
        <path id="SimHei-2d" d="M 2975 2125 
L 125 2125 
L 125 2525 
L 2975 2525 
L 2975 2125 
z
" transform="scale(0.015625)"/>
       </defs>
       <use xlink:href="#SimHei-2d"/>
       <use xlink:href="#SimHei-31" x="50"/>
       <use xlink:href="#SimHei-30" x="100"/>
       <use xlink:href="#SimHei-30" x="150"/>
      </g>
     </g>
    </g>
    <g id="ytick_2">
     <g id="line2d_9">
      <g>
       <use xlink:href="#me4728cdf24" x="110" y="299.106532" style="stroke: #000000; stroke-width: 0.8"/>
      </g>
     </g>
     <g id="text_10">
      <!-- 0 -->
      <g transform="translate(89 308.731532) scale(0.28 -0.28)">
       <use xlink:href="#SimHei-30"/>
      </g>
     </g>
    </g>
    <g id="ytick_3">
     <g id="line2d_10">
      <g>
       <use xlink:href="#me4728cdf24" x="110" y="243.453065" style="stroke: #000000; stroke-width: 0.8"/>
      </g>
     </g>
     <g id="text_11">
      <!-- 100 -->
      <g transform="translate(61 253.078065) scale(0.28 -0.28)">
       <use xlink:href="#SimHei-31"/>
       <use xlink:href="#SimHei-30" x="50"/>
       <use xlink:href="#SimHei-30" x="100"/>
      </g>
     </g>
    </g>
    <g id="ytick_4">
     <g id="line2d_11">
      <g>
       <use xlink:href="#me4728cdf24" x="110" y="187.799597" style="stroke: #000000; stroke-width: 0.8"/>
      </g>
     </g>
     <g id="text_12">
      <!-- 200 -->
      <g transform="translate(61 197.424597) scale(0.28 -0.28)">
       <use xlink:href="#SimHei-32"/>
       <use xlink:href="#SimHei-30" x="50"/>
       <use xlink:href="#SimHei-30" x="100"/>
      </g>
     </g>
    </g>
    <g id="ytick_5">
     <g id="line2d_12">
      <g>
       <use xlink:href="#me4728cdf24" x="110" y="132.14613" style="stroke: #000000; stroke-width: 0.8"/>
      </g>
     </g>
     <g id="text_13">
      <!-- 300 -->
      <g transform="translate(61 141.77113) scale(0.28 -0.28)">
       <use xlink:href="#SimHei-33"/>
       <use xlink:href="#SimHei-30" x="50"/>
       <use xlink:href="#SimHei-30" x="100"/>
      </g>
     </g>
    </g>
    <g id="ytick_6">
     <g id="line2d_13">
      <g>
       <use xlink:href="#me4728cdf24" x="110" y="76.492662" style="stroke: #000000; stroke-width: 0.8"/>
      </g>
     </g>
     <g id="text_14">
      <!-- 400 -->
      <g transform="translate(61 86.117662) scale(0.28 -0.28)">
       <defs>
        <path id="SimHei-34" d="M 2000 1100 
L 75 1100 
L 75 1525 
L 2100 4450 
L 2475 4450 
L 2475 1525 
L 3075 1525 
L 3075 1100 
L 2475 1100 
L 2475 150 
L 2000 150 
L 2000 1100 
z
M 2000 1525 
L 2000 3500 
L 600 1525 
L 2000 1525 
z
" transform="scale(0.015625)"/>
       </defs>
       <use xlink:href="#SimHei-34"/>
       <use xlink:href="#SimHei-30" x="50"/>
       <use xlink:href="#SimHei-30" x="100"/>
      </g>
     </g>
    </g>
    <g id="ytick_7">
     <g id="line2d_14">
      <g>
       <use xlink:href="#me4728cdf24" x="110" y="20.839195" style="stroke: #000000; stroke-width: 0.8"/>
      </g>
     </g>
     <g id="text_15">
      <!-- 500 -->
      <g transform="translate(61 30.464195) scale(0.28 -0.28)">
       <use xlink:href="#SimHei-35"/>
       <use xlink:href="#SimHei-30" x="50"/>
       <use xlink:href="#SimHei-30" x="100"/>
      </g>
     </g>
    </g>
    <g id="text_16">
     <!-- $m_{vct}$ -->
     <g transform="translate(35.8 224.472385) rotate(-90) scale(0.4 -0.4)">
      <defs>
       <path id="DejaVuSans-Oblique-6d" d="M 5747 2113 
L 5338 0 
L 4763 0 
L 5166 2094 
Q 5191 2228 5203 2325 
Q 5216 2422 5216 2491 
Q 5216 2772 5059 2928 
Q 4903 3084 4622 3084 
Q 4203 3084 3875 2770 
Q 3547 2456 3450 1953 
L 3066 0 
L 2491 0 
L 2900 2094 
Q 2925 2209 2937 2307 
Q 2950 2406 2950 2484 
Q 2950 2769 2794 2926 
Q 2638 3084 2363 3084 
Q 1938 3084 1609 2770 
Q 1281 2456 1184 1953 
L 800 0 
L 225 0 
L 909 3500 
L 1484 3500 
L 1375 2956 
Q 1609 3263 1923 3423 
Q 2238 3584 2597 3584 
Q 2978 3584 3223 3384 
Q 3469 3184 3519 2828 
Q 3781 3197 4126 3390 
Q 4472 3584 4856 3584 
Q 5306 3584 5551 3325 
Q 5797 3066 5797 2591 
Q 5797 2488 5784 2364 
Q 5772 2241 5747 2113 
z
" transform="scale(0.015625)"/>
       <path id="DejaVuSans-Oblique-76" d="M 459 3500 
L 1069 3500 
L 1581 525 
L 3256 3500 
L 3866 3500 
L 1875 0 
L 1100 0 
L 459 3500 
z
" transform="scale(0.015625)"/>
       <path id="DejaVuSans-Oblique-63" d="M 3431 3366 
L 3316 2797 
Q 3109 2947 2876 3022 
Q 2644 3097 2394 3097 
Q 2119 3097 1870 3000 
Q 1622 2903 1453 2725 
Q 1184 2453 1037 2087 
Q 891 1722 891 1331 
Q 891 859 1127 628 
Q 1363 397 1844 397 
Q 2081 397 2348 469 
Q 2616 541 2906 684 
L 2797 116 
Q 2547 13 2283 -39 
Q 2019 -91 1741 -91 
Q 1044 -91 669 257 
Q 294 606 294 1253 
Q 294 1797 489 2255 
Q 684 2713 1069 3078 
Q 1331 3328 1684 3456 
Q 2038 3584 2456 3584 
Q 2700 3584 2940 3529 
Q 3181 3475 3431 3366 
z
" transform="scale(0.015625)"/>
       <path id="DejaVuSans-Oblique-74" d="M 2706 3500 
L 2619 3053 
L 1472 3053 
L 1100 1153 
Q 1081 1047 1072 975 
Q 1063 903 1063 863 
Q 1063 663 1183 572 
Q 1303 481 1569 481 
L 2150 481 
L 2053 0 
L 1503 0 
Q 991 0 739 200 
Q 488 400 488 806 
Q 488 878 497 964 
Q 506 1050 525 1153 
L 897 3053 
L 409 3053 
L 500 3500 
L 978 3500 
L 1172 4494 
L 1747 4494 
L 1556 3500 
L 2706 3500 
z
" transform="scale(0.015625)"/>
      </defs>
      <use xlink:href="#DejaVuSans-Oblique-6d"/>
      <use xlink:href="#DejaVuSans-Oblique-76" transform="translate(97.412109 -16.40625) scale(0.7)"/>
      <use xlink:href="#DejaVuSans-Oblique-63" transform="translate(138.837891 -16.40625) scale(0.7)"/>
      <use xlink:href="#DejaVuSans-Oblique-74" transform="translate(177.324219 -16.40625) scale(0.7)"/>
     </g>
    </g>
   </g>
   <g id="line2d_15">
    <path d="M 142.958789 299.106532 
L 400.198115 299.106532 
L 404.791674 298.735509 
L 413.978793 297.251417 
L 439.24337 295.21079 
L 802.134563 295.21079 
L 802.134563 295.21079 
" clip-path="url(#p4ae00cf1ef)" style="fill: none; stroke: #0000ff; stroke-width: 3; stroke-linecap: square"/>
   </g>
   <g id="line2d_16">
    <path d="M 142.958789 299.106532 
L 368.043199 299.106532 
L 377.230318 298.364486 
L 450.727268 298.364486 
L 453.024048 298.178975 
L 459.914387 298.178975 
L 466.804726 297.62244 
L 478.288625 297.62244 
L 485.178964 297.065905 
L 487.475744 297.065905 
L 492.069303 296.694882 
L 528.817778 290.758512 
L 549.488796 285.7497 
L 588.53405 273.134914 
L 590.83083 272.207357 
L 595.42439 270.723264 
L 597.721169 269.795706 
L 632.172865 253.099666 
L 652.843882 244.751646 
L 655.140662 243.638577 
L 659.734221 241.041415 
L 666.62456 236.589137 
L 668.92134 234.734022 
L 671.21812 233.249929 
L 680.405238 225.829467 
L 689.592357 219.151051 
L 694.185917 215.44082 
L 698.779476 211.359565 
L 705.669815 204.681149 
L 719.450493 190.211248 
L 726.340832 183.532832 
L 737.824731 171.47458 
L 742.41829 167.022303 
L 744.71507 164.610653 
L 751.605409 157.932237 
L 758.495748 150.697286 
L 763.089308 146.245008 
L 765.386087 143.833358 
L 767.682867 141.607219 
L 772.276426 136.783919 
L 774.573206 134.186757 
L 781.463545 125.838737 
L 783.760325 123.241575 
L 786.057105 120.458902 
L 788.353884 117.86174 
L 790.650664 114.893555 
L 795.244223 109.328208 
L 797.541003 106.731046 
L 799.837783 103.948373 
L 802.134563 101.351211 
L 802.134563 101.351211 
" clip-path="url(#p4ae00cf1ef)" style="fill: none; stroke: #008000; stroke-width: 3; stroke-linecap: square"/>
   </g>
   <g id="line2d_17">
    <path d="M 142.958789 299.106532 
L 370.339979 299.106532 
L 381.823877 298.178975 
L 430.056251 290.387489 
L 434.649811 289.27442 
L 436.94659 288.532374 
L 443.836929 285.7497 
L 446.133709 285.007654 
L 448.430489 284.080096 
L 450.727268 283.33805 
L 453.024048 282.410492 
L 462.211167 279.442307 
L 469.101506 276.659634 
L 471.398286 275.917588 
L 508.146761 261.076663 
L 512.74032 259.592571 
L 515.0371 258.665013 
L 521.927439 256.438874 
L 524.224219 255.511316 
L 526.520999 254.76927 
L 581.643711 232.507883 
L 675.811679 186.87204 
L 678.108459 185.944482 
L 721.747273 164.796164 
L 724.044053 163.868606 
L 735.527951 158.30326 
L 740.121511 156.448144 
L 742.41829 155.335075 
L 747.01185 153.479959 
L 756.198969 149.027682 
L 767.682867 144.389893 
L 769.979647 143.647847 
L 781.463545 139.010058 
L 786.057105 136.783919 
L 790.650664 134.928803 
L 802.134563 129.363457 
L 802.134563 129.363457 
" clip-path="url(#p4ae00cf1ef)" style="fill: none; stroke: #ff0000; stroke-width: 3; stroke-linecap: square"/>
   </g>
   <g id="line2d_18">
    <path d="M 142.958789 299.106532 
L 287.65591 299.106532 
L 331.294724 295.581813 
L 374.933538 295.581813 
L 393.307776 294.09772 
L 395.604556 293.726697 
L 402.494895 293.170163 
L 418.572353 290.573001 
L 485.178964 274.433495 
L 489.772523 272.949403 
L 492.069303 272.392868 
L 505.849981 267.940591 
L 512.74032 266.270987 
L 526.520999 261.818709 
L 538.004897 257.18092 
L 544.895236 254.954782 
L 565.566253 246.606761 
L 570.159813 244.380623 
L 577.050152 240.48488 
L 583.940491 236.032603 
L 613.798627 214.32775 
L 629.876085 203.939103 
L 634.469644 201.341941 
L 636.766424 200.228872 
L 639.063204 198.930291 
L 643.656763 195.962106 
L 645.953543 194.663525 
L 648.250323 193.179433 
L 664.327781 181.492204 
L 675.811679 174.071742 
L 707.966595 150.697286 
L 710.263375 148.84217 
L 717.153714 143.833358 
L 721.747273 140.123127 
L 751.605409 113.594974 
L 758.495748 108.029627 
L 763.089308 103.948373 
L 767.682867 100.238142 
L 769.979647 98.197515 
L 776.869986 92.632168 
L 790.650664 80.388405 
L 802.134563 69.257712 
L 802.134563 69.257712 
" clip-path="url(#p4ae00cf1ef)" style="fill: none; stroke: #ffa500; stroke-width: 3; stroke-linecap: square"/>
   </g>
   <g id="patch_3">
    <path d="M 110 354.76 
L 110 10.984769 
" style="fill: none; stroke: #000000; stroke-width: 0.8; stroke-linejoin: miter; stroke-linecap: square"/>
   </g>
   <g id="patch_4">
    <path d="M 835.093351 354.76 
L 835.093351 10.984769 
" style="fill: none; stroke: #000000; stroke-width: 0.8; stroke-linejoin: miter; stroke-linecap: square"/>
   </g>
   <g id="patch_5">
    <path d="M 110 354.76 
L 835.093351 354.76 
" style="fill: none; stroke: #000000; stroke-width: 0.8; stroke-linejoin: miter; stroke-linecap: square"/>
   </g>
   <g id="patch_6">
    <path d="M 110 10.984769 
L 835.093351 10.984769 
" style="fill: none; stroke: #000000; stroke-width: 0.8; stroke-linejoin: miter; stroke-linecap: square"/>
   </g>
  </g>
 </g>
 <defs>
  <clipPath id="p4ae00cf1ef">
   <rect x="110" y="10.984769" width="725.093351" height="343.775231"/>
  </clipPath>
 </defs>
</svg>
