<?xml version="1.0" encoding="utf-8" standalone="no"?>
<!DOCTYPE svg PUBLIC "-//W3C//DTD SVG 1.1//EN"
  "http://www.w3.org/Graphics/SVG/1.1/DTD/svg11.dtd">
<svg xmlns:xlink="http://www.w3.org/1999/xlink" width="720pt" height="432pt" viewBox="0 0 720 432" xmlns="http://www.w3.org/2000/svg" version="1.1">
 <metadata>
  <rdf:RDF xmlns:dc="http://purl.org/dc/elements/1.1/" xmlns:cc="http://creativecommons.org/ns#" xmlns:rdf="http://www.w3.org/1999/02/22-rdf-syntax-ns#">
   <cc:Work>
    <dc:type rdf:resource="http://purl.org/dc/dcmitype/StillImage"/>
    <dc:date>2025-06-19T21:17:51.766191</dc:date>
    <dc:format>image/svg+xml</dc:format>
    <dc:creator>
     <cc:Agent>
      <dc:title>Matplotlib v3.7.1, https://matplotlib.org/</dc:title>
     </cc:Agent>
    </dc:creator>
   </cc:Work>
  </rdf:RDF>
 </metadata>
 <defs>
  <style type="text/css">*{stroke-linejoin: round; stroke-linecap: butt}</style>
 </defs>
 <g id="figure_1">
  <g id="patch_1">
   <path d="M 0 432 
L 720 432 
L 720 0 
L 0 0 
z
" style="fill: #ffffff"/>
  </g>
  <g id="axes_1">
   <g id="patch_2">
    <path d="M 98.93 351.16 
L 709.2 351.16 
L 709.2 10.8 
L 98.93 10.8 
z
" style="fill: #ffffff"/>
   </g>
   <g id="PolyCollection_1">
    <defs>
     <path id="m8b094bcbaf" d="M 126.669545 -306.697789 
L 126.669545 -302.326506 
L 130.368152 -299.551988 
L 134.066758 -297.657466 
L 137.765364 -291.543145 
L 141.46397 -286.113071 
L 145.162576 -284.940494 
L 148.861182 -274.97888 
L 152.559788 -274.835441 
L 156.258394 -271.466229 
L 159.957 -271.672929 
L 163.655606 -265.296805 
L 167.354212 -263.790646 
L 171.052818 -261.159747 
L 174.751424 -261.836693 
L 178.45003 -258.547981 
L 182.148636 -250.599933 
L 185.847242 -256.482828 
L 189.545848 -252.210477 
L 193.244455 -255.885282 
L 196.943061 -258.485757 
L 200.641667 -256.02747 
L 204.340273 -255.7317 
L 208.038879 -255.551888 
L 211.737485 -257.129638 
L 215.436091 -254.234509 
L 219.134697 -251.865318 
L 222.833303 -254.602002 
L 226.531909 -254.449976 
L 230.230515 -253.062721 
L 233.929121 -250.299235 
L 237.627727 -250.423018 
L 241.326333 -247.020099 
L 245.024939 -244.690212 
L 248.723545 -240.613064 
L 252.422152 -248.300692 
L 256.120758 -246.137514 
L 259.819364 -251.558948 
L 263.51797 -247.51823 
L 267.216576 -245.796963 
L 270.915182 -244.869225 
L 274.613788 -247.719148 
L 278.312394 -246.730101 
L 282.011 -240.842339 
L 285.709606 -237.664279 
L 289.408212 -241.971792 
L 293.106818 -237.419852 
L 296.805424 -237.745301 
L 300.50403 -237.175126 
L 304.202636 -234.927709 
L 307.901242 -229.049732 
L 311.599848 -230.781647 
L 315.298455 -229.498821 
L 318.997061 -230.34802 
L 322.695667 -225.147922 
L 326.394273 -228.139335 
L 330.092879 -225.769851 
L 333.791485 -222.027464 
L 337.490091 -223.053768 
L 341.188697 -216.684578 
L 344.887303 -218.510238 
L 348.585909 -215.161829 
L 352.284515 -216.401963 
L 355.983121 -214.097427 
L 359.681727 -220.359214 
L 363.380333 -219.511634 
L 367.078939 -213.570569 
L 370.777545 -211.68679 
L 374.476152 -208.740679 
L 378.174758 -210.4922 
L 381.873364 -213.208067 
L 385.57197 -213.983088 
L 389.270576 -212.977885 
L 392.969182 -209.761745 
L 396.667788 -205.352259 
L 400.366394 -204.049554 
L 404.065 -194.673607 
L 407.763606 -195.338473 
L 411.462212 -191.14769 
L 415.160818 -187.272304 
L 418.859424 -186.939922 
L 422.55803 -186.174397 
L 426.256636 -179.601294 
L 429.955242 -175.091477 
L 433.653848 -173.150152 
L 437.352455 -172.272233 
L 441.051061 -170.383397 
L 444.749667 -166.356743 
L 448.448273 -162.574473 
L 452.146879 -158.612189 
L 455.845485 -153.547231 
L 459.544091 -148.572844 
L 463.242697 -146.221608 
L 466.941303 -144.380278 
L 470.639909 -140.83305 
L 474.338515 -138.878575 
L 478.037121 -136.138518 
L 481.735727 -136.71063 
L 485.434333 -130.101659 
L 489.132939 -123.622728 
L 492.831545 -119.169468 
L 496.530152 -114.062075 
L 500.228758 -112.501038 
L 503.927364 -114.753925 
L 507.62597 -114.510618 
L 511.324576 -115.598777 
L 515.023182 -118.236801 
L 518.721788 -116.455789 
L 522.420394 -112.786346 
L 526.119 -107.237174 
L 529.817606 -107.16283 
L 533.516212 -111.854375 
L 537.214818 -109.321698 
L 540.913424 -107.26667 
L 544.61203 -105.395725 
L 548.310636 -101.124012 
L 552.009242 -105.38845 
L 555.707848 -101.827881 
L 559.406455 -102.828543 
L 563.105061 -106.354174 
L 566.803667 -106.461584 
L 570.502273 -105.328754 
L 574.200879 -109.771889 
L 577.899485 -110.795666 
L 581.598091 -111.52458 
L 585.296697 -109.81048 
L 588.995303 -106.207801 
L 592.693909 -106.408294 
L 596.392515 -104.942125 
L 600.091121 -104.30287 
L 603.789727 -99.966764 
L 607.488333 -101.846242 
L 611.186939 -102.630843 
L 614.885545 -103.129961 
L 618.584152 -98.88051 
L 622.282758 -98.722288 
L 625.981364 -97.989355 
L 629.67997 -99.769199 
L 633.378576 -105.884039 
L 637.077182 -105.259533 
L 640.775788 -102.428981 
L 644.474394 -102.099342 
L 648.173 -98.792325 
L 651.871606 -96.759746 
L 655.570212 -99.86624 
L 659.268818 -100.096071 
L 662.967424 -101.282265 
L 666.66603 -100.28322 
L 670.364636 -103.316696 
L 674.063242 -97.090788 
L 677.761848 -96.310909 
L 681.460455 -97.178978 
L 681.460455 -103.829039 
L 681.460455 -103.829039 
L 677.761848 -107.873416 
L 674.063242 -108.821003 
L 670.364636 -112.263331 
L 666.66603 -110.671656 
L 662.967424 -112.068774 
L 659.268818 -108.044708 
L 655.570212 -108.915373 
L 651.871606 -109.820741 
L 648.173 -108.958381 
L 644.474394 -105.95785 
L 640.775788 -107.690025 
L 637.077182 -106.614801 
L 633.378576 -110.141785 
L 629.67997 -112.801693 
L 625.981364 -112.659035 
L 622.282758 -114.823787 
L 618.584152 -117.591112 
L 614.885545 -118.161848 
L 611.186939 -120.13767 
L 607.488333 -130.50692 
L 603.789727 -132.024188 
L 600.091121 -125.681992 
L 596.392515 -122.200777 
L 592.693909 -122.350625 
L 588.995303 -121.325175 
L 585.296697 -119.812172 
L 581.598091 -118.237384 
L 577.899485 -121.613221 
L 574.200879 -125.673995 
L 570.502273 -130.953 
L 566.803667 -131.352599 
L 563.105061 -131.237111 
L 559.406455 -126.849833 
L 555.707848 -135.401193 
L 552.009242 -138.6669 
L 548.310636 -136.857345 
L 544.61203 -140.303504 
L 540.913424 -141.246656 
L 537.214818 -140.333985 
L 533.516212 -146.104289 
L 529.817606 -143.858108 
L 526.119 -144.396736 
L 522.420394 -148.794423 
L 518.721788 -148.022665 
L 515.023182 -151.340464 
L 511.324576 -155.789541 
L 507.62597 -158.270817 
L 503.927364 -150.643987 
L 500.228758 -156.88119 
L 496.530152 -162.118566 
L 492.831545 -165.509191 
L 489.132939 -169.470361 
L 485.434333 -168.619625 
L 481.735727 -166.329319 
L 478.037121 -162.192693 
L 474.338515 -162.015973 
L 470.639909 -165.884729 
L 466.941303 -170.97483 
L 463.242697 -176.71206 
L 459.544091 -186.369498 
L 455.845485 -186.744682 
L 452.146879 -184.465959 
L 448.448273 -187.524988 
L 444.749667 -189.649536 
L 441.051061 -196.461337 
L 437.352455 -193.541594 
L 433.653848 -200.54872 
L 429.955242 -204.319177 
L 426.256636 -208.781038 
L 422.55803 -208.699863 
L 418.859424 -209.411043 
L 415.160818 -209.970256 
L 411.462212 -216.821876 
L 407.763606 -223.831757 
L 404.065 -225.05387 
L 400.366394 -233.537691 
L 396.667788 -234.881909 
L 392.969182 -233.788044 
L 389.270576 -234.389046 
L 385.57197 -241.018127 
L 381.873364 -236.610751 
L 378.174758 -228.794648 
L 374.476152 -230.546169 
L 370.777545 -226.346253 
L 367.078939 -231.149438 
L 363.380333 -232.173961 
L 359.681727 -233.611094 
L 355.983121 -235.609941 
L 352.284515 -238.292766 
L 348.585909 -234.824163 
L 344.887303 -237.020362 
L 341.188697 -244.139869 
L 337.490091 -244.65268 
L 333.791485 -247.991558 
L 330.092879 -245.001455 
L 326.394273 -240.765193 
L 322.695667 -242.558526 
L 318.997061 -241.091983 
L 315.298455 -240.965999 
L 311.599848 -238.81944 
L 307.901242 -239.297549 
L 304.202636 -241.666828 
L 300.50403 -242.790756 
L 296.805424 -245.313302 
L 293.106818 -248.397124 
L 289.408212 -250.894359 
L 285.709606 -248.319871 
L 282.011 -245.72692 
L 278.312394 -249.981054 
L 274.613788 -253.310672 
L 270.915182 -260.033462 
L 267.216576 -257.712606 
L 263.51797 -253.03793 
L 259.819364 -256.408598 
L 256.120758 -250.852265 
L 252.422152 -253.620723 
L 248.723545 -256.460302 
L 245.024939 -259.515916 
L 241.326333 -254.622693 
L 237.627727 -255.315539 
L 233.929121 -253.488957 
L 230.230515 -257.69106 
L 226.531909 -256.72174 
L 222.833303 -261.167002 
L 219.134697 -260.337305 
L 215.436091 -262.06388 
L 211.737485 -265.103432 
L 208.038879 -267.823538 
L 204.340273 -267.197929 
L 200.641667 -266.372773 
L 196.943061 -265.669815 
L 193.244455 -267.462282 
L 189.545848 -272.502342 
L 185.847242 -272.799417 
L 182.148636 -276.28615 
L 178.45003 -282.5479 
L 174.751424 -287.56217 
L 171.052818 -292.08412 
L 167.354212 -298.898558 
L 163.655606 -300.401533 
L 159.957 -304.027994 
L 156.258394 -306.825892 
L 152.559788 -307.162373 
L 148.861182 -305.319331 
L 145.162576 -304.134358 
L 141.46397 -301.707975 
L 137.765364 -303.745011 
L 134.066758 -305.877946 
L 130.368152 -303.370452 
L 126.669545 -306.697789 
z
" style="stroke: #0000ff; stroke-opacity: 0.3"/>
    </defs>
    <g clip-path="url(#p56ed63dfc3)">
     <use xlink:href="#m8b094bcbaf" x="0" y="432" style="fill: #0000ff; fill-opacity: 0.3; stroke: #0000ff; stroke-opacity: 0.3"/>
    </g>
   </g>
   <g id="PolyCollection_2">
    <defs>
     <path id="m375f413f40" d="M 126.669545 -314.014834 
L 126.669545 -308.996361 
L 130.368152 -305.527707 
L 134.066758 -307.666928 
L 137.765364 -310.443715 
L 141.46397 -305.985438 
L 145.162576 -308.567077 
L 148.861182 -303.767845 
L 152.559788 -307.997335 
L 156.258394 -304.577949 
L 159.957 -303.185926 
L 163.655606 -299.925829 
L 167.354212 -299.690015 
L 171.052818 -297.900872 
L 174.751424 -297.536617 
L 178.45003 -294.566516 
L 182.148636 -289.982991 
L 185.847242 -288.276927 
L 189.545848 -284.298269 
L 193.244455 -280.2675 
L 196.943061 -279.215432 
L 200.641667 -277.734763 
L 204.340273 -275.918397 
L 208.038879 -268.896296 
L 211.737485 -269.883453 
L 215.436091 -266.188192 
L 219.134697 -267.696019 
L 222.833303 -267.191695 
L 226.531909 -269.219671 
L 230.230515 -269.321644 
L 233.929121 -266.759817 
L 237.627727 -266.538516 
L 241.326333 -265.4271 
L 245.024939 -268.014387 
L 248.723545 -266.102295 
L 252.422152 -266.961547 
L 256.120758 -269.984321 
L 259.819364 -264.666157 
L 263.51797 -267.292723 
L 267.216576 -271.3357 
L 270.915182 -268.382538 
L 274.613788 -272.391426 
L 278.312394 -267.624854 
L 282.011 -268.19997 
L 285.709606 -261.964114 
L 289.408212 -261.245601 
L 293.106818 -261.111815 
L 296.805424 -258.778092 
L 300.50403 -258.596389 
L 304.202636 -259.190736 
L 307.901242 -265.605831 
L 311.599848 -265.589581 
L 315.298455 -266.60574 
L 318.997061 -260.895119 
L 322.695667 -260.744293 
L 326.394273 -265.064003 
L 330.092879 -258.061103 
L 333.791485 -261.525908 
L 337.490091 -255.117293 
L 341.188697 -256.744292 
L 344.887303 -250.610143 
L 348.585909 -248.487135 
L 352.284515 -247.034095 
L 355.983121 -247.066757 
L 359.681727 -243.885747 
L 363.380333 -247.587434 
L 367.078939 -248.754336 
L 370.777545 -249.154893 
L 374.476152 -250.733283 
L 378.174758 -246.953581 
L 381.873364 -245.12997 
L 385.57197 -244.048458 
L 389.270576 -241.92693 
L 392.969182 -240.022974 
L 396.667788 -240.369796 
L 400.366394 -241.903461 
L 404.065 -238.586873 
L 407.763606 -234.594598 
L 411.462212 -228.085738 
L 415.160818 -225.074565 
L 418.859424 -228.291678 
L 422.55803 -220.982277 
L 426.256636 -220.237871 
L 429.955242 -214.278481 
L 433.653848 -209.837498 
L 437.352455 -204.964642 
L 441.051061 -202.137256 
L 444.749667 -201.791547 
L 448.448273 -202.415151 
L 452.146879 -198.828388 
L 455.845485 -195.586346 
L 459.544091 -197.012154 
L 463.242697 -191.105447 
L 466.941303 -190.850805 
L 470.639909 -190.32086 
L 474.338515 -191.178159 
L 478.037121 -188.842062 
L 481.735727 -186.841087 
L 485.434333 -187.784376 
L 489.132939 -193.426064 
L 492.831545 -202.391094 
L 496.530152 -204.887489 
L 500.228758 -208.171909 
L 503.927364 -207.950576 
L 507.62597 -207.676391 
L 511.324576 -204.174708 
L 515.023182 -203.025814 
L 518.721788 -201.728785 
L 522.420394 -200.962569 
L 526.119 -201.164796 
L 529.817606 -202.13072 
L 533.516212 -208.446288 
L 537.214818 -213.602349 
L 540.913424 -213.373887 
L 544.61203 -213.755607 
L 548.310636 -212.381499 
L 552.009242 -212.495502 
L 555.707848 -219.931212 
L 559.406455 -216.687742 
L 563.105061 -220.116367 
L 566.803667 -216.487567 
L 570.502273 -219.214947 
L 574.200879 -211.502713 
L 577.899485 -219.582728 
L 581.598091 -221.704815 
L 585.296697 -222.795315 
L 588.995303 -218.207812 
L 592.693909 -215.121899 
L 596.392515 -214.293875 
L 600.091121 -218.088798 
L 603.789727 -221.502047 
L 607.488333 -225.630789 
L 611.186939 -223.607777 
L 614.885545 -223.589592 
L 618.584152 -228.764914 
L 622.282758 -225.078731 
L 625.981364 -218.957372 
L 629.67997 -211.545397 
L 633.378576 -208.348979 
L 637.077182 -205.551461 
L 640.775788 -207.559755 
L 644.474394 -204.613928 
L 648.173 -208.028399 
L 651.871606 -201.702861 
L 655.570212 -205.562867 
L 659.268818 -197.69409 
L 662.967424 -199.035798 
L 666.66603 -199.241449 
L 670.364636 -192.054786 
L 674.063242 -189.615848 
L 677.761848 -181.841311 
L 681.460455 -190.329812 
L 681.460455 -265.535136 
L 681.460455 -265.535136 
L 677.761848 -267.030186 
L 674.063242 -264.159423 
L 670.364636 -266.094875 
L 666.66603 -269.830254 
L 662.967424 -269.924455 
L 659.268818 -270.541742 
L 655.570212 -279.08389 
L 651.871606 -276.451968 
L 648.173 -277.175605 
L 644.474394 -279.224821 
L 640.775788 -274.189317 
L 637.077182 -276.587684 
L 633.378576 -274.013065 
L 629.67997 -282.435248 
L 625.981364 -284.301436 
L 622.282758 -277.288482 
L 618.584152 -277.530891 
L 614.885545 -282.956974 
L 611.186939 -279.790343 
L 607.488333 -283.20049 
L 603.789727 -286.744122 
L 600.091121 -285.532221 
L 596.392515 -283.726811 
L 592.693909 -284.208318 
L 588.995303 -280.175085 
L 585.296697 -276.590626 
L 581.598091 -272.192242 
L 577.899485 -271.973893 
L 574.200879 -266.317768 
L 570.502273 -272.703884 
L 566.803667 -274.678981 
L 563.105061 -276.399752 
L 559.406455 -271.943331 
L 555.707848 -267.083845 
L 552.009242 -269.47647 
L 548.310636 -265.438982 
L 544.61203 -261.027878 
L 540.913424 -265.310327 
L 537.214818 -266.391396 
L 533.516212 -269.764266 
L 529.817606 -270.730263 
L 526.119 -270.470243 
L 522.420394 -270.67247 
L 518.721788 -271.577995 
L 515.023182 -269.250059 
L 511.324576 -270.748088 
L 507.62597 -271.035685 
L 503.927364 -267.334431 
L 500.228758 -261.066968 
L 496.530152 -261.53729 
L 492.831545 -259.910057 
L 489.132939 -255.361847 
L 485.434333 -256.601283 
L 481.735727 -255.231997 
L 478.037121 -253.537507 
L 474.338515 -260.479574 
L 470.639909 -257.547593 
L 466.941303 -253.646303 
L 463.242697 -255.592787 
L 459.544091 -253.224599 
L 455.845485 -256.461459 
L 452.146879 -261.550261 
L 448.448273 -265.347021 
L 444.749667 -264.828269 
L 441.051061 -263.64669 
L 437.352455 -261.432275 
L 433.653848 -258.063986 
L 429.955242 -253.205068 
L 426.256636 -254.127678 
L 422.55803 -248.758122 
L 418.859424 -248.497896 
L 415.160818 -245.947502 
L 411.462212 -246.196224 
L 407.763606 -246.792264 
L 404.065 -256.285367 
L 400.366394 -264.420206 
L 396.667788 -264.616478 
L 392.969182 -267.025114 
L 389.270576 -267.656632 
L 385.57197 -262.108034 
L 381.873364 -262.280328 
L 378.174758 -261.738386 
L 374.476152 -260.772781 
L 370.777545 -258.116094 
L 367.078939 -251.941136 
L 363.380333 -255.838548 
L 359.681727 -253.884178 
L 355.983121 -259.25691 
L 352.284515 -260.961313 
L 348.585909 -258.75599 
L 344.887303 -264.963825 
L 341.188697 -258.188841 
L 337.490091 -264.636028 
L 333.791485 -265.388036 
L 330.092879 -264.227691 
L 326.394273 -267.923935 
L 322.695667 -271.2406 
L 318.997061 -273.848146 
L 315.298455 -278.056523 
L 311.599848 -269.850244 
L 307.901242 -272.898852 
L 304.202636 -271.261728 
L 300.50403 -278.459452 
L 296.805424 -279.698729 
L 293.106818 -281.182148 
L 289.408212 -281.354847 
L 285.709606 -280.218399 
L 282.011 -280.418747 
L 278.312394 -280.798827 
L 274.613788 -283.555089 
L 270.915182 -283.607523 
L 267.216576 -287.592087 
L 263.51797 -283.554982 
L 259.819364 -287.184592 
L 256.120758 -288.414082 
L 252.422152 -288.093373 
L 248.723545 -288.172479 
L 245.024939 -290.244703 
L 241.326333 -290.714452 
L 237.627727 -295.286955 
L 233.929121 -291.276375 
L 230.230515 -291.277884 
L 226.531909 -293.525258 
L 222.833303 -296.779177 
L 219.134697 -302.26526 
L 215.436091 -299.31511 
L 211.737485 -299.854926 
L 208.038879 -304.71495 
L 204.340273 -304.073328 
L 200.641667 -310.030558 
L 196.943061 -314.48457 
L 193.244455 -313.293191 
L 189.545848 -312.940252 
L 185.847242 -309.881051 
L 182.148636 -307.924226 
L 178.45003 -308.160888 
L 174.751424 -303.128973 
L 171.052818 -308.253601 
L 167.354212 -309.668628 
L 163.655606 -314.4759 
L 159.957 -316.760411 
L 156.258394 -316.566469 
L 152.559788 -317.159262 
L 148.861182 -317.571609 
L 145.162576 -317.286079 
L 141.46397 -317.471555 
L 137.765364 -317.30408 
L 134.066758 -316.820972 
L 130.368152 -315.533124 
L 126.669545 -314.014834 
z
" style="stroke: #008000; stroke-opacity: 0.3"/>
    </defs>
    <g clip-path="url(#p56ed63dfc3)">
     <use xlink:href="#m375f413f40" x="0" y="432" style="fill: #008000; fill-opacity: 0.3; stroke: #008000; stroke-opacity: 0.3"/>
    </g>
   </g>
   <g id="PolyCollection_3">
    <defs>
     <path id="m979a0b46ac" d="M 126.669545 -399.988008 
L 126.669545 -397.552959 
L 130.368152 -398.257873 
L 134.066758 -398.474767 
L 137.765364 -396.573089 
L 141.46397 -394.835125 
L 145.162576 -395.486056 
L 148.861182 -393.572973 
L 152.559788 -395.016311 
L 156.258394 -391.490582 
L 159.957 -396.179888 
L 163.655606 -391.502856 
L 167.354212 -392.061068 
L 171.052818 -392.8398 
L 174.751424 -393.333965 
L 178.45003 -394.680638 
L 182.148636 -393.327641 
L 185.847242 -390.445769 
L 189.545848 -390.693826 
L 193.244455 -387.358578 
L 196.943061 -391.435916 
L 200.641667 -390.516917 
L 204.340273 -390.28096 
L 208.038879 -385.530458 
L 211.737485 -384.418404 
L 215.436091 -382.373295 
L 219.134697 -382.347236 
L 222.833303 -380.015554 
L 226.531909 -382.07559 
L 230.230515 -379.280625 
L 233.929121 -375.089589 
L 237.627727 -376.467125 
L 241.326333 -378.150887 
L 245.024939 -377.9876 
L 248.723545 -377.743949 
L 252.422152 -373.08449 
L 256.120758 -377.466442 
L 259.819364 -378.432937 
L 263.51797 -381.082418 
L 267.216576 -378.981686 
L 270.915182 -379.525397 
L 274.613788 -378.06369 
L 278.312394 -377.653382 
L 282.011 -379.096399 
L 285.709606 -381.963005 
L 289.408212 -376.431858 
L 293.106818 -379.060744 
L 296.805424 -376.106313 
L 300.50403 -375.400893 
L 304.202636 -377.987348 
L 307.901242 -376.09032 
L 311.599848 -377.363738 
L 315.298455 -376.581636 
L 318.997061 -378.07327 
L 322.695667 -377.575584 
L 326.394273 -381.101952 
L 330.092879 -383.741666 
L 333.791485 -381.223779 
L 337.490091 -383.817547 
L 341.188697 -377.681556 
L 344.887303 -377.831604 
L 348.585909 -378.26784 
L 352.284515 -380.050593 
L 355.983121 -380.71863 
L 359.681727 -381.312744 
L 363.380333 -378.20516 
L 367.078939 -377.070493 
L 370.777545 -379.122197 
L 374.476152 -377.076792 
L 378.174758 -378.028462 
L 381.873364 -381.087459 
L 385.57197 -381.963487 
L 389.270576 -379.81096 
L 392.969182 -381.427978 
L 396.667788 -379.057135 
L 400.366394 -374.862652 
L 404.065 -375.484402 
L 407.763606 -371.55332 
L 411.462212 -366.995015 
L 415.160818 -366.307364 
L 418.859424 -365.005634 
L 422.55803 -366.178035 
L 426.256636 -365.212619 
L 429.955242 -364.814495 
L 433.653848 -366.473575 
L 437.352455 -363.559193 
L 441.051061 -366.364219 
L 444.749667 -360.132286 
L 448.448273 -365.687594 
L 452.146879 -366.462225 
L 455.845485 -368.249257 
L 459.544091 -366.680064 
L 463.242697 -364.580615 
L 466.941303 -363.995028 
L 470.639909 -362.963732 
L 474.338515 -365.331291 
L 478.037121 -364.153994 
L 481.735727 -363.457126 
L 485.434333 -361.410705 
L 489.132939 -360.902287 
L 492.831545 -362.833278 
L 496.530152 -365.600928 
L 500.228758 -367.735669 
L 503.927364 -370.662993 
L 507.62597 -369.492296 
L 511.324576 -369.57563 
L 515.023182 -367.038642 
L 518.721788 -368.71358 
L 522.420394 -365.840546 
L 526.119 -365.898553 
L 529.817606 -365.924191 
L 533.516212 -361.65137 
L 537.214818 -361.256464 
L 540.913424 -355.920889 
L 544.61203 -354.703283 
L 548.310636 -353.044083 
L 552.009242 -354.277752 
L 555.707848 -353.663805 
L 559.406455 -351.35628 
L 563.105061 -355.097808 
L 566.803667 -357.864388 
L 570.502273 -357.094382 
L 574.200879 -358.908066 
L 577.899485 -356.131681 
L 581.598091 -356.341028 
L 585.296697 -351.811589 
L 588.995303 -351.463769 
L 592.693909 -347.45689 
L 596.392515 -346.98815 
L 600.091121 -350.015359 
L 603.789727 -350.955456 
L 607.488333 -355.909794 
L 611.186939 -351.033685 
L 614.885545 -353.778938 
L 618.584152 -357.22208 
L 622.282758 -357.172676 
L 625.981364 -353.568605 
L 629.67997 -353.986033 
L 633.378576 -350.600419 
L 637.077182 -344.298737 
L 640.775788 -341.764229 
L 644.474394 -341.416525 
L 648.173 -336.804207 
L 651.871606 -332.867206 
L 655.570212 -337.187368 
L 659.268818 -334.037767 
L 662.967424 -338.489965 
L 666.66603 -336.103847 
L 670.364636 -337.007228 
L 674.063242 -339.566315 
L 677.761848 -342.553822 
L 681.460455 -337.571495 
L 681.460455 -403.576072 
L 681.460455 -403.576072 
L 677.761848 -402.160126 
L 674.063242 -403.698791 
L 670.364636 -399.765949 
L 666.66603 -397.910959 
L 662.967424 -396.082087 
L 659.268818 -398.11026 
L 655.570212 -400.978927 
L 651.871606 -399.559445 
L 648.173 -397.879295 
L 644.474394 -401.430646 
L 640.775788 -399.801273 
L 637.077182 -395.260676 
L 633.378576 -398.209295 
L 629.67997 -397.470604 
L 625.981364 -396.662089 
L 622.282758 -397.766755 
L 618.584152 -398.163149 
L 614.885545 -397.621975 
L 611.186939 -396.884434 
L 607.488333 -397.775831 
L 603.789727 -398.578679 
L 600.091121 -401.023343 
L 596.392515 -400.48417 
L 592.693909 -398.956662 
L 588.995303 -399.992868 
L 585.296697 -399.589324 
L 581.598091 -395.338508 
L 577.899485 -395.269231 
L 574.200879 -396.282126 
L 570.502273 -391.603882 
L 566.803667 -392.366306 
L 563.105061 -397.111112 
L 559.406455 -394.890097 
L 555.707848 -396.901237 
L 552.009242 -394.726998 
L 548.310636 -396.880125 
L 544.61203 -396.056795 
L 540.913424 -397.430388 
L 537.214818 -394.964636 
L 533.516212 -395.572774 
L 529.817606 -398.209816 
L 526.119 -395.532806 
L 522.420394 -397.178967 
L 518.721788 -395.33684 
L 515.023182 -393.640433 
L 511.324576 -395.561422 
L 507.62597 -393.973015 
L 503.927364 -394.613371 
L 500.228758 -396.704824 
L 496.530152 -397.36286 
L 492.831545 -396.313369 
L 489.132939 -394.538666 
L 485.434333 -395.311917 
L 481.735727 -394.797925 
L 478.037121 -392.457179 
L 474.338515 -393.620319 
L 470.639909 -395.319181 
L 466.941303 -395.263067 
L 463.242697 -395.346177 
L 459.544091 -394.416947 
L 455.845485 -393.934386 
L 452.146879 -396.585151 
L 448.448273 -396.496049 
L 444.749667 -392.996092 
L 441.051061 -394.537755 
L 437.352455 -393.637089 
L 433.653848 -393.25818 
L 429.955242 -396.143204 
L 426.256636 -398.252692 
L 422.55803 -396.312093 
L 418.859424 -399.044786 
L 415.160818 -400.724328 
L 411.462212 -399.925227 
L 407.763606 -400.521457 
L 404.065 -397.537695 
L 400.366394 -397.546474 
L 396.667788 -398.617975 
L 392.969182 -396.776517 
L 389.270576 -396.888968 
L 385.57197 -396.463907 
L 381.873364 -395.417432 
L 378.174758 -394.854324 
L 374.476152 -394.914399 
L 370.777545 -397.410557 
L 367.078939 -394.642074 
L 363.380333 -395.429909 
L 359.681727 -397.421136 
L 355.983121 -397.820213 
L 352.284515 -398.432525 
L 348.585909 -398.738574 
L 344.887303 -396.527886 
L 341.188697 -398.823335 
L 337.490091 -402.522754 
L 333.791485 -402.079526 
L 330.092879 -402.542911 
L 326.394273 -402.452114 
L 322.695667 -400.043802 
L 318.997061 -402.750286 
L 315.298455 -403.573224 
L 311.599848 -401.760214 
L 307.901242 -402.977908 
L 304.202636 -402.39041 
L 300.50403 -401.494071 
L 296.805424 -402.293218 
L 293.106818 -402.487233 
L 289.408212 -405.729091 
L 285.709606 -403.652875 
L 282.011 -401.337084 
L 278.312394 -402.501477 
L 274.613788 -401.589647 
L 270.915182 -401.493196 
L 267.216576 -404.795279 
L 263.51797 -402.722409 
L 259.819364 -401.582611 
L 256.120758 -403.552151 
L 252.422152 -403.058191 
L 248.723545 -403.079607 
L 245.024939 -401.860774 
L 241.326333 -404.010062 
L 237.627727 -402.991176 
L 233.929121 -403.672153 
L 230.230515 -402.211628 
L 226.531909 -402.70442 
L 222.833303 -402.981265 
L 219.134697 -402.126288 
L 215.436091 -402.378852 
L 211.737485 -401.225339 
L 208.038879 -402.509447 
L 204.340273 -401.743262 
L 200.641667 -398.888244 
L 196.943061 -401.563488 
L 193.244455 -403.244664 
L 189.545848 -402.194128 
L 185.847242 -401.522727 
L 182.148636 -402.736621 
L 178.45003 -402.804604 
L 174.751424 -402.925334 
L 171.052818 -403.419499 
L 167.354212 -401.272684 
L 163.655606 -403.502637 
L 159.957 -399.7172 
L 156.258394 -401.341647 
L 152.559788 -403.527701 
L 148.861182 -401.293208 
L 145.162576 -401.135453 
L 141.46397 -400.950514 
L 137.765364 -398.961788 
L 134.066758 -400.932978 
L 130.368152 -399.756754 
L 126.669545 -399.988008 
z
" style="stroke: #ff0000; stroke-opacity: 0.3"/>
    </defs>
    <g clip-path="url(#p56ed63dfc3)">
     <use xlink:href="#m979a0b46ac" x="0" y="432" style="fill: #ff0000; fill-opacity: 0.3; stroke: #ff0000; stroke-opacity: 0.3"/>
    </g>
   </g>
   <g id="PolyCollection_4">
    <defs>
     <path id="ma22942216e" d="M 126.669545 -400.610149 
L 126.669545 -398.797596 
L 130.368152 -399.323431 
L 134.066758 -398.624821 
L 137.765364 -399.447751 
L 141.46397 -398.320386 
L 145.162576 -395.193042 
L 148.861182 -396.895375 
L 152.559788 -394.070217 
L 156.258394 -395.477196 
L 159.957 -395.870649 
L 163.655606 -397.06757 
L 167.354212 -396.080607 
L 171.052818 -394.630435 
L 174.751424 -394.278265 
L 178.45003 -396.609312 
L 182.148636 -399.753247 
L 185.847242 -396.23194 
L 189.545848 -393.849439 
L 193.244455 -398.168063 
L 196.943061 -398.199206 
L 200.641667 -398.917856 
L 204.340273 -398.301844 
L 208.038879 -398.558036 
L 211.737485 -398.595389 
L 215.436091 -396.566528 
L 219.134697 -397.548811 
L 222.833303 -397.114794 
L 226.531909 -396.527465 
L 230.230515 -393.98226 
L 233.929121 -392.766287 
L 237.627727 -393.873201 
L 241.326333 -393.647402 
L 245.024939 -394.168456 
L 248.723545 -395.127516 
L 252.422152 -397.89675 
L 256.120758 -395.735608 
L 259.819364 -394.195668 
L 263.51797 -391.290883 
L 267.216576 -391.738761 
L 270.915182 -390.878888 
L 274.613788 -389.642154 
L 278.312394 -384.4993 
L 282.011 -384.569536 
L 285.709606 -385.241203 
L 289.408212 -383.019936 
L 293.106818 -380.127513 
L 296.805424 -380.849374 
L 300.50403 -381.129087 
L 304.202636 -381.662022 
L 307.901242 -378.386285 
L 311.599848 -379.007008 
L 315.298455 -377.24919 
L 318.997061 -377.090926 
L 322.695667 -377.685667 
L 326.394273 -375.456028 
L 330.092879 -375.253991 
L 333.791485 -378.942712 
L 337.490091 -379.050541 
L 341.188697 -375.587109 
L 344.887303 -375.712759 
L 348.585909 -374.18866 
L 352.284515 -371.699081 
L 355.983121 -368.656045 
L 359.681727 -369.409828 
L 363.380333 -366.739723 
L 367.078939 -365.384298 
L 370.777545 -365.561373 
L 374.476152 -363.736049 
L 378.174758 -363.232546 
L 381.873364 -362.363312 
L 385.57197 -366.942809 
L 389.270576 -365.682822 
L 392.969182 -364.412964 
L 396.667788 -365.841355 
L 400.366394 -367.291047 
L 404.065 -366.247439 
L 407.763606 -366.813766 
L 411.462212 -364.384041 
L 415.160818 -360.469451 
L 418.859424 -362.628713 
L 422.55803 -359.617839 
L 426.256636 -357.236598 
L 429.955242 -360.072138 
L 433.653848 -358.249303 
L 437.352455 -358.013364 
L 441.051061 -362.862163 
L 444.749667 -361.28729 
L 448.448273 -363.720295 
L 452.146879 -357.074205 
L 455.845485 -358.31531 
L 459.544091 -362.23649 
L 463.242697 -361.464675 
L 466.941303 -359.576216 
L 470.639909 -363.876098 
L 474.338515 -363.410429 
L 478.037121 -362.34654 
L 481.735727 -360.541498 
L 485.434333 -361.279949 
L 489.132939 -358.071748 
L 492.831545 -357.13751 
L 496.530152 -349.744297 
L 500.228758 -353.651207 
L 503.927364 -354.51139 
L 507.62597 -360.420698 
L 511.324576 -360.365964 
L 515.023182 -360.4319 
L 518.721788 -357.12601 
L 522.420394 -359.841529 
L 526.119 -362.244042 
L 529.817606 -364.787677 
L 533.516212 -367.287227 
L 537.214818 -361.771032 
L 540.913424 -369.539877 
L 544.61203 -366.72749 
L 548.310636 -364.207828 
L 552.009242 -366.048483 
L 555.707848 -365.225894 
L 559.406455 -364.515234 
L 563.105061 -368.541033 
L 566.803667 -373.196366 
L 570.502273 -370.515809 
L 574.200879 -372.933173 
L 577.899485 -370.105554 
L 581.598091 -370.963107 
L 585.296697 -372.294899 
L 588.995303 -371.010401 
L 592.693909 -369.419758 
L 596.392515 -371.210218 
L 600.091121 -367.67631 
L 603.789727 -366.360669 
L 607.488333 -362.227311 
L 611.186939 -365.55897 
L 614.885545 -364.783435 
L 618.584152 -361.715436 
L 622.282758 -361.600437 
L 625.981364 -359.492699 
L 629.67997 -359.277762 
L 633.378576 -361.038819 
L 637.077182 -357.333508 
L 640.775788 -355.058115 
L 644.474394 -355.796807 
L 648.173 -357.231888 
L 651.871606 -357.755942 
L 655.570212 -352.973899 
L 659.268818 -353.997735 
L 662.967424 -355.602861 
L 666.66603 -355.775565 
L 670.364636 -354.471565 
L 674.063242 -350.825118 
L 677.761848 -356.753477 
L 681.460455 -353.553917 
L 681.460455 -355.524083 
L 681.460455 -355.524083 
L 677.761848 -357.423333 
L 674.063242 -357.444875 
L 670.364636 -355.693067 
L 666.66603 -358.652007 
L 662.967424 -360.134242 
L 659.268818 -356.361934 
L 655.570212 -359.475446 
L 651.871606 -359.095655 
L 648.173 -364.718518 
L 644.474394 -364.426134 
L 640.775788 -365.972834 
L 637.077182 -369.548535 
L 633.378576 -366.121847 
L 629.67997 -373.817585 
L 625.981364 -366.191263 
L 622.282758 -366.368238 
L 618.584152 -365.222331 
L 614.885545 -366.556584 
L 611.186939 -366.03181 
L 607.488333 -373.654272 
L 603.789727 -376.960161 
L 600.091121 -375.951006 
L 596.392515 -378.184605 
L 592.693909 -380.058653 
L 588.995303 -377.827175 
L 585.296697 -373.004159 
L 581.598091 -372.775659 
L 577.899485 -372.351543 
L 574.200879 -374.706322 
L 570.502273 -375.953467 
L 566.803667 -378.59462 
L 563.105061 -376.618713 
L 559.406455 -376.966682 
L 555.707848 -376.534645 
L 552.009242 -379.445611 
L 548.310636 -379.614525 
L 544.61203 -378.627292 
L 540.913424 -376.790087 
L 537.214818 -375.838016 
L 533.516212 -375.364907 
L 529.817606 -376.805688 
L 526.119 -374.22265 
L 522.420394 -372.529397 
L 518.721788 -372.375094 
L 515.023182 -376.508452 
L 511.324576 -374.038914 
L 507.62597 -374.290665 
L 503.927364 -372.203479 
L 500.228758 -370.08239 
L 496.530152 -365.742044 
L 492.831545 -362.890394 
L 489.132939 -358.111152 
L 485.434333 -363.289518 
L 481.735727 -366.451995 
L 478.037121 -366.680904 
L 474.338515 -365.617015 
L 470.639909 -364.900585 
L 466.941303 -363.516547 
L 463.242697 -364.97157 
L 459.544091 -366.846678 
L 455.845485 -364.777453 
L 452.146879 -362.117829 
L 448.448273 -365.808671 
L 444.749667 -362.390583 
L 441.051061 -366.053832 
L 437.352455 -363.017585 
L 433.653848 -359.549613 
L 429.955242 -362.909176 
L 426.256636 -362.12261 
L 422.55803 -364.700867 
L 418.859424 -365.702172 
L 415.160818 -366.301142 
L 411.462212 -367.4575 
L 407.763606 -367.089589 
L 404.065 -369.439107 
L 400.366394 -369.064196 
L 396.667788 -373.327985 
L 392.969182 -370.047638 
L 389.270576 -376.439927 
L 385.57197 -378.13335 
L 381.873364 -376.666716 
L 378.174758 -382.540171 
L 374.476152 -382.64964 
L 370.777545 -382.189572 
L 367.078939 -383.982663 
L 363.380333 -390.066486 
L 359.681727 -388.678049 
L 355.983121 -391.549371 
L 352.284515 -389.509379 
L 348.585909 -387.270561 
L 344.887303 -389.897953 
L 341.188697 -394.815927 
L 337.490091 -396.03337 
L 333.791485 -397.422867 
L 330.092879 -395.901329 
L 326.394273 -397.482482 
L 322.695667 -401.800496 
L 318.997061 -398.132297 
L 315.298455 -400.06371 
L 311.599848 -397.999406 
L 307.901242 -397.81212 
L 304.202636 -397.935591 
L 300.50403 -398.663562 
L 296.805424 -402.481794 
L 293.106818 -400.696043 
L 289.408212 -400.199782 
L 285.709606 -396.195325 
L 282.011 -396.114708 
L 278.312394 -396.714328 
L 274.613788 -396.419524 
L 270.915182 -399.390005 
L 267.216576 -397.137015 
L 263.51797 -400.984099 
L 259.819364 -401.367072 
L 256.120758 -400.858039 
L 252.422152 -403.767845 
L 248.723545 -396.506632 
L 245.024939 -403.428235 
L 241.326333 -401.803888 
L 237.627727 -398.680405 
L 233.929121 -398.282752 
L 230.230515 -398.710658 
L 226.531909 -400.428393 
L 222.833303 -402.237225 
L 219.134697 -401.134513 
L 215.436091 -402.674042 
L 211.737485 -400.171522 
L 208.038879 -402.577174 
L 204.340273 -400.074993 
L 200.641667 -402.858188 
L 196.943061 -402.100134 
L 193.244455 -398.286273 
L 189.545848 -403.385042 
L 185.847242 -400.723918 
L 182.148636 -400.462506 
L 178.45003 -402.519809 
L 174.751424 -401.646685 
L 171.052818 -398.452556 
L 167.354212 -397.420319 
L 163.655606 -399.944012 
L 159.957 -397.407378 
L 156.258394 -397.132135 
L 152.559788 -398.483389 
L 148.861182 -397.998668 
L 145.162576 -398.50292 
L 141.46397 -401.393845 
L 137.765364 -399.959994 
L 134.066758 -399.334081 
L 130.368152 -402.396889 
L 126.669545 -400.610149 
z
" style="stroke: #ffa500; stroke-opacity: 0.3"/>
    </defs>
    <g clip-path="url(#p56ed63dfc3)">
     <use xlink:href="#ma22942216e" x="0" y="432" style="fill: #ffa500; fill-opacity: 0.3; stroke: #ffa500; stroke-opacity: 0.3"/>
    </g>
   </g>
   <g id="matplotlib.axis_1">
    <g id="xtick_1">
     <g id="line2d_1">
      <defs>
       <path id="m07c17960bf" d="M 0 0 
L 0 3.5 
" style="stroke: #000000; stroke-width: 0.8"/>
      </defs>
      <g>
       <use xlink:href="#m07c17960bf" x="126.669545" y="351.16" style="stroke: #000000; stroke-width: 0.8"/>
      </g>
     </g>
     <g id="text_1">
      <!-- 0 -->
      <g transform="translate(120.307045 373.356875) scale(0.2 -0.2)">
       <defs>
        <path id="DejaVuSans-30" d="M 2034 4250 
Q 1547 4250 1301 3770 
Q 1056 3291 1056 2328 
Q 1056 1369 1301 889 
Q 1547 409 2034 409 
Q 2525 409 2770 889 
Q 3016 1369 3016 2328 
Q 3016 3291 2770 3770 
Q 2525 4250 2034 4250 
z
M 2034 4750 
Q 2819 4750 3233 4129 
Q 3647 3509 3647 2328 
Q 3647 1150 3233 529 
Q 2819 -91 2034 -91 
Q 1250 -91 836 529 
Q 422 1150 422 2328 
Q 422 3509 836 4129 
Q 1250 4750 2034 4750 
z
" transform="scale(0.015625)"/>
       </defs>
       <use xlink:href="#DejaVuSans-30"/>
      </g>
     </g>
    </g>
    <g id="xtick_2">
     <g id="line2d_2">
      <g>
       <use xlink:href="#m07c17960bf" x="200.641667" y="351.16" style="stroke: #000000; stroke-width: 0.8"/>
      </g>
     </g>
     <g id="text_2">
      <!-- 20 -->
      <g transform="translate(187.916667 373.356875) scale(0.2 -0.2)">
       <defs>
        <path id="DejaVuSans-32" d="M 1228 531 
L 3431 531 
L 3431 0 
L 469 0 
L 469 531 
Q 828 903 1448 1529 
Q 2069 2156 2228 2338 
Q 2531 2678 2651 2914 
Q 2772 3150 2772 3378 
Q 2772 3750 2511 3984 
Q 2250 4219 1831 4219 
Q 1534 4219 1204 4116 
Q 875 4013 500 3803 
L 500 4441 
Q 881 4594 1212 4672 
Q 1544 4750 1819 4750 
Q 2544 4750 2975 4387 
Q 3406 4025 3406 3419 
Q 3406 3131 3298 2873 
Q 3191 2616 2906 2266 
Q 2828 2175 2409 1742 
Q 1991 1309 1228 531 
z
" transform="scale(0.015625)"/>
       </defs>
       <use xlink:href="#DejaVuSans-32"/>
       <use xlink:href="#DejaVuSans-30" x="63.623047"/>
      </g>
     </g>
    </g>
    <g id="xtick_3">
     <g id="line2d_3">
      <g>
       <use xlink:href="#m07c17960bf" x="274.613788" y="351.16" style="stroke: #000000; stroke-width: 0.8"/>
      </g>
     </g>
     <g id="text_3">
      <!-- 40 -->
      <g transform="translate(261.888788 373.356875) scale(0.2 -0.2)">
       <defs>
        <path id="DejaVuSans-34" d="M 2419 4116 
L 825 1625 
L 2419 1625 
L 2419 4116 
z
M 2253 4666 
L 3047 4666 
L 3047 1625 
L 3713 1625 
L 3713 1100 
L 3047 1100 
L 3047 0 
L 2419 0 
L 2419 1100 
L 313 1100 
L 313 1709 
L 2253 4666 
z
" transform="scale(0.015625)"/>
       </defs>
       <use xlink:href="#DejaVuSans-34"/>
       <use xlink:href="#DejaVuSans-30" x="63.623047"/>
      </g>
     </g>
    </g>
    <g id="xtick_4">
     <g id="line2d_4">
      <g>
       <use xlink:href="#m07c17960bf" x="348.585909" y="351.16" style="stroke: #000000; stroke-width: 0.8"/>
      </g>
     </g>
     <g id="text_4">
      <!-- 60 -->
      <g transform="translate(335.860909 373.356875) scale(0.2 -0.2)">
       <defs>
        <path id="DejaVuSans-36" d="M 2113 2584 
Q 1688 2584 1439 2293 
Q 1191 2003 1191 1497 
Q 1191 994 1439 701 
Q 1688 409 2113 409 
Q 2538 409 2786 701 
Q 3034 994 3034 1497 
Q 3034 2003 2786 2293 
Q 2538 2584 2113 2584 
z
M 3366 4563 
L 3366 3988 
Q 3128 4100 2886 4159 
Q 2644 4219 2406 4219 
Q 1781 4219 1451 3797 
Q 1122 3375 1075 2522 
Q 1259 2794 1537 2939 
Q 1816 3084 2150 3084 
Q 2853 3084 3261 2657 
Q 3669 2231 3669 1497 
Q 3669 778 3244 343 
Q 2819 -91 2113 -91 
Q 1303 -91 875 529 
Q 447 1150 447 2328 
Q 447 3434 972 4092 
Q 1497 4750 2381 4750 
Q 2619 4750 2861 4703 
Q 3103 4656 3366 4563 
z
" transform="scale(0.015625)"/>
       </defs>
       <use xlink:href="#DejaVuSans-36"/>
       <use xlink:href="#DejaVuSans-30" x="63.623047"/>
      </g>
     </g>
    </g>
    <g id="xtick_5">
     <g id="line2d_5">
      <g>
       <use xlink:href="#m07c17960bf" x="422.55803" y="351.16" style="stroke: #000000; stroke-width: 0.8"/>
      </g>
     </g>
     <g id="text_5">
      <!-- 80 -->
      <g transform="translate(409.83303 373.356875) scale(0.2 -0.2)">
       <defs>
        <path id="DejaVuSans-38" d="M 2034 2216 
Q 1584 2216 1326 1975 
Q 1069 1734 1069 1313 
Q 1069 891 1326 650 
Q 1584 409 2034 409 
Q 2484 409 2743 651 
Q 3003 894 3003 1313 
Q 3003 1734 2745 1975 
Q 2488 2216 2034 2216 
z
M 1403 2484 
Q 997 2584 770 2862 
Q 544 3141 544 3541 
Q 544 4100 942 4425 
Q 1341 4750 2034 4750 
Q 2731 4750 3128 4425 
Q 3525 4100 3525 3541 
Q 3525 3141 3298 2862 
Q 3072 2584 2669 2484 
Q 3125 2378 3379 2068 
Q 3634 1759 3634 1313 
Q 3634 634 3220 271 
Q 2806 -91 2034 -91 
Q 1263 -91 848 271 
Q 434 634 434 1313 
Q 434 1759 690 2068 
Q 947 2378 1403 2484 
z
M 1172 3481 
Q 1172 3119 1398 2916 
Q 1625 2713 2034 2713 
Q 2441 2713 2670 2916 
Q 2900 3119 2900 3481 
Q 2900 3844 2670 4047 
Q 2441 4250 2034 4250 
Q 1625 4250 1398 4047 
Q 1172 3844 1172 3481 
z
" transform="scale(0.015625)"/>
       </defs>
       <use xlink:href="#DejaVuSans-38"/>
       <use xlink:href="#DejaVuSans-30" x="63.623047"/>
      </g>
     </g>
    </g>
    <g id="xtick_6">
     <g id="line2d_6">
      <g>
       <use xlink:href="#m07c17960bf" x="496.530152" y="351.16" style="stroke: #000000; stroke-width: 0.8"/>
      </g>
     </g>
     <g id="text_6">
      <!-- 100 -->
      <g transform="translate(477.442652 373.356875) scale(0.2 -0.2)">
       <defs>
        <path id="DejaVuSans-31" d="M 794 531 
L 1825 531 
L 1825 4091 
L 703 3866 
L 703 4441 
L 1819 4666 
L 2450 4666 
L 2450 531 
L 3481 531 
L 3481 0 
L 794 0 
L 794 531 
z
" transform="scale(0.015625)"/>
       </defs>
       <use xlink:href="#DejaVuSans-31"/>
       <use xlink:href="#DejaVuSans-30" x="63.623047"/>
       <use xlink:href="#DejaVuSans-30" x="127.246094"/>
      </g>
     </g>
    </g>
    <g id="xtick_7">
     <g id="line2d_7">
      <g>
       <use xlink:href="#m07c17960bf" x="570.502273" y="351.16" style="stroke: #000000; stroke-width: 0.8"/>
      </g>
     </g>
     <g id="text_7">
      <!-- 120 -->
      <g transform="translate(551.414773 373.356875) scale(0.2 -0.2)">
       <use xlink:href="#DejaVuSans-31"/>
       <use xlink:href="#DejaVuSans-32" x="63.623047"/>
       <use xlink:href="#DejaVuSans-30" x="127.246094"/>
      </g>
     </g>
    </g>
    <g id="xtick_8">
     <g id="line2d_8">
      <g>
       <use xlink:href="#m07c17960bf" x="644.474394" y="351.16" style="stroke: #000000; stroke-width: 0.8"/>
      </g>
     </g>
     <g id="text_8">
      <!-- 140 -->
      <g transform="translate(625.386894 373.356875) scale(0.2 -0.2)">
       <use xlink:href="#DejaVuSans-31"/>
       <use xlink:href="#DejaVuSans-34" x="63.623047"/>
       <use xlink:href="#DejaVuSans-30" x="127.246094"/>
      </g>
     </g>
    </g>
    <g id="text_9">
     <!-- Episode -->
     <g transform="translate(325.515 411.91) scale(0.4 -0.4)">
      <defs>
       <path id="DejaVuSans-45" d="M 628 4666 
L 3578 4666 
L 3578 4134 
L 1259 4134 
L 1259 2753 
L 3481 2753 
L 3481 2222 
L 1259 2222 
L 1259 531 
L 3634 531 
L 3634 0 
L 628 0 
L 628 4666 
z
" transform="scale(0.015625)"/>
       <path id="DejaVuSans-70" d="M 1159 525 
L 1159 -1331 
L 581 -1331 
L 581 3500 
L 1159 3500 
L 1159 2969 
Q 1341 3281 1617 3432 
Q 1894 3584 2278 3584 
Q 2916 3584 3314 3078 
Q 3713 2572 3713 1747 
Q 3713 922 3314 415 
Q 2916 -91 2278 -91 
Q 1894 -91 1617 61 
Q 1341 213 1159 525 
z
M 3116 1747 
Q 3116 2381 2855 2742 
Q 2594 3103 2138 3103 
Q 1681 3103 1420 2742 
Q 1159 2381 1159 1747 
Q 1159 1113 1420 752 
Q 1681 391 2138 391 
Q 2594 391 2855 752 
Q 3116 1113 3116 1747 
z
" transform="scale(0.015625)"/>
       <path id="DejaVuSans-69" d="M 603 3500 
L 1178 3500 
L 1178 0 
L 603 0 
L 603 3500 
z
M 603 4863 
L 1178 4863 
L 1178 4134 
L 603 4134 
L 603 4863 
z
" transform="scale(0.015625)"/>
       <path id="DejaVuSans-73" d="M 2834 3397 
L 2834 2853 
Q 2591 2978 2328 3040 
Q 2066 3103 1784 3103 
Q 1356 3103 1142 2972 
Q 928 2841 928 2578 
Q 928 2378 1081 2264 
Q 1234 2150 1697 2047 
L 1894 2003 
Q 2506 1872 2764 1633 
Q 3022 1394 3022 966 
Q 3022 478 2636 193 
Q 2250 -91 1575 -91 
Q 1294 -91 989 -36 
Q 684 19 347 128 
L 347 722 
Q 666 556 975 473 
Q 1284 391 1588 391 
Q 1994 391 2212 530 
Q 2431 669 2431 922 
Q 2431 1156 2273 1281 
Q 2116 1406 1581 1522 
L 1381 1569 
Q 847 1681 609 1914 
Q 372 2147 372 2553 
Q 372 3047 722 3315 
Q 1072 3584 1716 3584 
Q 2034 3584 2315 3537 
Q 2597 3491 2834 3397 
z
" transform="scale(0.015625)"/>
       <path id="DejaVuSans-6f" d="M 1959 3097 
Q 1497 3097 1228 2736 
Q 959 2375 959 1747 
Q 959 1119 1226 758 
Q 1494 397 1959 397 
Q 2419 397 2687 759 
Q 2956 1122 2956 1747 
Q 2956 2369 2687 2733 
Q 2419 3097 1959 3097 
z
M 1959 3584 
Q 2709 3584 3137 3096 
Q 3566 2609 3566 1747 
Q 3566 888 3137 398 
Q 2709 -91 1959 -91 
Q 1206 -91 779 398 
Q 353 888 353 1747 
Q 353 2609 779 3096 
Q 1206 3584 1959 3584 
z
" transform="scale(0.015625)"/>
       <path id="DejaVuSans-64" d="M 2906 2969 
L 2906 4863 
L 3481 4863 
L 3481 0 
L 2906 0 
L 2906 525 
Q 2725 213 2448 61 
Q 2172 -91 1784 -91 
Q 1150 -91 751 415 
Q 353 922 353 1747 
Q 353 2572 751 3078 
Q 1150 3584 1784 3584 
Q 2172 3584 2448 3432 
Q 2725 3281 2906 2969 
z
M 947 1747 
Q 947 1113 1208 752 
Q 1469 391 1925 391 
Q 2381 391 2643 752 
Q 2906 1113 2906 1747 
Q 2906 2381 2643 2742 
Q 2381 3103 1925 3103 
Q 1469 3103 1208 2742 
Q 947 2381 947 1747 
z
" transform="scale(0.015625)"/>
       <path id="DejaVuSans-65" d="M 3597 1894 
L 3597 1613 
L 953 1613 
Q 991 1019 1311 708 
Q 1631 397 2203 397 
Q 2534 397 2845 478 
Q 3156 559 3463 722 
L 3463 178 
Q 3153 47 2828 -22 
Q 2503 -91 2169 -91 
Q 1331 -91 842 396 
Q 353 884 353 1716 
Q 353 2575 817 3079 
Q 1281 3584 2069 3584 
Q 2775 3584 3186 3129 
Q 3597 2675 3597 1894 
z
M 3022 2063 
Q 3016 2534 2758 2815 
Q 2500 3097 2075 3097 
Q 1594 3097 1305 2825 
Q 1016 2553 972 2059 
L 3022 2063 
z
" transform="scale(0.015625)"/>
      </defs>
      <use xlink:href="#DejaVuSans-45"/>
      <use xlink:href="#DejaVuSans-70" x="63.183594"/>
      <use xlink:href="#DejaVuSans-69" x="126.660156"/>
      <use xlink:href="#DejaVuSans-73" x="154.443359"/>
      <use xlink:href="#DejaVuSans-6f" x="206.542969"/>
      <use xlink:href="#DejaVuSans-64" x="267.724609"/>
      <use xlink:href="#DejaVuSans-65" x="331.201172"/>
     </g>
    </g>
   </g>
   <g id="matplotlib.axis_2">
    <g id="ytick_1">
     <g id="line2d_9">
      <defs>
       <path id="m77295a5067" d="M 0 0 
L -3.5 0 
" style="stroke: #000000; stroke-width: 0.8"/>
      </defs>
      <g>
       <use xlink:href="#m77295a5067" x="98.93" y="319.51518" style="stroke: #000000; stroke-width: 0.8"/>
      </g>
     </g>
     <g id="text_10">
      <!-- 75 -->
      <g transform="translate(66.48 327.113618) scale(0.2 -0.2)">
       <defs>
        <path id="DejaVuSans-37" d="M 525 4666 
L 3525 4666 
L 3525 4397 
L 1831 0 
L 1172 0 
L 2766 4134 
L 525 4134 
L 525 4666 
z
" transform="scale(0.015625)"/>
        <path id="DejaVuSans-35" d="M 691 4666 
L 3169 4666 
L 3169 4134 
L 1269 4134 
L 1269 2991 
Q 1406 3038 1543 3061 
Q 1681 3084 1819 3084 
Q 2600 3084 3056 2656 
Q 3513 2228 3513 1497 
Q 3513 744 3044 326 
Q 2575 -91 1722 -91 
Q 1428 -91 1123 -41 
Q 819 9 494 109 
L 494 744 
Q 775 591 1075 516 
Q 1375 441 1709 441 
Q 2250 441 2565 725 
Q 2881 1009 2881 1497 
Q 2881 1984 2565 2268 
Q 2250 2553 1709 2553 
Q 1456 2553 1204 2497 
Q 953 2441 691 2322 
L 691 4666 
z
" transform="scale(0.015625)"/>
       </defs>
       <use xlink:href="#DejaVuSans-37"/>
       <use xlink:href="#DejaVuSans-35" x="63.623047"/>
      </g>
     </g>
    </g>
    <g id="ytick_2">
     <g id="line2d_10">
      <g>
       <use xlink:href="#m77295a5067" x="98.93" y="277.721653" style="stroke: #000000; stroke-width: 0.8"/>
      </g>
     </g>
     <g id="text_11">
      <!-- 100 -->
      <g transform="translate(53.755 285.32009) scale(0.2 -0.2)">
       <use xlink:href="#DejaVuSans-31"/>
       <use xlink:href="#DejaVuSans-30" x="63.623047"/>
       <use xlink:href="#DejaVuSans-30" x="127.246094"/>
      </g>
     </g>
    </g>
    <g id="ytick_3">
     <g id="line2d_11">
      <g>
       <use xlink:href="#m77295a5067" x="98.93" y="235.928125" style="stroke: #000000; stroke-width: 0.8"/>
      </g>
     </g>
     <g id="text_12">
      <!-- 125 -->
      <g transform="translate(53.755 243.526563) scale(0.2 -0.2)">
       <use xlink:href="#DejaVuSans-31"/>
       <use xlink:href="#DejaVuSans-32" x="63.623047"/>
       <use xlink:href="#DejaVuSans-35" x="127.246094"/>
      </g>
     </g>
    </g>
    <g id="ytick_4">
     <g id="line2d_12">
      <g>
       <use xlink:href="#m77295a5067" x="98.93" y="194.134598" style="stroke: #000000; stroke-width: 0.8"/>
      </g>
     </g>
     <g id="text_13">
      <!-- 150 -->
      <g transform="translate(53.755 201.733035) scale(0.2 -0.2)">
       <use xlink:href="#DejaVuSans-31"/>
       <use xlink:href="#DejaVuSans-35" x="63.623047"/>
       <use xlink:href="#DejaVuSans-30" x="127.246094"/>
      </g>
     </g>
    </g>
    <g id="ytick_5">
     <g id="line2d_13">
      <g>
       <use xlink:href="#m77295a5067" x="98.93" y="152.34107" style="stroke: #000000; stroke-width: 0.8"/>
      </g>
     </g>
     <g id="text_14">
      <!-- 175 -->
      <g transform="translate(53.755 159.939508) scale(0.2 -0.2)">
       <use xlink:href="#DejaVuSans-31"/>
       <use xlink:href="#DejaVuSans-37" x="63.623047"/>
       <use xlink:href="#DejaVuSans-35" x="127.246094"/>
      </g>
     </g>
    </g>
    <g id="ytick_6">
     <g id="line2d_14">
      <g>
       <use xlink:href="#m77295a5067" x="98.93" y="110.547543" style="stroke: #000000; stroke-width: 0.8"/>
      </g>
     </g>
     <g id="text_15">
      <!-- 200 -->
      <g transform="translate(53.755 118.14598) scale(0.2 -0.2)">
       <use xlink:href="#DejaVuSans-32"/>
       <use xlink:href="#DejaVuSans-30" x="63.623047"/>
       <use xlink:href="#DejaVuSans-30" x="127.246094"/>
      </g>
     </g>
    </g>
    <g id="ytick_7">
     <g id="line2d_15">
      <g>
       <use xlink:href="#m77295a5067" x="98.93" y="68.754015" style="stroke: #000000; stroke-width: 0.8"/>
      </g>
     </g>
     <g id="text_16">
      <!-- 225 -->
      <g transform="translate(53.755 76.352452) scale(0.2 -0.2)">
       <use xlink:href="#DejaVuSans-32"/>
       <use xlink:href="#DejaVuSans-32" x="63.623047"/>
       <use xlink:href="#DejaVuSans-35" x="127.246094"/>
      </g>
     </g>
    </g>
    <g id="ytick_8">
     <g id="line2d_16">
      <g>
       <use xlink:href="#m77295a5067" x="98.93" y="26.960487" style="stroke: #000000; stroke-width: 0.8"/>
      </g>
     </g>
     <g id="text_17">
      <!-- 250 -->
      <g transform="translate(53.755 34.558925) scale(0.2 -0.2)">
       <use xlink:href="#DejaVuSans-32"/>
       <use xlink:href="#DejaVuSans-35" x="63.623047"/>
       <use xlink:href="#DejaVuSans-30" x="127.246094"/>
      </g>
     </g>
    </g>
    <g id="text_18">
     <!-- $m_{to}$ -->
     <g transform="translate(41.43625 215.18) rotate(-90) scale(0.4 -0.4)">
      <defs>
       <path id="DejaVuSans-Oblique-6d" d="M 5747 2113 
L 5338 0 
L 4763 0 
L 5166 2094 
Q 5191 2228 5203 2325 
Q 5216 2422 5216 2491 
Q 5216 2772 5059 2928 
Q 4903 3084 4622 3084 
Q 4203 3084 3875 2770 
Q 3547 2456 3450 1953 
L 3066 0 
L 2491 0 
L 2900 2094 
Q 2925 2209 2937 2307 
Q 2950 2406 2950 2484 
Q 2950 2769 2794 2926 
Q 2638 3084 2363 3084 
Q 1938 3084 1609 2770 
Q 1281 2456 1184 1953 
L 800 0 
L 225 0 
L 909 3500 
L 1484 3500 
L 1375 2956 
Q 1609 3263 1923 3423 
Q 2238 3584 2597 3584 
Q 2978 3584 3223 3384 
Q 3469 3184 3519 2828 
Q 3781 3197 4126 3390 
Q 4472 3584 4856 3584 
Q 5306 3584 5551 3325 
Q 5797 3066 5797 2591 
Q 5797 2488 5784 2364 
Q 5772 2241 5747 2113 
z
" transform="scale(0.015625)"/>
       <path id="DejaVuSans-Oblique-74" d="M 2706 3500 
L 2619 3053 
L 1472 3053 
L 1100 1153 
Q 1081 1047 1072 975 
Q 1063 903 1063 863 
Q 1063 663 1183 572 
Q 1303 481 1569 481 
L 2150 481 
L 2053 0 
L 1503 0 
Q 991 0 739 200 
Q 488 400 488 806 
Q 488 878 497 964 
Q 506 1050 525 1153 
L 897 3053 
L 409 3053 
L 500 3500 
L 978 3500 
L 1172 4494 
L 1747 4494 
L 1556 3500 
L 2706 3500 
z
" transform="scale(0.015625)"/>
       <path id="DejaVuSans-Oblique-6f" d="M 1625 -91 
Q 1009 -91 651 289 
Q 294 669 294 1325 
Q 294 1706 417 2101 
Q 541 2497 738 2766 
Q 1047 3184 1428 3384 
Q 1809 3584 2291 3584 
Q 2888 3584 3255 3212 
Q 3622 2841 3622 2241 
Q 3622 1825 3500 1412 
Q 3378 1000 3181 728 
Q 2875 309 2494 109 
Q 2113 -91 1625 -91 
z
M 891 1344 
Q 891 869 1089 633 
Q 1288 397 1691 397 
Q 2269 397 2648 901 
Q 3028 1406 3028 2181 
Q 3028 2634 2825 2865 
Q 2622 3097 2228 3097 
Q 1903 3097 1650 2945 
Q 1397 2794 1197 2484 
Q 1050 2253 970 1956 
Q 891 1659 891 1344 
z
" transform="scale(0.015625)"/>
      </defs>
      <use xlink:href="#DejaVuSans-Oblique-6d"/>
      <use xlink:href="#DejaVuSans-Oblique-74" transform="translate(97.412109 -16.40625) scale(0.7)"/>
      <use xlink:href="#DejaVuSans-Oblique-6f" transform="translate(124.858398 -16.40625) scale(0.7)"/>
     </g>
    </g>
   </g>
   <g id="line2d_17">
    <path d="M 126.669545 127.487852 
L 130.368152 130.53878 
L 134.066758 130.232294 
L 137.765364 134.355922 
L 141.46397 138.089477 
L 145.162576 137.462574 
L 148.861182 141.850895 
L 152.559788 141.001093 
L 156.258394 142.853939 
L 159.957 144.149539 
L 163.655606 149.150831 
L 167.354212 150.655398 
L 171.052818 155.378066 
L 174.751424 157.300569 
L 178.45003 161.452059 
L 182.148636 168.556959 
L 185.847242 167.358878 
L 189.545848 169.643591 
L 193.244455 170.326218 
L 196.943061 169.922214 
L 200.641667 170.799878 
L 208.038879 170.312287 
L 211.737485 170.883465 
L 215.436091 173.850806 
L 219.134697 175.898688 
L 222.833303 174.115498 
L 226.531909 176.414142 
L 230.230515 176.62311 
L 233.929121 180.105904 
L 237.627727 179.130721 
L 241.326333 181.178604 
L 245.024939 179.896936 
L 248.723545 183.463317 
L 252.422152 181.039292 
L 256.120758 183.50511 
L 259.819364 178.016227 
L 263.51797 181.72192 
L 267.216576 180.245215 
L 270.915182 179.548657 
L 274.613788 181.48509 
L 278.312394 183.644422 
L 282.011 188.71537 
L 285.709606 189.007925 
L 289.408212 185.566925 
L 293.106818 189.091512 
L 296.805424 190.470698 
L 300.50403 192.017059 
L 304.202636 193.702731 
L 307.901242 197.826359 
L 311.599848 197.199456 
L 318.997061 196.279999 
L 322.695667 198.146776 
L 326.394273 197.547736 
L 330.092879 196.614347 
L 333.791485 196.990489 
L 337.490091 198.146776 
L 341.188697 201.587777 
L 348.585909 207.007004 
L 352.284515 204.652635 
L 355.983121 207.146316 
L 359.681727 205.014846 
L 363.380333 206.157202 
L 370.777545 212.983479 
L 374.476152 212.356576 
L 378.174758 212.356576 
L 381.873364 207.090591 
L 385.57197 204.499393 
L 389.270576 208.316535 
L 392.969182 210.225106 
L 396.667788 211.882916 
L 400.366394 213.206377 
L 404.065 222.136261 
L 407.763606 222.414885 
L 411.462212 228.015217 
L 415.160818 233.37872 
L 418.859424 233.824518 
L 422.55803 234.56287 
L 426.256636 237.808834 
L 429.955242 242.294673 
L 433.653848 245.150564 
L 437.352455 249.093086 
L 441.051061 248.577633 
L 444.749667 253.99686 
L 448.448273 256.95027 
L 452.146879 260.460926 
L 455.845485 261.854044 
L 459.544091 264.528829 
L 463.242697 270.533166 
L 466.941303 274.322446 
L 470.639909 278.64111 
L 474.338515 281.552726 
L 478.037121 282.834394 
L 481.735727 280.480026 
L 485.434333 282.639358 
L 489.132939 285.453455 
L 496.530152 293.909679 
L 500.228758 297.308886 
L 503.927364 299.301044 
L 507.62597 295.609283 
L 511.324576 296.305841 
L 515.023182 297.211368 
L 518.721788 299.760773 
L 522.420394 301.209615 
L 526.119 306.183045 
L 529.817606 306.489531 
L 533.516212 303.020668 
L 537.214818 307.172159 
L 540.913424 307.743337 
L 544.61203 309.150386 
L 548.310636 313.009321 
L 552.009242 309.972325 
L 555.707848 313.385463 
L 559.406455 317.160812 
L 563.105061 313.204358 
L 566.803667 313.092908 
L 570.502273 313.859123 
L 574.200879 314.277058 
L 577.899485 315.795556 
L 581.598091 317.119018 
L 585.296697 317.188674 
L 588.995303 318.233512 
L 592.693909 317.62054 
L 596.392515 318.428549 
L 600.091121 317.007569 
L 603.789727 316.004524 
L 607.488333 315.823419 
L 611.186939 320.615743 
L 614.885545 321.354096 
L 618.584152 323.764189 
L 625.981364 326.675805 
L 629.67997 325.714554 
L 633.378576 323.987088 
L 637.077182 326.062833 
L 640.775788 326.940497 
L 644.474394 327.971404 
L 648.173 328.124647 
L 651.871606 328.709756 
L 655.570212 327.609194 
L 659.268818 327.929611 
L 662.967424 325.324481 
L 666.66603 326.522562 
L 670.364636 324.209987 
L 674.063242 329.044105 
L 677.761848 329.907838 
L 681.460455 331.495992 
L 681.460455 331.495992 
" clip-path="url(#p56ed63dfc3)" style="fill: none; stroke: #0000ff; stroke-width: 3; stroke-linecap: square"/>
   </g>
   <g id="line2d_18">
    <path d="M 126.669545 120.494402 
L 130.368152 121.469584 
L 137.765364 118.126102 
L 141.46397 120.271503 
L 145.162576 119.073422 
L 148.861182 121.330273 
L 152.559788 119.421702 
L 156.258394 121.427791 
L 159.957 122.026831 
L 163.655606 124.799135 
L 167.354212 127.320678 
L 171.052818 128.922763 
L 174.751424 131.667205 
L 178.45003 130.636298 
L 182.148636 133.046392 
L 185.847242 132.921011 
L 189.545848 133.38074 
L 193.244455 135.219655 
L 196.943061 135.149999 
L 200.641667 138.11734 
L 204.340273 142.004138 
L 208.038879 145.194377 
L 211.737485 147.13081 
L 215.436091 149.248349 
L 219.134697 147.019361 
L 222.833303 150.014564 
L 226.531909 150.627535 
L 230.230515 151.700236 
L 233.929121 152.981904 
L 237.627727 151.087264 
L 241.326333 153.929224 
L 245.024939 152.870455 
L 248.723545 154.862613 
L 252.422152 154.47254 
L 256.120758 152.800799 
L 259.819364 156.074625 
L 263.51797 156.576148 
L 267.216576 152.536107 
L 270.915182 156.004969 
L 274.613788 154.026742 
L 278.312394 157.78816 
L 282.011 157.690642 
L 285.709606 160.908743 
L 289.408212 160.699776 
L 293.106818 160.853019 
L 296.805424 162.76159 
L 300.50403 163.47208 
L 304.202636 166.773768 
L 307.901242 162.747658 
L 311.599848 164.280088 
L 315.298455 159.668869 
L 318.997061 164.628367 
L 322.695667 166.007554 
L 326.394273 165.506031 
L 330.092879 170.855603 
L 333.791485 168.543028 
L 337.490091 172.12334 
L 341.188697 174.533433 
L 344.887303 174.213016 
L 348.585909 178.378438 
L 352.284515 178.002296 
L 355.983121 178.838167 
L 359.681727 183.115038 
L 363.380333 180.287009 
L 367.078939 181.652264 
L 370.777545 178.364507 
L 374.476152 176.246968 
L 378.174758 177.654017 
L 385.57197 178.921754 
L 389.270576 177.208219 
L 392.969182 178.475956 
L 396.667788 179.506863 
L 400.366394 178.838167 
L 404.065 184.56388 
L 407.763606 191.306569 
L 411.462212 194.859019 
L 415.160818 196.488966 
L 418.859424 193.605213 
L 422.55803 197.1298 
L 426.256636 194.817225 
L 429.955242 198.258226 
L 433.653848 198.049258 
L 437.352455 198.801542 
L 441.051061 199.108027 
L 444.749667 198.690092 
L 448.448273 198.118914 
L 452.146879 201.810676 
L 455.845485 205.976097 
L 459.544091 206.881624 
L 463.242697 208.650883 
L 466.941303 209.751446 
L 470.639909 208.065774 
L 474.338515 206.171134 
L 478.037121 210.810215 
L 481.735727 210.963458 
L 485.434333 209.807171 
L 489.132939 207.606045 
L 492.831545 200.849424 
L 496.530152 198.78761 
L 500.228758 197.380562 
L 503.927364 194.357496 
L 507.62597 192.643962 
L 511.324576 194.538602 
L 515.023182 195.862063 
L 518.721788 195.34661 
L 522.420394 196.182481 
L 526.119 196.182481 
L 529.817606 195.569509 
L 533.516212 192.894723 
L 537.214818 192.003128 
L 540.913424 192.657893 
L 544.61203 194.608258 
L 548.310636 193.089759 
L 552.009242 191.014014 
L 555.707848 188.492471 
L 559.406455 187.684463 
L 563.105061 183.74194 
L 566.803667 186.416726 
L 570.502273 186.040584 
L 574.200879 193.089759 
L 577.899485 186.22169 
L 581.598091 185.051471 
L 585.296697 182.307029 
L 588.995303 182.808552 
L 592.693909 182.334892 
L 596.392515 182.989657 
L 600.091121 180.189491 
L 603.789727 177.876915 
L 607.488333 177.584361 
L 611.186939 180.30094 
L 614.885545 178.726717 
L 618.584152 178.852098 
L 622.282758 180.816394 
L 625.981364 180.370596 
L 629.67997 185.009677 
L 633.378576 190.818978 
L 640.775788 191.125464 
L 644.474394 190.080625 
L 648.173 189.397998 
L 651.871606 192.922585 
L 655.570212 189.676621 
L 659.268818 197.882084 
L 662.967424 197.519873 
L 666.66603 197.464149 
L 670.364636 202.92517 
L 674.063242 205.112364 
L 677.761848 207.564251 
L 681.460455 204.067526 
L 681.460455 204.067526 
" clip-path="url(#p56ed63dfc3)" style="fill: none; stroke: #008000; stroke-width: 3; stroke-linecap: square"/>
   </g>
   <g id="line2d_19">
    <path d="M 126.669545 33.229517 
L 130.368152 32.992687 
L 134.066758 32.296128 
L 137.765364 34.232561 
L 141.46397 34.107181 
L 145.162576 33.689245 
L 148.861182 34.566909 
L 152.559788 32.727994 
L 156.258394 35.583885 
L 159.957 34.051456 
L 163.655606 34.497254 
L 167.354212 35.333124 
L 171.052818 33.870351 
L 174.751424 33.870351 
L 178.45003 33.257379 
L 182.148636 33.967869 
L 185.847242 36.015752 
L 189.545848 35.556023 
L 193.244455 36.698379 
L 196.943061 35.500298 
L 200.641667 37.29742 
L 204.340273 35.987889 
L 208.038879 37.980047 
L 211.737485 39.178129 
L 215.436091 39.623926 
L 219.134697 39.763238 
L 222.833303 40.50159 
L 226.531909 39.609995 
L 230.230515 41.253874 
L 233.929121 42.619129 
L 237.627727 42.27085 
L 241.326333 40.919526 
L 245.024939 42.075813 
L 248.723545 41.588222 
L 252.422152 43.92866 
L 256.120758 41.490704 
L 259.819364 41.992226 
L 263.51797 40.097586 
L 267.216576 40.111517 
L 270.915182 41.490704 
L 274.613788 42.173331 
L 278.312394 41.92257 
L 282.011 41.783259 
L 285.709606 39.19206 
L 289.408212 40.919526 
L 293.106818 41.226011 
L 296.805424 42.800234 
L 300.50403 43.552518 
L 304.202636 41.811121 
L 307.901242 42.465886 
L 311.599848 42.438024 
L 315.298455 41.92257 
L 318.997061 41.588222 
L 322.695667 43.190307 
L 326.394273 40.222967 
L 330.092879 38.857712 
L 333.791485 40.348347 
L 337.490091 38.829849 
L 341.188697 43.747554 
L 344.887303 44.820255 
L 348.585909 43.496793 
L 352.284515 42.758441 
L 359.681727 42.63306 
L 363.380333 45.182465 
L 367.078939 46.143717 
L 370.777545 43.733623 
L 374.476152 46.004405 
L 378.174758 45.558607 
L 381.873364 43.747554 
L 385.57197 42.786303 
L 389.270576 43.650036 
L 392.969182 42.897753 
L 396.667788 43.162445 
L 400.366394 45.795437 
L 404.065 45.488951 
L 407.763606 45.962611 
L 411.462212 48.539879 
L 415.160818 48.484154 
L 418.859424 49.97479 
L 422.55803 50.754936 
L 426.256636 50.267345 
L 429.955242 51.52115 
L 433.653848 52.134122 
L 437.352455 53.401859 
L 441.051061 51.549013 
L 444.749667 55.435811 
L 448.448273 50.908179 
L 452.146879 50.476312 
L 459.544091 51.451495 
L 463.242697 52.036604 
L 466.941303 52.370952 
L 470.639909 52.858543 
L 474.338515 52.524195 
L 478.037121 53.694414 
L 481.735727 52.872474 
L 485.434333 53.638689 
L 489.132939 54.279523 
L 496.530152 50.518106 
L 500.228758 49.779753 
L 503.927364 49.361818 
L 507.62597 50.267345 
L 511.324576 49.431474 
L 515.023182 51.660462 
L 518.721788 49.97479 
L 522.420394 50.490243 
L 526.119 51.28432 
L 529.817606 49.932996 
L 533.516212 53.387928 
L 537.214818 53.88945 
L 540.913424 55.324361 
L 544.61203 56.619961 
L 552.009242 57.497625 
L 555.707848 56.717479 
L 559.406455 58.876811 
L 563.105061 55.89554 
L 566.803667 56.884653 
L 570.502273 57.650868 
L 574.200879 54.404904 
L 577.899485 56.299544 
L 581.598091 56.160232 
L 585.296697 56.299544 
L 588.995303 56.271681 
L 592.693909 58.793224 
L 596.392515 58.26384 
L 600.091121 56.480649 
L 603.789727 57.232933 
L 607.488333 55.157187 
L 611.186939 58.040941 
L 614.885545 56.299544 
L 618.584152 54.307386 
L 622.282758 54.530284 
L 625.981364 56.884653 
L 629.67997 56.271681 
L 633.378576 57.595143 
L 637.077182 62.220293 
L 640.775788 61.217249 
L 644.474394 60.576415 
L 648.173 64.658249 
L 651.871606 65.786675 
L 655.570212 62.916852 
L 659.268818 65.925986 
L 662.967424 64.713974 
L 666.66603 64.992597 
L 670.364636 63.613411 
L 674.063242 60.367447 
L 677.761848 59.643026 
L 681.460455 61.426216 
L 681.460455 61.426216 
" clip-path="url(#p56ed63dfc3)" style="fill: none; stroke: #ff0000; stroke-width: 3; stroke-linecap: square"/>
   </g>
   <g id="line2d_20">
    <path d="M 126.669545 32.296128 
L 130.368152 31.13984 
L 134.066758 33.020549 
L 137.765364 32.296128 
L 141.46397 32.142885 
L 145.162576 35.152019 
L 148.861182 34.552978 
L 152.559788 35.723197 
L 156.258394 35.695335 
L 159.957 35.360986 
L 163.655606 33.494209 
L 167.354212 35.249537 
L 171.052818 35.458505 
L 174.751424 34.037525 
L 178.45003 32.43544 
L 182.148636 31.892124 
L 185.847242 33.522071 
L 189.545848 33.382759 
L 193.244455 33.772832 
L 196.943061 31.85033 
L 200.641667 31.111978 
L 204.340273 32.811581 
L 208.038879 31.432395 
L 211.737485 32.616545 
L 215.436091 32.379715 
L 219.134697 32.658338 
L 222.833303 32.32399 
L 226.531909 33.522071 
L 230.230515 35.653541 
L 233.929121 36.475481 
L 237.627727 35.723197 
L 241.326333 34.274355 
L 245.024939 33.201654 
L 248.723545 36.182926 
L 252.422152 31.167702 
L 256.120758 33.703177 
L 259.819364 34.21863 
L 267.216576 37.562112 
L 270.915182 36.865553 
L 274.613788 38.969161 
L 278.312394 41.393186 
L 282.011 41.657878 
L 285.709606 41.281736 
L 289.408212 40.390141 
L 293.106818 41.588222 
L 296.805424 40.334416 
L 300.50403 42.103676 
L 304.202636 42.201194 
L 307.901242 43.900797 
L 311.599848 43.496793 
L 315.298455 43.34355 
L 318.997061 44.388388 
L 322.695667 42.256918 
L 326.394273 45.530745 
L 330.092879 46.42234 
L 333.791485 43.81721 
L 337.490091 44.458044 
L 344.887303 49.194644 
L 348.585909 51.270389 
L 352.284515 51.39577 
L 355.983121 51.897292 
L 359.681727 52.956062 
L 363.380333 53.596896 
L 367.078939 57.31652 
L 370.777545 58.124528 
L 374.476152 58.807155 
L 378.174758 59.113641 
L 381.873364 62.484986 
L 385.57197 59.461921 
L 389.270576 60.938625 
L 392.969182 64.769699 
L 396.667788 62.41533 
L 400.366394 63.822379 
L 404.065 64.156727 
L 407.763606 65.048322 
L 411.462212 66.079229 
L 415.160818 68.614703 
L 418.859424 67.834557 
L 422.55803 69.840647 
L 426.256636 72.320396 
L 429.955242 70.509343 
L 433.653848 73.100542 
L 437.352455 71.484525 
L 441.051061 67.542003 
L 444.749667 70.161064 
L 448.448273 67.235517 
L 452.146879 72.403983 
L 455.845485 70.453618 
L 459.544091 67.458416 
L 463.242697 68.781877 
L 466.941303 70.453618 
L 470.639909 67.611659 
L 474.338515 67.486278 
L 478.037121 67.486278 
L 481.735727 68.503254 
L 485.434333 69.715266 
L 489.132939 73.90855 
L 492.831545 71.986048 
L 496.530152 74.256829 
L 500.228758 70.133201 
L 503.927364 68.642566 
L 507.62597 64.644318 
L 511.324576 64.797561 
L 515.023182 63.529824 
L 518.721788 67.249448 
L 522.420394 65.814537 
L 526.119 63.766654 
L 529.817606 61.203318 
L 533.516212 60.673933 
L 537.214818 63.195476 
L 540.913424 58.835018 
L 544.61203 59.322609 
L 548.310636 60.088824 
L 552.009242 59.252953 
L 555.707848 61.119731 
L 559.406455 61.259042 
L 563.105061 59.420127 
L 566.803667 56.104507 
L 570.502273 58.765362 
L 574.200879 58.180252 
L 577.899485 60.771451 
L 581.598091 60.130617 
L 585.296697 59.350471 
L 588.995303 57.581212 
L 592.693909 57.260795 
L 596.392515 57.302588 
L 600.091121 60.186342 
L 603.789727 60.339585 
L 607.488333 64.059209 
L 611.186939 66.20461 
L 614.885545 66.32999 
L 618.584152 68.531116 
L 622.282758 68.015663 
L 625.981364 69.158019 
L 629.67997 65.452326 
L 633.378576 68.419667 
L 637.077182 68.558978 
L 640.775788 71.484525 
L 644.474394 71.88853 
L 648.173 71.024797 
L 651.871606 73.574202 
L 655.570212 75.775328 
L 659.268818 76.820166 
L 662.967424 74.131449 
L 666.66603 74.786214 
L 670.364636 76.917684 
L 674.063242 77.865004 
L 677.761848 74.911595 
L 681.460455 77.461 
L 681.460455 77.461 
" clip-path="url(#p56ed63dfc3)" style="fill: none; stroke: #ffa500; stroke-width: 3; stroke-linecap: square"/>
   </g>
   <g id="patch_3">
    <path d="M 98.93 351.16 
L 98.93 10.8 
" style="fill: none; stroke: #000000; stroke-width: 0.8; stroke-linejoin: miter; stroke-linecap: square"/>
   </g>
   <g id="patch_4">
    <path d="M 709.2 351.16 
L 709.2 10.8 
" style="fill: none; stroke: #000000; stroke-width: 0.8; stroke-linejoin: miter; stroke-linecap: square"/>
   </g>
   <g id="patch_5">
    <path d="M 98.93 351.16 
L 709.2 351.16 
" style="fill: none; stroke: #000000; stroke-width: 0.8; stroke-linejoin: miter; stroke-linecap: square"/>
   </g>
   <g id="patch_6">
    <path d="M 98.93 10.8 
L 709.2 10.8 
" style="fill: none; stroke: #000000; stroke-width: 0.8; stroke-linejoin: miter; stroke-linecap: square"/>
   </g>
  </g>
 </g>
 <defs>
  <clipPath id="p56ed63dfc3">
   <rect x="98.93" y="10.8" width="610.27" height="340.36"/>
  </clipPath>
 </defs>
</svg>
