<?xml version="1.0" encoding="utf-8" standalone="no"?>
<!DOCTYPE svg PUBLIC "-//W3C//DTD SVG 1.1//EN"
  "http://www.w3.org/Graphics/SVG/1.1/DTD/svg11.dtd">
<svg xmlns:xlink="http://www.w3.org/1999/xlink" width="720pt" height="432pt" viewBox="0 0 720 432" xmlns="http://www.w3.org/2000/svg" version="1.1">
 <metadata>
  <rdf:RDF xmlns:dc="http://purl.org/dc/elements/1.1/" xmlns:cc="http://creativecommons.org/ns#" xmlns:rdf="http://www.w3.org/1999/02/22-rdf-syntax-ns#">
   <cc:Work>
    <dc:type rdf:resource="http://purl.org/dc/dcmitype/StillImage"/>
    <dc:date>2025-06-19T21:20:03.716233</dc:date>
    <dc:format>image/svg+xml</dc:format>
    <dc:creator>
     <cc:Agent>
      <dc:title>Matplotlib v3.7.1, https://matplotlib.org/</dc:title>
     </cc:Agent>
    </dc:creator>
   </cc:Work>
  </rdf:RDF>
 </metadata>
 <defs>
  <style type="text/css">*{stroke-linejoin: round; stroke-linecap: butt}</style>
 </defs>
 <g id="figure_1">
  <g id="patch_1">
   <path d="M 0 432 
L 720 432 
L 720 0 
L 0 0 
z
" style="fill: #ffffff"/>
  </g>
  <g id="axes_1">
   <g id="patch_2">
    <path d="M 114.23 343.96 
L 709.2 343.96 
L 709.2 16.499276 
L 114.23 16.499276 
z
" style="fill: #ffffff"/>
   </g>
   <g id="PolyCollection_1">
    <defs>
     <path id="m3bacba5491" d="M 141.274091 -289.542269 
L 141.274091 -279.754456 
L 144.87997 -281.410645 
L 148.485848 -279.45716 
L 152.091727 -278.686182 
L 155.697606 -277.24158 
L 159.303485 -275.143439 
L 162.909364 -270.274988 
L 166.515242 -267.086353 
L 170.121121 -262.125619 
L 173.727 -260.57647 
L 177.332879 -258.870123 
L 180.938758 -257.292187 
L 184.544636 -258.680621 
L 188.150515 -255.624181 
L 191.756394 -255.671318 
L 195.362273 -255.889311 
L 198.968152 -253.505383 
L 202.57403 -251.799793 
L 206.179909 -251.696578 
L 209.785788 -250.397323 
L 213.391667 -245.945077 
L 216.997545 -246.913737 
L 220.603424 -242.135703 
L 224.209303 -240.442486 
L 227.815182 -237.585856 
L 231.421061 -238.49702 
L 235.026939 -232.081169 
L 238.632818 -234.376575 
L 242.238697 -230.983547 
L 245.844576 -232.247714 
L 249.450455 -234.579395 
L 253.056333 -232.873921 
L 256.662212 -230.513134 
L 260.268091 -226.251505 
L 263.87397 -223.008123 
L 267.479848 -226.818443 
L 271.085727 -222.092818 
L 274.691606 -221.66494 
L 278.297485 -223.782233 
L 281.903364 -223.642402 
L 285.509242 -225.06058 
L 289.115121 -223.597797 
L 292.721 -218.84504 
L 296.326879 -219.503197 
L 299.932758 -217.316888 
L 303.538636 -212.644921 
L 307.144515 -211.542337 
L 310.750394 -210.964135 
L 314.356273 -212.262439 
L 317.962152 -212.374894 
L 321.56803 -207.308451 
L 325.173909 -208.601957 
L 328.779788 -201.772432 
L 332.385667 -203.037731 
L 335.991545 -198.031915 
L 339.597424 -201.081386 
L 343.203303 -202.41963 
L 346.809182 -202.478347 
L 350.415061 -201.798692 
L 354.020939 -201.877401 
L 357.626818 -199.86637 
L 361.232697 -198.326535 
L 364.838576 -198.478705 
L 368.444455 -196.351532 
L 372.050333 -195.986598 
L 375.656212 -191.351532 
L 379.262091 -190.013724 
L 382.86797 -184.109267 
L 386.473848 -179.318708 
L 390.079727 -174.892735 
L 393.685606 -170.506233 
L 397.291485 -167.508031 
L 400.897364 -166.186488 
L 404.503242 -159.480676 
L 408.109121 -160.467843 
L 411.715 -160.464375 
L 415.320879 -159.328413 
L 418.926758 -149.11336 
L 422.532636 -150.825232 
L 426.138515 -152.952501 
L 429.744394 -151.771694 
L 433.350273 -146.862034 
L 436.956152 -148.186648 
L 440.56203 -142.064692 
L 444.167909 -139.709789 
L 447.773788 -139.530465 
L 451.379667 -136.833456 
L 454.985545 -135.198243 
L 458.591424 -133.748918 
L 462.197303 -137.056175 
L 465.803182 -133.824051 
L 469.409061 -129.655593 
L 473.014939 -131.362073 
L 476.620818 -133.228671 
L 480.226697 -133.251317 
L 483.832576 -134.998003 
L 487.438455 -133.103952 
L 491.044333 -135.22966 
L 494.650212 -132.543279 
L 498.256091 -135.66714 
L 501.86197 -138.219576 
L 505.467848 -132.994025 
L 509.073727 -132.176511 
L 512.679606 -126.273619 
L 516.285485 -125.600461 
L 519.891364 -123.863023 
L 523.497242 -124.359261 
L 527.103121 -122.915592 
L 530.709 -123.210197 
L 534.314879 -128.633505 
L 537.920758 -130.450132 
L 541.526636 -131.325082 
L 545.132515 -127.977572 
L 548.738394 -128.630166 
L 552.344273 -130.134607 
L 555.950152 -131.825578 
L 559.55603 -131.21829 
L 563.161909 -128.029948 
L 566.767788 -129.205506 
L 570.373667 -122.550673 
L 573.979545 -125.665032 
L 577.585424 -123.638123 
L 581.191303 -116.280768 
L 584.797182 -117.824912 
L 588.403061 -119.693212 
L 592.008939 -114.967614 
L 595.614818 -113.478145 
L 599.220697 -110.041974 
L 602.826576 -108.893772 
L 606.432455 -107.703093 
L 610.038333 -107.087308 
L 613.644212 -102.924578 
L 617.250091 -104.076784 
L 620.85597 -109.417733 
L 624.461848 -113.038367 
L 628.067727 -109.954761 
L 631.673606 -109.62853 
L 635.279485 -112.954718 
L 638.885364 -120.227641 
L 642.491242 -112.105352 
L 646.097121 -111.198887 
L 649.703 -109.55719 
L 653.308879 -108.254212 
L 656.914758 -109.354196 
L 660.520636 -112.76683 
L 664.126515 -109.975009 
L 667.732394 -107.044573 
L 671.338273 -109.825403 
L 674.944152 -111.136846 
L 678.55003 -115.83444 
L 682.155909 -115.364191 
L 682.155909 -133.29097 
L 682.155909 -133.29097 
L 678.55003 -131.842468 
L 674.944152 -125.152181 
L 671.338273 -124.356616 
L 667.732394 -122.145843 
L 664.126515 -125.235431 
L 660.520636 -127.25963 
L 656.914758 -127.662252 
L 653.308879 -135.685263 
L 649.703 -135.034455 
L 646.097121 -135.951269 
L 642.491242 -132.310709 
L 638.885364 -129.907443 
L 635.279485 -134.747273 
L 631.673606 -134.586864 
L 628.067727 -137.59673 
L 624.461848 -140.859233 
L 620.85597 -143.175528 
L 617.250091 -143.800791 
L 613.644212 -150.546603 
L 610.038333 -151.024309 
L 606.432455 -154.773042 
L 602.826576 -155.338204 
L 599.220697 -157.501015 
L 595.614818 -154.742097 
L 592.008939 -154.281049 
L 588.403061 -158.133985 
L 584.797182 -161.156124 
L 581.191303 -165.584863 
L 577.585424 -171.722396 
L 573.979545 -175.063343 
L 570.373667 -181.262965 
L 566.767788 -185.419092 
L 563.161909 -187.121402 
L 559.55603 -189.852752 
L 555.950152 -190.374218 
L 552.344273 -201.19556 
L 548.738394 -199.564571 
L 545.132515 -196.906152 
L 541.526636 -197.923159 
L 537.920758 -204.115798 
L 534.314879 -204.778587 
L 530.709 -200.745439 
L 527.103121 -208.941327 
L 523.497242 -204.713397 
L 519.891364 -208.8969 
L 516.285485 -212.778151 
L 512.679606 -216.770513 
L 509.073727 -218.041483 
L 505.467848 -221.789155 
L 501.86197 -221.730792 
L 498.256091 -216.356862 
L 494.650212 -215.768374 
L 491.044333 -209.670646 
L 487.438455 -209.313094 
L 483.832576 -211.70831 
L 480.226697 -213.153995 
L 476.620818 -216.211737 
L 473.014939 -214.039902 
L 469.409061 -220.010566 
L 465.803182 -217.949116 
L 462.197303 -221.389186 
L 458.591424 -222.012515 
L 454.985545 -220.33744 
L 451.379667 -217.222304 
L 447.773788 -220.871404 
L 444.167909 -219.362658 
L 440.56203 -219.390681 
L 436.956152 -218.912499 
L 433.350273 -218.631772 
L 429.744394 -222.877568 
L 426.138515 -222.474347 
L 422.532636 -225.153451 
L 418.926758 -223.378726 
L 415.320879 -225.078305 
L 411.715 -229.410532 
L 408.109121 -233.47058 
L 404.503242 -240.82894 
L 400.897364 -243.5545 
L 397.291485 -246.92356 
L 393.685606 -249.092546 
L 390.079727 -243.426788 
L 386.473848 -245.146257 
L 382.86797 -246.350639 
L 379.262091 -241.499687 
L 375.656212 -242.293971 
L 372.050333 -247.692279 
L 368.444455 -245.421004 
L 364.838576 -249.614856 
L 361.232697 -254.708464 
L 357.626818 -258.3609 
L 354.020939 -258.18096 
L 350.415061 -264.630862 
L 346.809182 -266.785634 
L 343.203303 -267.697189 
L 339.597424 -266.226088 
L 335.991545 -272.05982 
L 332.385667 -270.0891 
L 328.779788 -271.454732 
L 325.173909 -272.37599 
L 321.56803 -275.701254 
L 317.962152 -271.011062 
L 314.356273 -274.559948 
L 310.750394 -272.371655 
L 307.144515 -275.681385 
L 303.538636 -273.776131 
L 299.932758 -274.923521 
L 296.326879 -272.185376 
L 292.721 -276.957217 
L 289.115121 -279.002071 
L 285.509242 -279.345296 
L 281.903364 -279.408968 
L 278.297485 -283.131986 
L 274.691606 -283.970024 
L 271.085727 -284.394983 
L 267.479848 -286.76797 
L 263.87397 -287.166943 
L 260.268091 -289.642584 
L 256.662212 -291.300646 
L 253.056333 -288.061939 
L 249.450455 -289.617312 
L 245.844576 -290.945655 
L 242.238697 -291.106152 
L 238.632818 -289.343547 
L 235.026939 -289.807862 
L 231.421061 -287.40536 
L 227.815182 -283.199503 
L 224.209303 -284.857892 
L 220.603424 -287.42886 
L 216.997545 -286.739425 
L 213.391667 -290.417096 
L 209.785788 -290.479869 
L 206.179909 -289.15553 
L 202.57403 -288.475396 
L 198.968152 -289.227983 
L 195.362273 -289.051397 
L 191.756394 -292.730904 
L 188.150515 -289.216194 
L 184.544636 -288.592847 
L 180.938758 -286.369267 
L 177.332879 -285.318082 
L 173.727 -287.901003 
L 170.121121 -283.893677 
L 166.515242 -288.6904 
L 162.909364 -287.533523 
L 159.303485 -285.047998 
L 155.697606 -286.662206 
L 152.091727 -288.553701 
L 148.485848 -286.22755 
L 144.87997 -283.747312 
L 141.274091 -289.542269 
z
" style="stroke: #0000ff; stroke-opacity: 0.3"/>
    </defs>
    <g clip-path="url(#pdfac956d19)">
     <use xlink:href="#m3bacba5491" x="0" y="432" style="fill: #0000ff; fill-opacity: 0.3; stroke: #0000ff; stroke-opacity: 0.3"/>
    </g>
   </g>
   <g id="PolyCollection_2">
    <defs>
     <path id="md45dcd0fba" d="M 141.274091 -370.726764 
L 141.274091 -368.083822 
L 144.87997 -368.686682 
L 148.485848 -368.610821 
L 152.091727 -366.781004 
L 155.697606 -367.852488 
L 159.303485 -363.393279 
L 162.909364 -366.216575 
L 166.515242 -363.154719 
L 170.121121 -364.604063 
L 173.727 -358.819103 
L 177.332879 -362.136879 
L 180.938758 -362.301271 
L 184.544636 -362.954638 
L 188.150515 -365.366922 
L 191.756394 -364.154468 
L 195.362273 -362.845312 
L 198.968152 -363.449218 
L 202.57403 -363.055153 
L 206.179909 -361.295017 
L 209.785788 -365.717662 
L 213.391667 -364.751091 
L 216.997545 -363.373675 
L 220.603424 -361.79592 
L 224.209303 -364.149672 
L 227.815182 -364.824432 
L 231.421061 -364.348508 
L 235.026939 -365.59361 
L 238.632818 -367.217287 
L 242.238697 -369.820821 
L 245.844576 -370.174507 
L 249.450455 -368.998392 
L 253.056333 -369.523505 
L 256.662212 -369.631074 
L 260.268091 -366.768949 
L 263.87397 -367.693967 
L 267.479848 -368.363612 
L 271.085727 -371.324035 
L 274.691606 -368.530745 
L 278.297485 -369.917171 
L 281.903364 -369.080563 
L 285.509242 -369.260408 
L 289.115121 -371.681036 
L 292.721 -367.980777 
L 296.326879 -368.116207 
L 299.932758 -369.202397 
L 303.538636 -368.939825 
L 307.144515 -371.0722 
L 310.750394 -371.253104 
L 314.356273 -369.571151 
L 317.962152 -367.904406 
L 321.56803 -368.996885 
L 325.173909 -370.310069 
L 328.779788 -371.502865 
L 332.385667 -367.657779 
L 335.991545 -368.553275 
L 339.597424 -368.6968 
L 343.203303 -369.40916 
L 346.809182 -370.247143 
L 350.415061 -370.604991 
L 354.020939 -365.894226 
L 357.626818 -366.50225 
L 361.232697 -364.700149 
L 364.838576 -365.924346 
L 368.444455 -364.534282 
L 372.050333 -366.059631 
L 375.656212 -366.555699 
L 379.262091 -365.239453 
L 382.86797 -363.465402 
L 386.473848 -365.643393 
L 390.079727 -369.290005 
L 393.685606 -370.595924 
L 397.291485 -369.537125 
L 400.897364 -371.769722 
L 404.503242 -371.206738 
L 408.109121 -372.711798 
L 411.715 -371.436361 
L 415.320879 -370.578625 
L 418.926758 -372.675251 
L 422.532636 -369.367547 
L 426.138515 -370.615392 
L 429.744394 -374.561354 
L 433.350273 -374.58886 
L 436.956152 -373.679218 
L 440.56203 -373.499109 
L 444.167909 -372.368898 
L 447.773788 -374.758889 
L 451.379667 -374.707863 
L 454.985545 -375.799402 
L 458.591424 -372.181623 
L 462.197303 -376.640533 
L 465.803182 -374.315859 
L 469.409061 -376.589854 
L 473.014939 -375.127452 
L 476.620818 -375.650298 
L 480.226697 -377.457208 
L 483.832576 -378.470937 
L 487.438455 -380.739539 
L 491.044333 -379.249508 
L 494.650212 -380.677381 
L 498.256091 -379.421317 
L 501.86197 -380.833085 
L 505.467848 -382.435545 
L 509.073727 -382.435879 
L 512.679606 -382.454606 
L 516.285485 -382.766315 
L 519.891364 -382.115108 
L 523.497242 -383.153129 
L 527.103121 -382.373086 
L 530.709 -380.771874 
L 534.314879 -381.660113 
L 537.920758 -384.671805 
L 541.526636 -381.875893 
L 545.132515 -383.06055 
L 548.738394 -382.05044 
L 552.344273 -387.12658 
L 555.950152 -382.553466 
L 559.55603 -382.091211 
L 563.161909 -383.757878 
L 566.767788 -383.381761 
L 570.373667 -386.697788 
L 573.979545 -383.871719 
L 577.585424 -383.944428 
L 581.191303 -384.324853 
L 584.797182 -383.194277 
L 588.403061 -385.628892 
L 592.008939 -385.253892 
L 595.614818 -385.828435 
L 599.220697 -386.178082 
L 602.826576 -389.777058 
L 606.432455 -388.392616 
L 610.038333 -386.482817 
L 613.644212 -387.029191 
L 617.250091 -389.847276 
L 620.85597 -390.46531 
L 624.461848 -389.589641 
L 628.067727 -391.89322 
L 631.673606 -392.939563 
L 635.279485 -393.321097 
L 638.885364 -391.487886 
L 642.491242 -388.485315 
L 646.097121 -392.019963 
L 649.703 -392.274328 
L 653.308879 -393.137853 
L 656.914758 -393.19601 
L 660.520636 -392.289634 
L 664.126515 -392.949311 
L 667.732394 -393.685869 
L 671.338273 -391.438783 
L 674.944152 -392.151275 
L 678.55003 -391.905012 
L 682.155909 -391.654783 
L 682.155909 -394.262495 
L 682.155909 -394.262495 
L 678.55003 -394.463768 
L 674.944152 -394.568673 
L 671.338273 -394.779497 
L 667.732394 -395.341756 
L 664.126515 -395.10006 
L 660.520636 -396.763074 
L 656.914758 -394.903527 
L 653.308879 -397.771029 
L 649.703 -400.616145 
L 646.097121 -395.803656 
L 642.491242 -396.328292 
L 638.885364 -394.103308 
L 635.279485 -394.076104 
L 631.673606 -396.36398 
L 628.067727 -395.403647 
L 624.461848 -392.615289 
L 620.85597 -392.943625 
L 617.250091 -394.640247 
L 613.644212 -390.811221 
L 610.038333 -392.712101 
L 606.432455 -393.084895 
L 602.826576 -391.575035 
L 599.220697 -393.669005 
L 595.614818 -393.617317 
L 592.008939 -392.185185 
L 588.403061 -394.895448 
L 584.797182 -395.524055 
L 581.191303 -392.311554 
L 577.585424 -392.466228 
L 573.979545 -392.965356 
L 570.373667 -393.776385 
L 566.767788 -393.706148 
L 563.161909 -392.427027 
L 559.55603 -391.334517 
L 555.950152 -393.606356 
L 552.344273 -394.952933 
L 548.738394 -393.73313 
L 545.132515 -396.184534 
L 541.526636 -395.538101 
L 537.920758 -397.432792 
L 534.314879 -393.947873 
L 530.709 -393.030105 
L 527.103121 -393.836903 
L 523.497242 -397.07021 
L 519.891364 -396.828975 
L 516.285485 -395.023931 
L 512.679606 -394.206885 
L 509.073727 -398.238961 
L 505.467848 -396.508538 
L 501.86197 -395.276571 
L 498.256091 -394.506079 
L 494.650212 -392.221594 
L 491.044333 -390.363537 
L 487.438455 -392.084186 
L 483.832576 -391.493276 
L 480.226697 -390.575581 
L 476.620818 -391.780488 
L 473.014939 -391.475581 
L 469.409061 -390.590097 
L 465.803182 -391.961089 
L 462.197303 -393.775182 
L 458.591424 -393.944825 
L 454.985545 -392.057803 
L 451.379667 -388.935324 
L 447.773788 -391.066557 
L 444.167909 -390.020118 
L 440.56203 -390.470163 
L 436.956152 -391.092724 
L 433.350273 -388.92891 
L 429.744394 -389.784169 
L 426.138515 -389.9927 
L 422.532636 -387.62853 
L 418.926758 -389.964599 
L 415.320879 -388.173292 
L 411.715 -388.293811 
L 408.109121 -387.545125 
L 404.503242 -389.45152 
L 400.897364 -388.863453 
L 397.291485 -389.440543 
L 393.685606 -388.93358 
L 390.079727 -387.806406 
L 386.473848 -388.894507 
L 382.86797 -390.871831 
L 379.262091 -389.122863 
L 375.656212 -389.161122 
L 372.050333 -386.872929 
L 368.444455 -387.169189 
L 364.838576 -388.688804 
L 361.232697 -385.623734 
L 357.626818 -389.866741 
L 354.020939 -387.138668 
L 350.415061 -387.444591 
L 346.809182 -388.25394 
L 343.203303 -388.113669 
L 339.597424 -388.299277 
L 335.991545 -387.765549 
L 332.385667 -386.955371 
L 328.779788 -386.697217 
L 325.173909 -387.438511 
L 321.56803 -388.174776 
L 317.962152 -389.969591 
L 314.356273 -389.230933 
L 310.750394 -390.483742 
L 307.144515 -387.754967 
L 303.538636 -385.623158 
L 299.932758 -385.084669 
L 296.326879 -385.869858 
L 292.721 -385.027034 
L 289.115121 -384.662871 
L 285.509242 -384.09857 
L 281.903364 -383.475746 
L 278.297485 -383.341474 
L 274.691606 -382.520558 
L 271.085727 -379.175431 
L 267.479848 -379.978679 
L 263.87397 -375.380803 
L 260.268091 -378.036578 
L 256.662212 -374.823285 
L 253.056333 -372.848929 
L 249.450455 -372.621538 
L 245.844576 -373.301598 
L 242.238697 -373.153615 
L 238.632818 -374.502978 
L 235.026939 -372.991225 
L 231.421061 -371.477148 
L 227.815182 -370.048054 
L 224.209303 -369.794727 
L 220.603424 -370.819057 
L 216.997545 -370.169389 
L 213.391667 -371.049482 
L 209.785788 -371.738418 
L 206.179909 -372.298214 
L 202.57403 -368.405986 
L 198.968152 -372.827941 
L 195.362273 -370.923503 
L 191.756394 -369.63943 
L 188.150515 -370.383484 
L 184.544636 -372.595101 
L 180.938758 -372.571215 
L 177.332879 -370.427931 
L 173.727 -370.535028 
L 170.121121 -369.29017 
L 166.515242 -368.732838 
L 162.909364 -366.925154 
L 159.303485 -366.487603 
L 155.697606 -369.377841 
L 152.091727 -370.524576 
L 148.485848 -371.403769 
L 144.87997 -371.302825 
L 141.274091 -370.726764 
z
" style="stroke: #008000; stroke-opacity: 0.3"/>
    </defs>
    <g clip-path="url(#pdfac956d19)">
     <use xlink:href="#md45dcd0fba" x="0" y="432" style="fill: #008000; fill-opacity: 0.3; stroke: #008000; stroke-opacity: 0.3"/>
    </g>
   </g>
   <g id="PolyCollection_3">
    <defs>
     <path id="m092d331c87" d="M 141.274091 -368.887823 
L 141.274091 -367.539836 
L 144.87997 -366.613595 
L 148.485848 -368.417604 
L 152.091727 -367.462956 
L 155.697606 -368.90095 
L 159.303485 -365.812339 
L 162.909364 -368.778945 
L 166.515242 -368.363808 
L 170.121121 -368.914752 
L 173.727 -369.012934 
L 177.332879 -368.800986 
L 180.938758 -365.797429 
L 184.544636 -366.994978 
L 188.150515 -367.12433 
L 191.756394 -368.11906 
L 195.362273 -365.111263 
L 198.968152 -365.707854 
L 202.57403 -368.212785 
L 206.179909 -367.319127 
L 209.785788 -364.964085 
L 213.391667 -367.112527 
L 216.997545 -364.499915 
L 220.603424 -366.430817 
L 224.209303 -367.326474 
L 227.815182 -364.836975 
L 231.421061 -367.721659 
L 235.026939 -368.090781 
L 238.632818 -367.052861 
L 242.238697 -366.153855 
L 245.844576 -366.687522 
L 249.450455 -367.231641 
L 253.056333 -366.21524 
L 256.662212 -366.13086 
L 260.268091 -368.92173 
L 263.87397 -365.98777 
L 267.479848 -367.478082 
L 271.085727 -366.965807 
L 274.691606 -366.159419 
L 278.297485 -367.075118 
L 281.903364 -367.10807 
L 285.509242 -366.391842 
L 289.115121 -366.154314 
L 292.721 -367.521055 
L 296.326879 -366.369585 
L 299.932758 -365.884915 
L 303.538636 -365.263762 
L 307.144515 -367.997271 
L 310.750394 -366.737383 
L 314.356273 -366.143618 
L 317.962152 -366.654569 
L 321.56803 -366.895167 
L 325.173909 -368.432513 
L 328.779788 -364.081581 
L 332.385667 -367.244093 
L 335.991545 -367.046406 
L 339.597424 -363.982292 
L 343.203303 -364.49011 
L 346.809182 -365.587416 
L 350.415061 -367.634822 
L 354.020939 -367.253898 
L 357.626818 -364.545319 
L 361.232697 -366.531457 
L 364.838576 -365.584372 
L 368.444455 -365.721503 
L 372.050333 -367.71542 
L 375.656212 -367.219163 
L 379.262091 -364.979912 
L 382.86797 -365.809232 
L 386.473848 -365.648252 
L 390.079727 -366.590231 
L 393.685606 -364.061324 
L 397.291485 -364.963869 
L 400.897364 -366.775683 
L 404.503242 -365.624888 
L 408.109121 -366.843064 
L 411.715 -366.103778 
L 415.320879 -364.303092 
L 418.926758 -366.602467 
L 422.532636 -365.938125 
L 426.138515 -366.08217 
L 429.744394 -367.074685 
L 433.350273 -366.730711 
L 436.956152 -366.201501 
L 440.56203 -364.592749 
L 444.167909 -365.611086 
L 447.773788 -363.729153 
L 451.379667 -365.79408 
L 454.985545 -364.513933 
L 458.591424 -367.689815 
L 462.197303 -365.463259 
L 465.803182 -364.364324 
L 469.409061 -366.059022 
L 473.014939 -365.853313 
L 476.620818 -366.069259 
L 480.226697 -366.276166 
L 483.832576 -366.975459 
L 487.438455 -363.843568 
L 491.044333 -364.867469 
L 494.650212 -364.663543 
L 498.256091 -366.807285 
L 501.86197 -364.559364 
L 505.467848 -364.365215 
L 509.073727 -363.840894 
L 512.679606 -366.461987 
L 516.285485 -364.957197 
L 519.891364 -364.290181 
L 523.497242 -365.060268 
L 527.103121 -364.595639 
L 530.709 -363.089066 
L 534.314879 -366.160311 
L 537.920758 -364.293746 
L 541.526636 -363.421237 
L 545.132515 -366.537453 
L 548.738394 -365.385335 
L 552.344273 -365.01373 
L 555.950152 -365.911844 
L 559.55603 -365.660947 
L 563.161909 -364.145461 
L 566.767788 -365.307627 
L 570.373667 -366.954004 
L 573.979545 -365.044467 
L 577.585424 -366.075931 
L 581.191303 -364.244534 
L 584.797182 -362.947912 
L 588.403061 -364.39147 
L 592.008939 -364.179737 
L 595.614818 -365.573002 
L 599.220697 -363.710652 
L 602.826576 -365.273783 
L 606.432455 -363.124018 
L 610.038333 -364.30709 
L 613.644212 -362.666277 
L 617.250091 -364.698926 
L 620.85597 -364.995255 
L 624.461848 -365.904281 
L 628.067727 -364.462938 
L 631.673606 -365.115044 
L 635.279485 -363.745603 
L 638.885364 -367.687573 
L 642.491242 -367.711855 
L 646.097121 -365.555418 
L 649.703 -364.445138 
L 653.308879 -366.489591 
L 656.914758 -365.913411 
L 660.520636 -364.617679 
L 664.126515 -367.521947 
L 667.732394 -363.756082 
L 671.338273 -365.407349 
L 674.944152 -365.715048 
L 678.55003 -367.200688 
L 682.155909 -364.620569 
L 682.155909 -369.373996 
L 682.155909 -369.373996 
L 678.55003 -369.151721 
L 674.944152 -368.304601 
L 671.338273 -372.324649 
L 667.732394 -368.332143 
L 664.126515 -369.934133 
L 660.520636 -368.4488 
L 656.914758 -369.460744 
L 653.308879 -369.185565 
L 649.703 -368.169839 
L 646.097121 -368.464231 
L 642.491242 -369.769308 
L 638.885364 -373.07952 
L 635.279485 -371.90447 
L 631.673606 -368.804271 
L 628.067727 -370.635299 
L 624.461848 -369.770875 
L 620.85597 -371.557822 
L 617.250091 -371.829067 
L 613.644212 -369.973784 
L 610.038333 -371.54365 
L 606.432455 -369.189958 
L 602.826576 -368.821117 
L 599.220697 -371.337419 
L 595.614818 -369.475069 
L 592.008939 -372.799758 
L 588.403061 -371.30877 
L 584.797182 -369.616899 
L 581.191303 -370.452368 
L 577.585424 -370.226311 
L 573.979545 -369.301267 
L 570.373667 -370.075658 
L 566.767788 -368.11002 
L 563.161909 -370.601608 
L 559.55603 -368.534287 
L 555.950152 -371.268318 
L 552.344273 -372.392184 
L 548.738394 -366.201221 
L 545.132515 -370.191207 
L 541.526636 -368.742238 
L 537.920758 -368.195813 
L 534.314879 -369.991431 
L 530.709 -368.622907 
L 527.103121 -368.320339 
L 523.497242 -370.665055 
L 519.891364 -368.901715 
L 516.285485 -368.610951 
L 512.679606 -368.661334 
L 509.073727 -371.006508 
L 505.467848 -367.522342 
L 501.86197 -365.020517 
L 498.256091 -370.673879 
L 494.650212 -368.352769 
L 491.044333 -369.904683 
L 487.438455 -370.477082 
L 483.832576 -368.323446 
L 480.226697 -367.517733 
L 476.620818 -368.552393 
L 473.014939 -366.385413 
L 469.409061 -367.584376 
L 465.803182 -367.698817 
L 462.197303 -365.747046 
L 458.591424 -369.640848 
L 454.985545 -368.025793 
L 451.379667 -369.128573 
L 447.773788 -366.176813 
L 444.167909 -366.426972 
L 440.56203 -367.395142 
L 436.956152 -369.323155 
L 433.350273 -367.865858 
L 429.744394 -367.145632 
L 426.138515 -368.990984 
L 422.532636 -369.059778 
L 418.926758 -369.29844 
L 415.320879 -369.340306 
L 411.715 -366.210198 
L 408.109121 -368.581258 
L 404.503242 -366.689088 
L 400.897364 -367.946303 
L 397.291485 -370.284869 
L 393.685606 -366.296144 
L 390.079727 -367.228751 
L 386.473848 -369.550319 
L 382.86797 -366.128492 
L 379.262091 -367.108312 
L 375.656212 -369.986083 
L 372.050333 -369.063407 
L 368.444455 -368.523897 
L 364.838576 -365.726266 
L 361.232697 -366.88619 
L 357.626818 -369.298746 
L 354.020939 -369.098511 
L 350.415061 -370.047009 
L 346.809182 -365.622889 
L 343.203303 -368.250284 
L 339.597424 -365.472172 
L 335.991545 -368.252499 
L 332.385667 -371.03974 
L 328.779788 -366.777555 
L 325.173909 -372.33458 
L 321.56803 -367.2499 
L 317.962152 -367.967083 
L 314.356273 -368.804118 
L 310.750394 -369.539776 
L 307.144515 -370.161145 
L 303.538636 -369.307723 
L 299.932758 -369.112988 
L 296.326879 -370.484492 
L 292.721 -370.110609 
L 289.115121 -366.686414 
L 285.509242 -372.067576 
L 281.903364 -369.520257 
L 278.297485 -370.054878 
L 274.691606 -370.167906 
L 271.085727 -369.236101 
L 267.479848 -371.131836 
L 263.87397 -369.71247 
L 260.268091 -369.311937 
L 256.662212 -367.336954 
L 253.056333 -367.102073 
L 249.450455 -367.515428 
L 245.844576 -367.432462 
L 242.238697 -369.772135 
L 238.632818 -368.471794 
L 235.026939 -369.616134 
L 231.421061 -367.828079 
L 227.815182 -368.455255 
L 224.209303 -369.703188 
L 220.603424 -368.843004 
L 216.997545 -366.309055 
L 213.391667 -368.63788 
L 209.785788 -371.739492 
L 206.179909 -369.660367 
L 202.57403 -369.418879 
L 198.968152 -367.233208 
L 195.362273 -368.05555 
L 191.756394 -368.509267 
L 188.150515 -367.798323 
L 184.544636 -367.952758 
L 180.938758 -366.968049 
L 177.332879 -369.758766 
L 173.727 -369.722401 
L 170.121121 -369.695166 
L 166.515242 -368.966855 
L 162.909364 -369.630305 
L 159.303485 -368.508312 
L 155.697606 -369.43305 
L 152.091727 -368.13695 
L 148.485848 -370.794317 
L 144.87997 -370.089982 
L 141.274091 -368.887823 
z
" style="stroke: #ff0000; stroke-opacity: 0.3"/>
    </defs>
    <g clip-path="url(#pdfac956d19)">
     <use xlink:href="#m092d331c87" x="0" y="432" style="fill: #ff0000; fill-opacity: 0.3; stroke: #ff0000; stroke-opacity: 0.3"/>
    </g>
   </g>
   <g id="PolyCollection_4">
    <defs>
     <path id="m45083013e7" d="M 141.274091 -370.438476 
L 141.274091 -367.494189 
L 144.87997 -368.993568 
L 148.485848 -370.052853 
L 152.091727 -367.382358 
L 155.697606 -366.540127 
L 159.303485 -368.324094 
L 162.909364 -367.053294 
L 166.515242 -370.209809 
L 170.121121 -367.505012 
L 173.727 -367.657079 
L 177.332879 -369.909699 
L 180.938758 -370.49166 
L 184.544636 -371.906938 
L 188.150515 -372.038748 
L 191.756394 -374.043793 
L 195.362273 -374.235917 
L 198.968152 -374.168688 
L 202.57403 -377.349675 
L 206.179909 -375.78494 
L 209.785788 -377.260839 
L 213.391667 -376.810471 
L 216.997545 -373.356061 
L 220.603424 -375.231538 
L 224.209303 -374.850155 
L 227.815182 -376.006298 
L 231.421061 -374.840809 
L 235.026939 -374.608819 
L 238.632818 -375.918136 
L 242.238697 -375.75251 
L 245.844576 -375.484092 
L 249.450455 -373.132551 
L 253.056333 -372.924168 
L 256.662212 -372.045878 
L 260.268091 -372.54933 
L 263.87397 -369.575376 
L 267.479848 -370.854784 
L 271.085727 -371.940872 
L 274.691606 -373.026806 
L 278.297485 -372.829551 
L 281.903364 -372.02888 
L 285.509242 -374.375964 
L 289.115121 -369.598893 
L 292.721 -370.749688 
L 296.326879 -370.264343 
L 299.932758 -368.300245 
L 303.538636 -370.026788 
L 307.144515 -367.878373 
L 310.750394 -367.979661 
L 314.356273 -364.916439 
L 317.962152 -366.322156 
L 321.56803 -370.343617 
L 325.173909 -370.165728 
L 328.779788 -372.401846 
L 332.385667 -371.340536 
L 335.991545 -368.721469 
L 339.597424 -366.720421 
L 343.203303 -365.089386 
L 346.809182 -364.422154 
L 350.415061 -366.960866 
L 354.020939 -365.503047 
L 357.626818 -366.939717 
L 361.232697 -367.373635 
L 364.838576 -364.162343 
L 368.444455 -364.297718 
L 372.050333 -362.794711 
L 375.656212 -362.23903 
L 379.262091 -362.540248 
L 382.86797 -364.448894 
L 386.473848 -362.48593 
L 390.079727 -363.927031 
L 393.685606 -363.132446 
L 397.291485 -361.174371 
L 400.897364 -362.339644 
L 404.503242 -362.228577 
L 408.109121 -361.569799 
L 411.715 -362.457218 
L 415.320879 -361.621443 
L 418.926758 -362.404899 
L 422.532636 -363.420779 
L 426.138515 -361.112058 
L 429.744394 -357.657432 
L 433.350273 -359.96861 
L 436.956152 -358.851875 
L 440.56203 -362.113028 
L 444.167909 -362.42694 
L 447.773788 -362.438527 
L 451.379667 -358.238069 
L 454.985545 -361.208674 
L 458.591424 -362.120591 
L 462.197303 -360.065442 
L 465.803182 -362.295373 
L 469.409061 -362.554751 
L 473.014939 -361.255887 
L 476.620818 -362.199406 
L 480.226697 -361.22361 
L 483.832576 -358.531291 
L 487.438455 -359.326551 
L 491.044333 -358.883287 
L 494.650212 -360.940651 
L 498.256091 -360.123594 
L 501.86197 -359.614209 
L 505.467848 -359.315665 
L 509.073727 -358.211319 
L 512.679606 -359.608798 
L 516.285485 -357.49266 
L 519.891364 -359.873587 
L 523.497242 -356.475952 
L 527.103121 -355.650873 
L 530.709 -355.240994 
L 534.314879 -355.204044 
L 537.920758 -355.858581 
L 541.526636 -353.591294 
L 545.132515 -353.362563 
L 548.738394 -353.102816 
L 552.344273 -354.980598 
L 555.950152 -354.141194 
L 559.55603 -352.733478 
L 563.161909 -358.234098 
L 566.767788 -356.102159 
L 570.373667 -356.088356 
L 573.979545 -355.773706 
L 577.585424 -356.349734 
L 581.191303 -356.912761 
L 584.797182 -354.024753 
L 588.403061 -353.307201 
L 592.008939 -351.164783 
L 595.614818 -351.339781 
L 599.220697 -351.706904 
L 602.826576 -351.865732 
L 606.432455 -352.45341 
L 610.038333 -352.582213 
L 613.644212 -348.058218 
L 617.250091 -351.804194 
L 620.85597 -347.080766 
L 624.461848 -350.610426 
L 628.067727 -355.612662 
L 631.673606 -354.871963 
L 635.279485 -350.566346 
L 638.885364 -352.445694 
L 642.491242 -349.224751 
L 646.097121 -347.277372 
L 649.703 -347.187339 
L 653.308879 -350.392544 
L 656.914758 -350.303275 
L 660.520636 -347.932585 
L 664.126515 -347.127025 
L 667.732394 -350.703287 
L 671.338273 -346.992568 
L 674.944152 -342.952262 
L 678.55003 -340.995728 
L 682.155909 -341.692131 
L 682.155909 -352.369605 
L 682.155909 -352.369605 
L 678.55003 -352.489089 
L 674.944152 -348.450629 
L 671.338273 -348.624341 
L 667.732394 -351.661067 
L 664.126515 -351.951398 
L 660.520636 -353.679265 
L 656.914758 -353.992502 
L 653.308879 -355.784491 
L 649.703 -356.481353 
L 646.097121 -353.130473 
L 642.491242 -355.397111 
L 638.885364 -353.580841 
L 635.279485 -356.313026 
L 631.673606 -355.368589 
L 628.067727 -356.960649 
L 624.461848 -356.569947 
L 620.85597 -357.616347 
L 617.250091 -356.805934 
L 613.644212 -355.259305 
L 610.038333 -360.492767 
L 606.432455 -354.04971 
L 602.826576 -353.107299 
L 599.220697 -356.602224 
L 595.614818 -355.915842 
L 592.008939 -357.62093 
L 588.403061 -357.209268 
L 584.797182 -357.39472 
L 581.191303 -360.601988 
L 577.585424 -356.775414 
L 573.979545 -356.022019 
L 570.373667 -357.61371 
L 566.767788 -357.875825 
L 563.161909 -361.036491 
L 559.55603 -355.500399 
L 555.950152 -356.801694 
L 552.344273 -357.818465 
L 548.738394 -358.743076 
L 545.132515 -357.229157 
L 541.526636 -354.868334 
L 537.920758 -361.179582 
L 534.314879 -358.999691 
L 530.709 -360.668414 
L 527.103121 -358.878947 
L 523.497242 -360.236126 
L 519.891364 -359.873587 
L 516.285485 -358.592333 
L 512.679606 -360.389211 
L 509.073727 -360.055932 
L 505.467848 -359.528505 
L 501.86197 -361.813556 
L 498.256091 -362.784094 
L 494.650212 -365.729551 
L 491.044333 -364.275234 
L 487.438455 -364.860391 
L 483.832576 -366.583738 
L 480.226697 -368.105437 
L 476.620818 -371.06774 
L 473.014939 -369.201914 
L 469.409061 -366.598712 
L 465.803182 -368.53868 
L 462.197303 -372.800369 
L 458.591424 -371.698391 
L 454.985545 -372.560141 
L 451.379667 -369.234803 
L 447.773788 -368.646361 
L 444.167909 -370.94054 
L 440.56203 -370.200948 
L 436.956152 -368.997249 
L 433.350273 -369.510937 
L 429.744394 -370.39236 
L 426.138515 -370.725332 
L 422.532636 -371.827959 
L 418.926758 -370.81208 
L 415.320879 -371.69587 
L 411.715 -370.935345 
L 408.109121 -369.941506 
L 404.503242 -369.784397 
L 400.897364 -376.245191 
L 397.291485 -376.356959 
L 393.685606 -376.505893 
L 390.079727 -376.413645 
L 386.473848 -372.737724 
L 382.86797 -374.913528 
L 379.262091 -373.962662 
L 375.656212 -372.207038 
L 372.050333 -375.990792 
L 368.444455 -376.394125 
L 364.838576 -379.238511 
L 361.232697 -378.334896 
L 357.626818 -378.894231 
L 354.020939 -380.330901 
L 350.415061 -379.199167 
L 346.809182 -380.207789 
L 343.203303 -381.371647 
L 339.597424 -378.887775 
L 335.991545 -378.015483 
L 332.385667 -380.563603 
L 328.779788 -378.574206 
L 325.173909 -372.081288 
L 321.56803 -371.301397 
L 317.962152 -372.388096 
L 314.356273 -372.188473 
L 310.750394 -375.145275 
L 307.144515 -372.73822 
L 303.538636 -375.631575 
L 299.932758 -377.558786 
L 296.326879 -375.01777 
L 292.721 -374.758175 
L 289.115121 -373.50096 
L 285.509242 -375.546584 
L 281.903364 -373.554233 
L 278.297485 -373.255231 
L 274.691606 -373.133226 
L 271.085727 -372.011818 
L 267.479848 -371.918984 
L 263.87397 -371.668303 
L 260.268091 -372.833116 
L 256.662212 -372.684398 
L 253.056333 -373.988368 
L 249.450455 -374.657905 
L 245.844576 -375.767878 
L 242.238697 -377.02955 
L 238.632818 -380.174937 
L 235.026939 -380.355499 
L 231.421061 -379.345923 
L 227.815182 -380.688778 
L 224.209303 -380.490415 
L 220.603424 -378.353192 
L 216.997545 -378.322328 
L 213.391667 -377.200677 
L 209.785788 -382.368999 
L 206.179909 -377.097453 
L 202.57403 -381.251742 
L 198.968152 -376.155195 
L 195.362273 -377.818723 
L 191.756394 -375.427253 
L 188.150515 -374.096201 
L 184.544636 -376.234685 
L 180.938758 -373.435947 
L 177.332879 -371.860732 
L 173.727 -371.630092 
L 170.121121 -373.287165 
L 166.515242 -372.338209 
L 162.909364 -371.381041 
L 159.303485 -371.339328 
L 155.697606 -369.661781 
L 152.091727 -369.120551 
L 148.485848 -371.968413 
L 144.87997 -369.064515 
L 141.274091 -370.438476 
z
" style="stroke: #ffa500; stroke-opacity: 0.3"/>
    </defs>
    <g clip-path="url(#pdfac956d19)">
     <use xlink:href="#m45083013e7" x="0" y="432" style="fill: #ffa500; fill-opacity: 0.3; stroke: #ffa500; stroke-opacity: 0.3"/>
    </g>
   </g>
   <g id="matplotlib.axis_1">
    <g id="xtick_1">
     <g id="line2d_1">
      <defs>
       <path id="mb3ae2adab0" d="M 0 0 
L 0 3.5 
" style="stroke: #000000; stroke-width: 0.8"/>
      </defs>
      <g>
       <use xlink:href="#mb3ae2adab0" x="141.274091" y="343.96" style="stroke: #000000; stroke-width: 0.8"/>
      </g>
     </g>
     <g id="text_1">
      <!-- 0 -->
      <g transform="translate(132.366591 372.235625) scale(0.28 -0.28)">
       <defs>
        <path id="DejaVuSans-30" d="M 2034 4250 
Q 1547 4250 1301 3770 
Q 1056 3291 1056 2328 
Q 1056 1369 1301 889 
Q 1547 409 2034 409 
Q 2525 409 2770 889 
Q 3016 1369 3016 2328 
Q 3016 3291 2770 3770 
Q 2525 4250 2034 4250 
z
M 2034 4750 
Q 2819 4750 3233 4129 
Q 3647 3509 3647 2328 
Q 3647 1150 3233 529 
Q 2819 -91 2034 -91 
Q 1250 -91 836 529 
Q 422 1150 422 2328 
Q 422 3509 836 4129 
Q 1250 4750 2034 4750 
z
" transform="scale(0.015625)"/>
       </defs>
       <use xlink:href="#DejaVuSans-30"/>
      </g>
     </g>
    </g>
    <g id="xtick_2">
     <g id="line2d_2">
      <g>
       <use xlink:href="#mb3ae2adab0" x="213.391667" y="343.96" style="stroke: #000000; stroke-width: 0.8"/>
      </g>
     </g>
     <g id="text_2">
      <!-- 20 -->
      <g transform="translate(195.576667 372.235625) scale(0.28 -0.28)">
       <defs>
        <path id="DejaVuSans-32" d="M 1228 531 
L 3431 531 
L 3431 0 
L 469 0 
L 469 531 
Q 828 903 1448 1529 
Q 2069 2156 2228 2338 
Q 2531 2678 2651 2914 
Q 2772 3150 2772 3378 
Q 2772 3750 2511 3984 
Q 2250 4219 1831 4219 
Q 1534 4219 1204 4116 
Q 875 4013 500 3803 
L 500 4441 
Q 881 4594 1212 4672 
Q 1544 4750 1819 4750 
Q 2544 4750 2975 4387 
Q 3406 4025 3406 3419 
Q 3406 3131 3298 2873 
Q 3191 2616 2906 2266 
Q 2828 2175 2409 1742 
Q 1991 1309 1228 531 
z
" transform="scale(0.015625)"/>
       </defs>
       <use xlink:href="#DejaVuSans-32"/>
       <use xlink:href="#DejaVuSans-30" x="63.623047"/>
      </g>
     </g>
    </g>
    <g id="xtick_3">
     <g id="line2d_3">
      <g>
       <use xlink:href="#mb3ae2adab0" x="285.509242" y="343.96" style="stroke: #000000; stroke-width: 0.8"/>
      </g>
     </g>
     <g id="text_3">
      <!-- 40 -->
      <g transform="translate(267.694242 372.235625) scale(0.28 -0.28)">
       <defs>
        <path id="DejaVuSans-34" d="M 2419 4116 
L 825 1625 
L 2419 1625 
L 2419 4116 
z
M 2253 4666 
L 3047 4666 
L 3047 1625 
L 3713 1625 
L 3713 1100 
L 3047 1100 
L 3047 0 
L 2419 0 
L 2419 1100 
L 313 1100 
L 313 1709 
L 2253 4666 
z
" transform="scale(0.015625)"/>
       </defs>
       <use xlink:href="#DejaVuSans-34"/>
       <use xlink:href="#DejaVuSans-30" x="63.623047"/>
      </g>
     </g>
    </g>
    <g id="xtick_4">
     <g id="line2d_4">
      <g>
       <use xlink:href="#mb3ae2adab0" x="357.626818" y="343.96" style="stroke: #000000; stroke-width: 0.8"/>
      </g>
     </g>
     <g id="text_4">
      <!-- 60 -->
      <g transform="translate(339.811818 372.235625) scale(0.28 -0.28)">
       <defs>
        <path id="DejaVuSans-36" d="M 2113 2584 
Q 1688 2584 1439 2293 
Q 1191 2003 1191 1497 
Q 1191 994 1439 701 
Q 1688 409 2113 409 
Q 2538 409 2786 701 
Q 3034 994 3034 1497 
Q 3034 2003 2786 2293 
Q 2538 2584 2113 2584 
z
M 3366 4563 
L 3366 3988 
Q 3128 4100 2886 4159 
Q 2644 4219 2406 4219 
Q 1781 4219 1451 3797 
Q 1122 3375 1075 2522 
Q 1259 2794 1537 2939 
Q 1816 3084 2150 3084 
Q 2853 3084 3261 2657 
Q 3669 2231 3669 1497 
Q 3669 778 3244 343 
Q 2819 -91 2113 -91 
Q 1303 -91 875 529 
Q 447 1150 447 2328 
Q 447 3434 972 4092 
Q 1497 4750 2381 4750 
Q 2619 4750 2861 4703 
Q 3103 4656 3366 4563 
z
" transform="scale(0.015625)"/>
       </defs>
       <use xlink:href="#DejaVuSans-36"/>
       <use xlink:href="#DejaVuSans-30" x="63.623047"/>
      </g>
     </g>
    </g>
    <g id="xtick_5">
     <g id="line2d_5">
      <g>
       <use xlink:href="#mb3ae2adab0" x="429.744394" y="343.96" style="stroke: #000000; stroke-width: 0.8"/>
      </g>
     </g>
     <g id="text_5">
      <!-- 80 -->
      <g transform="translate(411.929394 372.235625) scale(0.28 -0.28)">
       <defs>
        <path id="DejaVuSans-38" d="M 2034 2216 
Q 1584 2216 1326 1975 
Q 1069 1734 1069 1313 
Q 1069 891 1326 650 
Q 1584 409 2034 409 
Q 2484 409 2743 651 
Q 3003 894 3003 1313 
Q 3003 1734 2745 1975 
Q 2488 2216 2034 2216 
z
M 1403 2484 
Q 997 2584 770 2862 
Q 544 3141 544 3541 
Q 544 4100 942 4425 
Q 1341 4750 2034 4750 
Q 2731 4750 3128 4425 
Q 3525 4100 3525 3541 
Q 3525 3141 3298 2862 
Q 3072 2584 2669 2484 
Q 3125 2378 3379 2068 
Q 3634 1759 3634 1313 
Q 3634 634 3220 271 
Q 2806 -91 2034 -91 
Q 1263 -91 848 271 
Q 434 634 434 1313 
Q 434 1759 690 2068 
Q 947 2378 1403 2484 
z
M 1172 3481 
Q 1172 3119 1398 2916 
Q 1625 2713 2034 2713 
Q 2441 2713 2670 2916 
Q 2900 3119 2900 3481 
Q 2900 3844 2670 4047 
Q 2441 4250 2034 4250 
Q 1625 4250 1398 4047 
Q 1172 3844 1172 3481 
z
" transform="scale(0.015625)"/>
       </defs>
       <use xlink:href="#DejaVuSans-38"/>
       <use xlink:href="#DejaVuSans-30" x="63.623047"/>
      </g>
     </g>
    </g>
    <g id="xtick_6">
     <g id="line2d_6">
      <g>
       <use xlink:href="#mb3ae2adab0" x="501.86197" y="343.96" style="stroke: #000000; stroke-width: 0.8"/>
      </g>
     </g>
     <g id="text_6">
      <!-- 100 -->
      <g transform="translate(475.13947 372.235625) scale(0.28 -0.28)">
       <defs>
        <path id="DejaVuSans-31" d="M 794 531 
L 1825 531 
L 1825 4091 
L 703 3866 
L 703 4441 
L 1819 4666 
L 2450 4666 
L 2450 531 
L 3481 531 
L 3481 0 
L 794 0 
L 794 531 
z
" transform="scale(0.015625)"/>
       </defs>
       <use xlink:href="#DejaVuSans-31"/>
       <use xlink:href="#DejaVuSans-30" x="63.623047"/>
       <use xlink:href="#DejaVuSans-30" x="127.246094"/>
      </g>
     </g>
    </g>
    <g id="xtick_7">
     <g id="line2d_7">
      <g>
       <use xlink:href="#mb3ae2adab0" x="573.979545" y="343.96" style="stroke: #000000; stroke-width: 0.8"/>
      </g>
     </g>
     <g id="text_7">
      <!-- 120 -->
      <g transform="translate(547.257045 372.235625) scale(0.28 -0.28)">
       <use xlink:href="#DejaVuSans-31"/>
       <use xlink:href="#DejaVuSans-32" x="63.623047"/>
       <use xlink:href="#DejaVuSans-30" x="127.246094"/>
      </g>
     </g>
    </g>
    <g id="xtick_8">
     <g id="line2d_8">
      <g>
       <use xlink:href="#mb3ae2adab0" x="646.097121" y="343.96" style="stroke: #000000; stroke-width: 0.8"/>
      </g>
     </g>
     <g id="text_8">
      <!-- 140 -->
      <g transform="translate(619.374621 372.235625) scale(0.28 -0.28)">
       <use xlink:href="#DejaVuSans-31"/>
       <use xlink:href="#DejaVuSans-34" x="63.623047"/>
       <use xlink:href="#DejaVuSans-30" x="127.246094"/>
      </g>
     </g>
    </g>
    <g id="text_9">
     <!-- Episode -->
     <g transform="translate(333.165 412.4525) scale(0.4 -0.4)">
      <defs>
       <path id="DejaVuSans-45" d="M 628 4666 
L 3578 4666 
L 3578 4134 
L 1259 4134 
L 1259 2753 
L 3481 2753 
L 3481 2222 
L 1259 2222 
L 1259 531 
L 3634 531 
L 3634 0 
L 628 0 
L 628 4666 
z
" transform="scale(0.015625)"/>
       <path id="DejaVuSans-70" d="M 1159 525 
L 1159 -1331 
L 581 -1331 
L 581 3500 
L 1159 3500 
L 1159 2969 
Q 1341 3281 1617 3432 
Q 1894 3584 2278 3584 
Q 2916 3584 3314 3078 
Q 3713 2572 3713 1747 
Q 3713 922 3314 415 
Q 2916 -91 2278 -91 
Q 1894 -91 1617 61 
Q 1341 213 1159 525 
z
M 3116 1747 
Q 3116 2381 2855 2742 
Q 2594 3103 2138 3103 
Q 1681 3103 1420 2742 
Q 1159 2381 1159 1747 
Q 1159 1113 1420 752 
Q 1681 391 2138 391 
Q 2594 391 2855 752 
Q 3116 1113 3116 1747 
z
" transform="scale(0.015625)"/>
       <path id="DejaVuSans-69" d="M 603 3500 
L 1178 3500 
L 1178 0 
L 603 0 
L 603 3500 
z
M 603 4863 
L 1178 4863 
L 1178 4134 
L 603 4134 
L 603 4863 
z
" transform="scale(0.015625)"/>
       <path id="DejaVuSans-73" d="M 2834 3397 
L 2834 2853 
Q 2591 2978 2328 3040 
Q 2066 3103 1784 3103 
Q 1356 3103 1142 2972 
Q 928 2841 928 2578 
Q 928 2378 1081 2264 
Q 1234 2150 1697 2047 
L 1894 2003 
Q 2506 1872 2764 1633 
Q 3022 1394 3022 966 
Q 3022 478 2636 193 
Q 2250 -91 1575 -91 
Q 1294 -91 989 -36 
Q 684 19 347 128 
L 347 722 
Q 666 556 975 473 
Q 1284 391 1588 391 
Q 1994 391 2212 530 
Q 2431 669 2431 922 
Q 2431 1156 2273 1281 
Q 2116 1406 1581 1522 
L 1381 1569 
Q 847 1681 609 1914 
Q 372 2147 372 2553 
Q 372 3047 722 3315 
Q 1072 3584 1716 3584 
Q 2034 3584 2315 3537 
Q 2597 3491 2834 3397 
z
" transform="scale(0.015625)"/>
       <path id="DejaVuSans-6f" d="M 1959 3097 
Q 1497 3097 1228 2736 
Q 959 2375 959 1747 
Q 959 1119 1226 758 
Q 1494 397 1959 397 
Q 2419 397 2687 759 
Q 2956 1122 2956 1747 
Q 2956 2369 2687 2733 
Q 2419 3097 1959 3097 
z
M 1959 3584 
Q 2709 3584 3137 3096 
Q 3566 2609 3566 1747 
Q 3566 888 3137 398 
Q 2709 -91 1959 -91 
Q 1206 -91 779 398 
Q 353 888 353 1747 
Q 353 2609 779 3096 
Q 1206 3584 1959 3584 
z
" transform="scale(0.015625)"/>
       <path id="DejaVuSans-64" d="M 2906 2969 
L 2906 4863 
L 3481 4863 
L 3481 0 
L 2906 0 
L 2906 525 
Q 2725 213 2448 61 
Q 2172 -91 1784 -91 
Q 1150 -91 751 415 
Q 353 922 353 1747 
Q 353 2572 751 3078 
Q 1150 3584 1784 3584 
Q 2172 3584 2448 3432 
Q 2725 3281 2906 2969 
z
M 947 1747 
Q 947 1113 1208 752 
Q 1469 391 1925 391 
Q 2381 391 2643 752 
Q 2906 1113 2906 1747 
Q 2906 2381 2643 2742 
Q 2381 3103 1925 3103 
Q 1469 3103 1208 2742 
Q 947 2381 947 1747 
z
" transform="scale(0.015625)"/>
       <path id="DejaVuSans-65" d="M 3597 1894 
L 3597 1613 
L 953 1613 
Q 991 1019 1311 708 
Q 1631 397 2203 397 
Q 2534 397 2845 478 
Q 3156 559 3463 722 
L 3463 178 
Q 3153 47 2828 -22 
Q 2503 -91 2169 -91 
Q 1331 -91 842 396 
Q 353 884 353 1716 
Q 353 2575 817 3079 
Q 1281 3584 2069 3584 
Q 2775 3584 3186 3129 
Q 3597 2675 3597 1894 
z
M 3022 2063 
Q 3016 2534 2758 2815 
Q 2500 3097 2075 3097 
Q 1594 3097 1305 2825 
Q 1016 2553 972 2059 
L 3022 2063 
z
" transform="scale(0.015625)"/>
      </defs>
      <use xlink:href="#DejaVuSans-45"/>
      <use xlink:href="#DejaVuSans-70" x="63.183594"/>
      <use xlink:href="#DejaVuSans-69" x="126.660156"/>
      <use xlink:href="#DejaVuSans-73" x="154.443359"/>
      <use xlink:href="#DejaVuSans-6f" x="206.542969"/>
      <use xlink:href="#DejaVuSans-64" x="267.724609"/>
      <use xlink:href="#DejaVuSans-65" x="331.201172"/>
     </g>
    </g>
   </g>
   <g id="matplotlib.axis_2">
    <g id="ytick_1">
     <g id="line2d_9">
      <defs>
       <path id="m7ddbb418d9" d="M 0 0 
L -3.5 0 
" style="stroke: #000000; stroke-width: 0.8"/>
      </defs>
      <g>
       <use xlink:href="#m7ddbb418d9" x="114.23" y="322.521813" style="stroke: #000000; stroke-width: 0.8"/>
      </g>
     </g>
     <g id="text_10">
      <!-- 75 -->
      <g transform="translate(71.6 333.159626) scale(0.28 -0.28)">
       <defs>
        <path id="DejaVuSans-37" d="M 525 4666 
L 3525 4666 
L 3525 4397 
L 1831 0 
L 1172 0 
L 2766 4134 
L 525 4134 
L 525 4666 
z
" transform="scale(0.015625)"/>
        <path id="DejaVuSans-35" d="M 691 4666 
L 3169 4666 
L 3169 4134 
L 1269 4134 
L 1269 2991 
Q 1406 3038 1543 3061 
Q 1681 3084 1819 3084 
Q 2600 3084 3056 2656 
Q 3513 2228 3513 1497 
Q 3513 744 3044 326 
Q 2575 -91 1722 -91 
Q 1428 -91 1123 -41 
Q 819 9 494 109 
L 494 744 
Q 775 591 1075 516 
Q 1375 441 1709 441 
Q 2250 441 2565 725 
Q 2881 1009 2881 1497 
Q 2881 1984 2565 2268 
Q 2250 2553 1709 2553 
Q 1456 2553 1204 2497 
Q 953 2441 691 2322 
L 691 4666 
z
" transform="scale(0.015625)"/>
       </defs>
       <use xlink:href="#DejaVuSans-37"/>
       <use xlink:href="#DejaVuSans-35" x="63.623047"/>
      </g>
     </g>
    </g>
    <g id="ytick_2">
     <g id="line2d_10">
      <g>
       <use xlink:href="#m7ddbb418d9" x="114.23" y="284.896659" style="stroke: #000000; stroke-width: 0.8"/>
      </g>
     </g>
     <g id="text_11">
      <!-- 100 -->
      <g transform="translate(53.785 295.534472) scale(0.28 -0.28)">
       <use xlink:href="#DejaVuSans-31"/>
       <use xlink:href="#DejaVuSans-30" x="63.623047"/>
       <use xlink:href="#DejaVuSans-30" x="127.246094"/>
      </g>
     </g>
    </g>
    <g id="ytick_3">
     <g id="line2d_11">
      <g>
       <use xlink:href="#m7ddbb418d9" x="114.23" y="247.271505" style="stroke: #000000; stroke-width: 0.8"/>
      </g>
     </g>
     <g id="text_12">
      <!-- 125 -->
      <g transform="translate(53.785 257.909318) scale(0.28 -0.28)">
       <use xlink:href="#DejaVuSans-31"/>
       <use xlink:href="#DejaVuSans-32" x="63.623047"/>
       <use xlink:href="#DejaVuSans-35" x="127.246094"/>
      </g>
     </g>
    </g>
    <g id="ytick_4">
     <g id="line2d_12">
      <g>
       <use xlink:href="#m7ddbb418d9" x="114.23" y="209.646351" style="stroke: #000000; stroke-width: 0.8"/>
      </g>
     </g>
     <g id="text_13">
      <!-- 150 -->
      <g transform="translate(53.785 220.284164) scale(0.28 -0.28)">
       <use xlink:href="#DejaVuSans-31"/>
       <use xlink:href="#DejaVuSans-35" x="63.623047"/>
       <use xlink:href="#DejaVuSans-30" x="127.246094"/>
      </g>
     </g>
    </g>
    <g id="ytick_5">
     <g id="line2d_13">
      <g>
       <use xlink:href="#m7ddbb418d9" x="114.23" y="172.021197" style="stroke: #000000; stroke-width: 0.8"/>
      </g>
     </g>
     <g id="text_14">
      <!-- 175 -->
      <g transform="translate(53.785 182.659009) scale(0.28 -0.28)">
       <use xlink:href="#DejaVuSans-31"/>
       <use xlink:href="#DejaVuSans-37" x="63.623047"/>
       <use xlink:href="#DejaVuSans-35" x="127.246094"/>
      </g>
     </g>
    </g>
    <g id="ytick_6">
     <g id="line2d_14">
      <g>
       <use xlink:href="#m7ddbb418d9" x="114.23" y="134.396043" style="stroke: #000000; stroke-width: 0.8"/>
      </g>
     </g>
     <g id="text_15">
      <!-- 200 -->
      <g transform="translate(53.785 145.033855) scale(0.28 -0.28)">
       <use xlink:href="#DejaVuSans-32"/>
       <use xlink:href="#DejaVuSans-30" x="63.623047"/>
       <use xlink:href="#DejaVuSans-30" x="127.246094"/>
      </g>
     </g>
    </g>
    <g id="ytick_7">
     <g id="line2d_15">
      <g>
       <use xlink:href="#m7ddbb418d9" x="114.23" y="96.770889" style="stroke: #000000; stroke-width: 0.8"/>
      </g>
     </g>
     <g id="text_16">
      <!-- 225 -->
      <g transform="translate(53.785 107.408701) scale(0.28 -0.28)">
       <use xlink:href="#DejaVuSans-32"/>
       <use xlink:href="#DejaVuSans-32" x="63.623047"/>
       <use xlink:href="#DejaVuSans-35" x="127.246094"/>
      </g>
     </g>
    </g>
    <g id="ytick_8">
     <g id="line2d_16">
      <g>
       <use xlink:href="#m7ddbb418d9" x="114.23" y="59.145735" style="stroke: #000000; stroke-width: 0.8"/>
      </g>
     </g>
     <g id="text_17">
      <!-- 250 -->
      <g transform="translate(53.785 69.783547) scale(0.28 -0.28)">
       <use xlink:href="#DejaVuSans-32"/>
       <use xlink:href="#DejaVuSans-35" x="63.623047"/>
       <use xlink:href="#DejaVuSans-30" x="127.246094"/>
      </g>
     </g>
    </g>
    <g id="ytick_9">
     <g id="line2d_17">
      <g>
       <use xlink:href="#m7ddbb418d9" x="114.23" y="21.520581" style="stroke: #000000; stroke-width: 0.8"/>
      </g>
     </g>
     <g id="text_18">
      <!-- 275 -->
      <g transform="translate(53.785 32.158393) scale(0.28 -0.28)">
       <use xlink:href="#DejaVuSans-32"/>
       <use xlink:href="#DejaVuSans-37" x="63.623047"/>
       <use xlink:href="#DejaVuSans-35" x="127.246094"/>
      </g>
     </g>
    </g>
    <g id="text_19">
     <!-- $m_{to}$ -->
     <g transform="translate(41.46625 214.429638) rotate(-90) scale(0.4 -0.4)">
      <defs>
       <path id="DejaVuSans-Oblique-6d" d="M 5747 2113 
L 5338 0 
L 4763 0 
L 5166 2094 
Q 5191 2228 5203 2325 
Q 5216 2422 5216 2491 
Q 5216 2772 5059 2928 
Q 4903 3084 4622 3084 
Q 4203 3084 3875 2770 
Q 3547 2456 3450 1953 
L 3066 0 
L 2491 0 
L 2900 2094 
Q 2925 2209 2937 2307 
Q 2950 2406 2950 2484 
Q 2950 2769 2794 2926 
Q 2638 3084 2363 3084 
Q 1938 3084 1609 2770 
Q 1281 2456 1184 1953 
L 800 0 
L 225 0 
L 909 3500 
L 1484 3500 
L 1375 2956 
Q 1609 3263 1923 3423 
Q 2238 3584 2597 3584 
Q 2978 3584 3223 3384 
Q 3469 3184 3519 2828 
Q 3781 3197 4126 3390 
Q 4472 3584 4856 3584 
Q 5306 3584 5551 3325 
Q 5797 3066 5797 2591 
Q 5797 2488 5784 2364 
Q 5772 2241 5747 2113 
z
" transform="scale(0.015625)"/>
       <path id="DejaVuSans-Oblique-74" d="M 2706 3500 
L 2619 3053 
L 1472 3053 
L 1100 1153 
Q 1081 1047 1072 975 
Q 1063 903 1063 863 
Q 1063 663 1183 572 
Q 1303 481 1569 481 
L 2150 481 
L 2053 0 
L 1503 0 
Q 991 0 739 200 
Q 488 400 488 806 
Q 488 878 497 964 
Q 506 1050 525 1153 
L 897 3053 
L 409 3053 
L 500 3500 
L 978 3500 
L 1172 4494 
L 1747 4494 
L 1556 3500 
L 2706 3500 
z
" transform="scale(0.015625)"/>
       <path id="DejaVuSans-Oblique-6f" d="M 1625 -91 
Q 1009 -91 651 289 
Q 294 669 294 1325 
Q 294 1706 417 2101 
Q 541 2497 738 2766 
Q 1047 3184 1428 3384 
Q 1809 3584 2291 3584 
Q 2888 3584 3255 3212 
Q 3622 2841 3622 2241 
Q 3622 1825 3500 1412 
Q 3378 1000 3181 728 
Q 2875 309 2494 109 
Q 2113 -91 1625 -91 
z
M 891 1344 
Q 891 869 1089 633 
Q 1288 397 1691 397 
Q 2269 397 2648 901 
Q 3028 1406 3028 2181 
Q 3028 2634 2825 2865 
Q 2622 3097 2228 3097 
Q 1903 3097 1650 2945 
Q 1397 2794 1197 2484 
Q 1050 2253 970 1956 
Q 891 1659 891 1344 
z
" transform="scale(0.015625)"/>
      </defs>
      <use xlink:href="#DejaVuSans-Oblique-6d"/>
      <use xlink:href="#DejaVuSans-Oblique-74" transform="translate(97.412109 -16.40625) scale(0.7)"/>
      <use xlink:href="#DejaVuSans-Oblique-6f" transform="translate(124.858398 -16.40625) scale(0.7)"/>
     </g>
    </g>
   </g>
   <g id="line2d_18">
    <path d="M 141.274091 147.351638 
L 144.87997 149.421021 
L 148.485848 149.157645 
L 152.091727 148.380058 
L 155.697606 150.048107 
L 159.303485 151.904281 
L 162.909364 153.095744 
L 166.515242 154.111624 
L 170.121121 158.990352 
L 173.727 157.761264 
L 177.332879 159.905897 
L 180.938758 160.169273 
L 184.544636 158.363266 
L 188.150515 159.579813 
L 191.756394 157.798889 
L 195.362273 159.529646 
L 198.968152 160.633317 
L 202.57403 161.862405 
L 206.179909 161.573946 
L 209.785788 161.561404 
L 213.391667 163.818913 
L 216.997545 165.173419 
L 224.209303 169.349811 
L 227.815182 171.60732 
L 231.421061 169.04881 
L 235.026939 171.055485 
L 238.632818 170.139939 
L 242.238697 170.955151 
L 249.450455 169.901647 
L 253.056333 171.53207 
L 256.662212 171.09311 
L 263.87397 176.912467 
L 267.479848 175.206793 
L 271.085727 178.7561 
L 274.691606 179.182518 
L 278.297485 178.54289 
L 281.903364 180.474315 
L 285.509242 179.797062 
L 289.115121 180.700066 
L 292.721 184.098871 
L 296.326879 186.155713 
L 299.932758 185.879795 
L 303.538636 188.789474 
L 307.144515 188.388139 
L 310.750394 190.332105 
L 314.356273 188.588806 
L 317.962152 190.307022 
L 321.56803 190.495148 
L 325.173909 191.511027 
L 328.779788 195.386418 
L 332.385667 195.436585 
L 335.991545 196.954132 
L 339.597424 198.346263 
L 343.203303 196.941591 
L 346.809182 197.368009 
L 350.415061 198.785223 
L 354.020939 201.97082 
L 357.626818 202.886365 
L 364.838576 207.953219 
L 368.444455 211.113732 
L 372.050333 210.160561 
L 375.656212 215.177249 
L 379.262091 216.243295 
L 382.86797 216.770047 
L 390.079727 222.840238 
L 393.685606 222.200611 
L 397.291485 224.784205 
L 400.897364 227.129506 
L 404.503242 231.845192 
L 408.109121 235.030788 
L 411.715 237.062547 
L 415.320879 239.796641 
L 418.926758 245.753957 
L 422.532636 244.010658 
L 426.138515 244.286576 
L 429.744394 244.675369 
L 433.350273 249.253097 
L 436.956152 248.450427 
L 440.56203 251.272313 
L 444.167909 252.463776 
L 447.773788 251.799065 
L 451.379667 254.97212 
L 454.985545 254.232159 
L 458.591424 254.119283 
L 462.197303 252.777319 
L 465.803182 256.113416 
L 469.409061 257.166921 
L 473.014939 259.299013 
L 476.620818 257.279796 
L 480.226697 258.797344 
L 483.832576 258.646843 
L 487.438455 260.791477 
L 491.044333 259.549847 
L 494.650212 257.844173 
L 498.256091 255.987999 
L 501.86197 252.024816 
L 505.467848 254.60841 
L 509.073727 256.891003 
L 512.679606 260.477934 
L 516.285485 262.810694 
L 519.891364 265.620039 
L 523.497242 267.463671 
L 527.103121 266.07154 
L 530.709 270.022182 
L 534.314879 265.293954 
L 537.920758 264.717035 
L 541.526636 267.375879 
L 545.132515 269.558138 
L 552.344273 266.334917 
L 555.950152 270.900102 
L 559.55603 271.464479 
L 563.161909 274.424325 
L 566.767788 274.687701 
L 570.373667 280.093181 
L 573.979545 281.635813 
L 577.585424 284.31974 
L 581.191303 291.067184 
L 584.797182 292.509482 
L 588.403061 293.086401 
L 592.008939 297.375669 
L 595.614818 297.889879 
L 599.220697 298.228505 
L 602.826576 299.884012 
L 606.432455 300.761933 
L 610.038333 302.944191 
L 613.644212 305.264409 
L 617.250091 308.061212 
L 620.85597 305.703369 
L 624.461848 305.0512 
L 628.067727 308.224255 
L 631.673606 309.892303 
L 635.279485 308.149004 
L 638.885364 306.932458 
L 642.491242 309.791969 
L 646.097121 308.424922 
L 649.703 309.704177 
L 653.308879 310.030262 
L 656.914758 313.491776 
L 660.520636 311.98677 
L 664.126515 314.39478 
L 667.732394 317.404792 
L 671.338273 314.90899 
L 674.944152 313.855486 
L 678.55003 308.161546 
L 682.155909 307.672419 
L 682.155909 307.672419 
" clip-path="url(#pdfac956d19)" style="fill: none; stroke: #0000ff; stroke-width: 3; stroke-linecap: square"/>
   </g>
   <g id="line2d_19">
    <path d="M 141.274091 62.594707 
L 144.87997 62.005246 
L 148.485848 61.992705 
L 152.091727 63.34721 
L 155.697606 63.384835 
L 159.303485 67.059559 
L 162.909364 65.429135 
L 166.515242 66.056221 
L 170.121121 65.052884 
L 173.727 67.322935 
L 177.332879 65.717595 
L 180.938758 64.563757 
L 184.544636 64.225131 
L 188.150515 64.124797 
L 191.756394 65.103051 
L 195.362273 65.115592 
L 198.968152 63.861421 
L 202.57403 66.269431 
L 206.179909 65.203385 
L 209.785788 63.27196 
L 213.391667 64.099713 
L 216.997545 65.228468 
L 220.603424 65.692512 
L 224.209303 65.0278 
L 231.421061 64.087172 
L 235.026939 62.707583 
L 238.632818 61.139868 
L 242.238697 60.512782 
L 245.844576 60.261948 
L 249.450455 61.190035 
L 253.056333 60.813783 
L 256.662212 59.772821 
L 260.268091 59.597237 
L 263.87397 60.462615 
L 267.479848 57.828854 
L 271.085727 56.750267 
L 274.691606 56.474349 
L 278.297485 55.370678 
L 281.903364 55.721846 
L 285.509242 55.320511 
L 289.115121 53.828046 
L 292.721 55.496095 
L 296.326879 55.006968 
L 303.538636 54.718508 
L 307.144515 52.586416 
L 310.750394 51.131577 
L 314.356273 52.598958 
L 317.962152 53.063001 
L 321.56803 53.41417 
L 328.779788 52.899959 
L 332.385667 54.693425 
L 335.991545 53.840588 
L 346.809182 52.749459 
L 350.415061 52.975209 
L 354.020939 55.483553 
L 357.626818 53.815505 
L 361.232697 56.838059 
L 364.838576 54.693425 
L 368.444455 56.148264 
L 372.050333 55.53372 
L 375.656212 54.141589 
L 379.262091 54.818842 
L 382.86797 54.831384 
L 386.473848 54.73105 
L 393.685606 52.235248 
L 397.291485 52.511166 
L 400.897364 51.683412 
L 404.503242 51.670871 
L 411.715 52.134914 
L 415.320879 52.624041 
L 418.926758 50.680075 
L 422.532636 53.501962 
L 429.744394 49.827238 
L 433.350273 50.241115 
L 436.956152 49.614029 
L 440.56203 50.015364 
L 444.167909 50.805492 
L 447.773788 49.087277 
L 451.379667 50.178406 
L 454.985545 48.071398 
L 458.591424 48.936776 
L 462.197303 46.792142 
L 465.803182 48.861526 
L 469.409061 48.410024 
L 473.014939 48.698484 
L 476.620818 48.284607 
L 480.226697 47.983606 
L 483.832576 47.017893 
L 487.438455 45.588138 
L 491.044333 47.193477 
L 494.650212 45.550512 
L 498.256091 45.036302 
L 501.86197 43.945172 
L 505.467848 42.527958 
L 509.073727 41.66258 
L 512.679606 43.669255 
L 523.497242 41.888331 
L 527.103121 43.895006 
L 530.709 45.099011 
L 534.314879 44.196007 
L 537.920758 40.947702 
L 541.526636 43.293003 
L 545.132515 42.377458 
L 548.738394 44.108215 
L 552.344273 40.960244 
L 555.950152 43.920089 
L 559.55603 45.287136 
L 563.161909 43.907547 
L 566.767788 43.456045 
L 570.373667 41.762914 
L 573.979545 43.581463 
L 577.585424 43.794672 
L 581.191303 43.681796 
L 584.797182 42.640834 
L 588.403061 41.73783 
L 592.008939 43.280461 
L 595.614818 42.277124 
L 599.220697 42.076456 
L 602.826576 41.323953 
L 606.432455 41.261245 
L 610.038333 42.402541 
L 613.644212 43.079794 
L 617.250091 39.756239 
L 624.461848 40.897535 
L 628.067727 38.351566 
L 631.673606 37.348229 
L 638.885364 39.204403 
L 642.491242 39.593196 
L 646.097121 38.08819 
L 649.703 35.554763 
L 653.308879 36.545559 
L 656.914758 37.950231 
L 660.520636 37.473646 
L 664.126515 37.975315 
L 667.732394 37.486188 
L 671.338273 38.89086 
L 674.944152 38.640026 
L 682.155909 39.041361 
L 682.155909 39.041361 
" clip-path="url(#pdfac956d19)" style="fill: none; stroke: #008000; stroke-width: 3; stroke-linecap: square"/>
   </g>
   <g id="line2d_20">
    <path d="M 141.274091 63.78617 
L 144.87997 63.648211 
L 148.485848 62.39404 
L 152.091727 64.200047 
L 155.697606 62.833 
L 159.303485 64.839675 
L 162.909364 62.795375 
L 166.515242 63.334669 
L 170.121121 62.695041 
L 173.727 62.632332 
L 177.332879 62.720124 
L 180.938758 65.617261 
L 184.544636 64.526132 
L 188.150515 64.538673 
L 191.756394 63.685837 
L 195.362273 65.416594 
L 198.968152 65.529469 
L 202.57403 63.184168 
L 206.179909 63.510253 
L 209.785788 63.648211 
L 213.391667 64.124797 
L 216.997545 66.595515 
L 220.603424 64.363089 
L 224.209303 63.485169 
L 227.815182 65.353885 
L 235.026939 63.146543 
L 238.632818 64.237672 
L 242.238697 64.037005 
L 245.844576 64.940008 
L 249.450455 64.626465 
L 253.056333 65.341343 
L 256.662212 65.266093 
L 260.268091 62.883167 
L 263.87397 64.14988 
L 267.479848 62.695041 
L 271.085727 63.899046 
L 274.691606 63.836337 
L 278.297485 63.435002 
L 281.903364 63.685837 
L 285.509242 62.770291 
L 289.115121 65.579636 
L 292.721 63.184168 
L 296.326879 63.572961 
L 299.932758 64.501048 
L 303.538636 64.714258 
L 307.144515 62.920792 
L 310.750394 63.861421 
L 314.356273 64.526132 
L 321.56803 64.927467 
L 325.173909 61.616453 
L 328.779788 66.570432 
L 332.385667 62.858083 
L 335.991545 64.350548 
L 339.597424 67.272768 
L 343.203303 65.629803 
L 346.809182 66.394848 
L 350.415061 63.159084 
L 354.020939 63.823796 
L 357.626818 65.077967 
L 361.232697 65.291177 
L 364.838576 66.344681 
L 368.444455 64.8773 
L 372.050333 63.610586 
L 375.656212 63.397377 
L 379.262091 65.955888 
L 382.86797 66.031138 
L 386.473848 64.400715 
L 390.079727 65.090509 
L 393.685606 66.821266 
L 397.291485 64.375631 
L 400.897364 64.639007 
L 404.503242 65.843012 
L 408.109121 64.287839 
L 411.715 65.843012 
L 415.320879 65.178301 
L 418.926758 64.049546 
L 422.532636 64.501048 
L 426.138515 64.463423 
L 429.744394 64.889842 
L 433.350273 64.701716 
L 436.956152 64.237672 
L 440.56203 66.006054 
L 444.167909 65.980971 
L 447.773788 67.047017 
L 451.379667 64.538673 
L 454.985545 65.730137 
L 458.591424 63.334669 
L 462.197303 66.394848 
L 465.803182 65.968429 
L 469.409061 65.178301 
L 473.014939 65.880637 
L 476.620818 64.689174 
L 480.226697 65.103051 
L 483.832576 64.350548 
L 487.438455 64.839675 
L 491.044333 64.613924 
L 494.650212 65.491844 
L 498.256091 63.259418 
L 501.86197 67.210059 
L 505.467848 66.056221 
L 509.073727 64.576299 
L 512.679606 64.43834 
L 516.285485 65.215926 
L 519.891364 65.404052 
L 523.497242 64.137338 
L 527.103121 65.542011 
L 530.709 66.144013 
L 534.314879 63.924129 
L 537.920758 65.75522 
L 541.526636 65.918262 
L 545.132515 63.63567 
L 548.738394 66.206722 
L 552.344273 63.297043 
L 555.950152 63.409919 
L 559.55603 64.902383 
L 563.161909 64.626465 
L 566.767788 65.291177 
L 570.373667 63.485169 
L 573.979545 64.827133 
L 577.585424 63.848879 
L 581.191303 64.651549 
L 584.797182 65.717595 
L 588.403061 64.14988 
L 592.008939 63.510253 
L 595.614818 64.475965 
L 599.220697 64.475965 
L 602.826576 64.95255 
L 606.432455 65.843012 
L 610.038333 64.07463 
L 613.644212 65.67997 
L 617.250091 63.736004 
L 620.85597 63.723462 
L 624.461848 64.162422 
L 628.067727 64.450881 
L 631.673606 65.040342 
L 635.279485 64.174964 
L 638.885364 61.616453 
L 646.097121 64.990175 
L 649.703 65.692512 
L 653.308879 64.162422 
L 656.914758 64.312923 
L 660.520636 65.466761 
L 664.126515 63.27196 
L 667.732394 65.955888 
L 671.338273 63.134001 
L 674.944152 64.990175 
L 678.55003 63.823796 
L 682.155909 65.002717 
L 682.155909 65.002717 
" clip-path="url(#pdfac956d19)" style="fill: none; stroke: #ff0000; stroke-width: 3; stroke-linecap: square"/>
   </g>
   <g id="line2d_21">
    <path d="M 141.274091 63.033667 
L 144.87997 62.970959 
L 148.485848 60.989367 
L 152.091727 63.748545 
L 155.697606 63.899046 
L 159.303485 62.168289 
L 162.909364 62.782833 
L 166.515242 60.725991 
L 170.121121 61.603911 
L 173.727 62.356415 
L 177.332879 61.114784 
L 180.938758 60.036197 
L 184.544636 57.929188 
L 188.150515 58.932526 
L 191.756394 57.264477 
L 195.362273 55.97268 
L 198.968152 56.838059 
L 202.57403 52.699292 
L 206.179909 55.558803 
L 209.785788 52.185081 
L 213.391667 54.994426 
L 216.997545 56.160806 
L 224.209303 54.329715 
L 227.815182 53.652462 
L 231.421061 54.906634 
L 235.026939 54.517841 
L 238.632818 53.953463 
L 242.238697 55.60897 
L 245.844576 56.374015 
L 249.450455 58.104772 
L 253.056333 58.543732 
L 256.662212 59.634862 
L 260.268091 59.308777 
L 263.87397 61.378161 
L 267.479848 60.613116 
L 271.085727 60.023655 
L 274.691606 58.919984 
L 278.297485 58.957609 
L 281.903364 59.208443 
L 285.509242 57.038726 
L 289.115121 60.450073 
L 292.721 59.246068 
L 296.326879 59.358944 
L 299.932758 59.070484 
L 303.538636 59.170818 
L 307.144515 61.691703 
L 310.750394 60.437532 
L 314.356273 63.447544 
L 317.962152 62.644874 
L 321.56803 61.177493 
L 325.173909 60.876492 
L 328.779788 56.511974 
L 332.385667 56.04793 
L 335.991545 58.631524 
L 339.597424 59.195902 
L 343.203303 58.769483 
L 346.809182 59.685029 
L 350.415061 58.919984 
L 354.020939 59.083026 
L 361.232697 59.145735 
L 364.838576 60.299573 
L 368.444455 61.654078 
L 372.050333 62.607249 
L 375.656212 64.776966 
L 379.262091 63.748545 
L 382.86797 62.318789 
L 386.473848 64.388173 
L 390.079727 61.829662 
L 393.685606 62.18083 
L 397.291485 63.234335 
L 400.897364 62.707583 
L 404.503242 65.993513 
L 408.109121 66.244347 
L 411.715 65.303718 
L 418.926758 65.39151 
L 422.532636 64.375631 
L 426.138515 66.081305 
L 429.744394 67.975104 
L 433.350273 67.260226 
L 436.956152 68.075438 
L 440.56203 65.843012 
L 444.167909 65.31626 
L 447.773788 66.457556 
L 451.379667 68.263564 
L 454.985545 65.115592 
L 458.591424 65.090509 
L 462.197303 65.567094 
L 465.803182 66.582974 
L 469.409061 67.423269 
L 473.014939 66.771099 
L 476.620818 65.366427 
L 480.226697 67.335477 
L 483.832576 69.442485 
L 491.044333 70.420739 
L 494.650212 68.664899 
L 498.256091 70.546156 
L 501.86197 71.286118 
L 505.467848 72.577915 
L 509.073727 72.866374 
L 512.679606 72.000996 
L 516.285485 73.957504 
L 519.891364 72.126413 
L 523.497242 73.643961 
L 527.103121 74.73509 
L 530.709 74.045296 
L 534.314879 74.898133 
L 537.920758 73.480918 
L 541.526636 77.770186 
L 545.132515 76.70414 
L 548.738394 76.077054 
L 552.344273 75.600469 
L 555.950152 76.528556 
L 559.55603 77.883061 
L 563.161909 72.364706 
L 566.767788 75.011008 
L 570.373667 75.148967 
L 573.979545 76.102137 
L 577.585424 75.437426 
L 581.191303 73.242626 
L 584.797182 76.290263 
L 588.403061 76.741765 
L 595.614818 78.372188 
L 599.220697 77.845436 
L 602.826576 79.513485 
L 606.432455 78.74844 
L 610.038333 75.46251 
L 613.644212 80.341238 
L 617.250091 77.694936 
L 620.85597 79.651444 
L 624.461848 78.409814 
L 628.067727 75.713344 
L 631.673606 76.879724 
L 635.279485 78.560314 
L 638.885364 78.986733 
L 642.491242 79.689069 
L 646.097121 81.796077 
L 649.703 80.165654 
L 653.308879 78.911482 
L 656.914758 79.852111 
L 664.126515 82.460789 
L 667.732394 80.817823 
L 671.338273 84.191546 
L 674.944152 86.298554 
L 678.55003 85.257592 
L 682.155909 84.969132 
L 682.155909 84.969132 
" clip-path="url(#pdfac956d19)" style="fill: none; stroke: #ffa500; stroke-width: 3; stroke-linecap: square"/>
   </g>
   <g id="patch_3">
    <path d="M 114.23 343.96 
L 114.23 16.499276 
" style="fill: none; stroke: #000000; stroke-width: 0.8; stroke-linejoin: miter; stroke-linecap: square"/>
   </g>
   <g id="patch_4">
    <path d="M 709.2 343.96 
L 709.2 16.499276 
" style="fill: none; stroke: #000000; stroke-width: 0.8; stroke-linejoin: miter; stroke-linecap: square"/>
   </g>
   <g id="patch_5">
    <path d="M 114.23 343.96 
L 709.2 343.96 
" style="fill: none; stroke: #000000; stroke-width: 0.8; stroke-linejoin: miter; stroke-linecap: square"/>
   </g>
   <g id="patch_6">
    <path d="M 114.23 16.499276 
L 709.2 16.499276 
" style="fill: none; stroke: #000000; stroke-width: 0.8; stroke-linejoin: miter; stroke-linecap: square"/>
   </g>
  </g>
 </g>
 <defs>
  <clipPath id="pdfac956d19">
   <rect x="114.23" y="16.499276" width="594.97" height="327.460724"/>
  </clipPath>
 </defs>
</svg>
