<?xml version="1.0" encoding="utf-8" standalone="no"?>
<!DOCTYPE svg PUBLIC "-//W3C//DTD SVG 1.1//EN"
  "http://www.w3.org/Graphics/SVG/1.1/DTD/svg11.dtd">
<svg xmlns:xlink="http://www.w3.org/1999/xlink" width="720pt" height="432pt" viewBox="0 0 720 432" xmlns="http://www.w3.org/2000/svg" version="1.1">
 <metadata>
  <rdf:RDF xmlns:dc="http://purl.org/dc/elements/1.1/" xmlns:cc="http://creativecommons.org/ns#" xmlns:rdf="http://www.w3.org/1999/02/22-rdf-syntax-ns#">
   <cc:Work>
    <dc:type rdf:resource="http://purl.org/dc/dcmitype/StillImage"/>
    <dc:date>2025-06-19T21:20:28.581331</dc:date>
    <dc:format>image/svg+xml</dc:format>
    <dc:creator>
     <cc:Agent>
      <dc:title>Matplotlib v3.7.1, https://matplotlib.org/</dc:title>
     </cc:Agent>
    </dc:creator>
   </cc:Work>
  </rdf:RDF>
 </metadata>
 <defs>
  <style type="text/css">*{stroke-linejoin: round; stroke-linecap: butt}</style>
 </defs>
 <g id="figure_1">
  <g id="patch_1">
   <path d="M 0 432 
L 720 432 
L 720 0 
L 0 0 
z
" style="fill: #ffffff"/>
  </g>
  <g id="axes_1">
   <g id="patch_2">
    <path d="M 132.05 343.96 
L 709.2 343.96 
L 709.2 10.8 
L 132.05 10.8 
z
" style="fill: #ffffff"/>
   </g>
   <g id="PolyCollection_1">
    <defs>
     <path id="mfb3c20cdfe" d="M 158.284091 -342.328601 
L 158.284091 -330.528296 
L 161.78197 -335.454889 
L 165.279848 -339.410147 
L 168.777727 -345.25417 
L 172.275606 -331.837881 
L 175.773485 -336.07374 
L 179.271364 -312.204157 
L 182.769242 -329.735646 
L 186.267121 -326.538514 
L 189.765 -325.287482 
L 193.262879 -324.790806 
L 196.760758 -331.700981 
L 200.258636 -316.568164 
L 203.756515 -335.266515 
L 207.254394 -323.815721 
L 210.752273 -313.988174 
L 214.250152 -312.934223 
L 217.74803 -315.909412 
L 221.245909 -275.48152 
L 224.743788 -271.102728 
L 228.241667 -227.375438 
L 231.739545 -250.638194 
L 235.237424 -218.195438 
L 238.735303 -189.880144 
L 242.233182 -190.277026 
L 245.731061 -183.817148 
L 249.228939 -137.810448 
L 252.726818 -148.852926 
L 256.224697 -124.229602 
L 259.722576 -125.317435 
L 263.220455 -130.629136 
L 266.718333 -138.364589 
L 270.216212 -142.930982 
L 273.714091 -120.443894 
L 277.21197 -129.938749 
L 280.709848 -123.859989 
L 284.207727 -129.632486 
L 287.705606 -107.68811 
L 291.203485 -103.183636 
L 294.701364 -123.591313 
L 298.199242 -123.820748 
L 301.697121 -115.984027 
L 305.195 -126.246285 
L 308.692879 -117.781681 
L 312.190758 -117.78202 
L 315.688636 -109.402393 
L 319.186515 -121.555965 
L 322.684394 -122.802404 
L 326.182273 -122.4952 
L 329.680152 -116.550653 
L 333.17803 -117.976471 
L 336.675909 -117.528016 
L 340.173788 -133.076122 
L 343.671667 -110.699085 
L 347.169545 -125.985543 
L 350.667424 -132.950507 
L 354.165303 -134.071448 
L 357.663182 -113.89743 
L 361.161061 -127.025214 
L 364.658939 -116.252092 
L 368.156818 -129.122059 
L 371.654697 -111.014426 
L 375.152576 -144.287575 
L 378.650455 -119.807615 
L 382.148333 -123.474951 
L 385.646212 -126.076488 
L 389.144091 -122.889245 
L 392.64197 -122.554409 
L 396.139848 -116.592295 
L 399.637727 -113.413096 
L 403.135606 -121.901978 
L 406.633485 -112.388057 
L 410.131364 -108.841037 
L 413.629242 -115.020922 
L 417.127121 -121.206379 
L 420.625 -112.742967 
L 424.122879 -116.354282 
L 427.620758 -133.420413 
L 431.118636 -122.837782 
L 434.616515 -109.350647 
L 438.114394 -123.294924 
L 441.612273 -119.486998 
L 445.110152 -110.890835 
L 448.60803 -115.805753 
L 452.105909 -111.313295 
L 455.603788 -112.82057 
L 459.101667 -105.339563 
L 462.599545 -110.92971 
L 466.097424 -110.501427 
L 469.595303 -110.947001 
L 473.093182 -114.981069 
L 476.591061 -109.639501 
L 480.088939 -113.61087 
L 483.586818 -114.34588 
L 487.084697 -113.327648 
L 490.582576 -111.192595 
L 494.080455 -109.526089 
L 497.578333 -113.659054 
L 501.076212 -111.11087 
L 504.574091 -110.545153 
L 508.07197 -103.584824 
L 511.569848 -116.477623 
L 515.067727 -111.742024 
L 518.565606 -110.02258 
L 522.063485 -111.177574 
L 525.561364 -108.657194 
L 529.059242 -109.338693 
L 532.557121 -109.45343 
L 536.055 -113.425095 
L 539.552879 -108.326605 
L 543.050758 -105.338734 
L 546.548636 -108.900281 
L 550.046515 -107.375702 
L 553.544394 -107.798041 
L 557.042273 -110.23784 
L 560.540152 -105.485282 
L 564.03803 -107.770121 
L 567.535909 -106.489358 
L 571.033788 -109.043278 
L 574.531667 -107.366515 
L 578.029545 -107.63254 
L 581.527424 -111.538414 
L 585.025303 -108.816965 
L 588.523182 -111.058279 
L 592.021061 -109.150899 
L 595.518939 -109.19287 
L 599.016818 -107.753588 
L 602.514697 -107.715376 
L 606.012576 -105.730422 
L 609.510455 -108.016009 
L 613.008333 -108.770337 
L 616.506212 -114.022259 
L 620.004091 -109.56362 
L 623.50197 -108.700218 
L 626.999848 -107.179518 
L 630.497727 -108.373875 
L 633.995606 -109.734346 
L 637.493485 -106.557635 
L 640.991364 -108.327768 
L 644.489242 -107.081953 
L 647.987121 -107.750693 
L 651.485 -109.045089 
L 654.982879 -109.928748 
L 658.480758 -113.507843 
L 661.978636 -108.270489 
L 665.476515 -111.362718 
L 668.974394 -108.324005 
L 672.472273 -109.112074 
L 675.970152 -111.163565 
L 679.46803 -105.016844 
L 682.965909 -109.125223 
L 682.965909 -112.372087 
L 682.965909 -112.372087 
L 679.46803 -128.176298 
L 675.970152 -120.387184 
L 672.472273 -114.326246 
L 668.974394 -113.023996 
L 665.476515 -113.369608 
L 661.978636 -111.683966 
L 658.480758 -123.766398 
L 654.982879 -123.363932 
L 651.485 -118.723177 
L 647.987121 -113.696847 
L 644.489242 -111.03103 
L 640.991364 -121.481047 
L 637.493485 -113.844746 
L 633.995606 -112.011811 
L 630.497727 -113.521591 
L 626.999848 -118.797046 
L 623.50197 -114.439485 
L 620.004091 -116.512483 
L 616.506212 -125.939534 
L 613.008333 -116.608993 
L 609.510455 -124.43059 
L 606.012576 -117.906976 
L 602.514697 -114.926632 
L 599.016818 -117.92436 
L 595.518939 -119.023322 
L 592.021061 -123.395239 
L 588.523182 -117.854686 
L 585.025303 -115.11905 
L 581.527424 -117.026164 
L 578.029545 -111.226986 
L 574.531667 -114.728028 
L 571.033788 -124.896406 
L 567.535909 -123.966461 
L 564.03803 -109.546551 
L 560.540152 -119.844279 
L 557.042273 -124.647464 
L 553.544394 -111.907567 
L 550.046515 -125.76767 
L 546.548636 -113.39334 
L 543.050758 -120.189905 
L 539.552879 -112.473931 
L 536.055 -116.333951 
L 532.557121 -123.689943 
L 529.059242 -118.031417 
L 525.561364 -119.509228 
L 522.063485 -117.387004 
L 518.565606 -119.139233 
L 515.067727 -123.392128 
L 511.569848 -146.328371 
L 508.07197 -140.607377 
L 504.574091 -122.44891 
L 501.076212 -124.620516 
L 497.578333 -121.425329 
L 494.080455 -135.163807 
L 490.582576 -113.838349 
L 487.084697 -122.055351 
L 483.586818 -118.946801 
L 480.088939 -118.885498 
L 476.591061 -123.454101 
L 473.093182 -124.234182 
L 469.595303 -121.947524 
L 466.097424 -125.030882 
L 462.599545 -123.557439 
L 459.101667 -129.844358 
L 455.603788 -116.54032 
L 452.105909 -129.395041 
L 448.60803 -132.368008 
L 445.110152 -136.785231 
L 441.612273 -126.496905 
L 438.114394 -149.166352 
L 434.616515 -132.950313 
L 431.118636 -132.652095 
L 427.620758 -153.573557 
L 424.122879 -127.489533 
L 420.625 -124.133117 
L 417.127121 -134.333267 
L 413.629242 -122.701244 
L 410.131364 -134.306004 
L 406.633485 -120.25762 
L 403.135606 -137.768538 
L 399.637727 -150.786444 
L 396.139848 -200.163836 
L 392.64197 -130.297685 
L 389.144091 -138.921359 
L 385.646212 -139.815214 
L 382.148333 -161.329162 
L 378.650455 -175.547632 
L 375.152576 -162.365348 
L 371.654697 -172.39614 
L 368.156818 -166.083879 
L 364.658939 -154.118865 
L 361.161061 -149.766009 
L 357.663182 -134.37587 
L 354.165303 -153.768604 
L 350.667424 -138.664688 
L 347.169545 -163.944828 
L 343.671667 -197.596231 
L 340.173788 -150.334445 
L 336.675909 -148.164609 
L 333.17803 -148.711544 
L 329.680152 -223.945529 
L 326.182273 -163.204764 
L 322.684394 -161.454244 
L 319.186515 -161.00852 
L 315.688636 -199.589696 
L 312.190758 -146.765906 
L 308.692879 -161.597556 
L 305.195 -190.410307 
L 301.697121 -151.350991 
L 298.199242 -164.716076 
L 294.701364 -179.179588 
L 291.203485 -216.857281 
L 287.705606 -291.685389 
L 284.207727 -255.20832 
L 280.709848 -264.066525 
L 277.21197 -240.070745 
L 273.714091 -246.280814 
L 270.216212 -269.283048 
L 266.718333 -213.230191 
L 263.220455 -238.783125 
L 259.722576 -228.019278 
L 256.224697 -259.416736 
L 252.726818 -277.246794 
L 249.228939 -287.293882 
L 245.731061 -288.667746 
L 242.233182 -314.75712 
L 238.735303 -309.480279 
L 235.237424 -335.811895 
L 231.739545 -356.075039 
L 228.241667 -325.536966 
L 224.743788 -339.840911 
L 221.245909 -358.206781 
L 217.74803 -354.707857 
L 214.250152 -330.55867 
L 210.752273 -337.915763 
L 207.254394 -333.164706 
L 203.756515 -353.068696 
L 200.258636 -337.724709 
L 196.760758 -354.145756 
L 193.262879 -335.22556 
L 189.765 -362.848651 
L 186.267121 -358.412371 
L 182.769242 -347.351658 
L 179.271364 -345.373503 
L 175.773485 -357.138882 
L 172.275606 -348.733288 
L 168.777727 -382.94641 
L 165.279848 -354.648557 
L 161.78197 -352.08401 
L 158.284091 -342.328601 
z
" style="stroke: #0000ff; stroke-opacity: 0.3"/>
    </defs>
    <g clip-path="url(#p305e8ae539)">
     <use xlink:href="#mfb3c20cdfe" x="0" y="432" style="fill: #0000ff; fill-opacity: 0.3; stroke: #0000ff; stroke-opacity: 0.3"/>
    </g>
   </g>
   <g id="PolyCollection_2">
    <defs>
     <path id="m18aded904a" d="M 158.284091 -354.342912 
L 158.284091 -335.933309 
L 161.78197 -351.982725 
L 165.279848 -330.566827 
L 168.777727 -357.997423 
L 172.275606 -331.19339 
L 175.773485 -352.617986 
L 179.271364 -359.135166 
L 182.769242 -356.843385 
L 186.267121 -333.069325 
L 189.765 -368.572458 
L 193.262879 -360.783924 
L 196.760758 -341.818854 
L 200.258636 -340.006822 
L 203.756515 -329.506124 
L 207.254394 -343.653887 
L 210.752273 -342.5791 
L 214.250152 -338.393699 
L 217.74803 -336.963224 
L 221.245909 -298.700546 
L 224.743788 -283.659755 
L 228.241667 -277.371735 
L 231.739545 -266.26307 
L 235.237424 -225.968119 
L 238.735303 -245.611889 
L 242.233182 -203.051728 
L 245.731061 -170.499534 
L 249.228939 -241.861701 
L 252.726818 -189.124716 
L 256.224697 -215.136605 
L 259.722576 -132.323185 
L 263.220455 -146.958246 
L 266.718333 -170.387911 
L 270.216212 -166.903955 
L 273.714091 -150.437879 
L 277.21197 -153.587386 
L 280.709848 -152.310523 
L 284.207727 -166.993579 
L 287.705606 -143.064027 
L 291.203485 -159.020061 
L 294.701364 -140.709499 
L 298.199242 -132.667205 
L 301.697121 -146.494719 
L 305.195 -147.142686 
L 308.692879 -144.618752 
L 312.190758 -145.419498 
L 315.688636 -143.296727 
L 319.186515 -142.409649 
L 322.684394 -137.501784 
L 326.182273 -144.196039 
L 329.680152 -150.971569 
L 333.17803 -144.28193 
L 336.675909 -155.827645 
L 340.173788 -150.076465 
L 343.671667 -144.457599 
L 347.169545 -159.084456 
L 350.667424 -158.342729 
L 354.165303 -145.763241 
L 357.663182 -158.104811 
L 361.161061 -164.18347 
L 364.658939 -149.969894 
L 368.156818 -141.777277 
L 371.654697 -154.882119 
L 375.152576 -173.34359 
L 378.650455 -152.58586 
L 382.148333 -156.078324 
L 385.646212 -145.12162 
L 389.144091 -160.851392 
L 392.64197 -144.69087 
L 396.139848 -159.041709 
L 399.637727 -148.651355 
L 403.135606 -150.769751 
L 406.633485 -164.087524 
L 410.131364 -152.92323 
L 413.629242 -175.809051 
L 417.127121 -158.573532 
L 420.625 -163.381594 
L 424.122879 -149.237536 
L 427.620758 -186.875032 
L 431.118636 -178.130968 
L 434.616515 -196.880741 
L 438.114394 -165.587731 
L 441.612273 -170.672275 
L 445.110152 -169.956754 
L 448.60803 -189.817442 
L 452.105909 -169.177271 
L 455.603788 -176.427334 
L 459.101667 -159.109886 
L 462.599545 -184.204832 
L 466.097424 -169.435351 
L 469.595303 -170.309071 
L 473.093182 -189.899785 
L 476.591061 -172.353664 
L 480.088939 -179.110767 
L 483.586818 -161.383896 
L 487.084697 -198.644423 
L 490.582576 -184.439818 
L 494.080455 -189.991094 
L 497.578333 -183.913787 
L 501.076212 -182.849902 
L 504.574091 -167.207424 
L 508.07197 -162.646326 
L 511.569848 -151.899458 
L 515.067727 -149.332029 
L 518.565606 -147.501668 
L 522.063485 -144.970879 
L 525.561364 -148.186605 
L 529.059242 -152.623276 
L 532.557121 -156.167642 
L 536.055 -149.926088 
L 539.552879 -151.729672 
L 543.050758 -166.488496 
L 546.548636 -169.747546 
L 550.046515 -171.76931 
L 553.544394 -175.69736 
L 557.042273 -186.342719 
L 560.540152 -154.675341 
L 564.03803 -153.355866 
L 567.535909 -135.54628 
L 571.033788 -165.61126 
L 574.531667 -163.034893 
L 578.029545 -186.471174 
L 581.527424 -195.808278 
L 585.025303 -195.419153 
L 588.523182 -192.405939 
L 592.021061 -201.430556 
L 595.518939 -169.361245 
L 599.016818 -165.077657 
L 602.514697 -168.433549 
L 606.012576 -166.400387 
L 609.510455 -159.789429 
L 613.008333 -182.086552 
L 616.506212 -148.233336 
L 620.004091 -186.45939 
L 623.50197 -194.369783 
L 626.999848 -169.034676 
L 630.497727 -177.997136 
L 633.995606 -186.855695 
L 637.493485 -184.576065 
L 640.991364 -164.310765 
L 644.489242 -148.963942 
L 647.987121 -154.670108 
L 651.485 -137.062654 
L 654.982879 -175.553528 
L 658.480758 -166.983181 
L 661.978636 -205.57099 
L 665.476515 -168.286384 
L 668.974394 -164.557882 
L 672.472273 -176.680354 
L 675.970152 -166.570445 
L 679.46803 -161.392155 
L 682.965909 -172.325017 
L 682.965909 -185.192334 
L 682.965909 -185.192334 
L 679.46803 -204.436701 
L 675.970152 -206.076833 
L 672.472273 -229.21295 
L 668.974394 -216.898598 
L 665.476515 -259.206882 
L 661.978636 -270.895463 
L 658.480758 -231.295389 
L 654.982879 -249.948958 
L 651.485 -279.630631 
L 647.987121 -221.560574 
L 644.489242 -236.523867 
L 640.991364 -197.984457 
L 637.493485 -211.363339 
L 633.995606 -211.024719 
L 630.497727 -215.75241 
L 626.999848 -211.476183 
L 623.50197 -214.708769 
L 620.004091 -234.066147 
L 616.506212 -204.605681 
L 613.008333 -198.872233 
L 609.510455 -236.996056 
L 606.012576 -224.362989 
L 602.514697 -208.09575 
L 599.016818 -239.023945 
L 595.518939 -264.801134 
L 592.021061 -256.621183 
L 588.523182 -240.114047 
L 585.025303 -241.530318 
L 581.527424 -209.58733 
L 578.029545 -233.25805 
L 574.531667 -194.183841 
L 571.033788 -213.406514 
L 567.535909 -220.876141 
L 564.03803 -226.507989 
L 560.540152 -203.936939 
L 557.042273 -204.271348 
L 553.544394 -197.148996 
L 550.046515 -245.322131 
L 546.548636 -256.003788 
L 543.050758 -230.048141 
L 539.552879 -197.973867 
L 536.055 -180.118499 
L 532.557121 -201.897173 
L 529.059242 -199.469199 
L 525.561364 -234.862499 
L 522.063485 -225.337233 
L 518.565606 -202.699566 
L 515.067727 -195.046174 
L 511.569848 -185.859401 
L 508.07197 -231.202759 
L 504.574091 -220.520013 
L 501.076212 -273.211057 
L 497.578333 -303.900112 
L 494.080455 -315.988673 
L 490.582576 -323.978654 
L 487.084697 -305.742719 
L 483.586818 -286.813481 
L 480.088939 -293.921591 
L 476.591061 -288.236319 
L 473.093182 -312.944502 
L 469.595303 -261.713219 
L 466.097424 -255.469902 
L 462.599545 -251.052476 
L 459.101667 -211.198226 
L 455.603788 -204.830068 
L 452.105909 -232.236778 
L 448.60803 -213.985543 
L 445.110152 -200.401127 
L 441.612273 -254.631133 
L 438.114394 -207.258625 
L 434.616515 -226.13327 
L 431.118636 -198.746718 
L 427.620758 -211.303999 
L 424.122879 -208.827279 
L 420.625 -171.789252 
L 417.127121 -172.466445 
L 413.629242 -218.388421 
L 410.131364 -179.161906 
L 406.633485 -203.682343 
L 403.135606 -200.924568 
L 399.637727 -193.935145 
L 396.139848 -218.383442 
L 392.64197 -256.225484 
L 389.144091 -199.701898 
L 385.646212 -269.033421 
L 382.148333 -193.923832 
L 378.650455 -184.575765 
L 375.152576 -198.507376 
L 371.654697 -162.172629 
L 368.156818 -193.692185 
L 364.658939 -183.359479 
L 361.161061 -172.281382 
L 357.663182 -180.151744 
L 354.165303 -166.712713 
L 350.667424 -184.542388 
L 347.169545 -171.308518 
L 343.671667 -161.996246 
L 340.173788 -166.132201 
L 336.675909 -165.706358 
L 333.17803 -166.302783 
L 329.680152 -174.693302 
L 326.182273 -168.080836 
L 322.684394 -172.087539 
L 319.186515 -168.175064 
L 315.688636 -154.845611 
L 312.190758 -175.467501 
L 308.692879 -155.713444 
L 305.195 -192.756262 
L 301.697121 -154.783097 
L 298.199242 -192.400432 
L 294.701364 -181.521277 
L 291.203485 -182.52128 
L 287.705606 -232.868038 
L 284.207727 -219.838007 
L 280.709848 -226.707251 
L 277.21197 -217.666346 
L 273.714091 -214.544896 
L 270.216212 -284.180054 
L 266.718333 -336.487707 
L 263.220455 -347.076841 
L 259.722576 -338.170928 
L 256.224697 -350.61633 
L 252.726818 -328.949039 
L 249.228939 -330.958502 
L 245.731061 -346.329983 
L 242.233182 -384.002553 
L 238.735303 -353.536379 
L 235.237424 -374.822543 
L 231.739545 -365.235373 
L 228.241667 -377.468604 
L 224.743788 -362.072765 
L 221.245909 -363.406139 
L 217.74803 -386.658561 
L 214.250152 -350.887132 
L 210.752273 -370.242705 
L 207.254394 -380.963289 
L 203.756515 -340.862298 
L 200.258636 -374.606684 
L 196.760758 -362.243519 
L 193.262879 -404.544702 
L 189.765 -394.267694 
L 186.267121 -352.578333 
L 182.769242 -371.655812 
L 179.271364 -384.991654 
L 175.773485 -361.945751 
L 172.275606 -374.063451 
L 168.777727 -371.497164 
L 165.279848 -360.854093 
L 161.78197 -372.335834 
L 158.284091 -354.342912 
z
" style="stroke: #008000; stroke-opacity: 0.3"/>
    </defs>
    <g clip-path="url(#p305e8ae539)">
     <use xlink:href="#m18aded904a" x="0" y="432" style="fill: #008000; fill-opacity: 0.3; stroke: #008000; stroke-opacity: 0.3"/>
    </g>
   </g>
   <g id="PolyCollection_3">
    <defs>
     <path id="md7fbba0dbe" d="M 158.284091 -377.105595 
L 158.284091 -342.335553 
L 161.78197 -364.12055 
L 165.279848 -356.437881 
L 168.777727 -362.920776 
L 172.275606 -346.983674 
L 175.773485 -344.433176 
L 179.271364 -363.934103 
L 182.769242 -357.318223 
L 186.267121 -376.790905 
L 189.765 -337.46148 
L 193.262879 -354.518448 
L 196.760758 -372.125507 
L 200.258636 -363.251603 
L 203.756515 -350.277251 
L 207.254394 -364.334937 
L 210.752273 -346.817968 
L 214.250152 -350.092803 
L 217.74803 -358.497203 
L 221.245909 -341.486164 
L 224.743788 -334.323626 
L 228.241667 -328.787313 
L 231.739545 -354.889396 
L 235.237424 -343.940379 
L 238.735303 -339.988684 
L 242.233182 -332.615598 
L 245.731061 -372.997383 
L 249.228939 -324.301539 
L 252.726818 -352.005287 
L 256.224697 -345.725111 
L 259.722576 -348.514327 
L 263.220455 -327.726918 
L 266.718333 -352.408194 
L 270.216212 -350.492068 
L 273.714091 -349.917699 
L 277.21197 -342.822919 
L 280.709848 -346.716682 
L 284.207727 -366.844331 
L 287.705606 -333.991282 
L 291.203485 -327.58552 
L 294.701364 -335.688698 
L 298.199242 -343.819795 
L 301.697121 -330.071892 
L 305.195 -341.786979 
L 308.692879 -329.492699 
L 312.190758 -327.236171 
L 315.688636 -352.769138 
L 319.186515 -344.273078 
L 322.684394 -332.058685 
L 326.182273 -338.429913 
L 329.680152 -344.047828 
L 333.17803 -352.942473 
L 336.675909 -343.693456 
L 340.173788 -359.641776 
L 343.671667 -330.630553 
L 347.169545 -362.56317 
L 350.667424 -322.943584 
L 354.165303 -341.322634 
L 357.663182 -349.850873 
L 361.161061 -330.267663 
L 364.658939 -316.848316 
L 368.156818 -346.10331 
L 371.654697 -352.197417 
L 375.152576 -350.711939 
L 378.650455 -358.503115 
L 382.148333 -331.987515 
L 385.646212 -326.221704 
L 389.144091 -342.813898 
L 392.64197 -335.406982 
L 396.139848 -348.519151 
L 399.637727 -321.552288 
L 403.135606 -332.467954 
L 406.633485 -354.296201 
L 410.131364 -349.813032 
L 413.629242 -350.030298 
L 417.127121 -348.715728 
L 420.625 -350.62142 
L 424.122879 -328.373492 
L 427.620758 -332.659026 
L 431.118636 -348.254136 
L 434.616515 -354.687639 
L 438.114394 -360.907968 
L 441.612273 -337.767067 
L 445.110152 -350.05468 
L 448.60803 -350.795917 
L 452.105909 -335.691429 
L 455.603788 -338.863994 
L 459.101667 -344.641525 
L 462.599545 -349.561203 
L 466.097424 -338.612645 
L 469.595303 -354.774673 
L 473.093182 -352.628849 
L 476.591061 -350.872162 
L 480.088939 -336.544909 
L 483.586818 -361.113639 
L 487.084697 -351.622493 
L 490.582576 -355.898452 
L 494.080455 -333.217908 
L 497.578333 -333.38149 
L 501.076212 -341.682563 
L 504.574091 -362.502005 
L 508.07197 -341.187547 
L 511.569848 -351.833951 
L 515.067727 -319.123335 
L 518.565606 -346.524708 
L 522.063485 -350.701935 
L 525.561364 -317.949712 
L 529.059242 -321.493247 
L 532.557121 -370.26433 
L 536.055 -335.532493 
L 539.552879 -339.869566 
L 543.050758 -342.467835 
L 546.548636 -356.703251 
L 550.046515 -322.755325 
L 553.544394 -345.343907 
L 557.042273 -330.612742 
L 560.540152 -339.914459 
L 564.03803 -348.721944 
L 567.535909 -370.168883 
L 571.033788 -356.024237 
L 574.531667 -330.977674 
L 578.029545 -351.384204 
L 581.527424 -373.763756 
L 585.025303 -354.379018 
L 588.523182 -354.27094 
L 592.021061 -353.253292 
L 595.518939 -321.019934 
L 599.016818 -369.207168 
L 602.514697 -354.230013 
L 606.012576 -337.953869 
L 609.510455 -358.575342 
L 613.008333 -355.918639 
L 616.506212 -321.980435 
L 620.004091 -356.970087 
L 623.50197 -353.067326 
L 626.999848 -315.061993 
L 630.497727 -365.703243 
L 633.995606 -338.661986 
L 637.493485 -339.673795 
L 640.991364 -342.231441 
L 644.489242 -350.151237 
L 647.987121 -343.584845 
L 651.485 -336.669918 
L 654.982879 -341.988684 
L 658.480758 -335.978525 
L 661.978636 -351.508221 
L 665.476515 -365.821681 
L 668.974394 -324.448117 
L 672.472273 -316.753424 
L 675.970152 -357.696925 
L 679.46803 -330.451965 
L 682.965909 -387.879751 
L 682.965909 -399.84515 
L 682.965909 -399.84515 
L 679.46803 -335.238124 
L 675.970152 -365.228088 
L 672.472273 -355.605778 
L 668.974394 -362.244701 
L 665.476515 -382.784394 
L 661.978636 -406.056364 
L 658.480758 -355.193548 
L 654.982879 -366.552944 
L 651.485 -340.118769 
L 647.987121 -367.445258 
L 644.489242 -360.779327 
L 640.991364 -378.90187 
L 637.493485 -368.320368 
L 633.995606 -350.768154 
L 630.497727 -394.349816 
L 626.999848 -354.758964 
L 623.50197 -361.795028 
L 620.004091 -370.48395 
L 616.506212 -352.668164 
L 613.008333 -359.789797 
L 609.510455 -379.479598 
L 606.012576 -351.326962 
L 602.514697 -357.397324 
L 599.016818 -389.90027 
L 595.518939 -353.678435 
L 592.021061 -363.599843 
L 588.523182 -359.197869 
L 585.025303 -359.587485 
L 581.527424 -387.981466 
L 578.029545 -380.101162 
L 574.531667 -360.891172 
L 571.033788 -388.401199 
L 567.535909 -380.726588 
L 564.03803 -351.607717 
L 560.540152 -354.343323 
L 557.042273 -339.058906 
L 553.544394 -357.872384 
L 550.046515 -335.917264 
L 546.548636 -375.777505 
L 543.050758 -364.779785 
L 539.552879 -350.356886 
L 536.055 -359.322522 
L 532.557121 -373.713181 
L 529.059242 -373.859464 
L 525.561364 -344.555129 
L 522.063485 -362.667334 
L 518.565606 -352.859331 
L 515.067727 -364.732621 
L 511.569848 -368.30397 
L 508.07197 -357.798337 
L 504.574091 -377.493946 
L 501.076212 -364.768745 
L 497.578333 -361.324217 
L 494.080455 -359.049093 
L 490.582576 -362.796153 
L 487.084697 -370.555977 
L 483.586818 -370.12288 
L 480.088939 -372.79303 
L 476.591061 -360.655635 
L 473.093182 -355.514622 
L 469.595303 -359.490448 
L 466.097424 -353.604587 
L 462.599545 -363.708527 
L 459.101667 -360.266929 
L 455.603788 -354.348628 
L 452.105909 -346.671442 
L 448.60803 -353.963229 
L 445.110152 -352.166221 
L 441.612273 -372.466724 
L 438.114394 -362.315662 
L 434.616515 -361.866878 
L 431.118636 -352.125294 
L 427.620758 -342.935193 
L 424.122879 -351.600443 
L 420.625 -355.829888 
L 417.127121 -358.78074 
L 413.629242 -371.849555 
L 410.131364 -355.443808 
L 406.633485 -374.003917 
L 403.135606 -363.929916 
L 399.637727 -375.04466 
L 396.139848 -359.076856 
L 392.64197 -372.288565 
L 389.144091 -357.66507 
L 385.646212 -364.651751 
L 382.148333 -357.044469 
L 378.650455 -363.078121 
L 375.152576 -364.64811 
L 371.654697 -388.445538 
L 368.156818 -347.159081 
L 364.658939 -340.779114 
L 361.161061 -356.87308 
L 357.663182 -389.547844 
L 354.165303 -343.926868 
L 350.667424 -385.797122 
L 347.169545 -364.393172 
L 343.671667 -340.484411 
L 340.173788 -364.427936 
L 336.675909 -346.931152 
L 333.17803 -358.784403 
L 329.680152 -358.969385 
L 326.182273 -353.140315 
L 322.684394 -345.924471 
L 319.186515 -367.851953 
L 315.688636 -364.382613 
L 312.190758 -347.014272 
L 308.692879 -356.801963 
L 305.195 -360.931617 
L 301.697121 -374.836562 
L 298.199242 -380.349455 
L 294.701364 -365.039118 
L 291.203485 -329.345137 
L 287.705606 -352.502458 
L 284.207727 -379.372808 
L 280.709848 -395.070971 
L 277.21197 -348.946388 
L 273.714091 -361.46079 
L 270.216212 -371.537094 
L 266.718333 -373.453219 
L 263.220455 -353.839642 
L 259.722576 -351.118561 
L 256.224697 -362.617439 
L 252.726818 -381.918785 
L 249.228939 -343.727716 
L 245.731061 -376.305464 
L 242.233182 -340.639454 
L 238.735303 -351.531775 
L 235.237424 -383.215042 
L 231.739545 -355.593243 
L 228.241667 -338.993095 
L 224.743788 -351.075185 
L 221.245909 -358.096954 
L 217.74803 -368.210292 
L 214.250152 -355.512425 
L 210.752273 -366.103376 
L 207.254394 -379.04534 
L 203.756515 -367.521503 
L 200.258636 -386.548939 
L 196.760758 -381.557057 
L 193.262879 -362.683073 
L 189.765 -349.778802 
L 186.267121 -380.873218 
L 182.769242 -360.978227 
L 179.271364 -385.119897 
L 175.773485 -358.932424 
L 172.275606 -354.092529 
L 168.777727 -377.771948 
L 165.279848 -382.761759 
L 161.78197 -377.915951 
L 158.284091 -377.105595 
z
" style="stroke: #ff0000; stroke-opacity: 0.3"/>
    </defs>
    <g clip-path="url(#p305e8ae539)">
     <use xlink:href="#md7fbba0dbe" x="0" y="432" style="fill: #ff0000; fill-opacity: 0.3; stroke: #ff0000; stroke-opacity: 0.3"/>
    </g>
   </g>
   <g id="PolyCollection_4">
    <defs>
     <path id="m942049b2c5" d="M 158.284091 -368.80543 
L 158.284091 -357.852295 
L 161.78197 -341.945509 
L 165.279848 -328.643279 
L 168.777727 -345.210334 
L 172.275606 -342.092643 
L 175.773485 -341.421644 
L 179.271364 -349.991292 
L 182.769242 -345.481788 
L 186.267121 -336.482437 
L 189.765 -346.012753 
L 193.262879 -329.046571 
L 196.760758 -333.411851 
L 200.258636 -339.341145 
L 203.756515 -326.186447 
L 207.254394 -346.245352 
L 210.752273 -356.186907 
L 214.250152 -333.274263 
L 217.74803 -350.60712 
L 221.245909 -344.183209 
L 224.743788 -339.642036 
L 228.241667 -332.904658 
L 231.739545 -324.052351 
L 235.237424 -328.806259 
L 238.735303 -327.155667 
L 242.233182 -326.05769 
L 245.731061 -342.54308 
L 249.228939 -336.565665 
L 252.726818 -331.484448 
L 256.224697 -340.526456 
L 259.722576 -328.165681 
L 263.220455 -341.746211 
L 266.718333 -335.027153 
L 270.216212 -348.403671 
L 273.714091 -336.006643 
L 277.21197 -344.550184 
L 280.709848 -345.418127 
L 284.207727 -346.215132 
L 287.705606 -316.249549 
L 291.203485 -342.709219 
L 294.701364 -327.111997 
L 298.199242 -333.063864 
L 301.697121 -336.033567 
L 305.195 -328.169062 
L 308.692879 -345.588912 
L 312.190758 -331.479261 
L 315.688636 -337.442425 
L 319.186515 -338.354413 
L 322.684394 -328.200489 
L 326.182273 -320.355897 
L 329.680152 -333.987573 
L 333.17803 -327.501357 
L 336.675909 -334.896434 
L 340.173788 -337.156171 
L 343.671667 -322.753765 
L 347.169545 -345.577747 
L 350.667424 -331.829293 
L 354.165303 -337.590569 
L 357.663182 -334.332745 
L 361.161061 -319.312287 
L 364.658939 -334.023332 
L 368.156818 -328.71904 
L 371.654697 -331.376277 
L 375.152576 -324.766894 
L 378.650455 -350.560499 
L 382.148333 -333.306872 
L 385.646212 -311.596527 
L 389.144091 -316.616529 
L 392.64197 -315.653002 
L 396.139848 -326.523948 
L 399.637727 -319.789229 
L 403.135606 -332.810305 
L 406.633485 -336.142109 
L 410.131364 -322.087922 
L 413.629242 -319.958696 
L 417.127121 -313.85771 
L 420.625 -295.951331 
L 424.122879 -301.128628 
L 427.620758 -292.921344 
L 431.118636 -310.189484 
L 434.616515 -265.514036 
L 438.114394 -234.882867 
L 441.612273 -246.73561 
L 445.110152 -189.8808 
L 448.60803 -181.473264 
L 452.105909 -187.628969 
L 455.603788 -177.930216 
L 459.101667 -169.538673 
L 462.599545 -161.141017 
L 466.097424 -177.37654 
L 469.595303 -172.278102 
L 473.093182 -180.622789 
L 476.591061 -168.090897 
L 480.088939 -171.387082 
L 483.586818 -163.821227 
L 487.084697 -159.60324 
L 490.582576 -158.910512 
L 494.080455 -178.973697 
L 497.578333 -172.604428 
L 501.076212 -168.478952 
L 504.574091 -170.714442 
L 508.07197 -170.478383 
L 511.569848 -175.54708 
L 515.067727 -167.480259 
L 518.565606 -175.903213 
L 522.063485 -156.413579 
L 525.561364 -170.115343 
L 529.059242 -177.493354 
L 532.557121 -170.404841 
L 536.055 -170.146035 
L 539.552879 -161.945995 
L 543.050758 -174.249811 
L 546.548636 -158.419925 
L 550.046515 -163.63148 
L 553.544394 -167.301288 
L 557.042273 -169.066366 
L 560.540152 -165.585142 
L 564.03803 -161.755003 
L 567.535909 -178.038761 
L 571.033788 -159.764195 
L 574.531667 -167.387292 
L 578.029545 -165.223211 
L 581.527424 -162.188806 
L 585.025303 -162.746731 
L 588.523182 -164.627366 
L 592.021061 -157.105498 
L 595.518939 -171.298725 
L 599.016818 -154.749734 
L 602.514697 -159.998434 
L 606.012576 -161.989882 
L 609.510455 -167.543315 
L 613.008333 -156.337748 
L 616.506212 -167.05401 
L 620.004091 -183.66791 
L 623.50197 -163.413041 
L 626.999848 -165.202754 
L 630.497727 -169.251289 
L 633.995606 -178.999203 
L 637.493485 -170.135205 
L 640.991364 -170.341035 
L 644.489242 -174.592897 
L 647.987121 -167.589264 
L 651.485 -177.850191 
L 654.982879 -163.662811 
L 658.480758 -157.65978 
L 661.978636 -155.90945 
L 665.476515 -160.161128 
L 668.974394 -157.700056 
L 672.472273 -145.982255 
L 675.970152 -141.853367 
L 679.46803 -120.411853 
L 682.965909 -104.349062 
L 682.965909 -302.241015 
L 682.965909 -302.241015 
L 679.46803 -312.705367 
L 675.970152 -340.585426 
L 672.472273 -327.796645 
L 668.974394 -340.515668 
L 665.476515 -356.56885 
L 661.978636 -356.789198 
L 658.480758 -360.015819 
L 654.982879 -361.72706 
L 651.485 -352.018935 
L 647.987121 -355.063284 
L 644.489242 -370.903852 
L 640.991364 -382.372291 
L 637.493485 -363.118246 
L 633.995606 -372.519655 
L 630.497727 -362.608617 
L 626.999848 -352.323536 
L 623.50197 -365.759312 
L 620.004091 -368.846338 
L 616.506212 -391.13396 
L 613.008333 -372.685297 
L 609.510455 -348.091734 
L 606.012576 -363.847915 
L 602.514697 -368.327838 
L 599.016818 -372.780225 
L 595.518939 -375.691109 
L 592.021061 -375.849337 
L 588.523182 -368.675855 
L 585.025303 -376.429292 
L 581.527424 -366.087696 
L 578.029545 -378.282757 
L 574.531667 -364.87077 
L 571.033788 -382.298458 
L 567.535909 -349.939124 
L 564.03803 -360.748237 
L 560.540152 -385.436021 
L 557.042273 -383.995347 
L 553.544394 -369.535568 
L 550.046515 -371.911369 
L 546.548636 -378.964395 
L 543.050758 -385.132628 
L 539.552879 -376.334177 
L 536.055 -371.170076 
L 532.557121 -369.020028 
L 529.059242 -382.436549 
L 525.561364 -393.597042 
L 522.063485 -368.229749 
L 518.565606 -365.313359 
L 515.067727 -367.515126 
L 511.569848 -359.298996 
L 508.07197 -377.307763 
L 504.574091 -382.297501 
L 501.076212 -387.419622 
L 497.578333 -379.810281 
L 494.080455 -368.961757 
L 490.582576 -371.904234 
L 487.084697 -369.668652 
L 483.586818 -387.000858 
L 480.088939 -363.011068 
L 476.591061 -357.149666 
L 473.093182 -384.134756 
L 469.595303 -370.730171 
L 466.097424 -375.386555 
L 462.599545 -354.991727 
L 459.101667 -376.306462 
L 455.603788 -373.538873 
L 452.105909 -373.296325 
L 448.60803 -372.086144 
L 445.110152 -370.895185 
L 441.612273 -357.140761 
L 438.114394 -363.070934 
L 434.616515 -356.080276 
L 431.118636 -333.751334 
L 427.620758 -336.685858 
L 424.122879 -348.73476 
L 420.625 -362.223563 
L 417.127121 -371.142944 
L 413.629242 -340.953521 
L 410.131364 -352.112751 
L 406.633485 -342.736897 
L 403.135606 -352.488966 
L 399.637727 -344.756162 
L 396.139848 -354.943073 
L 392.64197 -344.562442 
L 389.144091 -334.391558 
L 385.646212 -364.644696 
L 382.148333 -340.197028 
L 378.650455 -354.049338 
L 375.152576 -349.085393 
L 371.654697 -349.941434 
L 368.156818 -335.079808 
L 364.658939 -353.863954 
L 361.161061 -366.982375 
L 357.663182 -347.333353 
L 354.165303 -357.015599 
L 350.667424 -353.868135 
L 347.169545 -358.136239 
L 343.671667 -351.397139 
L 340.173788 -360.635245 
L 336.675909 -348.710675 
L 333.17803 -344.459689 
L 329.680152 -345.687746 
L 326.182273 -339.361852 
L 322.684394 -342.814936 
L 319.186515 -360.183545 
L 315.688636 -348.951776 
L 312.190758 -346.752741 
L 308.692879 -347.524171 
L 305.195 -337.122871 
L 301.697121 -350.211325 
L 298.199242 -346.312837 
L 294.701364 -335.74123 
L 291.203485 -360.556842 
L 287.705606 -331.772368 
L 284.207727 -368.398375 
L 280.709848 -355.857154 
L 277.21197 -347.268892 
L 273.714091 -350.039171 
L 270.216212 -362.626432 
L 266.718333 -351.416817 
L 263.220455 -366.44703 
L 259.722576 -352.803644 
L 256.224697 -347.211521 
L 252.726818 -357.199149 
L 249.228939 -354.656177 
L 245.731061 -363.111917 
L 242.233182 -373.127271 
L 238.735303 -350.62841 
L 235.237424 -362.116966 
L 231.739545 -365.825715 
L 228.241667 -355.72917 
L 224.743788 -358.09961 
L 221.245909 -348.929873 
L 217.74803 -369.182415 
L 214.250152 -353.617633 
L 210.752273 -375.348229 
L 207.254394 -354.582003 
L 203.756515 -368.51926 
L 200.258636 -352.975626 
L 196.760758 -357.660683 
L 193.262879 -342.267471 
L 189.765 -359.99063 
L 186.267121 -342.496108 
L 182.769242 -375.601753 
L 179.271364 -352.826843 
L 175.773485 -353.831527 
L 172.275606 -362.119038 
L 168.777727 -384.184714 
L 165.279848 -364.569343 
L 161.78197 -364.605339 
L 158.284091 -368.80543 
z
" style="stroke: #ffa500; stroke-opacity: 0.3"/>
    </defs>
    <g clip-path="url(#p305e8ae539)">
     <use xlink:href="#m942049b2c5" x="0" y="432" style="fill: #ffa500; fill-opacity: 0.3; stroke: #ffa500; stroke-opacity: 0.3"/>
    </g>
   </g>
   <g id="matplotlib.axis_1">
    <g id="xtick_1">
     <g id="line2d_1">
      <defs>
       <path id="m4d0257267f" d="M 0 0 
L 0 3.5 
" style="stroke: #000000; stroke-width: 0.8"/>
      </defs>
      <g>
       <use xlink:href="#m4d0257267f" x="158.284091" y="343.96" style="stroke: #000000; stroke-width: 0.8"/>
      </g>
     </g>
     <g id="text_1">
      <!-- 0 -->
      <g transform="translate(149.376591 372.235625) scale(0.28 -0.28)">
       <defs>
        <path id="DejaVuSans-30" d="M 2034 4250 
Q 1547 4250 1301 3770 
Q 1056 3291 1056 2328 
Q 1056 1369 1301 889 
Q 1547 409 2034 409 
Q 2525 409 2770 889 
Q 3016 1369 3016 2328 
Q 3016 3291 2770 3770 
Q 2525 4250 2034 4250 
z
M 2034 4750 
Q 2819 4750 3233 4129 
Q 3647 3509 3647 2328 
Q 3647 1150 3233 529 
Q 2819 -91 2034 -91 
Q 1250 -91 836 529 
Q 422 1150 422 2328 
Q 422 3509 836 4129 
Q 1250 4750 2034 4750 
z
" transform="scale(0.015625)"/>
       </defs>
       <use xlink:href="#DejaVuSans-30"/>
      </g>
     </g>
    </g>
    <g id="xtick_2">
     <g id="line2d_2">
      <g>
       <use xlink:href="#m4d0257267f" x="228.241667" y="343.96" style="stroke: #000000; stroke-width: 0.8"/>
      </g>
     </g>
     <g id="text_2">
      <!-- 20 -->
      <g transform="translate(210.426667 372.235625) scale(0.28 -0.28)">
       <defs>
        <path id="DejaVuSans-32" d="M 1228 531 
L 3431 531 
L 3431 0 
L 469 0 
L 469 531 
Q 828 903 1448 1529 
Q 2069 2156 2228 2338 
Q 2531 2678 2651 2914 
Q 2772 3150 2772 3378 
Q 2772 3750 2511 3984 
Q 2250 4219 1831 4219 
Q 1534 4219 1204 4116 
Q 875 4013 500 3803 
L 500 4441 
Q 881 4594 1212 4672 
Q 1544 4750 1819 4750 
Q 2544 4750 2975 4387 
Q 3406 4025 3406 3419 
Q 3406 3131 3298 2873 
Q 3191 2616 2906 2266 
Q 2828 2175 2409 1742 
Q 1991 1309 1228 531 
z
" transform="scale(0.015625)"/>
       </defs>
       <use xlink:href="#DejaVuSans-32"/>
       <use xlink:href="#DejaVuSans-30" x="63.623047"/>
      </g>
     </g>
    </g>
    <g id="xtick_3">
     <g id="line2d_3">
      <g>
       <use xlink:href="#m4d0257267f" x="298.199242" y="343.96" style="stroke: #000000; stroke-width: 0.8"/>
      </g>
     </g>
     <g id="text_3">
      <!-- 40 -->
      <g transform="translate(280.384242 372.235625) scale(0.28 -0.28)">
       <defs>
        <path id="DejaVuSans-34" d="M 2419 4116 
L 825 1625 
L 2419 1625 
L 2419 4116 
z
M 2253 4666 
L 3047 4666 
L 3047 1625 
L 3713 1625 
L 3713 1100 
L 3047 1100 
L 3047 0 
L 2419 0 
L 2419 1100 
L 313 1100 
L 313 1709 
L 2253 4666 
z
" transform="scale(0.015625)"/>
       </defs>
       <use xlink:href="#DejaVuSans-34"/>
       <use xlink:href="#DejaVuSans-30" x="63.623047"/>
      </g>
     </g>
    </g>
    <g id="xtick_4">
     <g id="line2d_4">
      <g>
       <use xlink:href="#m4d0257267f" x="368.156818" y="343.96" style="stroke: #000000; stroke-width: 0.8"/>
      </g>
     </g>
     <g id="text_4">
      <!-- 60 -->
      <g transform="translate(350.341818 372.235625) scale(0.28 -0.28)">
       <defs>
        <path id="DejaVuSans-36" d="M 2113 2584 
Q 1688 2584 1439 2293 
Q 1191 2003 1191 1497 
Q 1191 994 1439 701 
Q 1688 409 2113 409 
Q 2538 409 2786 701 
Q 3034 994 3034 1497 
Q 3034 2003 2786 2293 
Q 2538 2584 2113 2584 
z
M 3366 4563 
L 3366 3988 
Q 3128 4100 2886 4159 
Q 2644 4219 2406 4219 
Q 1781 4219 1451 3797 
Q 1122 3375 1075 2522 
Q 1259 2794 1537 2939 
Q 1816 3084 2150 3084 
Q 2853 3084 3261 2657 
Q 3669 2231 3669 1497 
Q 3669 778 3244 343 
Q 2819 -91 2113 -91 
Q 1303 -91 875 529 
Q 447 1150 447 2328 
Q 447 3434 972 4092 
Q 1497 4750 2381 4750 
Q 2619 4750 2861 4703 
Q 3103 4656 3366 4563 
z
" transform="scale(0.015625)"/>
       </defs>
       <use xlink:href="#DejaVuSans-36"/>
       <use xlink:href="#DejaVuSans-30" x="63.623047"/>
      </g>
     </g>
    </g>
    <g id="xtick_5">
     <g id="line2d_5">
      <g>
       <use xlink:href="#m4d0257267f" x="438.114394" y="343.96" style="stroke: #000000; stroke-width: 0.8"/>
      </g>
     </g>
     <g id="text_5">
      <!-- 80 -->
      <g transform="translate(420.299394 372.235625) scale(0.28 -0.28)">
       <defs>
        <path id="DejaVuSans-38" d="M 2034 2216 
Q 1584 2216 1326 1975 
Q 1069 1734 1069 1313 
Q 1069 891 1326 650 
Q 1584 409 2034 409 
Q 2484 409 2743 651 
Q 3003 894 3003 1313 
Q 3003 1734 2745 1975 
Q 2488 2216 2034 2216 
z
M 1403 2484 
Q 997 2584 770 2862 
Q 544 3141 544 3541 
Q 544 4100 942 4425 
Q 1341 4750 2034 4750 
Q 2731 4750 3128 4425 
Q 3525 4100 3525 3541 
Q 3525 3141 3298 2862 
Q 3072 2584 2669 2484 
Q 3125 2378 3379 2068 
Q 3634 1759 3634 1313 
Q 3634 634 3220 271 
Q 2806 -91 2034 -91 
Q 1263 -91 848 271 
Q 434 634 434 1313 
Q 434 1759 690 2068 
Q 947 2378 1403 2484 
z
M 1172 3481 
Q 1172 3119 1398 2916 
Q 1625 2713 2034 2713 
Q 2441 2713 2670 2916 
Q 2900 3119 2900 3481 
Q 2900 3844 2670 4047 
Q 2441 4250 2034 4250 
Q 1625 4250 1398 4047 
Q 1172 3844 1172 3481 
z
" transform="scale(0.015625)"/>
       </defs>
       <use xlink:href="#DejaVuSans-38"/>
       <use xlink:href="#DejaVuSans-30" x="63.623047"/>
      </g>
     </g>
    </g>
    <g id="xtick_6">
     <g id="line2d_6">
      <g>
       <use xlink:href="#m4d0257267f" x="508.07197" y="343.96" style="stroke: #000000; stroke-width: 0.8"/>
      </g>
     </g>
     <g id="text_6">
      <!-- 100 -->
      <g transform="translate(481.34947 372.235625) scale(0.28 -0.28)">
       <defs>
        <path id="DejaVuSans-31" d="M 794 531 
L 1825 531 
L 1825 4091 
L 703 3866 
L 703 4441 
L 1819 4666 
L 2450 4666 
L 2450 531 
L 3481 531 
L 3481 0 
L 794 0 
L 794 531 
z
" transform="scale(0.015625)"/>
       </defs>
       <use xlink:href="#DejaVuSans-31"/>
       <use xlink:href="#DejaVuSans-30" x="63.623047"/>
       <use xlink:href="#DejaVuSans-30" x="127.246094"/>
      </g>
     </g>
    </g>
    <g id="xtick_7">
     <g id="line2d_7">
      <g>
       <use xlink:href="#m4d0257267f" x="578.029545" y="343.96" style="stroke: #000000; stroke-width: 0.8"/>
      </g>
     </g>
     <g id="text_7">
      <!-- 120 -->
      <g transform="translate(551.307045 372.235625) scale(0.28 -0.28)">
       <use xlink:href="#DejaVuSans-31"/>
       <use xlink:href="#DejaVuSans-32" x="63.623047"/>
       <use xlink:href="#DejaVuSans-30" x="127.246094"/>
      </g>
     </g>
    </g>
    <g id="xtick_8">
     <g id="line2d_8">
      <g>
       <use xlink:href="#m4d0257267f" x="647.987121" y="343.96" style="stroke: #000000; stroke-width: 0.8"/>
      </g>
     </g>
     <g id="text_8">
      <!-- 140 -->
      <g transform="translate(621.264621 372.235625) scale(0.28 -0.28)">
       <use xlink:href="#DejaVuSans-31"/>
       <use xlink:href="#DejaVuSans-34" x="63.623047"/>
       <use xlink:href="#DejaVuSans-30" x="127.246094"/>
      </g>
     </g>
    </g>
    <g id="text_9">
     <!-- Episode -->
     <g transform="translate(342.075 412.4525) scale(0.4 -0.4)">
      <defs>
       <path id="DejaVuSans-45" d="M 628 4666 
L 3578 4666 
L 3578 4134 
L 1259 4134 
L 1259 2753 
L 3481 2753 
L 3481 2222 
L 1259 2222 
L 1259 531 
L 3634 531 
L 3634 0 
L 628 0 
L 628 4666 
z
" transform="scale(0.015625)"/>
       <path id="DejaVuSans-70" d="M 1159 525 
L 1159 -1331 
L 581 -1331 
L 581 3500 
L 1159 3500 
L 1159 2969 
Q 1341 3281 1617 3432 
Q 1894 3584 2278 3584 
Q 2916 3584 3314 3078 
Q 3713 2572 3713 1747 
Q 3713 922 3314 415 
Q 2916 -91 2278 -91 
Q 1894 -91 1617 61 
Q 1341 213 1159 525 
z
M 3116 1747 
Q 3116 2381 2855 2742 
Q 2594 3103 2138 3103 
Q 1681 3103 1420 2742 
Q 1159 2381 1159 1747 
Q 1159 1113 1420 752 
Q 1681 391 2138 391 
Q 2594 391 2855 752 
Q 3116 1113 3116 1747 
z
" transform="scale(0.015625)"/>
       <path id="DejaVuSans-69" d="M 603 3500 
L 1178 3500 
L 1178 0 
L 603 0 
L 603 3500 
z
M 603 4863 
L 1178 4863 
L 1178 4134 
L 603 4134 
L 603 4863 
z
" transform="scale(0.015625)"/>
       <path id="DejaVuSans-73" d="M 2834 3397 
L 2834 2853 
Q 2591 2978 2328 3040 
Q 2066 3103 1784 3103 
Q 1356 3103 1142 2972 
Q 928 2841 928 2578 
Q 928 2378 1081 2264 
Q 1234 2150 1697 2047 
L 1894 2003 
Q 2506 1872 2764 1633 
Q 3022 1394 3022 966 
Q 3022 478 2636 193 
Q 2250 -91 1575 -91 
Q 1294 -91 989 -36 
Q 684 19 347 128 
L 347 722 
Q 666 556 975 473 
Q 1284 391 1588 391 
Q 1994 391 2212 530 
Q 2431 669 2431 922 
Q 2431 1156 2273 1281 
Q 2116 1406 1581 1522 
L 1381 1569 
Q 847 1681 609 1914 
Q 372 2147 372 2553 
Q 372 3047 722 3315 
Q 1072 3584 1716 3584 
Q 2034 3584 2315 3537 
Q 2597 3491 2834 3397 
z
" transform="scale(0.015625)"/>
       <path id="DejaVuSans-6f" d="M 1959 3097 
Q 1497 3097 1228 2736 
Q 959 2375 959 1747 
Q 959 1119 1226 758 
Q 1494 397 1959 397 
Q 2419 397 2687 759 
Q 2956 1122 2956 1747 
Q 2956 2369 2687 2733 
Q 2419 3097 1959 3097 
z
M 1959 3584 
Q 2709 3584 3137 3096 
Q 3566 2609 3566 1747 
Q 3566 888 3137 398 
Q 2709 -91 1959 -91 
Q 1206 -91 779 398 
Q 353 888 353 1747 
Q 353 2609 779 3096 
Q 1206 3584 1959 3584 
z
" transform="scale(0.015625)"/>
       <path id="DejaVuSans-64" d="M 2906 2969 
L 2906 4863 
L 3481 4863 
L 3481 0 
L 2906 0 
L 2906 525 
Q 2725 213 2448 61 
Q 2172 -91 1784 -91 
Q 1150 -91 751 415 
Q 353 922 353 1747 
Q 353 2572 751 3078 
Q 1150 3584 1784 3584 
Q 2172 3584 2448 3432 
Q 2725 3281 2906 2969 
z
M 947 1747 
Q 947 1113 1208 752 
Q 1469 391 1925 391 
Q 2381 391 2643 752 
Q 2906 1113 2906 1747 
Q 2906 2381 2643 2742 
Q 2381 3103 1925 3103 
Q 1469 3103 1208 2742 
Q 947 2381 947 1747 
z
" transform="scale(0.015625)"/>
       <path id="DejaVuSans-65" d="M 3597 1894 
L 3597 1613 
L 953 1613 
Q 991 1019 1311 708 
Q 1631 397 2203 397 
Q 2534 397 2845 478 
Q 3156 559 3463 722 
L 3463 178 
Q 3153 47 2828 -22 
Q 2503 -91 2169 -91 
Q 1331 -91 842 396 
Q 353 884 353 1716 
Q 353 2575 817 3079 
Q 1281 3584 2069 3584 
Q 2775 3584 3186 3129 
Q 3597 2675 3597 1894 
z
M 3022 2063 
Q 3016 2534 2758 2815 
Q 2500 3097 2075 3097 
Q 1594 3097 1305 2825 
Q 1016 2553 972 2059 
L 3022 2063 
z
" transform="scale(0.015625)"/>
      </defs>
      <use xlink:href="#DejaVuSans-45"/>
      <use xlink:href="#DejaVuSans-70" x="63.183594"/>
      <use xlink:href="#DejaVuSans-69" x="126.660156"/>
      <use xlink:href="#DejaVuSans-73" x="154.443359"/>
      <use xlink:href="#DejaVuSans-6f" x="206.542969"/>
      <use xlink:href="#DejaVuSans-64" x="267.724609"/>
      <use xlink:href="#DejaVuSans-65" x="331.201172"/>
     </g>
    </g>
   </g>
   <g id="matplotlib.axis_2">
    <g id="ytick_1">
     <g id="line2d_9">
      <defs>
       <path id="m78c3ffb2bc" d="M 0 0 
L -3.5 0 
" style="stroke: #000000; stroke-width: 0.8"/>
      </defs>
      <g>
       <use xlink:href="#m78c3ffb2bc" x="132.05" y="324.486363" style="stroke: #000000; stroke-width: 0.8"/>
      </g>
     </g>
     <g id="text_10">
      <!-- 0 -->
      <g transform="translate(107.235 335.124175) scale(0.28 -0.28)">
       <use xlink:href="#DejaVuSans-30"/>
      </g>
     </g>
    </g>
    <g id="ytick_2">
     <g id="line2d_10">
      <g>
       <use xlink:href="#m78c3ffb2bc" x="132.05" y="287.159238" style="stroke: #000000; stroke-width: 0.8"/>
      </g>
     </g>
     <g id="text_11">
      <!-- 500 -->
      <g transform="translate(71.605 297.797051) scale(0.28 -0.28)">
       <defs>
        <path id="DejaVuSans-35" d="M 691 4666 
L 3169 4666 
L 3169 4134 
L 1269 4134 
L 1269 2991 
Q 1406 3038 1543 3061 
Q 1681 3084 1819 3084 
Q 2600 3084 3056 2656 
Q 3513 2228 3513 1497 
Q 3513 744 3044 326 
Q 2575 -91 1722 -91 
Q 1428 -91 1123 -41 
Q 819 9 494 109 
L 494 744 
Q 775 591 1075 516 
Q 1375 441 1709 441 
Q 2250 441 2565 725 
Q 2881 1009 2881 1497 
Q 2881 1984 2565 2268 
Q 2250 2553 1709 2553 
Q 1456 2553 1204 2497 
Q 953 2441 691 2322 
L 691 4666 
z
" transform="scale(0.015625)"/>
       </defs>
       <use xlink:href="#DejaVuSans-35"/>
       <use xlink:href="#DejaVuSans-30" x="63.623047"/>
       <use xlink:href="#DejaVuSans-30" x="127.246094"/>
      </g>
     </g>
    </g>
    <g id="ytick_3">
     <g id="line2d_11">
      <g>
       <use xlink:href="#m78c3ffb2bc" x="132.05" y="249.832114" style="stroke: #000000; stroke-width: 0.8"/>
      </g>
     </g>
     <g id="text_12">
      <!-- 1000 -->
      <g transform="translate(53.79 260.469927) scale(0.28 -0.28)">
       <use xlink:href="#DejaVuSans-31"/>
       <use xlink:href="#DejaVuSans-30" x="63.623047"/>
       <use xlink:href="#DejaVuSans-30" x="127.246094"/>
       <use xlink:href="#DejaVuSans-30" x="190.869141"/>
      </g>
     </g>
    </g>
    <g id="ytick_4">
     <g id="line2d_12">
      <g>
       <use xlink:href="#m78c3ffb2bc" x="132.05" y="212.50499" style="stroke: #000000; stroke-width: 0.8"/>
      </g>
     </g>
     <g id="text_13">
      <!-- 1500 -->
      <g transform="translate(53.79 223.142802) scale(0.28 -0.28)">
       <use xlink:href="#DejaVuSans-31"/>
       <use xlink:href="#DejaVuSans-35" x="63.623047"/>
       <use xlink:href="#DejaVuSans-30" x="127.246094"/>
       <use xlink:href="#DejaVuSans-30" x="190.869141"/>
      </g>
     </g>
    </g>
    <g id="ytick_5">
     <g id="line2d_13">
      <g>
       <use xlink:href="#m78c3ffb2bc" x="132.05" y="175.177865" style="stroke: #000000; stroke-width: 0.8"/>
      </g>
     </g>
     <g id="text_14">
      <!-- 2000 -->
      <g transform="translate(53.79 185.815678) scale(0.28 -0.28)">
       <use xlink:href="#DejaVuSans-32"/>
       <use xlink:href="#DejaVuSans-30" x="63.623047"/>
       <use xlink:href="#DejaVuSans-30" x="127.246094"/>
       <use xlink:href="#DejaVuSans-30" x="190.869141"/>
      </g>
     </g>
    </g>
    <g id="ytick_6">
     <g id="line2d_14">
      <g>
       <use xlink:href="#m78c3ffb2bc" x="132.05" y="137.850741" style="stroke: #000000; stroke-width: 0.8"/>
      </g>
     </g>
     <g id="text_15">
      <!-- 2500 -->
      <g transform="translate(53.79 148.488554) scale(0.28 -0.28)">
       <use xlink:href="#DejaVuSans-32"/>
       <use xlink:href="#DejaVuSans-35" x="63.623047"/>
       <use xlink:href="#DejaVuSans-30" x="127.246094"/>
       <use xlink:href="#DejaVuSans-30" x="190.869141"/>
      </g>
     </g>
    </g>
    <g id="ytick_7">
     <g id="line2d_15">
      <g>
       <use xlink:href="#m78c3ffb2bc" x="132.05" y="100.523617" style="stroke: #000000; stroke-width: 0.8"/>
      </g>
     </g>
     <g id="text_16">
      <!-- 3000 -->
      <g transform="translate(53.79 111.161429) scale(0.28 -0.28)">
       <defs>
        <path id="DejaVuSans-33" d="M 2597 2516 
Q 3050 2419 3304 2112 
Q 3559 1806 3559 1356 
Q 3559 666 3084 287 
Q 2609 -91 1734 -91 
Q 1441 -91 1130 -33 
Q 819 25 488 141 
L 488 750 
Q 750 597 1062 519 
Q 1375 441 1716 441 
Q 2309 441 2620 675 
Q 2931 909 2931 1356 
Q 2931 1769 2642 2001 
Q 2353 2234 1838 2234 
L 1294 2234 
L 1294 2753 
L 1863 2753 
Q 2328 2753 2575 2939 
Q 2822 3125 2822 3475 
Q 2822 3834 2567 4026 
Q 2313 4219 1838 4219 
Q 1578 4219 1281 4162 
Q 984 4106 628 3988 
L 628 4550 
Q 988 4650 1302 4700 
Q 1616 4750 1894 4750 
Q 2613 4750 3031 4423 
Q 3450 4097 3450 3541 
Q 3450 3153 3228 2886 
Q 3006 2619 2597 2516 
z
" transform="scale(0.015625)"/>
       </defs>
       <use xlink:href="#DejaVuSans-33"/>
       <use xlink:href="#DejaVuSans-30" x="63.623047"/>
       <use xlink:href="#DejaVuSans-30" x="127.246094"/>
       <use xlink:href="#DejaVuSans-30" x="190.869141"/>
      </g>
     </g>
    </g>
    <g id="ytick_8">
     <g id="line2d_16">
      <g>
       <use xlink:href="#m78c3ffb2bc" x="132.05" y="63.196492" style="stroke: #000000; stroke-width: 0.8"/>
      </g>
     </g>
     <g id="text_17">
      <!-- 3500 -->
      <g transform="translate(53.79 73.834305) scale(0.28 -0.28)">
       <use xlink:href="#DejaVuSans-33"/>
       <use xlink:href="#DejaVuSans-35" x="63.623047"/>
       <use xlink:href="#DejaVuSans-30" x="127.246094"/>
       <use xlink:href="#DejaVuSans-30" x="190.869141"/>
      </g>
     </g>
    </g>
    <g id="ytick_9">
     <g id="line2d_17">
      <g>
       <use xlink:href="#m78c3ffb2bc" x="132.05" y="25.869368" style="stroke: #000000; stroke-width: 0.8"/>
      </g>
     </g>
     <g id="text_18">
      <!-- 4000 -->
      <g transform="translate(53.79 36.507181) scale(0.28 -0.28)">
       <use xlink:href="#DejaVuSans-34"/>
       <use xlink:href="#DejaVuSans-30" x="63.623047"/>
       <use xlink:href="#DejaVuSans-30" x="127.246094"/>
       <use xlink:href="#DejaVuSans-30" x="190.869141"/>
      </g>
     </g>
    </g>
    <g id="text_19">
     <!-- $m_{vct}$ -->
     <g transform="translate(41.47125 218.98) rotate(-90) scale(0.4 -0.4)">
      <defs>
       <path id="DejaVuSans-Oblique-6d" d="M 5747 2113 
L 5338 0 
L 4763 0 
L 5166 2094 
Q 5191 2228 5203 2325 
Q 5216 2422 5216 2491 
Q 5216 2772 5059 2928 
Q 4903 3084 4622 3084 
Q 4203 3084 3875 2770 
Q 3547 2456 3450 1953 
L 3066 0 
L 2491 0 
L 2900 2094 
Q 2925 2209 2937 2307 
Q 2950 2406 2950 2484 
Q 2950 2769 2794 2926 
Q 2638 3084 2363 3084 
Q 1938 3084 1609 2770 
Q 1281 2456 1184 1953 
L 800 0 
L 225 0 
L 909 3500 
L 1484 3500 
L 1375 2956 
Q 1609 3263 1923 3423 
Q 2238 3584 2597 3584 
Q 2978 3584 3223 3384 
Q 3469 3184 3519 2828 
Q 3781 3197 4126 3390 
Q 4472 3584 4856 3584 
Q 5306 3584 5551 3325 
Q 5797 3066 5797 2591 
Q 5797 2488 5784 2364 
Q 5772 2241 5747 2113 
z
" transform="scale(0.015625)"/>
       <path id="DejaVuSans-Oblique-76" d="M 459 3500 
L 1069 3500 
L 1581 525 
L 3256 3500 
L 3866 3500 
L 1875 0 
L 1100 0 
L 459 3500 
z
" transform="scale(0.015625)"/>
       <path id="DejaVuSans-Oblique-63" d="M 3431 3366 
L 3316 2797 
Q 3109 2947 2876 3022 
Q 2644 3097 2394 3097 
Q 2119 3097 1870 3000 
Q 1622 2903 1453 2725 
Q 1184 2453 1037 2087 
Q 891 1722 891 1331 
Q 891 859 1127 628 
Q 1363 397 1844 397 
Q 2081 397 2348 469 
Q 2616 541 2906 684 
L 2797 116 
Q 2547 13 2283 -39 
Q 2019 -91 1741 -91 
Q 1044 -91 669 257 
Q 294 606 294 1253 
Q 294 1797 489 2255 
Q 684 2713 1069 3078 
Q 1331 3328 1684 3456 
Q 2038 3584 2456 3584 
Q 2700 3584 2940 3529 
Q 3181 3475 3431 3366 
z
" transform="scale(0.015625)"/>
       <path id="DejaVuSans-Oblique-74" d="M 2706 3500 
L 2619 3053 
L 1472 3053 
L 1100 1153 
Q 1081 1047 1072 975 
Q 1063 903 1063 863 
Q 1063 663 1183 572 
Q 1303 481 1569 481 
L 2150 481 
L 2053 0 
L 1503 0 
Q 991 0 739 200 
Q 488 400 488 806 
Q 488 878 497 964 
Q 506 1050 525 1153 
L 897 3053 
L 409 3053 
L 500 3500 
L 978 3500 
L 1172 4494 
L 1747 4494 
L 1556 3500 
L 2706 3500 
z
" transform="scale(0.015625)"/>
      </defs>
      <use xlink:href="#DejaVuSans-Oblique-6d"/>
      <use xlink:href="#DejaVuSans-Oblique-76" transform="translate(97.412109 -16.40625) scale(0.7)"/>
      <use xlink:href="#DejaVuSans-Oblique-63" transform="translate(138.837891 -16.40625) scale(0.7)"/>
      <use xlink:href="#DejaVuSans-Oblique-74" transform="translate(177.324219 -16.40625) scale(0.7)"/>
     </g>
    </g>
   </g>
   <g id="line2d_18">
    <path d="M 158.284091 95.571552 
L 161.78197 88.23055 
L 165.279848 84.970648 
L 168.777727 67.89971 
L 172.275606 91.714415 
L 175.773485 85.393689 
L 179.271364 103.21117 
L 182.769242 93.456348 
L 186.267121 89.524557 
L 189.765 87.931933 
L 193.262879 101.991817 
L 196.760758 89.076632 
L 200.258636 104.853563 
L 203.756515 87.832394 
L 207.254394 103.509787 
L 210.752273 106.048031 
L 214.250152 110.253554 
L 217.74803 96.691365 
L 221.245909 115.155849 
L 224.743788 126.52818 
L 228.241667 155.543798 
L 231.739545 128.643384 
L 235.237424 154.996334 
L 238.735303 182.319789 
L 242.233182 179.482927 
L 245.731061 195.757553 
L 249.228939 219.447835 
L 252.726818 218.95014 
L 256.224697 240.176831 
L 259.722576 255.331644 
L 263.220455 247.29387 
L 266.718333 256.20261 
L 270.216212 225.892985 
L 273.714091 248.637646 
L 277.21197 246.995253 
L 280.709848 238.036743 
L 284.207727 239.579597 
L 287.705606 232.31325 
L 291.203485 271.979541 
L 294.701364 280.614549 
L 298.199242 287.731588 
L 301.697121 298.332491 
L 305.195 273.671704 
L 308.692879 292.310382 
L 312.190758 299.726037 
L 315.688636 277.503956 
L 319.186515 290.717758 
L 322.684394 289.871676 
L 326.182273 289.150018 
L 329.680152 261.751909 
L 333.17803 298.655993 
L 336.675909 299.153688 
L 340.173788 290.294717 
L 343.671667 277.852342 
L 350.667424 296.192402 
L 354.165303 288.079974 
L 357.663182 307.86335 
L 361.161061 293.604389 
L 364.658939 296.814521 
L 368.156818 284.397031 
L 371.654697 290.294717 
L 375.152576 278.673539 
L 378.650455 284.322377 
L 382.148333 289.597944 
L 385.646212 299.054149 
L 389.144091 301.094698 
L 392.64197 305.573953 
L 396.139848 273.621935 
L 399.637727 299.90023 
L 403.135606 302.164742 
L 406.633485 315.677161 
L 410.131364 310.426479 
L 413.629242 313.138917 
L 417.127121 304.230177 
L 420.625 313.561958 
L 424.122879 310.078093 
L 427.620758 288.503015 
L 431.118636 304.255061 
L 434.616515 310.84952 
L 438.114394 295.769362 
L 441.612273 309.008049 
L 445.110152 308.161967 
L 448.60803 307.91312 
L 452.105909 311.645832 
L 455.603788 317.319555 
L 459.101667 314.408039 
L 462.599545 314.756426 
L 466.097424 314.233846 
L 469.595303 315.552738 
L 473.093182 312.392374 
L 476.591061 315.453199 
L 480.088939 315.751816 
L 483.586818 315.35366 
L 487.084697 314.3085 
L 490.582576 319.484528 
L 494.080455 309.655052 
L 497.578333 314.457809 
L 501.076212 314.134307 
L 504.574091 315.502968 
L 508.07197 309.903899 
L 511.569848 300.597003 
L 515.067727 314.432924 
L 518.565606 317.419094 
L 529.059242 318.314945 
L 532.557121 315.428314 
L 536.055 317.120477 
L 539.552879 321.599732 
L 543.050758 319.235681 
L 546.548636 320.853189 
L 550.046515 315.428314 
L 553.544394 322.147196 
L 557.042273 314.557348 
L 560.540152 319.33522 
L 564.03803 323.341664 
L 567.535909 316.77209 
L 571.033788 315.030158 
L 574.531667 320.952728 
L 578.029545 322.570237 
L 581.527424 317.717711 
L 585.025303 320.031993 
L 588.523182 317.543518 
L 592.021061 315.726931 
L 595.518939 317.891904 
L 599.016818 319.161026 
L 602.514697 320.678996 
L 606.012576 320.181301 
L 609.510455 315.7767 
L 613.008333 319.310335 
L 616.506212 312.019103 
L 620.004091 318.961948 
L 623.50197 320.430149 
L 626.999848 319.011718 
L 630.497727 321.052267 
L 633.995606 321.126922 
L 637.493485 321.79881 
L 640.991364 317.095592 
L 644.489242 322.943508 
L 647.987121 321.27623 
L 651.485 318.115867 
L 654.982879 315.35366 
L 658.480758 313.36288 
L 661.978636 322.022773 
L 665.476515 319.633837 
L 668.974394 321.326 
L 672.472273 320.28084 
L 675.970152 316.224626 
L 679.46803 315.403429 
L 682.965909 321.251345 
L 682.965909 321.251345 
" clip-path="url(#p305e8ae539)" style="fill: none; stroke: #0000ff; stroke-width: 3; stroke-linecap: square"/>
   </g>
   <g id="line2d_19">
    <path d="M 158.284091 86.861889 
L 161.78197 69.840721 
L 165.279848 86.28954 
L 168.777727 67.252707 
L 172.275606 79.37158 
L 175.773485 74.718131 
L 179.271364 59.93659 
L 182.769242 67.750402 
L 186.267121 89.176171 
L 189.765 50.579924 
L 193.262879 49.335687 
L 196.760758 79.968814 
L 200.258636 74.693247 
L 203.756515 96.815789 
L 207.254394 69.691412 
L 210.752273 75.589098 
L 214.250152 87.359584 
L 217.74803 70.189107 
L 221.245909 100.946658 
L 224.743788 109.13374 
L 228.241667 104.579831 
L 231.739545 116.250778 
L 235.237424 131.604669 
L 238.735303 132.425866 
L 242.233182 138.47286 
L 245.731061 173.585241 
L 249.228939 145.589898 
L 252.726818 172.963123 
L 256.224697 149.123533 
L 259.722576 196.752943 
L 263.220455 184.982457 
L 266.718333 178.562191 
L 270.216212 206.457996 
L 273.714091 249.508612 
L 277.21197 246.373134 
L 284.207727 238.584207 
L 287.705606 244.033967 
L 291.203485 261.229329 
L 294.701364 270.884612 
L 298.199242 269.466181 
L 301.697121 281.361092 
L 305.195 262.050526 
L 308.692879 281.833902 
L 312.190758 271.5565 
L 315.688636 282.928831 
L 319.186515 276.707644 
L 322.684394 277.205339 
L 326.182273 275.861562 
L 329.680152 269.167564 
L 333.17803 276.707644 
L 336.675909 271.232999 
L 340.173788 273.895667 
L 343.671667 278.773078 
L 347.169545 266.803513 
L 350.667424 260.557441 
L 354.165303 275.762023 
L 357.663182 262.871723 
L 361.161061 263.767574 
L 364.658939 265.335313 
L 368.156818 264.265269 
L 371.654697 273.472626 
L 375.152576 246.074517 
L 378.650455 263.419187 
L 382.148333 256.998922 
L 385.646212 224.92248 
L 389.144091 251.723355 
L 392.64197 231.541823 
L 396.139848 243.287425 
L 399.637727 260.70675 
L 403.135606 256.15284 
L 406.633485 248.115066 
L 410.131364 265.957432 
L 413.629242 234.901264 
L 417.127121 266.480012 
L 420.625 264.414577 
L 424.122879 252.967593 
L 427.620758 232.910484 
L 431.118636 243.561157 
L 434.616515 220.492994 
L 438.114394 245.576822 
L 441.612273 219.348296 
L 445.110152 246.821059 
L 448.60803 230.098508 
L 452.105909 231.292976 
L 455.603788 241.371299 
L 459.101667 246.845944 
L 462.599545 214.371346 
L 466.097424 219.547374 
L 469.595303 215.988855 
L 473.093182 180.577856 
L 476.591061 201.705008 
L 480.088939 195.483821 
L 483.586818 207.901311 
L 487.084697 179.806429 
L 490.582576 177.790764 
L 494.080455 179.010117 
L 497.578333 188.09305 
L 501.076212 203.969521 
L 504.574091 238.136282 
L 508.07197 235.075458 
L 511.569848 263.12057 
L 515.067727 259.810899 
L 518.565606 256.899383 
L 522.063485 246.845944 
L 525.561364 240.475448 
L 529.059242 255.953762 
L 532.557121 252.967593 
L 536.055 266.977707 
L 539.552879 257.14823 
L 543.050758 233.731681 
L 546.548636 219.124333 
L 550.046515 223.45428 
L 553.544394 245.576822 
L 557.042273 236.692966 
L 560.540152 252.69386 
L 564.03803 242.068072 
L 567.535909 253.788789 
L 571.033788 242.491113 
L 574.531667 253.390633 
L 578.029545 222.135388 
L 581.527424 229.302196 
L 585.025303 213.525264 
L 588.523182 215.740007 
L 592.021061 202.974131 
L 595.518939 214.91881 
L 599.016818 229.949199 
L 602.514697 243.73535 
L 606.012576 236.618312 
L 609.510455 233.607257 
L 613.008333 241.520608 
L 616.506212 255.580491 
L 620.004091 221.737232 
L 623.50197 227.460724 
L 626.999848 241.74457 
L 630.497727 235.125227 
L 633.995606 233.059793 
L 637.493485 234.030298 
L 640.991364 250.852389 
L 644.489242 239.256096 
L 647.987121 243.884659 
L 651.485 223.653358 
L 654.982879 219.248757 
L 658.480758 232.860715 
L 661.978636 193.766773 
L 665.476515 218.253367 
L 668.974394 241.27176 
L 672.472273 229.053348 
L 675.970152 245.676361 
L 679.46803 249.085572 
L 682.965909 253.241325 
L 682.965909 253.241325 
" clip-path="url(#p305e8ae539)" style="fill: none; stroke: #008000; stroke-width: 3; stroke-linecap: square"/>
   </g>
   <g id="line2d_20">
    <path d="M 158.284091 72.279426 
L 161.78197 60.98175 
L 165.279848 62.40018 
L 168.777727 61.653638 
L 172.275606 81.461899 
L 175.773485 80.3172 
L 179.271364 57.473 
L 182.769242 72.851775 
L 186.267121 53.167938 
L 189.765 88.379859 
L 193.262879 73.39924 
L 196.760758 55.158718 
L 200.258636 57.099729 
L 203.756515 73.100623 
L 207.254394 60.309861 
L 210.752273 75.539328 
L 214.250152 79.197386 
L 217.74803 68.646253 
L 221.245909 82.208441 
L 224.743788 89.300595 
L 228.241667 98.109796 
L 231.739545 76.758681 
L 235.237424 68.42229 
L 238.735303 86.239771 
L 242.233182 95.372474 
L 245.731061 57.348576 
L 249.228939 97.985372 
L 252.726818 65.037964 
L 256.224697 77.828725 
L 259.722576 82.183556 
L 263.220455 91.21672 
L 266.718333 69.069293 
L 270.216212 70.985419 
L 273.714091 76.310755 
L 277.21197 86.115347 
L 280.709848 61.106173 
L 284.207727 58.891431 
L 287.705606 88.75313 
L 291.203485 103.534671 
L 294.701364 81.636092 
L 298.199242 69.915375 
L 301.697121 79.545773 
L 305.195 80.640702 
L 308.692879 88.852669 
L 312.190758 94.874779 
L 315.688636 73.424124 
L 319.186515 75.937484 
L 322.684394 93.008422 
L 326.182273 86.214886 
L 329.680152 80.491393 
L 333.17803 76.136562 
L 336.675909 86.687696 
L 340.173788 69.965144 
L 343.671667 96.442518 
L 347.169545 68.521829 
L 350.667424 77.629647 
L 354.165303 89.375249 
L 357.663182 62.300641 
L 361.161061 88.429628 
L 364.658939 103.186285 
L 368.156818 85.368804 
L 371.654697 61.678523 
L 375.152576 74.319975 
L 378.650455 71.209382 
L 382.148333 87.484008 
L 385.646212 86.563272 
L 389.144091 81.760516 
L 392.64197 78.152227 
L 396.139848 78.201996 
L 399.637727 83.701526 
L 403.135606 83.801065 
L 406.633485 67.849941 
L 410.131364 79.37158 
L 413.629242 71.060073 
L 417.127121 78.251766 
L 420.625 78.774346 
L 424.122879 92.013032 
L 427.620758 94.20289 
L 431.118636 81.810285 
L 434.616515 73.722741 
L 438.114394 70.388185 
L 441.612273 76.883105 
L 445.110152 80.889549 
L 448.60803 79.620427 
L 452.105909 90.818564 
L 455.603788 85.393689 
L 459.101667 79.545773 
L 462.599545 75.365135 
L 466.097424 85.891384 
L 469.595303 74.86744 
L 473.093182 77.928264 
L 476.591061 76.236101 
L 480.088939 77.33103 
L 483.586818 66.38174 
L 487.084697 70.910765 
L 490.582576 72.652697 
L 494.080455 85.866499 
L 497.578333 84.647147 
L 501.076212 78.774346 
L 504.574091 62.002024 
L 508.07197 82.507058 
L 511.569848 71.93104 
L 515.067727 90.072022 
L 518.565606 82.30798 
L 522.063485 75.315365 
L 525.561364 100.74758 
L 529.059242 84.323645 
L 532.557121 60.011244 
L 536.055 84.572492 
L 539.552879 86.886774 
L 543.050758 78.37619 
L 546.548636 65.759622 
L 550.046515 102.663705 
L 553.544394 80.391854 
L 557.042273 97.164176 
L 560.540152 84.871109 
L 564.03803 81.83517 
L 567.535909 56.552264 
L 571.033788 59.787282 
L 574.531667 86.065577 
L 578.029545 66.257317 
L 581.527424 51.127389 
L 585.025303 75.016748 
L 588.523182 75.265596 
L 592.021061 73.573433 
L 595.518939 94.650816 
L 599.016818 52.446281 
L 602.514697 76.186332 
L 606.012576 87.359584 
L 609.510455 62.97253 
L 613.008333 74.145782 
L 616.506212 94.675701 
L 620.004091 68.272981 
L 623.50197 74.568823 
L 626.999848 97.089521 
L 630.497727 51.97347 
L 633.995606 87.28493 
L 637.493485 78.002918 
L 640.991364 71.433345 
L 644.489242 76.534718 
L 647.987121 76.484949 
L 651.485 93.605656 
L 654.982879 77.729186 
L 658.480758 86.413964 
L 661.978636 53.217708 
L 665.476515 57.696963 
L 668.974394 88.653591 
L 672.472273 95.820399 
L 675.970152 70.537494 
L 679.46803 99.154956 
L 682.965909 38.13755 
L 682.965909 38.13755 
" clip-path="url(#p305e8ae539)" style="fill: none; stroke: #ff0000; stroke-width: 3; stroke-linecap: square"/>
   </g>
   <g id="line2d_21">
    <path d="M 158.284091 68.671137 
L 161.78197 78.724576 
L 165.279848 85.393689 
L 168.777727 67.302476 
L 172.275606 79.894159 
L 175.773485 84.373414 
L 179.271364 80.590932 
L 182.769242 71.458229 
L 186.267121 92.510727 
L 189.765 78.998308 
L 193.262879 96.342979 
L 196.760758 86.463733 
L 200.258636 85.841615 
L 203.756515 84.647147 
L 207.254394 81.586322 
L 210.752273 66.232432 
L 214.250152 88.554052 
L 217.74803 72.105233 
L 221.245909 85.443459 
L 224.743788 83.129177 
L 228.241667 87.683086 
L 235.237424 86.538388 
L 238.735303 93.107961 
L 242.233182 82.407519 
L 245.731061 79.172502 
L 249.228939 86.389079 
L 252.726818 87.658201 
L 256.224697 88.131011 
L 259.722576 91.515337 
L 263.220455 77.903379 
L 266.718333 88.778015 
L 270.216212 76.484949 
L 273.714091 88.977093 
L 277.21197 86.090462 
L 280.709848 81.36236 
L 284.207727 74.693247 
L 287.705606 107.989042 
L 291.203485 80.36697 
L 294.701364 100.573386 
L 298.199242 92.311649 
L 301.697121 88.877554 
L 305.195 99.354034 
L 308.692879 85.443459 
L 312.190758 92.883999 
L 315.688636 88.8029 
L 319.186515 82.731021 
L 322.684394 96.492287 
L 326.182273 102.141125 
L 329.680152 92.162341 
L 333.17803 96.019477 
L 336.675909 90.196446 
L 340.173788 83.104292 
L 343.671667 94.924548 
L 347.169545 80.143007 
L 350.667424 89.151286 
L 354.165303 84.696916 
L 357.663182 91.166951 
L 361.161061 88.852669 
L 364.658939 88.056357 
L 368.156818 100.100576 
L 371.654697 91.341144 
L 375.152576 95.073857 
L 378.650455 79.695081 
L 382.148333 95.24805 
L 385.646212 93.879389 
L 389.144091 106.495957 
L 392.64197 101.892278 
L 396.139848 91.26649 
L 399.637727 99.727305 
L 403.135606 89.350364 
L 406.633485 92.560497 
L 410.131364 94.899663 
L 413.629242 101.543891 
L 417.127121 89.499673 
L 420.625 102.912553 
L 424.122879 107.068306 
L 427.620758 117.196399 
L 431.118636 110.029591 
L 434.616515 121.202844 
L 438.114394 133.0231 
L 441.612273 130.061814 
L 445.110152 151.612008 
L 448.60803 155.220296 
L 452.105909 151.537353 
L 455.603788 156.265456 
L 459.101667 159.077432 
L 462.599545 173.933628 
L 466.097424 155.618452 
L 469.595303 160.495863 
L 473.093182 149.621228 
L 476.591061 169.379719 
L 480.088939 164.800925 
L 483.586818 156.588958 
L 487.084697 167.364054 
L 490.582576 166.592627 
L 494.080455 158.032273 
L 497.578333 155.792646 
L 501.076212 154.050713 
L 504.574091 155.494029 
L 508.07197 158.106927 
L 511.569848 164.576962 
L 515.067727 164.502308 
L 518.565606 161.391714 
L 522.063485 169.678336 
L 525.561364 150.143807 
L 529.059242 152.035048 
L 532.557121 162.287565 
L 536.055 161.341945 
L 539.552879 162.859914 
L 543.050758 152.308781 
L 546.548636 163.30784 
L 550.046515 164.228576 
L 553.544394 163.581572 
L 557.042273 155.469144 
L 560.540152 156.489419 
L 564.03803 170.74838 
L 567.535909 168.011058 
L 571.033788 160.968673 
L 574.531667 165.870969 
L 578.029545 160.247016 
L 581.527424 167.861749 
L 585.025303 162.411989 
L 588.523182 165.348389 
L 592.021061 165.522583 
L 595.518939 158.505083 
L 599.016818 168.23502 
L 602.514697 167.836864 
L 606.012576 169.081102 
L 609.510455 174.182475 
L 613.008333 167.488478 
L 616.506212 152.906015 
L 620.004091 155.742876 
L 623.50197 167.413824 
L 626.999848 173.236855 
L 630.497727 166.070047 
L 633.995606 156.240571 
L 637.493485 165.373274 
L 640.991364 155.643337 
L 644.489242 159.251626 
L 647.987121 170.673726 
L 651.485 167.065437 
L 654.982879 169.305065 
L 658.480758 173.162201 
L 661.978636 175.650676 
L 665.476515 173.635011 
L 668.974394 182.892138 
L 672.472273 195.11055 
L 675.970152 190.780603 
L 679.46803 215.44139 
L 682.965909 228.704962 
L 682.965909 228.704962 
" clip-path="url(#p305e8ae539)" style="fill: none; stroke: #ffa500; stroke-width: 3; stroke-linecap: square"/>
   </g>
   <g id="patch_3">
    <path d="M 132.05 343.96 
L 132.05 10.8 
" style="fill: none; stroke: #000000; stroke-width: 0.8; stroke-linejoin: miter; stroke-linecap: square"/>
   </g>
   <g id="patch_4">
    <path d="M 709.2 343.96 
L 709.2 10.8 
" style="fill: none; stroke: #000000; stroke-width: 0.8; stroke-linejoin: miter; stroke-linecap: square"/>
   </g>
   <g id="patch_5">
    <path d="M 132.05 343.96 
L 709.2 343.96 
" style="fill: none; stroke: #000000; stroke-width: 0.8; stroke-linejoin: miter; stroke-linecap: square"/>
   </g>
   <g id="patch_6">
    <path d="M 132.05 10.8 
L 709.2 10.8 
" style="fill: none; stroke: #000000; stroke-width: 0.8; stroke-linejoin: miter; stroke-linecap: square"/>
   </g>
  </g>
 </g>
 <defs>
  <clipPath id="p305e8ae539">
   <rect x="132.05" y="10.8" width="577.15" height="333.16"/>
  </clipPath>
 </defs>
</svg>
