<?xml version="1.0" encoding="utf-8" standalone="no"?>
<!DOCTYPE svg PUBLIC "-//W3C//DTD SVG 1.1//EN"
  "http://www.w3.org/Graphics/SVG/1.1/DTD/svg11.dtd">
<svg xmlns:xlink="http://www.w3.org/1999/xlink" width="720pt" height="432pt" viewBox="0 0 720 432" xmlns="http://www.w3.org/2000/svg" version="1.1">
 <metadata>
  <rdf:RDF xmlns:dc="http://purl.org/dc/elements/1.1/" xmlns:cc="http://creativecommons.org/ns#" xmlns:rdf="http://www.w3.org/1999/02/22-rdf-syntax-ns#">
   <cc:Work>
    <dc:type rdf:resource="http://purl.org/dc/dcmitype/StillImage"/>
    <dc:date>2025-06-19T21:16:38.984308</dc:date>
    <dc:format>image/svg+xml</dc:format>
    <dc:creator>
     <cc:Agent>
      <dc:title>Matplotlib v3.7.1, https://matplotlib.org/</dc:title>
     </cc:Agent>
    </dc:creator>
   </cc:Work>
  </rdf:RDF>
 </metadata>
 <defs>
  <style type="text/css">*{stroke-linejoin: round; stroke-linecap: butt}</style>
 </defs>
 <g id="figure_1">
  <g id="patch_1">
   <path d="M 0 432 
L 720 432 
L 720 0 
L 0 0 
z
" style="fill: #ffffff"/>
  </g>
  <g id="axes_1">
   <g id="patch_2">
    <path d="M 96.41 343.96 
L 709.2 343.96 
L 709.2 10.8 
L 96.41 10.8 
z
" style="fill: #ffffff"/>
   </g>
   <g id="PolyCollection_1">
    <defs>
     <path id="ma3101031c6" d="M 124.264091 -376.686958 
L 124.264091 -370.399011 
L 127.97797 -368.527275 
L 131.691848 -357.201861 
L 135.405727 -375.625733 
L 139.119606 -361.896863 
L 142.833485 -359.506012 
L 146.547364 -362.560899 
L 150.261242 -355.883609 
L 153.975121 -361.438774 
L 157.689 -328.445685 
L 161.402879 -306.773234 
L 165.116758 -303.979592 
L 168.830636 -295.514348 
L 172.544515 -285.552242 
L 176.258394 -276.523882 
L 179.972273 -271.516344 
L 183.686152 -269.452642 
L 187.40003 -257.533881 
L 191.113909 -244.192931 
L 194.827788 -251.405081 
L 198.541667 -255.489214 
L 202.255545 -248.459505 
L 205.969424 -227.161155 
L 209.683303 -241.640209 
L 213.397182 -245.294856 
L 217.111061 -226.261028 
L 220.824939 -242.713747 
L 224.538818 -257.41851 
L 228.252697 -232.915027 
L 231.966576 -240.662293 
L 235.680455 -231.83097 
L 239.394333 -232.128955 
L 243.108212 -234.996767 
L 246.822091 -242.963056 
L 250.53597 -238.690007 
L 254.249848 -242.018492 
L 257.963727 -235.563202 
L 261.677606 -224.923999 
L 265.391485 -225.925941 
L 269.105364 -240.848869 
L 272.819242 -234.071061 
L 276.533121 -234.409475 
L 280.247 -232.128725 
L 283.960879 -229.82786 
L 287.674758 -232.90356 
L 291.388636 -217.720992 
L 295.102515 -220.039334 
L 298.816394 -214.837553 
L 302.530273 -211.775139 
L 306.244152 -218.306448 
L 309.95803 -221.846153 
L 313.671909 -222.514305 
L 317.385788 -228.652086 
L 321.099667 -214.606647 
L 324.813545 -205.477265 
L 328.527424 -204.817823 
L 332.241303 -210.810393 
L 335.955182 -207.947257 
L 339.669061 -194.897601 
L 343.382939 -207.617404 
L 347.096818 -202.26701 
L 350.810697 -208.737757 
L 354.524576 -211.47959 
L 358.238455 -205.427969 
L 361.952333 -212.433845 
L 365.666212 -221.940688 
L 369.380091 -212.012427 
L 373.09397 -205.315417 
L 376.807848 -205.651023 
L 380.521727 -210.472103 
L 384.235606 -213.207166 
L 387.949485 -208.883329 
L 391.663364 -199.969007 
L 395.377242 -209.449953 
L 399.091121 -201.191033 
L 402.805 -208.501699 
L 406.518879 -196.928862 
L 410.232758 -207.621256 
L 413.946636 -208.049991 
L 417.660515 -210.405886 
L 421.374394 -204.612001 
L 425.088273 -198.735068 
L 428.802152 -201.78769 
L 432.51603 -205.836081 
L 436.229909 -196.92978 
L 439.943788 -196.614972 
L 443.657667 -195.981225 
L 447.371545 -205.403375 
L 451.085424 -191.587692 
L 454.799303 -195.316946 
L 458.513182 -193.902589 
L 462.227061 -196.844238 
L 465.940939 -191.025112 
L 469.654818 -196.418156 
L 473.368697 -189.883905 
L 477.082576 -192.639585 
L 480.796455 -194.690129 
L 484.510333 -185.673003 
L 488.224212 -166.085864 
L 491.938091 -158.454624 
L 495.65197 -153.386456 
L 499.365848 -142.007989 
L 503.079727 -141.47726 
L 506.793606 -145.411741 
L 510.507485 -153.824468 
L 514.221364 -156.921033 
L 517.935242 -154.800152 
L 521.649121 -143.225224 
L 525.363 -124.448767 
L 529.076879 -133.101526 
L 532.790758 -143.082774 
L 536.504636 -140.213652 
L 540.218515 -127.439799 
L 543.932394 -124.214787 
L 547.646273 -114.25788 
L 551.360152 -124.120922 
L 555.07403 -117.436733 
L 558.787909 -117.656189 
L 562.501788 -125.947638 
L 566.215667 -125.472933 
L 569.929545 -120.208164 
L 573.643424 -133.15095 
L 577.357303 -139.675378 
L 581.071182 -131.445228 
L 584.785061 -132.620807 
L 588.498939 -123.07216 
L 592.212818 -131.958176 
L 595.926697 -121.969462 
L 599.640576 -113.214781 
L 603.354455 -106.260916 
L 607.068333 -114.387398 
L 610.782212 -121.744983 
L 614.496091 -119.799804 
L 618.20997 -112.911926 
L 621.923848 -109.095359 
L 625.637727 -116.992006 
L 629.351606 -118.639521 
L 633.065485 -125.425904 
L 636.779364 -128.508521 
L 640.493242 -130.121761 
L 644.207121 -121.393057 
L 647.921 -113.303816 
L 651.634879 -113.250677 
L 655.348758 -116.60967 
L 659.062636 -111.776748 
L 662.776515 -118.253948 
L 666.490394 -113.584502 
L 670.204273 -124.729185 
L 673.918152 -103.183636 
L 677.63203 -110.466805 
L 681.345909 -109.484518 
L 681.345909 -126.482054 
L 681.345909 -126.482054 
L 677.63203 -132.309913 
L 673.918152 -139.593082 
L 670.204273 -141.130345 
L 666.490394 -146.181739 
L 662.776515 -150.544698 
L 659.062636 -138.957088 
L 655.348758 -146.669173 
L 651.634879 -140.85239 
L 647.921 -137.860135 
L 644.207121 -127.405265 
L 640.493242 -136.526312 
L 636.779364 -132.404692 
L 633.065485 -134.340337 
L 629.351606 -142.202006 
L 625.637727 -138.042976 
L 621.923848 -143.932421 
L 618.20997 -157.965607 
L 614.496091 -157.672818 
L 610.782212 -161.60587 
L 607.068333 -182.727119 
L 603.354455 -173.792393 
L 599.640576 -169.992701 
L 595.926697 -161.596448 
L 592.212818 -154.761907 
L 588.498939 -160.923865 
L 584.785061 -155.89142 
L 581.071182 -155.131484 
L 577.357303 -152.779565 
L 573.643424 -172.3508 
L 569.929545 -182.497842 
L 566.215667 -178.093301 
L 562.501788 -185.790772 
L 558.787909 -169.207266 
L 555.07403 -195.018534 
L 551.360152 -201.309466 
L 547.646273 -192.964328 
L 543.932394 -203.151117 
L 540.218515 -204.872422 
L 536.504636 -201.274344 
L 532.790758 -210.591799 
L 529.076879 -204.300382 
L 525.363 -209.655597 
L 521.649121 -210.95115 
L 517.935242 -217.656088 
L 514.221364 -220.911638 
L 510.507485 -216.051085 
L 506.793606 -225.252355 
L 503.079727 -208.469655 
L 499.365848 -216.039415 
L 495.65197 -224.661272 
L 491.938091 -235.00554 
L 488.224212 -240.134364 
L 484.510333 -220.833968 
L 480.796455 -225.86725 
L 477.082576 -220.03236 
L 473.368697 -237.698677 
L 469.654818 -228.22531 
L 465.940939 -235.267127 
L 462.227061 -232.31543 
L 458.513182 -226.224675 
L 454.799303 -218.645344 
L 451.085424 -235.421403 
L 447.371545 -229.849582 
L 443.657667 -231.744728 
L 439.943788 -245.591503 
L 436.229909 -230.151002 
L 432.51603 -236.800508 
L 428.802152 -239.343498 
L 425.088273 -238.166661 
L 421.374394 -241.53719 
L 417.660515 -235.599934 
L 413.946636 -228.206566 
L 410.232758 -238.599621 
L 406.518879 -239.327696 
L 402.805 -243.669095 
L 399.091121 -244.169615 
L 395.377242 -249.029187 
L 391.663364 -238.008008 
L 387.949485 -231.387631 
L 384.235606 -245.702088 
L 380.521727 -233.168087 
L 376.807848 -236.340395 
L 373.09397 -250.869779 
L 369.380091 -230.767534 
L 365.666212 -246.216028 
L 361.952333 -249.988011 
L 358.238455 -242.369994 
L 354.524576 -244.63392 
L 350.810697 -237.626491 
L 347.096818 -234.132919 
L 343.382939 -235.592671 
L 339.669061 -238.921641 
L 335.955182 -237.628448 
L 332.241303 -236.987571 
L 328.527424 -222.262959 
L 324.813545 -229.130521 
L 321.099667 -231.972659 
L 317.385788 -249.684006 
L 313.671909 -238.76058 
L 309.95803 -224.087981 
L 306.244152 -235.513118 
L 302.530273 -219.535101 
L 298.816394 -246.293959 
L 295.102515 -235.715747 
L 291.388636 -239.252747 
L 287.674758 -245.074103 
L 283.960879 -234.672883 
L 280.247 -234.235847 
L 276.533121 -252.170479 
L 272.819242 -247.634262 
L 269.105364 -250.677401 
L 265.391485 -228.897226 
L 261.677606 -251.476579 
L 257.963727 -247.145721 
L 254.249848 -250.583065 
L 250.53597 -256.77898 
L 246.822091 -269.638825 
L 243.108212 -251.941616 
L 239.394333 -252.587169 
L 235.680455 -254.605613 
L 231.966576 -246.77789 
L 228.252697 -244.632523 
L 224.538818 -262.997117 
L 220.824939 -250.676353 
L 217.111061 -254.584066 
L 213.397182 -253.041561 
L 209.683303 -251.964948 
L 205.969424 -232.608329 
L 202.255545 -256.328629 
L 198.541667 -264.711357 
L 194.827788 -266.071431 
L 191.113909 -258.372945 
L 187.40003 -282.165213 
L 183.686152 -289.458233 
L 179.972273 -324.384378 
L 176.258394 -327.835759 
L 172.544515 -352.428016 
L 168.830636 -367.555923 
L 165.116758 -351.63536 
L 161.402879 -396.512742 
L 157.689 -381.220323 
L 153.975121 -374.177475 
L 150.261242 -377.510382 
L 146.547364 -389.328016 
L 142.833485 -381.773411 
L 139.119606 -377.877159 
L 135.405727 -384.937157 
L 131.691848 -387.446792 
L 127.97797 -380.852638 
L 124.264091 -376.686958 
z
" style="stroke: #0000ff; stroke-opacity: 0.3"/>
    </defs>
    <g clip-path="url(#pcbaf3b5c52)">
     <use xlink:href="#ma3101031c6" x="0" y="432" style="fill: #0000ff; fill-opacity: 0.3; stroke: #0000ff; stroke-opacity: 0.3"/>
    </g>
   </g>
   <g id="PolyCollection_2">
    <defs>
     <path id="mc2dbff6f04" d="M 124.264091 -387.747353 
L 124.264091 -374.392623 
L 127.97797 -379.938396 
L 131.691848 -387.052765 
L 135.405727 -377.661024 
L 139.119606 -382.770301 
L 142.833485 -383.102587 
L 146.547364 -384.487884 
L 150.261242 -372.573106 
L 153.975121 -375.927416 
L 157.689 -377.668924 
L 161.402879 -367.327633 
L 165.116758 -368.28933 
L 168.830636 -376.786406 
L 172.544515 -371.054114 
L 176.258394 -368.336894 
L 179.972273 -391.434218 
L 183.686152 -377.051424 
L 187.40003 -366.672912 
L 191.113909 -362.355731 
L 194.827788 -366.300982 
L 198.541667 -325.003929 
L 202.255545 -296.622262 
L 205.969424 -294.4279 
L 209.683303 -291.710243 
L 213.397182 -280.713116 
L 217.111061 -261.531909 
L 220.824939 -258.523786 
L 224.538818 -265.207135 
L 228.252697 -264.007178 
L 231.966576 -267.60992 
L 235.680455 -254.441972 
L 239.394333 -259.179055 
L 243.108212 -248.162165 
L 246.822091 -272.717225 
L 250.53597 -265.015615 
L 254.249848 -251.726201 
L 257.963727 -269.560642 
L 261.677606 -264.435524 
L 265.391485 -261.236509 
L 269.105364 -267.427737 
L 272.819242 -272.0247 
L 276.533121 -271.842861 
L 280.247 -247.606424 
L 283.960879 -265.650257 
L 287.674758 -276.999038 
L 291.388636 -271.988867 
L 295.102515 -273.291627 
L 298.816394 -288.005541 
L 302.530273 -277.230237 
L 306.244152 -281.725896 
L 309.95803 -299.790952 
L 313.671909 -268.597015 
L 317.385788 -282.666128 
L 321.099667 -286.019747 
L 324.813545 -282.073088 
L 328.527424 -278.612226 
L 332.241303 -272.454227 
L 335.955182 -277.91242 
L 339.669061 -263.784414 
L 343.382939 -280.494598 
L 347.096818 -284.348001 
L 350.810697 -304.026503 
L 354.524576 -295.436813 
L 358.238455 -305.854412 
L 361.952333 -260.370395 
L 365.666212 -280.907725 
L 369.380091 -298.651303 
L 373.09397 -277.555509 
L 376.807848 -307.602085 
L 380.521727 -300.788729 
L 384.235606 -326.553875 
L 387.949485 -306.765585 
L 391.663364 -301.609409 
L 395.377242 -317.62146 
L 399.091121 -342.366021 
L 402.805 -342.932626 
L 406.518879 -315.100761 
L 410.232758 -328.342839 
L 413.946636 -346.486361 
L 417.660515 -330.668997 
L 421.374394 -316.58904 
L 425.088273 -305.698481 
L 428.802152 -315.73049 
L 432.51603 -340.459414 
L 436.229909 -295.067937 
L 439.943788 -309.596705 
L 443.657667 -332.764733 
L 447.371545 -303.151606 
L 451.085424 -320.766062 
L 454.799303 -305.934152 
L 458.513182 -314.667176 
L 462.227061 -330.797951 
L 465.940939 -328.996104 
L 469.654818 -317.18089 
L 473.368697 -323.542653 
L 477.082576 -309.585312 
L 480.796455 -301.195469 
L 484.510333 -306.855912 
L 488.224212 -333.583718 
L 491.938091 -304.561972 
L 495.65197 -319.139651 
L 499.365848 -316.917474 
L 503.079727 -323.520844 
L 506.793606 -342.399007 
L 510.507485 -309.04444 
L 514.221364 -326.834318 
L 517.935242 -325.243303 
L 521.649121 -324.193963 
L 525.363 -327.873885 
L 529.076879 -327.144585 
L 532.790758 -299.734714 
L 536.504636 -320.230194 
L 540.218515 -324.958181 
L 543.932394 -318.094374 
L 547.646273 -283.217155 
L 551.360152 -289.569172 
L 555.07403 -322.577944 
L 558.787909 -329.885103 
L 562.501788 -323.576072 
L 566.215667 -344.341448 
L 569.929545 -309.609884 
L 573.643424 -330.574274 
L 577.357303 -334.489541 
L 581.071182 -323.112009 
L 584.785061 -338.616 
L 588.498939 -300.460072 
L 592.212818 -308.694296 
L 595.926697 -305.868119 
L 599.640576 -322.944355 
L 603.354455 -327.216899 
L 607.068333 -318.649452 
L 610.782212 -319.597949 
L 614.496091 -311.993163 
L 618.20997 -321.116875 
L 621.923848 -320.24281 
L 625.637727 -340.193968 
L 629.351606 -317.151033 
L 633.065485 -329.998703 
L 636.779364 -336.809722 
L 640.493242 -323.647843 
L 644.207121 -324.240439 
L 647.921 -336.228636 
L 651.634879 -313.059123 
L 655.348758 -358.305621 
L 659.062636 -305.516635 
L 662.776515 -311.460862 
L 666.490394 -331.903429 
L 670.204273 -329.904128 
L 673.918152 -342.638282 
L 677.63203 -299.922747 
L 681.345909 -336.334591 
L 681.345909 -363.582155 
L 681.345909 -363.582155 
L 677.63203 -328.666677 
L 673.918152 -386.812993 
L 670.204273 -344.277434 
L 666.490394 -365.360944 
L 662.776515 -396.628059 
L 659.062636 -390.242338 
L 655.348758 -388.708662 
L 651.634879 -352.305091 
L 647.921 -347.630502 
L 644.207121 -369.726389 
L 640.493242 -351.967434 
L 636.779364 -389.917494 
L 633.065485 -381.531135 
L 629.351606 -381.690427 
L 625.637727 -369.902155 
L 621.923848 -338.598001 
L 618.20997 -366.756665 
L 614.496091 -341.901331 
L 610.782212 -395.372804 
L 607.068333 -362.198884 
L 603.354455 -349.258606 
L 599.640576 -379.409706 
L 595.926697 -336.915084 
L 592.212818 -349.859772 
L 588.498939 -340.31593 
L 584.785061 -349.615968 
L 581.071182 -348.560551 
L 577.357303 -372.452408 
L 573.643424 -403.966689 
L 569.929545 -358.980189 
L 566.215667 -382.600825 
L 562.501788 -348.024802 
L 558.787909 -379.85259 
L 555.07403 -367.732911 
L 551.360152 -376.081785 
L 547.646273 -338.633809 
L 543.932394 -334.294719 
L 540.218515 -350.58541 
L 536.504636 -341.693104 
L 532.790758 -345.915919 
L 529.076879 -366.965615 
L 525.363 -372.186233 
L 521.649121 -345.543082 
L 517.935242 -359.691121 
L 514.221364 -358.243477 
L 510.507485 -360.262491 
L 506.793606 -377.087948 
L 503.079727 -393.528796 
L 499.365848 -383.501072 
L 495.65197 -377.622922 
L 491.938091 -370.408133 
L 488.224212 -363.035483 
L 484.510333 -383.526629 
L 480.796455 -345.960565 
L 477.082576 -355.99396 
L 473.368697 -350.352165 
L 469.654818 -361.086759 
L 465.940939 -360.812951 
L 462.227061 -359.512904 
L 458.513182 -340.37429 
L 454.799303 -351.472944 
L 451.085424 -358.505188 
L 447.371545 -381.926189 
L 443.657667 -347.080002 
L 439.943788 -357.703024 
L 436.229909 -362.769274 
L 432.51603 -370.568623 
L 428.802152 -359.956473 
L 425.088273 -376.726942 
L 421.374394 -340.029513 
L 417.660515 -370.896521 
L 413.946636 -364.613361 
L 410.232758 -352.003697 
L 406.518879 -369.977034 
L 402.805 -376.052529 
L 399.091121 -351.887551 
L 395.377242 -363.872048 
L 391.663364 -392.285734 
L 387.949485 -321.895525 
L 384.235606 -366.552725 
L 380.521727 -344.360104 
L 376.807848 -344.500266 
L 373.09397 -327.592676 
L 369.380091 -344.920443 
L 365.666212 -316.928513 
L 361.952333 -326.426237 
L 358.238455 -324.742213 
L 354.524576 -333.869469 
L 350.810697 -344.276503 
L 347.096818 -314.563523 
L 343.382939 -325.800559 
L 339.669061 -310.753955 
L 335.955182 -306.877011 
L 332.241303 -282.657303 
L 328.527424 -323.740214 
L 324.813545 -298.128455 
L 321.099667 -311.386376 
L 317.385788 -321.980256 
L 313.671909 -293.396348 
L 309.95803 -317.615495 
L 306.244152 -306.146023 
L 302.530273 -310.856738 
L 298.816394 -296.353776 
L 295.102515 -311.927919 
L 291.388636 -288.212352 
L 287.674758 -312.091538 
L 283.960879 -311.397113 
L 280.247 -283.777124 
L 276.533121 -292.301075 
L 272.819242 -309.108758 
L 269.105364 -297.074627 
L 265.391485 -287.064876 
L 261.677606 -320.999079 
L 257.963727 -302.827155 
L 254.249848 -306.037702 
L 250.53597 -293.321775 
L 246.822091 -309.061405 
L 243.108212 -294.977845 
L 239.394333 -310.269626 
L 235.680455 -315.221766 
L 231.966576 -347.21584 
L 228.252697 -332.036916 
L 224.538818 -389.906017 
L 220.824939 -385.406389 
L 217.111061 -387.487954 
L 213.397182 -375.331951 
L 209.683303 -381.252661 
L 205.969424 -357.244336 
L 202.255545 -379.924929 
L 198.541667 -384.447022 
L 194.827788 -389.172219 
L 191.113909 -397.203559 
L 187.40003 -388.728604 
L 183.686152 -398.350417 
L 179.972273 -396.440943 
L 176.258394 -391.365767 
L 172.544515 -383.988973 
L 168.830636 -383.059626 
L 165.116758 -392.201874 
L 161.402879 -378.037878 
L 157.689 -383.754195 
L 153.975121 -382.126472 
L 150.261242 -390.140357 
L 146.547364 -391.989242 
L 142.833485 -395.166683 
L 139.119606 -397.649542 
L 135.405727 -406.056364 
L 131.691848 -389.639419 
L 127.97797 -382.846753 
L 124.264091 -387.747353 
z
" style="stroke: #008000; stroke-opacity: 0.3"/>
    </defs>
    <g clip-path="url(#pcbaf3b5c52)">
     <use xlink:href="#mc2dbff6f04" x="0" y="432" style="fill: #008000; fill-opacity: 0.3; stroke: #008000; stroke-opacity: 0.3"/>
    </g>
   </g>
   <g id="PolyCollection_3">
    <defs>
     <path id="m22d49f9b6c" d="M 124.264091 -378.139107 
L 124.264091 -370.954063 
L 127.97797 -376.592396 
L 131.691848 -367.347038 
L 135.405727 -372.891415 
L 139.119606 -388.745176 
L 142.833485 -374.38623 
L 146.547364 -374.35826 
L 150.261242 -370.289966 
L 153.975121 -386.520864 
L 157.689 -379.963841 
L 161.402879 -359.162576 
L 165.116758 -375.694767 
L 168.830636 -372.925346 
L 172.544515 -370.001633 
L 176.258394 -381.166156 
L 179.972273 -355.01603 
L 183.686152 -389.146789 
L 187.40003 -376.117702 
L 191.113909 -370.951276 
L 194.827788 -364.328708 
L 198.541667 -372.260938 
L 202.255545 -367.777394 
L 205.969424 -383.52812 
L 209.683303 -376.762545 
L 213.397182 -371.151832 
L 217.111061 -382.532287 
L 220.824939 -368.530307 
L 224.538818 -371.939735 
L 228.252697 -385.728974 
L 231.966576 -383.770128 
L 235.680455 -389.483623 
L 239.394333 -365.736688 
L 243.108212 -387.970738 
L 246.822091 -380.614838 
L 250.53597 -367.992671 
L 254.249848 -373.096111 
L 257.963727 -374.410627 
L 261.677606 -370.426284 
L 265.391485 -381.361 
L 269.105364 -366.560372 
L 272.819242 -376.766887 
L 276.533121 -378.800989 
L 280.247 -370.165836 
L 283.960879 -370.957687 
L 287.674758 -382.758051 
L 291.388636 -372.079309 
L 295.102515 -372.121707 
L 298.816394 -358.749647 
L 302.530273 -357.07468 
L 306.244152 -365.06855 
L 309.95803 -374.891726 
L 313.671909 -371.135101 
L 317.385788 -365.312953 
L 321.099667 -379.270814 
L 324.813545 -375.471427 
L 328.527424 -369.339283 
L 332.241303 -362.906009 
L 335.955182 -357.340957 
L 339.669061 -381.07275 
L 343.382939 -380.379758 
L 347.096818 -371.491849 
L 350.810697 -370.055788 
L 354.524576 -374.70475 
L 358.238455 -357.993448 
L 361.952333 -369.700401 
L 365.666212 -363.455298 
L 369.380091 -380.377215 
L 373.09397 -368.42873 
L 376.807848 -372.088571 
L 380.521727 -368.437271 
L 384.235606 -370.585984 
L 387.949485 -370.304573 
L 391.663364 -374.563377 
L 395.377242 -373.809824 
L 399.091121 -378.396976 
L 402.805 -370.517334 
L 406.518879 -372.692372 
L 410.232758 -370.420179 
L 413.946636 -381.955434 
L 417.660515 -361.830528 
L 421.374394 -367.144102 
L 425.088273 -354.318444 
L 428.802152 -372.390525 
L 432.51603 -377.321879 
L 436.229909 -376.357497 
L 439.943788 -365.177747 
L 443.657667 -360.929106 
L 447.371545 -370.696548 
L 451.085424 -351.357874 
L 454.799303 -377.392557 
L 458.513182 -362.731906 
L 462.227061 -369.341276 
L 465.940939 -365.669843 
L 469.654818 -369.973501 
L 473.368697 -373.57688 
L 477.082576 -374.368667 
L 480.796455 -358.986737 
L 484.510333 -359.875801 
L 488.224212 -364.908918 
L 491.938091 -370.639848 
L 495.65197 -360.7942 
L 499.365848 -369.429164 
L 503.079727 -381.760253 
L 506.793606 -375.494959 
L 510.507485 -383.361696 
L 514.221364 -376.046402 
L 517.935242 -377.868573 
L 521.649121 -373.029202 
L 525.363 -380.213046 
L 529.076879 -366.32525 
L 532.790758 -366.915444 
L 536.504636 -362.272291 
L 540.218515 -370.047115 
L 543.932394 -361.085729 
L 547.646273 -363.306485 
L 551.360152 -374.930078 
L 555.07403 -356.56894 
L 558.787909 -363.153678 
L 562.501788 -375.300259 
L 566.215667 -364.234132 
L 569.929545 -367.991987 
L 573.643424 -364.39708 
L 577.357303 -379.584612 
L 581.071182 -369.652812 
L 584.785061 -376.650689 
L 588.498939 -359.520121 
L 592.212818 -373.00362 
L 595.926697 -378.241648 
L 599.640576 -378.903905 
L 603.354455 -366.623749 
L 607.068333 -366.434134 
L 610.782212 -367.110851 
L 614.496091 -363.468827 
L 618.20997 -367.656278 
L 621.923848 -367.66021 
L 625.637727 -375.65186 
L 629.351606 -370.187175 
L 633.065485 -369.838403 
L 636.779364 -373.320212 
L 640.493242 -356.585759 
L 644.207121 -372.277017 
L 647.921 -370.397023 
L 651.634879 -357.567585 
L 655.348758 -366.211512 
L 659.062636 -360.701136 
L 662.776515 -369.667012 
L 666.490394 -360.917121 
L 670.204273 -368.036836 
L 673.918152 -377.516864 
L 677.63203 -377.618875 
L 681.345909 -376.100428 
L 681.345909 -386.182921 
L 681.345909 -386.182921 
L 677.63203 -392.621591 
L 673.918152 -385.483341 
L 670.204273 -382.418363 
L 666.490394 -387.960992 
L 662.776515 -386.30799 
L 659.062636 -386.026404 
L 655.348758 -391.62732 
L 651.634879 -379.410693 
L 647.921 -385.721351 
L 644.207121 -381.475727 
L 640.493242 -396.450127 
L 636.779364 -382.15299 
L 633.065485 -374.380136 
L 629.351606 -376.97048 
L 625.637727 -383.118887 
L 621.923848 -372.472241 
L 618.20997 -391.616268 
L 614.496091 -379.60274 
L 610.782212 -375.028801 
L 607.068333 -387.175238 
L 603.354455 -387.200681 
L 599.640576 -398.218393 
L 595.926697 -387.339245 
L 592.212818 -385.69544 
L 588.498939 -381.974359 
L 584.785061 -381.618258 
L 581.071182 -382.021045 
L 577.357303 -389.508882 
L 573.643424 -382.903947 
L 569.929545 -381.531298 
L 566.215667 -386.436124 
L 562.501788 -388.488489 
L 558.787909 -393.466496 
L 555.07403 -393.241088 
L 551.360152 -390.077329 
L 547.646273 -398.403377 
L 543.932394 -383.061124 
L 540.218515 -389.225431 
L 536.504636 -389.616623 
L 532.790758 -385.475271 
L 529.076879 -378.108346 
L 525.363 -388.808762 
L 521.649121 -381.297028 
L 517.935242 -402.336212 
L 514.221364 -382.724344 
L 510.507485 -384.51314 
L 506.793606 -387.576932 
L 503.079727 -386.473012 
L 499.365848 -380.667606 
L 495.65197 -374.678677 
L 491.938091 -389.421241 
L 488.224212 -378.807821 
L 484.510333 -378.607878 
L 480.796455 -386.020345 
L 477.082576 -391.212225 
L 473.368697 -380.175864 
L 469.654818 -374.818524 
L 465.940939 -384.785356 
L 462.227061 -383.479553 
L 458.513182 -380.554719 
L 454.799303 -381.664932 
L 451.085424 -382.107802 
L 447.371545 -385.85194 
L 443.657667 -376.909402 
L 439.943788 -379.757649 
L 436.229909 -397.969057 
L 432.51603 -396.502875 
L 428.802152 -388.315737 
L 425.088273 -384.738721 
L 421.374394 -377.86298 
L 417.660515 -378.660352 
L 413.946636 -386.923003 
L 410.232758 -374.443532 
L 406.518879 -381.633858 
L 402.805 -383.163724 
L 399.091121 -379.226798 
L 395.377242 -385.319351 
L 391.663364 -387.935028 
L 387.949485 -382.802999 
L 384.235606 -379.295729 
L 380.521727 -380.79927 
L 376.807848 -380.302144 
L 373.09397 -376.506667 
L 369.380091 -387.927736 
L 365.666212 -383.343928 
L 361.952333 -394.37509 
L 358.238455 -381.135403 
L 354.524576 -385.284654 
L 350.810697 -383.481899 
L 347.096818 -385.630125 
L 343.382939 -390.147451 
L 339.669061 -382.931057 
L 335.955182 -381.85958 
L 332.241303 -381.957702 
L 328.527424 -381.832774 
L 324.813545 -384.016176 
L 321.099667 -388.962452 
L 317.385788 -389.730134 
L 313.671909 -394.589163 
L 309.95803 -394.918626 
L 306.244152 -380.153589 
L 302.530273 -377.896398 
L 298.816394 -384.250234 
L 295.102515 -383.781609 
L 291.388636 -381.028263 
L 287.674758 -393.934133 
L 283.960879 -392.974434 
L 280.247 -386.884453 
L 276.533121 -385.059446 
L 272.819242 -393.186836 
L 269.105364 -379.880425 
L 265.391485 -390.384867 
L 261.677606 -381.46263 
L 257.963727 -389.306436 
L 254.249848 -393.273325 
L 250.53597 -390.634704 
L 246.822091 -382.743796 
L 243.108212 -390.872019 
L 239.394333 -368.660904 
L 235.680455 -394.663879 
L 231.966576 -396.147914 
L 228.252697 -394.475811 
L 224.538818 -388.121354 
L 220.824939 -380.347806 
L 217.111061 -390.503923 
L 213.397182 -386.328571 
L 209.683303 -392.474321 
L 205.969424 -388.074376 
L 202.255545 -387.624122 
L 198.541667 -378.911119 
L 194.827788 -394.298667 
L 191.113909 -374.34255 
L 187.40003 -384.301816 
L 183.686152 -393.997113 
L 179.972273 -370.850957 
L 176.258394 -389.432739 
L 172.544515 -392.998573 
L 168.830636 -396.741635 
L 165.116758 -387.377125 
L 161.402879 -378.747617 
L 157.689 -387.695939 
L 153.975121 -390.243005 
L 150.261242 -383.892892 
L 146.547364 -391.007575 
L 142.833485 -382.950802 
L 139.119606 -394.613783 
L 135.405727 -386.954617 
L 131.691848 -379.738931 
L 127.97797 -387.268039 
L 124.264091 -378.139107 
z
" style="stroke: #ff0000; stroke-opacity: 0.3"/>
    </defs>
    <g clip-path="url(#pcbaf3b5c52)">
     <use xlink:href="#m22d49f9b6c" x="0" y="432" style="fill: #ff0000; fill-opacity: 0.3; stroke: #ff0000; stroke-opacity: 0.3"/>
    </g>
   </g>
   <g id="PolyCollection_4">
    <defs>
     <path id="m4adfec28a9" d="M 124.264091 -391.549713 
L 124.264091 -378.977496 
L 127.97797 -375.527497 
L 131.691848 -372.457233 
L 135.405727 -386.873203 
L 139.119606 -355.978497 
L 142.833485 -362.880235 
L 146.547364 -374.717338 
L 150.261242 -377.104452 
L 153.975121 -379.59028 
L 157.689 -374.575811 
L 161.402879 -371.921023 
L 165.116758 -378.832906 
L 168.830636 -364.431479 
L 172.544515 -361.471636 
L 176.258394 -375.693688 
L 179.972273 -367.319211 
L 183.686152 -380.723803 
L 187.40003 -368.457484 
L 191.113909 -373.531078 
L 194.827788 -368.204928 
L 198.541667 -358.832598 
L 202.255545 -351.274575 
L 205.969424 -365.262244 
L 209.683303 -358.774737 
L 213.397182 -365.643398 
L 217.111061 -373.759096 
L 220.824939 -377.445271 
L 224.538818 -356.987263 
L 228.252697 -349.68767 
L 231.966576 -365.92776 
L 235.680455 -374.016734 
L 239.394333 -355.320742 
L 243.108212 -371.673073 
L 246.822091 -360.5086 
L 250.53597 -355.58842 
L 254.249848 -350.596308 
L 257.963727 -349.565865 
L 261.677606 -358.489123 
L 265.391485 -344.630927 
L 269.105364 -359.052324 
L 272.819242 -347.823431 
L 276.533121 -361.8605 
L 280.247 -371.998163 
L 283.960879 -368.212644 
L 287.674758 -360.606767 
L 291.388636 -364.258198 
L 295.102515 -359.960429 
L 298.816394 -367.817092 
L 302.530273 -357.304962 
L 306.244152 -374.653963 
L 309.95803 -366.993681 
L 313.671909 -349.900935 
L 317.385788 -374.141997 
L 321.099667 -343.604163 
L 324.813545 -337.38163 
L 328.527424 -341.957131 
L 332.241303 -316.54228 
L 335.955182 -294.006639 
L 339.669061 -310.206211 
L 343.382939 -304.811351 
L 347.096818 -303.480114 
L 350.810697 -293.112764 
L 354.524576 -283.950172 
L 358.238455 -290.785553 
L 361.952333 -292.705696 
L 365.666212 -279.899686 
L 369.380091 -275.367441 
L 373.09397 -279.89213 
L 376.807848 -285.161393 
L 380.521727 -285.126596 
L 384.235606 -275.612378 
L 387.949485 -274.86349 
L 391.663364 -278.394224 
L 395.377242 -271.000339 
L 399.091121 -272.327779 
L 402.805 -256.23028 
L 406.518879 -263.716921 
L 410.232758 -268.288093 
L 413.946636 -264.498753 
L 417.660515 -239.816043 
L 421.374394 -248.106209 
L 425.088273 -248.831325 
L 428.802152 -251.911071 
L 432.51603 -248.566144 
L 436.229909 -239.212309 
L 439.943788 -240.084581 
L 443.657667 -243.561597 
L 447.371545 -239.523665 
L 451.085424 -237.694267 
L 454.799303 -257.580512 
L 458.513182 -246.216143 
L 462.227061 -235.27867 
L 465.940939 -239.581015 
L 469.654818 -244.981684 
L 473.368697 -243.232345 
L 477.082576 -249.946051 
L 480.796455 -248.963463 
L 484.510333 -230.511865 
L 488.224212 -236.303851 
L 491.938091 -230.370829 
L 495.65197 -238.590206 
L 499.365848 -250.613173 
L 503.079727 -243.800929 
L 506.793606 -256.819111 
L 510.507485 -238.536132 
L 514.221364 -249.015211 
L 517.935242 -229.120945 
L 521.649121 -250.176724 
L 525.363 -233.643436 
L 529.076879 -232.775031 
L 532.790758 -234.683004 
L 536.504636 -248.561187 
L 540.218515 -237.683903 
L 543.932394 -229.137028 
L 547.646273 -227.452351 
L 551.360152 -244.748923 
L 555.07403 -243.303301 
L 558.787909 -237.369306 
L 562.501788 -218.307743 
L 566.215667 -227.655584 
L 569.929545 -214.529675 
L 573.643424 -228.140751 
L 577.357303 -234.627141 
L 581.071182 -232.618871 
L 584.785061 -227.055239 
L 588.498939 -227.413503 
L 592.212818 -236.610861 
L 595.926697 -234.54828 
L 599.640576 -234.536078 
L 603.354455 -239.333773 
L 607.068333 -249.017421 
L 610.782212 -238.026572 
L 614.496091 -233.230626 
L 618.20997 -235.425114 
L 621.923848 -245.708617 
L 625.637727 -238.648997 
L 629.351606 -227.463239 
L 633.065485 -226.266024 
L 636.779364 -243.794384 
L 640.493242 -238.593048 
L 644.207121 -221.192994 
L 647.921 -234.584099 
L 651.634879 -234.107763 
L 655.348758 -243.996936 
L 659.062636 -230.908103 
L 662.776515 -236.723224 
L 666.490394 -221.645087 
L 670.204273 -224.411032 
L 673.918152 -240.721306 
L 677.63203 -225.416581 
L 681.345909 -242.16904 
L 681.345909 -321.688152 
L 681.345909 -321.688152 
L 677.63203 -325.035376 
L 673.918152 -337.257979 
L 670.204273 -330.557127 
L 666.490394 -344.721107 
L 662.776515 -332.223657 
L 659.062636 -331.658746 
L 655.348758 -334.98595 
L 651.634879 -341.075778 
L 647.921 -339.882584 
L 644.207121 -343.667799 
L 640.493242 -342.253667 
L 636.779364 -361.067057 
L 633.065485 -348.128974 
L 629.351606 -352.80999 
L 625.637727 -350.011465 
L 621.923848 -344.098817 
L 618.20997 -357.823236 
L 614.496091 -323.171248 
L 610.782212 -338.734055 
L 607.068333 -343.442385 
L 603.354455 -345.455658 
L 599.640576 -343.873321 
L 595.926697 -357.69647 
L 592.212818 -347.17497 
L 588.498939 -346.55138 
L 584.785061 -350.350561 
L 581.071182 -337.976781 
L 577.357303 -339.911228 
L 573.643424 -340.734444 
L 569.929545 -335.062053 
L 566.215667 -347.026156 
L 562.501788 -331.283985 
L 558.787909 -351.506213 
L 555.07403 -340.48253 
L 551.360152 -318.24804 
L 547.646273 -346.655903 
L 543.932394 -352.283173 
L 540.218515 -357.930077 
L 536.504636 -339.884218 
L 532.790758 -356.773202 
L 529.076879 -362.408834 
L 525.363 -360.035029 
L 521.649121 -344.00354 
L 517.935242 -348.499911 
L 514.221364 -342.584366 
L 510.507485 -344.246098 
L 506.793606 -365.963767 
L 503.079727 -341.633674 
L 499.365848 -361.488529 
L 495.65197 -356.020173 
L 491.938091 -345.67294 
L 488.224212 -355.439098 
L 484.510333 -349.116193 
L 480.796455 -338.406655 
L 477.082576 -359.933392 
L 473.368697 -371.378358 
L 469.654818 -344.610693 
L 465.940939 -355.961279 
L 462.227061 -355.60405 
L 458.513182 -361.010928 
L 454.799303 -357.89042 
L 451.085424 -339.353103 
L 447.371545 -373.008152 
L 443.657667 -350.188553 
L 439.943788 -364.561803 
L 436.229909 -367.36959 
L 432.51603 -361.384985 
L 428.802152 -348.362482 
L 425.088273 -352.445829 
L 421.374394 -345.070455 
L 417.660515 -360.314138 
L 413.946636 -361.438298 
L 410.232758 -371.412623 
L 406.518879 -373.259737 
L 402.805 -377.735575 
L 399.091121 -361.709762 
L 395.377242 -384.686299 
L 391.663364 -365.105836 
L 387.949485 -390.357353 
L 384.235606 -394.268038 
L 380.521727 -391.635652 
L 376.807848 -390.883998 
L 373.09397 -399.020691 
L 369.380091 -383.688428 
L 365.666212 -386.324757 
L 361.952333 -403.411705 
L 358.238455 -394.794042 
L 354.524576 -391.091618 
L 350.810697 -385.871742 
L 347.096818 -380.809138 
L 343.382939 -386.503105 
L 339.669061 -375.158327 
L 335.955182 -388.49047 
L 332.241303 -396.564643 
L 328.527424 -386.490543 
L 324.813545 -390.564244 
L 321.099667 -381.689338 
L 317.385788 -387.352808 
L 313.671909 -373.600422 
L 309.95803 -380.809145 
L 306.244152 -383.184869 
L 302.530273 -390.497864 
L 298.816394 -380.129106 
L 295.102515 -386.408682 
L 291.388636 -383.329572 
L 287.674758 -384.113573 
L 283.960879 -382.242555 
L 280.247 -374.155892 
L 276.533121 -374.185864 
L 272.819242 -374.60264 
L 269.105364 -383.517443 
L 265.391485 -374.139171 
L 261.677606 -367.306179 
L 257.963727 -372.143349 
L 254.249848 -376.345965 
L 250.53597 -374.508026 
L 246.822091 -384.283425 
L 243.108212 -387.097674 
L 239.394333 -395.349515 
L 235.680455 -387.693128 
L 231.966576 -375.423349 
L 228.252697 -371.376371 
L 224.538818 -377.195271 
L 220.824939 -392.293395 
L 217.111061 -382.287592 
L 213.397182 -379.363684 
L 209.683303 -399.279152 
L 205.969424 -373.938293 
L 202.255545 -378.1767 
L 198.541667 -394.418346 
L 194.827788 -380.888242 
L 191.113909 -376.995807 
L 187.40003 -391.460234 
L 183.686152 -394.247923 
L 179.972273 -390.734678 
L 176.258394 -395.335322 
L 172.544515 -364.467037 
L 168.830636 -384.016519 
L 165.116758 -384.740786 
L 161.402879 -379.752834 
L 157.689 -381.184133 
L 153.975121 -390.865243 
L 150.261242 -382.813267 
L 146.547364 -396.741786 
L 142.833485 -373.667929 
L 139.119606 -385.515984 
L 135.405727 -401.14533 
L 131.691848 -390.75803 
L 127.97797 -390.555196 
L 124.264091 -391.549713 
z
" style="stroke: #ffa500; stroke-opacity: 0.3"/>
    </defs>
    <g clip-path="url(#pcbaf3b5c52)">
     <use xlink:href="#m4adfec28a9" x="0" y="432" style="fill: #ffa500; fill-opacity: 0.3; stroke: #ffa500; stroke-opacity: 0.3"/>
    </g>
   </g>
   <g id="matplotlib.axis_1">
    <g id="xtick_1">
     <g id="line2d_1">
      <defs>
       <path id="mc1a8dfb108" d="M 0 0 
L 0 3.5 
" style="stroke: #000000; stroke-width: 0.8"/>
      </defs>
      <g>
       <use xlink:href="#mc1a8dfb108" x="124.264091" y="343.96" style="stroke: #000000; stroke-width: 0.8"/>
      </g>
     </g>
     <g id="text_1">
      <!-- 0 -->
      <g transform="translate(115.356591 372.235625) scale(0.28 -0.28)">
       <defs>
        <path id="DejaVuSans-30" d="M 2034 4250 
Q 1547 4250 1301 3770 
Q 1056 3291 1056 2328 
Q 1056 1369 1301 889 
Q 1547 409 2034 409 
Q 2525 409 2770 889 
Q 3016 1369 3016 2328 
Q 3016 3291 2770 3770 
Q 2525 4250 2034 4250 
z
M 2034 4750 
Q 2819 4750 3233 4129 
Q 3647 3509 3647 2328 
Q 3647 1150 3233 529 
Q 2819 -91 2034 -91 
Q 1250 -91 836 529 
Q 422 1150 422 2328 
Q 422 3509 836 4129 
Q 1250 4750 2034 4750 
z
" transform="scale(0.015625)"/>
       </defs>
       <use xlink:href="#DejaVuSans-30"/>
      </g>
     </g>
    </g>
    <g id="xtick_2">
     <g id="line2d_2">
      <g>
       <use xlink:href="#mc1a8dfb108" x="198.541667" y="343.96" style="stroke: #000000; stroke-width: 0.8"/>
      </g>
     </g>
     <g id="text_2">
      <!-- 20 -->
      <g transform="translate(180.726667 372.235625) scale(0.28 -0.28)">
       <defs>
        <path id="DejaVuSans-32" d="M 1228 531 
L 3431 531 
L 3431 0 
L 469 0 
L 469 531 
Q 828 903 1448 1529 
Q 2069 2156 2228 2338 
Q 2531 2678 2651 2914 
Q 2772 3150 2772 3378 
Q 2772 3750 2511 3984 
Q 2250 4219 1831 4219 
Q 1534 4219 1204 4116 
Q 875 4013 500 3803 
L 500 4441 
Q 881 4594 1212 4672 
Q 1544 4750 1819 4750 
Q 2544 4750 2975 4387 
Q 3406 4025 3406 3419 
Q 3406 3131 3298 2873 
Q 3191 2616 2906 2266 
Q 2828 2175 2409 1742 
Q 1991 1309 1228 531 
z
" transform="scale(0.015625)"/>
       </defs>
       <use xlink:href="#DejaVuSans-32"/>
       <use xlink:href="#DejaVuSans-30" x="63.623047"/>
      </g>
     </g>
    </g>
    <g id="xtick_3">
     <g id="line2d_3">
      <g>
       <use xlink:href="#mc1a8dfb108" x="272.819242" y="343.96" style="stroke: #000000; stroke-width: 0.8"/>
      </g>
     </g>
     <g id="text_3">
      <!-- 40 -->
      <g transform="translate(255.004242 372.235625) scale(0.28 -0.28)">
       <defs>
        <path id="DejaVuSans-34" d="M 2419 4116 
L 825 1625 
L 2419 1625 
L 2419 4116 
z
M 2253 4666 
L 3047 4666 
L 3047 1625 
L 3713 1625 
L 3713 1100 
L 3047 1100 
L 3047 0 
L 2419 0 
L 2419 1100 
L 313 1100 
L 313 1709 
L 2253 4666 
z
" transform="scale(0.015625)"/>
       </defs>
       <use xlink:href="#DejaVuSans-34"/>
       <use xlink:href="#DejaVuSans-30" x="63.623047"/>
      </g>
     </g>
    </g>
    <g id="xtick_4">
     <g id="line2d_4">
      <g>
       <use xlink:href="#mc1a8dfb108" x="347.096818" y="343.96" style="stroke: #000000; stroke-width: 0.8"/>
      </g>
     </g>
     <g id="text_4">
      <!-- 60 -->
      <g transform="translate(329.281818 372.235625) scale(0.28 -0.28)">
       <defs>
        <path id="DejaVuSans-36" d="M 2113 2584 
Q 1688 2584 1439 2293 
Q 1191 2003 1191 1497 
Q 1191 994 1439 701 
Q 1688 409 2113 409 
Q 2538 409 2786 701 
Q 3034 994 3034 1497 
Q 3034 2003 2786 2293 
Q 2538 2584 2113 2584 
z
M 3366 4563 
L 3366 3988 
Q 3128 4100 2886 4159 
Q 2644 4219 2406 4219 
Q 1781 4219 1451 3797 
Q 1122 3375 1075 2522 
Q 1259 2794 1537 2939 
Q 1816 3084 2150 3084 
Q 2853 3084 3261 2657 
Q 3669 2231 3669 1497 
Q 3669 778 3244 343 
Q 2819 -91 2113 -91 
Q 1303 -91 875 529 
Q 447 1150 447 2328 
Q 447 3434 972 4092 
Q 1497 4750 2381 4750 
Q 2619 4750 2861 4703 
Q 3103 4656 3366 4563 
z
" transform="scale(0.015625)"/>
       </defs>
       <use xlink:href="#DejaVuSans-36"/>
       <use xlink:href="#DejaVuSans-30" x="63.623047"/>
      </g>
     </g>
    </g>
    <g id="xtick_5">
     <g id="line2d_5">
      <g>
       <use xlink:href="#mc1a8dfb108" x="421.374394" y="343.96" style="stroke: #000000; stroke-width: 0.8"/>
      </g>
     </g>
     <g id="text_5">
      <!-- 80 -->
      <g transform="translate(403.559394 372.235625) scale(0.28 -0.28)">
       <defs>
        <path id="DejaVuSans-38" d="M 2034 2216 
Q 1584 2216 1326 1975 
Q 1069 1734 1069 1313 
Q 1069 891 1326 650 
Q 1584 409 2034 409 
Q 2484 409 2743 651 
Q 3003 894 3003 1313 
Q 3003 1734 2745 1975 
Q 2488 2216 2034 2216 
z
M 1403 2484 
Q 997 2584 770 2862 
Q 544 3141 544 3541 
Q 544 4100 942 4425 
Q 1341 4750 2034 4750 
Q 2731 4750 3128 4425 
Q 3525 4100 3525 3541 
Q 3525 3141 3298 2862 
Q 3072 2584 2669 2484 
Q 3125 2378 3379 2068 
Q 3634 1759 3634 1313 
Q 3634 634 3220 271 
Q 2806 -91 2034 -91 
Q 1263 -91 848 271 
Q 434 634 434 1313 
Q 434 1759 690 2068 
Q 947 2378 1403 2484 
z
M 1172 3481 
Q 1172 3119 1398 2916 
Q 1625 2713 2034 2713 
Q 2441 2713 2670 2916 
Q 2900 3119 2900 3481 
Q 2900 3844 2670 4047 
Q 2441 4250 2034 4250 
Q 1625 4250 1398 4047 
Q 1172 3844 1172 3481 
z
" transform="scale(0.015625)"/>
       </defs>
       <use xlink:href="#DejaVuSans-38"/>
       <use xlink:href="#DejaVuSans-30" x="63.623047"/>
      </g>
     </g>
    </g>
    <g id="xtick_6">
     <g id="line2d_6">
      <g>
       <use xlink:href="#mc1a8dfb108" x="495.65197" y="343.96" style="stroke: #000000; stroke-width: 0.8"/>
      </g>
     </g>
     <g id="text_6">
      <!-- 100 -->
      <g transform="translate(468.92947 372.235625) scale(0.28 -0.28)">
       <defs>
        <path id="DejaVuSans-31" d="M 794 531 
L 1825 531 
L 1825 4091 
L 703 3866 
L 703 4441 
L 1819 4666 
L 2450 4666 
L 2450 531 
L 3481 531 
L 3481 0 
L 794 0 
L 794 531 
z
" transform="scale(0.015625)"/>
       </defs>
       <use xlink:href="#DejaVuSans-31"/>
       <use xlink:href="#DejaVuSans-30" x="63.623047"/>
       <use xlink:href="#DejaVuSans-30" x="127.246094"/>
      </g>
     </g>
    </g>
    <g id="xtick_7">
     <g id="line2d_7">
      <g>
       <use xlink:href="#mc1a8dfb108" x="569.929545" y="343.96" style="stroke: #000000; stroke-width: 0.8"/>
      </g>
     </g>
     <g id="text_7">
      <!-- 120 -->
      <g transform="translate(543.207045 372.235625) scale(0.28 -0.28)">
       <use xlink:href="#DejaVuSans-31"/>
       <use xlink:href="#DejaVuSans-32" x="63.623047"/>
       <use xlink:href="#DejaVuSans-30" x="127.246094"/>
      </g>
     </g>
    </g>
    <g id="xtick_8">
     <g id="line2d_8">
      <g>
       <use xlink:href="#mc1a8dfb108" x="644.207121" y="343.96" style="stroke: #000000; stroke-width: 0.8"/>
      </g>
     </g>
     <g id="text_8">
      <!-- 140 -->
      <g transform="translate(617.484621 372.235625) scale(0.28 -0.28)">
       <use xlink:href="#DejaVuSans-31"/>
       <use xlink:href="#DejaVuSans-34" x="63.623047"/>
       <use xlink:href="#DejaVuSans-30" x="127.246094"/>
      </g>
     </g>
    </g>
    <g id="text_9">
     <!-- Episode -->
     <g transform="translate(324.255 412.4525) scale(0.4 -0.4)">
      <defs>
       <path id="DejaVuSans-45" d="M 628 4666 
L 3578 4666 
L 3578 4134 
L 1259 4134 
L 1259 2753 
L 3481 2753 
L 3481 2222 
L 1259 2222 
L 1259 531 
L 3634 531 
L 3634 0 
L 628 0 
L 628 4666 
z
" transform="scale(0.015625)"/>
       <path id="DejaVuSans-70" d="M 1159 525 
L 1159 -1331 
L 581 -1331 
L 581 3500 
L 1159 3500 
L 1159 2969 
Q 1341 3281 1617 3432 
Q 1894 3584 2278 3584 
Q 2916 3584 3314 3078 
Q 3713 2572 3713 1747 
Q 3713 922 3314 415 
Q 2916 -91 2278 -91 
Q 1894 -91 1617 61 
Q 1341 213 1159 525 
z
M 3116 1747 
Q 3116 2381 2855 2742 
Q 2594 3103 2138 3103 
Q 1681 3103 1420 2742 
Q 1159 2381 1159 1747 
Q 1159 1113 1420 752 
Q 1681 391 2138 391 
Q 2594 391 2855 752 
Q 3116 1113 3116 1747 
z
" transform="scale(0.015625)"/>
       <path id="DejaVuSans-69" d="M 603 3500 
L 1178 3500 
L 1178 0 
L 603 0 
L 603 3500 
z
M 603 4863 
L 1178 4863 
L 1178 4134 
L 603 4134 
L 603 4863 
z
" transform="scale(0.015625)"/>
       <path id="DejaVuSans-73" d="M 2834 3397 
L 2834 2853 
Q 2591 2978 2328 3040 
Q 2066 3103 1784 3103 
Q 1356 3103 1142 2972 
Q 928 2841 928 2578 
Q 928 2378 1081 2264 
Q 1234 2150 1697 2047 
L 1894 2003 
Q 2506 1872 2764 1633 
Q 3022 1394 3022 966 
Q 3022 478 2636 193 
Q 2250 -91 1575 -91 
Q 1294 -91 989 -36 
Q 684 19 347 128 
L 347 722 
Q 666 556 975 473 
Q 1284 391 1588 391 
Q 1994 391 2212 530 
Q 2431 669 2431 922 
Q 2431 1156 2273 1281 
Q 2116 1406 1581 1522 
L 1381 1569 
Q 847 1681 609 1914 
Q 372 2147 372 2553 
Q 372 3047 722 3315 
Q 1072 3584 1716 3584 
Q 2034 3584 2315 3537 
Q 2597 3491 2834 3397 
z
" transform="scale(0.015625)"/>
       <path id="DejaVuSans-6f" d="M 1959 3097 
Q 1497 3097 1228 2736 
Q 959 2375 959 1747 
Q 959 1119 1226 758 
Q 1494 397 1959 397 
Q 2419 397 2687 759 
Q 2956 1122 2956 1747 
Q 2956 2369 2687 2733 
Q 2419 3097 1959 3097 
z
M 1959 3584 
Q 2709 3584 3137 3096 
Q 3566 2609 3566 1747 
Q 3566 888 3137 398 
Q 2709 -91 1959 -91 
Q 1206 -91 779 398 
Q 353 888 353 1747 
Q 353 2609 779 3096 
Q 1206 3584 1959 3584 
z
" transform="scale(0.015625)"/>
       <path id="DejaVuSans-64" d="M 2906 2969 
L 2906 4863 
L 3481 4863 
L 3481 0 
L 2906 0 
L 2906 525 
Q 2725 213 2448 61 
Q 2172 -91 1784 -91 
Q 1150 -91 751 415 
Q 353 922 353 1747 
Q 353 2572 751 3078 
Q 1150 3584 1784 3584 
Q 2172 3584 2448 3432 
Q 2725 3281 2906 2969 
z
M 947 1747 
Q 947 1113 1208 752 
Q 1469 391 1925 391 
Q 2381 391 2643 752 
Q 2906 1113 2906 1747 
Q 2906 2381 2643 2742 
Q 2381 3103 1925 3103 
Q 1469 3103 1208 2742 
Q 947 2381 947 1747 
z
" transform="scale(0.015625)"/>
       <path id="DejaVuSans-65" d="M 3597 1894 
L 3597 1613 
L 953 1613 
Q 991 1019 1311 708 
Q 1631 397 2203 397 
Q 2534 397 2845 478 
Q 3156 559 3463 722 
L 3463 178 
Q 3153 47 2828 -22 
Q 2503 -91 2169 -91 
Q 1331 -91 842 396 
Q 353 884 353 1716 
Q 353 2575 817 3079 
Q 1281 3584 2069 3584 
Q 2775 3584 3186 3129 
Q 3597 2675 3597 1894 
z
M 3022 2063 
Q 3016 2534 2758 2815 
Q 2500 3097 2075 3097 
Q 1594 3097 1305 2825 
Q 1016 2553 972 2059 
L 3022 2063 
z
" transform="scale(0.015625)"/>
      </defs>
      <use xlink:href="#DejaVuSans-45"/>
      <use xlink:href="#DejaVuSans-70" x="63.183594"/>
      <use xlink:href="#DejaVuSans-69" x="126.660156"/>
      <use xlink:href="#DejaVuSans-73" x="154.443359"/>
      <use xlink:href="#DejaVuSans-6f" x="206.542969"/>
      <use xlink:href="#DejaVuSans-64" x="267.724609"/>
      <use xlink:href="#DejaVuSans-65" x="331.201172"/>
     </g>
    </g>
   </g>
   <g id="matplotlib.axis_2">
    <g id="ytick_1">
     <g id="line2d_9">
      <defs>
       <path id="mf09a5f5c42" d="M 0 0 
L -3.5 0 
" style="stroke: #000000; stroke-width: 0.8"/>
      </defs>
      <g>
       <use xlink:href="#mf09a5f5c42" x="96.41" y="311.830299" style="stroke: #000000; stroke-width: 0.8"/>
      </g>
     </g>
     <g id="text_10">
      <!-- 20 -->
      <g transform="translate(53.78 322.468111) scale(0.28 -0.28)">
       <use xlink:href="#DejaVuSans-32"/>
       <use xlink:href="#DejaVuSans-30" x="63.623047"/>
      </g>
     </g>
    </g>
    <g id="ytick_2">
     <g id="line2d_10">
      <g>
       <use xlink:href="#mf09a5f5c42" x="96.41" y="268.818849" style="stroke: #000000; stroke-width: 0.8"/>
      </g>
     </g>
     <g id="text_11">
      <!-- 30 -->
      <g transform="translate(53.78 279.456661) scale(0.28 -0.28)">
       <defs>
        <path id="DejaVuSans-33" d="M 2597 2516 
Q 3050 2419 3304 2112 
Q 3559 1806 3559 1356 
Q 3559 666 3084 287 
Q 2609 -91 1734 -91 
Q 1441 -91 1130 -33 
Q 819 25 488 141 
L 488 750 
Q 750 597 1062 519 
Q 1375 441 1716 441 
Q 2309 441 2620 675 
Q 2931 909 2931 1356 
Q 2931 1769 2642 2001 
Q 2353 2234 1838 2234 
L 1294 2234 
L 1294 2753 
L 1863 2753 
Q 2328 2753 2575 2939 
Q 2822 3125 2822 3475 
Q 2822 3834 2567 4026 
Q 2313 4219 1838 4219 
Q 1578 4219 1281 4162 
Q 984 4106 628 3988 
L 628 4550 
Q 988 4650 1302 4700 
Q 1616 4750 1894 4750 
Q 2613 4750 3031 4423 
Q 3450 4097 3450 3541 
Q 3450 3153 3228 2886 
Q 3006 2619 2597 2516 
z
" transform="scale(0.015625)"/>
       </defs>
       <use xlink:href="#DejaVuSans-33"/>
       <use xlink:href="#DejaVuSans-30" x="63.623047"/>
      </g>
     </g>
    </g>
    <g id="ytick_3">
     <g id="line2d_11">
      <g>
       <use xlink:href="#mf09a5f5c42" x="96.41" y="225.807399" style="stroke: #000000; stroke-width: 0.8"/>
      </g>
     </g>
     <g id="text_12">
      <!-- 40 -->
      <g transform="translate(53.78 236.445211) scale(0.28 -0.28)">
       <use xlink:href="#DejaVuSans-34"/>
       <use xlink:href="#DejaVuSans-30" x="63.623047"/>
      </g>
     </g>
    </g>
    <g id="ytick_4">
     <g id="line2d_12">
      <g>
       <use xlink:href="#mf09a5f5c42" x="96.41" y="182.795949" style="stroke: #000000; stroke-width: 0.8"/>
      </g>
     </g>
     <g id="text_13">
      <!-- 50 -->
      <g transform="translate(53.78 193.433761) scale(0.28 -0.28)">
       <defs>
        <path id="DejaVuSans-35" d="M 691 4666 
L 3169 4666 
L 3169 4134 
L 1269 4134 
L 1269 2991 
Q 1406 3038 1543 3061 
Q 1681 3084 1819 3084 
Q 2600 3084 3056 2656 
Q 3513 2228 3513 1497 
Q 3513 744 3044 326 
Q 2575 -91 1722 -91 
Q 1428 -91 1123 -41 
Q 819 9 494 109 
L 494 744 
Q 775 591 1075 516 
Q 1375 441 1709 441 
Q 2250 441 2565 725 
Q 2881 1009 2881 1497 
Q 2881 1984 2565 2268 
Q 2250 2553 1709 2553 
Q 1456 2553 1204 2497 
Q 953 2441 691 2322 
L 691 4666 
z
" transform="scale(0.015625)"/>
       </defs>
       <use xlink:href="#DejaVuSans-35"/>
       <use xlink:href="#DejaVuSans-30" x="63.623047"/>
      </g>
     </g>
    </g>
    <g id="ytick_5">
     <g id="line2d_13">
      <g>
       <use xlink:href="#mf09a5f5c42" x="96.41" y="139.784499" style="stroke: #000000; stroke-width: 0.8"/>
      </g>
     </g>
     <g id="text_14">
      <!-- 60 -->
      <g transform="translate(53.78 150.422311) scale(0.28 -0.28)">
       <use xlink:href="#DejaVuSans-36"/>
       <use xlink:href="#DejaVuSans-30" x="63.623047"/>
      </g>
     </g>
    </g>
    <g id="ytick_6">
     <g id="line2d_14">
      <g>
       <use xlink:href="#mf09a5f5c42" x="96.41" y="96.773049" style="stroke: #000000; stroke-width: 0.8"/>
      </g>
     </g>
     <g id="text_15">
      <!-- 70 -->
      <g transform="translate(53.78 107.410861) scale(0.28 -0.28)">
       <defs>
        <path id="DejaVuSans-37" d="M 525 4666 
L 3525 4666 
L 3525 4397 
L 1831 0 
L 1172 0 
L 2766 4134 
L 525 4134 
L 525 4666 
z
" transform="scale(0.015625)"/>
       </defs>
       <use xlink:href="#DejaVuSans-37"/>
       <use xlink:href="#DejaVuSans-30" x="63.623047"/>
      </g>
     </g>
    </g>
    <g id="ytick_7">
     <g id="line2d_15">
      <g>
       <use xlink:href="#mf09a5f5c42" x="96.41" y="53.761599" style="stroke: #000000; stroke-width: 0.8"/>
      </g>
     </g>
     <g id="text_16">
      <!-- 80 -->
      <g transform="translate(53.78 64.399411) scale(0.28 -0.28)">
       <use xlink:href="#DejaVuSans-38"/>
       <use xlink:href="#DejaVuSans-30" x="63.623047"/>
      </g>
     </g>
    </g>
    <g id="text_17">
     <!-- $m_{do}$ -->
     <g transform="translate(41.46125 214.98) rotate(-90) scale(0.4 -0.4)">
      <defs>
       <path id="DejaVuSans-Oblique-6d" d="M 5747 2113 
L 5338 0 
L 4763 0 
L 5166 2094 
Q 5191 2228 5203 2325 
Q 5216 2422 5216 2491 
Q 5216 2772 5059 2928 
Q 4903 3084 4622 3084 
Q 4203 3084 3875 2770 
Q 3547 2456 3450 1953 
L 3066 0 
L 2491 0 
L 2900 2094 
Q 2925 2209 2937 2307 
Q 2950 2406 2950 2484 
Q 2950 2769 2794 2926 
Q 2638 3084 2363 3084 
Q 1938 3084 1609 2770 
Q 1281 2456 1184 1953 
L 800 0 
L 225 0 
L 909 3500 
L 1484 3500 
L 1375 2956 
Q 1609 3263 1923 3423 
Q 2238 3584 2597 3584 
Q 2978 3584 3223 3384 
Q 3469 3184 3519 2828 
Q 3781 3197 4126 3390 
Q 4472 3584 4856 3584 
Q 5306 3584 5551 3325 
Q 5797 3066 5797 2591 
Q 5797 2488 5784 2364 
Q 5772 2241 5747 2113 
z
" transform="scale(0.015625)"/>
       <path id="DejaVuSans-Oblique-64" d="M 2675 525 
Q 2444 222 2128 65 
Q 1813 -91 1428 -91 
Q 903 -91 598 267 
Q 294 625 294 1247 
Q 294 1766 478 2236 
Q 663 2706 1013 3078 
Q 1244 3325 1534 3454 
Q 1825 3584 2144 3584 
Q 2481 3584 2739 3421 
Q 2997 3259 3138 2956 
L 3513 4863 
L 4091 4863 
L 3144 0 
L 2566 0 
L 2675 525 
z
M 891 1350 
Q 891 897 1095 644 
Q 1300 391 1663 391 
Q 1931 391 2161 520 
Q 2391 650 2566 903 
Q 2750 1166 2856 1509 
Q 2963 1853 2963 2188 
Q 2963 2622 2758 2865 
Q 2553 3109 2194 3109 
Q 1922 3109 1687 2981 
Q 1453 2853 1288 2613 
Q 1106 2353 998 2009 
Q 891 1666 891 1350 
z
" transform="scale(0.015625)"/>
       <path id="DejaVuSans-Oblique-6f" d="M 1625 -91 
Q 1009 -91 651 289 
Q 294 669 294 1325 
Q 294 1706 417 2101 
Q 541 2497 738 2766 
Q 1047 3184 1428 3384 
Q 1809 3584 2291 3584 
Q 2888 3584 3255 3212 
Q 3622 2841 3622 2241 
Q 3622 1825 3500 1412 
Q 3378 1000 3181 728 
Q 2875 309 2494 109 
Q 2113 -91 1625 -91 
z
M 891 1344 
Q 891 869 1089 633 
Q 1288 397 1691 397 
Q 2269 397 2648 901 
Q 3028 1406 3028 2181 
Q 3028 2634 2825 2865 
Q 2622 3097 2228 3097 
Q 1903 3097 1650 2945 
Q 1397 2794 1197 2484 
Q 1050 2253 970 1956 
Q 891 1659 891 1344 
z
" transform="scale(0.015625)"/>
      </defs>
      <use xlink:href="#DejaVuSans-Oblique-6d"/>
      <use xlink:href="#DejaVuSans-Oblique-64" transform="translate(97.412109 -16.40625) scale(0.7)"/>
      <use xlink:href="#DejaVuSans-Oblique-6f" transform="translate(141.845703 -16.40625) scale(0.7)"/>
     </g>
    </g>
   </g>
   <g id="line2d_16">
    <path d="M 124.264091 58.457015 
L 127.97797 57.310043 
L 131.691848 59.675673 
L 135.405727 51.718555 
L 139.119606 62.112989 
L 142.833485 61.360288 
L 146.547364 56.055543 
L 150.261242 65.303005 
L 153.975121 64.191875 
L 157.689 77.166996 
L 161.402879 80.357012 
L 165.116758 104.192524 
L 168.830636 100.464865 
L 172.544515 113.009871 
L 176.258394 129.820179 
L 179.972273 134.049639 
L 183.686152 152.544562 
L 187.40003 162.150453 
L 191.113909 180.717062 
L 194.827788 173.261744 
L 198.541667 171.899715 
L 202.255545 179.605933 
L 205.969424 202.115258 
L 209.683303 185.197421 
L 213.397182 182.831792 
L 217.111061 191.577453 
L 220.824939 185.30495 
L 224.538818 171.792186 
L 228.252697 193.226225 
L 231.966576 188.279909 
L 235.680455 188.781709 
L 239.394333 189.641938 
L 243.108212 188.530809 
L 246.822091 175.699059 
L 250.53597 184.265507 
L 254.249848 185.699222 
L 257.963727 190.645538 
L 261.677606 193.799711 
L 265.391485 204.588417 
L 269.105364 186.236865 
L 272.819242 191.147339 
L 276.533121 188.710023 
L 280.247 198.817714 
L 283.960879 199.749629 
L 287.674758 193.011168 
L 291.388636 203.51313 
L 295.102515 204.122459 
L 298.816394 201.434244 
L 302.530273 216.34488 
L 306.244152 205.090217 
L 309.95803 209.032933 
L 313.671909 201.362558 
L 317.385788 192.831954 
L 321.099667 208.710347 
L 324.813545 214.696107 
L 328.527424 218.459609 
L 332.241303 208.101018 
L 335.955182 209.212148 
L 339.669061 215.090379 
L 343.382939 210.394962 
L 347.096818 213.800036 
L 354.524576 203.943245 
L 358.238455 208.101018 
L 361.952333 200.789072 
L 365.666212 197.921642 
L 369.380091 210.61002 
L 373.09397 203.907402 
L 376.807848 211.004291 
L 380.521727 210.179905 
L 384.235606 202.545373 
L 387.949485 211.86452 
L 391.663364 213.011492 
L 395.377242 202.76043 
L 399.091121 209.319676 
L 402.805 205.914603 
L 406.518879 213.871721 
L 410.232758 208.889562 
L 413.946636 213.871721 
L 417.660515 208.99709 
L 421.374394 208.925405 
L 425.088273 213.549135 
L 428.802152 211.434406 
L 432.51603 210.681705 
L 436.229909 218.459609 
L 439.943788 210.896763 
L 443.657667 218.137023 
L 447.371545 214.373522 
L 451.085424 218.495452 
L 454.799303 225.018855 
L 458.513182 221.936368 
L 462.227061 217.420166 
L 465.940939 218.853881 
L 469.654818 219.678267 
L 473.368697 218.208709 
L 477.082576 225.664027 
L 480.796455 221.721311 
L 484.510333 228.746514 
L 488.224212 228.889886 
L 491.938091 235.269918 
L 495.65197 242.976136 
L 499.365848 252.976298 
L 503.079727 257.026543 
L 506.793606 246.667952 
L 510.507485 247.062223 
L 514.221364 243.083664 
L 517.935242 245.77188 
L 521.649121 254.911813 
L 525.363 264.947818 
L 529.076879 263.299046 
L 532.790758 255.162713 
L 536.504636 261.256002 
L 540.218515 265.84389 
L 543.932394 268.317048 
L 547.646273 278.388896 
L 551.360152 269.284806 
L 555.07403 275.772366 
L 558.787909 288.568273 
L 562.501788 276.130795 
L 566.215667 280.216883 
L 569.929545 280.646997 
L 573.643424 279.249125 
L 577.357303 285.772528 
L 581.071182 288.711644 
L 584.785061 287.743887 
L 588.498939 290.001988 
L 592.212818 288.639958 
L 595.926697 290.217045 
L 599.640576 290.396259 
L 603.354455 291.973346 
L 607.068333 283.442742 
L 610.782212 290.324574 
L 614.496091 293.263689 
L 618.20997 296.561234 
L 621.923848 305.48611 
L 625.637727 304.482509 
L 629.351606 301.579236 
L 633.065485 302.116879 
L 636.779364 301.543393 
L 640.493242 298.675963 
L 644.207121 307.600839 
L 647.921 306.418024 
L 651.634879 304.948467 
L 655.348758 300.360579 
L 659.062636 306.633082 
L 662.776515 297.600677 
L 666.490394 302.116879 
L 670.204273 299.070235 
L 673.918152 310.611641 
L 677.63203 310.611641 
L 681.345909 314.016714 
L 681.345909 314.016714 
" clip-path="url(#pcbaf3b5c52)" style="fill: none; stroke: #0000ff; stroke-width: 3; stroke-linecap: square"/>
   </g>
   <g id="line2d_17">
    <path d="M 124.264091 50.930012 
L 127.97797 50.607426 
L 131.691848 43.653908 
L 135.405727 40.141306 
L 139.119606 41.790079 
L 142.833485 42.865365 
L 146.547364 43.761437 
L 150.261242 50.643269 
L 153.975121 52.973056 
L 157.689 51.28844 
L 161.402879 59.317244 
L 165.116758 51.754398 
L 168.830636 52.076984 
L 172.544515 54.478456 
L 176.258394 52.148669 
L 179.972273 38.06242 
L 183.686152 44.29908 
L 187.40003 54.299242 
L 191.113909 52.220355 
L 194.827788 54.263399 
L 198.541667 77.274525 
L 202.255545 93.726404 
L 205.969424 106.163882 
L 209.683303 95.518548 
L 213.397182 103.977467 
L 217.111061 107.490068 
L 220.824939 110.034913 
L 224.538818 104.443424 
L 228.252697 133.977953 
L 231.966576 124.58712 
L 235.680455 147.168131 
L 239.394333 147.27566 
L 243.108212 160.429995 
L 246.822091 141.110685 
L 250.53597 152.831305 
L 254.249848 153.118048 
L 257.963727 145.806102 
L 261.677606 139.282698 
L 265.391485 157.849308 
L 272.819242 141.433271 
L 276.533121 149.928032 
L 280.247 166.308226 
L 283.960879 143.476315 
L 287.674758 137.454712 
L 291.388636 151.89939 
L 295.102515 139.390227 
L 298.816394 139.820342 
L 302.530273 137.956512 
L 306.244152 138.064041 
L 309.95803 123.296776 
L 313.671909 151.003319 
L 317.385788 129.676808 
L 321.099667 133.296938 
L 324.813545 141.899228 
L 328.527424 130.82378 
L 332.241303 154.444235 
L 335.955182 139.605284 
L 339.669061 144.730815 
L 343.382939 128.852422 
L 347.096818 132.544238 
L 350.810697 107.848497 
L 354.524576 117.346859 
L 358.238455 116.701687 
L 361.952333 138.601684 
L 365.666212 133.081881 
L 369.380091 110.214127 
L 373.09397 129.425908 
L 376.807848 105.948825 
L 380.521727 109.425584 
L 384.235606 85.4467 
L 387.949485 117.669445 
L 391.663364 85.052429 
L 395.377242 91.253246 
L 399.091121 84.873214 
L 402.805 72.507422 
L 406.518879 89.461102 
L 410.232758 91.826732 
L 413.946636 76.450139 
L 417.660515 81.217241 
L 421.374394 103.690724 
L 425.088273 90.787289 
L 428.802152 94.156519 
L 432.51603 76.485982 
L 436.229909 103.081395 
L 439.943788 98.350135 
L 443.657667 92.077632 
L 447.371545 89.461102 
L 451.085424 92.364375 
L 454.799303 103.296452 
L 458.513182 104.479267 
L 462.227061 86.844572 
L 465.940939 87.095473 
L 469.654818 92.866175 
L 473.368697 95.052591 
L 477.082576 99.210364 
L 480.796455 108.421983 
L 484.510333 86.80873 
L 488.224212 83.690399 
L 491.938091 94.514948 
L 495.65197 83.618714 
L 499.365848 81.790727 
L 503.079727 73.47518 
L 506.793606 72.256522 
L 510.507485 97.346535 
L 514.221364 89.461102 
L 517.935242 89.532788 
L 521.649121 97.131478 
L 525.363 81.969941 
L 529.076879 84.9449 
L 532.790758 109.174684 
L 536.504636 101.038351 
L 540.218515 94.228205 
L 543.932394 105.805453 
L 547.646273 121.074518 
L 551.360152 99.174521 
L 555.07403 86.844572 
L 558.787909 77.131153 
L 562.501788 96.199563 
L 566.215667 68.528863 
L 569.929545 97.704964 
L 573.643424 64.729519 
L 577.357303 78.529025 
L 581.071182 96.16372 
L 584.785061 87.884016 
L 588.498939 111.611999 
L 592.212818 102.722966 
L 595.926697 110.608399 
L 599.640576 80.822969 
L 603.354455 93.762247 
L 607.068333 91.575832 
L 610.782212 74.514623 
L 614.496091 105.052753 
L 618.20997 88.06323 
L 621.923848 102.579595 
L 625.637727 76.951939 
L 629.351606 82.57927 
L 633.065485 76.235081 
L 636.779364 68.636392 
L 640.493242 94.192362 
L 644.207121 85.016586 
L 647.921 90.070431 
L 651.634879 99.317893 
L 655.348758 58.492858 
L 659.062636 84.120514 
L 662.776515 77.955539 
L 666.490394 83.367814 
L 670.204273 94.909219 
L 673.918152 67.274363 
L 677.63203 117.705288 
L 681.345909 82.041627 
L 681.345909 82.041627 
" clip-path="url(#pcbaf3b5c52)" style="fill: none; stroke: #008000; stroke-width: 3; stroke-linecap: square"/>
   </g>
   <g id="line2d_18">
    <path d="M 124.264091 57.453415 
L 127.97797 50.069783 
L 131.691848 58.457015 
L 135.405727 52.076984 
L 139.119606 40.320521 
L 142.833485 53.331484 
L 146.547364 49.317082 
L 150.261242 54.908571 
L 153.975121 43.618065 
L 157.689 48.17011 
L 161.402879 63.044903 
L 165.116758 50.464054 
L 168.830636 47.16651 
L 172.544515 50.499897 
L 176.258394 46.700552 
L 179.972273 69.066506 
L 183.686152 40.428049 
L 187.40003 51.790241 
L 191.113909 59.353087 
L 194.827788 52.686313 
L 198.541667 56.413972 
L 202.255545 54.299242 
L 205.969424 46.198752 
L 209.683303 47.381567 
L 213.397182 53.259799 
L 217.111061 45.481895 
L 220.824939 57.560944 
L 224.538818 51.969455 
L 228.252697 41.897607 
L 231.966576 42.040979 
L 235.680455 39.926249 
L 239.394333 64.801204 
L 243.108212 42.578622 
L 246.822091 50.320683 
L 250.53597 52.686313 
L 254.249848 48.815282 
L 257.963727 50.141468 
L 261.677606 56.055543 
L 265.391485 46.127066 
L 269.105364 58.779601 
L 272.819242 47.023138 
L 276.533121 50.069783 
L 280.247 53.474856 
L 283.960879 50.03394 
L 287.674758 43.653908 
L 291.388636 55.446214 
L 295.102515 54.048342 
L 298.816394 60.500059 
L 302.530273 64.514461 
L 306.244152 59.38893 
L 309.95803 47.094824 
L 313.671909 49.137868 
L 317.385788 54.478456 
L 321.099667 47.883367 
L 324.813545 52.256198 
L 328.527424 56.413972 
L 332.241303 59.568145 
L 335.955182 62.399732 
L 339.669061 49.998097 
L 343.382939 46.736395 
L 347.096818 53.439013 
L 350.810697 55.231157 
L 354.524576 52.005298 
L 358.238455 62.435575 
L 361.952333 49.962254 
L 365.666212 58.600387 
L 369.380091 47.847524 
L 373.09397 59.532302 
L 376.807848 55.804643 
L 380.521727 57.381729 
L 384.235606 57.059143 
L 387.949485 55.446214 
L 391.663364 50.750797 
L 395.377242 52.435412 
L 399.091121 53.188113 
L 402.805 55.159471 
L 406.518879 54.836885 
L 410.232758 59.568145 
L 413.946636 47.560781 
L 417.660515 61.75456 
L 421.374394 59.496459 
L 425.088273 62.471417 
L 428.802152 51.646869 
L 432.51603 45.087623 
L 436.229909 44.836723 
L 439.943788 59.532302 
L 443.657667 63.080746 
L 447.371545 53.725756 
L 451.085424 65.267162 
L 454.799303 52.471255 
L 458.513182 60.356688 
L 462.227061 55.589585 
L 465.940939 56.7724 
L 469.654818 59.603987 
L 473.368697 55.123628 
L 477.082576 49.209554 
L 480.796455 59.496459 
L 484.510333 62.75816 
L 488.224212 60.141631 
L 491.938091 51.969455 
L 495.65197 64.263561 
L 499.365848 56.951615 
L 503.079727 47.883367 
L 506.793606 50.464054 
L 510.507485 48.062582 
L 514.221364 52.614627 
L 517.935242 41.897607 
L 521.649121 54.836885 
L 525.363 47.489096 
L 529.076879 59.783202 
L 532.790758 55.804643 
L 536.504636 56.055543 
L 540.218515 52.363727 
L 543.932394 59.926573 
L 547.646273 51.145069 
L 551.360152 49.496297 
L 555.07403 57.094986 
L 558.787909 53.689913 
L 562.501788 50.105626 
L 566.215667 56.664872 
L 569.929545 57.238358 
L 573.643424 58.349487 
L 577.357303 47.453253 
L 581.071182 56.163071 
L 584.785061 52.865527 
L 588.498939 61.25276 
L 592.212818 52.65047 
L 595.926697 49.209554 
L 599.640576 43.438851 
L 603.354455 55.087785 
L 607.068333 55.195314 
L 610.782212 60.930174 
L 614.496091 60.464216 
L 618.20997 52.363727 
L 621.923848 61.933774 
L 625.637727 52.614627 
L 629.351606 58.421173 
L 633.065485 59.89073 
L 636.779364 54.263399 
L 640.493242 55.482057 
L 644.207121 55.123628 
L 647.921 53.940813 
L 651.634879 63.510861 
L 655.348758 53.080584 
L 659.062636 58.63623 
L 662.776515 54.012499 
L 666.490394 57.560944 
L 670.204273 56.7724 
L 673.918152 50.499897 
L 677.63203 46.879767 
L 681.345909 50.858326 
L 681.345909 50.858326 
" clip-path="url(#pcbaf3b5c52)" style="fill: none; stroke: #ff0000; stroke-width: 3; stroke-linecap: square"/>
   </g>
   <g id="line2d_19">
    <path d="M 124.264091 46.736395 
L 127.97797 48.958654 
L 131.691848 50.392369 
L 135.405727 37.990734 
L 139.119606 61.25276 
L 142.833485 63.725918 
L 146.547364 46.270438 
L 150.261242 52.041141 
L 153.975121 46.772238 
L 157.689 54.120028 
L 161.402879 56.163071 
L 165.116758 50.213154 
L 168.830636 57.776001 
L 172.544515 69.030664 
L 176.258394 46.485495 
L 179.972273 52.973056 
L 183.686152 44.514137 
L 187.40003 52.041141 
L 191.113909 56.736557 
L 194.827788 57.453415 
L 198.541667 55.374528 
L 202.255545 67.274363 
L 205.969424 62.399732 
L 209.683303 52.973056 
L 213.397182 59.496459 
L 217.111061 53.976656 
L 220.824939 47.130667 
L 224.538818 64.908733 
L 228.252697 71.467979 
L 235.680455 51.145069 
L 239.394333 56.664872 
L 243.108212 52.614627 
L 246.822091 59.603987 
L 250.53597 66.951777 
L 254.249848 68.528863 
L 257.963727 71.145393 
L 261.677606 69.102349 
L 265.391485 72.614951 
L 269.105364 60.715117 
L 272.819242 70.786964 
L 276.533121 63.976818 
L 280.247 58.922973 
L 283.960879 56.7724 
L 287.674758 59.63983 
L 291.388636 58.206115 
L 295.102515 58.815444 
L 298.816394 58.026901 
L 302.530273 58.098587 
L 306.244152 53.080584 
L 309.95803 58.098587 
L 313.671909 70.249321 
L 317.385788 51.252598 
L 321.099667 69.353249 
L 324.813545 68.027063 
L 328.527424 67.776163 
L 332.241303 75.446538 
L 335.955182 90.751446 
L 339.669061 89.317731 
L 343.382939 86.342772 
L 347.096818 89.855374 
L 350.810697 92.507747 
L 354.524576 94.479105 
L 361.952333 83.9413 
L 365.666212 98.887778 
L 369.380091 102.472066 
L 373.09397 92.54359 
L 376.807848 93.977305 
L 380.521727 93.618876 
L 384.235606 97.059792 
L 387.949485 99.389579 
L 391.663364 110.24997 
L 395.377242 104.156681 
L 399.091121 114.981229 
L 402.805 115.017072 
L 406.518879 113.511671 
L 410.232758 112.149642 
L 413.946636 119.031474 
L 417.660515 131.934909 
L 421.374394 135.411668 
L 425.088273 131.361423 
L 428.802152 131.863223 
L 432.51603 127.024435 
L 436.229909 128.70905 
L 439.943788 129.676808 
L 443.657667 135.124925 
L 447.371545 125.734092 
L 451.085424 143.476315 
L 454.799303 124.264534 
L 458.513182 128.386464 
L 462.227061 136.55864 
L 465.940939 134.228853 
L 469.654818 137.203812 
L 473.368697 124.694648 
L 477.082576 127.060278 
L 480.796455 138.314941 
L 484.510333 142.185971 
L 488.224212 136.128525 
L 491.938091 143.978115 
L 495.65197 134.69481 
L 499.365848 125.949149 
L 503.079727 139.282698 
L 506.793606 120.608561 
L 510.507485 140.608885 
L 514.221364 136.200211 
L 517.935242 143.189572 
L 521.649121 134.909868 
L 525.363 135.160768 
L 529.076879 134.408067 
L 532.790758 136.271897 
L 536.504636 137.777298 
L 540.218515 134.19301 
L 543.932394 141.289899 
L 547.646273 144.945873 
L 551.360152 150.501518 
L 555.07403 140.107085 
L 558.787909 137.56224 
L 562.501788 157.204136 
L 566.215667 144.65913 
L 569.929545 157.204136 
L 573.643424 147.562403 
L 577.357303 144.730815 
L 581.071182 146.702174 
L 584.785061 143.2971 
L 588.498939 145.017558 
L 592.212818 140.107085 
L 595.926697 135.877625 
L 599.640576 142.7953 
L 603.354455 139.605284 
L 607.068333 135.770097 
L 610.782212 143.619686 
L 614.496091 153.799063 
L 618.20997 135.375825 
L 621.923848 137.096283 
L 625.637727 137.669769 
L 629.351606 141.863385 
L 633.065485 144.802501 
L 636.779364 129.569279 
L 640.493242 141.576642 
L 644.207121 149.569604 
L 647.921 144.766658 
L 651.634879 144.40823 
L 655.348758 142.508557 
L 659.062636 150.716576 
L 662.776515 147.52656 
L 666.490394 148.816903 
L 670.204273 154.51592 
L 673.918152 143.010357 
L 677.63203 156.774021 
L 681.345909 150.071404 
L 681.345909 150.071404 
" clip-path="url(#pcbaf3b5c52)" style="fill: none; stroke: #ffa500; stroke-width: 3; stroke-linecap: square"/>
   </g>
   <g id="patch_3">
    <path d="M 96.41 343.96 
L 96.41 10.8 
" style="fill: none; stroke: #000000; stroke-width: 0.8; stroke-linejoin: miter; stroke-linecap: square"/>
   </g>
   <g id="patch_4">
    <path d="M 709.2 343.96 
L 709.2 10.8 
" style="fill: none; stroke: #000000; stroke-width: 0.8; stroke-linejoin: miter; stroke-linecap: square"/>
   </g>
   <g id="patch_5">
    <path d="M 96.41 343.96 
L 709.2 343.96 
" style="fill: none; stroke: #000000; stroke-width: 0.8; stroke-linejoin: miter; stroke-linecap: square"/>
   </g>
   <g id="patch_6">
    <path d="M 96.41 10.8 
L 709.2 10.8 
" style="fill: none; stroke: #000000; stroke-width: 0.8; stroke-linejoin: miter; stroke-linecap: square"/>
   </g>
  </g>
 </g>
 <defs>
  <clipPath id="pcbaf3b5c52">
   <rect x="96.41" y="10.8" width="612.79" height="333.16"/>
  </clipPath>
 </defs>
</svg>
