<?xml version="1.0" encoding="utf-8" standalone="no"?>
<!DOCTYPE svg PUBLIC "-//W3C//DTD SVG 1.1//EN"
  "http://www.w3.org/Graphics/SVG/1.1/DTD/svg11.dtd">
<svg xmlns:xlink="http://www.w3.org/1999/xlink" width="720pt" height="432pt" viewBox="0 0 720 432" xmlns="http://www.w3.org/2000/svg" version="1.1">
 <metadata>
  <rdf:RDF xmlns:dc="http://purl.org/dc/elements/1.1/" xmlns:cc="http://creativecommons.org/ns#" xmlns:rdf="http://www.w3.org/1999/02/22-rdf-syntax-ns#">
   <cc:Work>
    <dc:type rdf:resource="http://purl.org/dc/dcmitype/StillImage"/>
    <dc:date>2025-06-19T21:16:08.064226</dc:date>
    <dc:format>image/svg+xml</dc:format>
    <dc:creator>
     <cc:Agent>
      <dc:title>Matplotlib v3.7.1, https://matplotlib.org/</dc:title>
     </cc:Agent>
    </dc:creator>
   </cc:Work>
  </rdf:RDF>
 </metadata>
 <defs>
  <style type="text/css">*{stroke-linejoin: round; stroke-linecap: butt}</style>
 </defs>
 <g id="figure_1">
  <g id="patch_1">
   <path d="M 0 432 
L 720 432 
L 720 0 
L 0 0 
z
" style="fill: #ffffff"/>
  </g>
  <g id="axes_1">
   <g id="patch_2">
    <path d="M 114.23 343.96 
L 709.2 343.96 
L 709.2 10.8 
L 114.23 10.8 
z
" style="fill: #ffffff"/>
   </g>
   <g id="PolyCollection_1">
    <defs>
     <path id="mf7c8b0abda" d="M 141.274091 -294.522685 
L 141.274091 -290.547166 
L 144.87997 -288.023845 
L 148.485848 -286.300847 
L 152.091727 -280.7401 
L 155.697606 -275.801648 
L 159.303485 -274.735233 
L 162.909364 -265.675516 
L 166.515242 -265.545063 
L 170.121121 -262.480891 
L 173.727 -262.668876 
L 177.332879 -256.870029 
L 180.938758 -255.500233 
L 184.544636 -253.107528 
L 188.150515 -253.723185 
L 191.756394 -250.732224 
L 195.362273 -243.503769 
L 198.968152 -248.854044 
L 202.57403 -244.968499 
L 206.179909 -248.310598 
L 209.785788 -250.675634 
L 213.391667 -248.439913 
L 216.997545 -248.170921 
L 220.603424 -248.007389 
L 224.209303 -249.442293 
L 227.815182 -246.809282 
L 231.421061 -244.65459 
L 235.026939 -247.143503 
L 238.632818 -247.005241 
L 242.238697 -245.743584 
L 245.844576 -243.230296 
L 249.450455 -243.342872 
L 253.056333 -240.248044 
L 256.662212 -238.129098 
L 260.268091 -234.421084 
L 263.87397 -241.412695 
L 267.479848 -239.445365 
L 271.085727 -244.375958 
L 274.691606 -240.701075 
L 278.297485 -239.135647 
L 281.903364 -238.291904 
L 285.509242 -240.883803 
L 289.115121 -239.984302 
L 292.721 -234.629601 
L 296.326879 -231.739273 
L 299.932758 -235.656796 
L 303.538636 -231.516976 
L 307.144515 -231.812959 
L 310.750394 -231.294407 
L 314.356273 -229.250465 
L 317.962152 -223.904663 
L 321.56803 -225.479775 
L 325.173909 -224.313093 
L 328.779788 -225.085407 
L 332.385667 -220.356111 
L 335.991545 -223.076691 
L 339.597424 -220.921733 
L 343.203303 -217.518171 
L 346.809182 -218.451556 
L 350.415061 -212.659015 
L 354.020939 -214.319384 
L 357.626818 -211.274131 
L 361.232697 -212.401987 
L 364.838576 -210.306097 
L 368.444455 -216.000959 
L 372.050333 -215.230117 
L 375.656212 -209.826939 
L 379.262091 -208.113712 
L 382.86797 -205.434334 
L 386.473848 -207.027277 
L 390.079727 -209.497257 
L 393.685606 -210.20211 
L 397.291485 -209.287915 
L 400.897364 -206.362955 
L 404.503242 -202.352692 
L 408.109121 -201.16793 
L 411.715 -192.640855 
L 415.320879 -193.245526 
L 418.926758 -189.434164 
L 422.532636 -185.909645 
L 426.138515 -185.607356 
L 429.744394 -184.911139 
L 433.350273 -178.933146 
L 436.956152 -174.831636 
L 440.56203 -173.066073 
L 444.167909 -172.267638 
L 447.773788 -170.549811 
L 451.379667 -166.887719 
L 454.985545 -163.447885 
L 458.591424 -159.844335 
L 462.197303 -155.237944 
L 465.803182 -150.713924 
L 469.409061 -148.575562 
L 473.014939 -146.900941 
L 476.620818 -143.674869 
L 480.226697 -141.897347 
L 483.832576 -139.405367 
L 487.438455 -139.925681 
L 491.044333 -133.915068 
L 494.650212 -128.022721 
L 498.256091 -123.972646 
L 501.86197 -119.327662 
L 505.467848 -117.907957 
L 509.073727 -119.956874 
L 512.679606 -119.735595 
L 516.285485 -120.725235 
L 519.891364 -123.12442 
L 523.497242 -121.504656 
L 527.103121 -118.167434 
L 530.709 -113.120668 
L 534.314879 -113.053055 
L 537.920758 -117.319841 
L 541.526636 -115.016465 
L 545.132515 -113.147494 
L 548.738394 -111.445938 
L 552.344273 -107.560975 
L 555.950152 -111.439322 
L 559.55603 -108.201117 
L 563.161909 -109.111182 
L 566.767788 -112.317613 
L 570.373667 -112.415298 
L 573.979545 -111.385031 
L 577.585424 -115.425897 
L 581.191303 -116.356984 
L 584.797182 -117.019905 
L 588.403061 -115.460995 
L 592.008939 -112.184492 
L 595.614818 -112.366833 
L 599.220697 -111.033407 
L 602.826576 -110.452028 
L 606.432455 -106.5085 
L 610.038333 -108.217816 
L 613.644212 -108.931382 
L 617.250091 -109.38531 
L 620.85597 -105.520593 
L 624.461848 -105.376696 
L 628.067727 -104.710121 
L 631.673606 -106.328823 
L 635.279485 -111.890042 
L 638.885364 -111.322077 
L 642.491242 -108.747795 
L 646.097121 -108.448001 
L 649.703 -105.440392 
L 653.308879 -103.591837 
L 656.914758 -106.417078 
L 660.520636 -106.626101 
L 664.126515 -107.7049 
L 667.732394 -106.796306 
L 671.338273 -109.555139 
L 674.944152 -103.892907 
L 678.55003 -103.183636 
L 682.155909 -103.973113 
L 682.155909 -110.021096 
L 682.155909 -110.021096 
L 678.55003 -113.699306 
L 674.944152 -114.561102 
L 671.338273 -117.691771 
L 667.732394 -116.244202 
L 664.126515 -117.514829 
L 660.520636 -113.85509 
L 656.914758 -114.646928 
L 653.308879 -115.470327 
L 649.703 -114.686042 
L 646.097121 -111.957171 
L 642.491242 -113.532519 
L 638.885364 -112.554643 
L 635.279485 -115.762304 
L 631.673606 -118.181392 
L 628.067727 -118.05165 
L 624.461848 -120.020411 
L 620.85597 -122.53719 
L 617.250091 -123.056253 
L 613.644212 -124.85319 
L 610.038333 -134.283638 
L 606.432455 -135.663537 
L 602.826576 -129.895545 
L 599.220697 -126.729509 
L 595.614818 -126.86579 
L 592.008939 -125.933181 
L 588.403061 -124.557161 
L 584.797182 -123.12495 
L 581.191303 -126.195149 
L 577.585424 -129.888272 
L 573.979545 -134.689331 
L 570.373667 -135.052751 
L 566.767788 -134.947719 
L 563.161909 -130.957653 
L 559.55603 -138.734797 
L 555.950152 -141.704836 
L 552.344273 -140.059113 
L 548.738394 -143.193267 
L 545.132515 -144.051028 
L 541.526636 -143.220988 
L 537.920758 -148.468865 
L 534.314879 -146.426047 
L 530.709 -146.915909 
L 527.103121 -150.915442 
L 523.497242 -150.213557 
L 519.891364 -153.230971 
L 516.285485 -157.277241 
L 512.679606 -159.53387 
L 509.073727 -152.597551 
L 505.467848 -158.270056 
L 501.86197 -163.033255 
L 498.256091 -166.116902 
L 494.650212 -169.719439 
L 491.044333 -168.945726 
L 487.438455 -166.862778 
L 483.832576 -163.10067 
L 480.226697 -162.93995 
L 476.620818 -166.45844 
L 473.014939 -171.087698 
L 469.409061 -176.305495 
L 465.803182 -185.088576 
L 462.197303 -185.429792 
L 458.591424 -183.357378 
L 454.985545 -186.139451 
L 451.379667 -188.071649 
L 447.773788 -194.266729 
L 444.167909 -191.611331 
L 440.56203 -197.984052 
L 436.956152 -201.413142 
L 433.350273 -205.471039 
L 429.744394 -205.397213 
L 426.138515 -206.044005 
L 422.532636 -206.552588 
L 418.926758 -212.783882 
L 415.320879 -219.159109 
L 411.715 -220.270575 
L 408.109121 -227.986295 
L 404.503242 -229.208811 
L 400.897364 -228.213981 
L 397.291485 -228.76057 
L 393.685606 -234.789473 
L 390.079727 -230.781128 
L 386.473848 -223.672674 
L 382.86797 -225.265617 
L 379.262091 -221.445949 
L 375.656212 -225.814268 
L 372.050333 -226.746033 
L 368.444455 -228.053052 
L 364.838576 -229.870929 
L 361.232697 -232.310859 
L 357.626818 -229.156293 
L 354.020939 -231.153655 
L 350.415061 -237.628581 
L 346.809182 -238.094964 
L 343.203303 -241.13155 
L 339.597424 -238.412162 
L 335.991545 -234.559439 
L 332.385667 -236.190408 
L 328.779788 -234.856642 
L 325.173909 -234.742064 
L 321.56803 -232.789849 
L 317.962152 -233.224672 
L 314.356273 -235.379443 
L 310.750394 -236.401613 
L 307.144515 -238.695776 
L 303.538636 -241.500397 
L 299.932758 -243.771539 
L 296.326879 -241.430138 
L 292.721 -239.071946 
L 289.115121 -242.940922 
L 285.509242 -245.969086 
L 281.903364 -252.083214 
L 278.297485 -249.972482 
L 274.691606 -245.721037 
L 271.085727 -248.786535 
L 267.479848 -243.733256 
L 263.87397 -246.251066 
L 260.268091 -248.833557 
L 256.662212 -251.612525 
L 253.056333 -247.16232 
L 249.450455 -247.792438 
L 245.844576 -246.13123 
L 242.238697 -249.952886 
L 238.632818 -249.071326 
L 235.026939 -253.114126 
L 231.421061 -252.359548 
L 227.815182 -253.929803 
L 224.209303 -256.694163 
L 220.603424 -259.167998 
L 216.997545 -258.59903 
L 213.391667 -257.848582 
L 209.785788 -257.209267 
L 206.179909 -258.839449 
L 202.57403 -263.423197 
L 198.968152 -263.693375 
L 195.362273 -266.864429 
L 191.756394 -272.559259 
L 188.150515 -277.11955 
L 184.544636 -281.232096 
L 180.938758 -287.429574 
L 177.332879 -288.796474 
L 173.727 -292.094605 
L 170.121121 -294.63919 
L 166.515242 -294.945207 
L 162.909364 -293.269028 
L 159.303485 -292.19134 
L 155.697606 -289.984635 
L 152.091727 -291.837243 
L 148.485848 -293.777068 
L 144.87997 -291.496596 
L 141.274091 -294.522685 
z
" style="stroke: #0000ff; stroke-opacity: 0.3"/>
    </defs>
    <g clip-path="url(#p4e72ac8697)">
     <use xlink:href="#mf7c8b0abda" x="0" y="432" style="fill: #0000ff; fill-opacity: 0.3; stroke: #0000ff; stroke-opacity: 0.3"/>
    </g>
   </g>
   <g id="PolyCollection_2">
    <defs>
     <path id="m8080463f89" d="M 141.274091 -382.822097 
L 141.274091 -377.776364 
L 144.87997 -376.597842 
L 148.485848 -374.673388 
L 152.091727 -374.318565 
L 155.697606 -374.73887 
L 159.303485 -373.355938 
L 162.909364 -373.694214 
L 166.515242 -370.04881 
L 170.121121 -371.226695 
L 173.727 -372.192132 
L 177.332879 -373.974371 
L 180.938758 -371.412914 
L 184.544636 -372.925192 
L 188.150515 -373.12047 
L 191.756394 -377.004592 
L 195.362273 -374.552691 
L 198.968152 -373.493069 
L 202.57403 -373.415231 
L 206.179909 -370.479054 
L 209.785788 -374.707763 
L 213.391667 -371.936806 
L 216.997545 -369.155587 
L 220.603424 -371.926879 
L 224.209303 -371.706038 
L 227.815182 -374.798644 
L 231.421061 -374.327416 
L 235.026939 -377.426197 
L 238.632818 -377.70345 
L 242.238697 -377.125856 
L 245.844576 -378.193793 
L 249.450455 -376.688357 
L 253.056333 -375.257311 
L 256.662212 -375.946028 
L 260.268091 -378.11087 
L 263.87397 -375.234943 
L 267.479848 -375.505418 
L 271.085727 -375.430914 
L 274.691606 -377.20481 
L 278.297485 -376.981277 
L 281.903364 -377.315998 
L 285.509242 -377.106483 
L 289.115121 -376.802015 
L 292.721 -374.247719 
L 296.326879 -376.927178 
L 299.932758 -374.206845 
L 303.538636 -367.751455 
L 307.144515 -372.690094 
L 310.750394 -372.282617 
L 314.356273 -371.573143 
L 317.962152 -372.636534 
L 321.56803 -373.101277 
L 325.173909 -373.354931 
L 328.779788 -371.486971 
L 332.385667 -369.60622 
L 335.991545 -366.119161 
L 339.597424 -368.038182 
L 343.203303 -363.893512 
L 346.809182 -368.813128 
L 350.415061 -365.903794 
L 354.020939 -365.980828 
L 357.626818 -367.52973 
L 361.232697 -368.344832 
L 364.838576 -372.451395 
L 368.444455 -374.410577 
L 372.050333 -375.970999 
L 375.656212 -372.08409 
L 379.262091 -374.303057 
L 382.86797 -373.121744 
L 386.473848 -374.568237 
L 390.079727 -372.721558 
L 393.685606 -375.502428 
L 397.291485 -373.882179 
L 400.897364 -373.0553 
L 404.503242 -371.675685 
L 408.109121 -374.631467 
L 411.715 -370.086105 
L 415.320879 -369.183877 
L 418.926758 -367.487848 
L 422.532636 -365.524358 
L 426.138515 -366.623083 
L 429.744394 -365.514969 
L 433.350273 -365.05847 
L 436.956152 -365.906508 
L 440.56203 -363.903034 
L 444.167909 -363.603982 
L 447.773788 -365.560051 
L 451.379667 -368.796348 
L 454.985545 -371.683185 
L 458.591424 -371.42279 
L 462.197303 -374.652941 
L 465.803182 -373.347574 
L 469.409061 -372.912433 
L 473.014939 -371.789658 
L 476.620818 -372.59392 
L 480.226697 -375.65475 
L 483.832576 -373.466183 
L 487.438455 -373.550845 
L 491.044333 -375.474463 
L 494.650212 -376.537213 
L 498.256091 -375.638863 
L 501.86197 -378.564363 
L 505.467848 -378.497233 
L 509.073727 -378.312759 
L 512.679606 -381.967042 
L 516.285485 -379.465389 
L 519.891364 -378.377451 
L 523.497242 -380.974022 
L 527.103121 -379.638347 
L 530.709 -385.499289 
L 534.314879 -385.942277 
L 537.920758 -383.632884 
L 541.526636 -384.576007 
L 545.132515 -384.22349 
L 548.738394 -383.911687 
L 552.344273 -383.572004 
L 555.950152 -385.133259 
L 559.55603 -388.568311 
L 563.161909 -388.916409 
L 566.767788 -389.179068 
L 570.373667 -391.882886 
L 573.979545 -390.562327 
L 577.585424 -389.319048 
L 581.191303 -390.043419 
L 584.797182 -389.480129 
L 588.403061 -391.296968 
L 592.008939 -386.470107 
L 595.614818 -389.358553 
L 599.220697 -390.313712 
L 602.826576 -391.835341 
L 606.432455 -390.07764 
L 610.038333 -390.231127 
L 613.644212 -389.15101 
L 617.250091 -385.945335 
L 620.85597 -389.624389 
L 624.461848 -388.397807 
L 628.067727 -389.591758 
L 631.673606 -390.392457 
L 635.279485 -390.309145 
L 638.885364 -391.889763 
L 642.491242 -389.010331 
L 646.097121 -391.791622 
L 649.703 -390.337018 
L 653.308879 -388.020585 
L 656.914758 -390.954503 
L 660.520636 -387.42936 
L 664.126515 -388.938778 
L 667.732394 -389.618 
L 671.338273 -387.878307 
L 674.944152 -391.006031 
L 678.55003 -388.954728 
L 682.155909 -390.897016 
L 682.155909 -403.124606 
L 682.155909 -403.124606 
L 678.55003 -402.760975 
L 674.944152 -406.056364 
L 671.338273 -401.962253 
L 667.732394 -404.479642 
L 664.126515 -400.775083 
L 660.520636 -401.372269 
L 656.914758 -405.018282 
L 653.308879 -399.235317 
L 649.703 -399.75694 
L 646.097121 -399.97476 
L 642.491242 -397.789456 
L 638.885364 -398.60963 
L 635.279485 -399.201998 
L 631.673606 -394.278789 
L 628.067727 -394.547352 
L 624.461848 -394.448975 
L 620.85597 -392.259482 
L 617.250091 -395.000964 
L 613.644212 -394.684023 
L 610.038333 -394.820215 
L 606.432455 -394.644286 
L 602.826576 -395.648619 
L 599.220697 -393.293264 
L 595.614818 -394.349781 
L 592.008939 -392.220952 
L 588.403061 -392.462046 
L 584.797182 -392.581121 
L 581.191303 -392.651324 
L 577.585424 -393.95851 
L 573.979545 -390.890768 
L 570.373667 -393.067097 
L 566.767788 -394.858683 
L 563.161909 -392.891443 
L 559.55603 -392.479347 
L 555.950152 -391.403919 
L 552.344273 -390.000421 
L 548.738394 -386.518606 
L 545.132515 -386.206803 
L 541.526636 -389.756612 
L 537.920758 -388.317796 
L 534.314879 -388.922476 
L 530.709 -386.147314 
L 527.103121 -386.610884 
L 523.497242 -383.070649 
L 519.891364 -382.144991 
L 516.285485 -382.374721 
L 512.679606 -383.293937 
L 509.073727 -381.044053 
L 505.467848 -379.896668 
L 501.86197 -378.917306 
L 498.256091 -378.472616 
L 494.650212 -379.272031 
L 491.044333 -377.952843 
L 487.438455 -379.293645 
L 483.832576 -378.795493 
L 480.226697 -379.267601 
L 476.620818 -381.973675 
L 473.014939 -383.918227 
L 469.409061 -381.781861 
L 465.803182 -379.395557 
L 462.197303 -381.38436 
L 458.591424 -381.953836 
L 454.985545 -382.124217 
L 451.379667 -381.286107 
L 447.773788 -381.101535 
L 444.167909 -379.687414 
L 440.56203 -383.214668 
L 436.956152 -383.84653 
L 433.350273 -385.53078 
L 429.744394 -383.427196 
L 426.138515 -382.800538 
L 422.532636 -382.885672 
L 418.926758 -381.378298 
L 415.320879 -382.444304 
L 411.715 -383.898676 
L 408.109121 -382.951561 
L 404.503242 -383.829482 
L 400.897364 -384.578407 
L 397.291485 -380.558717 
L 393.685606 -382.916813 
L 390.079727 -382.378173 
L 386.473848 -381.367706 
L 382.86797 -381.800607 
L 379.262091 -385.484532 
L 375.656212 -380.633701 
L 372.050333 -380.547758 
L 368.444455 -381.576045 
L 364.838576 -379.962319 
L 361.232697 -382.497816 
L 357.626818 -383.895733 
L 354.020939 -384.83648 
L 350.415061 -382.252838 
L 346.809182 -382.739034 
L 343.203303 -382.514676 
L 339.597424 -383.4633 
L 335.991545 -384.216692 
L 332.385667 -384.201182 
L 328.779788 -385.918678 
L 325.173909 -385.114989 
L 321.56803 -386.534273 
L 317.962152 -385.985425 
L 314.356273 -382.969112 
L 310.750394 -384.185461 
L 307.144515 -380.027698 
L 303.538636 -382.837795 
L 299.932758 -381.399681 
L 296.326879 -380.377112 
L 292.721 -380.877351 
L 289.115121 -379.260626 
L 285.509242 -379.614993 
L 281.903364 -380.444408 
L 278.297485 -379.866898 
L 274.691606 -380.074141 
L 271.085727 -378.300469 
L 267.479848 -379.771691 
L 263.87397 -380.396923 
L 260.268091 -382.56361 
L 256.662212 -381.180884 
L 253.056333 -383.339308 
L 249.450455 -384.036803 
L 245.844576 -385.014665 
L 242.238697 -387.628328 
L 238.632818 -386.214521 
L 235.026939 -384.996728 
L 231.421061 -384.117164 
L 227.815182 -382.328268 
L 224.209303 -383.976507 
L 220.603424 -383.882365 
L 216.997545 -383.840942 
L 213.391667 -385.87428 
L 209.785788 -384.54769 
L 206.179909 -385.507569 
L 202.57403 -386.06828 
L 198.968152 -386.497237 
L 195.362273 -386.983342 
L 191.756394 -388.332406 
L 188.150515 -385.222752 
L 184.544636 -386.608998 
L 180.938758 -385.207203 
L 177.332879 -385.027684 
L 173.727 -386.581866 
L 170.121121 -387.344584 
L 166.515242 -384.037329 
L 162.909364 -382.393768 
L 159.303485 -381.617093 
L 155.697606 -382.109304 
L 152.091727 -380.020972 
L 148.485848 -381.287894 
L 144.87997 -382.454893 
L 141.274091 -382.822097 
z
" style="stroke: #008000; stroke-opacity: 0.3"/>
    </defs>
    <g clip-path="url(#p4e72ac8697)">
     <use xlink:href="#m8080463f89" x="0" y="432" style="fill: #008000; fill-opacity: 0.3; stroke: #008000; stroke-opacity: 0.3"/>
    </g>
   </g>
   <g id="PolyCollection_3">
    <defs>
     <path id="md2a0d6e4f0" d="M 141.274091 -380.662982 
L 141.274091 -376.691988 
L 144.87997 -378.14282 
L 148.485848 -376.093256 
L 152.091727 -375.954914 
L 155.697606 -378.340183 
L 159.303485 -377.971856 
L 162.909364 -378.919397 
L 166.515242 -377.473093 
L 170.121121 -376.580974 
L 173.727 -378.069606 
L 177.332879 -379.46566 
L 180.938758 -378.830708 
L 184.544636 -377.769683 
L 188.150515 -377.010672 
L 191.756394 -376.920997 
L 195.362273 -378.032805 
L 198.968152 -379.819384 
L 202.57403 -380.390142 
L 206.179909 -379.244395 
L 209.785788 -379.580645 
L 213.391667 -378.537629 
L 216.997545 -378.199711 
L 220.603424 -379.113963 
L 224.209303 -379.019945 
L 227.815182 -379.364834 
L 231.421061 -378.702391 
L 235.026939 -379.133854 
L 238.632818 -378.142521 
L 242.238697 -377.938394 
L 245.844576 -379.664645 
L 249.450455 -377.086949 
L 253.056333 -376.276965 
L 256.662212 -378.067909 
L 260.268091 -378.192273 
L 263.87397 -380.822653 
L 267.479848 -381.195301 
L 271.085727 -375.658821 
L 274.691606 -379.674262 
L 278.297485 -379.018375 
L 281.903364 -378.890092 
L 285.509242 -379.640192 
L 289.115121 -378.467389 
L 292.721 -377.351835 
L 296.326879 -378.982356 
L 299.932758 -378.456819 
L 303.538636 -379.4018 
L 307.144515 -377.810818 
L 310.750394 -378.879397 
L 314.356273 -379.899563 
L 317.962152 -377.287493 
L 321.56803 -376.384057 
L 325.173909 -380.168255 
L 328.779788 -379.934849 
L 332.385667 -380.983223 
L 335.991545 -378.758233 
L 339.597424 -378.013212 
L 343.203303 -379.445703 
L 346.809182 -379.286758 
L 350.415061 -378.043338 
L 354.020939 -378.536621 
L 357.626818 -378.312318 
L 361.232697 -379.719385 
L 364.838576 -377.337827 
L 368.444455 -380.641016 
L 372.050333 -380.059776 
L 375.656212 -377.596152 
L 379.262091 -376.663051 
L 382.86797 -378.369612 
L 386.473848 -380.120909 
L 390.079727 -378.76883 
L 393.685606 -376.963888 
L 397.291485 -377.741629 
L 400.897364 -379.675556 
L 404.503242 -377.278183 
L 408.109121 -376.598654 
L 411.715 -375.112445 
L 415.320879 -377.435474 
L 418.926758 -377.49837 
L 422.532636 -377.243257 
L 426.138515 -379.466714 
L 429.744394 -379.236069 
L 433.350273 -377.901542 
L 436.956152 -378.509137 
L 440.56203 -380.435734 
L 444.167909 -378.94261 
L 447.773788 -377.296566 
L 451.379667 -378.186409 
L 454.985545 -379.205887 
L 458.591424 -379.459166 
L 462.197303 -379.932956 
L 465.803182 -378.789525 
L 469.409061 -379.236621 
L 473.014939 -378.568745 
L 476.620818 -378.429153 
L 480.226697 -378.913338 
L 483.832576 -378.603821 
L 487.438455 -377.367288 
L 491.044333 -379.350142 
L 494.650212 -378.219645 
L 498.256091 -377.319904 
L 501.86197 -378.881472 
L 505.467848 -377.427784 
L 509.073727 -378.362757 
L 512.679606 -377.585798 
L 516.285485 -377.665062 
L 519.891364 -376.098848 
L 523.497242 -377.013682 
L 527.103121 -377.215509 
L 530.709 -378.70795 
L 534.314879 -375.902263 
L 537.920758 -378.860227 
L 541.526636 -376.073486 
L 545.132515 -378.618406 
L 548.738394 -378.51814 
L 552.344273 -379.289612 
L 555.950152 -376.937724 
L 559.55603 -377.939294 
L 563.161909 -378.554743 
L 566.767788 -378.039602 
L 570.373667 -377.718868 
L 573.979545 -377.567268 
L 577.585424 -378.191244 
L 581.191303 -376.482179 
L 584.797182 -376.528806 
L 588.403061 -376.438479 
L 592.008939 -377.315257 
L 595.614818 -375.657395 
L 599.220697 -376.024441 
L 602.826576 -376.460377 
L 606.432455 -375.925038 
L 610.038333 -376.074974 
L 613.644212 -377.618485 
L 617.250091 -376.08132 
L 620.85597 -376.574167 
L 624.461848 -374.324334 
L 628.067727 -377.08012 
L 631.673606 -377.164726 
L 635.279485 -377.954397 
L 638.885364 -375.941918 
L 642.491242 -375.392292 
L 646.097121 -374.576152 
L 649.703 -375.6488 
L 653.308879 -376.577401 
L 656.914758 -377.922155 
L 660.520636 -375.135413 
L 664.126515 -376.677159 
L 667.732394 -376.220576 
L 671.338273 -374.385506 
L 674.944152 -376.602256 
L 678.55003 -377.217204 
L 682.155909 -378.194174 
L 682.155909 -378.628661 
L 682.155909 -378.628661 
L 678.55003 -380.239125 
L 674.944152 -379.283007 
L 671.338273 -380.05539 
L 667.732394 -379.740707 
L 664.126515 -379.005386 
L 660.520636 -380.065676 
L 656.914758 -379.204758 
L 653.308879 -379.56126 
L 649.703 -380.337822 
L 646.097121 -377.254747 
L 642.491242 -379.656758 
L 638.885364 -381.489072 
L 635.279485 -379.197855 
L 631.673606 -380.6717 
L 628.067727 -379.590676 
L 624.461848 -379.20433 
L 620.85597 -379.311097 
L 617.250091 -379.119769 
L 613.644212 -380.598037 
L 610.038333 -378.340582 
L 606.432455 -377.907703 
L 602.826576 -379.095469 
L 599.220697 -379.02461 
L 595.614818 -377.592531 
L 592.008939 -378.620686 
L 588.403061 -380.713773 
L 584.797182 -381.028882 
L 581.191303 -379.681821 
L 577.585424 -379.87324 
L 573.979545 -380.750613 
L 570.373667 -380.218917 
L 566.767788 -379.872843 
L 563.161909 -380.295274 
L 559.55603 -379.770433 
L 555.950152 -378.592782 
L 552.344273 -380.497976 
L 548.738394 -379.799741 
L 545.132515 -381.245201 
L 541.526636 -377.860614 
L 537.920758 -380.141828 
L 534.314879 -380.869893 
L 530.709 -380.268765 
L 527.103121 -381.153052 
L 523.497242 -382.925945 
L 519.891364 -379.026222 
L 516.285485 -379.588549 
L 512.679606 -380.757423 
L 509.073727 -379.473669 
L 505.467848 -382.081066 
L 501.86197 -379.892526 
L 498.256091 -381.454094 
L 494.650212 -379.059306 
L 491.044333 -380.462786 
L 487.438455 -379.379528 
L 483.832576 -381.259787 
L 480.226697 -379.379204 
L 476.620818 -380.927659 
L 473.014939 -381.294862 
L 469.409061 -381.361841 
L 465.803182 -381.45418 
L 462.197303 -381.603076 
L 458.591424 -381.671431 
L 454.985545 -381.316555 
L 451.379667 -380.815647 
L 447.773788 -380.539859 
L 444.167909 -380.135465 
L 440.56203 -380.998939 
L 436.956152 -380.188841 
L 433.350273 -380.771096 
L 429.744394 -381.261033 
L 426.138515 -380.548933 
L 422.532636 -379.275501 
L 418.926758 -380.059318 
L 415.320879 -380.983766 
L 411.715 -380.164664 
L 408.109121 -379.413308 
L 404.503242 -381.343776 
L 400.897364 -379.959994 
L 397.291485 -379.892079 
L 393.685606 -379.098754 
L 390.079727 -382.513805 
L 386.473848 -381.313764 
L 382.86797 -381.417977 
L 379.262091 -382.82046 
L 375.656212 -378.441149 
L 372.050333 -380.310627 
L 368.444455 -381.70589 
L 364.838576 -379.586366 
L 361.232697 -382.095385 
L 357.626818 -380.512359 
L 354.020939 -379.9333 
L 350.415061 -382.96056 
L 346.809182 -383.161507 
L 343.203303 -380.037808 
L 339.597424 -379.848553 
L 335.991545 -379.534309 
L 332.385667 -382.75737 
L 328.779788 -380.511573 
L 325.173909 -382.837485 
L 321.56803 -380.869554 
L 317.962152 -381.410485 
L 314.356273 -383.232875 
L 310.750394 -380.274697 
L 307.144515 -378.63192 
L 303.538636 -379.625595 
L 299.932758 -379.404947 
L 296.326879 -379.386205 
L 292.721 -381.422163 
L 289.115121 -380.585346 
L 285.509242 -380.426134 
L 281.903364 -380.162643 
L 278.297485 -379.958341 
L 274.691606 -380.569442 
L 271.085727 -380.53052 
L 267.479848 -382.900049 
L 263.87397 -382.563183 
L 260.268091 -379.94823 
L 256.662212 -381.795699 
L 253.056333 -378.645387 
L 249.450455 -379.761226 
L 245.844576 -381.136534 
L 242.238697 -380.404827 
L 238.632818 -378.883032 
L 235.026939 -380.400336 
L 231.421061 -380.553062 
L 227.815182 -380.676152 
L 224.209303 -382.896185 
L 220.603424 -381.079062 
L 216.997545 -379.155259 
L 213.391667 -380.844523 
L 209.785788 -381.093835 
L 206.179909 -382.671734 
L 202.57403 -381.399289 
L 198.968152 -381.513931 
L 195.362273 -379.220806 
L 191.756394 -380.281934 
L 188.150515 -380.06556 
L 184.544636 -380.446839 
L 180.938758 -381.134259 
L 177.332879 -381.892994 
L 173.727 -379.817499 
L 170.121121 -379.405648 
L 166.515242 -381.098186 
L 162.909364 -381.222948 
L 159.303485 -381.232918 
L 155.697606 -381.422066 
L 152.091727 -379.043457 
L 148.485848 -380.222784 
L 144.87997 -379.668266 
L 141.274091 -380.662982 
z
" style="stroke: #ff0000; stroke-opacity: 0.3"/>
    </defs>
    <g clip-path="url(#p4e72ac8697)">
     <use xlink:href="#md2a0d6e4f0" x="0" y="432" style="fill: #ff0000; fill-opacity: 0.3; stroke: #ff0000; stroke-opacity: 0.3"/>
    </g>
   </g>
   <g id="PolyCollection_4">
    <defs>
     <path id="m8e03c30384" d="M 141.274091 -382.129728 
L 141.274091 -378.79815 
L 144.87997 -378.805139 
L 148.485848 -377.738421 
L 152.091727 -378.990336 
L 155.697606 -377.72086 
L 159.303485 -376.040038 
L 162.909364 -376.63734 
L 166.515242 -375.396009 
L 170.121121 -375.139758 
L 173.727 -375.349038 
L 177.332879 -376.617833 
L 180.938758 -375.583237 
L 184.544636 -374.5522 
L 188.150515 -374.0792 
L 191.756394 -376.293873 
L 195.362273 -379.153165 
L 198.968152 -375.971383 
L 202.57403 -373.471429 
L 206.179909 -377.392468 
L 209.785788 -377.72807 
L 213.391667 -378.22942 
L 216.997545 -378.401608 
L 220.603424 -377.919437 
L 224.209303 -377.262968 
L 227.815182 -374.80255 
L 231.421061 -376.376836 
L 235.026939 -375.648854 
L 238.632818 -374.855319 
L 242.238697 -373.888913 
L 245.844576 -372.79117 
L 249.450455 -373.350486 
L 253.056333 -372.74075 
L 256.662212 -371.950002 
L 260.268091 -373.429906 
L 263.87397 -374.96297 
L 267.479848 -372.990681 
L 271.085727 -370.307281 
L 274.691606 -367.69129 
L 278.297485 -370.235409 
L 281.903364 -368.302189 
L 285.509242 -366.930064 
L 289.115121 -364.345499 
L 292.721 -363.263612 
L 296.326879 -364.822894 
L 299.932758 -362.355943 
L 303.538636 -359.134901 
L 307.144515 -361.334003 
L 310.750394 -361.61675 
L 314.356273 -361.84488 
L 317.962152 -359.483667 
L 321.56803 -359.666856 
L 325.173909 -357.557474 
L 328.779788 -357.5611 
L 332.385667 -358.115624 
L 335.991545 -356.361071 
L 339.597424 -356.739719 
L 343.203303 -359.639466 
L 346.809182 -359.356782 
L 350.415061 -356.782666 
L 354.020939 -356.993728 
L 357.626818 -356.025495 
L 361.232697 -353.257477 
L 364.838576 -350.779825 
L 368.444455 -351.270674 
L 372.050333 -349.34703 
L 375.656212 -348.10213 
L 379.262091 -348.256606 
L 382.86797 -346.611402 
L 386.473848 -346.081975 
L 390.079727 -345.335784 
L 393.685606 -349.436068 
L 397.291485 -348.313147 
L 400.897364 -346.965331 
L 404.503242 -348.39531 
L 408.109121 -349.286458 
L 411.715 -348.514114 
L 415.320879 -348.181218 
L 418.926758 -347.646577 
L 422.532636 -345.11903 
L 426.138515 -345.104141 
L 429.744394 -342.618634 
L 433.350273 -339.867579 
L 436.956152 -342.790612 
L 440.56203 -340.027353 
L 444.167909 -340.231009 
L 447.773788 -344.993018 
L 451.379667 -343.215414 
L 454.985545 -345.567367 
L 458.591424 -341.351306 
L 462.197303 -340.739387 
L 465.803182 -344.815695 
L 469.409061 -343.931879 
L 473.014939 -343.715677 
L 476.620818 -345.921891 
L 480.226697 -345.624281 
L 483.832576 -345.193015 
L 487.438455 -343.398193 
L 491.044333 -342.989862 
L 494.650212 -340.834424 
L 498.256091 -339.44187 
L 501.86197 -335.595417 
L 505.467848 -337.397064 
L 509.073727 -336.728936 
L 512.679606 -341.20128 
L 516.285485 -339.711616 
L 519.891364 -342.155742 
L 523.497242 -338.626798 
L 527.103121 -342.369349 
L 530.709 -345.463381 
L 534.314879 -348.259189 
L 537.920758 -350.871993 
L 541.526636 -348.076924 
L 545.132515 -352.052132 
L 548.738394 -351.005024 
L 552.344273 -349.901243 
L 555.950152 -351.844374 
L 559.55603 -350.968634 
L 563.161909 -350.98286 
L 566.767788 -353.46651 
L 570.373667 -356.81982 
L 573.979545 -354.392165 
L 577.585424 -354.458862 
L 581.191303 -351.424387 
L 584.797182 -353.296075 
L 588.403061 -353.235266 
L 592.008939 -353.112672 
L 595.614818 -351.706147 
L 599.220697 -353.278238 
L 602.826576 -350.086851 
L 606.432455 -348.945556 
L 610.038333 -345.200175 
L 613.644212 -346.196937 
L 617.250091 -345.869031 
L 620.85597 -343.435147 
L 624.461848 -343.587 
L 628.067727 -341.815341 
L 631.673606 -342.286626 
L 635.279485 -343.844449 
L 638.885364 -340.681093 
L 642.491242 -338.613518 
L 646.097121 -338.871756 
L 649.703 -340.276217 
L 653.308879 -339.342528 
L 656.914758 -335.621446 
L 660.520636 -336.733849 
L 664.126515 -339.595136 
L 667.732394 -337.30986 
L 671.338273 -335.78468 
L 674.944152 -336.240861 
L 678.55003 -339.344846 
L 682.155909 -336.885504 
L 682.155909 -346.578687 
L 682.155909 -346.578687 
L 678.55003 -346.90672 
L 674.944152 -350.922937 
L 671.338273 -353.102223 
L 667.732394 -355.352668 
L 664.126515 -353.447489 
L 660.520636 -351.899656 
L 656.914758 -353.620214 
L 653.308879 -352.965243 
L 649.703 -353.298543 
L 646.097121 -354.525626 
L 642.491242 -352.731342 
L 638.885364 -352.488231 
L 635.279485 -352.289629 
L 631.673606 -355.266478 
L 628.067727 -358.069023 
L 624.461848 -357.86843 
L 620.85597 -357.488148 
L 617.250091 -359.362026 
L 613.644212 -359.819652 
L 610.038333 -357.648943 
L 606.432455 -360.415883 
L 602.826576 -360.288179 
L 599.220697 -362.012708 
L 595.614818 -362.571208 
L 592.008939 -361.139343 
L 588.403061 -361.067429 
L 584.797182 -358.168565 
L 581.191303 -360.749767 
L 577.585424 -363.720818 
L 573.979545 -360.746742 
L 570.373667 -362.753548 
L 566.767788 -361.647058 
L 563.161909 -361.824789 
L 559.55603 -360.217269 
L 555.950152 -362.458321 
L 552.344273 -362.070193 
L 548.738394 -360.560975 
L 545.132515 -358.348238 
L 541.526636 -359.206654 
L 537.920758 -357.374497 
L 534.314879 -358.492254 
L 530.709 -356.017389 
L 527.103121 -354.322204 
L 523.497242 -354.061071 
L 519.891364 -357.855321 
L 516.285485 -355.56091 
L 512.679606 -355.79435 
L 509.073727 -353.93175 
L 505.467848 -352.199352 
L 501.86197 -348.755666 
L 498.256091 -345.542707 
L 494.650212 -343.719377 
L 491.044333 -345.314225 
L 487.438455 -348.453462 
L 483.832576 -349.674073 
L 480.226697 -352.790376 
L 476.620818 -351.960631 
L 473.014939 -351.100732 
L 469.409061 -352.607635 
L 465.803182 -353.674981 
L 462.197303 -356.661679 
L 458.591424 -354.098597 
L 454.985545 -354.975831 
L 451.379667 -354.287011 
L 447.773788 -354.764647 
L 444.167909 -355.598991 
L 440.56203 -351.951002 
L 436.956152 -356.130841 
L 433.350273 -352.440193 
L 429.744394 -350.347971 
L 426.138515 -352.195566 
L 422.532636 -355.474847 
L 418.926758 -355.075842 
L 415.320879 -355.656151 
L 411.715 -354.791119 
L 408.109121 -354.753628 
L 404.503242 -355.822155 
L 400.897364 -355.655728 
L 397.291485 -359.375867 
L 393.685606 -360.508186 
L 390.079727 -362.885365 
L 386.473848 -364.521113 
L 382.86797 -365.410713 
L 379.262091 -364.931139 
L 375.656212 -366.529982 
L 372.050333 -372.025462 
L 368.444455 -367.795898 
L 364.838576 -371.200821 
L 361.232697 -368.267053 
L 357.626818 -368.742527 
L 354.020939 -368.965263 
L 350.415061 -373.027971 
L 346.809182 -372.937152 
L 343.203303 -374.884368 
L 339.597424 -374.9714 
L 335.991545 -374.539175 
L 332.385667 -377.751218 
L 328.779788 -374.555456 
L 325.173909 -375.927429 
L 321.56803 -375.313094 
L 317.962152 -376.281816 
L 314.356273 -374.908854 
L 310.750394 -376.023876 
L 307.144515 -379.271377 
L 303.538636 -375.338254 
L 299.932758 -375.892838 
L 296.326879 -373.451227 
L 292.721 -372.62857 
L 289.115121 -374.004641 
L 285.509242 -373.852694 
L 281.903364 -376.078817 
L 278.297485 -375.057829 
L 274.691606 -377.069813 
L 271.085727 -378.204108 
L 267.479848 -378.434782 
L 263.87397 -380.846274 
L 260.268091 -375.790997 
L 256.662212 -379.728859 
L 253.056333 -379.166169 
L 249.450455 -377.137405 
L 245.844576 -377.77274 
L 242.238697 -378.119365 
L 238.632818 -378.495967 
L 235.026939 -379.906992 
L 231.421061 -379.356388 
L 227.815182 -379.967763 
L 224.209303 -379.002392 
L 220.603424 -381.209317 
L 216.997545 -380.980544 
L 213.391667 -381.431469 
L 209.785788 -381.223306 
L 206.179909 -380.063862 
L 202.57403 -381.324224 
L 198.968152 -382.16912 
L 195.362273 -379.798211 
L 191.756394 -381.669251 
L 188.150515 -380.437716 
L 184.544636 -378.672387 
L 180.938758 -379.491153 
L 177.332879 -378.988693 
L 173.727 -379.90273 
L 170.121121 -378.718323 
L 166.515242 -381.857602 
L 162.909364 -380.464233 
L 159.303485 -378.932993 
L 155.697606 -383.485756 
L 152.091727 -380.189098 
L 148.485848 -381.71975 
L 144.87997 -382.502836 
L 141.274091 -382.129728 
z
" style="stroke: #ffa500; stroke-opacity: 0.3"/>
    </defs>
    <g clip-path="url(#p4e72ac8697)">
     <use xlink:href="#m8e03c30384" x="0" y="432" style="fill: #ffa500; fill-opacity: 0.3; stroke: #ffa500; stroke-opacity: 0.3"/>
    </g>
   </g>
   <g id="matplotlib.axis_1">
    <g id="xtick_1">
     <g id="line2d_1">
      <defs>
       <path id="m6a198d7cf4" d="M 0 0 
L 0 3.5 
" style="stroke: #000000; stroke-width: 0.8"/>
      </defs>
      <g>
       <use xlink:href="#m6a198d7cf4" x="141.274091" y="343.96" style="stroke: #000000; stroke-width: 0.8"/>
      </g>
     </g>
     <g id="text_1">
      <!-- 0 -->
      <g transform="translate(132.366591 372.235625) scale(0.28 -0.28)">
       <defs>
        <path id="DejaVuSans-30" d="M 2034 4250 
Q 1547 4250 1301 3770 
Q 1056 3291 1056 2328 
Q 1056 1369 1301 889 
Q 1547 409 2034 409 
Q 2525 409 2770 889 
Q 3016 1369 3016 2328 
Q 3016 3291 2770 3770 
Q 2525 4250 2034 4250 
z
M 2034 4750 
Q 2819 4750 3233 4129 
Q 3647 3509 3647 2328 
Q 3647 1150 3233 529 
Q 2819 -91 2034 -91 
Q 1250 -91 836 529 
Q 422 1150 422 2328 
Q 422 3509 836 4129 
Q 1250 4750 2034 4750 
z
" transform="scale(0.015625)"/>
       </defs>
       <use xlink:href="#DejaVuSans-30"/>
      </g>
     </g>
    </g>
    <g id="xtick_2">
     <g id="line2d_2">
      <g>
       <use xlink:href="#m6a198d7cf4" x="213.391667" y="343.96" style="stroke: #000000; stroke-width: 0.8"/>
      </g>
     </g>
     <g id="text_2">
      <!-- 20 -->
      <g transform="translate(195.576667 372.235625) scale(0.28 -0.28)">
       <defs>
        <path id="DejaVuSans-32" d="M 1228 531 
L 3431 531 
L 3431 0 
L 469 0 
L 469 531 
Q 828 903 1448 1529 
Q 2069 2156 2228 2338 
Q 2531 2678 2651 2914 
Q 2772 3150 2772 3378 
Q 2772 3750 2511 3984 
Q 2250 4219 1831 4219 
Q 1534 4219 1204 4116 
Q 875 4013 500 3803 
L 500 4441 
Q 881 4594 1212 4672 
Q 1544 4750 1819 4750 
Q 2544 4750 2975 4387 
Q 3406 4025 3406 3419 
Q 3406 3131 3298 2873 
Q 3191 2616 2906 2266 
Q 2828 2175 2409 1742 
Q 1991 1309 1228 531 
z
" transform="scale(0.015625)"/>
       </defs>
       <use xlink:href="#DejaVuSans-32"/>
       <use xlink:href="#DejaVuSans-30" x="63.623047"/>
      </g>
     </g>
    </g>
    <g id="xtick_3">
     <g id="line2d_3">
      <g>
       <use xlink:href="#m6a198d7cf4" x="285.509242" y="343.96" style="stroke: #000000; stroke-width: 0.8"/>
      </g>
     </g>
     <g id="text_3">
      <!-- 40 -->
      <g transform="translate(267.694242 372.235625) scale(0.28 -0.28)">
       <defs>
        <path id="DejaVuSans-34" d="M 2419 4116 
L 825 1625 
L 2419 1625 
L 2419 4116 
z
M 2253 4666 
L 3047 4666 
L 3047 1625 
L 3713 1625 
L 3713 1100 
L 3047 1100 
L 3047 0 
L 2419 0 
L 2419 1100 
L 313 1100 
L 313 1709 
L 2253 4666 
z
" transform="scale(0.015625)"/>
       </defs>
       <use xlink:href="#DejaVuSans-34"/>
       <use xlink:href="#DejaVuSans-30" x="63.623047"/>
      </g>
     </g>
    </g>
    <g id="xtick_4">
     <g id="line2d_4">
      <g>
       <use xlink:href="#m6a198d7cf4" x="357.626818" y="343.96" style="stroke: #000000; stroke-width: 0.8"/>
      </g>
     </g>
     <g id="text_4">
      <!-- 60 -->
      <g transform="translate(339.811818 372.235625) scale(0.28 -0.28)">
       <defs>
        <path id="DejaVuSans-36" d="M 2113 2584 
Q 1688 2584 1439 2293 
Q 1191 2003 1191 1497 
Q 1191 994 1439 701 
Q 1688 409 2113 409 
Q 2538 409 2786 701 
Q 3034 994 3034 1497 
Q 3034 2003 2786 2293 
Q 2538 2584 2113 2584 
z
M 3366 4563 
L 3366 3988 
Q 3128 4100 2886 4159 
Q 2644 4219 2406 4219 
Q 1781 4219 1451 3797 
Q 1122 3375 1075 2522 
Q 1259 2794 1537 2939 
Q 1816 3084 2150 3084 
Q 2853 3084 3261 2657 
Q 3669 2231 3669 1497 
Q 3669 778 3244 343 
Q 2819 -91 2113 -91 
Q 1303 -91 875 529 
Q 447 1150 447 2328 
Q 447 3434 972 4092 
Q 1497 4750 2381 4750 
Q 2619 4750 2861 4703 
Q 3103 4656 3366 4563 
z
" transform="scale(0.015625)"/>
       </defs>
       <use xlink:href="#DejaVuSans-36"/>
       <use xlink:href="#DejaVuSans-30" x="63.623047"/>
      </g>
     </g>
    </g>
    <g id="xtick_5">
     <g id="line2d_5">
      <g>
       <use xlink:href="#m6a198d7cf4" x="429.744394" y="343.96" style="stroke: #000000; stroke-width: 0.8"/>
      </g>
     </g>
     <g id="text_5">
      <!-- 80 -->
      <g transform="translate(411.929394 372.235625) scale(0.28 -0.28)">
       <defs>
        <path id="DejaVuSans-38" d="M 2034 2216 
Q 1584 2216 1326 1975 
Q 1069 1734 1069 1313 
Q 1069 891 1326 650 
Q 1584 409 2034 409 
Q 2484 409 2743 651 
Q 3003 894 3003 1313 
Q 3003 1734 2745 1975 
Q 2488 2216 2034 2216 
z
M 1403 2484 
Q 997 2584 770 2862 
Q 544 3141 544 3541 
Q 544 4100 942 4425 
Q 1341 4750 2034 4750 
Q 2731 4750 3128 4425 
Q 3525 4100 3525 3541 
Q 3525 3141 3298 2862 
Q 3072 2584 2669 2484 
Q 3125 2378 3379 2068 
Q 3634 1759 3634 1313 
Q 3634 634 3220 271 
Q 2806 -91 2034 -91 
Q 1263 -91 848 271 
Q 434 634 434 1313 
Q 434 1759 690 2068 
Q 947 2378 1403 2484 
z
M 1172 3481 
Q 1172 3119 1398 2916 
Q 1625 2713 2034 2713 
Q 2441 2713 2670 2916 
Q 2900 3119 2900 3481 
Q 2900 3844 2670 4047 
Q 2441 4250 2034 4250 
Q 1625 4250 1398 4047 
Q 1172 3844 1172 3481 
z
" transform="scale(0.015625)"/>
       </defs>
       <use xlink:href="#DejaVuSans-38"/>
       <use xlink:href="#DejaVuSans-30" x="63.623047"/>
      </g>
     </g>
    </g>
    <g id="xtick_6">
     <g id="line2d_6">
      <g>
       <use xlink:href="#m6a198d7cf4" x="501.86197" y="343.96" style="stroke: #000000; stroke-width: 0.8"/>
      </g>
     </g>
     <g id="text_6">
      <!-- 100 -->
      <g transform="translate(475.13947 372.235625) scale(0.28 -0.28)">
       <defs>
        <path id="DejaVuSans-31" d="M 794 531 
L 1825 531 
L 1825 4091 
L 703 3866 
L 703 4441 
L 1819 4666 
L 2450 4666 
L 2450 531 
L 3481 531 
L 3481 0 
L 794 0 
L 794 531 
z
" transform="scale(0.015625)"/>
       </defs>
       <use xlink:href="#DejaVuSans-31"/>
       <use xlink:href="#DejaVuSans-30" x="63.623047"/>
       <use xlink:href="#DejaVuSans-30" x="127.246094"/>
      </g>
     </g>
    </g>
    <g id="xtick_7">
     <g id="line2d_7">
      <g>
       <use xlink:href="#m6a198d7cf4" x="573.979545" y="343.96" style="stroke: #000000; stroke-width: 0.8"/>
      </g>
     </g>
     <g id="text_7">
      <!-- 120 -->
      <g transform="translate(547.257045 372.235625) scale(0.28 -0.28)">
       <use xlink:href="#DejaVuSans-31"/>
       <use xlink:href="#DejaVuSans-32" x="63.623047"/>
       <use xlink:href="#DejaVuSans-30" x="127.246094"/>
      </g>
     </g>
    </g>
    <g id="xtick_8">
     <g id="line2d_8">
      <g>
       <use xlink:href="#m6a198d7cf4" x="646.097121" y="343.96" style="stroke: #000000; stroke-width: 0.8"/>
      </g>
     </g>
     <g id="text_8">
      <!-- 140 -->
      <g transform="translate(619.374621 372.235625) scale(0.28 -0.28)">
       <use xlink:href="#DejaVuSans-31"/>
       <use xlink:href="#DejaVuSans-34" x="63.623047"/>
       <use xlink:href="#DejaVuSans-30" x="127.246094"/>
      </g>
     </g>
    </g>
    <g id="text_9">
     <!-- Episode -->
     <g transform="translate(333.165 412.4525) scale(0.4 -0.4)">
      <defs>
       <path id="DejaVuSans-45" d="M 628 4666 
L 3578 4666 
L 3578 4134 
L 1259 4134 
L 1259 2753 
L 3481 2753 
L 3481 2222 
L 1259 2222 
L 1259 531 
L 3634 531 
L 3634 0 
L 628 0 
L 628 4666 
z
" transform="scale(0.015625)"/>
       <path id="DejaVuSans-70" d="M 1159 525 
L 1159 -1331 
L 581 -1331 
L 581 3500 
L 1159 3500 
L 1159 2969 
Q 1341 3281 1617 3432 
Q 1894 3584 2278 3584 
Q 2916 3584 3314 3078 
Q 3713 2572 3713 1747 
Q 3713 922 3314 415 
Q 2916 -91 2278 -91 
Q 1894 -91 1617 61 
Q 1341 213 1159 525 
z
M 3116 1747 
Q 3116 2381 2855 2742 
Q 2594 3103 2138 3103 
Q 1681 3103 1420 2742 
Q 1159 2381 1159 1747 
Q 1159 1113 1420 752 
Q 1681 391 2138 391 
Q 2594 391 2855 752 
Q 3116 1113 3116 1747 
z
" transform="scale(0.015625)"/>
       <path id="DejaVuSans-69" d="M 603 3500 
L 1178 3500 
L 1178 0 
L 603 0 
L 603 3500 
z
M 603 4863 
L 1178 4863 
L 1178 4134 
L 603 4134 
L 603 4863 
z
" transform="scale(0.015625)"/>
       <path id="DejaVuSans-73" d="M 2834 3397 
L 2834 2853 
Q 2591 2978 2328 3040 
Q 2066 3103 1784 3103 
Q 1356 3103 1142 2972 
Q 928 2841 928 2578 
Q 928 2378 1081 2264 
Q 1234 2150 1697 2047 
L 1894 2003 
Q 2506 1872 2764 1633 
Q 3022 1394 3022 966 
Q 3022 478 2636 193 
Q 2250 -91 1575 -91 
Q 1294 -91 989 -36 
Q 684 19 347 128 
L 347 722 
Q 666 556 975 473 
Q 1284 391 1588 391 
Q 1994 391 2212 530 
Q 2431 669 2431 922 
Q 2431 1156 2273 1281 
Q 2116 1406 1581 1522 
L 1381 1569 
Q 847 1681 609 1914 
Q 372 2147 372 2553 
Q 372 3047 722 3315 
Q 1072 3584 1716 3584 
Q 2034 3584 2315 3537 
Q 2597 3491 2834 3397 
z
" transform="scale(0.015625)"/>
       <path id="DejaVuSans-6f" d="M 1959 3097 
Q 1497 3097 1228 2736 
Q 959 2375 959 1747 
Q 959 1119 1226 758 
Q 1494 397 1959 397 
Q 2419 397 2687 759 
Q 2956 1122 2956 1747 
Q 2956 2369 2687 2733 
Q 2419 3097 1959 3097 
z
M 1959 3584 
Q 2709 3584 3137 3096 
Q 3566 2609 3566 1747 
Q 3566 888 3137 398 
Q 2709 -91 1959 -91 
Q 1206 -91 779 398 
Q 353 888 353 1747 
Q 353 2609 779 3096 
Q 1206 3584 1959 3584 
z
" transform="scale(0.015625)"/>
       <path id="DejaVuSans-64" d="M 2906 2969 
L 2906 4863 
L 3481 4863 
L 3481 0 
L 2906 0 
L 2906 525 
Q 2725 213 2448 61 
Q 2172 -91 1784 -91 
Q 1150 -91 751 415 
Q 353 922 353 1747 
Q 353 2572 751 3078 
Q 1150 3584 1784 3584 
Q 2172 3584 2448 3432 
Q 2725 3281 2906 2969 
z
M 947 1747 
Q 947 1113 1208 752 
Q 1469 391 1925 391 
Q 2381 391 2643 752 
Q 2906 1113 2906 1747 
Q 2906 2381 2643 2742 
Q 2381 3103 1925 3103 
Q 1469 3103 1208 2742 
Q 947 2381 947 1747 
z
" transform="scale(0.015625)"/>
       <path id="DejaVuSans-65" d="M 3597 1894 
L 3597 1613 
L 953 1613 
Q 991 1019 1311 708 
Q 1631 397 2203 397 
Q 2534 397 2845 478 
Q 3156 559 3463 722 
L 3463 178 
Q 3153 47 2828 -22 
Q 2503 -91 2169 -91 
Q 1331 -91 842 396 
Q 353 884 353 1716 
Q 353 2575 817 3079 
Q 1281 3584 2069 3584 
Q 2775 3584 3186 3129 
Q 3597 2675 3597 1894 
z
M 3022 2063 
Q 3016 2534 2758 2815 
Q 2500 3097 2075 3097 
Q 1594 3097 1305 2825 
Q 1016 2553 972 2059 
L 3022 2063 
z
" transform="scale(0.015625)"/>
      </defs>
      <use xlink:href="#DejaVuSans-45"/>
      <use xlink:href="#DejaVuSans-70" x="63.183594"/>
      <use xlink:href="#DejaVuSans-69" x="126.660156"/>
      <use xlink:href="#DejaVuSans-73" x="154.443359"/>
      <use xlink:href="#DejaVuSans-6f" x="206.542969"/>
      <use xlink:href="#DejaVuSans-64" x="267.724609"/>
      <use xlink:href="#DejaVuSans-65" x="331.201172"/>
     </g>
    </g>
   </g>
   <g id="matplotlib.axis_2">
    <g id="ytick_1">
     <g id="line2d_9">
      <defs>
       <path id="m2f6cc91cc1" d="M 0 0 
L -3.5 0 
" style="stroke: #000000; stroke-width: 0.8"/>
      </defs>
      <g>
       <use xlink:href="#m2f6cc91cc1" x="114.23" y="314.106793" style="stroke: #000000; stroke-width: 0.8"/>
      </g>
     </g>
     <g id="text_10">
      <!-- 75 -->
      <g transform="translate(71.6 324.744606) scale(0.28 -0.28)">
       <defs>
        <path id="DejaVuSans-37" d="M 525 4666 
L 3525 4666 
L 3525 4397 
L 1831 0 
L 1172 0 
L 2766 4134 
L 525 4134 
L 525 4666 
z
" transform="scale(0.015625)"/>
        <path id="DejaVuSans-35" d="M 691 4666 
L 3169 4666 
L 3169 4134 
L 1269 4134 
L 1269 2991 
Q 1406 3038 1543 3061 
Q 1681 3084 1819 3084 
Q 2600 3084 3056 2656 
Q 3513 2228 3513 1497 
Q 3513 744 3044 326 
Q 2575 -91 1722 -91 
Q 1428 -91 1123 -41 
Q 819 9 494 109 
L 494 744 
Q 775 591 1075 516 
Q 1375 441 1709 441 
Q 2250 441 2565 725 
Q 2881 1009 2881 1497 
Q 2881 1984 2565 2268 
Q 2250 2553 1709 2553 
Q 1456 2553 1204 2497 
Q 953 2441 691 2322 
L 691 4666 
z
" transform="scale(0.015625)"/>
       </defs>
       <use xlink:href="#DejaVuSans-37"/>
       <use xlink:href="#DejaVuSans-35" x="63.623047"/>
      </g>
     </g>
    </g>
    <g id="ytick_2">
     <g id="line2d_10">
      <g>
       <use xlink:href="#m2f6cc91cc1" x="114.23" y="276.097133" style="stroke: #000000; stroke-width: 0.8"/>
      </g>
     </g>
     <g id="text_11">
      <!-- 100 -->
      <g transform="translate(53.785 286.734945) scale(0.28 -0.28)">
       <use xlink:href="#DejaVuSans-31"/>
       <use xlink:href="#DejaVuSans-30" x="63.623047"/>
       <use xlink:href="#DejaVuSans-30" x="127.246094"/>
      </g>
     </g>
    </g>
    <g id="ytick_3">
     <g id="line2d_11">
      <g>
       <use xlink:href="#m2f6cc91cc1" x="114.23" y="238.087473" style="stroke: #000000; stroke-width: 0.8"/>
      </g>
     </g>
     <g id="text_12">
      <!-- 125 -->
      <g transform="translate(53.785 248.725285) scale(0.28 -0.28)">
       <use xlink:href="#DejaVuSans-31"/>
       <use xlink:href="#DejaVuSans-32" x="63.623047"/>
       <use xlink:href="#DejaVuSans-35" x="127.246094"/>
      </g>
     </g>
    </g>
    <g id="ytick_4">
     <g id="line2d_12">
      <g>
       <use xlink:href="#m2f6cc91cc1" x="114.23" y="200.077813" style="stroke: #000000; stroke-width: 0.8"/>
      </g>
     </g>
     <g id="text_13">
      <!-- 150 -->
      <g transform="translate(53.785 210.715625) scale(0.28 -0.28)">
       <use xlink:href="#DejaVuSans-31"/>
       <use xlink:href="#DejaVuSans-35" x="63.623047"/>
       <use xlink:href="#DejaVuSans-30" x="127.246094"/>
      </g>
     </g>
    </g>
    <g id="ytick_5">
     <g id="line2d_13">
      <g>
       <use xlink:href="#m2f6cc91cc1" x="114.23" y="162.068153" style="stroke: #000000; stroke-width: 0.8"/>
      </g>
     </g>
     <g id="text_14">
      <!-- 175 -->
      <g transform="translate(53.785 172.705965) scale(0.28 -0.28)">
       <use xlink:href="#DejaVuSans-31"/>
       <use xlink:href="#DejaVuSans-37" x="63.623047"/>
       <use xlink:href="#DejaVuSans-35" x="127.246094"/>
      </g>
     </g>
    </g>
    <g id="ytick_6">
     <g id="line2d_14">
      <g>
       <use xlink:href="#m2f6cc91cc1" x="114.23" y="124.058492" style="stroke: #000000; stroke-width: 0.8"/>
      </g>
     </g>
     <g id="text_15">
      <!-- 200 -->
      <g transform="translate(53.785 134.696305) scale(0.28 -0.28)">
       <use xlink:href="#DejaVuSans-32"/>
       <use xlink:href="#DejaVuSans-30" x="63.623047"/>
       <use xlink:href="#DejaVuSans-30" x="127.246094"/>
      </g>
     </g>
    </g>
    <g id="ytick_7">
     <g id="line2d_15">
      <g>
       <use xlink:href="#m2f6cc91cc1" x="114.23" y="86.048832" style="stroke: #000000; stroke-width: 0.8"/>
      </g>
     </g>
     <g id="text_16">
      <!-- 225 -->
      <g transform="translate(53.785 96.686645) scale(0.28 -0.28)">
       <use xlink:href="#DejaVuSans-32"/>
       <use xlink:href="#DejaVuSans-32" x="63.623047"/>
       <use xlink:href="#DejaVuSans-35" x="127.246094"/>
      </g>
     </g>
    </g>
    <g id="ytick_8">
     <g id="line2d_16">
      <g>
       <use xlink:href="#m2f6cc91cc1" x="114.23" y="48.039172" style="stroke: #000000; stroke-width: 0.8"/>
      </g>
     </g>
     <g id="text_17">
      <!-- 250 -->
      <g transform="translate(53.785 58.676985) scale(0.28 -0.28)">
       <use xlink:href="#DejaVuSans-32"/>
       <use xlink:href="#DejaVuSans-35" x="63.623047"/>
       <use xlink:href="#DejaVuSans-30" x="127.246094"/>
      </g>
     </g>
    </g>
    <g id="text_18">
     <!-- $m_{to}$ -->
     <g transform="translate(41.46625 211.58) rotate(-90) scale(0.4 -0.4)">
      <defs>
       <path id="DejaVuSans-Oblique-6d" d="M 5747 2113 
L 5338 0 
L 4763 0 
L 5166 2094 
Q 5191 2228 5203 2325 
Q 5216 2422 5216 2491 
Q 5216 2772 5059 2928 
Q 4903 3084 4622 3084 
Q 4203 3084 3875 2770 
Q 3547 2456 3450 1953 
L 3066 0 
L 2491 0 
L 2900 2094 
Q 2925 2209 2937 2307 
Q 2950 2406 2950 2484 
Q 2950 2769 2794 2926 
Q 2638 3084 2363 3084 
Q 1938 3084 1609 2770 
Q 1281 2456 1184 1953 
L 800 0 
L 225 0 
L 909 3500 
L 1484 3500 
L 1375 2956 
Q 1609 3263 1923 3423 
Q 2238 3584 2597 3584 
Q 2978 3584 3223 3384 
Q 3469 3184 3519 2828 
Q 3781 3197 4126 3390 
Q 4472 3584 4856 3584 
Q 5306 3584 5551 3325 
Q 5797 3066 5797 2591 
Q 5797 2488 5784 2364 
Q 5772 2241 5747 2113 
z
" transform="scale(0.015625)"/>
       <path id="DejaVuSans-Oblique-74" d="M 2706 3500 
L 2619 3053 
L 1472 3053 
L 1100 1153 
Q 1081 1047 1072 975 
Q 1063 903 1063 863 
Q 1063 663 1183 572 
Q 1303 481 1569 481 
L 2150 481 
L 2053 0 
L 1503 0 
Q 991 0 739 200 
Q 488 400 488 806 
Q 488 878 497 964 
Q 506 1050 525 1153 
L 897 3053 
L 409 3053 
L 500 3500 
L 978 3500 
L 1172 4494 
L 1747 4494 
L 1556 3500 
L 2706 3500 
z
" transform="scale(0.015625)"/>
       <path id="DejaVuSans-Oblique-6f" d="M 1625 -91 
Q 1009 -91 651 289 
Q 294 669 294 1325 
Q 294 1706 417 2101 
Q 541 2497 738 2766 
Q 1047 3184 1428 3384 
Q 1809 3584 2291 3584 
Q 2888 3584 3255 3212 
Q 3622 2841 3622 2241 
Q 3622 1825 3500 1412 
Q 3378 1000 3181 728 
Q 2875 309 2494 109 
Q 2113 -91 1625 -91 
z
M 891 1344 
Q 891 869 1089 633 
Q 1288 397 1691 397 
Q 2269 397 2648 901 
Q 3028 1406 3028 2181 
Q 3028 2634 2825 2865 
Q 2622 3097 2228 3097 
Q 1903 3097 1650 2945 
Q 1397 2794 1197 2484 
Q 1050 2253 970 1956 
Q 891 1659 891 1344 
z
" transform="scale(0.015625)"/>
      </defs>
      <use xlink:href="#DejaVuSans-Oblique-6d"/>
      <use xlink:href="#DejaVuSans-Oblique-74" transform="translate(97.412109 -16.40625) scale(0.7)"/>
      <use xlink:href="#DejaVuSans-Oblique-6f" transform="translate(124.858398 -16.40625) scale(0.7)"/>
     </g>
    </g>
   </g>
   <g id="line2d_17">
    <path d="M 141.274091 139.465075 
L 144.87997 142.23978 
L 148.485848 141.961042 
L 152.091727 145.711329 
L 155.697606 149.106858 
L 159.303485 148.536714 
L 162.909364 152.527728 
L 166.515242 151.754865 
L 170.121121 153.43996 
L 173.727 154.618259 
L 177.332879 159.166749 
L 180.938758 160.535096 
L 184.544636 164.830188 
L 188.150515 166.578632 
L 191.756394 170.354258 
L 195.362273 176.815901 
L 198.968152 175.72629 
L 202.57403 177.804152 
L 206.179909 178.424976 
L 209.785788 178.05755 
L 213.391667 178.855752 
L 220.603424 178.412306 
L 224.209303 178.931772 
L 227.815182 181.630458 
L 231.421061 183.492931 
L 235.026939 181.871186 
L 238.632818 183.961717 
L 242.238697 184.151765 
L 245.844576 187.319237 
L 249.450455 186.432345 
L 253.056333 188.294818 
L 256.662212 187.129188 
L 260.268091 190.372679 
L 263.87397 188.168119 
L 267.479848 190.410689 
L 271.085727 185.418754 
L 274.691606 188.788944 
L 278.297485 187.445936 
L 281.903364 186.812441 
L 285.509242 188.573556 
L 289.115121 190.537388 
L 292.721 195.149227 
L 296.326879 195.415294 
L 299.932758 192.285832 
L 303.538636 195.491314 
L 307.144515 196.745633 
L 310.750394 198.15199 
L 314.356273 199.685046 
L 317.962152 203.435333 
L 321.56803 202.865188 
L 328.779788 202.028975 
L 332.385667 203.72674 
L 335.991545 203.181935 
L 339.597424 202.333053 
L 343.203303 202.675139 
L 346.809182 203.72674 
L 350.415061 206.856202 
L 357.626818 211.784788 
L 361.232697 209.643577 
L 364.838576 211.911487 
L 368.444455 209.972994 
L 372.050333 211.011925 
L 379.262091 217.220169 
L 382.86797 216.650025 
L 386.473848 216.650025 
L 390.079727 211.860807 
L 393.685606 209.504208 
L 397.291485 212.975757 
L 400.897364 214.711532 
L 404.503242 216.219248 
L 408.109121 217.422888 
L 411.715 225.544285 
L 415.320879 225.797683 
L 418.926758 230.890977 
L 422.532636 235.768884 
L 426.138515 236.17432 
L 429.744394 236.845824 
L 433.350273 239.797908 
L 436.956152 243.877611 
L 440.56203 246.474938 
L 444.167909 250.060516 
L 447.773788 249.59173 
L 451.379667 254.520316 
L 454.985545 257.206332 
L 458.591424 260.399143 
L 462.197303 261.666132 
L 465.803182 264.09875 
L 469.409061 269.559471 
L 473.014939 273.005681 
L 476.620818 276.933345 
L 480.226697 279.581352 
L 483.832576 280.746981 
L 487.438455 278.605771 
L 491.044333 280.569603 
L 494.650212 283.12892 
L 501.86197 290.819541 
L 505.467848 293.910994 
L 509.073727 295.722787 
L 512.679606 292.365267 
L 516.285485 292.998762 
L 519.891364 293.822304 
L 523.497242 296.140894 
L 527.103121 297.458562 
L 530.709 301.981712 
L 534.314879 302.260449 
L 537.920758 299.105647 
L 541.526636 302.881273 
L 545.132515 303.400739 
L 548.738394 304.680397 
L 552.344273 308.189956 
L 555.950152 305.427921 
L 559.55603 308.532043 
L 563.161909 311.965582 
L 566.767788 308.367334 
L 570.373667 308.265975 
L 573.979545 308.962819 
L 577.585424 309.342916 
L 581.191303 310.723933 
L 584.797182 311.927573 
L 588.403061 311.990922 
L 592.008939 312.941164 
L 595.614818 312.383688 
L 599.220697 313.118542 
L 602.826576 311.826213 
L 606.432455 310.913982 
L 610.038333 310.749273 
L 613.644212 315.107714 
L 617.250091 315.779218 
L 620.85597 317.971109 
L 628.067727 320.619115 
L 631.673606 319.744893 
L 635.279485 318.173827 
L 638.885364 320.06164 
L 642.491242 320.859843 
L 646.097121 321.797414 
L 649.703 321.936783 
L 653.308879 322.468918 
L 656.914758 321.467997 
L 660.520636 321.759405 
L 664.126515 319.390136 
L 667.732394 320.479746 
L 671.338273 318.376545 
L 674.944152 322.772996 
L 678.55003 323.558529 
L 682.155909 325.002896 
L 682.155909 325.002896 
" clip-path="url(#p4e72ac8697)" style="fill: none; stroke: #0000ff; stroke-width: 3; stroke-linecap: square"/>
   </g>
   <g id="line2d_18">
    <path d="M 141.274091 51.700769 
L 144.87997 52.473633 
L 148.485848 54.019359 
L 152.091727 54.830231 
L 155.697606 53.575913 
L 159.303485 54.513484 
L 162.909364 53.956009 
L 166.515242 54.95693 
L 170.121121 52.71436 
L 177.332879 52.498972 
L 180.938758 53.689942 
L 184.544636 52.232905 
L 188.150515 52.828389 
L 191.756394 49.331501 
L 195.362273 51.231984 
L 198.968152 52.004847 
L 202.57403 52.258244 
L 206.179909 54.006689 
L 209.785788 52.372273 
L 213.391667 53.094457 
L 216.997545 55.501735 
L 220.603424 54.095378 
L 224.209303 54.158727 
L 231.421061 52.77771 
L 235.026939 50.788538 
L 238.632818 50.041014 
L 242.238697 49.622908 
L 245.844576 50.395771 
L 249.450455 51.63742 
L 253.056333 52.701691 
L 256.662212 53.436544 
L 260.268091 51.66276 
L 263.87397 54.184067 
L 267.479848 54.361446 
L 271.085727 55.134309 
L 274.691606 53.360525 
L 278.297485 53.575913 
L 281.903364 53.119797 
L 285.509242 53.639262 
L 289.115121 53.968679 
L 292.721 54.437465 
L 296.326879 53.347855 
L 299.932758 54.196737 
L 303.538636 56.705375 
L 307.144515 55.641104 
L 310.750394 53.765961 
L 314.356273 54.728872 
L 317.962152 52.689021 
L 321.56803 52.182225 
L 328.779788 53.297175 
L 335.991545 56.832074 
L 339.597424 56.249259 
L 343.203303 58.795906 
L 346.809182 56.223919 
L 350.415061 57.921684 
L 354.020939 56.591346 
L 357.626818 56.287268 
L 361.232697 56.578676 
L 364.838576 55.793143 
L 368.444455 54.006689 
L 372.050333 53.740621 
L 375.656212 55.641104 
L 379.262091 52.106206 
L 382.86797 54.538824 
L 386.473848 54.032029 
L 390.079727 54.450135 
L 393.685606 52.79038 
L 397.291485 54.779552 
L 400.897364 53.183146 
L 404.503242 54.247417 
L 408.109121 53.208486 
L 411.715 55.00761 
L 415.320879 56.185909 
L 418.926758 57.566927 
L 422.532636 57.794985 
L 426.138515 57.28819 
L 429.744394 57.528917 
L 433.350273 56.705375 
L 436.956152 57.123481 
L 440.56203 58.441149 
L 444.167909 60.354302 
L 451.379667 56.958772 
L 454.985545 55.096299 
L 458.591424 55.311687 
L 462.197303 53.981349 
L 465.803182 55.628434 
L 469.409061 54.652853 
L 473.014939 54.146058 
L 476.620818 54.716202 
L 480.226697 54.538824 
L 483.832576 55.869162 
L 491.044333 55.286347 
L 494.650212 54.095378 
L 498.256091 54.94426 
L 501.86197 53.259166 
L 509.073727 52.321594 
L 512.679606 49.36951 
L 516.285485 51.079945 
L 519.891364 51.738779 
L 523.497242 49.977665 
L 527.103121 48.875385 
L 530.709 46.176699 
L 534.314879 44.567623 
L 537.920758 46.02466 
L 541.526636 44.833691 
L 545.132515 46.784853 
L 548.738394 46.784853 
L 555.950152 43.731411 
L 559.55603 41.476171 
L 563.161909 41.096074 
L 566.767788 39.981124 
L 570.373667 39.525008 
L 573.979545 41.273453 
L 577.585424 40.361221 
L 584.797182 40.969375 
L 588.403061 40.120493 
L 592.008939 42.65447 
L 595.614818 40.145833 
L 599.220697 40.196512 
L 602.826576 38.25802 
L 606.432455 39.639037 
L 610.038333 39.474329 
L 613.644212 40.082483 
L 617.250091 41.52685 
L 624.461848 40.576609 
L 628.067727 39.930445 
L 631.673606 39.664377 
L 635.279485 37.244429 
L 638.885364 36.750303 
L 642.491242 38.600107 
L 646.097121 36.116809 
L 649.703 36.953021 
L 653.308879 38.372049 
L 656.914758 34.013608 
L 660.520636 37.599186 
L 664.126515 37.14307 
L 667.732394 34.951179 
L 671.338273 37.07972 
L 674.944152 33.468802 
L 678.55003 36.142149 
L 682.155909 34.989189 
L 682.155909 34.989189 
" clip-path="url(#p4e72ac8697)" style="fill: none; stroke: #008000; stroke-width: 3; stroke-linecap: square"/>
   </g>
   <g id="line2d_19">
    <path d="M 141.274091 53.322515 
L 144.87997 53.094457 
L 152.091727 54.500814 
L 155.697606 52.118876 
L 159.303485 52.397613 
L 162.909364 51.928827 
L 166.515242 52.71436 
L 170.121121 54.006689 
L 173.727 53.056447 
L 177.332879 51.320673 
L 180.938758 52.017517 
L 184.544636 52.891739 
L 188.150515 53.461884 
L 195.362273 53.373195 
L 198.968152 51.333343 
L 202.57403 51.105285 
L 206.179909 51.041935 
L 213.391667 52.308924 
L 216.997545 53.322515 
L 220.603424 51.903488 
L 224.209303 51.041935 
L 227.815182 51.979507 
L 231.421061 52.372273 
L 235.026939 52.232905 
L 238.632818 53.487223 
L 242.238697 52.828389 
L 245.844576 51.59941 
L 249.450455 53.575913 
L 253.056333 54.538824 
L 256.662212 52.068196 
L 260.268091 52.929748 
L 263.87397 50.307082 
L 267.479848 49.952325 
L 271.085727 53.90533 
L 274.691606 51.878148 
L 278.297485 52.511642 
L 281.903364 52.473633 
L 285.509242 51.966837 
L 289.115121 52.473633 
L 296.326879 52.815719 
L 299.932758 53.069117 
L 303.538636 52.486302 
L 307.144515 53.778631 
L 310.750394 52.422953 
L 314.356273 50.433781 
L 317.962152 52.651011 
L 321.56803 53.373195 
L 325.173909 50.49713 
L 328.779788 51.776789 
L 332.385667 50.129704 
L 335.991545 52.853729 
L 339.597424 53.069117 
L 343.203303 52.258244 
L 346.809182 50.775868 
L 350.415061 51.498051 
L 354.020939 52.76504 
L 357.626818 52.587662 
L 361.232697 51.092615 
L 364.838576 53.537903 
L 368.444455 50.826547 
L 372.050333 51.814798 
L 375.656212 53.981349 
L 379.262091 52.258244 
L 382.86797 52.106206 
L 386.473848 51.282663 
L 390.079727 51.358683 
L 393.685606 53.968679 
L 397.291485 53.183146 
L 400.897364 52.182225 
L 404.503242 52.689021 
L 408.109121 53.994019 
L 411.715 54.361446 
L 415.320879 52.79038 
L 422.532636 53.740621 
L 426.138515 51.992177 
L 429.744394 51.751449 
L 433.350273 52.663681 
L 436.956152 52.651011 
L 440.56203 51.282663 
L 444.167909 52.460963 
L 447.773788 53.081787 
L 451.379667 52.498972 
L 454.985545 51.738779 
L 462.197303 51.231984 
L 465.803182 51.878148 
L 469.409061 51.700769 
L 473.014939 52.068196 
L 476.620818 52.321594 
L 480.226697 52.853729 
L 483.832576 52.068196 
L 487.438455 53.626592 
L 491.044333 52.093536 
L 494.650212 53.360525 
L 498.256091 52.613001 
L 501.86197 52.613001 
L 505.467848 52.245575 
L 509.073727 53.081787 
L 512.679606 52.828389 
L 516.285485 53.373195 
L 519.891364 54.437465 
L 523.497242 52.030187 
L 527.103121 52.815719 
L 530.709 52.511642 
L 534.314879 53.613922 
L 537.920758 52.498972 
L 541.526636 55.03295 
L 545.132515 52.068196 
L 548.738394 52.841059 
L 552.344273 52.106206 
L 555.950152 54.234747 
L 559.55603 53.145137 
L 563.161909 52.574992 
L 566.767788 53.043777 
L 570.373667 53.031108 
L 573.979545 52.841059 
L 577.585424 52.967758 
L 581.191303 53.918 
L 584.797182 53.221156 
L 588.403061 53.423874 
L 592.008939 54.032029 
L 595.614818 55.375037 
L 599.220697 54.475475 
L 602.826576 54.222077 
L 606.432455 55.083629 
L 610.038333 54.792222 
L 613.644212 52.891739 
L 617.250091 54.399455 
L 620.85597 54.057368 
L 624.461848 55.235668 
L 628.067727 53.664602 
L 631.673606 53.081787 
L 635.279485 53.423874 
L 638.885364 53.284505 
L 642.491242 54.475475 
L 646.097121 56.08455 
L 649.703 54.006689 
L 653.308879 53.93067 
L 656.914758 53.436544 
L 660.520636 54.399455 
L 667.732394 54.019359 
L 671.338273 54.779552 
L 678.55003 53.271835 
L 682.155909 53.588583 
L 682.155909 53.588583 
" clip-path="url(#p4e72ac8697)" style="fill: none; stroke: #ff0000; stroke-width: 3; stroke-linecap: square"/>
   </g>
   <g id="line2d_20">
    <path d="M 141.274091 51.536061 
L 144.87997 51.346013 
L 148.485848 52.270914 
L 152.091727 52.410283 
L 155.697606 51.396692 
L 159.303485 54.513484 
L 162.909364 53.449214 
L 166.515242 53.373195 
L 170.121121 55.070959 
L 173.727 54.374116 
L 177.332879 54.196737 
L 180.938758 54.462805 
L 184.544636 55.387706 
L 188.150515 54.741542 
L 191.756394 53.018438 
L 195.362273 52.524312 
L 198.968152 52.929748 
L 202.57403 54.602174 
L 206.179909 53.271835 
L 209.785788 52.524312 
L 213.391667 52.169555 
L 220.603424 52.435623 
L 224.209303 53.86732 
L 227.815182 54.614843 
L 231.421061 54.133388 
L 235.026939 54.222077 
L 238.632818 55.324357 
L 245.844576 56.718045 
L 249.450455 56.756054 
L 253.056333 56.046541 
L 256.662212 56.16057 
L 260.268091 57.389549 
L 263.87397 54.095378 
L 267.479848 56.287268 
L 271.085727 57.744305 
L 274.691606 59.619449 
L 278.297485 59.353381 
L 281.903364 59.809497 
L 285.509242 61.608621 
L 292.721 64.053909 
L 296.326879 62.86294 
L 299.932758 62.87561 
L 303.538636 64.763423 
L 307.144515 61.69731 
L 310.750394 63.179687 
L 321.56803 64.510025 
L 328.779788 65.941722 
L 332.385667 64.066579 
L 335.991545 66.549877 
L 339.597424 66.14444 
L 343.203303 64.738083 
L 346.809182 65.853033 
L 350.415061 67.094682 
L 354.020939 69.020505 
L 357.626818 69.615989 
L 361.232697 71.237735 
L 364.838576 71.009677 
L 368.444455 72.466714 
L 372.050333 71.313754 
L 375.656212 74.683944 
L 379.262091 75.406127 
L 382.86797 75.988942 
L 386.473848 76.698456 
L 390.079727 77.889425 
L 393.685606 77.027873 
L 397.291485 78.155493 
L 400.897364 80.68947 
L 404.503242 79.891267 
L 408.109121 79.979957 
L 411.715 80.347383 
L 415.320879 80.081316 
L 418.926758 80.638791 
L 422.532636 81.703061 
L 426.138515 83.350146 
L 429.744394 85.516697 
L 433.350273 85.846114 
L 436.956152 82.539274 
L 440.56203 86.010823 
L 447.773788 82.121167 
L 451.379667 83.248787 
L 454.985545 81.728401 
L 458.591424 84.275048 
L 462.197303 83.299467 
L 465.803182 82.754662 
L 473.014939 84.591795 
L 476.620818 83.058739 
L 480.226697 82.792671 
L 483.832576 84.566456 
L 487.438455 86.074172 
L 494.650212 89.723099 
L 498.256091 89.507711 
L 501.86197 89.824459 
L 505.467848 87.201792 
L 509.073727 86.669657 
L 512.679606 83.502185 
L 516.285485 84.363737 
L 519.891364 81.994469 
L 523.497242 85.656066 
L 527.103121 83.654224 
L 530.709 81.259615 
L 534.314879 78.624279 
L 537.920758 77.876755 
L 541.526636 78.358211 
L 545.132515 76.799815 
L 548.738394 76.217 
L 552.344273 76.014282 
L 555.950152 74.848652 
L 559.55603 76.407049 
L 563.161909 75.596176 
L 566.767788 74.443216 
L 570.373667 72.213316 
L 573.979545 74.430546 
L 577.585424 72.91016 
L 581.191303 75.912923 
L 584.797182 76.26768 
L 588.403061 74.848652 
L 595.614818 74.861322 
L 599.220697 74.354527 
L 602.826576 76.812485 
L 606.432455 77.31928 
L 610.038333 80.575441 
L 613.644212 78.991705 
L 617.250091 79.384472 
L 620.85597 81.538353 
L 624.461848 81.272285 
L 628.067727 82.057818 
L 631.673606 83.223448 
L 635.279485 83.932961 
L 638.885364 85.415338 
L 642.491242 86.32757 
L 646.097121 85.301309 
L 649.703 85.21262 
L 653.308879 85.846114 
L 656.914758 87.37917 
L 660.520636 87.683248 
L 664.126515 85.478687 
L 667.732394 85.668736 
L 671.338273 87.556549 
L 674.944152 88.418101 
L 678.55003 88.874217 
L 682.155909 90.267905 
L 682.155909 90.267905 
" clip-path="url(#p4e72ac8697)" style="fill: none; stroke: #ffa500; stroke-width: 3; stroke-linecap: square"/>
   </g>
   <g id="patch_3">
    <path d="M 114.23 343.96 
L 114.23 10.8 
" style="fill: none; stroke: #000000; stroke-width: 0.8; stroke-linejoin: miter; stroke-linecap: square"/>
   </g>
   <g id="patch_4">
    <path d="M 709.2 343.96 
L 709.2 10.8 
" style="fill: none; stroke: #000000; stroke-width: 0.8; stroke-linejoin: miter; stroke-linecap: square"/>
   </g>
   <g id="patch_5">
    <path d="M 114.23 343.96 
L 709.2 343.96 
" style="fill: none; stroke: #000000; stroke-width: 0.8; stroke-linejoin: miter; stroke-linecap: square"/>
   </g>
   <g id="patch_6">
    <path d="M 114.23 10.8 
L 709.2 10.8 
" style="fill: none; stroke: #000000; stroke-width: 0.8; stroke-linejoin: miter; stroke-linecap: square"/>
   </g>
  </g>
 </g>
 <defs>
  <clipPath id="p4e72ac8697">
   <rect x="114.23" y="10.8" width="594.97" height="333.16"/>
  </clipPath>
 </defs>
</svg>
