<?xml version="1.0" encoding="utf-8" standalone="no"?>
<!DOCTYPE svg PUBLIC "-//W3C//DTD SVG 1.1//EN"
  "http://www.w3.org/Graphics/SVG/1.1/DTD/svg11.dtd">
<svg xmlns:xlink="http://www.w3.org/1999/xlink" width="864pt" height="432pt" viewBox="0 0 864 432" xmlns="http://www.w3.org/2000/svg" version="1.1">
 <metadata>
  <rdf:RDF xmlns:dc="http://purl.org/dc/elements/1.1/" xmlns:cc="http://creativecommons.org/ns#" xmlns:rdf="http://www.w3.org/1999/02/22-rdf-syntax-ns#">
   <cc:Work>
    <dc:type rdf:resource="http://purl.org/dc/dcmitype/StillImage"/>
    <dc:date>2025-06-20T06:41:14.341009</dc:date>
    <dc:format>image/svg+xml</dc:format>
    <dc:creator>
     <cc:Agent>
      <dc:title>Matplotlib v3.7.1, https://matplotlib.org/</dc:title>
     </cc:Agent>
    </dc:creator>
   </cc:Work>
  </rdf:RDF>
 </metadata>
 <defs>
  <style type="text/css">*{stroke-linejoin: round; stroke-linecap: butt}</style>
 </defs>
 <g id="figure_1">
  <g id="patch_1">
   <path d="M 0 432 
L 864 432 
L 864 0 
L 0 0 
z
" style="fill: #ffffff"/>
  </g>
  <g id="axes_1">
   <g id="patch_2">
    <path d="M 110 354.76 
L 835.093351 354.76 
L 835.093351 10.8 
L 110 10.8 
z
" style="fill: #ffffff"/>
   </g>
   <g id="PolyCollection_1">
    <defs>
     <path id="m5cce6d325e" d="M 142.958789 -139.367017 
L 142.958789 -139.367017 
L 145.255568 -139.367017 
L 147.552348 -139.367017 
L 149.849128 -139.367017 
L 152.145907 -139.367017 
L 154.442687 -139.367017 
L 156.739467 -139.367017 
L 159.036247 -139.367017 
L 161.333026 -139.367017 
L 163.629806 -139.367017 
L 165.926586 -139.367017 
L 168.223365 -139.367017 
L 170.520145 -139.367017 
L 172.816925 -139.367017 
L 175.113704 -139.367017 
L 177.410484 -139.367017 
L 179.707264 -139.367017 
L 182.004044 -139.367017 
L 184.300823 -139.367017 
L 186.597603 -139.367017 
L 188.894383 -139.367017 
L 191.191162 -139.367017 
L 193.487942 -139.367017 
L 195.784722 -139.367017 
L 198.081501 -139.367017 
L 200.378281 -139.367017 
L 202.675061 -139.367017 
L 204.971841 -139.367017 
L 207.26862 -139.367017 
L 209.5654 -139.367017 
L 211.86218 -139.367017 
L 214.158959 -139.367017 
L 216.455739 -139.367017 
L 218.752519 -139.367017 
L 221.049298 -139.367017 
L 223.346078 -139.367017 
L 225.642858 -139.367017 
L 227.939638 -139.367017 
L 230.236417 -139.367017 
L 232.533197 -139.367017 
L 234.829977 -139.367017 
L 237.126756 -139.367017 
L 239.423536 -139.367017 
L 241.720316 -139.367017 
L 244.017095 -139.367017 
L 246.313875 -139.367017 
L 248.610655 -139.367017 
L 250.907435 -139.367017 
L 253.204214 -139.367017 
L 255.500994 -139.367017 
L 257.797774 -139.367017 
L 260.094553 -139.367017 
L 262.391333 -139.367017 
L 264.688113 -139.367017 
L 266.984892 -139.367017 
L 269.281672 -139.367017 
L 271.578452 -139.367017 
L 273.875232 -139.367017 
L 276.172011 -139.367017 
L 278.468791 -139.367017 
L 280.765571 -139.367017 
L 283.06235 -139.367017 
L 285.35913 -139.367017 
L 287.65591 -139.367017 
L 289.952689 -139.367017 
L 292.249469 -139.367017 
L 294.546249 -139.367017 
L 296.843029 -139.367017 
L 299.139808 -139.367017 
L 301.436588 -139.367017 
L 303.733368 -139.367017 
L 306.030147 -139.367017 
L 308.326927 -139.367017 
L 310.623707 -139.367017 
L 312.920486 -139.367017 
L 315.217266 -139.367017 
L 317.514046 -139.367017 
L 319.810826 -139.367017 
L 322.107605 -139.367017 
L 324.404385 -139.367017 
L 326.701165 -139.367017 
L 328.997944 -139.367017 
L 331.294724 -139.367017 
L 333.591504 -139.367017 
L 335.888283 -139.367017 
L 338.185063 -139.367017 
L 340.481843 -139.367017 
L 342.778623 -139.367017 
L 345.075402 -139.367017 
L 347.372182 -139.367017 
L 349.668962 -139.367017 
L 351.965741 -139.367017 
L 354.262521 -139.367017 
L 356.559301 -139.367017 
L 358.85608 -139.367017 
L 361.15286 -139.367017 
L 363.44964 -139.367017 
L 365.74642 -139.367017 
L 368.043199 -139.367017 
L 370.339979 -139.367017 
L 372.636759 -139.367017 
L 374.933538 -139.367017 
L 377.230318 -139.367017 
L 379.527098 -139.367017 
L 381.823877 -139.367017 
L 384.120657 -139.367017 
L 386.417437 -139.367017 
L 388.714217 -139.367017 
L 391.010996 -139.367017 
L 393.307776 -139.367017 
L 395.604556 -139.367017 
L 397.901335 -139.367017 
L 400.198115 -139.367017 
L 402.494895 -139.367017 
L 404.791674 -139.367017 
L 407.088454 -139.367017 
L 409.385234 -139.367017 
L 411.682014 -139.367017 
L 413.978793 -139.367017 
L 416.275573 -139.367017 
L 418.572353 -139.367017 
L 420.869132 -139.367017 
L 423.165912 -139.367017 
L 425.462692 -139.367017 
L 427.759471 -139.367017 
L 430.056251 -139.367017 
L 432.353031 -139.367017 
L 434.649811 -139.367017 
L 436.94659 -139.367017 
L 439.24337 -139.367017 
L 441.54015 -139.367017 
L 443.836929 -139.367017 
L 446.133709 -139.367017 
L 448.430489 -139.367017 
L 450.727268 -139.367017 
L 453.024048 -139.367017 
L 455.320828 -139.367017 
L 457.617608 -139.367017 
L 459.914387 -139.367017 
L 462.211167 -139.367017 
L 464.507947 -139.367017 
L 466.804726 -139.367017 
L 469.101506 -139.367017 
L 471.398286 -139.367017 
L 473.695065 -139.367017 
L 475.991845 -139.367017 
L 478.288625 -139.367017 
L 480.585405 -139.367017 
L 482.882184 -139.367017 
L 485.178964 -139.367017 
L 487.475744 -139.367017 
L 489.772523 -139.367017 
L 492.069303 -139.367017 
L 494.366083 -139.367017 
L 496.662862 -139.367017 
L 498.959642 -139.367017 
L 501.256422 -139.367017 
L 503.553202 -139.367017 
L 505.849981 -139.367017 
L 508.146761 -139.367017 
L 510.443541 -139.367017 
L 512.74032 -139.367017 
L 515.0371 -139.367017 
L 517.33388 -139.367017 
L 519.630659 -139.367017 
L 521.927439 -139.367017 
L 524.224219 -139.367017 
L 526.520999 -139.367017 
L 528.817778 -139.367017 
L 531.114558 -139.367017 
L 533.411338 -139.367017 
L 535.708117 -139.367017 
L 538.004897 -139.367017 
L 540.301677 -139.367017 
L 542.598456 -139.367017 
L 544.895236 -139.281237 
L 547.192016 -139.195458 
L 549.488796 -139.109678 
L 551.785575 -139.023899 
L 554.082355 -138.938119 
L 556.379135 -138.85234 
L 558.675914 -138.85234 
L 560.972694 -138.76656 
L 563.269474 -138.680781 
L 565.566253 -138.680781 
L 567.863033 -138.680781 
L 570.159813 -138.680781 
L 572.456593 -138.680781 
L 574.753372 -138.680781 
L 577.050152 -138.680781 
L 579.346932 -138.680781 
L 581.643711 -138.680781 
L 583.940491 -138.680781 
L 586.237271 -138.680781 
L 588.53405 -138.680781 
L 590.83083 -138.680781 
L 593.12761 -138.680781 
L 595.42439 -138.680781 
L 597.721169 -138.680781 
L 600.017949 -138.680781 
L 602.314729 -138.680781 
L 604.611508 -138.680781 
L 606.908288 -138.680781 
L 609.205068 -138.680781 
L 611.501847 -138.680781 
L 613.798627 -138.680781 
L 616.095407 -138.680781 
L 618.392187 -138.680781 
L 620.688966 -138.680781 
L 622.985746 -138.680781 
L 625.282526 -138.680781 
L 627.579305 -138.680781 
L 629.876085 -138.680781 
L 632.172865 -138.680781 
L 634.469644 -138.680781 
L 636.766424 -138.680781 
L 639.063204 -138.680781 
L 641.359984 -138.680781 
L 643.656763 -138.680781 
L 645.953543 -138.680781 
L 648.250323 -138.680781 
L 650.547102 -138.680781 
L 652.843882 -138.680781 
L 655.140662 -138.680781 
L 657.437441 -138.680781 
L 659.734221 -138.680781 
L 662.031001 -138.680781 
L 664.327781 -138.680781 
L 666.62456 -138.680781 
L 668.92134 -138.680781 
L 671.21812 -138.680781 
L 673.514899 -138.680781 
L 675.811679 -138.680781 
L 678.108459 -138.680781 
L 680.405238 -138.680781 
L 682.702018 -138.680781 
L 684.998798 -138.680781 
L 687.295578 -138.680781 
L 689.592357 -138.680781 
L 691.889137 -138.680781 
L 694.185917 -138.680781 
L 696.482696 -138.680781 
L 698.779476 -138.680781 
L 701.076256 -138.680781 
L 703.373035 -138.680781 
L 705.669815 -138.680781 
L 707.966595 -138.680781 
L 710.263375 -138.680781 
L 712.560154 -138.680781 
L 714.856934 -138.680781 
L 717.153714 -138.680781 
L 719.450493 -138.680781 
L 721.747273 -138.680781 
L 724.044053 -138.595001 
L 726.340832 -138.595001 
L 728.637612 -138.595001 
L 730.934392 -138.595001 
L 733.231172 -138.509222 
L 735.527951 -138.509222 
L 737.824731 -138.509222 
L 740.121511 -138.509222 
L 742.41829 -138.509222 
L 744.71507 -138.509222 
L 747.01185 -138.509222 
L 749.308629 -138.509222 
L 751.605409 -138.423442 
L 753.902189 -138.337663 
L 756.198969 -138.251883 
L 758.495748 -138.166104 
L 760.792528 -138.080324 
L 763.089308 -138.080324 
L 765.386087 -138.080324 
L 767.682867 -138.080324 
L 769.979647 -138.080324 
L 772.276426 -138.080324 
L 774.573206 -138.080324 
L 776.869986 -138.080324 
L 779.166766 -138.080324 
L 781.463545 -138.080324 
L 783.760325 -138.080324 
L 786.057105 -138.080324 
L 788.353884 -138.080324 
L 790.650664 -138.080324 
L 792.947444 -138.080324 
L 795.244223 -138.080324 
L 797.541003 -138.080324 
L 799.837783 -138.080324 
L 802.134563 -138.080324 
L 802.134563 -146.866411 
L 802.134563 -146.866411 
L 799.837783 -146.866411 
L 797.541003 -146.866411 
L 795.244223 -146.866411 
L 792.947444 -146.866411 
L 790.650664 -146.866411 
L 788.353884 -146.866411 
L 786.057105 -146.866411 
L 783.760325 -146.866411 
L 781.463545 -146.866411 
L 779.166766 -146.866411 
L 776.869986 -146.866411 
L 774.573206 -146.866411 
L 772.276426 -146.866411 
L 769.979647 -146.866411 
L 767.682867 -146.866411 
L 765.386087 -146.866411 
L 763.089308 -146.866411 
L 760.792528 -146.866411 
L 758.495748 -146.366452 
L 756.198969 -145.866492 
L 753.902189 -145.366532 
L 751.605409 -144.866573 
L 749.308629 -144.366613 
L 747.01185 -144.366613 
L 744.71507 -144.366613 
L 742.41829 -144.366613 
L 740.121511 -144.366613 
L 737.824731 -144.366613 
L 735.527951 -144.366613 
L 733.231172 -144.366613 
L 730.934392 -143.866654 
L 728.637612 -143.866654 
L 726.340832 -143.866654 
L 724.044053 -143.866654 
L 721.747273 -143.366694 
L 719.450493 -143.366694 
L 717.153714 -143.366694 
L 714.856934 -143.366694 
L 712.560154 -143.366694 
L 710.263375 -143.366694 
L 707.966595 -143.366694 
L 705.669815 -143.366694 
L 703.373035 -143.366694 
L 701.076256 -143.366694 
L 698.779476 -143.366694 
L 696.482696 -143.366694 
L 694.185917 -143.366694 
L 691.889137 -143.366694 
L 689.592357 -143.366694 
L 687.295578 -143.366694 
L 684.998798 -143.366694 
L 682.702018 -143.366694 
L 680.405238 -143.366694 
L 678.108459 -143.366694 
L 675.811679 -143.366694 
L 673.514899 -143.366694 
L 671.21812 -143.366694 
L 668.92134 -143.366694 
L 666.62456 -143.366694 
L 664.327781 -143.366694 
L 662.031001 -143.366694 
L 659.734221 -143.366694 
L 657.437441 -143.366694 
L 655.140662 -143.366694 
L 652.843882 -143.366694 
L 650.547102 -143.366694 
L 648.250323 -143.366694 
L 645.953543 -143.366694 
L 643.656763 -143.366694 
L 641.359984 -143.366694 
L 639.063204 -143.366694 
L 636.766424 -143.366694 
L 634.469644 -143.366694 
L 632.172865 -143.366694 
L 629.876085 -143.366694 
L 627.579305 -143.366694 
L 625.282526 -143.366694 
L 622.985746 -143.366694 
L 620.688966 -143.366694 
L 618.392187 -143.366694 
L 616.095407 -143.366694 
L 613.798627 -143.366694 
L 611.501847 -143.366694 
L 609.205068 -143.366694 
L 606.908288 -143.366694 
L 604.611508 -143.366694 
L 602.314729 -143.366694 
L 600.017949 -143.366694 
L 597.721169 -143.366694 
L 595.42439 -143.366694 
L 593.12761 -143.366694 
L 590.83083 -143.366694 
L 588.53405 -143.366694 
L 586.237271 -143.366694 
L 583.940491 -143.366694 
L 581.643711 -143.366694 
L 579.346932 -143.366694 
L 577.050152 -143.366694 
L 574.753372 -143.366694 
L 572.456593 -143.366694 
L 570.159813 -143.366694 
L 567.863033 -143.366694 
L 565.566253 -143.366694 
L 563.269474 -143.366694 
L 560.972694 -142.866734 
L 558.675914 -142.366775 
L 556.379135 -142.366775 
L 554.082355 -141.866815 
L 551.785575 -141.366855 
L 549.488796 -140.866896 
L 547.192016 -140.366936 
L 544.895236 -139.866977 
L 542.598456 -139.367017 
L 540.301677 -139.367017 
L 538.004897 -139.367017 
L 535.708117 -139.367017 
L 533.411338 -139.367017 
L 531.114558 -139.367017 
L 528.817778 -139.367017 
L 526.520999 -139.367017 
L 524.224219 -139.367017 
L 521.927439 -139.367017 
L 519.630659 -139.367017 
L 517.33388 -139.367017 
L 515.0371 -139.367017 
L 512.74032 -139.367017 
L 510.443541 -139.367017 
L 508.146761 -139.367017 
L 505.849981 -139.367017 
L 503.553202 -139.367017 
L 501.256422 -139.367017 
L 498.959642 -139.367017 
L 496.662862 -139.367017 
L 494.366083 -139.367017 
L 492.069303 -139.367017 
L 489.772523 -139.367017 
L 487.475744 -139.367017 
L 485.178964 -139.367017 
L 482.882184 -139.367017 
L 480.585405 -139.367017 
L 478.288625 -139.367017 
L 475.991845 -139.367017 
L 473.695065 -139.367017 
L 471.398286 -139.367017 
L 469.101506 -139.367017 
L 466.804726 -139.367017 
L 464.507947 -139.367017 
L 462.211167 -139.367017 
L 459.914387 -139.367017 
L 457.617608 -139.367017 
L 455.320828 -139.367017 
L 453.024048 -139.367017 
L 450.727268 -139.367017 
L 448.430489 -139.367017 
L 446.133709 -139.367017 
L 443.836929 -139.367017 
L 441.54015 -139.367017 
L 439.24337 -139.367017 
L 436.94659 -139.367017 
L 434.649811 -139.367017 
L 432.353031 -139.367017 
L 430.056251 -139.367017 
L 427.759471 -139.367017 
L 425.462692 -139.367017 
L 423.165912 -139.367017 
L 420.869132 -139.367017 
L 418.572353 -139.367017 
L 416.275573 -139.367017 
L 413.978793 -139.367017 
L 411.682014 -139.367017 
L 409.385234 -139.367017 
L 407.088454 -139.367017 
L 404.791674 -139.367017 
L 402.494895 -139.367017 
L 400.198115 -139.367017 
L 397.901335 -139.367017 
L 395.604556 -139.367017 
L 393.307776 -139.367017 
L 391.010996 -139.367017 
L 388.714217 -139.367017 
L 386.417437 -139.367017 
L 384.120657 -139.367017 
L 381.823877 -139.367017 
L 379.527098 -139.367017 
L 377.230318 -139.367017 
L 374.933538 -139.367017 
L 372.636759 -139.367017 
L 370.339979 -139.367017 
L 368.043199 -139.367017 
L 365.74642 -139.367017 
L 363.44964 -139.367017 
L 361.15286 -139.367017 
L 358.85608 -139.367017 
L 356.559301 -139.367017 
L 354.262521 -139.367017 
L 351.965741 -139.367017 
L 349.668962 -139.367017 
L 347.372182 -139.367017 
L 345.075402 -139.367017 
L 342.778623 -139.367017 
L 340.481843 -139.367017 
L 338.185063 -139.367017 
L 335.888283 -139.367017 
L 333.591504 -139.367017 
L 331.294724 -139.367017 
L 328.997944 -139.367017 
L 326.701165 -139.367017 
L 324.404385 -139.367017 
L 322.107605 -139.367017 
L 319.810826 -139.367017 
L 317.514046 -139.367017 
L 315.217266 -139.367017 
L 312.920486 -139.367017 
L 310.623707 -139.367017 
L 308.326927 -139.367017 
L 306.030147 -139.367017 
L 303.733368 -139.367017 
L 301.436588 -139.367017 
L 299.139808 -139.367017 
L 296.843029 -139.367017 
L 294.546249 -139.367017 
L 292.249469 -139.367017 
L 289.952689 -139.367017 
L 287.65591 -139.367017 
L 285.35913 -139.367017 
L 283.06235 -139.367017 
L 280.765571 -139.367017 
L 278.468791 -139.367017 
L 276.172011 -139.367017 
L 273.875232 -139.367017 
L 271.578452 -139.367017 
L 269.281672 -139.367017 
L 266.984892 -139.367017 
L 264.688113 -139.367017 
L 262.391333 -139.367017 
L 260.094553 -139.367017 
L 257.797774 -139.367017 
L 255.500994 -139.367017 
L 253.204214 -139.367017 
L 250.907435 -139.367017 
L 248.610655 -139.367017 
L 246.313875 -139.367017 
L 244.017095 -139.367017 
L 241.720316 -139.367017 
L 239.423536 -139.367017 
L 237.126756 -139.367017 
L 234.829977 -139.367017 
L 232.533197 -139.367017 
L 230.236417 -139.367017 
L 227.939638 -139.367017 
L 225.642858 -139.367017 
L 223.346078 -139.367017 
L 221.049298 -139.367017 
L 218.752519 -139.367017 
L 216.455739 -139.367017 
L 214.158959 -139.367017 
L 211.86218 -139.367017 
L 209.5654 -139.367017 
L 207.26862 -139.367017 
L 204.971841 -139.367017 
L 202.675061 -139.367017 
L 200.378281 -139.367017 
L 198.081501 -139.367017 
L 195.784722 -139.367017 
L 193.487942 -139.367017 
L 191.191162 -139.367017 
L 188.894383 -139.367017 
L 186.597603 -139.367017 
L 184.300823 -139.367017 
L 182.004044 -139.367017 
L 179.707264 -139.367017 
L 177.410484 -139.367017 
L 175.113704 -139.367017 
L 172.816925 -139.367017 
L 170.520145 -139.367017 
L 168.223365 -139.367017 
L 165.926586 -139.367017 
L 163.629806 -139.367017 
L 161.333026 -139.367017 
L 159.036247 -139.367017 
L 156.739467 -139.367017 
L 154.442687 -139.367017 
L 152.145907 -139.367017 
L 149.849128 -139.367017 
L 147.552348 -139.367017 
L 145.255568 -139.367017 
L 142.958789 -139.367017 
z
" style="stroke: #0000ff; stroke-opacity: 0.3"/>
    </defs>
    <g clip-path="url(#p364876c3cd)">
     <use xlink:href="#m5cce6d325e" x="0" y="432" style="fill: #0000ff; fill-opacity: 0.3; stroke: #0000ff; stroke-opacity: 0.3"/>
    </g>
   </g>
   <g id="PolyCollection_2">
    <defs>
     <path id="m25c900b660" d="M 142.958789 -139.367017 
L 142.958789 -139.367017 
L 145.255568 -139.367017 
L 147.552348 -139.367017 
L 149.849128 -139.367017 
L 152.145907 -139.367017 
L 154.442687 -139.367017 
L 156.739467 -139.367017 
L 159.036247 -139.367017 
L 161.333026 -139.367017 
L 163.629806 -139.367017 
L 165.926586 -139.367017 
L 168.223365 -139.367017 
L 170.520145 -139.367017 
L 172.816925 -139.367017 
L 175.113704 -139.367017 
L 177.410484 -139.367017 
L 179.707264 -139.367017 
L 182.004044 -139.367017 
L 184.300823 -139.367017 
L 186.597603 -139.367017 
L 188.894383 -139.367017 
L 191.191162 -139.367017 
L 193.487942 -139.367017 
L 195.784722 -139.367017 
L 198.081501 -139.367017 
L 200.378281 -139.367017 
L 202.675061 -139.367017 
L 204.971841 -139.367017 
L 207.26862 -139.367017 
L 209.5654 -139.367017 
L 211.86218 -139.367017 
L 214.158959 -139.367017 
L 216.455739 -139.367017 
L 218.752519 -139.367017 
L 221.049298 -139.367017 
L 223.346078 -139.367017 
L 225.642858 -139.367017 
L 227.939638 -139.367017 
L 230.236417 -139.367017 
L 232.533197 -139.367017 
L 234.829977 -139.367017 
L 237.126756 -139.367017 
L 239.423536 -139.367017 
L 241.720316 -139.281237 
L 244.017095 -139.195458 
L 246.313875 -139.420517 
L 248.610655 -139.595027 
L 250.907435 -139.747149 
L 253.204214 -139.888197 
L 255.500994 -140.023128 
L 257.797774 -140.154365 
L 260.094553 -140.283217 
L 262.391333 -140.410444 
L 264.688113 -140.50793 
L 266.984892 -140.580122 
L 269.281672 -140.630336 
L 271.578452 -140.661741 
L 273.875232 -140.677207 
L 276.172011 -140.679239 
L 278.468791 -140.811201 
L 280.765571 -140.941714 
L 283.06235 -140.940708 
L 285.35913 -140.930558 
L 287.65591 -141.06707 
L 289.952689 -141.201916 
L 292.249469 -141.335349 
L 294.546249 -141.464827 
L 296.843029 -141.580188 
L 299.139808 -141.682107 
L 301.436588 -141.771304 
L 303.733368 -141.848528 
L 306.030147 -141.914538 
L 308.326927 -141.970088 
L 310.623707 -142.015911 
L 312.920486 -142.052719 
L 315.217266 -142.081187 
L 317.514046 -142.081187 
L 319.810826 -142.081187 
L 322.107605 -142.081187 
L 324.404385 -142.175881 
L 326.701165 -142.175881 
L 328.997944 -142.175881 
L 331.294724 -142.175881 
L 333.591504 -142.175881 
L 335.888283 -142.175881 
L 338.185063 -142.175881 
L 340.481843 -142.175881 
L 342.778623 -142.175881 
L 345.075402 -142.175881 
L 347.372182 -142.175881 
L 349.668962 -142.175881 
L 351.965741 -142.175881 
L 354.262521 -142.175881 
L 356.559301 -142.175881 
L 358.85608 -142.175881 
L 361.15286 -142.175881 
L 363.44964 -142.175881 
L 365.74642 -142.175881 
L 368.043199 -142.175881 
L 370.339979 -142.175881 
L 372.636759 -142.175881 
L 374.933538 -142.175881 
L 377.230318 -142.175881 
L 379.527098 -142.175881 
L 381.823877 -142.175881 
L 384.120657 -142.175881 
L 386.417437 -142.175881 
L 388.714217 -142.175881 
L 391.010996 -142.175881 
L 393.307776 -142.175881 
L 395.604556 -142.175881 
L 397.901335 -142.175881 
L 400.198115 -142.175881 
L 402.494895 -142.175881 
L 404.791674 -142.175881 
L 407.088454 -142.175881 
L 409.385234 -142.175881 
L 411.682014 -142.175881 
L 413.978793 -142.175881 
L 416.275573 -142.175881 
L 418.572353 -142.175881 
L 420.869132 -142.175881 
L 423.165912 -142.175881 
L 425.462692 -142.175881 
L 427.759471 -142.175881 
L 430.056251 -142.175881 
L 432.353031 -142.175881 
L 434.649811 -142.175881 
L 436.94659 -142.175881 
L 439.24337 -142.175881 
L 441.54015 -142.175881 
L 443.836929 -142.175881 
L 446.133709 -142.175881 
L 448.430489 -142.175881 
L 450.727268 -142.175881 
L 453.024048 -142.175881 
L 455.320828 -142.175881 
L 457.617608 -142.175881 
L 459.914387 -142.175881 
L 462.211167 -142.175881 
L 464.507947 -142.175881 
L 466.804726 -142.175881 
L 469.101506 -142.175881 
L 471.398286 -142.175881 
L 473.695065 -142.175881 
L 475.991845 -142.175881 
L 478.288625 -142.175881 
L 480.585405 -142.175881 
L 482.882184 -142.175881 
L 485.178964 -142.175881 
L 487.475744 -142.175881 
L 489.772523 -142.175881 
L 492.069303 -142.175881 
L 494.366083 -142.175881 
L 496.662862 -142.673989 
L 498.959642 -143.171927 
L 501.256422 -143.669669 
L 503.553202 -144.167187 
L 505.849981 -144.686539 
L 508.146761 -145.192448 
L 510.443541 -145.684279 
L 512.74032 -146.172077 
L 515.0371 -146.644243 
L 517.33388 -147.100245 
L 519.630659 -147.539683 
L 521.927439 -147.962311 
L 524.224219 -148.368044 
L 526.520999 -149.042079 
L 528.817778 -149.438502 
L 531.114558 -149.81736 
L 533.411338 -150.179032 
L 535.708117 -150.800303 
L 538.004897 -151.421573 
L 540.301677 -152.042843 
L 542.598456 -152.664113 
L 544.895236 -153.355962 
L 547.192016 -154.045827 
L 549.488796 -154.733308 
L 551.785575 -155.354578 
L 554.082355 -155.975849 
L 556.379135 -156.597119 
L 558.675914 -157.218389 
L 560.972694 -157.902976 
L 563.269474 -158.524247 
L 565.566253 -159.145517 
L 567.863033 -159.766787 
L 570.159813 -160.388057 
L 572.456593 -161.009327 
L 574.753372 -161.630597 
L 577.050152 -162.251868 
L 579.346932 -162.873138 
L 581.643711 -163.494408 
L 583.940491 -164.115678 
L 586.237271 -164.966501 
L 588.53405 -165.587771 
L 590.83083 -166.416131 
L 593.12761 -167.222029 
L 595.42439 -168.005856 
L 597.721169 -168.627126 
L 600.017949 -169.248396 
L 602.314729 -170.010899 
L 604.611508 -170.753126 
L 606.908288 -171.476343 
L 609.205068 -172.181961 
L 611.501847 -172.871454 
L 613.798627 -173.546299 
L 616.095407 -174.236422 
L 618.392187 -174.875571 
L 620.688966 -175.505209 
L 622.985746 -176.104648 
L 625.282526 -176.846978 
L 627.579305 -177.588281 
L 629.876085 -178.328766 
L 632.172865 -179.068587 
L 634.469644 -179.807864 
L 636.766424 -180.546689 
L 639.063204 -181.312648 
L 641.359984 -182.077219 
L 643.656763 -182.840519 
L 645.953543 -183.602651 
L 648.250323 -184.363708 
L 650.547102 -185.123773 
L 652.843882 -185.882922 
L 655.140662 -186.641223 
L 657.437441 -187.398739 
L 659.734221 -188.155525 
L 662.031001 -188.911632 
L 664.327781 -190.154172 
L 666.62456 -190.909647 
L 668.92134 -192.143956 
L 671.21812 -193.386497 
L 673.514899 -194.629037 
L 675.811679 -195.385298 
L 678.108459 -196.767757 
L 680.405238 -198.010297 
L 682.702018 -199.252838 
L 684.998798 -200.628984 
L 687.295578 -202.490503 
L 689.592357 -203.855802 
L 691.889137 -205.214976 
L 694.185917 -206.568154 
L 696.482696 -207.915469 
L 698.779476 -209.257058 
L 701.076256 -210.593059 
L 703.373035 -211.923617 
L 705.669815 -213.248874 
L 707.966595 -214.568976 
L 710.263375 -215.884068 
L 712.560154 -217.194296 
L 714.856934 -217.999843 
L 717.153714 -218.800905 
L 719.450493 -220.097664 
L 721.747273 -221.961474 
L 724.044053 -223.325491 
L 726.340832 -225.117911 
L 728.637612 -226.406532 
L 730.934392 -227.649072 
L 733.231172 -228.967207 
L 735.527951 -230.280932 
L 737.824731 -231.590362 
L 740.121511 -232.89561 
L 742.41829 -235.251094 
L 744.71507 -237.090071 
L 747.01185 -239.453206 
L 749.308629 -241.858166 
L 751.605409 -243.760007 
L 753.902189 -245.565087 
L 756.198969 -247.353714 
L 758.495748 -249.732031 
L 760.792528 -251.611208 
L 763.089308 -253.980595 
L 765.386087 -256.465676 
L 767.682867 -258.834527 
L 769.979647 -261.321276 
L 772.276426 -263.805297 
L 774.573206 -266.422446 
L 776.869986 -268.416922 
L 779.166766 -270.902889 
L 781.463545 -272.897971 
L 783.760325 -275.382305 
L 786.057105 -277.864168 
L 788.353884 -280.34365 
L 790.650664 -282.820836 
L 792.947444 -285.29581 
L 795.244223 -287.768652 
L 797.541003 -290.239437 
L 799.837783 -292.70824 
L 802.134563 -295.175131 
L 802.134563 -332.712738 
L 802.134563 -332.712738 
L 799.837783 -329.795288 
L 797.541003 -326.879749 
L 795.244223 -323.966193 
L 792.947444 -321.054693 
L 790.650664 -318.145325 
L 788.353884 -315.23817 
L 786.057105 -312.333311 
L 783.760325 -309.430832 
L 781.463545 -306.530824 
L 779.166766 -303.969925 
L 776.869986 -301.071551 
L 774.573206 -298.510046 
L 772.276426 -295.742854 
L 769.979647 -292.842533 
L 767.682867 -289.94494 
L 765.386087 -287.34363 
L 763.089308 -284.858549 
L 760.792528 -282.671955 
L 758.495748 -280.409331 
L 756.198969 -278.231667 
L 753.902189 -276.292673 
L 751.605409 -274.370131 
L 749.308629 -272.130171 
L 747.01185 -269.979151 
L 744.71507 -268.200484 
L 742.41829 -266.311841 
L 740.121511 -264.525523 
L 737.824731 -262.931511 
L 735.527951 -261.341679 
L 733.231172 -259.756144 
L 730.934392 -258.175018 
L 728.637612 -256.932477 
L 726.340832 -255.321838 
L 724.044053 -253.800817 
L 721.747273 -251.851393 
L 719.450493 -249.987582 
L 717.153714 -248.38508 
L 714.856934 -246.701061 
L 712.560154 -245.021528 
L 710.263375 -243.432495 
L 707.966595 -241.848326 
L 705.669815 -240.269167 
L 703.373035 -238.695164 
L 701.076256 -237.12646 
L 698.779476 -235.563201 
L 696.482696 -234.005529 
L 694.185917 -232.453583 
L 691.889137 -230.9075 
L 689.592357 -229.367414 
L 687.295578 -227.833452 
L 684.998798 -226.38153 
L 682.702018 -224.858416 
L 680.405238 -223.615875 
L 678.108459 -222.373335 
L 675.811679 -220.856533 
L 673.514899 -219.541893 
L 671.21812 -218.299353 
L 668.92134 -217.056813 
L 666.62456 -215.391861 
L 664.327781 -214.076436 
L 662.031001 -212.833895 
L 659.734221 -211.519102 
L 657.437441 -210.204987 
L 655.140662 -208.891602 
L 652.843882 -207.579003 
L 650.547102 -206.267252 
L 648.250323 -204.956416 
L 645.953543 -203.646572 
L 643.656763 -202.337803 
L 641.359984 -201.030203 
L 639.063204 -199.723874 
L 636.766424 -198.418932 
L 634.469644 -196.672676 
L 632.172865 -194.926873 
L 629.876085 -193.181613 
L 627.579305 -191.437017 
L 625.282526 -189.69324 
L 622.985746 -187.950489 
L 620.688966 -186.479028 
L 618.392187 -185.037765 
L 616.095407 -184.020194 
L 613.798627 -182.639416 
L 611.501847 -181.657541 
L 609.205068 -180.690313 
L 606.908288 -179.73921 
L 604.611508 -178.805707 
L 602.314729 -177.891213 
L 600.017949 -176.996996 
L 597.721169 -176.375726 
L 595.42439 -175.754456 
L 593.12761 -174.881562 
L 590.83083 -174.03074 
L 588.53405 -173.202379 
L 586.237271 -172.581109 
L 583.940491 -171.775211 
L 581.643711 -171.153941 
L 579.346932 -170.532671 
L 577.050152 -169.911401 
L 574.753372 -169.290131 
L 572.456593 -168.66886 
L 570.159813 -168.04759 
L 567.863033 -167.42632 
L 565.566253 -166.80505 
L 563.269474 -166.18378 
L 560.972694 -165.56251 
L 558.675914 -165.418737 
L 556.379135 -164.797467 
L 554.082355 -164.176196 
L 551.785575 -163.554926 
L 549.488796 -162.933656 
L 547.192016 -162.792777 
L 544.895236 -162.654282 
L 542.598456 -162.517771 
L 540.301677 -161.8965 
L 538.004897 -161.27523 
L 535.708117 -160.65396 
L 533.411338 -160.03269 
L 531.114558 -159.566002 
L 528.817778 -159.1165 
L 526.520999 -158.684562 
L 524.224219 -158.530238 
L 521.927439 -158.10761 
L 519.630659 -157.701878 
L 517.33388 -157.312956 
L 515.0371 -156.940597 
L 512.74032 -156.584403 
L 510.443541 -156.243841 
L 508.146761 -156.321492 
L 505.849981 -155.999041 
L 503.553202 -155.690032 
L 501.256422 -155.77337 
L 498.959642 -155.856932 
L 496.662862 -155.94069 
L 494.366083 -156.024618 
L 492.069303 -156.024618 
L 489.772523 -156.024618 
L 487.475744 -156.024618 
L 485.178964 -156.024618 
L 482.882184 -156.024618 
L 480.585405 -156.024618 
L 478.288625 -156.024618 
L 475.991845 -156.024618 
L 473.695065 -156.024618 
L 471.398286 -156.024618 
L 469.101506 -156.024618 
L 466.804726 -156.024618 
L 464.507947 -156.024618 
L 462.211167 -156.024618 
L 459.914387 -156.024618 
L 457.617608 -156.024618 
L 455.320828 -156.024618 
L 453.024048 -156.024618 
L 450.727268 -156.024618 
L 448.430489 -156.024618 
L 446.133709 -156.024618 
L 443.836929 -156.024618 
L 441.54015 -156.024618 
L 439.24337 -156.024618 
L 436.94659 -156.024618 
L 434.649811 -156.024618 
L 432.353031 -156.024618 
L 430.056251 -156.024618 
L 427.759471 -156.024618 
L 425.462692 -156.024618 
L 423.165912 -156.024618 
L 420.869132 -156.024618 
L 418.572353 -156.024618 
L 416.275573 -156.024618 
L 413.978793 -156.024618 
L 411.682014 -156.024618 
L 409.385234 -156.024618 
L 407.088454 -156.024618 
L 404.791674 -156.024618 
L 402.494895 -156.024618 
L 400.198115 -156.024618 
L 397.901335 -156.024618 
L 395.604556 -156.024618 
L 393.307776 -156.024618 
L 391.010996 -156.024618 
L 388.714217 -156.024618 
L 386.417437 -156.024618 
L 384.120657 -156.024618 
L 381.823877 -156.024618 
L 379.527098 -156.024618 
L 377.230318 -156.024618 
L 374.933538 -156.024618 
L 372.636759 -156.024618 
L 370.339979 -156.024618 
L 368.043199 -156.024618 
L 365.74642 -156.024618 
L 363.44964 -156.024618 
L 361.15286 -156.024618 
L 358.85608 -156.024618 
L 356.559301 -156.024618 
L 354.262521 -156.024618 
L 351.965741 -156.024618 
L 349.668962 -156.024618 
L 347.372182 -156.024618 
L 345.075402 -156.024618 
L 342.778623 -156.024618 
L 340.481843 -156.024618 
L 338.185063 -156.024618 
L 335.888283 -156.024618 
L 333.591504 -156.024618 
L 331.294724 -156.024618 
L 328.997944 -156.024618 
L 326.701165 -156.024618 
L 324.404385 -156.024618 
L 322.107605 -155.705132 
L 319.810826 -155.705132 
L 317.514046 -155.705132 
L 315.217266 -155.705132 
L 312.920486 -155.31942 
L 310.623707 -154.942047 
L 308.326927 -154.573691 
L 306.030147 -154.21506 
L 303.733368 -153.86689 
L 301.436588 -153.529935 
L 299.139808 -153.204952 
L 296.843029 -152.89269 
L 294.546249 -152.593871 
L 292.249469 -152.309168 
L 289.952689 -151.614242 
L 287.65591 -150.920727 
L 285.35913 -150.228879 
L 283.06235 -149.804549 
L 280.765571 -149.389363 
L 278.468791 -148.691515 
L 276.172011 -147.995118 
L 273.875232 -147.582969 
L 271.578452 -147.184256 
L 269.281672 -146.80148 
L 266.984892 -146.437514 
L 264.688113 -146.095526 
L 262.391333 -145.778832 
L 260.094553 -145.077699 
L 257.797774 -144.37819 
L 255.500994 -143.681067 
L 253.204214 -142.987638 
L 250.907435 -142.300326 
L 248.610655 -141.624087 
L 246.313875 -140.970237 
L 244.017095 -140.366936 
L 241.720316 -139.866977 
L 239.423536 -139.367017 
L 237.126756 -139.367017 
L 234.829977 -139.367017 
L 232.533197 -139.367017 
L 230.236417 -139.367017 
L 227.939638 -139.367017 
L 225.642858 -139.367017 
L 223.346078 -139.367017 
L 221.049298 -139.367017 
L 218.752519 -139.367017 
L 216.455739 -139.367017 
L 214.158959 -139.367017 
L 211.86218 -139.367017 
L 209.5654 -139.367017 
L 207.26862 -139.367017 
L 204.971841 -139.367017 
L 202.675061 -139.367017 
L 200.378281 -139.367017 
L 198.081501 -139.367017 
L 195.784722 -139.367017 
L 193.487942 -139.367017 
L 191.191162 -139.367017 
L 188.894383 -139.367017 
L 186.597603 -139.367017 
L 184.300823 -139.367017 
L 182.004044 -139.367017 
L 179.707264 -139.367017 
L 177.410484 -139.367017 
L 175.113704 -139.367017 
L 172.816925 -139.367017 
L 170.520145 -139.367017 
L 168.223365 -139.367017 
L 165.926586 -139.367017 
L 163.629806 -139.367017 
L 161.333026 -139.367017 
L 159.036247 -139.367017 
L 156.739467 -139.367017 
L 154.442687 -139.367017 
L 152.145907 -139.367017 
L 149.849128 -139.367017 
L 147.552348 -139.367017 
L 145.255568 -139.367017 
L 142.958789 -139.367017 
z
" style="stroke: #008000; stroke-opacity: 0.3"/>
    </defs>
    <g clip-path="url(#p364876c3cd)">
     <use xlink:href="#m25c900b660" x="0" y="432" style="fill: #008000; fill-opacity: 0.3; stroke: #008000; stroke-opacity: 0.3"/>
    </g>
   </g>
   <g id="PolyCollection_3">
    <defs>
     <path id="mc5b6262e6f" d="M 142.958789 -139.367017 
L 142.958789 -139.367017 
L 145.255568 -139.367017 
L 147.552348 -139.367017 
L 149.849128 -139.367017 
L 152.145907 -139.367017 
L 154.442687 -139.367017 
L 156.739467 -139.367017 
L 159.036247 -139.367017 
L 161.333026 -139.367017 
L 163.629806 -139.367017 
L 165.926586 -139.367017 
L 168.223365 -139.367017 
L 170.520145 -139.367017 
L 172.816925 -139.367017 
L 175.113704 -139.367017 
L 177.410484 -139.367017 
L 179.707264 -139.367017 
L 182.004044 -139.367017 
L 184.300823 -139.367017 
L 186.597603 -139.367017 
L 188.894383 -139.367017 
L 191.191162 -139.367017 
L 193.487942 -139.367017 
L 195.784722 -139.367017 
L 198.081501 -139.367017 
L 200.378281 -139.367017 
L 202.675061 -139.367017 
L 204.971841 -139.367017 
L 207.26862 -139.367017 
L 209.5654 -139.367017 
L 211.86218 -139.367017 
L 214.158959 -139.367017 
L 216.455739 -139.367017 
L 218.752519 -139.367017 
L 221.049298 -139.367017 
L 223.346078 -139.367017 
L 225.642858 -139.367017 
L 227.939638 -139.367017 
L 230.236417 -139.367017 
L 232.533197 -139.367017 
L 234.829977 -139.367017 
L 237.126756 -139.367017 
L 239.423536 -139.367017 
L 241.720316 -139.367017 
L 244.017095 -139.367017 
L 246.313875 -139.367017 
L 248.610655 -139.367017 
L 250.907435 -139.367017 
L 253.204214 -139.367017 
L 255.500994 -139.367017 
L 257.797774 -139.367017 
L 260.094553 -139.367017 
L 262.391333 -139.367017 
L 264.688113 -139.367017 
L 266.984892 -139.367017 
L 269.281672 -139.367017 
L 271.578452 -139.367017 
L 273.875232 -139.367017 
L 276.172011 -139.367017 
L 278.468791 -139.367017 
L 280.765571 -139.367017 
L 283.06235 -139.367017 
L 285.35913 -139.367017 
L 287.65591 -139.367017 
L 289.952689 -139.367017 
L 292.249469 -139.367017 
L 294.546249 -139.367017 
L 296.843029 -139.367017 
L 299.139808 -139.367017 
L 301.436588 -139.367017 
L 303.733368 -139.367017 
L 306.030147 -139.367017 
L 308.326927 -139.367017 
L 310.623707 -139.367017 
L 312.920486 -139.367017 
L 315.217266 -139.367017 
L 317.514046 -139.367017 
L 319.810826 -139.367017 
L 322.107605 -139.367017 
L 324.404385 -139.367017 
L 326.701165 -139.367017 
L 328.997944 -139.367017 
L 331.294724 -139.367017 
L 333.591504 -139.367017 
L 335.888283 -139.367017 
L 338.185063 -139.281237 
L 340.481843 -139.281237 
L 342.778623 -139.195458 
L 345.075402 -139.195458 
L 347.372182 -139.195458 
L 349.668962 -139.195458 
L 351.965741 -139.195458 
L 354.262521 -139.481022 
L 356.559301 -139.609638 
L 358.85608 -139.627607 
L 361.15286 -139.595027 
L 363.44964 -139.540058 
L 365.74642 -139.474017 
L 368.043199 -139.401858 
L 370.339979 -139.326005 
L 372.636759 -139.247767 
L 374.933538 -139.167904 
L 377.230318 -139.086886 
L 379.527098 -139.00502 
L 381.823877 -138.922513 
L 384.120657 -139.14844 
L 386.417437 -139.361571 
L 388.714217 -139.563765 
L 391.010996 -139.756613 
L 393.307776 -139.941462 
L 395.604556 -140.119449 
L 397.901335 -140.291531 
L 400.198115 -140.458514 
L 402.494895 -140.621074 
L 404.791674 -140.779784 
L 407.088454 -140.935128 
L 409.385234 -141.087517 
L 411.682014 -141.237302 
L 413.978793 -141.384783 
L 416.275573 -141.530216 
L 418.572353 -141.673826 
L 420.869132 -141.815803 
L 423.165912 -142.437073 
L 425.462692 -143.058343 
L 427.759471 -143.679613 
L 430.056251 -143.820126 
L 432.353031 -144.441396 
L 434.649811 -145.062666 
L 436.94659 -145.683936 
L 439.24337 -146.305206 
L 441.54015 -146.926476 
L 443.836929 -147.547747 
L 446.133709 -148.169017 
L 448.430489 -148.790287 
L 450.727268 -149.411557 
L 453.024048 -150.17202 
L 455.320828 -151.078216 
L 457.617608 -151.968261 
L 459.914387 -153.336674 
L 462.211167 -154.579214 
L 464.507947 -155.938929 
L 466.804726 -156.686955 
L 469.101506 -157.929496 
L 471.398286 -159.172036 
L 473.695065 -160.497108 
L 475.991845 -161.70924 
L 478.288625 -162.915285 
L 480.585405 -164.23667 
L 482.882184 -165.550539 
L 485.178964 -166.857221 
L 487.475744 -168.157038 
L 489.772523 -169.450309 
L 492.069303 -170.737346 
L 494.366083 -172.018454 
L 496.662862 -173.293926 
L 498.959642 -174.564046 
L 501.256422 -175.829088 
L 503.553202 -177.197006 
L 505.849981 -178.458304 
L 508.146761 -179.715116 
L 510.443541 -180.96767 
L 512.74032 -182.216183 
L 515.0371 -183.460861 
L 517.33388 -184.7019 
L 519.630659 -185.939486 
L 521.927439 -187.173795 
L 524.224219 -188.404995 
L 526.520999 -189.633243 
L 528.817778 -190.858689 
L 531.114558 -192.561251 
L 533.411338 -194.257392 
L 535.708117 -195.947054 
L 538.004897 -197.158092 
L 540.301677 -198.837505 
L 542.598456 -200.510458 
L 544.895236 -201.973088 
L 547.192016 -203.626557 
L 549.488796 -205.273529 
L 551.785575 -206.914017 
L 554.082355 -208.311837 
L 556.379135 -210.185138 
L 558.675914 -211.952503 
L 560.972694 -213.750372 
L 563.269474 -215.508508 
L 565.566253 -217.540306 
L 567.863033 -219.554252 
L 570.159813 -221.46351 
L 572.456593 -223.350112 
L 574.753372 -225.213923 
L 577.050152 -227.054941 
L 579.346932 -228.957201 
L 581.643711 -230.751405 
L 583.940491 -232.52308 
L 586.237271 -234.272775 
L 588.53405 -236.001145 
L 590.83083 -237.708936 
L 593.12761 -239.396965 
L 595.42439 -241.004438 
L 597.721169 -242.660166 
L 600.017949 -244.075055 
L 602.314729 -245.487838 
L 604.611508 -247.115469 
L 606.908288 -249.189621 
L 609.205068 -251.299607 
L 611.501847 -253.35726 
L 613.798627 -255.408315 
L 616.095407 -257.452801 
L 618.392187 -259.49076 
L 620.688966 -261.522239 
L 622.985746 -263.547298 
L 625.282526 -265.566004 
L 627.579305 -267.092289 
L 629.876085 -268.608222 
L 632.172865 -269.983097 
L 634.469644 -271.487515 
L 636.766424 -272.86011 
L 639.063204 -274.22585 
L 641.359984 -275.586325 
L 643.656763 -276.941628 
L 645.953543 -278.291856 
L 648.250323 -279.637108 
L 650.547102 -280.977486 
L 652.843882 -282.313093 
L 655.140662 -283.644033 
L 657.437441 -284.970412 
L 659.734221 -286.292337 
L 662.031001 -287.609914 
L 664.327781 -288.92325 
L 666.62456 -289.732528 
L 668.92134 -290.537708 
L 671.21812 -291.339098 
L 673.514899 -292.13698 
L 675.811679 -292.931608 
L 678.108459 -293.723215 
L 680.405238 -294.512015 
L 682.702018 -295.298201 
L 684.998798 -296.580754 
L 687.295578 -297.860416 
L 689.592357 -299.137261 
L 691.889137 -299.818973 
L 694.185917 -300.590962 
L 696.482696 -301.36128 
L 698.779476 -302.626089 
L 701.076256 -303.888537 
L 703.373035 -305.148684 
L 705.669815 -305.912114 
L 707.966595 -306.674337 
L 710.263375 -307.435427 
L 712.560154 -308.195452 
L 714.856934 -309.437993 
L 717.153714 -310.187126 
L 719.450493 -310.936105 
L 721.747273 -311.567815 
L 724.044053 -312.690085 
L 726.340832 -313.932625 
L 728.637612 -315.175166 
L 730.934392 -315.802568 
L 733.231172 -316.428159 
L 735.527951 -317.051983 
L 737.824731 -317.803833 
L 740.121511 -318.555475 
L 742.41829 -319.306918 
L 744.71507 -320.058167 
L 747.01185 -320.809229 
L 749.308629 -321.560109 
L 751.605409 -322.310813 
L 753.902189 -323.061347 
L 756.198969 -323.811716 
L 758.495748 -324.561924 
L 760.792528 -325.311978 
L 763.089308 -326.06188 
L 765.386087 -326.811637 
L 767.682867 -327.561251 
L 769.979647 -328.310728 
L 772.276426 -328.68281 
L 774.573206 -329.049697 
L 776.869986 -329.411719 
L 779.166766 -329.663412 
L 781.463545 -330.019719 
L 783.760325 -330.26998 
L 786.057105 -330.519979 
L 788.353884 -330.667118 
L 790.650664 -330.917355 
L 792.947444 -331.167343 
L 795.244223 -331.417093 
L 797.541003 -332.163153 
L 799.837783 -332.909158 
L 802.134563 -333.655109 
L 802.134563 -407.718111 
L 802.134563 -407.718111 
L 799.837783 -406.393161 
L 797.541003 -405.068265 
L 795.244223 -403.743425 
L 792.947444 -402.336455 
L 790.650664 -400.929722 
L 788.353884 -399.523238 
L 786.057105 -398.427837 
L 783.760325 -397.021116 
L 781.463545 -395.614657 
L 779.166766 -393.900063 
L 776.869986 -392.495035 
L 774.573206 -390.786157 
L 772.276426 -389.082143 
L 769.979647 -387.383325 
L 767.682867 -386.061901 
L 765.386087 -384.740615 
L 763.089308 -383.419471 
L 760.792528 -382.098473 
L 758.495748 -380.777625 
L 756.198969 -379.456933 
L 753.902189 -378.136402 
L 751.605409 -376.816035 
L 749.308629 -375.495839 
L 747.01185 -374.175818 
L 744.71507 -372.855979 
L 742.41829 -371.536328 
L 740.121511 -370.21687 
L 737.824731 -368.897612 
L 735.527951 -367.578561 
L 733.231172 -366.545664 
L 730.934392 -365.514535 
L 728.637612 -364.485217 
L 726.340832 -363.242677 
L 724.044053 -362.000137 
L 721.747273 -361.051506 
L 719.450493 -360.026496 
L 717.153714 -358.704574 
L 714.856934 -357.382807 
L 712.560154 -356.140267 
L 710.263375 -354.415211 
L 707.966595 -352.69122 
L 705.669815 -350.968362 
L 703.373035 -349.246712 
L 701.076256 -347.607598 
L 698.779476 -345.970785 
L 696.482696 -344.336334 
L 694.185917 -342.621571 
L 691.889137 -340.908479 
L 689.592357 -339.519291 
L 687.295578 -337.896875 
L 684.998798 -336.277276 
L 682.702018 -334.660568 
L 680.405238 -332.961674 
L 678.108459 -331.265393 
L 675.811679 -329.57192 
L 673.514899 -327.881467 
L 671.21812 -326.194268 
L 668.92134 -324.510577 
L 666.62456 -322.830677 
L 664.327781 -321.154873 
L 662.031001 -319.568949 
L 659.734221 -317.987265 
L 657.437441 -316.409929 
L 655.140662 -314.837048 
L 652.843882 -313.268727 
L 650.547102 -311.705073 
L 648.250323 -310.14619 
L 645.953543 -308.592182 
L 643.656763 -307.043149 
L 641.359984 -305.499191 
L 639.063204 -303.960405 
L 636.766424 -302.426885 
L 634.469644 -300.486039 
L 632.172865 -298.262835 
L 629.876085 -296.324269 
L 627.579305 -294.112582 
L 625.282526 -291.911245 
L 622.985746 -289.78815 
L 620.688966 -287.671408 
L 618.392187 -285.561087 
L 616.095407 -283.457244 
L 613.798627 -281.359929 
L 611.501847 -279.269183 
L 609.205068 -277.185035 
L 606.908288 -275.5674 
L 604.611508 -273.49975 
L 602.314729 -271.399761 
L 600.017949 -269.499103 
L 597.721169 -267.600551 
L 595.42439 -265.528658 
L 593.12761 -262.99433 
L 590.83083 -260.954737 
L 588.53405 -258.934908 
L 586.237271 -256.935657 
L 583.940491 -254.95773 
L 581.643711 -253.001784 
L 579.346932 -251.068368 
L 577.050152 -249.657187 
L 574.753372 -247.770584 
L 572.456593 -245.906773 
L 570.159813 -244.065755 
L 567.863033 -242.247392 
L 565.566253 -240.947896 
L 563.269474 -239.666254 
L 560.972694 -238.525129 
L 558.675914 -237.423738 
L 556.379135 -235.877662 
L 554.082355 -234.851702 
L 551.785575 -233.350261 
L 549.488796 -231.677308 
L 547.192016 -230.010838 
L 544.895236 -228.350867 
L 542.598456 -226.914237 
L 540.301677 -225.273749 
L 538.004897 -223.63972 
L 535.708117 -221.951497 
L 533.411338 -220.327719 
L 531.114558 -218.710419 
L 528.817778 -217.09954 
L 526.520999 -215.425725 
L 524.224219 -213.754713 
L 521.927439 -212.086651 
L 519.630659 -210.4217 
L 517.33388 -208.760025 
L 515.0371 -207.101803 
L 512.74032 -205.44722 
L 510.443541 -203.796472 
L 508.146761 -202.149766 
L 505.849981 -200.507317 
L 503.553202 -198.869354 
L 501.256422 -196.923831 
L 498.959642 -195.289612 
L 496.662862 -193.660472 
L 494.366083 -192.036683 
L 492.069303 -190.41853 
L 489.772523 -188.806307 
L 487.475744 -187.200317 
L 485.178964 -185.600873 
L 482.882184 -184.008294 
L 480.585405 -182.422903 
L 478.288625 -180.845027 
L 475.991845 -179.980171 
L 473.695065 -179.121402 
L 471.398286 -177.961394 
L 469.101506 -176.718853 
L 466.804726 -175.476313 
L 464.507947 -174.153439 
L 462.211167 -172.613893 
L 459.914387 -171.371352 
L 457.617608 -169.840505 
L 455.320828 -168.245469 
L 453.024048 -166.666584 
L 450.727268 -165.356147 
L 448.430489 -164.734876 
L 446.133709 -164.113606 
L 443.836929 -163.492336 
L 441.54015 -162.871066 
L 439.24337 -162.249796 
L 436.94659 -161.628526 
L 434.649811 -161.007255 
L 432.353031 -160.385985 
L 430.056251 -159.764715 
L 427.759471 -159.076867 
L 425.462692 -158.455597 
L 423.165912 -157.834327 
L 420.869132 -157.213056 
L 418.572353 -156.526673 
L 416.275573 -155.841922 
L 413.978793 -155.158996 
L 411.682014 -154.478116 
L 409.385234 -153.799541 
L 407.088454 -153.12357 
L 404.791674 -152.450554 
L 402.494895 -151.780903 
L 400.198115 -151.115103 
L 397.901335 -150.453726 
L 395.604556 -149.797448 
L 393.307776 -149.147075 
L 391.010996 -148.503563 
L 388.714217 -147.868051 
L 386.417437 -147.241885 
L 384.120657 -146.626656 
L 381.823877 -146.024223 
L 379.527098 -145.527535 
L 377.230318 -145.031489 
L 374.933538 -144.536291 
L 372.636759 -144.042248 
L 370.339979 -143.54983 
L 368.043199 -143.059797 
L 365.74642 -142.573457 
L 363.44964 -142.093236 
L 361.15286 -141.624087 
L 358.85608 -141.177327 
L 356.559301 -140.781116 
L 354.262521 -140.495552 
L 351.965741 -140.366936 
L 349.668962 -140.366936 
L 347.372182 -140.366936 
L 345.075402 -140.366936 
L 342.778623 -140.366936 
L 340.481843 -139.866977 
L 338.185063 -139.866977 
L 335.888283 -139.367017 
L 333.591504 -139.367017 
L 331.294724 -139.367017 
L 328.997944 -139.367017 
L 326.701165 -139.367017 
L 324.404385 -139.367017 
L 322.107605 -139.367017 
L 319.810826 -139.367017 
L 317.514046 -139.367017 
L 315.217266 -139.367017 
L 312.920486 -139.367017 
L 310.623707 -139.367017 
L 308.326927 -139.367017 
L 306.030147 -139.367017 
L 303.733368 -139.367017 
L 301.436588 -139.367017 
L 299.139808 -139.367017 
L 296.843029 -139.367017 
L 294.546249 -139.367017 
L 292.249469 -139.367017 
L 289.952689 -139.367017 
L 287.65591 -139.367017 
L 285.35913 -139.367017 
L 283.06235 -139.367017 
L 280.765571 -139.367017 
L 278.468791 -139.367017 
L 276.172011 -139.367017 
L 273.875232 -139.367017 
L 271.578452 -139.367017 
L 269.281672 -139.367017 
L 266.984892 -139.367017 
L 264.688113 -139.367017 
L 262.391333 -139.367017 
L 260.094553 -139.367017 
L 257.797774 -139.367017 
L 255.500994 -139.367017 
L 253.204214 -139.367017 
L 250.907435 -139.367017 
L 248.610655 -139.367017 
L 246.313875 -139.367017 
L 244.017095 -139.367017 
L 241.720316 -139.367017 
L 239.423536 -139.367017 
L 237.126756 -139.367017 
L 234.829977 -139.367017 
L 232.533197 -139.367017 
L 230.236417 -139.367017 
L 227.939638 -139.367017 
L 225.642858 -139.367017 
L 223.346078 -139.367017 
L 221.049298 -139.367017 
L 218.752519 -139.367017 
L 216.455739 -139.367017 
L 214.158959 -139.367017 
L 211.86218 -139.367017 
L 209.5654 -139.367017 
L 207.26862 -139.367017 
L 204.971841 -139.367017 
L 202.675061 -139.367017 
L 200.378281 -139.367017 
L 198.081501 -139.367017 
L 195.784722 -139.367017 
L 193.487942 -139.367017 
L 191.191162 -139.367017 
L 188.894383 -139.367017 
L 186.597603 -139.367017 
L 184.300823 -139.367017 
L 182.004044 -139.367017 
L 179.707264 -139.367017 
L 177.410484 -139.367017 
L 175.113704 -139.367017 
L 172.816925 -139.367017 
L 170.520145 -139.367017 
L 168.223365 -139.367017 
L 165.926586 -139.367017 
L 163.629806 -139.367017 
L 161.333026 -139.367017 
L 159.036247 -139.367017 
L 156.739467 -139.367017 
L 154.442687 -139.367017 
L 152.145907 -139.367017 
L 149.849128 -139.367017 
L 147.552348 -139.367017 
L 145.255568 -139.367017 
L 142.958789 -139.367017 
z
" style="stroke: #ff0000; stroke-opacity: 0.3"/>
    </defs>
    <g clip-path="url(#p364876c3cd)">
     <use xlink:href="#mc5b6262e6f" x="0" y="432" style="fill: #ff0000; fill-opacity: 0.3; stroke: #ff0000; stroke-opacity: 0.3"/>
    </g>
   </g>
   <g id="PolyCollection_4">
    <defs>
     <path id="mc6a71c013f" d="M 142.958789 -139.367017 
L 142.958789 -139.367017 
L 145.255568 -139.367017 
L 147.552348 -139.367017 
L 149.849128 -139.367017 
L 152.145907 -139.367017 
L 154.442687 -139.367017 
L 156.739467 -139.367017 
L 159.036247 -139.367017 
L 161.333026 -139.367017 
L 163.629806 -139.367017 
L 165.926586 -139.367017 
L 168.223365 -139.367017 
L 170.520145 -139.367017 
L 172.816925 -139.367017 
L 175.113704 -139.367017 
L 177.410484 -139.367017 
L 179.707264 -139.367017 
L 182.004044 -139.367017 
L 184.300823 -139.367017 
L 186.597603 -139.367017 
L 188.894383 -139.367017 
L 191.191162 -139.367017 
L 193.487942 -139.367017 
L 195.784722 -139.367017 
L 198.081501 -139.367017 
L 200.378281 -139.367017 
L 202.675061 -139.367017 
L 204.971841 -139.367017 
L 207.26862 -139.367017 
L 209.5654 -139.367017 
L 211.86218 -139.367017 
L 214.158959 -139.367017 
L 216.455739 -139.367017 
L 218.752519 -139.367017 
L 221.049298 -139.367017 
L 223.346078 -139.367017 
L 225.642858 -139.367017 
L 227.939638 -139.367017 
L 230.236417 -139.367017 
L 232.533197 -139.367017 
L 234.829977 -139.367017 
L 237.126756 -139.367017 
L 239.423536 -139.367017 
L 241.720316 -139.367017 
L 244.017095 -139.367017 
L 246.313875 -139.367017 
L 248.610655 -139.367017 
L 250.907435 -139.367017 
L 253.204214 -139.367017 
L 255.500994 -139.367017 
L 257.797774 -139.367017 
L 260.094553 -139.367017 
L 262.391333 -139.367017 
L 264.688113 -139.367017 
L 266.984892 -139.367017 
L 269.281672 -139.367017 
L 271.578452 -139.281237 
L 273.875232 -139.281237 
L 276.172011 -139.281237 
L 278.468791 -139.195458 
L 280.765571 -139.109678 
L 283.06235 -139.023899 
L 285.35913 -138.938119 
L 287.65591 -138.85234 
L 289.952689 -138.76656 
L 292.249469 -138.680781 
L 294.546249 -138.595001 
L 296.843029 -138.509222 
L 299.139808 -138.423442 
L 301.436588 -138.337663 
L 303.733368 -138.251883 
L 306.030147 -138.166104 
L 308.326927 -138.166104 
L 310.623707 -138.166104 
L 312.920486 -138.166104 
L 315.217266 -138.166104 
L 317.514046 -138.080324 
L 319.810826 -138.080324 
L 322.107605 -138.080324 
L 324.404385 -138.426282 
L 326.701165 -138.426282 
L 328.997944 -138.756114 
L 331.294724 -139.068347 
L 333.591504 -139.361571 
L 335.888283 -139.634518 
L 338.185063 -139.886142 
L 340.481843 -140.115694 
L 342.778623 -140.322784 
L 345.075402 -140.507412 
L 347.372182 -140.669968 
L 349.668962 -140.811201 
L 351.965741 -140.811201 
L 354.262521 -140.811201 
L 356.559301 -140.811201 
L 358.85608 -140.811201 
L 361.15286 -140.811201 
L 363.44964 -140.811201 
L 365.74642 -140.811201 
L 368.043199 -140.811201 
L 370.339979 -140.811201 
L 372.636759 -140.811201 
L 374.933538 -140.811201 
L 377.230318 -140.811201 
L 379.527098 -140.811201 
L 381.823877 -140.811201 
L 384.120657 -140.811201 
L 386.417437 -140.811201 
L 388.714217 -140.811201 
L 391.010996 -140.811201 
L 393.307776 -141.300509 
L 395.604556 -141.300509 
L 397.901335 -141.300509 
L 400.198115 -141.300509 
L 402.494895 -141.300509 
L 404.791674 -141.300509 
L 407.088454 -141.300509 
L 409.385234 -141.291238 
L 411.682014 -141.272455 
L 413.978793 -141.272455 
L 416.275573 -141.272455 
L 418.572353 -141.245645 
L 420.869132 -141.21204 
L 423.165912 -141.172657 
L 425.462692 -141.128339 
L 427.759471 -141.079784 
L 430.056251 -141.027574 
L 432.353031 -140.972194 
L 434.649811 -140.914053 
L 436.94659 -140.853495 
L 439.24337 -140.790811 
L 441.54015 -140.970603 
L 443.836929 -141.146065 
L 446.133709 -141.31762 
L 448.430489 -141.485641 
L 450.727268 -141.650459 
L 453.024048 -141.764547 
L 455.320828 -141.878625 
L 457.617608 -142.040381 
L 459.914387 -142.154386 
L 462.211167 -142.268391 
L 464.507947 -142.382396 
L 466.804726 -142.541961 
L 469.101506 -143.117672 
L 471.398286 -143.69146 
L 473.695065 -144.263452 
L 475.991845 -144.833763 
L 478.288625 -144.948098 
L 480.585405 -145.517068 
L 482.882184 -146.084611 
L 485.178964 -146.65081 
L 487.475744 -147.215746 
L 489.772523 -148.225771 
L 492.069303 -148.78689 
L 494.366083 -149.346986 
L 496.662862 -150.345836 
L 498.959642 -151.338705 
L 501.256422 -151.893358 
L 503.553202 -152.447272 
L 505.849981 -153.000485 
L 508.146761 -153.553038 
L 510.443541 -154.104964 
L 512.74032 -154.656298 
L 515.0371 -155.277568 
L 517.33388 -155.898838 
L 519.630659 -156.520108 
L 521.927439 -157.141378 
L 524.224219 -157.762648 
L 526.520999 -158.576714 
L 528.817778 -159.456097 
L 531.114558 -160.330248 
L 533.411338 -161.135386 
L 535.708117 -161.938522 
L 538.004897 -162.739743 
L 540.301677 -163.599142 
L 542.598456 -164.453413 
L 544.895236 -165.302531 
L 547.192016 -166.146477 
L 549.488796 -166.985235 
L 551.785575 -167.818797 
L 554.082355 -169.10853 
L 556.379135 -169.934249 
L 558.675914 -171.219936 
L 560.972694 -172.969543 
L 563.269474 -174.914773 
L 565.566253 -176.853276 
L 567.863033 -178.310456 
L 570.159813 -180.203405 
L 572.456593 -182.094183 
L 574.753372 -183.524346 
L 577.050152 -185.422152 
L 579.346932 -187.298842 
L 581.643711 -189.026265 
L 583.940491 -190.752994 
L 586.237271 -192.478981 
L 588.53405 -194.185336 
L 590.83083 -195.884763 
L 593.12761 -197.577189 
L 595.42439 -199.26255 
L 597.721169 -200.976767 
L 600.017949 -202.651829 
L 602.314729 -204.319568 
L 604.611508 -205.979964 
L 606.908288 -207.633009 
L 609.205068 -209.278711 
L 611.501847 -210.91709 
L 613.798627 -212.54818 
L 616.095407 -214.172029 
L 618.392187 -215.788699 
L 620.688966 -217.39826 
L 622.985746 -219.000799 
L 625.282526 -220.596411 
L 627.579305 -222.1852 
L 629.876085 -223.767282 
L 632.172865 -225.342781 
L 634.469644 -226.911826 
L 636.766424 -228.474556 
L 639.063204 -230.031112 
L 641.359984 -231.581643 
L 643.656763 -233.1263 
L 645.953543 -234.665237 
L 648.250323 -235.823406 
L 650.547102 -236.981514 
L 652.843882 -237.761091 
L 655.140662 -238.919589 
L 657.437441 -240.078016 
L 659.734221 -241.236378 
L 662.031001 -242.394677 
L 664.327781 -243.552917 
L 666.62456 -245.086838 
L 668.92134 -246.329378 
L 671.21812 -246.780999 
L 673.514899 -247.564084 
L 675.811679 -248.722076 
L 678.108459 -249.880025 
L 680.405238 -251.496439 
L 682.702018 -253.109387 
L 684.998798 -254.718767 
L 687.295578 -255.961307 
L 689.592357 -257.567015 
L 691.889137 -259.0832 
L 694.185917 -260.595429 
L 696.482696 -262.103805 
L 698.779476 -263.694075 
L 701.076256 -265.194884 
L 703.373035 -266.692081 
L 705.669815 -268.185767 
L 707.966595 -269.67604 
L 710.263375 -271.162997 
L 712.560154 -272.646734 
L 714.856934 -274.510545 
L 717.153714 -276.374355 
L 719.450493 -278.238166 
L 721.747273 -280.101976 
L 724.044053 -281.965787 
L 726.340832 -283.829597 
L 728.637612 -285.693408 
L 730.934392 -287.557218 
L 733.231172 -289.421029 
L 735.527951 -291.284839 
L 737.824731 -293.528723 
L 740.121511 -295.769387 
L 742.41829 -297.633197 
L 744.71507 -299.497008 
L 747.01185 -301.360818 
L 749.308629 -303.598167 
L 751.605409 -305.832102 
L 753.902189 -308.062526 
L 756.198969 -310.289337 
L 758.495748 -312.512434 
L 760.792528 -314.731713 
L 763.089308 -316.94707 
L 765.386087 -319.158399 
L 767.682867 -321.365593 
L 769.979647 -323.568547 
L 772.276426 -325.85196 
L 774.573206 -328.454627 
L 776.869986 -331.035197 
L 779.166766 -333.591242 
L 781.463545 -336.120105 
L 783.760325 -338.618916 
L 786.057105 -341.08462 
L 788.353884 -343.514016 
L 790.650664 -345.903836 
L 792.947444 -348.250833 
L 795.244223 -350.359824 
L 797.541003 -352.415716 
L 799.837783 -354.46414 
L 802.134563 -356.32795 
L 802.134563 -379.246748 
L 802.134563 -379.246748 
L 799.837783 -377.382937 
L 797.541003 -375.28956 
L 795.244223 -373.20365 
L 792.947444 -371.585021 
L 790.650664 -369.790217 
L 788.353884 -368.038236 
L 786.057105 -366.325831 
L 783.760325 -364.649733 
L 781.463545 -363.006743 
L 779.166766 -361.393805 
L 776.869986 -359.808049 
L 774.573206 -358.246818 
L 772.276426 -356.707684 
L 769.979647 -355.263476 
L 767.682867 -353.324628 
L 765.386087 -351.390022 
L 763.089308 -349.459549 
L 760.792528 -347.533105 
L 758.495748 -345.610583 
L 756.198969 -343.691879 
L 753.902189 -341.776889 
L 751.605409 -339.865512 
L 749.308629 -337.957646 
L 747.01185 -336.053193 
L 744.71507 -334.189383 
L 742.41829 -332.325572 
L 740.121511 -330.461762 
L 737.824731 -328.560624 
L 735.527951 -326.662707 
L 733.231172 -324.798896 
L 730.934392 -322.935086 
L 728.637612 -321.071275 
L 726.340832 -319.207465 
L 724.044053 -317.343654 
L 721.747273 -315.479844 
L 719.450493 -313.616033 
L 717.153714 -311.752223 
L 714.856934 -309.888412 
L 712.560154 -308.024602 
L 710.263375 -306.194898 
L 707.966595 -304.368415 
L 705.669815 -302.545246 
L 703.373035 -300.725491 
L 701.076256 -298.909247 
L 698.779476 -297.096616 
L 696.482696 -295.787625 
L 694.185917 -293.98256 
L 691.889137 -292.181348 
L 689.592357 -290.384092 
L 687.295578 -289.090539 
L 684.998798 -287.847998 
L 682.702018 -286.558118 
L 680.405238 -285.271805 
L 678.108459 -283.988958 
L 675.811679 -282.247647 
L 673.514899 -280.506378 
L 671.21812 -278.804382 
L 668.92134 -277.185102 
L 666.62456 -275.942562 
L 664.327781 -274.163041 
L 662.031001 -272.422021 
L 659.734221 -270.681059 
L 657.437441 -268.94016 
L 655.140662 -267.199327 
L 652.843882 -265.458564 
L 650.547102 -263.75306 
L 648.250323 -262.011907 
L 645.953543 -260.270815 
L 643.656763 -258.496311 
L 641.359984 -256.727527 
L 639.063204 -254.964618 
L 636.766424 -253.207733 
L 634.469644 -251.457022 
L 632.172865 -249.712626 
L 629.876085 -247.974684 
L 627.579305 -246.243325 
L 625.282526 -244.518674 
L 622.985746 -242.800844 
L 620.688966 -241.089942 
L 618.392187 -239.386063 
L 616.095407 -237.689291 
L 613.798627 -235.9997 
L 611.501847 -234.31735 
L 609.205068 -232.642287 
L 606.908288 -230.974548 
L 604.611508 -229.314152 
L 602.314729 -227.661107 
L 600.017949 -226.015406 
L 597.721169 -224.377027 
L 595.42439 -223.191983 
L 593.12761 -221.563903 
L 590.83083 -219.942888 
L 588.53405 -218.328875 
L 586.237271 -216.721789 
L 583.940491 -215.548515 
L 581.643711 -214.375983 
L 579.346932 -213.204145 
L 577.050152 -211.767394 
L 574.753372 -210.765939 
L 572.456593 -209.711022 
L 570.159813 -208.288359 
L 567.863033 -206.867867 
L 565.566253 -205.839966 
L 563.269474 -204.879208 
L 560.972694 -203.925177 
L 558.675914 -203.189704 
L 556.379135 -202.40449 
L 554.082355 -201.573488 
L 551.785575 -200.792321 
L 549.488796 -199.969162 
L 547.192016 -199.151201 
L 544.895236 -198.338426 
L 542.598456 -197.530823 
L 540.301677 -196.728374 
L 538.004897 -195.931053 
L 535.708117 -194.661373 
L 533.411338 -193.393609 
L 531.114558 -192.127846 
L 528.817778 -191.345276 
L 526.520999 -190.567939 
L 524.224219 -189.311104 
L 521.927439 -188.689834 
L 519.630659 -188.068564 
L 517.33388 -187.447293 
L 515.0371 -186.826023 
L 512.74032 -186.204753 
L 510.443541 -185.099366 
L 508.146761 -183.994572 
L 505.849981 -182.890404 
L 503.553202 -181.786897 
L 501.256422 -180.68409 
L 498.959642 -179.582023 
L 496.662862 -178.503992 
L 494.366083 -177.431941 
L 492.069303 -176.335317 
L 489.772523 -175.239715 
L 487.475744 -174.178839 
L 485.178964 -173.087055 
L 482.882184 -171.996534 
L 480.585405 -170.907356 
L 478.288625 -169.819605 
L 475.991845 -168.6914 
L 473.695065 -167.604991 
L 471.398286 -166.520262 
L 469.101506 -165.43733 
L 466.804726 -164.356321 
L 464.507947 -163.687525 
L 462.211167 -162.55899 
L 459.914387 -161.430455 
L 457.617608 -160.30192 
L 455.320828 -159.635315 
L 453.024048 -158.506853 
L 450.727268 -157.3784 
L 448.430489 -156.714858 
L 446.133709 -156.054519 
L 443.836929 -155.397713 
L 441.54015 -154.744816 
L 439.24337 -154.096247 
L 436.94659 -153.619383 
L 434.649811 -153.144645 
L 432.353031 -152.672324 
L 430.056251 -152.202764 
L 427.759471 -151.736374 
L 425.462692 -151.273638 
L 423.165912 -150.81514 
L 420.869132 -150.361578 
L 418.572353 -149.913792 
L 416.275573 -149.472802 
L 413.978793 -149.472802 
L 411.682014 -149.472802 
L 409.385234 -149.039839 
L 407.088454 -148.616388 
L 404.791674 -148.616388 
L 402.494895 -148.616388 
L 400.198115 -148.616388 
L 397.901335 -148.616388 
L 395.604556 -148.616388 
L 393.307776 -148.616388 
L 391.010996 -148.691515 
L 388.714217 -148.691515 
L 386.417437 -148.691515 
L 384.120657 -148.691515 
L 381.823877 -148.691515 
L 379.527098 -148.691515 
L 377.230318 -148.691515 
L 374.933538 -148.691515 
L 372.636759 -148.691515 
L 370.339979 -148.691515 
L 368.043199 -148.691515 
L 365.74642 -148.691515 
L 363.44964 -148.691515 
L 361.15286 -148.691515 
L 358.85608 -148.691515 
L 356.559301 -148.691515 
L 354.262521 -148.691515 
L 351.965741 -148.691515 
L 349.668962 -148.691515 
L 347.372182 -148.418569 
L 345.075402 -148.166945 
L 342.778623 -147.937393 
L 340.481843 -147.730303 
L 338.185063 -147.545675 
L 335.888283 -147.383118 
L 333.591504 -147.241885 
L 331.294724 -147.120929 
L 328.997944 -147.018982 
L 326.701165 -146.934634 
L 324.404385 -146.934634 
L 322.107605 -146.866411 
L 319.810826 -146.866411 
L 317.514046 -146.866411 
L 315.217266 -146.366452 
L 312.920486 -146.366452 
L 310.623707 -146.366452 
L 308.326927 -146.366452 
L 306.030147 -146.366452 
L 303.733368 -145.866492 
L 301.436588 -145.366532 
L 299.139808 -144.866573 
L 296.843029 -144.366613 
L 294.546249 -143.866654 
L 292.249469 -143.366694 
L 289.952689 -142.866734 
L 287.65591 -142.366775 
L 285.35913 -141.866815 
L 283.06235 -141.366855 
L 280.765571 -140.866896 
L 278.468791 -140.366936 
L 276.172011 -139.866977 
L 273.875232 -139.866977 
L 271.578452 -139.866977 
L 269.281672 -139.367017 
L 266.984892 -139.367017 
L 264.688113 -139.367017 
L 262.391333 -139.367017 
L 260.094553 -139.367017 
L 257.797774 -139.367017 
L 255.500994 -139.367017 
L 253.204214 -139.367017 
L 250.907435 -139.367017 
L 248.610655 -139.367017 
L 246.313875 -139.367017 
L 244.017095 -139.367017 
L 241.720316 -139.367017 
L 239.423536 -139.367017 
L 237.126756 -139.367017 
L 234.829977 -139.367017 
L 232.533197 -139.367017 
L 230.236417 -139.367017 
L 227.939638 -139.367017 
L 225.642858 -139.367017 
L 223.346078 -139.367017 
L 221.049298 -139.367017 
L 218.752519 -139.367017 
L 216.455739 -139.367017 
L 214.158959 -139.367017 
L 211.86218 -139.367017 
L 209.5654 -139.367017 
L 207.26862 -139.367017 
L 204.971841 -139.367017 
L 202.675061 -139.367017 
L 200.378281 -139.367017 
L 198.081501 -139.367017 
L 195.784722 -139.367017 
L 193.487942 -139.367017 
L 191.191162 -139.367017 
L 188.894383 -139.367017 
L 186.597603 -139.367017 
L 184.300823 -139.367017 
L 182.004044 -139.367017 
L 179.707264 -139.367017 
L 177.410484 -139.367017 
L 175.113704 -139.367017 
L 172.816925 -139.367017 
L 170.520145 -139.367017 
L 168.223365 -139.367017 
L 165.926586 -139.367017 
L 163.629806 -139.367017 
L 161.333026 -139.367017 
L 159.036247 -139.367017 
L 156.739467 -139.367017 
L 154.442687 -139.367017 
L 152.145907 -139.367017 
L 149.849128 -139.367017 
L 147.552348 -139.367017 
L 145.255568 -139.367017 
L 142.958789 -139.367017 
z
" style="stroke: #ffa500; stroke-opacity: 0.3"/>
    </defs>
    <g clip-path="url(#p364876c3cd)">
     <use xlink:href="#mc6a71c013f" x="0" y="432" style="fill: #ffa500; fill-opacity: 0.3; stroke: #ffa500; stroke-opacity: 0.3"/>
    </g>
   </g>
   <g id="matplotlib.axis_1">
    <g id="xtick_1">
     <g id="line2d_1">
      <defs>
       <path id="m4c0e463c7e" d="M 0 0 
L 0 3.5 
" style="stroke: #000000; stroke-width: 0.8"/>
      </defs>
      <g>
       <use xlink:href="#m4c0e463c7e" x="142.958789" y="354.76" style="stroke: #000000; stroke-width: 0.8"/>
      </g>
     </g>
     <g id="text_1">
      <!-- 0 -->
      <g transform="translate(135.958789 381.01) scale(0.28 -0.28)">
       <defs>
        <path id="SimHei-30" d="M 225 2537 
Q 250 3200 412 3587 
Q 575 3975 875 4225 
Q 1175 4475 1612 4475 
Q 2050 4475 2375 4112 
Q 2700 3750 2800 3200 
Q 2900 2650 2862 1937 
Q 2825 1225 2612 775 
Q 2400 325 1975 150 
Q 1550 -25 1125 187 
Q 700 400 525 750 
Q 350 1100 275 1487 
Q 200 1875 225 2537 
z
M 750 2687 
Q 675 2000 800 1462 
Q 925 925 1212 700 
Q 1500 475 1800 612 
Q 2100 750 2237 1162 
Q 2375 1575 2375 2062 
Q 2375 2550 2337 2950 
Q 2300 3350 2112 3675 
Q 1925 4000 1612 4012 
Q 1300 4025 1062 3700 
Q 825 3375 750 2687 
z
" transform="scale(0.015625)"/>
       </defs>
       <use xlink:href="#SimHei-30"/>
      </g>
     </g>
    </g>
    <g id="xtick_2">
     <g id="line2d_2">
      <g>
       <use xlink:href="#m4c0e463c7e" x="257.797774" y="354.76" style="stroke: #000000; stroke-width: 0.8"/>
      </g>
     </g>
     <g id="text_2">
      <!-- 50 -->
      <g transform="translate(243.797774 381.01) scale(0.28 -0.28)">
       <defs>
        <path id="SimHei-35" d="M 550 1325 
Q 725 650 1150 575 
Q 1575 500 1837 662 
Q 2100 825 2212 1087 
Q 2325 1350 2312 1675 
Q 2300 2000 2137 2225 
Q 1975 2450 1725 2525 
Q 1475 2600 1162 2525 
Q 850 2450 650 2175 
L 225 2225 
Q 275 2375 700 4375 
L 2675 4375 
L 2675 3925 
L 1075 3925 
Q 950 3250 825 2850 
Q 1200 3025 1525 3012 
Q 1850 3000 2150 2862 
Q 2450 2725 2587 2487 
Q 2725 2250 2787 2012 
Q 2850 1775 2837 1500 
Q 2825 1225 2725 937 
Q 2625 650 2425 462 
Q 2225 275 1937 162 
Q 1650 50 1275 75 
Q 900 100 562 350 
Q 225 600 100 1200 
L 550 1325 
z
" transform="scale(0.015625)"/>
       </defs>
       <use xlink:href="#SimHei-35"/>
       <use xlink:href="#SimHei-30" x="50"/>
      </g>
     </g>
    </g>
    <g id="xtick_3">
     <g id="line2d_3">
      <g>
       <use xlink:href="#m4c0e463c7e" x="372.636759" y="354.76" style="stroke: #000000; stroke-width: 0.8"/>
      </g>
     </g>
     <g id="text_3">
      <!-- 100 -->
      <g transform="translate(351.636759 381.01) scale(0.28 -0.28)">
       <defs>
        <path id="SimHei-31" d="M 1400 3600 
Q 1075 3275 575 2975 
L 575 3450 
Q 1200 3875 1600 4450 
L 1900 4450 
L 1900 150 
L 1400 150 
L 1400 3600 
z
" transform="scale(0.015625)"/>
       </defs>
       <use xlink:href="#SimHei-31"/>
       <use xlink:href="#SimHei-30" x="50"/>
       <use xlink:href="#SimHei-30" x="100"/>
      </g>
     </g>
    </g>
    <g id="xtick_4">
     <g id="line2d_4">
      <g>
       <use xlink:href="#m4c0e463c7e" x="487.475744" y="354.76" style="stroke: #000000; stroke-width: 0.8"/>
      </g>
     </g>
     <g id="text_4">
      <!-- 150 -->
      <g transform="translate(466.475744 381.01) scale(0.28 -0.28)">
       <use xlink:href="#SimHei-31"/>
       <use xlink:href="#SimHei-35" x="50"/>
       <use xlink:href="#SimHei-30" x="100"/>
      </g>
     </g>
    </g>
    <g id="xtick_5">
     <g id="line2d_5">
      <g>
       <use xlink:href="#m4c0e463c7e" x="602.314729" y="354.76" style="stroke: #000000; stroke-width: 0.8"/>
      </g>
     </g>
     <g id="text_5">
      <!-- 200 -->
      <g transform="translate(581.314729 381.01) scale(0.28 -0.28)">
       <defs>
        <path id="SimHei-32" d="M 300 250 
Q 325 625 650 925 
Q 975 1225 1475 1862 
Q 1975 2500 2125 2850 
Q 2275 3200 2237 3450 
Q 2200 3700 2000 3862 
Q 1800 4025 1537 4000 
Q 1275 3975 1037 3800 
Q 800 3625 675 3275 
L 200 3350 
Q 400 3925 712 4187 
Q 1025 4450 1450 4475 
Q 1700 4500 1900 4462 
Q 2100 4425 2312 4287 
Q 2525 4150 2662 3875 
Q 2800 3600 2762 3212 
Q 2725 2825 2375 2287 
Q 2025 1750 1025 600 
L 2825 600 
L 2825 150 
L 300 150 
L 300 250 
z
" transform="scale(0.015625)"/>
       </defs>
       <use xlink:href="#SimHei-32"/>
       <use xlink:href="#SimHei-30" x="50"/>
       <use xlink:href="#SimHei-30" x="100"/>
      </g>
     </g>
    </g>
    <g id="xtick_6">
     <g id="line2d_6">
      <g>
       <use xlink:href="#m4c0e463c7e" x="717.153714" y="354.76" style="stroke: #000000; stroke-width: 0.8"/>
      </g>
     </g>
     <g id="text_6">
      <!-- 250 -->
      <g transform="translate(696.153714 381.01) scale(0.28 -0.28)">
       <use xlink:href="#SimHei-32"/>
       <use xlink:href="#SimHei-35" x="50"/>
       <use xlink:href="#SimHei-30" x="100"/>
      </g>
     </g>
    </g>
    <g id="xtick_7">
     <g id="line2d_7">
      <g>
       <use xlink:href="#m4c0e463c7e" x="831.992699" y="354.76" style="stroke: #000000; stroke-width: 0.8"/>
      </g>
     </g>
     <g id="text_7">
      <!-- 300 -->
      <g transform="translate(810.992699 381.01) scale(0.28 -0.28)">
       <defs>
        <path id="SimHei-33" d="M 250 1225 
L 700 1300 
Q 800 975 1025 762 
Q 1250 550 1587 562 
Q 1925 575 2125 837 
Q 2325 1100 2300 1437 
Q 2275 1775 2037 1962 
Q 1800 2150 1275 2225 
L 1275 2550 
Q 1800 2600 2037 2825 
Q 2275 3050 2250 3412 
Q 2225 3775 1925 3937 
Q 1625 4100 1287 3975 
Q 950 3850 750 3275 
L 300 3350 
Q 450 3800 712 4100 
Q 975 4400 1425 4450 
Q 1875 4500 2212 4337 
Q 2550 4175 2687 3837 
Q 2825 3500 2725 3100 
Q 2625 2700 2150 2400 
Q 2500 2250 2687 1950 
Q 2875 1650 2812 1162 
Q 2750 675 2375 375 
Q 2000 75 1525 87 
Q 1050 100 700 387 
Q 350 675 250 1225 
z
" transform="scale(0.015625)"/>
       </defs>
       <use xlink:href="#SimHei-33"/>
       <use xlink:href="#SimHei-30" x="50"/>
       <use xlink:href="#SimHei-30" x="100"/>
      </g>
     </g>
    </g>
    <g id="text_8">
     <!-- Time Steps -->
     <g transform="translate(372.546676 416.3225) scale(0.4 -0.4)">
      <defs>
       <path id="SimHei-54" d="M 2850 3925 
L 1850 3925 
L 1850 125 
L 1275 125 
L 1275 3925 
L 275 3925 
L 275 4400 
L 2850 4400 
L 2850 3925 
z
" transform="scale(0.015625)"/>
       <path id="SimHei-69" d="M 1800 3725 
L 1300 3725 
L 1300 4375 
L 1800 4375 
L 1800 3725 
z
M 1800 125 
L 1300 125 
L 1300 2925 
L 1800 2925 
L 1800 125 
z
" transform="scale(0.015625)"/>
       <path id="SimHei-6d" d="M 3050 125 
L 2550 125 
L 2550 2150 
Q 2550 2300 2500 2400 
Q 2450 2500 2300 2500 
Q 2125 2500 1975 2312 
Q 1825 2125 1825 1825 
L 1825 125 
L 1325 125 
L 1325 2150 
Q 1325 2300 1275 2400 
Q 1225 2500 1075 2500 
Q 900 2500 750 2312 
Q 600 2125 600 1825 
L 600 125 
L 100 125 
L 100 2925 
L 600 2925 
L 600 2550 
Q 725 2750 900 2862 
Q 1075 2975 1275 2975 
Q 1475 2975 1612 2862 
Q 1750 2750 1800 2550 
Q 1925 2750 2087 2862 
Q 2250 2975 2450 2975 
Q 2750 2975 2900 2812 
Q 3050 2650 3050 2350 
L 3050 125 
z
" transform="scale(0.015625)"/>
       <path id="SimHei-65" d="M 2850 1075 
Q 2800 625 2450 350 
Q 2100 75 1625 75 
Q 1025 75 637 462 
Q 250 850 250 1525 
Q 250 2200 637 2587 
Q 1025 2975 1625 2975 
Q 2150 2975 2487 2637 
Q 2825 2300 2825 1525 
L 800 1525 
Q 800 975 1037 750 
Q 1275 525 1625 525 
Q 1900 525 2075 662 
Q 2250 800 2300 1075 
L 2850 1075 
z
M 2250 1925 
Q 2200 2275 2025 2412 
Q 1850 2550 1575 2550 
Q 1325 2550 1125 2412 
Q 925 2275 825 1925 
L 2250 1925 
z
" transform="scale(0.015625)"/>
       <path id="SimHei-20" transform="scale(0.015625)"/>
       <path id="SimHei-53" d="M 2900 1325 
Q 2900 750 2537 412 
Q 2175 75 1550 75 
Q 925 75 575 425 
Q 225 775 225 1300 
L 225 1475 
L 800 1475 
L 800 1325 
Q 800 950 1025 750 
Q 1250 550 1550 550 
Q 1950 550 2137 762 
Q 2325 975 2325 1275 
Q 2325 1525 2100 1737 
Q 1875 1950 1450 2125 
Q 850 2350 587 2625 
Q 325 2900 325 3275 
Q 325 3800 687 4125 
Q 1050 4450 1550 4450 
Q 2200 4450 2487 4062 
Q 2775 3675 2775 3225 
L 2200 3225 
Q 2225 3500 2050 3725 
Q 1875 3950 1550 3950 
Q 1250 3950 1075 3787 
Q 900 3625 900 3350 
Q 900 3125 1037 2962 
Q 1175 2800 1750 2575 
Q 2300 2350 2600 2037 
Q 2900 1725 2900 1325 
z
" transform="scale(0.015625)"/>
       <path id="SimHei-74" d="M 2750 200 
Q 2625 150 2462 112 
Q 2300 75 2025 75 
Q 1575 75 1300 325 
Q 1025 575 1025 1025 
L 1025 2525 
L 175 2525 
L 175 2925 
L 1025 2925 
L 1025 3900 
L 1525 3900 
L 1525 2925 
L 2550 2925 
L 2550 2525 
L 1525 2525 
L 1525 1000 
Q 1525 800 1625 662 
Q 1725 525 2000 525 
Q 2275 525 2450 575 
Q 2625 625 2750 700 
L 2750 200 
z
" transform="scale(0.015625)"/>
       <path id="SimHei-70" d="M 2825 1525 
Q 2825 800 2475 425 
Q 2125 50 1625 50 
Q 1350 50 1150 162 
Q 950 275 800 500 
L 800 -800 
L 300 -800 
L 300 2925 
L 800 2925 
L 800 2550 
Q 950 2775 1150 2875 
Q 1350 2975 1625 2975 
Q 2125 2975 2475 2612 
Q 2825 2250 2825 1525 
z
M 2275 1525 
Q 2275 2000 2087 2262 
Q 1900 2525 1525 2525 
Q 1225 2525 1012 2262 
Q 800 2000 800 1525 
Q 800 1050 1012 775 
Q 1225 500 1525 500 
Q 1900 500 2087 775 
Q 2275 1050 2275 1525 
z
" transform="scale(0.015625)"/>
       <path id="SimHei-73" d="M 2750 900 
Q 2750 500 2437 287 
Q 2125 75 1650 75 
Q 1050 75 725 312 
Q 400 550 400 1000 
L 900 1000 
Q 900 700 1112 600 
Q 1325 500 1625 500 
Q 1925 500 2075 612 
Q 2225 725 2225 900 
Q 2225 1025 2100 1150 
Q 1975 1275 1475 1350 
Q 900 1425 687 1637 
Q 475 1850 475 2200 
Q 475 2500 762 2737 
Q 1050 2975 1600 2975 
Q 2100 2975 2387 2750 
Q 2675 2525 2675 2150 
L 2175 2150 
Q 2175 2375 2012 2462 
Q 1850 2550 1600 2550 
Q 1275 2550 1137 2437 
Q 1000 2325 1000 2175 
Q 1000 2000 1125 1900 
Q 1250 1800 1650 1750 
Q 2300 1650 2525 1437 
Q 2750 1225 2750 900 
z
" transform="scale(0.015625)"/>
      </defs>
      <use xlink:href="#SimHei-54"/>
      <use xlink:href="#SimHei-69" x="50"/>
      <use xlink:href="#SimHei-6d" x="100"/>
      <use xlink:href="#SimHei-65" x="150"/>
      <use xlink:href="#SimHei-20" x="200"/>
      <use xlink:href="#SimHei-53" x="250"/>
      <use xlink:href="#SimHei-74" x="300"/>
      <use xlink:href="#SimHei-65" x="350"/>
      <use xlink:href="#SimHei-70" x="400"/>
      <use xlink:href="#SimHei-73" x="450"/>
     </g>
    </g>
   </g>
   <g id="matplotlib.axis_2">
    <g id="ytick_1">
     <g id="line2d_8">
      <defs>
       <path id="m241734347c" d="M 0 0 
L -3.5 0 
" style="stroke: #000000; stroke-width: 0.8"/>
      </defs>
      <g>
       <use xlink:href="#m241734347c" x="110" y="354.76" style="stroke: #000000; stroke-width: 0.8"/>
      </g>
     </g>
     <g id="text_9">
      <!-- -100 -->
      <g transform="translate(47 364.385) scale(0.28 -0.28)">
       <defs>
        <path id="SimHei-2d" d="M 2975 2125 
L 125 2125 
L 125 2525 
L 2975 2525 
L 2975 2125 
z
" transform="scale(0.015625)"/>
       </defs>
       <use xlink:href="#SimHei-2d"/>
       <use xlink:href="#SimHei-31" x="50"/>
       <use xlink:href="#SimHei-30" x="100"/>
       <use xlink:href="#SimHei-30" x="150"/>
      </g>
     </g>
    </g>
    <g id="ytick_2">
     <g id="line2d_9">
      <g>
       <use xlink:href="#m241734347c" x="110" y="292.632983" style="stroke: #000000; stroke-width: 0.8"/>
      </g>
     </g>
     <g id="text_10">
      <!-- 0 -->
      <g transform="translate(89 302.257983) scale(0.28 -0.28)">
       <use xlink:href="#SimHei-30"/>
      </g>
     </g>
    </g>
    <g id="ytick_3">
     <g id="line2d_10">
      <g>
       <use xlink:href="#m241734347c" x="110" y="230.505966" style="stroke: #000000; stroke-width: 0.8"/>
      </g>
     </g>
     <g id="text_11">
      <!-- 100 -->
      <g transform="translate(61 240.130966) scale(0.28 -0.28)">
       <use xlink:href="#SimHei-31"/>
       <use xlink:href="#SimHei-30" x="50"/>
       <use xlink:href="#SimHei-30" x="100"/>
      </g>
     </g>
    </g>
    <g id="ytick_4">
     <g id="line2d_11">
      <g>
       <use xlink:href="#m241734347c" x="110" y="168.378949" style="stroke: #000000; stroke-width: 0.8"/>
      </g>
     </g>
     <g id="text_12">
      <!-- 200 -->
      <g transform="translate(61 178.003949) scale(0.28 -0.28)">
       <use xlink:href="#SimHei-32"/>
       <use xlink:href="#SimHei-30" x="50"/>
       <use xlink:href="#SimHei-30" x="100"/>
      </g>
     </g>
    </g>
    <g id="ytick_5">
     <g id="line2d_12">
      <g>
       <use xlink:href="#m241734347c" x="110" y="106.251932" style="stroke: #000000; stroke-width: 0.8"/>
      </g>
     </g>
     <g id="text_13">
      <!-- 300 -->
      <g transform="translate(61 115.876932) scale(0.28 -0.28)">
       <use xlink:href="#SimHei-33"/>
       <use xlink:href="#SimHei-30" x="50"/>
       <use xlink:href="#SimHei-30" x="100"/>
      </g>
     </g>
    </g>
    <g id="ytick_6">
     <g id="line2d_13">
      <g>
       <use xlink:href="#m241734347c" x="110" y="44.124915" style="stroke: #000000; stroke-width: 0.8"/>
      </g>
     </g>
     <g id="text_14">
      <!-- 400 -->
      <g transform="translate(61 53.749915) scale(0.28 -0.28)">
       <defs>
        <path id="SimHei-34" d="M 2000 1100 
L 75 1100 
L 75 1525 
L 2100 4450 
L 2475 4450 
L 2475 1525 
L 3075 1525 
L 3075 1100 
L 2475 1100 
L 2475 150 
L 2000 150 
L 2000 1100 
z
M 2000 1525 
L 2000 3500 
L 600 1525 
L 2000 1525 
z
" transform="scale(0.015625)"/>
       </defs>
       <use xlink:href="#SimHei-34"/>
       <use xlink:href="#SimHei-30" x="50"/>
       <use xlink:href="#SimHei-30" x="100"/>
      </g>
     </g>
    </g>
    <g id="text_15">
     <!-- $m_{vct}$ -->
     <g transform="translate(35.8 224.38) rotate(-90) scale(0.4 -0.4)">
      <defs>
       <path id="DejaVuSans-Oblique-6d" d="M 5747 2113 
L 5338 0 
L 4763 0 
L 5166 2094 
Q 5191 2228 5203 2325 
Q 5216 2422 5216 2491 
Q 5216 2772 5059 2928 
Q 4903 3084 4622 3084 
Q 4203 3084 3875 2770 
Q 3547 2456 3450 1953 
L 3066 0 
L 2491 0 
L 2900 2094 
Q 2925 2209 2937 2307 
Q 2950 2406 2950 2484 
Q 2950 2769 2794 2926 
Q 2638 3084 2363 3084 
Q 1938 3084 1609 2770 
Q 1281 2456 1184 1953 
L 800 0 
L 225 0 
L 909 3500 
L 1484 3500 
L 1375 2956 
Q 1609 3263 1923 3423 
Q 2238 3584 2597 3584 
Q 2978 3584 3223 3384 
Q 3469 3184 3519 2828 
Q 3781 3197 4126 3390 
Q 4472 3584 4856 3584 
Q 5306 3584 5551 3325 
Q 5797 3066 5797 2591 
Q 5797 2488 5784 2364 
Q 5772 2241 5747 2113 
z
" transform="scale(0.015625)"/>
       <path id="DejaVuSans-Oblique-76" d="M 459 3500 
L 1069 3500 
L 1581 525 
L 3256 3500 
L 3866 3500 
L 1875 0 
L 1100 0 
L 459 3500 
z
" transform="scale(0.015625)"/>
       <path id="DejaVuSans-Oblique-63" d="M 3431 3366 
L 3316 2797 
Q 3109 2947 2876 3022 
Q 2644 3097 2394 3097 
Q 2119 3097 1870 3000 
Q 1622 2903 1453 2725 
Q 1184 2453 1037 2087 
Q 891 1722 891 1331 
Q 891 859 1127 628 
Q 1363 397 1844 397 
Q 2081 397 2348 469 
Q 2616 541 2906 684 
L 2797 116 
Q 2547 13 2283 -39 
Q 2019 -91 1741 -91 
Q 1044 -91 669 257 
Q 294 606 294 1253 
Q 294 1797 489 2255 
Q 684 2713 1069 3078 
Q 1331 3328 1684 3456 
Q 2038 3584 2456 3584 
Q 2700 3584 2940 3529 
Q 3181 3475 3431 3366 
z
" transform="scale(0.015625)"/>
       <path id="DejaVuSans-Oblique-74" d="M 2706 3500 
L 2619 3053 
L 1472 3053 
L 1100 1153 
Q 1081 1047 1072 975 
Q 1063 903 1063 863 
Q 1063 663 1183 572 
Q 1303 481 1569 481 
L 2150 481 
L 2053 0 
L 1503 0 
Q 991 0 739 200 
Q 488 400 488 806 
Q 488 878 497 964 
Q 506 1050 525 1153 
L 897 3053 
L 409 3053 
L 500 3500 
L 978 3500 
L 1172 4494 
L 1747 4494 
L 1556 3500 
L 2706 3500 
z
" transform="scale(0.015625)"/>
      </defs>
      <use xlink:href="#DejaVuSans-Oblique-6d"/>
      <use xlink:href="#DejaVuSans-Oblique-76" transform="translate(97.412109 -16.40625) scale(0.7)"/>
      <use xlink:href="#DejaVuSans-Oblique-63" transform="translate(138.837891 -16.40625) scale(0.7)"/>
      <use xlink:href="#DejaVuSans-Oblique-74" transform="translate(177.324219 -16.40625) scale(0.7)"/>
     </g>
    </g>
   </g>
   <g id="line2d_14">
    <path d="M 142.958789 292.632983 
L 542.598456 292.632983 
L 556.379135 291.390443 
L 558.675914 291.390443 
L 563.269474 290.976263 
L 721.747273 290.976263 
L 724.044053 290.769173 
L 730.934392 290.769173 
L 733.231172 290.562083 
L 749.308629 290.562083 
L 760.792528 289.526632 
L 802.134563 289.526632 
L 802.134563 289.526632 
" clip-path="url(#p364876c3cd)" style="fill: none; stroke: #0000ff; stroke-width: 3; stroke-linecap: square"/>
   </g>
   <g id="line2d_15">
    <path d="M 142.958789 292.632983 
L 239.423536 292.632983 
L 244.017095 292.218803 
L 262.391333 288.905362 
L 276.172011 287.662822 
L 280.765571 286.834462 
L 285.35913 286.420281 
L 292.249469 285.177741 
L 315.217266 283.106841 
L 322.107605 283.106841 
L 324.404385 282.89975 
L 494.366083 282.89975 
L 503.553202 282.07139 
L 508.146761 281.24303 
L 510.443541 281.03594 
L 533.411338 276.894139 
L 542.598456 274.409058 
L 549.488796 273.166518 
L 558.675914 270.681437 
L 560.972694 270.267257 
L 583.940491 264.054555 
L 586.237271 263.226195 
L 588.53405 262.604925 
L 595.42439 260.119844 
L 600.017949 258.877304 
L 613.798627 253.907143 
L 616.095407 252.871692 
L 618.392187 252.043332 
L 622.985746 249.972431 
L 636.766424 242.517189 
L 662.031001 231.127236 
L 664.327781 229.884696 
L 666.62456 228.849246 
L 668.92134 227.399615 
L 673.514899 224.914535 
L 675.811679 223.879084 
L 678.108459 222.429454 
L 682.702018 219.944373 
L 684.998798 218.494743 
L 687.295578 216.838022 
L 712.560154 200.892088 
L 717.153714 198.407007 
L 719.450493 196.957377 
L 721.747273 195.093567 
L 726.340832 191.780126 
L 728.637612 190.330495 
L 730.934392 189.087955 
L 740.121511 183.289433 
L 742.41829 181.218533 
L 744.71507 179.354722 
L 747.01185 177.283822 
L 749.308629 175.005831 
L 751.605409 172.934931 
L 756.198969 169.20731 
L 758.495748 166.929319 
L 760.792528 164.858418 
L 763.089308 162.580428 
L 767.682867 157.610266 
L 774.573206 149.533754 
L 776.869986 147.255764 
L 779.166766 144.563593 
L 781.463545 142.285602 
L 802.134563 118.056066 
L 802.134563 118.056066 
" clip-path="url(#p364876c3cd)" style="fill: none; stroke: #008000; stroke-width: 3; stroke-linecap: square"/>
   </g>
   <g id="line2d_16">
    <path d="M 142.958789 292.632983 
L 335.888283 292.632983 
L 338.185063 292.425893 
L 340.481843 292.425893 
L 342.778623 292.218803 
L 351.965741 292.218803 
L 381.823877 289.526632 
L 420.869132 282.48557 
L 427.759471 280.62176 
L 430.056251 280.20758 
L 450.727268 274.616148 
L 453.024048 273.580698 
L 457.617608 271.095617 
L 459.914387 269.645987 
L 462.211167 268.403447 
L 464.507947 266.953816 
L 466.804726 265.918366 
L 473.695065 262.190745 
L 478.288625 260.119844 
L 501.256422 245.62354 
L 503.553202 243.96682 
L 528.817778 228.020886 
L 535.708117 223.050724 
L 538.004897 221.601094 
L 542.598456 218.287653 
L 544.895236 216.838022 
L 551.785575 211.867861 
L 556.379135 208.9686 
L 558.675914 207.31188 
L 563.269474 204.412619 
L 567.863033 201.099178 
L 577.050152 193.643936 
L 579.346932 191.987216 
L 593.12761 180.804353 
L 595.42439 178.733452 
L 597.721169 176.869642 
L 602.314729 173.556201 
L 604.611508 171.69239 
L 606.908288 169.62149 
L 609.205068 167.757679 
L 625.282526 153.261375 
L 629.876085 149.533754 
L 632.172865 147.877034 
L 634.469644 146.013223 
L 636.766424 144.356503 
L 664.327781 126.960938 
L 682.702018 117.020615 
L 689.592357 112.671724 
L 691.889137 111.636274 
L 696.482696 109.151193 
L 703.373035 104.802302 
L 714.856934 98.5896 
L 719.450493 96.5187 
L 721.747273 95.69034 
L 724.044053 94.654889 
L 728.637612 92.169809 
L 735.527951 89.684728 
L 776.869986 71.046623 
L 779.166766 70.218263 
L 781.463545 69.182812 
L 786.057105 67.526092 
L 788.353884 66.904822 
L 795.244223 64.419741 
L 802.134563 61.31339 
L 802.134563 61.31339 
" clip-path="url(#p364876c3cd)" style="fill: none; stroke: #ff0000; stroke-width: 3; stroke-linecap: square"/>
   </g>
   <g id="line2d_17">
    <path d="M 142.958789 292.632983 
L 269.281672 292.632983 
L 271.578452 292.425893 
L 276.172011 292.425893 
L 306.030147 289.733722 
L 315.217266 289.733722 
L 317.514046 289.526632 
L 322.107605 289.526632 
L 324.404385 289.319542 
L 326.701165 289.319542 
L 349.668962 287.248642 
L 391.010996 287.248642 
L 393.307776 287.041552 
L 407.088454 287.041552 
L 411.682014 286.627371 
L 416.275573 286.627371 
L 439.24337 284.556471 
L 450.727268 282.48557 
L 455.320828 281.24303 
L 457.617608 280.82885 
L 464.507947 278.965039 
L 466.804726 278.550859 
L 475.991845 275.237418 
L 478.288625 274.616148 
L 487.475744 271.302707 
L 489.772523 270.267257 
L 494.366083 268.610537 
L 498.959642 266.539636 
L 512.74032 261.569475 
L 524.224219 258.463124 
L 526.520999 257.427674 
L 531.114558 255.770953 
L 538.004897 252.664602 
L 551.785575 247.694441 
L 554.082355 246.658991 
L 556.379135 245.83063 
L 558.675914 244.79518 
L 560.972694 243.55264 
L 565.566253 240.653379 
L 567.863033 239.410839 
L 572.456593 236.097398 
L 574.753372 234.854857 
L 577.050152 233.405227 
L 579.346932 231.748507 
L 586.237271 227.399615 
L 595.42439 220.772734 
L 597.721169 219.323103 
L 645.953543 184.531974 
L 650.547102 181.632713 
L 652.843882 180.390173 
L 664.327781 173.142021 
L 666.62456 171.4853 
L 668.92134 170.24276 
L 671.21812 169.20731 
L 673.514899 167.964769 
L 684.998798 160.716617 
L 687.295578 159.474077 
L 689.592357 158.024446 
L 696.482696 153.054285 
L 698.779476 151.604655 
L 712.560154 141.664332 
L 735.527951 123.026227 
L 740.121511 118.884426 
L 747.01185 113.292994 
L 769.979647 92.583989 
L 772.276426 90.720178 
L 792.947444 72.082073 
L 795.244223 70.218263 
L 799.837783 66.076461 
L 802.134563 64.212651 
L 802.134563 64.212651 
" clip-path="url(#p364876c3cd)" style="fill: none; stroke: #ffa500; stroke-width: 3; stroke-linecap: square"/>
   </g>
   <g id="patch_3">
    <path d="M 110 354.76 
L 110 10.8 
" style="fill: none; stroke: #000000; stroke-width: 0.8; stroke-linejoin: miter; stroke-linecap: square"/>
   </g>
   <g id="patch_4">
    <path d="M 835.093351 354.76 
L 835.093351 10.8 
" style="fill: none; stroke: #000000; stroke-width: 0.8; stroke-linejoin: miter; stroke-linecap: square"/>
   </g>
   <g id="patch_5">
    <path d="M 110 354.76 
L 835.093351 354.76 
" style="fill: none; stroke: #000000; stroke-width: 0.8; stroke-linejoin: miter; stroke-linecap: square"/>
   </g>
   <g id="patch_6">
    <path d="M 110 10.8 
L 835.093351 10.8 
" style="fill: none; stroke: #000000; stroke-width: 0.8; stroke-linejoin: miter; stroke-linecap: square"/>
   </g>
  </g>
 </g>
 <defs>
  <clipPath id="p364876c3cd">
   <rect x="110" y="10.8" width="725.093351" height="343.96"/>
  </clipPath>
 </defs>
</svg>
