<?xml version="1.0" encoding="utf-8" standalone="no"?>
<!DOCTYPE svg PUBLIC "-//W3C//DTD SVG 1.1//EN"
  "http://www.w3.org/Graphics/SVG/1.1/DTD/svg11.dtd">
<svg xmlns:xlink="http://www.w3.org/1999/xlink" width="864pt" height="432pt" viewBox="0 0 864 432" xmlns="http://www.w3.org/2000/svg" version="1.1">
 <metadata>
  <rdf:RDF xmlns:dc="http://purl.org/dc/elements/1.1/" xmlns:cc="http://creativecommons.org/ns#" xmlns:rdf="http://www.w3.org/1999/02/22-rdf-syntax-ns#">
   <cc:Work>
    <dc:type rdf:resource="http://purl.org/dc/dcmitype/StillImage"/>
    <dc:date>2025-06-19T21:26:11.201020</dc:date>
    <dc:format>image/svg+xml</dc:format>
    <dc:creator>
     <cc:Agent>
      <dc:title>Matplotlib v3.7.1, https://matplotlib.org/</dc:title>
     </cc:Agent>
    </dc:creator>
   </cc:Work>
  </rdf:RDF>
 </metadata>
 <defs>
  <style type="text/css">*{stroke-linejoin: round; stroke-linecap: butt}</style>
 </defs>
 <g id="figure_1">
  <g id="patch_1">
   <path d="M 0 432 
L 864 432 
L 864 0 
L 0 0 
z
" style="fill: #ffffff"/>
  </g>
  <g id="axes_1">
   <g id="patch_2">
    <path d="M 110.18 354.76 
L 835.093351 354.76 
L 835.093351 10.8 
L 110.18 10.8 
z
" style="fill: #ffffff"/>
   </g>
   <g id="PolyCollection_1">
    <defs>
     <path id="mf279151fcc" d="M 143.130607 -85.078239 
L 143.130607 -85.078239 
L 145.426816 -85.078239 
L 147.723026 -85.078239 
L 150.019235 -85.078239 
L 152.315445 -85.078239 
L 154.611655 -85.078239 
L 156.907864 -85.078239 
L 159.204074 -85.078239 
L 161.500283 -85.078239 
L 163.796493 -85.078239 
L 166.092702 -85.078239 
L 168.388912 -85.078239 
L 170.685121 -85.078239 
L 172.981331 -85.078239 
L 175.27754 -85.078239 
L 177.57375 -85.078239 
L 179.869959 -85.078239 
L 182.166169 -85.078239 
L 184.462379 -85.078239 
L 186.758588 -85.078239 
L 189.054798 -85.078239 
L 191.351007 -85.078239 
L 193.647217 -85.078239 
L 195.943426 -85.078239 
L 198.239636 -85.078239 
L 200.535845 -85.078239 
L 202.832055 -85.078239 
L 205.128264 -85.078239 
L 207.424474 -85.078239 
L 209.720683 -85.078239 
L 212.016893 -85.078239 
L 214.313103 -85.078239 
L 216.609312 -85.078239 
L 218.905522 -85.078239 
L 221.201731 -85.078239 
L 223.497941 -85.078239 
L 225.79415 -85.078239 
L 228.09036 -85.078239 
L 230.386569 -85.078239 
L 232.682779 -85.078239 
L 234.978988 -85.078239 
L 237.275198 -85.078239 
L 239.571407 -85.078239 
L 241.867617 -85.078239 
L 244.163827 -85.078239 
L 246.460036 -85.078239 
L 248.756246 -85.078239 
L 251.052455 -85.078239 
L 253.348665 -85.078239 
L 255.644874 -85.078239 
L 257.941084 -85.078239 
L 260.237293 -85.078239 
L 262.533503 -85.078239 
L 264.829712 -85.078239 
L 267.125922 -85.078239 
L 269.422131 -85.078239 
L 271.718341 -85.078239 
L 274.014551 -85.078239 
L 276.31076 -85.078239 
L 278.60697 -85.078239 
L 280.903179 -85.078239 
L 283.199389 -85.078239 
L 285.495598 -85.078239 
L 287.791808 -85.078239 
L 290.088017 -85.078239 
L 292.384227 -85.078239 
L 294.680436 -85.078239 
L 296.976646 -85.078239 
L 299.272855 -85.078239 
L 301.569065 -85.078239 
L 303.865275 -85.078239 
L 306.161484 -85.078239 
L 308.457694 -85.078239 
L 310.753903 -85.078239 
L 313.050113 -85.078239 
L 315.346322 -85.078239 
L 317.642532 -85.078239 
L 319.938741 -85.078239 
L 322.234951 -85.078239 
L 324.53116 -85.078239 
L 326.82737 -85.078239 
L 329.123579 -85.078239 
L 331.419789 -85.078239 
L 333.715999 -85.078239 
L 336.012208 -85.078239 
L 338.308418 -85.078239 
L 340.604627 -85.078239 
L 342.900837 -85.078239 
L 345.197046 -85.078239 
L 347.493256 -85.078239 
L 349.789465 -85.078239 
L 352.085675 -85.078239 
L 354.381884 -85.078239 
L 356.678094 -85.078239 
L 358.974303 -85.078239 
L 361.270513 -85.078239 
L 363.566723 -85.078239 
L 365.862932 -85.078239 
L 368.159142 -85.078239 
L 370.455351 -85.078239 
L 372.751561 -85.078239 
L 375.04777 -85.078239 
L 377.34398 -85.078239 
L 379.640189 -85.078239 
L 381.936399 -85.078239 
L 384.232608 -85.078239 
L 386.528818 -85.078239 
L 388.825027 -85.078239 
L 391.121237 -85.078239 
L 393.417447 -85.078239 
L 395.713656 -85.078239 
L 398.009866 -85.078239 
L 400.306075 -85.078239 
L 402.602285 -85.078239 
L 404.898494 -85.078239 
L 407.194704 -85.078239 
L 409.490913 -85.078239 
L 411.787123 -85.078239 
L 414.083332 -85.078239 
L 416.379542 -85.078239 
L 418.675751 -85.078239 
L 420.971961 -85.078239 
L 423.268171 -85.078239 
L 425.56438 -85.078239 
L 427.86059 -85.078239 
L 430.156799 -85.078239 
L 432.453009 -85.078239 
L 434.749218 -85.078239 
L 437.045428 -85.078239 
L 439.341637 -85.078239 
L 441.637847 -85.078239 
L 443.934056 -85.078239 
L 446.230266 -85.078239 
L 448.526475 -85.078239 
L 450.822685 -85.078239 
L 453.118895 -85.078239 
L 455.415104 -85.078239 
L 457.711314 -85.078239 
L 460.007523 -85.078239 
L 462.303733 -85.078239 
L 464.599942 -85.078239 
L 466.896152 -85.078239 
L 469.192361 -85.078239 
L 471.488571 -85.078239 
L 473.78478 -85.078239 
L 476.08099 -85.078239 
L 478.377199 -85.078239 
L 480.673409 -85.078239 
L 482.969619 -85.078239 
L 485.265828 -85.078239 
L 487.562038 -85.078239 
L 489.858247 -85.078239 
L 492.154457 -85.078239 
L 494.450666 -85.078239 
L 496.746876 -85.078239 
L 499.043085 -85.078239 
L 501.339295 -85.078239 
L 503.635504 -85.078239 
L 505.931714 -85.078239 
L 508.227923 -85.078239 
L 510.524133 -85.078239 
L 512.820343 -85.078239 
L 515.116552 -85.078239 
L 517.412762 -85.078239 
L 519.708971 -85.078239 
L 522.005181 -85.078239 
L 524.30139 -85.078239 
L 526.5976 -85.078239 
L 528.893809 -85.078239 
L 531.190019 -85.078239 
L 533.486228 -85.078239 
L 535.782438 -85.078239 
L 538.078647 -85.078239 
L 540.374857 -85.078239 
L 542.671067 -85.078239 
L 544.967276 -85.078239 
L 547.263486 -85.078239 
L 549.559695 -85.078239 
L 551.855905 -85.078239 
L 554.152114 -85.078239 
L 556.448324 -85.078239 
L 558.744533 -85.067417 
L 561.040743 -85.056594 
L 563.336952 -85.045772 
L 565.633162 -85.075652 
L 567.929371 -85.100071 
L 570.225581 -85.121389 
L 572.521791 -85.140884 
L 574.818 -85.159247 
L 577.11421 -85.176871 
L 579.410419 -85.193989 
L 581.706629 -85.210747 
L 584.002838 -85.227242 
L 586.299048 -85.226917 
L 588.595257 -85.225124 
L 590.891467 -85.222117 
L 593.187676 -85.218102 
L 595.483886 -85.213248 
L 597.780095 -85.20769 
L 600.076305 -85.201537 
L 602.372515 -85.19488 
L 604.668724 -85.243948 
L 606.964934 -85.290927 
L 609.261143 -85.335866 
L 611.557353 -85.378833 
L 613.853562 -85.419909 
L 616.149772 -85.459185 
L 618.445981 -85.543527 
L 620.742191 -85.62191 
L 623.0384 -85.694333 
L 625.33461 -85.770745 
L 627.630819 -85.839603 
L 629.927029 -85.900322 
L 632.223239 -85.952576 
L 634.519448 -85.996368 
L 636.815658 -86.032019 
L 639.111867 -86.062905 
L 641.408077 -86.091376 
L 643.704286 -86.122521 
L 646.000496 -86.15809 
L 648.296705 -86.181613 
L 650.592915 -86.204067 
L 652.889124 -86.21551 
L 655.185334 -86.235468 
L 657.481543 -86.242159 
L 659.777753 -86.246049 
L 662.073963 -86.247045 
L 664.370172 -86.263941 
L 666.666382 -86.280358 
L 668.962591 -86.280605 
L 671.258801 -86.280349 
L 673.55501 -86.279618 
L 675.85122 -86.27844 
L 678.147429 -86.27844 
L 680.443639 -86.27844 
L 682.739848 -86.339634 
L 685.036058 -86.400727 
L 687.332267 -86.461714 
L 689.628477 -86.522586 
L 691.924687 -86.583332 
L 694.220896 -86.643943 
L 696.517106 -86.704406 
L 698.813315 -86.764709 
L 701.109525 -86.824836 
L 703.405734 -86.884773 
L 705.701944 -86.944499 
L 707.998153 -87.003996 
L 710.294363 -87.063239 
L 712.590572 -87.063239 
L 714.886782 -87.063239 
L 717.182991 -87.063239 
L 719.479201 -87.063239 
L 721.775411 -87.063239 
L 724.07162 -87.063239 
L 726.36783 -87.063239 
L 728.664039 -87.063239 
L 730.960249 -87.063239 
L 733.256458 -87.063239 
L 735.552668 -87.122202 
L 737.848877 -87.233111 
L 740.145087 -87.396879 
L 742.441296 -87.553215 
L 744.737506 -87.700625 
L 747.033715 -87.917954 
L 749.329925 -88.094042 
L 751.626135 -88.264702 
L 753.922344 -88.428835 
L 756.218554 -88.585288 
L 758.514763 -88.732982 
L 760.810973 -88.89722 
L 763.107182 -88.9772 
L 765.403392 -89.022398 
L 767.699601 -89.041435 
L 769.995811 -89.042481 
L 772.29202 -89.031503 
L 774.58823 -89.022798 
L 776.884439 -89.070729 
L 779.180649 -89.115658 
L 781.476859 -89.157862 
L 783.773068 -89.197602 
L 786.069278 -89.243844 
L 788.365487 -89.288925 
L 790.661697 -89.323449 
L 792.957906 -89.375693 
L 795.254116 -89.46371 
L 797.550325 -89.454075 
L 799.846535 -89.454075 
L 802.142744 -89.505718 
L 802.142744 -91.781059 
L 802.142744 -91.781059 
L 799.846535 -91.780447 
L 797.550325 -91.780447 
L 795.254116 -91.718557 
L 792.957906 -91.702064 
L 790.661697 -91.702053 
L 788.365487 -91.579813 
L 786.069278 -91.520384 
L 783.773068 -91.462116 
L 781.476859 -91.345091 
L 779.180649 -91.23053 
L 776.884439 -91.118695 
L 774.58823 -91.00986 
L 772.29202 -90.896646 
L 769.995811 -90.676649 
L 767.699601 -90.468674 
L 765.403392 -90.278692 
L 763.107182 -90.11487 
L 760.810973 -89.98583 
L 758.514763 -89.836539 
L 756.218554 -89.722958 
L 753.922344 -89.618137 
L 751.626135 -89.520995 
L 749.329925 -89.43038 
L 747.033715 -89.345193 
L 744.737506 -89.248994 
L 742.441296 -89.187383 
L 740.145087 -89.134699 
L 737.848877 -89.089448 
L 735.552668 -89.043592 
L 733.256458 -89.050301 
L 730.960249 -89.050301 
L 728.664039 -89.050301 
L 726.36783 -89.050301 
L 724.07162 -89.050301 
L 721.775411 -89.050301 
L 719.479201 -89.050301 
L 717.182991 -89.050301 
L 714.886782 -89.050301 
L 712.590572 -89.050301 
L 710.294363 -89.050301 
L 707.998153 -89.057289 
L 705.701944 -89.06453 
L 703.405734 -89.072002 
L 701.109525 -89.079683 
L 698.813315 -89.087556 
L 696.517106 -89.095604 
L 694.220896 -89.103812 
L 691.924687 -89.112168 
L 689.628477 -89.120659 
L 687.332267 -89.129276 
L 685.036058 -89.138008 
L 682.739848 -89.146847 
L 680.443639 -89.155785 
L 678.147429 -89.155785 
L 675.85122 -89.155785 
L 673.55501 -89.102352 
L 671.258801 -89.049367 
L 668.962591 -88.996856 
L 666.666382 -88.944847 
L 664.370172 -88.856755 
L 662.073963 -88.716885 
L 659.777753 -88.665627 
L 657.481543 -88.565007 
L 655.185334 -88.467188 
L 652.889124 -88.330382 
L 650.592915 -88.237314 
L 648.296705 -88.103004 
L 646.000496 -87.969762 
L 643.704286 -87.796311 
L 641.408077 -87.618436 
L 639.111867 -87.490143 
L 636.815658 -87.364264 
L 634.519448 -87.295405 
L 632.223239 -87.234687 
L 629.927029 -87.182432 
L 627.630819 -87.13864 
L 625.33461 -87.102989 
L 623.0384 -87.074891 
L 620.742191 -86.99055 
L 618.445981 -86.912167 
L 616.149772 -86.839744 
L 613.853562 -86.774511 
L 611.557353 -86.711077 
L 609.261143 -86.649534 
L 606.964934 -86.589964 
L 604.668724 -86.532432 
L 602.372515 -86.476991 
L 600.076305 -86.418079 
L 597.780095 -86.359671 
L 595.483886 -86.301858 
L 593.187676 -86.244749 
L 590.891467 -86.188479 
L 588.595257 -86.133217 
L 586.299048 -86.079169 
L 584.002838 -86.026589 
L 581.706629 -85.938574 
L 579.410419 -85.850823 
L 577.11421 -85.763431 
L 574.818 -85.676545 
L 572.521791 -85.590398 
L 570.225581 -85.505383 
L 567.929371 -85.422192 
L 565.633162 -85.342101 
L 563.336952 -85.267471 
L 561.040743 -85.204393 
L 558.744533 -85.141316 
L 556.448324 -85.078239 
L 554.152114 -85.078239 
L 551.855905 -85.078239 
L 549.559695 -85.078239 
L 547.263486 -85.078239 
L 544.967276 -85.078239 
L 542.671067 -85.078239 
L 540.374857 -85.078239 
L 538.078647 -85.078239 
L 535.782438 -85.078239 
L 533.486228 -85.078239 
L 531.190019 -85.078239 
L 528.893809 -85.078239 
L 526.5976 -85.078239 
L 524.30139 -85.078239 
L 522.005181 -85.078239 
L 519.708971 -85.078239 
L 517.412762 -85.078239 
L 515.116552 -85.078239 
L 512.820343 -85.078239 
L 510.524133 -85.078239 
L 508.227923 -85.078239 
L 505.931714 -85.078239 
L 503.635504 -85.078239 
L 501.339295 -85.078239 
L 499.043085 -85.078239 
L 496.746876 -85.078239 
L 494.450666 -85.078239 
L 492.154457 -85.078239 
L 489.858247 -85.078239 
L 487.562038 -85.078239 
L 485.265828 -85.078239 
L 482.969619 -85.078239 
L 480.673409 -85.078239 
L 478.377199 -85.078239 
L 476.08099 -85.078239 
L 473.78478 -85.078239 
L 471.488571 -85.078239 
L 469.192361 -85.078239 
L 466.896152 -85.078239 
L 464.599942 -85.078239 
L 462.303733 -85.078239 
L 460.007523 -85.078239 
L 457.711314 -85.078239 
L 455.415104 -85.078239 
L 453.118895 -85.078239 
L 450.822685 -85.078239 
L 448.526475 -85.078239 
L 446.230266 -85.078239 
L 443.934056 -85.078239 
L 441.637847 -85.078239 
L 439.341637 -85.078239 
L 437.045428 -85.078239 
L 434.749218 -85.078239 
L 432.453009 -85.078239 
L 430.156799 -85.078239 
L 427.86059 -85.078239 
L 425.56438 -85.078239 
L 423.268171 -85.078239 
L 420.971961 -85.078239 
L 418.675751 -85.078239 
L 416.379542 -85.078239 
L 414.083332 -85.078239 
L 411.787123 -85.078239 
L 409.490913 -85.078239 
L 407.194704 -85.078239 
L 404.898494 -85.078239 
L 402.602285 -85.078239 
L 400.306075 -85.078239 
L 398.009866 -85.078239 
L 395.713656 -85.078239 
L 393.417447 -85.078239 
L 391.121237 -85.078239 
L 388.825027 -85.078239 
L 386.528818 -85.078239 
L 384.232608 -85.078239 
L 381.936399 -85.078239 
L 379.640189 -85.078239 
L 377.34398 -85.078239 
L 375.04777 -85.078239 
L 372.751561 -85.078239 
L 370.455351 -85.078239 
L 368.159142 -85.078239 
L 365.862932 -85.078239 
L 363.566723 -85.078239 
L 361.270513 -85.078239 
L 358.974303 -85.078239 
L 356.678094 -85.078239 
L 354.381884 -85.078239 
L 352.085675 -85.078239 
L 349.789465 -85.078239 
L 347.493256 -85.078239 
L 345.197046 -85.078239 
L 342.900837 -85.078239 
L 340.604627 -85.078239 
L 338.308418 -85.078239 
L 336.012208 -85.078239 
L 333.715999 -85.078239 
L 331.419789 -85.078239 
L 329.123579 -85.078239 
L 326.82737 -85.078239 
L 324.53116 -85.078239 
L 322.234951 -85.078239 
L 319.938741 -85.078239 
L 317.642532 -85.078239 
L 315.346322 -85.078239 
L 313.050113 -85.078239 
L 310.753903 -85.078239 
L 308.457694 -85.078239 
L 306.161484 -85.078239 
L 303.865275 -85.078239 
L 301.569065 -85.078239 
L 299.272855 -85.078239 
L 296.976646 -85.078239 
L 294.680436 -85.078239 
L 292.384227 -85.078239 
L 290.088017 -85.078239 
L 287.791808 -85.078239 
L 285.495598 -85.078239 
L 283.199389 -85.078239 
L 280.903179 -85.078239 
L 278.60697 -85.078239 
L 276.31076 -85.078239 
L 274.014551 -85.078239 
L 271.718341 -85.078239 
L 269.422131 -85.078239 
L 267.125922 -85.078239 
L 264.829712 -85.078239 
L 262.533503 -85.078239 
L 260.237293 -85.078239 
L 257.941084 -85.078239 
L 255.644874 -85.078239 
L 253.348665 -85.078239 
L 251.052455 -85.078239 
L 248.756246 -85.078239 
L 246.460036 -85.078239 
L 244.163827 -85.078239 
L 241.867617 -85.078239 
L 239.571407 -85.078239 
L 237.275198 -85.078239 
L 234.978988 -85.078239 
L 232.682779 -85.078239 
L 230.386569 -85.078239 
L 228.09036 -85.078239 
L 225.79415 -85.078239 
L 223.497941 -85.078239 
L 221.201731 -85.078239 
L 218.905522 -85.078239 
L 216.609312 -85.078239 
L 214.313103 -85.078239 
L 212.016893 -85.078239 
L 209.720683 -85.078239 
L 207.424474 -85.078239 
L 205.128264 -85.078239 
L 202.832055 -85.078239 
L 200.535845 -85.078239 
L 198.239636 -85.078239 
L 195.943426 -85.078239 
L 193.647217 -85.078239 
L 191.351007 -85.078239 
L 189.054798 -85.078239 
L 186.758588 -85.078239 
L 184.462379 -85.078239 
L 182.166169 -85.078239 
L 179.869959 -85.078239 
L 177.57375 -85.078239 
L 175.27754 -85.078239 
L 172.981331 -85.078239 
L 170.685121 -85.078239 
L 168.388912 -85.078239 
L 166.092702 -85.078239 
L 163.796493 -85.078239 
L 161.500283 -85.078239 
L 159.204074 -85.078239 
L 156.907864 -85.078239 
L 154.611655 -85.078239 
L 152.315445 -85.078239 
L 150.019235 -85.078239 
L 147.723026 -85.078239 
L 145.426816 -85.078239 
L 143.130607 -85.078239 
z
" style="stroke: #0000ff; stroke-opacity: 0.3"/>
    </defs>
    <g clip-path="url(#pc1f0b4531e)">
     <use xlink:href="#mf279151fcc" x="0" y="432" style="fill: #0000ff; fill-opacity: 0.3; stroke: #0000ff; stroke-opacity: 0.3"/>
    </g>
   </g>
   <g id="PolyCollection_2">
    <defs>
     <path id="m01baa10902" d="M 143.130607 -85.078239 
L 143.130607 -85.078239 
L 145.426816 -85.078239 
L 147.723026 -85.078239 
L 150.019235 -85.078239 
L 152.315445 -85.078239 
L 154.611655 -85.078239 
L 156.907864 -85.078239 
L 159.204074 -85.078239 
L 161.500283 -85.078239 
L 163.796493 -85.078239 
L 166.092702 -85.078239 
L 168.388912 -85.078239 
L 170.685121 -85.078239 
L 172.981331 -85.078239 
L 175.27754 -85.078239 
L 177.57375 -85.078239 
L 179.869959 -85.078239 
L 182.166169 -85.078239 
L 184.462379 -85.078239 
L 186.758588 -85.078239 
L 189.054798 -85.078239 
L 191.351007 -85.078239 
L 193.647217 -85.078239 
L 195.943426 -85.078239 
L 198.239636 -85.078239 
L 200.535845 -85.078239 
L 202.832055 -85.078239 
L 205.128264 -85.078239 
L 207.424474 -85.078239 
L 209.720683 -85.078239 
L 212.016893 -85.078239 
L 214.313103 -85.078239 
L 216.609312 -85.078239 
L 218.905522 -85.078239 
L 221.201731 -85.078239 
L 223.497941 -85.078239 
L 225.79415 -85.078239 
L 228.09036 -85.078239 
L 230.386569 -85.078239 
L 232.682779 -85.078239 
L 234.978988 -85.078239 
L 237.275198 -85.078239 
L 239.571407 -85.078239 
L 241.867617 -85.078239 
L 244.163827 -85.078239 
L 246.460036 -85.078239 
L 248.756246 -85.078239 
L 251.052455 -85.078239 
L 253.348665 -85.078239 
L 255.644874 -85.078239 
L 257.941084 -85.078239 
L 260.237293 -85.078239 
L 262.533503 -85.078239 
L 264.829712 -85.078239 
L 267.125922 -85.078239 
L 269.422131 -85.078239 
L 271.718341 -85.078239 
L 274.014551 -85.078239 
L 276.31076 -85.078239 
L 278.60697 -85.078239 
L 280.903179 -85.078239 
L 283.199389 -85.078239 
L 285.495598 -85.078239 
L 287.791808 -85.078239 
L 290.088017 -85.078239 
L 292.384227 -85.067417 
L 294.680436 -85.056594 
L 296.976646 -85.034949 
L 299.272855 -85.024127 
L 301.569065 -85.002482 
L 303.865275 -84.970015 
L 306.161484 -84.937548 
L 308.457694 -84.894259 
L 310.753903 -84.85097 
L 313.050113 -84.80768 
L 315.346322 -84.764391 
L 317.642532 -84.721101 
L 319.938741 -84.677812 
L 322.234951 -84.634523 
L 324.53116 -84.580411 
L 326.82737 -84.570627 
L 329.123579 -84.51654 
L 331.419789 -84.462449 
L 333.715999 -84.463125 
L 336.012208 -84.463457 
L 338.308418 -84.463496 
L 340.604627 -84.463284 
L 342.900837 -84.462855 
L 345.197046 -84.50423 
L 347.493256 -84.585662 
L 349.789465 -84.713525 
L 352.085675 -84.800597 
L 354.381884 -84.936394 
L 356.678094 -85.168903 
L 358.974303 -85.345258 
L 361.270513 -85.706994 
L 363.566723 -86.03111 
L 365.862932 -86.403239 
L 368.159142 -86.764519 
L 370.455351 -87.125525 
L 372.751561 -87.475544 
L 375.04777 -87.820286 
L 377.34398 -88.154097 
L 379.640189 -88.487699 
L 381.936399 -88.738504 
L 384.232608 -89.171649 
L 386.528818 -89.602134 
L 388.825027 -90.029991 
L 391.121237 -90.455256 
L 393.417447 -90.877968 
L 395.713656 -91.298173 
L 398.009866 -91.757202 
L 400.306075 -92.211783 
L 402.602285 -92.661973 
L 404.898494 -93.097817 
L 407.194704 -93.601132 
L 409.490913 -93.986978 
L 411.787123 -94.411346 
L 414.083332 -94.886485 
L 416.379542 -95.405427 
L 418.675751 -95.978207 
L 420.971961 -96.605266 
L 423.268171 -97.145286 
L 425.56438 -97.717997 
L 427.86059 -98.279271 
L 430.156799 -98.785622 
L 432.453009 -99.421626 
L 434.749218 -100.068453 
L 437.045428 -100.661263 
L 439.341637 -101.288322 
L 441.637847 -101.915381 
L 443.934056 -102.630007 
L 446.230266 -103.344603 
L 448.526475 -104.03943 
L 450.822685 -104.724201 
L 453.118895 -105.425093 
L 455.415104 -106.115901 
L 457.711314 -106.718965 
L 460.007523 -107.265325 
L 462.303733 -107.802605 
L 464.599942 -108.451764 
L 466.896152 -109.220942 
L 469.192361 -110.01216 
L 471.488571 -110.803318 
L 473.78478 -111.537803 
L 476.08099 -112.32875 
L 478.377199 -113.112574 
L 480.673409 -113.924948 
L 482.969619 -114.764838 
L 485.265828 -115.491293 
L 487.562038 -116.16906 
L 489.858247 -116.902176 
L 492.154457 -117.664986 
L 494.450666 -118.397941 
L 496.746876 -119.096883 
L 499.043085 -119.829656 
L 501.339295 -120.522193 
L 503.635504 -121.292817 
L 505.931714 -122.040309 
L 508.227923 -122.696213 
L 510.524133 -123.350514 
L 512.820343 -123.828845 
L 515.116552 -124.334314 
L 517.412762 -124.7757 
L 519.708971 -125.216985 
L 522.005181 -125.678607 
L 524.30139 -126.145772 
L 526.5976 -126.586611 
L 528.893809 -127.027393 
L 531.190019 -127.462465 
L 533.486228 -127.897536 
L 535.782438 -128.274284 
L 538.078647 -128.625298 
L 540.374857 -129.040243 
L 542.671067 -129.396926 
L 544.967276 -129.721684 
L 547.263486 -130.060391 
L 549.559695 -130.411003 
L 551.855905 -130.819412 
L 554.152114 -131.173487 
L 556.448324 -131.498307 
L 558.744533 -131.820729 
L 561.040743 -132.084385 
L 563.336952 -132.35399 
L 565.633162 -132.630144 
L 567.929371 -132.913296 
L 570.225581 -133.188288 
L 572.521791 -133.470557 
L 574.818 -133.729588 
L 577.11421 -133.987945 
L 579.410419 -134.253857 
L 581.706629 -134.51934 
L 584.002838 -134.767618 
L 586.299048 -135.055838 
L 588.595257 -135.352408 
L 590.891467 -135.657432 
L 593.187676 -135.96244 
L 595.483886 -136.250307 
L 597.780095 -136.53803 
L 600.076305 -136.834277 
L 602.372515 -137.12177 
L 604.668724 -137.409131 
L 606.964934 -137.705143 
L 609.261143 -137.955806 
L 611.557353 -138.206455 
L 613.853562 -138.43285 
L 616.149772 -138.667997 
L 618.445981 -138.903145 
L 620.742191 -139.138292 
L 623.0384 -139.373439 
L 625.33461 -139.608586 
L 627.630819 -139.843733 
L 629.927029 -140.070114 
L 632.223239 -140.296481 
L 634.519448 -140.555925 
L 636.815658 -140.815314 
L 639.111867 -141.083348 
L 641.408077 -141.333933 
L 643.704286 -141.593163 
L 646.000496 -141.810981 
L 648.296705 -142.028743 
L 650.592915 -142.24645 
L 652.889124 -142.464102 
L 655.185334 -142.681702 
L 657.481543 -142.89925 
L 659.777753 -143.116746 
L 662.073963 -143.334193 
L 664.370172 -143.55159 
L 666.666382 -143.760022 
L 668.962591 -143.968348 
L 671.258801 -144.17657 
L 673.55501 -144.384693 
L 675.85122 -144.592718 
L 678.147429 -144.800648 
L 680.443639 -145.008485 
L 682.739848 -145.216231 
L 685.036058 -145.42389 
L 687.332267 -145.631463 
L 689.628477 -145.838952 
L 691.924687 -146.04636 
L 694.220896 -146.253688 
L 696.517106 -146.460939 
L 698.813315 -146.668114 
L 701.109525 -146.875215 
L 703.405734 -147.072855 
L 705.701944 -147.279791 
L 707.998153 -147.486658 
L 710.294363 -147.693459 
L 712.590572 -147.900194 
L 714.886782 -148.106866 
L 717.182991 -148.313476 
L 719.479201 -148.520026 
L 721.775411 -148.736075 
L 724.07162 -148.952098 
L 726.36783 -149.158511 
L 728.664039 -149.364867 
L 730.960249 -149.571169 
L 733.256458 -149.813362 
L 735.552668 -150.055551 
L 737.848877 -150.297737 
L 740.145087 -150.539918 
L 742.441296 -150.746224 
L 744.737506 -150.962114 
L 747.033715 -151.213942 
L 749.329925 -151.465751 
L 751.626135 -151.717542 
L 753.922344 -151.969313 
L 756.218554 -152.221067 
L 758.514763 -152.472803 
L 760.810973 -152.714955 
L 763.107182 -152.957105 
L 765.403392 -153.218358 
L 767.699601 -153.479569 
L 769.995811 -153.731217 
L 772.29202 -153.982849 
L 774.58823 -154.234464 
L 776.884439 -154.486063 
L 779.180649 -154.737645 
L 781.476859 -154.989212 
L 783.773068 -155.231297 
L 786.069278 -155.473381 
L 788.365487 -155.72492 
L 790.661697 -155.976443 
L 792.957906 -156.227951 
L 795.254116 -156.498285 
L 797.550325 -156.76854 
L 799.846535 -157.054963 
L 802.142744 -157.341227 
L 802.142744 -190.534254 
L 802.142744 -190.534254 
L 799.846535 -190.141204 
L 797.550325 -189.748313 
L 795.254116 -189.496019 
L 792.957906 -189.243803 
L 790.661697 -188.868252 
L 788.365487 -188.492717 
L 786.069278 -188.117196 
L 783.773068 -187.679965 
L 781.476859 -187.242737 
L 779.180649 -186.867244 
L 776.884439 -186.491768 
L 774.58823 -186.116307 
L 772.29202 -185.740863 
L 769.995811 -185.365436 
L 767.699601 -184.990026 
L 765.403392 -184.676432 
L 763.107182 -184.362881 
L 760.810973 -183.925716 
L 758.514763 -183.488555 
L 756.218554 -183.113232 
L 753.922344 -182.737926 
L 751.626135 -182.362639 
L 749.329925 -181.98737 
L 747.033715 -181.61212 
L 744.737506 -181.236889 
L 742.441296 -180.877975 
L 740.145087 -180.457221 
L 737.848877 -180.020089 
L 735.552668 -179.58296 
L 733.256458 -179.145835 
L 730.960249 -178.708714 
L 728.664039 -178.287957 
L 726.36783 -177.867255 
L 724.07162 -177.446609 
L 721.775411 -177.087827 
L 719.479201 -176.729072 
L 717.182991 -176.308562 
L 714.886782 -175.888113 
L 712.590572 -175.467726 
L 710.294363 -175.047403 
L 707.998153 -174.627144 
L 705.701944 -174.206952 
L 703.405734 -173.786829 
L 701.109525 -173.305155 
L 698.813315 -172.885197 
L 696.517106 -172.465313 
L 694.220896 -172.045504 
L 691.924687 -171.625774 
L 689.628477 -171.206122 
L 687.332267 -170.786552 
L 685.036058 -170.367066 
L 682.739848 -169.947666 
L 680.443639 -169.528353 
L 678.147429 -169.109131 
L 675.85122 -168.690002 
L 673.55501 -168.270968 
L 671.258801 -167.852031 
L 668.962591 -167.433195 
L 666.666382 -167.014462 
L 664.370172 -166.595834 
L 662.073963 -166.238427 
L 659.777753 -165.88107 
L 657.481543 -165.523762 
L 655.185334 -165.166505 
L 652.889124 -164.809301 
L 650.592915 -164.45215 
L 648.296705 -164.095052 
L 646.000496 -163.73801 
L 643.704286 -163.381024 
L 641.408077 -163.065449 
L 639.111867 -162.688975 
L 636.815658 -162.43446 
L 634.519448 -162.119045 
L 632.223239 -161.803684 
L 629.927029 -161.507502 
L 627.630819 -161.211334 
L 625.33461 -160.976187 
L 623.0384 -160.74104 
L 620.742191 -160.505893 
L 618.445981 -160.270745 
L 616.149772 -160.035598 
L 613.853562 -159.800451 
L 611.557353 -159.504297 
L 609.261143 -159.127887 
L 606.964934 -158.751491 
L 604.668724 -158.315934 
L 602.372515 -157.819471 
L 600.076305 -157.32314 
L 597.780095 -156.887818 
L 595.483886 -156.391717 
L 593.187676 -155.89576 
L 590.891467 -155.521454 
L 588.595257 -155.147164 
L 586.299048 -154.712166 
L 584.002838 -154.216562 
L 581.706629 -153.681015 
L 579.410419 -153.267184 
L 577.11421 -152.853782 
L 574.818 -152.380571 
L 572.521791 -151.908032 
L 570.225581 -151.354223 
L 567.929371 -150.740881 
L 565.633162 -150.187954 
L 563.336952 -149.575774 
L 561.040743 -148.90479 
L 558.744533 -148.175603 
L 556.448324 -147.452926 
L 554.152114 -146.732648 
L 551.855905 -145.989369 
L 549.559695 -145.195915 
L 547.263486 -144.396919 
L 544.967276 -143.481508 
L 542.671067 -142.708913 
L 540.374857 -141.968242 
L 538.078647 -141.233579 
L 535.782438 -140.434984 
L 533.486228 -139.609869 
L 531.190019 -138.790822 
L 528.893809 -137.971775 
L 526.5976 -137.210694 
L 524.30139 -136.44967 
L 522.005181 -135.662717 
L 519.708971 -134.817965 
L 517.412762 -134.057387 
L 515.116552 -133.29691 
L 512.820343 -132.600516 
L 510.524133 -131.929238 
L 508.227923 -131.277166 
L 505.931714 -130.365422 
L 503.635504 -129.493012 
L 501.339295 -128.591477 
L 499.043085 -127.768622 
L 496.746876 -127.038257 
L 494.450666 -126.274061 
L 492.154457 -125.543878 
L 489.858247 -124.84355 
L 487.562038 -124.113528 
L 485.265828 -123.432667 
L 482.969619 -122.64373 
L 480.673409 -121.811461 
L 478.377199 -121.003933 
L 476.08099 -120.220109 
L 473.78478 -119.495664 
L 471.488571 -118.76701 
L 469.192361 -118.042775 
L 466.896152 -117.318601 
L 464.599942 -116.676896 
L 462.303733 -115.967427 
L 460.007523 -115.250589 
L 457.711314 -114.595085 
L 455.415104 -113.944031 
L 453.118895 -113.276211 
L 450.822685 -112.67073 
L 448.526475 -111.944618 
L 446.230266 -111.280817 
L 443.934056 -110.636785 
L 441.637847 -109.992783 
L 439.341637 -109.365723 
L 437.045428 -108.738664 
L 434.749218 -108.129611 
L 432.453009 -107.52232 
L 430.156799 -106.956461 
L 427.86059 -106.365457 
L 425.56438 -105.777123 
L 423.268171 -105.147971 
L 420.971961 -104.538383 
L 418.675751 -103.911324 
L 416.379542 -103.28224 
L 414.083332 -102.651574 
L 411.787123 -102.081614 
L 409.490913 -101.513139 
L 407.194704 -101.010652 
L 404.898494 -100.573377 
L 402.602285 -100.016378 
L 400.306075 -99.525979 
L 398.009866 -99.039972 
L 395.713656 -98.558412 
L 393.417447 -98.090283 
L 391.121237 -97.624662 
L 388.825027 -97.161592 
L 386.528818 -96.701116 
L 384.232608 -96.243267 
L 381.936399 -95.788079 
L 379.640189 -95.359569 
L 377.34398 -94.909347 
L 375.04777 -94.459335 
L 372.751561 -94.072508 
L 370.455351 -93.690957 
L 368.159142 -93.37265 
L 365.862932 -93.054616 
L 363.566723 -92.799686 
L 361.270513 -92.548998 
L 358.974303 -92.231419 
L 356.678094 -91.93748 
L 354.381884 -91.64744 
L 352.085675 -91.365197 
L 349.789465 -91.086484 
L 347.493256 -90.796309 
L 345.197046 -90.511956 
L 342.900837 -90.239802 
L 340.604627 -89.978098 
L 338.308418 -89.716611 
L 336.012208 -89.455375 
L 333.715999 -89.194433 
L 331.419789 -88.933834 
L 329.123579 -88.618469 
L 326.82737 -88.303107 
L 324.53116 -87.979794 
L 322.234951 -87.664407 
L 319.938741 -87.412098 
L 317.642532 -87.159789 
L 315.346322 -86.90748 
L 313.050113 -86.655171 
L 310.753903 -86.402862 
L 308.457694 -86.150553 
L 306.161484 -85.898243 
L 303.865275 -85.709012 
L 301.569065 -85.51978 
L 299.272855 -85.393625 
L 296.976646 -85.330548 
L 294.680436 -85.204393 
L 292.384227 -85.141316 
L 290.088017 -85.078239 
L 287.791808 -85.078239 
L 285.495598 -85.078239 
L 283.199389 -85.078239 
L 280.903179 -85.078239 
L 278.60697 -85.078239 
L 276.31076 -85.078239 
L 274.014551 -85.078239 
L 271.718341 -85.078239 
L 269.422131 -85.078239 
L 267.125922 -85.078239 
L 264.829712 -85.078239 
L 262.533503 -85.078239 
L 260.237293 -85.078239 
L 257.941084 -85.078239 
L 255.644874 -85.078239 
L 253.348665 -85.078239 
L 251.052455 -85.078239 
L 248.756246 -85.078239 
L 246.460036 -85.078239 
L 244.163827 -85.078239 
L 241.867617 -85.078239 
L 239.571407 -85.078239 
L 237.275198 -85.078239 
L 234.978988 -85.078239 
L 232.682779 -85.078239 
L 230.386569 -85.078239 
L 228.09036 -85.078239 
L 225.79415 -85.078239 
L 223.497941 -85.078239 
L 221.201731 -85.078239 
L 218.905522 -85.078239 
L 216.609312 -85.078239 
L 214.313103 -85.078239 
L 212.016893 -85.078239 
L 209.720683 -85.078239 
L 207.424474 -85.078239 
L 205.128264 -85.078239 
L 202.832055 -85.078239 
L 200.535845 -85.078239 
L 198.239636 -85.078239 
L 195.943426 -85.078239 
L 193.647217 -85.078239 
L 191.351007 -85.078239 
L 189.054798 -85.078239 
L 186.758588 -85.078239 
L 184.462379 -85.078239 
L 182.166169 -85.078239 
L 179.869959 -85.078239 
L 177.57375 -85.078239 
L 175.27754 -85.078239 
L 172.981331 -85.078239 
L 170.685121 -85.078239 
L 168.388912 -85.078239 
L 166.092702 -85.078239 
L 163.796493 -85.078239 
L 161.500283 -85.078239 
L 159.204074 -85.078239 
L 156.907864 -85.078239 
L 154.611655 -85.078239 
L 152.315445 -85.078239 
L 150.019235 -85.078239 
L 147.723026 -85.078239 
L 145.426816 -85.078239 
L 143.130607 -85.078239 
z
" style="stroke: #008000; stroke-opacity: 0.3"/>
    </defs>
    <g clip-path="url(#pc1f0b4531e)">
     <use xlink:href="#m01baa10902" x="0" y="432" style="fill: #008000; fill-opacity: 0.3; stroke: #008000; stroke-opacity: 0.3"/>
    </g>
   </g>
   <g id="PolyCollection_3">
    <defs>
     <path id="m9473aab70e" d="M 143.130607 -85.078239 
L 143.130607 -85.078239 
L 145.426816 -85.078239 
L 147.723026 -85.078239 
L 150.019235 -85.078239 
L 152.315445 -85.078239 
L 154.611655 -85.078239 
L 156.907864 -85.078239 
L 159.204074 -85.078239 
L 161.500283 -85.078239 
L 163.796493 -85.078239 
L 166.092702 -85.078239 
L 168.388912 -85.078239 
L 170.685121 -85.078239 
L 172.981331 -85.078239 
L 175.27754 -85.078239 
L 177.57375 -85.078239 
L 179.869959 -85.078239 
L 182.166169 -85.078239 
L 184.462379 -85.078239 
L 186.758588 -85.078239 
L 189.054798 -85.078239 
L 191.351007 -85.078239 
L 193.647217 -85.078239 
L 195.943426 -85.078239 
L 198.239636 -85.078239 
L 200.535845 -85.078239 
L 202.832055 -85.078239 
L 205.128264 -85.078239 
L 207.424474 -85.078239 
L 209.720683 -85.078239 
L 212.016893 -85.078239 
L 214.313103 -85.078239 
L 216.609312 -85.078239 
L 218.905522 -85.078239 
L 221.201731 -85.078239 
L 223.497941 -85.078239 
L 225.79415 -85.078239 
L 228.09036 -85.078239 
L 230.386569 -85.078239 
L 232.682779 -85.078239 
L 234.978988 -85.078239 
L 237.275198 -85.078239 
L 239.571407 -85.078239 
L 241.867617 -85.078239 
L 244.163827 -85.078239 
L 246.460036 -85.078239 
L 248.756246 -85.078239 
L 251.052455 -85.067417 
L 253.348665 -85.056594 
L 255.644874 -85.045772 
L 257.941084 -85.034949 
L 260.237293 -85.024127 
L 262.533503 -85.013305 
L 264.829712 -84.99166 
L 267.125922 -84.970015 
L 269.422131 -84.948371 
L 271.718341 -84.926726 
L 274.014551 -84.905081 
L 276.31076 -84.883437 
L 278.60697 -84.861792 
L 280.903179 -84.873312 
L 283.199389 -84.883848 
L 285.495598 -84.893673 
L 287.791808 -84.902968 
L 290.088017 -84.911857 
L 292.384227 -85.017305 
L 294.680436 -85.026487 
L 296.976646 -85.073116 
L 299.272855 -85.167107 
L 301.569065 -85.260095 
L 303.865275 -85.397717 
L 306.161484 -85.532849 
L 308.457694 -85.665787 
L 310.753903 -85.796788 
L 313.050113 -85.915476 
L 315.346322 -86.032869 
L 317.642532 -86.198684 
L 319.938741 -86.398599 
L 322.234951 -86.592627 
L 324.53116 -86.781254 
L 326.82737 -86.964944 
L 329.123579 -87.144138 
L 331.419789 -87.319246 
L 333.715999 -87.462561 
L 336.012208 -87.689428 
L 338.308418 -87.902068 
L 340.604627 -88.120116 
L 342.900837 -88.337162 
L 345.197046 -88.494515 
L 347.493256 -88.714314 
L 349.789465 -88.932661 
L 352.085675 -89.265023 
L 354.381884 -89.574308 
L 356.678094 -89.787436 
L 358.974303 -89.999967 
L 361.270513 -90.208386 
L 363.566723 -90.416673 
L 365.862932 -90.741414 
L 368.159142 -91.062081 
L 370.455351 -91.445927 
L 372.751561 -91.778196 
L 375.04777 -92.106369 
L 377.34398 -92.438602 
L 379.640189 -92.766788 
L 381.936399 -93.094967 
L 384.232608 -93.464412 
L 386.528818 -93.86206 
L 388.825027 -94.276703 
L 391.121237 -94.685973 
L 393.417447 -95.150535 
L 395.713656 -95.550813 
L 398.009866 -96.00874 
L 400.306075 -96.526105 
L 402.602285 -97.025128 
L 404.898494 -97.449204 
L 407.194704 -97.857182 
L 409.490913 -98.327476 
L 411.787123 -98.749737 
L 414.083332 -99.236026 
L 416.379542 -99.709749 
L 418.675751 -100.246285 
L 420.971961 -100.703486 
L 423.268171 -101.219979 
L 425.56438 -101.7682 
L 427.86059 -102.359066 
L 430.156799 -102.824739 
L 432.453009 -103.368794 
L 434.749218 -103.911906 
L 437.045428 -104.473904 
L 439.341637 -105.033351 
L 441.637847 -105.652837 
L 443.934056 -106.268556 
L 446.230266 -106.879557 
L 448.526475 -107.552249 
L 450.822685 -108.246057 
L 453.118895 -108.883742 
L 455.415104 -109.548167 
L 457.711314 -110.103388 
L 460.007523 -110.736649 
L 462.303733 -111.456681 
L 464.599942 -112.318887 
L 466.896152 -113.181094 
L 469.192361 -114.0433 
L 471.488571 -114.873303 
L 473.78478 -115.726334 
L 476.08099 -116.626779 
L 478.377199 -117.503513 
L 480.673409 -118.491037 
L 482.969619 -119.556189 
L 485.265828 -120.585602 
L 487.562038 -121.596022 
L 489.858247 -122.633889 
L 492.154457 -123.65712 
L 494.450666 -124.762812 
L 496.746876 -125.823191 
L 499.043085 -126.901709 
L 501.339295 -128.046713 
L 503.635504 -129.290077 
L 505.931714 -130.490771 
L 508.227923 -131.627816 
L 510.524133 -132.756143 
L 512.820343 -133.897593 
L 515.116552 -135.080004 
L 517.412762 -136.243636 
L 519.708971 -137.296816 
L 522.005181 -138.254476 
L 524.30139 -139.237956 
L 526.5976 -140.224717 
L 528.893809 -141.2564 
L 531.190019 -142.226889 
L 533.486228 -143.267404 
L 535.782438 -144.445802 
L 538.078647 -145.668686 
L 540.374857 -147.095819 
L 542.671067 -148.513853 
L 544.967276 -149.995061 
L 547.263486 -151.358843 
L 549.559695 -152.764857 
L 551.855905 -154.040403 
L 554.152114 -155.197647 
L 556.448324 -156.390311 
L 558.744533 -157.513244 
L 561.040743 -158.758046 
L 563.336952 -159.937516 
L 565.633162 -161.255758 
L 567.929371 -162.509385 
L 570.225581 -163.820753 
L 572.521791 -165.207611 
L 574.818 -166.530251 
L 577.11421 -167.891797 
L 579.410419 -169.269422 
L 581.706629 -170.680051 
L 584.002838 -172.103712 
L 586.299048 -173.596785 
L 588.595257 -175.096279 
L 590.891467 -176.596898 
L 593.187676 -178.032825 
L 595.483886 -179.491601 
L 597.780095 -180.932645 
L 600.076305 -182.281601 
L 602.372515 -183.659896 
L 604.668724 -185.15849 
L 606.964934 -186.533651 
L 609.261143 -187.992371 
L 611.557353 -189.445023 
L 613.853562 -190.922596 
L 616.149772 -192.38981 
L 618.445981 -193.827779 
L 620.742191 -195.328329 
L 623.0384 -196.789982 
L 625.33461 -198.239906 
L 627.630819 -199.674451 
L 629.927029 -201.069607 
L 632.223239 -202.510638 
L 634.519448 -204.059754 
L 636.815658 -205.520282 
L 639.111867 -206.9147 
L 641.408077 -208.33933 
L 643.704286 -209.699366 
L 646.000496 -211.033365 
L 648.296705 -212.452963 
L 650.592915 -213.880159 
L 652.889124 -215.47143 
L 655.185334 -217.124883 
L 657.481543 -218.752742 
L 659.777753 -220.449411 
L 662.073963 -222.058374 
L 664.370172 -223.657952 
L 666.666382 -225.265966 
L 668.962591 -226.811221 
L 671.258801 -228.398992 
L 673.55501 -229.992938 
L 675.85122 -231.682613 
L 678.147429 -233.360992 
L 680.443639 -235.001053 
L 682.739848 -236.712792 
L 685.036058 -238.474638 
L 687.332267 -240.319867 
L 689.628477 -242.137158 
L 691.924687 -243.905955 
L 694.220896 -245.683669 
L 696.517106 -247.385409 
L 698.813315 -249.19815 
L 701.109525 -251.139478 
L 703.405734 -253.130728 
L 705.701944 -255.012433 
L 707.998153 -256.99318 
L 710.294363 -258.933218 
L 712.590572 -260.921829 
L 714.886782 -262.978134 
L 717.182991 -265.044726 
L 719.479201 -267.111255 
L 721.775411 -269.15694 
L 724.07162 -271.12414 
L 726.36783 -273.100652 
L 728.664039 -275.107308 
L 730.960249 -277.162975 
L 733.256458 -279.12059 
L 735.552668 -281.116776 
L 737.848877 -283.121986 
L 740.145087 -285.205312 
L 742.441296 -287.33708 
L 744.737506 -289.538449 
L 747.033715 -291.669543 
L 749.329925 -293.856264 
L 751.626135 -296.082335 
L 753.922344 -298.307348 
L 756.218554 -300.561944 
L 758.514763 -302.809563 
L 760.810973 -305.104565 
L 763.107182 -307.399172 
L 765.403392 -309.735084 
L 767.699601 -312.070818 
L 769.995811 -314.484756 
L 772.29202 -316.909217 
L 774.58823 -319.249423 
L 776.884439 -321.720323 
L 779.180649 -324.237663 
L 781.476859 -326.80765 
L 783.773068 -329.315886 
L 786.069278 -331.928123 
L 788.365487 -334.575989 
L 790.661697 -337.223547 
L 792.957906 -339.870794 
L 795.254116 -342.506951 
L 797.550325 -345.150509 
L 799.846535 -347.794035 
L 802.142744 -350.351279 
L 802.142744 -405.164879 
L 802.142744 -405.164879 
L 799.846535 -402.653395 
L 797.550325 -400.123684 
L 795.254116 -397.594004 
L 792.957906 -395.004669 
L 790.661697 -392.478678 
L 788.365487 -389.952998 
L 786.069278 -387.427627 
L 783.773068 -384.971135 
L 781.476859 -382.462899 
L 779.180649 -380.016413 
L 776.884439 -377.51728 
L 774.58823 -375.023962 
L 772.29202 -372.556714 
L 769.995811 -370.069213 
L 767.699601 -367.518933 
L 765.403392 -365.047213 
L 763.107182 -362.575672 
L 760.810973 -360.115081 
L 758.514763 -357.654885 
L 756.218554 -355.199561 
L 753.922344 -352.751213 
L 751.626135 -350.377793 
L 749.329925 -348.00543 
L 747.033715 -345.645973 
L 744.737506 -343.283142 
L 742.441296 -340.833824 
L 740.145087 -338.471668 
L 737.848877 -336.113325 
L 735.552668 -333.833631 
L 733.256458 -331.544913 
L 730.960249 -329.322134 
L 728.664039 -327.092897 
L 726.36783 -324.866904 
L 724.07162 -322.663022 
L 721.775411 -320.449828 
L 719.479201 -318.158354 
L 717.182991 -315.992234 
L 714.886782 -313.826178 
L 712.590572 -311.597578 
L 710.294363 -309.405796 
L 707.998153 -307.217694 
L 705.701944 -304.965792 
L 703.405734 -302.719358 
L 701.109525 -300.582469 
L 698.813315 -298.447912 
L 696.517106 -296.393789 
L 694.220896 -294.280919 
L 691.924687 -292.191769 
L 689.628477 -290.041446 
L 687.332267 -287.939618 
L 685.036058 -285.761218 
L 682.739848 -283.551689 
L 680.443639 -281.344309 
L 678.147429 -279.16976 
L 675.85122 -276.981275 
L 673.55501 -274.85634 
L 671.258801 -272.687932 
L 668.962591 -270.565603 
L 666.666382 -268.505268 
L 664.370172 -266.507692 
L 662.073963 -264.553935 
L 659.777753 -262.661818 
L 657.481543 -260.752897 
L 655.185334 -258.879676 
L 652.889124 -256.927539 
L 650.592915 -254.913221 
L 648.296705 -252.891591 
L 646.000496 -250.810109 
L 643.704286 -248.747539 
L 641.408077 -246.606494 
L 639.111867 -244.530044 
L 636.815658 -242.475637 
L 634.519448 -240.38283 
L 632.223239 -238.378611 
L 629.927029 -236.370817 
L 627.630819 -234.421658 
L 625.33461 -232.511888 
L 623.0384 -230.460731 
L 620.742191 -228.316794 
L 618.445981 -226.211755 
L 616.149772 -224.044134 
L 613.853562 -221.905758 
L 611.557353 -219.88225 
L 609.261143 -217.833823 
L 606.964934 -215.791463 
L 604.668724 -213.770054 
L 602.372515 -211.819823 
L 600.076305 -209.801547 
L 597.780095 -207.753933 
L 595.483886 -205.746152 
L 593.187676 -203.860612 
L 590.891467 -201.952224 
L 588.595257 -200.160783 
L 586.299048 -198.315961 
L 584.002838 -196.307955 
L 581.706629 -194.439556 
L 579.410419 -192.558124 
L 577.11421 -190.852709 
L 574.818 -189.183469 
L 572.521791 -187.475323 
L 570.225581 -185.779141 
L 567.929371 -184.111978 
L 565.633162 -182.491584 
L 563.336952 -180.935805 
L 561.040743 -179.502528 
L 558.744533 -178.030074 
L 556.448324 -176.540261 
L 554.152114 -174.963414 
L 551.855905 -173.194382 
L 549.559695 -171.543652 
L 547.263486 -169.971135 
L 544.967276 -168.304131 
L 542.671067 -166.806809 
L 540.374857 -165.350822 
L 538.078647 -163.903934 
L 535.782438 -162.514072 
L 533.486228 -161.027469 
L 531.190019 -159.612002 
L 528.893809 -158.335529 
L 526.5976 -157.067996 
L 524.30139 -155.807795 
L 522.005181 -154.492058 
L 519.708971 -153.202756 
L 517.412762 -151.85221 
L 515.116552 -150.612115 
L 512.820343 -149.234035 
L 510.524133 -147.814993 
L 508.227923 -146.487338 
L 505.931714 -145.272912 
L 503.635504 -144.017625 
L 501.339295 -142.805007 
L 499.043085 -141.703049 
L 496.746876 -140.482351 
L 494.450666 -139.348022 
L 492.154457 -138.363517 
L 489.858247 -137.401061 
L 487.562038 -136.296476 
L 485.265828 -135.164445 
L 482.969619 -133.946896 
L 480.673409 -132.869595 
L 478.377199 -131.871432 
L 476.08099 -130.866989 
L 473.78478 -129.834002 
L 471.488571 -128.858111 
L 469.192361 -127.911446 
L 466.896152 -127.04924 
L 464.599942 -126.187034 
L 462.303733 -125.324827 
L 460.007523 -124.477211 
L 457.711314 -123.59508 
L 455.415104 -122.791673 
L 453.118895 -121.99296 
L 450.822685 -121.167507 
L 448.526475 -120.293667 
L 446.230266 -119.450967 
L 443.934056 -118.546574 
L 441.637847 -117.699156 
L 439.341637 -116.907758 
L 437.045428 -116.108578 
L 434.749218 -115.364202 
L 432.453009 -114.653196 
L 430.156799 -113.943133 
L 427.86059 -113.259198 
L 425.56438 -112.595945 
L 423.268171 -111.942303 
L 420.971961 -111.361442 
L 418.675751 -110.773545 
L 416.379542 -110.160473 
L 414.083332 -109.589097 
L 411.787123 -109.030288 
L 409.490913 -108.51196 
L 407.194704 -108.041665 
L 404.898494 -107.561309 
L 402.602285 -106.992541 
L 400.306075 -106.498721 
L 398.009866 -105.918732 
L 395.713656 -105.331561 
L 393.417447 -104.79125 
L 391.121237 -104.210714 
L 388.825027 -103.679396 
L 386.528818 -103.15345 
L 384.232608 -102.662764 
L 381.936399 -102.09162 
L 379.640189 -101.635975 
L 377.34398 -101.180337 
L 375.04777 -100.781002 
L 372.751561 -100.325351 
L 370.455351 -99.92605 
L 368.159142 -99.421563 
L 365.862932 -98.853896 
L 363.566723 -98.342558 
L 361.270513 -97.871531 
L 358.974303 -97.400637 
L 356.678094 -96.986109 
L 354.381884 -96.572177 
L 352.085675 -96.202148 
L 349.789465 -95.802941 
L 347.493256 -95.446484 
L 345.197046 -95.091479 
L 342.900837 -94.674028 
L 340.604627 -94.264015 
L 338.308418 -93.855003 
L 336.012208 -93.38833 
L 333.715999 -93.040392 
L 331.419789 -92.713413 
L 329.123579 -92.365971 
L 326.82737 -92.022616 
L 324.53116 -91.683757 
L 322.234951 -91.349835 
L 319.938741 -91.021314 
L 317.642532 -90.698679 
L 315.346322 -90.3942 
L 313.050113 -90.041299 
L 310.753903 -89.689692 
L 308.457694 -89.402654 
L 306.161484 -89.117552 
L 303.865275 -88.834645 
L 301.569065 -88.554228 
L 299.272855 -88.281431 
L 296.976646 -88.009638 
L 294.680436 -87.742738 
L 292.384227 -87.5429 
L 290.088017 -87.334818 
L 287.791808 -87.134687 
L 285.495598 -86.934962 
L 283.199389 -86.735767 
L 280.903179 -86.537284 
L 278.60697 -86.339784 
L 276.31076 -86.21363 
L 274.014551 -86.087475 
L 271.718341 -85.961321 
L 269.422131 -85.835166 
L 267.125922 -85.709012 
L 264.829712 -85.582857 
L 262.533503 -85.456703 
L 260.237293 -85.393625 
L 257.941084 -85.330548 
L 255.644874 -85.267471 
L 253.348665 -85.204393 
L 251.052455 -85.141316 
L 248.756246 -85.078239 
L 246.460036 -85.078239 
L 244.163827 -85.078239 
L 241.867617 -85.078239 
L 239.571407 -85.078239 
L 237.275198 -85.078239 
L 234.978988 -85.078239 
L 232.682779 -85.078239 
L 230.386569 -85.078239 
L 228.09036 -85.078239 
L 225.79415 -85.078239 
L 223.497941 -85.078239 
L 221.201731 -85.078239 
L 218.905522 -85.078239 
L 216.609312 -85.078239 
L 214.313103 -85.078239 
L 212.016893 -85.078239 
L 209.720683 -85.078239 
L 207.424474 -85.078239 
L 205.128264 -85.078239 
L 202.832055 -85.078239 
L 200.535845 -85.078239 
L 198.239636 -85.078239 
L 195.943426 -85.078239 
L 193.647217 -85.078239 
L 191.351007 -85.078239 
L 189.054798 -85.078239 
L 186.758588 -85.078239 
L 184.462379 -85.078239 
L 182.166169 -85.078239 
L 179.869959 -85.078239 
L 177.57375 -85.078239 
L 175.27754 -85.078239 
L 172.981331 -85.078239 
L 170.685121 -85.078239 
L 168.388912 -85.078239 
L 166.092702 -85.078239 
L 163.796493 -85.078239 
L 161.500283 -85.078239 
L 159.204074 -85.078239 
L 156.907864 -85.078239 
L 154.611655 -85.078239 
L 152.315445 -85.078239 
L 150.019235 -85.078239 
L 147.723026 -85.078239 
L 145.426816 -85.078239 
L 143.130607 -85.078239 
z
" style="stroke: #ff0000; stroke-opacity: 0.3"/>
    </defs>
    <g clip-path="url(#pc1f0b4531e)">
     <use xlink:href="#m9473aab70e" x="0" y="432" style="fill: #ff0000; fill-opacity: 0.3; stroke: #ff0000; stroke-opacity: 0.3"/>
    </g>
   </g>
   <g id="PolyCollection_4">
    <defs>
     <path id="m6753f3f5b9" d="M 143.130607 -85.078239 
L 143.130607 -85.078239 
L 145.426816 -85.078239 
L 147.723026 -85.078239 
L 150.019235 -85.078239 
L 152.315445 -85.078239 
L 154.611655 -85.078239 
L 156.907864 -85.078239 
L 159.204074 -85.078239 
L 161.500283 -85.078239 
L 163.796493 -85.078239 
L 166.092702 -85.078239 
L 168.388912 -85.078239 
L 170.685121 -85.078239 
L 172.981331 -85.078239 
L 175.27754 -85.078239 
L 177.57375 -85.078239 
L 179.869959 -85.078239 
L 182.166169 -85.078239 
L 184.462379 -85.078239 
L 186.758588 -85.078239 
L 189.054798 -85.078239 
L 191.351007 -85.078239 
L 193.647217 -85.078239 
L 195.943426 -85.078239 
L 198.239636 -85.078239 
L 200.535845 -85.078239 
L 202.832055 -85.078239 
L 205.128264 -85.078239 
L 207.424474 -85.078239 
L 209.720683 -85.078239 
L 212.016893 -85.078239 
L 214.313103 -85.078239 
L 216.609312 -85.078239 
L 218.905522 -85.078239 
L 221.201731 -85.078239 
L 223.497941 -85.078239 
L 225.79415 -85.078239 
L 228.09036 -85.078239 
L 230.386569 -85.078239 
L 232.682779 -85.078239 
L 234.978988 -85.078239 
L 237.275198 -85.078239 
L 239.571407 -85.078239 
L 241.867617 -85.078239 
L 244.163827 -85.078239 
L 246.460036 -85.078239 
L 248.756246 -85.078239 
L 251.052455 -85.078239 
L 253.348665 -85.078239 
L 255.644874 -85.078239 
L 257.941084 -85.078239 
L 260.237293 -85.078239 
L 262.533503 -85.078239 
L 264.829712 -85.078239 
L 267.125922 -85.078239 
L 269.422131 -85.078239 
L 271.718341 -85.078239 
L 274.014551 -85.078239 
L 276.31076 -85.078239 
L 278.60697 -85.078239 
L 280.903179 -85.078239 
L 283.199389 -85.078239 
L 285.495598 -85.078239 
L 287.791808 -85.078239 
L 290.088017 -85.078239 
L 292.384227 -85.078239 
L 294.680436 -85.078239 
L 296.976646 -85.078239 
L 299.272855 -85.078239 
L 301.569065 -85.078239 
L 303.865275 -85.078239 
L 306.161484 -85.078239 
L 308.457694 -85.078239 
L 310.753903 -85.078239 
L 313.050113 -85.078239 
L 315.346322 -85.078239 
L 317.642532 -85.078239 
L 319.938741 -85.078239 
L 322.234951 -85.078239 
L 324.53116 -85.078239 
L 326.82737 -85.078239 
L 329.123579 -85.078239 
L 331.419789 -85.078239 
L 333.715999 -85.078239 
L 336.012208 -85.078239 
L 338.308418 -85.078239 
L 340.604627 -85.078239 
L 342.900837 -85.078239 
L 345.197046 -85.078239 
L 347.493256 -85.078239 
L 349.789465 -85.067417 
L 352.085675 -85.067417 
L 354.381884 -85.056594 
L 356.678094 -85.045772 
L 358.974303 -85.034949 
L 361.270513 -85.024127 
L 363.566723 -85.013305 
L 365.862932 -85.002482 
L 368.159142 -84.99166 
L 370.455351 -84.980838 
L 372.751561 -84.980838 
L 375.04777 -84.980838 
L 377.34398 -84.980838 
L 379.640189 -84.980838 
L 381.936399 -84.980838 
L 384.232608 -84.980838 
L 386.528818 -84.980838 
L 388.825027 -84.980838 
L 391.121237 -84.980838 
L 393.417447 -84.980838 
L 395.713656 -84.980838 
L 398.009866 -84.980838 
L 400.306075 -84.980838 
L 402.602285 -84.980838 
L 404.898494 -84.980838 
L 407.194704 -84.980838 
L 409.490913 -84.980838 
L 411.787123 -84.980838 
L 414.083332 -84.980838 
L 416.379542 -84.980838 
L 418.675751 -84.980838 
L 420.971961 -84.980838 
L 423.268171 -84.980838 
L 425.56438 -84.980838 
L 427.86059 -84.980838 
L 430.156799 -84.980838 
L 432.453009 -84.980838 
L 434.749218 -84.980838 
L 437.045428 -84.980838 
L 439.341637 -84.980838 
L 441.637847 -84.980838 
L 443.934056 -84.980838 
L 446.230266 -84.980838 
L 448.526475 -84.980838 
L 450.822685 -84.980838 
L 453.118895 -84.980838 
L 455.415104 -84.970015 
L 457.711314 -84.959193 
L 460.007523 -84.948371 
L 462.303733 -84.937548 
L 464.599942 -84.926726 
L 466.896152 -84.915904 
L 469.192361 -84.905081 
L 471.488571 -84.894259 
L 473.78478 -84.883437 
L 476.08099 -84.872614 
L 478.377199 -84.861792 
L 480.673409 -84.85097 
L 482.969619 -84.840147 
L 485.265828 -84.829325 
L 487.562038 -84.818503 
L 489.858247 -84.818503 
L 492.154457 -84.818503 
L 494.450666 -84.818503 
L 496.746876 -84.818503 
L 499.043085 -84.80768 
L 501.339295 -84.796858 
L 503.635504 -84.796858 
L 505.931714 -84.796858 
L 508.227923 -84.796858 
L 510.524133 -84.796858 
L 512.820343 -84.796858 
L 515.116552 -84.796858 
L 517.412762 -84.796858 
L 519.708971 -84.796858 
L 522.005181 -84.796858 
L 524.30139 -84.796858 
L 526.5976 -84.796858 
L 528.893809 -84.796858 
L 531.190019 -84.796858 
L 533.486228 -84.796858 
L 535.782438 -84.796858 
L 538.078647 -84.840917 
L 540.374857 -84.883848 
L 542.671067 -84.883848 
L 544.967276 -84.883848 
L 547.263486 -84.925589 
L 549.559695 -84.966077 
L 551.855905 -85.005252 
L 554.152114 -85.043054 
L 556.448324 -85.079427 
L 558.744533 -85.114321 
L 561.040743 -85.147688 
L 563.336952 -85.179489 
L 565.633162 -85.209693 
L 567.929371 -85.238276 
L 570.225581 -85.265224 
L 572.521791 -85.290531 
L 574.818 -85.314203 
L 577.11421 -85.336254 
L 579.410419 -85.356707 
L 581.706629 -85.375595 
L 584.002838 -85.392957 
L 586.299048 -85.409483 
L 588.595257 -85.425913 
L 590.891467 -85.44226 
L 593.187676 -85.45853 
L 595.483886 -85.47317 
L 597.780095 -85.48661 
L 600.076305 -85.498894 
L 602.372515 -85.510068 
L 604.668724 -85.520178 
L 606.964934 -85.52927 
L 609.261143 -85.537392 
L 611.557353 -85.544591 
L 613.853562 -85.55991 
L 616.149772 -85.575229 
L 618.445981 -85.590547 
L 620.742191 -85.605864 
L 623.0384 -85.629223 
L 625.33461 -85.651811 
L 627.630819 -85.673718 
L 629.927029 -85.69502 
L 632.223239 -85.715784 
L 634.519448 -85.740366 
L 636.815658 -85.763104 
L 639.111867 -85.784248 
L 641.408077 -85.804011 
L 643.704286 -85.822569 
L 646.000496 -85.840074 
L 648.296705 -85.873267 
L 650.592915 -85.906433 
L 652.889124 -85.939574 
L 655.185334 -85.972695 
L 657.481543 -86.005797 
L 659.777753 -86.038883 
L 662.073963 -86.071954 
L 664.370172 -86.105011 
L 666.666382 -86.138056 
L 668.962591 -86.171091 
L 671.258801 -86.204465 
L 673.55501 -86.237714 
L 675.85122 -86.270844 
L 678.147429 -86.303865 
L 680.443639 -86.398718 
L 682.739848 -86.555483 
L 685.036058 -86.712441 
L 687.332267 -86.869206 
L 689.628477 -87.025961 
L 691.924687 -87.182116 
L 694.220896 -87.276021 
L 696.517106 -87.369476 
L 698.813315 -87.462513 
L 701.109525 -87.555162 
L 703.405734 -87.708472 
L 705.701944 -87.863283 
L 707.998153 -88.017947 
L 710.294363 -88.167562 
L 712.590572 -88.315965 
L 714.886782 -88.463231 
L 717.182991 -88.609431 
L 719.479201 -88.75463 
L 721.775411 -88.907327 
L 724.07162 -89.059923 
L 726.36783 -89.212417 
L 728.664039 -89.36035 
L 730.960249 -89.507905 
L 733.256458 -89.655097 
L 735.552668 -89.806945 
L 737.848877 -89.96371 
L 740.145087 -90.120474 
L 742.441296 -90.277239 
L 744.737506 -90.49294 
L 747.033715 -90.649704 
L 749.329925 -90.884852 
L 751.626135 -91.119999 
L 753.922344 -91.350071 
L 756.218554 -91.58006 
L 758.514763 -91.815207 
L 760.810973 -92.050354 
L 763.107182 -92.280261 
L 765.403392 -92.456689 
L 767.699601 -92.602878 
L 769.995811 -92.743203 
L 772.29202 -92.941032 
L 774.58823 -93.137768 
L 776.884439 -93.333451 
L 779.180649 -93.528121 
L 781.476859 -93.721817 
L 783.773068 -93.907474 
L 786.069278 -94.121029 
L 788.365487 -94.397911 
L 790.661697 -94.666711 
L 792.957906 -94.926908 
L 795.254116 -95.193963 
L 797.550325 -95.428875 
L 799.846535 -95.653592 
L 802.142744 -95.876206 
L 802.142744 -107.984699 
L 802.142744 -107.984699 
L 799.846535 -107.527999 
L 797.550325 -107.073402 
L 795.254116 -106.681255 
L 792.957906 -106.268996 
L 790.661697 -105.797624 
L 788.365487 -105.38711 
L 786.069278 -105.036932 
L 783.773068 -104.623429 
L 781.476859 -104.234282 
L 779.180649 -103.905428 
L 776.884439 -103.577549 
L 774.58823 -103.250683 
L 772.29202 -102.924869 
L 769.995811 -102.600149 
L 767.699601 -102.27018 
L 765.403392 -101.99833 
L 763.107182 -101.756718 
L 760.810973 -101.464076 
L 758.514763 -101.228928 
L 756.218554 -100.993781 
L 753.922344 -100.701221 
L 751.626135 -100.408744 
L 749.329925 -100.173597 
L 747.033715 -99.938449 
L 744.737506 -99.781685 
L 742.441296 -99.631601 
L 740.145087 -99.474836 
L 737.848877 -99.318071 
L 735.552668 -99.161306 
L 733.256458 -98.947369 
L 730.960249 -98.676523 
L 728.664039 -98.406038 
L 726.36783 -98.135931 
L 724.07162 -97.922641 
L 721.775411 -97.709452 
L 719.479201 -97.496365 
L 717.182991 -97.17127 
L 714.886782 -96.847175 
L 712.590572 -96.524147 
L 710.294363 -96.202256 
L 707.998153 -95.881576 
L 705.701944 -95.670456 
L 703.405734 -95.459482 
L 701.109525 -95.194753 
L 698.813315 -94.921618 
L 696.517106 -94.64887 
L 694.220896 -94.376541 
L 691.924687 -94.104661 
L 689.628477 -93.842776 
L 687.332267 -93.633747 
L 685.036058 -93.476982 
L 682.739848 -93.268156 
L 680.443639 -93.111392 
L 678.147429 -92.94497 
L 675.85122 -92.768971 
L 673.55501 -92.593082 
L 671.258801 -92.41731 
L 668.962591 -92.241665 
L 666.666382 -92.013425 
L 664.370172 -91.785196 
L 662.073963 -91.556979 
L 659.777753 -91.328775 
L 657.481543 -91.100586 
L 655.185334 -90.872413 
L 652.889124 -90.644259 
L 650.592915 -90.416126 
L 648.296705 -90.188018 
L 646.000496 -89.959936 
L 643.704286 -89.768421 
L 641.408077 -89.57796 
L 639.111867 -89.388702 
L 636.815658 -89.200827 
L 634.519448 -89.014545 
L 632.223239 -88.830107 
L 629.927029 -88.694107 
L 627.630819 -88.558644 
L 625.33461 -88.423786 
L 623.0384 -88.289609 
L 620.742191 -88.156204 
L 618.445981 -88.067011 
L 616.149772 -87.977819 
L 613.853562 -87.888628 
L 611.557353 -87.799438 
L 609.261143 -87.754381 
L 606.964934 -87.710248 
L 604.668724 -87.667086 
L 602.372515 -87.624941 
L 600.076305 -87.583859 
L 597.780095 -87.543889 
L 595.483886 -87.505074 
L 593.187676 -87.467459 
L 590.891467 -87.379219 
L 588.595257 -87.291056 
L 586.299048 -87.202977 
L 584.002838 -87.114993 
L 581.706629 -87.080099 
L 579.410419 -87.046732 
L 577.11421 -87.014931 
L 574.818 -86.984727 
L 572.521791 -86.956144 
L 570.225581 -86.929196 
L 567.929371 -86.903889 
L 565.633162 -86.880217 
L 563.336952 -86.858166 
L 561.040743 -86.837712 
L 558.744533 -86.818825 
L 556.448324 -86.801463 
L 554.152114 -86.785581 
L 551.855905 -86.771128 
L 549.559695 -86.758048 
L 547.263486 -86.746282 
L 544.967276 -86.735767 
L 542.671067 -86.735767 
L 540.374857 -86.735767 
L 538.078647 -86.726444 
L 535.782438 -86.718248 
L 533.486228 -86.718248 
L 531.190019 -86.718248 
L 528.893809 -86.718248 
L 526.5976 -86.718248 
L 524.30139 -86.718248 
L 522.005181 -86.718248 
L 519.708971 -86.718248 
L 517.412762 -86.718248 
L 515.116552 -86.718248 
L 512.820343 -86.718248 
L 510.524133 -86.718248 
L 508.227923 -86.718248 
L 505.931714 -86.718248 
L 503.635504 -86.718248 
L 501.339295 -86.718248 
L 499.043085 -86.655171 
L 496.746876 -86.592093 
L 494.450666 -86.592093 
L 492.154457 -86.592093 
L 489.858247 -86.592093 
L 487.562038 -86.592093 
L 485.265828 -86.529016 
L 482.969619 -86.465939 
L 480.673409 -86.402862 
L 478.377199 -86.339784 
L 476.08099 -86.276707 
L 473.78478 -86.21363 
L 471.488571 -86.150553 
L 469.192361 -86.087475 
L 466.896152 -86.024398 
L 464.599942 -85.961321 
L 462.303733 -85.898243 
L 460.007523 -85.835166 
L 457.711314 -85.772089 
L 455.415104 -85.709012 
L 453.118895 -85.645934 
L 450.822685 -85.645934 
L 448.526475 -85.645934 
L 446.230266 -85.645934 
L 443.934056 -85.645934 
L 441.637847 -85.645934 
L 439.341637 -85.645934 
L 437.045428 -85.645934 
L 434.749218 -85.645934 
L 432.453009 -85.645934 
L 430.156799 -85.645934 
L 427.86059 -85.645934 
L 425.56438 -85.645934 
L 423.268171 -85.645934 
L 420.971961 -85.645934 
L 418.675751 -85.645934 
L 416.379542 -85.645934 
L 414.083332 -85.645934 
L 411.787123 -85.645934 
L 409.490913 -85.645934 
L 407.194704 -85.645934 
L 404.898494 -85.645934 
L 402.602285 -85.645934 
L 400.306075 -85.645934 
L 398.009866 -85.645934 
L 395.713656 -85.645934 
L 393.417447 -85.645934 
L 391.121237 -85.645934 
L 388.825027 -85.645934 
L 386.528818 -85.645934 
L 384.232608 -85.645934 
L 381.936399 -85.645934 
L 379.640189 -85.645934 
L 377.34398 -85.645934 
L 375.04777 -85.645934 
L 372.751561 -85.645934 
L 370.455351 -85.645934 
L 368.159142 -85.582857 
L 365.862932 -85.51978 
L 363.566723 -85.456703 
L 361.270513 -85.393625 
L 358.974303 -85.330548 
L 356.678094 -85.267471 
L 354.381884 -85.204393 
L 352.085675 -85.141316 
L 349.789465 -85.141316 
L 347.493256 -85.078239 
L 345.197046 -85.078239 
L 342.900837 -85.078239 
L 340.604627 -85.078239 
L 338.308418 -85.078239 
L 336.012208 -85.078239 
L 333.715999 -85.078239 
L 331.419789 -85.078239 
L 329.123579 -85.078239 
L 326.82737 -85.078239 
L 324.53116 -85.078239 
L 322.234951 -85.078239 
L 319.938741 -85.078239 
L 317.642532 -85.078239 
L 315.346322 -85.078239 
L 313.050113 -85.078239 
L 310.753903 -85.078239 
L 308.457694 -85.078239 
L 306.161484 -85.078239 
L 303.865275 -85.078239 
L 301.569065 -85.078239 
L 299.272855 -85.078239 
L 296.976646 -85.078239 
L 294.680436 -85.078239 
L 292.384227 -85.078239 
L 290.088017 -85.078239 
L 287.791808 -85.078239 
L 285.495598 -85.078239 
L 283.199389 -85.078239 
L 280.903179 -85.078239 
L 278.60697 -85.078239 
L 276.31076 -85.078239 
L 274.014551 -85.078239 
L 271.718341 -85.078239 
L 269.422131 -85.078239 
L 267.125922 -85.078239 
L 264.829712 -85.078239 
L 262.533503 -85.078239 
L 260.237293 -85.078239 
L 257.941084 -85.078239 
L 255.644874 -85.078239 
L 253.348665 -85.078239 
L 251.052455 -85.078239 
L 248.756246 -85.078239 
L 246.460036 -85.078239 
L 244.163827 -85.078239 
L 241.867617 -85.078239 
L 239.571407 -85.078239 
L 237.275198 -85.078239 
L 234.978988 -85.078239 
L 232.682779 -85.078239 
L 230.386569 -85.078239 
L 228.09036 -85.078239 
L 225.79415 -85.078239 
L 223.497941 -85.078239 
L 221.201731 -85.078239 
L 218.905522 -85.078239 
L 216.609312 -85.078239 
L 214.313103 -85.078239 
L 212.016893 -85.078239 
L 209.720683 -85.078239 
L 207.424474 -85.078239 
L 205.128264 -85.078239 
L 202.832055 -85.078239 
L 200.535845 -85.078239 
L 198.239636 -85.078239 
L 195.943426 -85.078239 
L 193.647217 -85.078239 
L 191.351007 -85.078239 
L 189.054798 -85.078239 
L 186.758588 -85.078239 
L 184.462379 -85.078239 
L 182.166169 -85.078239 
L 179.869959 -85.078239 
L 177.57375 -85.078239 
L 175.27754 -85.078239 
L 172.981331 -85.078239 
L 170.685121 -85.078239 
L 168.388912 -85.078239 
L 166.092702 -85.078239 
L 163.796493 -85.078239 
L 161.500283 -85.078239 
L 159.204074 -85.078239 
L 156.907864 -85.078239 
L 154.611655 -85.078239 
L 152.315445 -85.078239 
L 150.019235 -85.078239 
L 147.723026 -85.078239 
L 145.426816 -85.078239 
L 143.130607 -85.078239 
z
" style="stroke: #ffa500; stroke-opacity: 0.3"/>
    </defs>
    <g clip-path="url(#pc1f0b4531e)">
     <use xlink:href="#m6753f3f5b9" x="0" y="432" style="fill: #ffa500; fill-opacity: 0.3; stroke: #ffa500; stroke-opacity: 0.3"/>
    </g>
   </g>
   <g id="matplotlib.axis_1">
    <g id="xtick_1">
     <g id="line2d_1">
      <defs>
       <path id="mf495252bba" d="M 0 0 
L 0 3.5 
" style="stroke: #000000; stroke-width: 0.8"/>
      </defs>
      <g>
       <use xlink:href="#mf495252bba" x="143.130607" y="354.76" style="stroke: #000000; stroke-width: 0.8"/>
      </g>
     </g>
     <g id="text_1">
      <!-- 0 -->
      <g transform="translate(136.130607 381.01) scale(0.28 -0.28)">
       <defs>
        <path id="SimHei-30" d="M 225 2537 
Q 250 3200 412 3587 
Q 575 3975 875 4225 
Q 1175 4475 1612 4475 
Q 2050 4475 2375 4112 
Q 2700 3750 2800 3200 
Q 2900 2650 2862 1937 
Q 2825 1225 2612 775 
Q 2400 325 1975 150 
Q 1550 -25 1125 187 
Q 700 400 525 750 
Q 350 1100 275 1487 
Q 200 1875 225 2537 
z
M 750 2687 
Q 675 2000 800 1462 
Q 925 925 1212 700 
Q 1500 475 1800 612 
Q 2100 750 2237 1162 
Q 2375 1575 2375 2062 
Q 2375 2550 2337 2950 
Q 2300 3350 2112 3675 
Q 1925 4000 1612 4012 
Q 1300 4025 1062 3700 
Q 825 3375 750 2687 
z
" transform="scale(0.015625)"/>
       </defs>
       <use xlink:href="#SimHei-30"/>
      </g>
     </g>
    </g>
    <g id="xtick_2">
     <g id="line2d_2">
      <g>
       <use xlink:href="#mf495252bba" x="257.941084" y="354.76" style="stroke: #000000; stroke-width: 0.8"/>
      </g>
     </g>
     <g id="text_2">
      <!-- 50 -->
      <g transform="translate(243.941084 381.01) scale(0.28 -0.28)">
       <defs>
        <path id="SimHei-35" d="M 550 1325 
Q 725 650 1150 575 
Q 1575 500 1837 662 
Q 2100 825 2212 1087 
Q 2325 1350 2312 1675 
Q 2300 2000 2137 2225 
Q 1975 2450 1725 2525 
Q 1475 2600 1162 2525 
Q 850 2450 650 2175 
L 225 2225 
Q 275 2375 700 4375 
L 2675 4375 
L 2675 3925 
L 1075 3925 
Q 950 3250 825 2850 
Q 1200 3025 1525 3012 
Q 1850 3000 2150 2862 
Q 2450 2725 2587 2487 
Q 2725 2250 2787 2012 
Q 2850 1775 2837 1500 
Q 2825 1225 2725 937 
Q 2625 650 2425 462 
Q 2225 275 1937 162 
Q 1650 50 1275 75 
Q 900 100 562 350 
Q 225 600 100 1200 
L 550 1325 
z
" transform="scale(0.015625)"/>
       </defs>
       <use xlink:href="#SimHei-35"/>
       <use xlink:href="#SimHei-30" x="50"/>
      </g>
     </g>
    </g>
    <g id="xtick_3">
     <g id="line2d_3">
      <g>
       <use xlink:href="#mf495252bba" x="372.751561" y="354.76" style="stroke: #000000; stroke-width: 0.8"/>
      </g>
     </g>
     <g id="text_3">
      <!-- 100 -->
      <g transform="translate(351.751561 381.01) scale(0.28 -0.28)">
       <defs>
        <path id="SimHei-31" d="M 1400 3600 
Q 1075 3275 575 2975 
L 575 3450 
Q 1200 3875 1600 4450 
L 1900 4450 
L 1900 150 
L 1400 150 
L 1400 3600 
z
" transform="scale(0.015625)"/>
       </defs>
       <use xlink:href="#SimHei-31"/>
       <use xlink:href="#SimHei-30" x="50"/>
       <use xlink:href="#SimHei-30" x="100"/>
      </g>
     </g>
    </g>
    <g id="xtick_4">
     <g id="line2d_4">
      <g>
       <use xlink:href="#mf495252bba" x="487.562038" y="354.76" style="stroke: #000000; stroke-width: 0.8"/>
      </g>
     </g>
     <g id="text_4">
      <!-- 150 -->
      <g transform="translate(466.562038 381.01) scale(0.28 -0.28)">
       <use xlink:href="#SimHei-31"/>
       <use xlink:href="#SimHei-35" x="50"/>
       <use xlink:href="#SimHei-30" x="100"/>
      </g>
     </g>
    </g>
    <g id="xtick_5">
     <g id="line2d_5">
      <g>
       <use xlink:href="#mf495252bba" x="602.372515" y="354.76" style="stroke: #000000; stroke-width: 0.8"/>
      </g>
     </g>
     <g id="text_5">
      <!-- 200 -->
      <g transform="translate(581.372515 381.01) scale(0.28 -0.28)">
       <defs>
        <path id="SimHei-32" d="M 300 250 
Q 325 625 650 925 
Q 975 1225 1475 1862 
Q 1975 2500 2125 2850 
Q 2275 3200 2237 3450 
Q 2200 3700 2000 3862 
Q 1800 4025 1537 4000 
Q 1275 3975 1037 3800 
Q 800 3625 675 3275 
L 200 3350 
Q 400 3925 712 4187 
Q 1025 4450 1450 4475 
Q 1700 4500 1900 4462 
Q 2100 4425 2312 4287 
Q 2525 4150 2662 3875 
Q 2800 3600 2762 3212 
Q 2725 2825 2375 2287 
Q 2025 1750 1025 600 
L 2825 600 
L 2825 150 
L 300 150 
L 300 250 
z
" transform="scale(0.015625)"/>
       </defs>
       <use xlink:href="#SimHei-32"/>
       <use xlink:href="#SimHei-30" x="50"/>
       <use xlink:href="#SimHei-30" x="100"/>
      </g>
     </g>
    </g>
    <g id="xtick_6">
     <g id="line2d_6">
      <g>
       <use xlink:href="#mf495252bba" x="717.182991" y="354.76" style="stroke: #000000; stroke-width: 0.8"/>
      </g>
     </g>
     <g id="text_6">
      <!-- 250 -->
      <g transform="translate(696.182991 381.01) scale(0.28 -0.28)">
       <use xlink:href="#SimHei-32"/>
       <use xlink:href="#SimHei-35" x="50"/>
       <use xlink:href="#SimHei-30" x="100"/>
      </g>
     </g>
    </g>
    <g id="xtick_7">
     <g id="line2d_7">
      <g>
       <use xlink:href="#mf495252bba" x="831.993468" y="354.76" style="stroke: #000000; stroke-width: 0.8"/>
      </g>
     </g>
     <g id="text_7">
      <!-- 300 -->
      <g transform="translate(810.993468 381.01) scale(0.28 -0.28)">
       <defs>
        <path id="SimHei-33" d="M 250 1225 
L 700 1300 
Q 800 975 1025 762 
Q 1250 550 1587 562 
Q 1925 575 2125 837 
Q 2325 1100 2300 1437 
Q 2275 1775 2037 1962 
Q 1800 2150 1275 2225 
L 1275 2550 
Q 1800 2600 2037 2825 
Q 2275 3050 2250 3412 
Q 2225 3775 1925 3937 
Q 1625 4100 1287 3975 
Q 950 3850 750 3275 
L 300 3350 
Q 450 3800 712 4100 
Q 975 4400 1425 4450 
Q 1875 4500 2212 4337 
Q 2550 4175 2687 3837 
Q 2825 3500 2725 3100 
Q 2625 2700 2150 2400 
Q 2500 2250 2687 1950 
Q 2875 1650 2812 1162 
Q 2750 675 2375 375 
Q 2000 75 1525 87 
Q 1050 100 700 387 
Q 350 675 250 1225 
z
" transform="scale(0.015625)"/>
       </defs>
       <use xlink:href="#SimHei-33"/>
       <use xlink:href="#SimHei-30" x="50"/>
       <use xlink:href="#SimHei-30" x="100"/>
      </g>
     </g>
    </g>
    <g id="text_8">
     <!-- Time Steps -->
     <g transform="translate(372.636676 416.3225) scale(0.4 -0.4)">
      <defs>
       <path id="SimHei-54" d="M 2850 3925 
L 1850 3925 
L 1850 125 
L 1275 125 
L 1275 3925 
L 275 3925 
L 275 4400 
L 2850 4400 
L 2850 3925 
z
" transform="scale(0.015625)"/>
       <path id="SimHei-69" d="M 1800 3725 
L 1300 3725 
L 1300 4375 
L 1800 4375 
L 1800 3725 
z
M 1800 125 
L 1300 125 
L 1300 2925 
L 1800 2925 
L 1800 125 
z
" transform="scale(0.015625)"/>
       <path id="SimHei-6d" d="M 3050 125 
L 2550 125 
L 2550 2150 
Q 2550 2300 2500 2400 
Q 2450 2500 2300 2500 
Q 2125 2500 1975 2312 
Q 1825 2125 1825 1825 
L 1825 125 
L 1325 125 
L 1325 2150 
Q 1325 2300 1275 2400 
Q 1225 2500 1075 2500 
Q 900 2500 750 2312 
Q 600 2125 600 1825 
L 600 125 
L 100 125 
L 100 2925 
L 600 2925 
L 600 2550 
Q 725 2750 900 2862 
Q 1075 2975 1275 2975 
Q 1475 2975 1612 2862 
Q 1750 2750 1800 2550 
Q 1925 2750 2087 2862 
Q 2250 2975 2450 2975 
Q 2750 2975 2900 2812 
Q 3050 2650 3050 2350 
L 3050 125 
z
" transform="scale(0.015625)"/>
       <path id="SimHei-65" d="M 2850 1075 
Q 2800 625 2450 350 
Q 2100 75 1625 75 
Q 1025 75 637 462 
Q 250 850 250 1525 
Q 250 2200 637 2587 
Q 1025 2975 1625 2975 
Q 2150 2975 2487 2637 
Q 2825 2300 2825 1525 
L 800 1525 
Q 800 975 1037 750 
Q 1275 525 1625 525 
Q 1900 525 2075 662 
Q 2250 800 2300 1075 
L 2850 1075 
z
M 2250 1925 
Q 2200 2275 2025 2412 
Q 1850 2550 1575 2550 
Q 1325 2550 1125 2412 
Q 925 2275 825 1925 
L 2250 1925 
z
" transform="scale(0.015625)"/>
       <path id="SimHei-20" transform="scale(0.015625)"/>
       <path id="SimHei-53" d="M 2900 1325 
Q 2900 750 2537 412 
Q 2175 75 1550 75 
Q 925 75 575 425 
Q 225 775 225 1300 
L 225 1475 
L 800 1475 
L 800 1325 
Q 800 950 1025 750 
Q 1250 550 1550 550 
Q 1950 550 2137 762 
Q 2325 975 2325 1275 
Q 2325 1525 2100 1737 
Q 1875 1950 1450 2125 
Q 850 2350 587 2625 
Q 325 2900 325 3275 
Q 325 3800 687 4125 
Q 1050 4450 1550 4450 
Q 2200 4450 2487 4062 
Q 2775 3675 2775 3225 
L 2200 3225 
Q 2225 3500 2050 3725 
Q 1875 3950 1550 3950 
Q 1250 3950 1075 3787 
Q 900 3625 900 3350 
Q 900 3125 1037 2962 
Q 1175 2800 1750 2575 
Q 2300 2350 2600 2037 
Q 2900 1725 2900 1325 
z
" transform="scale(0.015625)"/>
       <path id="SimHei-74" d="M 2750 200 
Q 2625 150 2462 112 
Q 2300 75 2025 75 
Q 1575 75 1300 325 
Q 1025 575 1025 1025 
L 1025 2525 
L 175 2525 
L 175 2925 
L 1025 2925 
L 1025 3900 
L 1525 3900 
L 1525 2925 
L 2550 2925 
L 2550 2525 
L 1525 2525 
L 1525 1000 
Q 1525 800 1625 662 
Q 1725 525 2000 525 
Q 2275 525 2450 575 
Q 2625 625 2750 700 
L 2750 200 
z
" transform="scale(0.015625)"/>
       <path id="SimHei-70" d="M 2825 1525 
Q 2825 800 2475 425 
Q 2125 50 1625 50 
Q 1350 50 1150 162 
Q 950 275 800 500 
L 800 -800 
L 300 -800 
L 300 2925 
L 800 2925 
L 800 2550 
Q 950 2775 1150 2875 
Q 1350 2975 1625 2975 
Q 2125 2975 2475 2612 
Q 2825 2250 2825 1525 
z
M 2275 1525 
Q 2275 2000 2087 2262 
Q 1900 2525 1525 2525 
Q 1225 2525 1012 2262 
Q 800 2000 800 1525 
Q 800 1050 1012 775 
Q 1225 500 1525 500 
Q 1900 500 2087 775 
Q 2275 1050 2275 1525 
z
" transform="scale(0.015625)"/>
       <path id="SimHei-73" d="M 2750 900 
Q 2750 500 2437 287 
Q 2125 75 1650 75 
Q 1050 75 725 312 
Q 400 550 400 1000 
L 900 1000 
Q 900 700 1112 600 
Q 1325 500 1625 500 
Q 1925 500 2075 612 
Q 2225 725 2225 900 
Q 2225 1025 2100 1150 
Q 1975 1275 1475 1350 
Q 900 1425 687 1637 
Q 475 1850 475 2200 
Q 475 2500 762 2737 
Q 1050 2975 1600 2975 
Q 2100 2975 2387 2750 
Q 2675 2525 2675 2150 
L 2175 2150 
Q 2175 2375 2012 2462 
Q 1850 2550 1600 2550 
Q 1275 2550 1137 2437 
Q 1000 2325 1000 2175 
Q 1000 2000 1125 1900 
Q 1250 1800 1650 1750 
Q 2300 1650 2525 1437 
Q 2750 1225 2750 900 
z
" transform="scale(0.015625)"/>
      </defs>
      <use xlink:href="#SimHei-54"/>
      <use xlink:href="#SimHei-69" x="50"/>
      <use xlink:href="#SimHei-6d" x="100"/>
      <use xlink:href="#SimHei-65" x="150"/>
      <use xlink:href="#SimHei-20" x="200"/>
      <use xlink:href="#SimHei-53" x="250"/>
      <use xlink:href="#SimHei-74" x="300"/>
      <use xlink:href="#SimHei-65" x="350"/>
      <use xlink:href="#SimHei-70" x="400"/>
      <use xlink:href="#SimHei-73" x="450"/>
     </g>
    </g>
   </g>
   <g id="matplotlib.axis_2">
    <g id="ytick_1">
     <g id="line2d_8">
      <defs>
       <path id="ma402cf577b" d="M 0 0 
L -3.5 0 
" style="stroke: #000000; stroke-width: 0.8"/>
      </defs>
      <g>
       <use xlink:href="#ma402cf577b" x="110.18" y="346.921761" style="stroke: #000000; stroke-width: 0.8"/>
      </g>
     </g>
     <g id="text_9">
      <!-- 0 -->
      <g transform="translate(89.18 356.546761) scale(0.28 -0.28)">
       <use xlink:href="#SimHei-30"/>
      </g>
     </g>
    </g>
    <g id="ytick_2">
     <g id="line2d_9">
      <g>
       <use xlink:href="#ma402cf577b" x="110.18" y="307.730567" style="stroke: #000000; stroke-width: 0.8"/>
      </g>
     </g>
     <g id="text_10">
      <!-- 500 -->
      <g transform="translate(61.18 317.355567) scale(0.28 -0.28)">
       <use xlink:href="#SimHei-35"/>
       <use xlink:href="#SimHei-30" x="50"/>
       <use xlink:href="#SimHei-30" x="100"/>
      </g>
     </g>
    </g>
    <g id="ytick_3">
     <g id="line2d_10">
      <g>
       <use xlink:href="#ma402cf577b" x="110.18" y="268.539372" style="stroke: #000000; stroke-width: 0.8"/>
      </g>
     </g>
     <g id="text_11">
      <!-- 1000 -->
      <g transform="translate(47.18 278.164372) scale(0.28 -0.28)">
       <use xlink:href="#SimHei-31"/>
       <use xlink:href="#SimHei-30" x="50"/>
       <use xlink:href="#SimHei-30" x="100"/>
       <use xlink:href="#SimHei-30" x="150"/>
      </g>
     </g>
    </g>
    <g id="ytick_4">
     <g id="line2d_11">
      <g>
       <use xlink:href="#ma402cf577b" x="110.18" y="229.348178" style="stroke: #000000; stroke-width: 0.8"/>
      </g>
     </g>
     <g id="text_12">
      <!-- 1500 -->
      <g transform="translate(47.18 238.973178) scale(0.28 -0.28)">
       <use xlink:href="#SimHei-31"/>
       <use xlink:href="#SimHei-35" x="50"/>
       <use xlink:href="#SimHei-30" x="100"/>
       <use xlink:href="#SimHei-30" x="150"/>
      </g>
     </g>
    </g>
    <g id="ytick_5">
     <g id="line2d_12">
      <g>
       <use xlink:href="#ma402cf577b" x="110.18" y="190.156983" style="stroke: #000000; stroke-width: 0.8"/>
      </g>
     </g>
     <g id="text_13">
      <!-- 2000 -->
      <g transform="translate(47.18 199.781983) scale(0.28 -0.28)">
       <use xlink:href="#SimHei-32"/>
       <use xlink:href="#SimHei-30" x="50"/>
       <use xlink:href="#SimHei-30" x="100"/>
       <use xlink:href="#SimHei-30" x="150"/>
      </g>
     </g>
    </g>
    <g id="ytick_6">
     <g id="line2d_13">
      <g>
       <use xlink:href="#ma402cf577b" x="110.18" y="150.965789" style="stroke: #000000; stroke-width: 0.8"/>
      </g>
     </g>
     <g id="text_14">
      <!-- 2500 -->
      <g transform="translate(47.18 160.590789) scale(0.28 -0.28)">
       <use xlink:href="#SimHei-32"/>
       <use xlink:href="#SimHei-35" x="50"/>
       <use xlink:href="#SimHei-30" x="100"/>
       <use xlink:href="#SimHei-30" x="150"/>
      </g>
     </g>
    </g>
    <g id="ytick_7">
     <g id="line2d_14">
      <g>
       <use xlink:href="#ma402cf577b" x="110.18" y="111.774594" style="stroke: #000000; stroke-width: 0.8"/>
      </g>
     </g>
     <g id="text_15">
      <!-- 3000 -->
      <g transform="translate(47.18 121.399594) scale(0.28 -0.28)">
       <use xlink:href="#SimHei-33"/>
       <use xlink:href="#SimHei-30" x="50"/>
       <use xlink:href="#SimHei-30" x="100"/>
       <use xlink:href="#SimHei-30" x="150"/>
      </g>
     </g>
    </g>
    <g id="ytick_8">
     <g id="line2d_15">
      <g>
       <use xlink:href="#ma402cf577b" x="110.18" y="72.5834" style="stroke: #000000; stroke-width: 0.8"/>
      </g>
     </g>
     <g id="text_16">
      <!-- 3500 -->
      <g transform="translate(47.18 82.2084) scale(0.28 -0.28)">
       <use xlink:href="#SimHei-33"/>
       <use xlink:href="#SimHei-35" x="50"/>
       <use xlink:href="#SimHei-30" x="100"/>
       <use xlink:href="#SimHei-30" x="150"/>
      </g>
     </g>
    </g>
    <g id="ytick_9">
     <g id="line2d_16">
      <g>
       <use xlink:href="#ma402cf577b" x="110.18" y="33.392206" style="stroke: #000000; stroke-width: 0.8"/>
      </g>
     </g>
     <g id="text_17">
      <!-- 4000 -->
      <g transform="translate(47.18 43.017206) scale(0.28 -0.28)">
       <defs>
        <path id="SimHei-34" d="M 2000 1100 
L 75 1100 
L 75 1525 
L 2100 4450 
L 2475 4450 
L 2475 1525 
L 3075 1525 
L 3075 1100 
L 2475 1100 
L 2475 150 
L 2000 150 
L 2000 1100 
z
M 2000 1525 
L 2000 3500 
L 600 1525 
L 2000 1525 
z
" transform="scale(0.015625)"/>
       </defs>
       <use xlink:href="#SimHei-34"/>
       <use xlink:href="#SimHei-30" x="50"/>
       <use xlink:href="#SimHei-30" x="100"/>
       <use xlink:href="#SimHei-30" x="150"/>
      </g>
     </g>
    </g>
    <g id="text_18">
     <!-- $m_{vct}$ -->
     <g transform="translate(35.98 224.38) rotate(-90) scale(0.4 -0.4)">
      <defs>
       <path id="DejaVuSans-Oblique-6d" d="M 5747 2113 
L 5338 0 
L 4763 0 
L 5166 2094 
Q 5191 2228 5203 2325 
Q 5216 2422 5216 2491 
Q 5216 2772 5059 2928 
Q 4903 3084 4622 3084 
Q 4203 3084 3875 2770 
Q 3547 2456 3450 1953 
L 3066 0 
L 2491 0 
L 2900 2094 
Q 2925 2209 2937 2307 
Q 2950 2406 2950 2484 
Q 2950 2769 2794 2926 
Q 2638 3084 2363 3084 
Q 1938 3084 1609 2770 
Q 1281 2456 1184 1953 
L 800 0 
L 225 0 
L 909 3500 
L 1484 3500 
L 1375 2956 
Q 1609 3263 1923 3423 
Q 2238 3584 2597 3584 
Q 2978 3584 3223 3384 
Q 3469 3184 3519 2828 
Q 3781 3197 4126 3390 
Q 4472 3584 4856 3584 
Q 5306 3584 5551 3325 
Q 5797 3066 5797 2591 
Q 5797 2488 5784 2364 
Q 5772 2241 5747 2113 
z
" transform="scale(0.015625)"/>
       <path id="DejaVuSans-Oblique-76" d="M 459 3500 
L 1069 3500 
L 1581 525 
L 3256 3500 
L 3866 3500 
L 1875 0 
L 1100 0 
L 459 3500 
z
" transform="scale(0.015625)"/>
       <path id="DejaVuSans-Oblique-63" d="M 3431 3366 
L 3316 2797 
Q 3109 2947 2876 3022 
Q 2644 3097 2394 3097 
Q 2119 3097 1870 3000 
Q 1622 2903 1453 2725 
Q 1184 2453 1037 2087 
Q 891 1722 891 1331 
Q 891 859 1127 628 
Q 1363 397 1844 397 
Q 2081 397 2348 469 
Q 2616 541 2906 684 
L 2797 116 
Q 2547 13 2283 -39 
Q 2019 -91 1741 -91 
Q 1044 -91 669 257 
Q 294 606 294 1253 
Q 294 1797 489 2255 
Q 684 2713 1069 3078 
Q 1331 3328 1684 3456 
Q 2038 3584 2456 3584 
Q 2700 3584 2940 3529 
Q 3181 3475 3431 3366 
z
" transform="scale(0.015625)"/>
       <path id="DejaVuSans-Oblique-74" d="M 2706 3500 
L 2619 3053 
L 1472 3053 
L 1100 1153 
Q 1081 1047 1072 975 
Q 1063 903 1063 863 
Q 1063 663 1183 572 
Q 1303 481 1569 481 
L 2150 481 
L 2053 0 
L 1503 0 
Q 991 0 739 200 
Q 488 400 488 806 
Q 488 878 497 964 
Q 506 1050 525 1153 
L 897 3053 
L 409 3053 
L 500 3500 
L 978 3500 
L 1172 4494 
L 1747 4494 
L 1556 3500 
L 2706 3500 
z
" transform="scale(0.015625)"/>
      </defs>
      <use xlink:href="#DejaVuSans-Oblique-6d"/>
      <use xlink:href="#DejaVuSans-Oblique-76" transform="translate(97.412109 -16.40625) scale(0.7)"/>
      <use xlink:href="#DejaVuSans-Oblique-63" transform="translate(138.837891 -16.40625) scale(0.7)"/>
      <use xlink:href="#DejaVuSans-Oblique-74" transform="translate(177.324219 -16.40625) scale(0.7)"/>
     </g>
    </g>
   </g>
   <g id="line2d_17">
    <path d="M 143.130607 346.921761 
L 563.336952 346.843379 
L 593.187676 346.268575 
L 611.557353 345.955045 
L 639.111867 345.223476 
L 666.666382 344.387397 
L 714.886782 343.94323 
L 737.848877 343.83872 
L 751.626135 343.107152 
L 772.29202 342.035926 
L 788.365487 341.565631 
L 795.254116 341.408866 
L 802.142744 341.356612 
L 802.142744 341.356612 
" clip-path="url(#pc1f0b4531e)" style="fill: none; stroke: #0000ff; stroke-width: 3; stroke-linecap: square"/>
   </g>
   <g id="line2d_18">
    <path d="M 143.130607 346.921761 
L 296.976646 346.817251 
L 303.865275 346.660486 
L 315.346322 346.164065 
L 329.123579 345.432496 
L 347.493256 344.309015 
L 358.974303 343.211661 
L 381.936399 339.736709 
L 402.602285 335.660825 
L 416.379542 332.656166 
L 443.934056 325.366604 
L 457.711314 321.342975 
L 464.599942 319.43567 
L 471.488571 317.214836 
L 478.377199 314.941746 
L 485.265828 312.53802 
L 492.154457 310.395568 
L 501.339295 307.443165 
L 508.227923 305.013311 
L 512.820343 303.78532 
L 531.190019 298.873357 
L 538.078647 297.070562 
L 558.744533 292.001834 
L 565.633162 290.590951 
L 577.11421 288.579136 
L 586.299048 287.115998 
L 611.557353 283.144624 
L 623.0384 281.942761 
L 634.519448 280.662515 
L 673.55501 275.67217 
L 802.142744 258.06226 
L 802.142744 258.06226 
" clip-path="url(#pc1f0b4531e)" style="fill: none; stroke: #008000; stroke-width: 3; stroke-linecap: square"/>
   </g>
   <g id="line2d_19">
    <path d="M 143.130607 346.921761 
L 257.941084 346.817251 
L 271.718341 346.555977 
L 283.199389 346.190192 
L 296.976646 345.458623 
L 310.753903 344.25676 
L 326.82737 342.50622 
L 338.308418 341.121464 
L 363.566723 337.620384 
L 379.640189 334.798618 
L 384.232608 333.936412 
L 391.121237 332.551656 
L 404.898494 329.494743 
L 411.787123 328.109988 
L 423.268171 325.418859 
L 437.045428 321.708759 
L 443.934056 319.592435 
L 464.599942 312.74704 
L 473.78478 309.219832 
L 482.969619 305.248458 
L 489.858247 301.982525 
L 494.450666 299.944583 
L 501.339295 296.57414 
L 522.005181 285.626733 
L 533.486228 279.852564 
L 540.374857 275.776679 
L 547.263486 271.335011 
L 554.152114 266.91947 
L 561.040743 262.869713 
L 563.336952 261.56334 
L 570.225581 257.200053 
L 581.706629 249.440197 
L 590.891467 242.725439 
L 602.372515 234.260141 
L 616.149772 223.783028 
L 625.33461 216.624103 
L 632.223239 211.555376 
L 643.704286 202.776548 
L 650.592915 197.60331 
L 675.85122 177.668056 
L 687.332267 167.870257 
L 703.405734 154.074957 
L 712.590572 145.740296 
L 726.36783 133.016222 
L 737.848877 122.382344 
L 744.737506 115.589204 
L 753.922344 106.470719 
L 767.699601 92.205125 
L 788.365487 69.735507 
L 802.142744 54.241921 
L 802.142744 54.241921 
" clip-path="url(#pc1f0b4531e)" style="fill: none; stroke: #ff0000; stroke-width: 3; stroke-linecap: square"/>
   </g>
   <g id="line2d_20">
    <path d="M 143.130607 346.921761 
L 358.974303 346.817251 
L 379.640189 346.686614 
L 462.303733 346.582104 
L 501.339295 346.242447 
L 549.559695 346.137937 
L 611.557353 345.327986 
L 629.927029 344.805437 
L 641.408077 344.309015 
L 655.185334 343.577446 
L 689.628477 341.565631 
L 703.405734 340.416023 
L 712.590572 339.579944 
L 724.07162 338.508718 
L 751.626135 336.235629 
L 765.403392 334.772491 
L 772.29202 334.067049 
L 786.069278 332.421019 
L 797.550325 330.748862 
L 802.142744 330.069548 
L 802.142744 330.069548 
" clip-path="url(#pc1f0b4531e)" style="fill: none; stroke: #ffa500; stroke-width: 3; stroke-linecap: square"/>
   </g>
   <g id="patch_3">
    <path d="M 110.18 354.76 
L 110.18 10.8 
" style="fill: none; stroke: #000000; stroke-width: 0.8; stroke-linejoin: miter; stroke-linecap: square"/>
   </g>
   <g id="patch_4">
    <path d="M 835.093351 354.76 
L 835.093351 10.8 
" style="fill: none; stroke: #000000; stroke-width: 0.8; stroke-linejoin: miter; stroke-linecap: square"/>
   </g>
   <g id="patch_5">
    <path d="M 110.18 354.76 
L 835.093351 354.76 
" style="fill: none; stroke: #000000; stroke-width: 0.8; stroke-linejoin: miter; stroke-linecap: square"/>
   </g>
   <g id="patch_6">
    <path d="M 110.18 10.8 
L 835.093351 10.8 
" style="fill: none; stroke: #000000; stroke-width: 0.8; stroke-linejoin: miter; stroke-linecap: square"/>
   </g>
  </g>
 </g>
 <defs>
  <clipPath id="pc1f0b4531e">
   <rect x="110.18" y="10.8" width="724.913351" height="343.96"/>
  </clipPath>
 </defs>
</svg>
