<?xml version="1.0" encoding="utf-8" standalone="no"?>
<!DOCTYPE svg PUBLIC "-//W3C//DTD SVG 1.1//EN"
  "http://www.w3.org/Graphics/SVG/1.1/DTD/svg11.dtd">
<svg xmlns:xlink="http://www.w3.org/1999/xlink" width="864pt" height="432pt" viewBox="0 0 864 432" xmlns="http://www.w3.org/2000/svg" version="1.1">
 <metadata>
  <rdf:RDF xmlns:dc="http://purl.org/dc/elements/1.1/" xmlns:cc="http://creativecommons.org/ns#" xmlns:rdf="http://www.w3.org/1999/02/22-rdf-syntax-ns#">
   <cc:Work>
    <dc:type rdf:resource="http://purl.org/dc/dcmitype/StillImage"/>
    <dc:date>2025-06-19T21:24:47.856592</dc:date>
    <dc:format>image/svg+xml</dc:format>
    <dc:creator>
     <cc:Agent>
      <dc:title>Matplotlib v3.7.1, https://matplotlib.org/</dc:title>
     </cc:Agent>
    </dc:creator>
   </cc:Work>
  </rdf:RDF>
 </metadata>
 <defs>
  <style type="text/css">*{stroke-linejoin: round; stroke-linecap: butt}</style>
 </defs>
 <g id="figure_1">
  <g id="patch_1">
   <path d="M 0 432 
L 864 432 
L 864 0 
L 0 0 
z
" style="fill: #ffffff"/>
  </g>
  <g id="axes_1">
   <g id="patch_2">
    <path d="M 110.18 354.76 
L 835.093351 354.76 
L 835.093351 10.8 
L 110.18 10.8 
z
" style="fill: #ffffff"/>
   </g>
   <g id="PolyCollection_1">
    <defs>
     <path id="m0d3076c2a0" d="M 143.130607 -86.029204 
L 143.130607 -86.029204 
L 145.426816 -86.029204 
L 147.723026 -86.029204 
L 150.019235 -86.029204 
L 152.315445 -86.029204 
L 154.611655 -86.029204 
L 156.907864 -86.029204 
L 159.204074 -86.029204 
L 161.500283 -86.029204 
L 163.796493 -86.029204 
L 166.092702 -86.029204 
L 168.388912 -86.029204 
L 170.685121 -86.029204 
L 172.981331 -86.029204 
L 175.27754 -86.029204 
L 177.57375 -86.029204 
L 179.869959 -86.029204 
L 182.166169 -86.029204 
L 184.462379 -86.029204 
L 186.758588 -86.029204 
L 189.054798 -86.029204 
L 191.351007 -86.029204 
L 193.647217 -86.029204 
L 195.943426 -86.029204 
L 198.239636 -86.029204 
L 200.535845 -86.029204 
L 202.832055 -86.029204 
L 205.128264 -86.029204 
L 207.424474 -86.029204 
L 209.720683 -86.029204 
L 212.016893 -86.029204 
L 214.313103 -86.029204 
L 216.609312 -86.029204 
L 218.905522 -86.029204 
L 221.201731 -86.029204 
L 223.497941 -86.029204 
L 225.79415 -86.029204 
L 228.09036 -86.029204 
L 230.386569 -86.029204 
L 232.682779 -86.029204 
L 234.978988 -86.029204 
L 237.275198 -86.029204 
L 239.571407 -86.029204 
L 241.867617 -86.029204 
L 244.163827 -86.029204 
L 246.460036 -86.029204 
L 248.756246 -86.029204 
L 251.052455 -86.029204 
L 253.348665 -86.029204 
L 255.644874 -86.029204 
L 257.941084 -86.029204 
L 260.237293 -86.029204 
L 262.533503 -86.029204 
L 264.829712 -86.029204 
L 267.125922 -86.029204 
L 269.422131 -86.029204 
L 271.718341 -86.029204 
L 274.014551 -86.029204 
L 276.31076 -86.029204 
L 278.60697 -86.029204 
L 280.903179 -86.029204 
L 283.199389 -86.029204 
L 285.495598 -86.029204 
L 287.791808 -86.029204 
L 290.088017 -86.029204 
L 292.384227 -86.029204 
L 294.680436 -86.029204 
L 296.976646 -86.029204 
L 299.272855 -86.029204 
L 301.569065 -86.029204 
L 303.865275 -86.029204 
L 306.161484 -86.029204 
L 308.457694 -86.029204 
L 310.753903 -86.029204 
L 313.050113 -86.029204 
L 315.346322 -86.029204 
L 317.642532 -86.029204 
L 319.938741 -86.029204 
L 322.234951 -86.029204 
L 324.53116 -86.029204 
L 326.82737 -86.029204 
L 329.123579 -86.029204 
L 331.419789 -86.029204 
L 333.715999 -86.029204 
L 336.012208 -86.029204 
L 338.308418 -86.029204 
L 340.604627 -86.029204 
L 342.900837 -86.029204 
L 345.197046 -86.029204 
L 347.493256 -86.029204 
L 349.789465 -86.029204 
L 352.085675 -86.029204 
L 354.381884 -86.029204 
L 356.678094 -86.029204 
L 358.974303 -86.029204 
L 361.270513 -86.029204 
L 363.566723 -86.029204 
L 365.862932 -86.029204 
L 368.159142 -86.029204 
L 370.455351 -86.029204 
L 372.751561 -86.029204 
L 375.04777 -86.029204 
L 377.34398 -86.029204 
L 379.640189 -86.029204 
L 381.936399 -86.029204 
L 384.232608 -86.029204 
L 386.528818 -86.029204 
L 388.825027 -86.029204 
L 391.121237 -86.029204 
L 393.417447 -86.029204 
L 395.713656 -86.029204 
L 398.009866 -86.029204 
L 400.306075 -86.029204 
L 402.602285 -86.029204 
L 404.898494 -86.029204 
L 407.194704 -86.029204 
L 409.490913 -86.029204 
L 411.787123 -86.029204 
L 414.083332 -86.029204 
L 416.379542 -86.029204 
L 418.675751 -86.029204 
L 420.971961 -86.029204 
L 423.268171 -86.029204 
L 425.56438 -86.029204 
L 427.86059 -86.029204 
L 430.156799 -86.029204 
L 432.453009 -86.029204 
L 434.749218 -86.029204 
L 437.045428 -86.029204 
L 439.341637 -86.029204 
L 441.637847 -86.029204 
L 443.934056 -86.029204 
L 446.230266 -86.029204 
L 448.526475 -86.029204 
L 450.822685 -86.029204 
L 453.118895 -86.029204 
L 455.415104 -86.029204 
L 457.711314 -86.029204 
L 460.007523 -86.029204 
L 462.303733 -86.029204 
L 464.599942 -86.029204 
L 466.896152 -86.029204 
L 469.192361 -86.029204 
L 471.488571 -86.029204 
L 473.78478 -86.029204 
L 476.08099 -86.029204 
L 478.377199 -86.029204 
L 480.673409 -86.029204 
L 482.969619 -86.029204 
L 485.265828 -86.029204 
L 487.562038 -86.029204 
L 489.858247 -86.029204 
L 492.154457 -86.029204 
L 494.450666 -86.029204 
L 496.746876 -86.029204 
L 499.043085 -86.029204 
L 501.339295 -86.029204 
L 503.635504 -86.029204 
L 505.931714 -86.029204 
L 508.227923 -86.029204 
L 510.524133 -86.029204 
L 512.820343 -86.029204 
L 515.116552 -86.029204 
L 517.412762 -86.029204 
L 519.708971 -86.029204 
L 522.005181 -86.029204 
L 524.30139 -86.029204 
L 526.5976 -86.029204 
L 528.893809 -86.029204 
L 531.190019 -86.029204 
L 533.486228 -86.029204 
L 535.782438 -86.029204 
L 538.078647 -86.029204 
L 540.374857 -86.029204 
L 542.671067 -86.029204 
L 544.967276 -86.029204 
L 547.263486 -86.029204 
L 549.559695 -86.029204 
L 551.855905 -86.029204 
L 554.152114 -86.029204 
L 556.448324 -86.029204 
L 558.744533 -86.029204 
L 561.040743 -86.029204 
L 563.336952 -86.029204 
L 565.633162 -86.029204 
L 567.929371 -86.029204 
L 570.225581 -86.029204 
L 572.521791 -86.029204 
L 574.818 -86.029204 
L 577.11421 -86.029204 
L 579.410419 -86.029204 
L 581.706629 -86.029204 
L 584.002838 -86.029204 
L 586.299048 -86.029204 
L 588.595257 -86.029204 
L 590.891467 -86.029204 
L 593.187676 -86.029204 
L 595.483886 -86.029204 
L 597.780095 -86.029204 
L 600.076305 -86.029204 
L 602.372515 -86.029204 
L 604.668724 -86.029204 
L 606.964934 -86.029204 
L 609.261143 -86.029204 
L 611.557353 -86.029204 
L 613.853562 -86.029204 
L 616.149772 -86.029204 
L 618.445981 -86.029204 
L 620.742191 -86.029204 
L 623.0384 -86.029204 
L 625.33461 -86.029204 
L 627.630819 -86.029204 
L 629.927029 -86.029204 
L 632.223239 -86.029204 
L 634.519448 -86.029204 
L 636.815658 -86.029204 
L 639.111867 -86.029204 
L 641.408077 -86.029204 
L 643.704286 -86.029204 
L 646.000496 -86.029204 
L 648.296705 -86.029204 
L 650.592915 -86.029204 
L 652.889124 -86.029204 
L 655.185334 -86.029204 
L 657.481543 -86.029204 
L 659.777753 -86.029204 
L 662.073963 -86.029204 
L 664.370172 -86.029204 
L 666.666382 -86.029204 
L 668.962591 -86.029204 
L 671.258801 -86.029204 
L 673.55501 -86.029204 
L 675.85122 -86.029204 
L 678.147429 -86.029204 
L 680.443639 -86.029204 
L 682.739848 -86.029204 
L 685.036058 -86.029204 
L 687.332267 -86.029204 
L 689.628477 -86.029204 
L 691.924687 -86.029204 
L 694.220896 -86.029204 
L 696.517106 -86.029204 
L 698.813315 -86.029204 
L 701.109525 -86.029204 
L 703.405734 -86.029204 
L 705.701944 -86.029204 
L 707.998153 -86.029204 
L 710.294363 -86.029204 
L 712.590572 -86.029204 
L 714.886782 -86.029204 
L 717.182991 -86.029204 
L 719.479201 -86.029204 
L 721.775411 -86.029204 
L 724.07162 -86.029204 
L 726.36783 -86.029204 
L 728.664039 -86.029204 
L 730.960249 -86.029204 
L 733.256458 -86.029204 
L 735.552668 -86.029204 
L 737.848877 -86.029204 
L 740.145087 -86.029204 
L 742.441296 -86.029204 
L 744.737506 -86.029204 
L 747.033715 -86.029204 
L 749.329925 -86.029204 
L 751.626135 -86.029204 
L 753.922344 -86.029204 
L 756.218554 -86.029204 
L 758.514763 -86.029204 
L 760.810973 -86.029204 
L 763.107182 -86.029204 
L 765.403392 -86.029204 
L 767.699601 -86.029204 
L 769.995811 -86.029204 
L 772.29202 -86.029204 
L 774.58823 -86.029204 
L 776.884439 -86.029204 
L 779.180649 -86.029204 
L 781.476859 -86.029204 
L 783.773068 -86.029204 
L 786.069278 -86.029204 
L 788.365487 -86.029204 
L 790.661697 -86.029204 
L 792.957906 -86.029204 
L 795.254116 -86.029204 
L 797.550325 -86.029204 
L 799.846535 -86.029204 
L 802.142744 -86.029204 
L 802.142744 -86.029204 
L 802.142744 -86.029204 
L 799.846535 -86.029204 
L 797.550325 -86.029204 
L 795.254116 -86.029204 
L 792.957906 -86.029204 
L 790.661697 -86.029204 
L 788.365487 -86.029204 
L 786.069278 -86.029204 
L 783.773068 -86.029204 
L 781.476859 -86.029204 
L 779.180649 -86.029204 
L 776.884439 -86.029204 
L 774.58823 -86.029204 
L 772.29202 -86.029204 
L 769.995811 -86.029204 
L 767.699601 -86.029204 
L 765.403392 -86.029204 
L 763.107182 -86.029204 
L 760.810973 -86.029204 
L 758.514763 -86.029204 
L 756.218554 -86.029204 
L 753.922344 -86.029204 
L 751.626135 -86.029204 
L 749.329925 -86.029204 
L 747.033715 -86.029204 
L 744.737506 -86.029204 
L 742.441296 -86.029204 
L 740.145087 -86.029204 
L 737.848877 -86.029204 
L 735.552668 -86.029204 
L 733.256458 -86.029204 
L 730.960249 -86.029204 
L 728.664039 -86.029204 
L 726.36783 -86.029204 
L 724.07162 -86.029204 
L 721.775411 -86.029204 
L 719.479201 -86.029204 
L 717.182991 -86.029204 
L 714.886782 -86.029204 
L 712.590572 -86.029204 
L 710.294363 -86.029204 
L 707.998153 -86.029204 
L 705.701944 -86.029204 
L 703.405734 -86.029204 
L 701.109525 -86.029204 
L 698.813315 -86.029204 
L 696.517106 -86.029204 
L 694.220896 -86.029204 
L 691.924687 -86.029204 
L 689.628477 -86.029204 
L 687.332267 -86.029204 
L 685.036058 -86.029204 
L 682.739848 -86.029204 
L 680.443639 -86.029204 
L 678.147429 -86.029204 
L 675.85122 -86.029204 
L 673.55501 -86.029204 
L 671.258801 -86.029204 
L 668.962591 -86.029204 
L 666.666382 -86.029204 
L 664.370172 -86.029204 
L 662.073963 -86.029204 
L 659.777753 -86.029204 
L 657.481543 -86.029204 
L 655.185334 -86.029204 
L 652.889124 -86.029204 
L 650.592915 -86.029204 
L 648.296705 -86.029204 
L 646.000496 -86.029204 
L 643.704286 -86.029204 
L 641.408077 -86.029204 
L 639.111867 -86.029204 
L 636.815658 -86.029204 
L 634.519448 -86.029204 
L 632.223239 -86.029204 
L 629.927029 -86.029204 
L 627.630819 -86.029204 
L 625.33461 -86.029204 
L 623.0384 -86.029204 
L 620.742191 -86.029204 
L 618.445981 -86.029204 
L 616.149772 -86.029204 
L 613.853562 -86.029204 
L 611.557353 -86.029204 
L 609.261143 -86.029204 
L 606.964934 -86.029204 
L 604.668724 -86.029204 
L 602.372515 -86.029204 
L 600.076305 -86.029204 
L 597.780095 -86.029204 
L 595.483886 -86.029204 
L 593.187676 -86.029204 
L 590.891467 -86.029204 
L 588.595257 -86.029204 
L 586.299048 -86.029204 
L 584.002838 -86.029204 
L 581.706629 -86.029204 
L 579.410419 -86.029204 
L 577.11421 -86.029204 
L 574.818 -86.029204 
L 572.521791 -86.029204 
L 570.225581 -86.029204 
L 567.929371 -86.029204 
L 565.633162 -86.029204 
L 563.336952 -86.029204 
L 561.040743 -86.029204 
L 558.744533 -86.029204 
L 556.448324 -86.029204 
L 554.152114 -86.029204 
L 551.855905 -86.029204 
L 549.559695 -86.029204 
L 547.263486 -86.029204 
L 544.967276 -86.029204 
L 542.671067 -86.029204 
L 540.374857 -86.029204 
L 538.078647 -86.029204 
L 535.782438 -86.029204 
L 533.486228 -86.029204 
L 531.190019 -86.029204 
L 528.893809 -86.029204 
L 526.5976 -86.029204 
L 524.30139 -86.029204 
L 522.005181 -86.029204 
L 519.708971 -86.029204 
L 517.412762 -86.029204 
L 515.116552 -86.029204 
L 512.820343 -86.029204 
L 510.524133 -86.029204 
L 508.227923 -86.029204 
L 505.931714 -86.029204 
L 503.635504 -86.029204 
L 501.339295 -86.029204 
L 499.043085 -86.029204 
L 496.746876 -86.029204 
L 494.450666 -86.029204 
L 492.154457 -86.029204 
L 489.858247 -86.029204 
L 487.562038 -86.029204 
L 485.265828 -86.029204 
L 482.969619 -86.029204 
L 480.673409 -86.029204 
L 478.377199 -86.029204 
L 476.08099 -86.029204 
L 473.78478 -86.029204 
L 471.488571 -86.029204 
L 469.192361 -86.029204 
L 466.896152 -86.029204 
L 464.599942 -86.029204 
L 462.303733 -86.029204 
L 460.007523 -86.029204 
L 457.711314 -86.029204 
L 455.415104 -86.029204 
L 453.118895 -86.029204 
L 450.822685 -86.029204 
L 448.526475 -86.029204 
L 446.230266 -86.029204 
L 443.934056 -86.029204 
L 441.637847 -86.029204 
L 439.341637 -86.029204 
L 437.045428 -86.029204 
L 434.749218 -86.029204 
L 432.453009 -86.029204 
L 430.156799 -86.029204 
L 427.86059 -86.029204 
L 425.56438 -86.029204 
L 423.268171 -86.029204 
L 420.971961 -86.029204 
L 418.675751 -86.029204 
L 416.379542 -86.029204 
L 414.083332 -86.029204 
L 411.787123 -86.029204 
L 409.490913 -86.029204 
L 407.194704 -86.029204 
L 404.898494 -86.029204 
L 402.602285 -86.029204 
L 400.306075 -86.029204 
L 398.009866 -86.029204 
L 395.713656 -86.029204 
L 393.417447 -86.029204 
L 391.121237 -86.029204 
L 388.825027 -86.029204 
L 386.528818 -86.029204 
L 384.232608 -86.029204 
L 381.936399 -86.029204 
L 379.640189 -86.029204 
L 377.34398 -86.029204 
L 375.04777 -86.029204 
L 372.751561 -86.029204 
L 370.455351 -86.029204 
L 368.159142 -86.029204 
L 365.862932 -86.029204 
L 363.566723 -86.029204 
L 361.270513 -86.029204 
L 358.974303 -86.029204 
L 356.678094 -86.029204 
L 354.381884 -86.029204 
L 352.085675 -86.029204 
L 349.789465 -86.029204 
L 347.493256 -86.029204 
L 345.197046 -86.029204 
L 342.900837 -86.029204 
L 340.604627 -86.029204 
L 338.308418 -86.029204 
L 336.012208 -86.029204 
L 333.715999 -86.029204 
L 331.419789 -86.029204 
L 329.123579 -86.029204 
L 326.82737 -86.029204 
L 324.53116 -86.029204 
L 322.234951 -86.029204 
L 319.938741 -86.029204 
L 317.642532 -86.029204 
L 315.346322 -86.029204 
L 313.050113 -86.029204 
L 310.753903 -86.029204 
L 308.457694 -86.029204 
L 306.161484 -86.029204 
L 303.865275 -86.029204 
L 301.569065 -86.029204 
L 299.272855 -86.029204 
L 296.976646 -86.029204 
L 294.680436 -86.029204 
L 292.384227 -86.029204 
L 290.088017 -86.029204 
L 287.791808 -86.029204 
L 285.495598 -86.029204 
L 283.199389 -86.029204 
L 280.903179 -86.029204 
L 278.60697 -86.029204 
L 276.31076 -86.029204 
L 274.014551 -86.029204 
L 271.718341 -86.029204 
L 269.422131 -86.029204 
L 267.125922 -86.029204 
L 264.829712 -86.029204 
L 262.533503 -86.029204 
L 260.237293 -86.029204 
L 257.941084 -86.029204 
L 255.644874 -86.029204 
L 253.348665 -86.029204 
L 251.052455 -86.029204 
L 248.756246 -86.029204 
L 246.460036 -86.029204 
L 244.163827 -86.029204 
L 241.867617 -86.029204 
L 239.571407 -86.029204 
L 237.275198 -86.029204 
L 234.978988 -86.029204 
L 232.682779 -86.029204 
L 230.386569 -86.029204 
L 228.09036 -86.029204 
L 225.79415 -86.029204 
L 223.497941 -86.029204 
L 221.201731 -86.029204 
L 218.905522 -86.029204 
L 216.609312 -86.029204 
L 214.313103 -86.029204 
L 212.016893 -86.029204 
L 209.720683 -86.029204 
L 207.424474 -86.029204 
L 205.128264 -86.029204 
L 202.832055 -86.029204 
L 200.535845 -86.029204 
L 198.239636 -86.029204 
L 195.943426 -86.029204 
L 193.647217 -86.029204 
L 191.351007 -86.029204 
L 189.054798 -86.029204 
L 186.758588 -86.029204 
L 184.462379 -86.029204 
L 182.166169 -86.029204 
L 179.869959 -86.029204 
L 177.57375 -86.029204 
L 175.27754 -86.029204 
L 172.981331 -86.029204 
L 170.685121 -86.029204 
L 168.388912 -86.029204 
L 166.092702 -86.029204 
L 163.796493 -86.029204 
L 161.500283 -86.029204 
L 159.204074 -86.029204 
L 156.907864 -86.029204 
L 154.611655 -86.029204 
L 152.315445 -86.029204 
L 150.019235 -86.029204 
L 147.723026 -86.029204 
L 145.426816 -86.029204 
L 143.130607 -86.029204 
z
" style="stroke: #0000ff; stroke-opacity: 0.3"/>
    </defs>
    <g clip-path="url(#pe844af4049)">
     <use xlink:href="#m0d3076c2a0" x="0" y="432" style="fill: #0000ff; fill-opacity: 0.3; stroke: #0000ff; stroke-opacity: 0.3"/>
    </g>
   </g>
   <g id="PolyCollection_2">
    <defs>
     <path id="mfbb4de60a7" d="M 143.130607 -86.029204 
L 143.130607 -86.029204 
L 145.426816 -86.029204 
L 147.723026 -86.029204 
L 150.019235 -86.029204 
L 152.315445 -86.029204 
L 154.611655 -86.029204 
L 156.907864 -86.029204 
L 159.204074 -86.029204 
L 161.500283 -86.029204 
L 163.796493 -86.029204 
L 166.092702 -86.029204 
L 168.388912 -86.029204 
L 170.685121 -86.029204 
L 172.981331 -86.029204 
L 175.27754 -86.029204 
L 177.57375 -86.029204 
L 179.869959 -86.029204 
L 182.166169 -86.029204 
L 184.462379 -86.029204 
L 186.758588 -86.029204 
L 189.054798 -86.029204 
L 191.351007 -86.029204 
L 193.647217 -86.029204 
L 195.943426 -86.029204 
L 198.239636 -86.029204 
L 200.535845 -86.029204 
L 202.832055 -86.029204 
L 205.128264 -86.029204 
L 207.424474 -86.029204 
L 209.720683 -86.029204 
L 212.016893 -86.029204 
L 214.313103 -86.029204 
L 216.609312 -86.029204 
L 218.905522 -86.029204 
L 221.201731 -86.029204 
L 223.497941 -86.029204 
L 225.79415 -86.029204 
L 228.09036 -86.029204 
L 230.386569 -86.029204 
L 232.682779 -86.029204 
L 234.978988 -86.029204 
L 237.275198 -86.029204 
L 239.571407 -86.029204 
L 241.867617 -86.029204 
L 244.163827 -86.029204 
L 246.460036 -86.029204 
L 248.756246 -86.029204 
L 251.052455 -86.029204 
L 253.348665 -86.029204 
L 255.644874 -86.029204 
L 257.941084 -86.029204 
L 260.237293 -86.029204 
L 262.533503 -86.029204 
L 264.829712 -86.029204 
L 267.125922 -86.029204 
L 269.422131 -86.029204 
L 271.718341 -86.017069 
L 274.014551 -86.004934 
L 276.31076 -85.992798 
L 278.60697 -85.980663 
L 280.903179 -85.968528 
L 283.199389 -85.956392 
L 285.495598 -85.944257 
L 287.791808 -85.932122 
L 290.088017 -85.919986 
L 292.384227 -85.956232 
L 294.680436 -85.989574 
L 296.976646 -86.020501 
L 299.272855 -86.108393 
L 301.569065 -86.137326 
L 303.865275 -86.214846 
L 306.161484 -86.29211 
L 308.457694 -86.408607 
L 310.753903 -86.523781 
L 313.050113 -86.62871 
L 315.346322 -86.742371 
L 317.642532 -86.886757 
L 319.938741 -87.051904 
L 322.234951 -87.183499 
L 324.53116 -87.311478 
L 326.82737 -87.436393 
L 329.123579 -87.576537 
L 331.419789 -87.787817 
L 333.715999 -87.998934 
L 336.012208 -88.209922 
L 338.308418 -88.420803 
L 340.604627 -88.635497 
L 342.900837 -88.846456 
L 345.197046 -89.061026 
L 347.493256 -89.289635 
L 349.789465 -89.518069 
L 352.085675 -89.746362 
L 354.381884 -89.98712 
L 356.678094 -90.220604 
L 358.974303 -90.518762 
L 361.270513 -90.907959 
L 363.566723 -91.286066 
L 365.862932 -91.663634 
L 368.159142 -92.048555 
L 370.455351 -92.36098 
L 372.751561 -92.682927 
L 375.04777 -93.004625 
L 377.34398 -93.326109 
L 379.640189 -93.717984 
L 381.936399 -94.190043 
L 384.232608 -94.673123 
L 386.528818 -95.319064 
L 388.825027 -95.863867 
L 391.121237 -96.562337 
L 393.417447 -97.277863 
L 395.713656 -97.998358 
L 398.009866 -98.795647 
L 400.306075 -99.516069 
L 402.602285 -100.242251 
L 404.898494 -101.03328 
L 407.194704 -101.741834 
L 409.490913 -102.363862 
L 411.787123 -103.121921 
L 414.083332 -103.823669 
L 416.379542 -104.672058 
L 418.675751 -105.592876 
L 420.971961 -106.534323 
L 423.268171 -107.466184 
L 425.56438 -108.436046 
L 427.86059 -109.385511 
L 430.156799 -110.223033 
L 432.453009 -111.095324 
L 434.749218 -112.198056 
L 437.045428 -113.376722 
L 439.341637 -114.626068 
L 441.637847 -115.826331 
L 443.934056 -117.058645 
L 446.230266 -118.285918 
L 448.526475 -119.388096 
L 450.822685 -120.571144 
L 453.118895 -121.874151 
L 455.415104 -123.109148 
L 457.711314 -124.483117 
L 460.007523 -125.724672 
L 462.303733 -127.036009 
L 464.599942 -128.251272 
L 466.896152 -129.325072 
L 469.192361 -130.328128 
L 471.488571 -131.336169 
L 473.78478 -132.337979 
L 476.08099 -133.293798 
L 478.377199 -134.425523 
L 480.673409 -135.390419 
L 482.969619 -136.318534 
L 485.265828 -137.302508 
L 487.562038 -138.20988 
L 489.858247 -139.175572 
L 492.154457 -140.206891 
L 494.450666 -141.298923 
L 496.746876 -142.39828 
L 499.043085 -143.449574 
L 501.339295 -144.416386 
L 503.635504 -145.383199 
L 505.931714 -146.389713 
L 508.227923 -147.468688 
L 510.524133 -148.506364 
L 512.820343 -149.638774 
L 515.116552 -150.576289 
L 517.412762 -151.484507 
L 519.708971 -152.373614 
L 522.005181 -153.331132 
L 524.30139 -154.273329 
L 526.5976 -155.044689 
L 528.893809 -155.63526 
L 531.190019 -156.266646 
L 533.486228 -156.871054 
L 535.782438 -157.590421 
L 538.078647 -158.17401 
L 540.374857 -158.689683 
L 542.671067 -159.161523 
L 544.967276 -159.564603 
L 547.263486 -159.943232 
L 549.559695 -160.328071 
L 551.855905 -160.740825 
L 554.152114 -161.263009 
L 556.448324 -161.741665 
L 558.744533 -162.288499 
L 561.040743 -162.787434 
L 563.336952 -163.287586 
L 565.633162 -163.806118 
L 567.929371 -164.305926 
L 570.225581 -164.896445 
L 572.521791 -165.444516 
L 574.818 -166.016741 
L 577.11421 -166.587844 
L 579.410419 -167.157873 
L 581.706629 -167.744211 
L 584.002838 -168.31057 
L 586.299048 -168.872655 
L 588.595257 -169.440921 
L 590.891467 -169.983755 
L 593.187676 -170.50097 
L 595.483886 -171.082663 
L 597.780095 -171.618742 
L 600.076305 -172.091273 
L 602.372515 -172.630796 
L 604.668724 -173.350391 
L 606.964934 -174.136895 
L 609.261143 -174.856441 
L 611.557353 -175.538507 
L 613.853562 -176.271701 
L 616.149772 -176.999827 
L 618.445981 -177.71528 
L 620.742191 -178.430502 
L 623.0384 -179.145508 
L 625.33461 -179.86965 
L 627.630819 -180.593726 
L 629.927029 -181.338548 
L 632.223239 -182.107704 
L 634.519448 -182.943305 
L 636.815658 -183.801474 
L 639.111867 -184.703295 
L 641.408077 -185.633502 
L 643.704286 -186.59673 
L 646.000496 -187.532081 
L 648.296705 -188.460614 
L 650.592915 -189.371791 
L 652.889124 -190.284201 
L 655.185334 -191.201216 
L 657.481543 -192.131128 
L 659.777753 -193.063373 
L 662.073963 -194.010185 
L 664.370172 -194.966439 
L 666.666382 -195.91972 
L 668.962591 -196.858236 
L 671.258801 -197.795509 
L 673.55501 -198.746513 
L 675.85122 -199.682241 
L 678.147429 -200.543224 
L 680.443639 -201.396781 
L 682.739848 -202.249278 
L 685.036058 -203.093289 
L 687.332267 -203.799336 
L 689.628477 -204.432347 
L 691.924687 -205.065723 
L 694.220896 -205.696044 
L 696.517106 -206.341814 
L 698.813315 -206.985539 
L 701.109525 -207.628043 
L 703.405734 -208.318755 
L 705.701944 -208.846869 
L 707.998153 -209.437261 
L 710.294363 -210.023808 
L 712.590572 -210.62844 
L 714.886782 -211.230655 
L 717.182991 -211.853925 
L 719.479201 -212.458139 
L 721.775411 -213.042328 
L 724.07162 -213.69119 
L 726.36783 -214.339893 
L 728.664039 -215.011928 
L 730.960249 -215.724771 
L 733.256458 -216.460972 
L 735.552668 -217.197062 
L 737.848877 -217.889372 
L 740.145087 -218.578138 
L 742.441296 -219.2669 
L 744.737506 -219.959212 
L 747.033715 -220.651511 
L 749.329925 -221.319988 
L 751.626135 -222.012295 
L 753.922344 -222.708084 
L 756.218554 -223.447725 
L 758.514763 -224.183819 
L 760.810973 -224.919835 
L 763.107182 -225.588239 
L 765.403392 -226.260253 
L 767.699601 -226.91554 
L 769.995811 -227.574407 
L 772.29202 -228.236742 
L 774.58823 -228.966579 
L 776.884439 -229.669197 
L 779.180649 -230.395543 
L 781.476859 -231.030524 
L 783.773068 -231.66897 
L 786.069278 -232.307405 
L 788.365487 -233.016917 
L 790.661697 -233.797477 
L 792.957906 -234.577987 
L 795.254116 -235.358446 
L 797.550325 -236.135572 
L 799.846535 -236.915968 
L 802.142744 -237.696317 
L 802.142744 -292.375687 
L 802.142744 -292.375687 
L 799.846535 -291.22241 
L 797.550325 -290.069181 
L 795.254116 -288.854088 
L 792.957906 -287.700922 
L 790.661697 -286.547806 
L 788.365487 -285.394742 
L 786.069278 -284.170629 
L 783.773068 -282.875438 
L 781.476859 -281.58026 
L 779.180649 -280.223021 
L 776.884439 -278.839958 
L 774.58823 -277.491762 
L 772.29202 -276.170785 
L 769.995811 -274.8409 
L 767.699601 -273.448952 
L 765.403392 -271.99483 
L 763.107182 -270.381652 
L 760.810973 -268.706268 
L 758.514763 -267.039901 
L 756.218554 -265.373612 
L 753.922344 -263.769465 
L 751.626135 -262.121467 
L 749.329925 -260.411391 
L 747.033715 -258.73608 
L 744.737506 -257.025996 
L 742.441296 -255.315926 
L 740.145087 -253.54371 
L 737.848877 -251.771499 
L 735.552668 -250.061427 
L 733.256458 -248.395135 
L 730.960249 -246.728952 
L 728.664039 -245.098008 
L 726.36783 -243.48485 
L 724.07162 -241.906955 
L 721.775411 -240.329218 
L 719.479201 -238.803998 
L 717.182991 -237.181614 
L 714.886782 -235.578285 
L 712.590572 -234.012496 
L 710.294363 -232.449124 
L 707.998153 -230.926262 
L 705.701944 -229.34865 
L 703.405734 -227.82595 
L 701.109525 -226.290063 
L 698.813315 -224.764564 
L 696.517106 -223.29888 
L 694.220896 -221.835241 
L 691.924687 -220.473343 
L 689.628477 -219.114499 
L 687.332267 -217.813884 
L 685.036058 -216.527712 
L 682.739848 -215.262314 
L 680.443639 -214.005401 
L 678.147429 -212.808145 
L 675.85122 -211.618313 
L 673.55501 -210.444632 
L 671.258801 -209.227633 
L 668.962591 -208.055496 
L 666.666382 -206.884603 
L 664.370172 -205.66988 
L 662.073963 -204.45813 
L 659.777753 -203.236938 
L 657.481543 -202.059774 
L 655.185334 -200.938872 
L 652.889124 -199.805073 
L 650.592915 -198.783858 
L 648.296705 -197.820005 
L 646.000496 -196.932102 
L 643.704286 -196.051017 
L 641.408077 -195.139216 
L 639.111867 -194.370176 
L 636.815658 -193.455561 
L 634.519448 -192.497295 
L 632.223239 -191.575055 
L 629.927029 -190.644965 
L 627.630819 -189.749135 
L 625.33461 -188.949749 
L 623.0384 -188.150429 
L 620.742191 -187.224783 
L 618.445981 -186.299354 
L 616.149772 -185.374155 
L 613.853562 -184.637415 
L 611.557353 -183.964335 
L 609.261143 -183.357318 
L 606.964934 -182.494807 
L 604.668724 -181.64066 
L 602.372515 -180.778198 
L 600.076305 -180.028638 
L 597.780095 -179.27068 
L 595.483886 -178.459081 
L 593.187676 -177.693096 
L 590.891467 -176.921228 
L 588.595257 -176.174979 
L 586.299048 -175.512756 
L 584.002838 -174.668568 
L 581.706629 -173.945844 
L 579.410419 -173.125909 
L 577.11421 -172.46545 
L 574.818 -171.806063 
L 572.521791 -171.1478 
L 570.225581 -170.523977 
L 567.929371 -169.942602 
L 565.633162 -169.387705 
L 563.336952 -168.675749 
L 561.040743 -168.004007 
L 558.744533 -167.331048 
L 556.448324 -166.705988 
L 554.152114 -166.071345 
L 551.855905 -165.304446 
L 549.559695 -164.662495 
L 547.263486 -163.99263 
L 544.967276 -163.199364 
L 542.671067 -162.371956 
L 540.374857 -161.496118 
L 538.078647 -160.664113 
L 535.782438 -159.782834 
L 533.486228 -158.86155 
L 531.190019 -157.942496 
L 528.893809 -156.991825 
L 526.5976 -156.00034 
L 524.30139 -155.072454 
L 522.005181 -153.905241 
L 519.708971 -152.753351 
L 517.412762 -151.650238 
L 515.116552 -150.74202 
L 512.820343 -149.804505 
L 510.524133 -148.886101 
L 508.227923 -148.048746 
L 505.931714 -147.135502 
L 503.635504 -146.091201 
L 501.339295 -145.124389 
L 499.043085 -144.157576 
L 496.746876 -143.275245 
L 494.450666 -142.089409 
L 492.154457 -141.072032 
L 489.858247 -140.052537 
L 487.562038 -139.026009 
L 485.265828 -137.882566 
L 482.969619 -136.815726 
L 480.673409 -135.751621 
L 478.377199 -134.724298 
L 476.08099 -134.039587 
L 473.78478 -133.178971 
L 471.488571 -132.422939 
L 469.192361 -131.614545 
L 466.896152 -130.859761 
L 464.599942 -130.117124 
L 462.303733 -129.398763 
L 460.007523 -128.542096 
L 457.711314 -127.674242 
L 455.415104 -126.880207 
L 453.118895 -126.064389 
L 450.822685 -125.257987 
L 448.526475 -124.331627 
L 446.230266 -123.441585 
L 443.934056 -122.618044 
L 441.637847 -121.799543 
L 439.341637 -120.773208 
L 437.045428 -119.85455 
L 434.749218 -118.982401 
L 432.453009 -118.092914 
L 430.156799 -117.207364 
L 427.86059 -116.169856 
L 425.56438 -115.302885 
L 423.268171 -114.397716 
L 420.971961 -113.630332 
L 418.675751 -112.755343 
L 416.379542 -111.976915 
L 414.083332 -111.243247 
L 411.787123 -110.538723 
L 409.490913 -109.949103 
L 407.194704 -109.340642 
L 404.898494 -108.642924 
L 402.602285 -107.851896 
L 400.306075 -106.996021 
L 398.009866 -106.192981 
L 395.713656 -105.408213 
L 393.417447 -104.605246 
L 391.121237 -103.855905 
L 388.825027 -103.206697 
L 386.528818 -102.579606 
L 384.232608 -101.819274 
L 381.936399 -101.071865 
L 379.640189 -100.372031 
L 377.34398 -99.767796 
L 375.04777 -99.151765 
L 372.751561 -98.535948 
L 370.455351 -97.920379 
L 368.159142 -97.353884 
L 365.862932 -96.80129 
L 363.566723 -96.299937 
L 361.270513 -95.799124 
L 358.974303 -95.250806 
L 356.678094 -94.787233 
L 354.381884 -94.317581 
L 352.085675 -93.796608 
L 349.789465 -93.321764 
L 347.493256 -92.847062 
L 345.197046 -92.372534 
L 342.900837 -91.942563 
L 340.604627 -91.567575 
L 338.308418 -91.137727 
L 336.012208 -90.762661 
L 333.715999 -90.387702 
L 331.419789 -90.012873 
L 329.123579 -89.638205 
L 326.82737 -89.309591 
L 324.53116 -89.082938 
L 322.234951 -88.859349 
L 319.938741 -88.639377 
L 317.642532 -88.394361 
L 315.346322 -88.187178 
L 313.050113 -88.007865 
L 310.753903 -87.761226 
L 308.457694 -87.583427 
L 306.161484 -87.40695 
L 303.865275 -87.249835 
L 301.569065 -87.092977 
L 299.272855 -87.00472 
L 296.976646 -86.916828 
L 294.680436 -86.830566 
L 292.384227 -86.746718 
L 290.088017 -86.665775 
L 287.791808 -86.595045 
L 285.495598 -86.524315 
L 283.199389 -86.453585 
L 280.903179 -86.382855 
L 278.60697 -86.312125 
L 276.31076 -86.241395 
L 274.014551 -86.170665 
L 271.718341 -86.099935 
L 269.422131 -86.029204 
L 267.125922 -86.029204 
L 264.829712 -86.029204 
L 262.533503 -86.029204 
L 260.237293 -86.029204 
L 257.941084 -86.029204 
L 255.644874 -86.029204 
L 253.348665 -86.029204 
L 251.052455 -86.029204 
L 248.756246 -86.029204 
L 246.460036 -86.029204 
L 244.163827 -86.029204 
L 241.867617 -86.029204 
L 239.571407 -86.029204 
L 237.275198 -86.029204 
L 234.978988 -86.029204 
L 232.682779 -86.029204 
L 230.386569 -86.029204 
L 228.09036 -86.029204 
L 225.79415 -86.029204 
L 223.497941 -86.029204 
L 221.201731 -86.029204 
L 218.905522 -86.029204 
L 216.609312 -86.029204 
L 214.313103 -86.029204 
L 212.016893 -86.029204 
L 209.720683 -86.029204 
L 207.424474 -86.029204 
L 205.128264 -86.029204 
L 202.832055 -86.029204 
L 200.535845 -86.029204 
L 198.239636 -86.029204 
L 195.943426 -86.029204 
L 193.647217 -86.029204 
L 191.351007 -86.029204 
L 189.054798 -86.029204 
L 186.758588 -86.029204 
L 184.462379 -86.029204 
L 182.166169 -86.029204 
L 179.869959 -86.029204 
L 177.57375 -86.029204 
L 175.27754 -86.029204 
L 172.981331 -86.029204 
L 170.685121 -86.029204 
L 168.388912 -86.029204 
L 166.092702 -86.029204 
L 163.796493 -86.029204 
L 161.500283 -86.029204 
L 159.204074 -86.029204 
L 156.907864 -86.029204 
L 154.611655 -86.029204 
L 152.315445 -86.029204 
L 150.019235 -86.029204 
L 147.723026 -86.029204 
L 145.426816 -86.029204 
L 143.130607 -86.029204 
z
" style="stroke: #008000; stroke-opacity: 0.3"/>
    </defs>
    <g clip-path="url(#pe844af4049)">
     <use xlink:href="#mfbb4de60a7" x="0" y="432" style="fill: #008000; fill-opacity: 0.3; stroke: #008000; stroke-opacity: 0.3"/>
    </g>
   </g>
   <g id="PolyCollection_3">
    <defs>
     <path id="m3171446522" d="M 143.130607 -86.029204 
L 143.130607 -86.029204 
L 145.426816 -86.029204 
L 147.723026 -86.029204 
L 150.019235 -86.029204 
L 152.315445 -86.029204 
L 154.611655 -86.029204 
L 156.907864 -86.029204 
L 159.204074 -86.029204 
L 161.500283 -86.029204 
L 163.796493 -86.029204 
L 166.092702 -86.029204 
L 168.388912 -86.029204 
L 170.685121 -86.029204 
L 172.981331 -86.029204 
L 175.27754 -86.029204 
L 177.57375 -86.029204 
L 179.869959 -86.029204 
L 182.166169 -86.029204 
L 184.462379 -86.029204 
L 186.758588 -86.029204 
L 189.054798 -86.029204 
L 191.351007 -86.029204 
L 193.647217 -86.029204 
L 195.943426 -86.029204 
L 198.239636 -86.029204 
L 200.535845 -86.029204 
L 202.832055 -86.029204 
L 205.128264 -86.029204 
L 207.424474 -86.029204 
L 209.720683 -86.029204 
L 212.016893 -86.029204 
L 214.313103 -86.029204 
L 216.609312 -86.029204 
L 218.905522 -86.029204 
L 221.201731 -86.029204 
L 223.497941 -86.029204 
L 225.79415 -86.029204 
L 228.09036 -86.029204 
L 230.386569 -86.029204 
L 232.682779 -86.029204 
L 234.978988 -86.029204 
L 237.275198 -86.029204 
L 239.571407 -86.029204 
L 241.867617 -86.029204 
L 244.163827 -86.029204 
L 246.460036 -86.029204 
L 248.756246 -86.029204 
L 251.052455 -86.029204 
L 253.348665 -86.029204 
L 255.644874 -86.029204 
L 257.941084 -86.029204 
L 260.237293 -86.017069 
L 262.533503 -86.004934 
L 264.829712 -85.992798 
L 267.125922 -85.968528 
L 269.422131 -85.944257 
L 271.718341 -85.919986 
L 274.014551 -85.895715 
L 276.31076 -85.871445 
L 278.60697 -85.947201 
L 280.903179 -86.022958 
L 283.199389 -86.098715 
L 285.495598 -86.162336 
L 287.791808 -86.225957 
L 290.088017 -86.289579 
L 292.384227 -86.3532 
L 294.680436 -86.416821 
L 296.976646 -86.480443 
L 299.272855 -86.544064 
L 301.569065 -86.70571 
L 303.865275 -86.863616 
L 306.161484 -87.006519 
L 308.457694 -87.189368 
L 310.753903 -87.405637 
L 313.050113 -87.673522 
L 315.346322 -88.032512 
L 317.642532 -88.444262 
L 319.938741 -88.810715 
L 322.234951 -89.165702 
L 324.53116 -89.510249 
L 326.82737 -89.828642 
L 329.123579 -90.145108 
L 331.419789 -90.477791 
L 333.715999 -90.892754 
L 336.012208 -91.292131 
L 338.308418 -91.702102 
L 340.604627 -92.240415 
L 342.900837 -92.866069 
L 345.197046 -93.500533 
L 347.493256 -94.212503 
L 349.789465 -94.870412 
L 352.085675 -95.527875 
L 354.381884 -96.194645 
L 356.678094 -96.84165 
L 358.974303 -97.487119 
L 361.270513 -98.119031 
L 363.566723 -98.761057 
L 365.862932 -99.26838 
L 368.159142 -99.826366 
L 370.455351 -100.378375 
L 372.751561 -100.924802 
L 375.04777 -101.485393 
L 377.34398 -102.065878 
L 379.640189 -102.602759 
L 381.936399 -103.136562 
L 384.232608 -103.615196 
L 386.528818 -104.137059 
L 388.825027 -104.661155 
L 391.121237 -105.30378 
L 393.417447 -106.012487 
L 395.713656 -106.792473 
L 398.009866 -107.466559 
L 400.306075 -108.23295 
L 402.602285 -108.968759 
L 404.898494 -109.725399 
L 407.194704 -110.518398 
L 409.490913 -111.348844 
L 411.787123 -112.267101 
L 414.083332 -113.076302 
L 416.379542 -113.926342 
L 418.675751 -114.799258 
L 420.971961 -115.863677 
L 423.268171 -116.926197 
L 425.56438 -118.019848 
L 427.86059 -119.175735 
L 430.156799 -120.338998 
L 432.453009 -121.535545 
L 434.749218 -122.635155 
L 437.045428 -123.796504 
L 439.341637 -124.850687 
L 441.637847 -125.922108 
L 443.934056 -127.116691 
L 446.230266 -128.353001 
L 448.526475 -129.729149 
L 450.822685 -130.995353 
L 453.118895 -132.258732 
L 455.415104 -133.460201 
L 457.711314 -134.590429 
L 460.007523 -135.719358 
L 462.303733 -136.737274 
L 464.599942 -137.863515 
L 466.896152 -139.109958 
L 469.192361 -140.450592 
L 471.488571 -141.791186 
L 473.78478 -143.079097 
L 476.08099 -144.282907 
L 478.377199 -145.595845 
L 480.673409 -146.839997 
L 482.969619 -147.971179 
L 485.265828 -149.203165 
L 487.562038 -150.322768 
L 489.858247 -151.530728 
L 492.154457 -152.738046 
L 494.450666 -154.056076 
L 496.746876 -155.152033 
L 499.043085 -156.302918 
L 501.339295 -157.564816 
L 503.635504 -158.872992 
L 505.931714 -160.147943 
L 508.227923 -161.522251 
L 510.524133 -162.629855 
L 512.820343 -163.891001 
L 515.116552 -165.195976 
L 517.412762 -166.494286 
L 519.708971 -167.781111 
L 522.005181 -168.97804 
L 524.30139 -170.132015 
L 526.5976 -171.297346 
L 528.893809 -172.337942 
L 531.190019 -173.34688 
L 533.486228 -174.251979 
L 535.782438 -175.259459 
L 538.078647 -176.374027 
L 540.374857 -177.369864 
L 542.671067 -178.549983 
L 544.967276 -179.670414 
L 547.263486 -180.725118 
L 549.559695 -181.813352 
L 551.855905 -183.007847 
L 554.152114 -184.229467 
L 556.448324 -185.442129 
L 558.744533 -186.542071 
L 561.040743 -187.719981 
L 563.336952 -189.039933 
L 565.633162 -190.078095 
L 567.929371 -191.100462 
L 570.225581 -192.218109 
L 572.521791 -193.411693 
L 574.818 -194.622567 
L 577.11421 -195.924108 
L 579.410419 -197.10453 
L 581.706629 -198.392823 
L 584.002838 -199.465173 
L 586.299048 -200.553782 
L 588.595257 -201.522494 
L 590.891467 -202.518391 
L 593.187676 -203.638171 
L 595.483886 -204.758542 
L 597.780095 -205.782327 
L 600.076305 -206.767581 
L 602.372515 -207.856179 
L 604.668724 -208.993563 
L 606.964934 -210.178059 
L 609.261143 -211.447881 
L 611.557353 -212.696583 
L 613.853562 -213.934058 
L 616.149772 -215.1606 
L 618.445981 -216.448293 
L 620.742191 -217.747663 
L 623.0384 -218.987603 
L 625.33461 -220.28694 
L 627.630819 -221.667701 
L 629.927029 -222.954153 
L 632.223239 -224.166112 
L 634.519448 -225.371066 
L 636.815658 -226.609213 
L 639.111867 -227.85434 
L 641.408077 -229.226336 
L 643.704286 -230.572432 
L 646.000496 -231.981208 
L 648.296705 -233.484851 
L 650.592915 -234.921753 
L 652.889124 -236.418084 
L 655.185334 -237.981527 
L 657.481543 -239.466186 
L 659.777753 -240.95131 
L 662.073963 -242.41976 
L 664.370172 -243.803944 
L 666.666382 -245.247748 
L 668.962591 -246.687874 
L 671.258801 -248.274696 
L 673.55501 -249.921558 
L 675.85122 -251.566421 
L 678.147429 -253.342517 
L 680.443639 -255.182841 
L 682.739848 -257.033139 
L 685.036058 -258.828873 
L 687.332267 -260.640015 
L 689.628477 -262.467835 
L 691.924687 -264.123835 
L 694.220896 -265.79713 
L 696.517106 -267.505073 
L 698.813315 -269.178288 
L 701.109525 -270.93671 
L 703.405734 -272.710667 
L 705.701944 -274.449056 
L 707.998153 -276.186749 
L 710.294363 -277.996093 
L 712.590572 -279.753018 
L 714.886782 -281.60991 
L 717.182991 -283.468435 
L 719.479201 -285.238267 
L 721.775411 -287.091696 
L 724.07162 -288.873506 
L 726.36783 -290.66723 
L 728.664039 -292.521075 
L 730.960249 -294.457431 
L 733.256458 -296.455808 
L 735.552668 -298.395796 
L 737.848877 -300.264676 
L 740.145087 -302.420719 
L 742.441296 -304.576632 
L 744.737506 -306.661833 
L 747.033715 -308.834535 
L 749.329925 -311.08734 
L 751.626135 -313.337985 
L 753.922344 -315.647124 
L 756.218554 -317.972136 
L 758.514763 -320.207933 
L 760.810973 -322.450417 
L 763.107182 -324.718733 
L 765.403392 -327.072112 
L 767.699601 -329.422745 
L 769.995811 -331.770714 
L 772.29202 -334.116099 
L 774.58823 -336.469632 
L 776.884439 -338.827772 
L 779.180649 -341.254218 
L 781.476859 -343.74894 
L 783.773068 -346.241356 
L 786.069278 -348.731521 
L 788.365487 -351.223778 
L 790.661697 -353.716949 
L 792.957906 -356.206447 
L 795.254116 -358.707187 
L 797.550325 -361.185016 
L 799.846535 -363.730977 
L 802.142744 -366.308773 
L 802.142744 -405.231974 
L 802.142744 -405.231974 
L 799.846535 -402.301868 
L 797.550325 -399.515712 
L 795.254116 -396.720019 
L 792.957906 -393.771452 
L 790.661697 -390.870238 
L 788.365487 -387.972697 
L 786.069278 -385.132836 
L 783.773068 -382.349479 
L 781.476859 -379.568372 
L 779.180649 -376.789571 
L 776.884439 -374.00109 
L 774.58823 -371.202896 
L 772.29202 -368.45869 
L 769.995811 -365.764931 
L 767.699601 -363.073756 
L 765.403392 -360.385245 
L 763.107182 -357.69948 
L 760.810973 -355.104437 
L 758.514763 -352.659345 
L 756.218554 -350.266161 
L 753.922344 -347.786408 
L 751.626135 -345.407971 
L 749.329925 -342.97104 
L 747.033715 -340.53627 
L 744.737506 -338.138586 
L 742.441296 -335.77059 
L 740.145087 -333.414711 
L 737.848877 -331.058963 
L 735.552668 -328.709025 
L 733.256458 -326.3716 
L 730.960249 -324.092564 
L 728.664039 -321.810102 
L 726.36783 -319.562318 
L 724.07162 -317.313008 
L 721.775411 -315.110378 
L 719.479201 -312.920773 
L 717.182991 -310.764761 
L 714.886782 -308.521657 
L 712.590572 -306.335515 
L 710.294363 -304.22519 
L 707.998153 -302.225879 
L 705.701944 -300.272105 
L 703.405734 -298.319029 
L 701.109525 -296.225736 
L 698.813315 -294.175503 
L 696.517106 -292.098657 
L 694.220896 -289.997945 
L 691.924687 -288.038369 
L 689.628477 -286.061497 
L 687.332267 -284.197852 
L 685.036058 -282.317528 
L 682.739848 -280.480391 
L 680.443639 -278.756413 
L 678.147429 -277.02246 
L 675.85122 -275.282874 
L 673.55501 -273.47065 
L 671.258801 -271.719019 
L 668.962591 -269.907349 
L 666.666382 -268.183362 
L 664.370172 -266.463052 
L 662.073963 -264.683123 
L 659.777753 -262.870269 
L 657.481543 -261.015496 
L 655.185334 -259.218851 
L 652.889124 -257.442397 
L 650.592915 -255.71602 
L 648.296705 -253.988809 
L 646.000496 -252.328338 
L 643.704286 -250.807379 
L 641.408077 -249.282334 
L 639.111867 -247.724596 
L 636.815658 -246.215772 
L 634.519448 -244.758563 
L 632.223239 -243.385351 
L 629.927029 -242.019142 
L 627.630819 -240.668833 
L 625.33461 -239.237049 
L 623.0384 -237.899625 
L 620.742191 -236.561398 
L 618.445981 -235.106817 
L 616.149772 -233.757748 
L 613.853562 -232.347529 
L 611.557353 -230.948243 
L 609.261143 -229.560184 
L 606.964934 -228.25184 
L 604.668724 -226.975358 
L 602.372515 -225.710359 
L 600.076305 -224.33798 
L 597.780095 -222.979446 
L 595.483886 -221.718038 
L 593.187676 -220.318837 
L 590.891467 -218.919045 
L 588.595257 -217.629749 
L 586.299048 -216.430458 
L 584.002838 -215.292468 
L 581.706629 -214.02103 
L 579.410419 -212.789751 
L 577.11421 -211.509196 
L 574.818 -210.349759 
L 572.521791 -209.216846 
L 570.225581 -208.008048 
L 567.929371 -206.899096 
L 565.633162 -205.812053 
L 563.336952 -204.799401 
L 561.040743 -203.892755 
L 558.744533 -203.078445 
L 556.448324 -202.303357 
L 554.152114 -201.40661 
L 551.855905 -200.284442 
L 549.559695 -199.252339 
L 547.263486 -198.172569 
L 544.967276 -197.117864 
L 542.671067 -195.953101 
L 540.374857 -194.906622 
L 538.078647 -193.968834 
L 535.782438 -192.856804 
L 533.486228 -191.69628 
L 531.190019 -190.60916 
L 528.893809 -189.508688 
L 526.5976 -188.439875 
L 524.30139 -187.437202 
L 522.005181 -186.364579 
L 519.708971 -185.276314 
L 517.412762 -184.043568 
L 515.116552 -182.8809 
L 512.820343 -181.549114 
L 510.524133 -180.290689 
L 508.227923 -179.054505 
L 505.931714 -177.792051 
L 503.635504 -176.54743 
L 501.339295 -175.218845 
L 499.043085 -173.843982 
L 496.746876 -172.4167 
L 494.450666 -170.993085 
L 492.154457 -169.615759 
L 489.858247 -168.24491 
L 487.562038 -166.816109 
L 485.265828 -165.533329 
L 482.969619 -164.245744 
L 480.673409 -163.033137 
L 478.377199 -161.816313 
L 476.08099 -160.668273 
L 473.78478 -159.4697 
L 471.488571 -158.23804 
L 469.192361 -157.059062 
L 466.896152 -155.880124 
L 464.599942 -154.665589 
L 462.303733 -153.330853 
L 460.007523 -151.946387 
L 457.711314 -150.614338 
L 455.415104 -149.28359 
L 453.118895 -148.024081 
L 450.822685 -146.767888 
L 448.526475 -145.514521 
L 446.230266 -144.312501 
L 443.934056 -142.970645 
L 441.637847 -141.762846 
L 439.341637 -140.666263 
L 437.045428 -139.435252 
L 434.749218 -138.252813 
L 432.453009 -137.06723 
L 430.156799 -135.861395 
L 427.86059 -134.68087 
L 425.56438 -133.434374 
L 423.268171 -132.184238 
L 420.971961 -130.961564 
L 418.675751 -129.74079 
L 416.379542 -128.504297 
L 414.083332 -127.362117 
L 411.787123 -126.120504 
L 409.490913 -124.987947 
L 407.194704 -123.943362 
L 404.898494 -122.861331 
L 402.602285 -121.742941 
L 400.306075 -120.720909 
L 398.009866 -119.670865 
L 395.713656 -118.645704 
L 393.417447 -117.726444 
L 391.121237 -116.735904 
L 388.825027 -115.737878 
L 386.528818 -114.797107 
L 384.232608 -113.795508 
L 381.936399 -112.867869 
L 379.640189 -111.936804 
L 377.34398 -111.008818 
L 375.04777 -110.007246 
L 372.751561 -108.98578 
L 370.455351 -108.008746 
L 368.159142 -107.095887 
L 365.862932 -106.189006 
L 363.566723 -105.231461 
L 361.270513 -104.40862 
L 358.974303 -103.634259 
L 356.678094 -102.814861 
L 354.381884 -101.996999 
L 352.085675 -101.081712 
L 349.789465 -100.215713 
L 347.493256 -99.350159 
L 345.197046 -98.597262 
L 342.900837 -97.884048 
L 340.604627 -97.220619 
L 338.308418 -96.645633 
L 336.012208 -96.000899 
L 333.715999 -95.404166 
L 331.419789 -94.764425 
L 329.123579 -94.159593 
L 326.82737 -93.655733 
L 324.53116 -93.212395 
L 322.234951 -92.736615 
L 319.938741 -92.271277 
L 317.642532 -91.817404 
L 315.346322 -91.350234 
L 313.050113 -90.947493 
L 310.753903 -90.570836 
L 308.457694 -90.201158 
L 306.161484 -89.856655 
L 303.865275 -89.530801 
L 301.569065 -89.278544 
L 299.272855 -89.030027 
L 296.976646 -88.800674 
L 294.680436 -88.571322 
L 292.384227 -88.34197 
L 290.088017 -88.112618 
L 287.791808 -87.883266 
L 285.495598 -87.653914 
L 283.199389 -87.424561 
L 280.903179 -87.265939 
L 278.60697 -87.107317 
L 276.31076 -86.948695 
L 274.014551 -86.807235 
L 271.718341 -86.665775 
L 269.422131 -86.524315 
L 267.125922 -86.382855 
L 264.829712 -86.241395 
L 262.533503 -86.170665 
L 260.237293 -86.099935 
L 257.941084 -86.029204 
L 255.644874 -86.029204 
L 253.348665 -86.029204 
L 251.052455 -86.029204 
L 248.756246 -86.029204 
L 246.460036 -86.029204 
L 244.163827 -86.029204 
L 241.867617 -86.029204 
L 239.571407 -86.029204 
L 237.275198 -86.029204 
L 234.978988 -86.029204 
L 232.682779 -86.029204 
L 230.386569 -86.029204 
L 228.09036 -86.029204 
L 225.79415 -86.029204 
L 223.497941 -86.029204 
L 221.201731 -86.029204 
L 218.905522 -86.029204 
L 216.609312 -86.029204 
L 214.313103 -86.029204 
L 212.016893 -86.029204 
L 209.720683 -86.029204 
L 207.424474 -86.029204 
L 205.128264 -86.029204 
L 202.832055 -86.029204 
L 200.535845 -86.029204 
L 198.239636 -86.029204 
L 195.943426 -86.029204 
L 193.647217 -86.029204 
L 191.351007 -86.029204 
L 189.054798 -86.029204 
L 186.758588 -86.029204 
L 184.462379 -86.029204 
L 182.166169 -86.029204 
L 179.869959 -86.029204 
L 177.57375 -86.029204 
L 175.27754 -86.029204 
L 172.981331 -86.029204 
L 170.685121 -86.029204 
L 168.388912 -86.029204 
L 166.092702 -86.029204 
L 163.796493 -86.029204 
L 161.500283 -86.029204 
L 159.204074 -86.029204 
L 156.907864 -86.029204 
L 154.611655 -86.029204 
L 152.315445 -86.029204 
L 150.019235 -86.029204 
L 147.723026 -86.029204 
L 145.426816 -86.029204 
L 143.130607 -86.029204 
z
" style="stroke: #ff0000; stroke-opacity: 0.3"/>
    </defs>
    <g clip-path="url(#pe844af4049)">
     <use xlink:href="#m3171446522" x="0" y="432" style="fill: #ff0000; fill-opacity: 0.3; stroke: #ff0000; stroke-opacity: 0.3"/>
    </g>
   </g>
   <g id="PolyCollection_4">
    <defs>
     <path id="mea874a1f3f" d="M 143.130607 -86.029204 
L 143.130607 -86.029204 
L 145.426816 -86.029204 
L 147.723026 -86.029204 
L 150.019235 -86.029204 
L 152.315445 -86.029204 
L 154.611655 -86.029204 
L 156.907864 -86.029204 
L 159.204074 -86.029204 
L 161.500283 -86.029204 
L 163.796493 -86.029204 
L 166.092702 -86.029204 
L 168.388912 -86.029204 
L 170.685121 -86.029204 
L 172.981331 -86.029204 
L 175.27754 -86.029204 
L 177.57375 -86.029204 
L 179.869959 -86.029204 
L 182.166169 -86.029204 
L 184.462379 -86.029204 
L 186.758588 -86.029204 
L 189.054798 -86.029204 
L 191.351007 -86.029204 
L 193.647217 -86.029204 
L 195.943426 -86.029204 
L 198.239636 -86.029204 
L 200.535845 -86.029204 
L 202.832055 -86.029204 
L 205.128264 -86.029204 
L 207.424474 -86.029204 
L 209.720683 -86.029204 
L 212.016893 -86.029204 
L 214.313103 -86.029204 
L 216.609312 -86.029204 
L 218.905522 -86.029204 
L 221.201731 -86.029204 
L 223.497941 -86.029204 
L 225.79415 -86.029204 
L 228.09036 -86.029204 
L 230.386569 -86.029204 
L 232.682779 -86.029204 
L 234.978988 -86.029204 
L 237.275198 -86.029204 
L 239.571407 -86.029204 
L 241.867617 -86.029204 
L 244.163827 -86.029204 
L 246.460036 -86.029204 
L 248.756246 -86.029204 
L 251.052455 -86.029204 
L 253.348665 -86.029204 
L 255.644874 -86.029204 
L 257.941084 -86.029204 
L 260.237293 -86.029204 
L 262.533503 -86.029204 
L 264.829712 -86.029204 
L 267.125922 -86.029204 
L 269.422131 -86.029204 
L 271.718341 -86.029204 
L 274.014551 -86.029204 
L 276.31076 -86.029204 
L 278.60697 -86.029204 
L 280.903179 -86.029204 
L 283.199389 -86.029204 
L 285.495598 -86.029204 
L 287.791808 -86.029204 
L 290.088017 -86.029204 
L 292.384227 -86.029204 
L 294.680436 -86.029204 
L 296.976646 -86.029204 
L 299.272855 -86.029204 
L 301.569065 -86.029204 
L 303.865275 -86.029204 
L 306.161484 -86.029204 
L 308.457694 -86.029204 
L 310.753903 -86.017069 
L 313.050113 -86.004934 
L 315.346322 -85.992798 
L 317.642532 -85.980663 
L 319.938741 -85.968528 
L 322.234951 -85.956392 
L 324.53116 -85.944257 
L 326.82737 -85.932122 
L 329.123579 -85.919986 
L 331.419789 -85.907851 
L 333.715999 -85.944252 
L 336.012208 -85.932245 
L 338.308418 -85.96632 
L 340.604627 -85.998282 
L 342.900837 -85.986951 
L 345.197046 -85.975512 
L 347.493256 -85.963985 
L 349.789465 -85.952386 
L 352.085675 -85.984213 
L 354.381884 -85.972867 
L 356.678094 -86.003714 
L 358.974303 -86.033401 
L 361.270513 -86.121293 
L 363.566723 -86.179498 
L 365.862932 -86.236543 
L 368.159142 -86.292295 
L 370.455351 -86.346609 
L 372.751561 -86.399328 
L 375.04777 -86.450283 
L 377.34398 -86.499295 
L 379.640189 -86.546181 
L 381.936399 -86.590756 
L 384.232608 -86.632845 
L 386.528818 -86.672283 
L 388.825027 -86.708933 
L 391.121237 -86.742686 
L 393.417447 -86.773477 
L 395.713656 -86.801281 
L 398.009866 -86.826122 
L 400.306075 -86.848067 
L 402.602285 -86.867224 
L 404.898494 -86.88373 
L 407.194704 -86.897749 
L 409.490913 -86.909458 
L 411.787123 -86.919041 
L 414.083332 -86.926681 
L 416.379542 -87.00306 
L 418.675751 -87.077285 
L 420.971961 -87.079465 
L 423.268171 -87.080256 
L 425.56438 -87.080256 
L 427.86059 -87.080256 
L 430.156799 -87.080256 
L 432.453009 -87.079819 
L 434.749218 -87.078296 
L 437.045428 -87.075812 
L 439.341637 -87.075812 
L 441.637847 -87.075812 
L 443.934056 -87.075812 
L 446.230266 -87.075812 
L 448.526475 -87.075812 
L 450.822685 -87.075812 
L 453.118895 -87.075812 
L 455.415104 -87.075812 
L 457.711314 -87.097626 
L 460.007523 -87.186588 
L 462.303733 -87.204905 
L 464.599942 -87.274485 
L 466.896152 -87.343932 
L 469.192361 -87.413223 
L 471.488571 -87.482326 
L 473.78478 -87.551204 
L 476.08099 -87.551204 
L 478.377199 -87.551204 
L 480.673409 -87.551204 
L 482.969619 -87.551204 
L 485.265828 -87.551204 
L 487.562038 -87.551204 
L 489.858247 -87.551204 
L 492.154457 -87.619808 
L 494.450666 -87.619808 
L 496.746876 -87.688075 
L 499.043085 -87.75592 
L 501.339295 -87.823233 
L 503.635504 -87.95558 
L 505.931714 -88.082963 
L 508.227923 -88.200899 
L 510.524133 -88.300313 
L 512.820343 -88.368175 
L 515.116552 -88.400208 
L 517.412762 -88.407219 
L 519.708971 -88.400961 
L 522.005181 -88.387912 
L 524.30139 -88.371165 
L 526.5976 -88.352241 
L 528.893809 -88.331949 
L 531.190019 -88.310745 
L 533.486228 -88.277808 
L 535.782438 -88.243975 
L 538.078647 -88.209552 
L 540.374857 -88.229439 
L 542.671067 -88.247315 
L 544.967276 -88.263617 
L 547.263486 -88.227367 
L 549.559695 -88.191094 
L 551.855905 -88.154802 
L 554.152114 -88.118494 
L 556.448324 -88.145284 
L 558.744533 -88.171361 
L 561.040743 -88.19679 
L 563.336952 -88.221628 
L 565.633162 -88.245928 
L 567.929371 -88.269734 
L 570.225581 -88.245627 
L 572.521791 -88.269059 
L 574.818 -88.292086 
L 577.11421 -88.360786 
L 579.410419 -88.427717 
L 581.706629 -88.492981 
L 584.002838 -88.556676 
L 586.299048 -88.717969 
L 588.595257 -88.877424 
L 590.891467 -89.074537 
L 593.187676 -89.267235 
L 595.483886 -89.455577 
L 597.780095 -89.639644 
L 600.076305 -89.819532 
L 602.372515 -89.995354 
L 604.668724 -90.167237 
L 606.964934 -90.335317 
L 609.261143 -90.52609 
L 611.557353 -90.713559 
L 613.853562 -90.889693 
L 616.149772 -91.060536 
L 618.445981 -91.222798 
L 620.742191 -91.37683 
L 623.0384 -91.523031 
L 625.33461 -91.661826 
L 627.630819 -91.79366 
L 629.927029 -91.918982 
L 632.223239 -92.03824 
L 634.519448 -92.163204 
L 636.815658 -92.285375 
L 639.111867 -92.404999 
L 641.408077 -92.522299 
L 643.704286 -92.637476 
L 646.000496 -92.750711 
L 648.296705 -92.862168 
L 650.592915 -92.971997 
L 652.889124 -93.080824 
L 655.185334 -93.185624 
L 657.481543 -93.286854 
L 659.777753 -93.387002 
L 662.073963 -93.487835 
L 664.370172 -93.587841 
L 666.666382 -93.68708 
L 668.962591 -93.785607 
L 671.258801 -93.883471 
L 673.55501 -93.980718 
L 675.85122 -94.077389 
L 678.147429 -94.173523 
L 680.443639 -94.273584 
L 682.739848 -94.373491 
L 685.036058 -94.47782 
L 687.332267 -94.582142 
L 689.628477 -94.690986 
L 691.924687 -94.799785 
L 694.220896 -94.90854 
L 696.517106 -95.017252 
L 698.813315 -95.12592 
L 701.109525 -95.234547 
L 703.405734 -95.27179 
L 705.701944 -95.309021 
L 707.998153 -95.346241 
L 710.294363 -95.383451 
L 712.590572 -95.48379 
L 714.886782 -95.60892 
L 717.182991 -95.734039 
L 719.479201 -95.859148 
L 721.775411 -95.916964 
L 724.07162 -95.9747 
L 726.36783 -96.007921 
L 728.664039 -96.041109 
L 730.960249 -96.141503 
L 733.256458 -96.245946 
L 735.552668 -96.350383 
L 737.848877 -96.38762 
L 740.145087 -96.424849 
L 742.441296 -96.462068 
L 744.737506 -96.499279 
L 747.033715 -96.536482 
L 749.329925 -96.598202 
L 751.626135 -96.659661 
L 753.922344 -96.720866 
L 756.218554 -96.781827 
L 758.514763 -96.845912 
L 760.810973 -96.909458 
L 763.107182 -96.969498 
L 765.403392 -97.097301 
L 767.699601 -97.227837 
L 769.995811 -97.358062 
L 772.29202 -97.48798 
L 774.58823 -97.639475 
L 776.884439 -97.792015 
L 779.180649 -97.872829 
L 781.476859 -97.931986 
L 783.773068 -97.989416 
L 786.069278 -98.046709 
L 788.365487 -98.103869 
L 790.661697 -98.18086 
L 792.957906 -98.237634 
L 795.254116 -98.29429 
L 797.550325 -98.370252 
L 799.846535 -98.426561 
L 802.142744 -98.482767 
L 802.142744 -121.21313 
L 802.142744 -121.21313 
L 799.846535 -120.917767 
L 797.550325 -120.622509 
L 795.254116 -120.288307 
L 792.957906 -119.993396 
L 790.661697 -119.698601 
L 788.365487 -119.365429 
L 786.069278 -119.071022 
L 783.773068 -118.776746 
L 781.476859 -118.482608 
L 779.180649 -118.248792 
L 776.884439 -117.978037 
L 774.58823 -117.77901 
L 772.29202 -117.520341 
L 769.995811 -117.298691 
L 767.699601 -117.077348 
L 765.403392 -116.856316 
L 763.107182 -116.573956 
L 760.810973 -116.282428 
L 758.514763 -116.053 
L 756.218554 -115.824112 
L 753.922344 -115.533505 
L 751.626135 -115.243142 
L 749.329925 -114.953032 
L 747.033715 -114.663184 
L 744.737506 -114.407413 
L 742.441296 -114.151651 
L 740.145087 -113.895897 
L 737.848877 -113.640152 
L 735.552668 -113.384416 
L 733.256458 -113.137284 
L 730.960249 -112.890159 
L 728.664039 -112.58039 
L 726.36783 -112.26201 
L 724.07162 -111.943663 
L 721.775411 -111.591237 
L 719.479201 -111.238889 
L 717.182991 -110.89524 
L 714.886782 -110.551602 
L 712.590572 -110.207974 
L 710.294363 -109.898151 
L 707.998153 -109.642387 
L 705.701944 -109.386633 
L 703.405734 -109.130891 
L 701.109525 -108.875161 
L 698.813315 -108.690814 
L 696.517106 -108.506509 
L 694.220896 -108.322247 
L 691.924687 -108.138029 
L 689.628477 -107.953854 
L 687.332267 -107.769725 
L 685.036058 -107.522479 
L 682.739848 -107.27524 
L 680.443639 -106.964984 
L 678.147429 -106.654881 
L 675.85122 -106.282258 
L 673.55501 -105.910172 
L 671.258801 -105.538661 
L 668.962591 -105.167768 
L 666.666382 -104.797537 
L 664.370172 -104.428018 
L 662.073963 -104.059267 
L 659.777753 -103.691342 
L 657.481543 -103.264138 
L 655.185334 -102.779421 
L 652.889124 -102.298274 
L 650.592915 -101.821154 
L 648.296705 -101.462225 
L 646.000496 -101.104925 
L 643.704286 -100.749403 
L 641.408077 -100.395822 
L 639.111867 -100.044364 
L 636.815658 -99.69523 
L 634.519448 -99.348644 
L 632.223239 -99.004851 
L 629.927029 -98.713946 
L 627.630819 -98.429105 
L 625.33461 -98.150776 
L 623.0384 -97.879408 
L 620.742191 -97.615446 
L 618.445981 -97.359316 
L 616.149772 -97.111414 
L 613.853562 -96.872094 
L 611.557353 -96.579471 
L 609.261143 -96.356777 
L 606.964934 -96.078793 
L 604.668724 -95.836709 
L 602.372515 -95.598429 
L 600.076305 -95.364089 
L 597.780095 -95.133814 
L 595.483886 -94.907718 
L 593.187676 -94.685898 
L 590.891467 -94.468432 
L 588.595257 -94.255383 
L 586.299048 -94.06327 
L 584.002838 -93.872994 
L 581.706629 -93.70231 
L 579.410419 -93.533195 
L 577.11421 -93.365748 
L 574.818 -93.200069 
L 572.521791 -93.047312 
L 570.225581 -92.89496 
L 567.929371 -92.753664 
L 565.633162 -92.601686 
L 563.336952 -92.450201 
L 561.040743 -92.299255 
L 558.744533 -92.1489 
L 556.448324 -91.999193 
L 554.152114 -91.850199 
L 551.855905 -91.638107 
L 549.559695 -91.426031 
L 547.263486 -91.213973 
L 544.967276 -91.00194 
L 542.671067 -90.783863 
L 540.374857 -90.56736 
L 538.078647 -90.352868 
L 535.782438 -90.142661 
L 533.486228 -89.933044 
L 531.190019 -89.724323 
L 528.893809 -89.58593 
L 526.5976 -89.448448 
L 524.30139 -89.312335 
L 522.005181 -89.178398 
L 519.708971 -89.04816 
L 517.412762 -88.924713 
L 515.116552 -88.814535 
L 512.820343 -88.729377 
L 510.524133 -88.68005 
L 508.227923 -88.662275 
L 505.931714 -88.663021 
L 503.635504 -88.673215 
L 501.339295 -88.688373 
L 499.043085 -88.697091 
L 496.746876 -88.706342 
L 494.450666 -88.716014 
L 492.154457 -88.716014 
L 489.858247 -88.726024 
L 487.562038 -88.726024 
L 485.265828 -88.726024 
L 482.969619 -88.726024 
L 480.673409 -88.726024 
L 478.377199 -88.726024 
L 476.08099 -88.726024 
L 473.78478 -88.726024 
L 471.488571 -88.736307 
L 469.192361 -88.746815 
L 466.896152 -88.757511 
L 464.599942 -88.768363 
L 462.303733 -88.779348 
L 460.007523 -88.739071 
L 457.711314 -88.710843 
L 455.415104 -88.674062 
L 453.118895 -88.674062 
L 450.822685 -88.674062 
L 448.526475 -88.674062 
L 446.230266 -88.674062 
L 443.934056 -88.674062 
L 441.637847 -88.674062 
L 439.341637 -88.674062 
L 437.045428 -88.674062 
L 434.749218 -88.612985 
L 432.453009 -88.552867 
L 430.156799 -88.493834 
L 427.86059 -88.493834 
L 425.56438 -88.493834 
L 423.268171 -88.493834 
L 420.971961 -88.436031 
L 418.675751 -88.379617 
L 416.379542 -88.336652 
L 414.083332 -88.295842 
L 411.787123 -88.244887 
L 409.490913 -88.195875 
L 407.194704 -88.148989 
L 404.898494 -88.104414 
L 402.602285 -88.062326 
L 400.306075 -88.022887 
L 398.009866 -87.986238 
L 395.713656 -87.952484 
L 393.417447 -87.921694 
L 391.121237 -87.893889 
L 388.825027 -87.869048 
L 386.528818 -87.847103 
L 384.232608 -87.827947 
L 381.936399 -87.81144 
L 379.640189 -87.797421 
L 377.34398 -87.785712 
L 375.04777 -87.77613 
L 372.751561 -87.76849 
L 370.455351 -87.762614 
L 368.159142 -87.758334 
L 365.862932 -87.755491 
L 363.566723 -87.753941 
L 361.270513 -87.753552 
L 358.974303 -87.66566 
L 356.678094 -87.578157 
L 354.381884 -87.491815 
L 352.085675 -87.421874 
L 349.789465 -87.336511 
L 347.493256 -87.266318 
L 345.197046 -87.196196 
L 342.900837 -87.126162 
L 340.604627 -87.056237 
L 338.308418 -86.97101 
L 336.012208 -86.887895 
L 333.715999 -86.817293 
L 331.419789 -86.736505 
L 329.123579 -86.665775 
L 326.82737 -86.595045 
L 324.53116 -86.524315 
L 322.234951 -86.453585 
L 319.938741 -86.382855 
L 317.642532 -86.312125 
L 315.346322 -86.241395 
L 313.050113 -86.170665 
L 310.753903 -86.099935 
L 308.457694 -86.029204 
L 306.161484 -86.029204 
L 303.865275 -86.029204 
L 301.569065 -86.029204 
L 299.272855 -86.029204 
L 296.976646 -86.029204 
L 294.680436 -86.029204 
L 292.384227 -86.029204 
L 290.088017 -86.029204 
L 287.791808 -86.029204 
L 285.495598 -86.029204 
L 283.199389 -86.029204 
L 280.903179 -86.029204 
L 278.60697 -86.029204 
L 276.31076 -86.029204 
L 274.014551 -86.029204 
L 271.718341 -86.029204 
L 269.422131 -86.029204 
L 267.125922 -86.029204 
L 264.829712 -86.029204 
L 262.533503 -86.029204 
L 260.237293 -86.029204 
L 257.941084 -86.029204 
L 255.644874 -86.029204 
L 253.348665 -86.029204 
L 251.052455 -86.029204 
L 248.756246 -86.029204 
L 246.460036 -86.029204 
L 244.163827 -86.029204 
L 241.867617 -86.029204 
L 239.571407 -86.029204 
L 237.275198 -86.029204 
L 234.978988 -86.029204 
L 232.682779 -86.029204 
L 230.386569 -86.029204 
L 228.09036 -86.029204 
L 225.79415 -86.029204 
L 223.497941 -86.029204 
L 221.201731 -86.029204 
L 218.905522 -86.029204 
L 216.609312 -86.029204 
L 214.313103 -86.029204 
L 212.016893 -86.029204 
L 209.720683 -86.029204 
L 207.424474 -86.029204 
L 205.128264 -86.029204 
L 202.832055 -86.029204 
L 200.535845 -86.029204 
L 198.239636 -86.029204 
L 195.943426 -86.029204 
L 193.647217 -86.029204 
L 191.351007 -86.029204 
L 189.054798 -86.029204 
L 186.758588 -86.029204 
L 184.462379 -86.029204 
L 182.166169 -86.029204 
L 179.869959 -86.029204 
L 177.57375 -86.029204 
L 175.27754 -86.029204 
L 172.981331 -86.029204 
L 170.685121 -86.029204 
L 168.388912 -86.029204 
L 166.092702 -86.029204 
L 163.796493 -86.029204 
L 161.500283 -86.029204 
L 159.204074 -86.029204 
L 156.907864 -86.029204 
L 154.611655 -86.029204 
L 152.315445 -86.029204 
L 150.019235 -86.029204 
L 147.723026 -86.029204 
L 145.426816 -86.029204 
L 143.130607 -86.029204 
z
" style="stroke: #ffa500; stroke-opacity: 0.3"/>
    </defs>
    <g clip-path="url(#pe844af4049)">
     <use xlink:href="#mea874a1f3f" x="0" y="432" style="fill: #ffa500; fill-opacity: 0.3; stroke: #ffa500; stroke-opacity: 0.3"/>
    </g>
   </g>
   <g id="matplotlib.axis_1">
    <g id="xtick_1">
     <g id="line2d_1">
      <defs>
       <path id="mcb02d36f2e" d="M 0 0 
L 0 3.5 
" style="stroke: #000000; stroke-width: 0.8"/>
      </defs>
      <g>
       <use xlink:href="#mcb02d36f2e" x="143.130607" y="354.76" style="stroke: #000000; stroke-width: 0.8"/>
      </g>
     </g>
     <g id="text_1">
      <!-- 0 -->
      <g transform="translate(136.130607 381.01) scale(0.28 -0.28)">
       <defs>
        <path id="SimHei-30" d="M 225 2537 
Q 250 3200 412 3587 
Q 575 3975 875 4225 
Q 1175 4475 1612 4475 
Q 2050 4475 2375 4112 
Q 2700 3750 2800 3200 
Q 2900 2650 2862 1937 
Q 2825 1225 2612 775 
Q 2400 325 1975 150 
Q 1550 -25 1125 187 
Q 700 400 525 750 
Q 350 1100 275 1487 
Q 200 1875 225 2537 
z
M 750 2687 
Q 675 2000 800 1462 
Q 925 925 1212 700 
Q 1500 475 1800 612 
Q 2100 750 2237 1162 
Q 2375 1575 2375 2062 
Q 2375 2550 2337 2950 
Q 2300 3350 2112 3675 
Q 1925 4000 1612 4012 
Q 1300 4025 1062 3700 
Q 825 3375 750 2687 
z
" transform="scale(0.015625)"/>
       </defs>
       <use xlink:href="#SimHei-30"/>
      </g>
     </g>
    </g>
    <g id="xtick_2">
     <g id="line2d_2">
      <g>
       <use xlink:href="#mcb02d36f2e" x="257.941084" y="354.76" style="stroke: #000000; stroke-width: 0.8"/>
      </g>
     </g>
     <g id="text_2">
      <!-- 50 -->
      <g transform="translate(243.941084 381.01) scale(0.28 -0.28)">
       <defs>
        <path id="SimHei-35" d="M 550 1325 
Q 725 650 1150 575 
Q 1575 500 1837 662 
Q 2100 825 2212 1087 
Q 2325 1350 2312 1675 
Q 2300 2000 2137 2225 
Q 1975 2450 1725 2525 
Q 1475 2600 1162 2525 
Q 850 2450 650 2175 
L 225 2225 
Q 275 2375 700 4375 
L 2675 4375 
L 2675 3925 
L 1075 3925 
Q 950 3250 825 2850 
Q 1200 3025 1525 3012 
Q 1850 3000 2150 2862 
Q 2450 2725 2587 2487 
Q 2725 2250 2787 2012 
Q 2850 1775 2837 1500 
Q 2825 1225 2725 937 
Q 2625 650 2425 462 
Q 2225 275 1937 162 
Q 1650 50 1275 75 
Q 900 100 562 350 
Q 225 600 100 1200 
L 550 1325 
z
" transform="scale(0.015625)"/>
       </defs>
       <use xlink:href="#SimHei-35"/>
       <use xlink:href="#SimHei-30" x="50"/>
      </g>
     </g>
    </g>
    <g id="xtick_3">
     <g id="line2d_3">
      <g>
       <use xlink:href="#mcb02d36f2e" x="372.751561" y="354.76" style="stroke: #000000; stroke-width: 0.8"/>
      </g>
     </g>
     <g id="text_3">
      <!-- 100 -->
      <g transform="translate(351.751561 381.01) scale(0.28 -0.28)">
       <defs>
        <path id="SimHei-31" d="M 1400 3600 
Q 1075 3275 575 2975 
L 575 3450 
Q 1200 3875 1600 4450 
L 1900 4450 
L 1900 150 
L 1400 150 
L 1400 3600 
z
" transform="scale(0.015625)"/>
       </defs>
       <use xlink:href="#SimHei-31"/>
       <use xlink:href="#SimHei-30" x="50"/>
       <use xlink:href="#SimHei-30" x="100"/>
      </g>
     </g>
    </g>
    <g id="xtick_4">
     <g id="line2d_4">
      <g>
       <use xlink:href="#mcb02d36f2e" x="487.562038" y="354.76" style="stroke: #000000; stroke-width: 0.8"/>
      </g>
     </g>
     <g id="text_4">
      <!-- 150 -->
      <g transform="translate(466.562038 381.01) scale(0.28 -0.28)">
       <use xlink:href="#SimHei-31"/>
       <use xlink:href="#SimHei-35" x="50"/>
       <use xlink:href="#SimHei-30" x="100"/>
      </g>
     </g>
    </g>
    <g id="xtick_5">
     <g id="line2d_5">
      <g>
       <use xlink:href="#mcb02d36f2e" x="602.372515" y="354.76" style="stroke: #000000; stroke-width: 0.8"/>
      </g>
     </g>
     <g id="text_5">
      <!-- 200 -->
      <g transform="translate(581.372515 381.01) scale(0.28 -0.28)">
       <defs>
        <path id="SimHei-32" d="M 300 250 
Q 325 625 650 925 
Q 975 1225 1475 1862 
Q 1975 2500 2125 2850 
Q 2275 3200 2237 3450 
Q 2200 3700 2000 3862 
Q 1800 4025 1537 4000 
Q 1275 3975 1037 3800 
Q 800 3625 675 3275 
L 200 3350 
Q 400 3925 712 4187 
Q 1025 4450 1450 4475 
Q 1700 4500 1900 4462 
Q 2100 4425 2312 4287 
Q 2525 4150 2662 3875 
Q 2800 3600 2762 3212 
Q 2725 2825 2375 2287 
Q 2025 1750 1025 600 
L 2825 600 
L 2825 150 
L 300 150 
L 300 250 
z
" transform="scale(0.015625)"/>
       </defs>
       <use xlink:href="#SimHei-32"/>
       <use xlink:href="#SimHei-30" x="50"/>
       <use xlink:href="#SimHei-30" x="100"/>
      </g>
     </g>
    </g>
    <g id="xtick_6">
     <g id="line2d_6">
      <g>
       <use xlink:href="#mcb02d36f2e" x="717.182991" y="354.76" style="stroke: #000000; stroke-width: 0.8"/>
      </g>
     </g>
     <g id="text_6">
      <!-- 250 -->
      <g transform="translate(696.182991 381.01) scale(0.28 -0.28)">
       <use xlink:href="#SimHei-32"/>
       <use xlink:href="#SimHei-35" x="50"/>
       <use xlink:href="#SimHei-30" x="100"/>
      </g>
     </g>
    </g>
    <g id="xtick_7">
     <g id="line2d_7">
      <g>
       <use xlink:href="#mcb02d36f2e" x="831.993468" y="354.76" style="stroke: #000000; stroke-width: 0.8"/>
      </g>
     </g>
     <g id="text_7">
      <!-- 300 -->
      <g transform="translate(810.993468 381.01) scale(0.28 -0.28)">
       <defs>
        <path id="SimHei-33" d="M 250 1225 
L 700 1300 
Q 800 975 1025 762 
Q 1250 550 1587 562 
Q 1925 575 2125 837 
Q 2325 1100 2300 1437 
Q 2275 1775 2037 1962 
Q 1800 2150 1275 2225 
L 1275 2550 
Q 1800 2600 2037 2825 
Q 2275 3050 2250 3412 
Q 2225 3775 1925 3937 
Q 1625 4100 1287 3975 
Q 950 3850 750 3275 
L 300 3350 
Q 450 3800 712 4100 
Q 975 4400 1425 4450 
Q 1875 4500 2212 4337 
Q 2550 4175 2687 3837 
Q 2825 3500 2725 3100 
Q 2625 2700 2150 2400 
Q 2500 2250 2687 1950 
Q 2875 1650 2812 1162 
Q 2750 675 2375 375 
Q 2000 75 1525 87 
Q 1050 100 700 387 
Q 350 675 250 1225 
z
" transform="scale(0.015625)"/>
       </defs>
       <use xlink:href="#SimHei-33"/>
       <use xlink:href="#SimHei-30" x="50"/>
       <use xlink:href="#SimHei-30" x="100"/>
      </g>
     </g>
    </g>
    <g id="text_8">
     <!-- Time Steps -->
     <g transform="translate(372.636676 416.3225) scale(0.4 -0.4)">
      <defs>
       <path id="SimHei-54" d="M 2850 3925 
L 1850 3925 
L 1850 125 
L 1275 125 
L 1275 3925 
L 275 3925 
L 275 4400 
L 2850 4400 
L 2850 3925 
z
" transform="scale(0.015625)"/>
       <path id="SimHei-69" d="M 1800 3725 
L 1300 3725 
L 1300 4375 
L 1800 4375 
L 1800 3725 
z
M 1800 125 
L 1300 125 
L 1300 2925 
L 1800 2925 
L 1800 125 
z
" transform="scale(0.015625)"/>
       <path id="SimHei-6d" d="M 3050 125 
L 2550 125 
L 2550 2150 
Q 2550 2300 2500 2400 
Q 2450 2500 2300 2500 
Q 2125 2500 1975 2312 
Q 1825 2125 1825 1825 
L 1825 125 
L 1325 125 
L 1325 2150 
Q 1325 2300 1275 2400 
Q 1225 2500 1075 2500 
Q 900 2500 750 2312 
Q 600 2125 600 1825 
L 600 125 
L 100 125 
L 100 2925 
L 600 2925 
L 600 2550 
Q 725 2750 900 2862 
Q 1075 2975 1275 2975 
Q 1475 2975 1612 2862 
Q 1750 2750 1800 2550 
Q 1925 2750 2087 2862 
Q 2250 2975 2450 2975 
Q 2750 2975 2900 2812 
Q 3050 2650 3050 2350 
L 3050 125 
z
" transform="scale(0.015625)"/>
       <path id="SimHei-65" d="M 2850 1075 
Q 2800 625 2450 350 
Q 2100 75 1625 75 
Q 1025 75 637 462 
Q 250 850 250 1525 
Q 250 2200 637 2587 
Q 1025 2975 1625 2975 
Q 2150 2975 2487 2637 
Q 2825 2300 2825 1525 
L 800 1525 
Q 800 975 1037 750 
Q 1275 525 1625 525 
Q 1900 525 2075 662 
Q 2250 800 2300 1075 
L 2850 1075 
z
M 2250 1925 
Q 2200 2275 2025 2412 
Q 1850 2550 1575 2550 
Q 1325 2550 1125 2412 
Q 925 2275 825 1925 
L 2250 1925 
z
" transform="scale(0.015625)"/>
       <path id="SimHei-20" transform="scale(0.015625)"/>
       <path id="SimHei-53" d="M 2900 1325 
Q 2900 750 2537 412 
Q 2175 75 1550 75 
Q 925 75 575 425 
Q 225 775 225 1300 
L 225 1475 
L 800 1475 
L 800 1325 
Q 800 950 1025 750 
Q 1250 550 1550 550 
Q 1950 550 2137 762 
Q 2325 975 2325 1275 
Q 2325 1525 2100 1737 
Q 1875 1950 1450 2125 
Q 850 2350 587 2625 
Q 325 2900 325 3275 
Q 325 3800 687 4125 
Q 1050 4450 1550 4450 
Q 2200 4450 2487 4062 
Q 2775 3675 2775 3225 
L 2200 3225 
Q 2225 3500 2050 3725 
Q 1875 3950 1550 3950 
Q 1250 3950 1075 3787 
Q 900 3625 900 3350 
Q 900 3125 1037 2962 
Q 1175 2800 1750 2575 
Q 2300 2350 2600 2037 
Q 2900 1725 2900 1325 
z
" transform="scale(0.015625)"/>
       <path id="SimHei-74" d="M 2750 200 
Q 2625 150 2462 112 
Q 2300 75 2025 75 
Q 1575 75 1300 325 
Q 1025 575 1025 1025 
L 1025 2525 
L 175 2525 
L 175 2925 
L 1025 2925 
L 1025 3900 
L 1525 3900 
L 1525 2925 
L 2550 2925 
L 2550 2525 
L 1525 2525 
L 1525 1000 
Q 1525 800 1625 662 
Q 1725 525 2000 525 
Q 2275 525 2450 575 
Q 2625 625 2750 700 
L 2750 200 
z
" transform="scale(0.015625)"/>
       <path id="SimHei-70" d="M 2825 1525 
Q 2825 800 2475 425 
Q 2125 50 1625 50 
Q 1350 50 1150 162 
Q 950 275 800 500 
L 800 -800 
L 300 -800 
L 300 2925 
L 800 2925 
L 800 2550 
Q 950 2775 1150 2875 
Q 1350 2975 1625 2975 
Q 2125 2975 2475 2612 
Q 2825 2250 2825 1525 
z
M 2275 1525 
Q 2275 2000 2087 2262 
Q 1900 2525 1525 2525 
Q 1225 2525 1012 2262 
Q 800 2000 800 1525 
Q 800 1050 1012 775 
Q 1225 500 1525 500 
Q 1900 500 2087 775 
Q 2275 1050 2275 1525 
z
" transform="scale(0.015625)"/>
       <path id="SimHei-73" d="M 2750 900 
Q 2750 500 2437 287 
Q 2125 75 1650 75 
Q 1050 75 725 312 
Q 400 550 400 1000 
L 900 1000 
Q 900 700 1112 600 
Q 1325 500 1625 500 
Q 1925 500 2075 612 
Q 2225 725 2225 900 
Q 2225 1025 2100 1150 
Q 1975 1275 1475 1350 
Q 900 1425 687 1637 
Q 475 1850 475 2200 
Q 475 2500 762 2737 
Q 1050 2975 1600 2975 
Q 2100 2975 2387 2750 
Q 2675 2525 2675 2150 
L 2175 2150 
Q 2175 2375 2012 2462 
Q 1850 2550 1600 2550 
Q 1275 2550 1137 2437 
Q 1000 2325 1000 2175 
Q 1000 2000 1125 1900 
Q 1250 1800 1650 1750 
Q 2300 1650 2525 1437 
Q 2750 1225 2750 900 
z
" transform="scale(0.015625)"/>
      </defs>
      <use xlink:href="#SimHei-54"/>
      <use xlink:href="#SimHei-69" x="50"/>
      <use xlink:href="#SimHei-6d" x="100"/>
      <use xlink:href="#SimHei-65" x="150"/>
      <use xlink:href="#SimHei-20" x="200"/>
      <use xlink:href="#SimHei-53" x="250"/>
      <use xlink:href="#SimHei-74" x="300"/>
      <use xlink:href="#SimHei-65" x="350"/>
      <use xlink:href="#SimHei-70" x="400"/>
      <use xlink:href="#SimHei-73" x="450"/>
     </g>
    </g>
   </g>
   <g id="matplotlib.axis_2">
    <g id="ytick_1">
     <g id="line2d_8">
      <defs>
       <path id="m9cd263de35" d="M 0 0 
L -3.5 0 
" style="stroke: #000000; stroke-width: 0.8"/>
      </defs>
      <g>
       <use xlink:href="#m9cd263de35" x="110.18" y="345.970796" style="stroke: #000000; stroke-width: 0.8"/>
      </g>
     </g>
     <g id="text_9">
      <!-- 0 -->
      <g transform="translate(89.18 355.595796) scale(0.28 -0.28)">
       <use xlink:href="#SimHei-30"/>
      </g>
     </g>
    </g>
    <g id="ytick_2">
     <g id="line2d_9">
      <g>
       <use xlink:href="#m9cd263de35" x="110.18" y="302.024773" style="stroke: #000000; stroke-width: 0.8"/>
      </g>
     </g>
     <g id="text_10">
      <!-- 500 -->
      <g transform="translate(61.18 311.649773) scale(0.28 -0.28)">
       <use xlink:href="#SimHei-35"/>
       <use xlink:href="#SimHei-30" x="50"/>
       <use xlink:href="#SimHei-30" x="100"/>
      </g>
     </g>
    </g>
    <g id="ytick_3">
     <g id="line2d_10">
      <g>
       <use xlink:href="#m9cd263de35" x="110.18" y="258.078751" style="stroke: #000000; stroke-width: 0.8"/>
      </g>
     </g>
     <g id="text_11">
      <!-- 1000 -->
      <g transform="translate(47.18 267.703751) scale(0.28 -0.28)">
       <use xlink:href="#SimHei-31"/>
       <use xlink:href="#SimHei-30" x="50"/>
       <use xlink:href="#SimHei-30" x="100"/>
       <use xlink:href="#SimHei-30" x="150"/>
      </g>
     </g>
    </g>
    <g id="ytick_4">
     <g id="line2d_11">
      <g>
       <use xlink:href="#m9cd263de35" x="110.18" y="214.132729" style="stroke: #000000; stroke-width: 0.8"/>
      </g>
     </g>
     <g id="text_12">
      <!-- 1500 -->
      <g transform="translate(47.18 223.757729) scale(0.28 -0.28)">
       <use xlink:href="#SimHei-31"/>
       <use xlink:href="#SimHei-35" x="50"/>
       <use xlink:href="#SimHei-30" x="100"/>
       <use xlink:href="#SimHei-30" x="150"/>
      </g>
     </g>
    </g>
    <g id="ytick_5">
     <g id="line2d_12">
      <g>
       <use xlink:href="#m9cd263de35" x="110.18" y="170.186707" style="stroke: #000000; stroke-width: 0.8"/>
      </g>
     </g>
     <g id="text_13">
      <!-- 2000 -->
      <g transform="translate(47.18 179.811707) scale(0.28 -0.28)">
       <use xlink:href="#SimHei-32"/>
       <use xlink:href="#SimHei-30" x="50"/>
       <use xlink:href="#SimHei-30" x="100"/>
       <use xlink:href="#SimHei-30" x="150"/>
      </g>
     </g>
    </g>
    <g id="ytick_6">
     <g id="line2d_13">
      <g>
       <use xlink:href="#m9cd263de35" x="110.18" y="126.240684" style="stroke: #000000; stroke-width: 0.8"/>
      </g>
     </g>
     <g id="text_14">
      <!-- 2500 -->
      <g transform="translate(47.18 135.865684) scale(0.28 -0.28)">
       <use xlink:href="#SimHei-32"/>
       <use xlink:href="#SimHei-35" x="50"/>
       <use xlink:href="#SimHei-30" x="100"/>
       <use xlink:href="#SimHei-30" x="150"/>
      </g>
     </g>
    </g>
    <g id="ytick_7">
     <g id="line2d_14">
      <g>
       <use xlink:href="#m9cd263de35" x="110.18" y="82.294662" style="stroke: #000000; stroke-width: 0.8"/>
      </g>
     </g>
     <g id="text_15">
      <!-- 3000 -->
      <g transform="translate(47.18 91.919662) scale(0.28 -0.28)">
       <use xlink:href="#SimHei-33"/>
       <use xlink:href="#SimHei-30" x="50"/>
       <use xlink:href="#SimHei-30" x="100"/>
       <use xlink:href="#SimHei-30" x="150"/>
      </g>
     </g>
    </g>
    <g id="ytick_8">
     <g id="line2d_15">
      <g>
       <use xlink:href="#m9cd263de35" x="110.18" y="38.34864" style="stroke: #000000; stroke-width: 0.8"/>
      </g>
     </g>
     <g id="text_16">
      <!-- 3500 -->
      <g transform="translate(47.18 47.97364) scale(0.28 -0.28)">
       <use xlink:href="#SimHei-33"/>
       <use xlink:href="#SimHei-35" x="50"/>
       <use xlink:href="#SimHei-30" x="100"/>
       <use xlink:href="#SimHei-30" x="150"/>
      </g>
     </g>
    </g>
    <g id="text_17">
     <!-- $m_{vct}$ -->
     <g transform="translate(35.98 224.38) rotate(-90) scale(0.4 -0.4)">
      <defs>
       <path id="DejaVuSans-Oblique-6d" d="M 5747 2113 
L 5338 0 
L 4763 0 
L 5166 2094 
Q 5191 2228 5203 2325 
Q 5216 2422 5216 2491 
Q 5216 2772 5059 2928 
Q 4903 3084 4622 3084 
Q 4203 3084 3875 2770 
Q 3547 2456 3450 1953 
L 3066 0 
L 2491 0 
L 2900 2094 
Q 2925 2209 2937 2307 
Q 2950 2406 2950 2484 
Q 2950 2769 2794 2926 
Q 2638 3084 2363 3084 
Q 1938 3084 1609 2770 
Q 1281 2456 1184 1953 
L 800 0 
L 225 0 
L 909 3500 
L 1484 3500 
L 1375 2956 
Q 1609 3263 1923 3423 
Q 2238 3584 2597 3584 
Q 2978 3584 3223 3384 
Q 3469 3184 3519 2828 
Q 3781 3197 4126 3390 
Q 4472 3584 4856 3584 
Q 5306 3584 5551 3325 
Q 5797 3066 5797 2591 
Q 5797 2488 5784 2364 
Q 5772 2241 5747 2113 
z
" transform="scale(0.015625)"/>
       <path id="DejaVuSans-Oblique-76" d="M 459 3500 
L 1069 3500 
L 1581 525 
L 3256 3500 
L 3866 3500 
L 1875 0 
L 1100 0 
L 459 3500 
z
" transform="scale(0.015625)"/>
       <path id="DejaVuSans-Oblique-63" d="M 3431 3366 
L 3316 2797 
Q 3109 2947 2876 3022 
Q 2644 3097 2394 3097 
Q 2119 3097 1870 3000 
Q 1622 2903 1453 2725 
Q 1184 2453 1037 2087 
Q 891 1722 891 1331 
Q 891 859 1127 628 
Q 1363 397 1844 397 
Q 2081 397 2348 469 
Q 2616 541 2906 684 
L 2797 116 
Q 2547 13 2283 -39 
Q 2019 -91 1741 -91 
Q 1044 -91 669 257 
Q 294 606 294 1253 
Q 294 1797 489 2255 
Q 684 2713 1069 3078 
Q 1331 3328 1684 3456 
Q 2038 3584 2456 3584 
Q 2700 3584 2940 3529 
Q 3181 3475 3431 3366 
z
" transform="scale(0.015625)"/>
       <path id="DejaVuSans-Oblique-74" d="M 2706 3500 
L 2619 3053 
L 1472 3053 
L 1100 1153 
Q 1081 1047 1072 975 
Q 1063 903 1063 863 
Q 1063 663 1183 572 
Q 1303 481 1569 481 
L 2150 481 
L 2053 0 
L 1503 0 
Q 991 0 739 200 
Q 488 400 488 806 
Q 488 878 497 964 
Q 506 1050 525 1153 
L 897 3053 
L 409 3053 
L 500 3500 
L 978 3500 
L 1172 4494 
L 1747 4494 
L 1556 3500 
L 2706 3500 
z
" transform="scale(0.015625)"/>
      </defs>
      <use xlink:href="#DejaVuSans-Oblique-6d"/>
      <use xlink:href="#DejaVuSans-Oblique-76" transform="translate(97.412109 -16.40625) scale(0.7)"/>
      <use xlink:href="#DejaVuSans-Oblique-63" transform="translate(138.837891 -16.40625) scale(0.7)"/>
      <use xlink:href="#DejaVuSans-Oblique-74" transform="translate(177.324219 -16.40625) scale(0.7)"/>
     </g>
    </g>
   </g>
   <g id="line2d_16">
    <path d="M 143.130607 345.970796 
L 802.142744 345.970796 
L 802.142744 345.970796 
" clip-path="url(#pe844af4049)" style="fill: none; stroke: #0000ff; stroke-width: 3; stroke-linecap: square"/>
   </g>
   <g id="line2d_17">
    <path d="M 143.130607 345.970796 
L 276.31076 345.882904 
L 296.976646 345.531335 
L 308.457694 345.003983 
L 317.642532 344.359441 
L 331.419789 343.099655 
L 345.197046 341.28322 
L 358.974303 339.115216 
L 381.936399 334.369046 
L 388.825027 332.464718 
L 393.417447 331.058445 
L 407.194704 326.458762 
L 411.787123 325.169678 
L 416.379542 323.675514 
L 423.268171 321.06805 
L 437.045428 315.384364 
L 446.230266 311.136249 
L 453.118895 308.03073 
L 460.007523 304.866616 
L 464.599942 302.815802 
L 482.969619 295.43287 
L 508.227923 284.241283 
L 519.708971 279.436518 
L 524.30139 277.327109 
L 531.190019 274.895429 
L 540.374857 271.907099 
L 544.967276 270.618016 
L 549.559695 269.504717 
L 551.855905 268.977365 
L 556.448324 267.776173 
L 579.410419 261.858109 
L 586.299048 259.807295 
L 593.187676 257.902967 
L 604.668724 254.504475 
L 609.261143 252.89312 
L 613.853562 251.545442 
L 618.445981 249.992683 
L 636.815658 243.371482 
L 652.889124 236.955363 
L 662.073963 232.765842 
L 675.85122 226.349723 
L 705.701944 212.90224 
L 728.664039 201.945032 
L 737.848877 197.169564 
L 749.329925 191.134311 
L 763.107182 184.015055 
L 767.699601 181.817754 
L 783.773068 174.727796 
L 802.142744 166.963998 
L 802.142744 166.963998 
" clip-path="url(#pe844af4049)" style="fill: none; stroke: #008000; stroke-width: 3; stroke-linecap: square"/>
   </g>
   <g id="line2d_18">
    <path d="M 143.130607 345.970796 
L 264.829712 345.882904 
L 278.60697 345.472741 
L 290.088017 344.798902 
L 301.569065 344.007873 
L 308.457694 343.304737 
L 313.050113 342.689493 
L 319.938741 341.459004 
L 331.419789 339.378892 
L 340.604627 337.269483 
L 345.197046 335.951102 
L 352.085675 333.695207 
L 358.974303 331.439311 
L 368.159142 328.538873 
L 375.04777 326.25368 
L 381.936399 323.997784 
L 388.825027 321.800483 
L 398.009866 318.431288 
L 409.490913 313.831605 
L 420.971961 308.587379 
L 430.156799 303.899804 
L 437.045428 300.384122 
L 443.934056 296.956332 
L 455.415104 290.628105 
L 492.154457 270.823098 
L 496.746876 268.215634 
L 517.412762 256.731073 
L 522.005181 254.328691 
L 528.893809 251.076685 
L 549.559695 241.467155 
L 556.448324 238.127257 
L 561.040743 236.193632 
L 565.633162 234.054926 
L 570.225581 231.886922 
L 586.299048 223.50788 
L 590.891467 221.281282 
L 597.780095 217.619113 
L 604.668724 214.015539 
L 609.261143 211.495968 
L 636.815658 195.587507 
L 641.408077 192.745665 
L 646.000496 189.845227 
L 655.185334 183.399811 
L 666.666382 175.284445 
L 671.258801 172.003142 
L 678.147429 166.817512 
L 687.332267 159.581067 
L 701.109525 148.418777 
L 705.701944 144.639419 
L 710.294363 140.889358 
L 714.886782 136.934216 
L 721.775411 130.898963 
L 728.664039 124.834412 
L 737.848877 116.338181 
L 749.329925 104.97081 
L 763.107182 90.790893 
L 776.884439 75.585569 
L 788.365487 62.401763 
L 802.142744 46.229627 
L 802.142744 46.229627 
" clip-path="url(#pe844af4049)" style="fill: none; stroke: #ff0000; stroke-width: 3; stroke-linecap: square"/>
   </g>
   <g id="line2d_19">
    <path d="M 143.130607 345.970796 
L 315.346322 345.882904 
L 349.789465 345.355551 
L 368.159142 344.974686 
L 441.637847 344.125063 
L 460.007523 344.037171 
L 480.673409 343.861386 
L 499.043085 343.773494 
L 508.227923 343.568413 
L 538.078647 342.71879 
L 551.855905 342.103546 
L 584.002838 340.785165 
L 595.483886 339.818352 
L 634.519448 336.244076 
L 652.889124 334.310451 
L 662.073963 333.226449 
L 682.739848 331.175635 
L 694.220896 330.384606 
L 712.590572 329.154118 
L 724.07162 328.040818 
L 744.737506 326.546654 
L 753.922344 325.872815 
L 802.142744 322.152052 
L 802.142744 322.152052 
" clip-path="url(#pe844af4049)" style="fill: none; stroke: #ffa500; stroke-width: 3; stroke-linecap: square"/>
   </g>
   <g id="patch_3">
    <path d="M 110.18 354.76 
L 110.18 10.8 
" style="fill: none; stroke: #000000; stroke-width: 0.8; stroke-linejoin: miter; stroke-linecap: square"/>
   </g>
   <g id="patch_4">
    <path d="M 835.093351 354.76 
L 835.093351 10.8 
" style="fill: none; stroke: #000000; stroke-width: 0.8; stroke-linejoin: miter; stroke-linecap: square"/>
   </g>
   <g id="patch_5">
    <path d="M 110.18 354.76 
L 835.093351 354.76 
" style="fill: none; stroke: #000000; stroke-width: 0.8; stroke-linejoin: miter; stroke-linecap: square"/>
   </g>
   <g id="patch_6">
    <path d="M 110.18 10.8 
L 835.093351 10.8 
" style="fill: none; stroke: #000000; stroke-width: 0.8; stroke-linejoin: miter; stroke-linecap: square"/>
   </g>
  </g>
 </g>
 <defs>
  <clipPath id="pe844af4049">
   <rect x="110.18" y="10.8" width="724.913351" height="343.96"/>
  </clipPath>
 </defs>
</svg>
