<?xml version="1.0" encoding="utf-8" standalone="no"?>
<!DOCTYPE svg PUBLIC "-//W3C//DTD SVG 1.1//EN"
  "http://www.w3.org/Graphics/SVG/1.1/DTD/svg11.dtd">
<svg xmlns:xlink="http://www.w3.org/1999/xlink" width="720pt" height="432pt" viewBox="0 0 720 432" xmlns="http://www.w3.org/2000/svg" version="1.1">
 <metadata>
  <rdf:RDF xmlns:dc="http://purl.org/dc/elements/1.1/" xmlns:cc="http://creativecommons.org/ns#" xmlns:rdf="http://www.w3.org/1999/02/22-rdf-syntax-ns#">
   <cc:Work>
    <dc:type rdf:resource="http://purl.org/dc/dcmitype/StillImage"/>
    <dc:date>2025-06-19T21:18:17.811701</dc:date>
    <dc:format>image/svg+xml</dc:format>
    <dc:creator>
     <cc:Agent>
      <dc:title>Matplotlib v3.7.1, https://matplotlib.org/</dc:title>
     </cc:Agent>
    </dc:creator>
   </cc:Work>
  </rdf:RDF>
 </metadata>
 <defs>
  <style type="text/css">*{stroke-linejoin: round; stroke-linecap: butt}</style>
 </defs>
 <g id="figure_1">
  <g id="patch_1">
   <path d="M 0 432 
L 720 432 
L 720 0 
L 0 0 
z
" style="fill: #ffffff"/>
  </g>
  <g id="axes_1">
   <g id="patch_2">
    <path d="M 86.24 351.16 
L 709.2 351.16 
L 709.2 10.8 
L 86.24 10.8 
z
" style="fill: #ffffff"/>
   </g>
   <g id="PolyCollection_1">
    <defs>
     <path id="m23a764c10f" d="M 114.556364 -377.841025 
L 114.556364 -371.368538 
L 118.331879 -369.44187 
L 122.107394 -357.784078 
L 125.882909 -376.748654 
L 129.658424 -362.616869 
L 133.433939 -360.155851 
L 137.209455 -363.300392 
L 140.98497 -356.427137 
L 144.760485 -362.145336 
L 148.536 -328.183963 
L 152.311515 -305.875468 
L 156.08703 -302.999838 
L 159.862545 -294.286155 
L 163.638061 -284.03168 
L 167.413576 -274.738356 
L 171.189091 -269.583856 
L 174.964606 -267.459589 
L 178.740121 -255.191035 
L 182.515636 -241.458554 
L 186.291152 -248.882366 
L 190.066667 -253.086361 
L 193.842182 -245.850344 
L 197.617697 -223.926928 
L 201.393212 -238.830914 
L 205.168727 -242.592818 
L 208.944242 -223.000384 
L 212.719758 -239.935959 
L 216.495273 -255.072278 
L 220.270788 -229.849665 
L 224.046303 -237.824298 
L 227.821818 -228.733793 
L 231.597333 -229.040524 
L 235.372848 -231.9925 
L 239.148364 -240.192584 
L 242.923879 -235.79413 
L 246.699394 -239.2203 
L 250.474909 -232.575559 
L 254.250424 -221.624116 
L 258.025939 -222.655462 
L 261.801455 -238.01635 
L 265.57697 -231.039626 
L 269.352485 -231.387972 
L 273.128 -229.040287 
L 276.903515 -226.671895 
L 280.67903 -229.837862 
L 284.454545 -214.209715 
L 288.230061 -216.596096 
L 292.005576 -211.241652 
L 295.781091 -208.089363 
L 299.556606 -214.812352 
L 303.332121 -218.455941 
L 307.107636 -219.143702 
L 310.883152 -225.461615 
L 314.658667 -211.003969 
L 318.434182 -201.606657 
L 322.209697 -200.927862 
L 325.985212 -207.096302 
L 329.760727 -204.14914 
L 333.536242 -190.716501 
L 337.311758 -203.809606 
L 341.087273 -198.302188 
L 344.862788 -204.962839 
L 348.638303 -207.78514 
L 352.413818 -201.555915 
L 356.189333 -208.7674 
L 359.964848 -218.553251 
L 363.740364 -208.333614 
L 367.515879 -201.44006 
L 371.291394 -201.785515 
L 375.066909 -206.748084 
L 378.842424 -209.563417 
L 382.617939 -205.112683 
L 386.393455 -195.936743 
L 390.16897 -205.695937 
L 393.944485 -197.194633 
L 397.72 -204.719853 
L 401.495515 -192.807376 
L 405.27103 -203.813571 
L 409.046545 -204.254889 
L 412.822061 -206.679924 
L 416.597576 -200.716 
L 420.373091 -194.66659 
L 424.148606 -197.808801 
L 427.924121 -201.976004 
L 431.699636 -192.808321 
L 435.475152 -192.484273 
L 439.250667 -191.831928 
L 443.026182 -201.530599 
L 446.801697 -187.309453 
L 450.577212 -191.148153 
L 454.352727 -189.692287 
L 458.128242 -192.720268 
L 461.903758 -186.730362 
L 465.679273 -192.281682 
L 469.454788 -185.555663 
L 473.230303 -188.392217 
L 477.005818 -190.50294 
L 480.781333 -181.221179 
L 484.556848 -161.059196 
L 488.332364 -153.203994 
L 492.107879 -147.987084 
L 495.883394 -136.274682 
L 499.658909 -135.728376 
L 503.434424 -139.778327 
L 507.209939 -148.437951 
L 510.985455 -151.625395 
L 514.76097 -149.44227 
L 518.536485 -137.52764 
L 522.312 -118.20013 
L 526.087515 -127.106831 
L 529.86303 -137.38101 
L 533.638545 -134.427684 
L 537.414061 -121.278943 
L 541.189576 -117.959283 
L 544.965091 -107.71016 
L 548.740606 -117.862663 
L 552.516121 -110.982307 
L 556.291636 -111.208203 
L 560.067152 -119.74299 
L 563.842667 -119.254354 
L 567.618182 -113.835073 
L 571.393697 -127.157705 
L 575.169212 -133.873613 
L 578.944727 -125.401924 
L 582.720242 -126.612004 
L 586.495758 -116.783122 
L 590.271273 -125.929926 
L 594.046788 -115.648063 
L 597.822303 -106.636448 
L 601.597818 -99.478501 
L 605.373333 -107.843479 
L 609.148848 -115.416995 
L 612.924364 -113.414729 
L 616.699879 -106.324705 
L 620.475394 -102.39613 
L 624.250909 -110.524528 
L 628.026424 -112.220394 
L 631.801939 -119.205944 
L 635.577455 -122.37903 
L 639.35297 -124.039616 
L 643.128485 -115.054741 
L 646.904 -106.728096 
L 650.679515 -106.673398 
L 654.45503 -110.130971 
L 658.230545 -105.156212 
L 662.006061 -111.823505 
L 665.781576 -107.01702 
L 669.557091 -118.488778 
L 673.332606 -96.310909 
L 677.108121 -103.807825 
L 680.883636 -102.796709 
L 680.883636 -120.29309 
L 680.883636 -120.29309 
L 677.108121 -126.291986 
L 673.332606 -133.788902 
L 669.557091 -135.371281 
L 665.781576 -140.570923 
L 662.006061 -145.061926 
L 658.230545 -133.134243 
L 654.45503 -141.072662 
L 650.679515 -135.085168 
L 646.904 -132.005096 
L 643.128485 -121.243396 
L 639.35297 -130.632128 
L 635.577455 -126.389547 
L 631.801939 -128.381999 
L 628.026424 -136.474393 
L 624.250909 -132.193302 
L 620.475394 -138.255592 
L 616.699879 -152.700624 
L 612.924364 -152.399242 
L 609.148848 -156.447722 
L 605.373333 -178.188839 
L 601.597818 -168.991896 
L 597.822303 -165.08069 
L 594.046788 -156.438023 
L 590.271273 -149.402903 
L 586.495758 -155.745702 
L 582.720242 -150.565564 
L 578.944727 -149.783325 
L 575.169212 -147.362382 
L 571.393697 -167.507995 
L 567.618182 -177.952833 
L 563.842667 -173.419028 
L 560.067152 -181.342404 
L 556.291636 -164.272204 
L 552.516121 -190.840984 
L 548.740606 -197.316542 
L 544.965091 -188.72649 
L 541.189576 -199.212242 
L 537.414061 -200.984063 
L 533.638545 -197.280389 
L 529.86303 -206.871294 
L 526.087515 -200.395236 
L 522.312 -205.907615 
L 518.536485 -207.24119 
L 514.76097 -214.142906 
L 510.985455 -217.494 
L 507.209939 -212.490799 
L 503.434424 -221.962108 
L 499.658909 -204.686868 
L 495.883394 -212.478787 
L 492.107879 -221.353679 
L 488.332364 -232.001531 
L 484.556848 -237.280876 
L 480.781333 -217.414051 
L 477.005818 -222.595049 
L 473.230303 -216.588917 
L 469.454788 -234.773705 
L 465.679273 -225.022314 
L 461.903758 -232.270794 
L 458.128242 -229.232472 
L 454.352727 -222.962964 
L 450.577212 -215.161194 
L 446.801697 -232.429599 
L 443.026182 -226.694255 
L 439.250667 -228.64502 
L 435.475152 -242.898171 
L 431.699636 -227.004521 
L 427.924121 -233.849178 
L 424.148606 -236.466799 
L 420.373091 -235.255425 
L 416.597576 -238.724872 
L 412.822061 -232.613369 
L 409.046545 -225.00302 
L 405.27103 -235.701091 
L 401.495515 -236.450533 
L 397.72 -240.919344 
L 393.944485 -241.434553 
L 390.16897 -246.436744 
L 386.393455 -235.092116 
L 382.617939 -228.277443 
L 378.842424 -243.012002 
L 375.066909 -230.110152 
L 371.291394 -233.375561 
L 367.515879 -248.331354 
L 363.740364 -227.639147 
L 359.964848 -243.541025 
L 356.189333 -247.423708 
L 352.413818 -239.582117 
L 348.638303 -241.912485 
L 344.862788 -234.699402 
L 341.087273 -231.1033 
L 337.311758 -232.605893 
L 333.536242 -236.032561 
L 329.760727 -234.701415 
L 325.985212 -234.04173 
L 322.209697 -218.884979 
L 318.434182 -225.954091 
L 314.658667 -228.87964 
L 310.883152 -247.110781 
L 307.107636 -235.866773 
L 303.332121 -220.763562 
L 299.556606 -232.524005 
L 295.781091 -216.077064 
L 292.005576 -243.621243 
L 288.230061 -232.732581 
L 284.454545 -236.373385 
L 280.67903 -242.365587 
L 276.903515 -231.659111 
L 273.128 -231.209249 
L 269.352485 -249.670227 
L 265.57697 -245.000881 
L 261.801455 -248.133331 
L 258.025939 -225.71395 
L 254.250424 -248.955962 
L 250.474909 -244.498002 
L 246.699394 -248.036225 
L 242.923879 -254.413979 
L 239.148364 -267.651236 
L 235.372848 -249.434648 
L 231.597333 -250.099147 
L 227.821818 -252.176827 
L 224.046303 -244.119376 
L 220.270788 -241.911047 
L 216.495273 -260.814607 
L 212.719758 -248.132252 
L 208.944242 -252.154649 
L 205.168727 -250.566874 
L 201.393212 -249.458665 
L 197.617697 -229.533966 
L 193.842182 -253.950411 
L 190.066667 -262.579155 
L 186.291152 -263.979146 
L 182.515636 -256.054724 
L 178.740121 -280.545249 
L 174.964606 -288.052305 
L 171.189091 -324.003465 
L 167.413576 -327.556137 
L 163.638061 -352.870129 
L 159.862545 -368.442011 
L 156.08703 -352.05421 
L 152.311515 -398.248656 
L 148.536 -382.507435 
L 144.760485 -375.257893 
L 140.98497 -378.688614 
L 137.209455 -390.853073 
L 133.433939 -383.076755 
L 129.658424 -379.066155 
L 125.882909 -386.333351 
L 122.107394 -388.916639 
L 118.331879 -382.128959 
L 114.556364 -377.841025 
z
" style="stroke: #0000ff; stroke-opacity: 0.3"/>
    </defs>
    <g clip-path="url(#pa36abacbbb)">
     <use xlink:href="#m23a764c10f" x="0" y="432" style="fill: #0000ff; fill-opacity: 0.3; stroke: #0000ff; stroke-opacity: 0.3"/>
    </g>
   </g>
   <g id="PolyCollection_2">
    <defs>
     <path id="m194800f2e2" d="M 114.556364 -395.500175 
L 114.556364 -386.545754 
L 118.331879 -359.94247 
L 122.107394 -369.338623 
L 125.882909 -358.569331 
L 129.658424 -366.079587 
L 133.433939 -373.010799 
L 137.209455 -366.054422 
L 140.98497 -374.265664 
L 144.760485 -374.218858 
L 148.536 -364.488132 
L 152.311515 -373.095653 
L 156.08703 -375.219969 
L 159.862545 -359.437771 
L 163.638061 -361.973745 
L 167.413576 -330.937409 
L 171.189091 -320.98324 
L 174.964606 -303.484447 
L 178.740121 -286.804196 
L 182.515636 -262.21819 
L 186.291152 -264.518984 
L 190.066667 -262.650541 
L 193.842182 -246.333729 
L 197.617697 -253.16043 
L 201.393212 -260.404938 
L 205.168727 -248.690256 
L 208.944242 -259.981294 
L 212.719758 -245.568842 
L 216.495273 -242.777683 
L 220.270788 -246.403761 
L 224.046303 -253.856233 
L 227.821818 -236.4873 
L 231.597333 -237.132765 
L 235.372848 -241.172708 
L 239.148364 -242.18639 
L 242.923879 -242.713712 
L 246.699394 -237.217621 
L 250.474909 -236.984703 
L 254.250424 -213.539566 
L 258.025939 -244.65216 
L 261.801455 -215.588502 
L 265.57697 -229.300289 
L 269.352485 -223.207352 
L 273.128 -208.101187 
L 276.903515 -233.18487 
L 280.67903 -224.498319 
L 284.454545 -223.756524 
L 288.230061 -213.116589 
L 292.005576 -204.054645 
L 295.781091 -218.223495 
L 299.556606 -224.994052 
L 303.332121 -223.801894 
L 307.107636 -210.712658 
L 310.883152 -221.538328 
L 314.658667 -197.643159 
L 318.434182 -217.593014 
L 322.209697 -228.417442 
L 325.985212 -211.516634 
L 329.760727 -217.928432 
L 333.536242 -204.351809 
L 337.311758 -224.721666 
L 341.087273 -198.890782 
L 344.862788 -234.056505 
L 348.638303 -213.065527 
L 352.413818 -221.366753 
L 356.189333 -219.625542 
L 359.964848 -210.91632 
L 363.740364 -229.577634 
L 367.515879 -212.110295 
L 371.291394 -222.081088 
L 375.066909 -234.253838 
L 378.842424 -233.373315 
L 382.617939 -244.551864 
L 386.393455 -235.974315 
L 390.16897 -234.889626 
L 393.944485 -227.064032 
L 397.72 -225.723251 
L 401.495515 -225.394191 
L 405.27103 -210.367556 
L 409.046545 -213.728566 
L 412.822061 -201.194805 
L 416.597576 -206.639779 
L 420.373091 -223.099478 
L 424.148606 -219.64501 
L 427.924121 -231.174696 
L 431.699636 -207.732358 
L 435.475152 -201.159338 
L 439.250667 -207.666246 
L 443.026182 -232.701979 
L 446.801697 -200.50481 
L 450.577212 -211.426635 
L 454.352727 -197.716591 
L 458.128242 -201.684796 
L 461.903758 -209.79494 
L 465.679273 -207.693771 
L 469.454788 -211.500363 
L 473.230303 -214.811686 
L 477.005818 -215.665377 
L 480.781333 -212.412502 
L 484.556848 -217.695846 
L 488.332364 -224.488458 
L 492.107879 -213.094645 
L 495.883394 -210.015228 
L 499.658909 -216.767727 
L 503.434424 -221.124803 
L 507.209939 -225.203711 
L 510.985455 -221.585066 
L 514.76097 -219.66701 
L 518.536485 -229.18034 
L 522.312 -216.822916 
L 526.087515 -214.101407 
L 529.86303 -220.566352 
L 533.638545 -211.861262 
L 537.414061 -221.829188 
L 541.189576 -217.618404 
L 544.965091 -225.179727 
L 548.740606 -235.845456 
L 552.516121 -214.517689 
L 556.291636 -231.222581 
L 560.067152 -230.069174 
L 563.842667 -231.30331 
L 567.618182 -228.146341 
L 571.393697 -228.134327 
L 575.169212 -232.47631 
L 578.944727 -211.334426 
L 582.720242 -203.479766 
L 586.495758 -223.371446 
L 590.271273 -220.076439 
L 594.046788 -210.736858 
L 597.822303 -221.711692 
L 601.597818 -238.955592 
L 605.373333 -222.58332 
L 609.148848 -212.439951 
L 612.924364 -217.155467 
L 616.699879 -204.170288 
L 620.475394 -205.080881 
L 624.250909 -228.089503 
L 628.026424 -225.160606 
L 631.801939 -220.697517 
L 635.577455 -219.891786 
L 639.35297 -216.72614 
L 643.128485 -241.805409 
L 646.904 -241.723494 
L 650.679515 -218.044359 
L 654.45503 -220.325335 
L 658.230545 -219.925641 
L 662.006061 -239.918941 
L 665.781576 -224.13966 
L 669.557091 -226.539174 
L 673.332606 -205.702779 
L 677.108121 -227.228199 
L 680.883636 -205.570149 
L 680.883636 -234.092092 
L 680.883636 -234.092092 
L 677.108121 -234.497129 
L 673.332606 -245.987164 
L 669.557091 -262.78346 
L 665.781576 -241.348936 
L 662.006061 -247.485163 
L 658.230545 -254.639074 
L 654.45503 -247.008001 
L 650.679515 -261.538048 
L 646.904 -257.339365 
L 643.128485 -247.443435 
L 639.35297 -249.721721 
L 635.577455 -266.995791 
L 631.801939 -271.945648 
L 628.026424 -279.067524 
L 624.250909 -283.886534 
L 620.475394 -300.62304 
L 616.699879 -290.981723 
L 612.924364 -258.589882 
L 609.148848 -266.183193 
L 605.373333 -271.166689 
L 601.597818 -256.786736 
L 597.822303 -263.995251 
L 594.046788 -265.525018 
L 590.271273 -249.323005 
L 586.495758 -259.679073 
L 582.720242 -253.744397 
L 578.944727 -245.963526 
L 575.169212 -249.983891 
L 571.393697 -240.453432 
L 567.618182 -249.591327 
L 563.842667 -245.622673 
L 560.067152 -250.32492 
L 556.291636 -242.235291 
L 552.516121 -244.99395 
L 548.740606 -246.762325 
L 544.965091 -231.158961 
L 541.189576 -228.832479 
L 537.414061 -235.321185 
L 533.638545 -232.89246 
L 529.86303 -233.853806 
L 526.087515 -239.433277 
L 522.312 -229.332808 
L 518.536485 -238.890892 
L 514.76097 -242.574845 
L 510.985455 -242.575318 
L 507.209939 -237.038144 
L 503.434424 -244.142424 
L 499.658909 -248.204343 
L 495.883394 -231.049015 
L 492.107879 -230.994971 
L 488.332364 -243.804143 
L 484.556848 -248.014119 
L 480.781333 -239.49881 
L 477.005818 -234.253617 
L 473.230303 -256.21113 
L 469.454788 -246.683065 
L 465.679273 -237.871637 
L 461.903758 -232.007199 
L 458.128242 -247.939039 
L 454.352727 -248.070186 
L 450.577212 -250.298693 
L 446.801697 -246.757758 
L 443.026182 -250.274749 
L 439.250667 -233.029049 
L 435.475152 -248.095549 
L 431.699636 -244.621691 
L 427.924121 -232.690529 
L 424.148606 -243.777478 
L 420.373091 -235.231528 
L 416.597576 -242.024791 
L 412.822061 -235.81101 
L 409.046545 -243.864545 
L 405.27103 -258.220203 
L 401.495515 -256.032957 
L 397.72 -246.332618 
L 393.944485 -247.500684 
L 390.16897 -242.405305 
L 386.393455 -250.396735 
L 382.617939 -245.656245 
L 378.842424 -250.710257 
L 375.066909 -262.373965 
L 371.291394 -239.791819 
L 367.515879 -244.302182 
L 363.740364 -255.98173 
L 359.964848 -244.389314 
L 356.189333 -262.539501 
L 352.413818 -249.877431 
L 348.638303 -227.334609 
L 344.862788 -249.805699 
L 341.087273 -230.883654 
L 337.311758 -253.680108 
L 333.536242 -250.363508 
L 329.760727 -239.738468 
L 325.985212 -262.531555 
L 322.209697 -247.844434 
L 318.434182 -264.49824 
L 314.658667 -246.962984 
L 310.883152 -273.687472 
L 307.107636 -259.941209 
L 303.332121 -264.856633 
L 299.556606 -255.252462 
L 295.781091 -255.381956 
L 292.005576 -262.540795 
L 288.230061 -259.677176 
L 284.454545 -267.041901 
L 280.67903 -269.768216 
L 276.903515 -251.41523 
L 273.128 -256.059197 
L 269.352485 -262.130643 
L 265.57697 -259.210659 
L 261.801455 -249.309778 
L 258.025939 -256.10786 
L 254.250424 -254.384086 
L 250.474909 -253.887512 
L 246.699394 -260.664604 
L 242.923879 -278.043286 
L 239.148364 -274.217022 
L 235.372848 -264.900162 
L 231.597333 -270.932424 
L 227.821818 -252.761543 
L 224.046303 -263.580234 
L 220.270788 -265.867434 
L 216.495273 -278.86479 
L 212.719758 -274.376471 
L 208.944242 -274.943305 
L 205.168727 -270.369582 
L 201.393212 -293.483585 
L 197.617697 -333.121723 
L 193.842182 -362.085299 
L 190.066667 -357.648611 
L 186.291152 -359.174489 
L 182.515636 -361.99181 
L 178.740121 -368.54501 
L 174.964606 -357.694137 
L 171.189091 -361.004008 
L 167.413576 -365.06986 
L 163.638061 -380.078227 
L 159.862545 -390.435898 
L 156.08703 -379.081075 
L 152.311515 -389.543615 
L 148.536 -380.884371 
L 144.760485 -385.542615 
L 140.98497 -389.111499 
L 137.209455 -375.185865 
L 133.433939 -379.002768 
L 129.658424 -382.982396 
L 125.882909 -388.869281 
L 122.107394 -382.527364 
L 118.331879 -374.582964 
L 114.556364 -395.500175 
z
" style="stroke: #008000; stroke-opacity: 0.3"/>
    </defs>
    <g clip-path="url(#pa36abacbbb)">
     <use xlink:href="#m194800f2e2" x="0" y="432" style="fill: #008000; fill-opacity: 0.3; stroke: #008000; stroke-opacity: 0.3"/>
    </g>
   </g>
   <g id="PolyCollection_3">
    <defs>
     <path id="m0338c12cc9" d="M 114.556364 -385.876702 
L 114.556364 -367.096129 
L 118.331879 -397.960553 
L 122.107394 -379.893226 
L 125.882909 -360.953658 
L 129.658424 -382.092517 
L 133.433939 -366.257059 
L 137.209455 -386.969967 
L 140.98497 -360.749693 
L 144.760485 -364.175044 
L 148.536 -362.383765 
L 152.311515 -362.754447 
L 156.08703 -372.732736 
L 159.862545 -371.790602 
L 163.638061 -374.491977 
L 167.413576 -378.821646 
L 171.189091 -371.114761 
L 174.964606 -363.964606 
L 178.740121 -370.566462 
L 182.515636 -363.853674 
L 186.291152 -369.950205 
L 190.066667 -361.426234 
L 193.842182 -361.898981 
L 197.617697 -376.752665 
L 201.393212 -378.647683 
L 205.168727 -362.421272 
L 208.944242 -372.50612 
L 212.719758 -373.64235 
L 216.495273 -365.898315 
L 220.270788 -370.762625 
L 224.046303 -368.353324 
L 227.821818 -386.017547 
L 231.597333 -384.698946 
L 235.372848 -369.834237 
L 239.148364 -362.639708 
L 242.923879 -385.627982 
L 246.699394 -370.276659 
L 250.474909 -374.807737 
L 254.250424 -372.222533 
L 258.025939 -363.913368 
L 261.801455 -379.250891 
L 265.57697 -366.909994 
L 269.352485 -377.731553 
L 273.128 -360.019534 
L 276.903515 -367.501239 
L 280.67903 -369.665964 
L 284.454545 -379.393031 
L 288.230061 -380.970003 
L 292.005576 -361.604906 
L 295.781091 -367.906652 
L 299.556606 -370.991551 
L 303.332121 -374.646353 
L 307.107636 -372.912497 
L 310.883152 -358.405054 
L 314.658667 -362.713498 
L 318.434182 -368.184572 
L 322.209697 -369.586138 
L 325.985212 -367.614346 
L 329.760727 -373.684922 
L 333.536242 -364.335341 
L 337.311758 -370.130035 
L 341.087273 -367.503656 
L 344.862788 -360.805103 
L 348.638303 -372.68429 
L 352.413818 -348.325672 
L 356.189333 -366.535836 
L 359.964848 -366.765244 
L 363.740364 -367.630977 
L 367.515879 -348.86255 
L 371.291394 -362.849374 
L 375.066909 -368.412649 
L 378.842424 -359.95485 
L 382.617939 -367.962095 
L 386.393455 -353.363618 
L 390.16897 -363.745464 
L 393.944485 -357.906833 
L 397.72 -362.265992 
L 401.495515 -374.07715 
L 405.27103 -376.904742 
L 409.046545 -370.355004 
L 412.822061 -351.062962 
L 416.597576 -359.672201 
L 420.373091 -371.023861 
L 424.148606 -370.05864 
L 427.924121 -371.9295 
L 431.699636 -374.421119 
L 435.475152 -350.909831 
L 439.250667 -361.119614 
L 443.026182 -360.02422 
L 446.801697 -374.065742 
L 450.577212 -381.183474 
L 454.352727 -337.252631 
L 458.128242 -357.172207 
L 461.903758 -368.546228 
L 465.679273 -364.663778 
L 469.454788 -361.872707 
L 473.230303 -353.005793 
L 477.005818 -347.879846 
L 480.781333 -361.883224 
L 484.556848 -368.988255 
L 488.332364 -372.475084 
L 492.107879 -353.522206 
L 495.883394 -368.863733 
L 499.658909 -364.106857 
L 503.434424 -366.268107 
L 507.209939 -343.973834 
L 510.985455 -355.666996 
L 514.76097 -369.992493 
L 518.536485 -363.194565 
L 522.312 -363.807298 
L 526.087515 -357.886237 
L 529.86303 -355.63604 
L 533.638545 -362.670909 
L 537.414061 -348.463179 
L 541.189576 -372.866193 
L 544.965091 -360.319557 
L 548.740606 -364.163931 
L 552.516121 -378.746917 
L 556.291636 -343.932467 
L 560.067152 -351.517637 
L 563.842667 -364.575929 
L 567.618182 -355.93967 
L 571.393697 -365.407882 
L 575.169212 -370.918762 
L 578.944727 -370.31147 
L 582.720242 -342.673955 
L 586.495758 -362.840824 
L 590.271273 -359.321768 
L 594.046788 -370.13573 
L 597.822303 -359.145248 
L 601.597818 -367.849272 
L 605.373333 -364.346415 
L 609.148848 -363.514539 
L 612.924364 -359.536811 
L 616.699879 -357.316973 
L 620.475394 -352.857045 
L 624.250909 -350.764731 
L 628.026424 -350.125545 
L 631.801939 -353.378439 
L 635.577455 -348.396902 
L 639.35297 -344.35238 
L 643.128485 -344.905418 
L 646.904 -344.503022 
L 650.679515 -342.258082 
L 654.45503 -322.075863 
L 658.230545 -332.499642 
L 662.006061 -323.781523 
L 665.781576 -323.484453 
L 669.557091 -300.708547 
L 673.332606 -300.39139 
L 677.108121 -255.335865 
L 680.883636 -287.899092 
L 680.883636 -356.824413 
L 680.883636 -356.824413 
L 677.108121 -352.123899 
L 673.332606 -351.415916 
L 669.557091 -364.749833 
L 665.781576 -372.744185 
L 662.006061 -375.398698 
L 658.230545 -383.430817 
L 654.45503 -354.082007 
L 650.679515 -361.644673 
L 646.904 -366.188375 
L 643.128485 -362.17029 
L 639.35297 -367.888599 
L 635.577455 -364.213025 
L 631.801939 -367.422132 
L 628.026424 -380.489041 
L 624.250909 -371.142684 
L 620.475394 -362.409306 
L 616.699879 -373.961719 
L 612.924364 -361.927867 
L 609.148848 -373.150793 
L 605.373333 -376.155976 
L 601.597818 -382.688503 
L 597.822303 -376.855978 
L 594.046788 -382.099205 
L 590.271273 -379.188304 
L 586.495758 -380.465572 
L 582.720242 -388.309579 
L 578.944727 -384.72747 
L 575.169212 -377.995642 
L 571.393697 -366.092179 
L 567.618182 -386.850198 
L 563.842667 -374.155512 
L 560.067152 -381.163058 
L 556.291636 -382.623691 
L 552.516121 -386.696354 
L 548.740606 -375.010247 
L 544.965091 -390.144428 
L 541.189576 -390.289601 
L 537.414061 -383.110672 
L 533.638545 -391.925293 
L 529.86303 -375.421284 
L 526.087515 -395.307963 
L 522.312 -372.267718 
L 518.536485 -384.760574 
L 514.76097 -376.191697 
L 510.985455 -378.710859 
L 507.209939 -384.648433 
L 503.434424 -375.931444 
L 499.658909 -371.894369 
L 495.883394 -384.109098 
L 492.107879 -379.896384 
L 488.332364 -389.278708 
L 484.556848 -377.786251 
L 480.781333 -387.400128 
L 477.005818 -382.587161 
L 473.230303 -378.346689 
L 469.454788 -368.741879 
L 465.679273 -385.136101 
L 461.903758 -388.780189 
L 458.128242 -383.9205 
L 454.352727 -377.866142 
L 450.577212 -393.926233 
L 446.801697 -388.721105 
L 443.026182 -386.233758 
L 439.250667 -381.006148 
L 435.475152 -378.007594 
L 431.699636 -386.152039 
L 427.924121 -391.078715 
L 424.148606 -387.415356 
L 420.373091 -387.040452 
L 416.597576 -376.033867 
L 412.822061 -386.709214 
L 409.046545 -387.783099 
L 405.27103 -385.070419 
L 401.495515 -385.979482 
L 397.72 -381.852089 
L 393.944485 -380.086712 
L 390.16897 -384.873782 
L 386.393455 -371.56917 
L 382.617939 -386.412738 
L 378.842424 -384.679758 
L 375.066909 -389.946822 
L 371.291394 -379.423967 
L 367.515879 -385.072568 
L 363.740364 -387.407963 
L 359.964848 -389.749487 
L 356.189333 -384.444677 
L 352.413818 -385.166708 
L 348.638303 -383.092546 
L 344.862788 -379.402129 
L 341.087273 -396.906562 
L 337.311758 -389.631438 
L 333.536242 -383.767378 
L 329.760727 -386.150341 
L 325.985212 -372.740466 
L 322.209697 -391.06081 
L 318.434182 -381.393939 
L 314.658667 -385.167852 
L 310.883152 -387.852925 
L 307.107636 -393.563829 
L 303.332121 -390.64934 
L 299.556606 -386.482445 
L 295.781091 -388.239132 
L 292.005576 -392.622348 
L 288.230061 -390.745383 
L 284.454545 -388.337718 
L 280.67903 -374.747276 
L 276.903515 -392.481603 
L 273.128 -392.43677 
L 269.352485 -387.268982 
L 265.57697 -374.108924 
L 261.801455 -386.487539 
L 258.025939 -389.354622 
L 254.250424 -378.536611 
L 250.474909 -384.658578 
L 246.699394 -381.958276 
L 242.923879 -387.268038 
L 239.148364 -385.094063 
L 235.372848 -378.785008 
L 231.597333 -390.336972 
L 227.821818 -398.758597 
L 224.046303 -386.980774 
L 220.270788 -388.925059 
L 216.495273 -379.400399 
L 212.719758 -380.953852 
L 208.944242 -382.532819 
L 205.168727 -392.543878 
L 201.393212 -381.556528 
L 197.617697 -397.02883 
L 193.842182 -376.020774 
L 190.066667 -376.567311 
L 186.291152 -375.791247 
L 182.515636 -385.13452 
L 178.740121 -398.640079 
L 174.964606 -383.916743 
L 171.189091 -380.456068 
L 167.413576 -396.361852 
L 163.638061 -387.335605 
L 159.862545 -389.594242 
L 156.08703 -378.542934 
L 152.311515 -377.895523 
L 148.536 -378.561364 
L 144.760485 -386.43652 
L 140.98497 -382.851861 
L 137.209455 -394.485646 
L 133.433939 -388.191564 
L 129.658424 -388.516026 
L 125.882909 -388.329694 
L 122.107394 -394.921323 
L 118.331879 -401.942457 
L 114.556364 -385.876702 
z
" style="stroke: #ff0000; stroke-opacity: 0.3"/>
    </defs>
    <g clip-path="url(#pa36abacbbb)">
     <use xlink:href="#m0338c12cc9" x="0" y="432" style="fill: #ff0000; fill-opacity: 0.3; stroke: #ff0000; stroke-opacity: 0.3"/>
    </g>
   </g>
   <g id="PolyCollection_4">
    <defs>
     <path id="mddaa01ddad" d="M 114.556364 -393.117729 
L 114.556364 -380.073449 
L 118.331879 -380.997355 
L 122.107394 -389.464431 
L 125.882909 -397.723171 
L 129.658424 -345.670606 
L 133.433939 -364.075119 
L 137.209455 -367.728712 
L 140.98497 -378.961175 
L 144.760485 -376.806631 
L 148.536 -379.592545 
L 152.311515 -379.230377 
L 156.08703 -379.234721 
L 159.862545 -358.22143 
L 163.638061 -362.800619 
L 167.413576 -376.759248 
L 171.189091 -369.293576 
L 174.964606 -379.413951 
L 178.740121 -379.206965 
L 182.515636 -376.034276 
L 186.291152 -367.090004 
L 190.066667 -359.211632 
L 193.842182 -350.693992 
L 197.617697 -363.800037 
L 201.393212 -355.955379 
L 205.168727 -376.399066 
L 208.944242 -374.965413 
L 212.719758 -377.269259 
L 216.495273 -350.443408 
L 220.270788 -342.629764 
L 224.046303 -363.284146 
L 227.821818 -370.058142 
L 231.597333 -341.108048 
L 235.372848 -371.105206 
L 239.148364 -364.560445 
L 242.923879 -357.857803 
L 246.699394 -342.149046 
L 250.474909 -341.809576 
L 254.250424 -356.024824 
L 258.025939 -345.174233 
L 261.801455 -351.034361 
L 265.57697 -342.833492 
L 269.352485 -358.138951 
L 273.128 -373.281363 
L 276.903515 -364.138607 
L 280.67903 -358.793392 
L 284.454545 -358.377961 
L 288.230061 -376.94065 
L 292.005576 -370.067094 
L 295.781091 -357.517434 
L 299.556606 -372.879415 
L 303.332121 -370.812406 
L 307.107636 -342.279171 
L 310.883152 -378.943457 
L 314.658667 -343.23555 
L 318.434182 -340.367453 
L 322.209697 -341.911868 
L 325.985212 -317.654116 
L 329.760727 -293.921098 
L 333.536242 -308.481213 
L 337.311758 -302.817878 
L 341.087273 -303.226529 
L 344.862788 -290.884864 
L 348.638303 -281.700605 
L 352.413818 -288.002462 
L 356.189333 -290.86381 
L 359.964848 -276.748014 
L 363.740364 -274.461545 
L 367.515879 -278.036819 
L 371.291394 -283.982388 
L 375.066909 -283.782632 
L 378.842424 -272.084174 
L 382.617939 -274.154999 
L 386.393455 -275.752568 
L 390.16897 -267.565818 
L 393.944485 -270.31735 
L 397.72 -252.259909 
L 401.495515 -263.800081 
L 405.27103 -269.718794 
L 409.046545 -263.314119 
L 412.822061 -246.21906 
L 416.597576 -251.262072 
L 420.373091 -251.112057 
L 424.148606 -254.480422 
L 427.924121 -254.77648 
L 431.699636 -247.293167 
L 435.475152 -240.629701 
L 439.250667 -248.958676 
L 443.026182 -249.460371 
L 446.801697 -245.139786 
L 450.577212 -262.054792 
L 454.352727 -255.673792 
L 458.128242 -242.474145 
L 461.903758 -246.280639 
L 465.679273 -255.532171 
L 469.454788 -259.450885 
L 473.230303 -250.541554 
L 477.005818 -254.405173 
L 480.781333 -236.187384 
L 484.556848 -245.584959 
L 488.332364 -233.758844 
L 492.107879 -248.754389 
L 495.883394 -257.065493 
L 499.658909 -251.00868 
L 503.434424 -270.338557 
L 507.209939 -242.086393 
L 510.985455 -255.00182 
L 514.76097 -237.724568 
L 518.536485 -254.107207 
L 522.312 -244.540517 
L 526.087515 -237.755583 
L 529.86303 -244.465191 
L 533.638545 -253.59566 
L 537.414061 -248.605724 
L 541.189576 -236.338035 
L 544.965091 -239.129456 
L 548.740606 -245.570686 
L 552.516121 -251.717997 
L 556.291636 -245.968926 
L 560.067152 -221.912357 
L 563.842667 -239.553203 
L 567.618182 -221.562663 
L 571.393697 -234.53697 
L 575.169212 -242.370054 
L 578.944727 -237.355807 
L 582.720242 -232.270842 
L 586.495758 -233.878744 
L 590.271273 -241.910235 
L 594.046788 -242.886768 
L 597.822303 -247.929671 
L 601.597818 -246.900248 
L 605.373333 -251.022349 
L 609.148848 -238.01197 
L 612.924364 -240.363353 
L 616.699879 -240.65862 
L 620.475394 -257.615097 
L 624.250909 -241.161587 
L 628.026424 -234.35684 
L 631.801939 -234.976449 
L 635.577455 -245.323019 
L 639.35297 -241.865024 
L 643.128485 -233.557256 
L 646.904 -241.717072 
L 650.679515 -238.91659 
L 654.45503 -249.715826 
L 658.230545 -236.590868 
L 662.006061 -247.742575 
L 665.781576 -233.925568 
L 669.557091 -236.532888 
L 673.332606 -250.594149 
L 677.108121 -230.497983 
L 680.883636 -250.431737 
L 680.883636 -253.353656 
L 680.883636 -253.353656 
L 677.108121 -253.142852 
L 673.332606 -256.437986 
L 669.557091 -237.367722 
L 665.781576 -238.204092 
L 662.006061 -248.3687 
L 658.230545 -258.192195 
L 654.45503 -267.351692 
L 650.679515 -251.439098 
L 646.904 -260.813897 
L 643.128485 -242.114303 
L 639.35297 -275.571442 
L 635.577455 -295.726115 
L 631.801939 -256.264713 
L 628.026424 -264.41086 
L 624.250909 -282.694573 
L 620.475394 -258.345577 
L 616.699879 -276.556477 
L 612.924364 -251.320547 
L 609.148848 -285.180084 
L 605.373333 -286.189727 
L 601.597818 -265.370948 
L 597.822303 -248.034025 
L 594.046788 -267.09695 
L 590.271273 -271.025067 
L 586.495758 -262.158742 
L 582.720242 -267.751282 
L 578.944727 -265.322742 
L 575.169212 -259.27544 
L 571.393697 -259.581987 
L 567.618182 -247.025096 
L 563.842667 -248.736376 
L 560.067152 -257.079734 
L 556.291636 -264.752688 
L 552.516121 -262.988255 
L 548.740606 -273.120204 
L 544.965091 -248.938754 
L 541.189576 -264.200616 
L 537.414061 -262.484838 
L 533.638545 -274.466507 
L 529.86303 -262.935891 
L 526.087515 -255.18274 
L 522.312 -261.237195 
L 518.536485 -265.690527 
L 514.76097 -258.386707 
L 510.985455 -273.576874 
L 507.209939 -275.792811 
L 503.434424 -272.112579 
L 499.658909 -266.870524 
L 495.883394 -283.467115 
L 492.107879 -263.885754 
L 488.332364 -272.682974 
L 484.556848 -254.142006 
L 480.781333 -267.598009 
L 477.005818 -272.771519 
L 473.230303 -302.092546 
L 469.454788 -260.494427 
L 465.679273 -258.141027 
L 461.903758 -273.517094 
L 458.128242 -269.501892 
L 454.352727 -272.683533 
L 450.577212 -291.169624 
L 446.801697 -261.523401 
L 443.026182 -273.879262 
L 439.250667 -276.299486 
L 435.475152 -299.902907 
L 431.699636 -275.677519 
L 427.924121 -282.952123 
L 424.148606 -288.708611 
L 420.373091 -290.453604 
L 416.597576 -282.777052 
L 412.822061 -276.899205 
L 409.046545 -319.352344 
L 405.27103 -315.530304 
L 401.495515 -320.047014 
L 397.72 -349.518057 
L 393.944485 -329.173139 
L 390.16897 -358.562712 
L 386.393455 -358.714185 
L 382.617939 -397.501706 
L 378.842424 -375.812284 
L 375.066909 -394.293768 
L 371.291394 -394.38917 
L 367.515879 -399.818212 
L 363.740364 -389.668622 
L 359.964848 -373.066974 
L 356.189333 -401.896717 
L 352.413818 -382.5474 
L 348.638303 -388.037571 
L 344.862788 -380.107735 
L 341.087273 -385.77073 
L 337.311758 -378.579053 
L 333.536242 -362.954124 
L 329.760727 -395.666478 
L 325.985212 -405.729091 
L 322.209697 -386.784189 
L 318.434182 -401.832098 
L 314.658667 -375.794071 
L 310.883152 -393.657405 
L 307.107636 -363.984852 
L 303.332121 -386.882959 
L 299.556606 -382.897421 
L 295.781091 -365.865773 
L 292.005576 -384.676687 
L 288.230061 -393.741682 
L 284.454545 -380.501059 
L 280.67903 -384.881951 
L 276.903515 -377.913366 
L 273.128 -375.264093 
L 269.352485 -370.557105 
L 265.57697 -358.486628 
L 261.801455 -374.931481 
L 258.025939 -361.975265 
L 254.250424 -366.251539 
L 250.474909 -364.454446 
L 246.699394 -366.254874 
L 242.923879 -361.614555 
L 239.148364 -364.873508 
L 235.372848 -377.36646 
L 231.597333 -384.415056 
L 227.821818 -384.980798 
L 224.046303 -373.823924 
L 220.270788 -367.987844 
L 216.495273 -370.062004 
L 212.719758 -383.008742 
L 208.944242 -379.557 
L 205.168727 -382.034195 
L 201.393212 -371.191097 
L 197.617697 -370.061291 
L 193.842182 -379.182698 
L 190.066667 -396.048677 
L 186.291152 -373.559966 
L 182.515636 -379.373612 
L 178.740121 -392.87737 
L 174.964606 -387.136164 
L 171.189091 -392.460216 
L 167.413576 -390.012236 
L 163.638061 -365.305121 
L 159.862545 -380.65759 
L 156.08703 -385.913392 
L 152.311515 -380.900045 
L 148.536 -384.079777 
L 144.760485 -387.972534 
L 140.98497 -385.744201 
L 137.209455 -390.999707 
L 133.433939 -368.457997 
L 129.658424 -378.229128 
L 125.882909 -402.106049 
L 122.107394 -389.777494 
L 118.331879 -392.267613 
L 114.556364 -393.117729 
z
" style="stroke: #ffa500; stroke-opacity: 0.3"/>
    </defs>
    <g clip-path="url(#pa36abacbbb)">
     <use xlink:href="#mddaa01ddad" x="0" y="432" style="fill: #ffa500; fill-opacity: 0.3; stroke: #ffa500; stroke-opacity: 0.3"/>
    </g>
   </g>
   <g id="matplotlib.axis_1">
    <g id="xtick_1">
     <g id="line2d_1">
      <defs>
       <path id="me5acab5962" d="M 0 0 
L 0 3.5 
" style="stroke: #000000; stroke-width: 0.8"/>
      </defs>
      <g>
       <use xlink:href="#me5acab5962" x="114.556364" y="351.16" style="stroke: #000000; stroke-width: 0.8"/>
      </g>
     </g>
     <g id="text_1">
      <!-- 0 -->
      <g transform="translate(108.193864 373.356875) scale(0.2 -0.2)">
       <defs>
        <path id="DejaVuSans-30" d="M 2034 4250 
Q 1547 4250 1301 3770 
Q 1056 3291 1056 2328 
Q 1056 1369 1301 889 
Q 1547 409 2034 409 
Q 2525 409 2770 889 
Q 3016 1369 3016 2328 
Q 3016 3291 2770 3770 
Q 2525 4250 2034 4250 
z
M 2034 4750 
Q 2819 4750 3233 4129 
Q 3647 3509 3647 2328 
Q 3647 1150 3233 529 
Q 2819 -91 2034 -91 
Q 1250 -91 836 529 
Q 422 1150 422 2328 
Q 422 3509 836 4129 
Q 1250 4750 2034 4750 
z
" transform="scale(0.015625)"/>
       </defs>
       <use xlink:href="#DejaVuSans-30"/>
      </g>
     </g>
    </g>
    <g id="xtick_2">
     <g id="line2d_2">
      <g>
       <use xlink:href="#me5acab5962" x="190.066667" y="351.16" style="stroke: #000000; stroke-width: 0.8"/>
      </g>
     </g>
     <g id="text_2">
      <!-- 20 -->
      <g transform="translate(177.341667 373.356875) scale(0.2 -0.2)">
       <defs>
        <path id="DejaVuSans-32" d="M 1228 531 
L 3431 531 
L 3431 0 
L 469 0 
L 469 531 
Q 828 903 1448 1529 
Q 2069 2156 2228 2338 
Q 2531 2678 2651 2914 
Q 2772 3150 2772 3378 
Q 2772 3750 2511 3984 
Q 2250 4219 1831 4219 
Q 1534 4219 1204 4116 
Q 875 4013 500 3803 
L 500 4441 
Q 881 4594 1212 4672 
Q 1544 4750 1819 4750 
Q 2544 4750 2975 4387 
Q 3406 4025 3406 3419 
Q 3406 3131 3298 2873 
Q 3191 2616 2906 2266 
Q 2828 2175 2409 1742 
Q 1991 1309 1228 531 
z
" transform="scale(0.015625)"/>
       </defs>
       <use xlink:href="#DejaVuSans-32"/>
       <use xlink:href="#DejaVuSans-30" x="63.623047"/>
      </g>
     </g>
    </g>
    <g id="xtick_3">
     <g id="line2d_3">
      <g>
       <use xlink:href="#me5acab5962" x="265.57697" y="351.16" style="stroke: #000000; stroke-width: 0.8"/>
      </g>
     </g>
     <g id="text_3">
      <!-- 40 -->
      <g transform="translate(252.85197 373.356875) scale(0.2 -0.2)">
       <defs>
        <path id="DejaVuSans-34" d="M 2419 4116 
L 825 1625 
L 2419 1625 
L 2419 4116 
z
M 2253 4666 
L 3047 4666 
L 3047 1625 
L 3713 1625 
L 3713 1100 
L 3047 1100 
L 3047 0 
L 2419 0 
L 2419 1100 
L 313 1100 
L 313 1709 
L 2253 4666 
z
" transform="scale(0.015625)"/>
       </defs>
       <use xlink:href="#DejaVuSans-34"/>
       <use xlink:href="#DejaVuSans-30" x="63.623047"/>
      </g>
     </g>
    </g>
    <g id="xtick_4">
     <g id="line2d_4">
      <g>
       <use xlink:href="#me5acab5962" x="341.087273" y="351.16" style="stroke: #000000; stroke-width: 0.8"/>
      </g>
     </g>
     <g id="text_4">
      <!-- 60 -->
      <g transform="translate(328.362273 373.356875) scale(0.2 -0.2)">
       <defs>
        <path id="DejaVuSans-36" d="M 2113 2584 
Q 1688 2584 1439 2293 
Q 1191 2003 1191 1497 
Q 1191 994 1439 701 
Q 1688 409 2113 409 
Q 2538 409 2786 701 
Q 3034 994 3034 1497 
Q 3034 2003 2786 2293 
Q 2538 2584 2113 2584 
z
M 3366 4563 
L 3366 3988 
Q 3128 4100 2886 4159 
Q 2644 4219 2406 4219 
Q 1781 4219 1451 3797 
Q 1122 3375 1075 2522 
Q 1259 2794 1537 2939 
Q 1816 3084 2150 3084 
Q 2853 3084 3261 2657 
Q 3669 2231 3669 1497 
Q 3669 778 3244 343 
Q 2819 -91 2113 -91 
Q 1303 -91 875 529 
Q 447 1150 447 2328 
Q 447 3434 972 4092 
Q 1497 4750 2381 4750 
Q 2619 4750 2861 4703 
Q 3103 4656 3366 4563 
z
" transform="scale(0.015625)"/>
       </defs>
       <use xlink:href="#DejaVuSans-36"/>
       <use xlink:href="#DejaVuSans-30" x="63.623047"/>
      </g>
     </g>
    </g>
    <g id="xtick_5">
     <g id="line2d_5">
      <g>
       <use xlink:href="#me5acab5962" x="416.597576" y="351.16" style="stroke: #000000; stroke-width: 0.8"/>
      </g>
     </g>
     <g id="text_5">
      <!-- 80 -->
      <g transform="translate(403.872576 373.356875) scale(0.2 -0.2)">
       <defs>
        <path id="DejaVuSans-38" d="M 2034 2216 
Q 1584 2216 1326 1975 
Q 1069 1734 1069 1313 
Q 1069 891 1326 650 
Q 1584 409 2034 409 
Q 2484 409 2743 651 
Q 3003 894 3003 1313 
Q 3003 1734 2745 1975 
Q 2488 2216 2034 2216 
z
M 1403 2484 
Q 997 2584 770 2862 
Q 544 3141 544 3541 
Q 544 4100 942 4425 
Q 1341 4750 2034 4750 
Q 2731 4750 3128 4425 
Q 3525 4100 3525 3541 
Q 3525 3141 3298 2862 
Q 3072 2584 2669 2484 
Q 3125 2378 3379 2068 
Q 3634 1759 3634 1313 
Q 3634 634 3220 271 
Q 2806 -91 2034 -91 
Q 1263 -91 848 271 
Q 434 634 434 1313 
Q 434 1759 690 2068 
Q 947 2378 1403 2484 
z
M 1172 3481 
Q 1172 3119 1398 2916 
Q 1625 2713 2034 2713 
Q 2441 2713 2670 2916 
Q 2900 3119 2900 3481 
Q 2900 3844 2670 4047 
Q 2441 4250 2034 4250 
Q 1625 4250 1398 4047 
Q 1172 3844 1172 3481 
z
" transform="scale(0.015625)"/>
       </defs>
       <use xlink:href="#DejaVuSans-38"/>
       <use xlink:href="#DejaVuSans-30" x="63.623047"/>
      </g>
     </g>
    </g>
    <g id="xtick_6">
     <g id="line2d_6">
      <g>
       <use xlink:href="#me5acab5962" x="492.107879" y="351.16" style="stroke: #000000; stroke-width: 0.8"/>
      </g>
     </g>
     <g id="text_6">
      <!-- 100 -->
      <g transform="translate(473.020379 373.356875) scale(0.2 -0.2)">
       <defs>
        <path id="DejaVuSans-31" d="M 794 531 
L 1825 531 
L 1825 4091 
L 703 3866 
L 703 4441 
L 1819 4666 
L 2450 4666 
L 2450 531 
L 3481 531 
L 3481 0 
L 794 0 
L 794 531 
z
" transform="scale(0.015625)"/>
       </defs>
       <use xlink:href="#DejaVuSans-31"/>
       <use xlink:href="#DejaVuSans-30" x="63.623047"/>
       <use xlink:href="#DejaVuSans-30" x="127.246094"/>
      </g>
     </g>
    </g>
    <g id="xtick_7">
     <g id="line2d_7">
      <g>
       <use xlink:href="#me5acab5962" x="567.618182" y="351.16" style="stroke: #000000; stroke-width: 0.8"/>
      </g>
     </g>
     <g id="text_7">
      <!-- 120 -->
      <g transform="translate(548.530682 373.356875) scale(0.2 -0.2)">
       <use xlink:href="#DejaVuSans-31"/>
       <use xlink:href="#DejaVuSans-32" x="63.623047"/>
       <use xlink:href="#DejaVuSans-30" x="127.246094"/>
      </g>
     </g>
    </g>
    <g id="xtick_8">
     <g id="line2d_8">
      <g>
       <use xlink:href="#me5acab5962" x="643.128485" y="351.16" style="stroke: #000000; stroke-width: 0.8"/>
      </g>
     </g>
     <g id="text_8">
      <!-- 140 -->
      <g transform="translate(624.040985 373.356875) scale(0.2 -0.2)">
       <use xlink:href="#DejaVuSans-31"/>
       <use xlink:href="#DejaVuSans-34" x="63.623047"/>
       <use xlink:href="#DejaVuSans-30" x="127.246094"/>
      </g>
     </g>
    </g>
    <g id="text_9">
     <!-- Episode -->
     <g transform="translate(319.17 411.91) scale(0.4 -0.4)">
      <defs>
       <path id="DejaVuSans-45" d="M 628 4666 
L 3578 4666 
L 3578 4134 
L 1259 4134 
L 1259 2753 
L 3481 2753 
L 3481 2222 
L 1259 2222 
L 1259 531 
L 3634 531 
L 3634 0 
L 628 0 
L 628 4666 
z
" transform="scale(0.015625)"/>
       <path id="DejaVuSans-70" d="M 1159 525 
L 1159 -1331 
L 581 -1331 
L 581 3500 
L 1159 3500 
L 1159 2969 
Q 1341 3281 1617 3432 
Q 1894 3584 2278 3584 
Q 2916 3584 3314 3078 
Q 3713 2572 3713 1747 
Q 3713 922 3314 415 
Q 2916 -91 2278 -91 
Q 1894 -91 1617 61 
Q 1341 213 1159 525 
z
M 3116 1747 
Q 3116 2381 2855 2742 
Q 2594 3103 2138 3103 
Q 1681 3103 1420 2742 
Q 1159 2381 1159 1747 
Q 1159 1113 1420 752 
Q 1681 391 2138 391 
Q 2594 391 2855 752 
Q 3116 1113 3116 1747 
z
" transform="scale(0.015625)"/>
       <path id="DejaVuSans-69" d="M 603 3500 
L 1178 3500 
L 1178 0 
L 603 0 
L 603 3500 
z
M 603 4863 
L 1178 4863 
L 1178 4134 
L 603 4134 
L 603 4863 
z
" transform="scale(0.015625)"/>
       <path id="DejaVuSans-73" d="M 2834 3397 
L 2834 2853 
Q 2591 2978 2328 3040 
Q 2066 3103 1784 3103 
Q 1356 3103 1142 2972 
Q 928 2841 928 2578 
Q 928 2378 1081 2264 
Q 1234 2150 1697 2047 
L 1894 2003 
Q 2506 1872 2764 1633 
Q 3022 1394 3022 966 
Q 3022 478 2636 193 
Q 2250 -91 1575 -91 
Q 1294 -91 989 -36 
Q 684 19 347 128 
L 347 722 
Q 666 556 975 473 
Q 1284 391 1588 391 
Q 1994 391 2212 530 
Q 2431 669 2431 922 
Q 2431 1156 2273 1281 
Q 2116 1406 1581 1522 
L 1381 1569 
Q 847 1681 609 1914 
Q 372 2147 372 2553 
Q 372 3047 722 3315 
Q 1072 3584 1716 3584 
Q 2034 3584 2315 3537 
Q 2597 3491 2834 3397 
z
" transform="scale(0.015625)"/>
       <path id="DejaVuSans-6f" d="M 1959 3097 
Q 1497 3097 1228 2736 
Q 959 2375 959 1747 
Q 959 1119 1226 758 
Q 1494 397 1959 397 
Q 2419 397 2687 759 
Q 2956 1122 2956 1747 
Q 2956 2369 2687 2733 
Q 2419 3097 1959 3097 
z
M 1959 3584 
Q 2709 3584 3137 3096 
Q 3566 2609 3566 1747 
Q 3566 888 3137 398 
Q 2709 -91 1959 -91 
Q 1206 -91 779 398 
Q 353 888 353 1747 
Q 353 2609 779 3096 
Q 1206 3584 1959 3584 
z
" transform="scale(0.015625)"/>
       <path id="DejaVuSans-64" d="M 2906 2969 
L 2906 4863 
L 3481 4863 
L 3481 0 
L 2906 0 
L 2906 525 
Q 2725 213 2448 61 
Q 2172 -91 1784 -91 
Q 1150 -91 751 415 
Q 353 922 353 1747 
Q 353 2572 751 3078 
Q 1150 3584 1784 3584 
Q 2172 3584 2448 3432 
Q 2725 3281 2906 2969 
z
M 947 1747 
Q 947 1113 1208 752 
Q 1469 391 1925 391 
Q 2381 391 2643 752 
Q 2906 1113 2906 1747 
Q 2906 2381 2643 2742 
Q 2381 3103 1925 3103 
Q 1469 3103 1208 2742 
Q 947 2381 947 1747 
z
" transform="scale(0.015625)"/>
       <path id="DejaVuSans-65" d="M 3597 1894 
L 3597 1613 
L 953 1613 
Q 991 1019 1311 708 
Q 1631 397 2203 397 
Q 2534 397 2845 478 
Q 3156 559 3463 722 
L 3463 178 
Q 3153 47 2828 -22 
Q 2503 -91 2169 -91 
Q 1331 -91 842 396 
Q 353 884 353 1716 
Q 353 2575 817 3079 
Q 1281 3584 2069 3584 
Q 2775 3584 3186 3129 
Q 3597 2675 3597 1894 
z
M 3022 2063 
Q 3016 2534 2758 2815 
Q 2500 3097 2075 3097 
Q 1594 3097 1305 2825 
Q 1016 2553 972 2059 
L 3022 2063 
z
" transform="scale(0.015625)"/>
      </defs>
      <use xlink:href="#DejaVuSans-45"/>
      <use xlink:href="#DejaVuSans-70" x="63.183594"/>
      <use xlink:href="#DejaVuSans-69" x="126.660156"/>
      <use xlink:href="#DejaVuSans-73" x="154.443359"/>
      <use xlink:href="#DejaVuSans-6f" x="206.542969"/>
      <use xlink:href="#DejaVuSans-64" x="267.724609"/>
      <use xlink:href="#DejaVuSans-65" x="331.201172"/>
     </g>
    </g>
   </g>
   <g id="matplotlib.axis_2">
    <g id="ytick_1">
     <g id="line2d_9">
      <defs>
       <path id="me939b8f4bf" d="M 0 0 
L -3.5 0 
" style="stroke: #000000; stroke-width: 0.8"/>
      </defs>
      <g>
       <use xlink:href="#me939b8f4bf" x="86.24" y="318.204518" style="stroke: #000000; stroke-width: 0.8"/>
      </g>
     </g>
     <g id="text_10">
      <!-- 20 -->
      <g transform="translate(53.79 325.802955) scale(0.2 -0.2)">
       <use xlink:href="#DejaVuSans-32"/>
       <use xlink:href="#DejaVuSans-30" x="63.623047"/>
      </g>
     </g>
    </g>
    <g id="ytick_2">
     <g id="line2d_10">
      <g>
       <use xlink:href="#me939b8f4bf" x="86.24" y="273.930765" style="stroke: #000000; stroke-width: 0.8"/>
      </g>
     </g>
     <g id="text_11">
      <!-- 30 -->
      <g transform="translate(53.79 281.529202) scale(0.2 -0.2)">
       <defs>
        <path id="DejaVuSans-33" d="M 2597 2516 
Q 3050 2419 3304 2112 
Q 3559 1806 3559 1356 
Q 3559 666 3084 287 
Q 2609 -91 1734 -91 
Q 1441 -91 1130 -33 
Q 819 25 488 141 
L 488 750 
Q 750 597 1062 519 
Q 1375 441 1716 441 
Q 2309 441 2620 675 
Q 2931 909 2931 1356 
Q 2931 1769 2642 2001 
Q 2353 2234 1838 2234 
L 1294 2234 
L 1294 2753 
L 1863 2753 
Q 2328 2753 2575 2939 
Q 2822 3125 2822 3475 
Q 2822 3834 2567 4026 
Q 2313 4219 1838 4219 
Q 1578 4219 1281 4162 
Q 984 4106 628 3988 
L 628 4550 
Q 988 4650 1302 4700 
Q 1616 4750 1894 4750 
Q 2613 4750 3031 4423 
Q 3450 4097 3450 3541 
Q 3450 3153 3228 2886 
Q 3006 2619 2597 2516 
z
" transform="scale(0.015625)"/>
       </defs>
       <use xlink:href="#DejaVuSans-33"/>
       <use xlink:href="#DejaVuSans-30" x="63.623047"/>
      </g>
     </g>
    </g>
    <g id="ytick_3">
     <g id="line2d_11">
      <g>
       <use xlink:href="#me939b8f4bf" x="86.24" y="229.657012" style="stroke: #000000; stroke-width: 0.8"/>
      </g>
     </g>
     <g id="text_12">
      <!-- 40 -->
      <g transform="translate(53.79 237.25545) scale(0.2 -0.2)">
       <use xlink:href="#DejaVuSans-34"/>
       <use xlink:href="#DejaVuSans-30" x="63.623047"/>
      </g>
     </g>
    </g>
    <g id="ytick_4">
     <g id="line2d_12">
      <g>
       <use xlink:href="#me939b8f4bf" x="86.24" y="185.383259" style="stroke: #000000; stroke-width: 0.8"/>
      </g>
     </g>
     <g id="text_13">
      <!-- 50 -->
      <g transform="translate(53.79 192.981697) scale(0.2 -0.2)">
       <defs>
        <path id="DejaVuSans-35" d="M 691 4666 
L 3169 4666 
L 3169 4134 
L 1269 4134 
L 1269 2991 
Q 1406 3038 1543 3061 
Q 1681 3084 1819 3084 
Q 2600 3084 3056 2656 
Q 3513 2228 3513 1497 
Q 3513 744 3044 326 
Q 2575 -91 1722 -91 
Q 1428 -91 1123 -41 
Q 819 9 494 109 
L 494 744 
Q 775 591 1075 516 
Q 1375 441 1709 441 
Q 2250 441 2565 725 
Q 2881 1009 2881 1497 
Q 2881 1984 2565 2268 
Q 2250 2553 1709 2553 
Q 1456 2553 1204 2497 
Q 953 2441 691 2322 
L 691 4666 
z
" transform="scale(0.015625)"/>
       </defs>
       <use xlink:href="#DejaVuSans-35"/>
       <use xlink:href="#DejaVuSans-30" x="63.623047"/>
      </g>
     </g>
    </g>
    <g id="ytick_5">
     <g id="line2d_13">
      <g>
       <use xlink:href="#me939b8f4bf" x="86.24" y="141.109506" style="stroke: #000000; stroke-width: 0.8"/>
      </g>
     </g>
     <g id="text_14">
      <!-- 60 -->
      <g transform="translate(53.79 148.707944) scale(0.2 -0.2)">
       <use xlink:href="#DejaVuSans-36"/>
       <use xlink:href="#DejaVuSans-30" x="63.623047"/>
      </g>
     </g>
    </g>
    <g id="ytick_6">
     <g id="line2d_14">
      <g>
       <use xlink:href="#me939b8f4bf" x="86.24" y="96.835754" style="stroke: #000000; stroke-width: 0.8"/>
      </g>
     </g>
     <g id="text_15">
      <!-- 70 -->
      <g transform="translate(53.79 104.434191) scale(0.2 -0.2)">
       <defs>
        <path id="DejaVuSans-37" d="M 525 4666 
L 3525 4666 
L 3525 4397 
L 1831 0 
L 1172 0 
L 2766 4134 
L 525 4134 
L 525 4666 
z
" transform="scale(0.015625)"/>
       </defs>
       <use xlink:href="#DejaVuSans-37"/>
       <use xlink:href="#DejaVuSans-30" x="63.623047"/>
      </g>
     </g>
    </g>
    <g id="ytick_7">
     <g id="line2d_15">
      <g>
       <use xlink:href="#me939b8f4bf" x="86.24" y="52.562001" style="stroke: #000000; stroke-width: 0.8"/>
      </g>
     </g>
     <g id="text_16">
      <!-- 80 -->
      <g transform="translate(53.79 60.160438) scale(0.2 -0.2)">
       <use xlink:href="#DejaVuSans-38"/>
       <use xlink:href="#DejaVuSans-30" x="63.623047"/>
      </g>
     </g>
    </g>
    <g id="text_17">
     <!-- $m_{do}$ -->
     <g transform="translate(41.47125 218.58) rotate(-90) scale(0.4 -0.4)">
      <defs>
       <path id="DejaVuSans-Oblique-6d" d="M 5747 2113 
L 5338 0 
L 4763 0 
L 5166 2094 
Q 5191 2228 5203 2325 
Q 5216 2422 5216 2491 
Q 5216 2772 5059 2928 
Q 4903 3084 4622 3084 
Q 4203 3084 3875 2770 
Q 3547 2456 3450 1953 
L 3066 0 
L 2491 0 
L 2900 2094 
Q 2925 2209 2937 2307 
Q 2950 2406 2950 2484 
Q 2950 2769 2794 2926 
Q 2638 3084 2363 3084 
Q 1938 3084 1609 2770 
Q 1281 2456 1184 1953 
L 800 0 
L 225 0 
L 909 3500 
L 1484 3500 
L 1375 2956 
Q 1609 3263 1923 3423 
Q 2238 3584 2597 3584 
Q 2978 3584 3223 3384 
Q 3469 3184 3519 2828 
Q 3781 3197 4126 3390 
Q 4472 3584 4856 3584 
Q 5306 3584 5551 3325 
Q 5797 3066 5797 2591 
Q 5797 2488 5784 2364 
Q 5772 2241 5747 2113 
z
" transform="scale(0.015625)"/>
       <path id="DejaVuSans-Oblique-64" d="M 2675 525 
Q 2444 222 2128 65 
Q 1813 -91 1428 -91 
Q 903 -91 598 267 
Q 294 625 294 1247 
Q 294 1766 478 2236 
Q 663 2706 1013 3078 
Q 1244 3325 1534 3454 
Q 1825 3584 2144 3584 
Q 2481 3584 2739 3421 
Q 2997 3259 3138 2956 
L 3513 4863 
L 4091 4863 
L 3144 0 
L 2566 0 
L 2675 525 
z
M 891 1350 
Q 891 897 1095 644 
Q 1300 391 1663 391 
Q 1931 391 2161 520 
Q 2391 650 2566 903 
Q 2750 1166 2856 1509 
Q 2963 1853 2963 2188 
Q 2963 2622 2758 2865 
Q 2553 3109 2194 3109 
Q 1922 3109 1687 2981 
Q 1453 2853 1288 2613 
Q 1106 2353 998 2009 
Q 891 1666 891 1350 
z
" transform="scale(0.015625)"/>
       <path id="DejaVuSans-Oblique-6f" d="M 1625 -91 
Q 1009 -91 651 289 
Q 294 669 294 1325 
Q 294 1706 417 2101 
Q 541 2497 738 2766 
Q 1047 3184 1428 3384 
Q 1809 3584 2291 3584 
Q 2888 3584 3255 3212 
Q 3622 2841 3622 2241 
Q 3622 1825 3500 1412 
Q 3378 1000 3181 728 
Q 2875 309 2494 109 
Q 2113 -91 1625 -91 
z
M 891 1344 
Q 891 869 1089 633 
Q 1288 397 1691 397 
Q 2269 397 2648 901 
Q 3028 1406 3028 2181 
Q 3028 2634 2825 2865 
Q 2622 3097 2228 3097 
Q 1903 3097 1650 2945 
Q 1397 2794 1197 2484 
Q 1050 2253 970 1956 
Q 891 1659 891 1344 
z
" transform="scale(0.015625)"/>
      </defs>
      <use xlink:href="#DejaVuSans-Oblique-6d"/>
      <use xlink:href="#DejaVuSans-Oblique-64" transform="translate(97.412109 -16.40625) scale(0.7)"/>
      <use xlink:href="#DejaVuSans-Oblique-6f" transform="translate(141.845703 -16.40625) scale(0.7)"/>
     </g>
    </g>
   </g>
   <g id="line2d_16">
    <path d="M 114.556364 57.395219 
L 118.331879 56.214585 
L 122.107394 58.649642 
L 125.882909 50.458998 
L 129.658424 61.158488 
L 133.433939 60.383697 
L 137.209455 54.923268 
L 140.98497 64.442124 
L 144.760485 63.298386 
L 148.536 76.654301 
L 152.311515 79.937938 
L 156.08703 104.472976 
L 159.862545 100.635917 
L 163.638061 113.549095 
L 167.413576 130.852754 
L 171.189091 135.206339 
L 174.964606 154.244053 
L 178.740121 164.131858 
L 182.515636 183.243361 
L 186.291152 175.569244 
L 190.066667 174.167242 
L 193.842182 182.099623 
L 197.617697 205.269553 
L 201.393212 187.85521 
L 205.168727 185.420154 
L 208.944242 194.422484 
L 212.719758 187.965895 
L 216.495273 174.056557 
L 220.270788 196.119644 
L 224.046303 191.028163 
L 227.821818 191.54469 
L 231.597333 192.430165 
L 235.372848 191.286426 
L 239.148364 178.07809 
L 242.923879 186.895946 
L 246.699394 188.371738 
L 250.474909 193.463219 
L 254.250424 196.709961 
L 258.025939 207.815294 
L 261.801455 188.925159 
L 265.57697 193.979746 
L 269.352485 191.4709 
L 273.128 201.875232 
L 276.903515 202.834497 
L 280.67903 195.898276 
L 284.454545 206.70845 
L 288.230061 207.335662 
L 292.005576 204.568552 
L 295.781091 219.916786 
L 299.556606 208.331821 
L 303.332121 212.390248 
L 307.107636 204.494763 
L 310.883152 195.713802 
L 314.658667 212.058195 
L 318.434182 218.219626 
L 322.209697 222.093579 
L 325.985212 211.430984 
L 329.760727 212.574722 
L 333.536242 218.625469 
L 337.311758 213.792251 
L 341.087273 217.297256 
L 348.638303 207.151188 
L 352.413818 211.430984 
L 356.189333 203.904446 
L 359.964848 200.952862 
L 363.740364 214.013619 
L 367.515879 207.114293 
L 371.291394 214.419462 
L 375.066909 213.570882 
L 378.842424 205.712291 
L 382.617939 215.304937 
L 386.393455 216.485571 
L 390.16897 205.933659 
L 393.944485 212.685407 
L 397.72 209.180401 
L 401.495515 217.371046 
L 405.27103 212.242669 
L 409.046545 217.371046 
L 412.822061 212.353354 
L 416.597576 212.279564 
L 420.373091 217.038992 
L 424.148606 214.8622 
L 427.924121 214.087409 
L 431.699636 222.093579 
L 435.475152 214.308778 
L 439.250667 221.761526 
L 443.026182 217.887573 
L 446.801697 222.130474 
L 450.577212 228.845327 
L 454.352727 225.672374 
L 458.128242 221.02363 
L 461.903758 222.499422 
L 465.679273 223.348002 
L 469.454788 221.835316 
L 473.230303 229.509433 
L 477.005818 225.451006 
L 480.781333 232.682385 
L 484.556848 232.829964 
L 488.332364 239.397238 
L 492.107879 247.329618 
L 495.883394 257.623266 
L 499.658909 261.792378 
L 503.434424 251.129782 
L 507.209939 251.535625 
L 510.985455 247.440303 
L 514.76097 250.207412 
L 518.536485 259.615585 
L 522.312 269.946127 
L 526.087515 268.248967 
L 529.86303 259.873848 
L 533.638545 266.145963 
L 537.414061 270.868497 
L 541.189576 273.414238 
L 544.965091 283.781675 
L 548.740606 274.410397 
L 552.516121 281.088355 
L 556.291636 294.259796 
L 560.067152 281.457303 
L 563.842667 285.663309 
L 567.618182 286.106047 
L 571.393697 284.66715 
L 575.169212 291.382002 
L 578.944727 294.407376 
L 582.720242 293.411216 
L 586.495758 295.735588 
L 590.271273 294.333586 
L 594.046788 295.956957 
L 597.822303 296.141431 
L 601.597818 297.764802 
L 605.373333 288.983841 
L 609.148848 296.067641 
L 612.924364 299.093014 
L 616.699879 302.487335 
L 620.475394 311.674139 
L 624.250909 310.641085 
L 628.026424 307.652607 
L 631.801939 308.206028 
L 635.577455 307.615712 
L 639.35297 304.664128 
L 643.128485 313.850932 
L 646.904 312.633404 
L 650.679515 311.120717 
L 654.45503 306.398184 
L 658.230545 312.854773 
L 662.006061 303.557284 
L 665.781576 308.206028 
L 669.557091 305.069971 
L 673.332606 316.950095 
L 677.108121 316.950095 
L 680.883636 320.4551 
L 680.883636 320.4551 
" clip-path="url(#pa36abacbbb)" style="fill: none; stroke: #0000ff; stroke-width: 3; stroke-linecap: square"/>
   </g>
   <g id="line2d_17">
    <path d="M 114.556364 40.977036 
L 118.331879 64.737283 
L 122.107394 56.067006 
L 125.882909 58.280694 
L 129.658424 57.469008 
L 133.433939 55.993217 
L 137.209455 61.379857 
L 140.98497 50.311418 
L 144.760485 52.119263 
L 148.536 59.313748 
L 152.311515 50.680366 
L 156.08703 54.849478 
L 159.862545 57.063166 
L 163.638061 60.974014 
L 167.413576 83.996365 
L 171.189091 91.006376 
L 174.964606 101.410708 
L 178.740121 104.325397 
L 182.515636 119.895 
L 186.291152 120.153263 
L 190.066667 121.850424 
L 193.842182 127.790486 
L 197.617697 138.858924 
L 201.393212 155.055739 
L 205.168727 172.470081 
L 208.944242 164.537701 
L 212.719758 172.027344 
L 216.495273 171.178764 
L 220.270788 175.864402 
L 224.046303 173.281767 
L 227.821818 187.375578 
L 231.597333 177.967406 
L 235.372848 178.963565 
L 239.148364 173.798294 
L 242.923879 171.621501 
L 246.699394 183.058887 
L 250.474909 186.563893 
L 254.250424 198.038174 
L 258.025939 181.61999 
L 261.801455 199.55086 
L 265.57697 187.744526 
L 269.352485 189.331002 
L 273.128 199.919808 
L 276.903515 189.69995 
L 280.67903 184.866732 
L 284.454545 186.600787 
L 288.230061 195.603117 
L 292.005576 198.70228 
L 295.781091 195.197274 
L 299.556606 191.876743 
L 303.332121 187.670736 
L 307.107636 196.673066 
L 310.883152 184.3871 
L 314.658667 209.696928 
L 318.434182 190.954373 
L 322.209697 193.869062 
L 325.985212 194.975906 
L 329.760727 203.16655 
L 333.536242 204.642342 
L 337.311758 192.799113 
L 341.087273 217.112782 
L 344.862788 190.068898 
L 348.638303 211.799932 
L 352.413818 196.377908 
L 356.189333 190.917478 
L 359.964848 204.347183 
L 363.740364 189.220318 
L 367.515879 203.793761 
L 371.291394 201.063547 
L 375.066909 183.686099 
L 378.842424 189.958214 
L 382.617939 186.895946 
L 386.393455 188.814475 
L 390.16897 193.352535 
L 397.72 195.972065 
L 401.495515 191.286426 
L 405.27103 197.70612 
L 409.046545 203.203445 
L 412.822061 213.497092 
L 416.597576 207.667715 
L 420.373091 202.834497 
L 424.148606 200.288756 
L 427.924121 200.067387 
L 431.699636 205.822975 
L 435.475152 207.372556 
L 439.250667 211.652353 
L 443.026182 190.511636 
L 446.801697 208.368716 
L 450.577212 201.137336 
L 454.352727 209.106612 
L 458.128242 207.188082 
L 461.903758 211.098931 
L 465.679273 209.217296 
L 473.230303 196.488592 
L 477.005818 207.040503 
L 480.781333 206.044344 
L 484.556848 199.145017 
L 488.332364 197.8537 
L 492.107879 209.955192 
L 495.883394 211.467879 
L 499.658909 199.513965 
L 503.434424 199.366386 
L 507.209939 200.879073 
L 510.985455 199.919808 
L 514.76097 200.879073 
L 518.536485 197.964384 
L 522.312 208.922138 
L 526.087515 205.232658 
L 529.86303 204.789921 
L 533.638545 209.623139 
L 537.414061 203.424813 
L 541.189576 208.774559 
L 544.965091 203.830656 
L 548.740606 190.69611 
L 552.516121 202.24418 
L 556.291636 195.271064 
L 560.067152 191.802953 
L 563.842667 193.537009 
L 567.618182 193.131166 
L 571.393697 197.70612 
L 575.169212 190.769899 
L 578.944727 203.351024 
L 582.720242 203.387919 
L 586.495758 190.474741 
L 590.271273 197.300278 
L 594.046788 193.869062 
L 597.822303 189.146528 
L 601.597818 184.128836 
L 605.373333 185.124996 
L 609.148848 192.688428 
L 612.924364 194.127325 
L 616.699879 184.423995 
L 620.475394 179.148039 
L 624.250909 176.011982 
L 628.026424 179.885935 
L 631.801939 185.678418 
L 635.577455 188.556212 
L 639.35297 198.776069 
L 643.128485 187.375578 
L 646.904 182.468571 
L 650.679515 192.208796 
L 654.45503 198.333332 
L 658.230545 194.717642 
L 662.006061 188.297948 
L 665.781576 199.255702 
L 669.557091 187.338683 
L 673.332606 206.155028 
L 677.108121 201.137336 
L 680.883636 212.16888 
L 680.883636 212.16888 
" clip-path="url(#pa36abacbbb)" style="fill: none; stroke: #008000; stroke-width: 3; stroke-linecap: square"/>
   </g>
   <g id="line2d_18">
    <path d="M 114.556364 55.513584 
L 118.331879 32.048495 
L 125.882909 57.358324 
L 129.658424 46.695729 
L 133.433939 54.775688 
L 137.209455 41.272194 
L 140.98497 60.199223 
L 144.760485 56.694218 
L 148.536 61.527436 
L 152.311515 61.675015 
L 156.08703 56.362165 
L 159.862545 51.307578 
L 163.638061 51.086209 
L 167.413576 44.408251 
L 171.189091 56.214585 
L 174.964606 58.059325 
L 178.740121 47.39673 
L 182.515636 57.505903 
L 186.291152 59.129274 
L 190.066667 63.003228 
L 193.842182 63.040122 
L 197.617697 45.109252 
L 201.393212 51.897895 
L 205.168727 54.517425 
L 208.944242 54.48053 
L 212.719758 54.701899 
L 216.495273 59.350643 
L 220.270788 52.156158 
L 224.046303 54.332951 
L 227.821818 39.611928 
L 231.597333 44.482041 
L 235.372848 57.690377 
L 239.148364 58.133115 
L 242.923879 45.55199 
L 246.699394 55.882532 
L 250.474909 52.266842 
L 254.250424 56.620428 
L 258.025939 55.366005 
L 261.801455 49.130785 
L 265.57697 61.490541 
L 269.352485 49.499733 
L 273.128 55.771848 
L 276.903515 52.008579 
L 280.67903 59.79338 
L 284.454545 48.134626 
L 288.230061 46.142307 
L 292.005576 54.886373 
L 295.781091 53.927108 
L 299.556606 53.263002 
L 303.332121 49.352154 
L 307.107636 48.761837 
L 310.883152 58.871011 
L 318.434182 57.210745 
L 322.209697 51.676526 
L 325.985212 61.822594 
L 329.760727 52.082368 
L 333.536242 57.948641 
L 337.311758 52.119263 
L 341.087273 49.794891 
L 344.862788 61.896384 
L 348.638303 54.111582 
L 352.413818 65.25381 
L 356.189333 56.509744 
L 359.964848 53.742634 
L 363.740364 54.48053 
L 367.515879 65.032441 
L 371.291394 60.863329 
L 375.066909 52.820264 
L 378.842424 59.682696 
L 382.617939 54.812583 
L 386.393455 69.533606 
L 390.16897 57.690377 
L 393.944485 63.003228 
L 397.72 59.94096 
L 401.495515 51.971684 
L 405.27103 51.012419 
L 409.046545 52.930949 
L 412.822061 63.113912 
L 416.597576 64.146966 
L 420.373091 52.967844 
L 424.148606 53.263002 
L 427.924121 50.495892 
L 431.699636 51.713421 
L 435.475152 67.541287 
L 439.250667 60.937119 
L 443.026182 58.871011 
L 446.801697 50.606577 
L 450.577212 44.445146 
L 454.352727 74.440614 
L 458.128242 61.453646 
L 461.903758 53.336791 
L 465.679273 57.10006 
L 469.454788 66.692707 
L 473.230303 66.323759 
L 477.005818 66.766497 
L 480.781333 57.358324 
L 484.556848 58.612747 
L 488.332364 51.123104 
L 492.107879 65.290705 
L 495.883394 55.513584 
L 499.658909 63.999387 
L 503.434424 60.900224 
L 507.209939 67.688866 
L 510.985455 64.811072 
L 514.76097 58.907905 
L 518.536485 58.02243 
L 522.312 63.962492 
L 526.087515 55.4029 
L 529.86303 66.471338 
L 533.638545 54.701899 
L 537.414061 66.213075 
L 541.189576 50.422103 
L 544.965091 56.768007 
L 548.740606 62.412911 
L 552.516121 49.278364 
L 556.291636 68.721921 
L 563.842667 62.63428 
L 567.618182 60.605066 
L 571.393697 66.249969 
L 575.169212 57.542798 
L 578.944727 54.48053 
L 582.720242 66.508233 
L 586.495758 60.346802 
L 590.271273 62.744964 
L 594.046788 55.882532 
L 597.822303 63.999387 
L 601.597818 56.731113 
L 605.373333 61.748805 
L 609.148848 63.667334 
L 612.924364 71.267661 
L 616.699879 66.360654 
L 620.475394 74.366824 
L 624.250909 71.046293 
L 628.026424 66.692707 
L 631.801939 71.599715 
L 635.577455 75.695037 
L 639.35297 75.879511 
L 643.128485 78.462146 
L 646.904 76.654301 
L 650.679515 80.048622 
L 654.45503 93.921065 
L 658.230545 74.034771 
L 662.006061 82.409889 
L 665.781576 83.885681 
L 669.557091 99.27081 
L 673.332606 106.096347 
L 677.108121 128.270118 
L 680.883636 109.638247 
L 680.883636 109.638247 
" clip-path="url(#pa36abacbbb)" style="fill: none; stroke: #ff0000; stroke-width: 3; stroke-linecap: square"/>
   </g>
   <g id="line2d_19">
    <path d="M 114.556364 45.404411 
L 118.331879 45.367516 
L 122.107394 42.379038 
L 125.882909 32.08539 
L 129.658424 70.050133 
L 133.433939 65.733442 
L 137.209455 52.63579 
L 140.98497 49.647312 
L 144.760485 49.610417 
L 148.536 50.163839 
L 152.311515 51.934789 
L 156.08703 49.425943 
L 159.862545 62.56049 
L 163.638061 67.94713 
L 167.413576 48.614258 
L 171.189091 51.123104 
L 174.964606 48.724942 
L 178.740121 45.957833 
L 182.515636 54.296056 
L 186.291152 61.675015 
L 190.066667 54.369846 
L 193.842182 67.061655 
L 197.617697 65.069336 
L 201.393212 68.426762 
L 205.168727 52.78337 
L 208.944242 54.738794 
L 212.719758 51.861 
L 216.495273 71.747294 
L 220.270788 76.691196 
L 224.046303 63.445965 
L 227.821818 54.48053 
L 231.597333 69.238448 
L 235.372848 57.764167 
L 239.148364 67.283024 
L 242.923879 72.263821 
L 246.699394 77.79804 
L 250.474909 78.867989 
L 254.250424 70.861819 
L 258.025939 78.425251 
L 261.801455 69.017079 
L 265.57697 81.33994 
L 269.352485 67.651972 
L 273.128 57.727272 
L 276.903515 60.974014 
L 280.67903 60.162328 
L 284.454545 62.56049 
L 288.230061 46.658834 
L 292.005576 54.628109 
L 295.781091 70.308397 
L 299.556606 54.111582 
L 303.332121 53.152318 
L 307.107636 78.867989 
L 310.883152 45.699569 
L 314.658667 72.48519 
L 318.434182 60.900224 
L 322.209697 67.651972 
L 325.985212 70.308397 
L 329.760727 87.206212 
L 333.536242 96.282332 
L 337.311758 91.301535 
L 341.087273 87.501371 
L 344.862788 96.5037 
L 348.638303 97.130912 
L 352.413818 96.725069 
L 356.189333 85.619736 
L 359.964848 107.092506 
L 363.740364 99.934916 
L 367.515879 93.072485 
L 371.291394 92.814221 
L 375.066909 92.9618 
L 378.842424 108.051771 
L 382.617939 96.171647 
L 386.393455 114.766624 
L 390.16897 118.935735 
L 393.944485 132.254756 
L 397.72 131.111017 
L 401.495515 140.076452 
L 405.27103 139.375451 
L 409.046545 140.666769 
L 412.822061 170.440868 
L 416.597576 164.980438 
L 420.373091 161.217169 
L 424.148606 160.405484 
L 427.924121 163.135698 
L 431.699636 170.514657 
L 435.475152 161.733696 
L 439.250667 169.370919 
L 443.026182 170.330183 
L 446.801697 178.668407 
L 450.577212 155.387792 
L 454.352727 167.821337 
L 458.128242 176.011982 
L 461.903758 172.101133 
L 465.679273 175.163401 
L 469.454788 172.027344 
L 473.230303 155.68295 
L 477.005818 168.411654 
L 480.781333 180.107304 
L 484.556848 182.136517 
L 488.332364 178.779091 
L 492.107879 175.679928 
L 495.883394 161.733696 
L 499.658909 173.060398 
L 503.434424 160.774432 
L 507.209939 173.060398 
L 510.985455 167.710653 
L 514.76097 183.944362 
L 518.536485 172.101133 
L 522.312 179.111144 
L 526.087515 185.530838 
L 529.86303 178.299459 
L 533.638545 167.968916 
L 537.414061 176.454719 
L 541.189576 181.730675 
L 544.965091 187.965895 
L 548.740606 172.654555 
L 556.291636 176.639193 
L 560.067152 192.503954 
L 563.842667 187.85521 
L 567.618182 197.70612 
L 571.393697 184.940522 
L 575.169212 181.177253 
L 578.944727 180.660726 
L 582.720242 181.988938 
L 586.495758 183.981257 
L 590.271273 175.532349 
L 594.046788 177.008141 
L 597.822303 184.018152 
L 601.597818 175.864402 
L 605.373333 163.393962 
L 609.148848 170.403973 
L 612.924364 186.15805 
L 616.699879 173.392451 
L 620.475394 174.019663 
L 624.250909 170.07192 
L 628.026424 182.61615 
L 631.801939 186.379419 
L 635.577455 161.475433 
L 639.35297 173.281767 
L 643.128485 194.16422 
L 646.904 180.734515 
L 650.679515 186.822156 
L 654.45503 173.466241 
L 658.230545 184.608469 
L 662.006061 183.944362 
L 665.781576 195.93517 
L 669.557091 195.049695 
L 673.332606 178.483933 
L 677.108121 190.179582 
L 680.883636 180.107304 
L 680.883636 180.107304 
" clip-path="url(#pa36abacbbb)" style="fill: none; stroke: #ffa500; stroke-width: 3; stroke-linecap: square"/>
   </g>
   <g id="patch_3">
    <path d="M 86.24 351.16 
L 86.24 10.8 
" style="fill: none; stroke: #000000; stroke-width: 0.8; stroke-linejoin: miter; stroke-linecap: square"/>
   </g>
   <g id="patch_4">
    <path d="M 709.2 351.16 
L 709.2 10.8 
" style="fill: none; stroke: #000000; stroke-width: 0.8; stroke-linejoin: miter; stroke-linecap: square"/>
   </g>
   <g id="patch_5">
    <path d="M 86.24 351.16 
L 709.2 351.16 
" style="fill: none; stroke: #000000; stroke-width: 0.8; stroke-linejoin: miter; stroke-linecap: square"/>
   </g>
   <g id="patch_6">
    <path d="M 86.24 10.8 
L 709.2 10.8 
" style="fill: none; stroke: #000000; stroke-width: 0.8; stroke-linejoin: miter; stroke-linecap: square"/>
   </g>
  </g>
 </g>
 <defs>
  <clipPath id="pa36abacbbb">
   <rect x="86.24" y="10.8" width="622.96" height="340.36"/>
  </clipPath>
 </defs>
</svg>
