<?xml version="1.0" encoding="utf-8" standalone="no"?>
<!DOCTYPE svg PUBLIC "-//W3C//DTD SVG 1.1//EN"
  "http://www.w3.org/Graphics/SVG/1.1/DTD/svg11.dtd">
<svg xmlns:xlink="http://www.w3.org/1999/xlink" width="720pt" height="432pt" viewBox="0 0 720 432" xmlns="http://www.w3.org/2000/svg" version="1.1">
 <metadata>
  <rdf:RDF xmlns:dc="http://purl.org/dc/elements/1.1/" xmlns:cc="http://creativecommons.org/ns#" xmlns:rdf="http://www.w3.org/1999/02/22-rdf-syntax-ns#">
   <cc:Work>
    <dc:type rdf:resource="http://purl.org/dc/dcmitype/StillImage"/>
    <dc:date>2025-06-19T21:19:35.702539</dc:date>
    <dc:format>image/svg+xml</dc:format>
    <dc:creator>
     <cc:Agent>
      <dc:title>Matplotlib v3.7.1, https://matplotlib.org/</dc:title>
     </cc:Agent>
    </dc:creator>
   </cc:Work>
  </rdf:RDF>
 </metadata>
 <defs>
  <style type="text/css">*{stroke-linejoin: round; stroke-linecap: butt}</style>
 </defs>
 <g id="figure_1">
  <g id="patch_1">
   <path d="M 0 432 
L 720 432 
L 720 0 
L 0 0 
z
" style="fill: #ffffff"/>
  </g>
  <g id="axes_1">
   <g id="patch_2">
    <path d="M 96.41 343.96 
L 709.2 343.96 
L 709.2 10.8 
L 96.41 10.8 
z
" style="fill: #ffffff"/>
   </g>
   <g id="PolyCollection_1">
    <defs>
     <path id="mfa34ead7a1" d="M 124.264091 -353.565087 
L 124.264091 -346.190248 
L 127.97797 -365.931583 
L 131.691848 -351.793291 
L 135.405727 -358.95817 
L 139.119606 -346.379515 
L 142.833485 -353.546887 
L 146.547364 -350.337838 
L 150.261242 -363.655591 
L 153.975121 -340.214614 
L 157.689 -353.590987 
L 161.402879 -332.907806 
L 165.116758 -351.213065 
L 168.830636 -342.972983 
L 172.544515 -342.865842 
L 176.258394 -353.758643 
L 179.972273 -354.497723 
L 183.686152 -348.117397 
L 187.40003 -353.849785 
L 191.113909 -335.081956 
L 194.827788 -311.393213 
L 198.541667 -297.119887 
L 202.255545 -305.586271 
L 205.969424 -285.904335 
L 209.683303 -279.855908 
L 213.397182 -276.541155 
L 217.111061 -263.031818 
L 220.824939 -244.29612 
L 224.538818 -235.278699 
L 228.252697 -244.841119 
L 231.966576 -222.634314 
L 235.680455 -218.576545 
L 239.394333 -239.542421 
L 243.108212 -230.37794 
L 246.822091 -221.079536 
L 250.53597 -228.869252 
L 254.249848 -216.539931 
L 257.963727 -221.117309 
L 261.677606 -222.516377 
L 265.391485 -212.729616 
L 269.105364 -216.426618 
L 272.819242 -206.362168 
L 276.533121 -210.899869 
L 280.247 -205.736102 
L 283.960879 -201.974314 
L 287.674758 -201.145592 
L 291.388636 -213.735132 
L 295.102515 -199.160968 
L 298.816394 -206.136938 
L 302.530273 -206.770706 
L 306.244152 -203.844116 
L 309.95803 -189.536008 
L 313.671909 -186.56288 
L 317.385788 -190.957205 
L 321.099667 -188.24417 
L 324.813545 -176.878752 
L 328.527424 -177.038324 
L 332.241303 -185.151911 
L 335.955182 -183.591845 
L 339.669061 -175.619139 
L 343.382939 -188.368443 
L 347.096818 -179.951955 
L 350.810697 -186.665856 
L 354.524576 -182.91117 
L 358.238455 -184.646551 
L 361.952333 -177.196101 
L 365.666212 -176.24841 
L 369.380091 -193.727364 
L 373.09397 -180.667527 
L 376.807848 -185.197162 
L 380.521727 -182.900807 
L 384.235606 -184.895629 
L 387.949485 -179.608813 
L 391.663364 -177.983651 
L 395.377242 -186.746614 
L 399.091121 -173.834049 
L 402.805 -175.766406 
L 406.518879 -171.008218 
L 410.232758 -164.30461 
L 413.946636 -171.803077 
L 417.660515 -170.720812 
L 421.374394 -168.995591 
L 425.088273 -172.325965 
L 428.802152 -165.849454 
L 432.51603 -166.873646 
L 436.229909 -151.944236 
L 439.943788 -157.831372 
L 443.657667 -157.775372 
L 447.371545 -148.347816 
L 451.085424 -141.386906 
L 454.799303 -148.409738 
L 458.513182 -143.175911 
L 462.227061 -141.402108 
L 465.940939 -144.931976 
L 469.654818 -149.865144 
L 473.368697 -148.784707 
L 477.082576 -150.53004 
L 480.796455 -149.739949 
L 484.510333 -152.867962 
L 488.224212 -152.72598 
L 491.938091 -153.258295 
L 495.65197 -153.663656 
L 499.365848 -142.174726 
L 503.079727 -143.950572 
L 506.793606 -139.290217 
L 510.507485 -138.364087 
L 514.221364 -130.493067 
L 517.935242 -138.048021 
L 521.649121 -134.106361 
L 525.363 -141.252038 
L 529.076879 -139.623556 
L 532.790758 -143.885272 
L 536.504636 -145.148809 
L 540.218515 -135.786252 
L 543.932394 -141.137453 
L 547.646273 -140.2907 
L 551.360152 -148.395965 
L 555.07403 -142.04607 
L 558.787909 -138.770342 
L 562.501788 -137.641075 
L 566.215667 -131.111786 
L 569.929545 -138.317164 
L 573.643424 -140.011052 
L 577.357303 -126.973436 
L 581.071182 -131.17817 
L 584.785061 -116.746788 
L 588.498939 -116.728605 
L 592.212818 -122.292378 
L 595.926697 -117.695669 
L 599.640576 -113.090375 
L 603.354455 -107.940227 
L 607.068333 -115.048025 
L 610.782212 -108.068554 
L 614.496091 -113.732354 
L 618.20997 -116.050691 
L 621.923848 -122.402869 
L 625.637727 -117.787369 
L 629.351606 -118.408863 
L 633.065485 -124.090935 
L 636.779364 -122.349392 
L 640.493242 -120.484497 
L 644.207121 -117.628341 
L 647.921 -106.803481 
L 651.634879 -103.183636 
L 655.348758 -108.254607 
L 659.062636 -116.676579 
L 662.776515 -110.996471 
L 666.490394 -109.407005 
L 670.204273 -115.123705 
L 673.918152 -113.998313 
L 677.63203 -121.530082 
L 681.345909 -117.563347 
L 681.345909 -144.205764 
L 681.345909 -144.205764 
L 677.63203 -149.417281 
L 673.918152 -147.256816 
L 670.204273 -141.432158 
L 666.490394 -140.09996 
L 662.776515 -145.045409 
L 659.062636 -149.791797 
L 655.348758 -143.308286 
L 651.634879 -159.466586 
L 647.921 -156.43415 
L 644.207121 -163.084683 
L 640.493242 -165.221497 
L 636.779364 -153.737793 
L 633.065485 -168.149975 
L 629.351606 -175.667697 
L 625.637727 -181.575865 
L 621.923848 -189.736493 
L 618.20997 -188.378938 
L 614.496091 -194.148298 
L 610.782212 -208.109239 
L 607.068333 -210.675151 
L 603.354455 -205.153674 
L 599.640576 -211.237706 
L 595.926697 -215.370109 
L 592.212818 -193.077729 
L 588.498939 -197.026129 
L 584.785061 -202.808602 
L 581.071182 -206.733726 
L 577.357303 -213.214667 
L 573.643424 -191.365928 
L 569.929545 -207.965298 
L 566.215667 -211.939931 
L 562.501788 -211.872132 
L 558.787909 -202.666003 
L 555.07403 -202.400742 
L 551.360152 -196.785107 
L 547.646273 -196.226102 
L 543.932394 -209.550571 
L 540.218515 -194.562763 
L 536.504636 -205.832918 
L 532.790758 -197.037091 
L 529.076879 -218.186792 
L 525.363 -212.960435 
L 521.649121 -216.287959 
L 517.935242 -213.521115 
L 514.221364 -215.789395 
L 510.507485 -217.97774 
L 506.793606 -230.929129 
L 503.079727 -211.069587 
L 499.365848 -209.981819 
L 495.65197 -220.667547 
L 491.938091 -212.92262 
L 488.224212 -229.755512 
L 484.510333 -221.610093 
L 480.796455 -221.727639 
L 477.082576 -207.133456 
L 473.368697 -211.08157 
L 469.654818 -220.060498 
L 465.940939 -230.574044 
L 462.227061 -215.306849 
L 458.513182 -221.683335 
L 454.799303 -218.799141 
L 451.085424 -205.189261 
L 447.371545 -209.903088 
L 443.657667 -196.216823 
L 439.943788 -200.786662 
L 436.229909 -196.100451 
L 432.51603 -197.104487 
L 428.802152 -202.607667 
L 425.088273 -207.365337 
L 421.374394 -214.073309 
L 417.660515 -215.652258 
L 413.946636 -218.094443 
L 410.232758 -215.974101 
L 406.518879 -212.648089 
L 402.805 -205.246565 
L 399.091121 -224.287185 
L 395.377242 -222.094819 
L 391.663364 -219.183044 
L 387.949485 -211.683801 
L 384.235606 -216.45635 
L 380.521727 -210.594588 
L 376.807848 -229.077797 
L 373.09397 -212.167034 
L 369.380091 -222.970654 
L 365.666212 -212.400867 
L 361.952333 -216.37272 
L 358.238455 -226.838219 
L 354.524576 -222.919796 
L 350.810697 -211.455378 
L 347.096818 -221.693728 
L 343.382939 -215.994003 
L 339.669061 -223.016077 
L 335.955182 -232.298487 
L 332.241303 -245.643903 
L 328.527424 -243.771551 
L 324.813545 -240.4801 
L 321.099667 -244.313869 
L 317.385788 -239.618331 
L 313.671909 -241.589597 
L 309.95803 -228.703956 
L 306.244152 -279.1576 
L 302.530273 -237.021514 
L 298.816394 -253.441877 
L 295.102515 -252.047281 
L 291.388636 -250.6898 
L 287.674758 -235.96486 
L 283.960879 -242.992722 
L 280.247 -238.349822 
L 276.533121 -249.266354 
L 272.819242 -238.678294 
L 269.105364 -241.683676 
L 265.391485 -255.586895 
L 261.677606 -266.579699 
L 257.963727 -271.576642 
L 254.249848 -266.388359 
L 250.53597 -271.093875 
L 246.822091 -288.575826 
L 243.108212 -304.682826 
L 239.394333 -289.644263 
L 235.680455 -311.491251 
L 231.966576 -319.695628 
L 228.252697 -327.07951 
L 224.538818 -328.71192 
L 220.824939 -340.474063 
L 217.111061 -342.224225 
L 213.397182 -348.760193 
L 209.683303 -334.064406 
L 205.969424 -350.70462 
L 202.255545 -396.44527 
L 198.541667 -354.100846 
L 194.827788 -360.093102 
L 191.113909 -357.110497 
L 187.40003 -366.538261 
L 183.686152 -376.382506 
L 179.972273 -368.019678 
L 176.258394 -376.395065 
L 172.544515 -369.078212 
L 168.830636 -366.988568 
L 165.116758 -363.961734 
L 161.402879 -359.872056 
L 157.689 -363.492888 
L 153.975121 -359.907851 
L 150.261242 -369.141453 
L 146.547364 -374.162065 
L 142.833485 -367.795698 
L 139.119606 -361.012126 
L 135.405727 -368.845905 
L 131.691848 -358.16826 
L 127.97797 -371.271023 
L 124.264091 -353.565087 
z
" style="stroke: #0000ff; stroke-opacity: 0.3"/>
    </defs>
    <g clip-path="url(#p92dc64c23a)">
     <use xlink:href="#mfa34ead7a1" x="0" y="432" style="fill: #0000ff; fill-opacity: 0.3; stroke: #0000ff; stroke-opacity: 0.3"/>
    </g>
   </g>
   <g id="PolyCollection_2">
    <defs>
     <path id="m28e6e80232" d="M 124.264091 -368.499223 
L 124.264091 -346.749002 
L 127.97797 -362.39536 
L 131.691848 -358.65298 
L 135.405727 -359.674238 
L 139.119606 -358.791576 
L 142.833485 -360.27811 
L 146.547364 -371.300201 
L 150.261242 -364.707009 
L 153.975121 -345.792823 
L 157.689 -372.141852 
L 161.402879 -358.826203 
L 165.116758 -359.062041 
L 168.830636 -373.905157 
L 172.544515 -368.548013 
L 176.258394 -354.752244 
L 179.972273 -372.66258 
L 183.686152 -362.994975 
L 187.40003 -366.485929 
L 191.113909 -344.852109 
L 194.827788 -332.038952 
L 198.541667 -305.91915 
L 202.255545 -312.554365 
L 205.969424 -290.481794 
L 209.683303 -298.512158 
L 213.397182 -276.010326 
L 217.111061 -260.965238 
L 220.824939 -260.263268 
L 224.538818 -238.413735 
L 228.252697 -274.459485 
L 231.966576 -243.971395 
L 235.680455 -218.798764 
L 239.394333 -219.60002 
L 243.108212 -227.477531 
L 246.822091 -227.36667 
L 250.53597 -219.291544 
L 254.249848 -235.064969 
L 257.963727 -220.639848 
L 261.677606 -221.516609 
L 265.391485 -220.187099 
L 269.105364 -233.436011 
L 272.819242 -221.894118 
L 276.533121 -217.78692 
L 280.247 -212.106947 
L 283.960879 -209.411552 
L 287.674758 -213.954524 
L 291.388636 -225.704115 
L 295.102515 -214.277051 
L 298.816394 -220.590963 
L 302.530273 -237.020763 
L 306.244152 -221.072057 
L 309.95803 -233.257614 
L 313.671909 -238.517752 
L 317.385788 -224.879767 
L 321.099667 -227.872303 
L 324.813545 -254.003512 
L 328.527424 -228.300621 
L 332.241303 -241.819043 
L 335.955182 -230.910701 
L 339.669061 -258.321261 
L 343.382939 -231.997785 
L 347.096818 -259.112428 
L 350.810697 -272.184045 
L 354.524576 -273.32567 
L 358.238455 -251.173827 
L 361.952333 -266.611971 
L 365.666212 -265.910382 
L 369.380091 -259.817157 
L 373.09397 -251.441097 
L 376.807848 -270.373992 
L 380.521727 -230.457156 
L 384.235606 -266.245916 
L 387.949485 -265.773849 
L 391.663364 -257.102677 
L 395.377242 -300.959715 
L 399.091121 -263.829878 
L 402.805 -256.575201 
L 406.518879 -243.813963 
L 410.232758 -288.454039 
L 413.946636 -274.723959 
L 417.660515 -316.781822 
L 421.374394 -280.715562 
L 425.088273 -289.791876 
L 428.802152 -300.123151 
L 432.51603 -314.997717 
L 436.229909 -310.785407 
L 439.943788 -284.014793 
L 443.657667 -278.562453 
L 447.371545 -323.952885 
L 451.085424 -285.831224 
L 454.799303 -279.393972 
L 458.513182 -324.019227 
L 462.227061 -284.221766 
L 465.940939 -315.758443 
L 469.654818 -314.000609 
L 473.368697 -314.959761 
L 477.082576 -306.034542 
L 480.796455 -317.638122 
L 484.510333 -288.786329 
L 488.224212 -294.532196 
L 491.938091 -285.868378 
L 495.65197 -254.44994 
L 499.365848 -263.202983 
L 503.079727 -252.63187 
L 506.793606 -248.336639 
L 510.507485 -251.663865 
L 514.221364 -261.733692 
L 517.935242 -245.803945 
L 521.649121 -253.836267 
L 525.363 -265.147641 
L 529.076879 -256.252073 
L 532.790758 -274.452782 
L 536.504636 -314.902535 
L 540.218515 -283.115925 
L 543.932394 -273.850869 
L 547.646273 -305.082379 
L 551.360152 -291.052805 
L 555.07403 -277.282189 
L 558.787909 -273.6145 
L 562.501788 -268.538706 
L 566.215667 -289.087442 
L 569.929545 -314.769575 
L 573.643424 -300.824588 
L 577.357303 -314.671108 
L 581.071182 -310.480311 
L 584.785061 -329.876243 
L 588.498939 -300.359909 
L 592.212818 -292.965217 
L 595.926697 -296.09098 
L 599.640576 -273.228823 
L 603.354455 -287.946062 
L 607.068333 -285.149897 
L 610.782212 -261.867539 
L 614.496091 -327.700866 
L 618.20997 -294.68455 
L 621.923848 -302.893905 
L 625.637727 -322.255845 
L 629.351606 -313.442415 
L 633.065485 -313.067635 
L 636.779364 -272.71566 
L 640.493242 -280.638367 
L 644.207121 -281.864597 
L 647.921 -268.854344 
L 651.634879 -320.105831 
L 655.348758 -284.769584 
L 659.062636 -344.383567 
L 662.776515 -303.196527 
L 666.490394 -289.189244 
L 670.204273 -285.206798 
L 673.918152 -286.645739 
L 677.63203 -294.154472 
L 681.345909 -292.407949 
L 681.345909 -317.033377 
L 681.345909 -317.033377 
L 677.63203 -314.112038 
L 673.918152 -330.799024 
L 670.204273 -356.762256 
L 666.490394 -337.433772 
L 662.776515 -342.076698 
L 659.062636 -361.466127 
L 655.348758 -336.787037 
L 651.634879 -336.842132 
L 647.921 -381.118146 
L 644.207121 -321.849499 
L 640.493242 -327.481292 
L 636.779364 -315.872676 
L 633.065485 -340.796435 
L 629.351606 -346.002033 
L 625.637727 -326.321552 
L 621.923848 -328.501802 
L 618.20997 -336.050323 
L 614.496091 -350.9812 
L 610.782212 -296.616128 
L 607.068333 -288.606383 
L 603.354455 -344.844739 
L 599.640576 -342.453715 
L 595.926697 -310.046175 
L 592.212818 -329.986498 
L 588.498939 -329.493852 
L 584.785061 -363.344175 
L 581.071182 -356.306739 
L 577.357303 -353.364184 
L 573.643424 -333.50816 
L 569.929545 -344.821725 
L 566.215667 -315.948323 
L 562.501788 -337.525023 
L 558.787909 -351.393143 
L 555.07403 -336.638125 
L 551.360152 -333.587708 
L 547.646273 -324.257399 
L 543.932394 -303.576712 
L 540.218515 -336.237914 
L 536.504636 -367.964814 
L 532.790758 -344.827631 
L 529.076879 -310.969291 
L 525.363 -305.157615 
L 521.649121 -319.920013 
L 517.935242 -333.01873 
L 514.221364 -338.896512 
L 510.507485 -348.966339 
L 506.793606 -320.793801 
L 503.079727 -348.732594 
L 499.365848 -320.979792 
L 495.65197 -337.662845 
L 491.938091 -336.055373 
L 488.224212 -351.768994 
L 484.510333 -382.920265 
L 480.796455 -382.33749 
L 477.082576 -406.056364 
L 473.368697 -361.739802 
L 469.654818 -368.426184 
L 465.940939 -350.000643 
L 462.227061 -369.422026 
L 458.513182 -382.785005 
L 454.799303 -362.501656 
L 451.085424 -344.169389 
L 447.371545 -335.197859 
L 443.657667 -333.595636 
L 439.943788 -319.185321 
L 436.229909 -357.690442 
L 432.51603 -338.93978 
L 428.802152 -327.454403 
L 425.088273 -347.477913 
L 421.374394 -327.036966 
L 417.660515 -360.431724 
L 413.946636 -312.542709 
L 410.232758 -324.585163 
L 406.518879 -323.627678 
L 402.805 -300.219668 
L 399.091121 -291.643322 
L 395.377242 -322.579408 
L 391.663364 -311.660633 
L 387.949485 -324.503285 
L 384.235606 -329.758449 
L 380.521727 -303.942776 
L 376.807848 -302.868305 
L 373.09397 -336.339553 
L 369.380091 -305.348278 
L 365.666212 -343.090388 
L 361.952333 -312.577834 
L 358.238455 -289.320465 
L 354.524576 -336.849917 
L 350.810697 -293.568799 
L 347.096818 -286.521685 
L 343.382939 -280.154062 
L 339.669061 -284.375811 
L 335.955182 -293.870422 
L 332.241303 -269.157988 
L 328.527424 -315.644694 
L 324.813545 -278.634195 
L 321.099667 -282.443894 
L 317.385788 -286.390968 
L 313.671909 -280.756419 
L 309.95803 -283.520073 
L 306.244152 -282.195241 
L 302.530273 -264.998293 
L 298.816394 -287.963009 
L 295.102515 -279.591716 
L 291.388636 -270.073729 
L 287.674758 -252.159206 
L 283.960879 -275.719519 
L 280.247 -280.146448 
L 276.533121 -269.326653 
L 272.819242 -259.78593 
L 269.105364 -269.097027 
L 265.391485 -272.286574 
L 261.677606 -281.016429 
L 257.963727 -278.295315 
L 254.249848 -288.68819 
L 250.53597 -286.765943 
L 246.822091 -323.921247 
L 243.108212 -359.201728 
L 239.394333 -380.00222 
L 235.680455 -395.341828 
L 231.966576 -378.172633 
L 228.252697 -388.215708 
L 224.538818 -360.674523 
L 220.824939 -355.05214 
L 217.111061 -369.255653 
L 213.397182 -396.283675 
L 209.683303 -385.309729 
L 205.969424 -385.630361 
L 202.255545 -389.917731 
L 198.541667 -386.640434 
L 194.827788 -395.030862 
L 191.113909 -381.777149 
L 187.40003 -394.139577 
L 183.686152 -373.253092 
L 179.972273 -377.536431 
L 176.258394 -382.523787 
L 172.544515 -373.280432 
L 168.830636 -378.202932 
L 165.116758 -379.095103 
L 161.402879 -392.107069 
L 157.689 -392.301808 
L 153.975121 -359.836593 
L 150.261242 -377.121436 
L 146.547364 -382.937241 
L 142.833485 -372.151804 
L 139.119606 -380.61381 
L 135.405727 -365.4865 
L 131.691848 -385.525098 
L 127.97797 -368.933163 
L 124.264091 -368.499223 
z
" style="stroke: #008000; stroke-opacity: 0.3"/>
    </defs>
    <g clip-path="url(#p92dc64c23a)">
     <use xlink:href="#m28e6e80232" x="0" y="432" style="fill: #008000; fill-opacity: 0.3; stroke: #008000; stroke-opacity: 0.3"/>
    </g>
   </g>
   <g id="PolyCollection_3">
    <defs>
     <path id="mcbaa97dd71" d="M 124.264091 -364.411063 
L 124.264091 -355.169297 
L 127.97797 -359.256329 
L 131.691848 -373.270154 
L 135.405727 -373.61794 
L 139.119606 -352.566996 
L 142.833485 -362.558153 
L 146.547364 -378.668048 
L 150.261242 -345.068186 
L 153.975121 -372.942084 
L 157.689 -342.929552 
L 161.402879 -342.975806 
L 165.116758 -374.373258 
L 168.830636 -384.779776 
L 172.544515 -359.80423 
L 176.258394 -355.289872 
L 179.972273 -377.425023 
L 183.686152 -343.157133 
L 187.40003 -369.207793 
L 191.113909 -350.480205 
L 194.827788 -356.952394 
L 198.541667 -357.193545 
L 202.255545 -358.835565 
L 205.969424 -362.244286 
L 209.683303 -367.43927 
L 213.397182 -358.883424 
L 217.111061 -378.574829 
L 220.824939 -360.079932 
L 224.538818 -359.595021 
L 228.252697 -369.25539 
L 231.966576 -363.453206 
L 235.680455 -355.641085 
L 239.394333 -347.078941 
L 243.108212 -373.749585 
L 246.822091 -363.186674 
L 250.53597 -357.643828 
L 254.249848 -359.089314 
L 257.963727 -340.794378 
L 261.677606 -343.668583 
L 265.391485 -349.104456 
L 269.105364 -354.559487 
L 272.819242 -357.257168 
L 276.533121 -374.461891 
L 280.247 -361.423554 
L 283.960879 -345.025992 
L 287.674758 -353.87111 
L 291.388636 -358.491731 
L 295.102515 -376.385094 
L 298.816394 -346.31192 
L 302.530273 -367.526822 
L 306.244152 -354.457546 
L 309.95803 -364.621276 
L 313.671909 -356.987579 
L 317.385788 -359.522753 
L 321.099667 -358.244282 
L 324.813545 -354.995458 
L 328.527424 -365.874737 
L 332.241303 -351.156247 
L 335.955182 -375.13469 
L 339.669061 -343.844692 
L 343.382939 -353.946065 
L 347.096818 -359.815376 
L 350.810697 -362.450809 
L 354.524576 -365.179798 
L 358.238455 -345.148544 
L 361.952333 -349.464916 
L 365.666212 -352.345637 
L 369.380091 -357.116615 
L 373.09397 -365.83739 
L 376.807848 -352.608294 
L 380.521727 -349.418956 
L 384.235606 -335.463164 
L 387.949485 -351.724943 
L 391.663364 -333.221138 
L 395.377242 -359.151856 
L 399.091121 -363.152122 
L 402.805 -360.652766 
L 406.518879 -340.247897 
L 410.232758 -355.635944 
L 413.946636 -347.616591 
L 417.660515 -358.530421 
L 421.374394 -353.543935 
L 425.088273 -362.15431 
L 428.802152 -362.073504 
L 432.51603 -358.729563 
L 436.229909 -354.003203 
L 439.943788 -359.813848 
L 443.657667 -347.040962 
L 447.371545 -353.152876 
L 451.085424 -361.067308 
L 454.799303 -353.667753 
L 458.513182 -352.100425 
L 462.227061 -335.547366 
L 465.940939 -351.178386 
L 469.654818 -358.240592 
L 473.368697 -349.874719 
L 477.082576 -369.232804 
L 480.796455 -349.739199 
L 484.510333 -351.44149 
L 488.224212 -356.340609 
L 491.938091 -355.538774 
L 495.65197 -357.611252 
L 499.365848 -361.4016 
L 503.079727 -354.456728 
L 506.793606 -357.993589 
L 510.507485 -362.150435 
L 514.221364 -344.257072 
L 517.935242 -360.10837 
L 521.649121 -364.875658 
L 525.363 -348.093041 
L 529.076879 -343.433654 
L 532.790758 -352.035012 
L 536.504636 -345.174002 
L 540.218515 -343.641859 
L 543.932394 -369.134182 
L 547.646273 -346.096783 
L 551.360152 -343.486099 
L 555.07403 -345.965848 
L 558.787909 -357.868691 
L 562.501788 -361.669476 
L 566.215667 -353.664063 
L 569.929545 -371.043891 
L 573.643424 -371.184892 
L 577.357303 -358.529078 
L 581.071182 -357.760528 
L 584.785061 -352.041944 
L 588.498939 -348.658048 
L 592.212818 -346.388959 
L 595.926697 -355.411528 
L 599.640576 -353.277851 
L 603.354455 -369.16739 
L 607.068333 -349.807854 
L 610.782212 -361.230448 
L 614.496091 -357.450274 
L 618.20997 -349.957577 
L 621.923848 -335.738681 
L 625.637727 -365.347076 
L 629.351606 -367.565063 
L 633.065485 -349.011947 
L 636.779364 -358.928336 
L 640.493242 -354.859938 
L 644.207121 -360.629099 
L 647.921 -349.460331 
L 651.634879 -351.567732 
L 655.348758 -340.023929 
L 659.062636 -360.541994 
L 662.776515 -351.197807 
L 666.490394 -355.994537 
L 670.204273 -339.480614 
L 673.918152 -368.499624 
L 677.63203 -351.306603 
L 681.345909 -370.652646 
L 681.345909 -375.94849 
L 681.345909 -375.94849 
L 677.63203 -362.105971 
L 673.918152 -371.199466 
L 670.204273 -362.844631 
L 666.490394 -374.893431 
L 662.776515 -352.963088 
L 659.062636 -370.199121 
L 655.348758 -361.934185 
L 651.634879 -360.082618 
L 647.921 -355.067695 
L 644.207121 -371.947667 
L 640.493242 -367.216907 
L 636.779364 -374.088987 
L 633.065485 -356.176913 
L 629.351606 -372.134027 
L 625.637727 -370.019879 
L 621.923848 -365.852303 
L 618.20997 -357.434063 
L 614.496091 -368.665002 
L 610.782212 -363.93029 
L 607.068333 -368.083708 
L 603.354455 -376.332356 
L 599.640576 -354.627772 
L 595.926697 -361.745773 
L 592.212818 -369.960656 
L 588.498939 -360.495817 
L 584.785061 -364.087393 
L 581.071182 -359.83733 
L 577.357303 -368.393885 
L 573.643424 -372.846333 
L 569.929545 -375.924375 
L 566.215667 -362.90583 
L 562.501788 -366.134599 
L 558.787909 -364.722136 
L 555.07403 -354.376894 
L 551.360152 -350.028024 
L 547.646273 -367.903199 
L 543.932394 -369.757222 
L 540.218515 -349.872263 
L 536.504636 -357.738651 
L 532.790758 -359.615338 
L 529.076879 -370.639754 
L 525.363 -354.011926 
L 521.649121 -372.767504 
L 517.935242 -374.230621 
L 514.221364 -350.798997 
L 510.507485 -367.342439 
L 506.793606 -367.754557 
L 503.079727 -371.07114 
L 499.365848 -370.954888 
L 495.65197 -367.47606 
L 491.938091 -374.541508 
L 488.224212 -372.1243 
L 484.510333 -366.082941 
L 480.796455 -369.988014 
L 477.082576 -370.686565 
L 473.368697 -378.22306 
L 469.654818 -367.066998 
L 465.940939 -372.880962 
L 462.227061 -349.669616 
L 458.513182 -353.969547 
L 454.799303 -363.6364 
L 451.085424 -362.624909 
L 447.371545 -369.144247 
L 443.657667 -353.375206 
L 439.943788 -362.409849 
L 436.229909 -355.664644 
L 432.51603 -373.994055 
L 428.802152 -373.807433 
L 425.088273 -375.342 
L 421.374394 -361.851142 
L 417.660515 -359.361141 
L 413.946636 -365.061723 
L 410.232758 -359.685707 
L 406.518879 -362.885034 
L 402.805 -374.567337 
L 399.091121 -366.267325 
L 395.377242 -378.05075 
L 391.663364 -360.219558 
L 387.949485 -375.712001 
L 384.235606 -379.491357 
L 380.521727 -377.871137 
L 376.807848 -361.538541 
L 373.09397 -367.914192 
L 369.380091 -364.5931 
L 365.666212 -365.325647 
L 361.952333 -349.776436 
L 358.238455 -367.16264 
L 354.524576 -370.994843 
L 350.810697 -382.388103 
L 347.096818 -360.646097 
L 343.382939 -356.749747 
L 339.669061 -365.235747 
L 335.955182 -376.899972 
L 332.241303 -368.497539 
L 328.527424 -372.208981 
L 324.813545 -375.451953 
L 321.099667 -367.797569 
L 317.385788 -361.599554 
L 313.671909 -363.841024 
L 309.95803 -371.993921 
L 306.244152 -382.598207 
L 302.530273 -373.861067 
L 298.816394 -351.607764 
L 295.102515 -380.642537 
L 291.388636 -364.099096 
L 287.674758 -358.440074 
L 283.960879 -373.893534 
L 280.247 -368.069319 
L 276.533121 -380.069255 
L 272.819242 -364.525973 
L 269.105364 -369.720138 
L 265.391485 -364.161267 
L 261.677606 -348.964427 
L 257.963727 -383.264969 
L 254.249848 -372.900044 
L 250.53597 -369.793117 
L 246.822091 -363.809714 
L 243.108212 -376.449427 
L 239.394333 -361.928072 
L 235.680455 -376.201421 
L 231.966576 -368.02217 
L 228.252697 -372.059072 
L 224.538818 -377.974715 
L 220.824939 -369.633219 
L 217.111061 -385.428274 
L 213.397182 -361.064066 
L 209.683303 -375.123435 
L 205.969424 -366.294049 
L 202.255545 -376.384538 
L 198.541667 -358.128106 
L 194.827788 -362.040558 
L 191.113909 -367.925338 
L 187.40003 -377.099639 
L 183.686152 -365.48275 
L 179.972273 -377.840384 
L 176.258394 -362.454837 
L 172.544515 -376.003282 
L 168.830636 -388.621859 
L 165.116758 -380.084463 
L 161.402879 -350.244612 
L 157.689 -346.252435 
L 153.975121 -382.910731 
L 150.261242 -362.617159 
L 146.547364 -380.121809 
L 142.833485 -375.745843 
L 139.119606 -366.793086 
L 135.405727 -376.213942 
L 131.691848 -373.477834 
L 127.97797 -382.204986 
L 124.264091 -364.411063 
z
" style="stroke: #ff0000; stroke-opacity: 0.3"/>
    </defs>
    <g clip-path="url(#p92dc64c23a)">
     <use xlink:href="#mcbaa97dd71" x="0" y="432" style="fill: #ff0000; fill-opacity: 0.3; stroke: #ff0000; stroke-opacity: 0.3"/>
    </g>
   </g>
   <g id="PolyCollection_4">
    <defs>
     <path id="m78e2f9ff6d" d="M 124.264091 -374.637468 
L 124.264091 -364.18051 
L 127.97797 -347.988944 
L 131.691848 -349.717105 
L 135.405727 -369.738222 
L 139.119606 -348.067487 
L 142.833485 -349.010675 
L 146.547364 -360.363122 
L 150.261242 -359.297614 
L 153.975121 -343.341406 
L 157.689 -343.913945 
L 161.402879 -358.677362 
L 165.116758 -362.521865 
L 168.830636 -347.207053 
L 172.544515 -355.510697 
L 176.258394 -342.612895 
L 179.972273 -369.853557 
L 183.686152 -350.582019 
L 187.40003 -361.479763 
L 191.113909 -362.252656 
L 194.827788 -349.822615 
L 198.541667 -351.975898 
L 202.255545 -340.505892 
L 205.969424 -348.982555 
L 209.683303 -327.801588 
L 213.397182 -345.676233 
L 217.111061 -348.965328 
L 220.824939 -331.860584 
L 224.538818 -336.734483 
L 228.252697 -345.437796 
L 231.966576 -336.24695 
L 235.680455 -346.93142 
L 239.394333 -339.359023 
L 243.108212 -345.226804 
L 246.822091 -344.358264 
L 250.53597 -341.361473 
L 254.249848 -351.471195 
L 257.963727 -341.762203 
L 261.677606 -346.063114 
L 265.391485 -333.956133 
L 269.105364 -340.008184 
L 272.819242 -325.473485 
L 276.533121 -330.846721 
L 280.247 -347.501681 
L 283.960879 -338.08588 
L 287.674758 -328.93338 
L 291.388636 -338.959576 
L 295.102515 -344.305012 
L 298.816394 -335.311288 
L 302.530273 -337.963285 
L 306.244152 -354.273977 
L 309.95803 -333.301756 
L 313.671909 -337.880923 
L 317.385788 -328.705112 
L 321.099667 -336.577196 
L 324.813545 -352.643706 
L 328.527424 -342.815053 
L 332.241303 -338.273382 
L 335.955182 -346.762152 
L 339.669061 -346.646621 
L 343.382939 -343.389155 
L 347.096818 -341.762129 
L 350.810697 -349.070408 
L 354.524576 -346.043341 
L 358.238455 -344.538651 
L 361.952333 -345.664676 
L 365.666212 -342.551495 
L 369.380091 -346.988821 
L 373.09397 -336.683592 
L 376.807848 -342.191354 
L 380.521727 -340.384176 
L 384.235606 -334.583999 
L 387.949485 -349.573289 
L 391.663364 -337.475837 
L 395.377242 -337.207944 
L 399.091121 -341.337528 
L 402.805 -320.381708 
L 406.518879 -341.45708 
L 410.232758 -324.428986 
L 413.946636 -327.659518 
L 417.660515 -292.986356 
L 421.374394 -290.695249 
L 425.088273 -289.320762 
L 428.802152 -274.037105 
L 432.51603 -272.320216 
L 436.229909 -276.636397 
L 439.943788 -269.757843 
L 443.657667 -260.90812 
L 447.371545 -246.524655 
L 451.085424 -252.489788 
L 454.799303 -255.452164 
L 458.513182 -238.444149 
L 462.227061 -235.446858 
L 465.940939 -239.488221 
L 469.654818 -235.500855 
L 473.368697 -245.49391 
L 477.082576 -236.279597 
L 480.796455 -258.208825 
L 484.510333 -231.895292 
L 488.224212 -234.848884 
L 491.938091 -246.612451 
L 495.65197 -232.522777 
L 499.365848 -238.888556 
L 503.079727 -236.626222 
L 506.793606 -259.538146 
L 510.507485 -240.886204 
L 514.221364 -235.722298 
L 517.935242 -244.609926 
L 521.649121 -234.803958 
L 525.363 -253.283663 
L 529.076879 -245.890074 
L 532.790758 -251.374525 
L 536.504636 -244.13016 
L 540.218515 -243.111986 
L 543.932394 -254.575652 
L 547.646273 -248.077659 
L 551.360152 -258.347904 
L 555.07403 -261.612344 
L 558.787909 -261.889083 
L 562.501788 -243.92199 
L 566.215667 -249.008777 
L 569.929545 -224.947528 
L 573.643424 -236.61974 
L 577.357303 -249.703048 
L 581.071182 -240.134052 
L 584.785061 -233.581489 
L 588.498939 -238.912402 
L 592.212818 -249.251951 
L 595.926697 -234.366576 
L 599.640576 -228.038233 
L 603.354455 -234.270292 
L 607.068333 -240.56209 
L 610.782212 -239.280886 
L 614.496091 -236.153583 
L 618.20997 -235.248107 
L 621.923848 -250.066522 
L 625.637727 -245.89981 
L 629.351606 -241.299522 
L 633.065485 -232.155037 
L 636.779364 -226.396231 
L 640.493242 -227.992023 
L 644.207121 -237.513858 
L 647.921 -229.55347 
L 651.634879 -237.169385 
L 655.348758 -242.585562 
L 659.062636 -227.904154 
L 662.776515 -229.661737 
L 666.490394 -224.83623 
L 670.204273 -217.470764 
L 673.918152 -233.682887 
L 677.63203 -202.406984 
L 681.345909 -211.68798 
L 681.345909 -325.13501 
L 681.345909 -325.13501 
L 677.63203 -330.964983 
L 673.918152 -341.468487 
L 670.204273 -343.729666 
L 666.490394 -350.461996 
L 662.776515 -377.062827 
L 659.062636 -364.061779 
L 655.348758 -363.845298 
L 651.634879 -363.313967 
L 647.921 -361.604777 
L 644.207121 -366.347091 
L 640.493242 -391.141539 
L 636.779364 -375.041659 
L 633.065485 -363.408771 
L 629.351606 -375.264128 
L 625.637727 -359.503085 
L 621.923848 -362.60555 
L 618.20997 -360.242275 
L 614.496091 -357.427723 
L 610.782212 -376.107949 
L 607.068333 -384.298701 
L 603.354455 -358.576753 
L 599.640576 -351.959259 
L 595.926697 -358.700748 
L 592.212818 -370.762723 
L 588.498939 -380.074307 
L 584.785061 -379.604564 
L 581.071182 -358.219945 
L 577.357303 -369.577366 
L 573.643424 -371.206214 
L 569.929545 -370.616281 
L 566.215667 -376.512848 
L 562.501788 -379.617133 
L 558.787909 -360.401798 
L 555.07403 -376.611983 
L 551.360152 -367.100296 
L 547.646273 -375.241186 
L 543.932394 -374.910979 
L 540.218515 -361.556649 
L 536.504636 -374.562845 
L 532.790758 -376.496733 
L 529.076879 -374.712008 
L 525.363 -365.849898 
L 521.649121 -361.12698 
L 517.935242 -368.796406 
L 514.221364 -369.166615 
L 510.507485 -364.883822 
L 506.793606 -364.588385 
L 503.079727 -363.930556 
L 499.365848 -367.542304 
L 495.65197 -375.596881 
L 491.938091 -367.014158 
L 488.224212 -370.627438 
L 484.510333 -356.76647 
L 480.796455 -361.952701 
L 477.082576 -367.654778 
L 473.368697 -383.772442 
L 469.654818 -379.080293 
L 465.940939 -354.827345 
L 462.227061 -364.816216 
L 458.513182 -370.703474 
L 454.799303 -374.695301 
L 451.085424 -368.55285 
L 447.371545 -354.619531 
L 443.657667 -369.165919 
L 439.943788 -365.309166 
L 436.229909 -369.738219 
L 432.51603 -358.561509 
L 428.802152 -351.557947 
L 425.088273 -361.092285 
L 421.374394 -361.700301 
L 417.660515 -359.409193 
L 413.946636 -334.428266 
L 410.232758 -352.564282 
L 406.518879 -354.333249 
L 402.805 -363.513606 
L 399.091121 -361.648551 
L 395.377242 -354.176823 
L 391.663364 -341.793637 
L 387.949485 -356.276405 
L 384.235606 -351.440669 
L 380.521727 -355.553005 
L 376.807848 -349.707396 
L 373.09397 -355.141732 
L 369.380091 -361.063653 
L 365.666212 -363.371625 
L 361.952333 -356.880847 
L 358.238455 -350.590844 
L 354.524576 -363.477654 
L 350.810697 -355.384192 
L 347.096818 -353.440791 
L 343.382939 -351.446636 
L 339.669061 -351.12621 
L 335.955182 -352.84633 
L 332.241303 -364.565845 
L 328.527424 -372.506598 
L 324.813545 -357.244419 
L 321.099667 -352.457939 
L 317.385788 -361.357987 
L 313.671909 -353.57727 
L 309.95803 -358.450142 
L 306.244152 -362.295917 
L 302.530273 -345.638324 
L 298.816394 -359.818206 
L 295.102515 -357.212547 
L 291.388636 -365.127893 
L 287.674758 -357.384992 
L 283.960879 -361.889732 
L 280.247 -355.557824 
L 276.533121 -365.531016 
L 272.819242 -369.802861 
L 269.105364 -362.831043 
L 265.391485 -351.481127 
L 261.677606 -361.034822 
L 257.963727 -377.451027 
L 254.249848 -362.969344 
L 250.53597 -344.663195 
L 246.822091 -356.278182 
L 243.108212 -362.164836 
L 239.394333 -360.543163 
L 235.680455 -367.876249 
L 231.966576 -348.82318 
L 228.252697 -371.792931 
L 224.538818 -373.00679 
L 220.824939 -358.643071 
L 217.111061 -373.038091 
L 213.397182 -375.152369 
L 209.683303 -379.002644 
L 205.969424 -358.335659 
L 202.255545 -364.609542 
L 198.541667 -365.475108 
L 194.827788 -368.803207 
L 191.113909 -371.719204 
L 187.40003 -378.659883 
L 183.686152 -358.49842 
L 179.972273 -376.233598 
L 176.258394 -362.502539 
L 172.544515 -369.870319 
L 168.830636 -371.051638 
L 165.116758 -370.27518 
L 161.402879 -372.724587 
L 157.689 -374.271321 
L 153.975121 -371.392837 
L 150.261242 -380.548328 
L 146.547364 -379.849951 
L 142.833485 -362.933379 
L 139.119606 -364.023419 
L 135.405727 -374.293003 
L 131.691848 -370.670941 
L 127.97797 -363.000571 
L 124.264091 -374.637468 
z
" style="stroke: #ffa500; stroke-opacity: 0.3"/>
    </defs>
    <g clip-path="url(#p92dc64c23a)">
     <use xlink:href="#m78e2f9ff6d" x="0" y="432" style="fill: #ffa500; fill-opacity: 0.3; stroke: #ffa500; stroke-opacity: 0.3"/>
    </g>
   </g>
   <g id="matplotlib.axis_1">
    <g id="xtick_1">
     <g id="line2d_1">
      <defs>
       <path id="m3768a44c71" d="M 0 0 
L 0 3.5 
" style="stroke: #000000; stroke-width: 0.8"/>
      </defs>
      <g>
       <use xlink:href="#m3768a44c71" x="124.264091" y="343.96" style="stroke: #000000; stroke-width: 0.8"/>
      </g>
     </g>
     <g id="text_1">
      <!-- 0 -->
      <g transform="translate(115.356591 372.235625) scale(0.28 -0.28)">
       <defs>
        <path id="DejaVuSans-30" d="M 2034 4250 
Q 1547 4250 1301 3770 
Q 1056 3291 1056 2328 
Q 1056 1369 1301 889 
Q 1547 409 2034 409 
Q 2525 409 2770 889 
Q 3016 1369 3016 2328 
Q 3016 3291 2770 3770 
Q 2525 4250 2034 4250 
z
M 2034 4750 
Q 2819 4750 3233 4129 
Q 3647 3509 3647 2328 
Q 3647 1150 3233 529 
Q 2819 -91 2034 -91 
Q 1250 -91 836 529 
Q 422 1150 422 2328 
Q 422 3509 836 4129 
Q 1250 4750 2034 4750 
z
" transform="scale(0.015625)"/>
       </defs>
       <use xlink:href="#DejaVuSans-30"/>
      </g>
     </g>
    </g>
    <g id="xtick_2">
     <g id="line2d_2">
      <g>
       <use xlink:href="#m3768a44c71" x="198.541667" y="343.96" style="stroke: #000000; stroke-width: 0.8"/>
      </g>
     </g>
     <g id="text_2">
      <!-- 20 -->
      <g transform="translate(180.726667 372.235625) scale(0.28 -0.28)">
       <defs>
        <path id="DejaVuSans-32" d="M 1228 531 
L 3431 531 
L 3431 0 
L 469 0 
L 469 531 
Q 828 903 1448 1529 
Q 2069 2156 2228 2338 
Q 2531 2678 2651 2914 
Q 2772 3150 2772 3378 
Q 2772 3750 2511 3984 
Q 2250 4219 1831 4219 
Q 1534 4219 1204 4116 
Q 875 4013 500 3803 
L 500 4441 
Q 881 4594 1212 4672 
Q 1544 4750 1819 4750 
Q 2544 4750 2975 4387 
Q 3406 4025 3406 3419 
Q 3406 3131 3298 2873 
Q 3191 2616 2906 2266 
Q 2828 2175 2409 1742 
Q 1991 1309 1228 531 
z
" transform="scale(0.015625)"/>
       </defs>
       <use xlink:href="#DejaVuSans-32"/>
       <use xlink:href="#DejaVuSans-30" x="63.623047"/>
      </g>
     </g>
    </g>
    <g id="xtick_3">
     <g id="line2d_3">
      <g>
       <use xlink:href="#m3768a44c71" x="272.819242" y="343.96" style="stroke: #000000; stroke-width: 0.8"/>
      </g>
     </g>
     <g id="text_3">
      <!-- 40 -->
      <g transform="translate(255.004242 372.235625) scale(0.28 -0.28)">
       <defs>
        <path id="DejaVuSans-34" d="M 2419 4116 
L 825 1625 
L 2419 1625 
L 2419 4116 
z
M 2253 4666 
L 3047 4666 
L 3047 1625 
L 3713 1625 
L 3713 1100 
L 3047 1100 
L 3047 0 
L 2419 0 
L 2419 1100 
L 313 1100 
L 313 1709 
L 2253 4666 
z
" transform="scale(0.015625)"/>
       </defs>
       <use xlink:href="#DejaVuSans-34"/>
       <use xlink:href="#DejaVuSans-30" x="63.623047"/>
      </g>
     </g>
    </g>
    <g id="xtick_4">
     <g id="line2d_4">
      <g>
       <use xlink:href="#m3768a44c71" x="347.096818" y="343.96" style="stroke: #000000; stroke-width: 0.8"/>
      </g>
     </g>
     <g id="text_4">
      <!-- 60 -->
      <g transform="translate(329.281818 372.235625) scale(0.28 -0.28)">
       <defs>
        <path id="DejaVuSans-36" d="M 2113 2584 
Q 1688 2584 1439 2293 
Q 1191 2003 1191 1497 
Q 1191 994 1439 701 
Q 1688 409 2113 409 
Q 2538 409 2786 701 
Q 3034 994 3034 1497 
Q 3034 2003 2786 2293 
Q 2538 2584 2113 2584 
z
M 3366 4563 
L 3366 3988 
Q 3128 4100 2886 4159 
Q 2644 4219 2406 4219 
Q 1781 4219 1451 3797 
Q 1122 3375 1075 2522 
Q 1259 2794 1537 2939 
Q 1816 3084 2150 3084 
Q 2853 3084 3261 2657 
Q 3669 2231 3669 1497 
Q 3669 778 3244 343 
Q 2819 -91 2113 -91 
Q 1303 -91 875 529 
Q 447 1150 447 2328 
Q 447 3434 972 4092 
Q 1497 4750 2381 4750 
Q 2619 4750 2861 4703 
Q 3103 4656 3366 4563 
z
" transform="scale(0.015625)"/>
       </defs>
       <use xlink:href="#DejaVuSans-36"/>
       <use xlink:href="#DejaVuSans-30" x="63.623047"/>
      </g>
     </g>
    </g>
    <g id="xtick_5">
     <g id="line2d_5">
      <g>
       <use xlink:href="#m3768a44c71" x="421.374394" y="343.96" style="stroke: #000000; stroke-width: 0.8"/>
      </g>
     </g>
     <g id="text_5">
      <!-- 80 -->
      <g transform="translate(403.559394 372.235625) scale(0.28 -0.28)">
       <defs>
        <path id="DejaVuSans-38" d="M 2034 2216 
Q 1584 2216 1326 1975 
Q 1069 1734 1069 1313 
Q 1069 891 1326 650 
Q 1584 409 2034 409 
Q 2484 409 2743 651 
Q 3003 894 3003 1313 
Q 3003 1734 2745 1975 
Q 2488 2216 2034 2216 
z
M 1403 2484 
Q 997 2584 770 2862 
Q 544 3141 544 3541 
Q 544 4100 942 4425 
Q 1341 4750 2034 4750 
Q 2731 4750 3128 4425 
Q 3525 4100 3525 3541 
Q 3525 3141 3298 2862 
Q 3072 2584 2669 2484 
Q 3125 2378 3379 2068 
Q 3634 1759 3634 1313 
Q 3634 634 3220 271 
Q 2806 -91 2034 -91 
Q 1263 -91 848 271 
Q 434 634 434 1313 
Q 434 1759 690 2068 
Q 947 2378 1403 2484 
z
M 1172 3481 
Q 1172 3119 1398 2916 
Q 1625 2713 2034 2713 
Q 2441 2713 2670 2916 
Q 2900 3119 2900 3481 
Q 2900 3844 2670 4047 
Q 2441 4250 2034 4250 
Q 1625 4250 1398 4047 
Q 1172 3844 1172 3481 
z
" transform="scale(0.015625)"/>
       </defs>
       <use xlink:href="#DejaVuSans-38"/>
       <use xlink:href="#DejaVuSans-30" x="63.623047"/>
      </g>
     </g>
    </g>
    <g id="xtick_6">
     <g id="line2d_6">
      <g>
       <use xlink:href="#m3768a44c71" x="495.65197" y="343.96" style="stroke: #000000; stroke-width: 0.8"/>
      </g>
     </g>
     <g id="text_6">
      <!-- 100 -->
      <g transform="translate(468.92947 372.235625) scale(0.28 -0.28)">
       <defs>
        <path id="DejaVuSans-31" d="M 794 531 
L 1825 531 
L 1825 4091 
L 703 3866 
L 703 4441 
L 1819 4666 
L 2450 4666 
L 2450 531 
L 3481 531 
L 3481 0 
L 794 0 
L 794 531 
z
" transform="scale(0.015625)"/>
       </defs>
       <use xlink:href="#DejaVuSans-31"/>
       <use xlink:href="#DejaVuSans-30" x="63.623047"/>
       <use xlink:href="#DejaVuSans-30" x="127.246094"/>
      </g>
     </g>
    </g>
    <g id="xtick_7">
     <g id="line2d_7">
      <g>
       <use xlink:href="#m3768a44c71" x="569.929545" y="343.96" style="stroke: #000000; stroke-width: 0.8"/>
      </g>
     </g>
     <g id="text_7">
      <!-- 120 -->
      <g transform="translate(543.207045 372.235625) scale(0.28 -0.28)">
       <use xlink:href="#DejaVuSans-31"/>
       <use xlink:href="#DejaVuSans-32" x="63.623047"/>
       <use xlink:href="#DejaVuSans-30" x="127.246094"/>
      </g>
     </g>
    </g>
    <g id="xtick_8">
     <g id="line2d_8">
      <g>
       <use xlink:href="#m3768a44c71" x="644.207121" y="343.96" style="stroke: #000000; stroke-width: 0.8"/>
      </g>
     </g>
     <g id="text_8">
      <!-- 140 -->
      <g transform="translate(617.484621 372.235625) scale(0.28 -0.28)">
       <use xlink:href="#DejaVuSans-31"/>
       <use xlink:href="#DejaVuSans-34" x="63.623047"/>
       <use xlink:href="#DejaVuSans-30" x="127.246094"/>
      </g>
     </g>
    </g>
    <g id="text_9">
     <!-- Episode -->
     <g transform="translate(324.255 412.4525) scale(0.4 -0.4)">
      <defs>
       <path id="DejaVuSans-45" d="M 628 4666 
L 3578 4666 
L 3578 4134 
L 1259 4134 
L 1259 2753 
L 3481 2753 
L 3481 2222 
L 1259 2222 
L 1259 531 
L 3634 531 
L 3634 0 
L 628 0 
L 628 4666 
z
" transform="scale(0.015625)"/>
       <path id="DejaVuSans-70" d="M 1159 525 
L 1159 -1331 
L 581 -1331 
L 581 3500 
L 1159 3500 
L 1159 2969 
Q 1341 3281 1617 3432 
Q 1894 3584 2278 3584 
Q 2916 3584 3314 3078 
Q 3713 2572 3713 1747 
Q 3713 922 3314 415 
Q 2916 -91 2278 -91 
Q 1894 -91 1617 61 
Q 1341 213 1159 525 
z
M 3116 1747 
Q 3116 2381 2855 2742 
Q 2594 3103 2138 3103 
Q 1681 3103 1420 2742 
Q 1159 2381 1159 1747 
Q 1159 1113 1420 752 
Q 1681 391 2138 391 
Q 2594 391 2855 752 
Q 3116 1113 3116 1747 
z
" transform="scale(0.015625)"/>
       <path id="DejaVuSans-69" d="M 603 3500 
L 1178 3500 
L 1178 0 
L 603 0 
L 603 3500 
z
M 603 4863 
L 1178 4863 
L 1178 4134 
L 603 4134 
L 603 4863 
z
" transform="scale(0.015625)"/>
       <path id="DejaVuSans-73" d="M 2834 3397 
L 2834 2853 
Q 2591 2978 2328 3040 
Q 2066 3103 1784 3103 
Q 1356 3103 1142 2972 
Q 928 2841 928 2578 
Q 928 2378 1081 2264 
Q 1234 2150 1697 2047 
L 1894 2003 
Q 2506 1872 2764 1633 
Q 3022 1394 3022 966 
Q 3022 478 2636 193 
Q 2250 -91 1575 -91 
Q 1294 -91 989 -36 
Q 684 19 347 128 
L 347 722 
Q 666 556 975 473 
Q 1284 391 1588 391 
Q 1994 391 2212 530 
Q 2431 669 2431 922 
Q 2431 1156 2273 1281 
Q 2116 1406 1581 1522 
L 1381 1569 
Q 847 1681 609 1914 
Q 372 2147 372 2553 
Q 372 3047 722 3315 
Q 1072 3584 1716 3584 
Q 2034 3584 2315 3537 
Q 2597 3491 2834 3397 
z
" transform="scale(0.015625)"/>
       <path id="DejaVuSans-6f" d="M 1959 3097 
Q 1497 3097 1228 2736 
Q 959 2375 959 1747 
Q 959 1119 1226 758 
Q 1494 397 1959 397 
Q 2419 397 2687 759 
Q 2956 1122 2956 1747 
Q 2956 2369 2687 2733 
Q 2419 3097 1959 3097 
z
M 1959 3584 
Q 2709 3584 3137 3096 
Q 3566 2609 3566 1747 
Q 3566 888 3137 398 
Q 2709 -91 1959 -91 
Q 1206 -91 779 398 
Q 353 888 353 1747 
Q 353 2609 779 3096 
Q 1206 3584 1959 3584 
z
" transform="scale(0.015625)"/>
       <path id="DejaVuSans-64" d="M 2906 2969 
L 2906 4863 
L 3481 4863 
L 3481 0 
L 2906 0 
L 2906 525 
Q 2725 213 2448 61 
Q 2172 -91 1784 -91 
Q 1150 -91 751 415 
Q 353 922 353 1747 
Q 353 2572 751 3078 
Q 1150 3584 1784 3584 
Q 2172 3584 2448 3432 
Q 2725 3281 2906 2969 
z
M 947 1747 
Q 947 1113 1208 752 
Q 1469 391 1925 391 
Q 2381 391 2643 752 
Q 2906 1113 2906 1747 
Q 2906 2381 2643 2742 
Q 2381 3103 1925 3103 
Q 1469 3103 1208 2742 
Q 947 2381 947 1747 
z
" transform="scale(0.015625)"/>
       <path id="DejaVuSans-65" d="M 3597 1894 
L 3597 1613 
L 953 1613 
Q 991 1019 1311 708 
Q 1631 397 2203 397 
Q 2534 397 2845 478 
Q 3156 559 3463 722 
L 3463 178 
Q 3153 47 2828 -22 
Q 2503 -91 2169 -91 
Q 1331 -91 842 396 
Q 353 884 353 1716 
Q 353 2575 817 3079 
Q 1281 3584 2069 3584 
Q 2775 3584 3186 3129 
Q 3597 2675 3597 1894 
z
M 3022 2063 
Q 3016 2534 2758 2815 
Q 2500 3097 2075 3097 
Q 1594 3097 1305 2825 
Q 1016 2553 972 2059 
L 3022 2063 
z
" transform="scale(0.015625)"/>
      </defs>
      <use xlink:href="#DejaVuSans-45"/>
      <use xlink:href="#DejaVuSans-70" x="63.183594"/>
      <use xlink:href="#DejaVuSans-69" x="126.660156"/>
      <use xlink:href="#DejaVuSans-73" x="154.443359"/>
      <use xlink:href="#DejaVuSans-6f" x="206.542969"/>
      <use xlink:href="#DejaVuSans-64" x="267.724609"/>
      <use xlink:href="#DejaVuSans-65" x="331.201172"/>
     </g>
    </g>
   </g>
   <g id="matplotlib.axis_2">
    <g id="ytick_1">
     <g id="line2d_9">
      <defs>
       <path id="m43ff60f769" d="M 0 0 
L -3.5 0 
" style="stroke: #000000; stroke-width: 0.8"/>
      </defs>
      <g>
       <use xlink:href="#m43ff60f769" x="96.41" y="332.945625" style="stroke: #000000; stroke-width: 0.8"/>
      </g>
     </g>
     <g id="text_10">
      <!-- 20 -->
      <g transform="translate(53.78 343.583438) scale(0.28 -0.28)">
       <use xlink:href="#DejaVuSans-32"/>
       <use xlink:href="#DejaVuSans-30" x="63.623047"/>
      </g>
     </g>
    </g>
    <g id="ytick_2">
     <g id="line2d_10">
      <g>
       <use xlink:href="#m43ff60f769" x="96.41" y="288.890012" style="stroke: #000000; stroke-width: 0.8"/>
      </g>
     </g>
     <g id="text_11">
      <!-- 30 -->
      <g transform="translate(53.78 299.527825) scale(0.28 -0.28)">
       <defs>
        <path id="DejaVuSans-33" d="M 2597 2516 
Q 3050 2419 3304 2112 
Q 3559 1806 3559 1356 
Q 3559 666 3084 287 
Q 2609 -91 1734 -91 
Q 1441 -91 1130 -33 
Q 819 25 488 141 
L 488 750 
Q 750 597 1062 519 
Q 1375 441 1716 441 
Q 2309 441 2620 675 
Q 2931 909 2931 1356 
Q 2931 1769 2642 2001 
Q 2353 2234 1838 2234 
L 1294 2234 
L 1294 2753 
L 1863 2753 
Q 2328 2753 2575 2939 
Q 2822 3125 2822 3475 
Q 2822 3834 2567 4026 
Q 2313 4219 1838 4219 
Q 1578 4219 1281 4162 
Q 984 4106 628 3988 
L 628 4550 
Q 988 4650 1302 4700 
Q 1616 4750 1894 4750 
Q 2613 4750 3031 4423 
Q 3450 4097 3450 3541 
Q 3450 3153 3228 2886 
Q 3006 2619 2597 2516 
z
" transform="scale(0.015625)"/>
       </defs>
       <use xlink:href="#DejaVuSans-33"/>
       <use xlink:href="#DejaVuSans-30" x="63.623047"/>
      </g>
     </g>
    </g>
    <g id="ytick_3">
     <g id="line2d_11">
      <g>
       <use xlink:href="#m43ff60f769" x="96.41" y="244.834399" style="stroke: #000000; stroke-width: 0.8"/>
      </g>
     </g>
     <g id="text_12">
      <!-- 40 -->
      <g transform="translate(53.78 255.472211) scale(0.28 -0.28)">
       <use xlink:href="#DejaVuSans-34"/>
       <use xlink:href="#DejaVuSans-30" x="63.623047"/>
      </g>
     </g>
    </g>
    <g id="ytick_4">
     <g id="line2d_12">
      <g>
       <use xlink:href="#m43ff60f769" x="96.41" y="200.778785" style="stroke: #000000; stroke-width: 0.8"/>
      </g>
     </g>
     <g id="text_13">
      <!-- 50 -->
      <g transform="translate(53.78 211.416598) scale(0.28 -0.28)">
       <defs>
        <path id="DejaVuSans-35" d="M 691 4666 
L 3169 4666 
L 3169 4134 
L 1269 4134 
L 1269 2991 
Q 1406 3038 1543 3061 
Q 1681 3084 1819 3084 
Q 2600 3084 3056 2656 
Q 3513 2228 3513 1497 
Q 3513 744 3044 326 
Q 2575 -91 1722 -91 
Q 1428 -91 1123 -41 
Q 819 9 494 109 
L 494 744 
Q 775 591 1075 516 
Q 1375 441 1709 441 
Q 2250 441 2565 725 
Q 2881 1009 2881 1497 
Q 2881 1984 2565 2268 
Q 2250 2553 1709 2553 
Q 1456 2553 1204 2497 
Q 953 2441 691 2322 
L 691 4666 
z
" transform="scale(0.015625)"/>
       </defs>
       <use xlink:href="#DejaVuSans-35"/>
       <use xlink:href="#DejaVuSans-30" x="63.623047"/>
      </g>
     </g>
    </g>
    <g id="ytick_5">
     <g id="line2d_13">
      <g>
       <use xlink:href="#m43ff60f769" x="96.41" y="156.723172" style="stroke: #000000; stroke-width: 0.8"/>
      </g>
     </g>
     <g id="text_14">
      <!-- 60 -->
      <g transform="translate(53.78 167.360984) scale(0.28 -0.28)">
       <use xlink:href="#DejaVuSans-36"/>
       <use xlink:href="#DejaVuSans-30" x="63.623047"/>
      </g>
     </g>
    </g>
    <g id="ytick_6">
     <g id="line2d_14">
      <g>
       <use xlink:href="#m43ff60f769" x="96.41" y="112.667558" style="stroke: #000000; stroke-width: 0.8"/>
      </g>
     </g>
     <g id="text_15">
      <!-- 70 -->
      <g transform="translate(53.78 123.305371) scale(0.28 -0.28)">
       <defs>
        <path id="DejaVuSans-37" d="M 525 4666 
L 3525 4666 
L 3525 4397 
L 1831 0 
L 1172 0 
L 2766 4134 
L 525 4134 
L 525 4666 
z
" transform="scale(0.015625)"/>
       </defs>
       <use xlink:href="#DejaVuSans-37"/>
       <use xlink:href="#DejaVuSans-30" x="63.623047"/>
      </g>
     </g>
    </g>
    <g id="ytick_7">
     <g id="line2d_15">
      <g>
       <use xlink:href="#m43ff60f769" x="96.41" y="68.611945" style="stroke: #000000; stroke-width: 0.8"/>
      </g>
     </g>
     <g id="text_16">
      <!-- 80 -->
      <g transform="translate(53.78 79.249757) scale(0.28 -0.28)">
       <use xlink:href="#DejaVuSans-38"/>
       <use xlink:href="#DejaVuSans-30" x="63.623047"/>
      </g>
     </g>
    </g>
    <g id="ytick_8">
     <g id="line2d_16">
      <g>
       <use xlink:href="#m43ff60f769" x="96.41" y="24.556331" style="stroke: #000000; stroke-width: 0.8"/>
      </g>
     </g>
     <g id="text_17">
      <!-- 90 -->
      <g transform="translate(53.78 35.194144) scale(0.28 -0.28)">
       <defs>
        <path id="DejaVuSans-39" d="M 703 97 
L 703 672 
Q 941 559 1184 500 
Q 1428 441 1663 441 
Q 2288 441 2617 861 
Q 2947 1281 2994 2138 
Q 2813 1869 2534 1725 
Q 2256 1581 1919 1581 
Q 1219 1581 811 2004 
Q 403 2428 403 3163 
Q 403 3881 828 4315 
Q 1253 4750 1959 4750 
Q 2769 4750 3195 4129 
Q 3622 3509 3622 2328 
Q 3622 1225 3098 567 
Q 2575 -91 1691 -91 
Q 1453 -91 1209 -44 
Q 966 3 703 97 
z
M 1959 2075 
Q 2384 2075 2632 2365 
Q 2881 2656 2881 3163 
Q 2881 3666 2632 3958 
Q 2384 4250 1959 4250 
Q 1534 4250 1286 3958 
Q 1038 3666 1038 3163 
Q 1038 2656 1286 2365 
Q 1534 2075 1959 2075 
z
" transform="scale(0.015625)"/>
       </defs>
       <use xlink:href="#DejaVuSans-39"/>
       <use xlink:href="#DejaVuSans-30" x="63.623047"/>
      </g>
     </g>
    </g>
    <g id="text_18">
     <!-- $m_{to}$ -->
     <g transform="translate(41.46125 211.58) rotate(-90) scale(0.4 -0.4)">
      <defs>
       <path id="DejaVuSans-Oblique-6d" d="M 5747 2113 
L 5338 0 
L 4763 0 
L 5166 2094 
Q 5191 2228 5203 2325 
Q 5216 2422 5216 2491 
Q 5216 2772 5059 2928 
Q 4903 3084 4622 3084 
Q 4203 3084 3875 2770 
Q 3547 2456 3450 1953 
L 3066 0 
L 2491 0 
L 2900 2094 
Q 2925 2209 2937 2307 
Q 2950 2406 2950 2484 
Q 2950 2769 2794 2926 
Q 2638 3084 2363 3084 
Q 1938 3084 1609 2770 
Q 1281 2456 1184 1953 
L 800 0 
L 225 0 
L 909 3500 
L 1484 3500 
L 1375 2956 
Q 1609 3263 1923 3423 
Q 2238 3584 2597 3584 
Q 2978 3584 3223 3384 
Q 3469 3184 3519 2828 
Q 3781 3197 4126 3390 
Q 4472 3584 4856 3584 
Q 5306 3584 5551 3325 
Q 5797 3066 5797 2591 
Q 5797 2488 5784 2364 
Q 5772 2241 5747 2113 
z
" transform="scale(0.015625)"/>
       <path id="DejaVuSans-Oblique-74" d="M 2706 3500 
L 2619 3053 
L 1472 3053 
L 1100 1153 
Q 1081 1047 1072 975 
Q 1063 903 1063 863 
Q 1063 663 1183 572 
Q 1303 481 1569 481 
L 2150 481 
L 2053 0 
L 1503 0 
Q 991 0 739 200 
Q 488 400 488 806 
Q 488 878 497 964 
Q 506 1050 525 1153 
L 897 3053 
L 409 3053 
L 500 3500 
L 978 3500 
L 1172 4494 
L 1747 4494 
L 1556 3500 
L 2706 3500 
z
" transform="scale(0.015625)"/>
       <path id="DejaVuSans-Oblique-6f" d="M 1625 -91 
Q 1009 -91 651 289 
Q 294 669 294 1325 
Q 294 1706 417 2101 
Q 541 2497 738 2766 
Q 1047 3184 1428 3384 
Q 1809 3584 2291 3584 
Q 2888 3584 3255 3212 
Q 3622 2841 3622 2241 
Q 3622 1825 3500 1412 
Q 3378 1000 3181 728 
Q 2875 309 2494 109 
Q 2113 -91 1625 -91 
z
M 891 1344 
Q 891 869 1089 633 
Q 1288 397 1691 397 
Q 2269 397 2648 901 
Q 3028 1406 3028 2181 
Q 3028 2634 2825 2865 
Q 2622 3097 2228 3097 
Q 1903 3097 1650 2945 
Q 1397 2794 1197 2484 
Q 1050 2253 970 1956 
Q 891 1659 891 1344 
z
" transform="scale(0.015625)"/>
      </defs>
      <use xlink:href="#DejaVuSans-Oblique-6d"/>
      <use xlink:href="#DejaVuSans-Oblique-74" transform="translate(97.412109 -16.40625) scale(0.7)"/>
      <use xlink:href="#DejaVuSans-Oblique-6f" transform="translate(124.858398 -16.40625) scale(0.7)"/>
     </g>
    </g>
   </g>
   <g id="line2d_17">
    <path d="M 124.264091 82.122333 
L 127.97797 63.398697 
L 131.691848 77.019224 
L 135.405727 68.097963 
L 139.119606 78.30418 
L 142.833485 71.328708 
L 146.547364 69.750048 
L 150.261242 65.601478 
L 153.975121 81.938768 
L 157.689 73.458062 
L 161.402879 85.610069 
L 165.116758 74.412601 
L 168.830636 77.019224 
L 172.544515 76.027973 
L 176.258394 66.923146 
L 179.972273 70.741299 
L 183.686152 69.750048 
L 187.40003 71.805977 
L 191.113909 85.903773 
L 198.541667 106.389633 
L 202.255545 80.98423 
L 205.969424 113.695523 
L 209.683303 125.039843 
L 213.397182 119.349326 
L 220.824939 139.614908 
L 224.538818 150.004691 
L 228.252697 146.039685 
L 231.966576 160.835029 
L 235.680455 166.966102 
L 239.394333 167.406658 
L 243.108212 164.469617 
L 246.822091 177.172319 
L 250.53597 182.018436 
L 254.249848 190.535855 
L 257.963727 185.653025 
L 261.677606 187.451962 
L 265.391485 197.841744 
L 269.105364 202.944853 
L 272.819242 209.479769 
L 276.533121 201.916888 
L 280.247 209.957038 
L 283.960879 209.516482 
L 287.674758 213.444774 
L 291.388636 199.787534 
L 295.102515 206.395876 
L 298.816394 202.210593 
L 302.530273 210.10389 
L 306.244152 190.499142 
L 309.95803 222.880018 
L 313.671909 217.923761 
L 317.385788 216.712232 
L 321.099667 215.720981 
L 324.813545 223.320574 
L 328.527424 221.595062 
L 332.241303 216.602093 
L 335.955182 224.054834 
L 339.669061 232.682392 
L 343.382939 229.818777 
L 347.096818 231.177158 
L 350.810697 232.939383 
L 354.524576 229.084517 
L 358.238455 226.257615 
L 361.952333 235.21559 
L 365.666212 237.675361 
L 369.380091 223.650991 
L 373.09397 235.58272 
L 376.807848 224.86252 
L 380.521727 235.252303 
L 384.235606 231.32401 
L 387.949485 236.353693 
L 391.663364 233.416652 
L 395.377242 227.579283 
L 399.091121 232.939383 
L 402.805 241.493515 
L 406.518879 240.171846 
L 410.232758 241.860645 
L 413.946636 237.05124 
L 421.374394 240.46555 
L 425.088273 242.154349 
L 428.802152 247.771439 
L 432.51603 250.010933 
L 436.229909 257.977657 
L 439.943788 252.690983 
L 443.657667 255.003903 
L 447.371545 252.874548 
L 451.085424 258.711917 
L 454.799303 248.395561 
L 458.513182 249.570377 
L 462.227061 253.645521 
L 465.940939 244.24699 
L 469.654818 247.037179 
L 473.368697 252.066862 
L 477.082576 253.168252 
L 480.796455 246.266206 
L 484.510333 244.760973 
L 488.224212 240.759254 
L 491.938091 248.909543 
L 495.65197 244.834399 
L 499.365848 255.921728 
L 503.079727 254.489921 
L 506.793606 246.890327 
L 510.507485 253.829086 
L 514.221364 258.858769 
L 517.935242 256.215432 
L 521.649121 256.80284 
L 529.076879 253.094826 
L 532.790758 261.538819 
L 536.504636 256.509136 
L 540.218515 266.825492 
L 543.932394 256.655988 
L 547.646273 263.741599 
L 551.360152 259.409464 
L 555.07403 259.776594 
L 558.787909 261.281828 
L 562.501788 257.243396 
L 566.215667 260.474141 
L 569.929545 258.858769 
L 573.643424 266.31151 
L 577.357303 261.905949 
L 581.071182 263.044052 
L 584.785061 272.222305 
L 588.498939 275.122633 
L 592.212818 274.314947 
L 595.926697 265.467111 
L 599.640576 269.835959 
L 603.354455 275.45305 
L 607.068333 269.138412 
L 610.782212 273.911103 
L 614.496091 278.059674 
L 618.20997 279.785185 
L 621.923848 275.930319 
L 625.637727 282.318383 
L 629.351606 284.96172 
L 633.065485 285.879545 
L 636.779364 293.956408 
L 640.493242 289.147003 
L 644.207121 291.643488 
L 647.921 300.381185 
L 651.634879 300.674889 
L 655.348758 306.218553 
L 659.062636 298.765812 
L 662.776515 303.97906 
L 666.490394 307.246518 
L 670.204273 303.722069 
L 673.918152 301.372436 
L 677.63203 296.526318 
L 681.345909 301.115445 
L 681.345909 301.115445 
" clip-path="url(#p92dc64c23a)" style="fill: none; stroke: #0000ff; stroke-width: 3; stroke-linecap: square"/>
   </g>
   <g id="line2d_18">
    <path d="M 124.264091 74.375888 
L 127.97797 66.335738 
L 131.691848 59.910961 
L 135.405727 69.419631 
L 139.119606 62.297307 
L 142.833485 65.785043 
L 146.547364 54.881279 
L 150.261242 61.085778 
L 153.975121 79.185292 
L 157.689 49.77817 
L 161.402879 56.533364 
L 165.116758 62.921428 
L 168.830636 55.945956 
L 172.544515 61.085778 
L 176.258394 63.361984 
L 179.972273 56.900494 
L 183.686152 63.875966 
L 187.40003 51.687247 
L 191.113909 68.685371 
L 194.827788 68.465093 
L 198.541667 85.720208 
L 202.255545 80.763952 
L 205.969424 93.943923 
L 209.683303 90.089056 
L 213.397182 95.852999 
L 217.111061 116.889555 
L 220.824939 124.342296 
L 224.538818 132.455871 
L 228.252697 100.662404 
L 231.966576 120.927986 
L 235.680455 124.929704 
L 239.394333 132.19888 
L 243.108212 138.66037 
L 246.822091 156.356042 
L 250.53597 178.971256 
L 254.249848 170.123421 
L 257.963727 182.532419 
L 261.677606 180.733481 
L 265.391485 185.763164 
L 269.105364 180.733481 
L 272.819242 191.159976 
L 276.533121 188.443213 
L 280.247 185.873303 
L 283.960879 189.434465 
L 287.674758 198.943135 
L 291.388636 184.111078 
L 295.102515 185.065616 
L 298.816394 177.723014 
L 302.530273 180.990472 
L 306.244152 180.366351 
L 309.95803 173.611157 
L 313.671909 172.362914 
L 317.385788 176.364633 
L 321.099667 176.841902 
L 324.813545 165.681146 
L 328.527424 160.027343 
L 332.241303 176.511485 
L 335.955182 169.609439 
L 339.669061 160.651464 
L 343.382939 175.924077 
L 347.096818 159.182943 
L 350.810697 149.123578 
L 354.524576 126.912207 
L 358.238455 161.752854 
L 361.952333 142.405097 
L 365.666212 127.499615 
L 369.380091 149.417282 
L 373.09397 138.109675 
L 376.807848 145.378851 
L 380.521727 164.800034 
L 384.235606 133.997818 
L 387.949485 136.861433 
L 391.663364 147.618345 
L 395.377242 120.230439 
L 399.091121 154.2634 
L 402.805 153.602566 
L 406.518879 148.279179 
L 410.232758 125.480399 
L 413.946636 138.366666 
L 417.660515 93.393227 
L 421.374394 128.123736 
L 425.088273 113.365105 
L 428.802152 118.211223 
L 432.51603 105.031252 
L 436.229909 97.762076 
L 439.943788 130.399943 
L 443.657667 125.920955 
L 447.371545 102.424628 
L 451.085424 116.999694 
L 454.799303 111.052186 
L 458.513182 78.597884 
L 462.227061 105.178104 
L 465.940939 99.120457 
L 469.654818 90.786604 
L 473.368697 93.650218 
L 477.082576 75.954547 
L 480.796455 82.012194 
L 484.510333 96.146703 
L 488.224212 108.849405 
L 491.938091 121.038125 
L 495.65197 135.943607 
L 499.365848 139.908613 
L 503.079727 131.317768 
L 506.793606 147.43478 
L 510.507485 131.684898 
L 514.221364 131.684898 
L 517.935242 142.588662 
L 521.649121 145.12186 
L 525.363 146.847372 
L 529.076879 148.389318 
L 532.790758 122.359793 
L 536.504636 90.566326 
L 540.218515 122.32308 
L 543.932394 143.28621 
L 547.646273 117.330111 
L 551.360152 119.679743 
L 555.07403 125.039843 
L 558.787909 119.496178 
L 562.501788 128.968135 
L 566.215667 129.482117 
L 569.929545 102.20435 
L 573.643424 114.833626 
L 577.357303 97.982354 
L 581.071182 98.606475 
L 584.785061 85.389791 
L 588.498939 117.07312 
L 592.212818 120.524143 
L 595.926697 128.931422 
L 599.640576 124.158731 
L 603.354455 115.604599 
L 607.068333 145.12186 
L 610.782212 152.758166 
L 614.496091 92.658967 
L 618.20997 116.632563 
L 621.923848 116.302146 
L 625.637727 107.711302 
L 629.351606 102.277776 
L 633.065485 105.067965 
L 636.779364 137.705832 
L 640.493242 127.940171 
L 644.207121 130.142952 
L 647.921 107.013755 
L 651.634879 103.526018 
L 655.348758 121.22169 
L 659.062636 79.075153 
L 662.776515 109.363387 
L 666.490394 118.688492 
L 670.204273 111.015473 
L 673.918152 123.277619 
L 677.63203 127.866745 
L 681.345909 127.279337 
L 681.345909 127.279337 
" clip-path="url(#p92dc64c23a)" style="fill: none; stroke: #008000; stroke-width: 3; stroke-linecap: square"/>
   </g>
   <g id="line2d_19">
    <path d="M 124.264091 72.20982 
L 127.97797 61.269343 
L 131.691848 58.626006 
L 135.405727 57.084059 
L 139.119606 72.319959 
L 142.833485 62.848002 
L 146.547364 52.605072 
L 150.261242 78.157328 
L 153.975121 54.073592 
L 157.689 87.409007 
L 161.402879 85.389791 
L 165.116758 54.77114 
L 168.830636 45.299183 
L 172.544515 64.096244 
L 176.258394 73.127645 
L 179.972273 54.367296 
L 183.686152 77.680059 
L 187.40003 58.846284 
L 191.113909 72.797228 
L 194.827788 72.503524 
L 198.541667 74.339175 
L 202.255545 64.389949 
L 205.969424 67.730833 
L 209.683303 60.718647 
L 213.397182 72.026255 
L 217.111061 49.998448 
L 220.824939 67.143424 
L 224.538818 63.215132 
L 228.252697 61.342769 
L 231.966576 66.262312 
L 235.680455 66.078747 
L 239.394333 77.496494 
L 243.108212 56.900494 
L 246.822091 68.501806 
L 250.53597 68.281528 
L 254.249848 66.005321 
L 257.963727 69.970326 
L 261.677606 85.683495 
L 265.391485 75.367139 
L 269.105364 69.860187 
L 272.819242 71.10843 
L 276.533121 54.734427 
L 280.247 67.253563 
L 283.960879 72.540237 
L 287.674758 75.844408 
L 291.388636 70.704586 
L 295.102515 53.486184 
L 298.816394 83.040158 
L 302.530273 61.306056 
L 306.244152 63.472123 
L 309.95803 63.692401 
L 313.671909 71.585699 
L 317.385788 71.438847 
L 321.099667 68.979075 
L 324.813545 66.776294 
L 328.527424 62.958141 
L 332.241303 72.173107 
L 335.955182 55.982669 
L 339.669061 77.459781 
L 343.382939 76.652094 
L 347.096818 71.769264 
L 350.810697 59.580544 
L 354.524576 63.912679 
L 358.238455 75.844408 
L 361.952333 82.379324 
L 365.666212 73.164358 
L 369.380091 71.145143 
L 373.09397 65.124209 
L 376.807848 74.926583 
L 380.521727 68.354954 
L 384.235606 74.52274 
L 387.949485 68.281528 
L 391.663364 85.279652 
L 395.377242 63.398697 
L 399.091121 67.290276 
L 402.805 64.389949 
L 406.518879 80.433534 
L 410.232758 74.339175 
L 413.946636 75.660843 
L 417.660515 73.054219 
L 421.374394 74.302462 
L 425.088273 63.251845 
L 428.802152 64.059531 
L 432.51603 65.638191 
L 436.229909 77.166076 
L 439.943788 70.888152 
L 443.657667 81.791916 
L 447.371545 70.851439 
L 451.085424 70.153891 
L 454.799303 73.347923 
L 458.513182 78.965014 
L 462.227061 89.391509 
L 465.940939 69.970326 
L 469.654818 69.346205 
L 473.368697 67.951111 
L 477.082576 62.040316 
L 480.796455 72.136394 
L 484.510333 73.237784 
L 488.224212 67.767546 
L 491.938091 66.959859 
L 495.65197 69.456344 
L 499.365848 65.821756 
L 503.079727 69.236066 
L 506.793606 69.125927 
L 510.507485 67.253563 
L 514.221364 84.471966 
L 517.935242 64.830505 
L 521.649121 63.178419 
L 525.363 80.947517 
L 529.076879 74.963296 
L 532.790758 76.174825 
L 536.504636 80.543673 
L 540.218515 85.242939 
L 543.932394 62.554298 
L 547.646273 75.000009 
L 551.360152 85.242939 
L 555.07403 81.828629 
L 558.787909 70.704586 
L 562.501788 68.097963 
L 566.215667 73.715053 
L 569.929545 58.515867 
L 573.643424 59.984387 
L 577.357303 68.538519 
L 581.071182 73.201071 
L 584.785061 73.935331 
L 588.498939 77.423068 
L 592.212818 73.825192 
L 595.926697 73.421349 
L 599.640576 78.047189 
L 603.354455 59.250127 
L 607.068333 73.054219 
L 610.782212 69.419631 
L 614.496091 68.942362 
L 618.20997 78.30418 
L 621.923848 81.204508 
L 625.637727 64.316523 
L 629.351606 62.150455 
L 633.065485 79.40557 
L 636.779364 65.491339 
L 640.493242 70.961578 
L 644.207121 65.711617 
L 647.921 79.735987 
L 651.634879 76.174825 
L 655.348758 81.020943 
L 659.062636 66.629442 
L 662.776515 79.919552 
L 666.490394 66.556016 
L 670.204273 80.837378 
L 673.918152 62.150455 
L 677.63203 75.293713 
L 681.345909 58.699432 
L 681.345909 58.699432 
" clip-path="url(#p92dc64c23a)" style="fill: none; stroke: #ff0000; stroke-width: 3; stroke-linecap: square"/>
   </g>
   <g id="line2d_20">
    <path d="M 124.264091 62.591011 
L 127.97797 76.505242 
L 131.691848 71.805977 
L 135.405727 59.984387 
L 139.119606 75.954547 
L 142.833485 76.027973 
L 146.547364 61.893464 
L 150.261242 62.077029 
L 153.975121 74.632879 
L 157.689 72.907367 
L 161.402879 66.299025 
L 165.116758 65.601478 
L 168.830636 72.870654 
L 172.544515 69.309492 
L 176.258394 79.442283 
L 179.972273 58.956423 
L 183.686152 77.459781 
L 187.40003 61.930177 
L 191.113909 65.01407 
L 194.827788 72.687089 
L 198.541667 73.274497 
L 202.255545 79.442283 
L 205.969424 78.340893 
L 209.683303 78.597884 
L 213.397182 71.585699 
L 217.111061 70.998291 
L 220.824939 86.748172 
L 224.538818 77.129363 
L 228.252697 73.384636 
L 231.966576 89.464935 
L 235.680455 74.596166 
L 239.394333 82.048907 
L 243.108212 78.30418 
L 246.822091 81.681777 
L 250.53597 88.987666 
L 254.249848 74.779731 
L 257.963727 72.393385 
L 261.677606 78.451032 
L 265.391485 89.28137 
L 269.105364 80.580386 
L 272.819242 84.361827 
L 276.533121 83.811131 
L 280.247 80.470247 
L 283.960879 82.012194 
L 287.674758 88.840814 
L 291.388636 79.956265 
L 295.102515 81.241221 
L 298.816394 84.435253 
L 302.530273 90.199195 
L 306.244152 73.715053 
L 309.95803 86.124051 
L 313.671909 86.270903 
L 317.385788 86.96845 
L 321.099667 87.482433 
L 324.813545 77.055937 
L 328.527424 74.339175 
L 332.241303 80.580386 
L 335.955182 82.195759 
L 339.669061 83.113584 
L 343.382939 84.582105 
L 347.096818 84.39854 
L 350.810697 79.7727 
L 354.524576 77.239502 
L 358.238455 84.435253 
L 361.952333 80.727239 
L 365.666212 79.03844 
L 369.380091 77.973763 
L 373.09397 86.087338 
L 376.807848 86.050625 
L 380.521727 84.03141 
L 384.235606 88.987666 
L 387.949485 79.075153 
L 391.663364 92.365263 
L 395.377242 86.307616 
L 399.091121 80.50696 
L 402.805 90.052343 
L 406.518879 84.104836 
L 410.232758 93.503366 
L 413.946636 100.956108 
L 417.660515 105.802225 
L 421.374394 105.802225 
L 425.088273 106.793476 
L 428.802152 119.202474 
L 432.51603 116.559137 
L 436.229909 108.812692 
L 439.943788 114.466496 
L 443.657667 116.962981 
L 447.371545 131.427907 
L 451.085424 121.478681 
L 454.799303 116.926268 
L 458.513182 127.426189 
L 462.227061 131.868463 
L 465.940939 134.842217 
L 469.654818 124.709426 
L 473.368697 117.366824 
L 477.082576 130.032813 
L 480.796455 121.919237 
L 484.510333 137.669119 
L 488.224212 129.261839 
L 491.938091 125.186695 
L 495.65197 127.940171 
L 499.365848 128.78457 
L 503.079727 131.721611 
L 506.793606 119.936734 
L 510.507485 129.114987 
L 514.221364 129.555543 
L 517.935242 125.296834 
L 521.649121 134.034531 
L 525.363 122.433219 
L 529.076879 121.698959 
L 532.790758 118.064371 
L 536.504636 122.653497 
L 540.218515 129.665682 
L 543.932394 117.256685 
L 547.646273 120.340578 
L 551.360152 119.2759 
L 555.07403 112.887836 
L 558.787909 120.85456 
L 562.501788 120.230439 
L 566.215667 119.239187 
L 569.929545 134.218096 
L 573.643424 128.087023 
L 577.357303 122.359793 
L 581.071182 132.823001 
L 584.785061 125.406973 
L 588.498939 122.506645 
L 592.212818 121.992663 
L 595.926697 135.466338 
L 599.640576 142.001254 
L 603.354455 135.576477 
L 607.068333 119.569604 
L 610.782212 124.305583 
L 614.496091 135.209347 
L 618.20997 134.254809 
L 621.923848 125.663964 
L 625.637727 129.298552 
L 629.351606 123.718175 
L 633.065485 134.218096 
L 636.779364 131.281055 
L 640.493242 122.433219 
L 644.207121 130.069526 
L 647.921 136.420877 
L 651.634879 131.758324 
L 655.348758 128.78457 
L 659.062636 136.017033 
L 662.776515 128.637718 
L 666.490394 144.350887 
L 670.204273 151.399785 
L 673.918152 144.424313 
L 677.63203 165.314016 
L 681.345909 163.588505 
L 681.345909 163.588505 
" clip-path="url(#p92dc64c23a)" style="fill: none; stroke: #ffa500; stroke-width: 3; stroke-linecap: square"/>
   </g>
   <g id="patch_3">
    <path d="M 96.41 343.96 
L 96.41 10.8 
" style="fill: none; stroke: #000000; stroke-width: 0.8; stroke-linejoin: miter; stroke-linecap: square"/>
   </g>
   <g id="patch_4">
    <path d="M 709.2 343.96 
L 709.2 10.8 
" style="fill: none; stroke: #000000; stroke-width: 0.8; stroke-linejoin: miter; stroke-linecap: square"/>
   </g>
   <g id="patch_5">
    <path d="M 96.41 343.96 
L 709.2 343.96 
" style="fill: none; stroke: #000000; stroke-width: 0.8; stroke-linejoin: miter; stroke-linecap: square"/>
   </g>
   <g id="patch_6">
    <path d="M 96.41 10.8 
L 709.2 10.8 
" style="fill: none; stroke: #000000; stroke-width: 0.8; stroke-linejoin: miter; stroke-linecap: square"/>
   </g>
  </g>
 </g>
 <defs>
  <clipPath id="p92dc64c23a">
   <rect x="96.41" y="10.8" width="612.79" height="333.16"/>
  </clipPath>
 </defs>
</svg>
