<?xml version="1.0" encoding="utf-8" standalone="no"?>
<!DOCTYPE svg PUBLIC "-//W3C//DTD SVG 1.1//EN"
  "http://www.w3.org/Graphics/SVG/1.1/DTD/svg11.dtd">
<svg xmlns:xlink="http://www.w3.org/1999/xlink" width="720pt" height="432pt" viewBox="0 0 720 432" xmlns="http://www.w3.org/2000/svg" version="1.1">
 <metadata>
  <rdf:RDF xmlns:dc="http://purl.org/dc/elements/1.1/" xmlns:cc="http://creativecommons.org/ns#" xmlns:rdf="http://www.w3.org/1999/02/22-rdf-syntax-ns#">
   <cc:Work>
    <dc:type rdf:resource="http://purl.org/dc/dcmitype/StillImage"/>
    <dc:date>2025-06-20T06:27:05.482219</dc:date>
    <dc:format>image/svg+xml</dc:format>
    <dc:creator>
     <cc:Agent>
      <dc:title>Matplotlib v3.7.1, https://matplotlib.org/</dc:title>
     </cc:Agent>
    </dc:creator>
   </cc:Work>
  </rdf:RDF>
 </metadata>
 <defs>
  <style type="text/css">*{stroke-linejoin: round; stroke-linecap: butt}</style>
 </defs>
 <g id="figure_1">
  <g id="patch_1">
   <path d="M 0 432 
L 720 432 
L 720 0 
L 0 0 
z
" style="fill: #ffffff"/>
  </g>
  <g id="axes_1">
   <g id="patch_2">
    <path d="M 132.05 343.96 
L 705.841396 343.96 
L 705.841396 10.8 
L 132.05 10.8 
z
" style="fill: #ffffff"/>
   </g>
   <g id="PolyCollection_1">
    <defs>
     <path id="mb4da6ccfb1" d="M 158.131427 -312.097129 
L 158.131427 -240.868999 
L 161.273768 -216.630644 
L 164.416108 -150.468577 
L 167.558449 -129.818625 
L 170.70079 -128.611609 
L 173.84313 -115.688864 
L 176.985471 -107.350875 
L 180.127811 -105.403086 
L 183.270152 -114.400926 
L 186.412493 -113.511898 
L 189.554833 -115.16584 
L 192.697174 -111.144679 
L 195.839515 -110.846991 
L 198.981855 -111.749823 
L 202.124196 -117.611156 
L 205.266536 -115.025266 
L 208.408877 -109.152029 
L 211.551218 -111.61681 
L 214.693558 -109.058133 
L 217.835899 -112.125408 
L 220.978239 -112.842875 
L 224.12058 -106.776906 
L 227.262921 -107.875328 
L 230.405261 -113.859762 
L 233.547602 -112.438395 
L 236.689943 -115.189002 
L 239.832283 -121.122435 
L 242.974624 -122.777451 
L 246.116964 -113.592625 
L 249.259305 -114.244334 
L 252.401646 -112.188005 
L 255.543986 -111.466505 
L 258.686327 -110.907791 
L 261.828667 -111.468134 
L 264.971008 -112.438395 
L 268.113349 -112.687863 
L 271.255689 -112.729578 
L 274.39803 -111.847326 
L 277.540371 -113.236591 
L 280.682711 -114.968721 
L 283.825052 -112.981913 
L 286.967392 -112.095145 
L 290.109733 -112.000213 
L 293.252074 -112.375797 
L 296.394414 -106.053455 
L 299.536755 -113.610303 
L 302.679095 -112.314357 
L 305.821436 -114.400004 
L 308.963777 -111.607706 
L 312.106117 -111.968914 
L 315.248458 -112.438395 
L 318.390799 -112.438395 
L 321.533139 -111.875018 
L 324.67548 -113.344258 
L 327.81782 -112.3132 
L 330.960161 -109.652808 
L 334.102502 -115.878266 
L 337.244842 -118.372346 
L 340.387183 -112.06281 
L 343.529523 -112.916144 
L 346.671864 -112.219304 
L 349.814205 -110.560471 
L 352.956545 -109.224336 
L 356.098886 -110.059692 
L 359.241227 -117.419662 
L 362.383567 -111.555734 
L 365.525908 -112.031511 
L 368.668248 -111.86411 
L 371.810589 -114.979792 
L 374.95293 -115.68418 
L 378.09527 -116.533895 
L 381.237611 -110.904757 
L 384.379951 -113.074548 
L 387.522292 -113.557682 
L 390.664633 -119.062532 
L 393.806973 -124.227489 
L 396.949314 -127.244945 
L 400.091655 -128.230098 
L 403.233995 -114.668815 
L 406.376336 -112.438395 
L 409.518676 -112.18209 
L 412.661017 -112.24386 
L 415.803358 -112.213427 
L 418.945698 -111.466505 
L 422.088039 -110.062985 
L 425.230379 -111.468134 
L 428.37272 -116.186951 
L 431.515061 -111.906317 
L 434.657401 -112.787129 
L 437.799742 -113.316856 
L 440.942083 -113.874403 
L 444.084423 -112.526921 
L 447.226764 -111.584814 
L 450.369104 -111.061251 
L 453.511445 -109.318088 
L 456.653786 -111.439504 
L 459.796126 -111.907241 
L 462.938467 -113.494039 
L 466.080807 -112.691762 
L 469.223148 -112.344499 
L 472.365489 -111.910062 
L 475.507829 -113.167192 
L 478.65017 -111.405537 
L 481.792511 -113.746133 
L 484.934851 -110.967355 
L 488.077192 -112.438395 
L 491.219532 -112.438395 
L 494.361873 -111.593329 
L 497.504214 -114.563023 
L 500.646554 -112.647058 
L 503.788895 -113.565311 
L 506.931235 -110.034079 
L 510.073576 -113.626675 
L 513.215917 -112.438395 
L 516.358257 -125.898481 
L 519.500598 -118.459803 
L 522.642939 -116.692179 
L 525.785279 -110.529173 
L 528.92762 -109.78722 
L 532.06996 -110.505468 
L 535.212301 -112.250602 
L 538.354642 -111.34294 
L 541.496982 -112.448706 
L 544.639323 -114.32793 
L 547.781664 -114.118312 
L 550.924004 -113.869463 
L 554.066345 -113.534263 
L 557.208685 -111.155147 
L 560.351026 -111.311641 
L 563.493367 -111.655927 
L 566.635707 -113.868674 
L 569.778048 -112.56842 
L 572.920388 -111.436836 
L 576.062729 -112.77602 
L 579.20507 -111.839532 
L 582.34741 -109.903198 
L 585.489751 -112.767982 
L 588.632092 -112.06281 
L 591.774432 -112.281901 
L 594.916773 -115.333246 
L 598.059113 -112.156706 
L 601.201454 -111.436836 
L 604.343795 -108.932938 
L 607.486135 -109.63118 
L 610.628476 -111.81242 
L 613.770816 -111.034849 
L 616.913157 -112.751157 
L 620.055498 -112.840093 
L 623.197838 -112.733787 
L 626.340179 -112.604785 
L 629.48252 -115.024986 
L 632.62486 -114.048907 
L 635.767201 -118.425824 
L 638.909541 -113.199056 
L 642.051882 -114.228248 
L 645.194223 -113.418338 
L 648.336563 -111.906317 
L 651.478904 -112.438395 
L 654.621244 -112.438395 
L 657.763585 -112.438395 
L 660.905926 -111.783284 
L 664.048266 -111.485749 
L 667.190607 -115.978199 
L 670.332948 -111.906317 
L 673.475288 -111.937615 
L 676.617629 -110.936056 
L 679.759969 -114.641655 
L 679.759969 -126.556484 
L 679.759969 -126.556484 
L 676.617629 -121.194666 
L 673.475288 -115.357152 
L 670.332948 -115.539574 
L 667.190607 -139.123311 
L 664.048266 -123.969693 
L 660.905926 -117.02272 
L 657.763585 -112.438395 
L 654.621244 -112.438395 
L 651.478904 -112.438395 
L 648.336563 -115.539574 
L 645.194223 -118.259014 
L 642.051882 -123.191801 
L 638.909541 -117.722678 
L 635.767201 -148.463327 
L 632.62486 -140.750356 
L 629.48252 -129.044501 
L 626.340179 -114.085488 
L 623.197838 -116.072216 
L 620.055498 -122.615349 
L 616.913157 -118.170577 
L 613.770816 -122.909357 
L 610.628476 -116.086841 
L 607.486135 -132.624824 
L 604.343795 -132.869695 
L 601.201454 -118.275909 
L 598.059113 -114.080196 
L 594.916773 -129.642983 
L 591.774432 -113.350506 
L 588.632092 -114.627463 
L 585.489751 -114.829033 
L 582.34741 -127.214603 
L 579.20507 -118.931078 
L 576.062729 -116.936725 
L 572.920388 -118.275909 
L 569.778048 -120.166797 
L 566.635707 -128.689577 
L 563.493367 -116.998953 
L 560.351026 -119.005598 
L 557.208685 -119.91771 
L 554.066345 -119.956572 
L 550.924004 -126.27081 
L 547.781664 -120.279264 
L 544.639323 -125.963466 
L 541.496982 -127.38932 
L 538.354642 -118.823176 
L 535.212301 -113.532929 
L 532.06996 -125.252221 
L 528.92762 -131.713166 
L 525.785279 -123.566157 
L 522.642939 -128.435173 
L 519.500598 -144.197887 
L 516.358257 -134.945725 
L 513.215917 -112.438395 
L 510.073576 -119.713036 
L 506.931235 -127.990463 
L 503.788895 -126.726086 
L 500.646554 -119.634788 
L 497.504214 -124.821633 
L 494.361873 -117.363798 
L 491.219532 -112.438395 
L 488.077192 -112.438395 
L 484.934851 -121.012244 
L 481.792511 -119.140208 
L 478.65017 -118.458331 
L 475.507829 -137.249486 
L 472.365489 -121.429649 
L 469.223148 -112.985662 
L 466.080807 -115.66087 
L 462.938467 -118.636684 
L 459.796126 -117.049886 
L 456.653786 -119.028859 
L 453.511445 -133.693533 
L 450.369104 -120.464977 
L 447.226764 -122.057145 
L 444.084423 -112.954363 
L 440.942083 -130.950702 
L 437.799742 -127.881283 
L 434.657401 -115.565503 
L 431.515061 -115.539574 
L 428.37272 -127.429165 
L 425.230379 -118.093487 
L 422.088039 -127.054816 
L 418.945698 -121.873206 
L 415.803358 -118.85943 
L 412.661017 -132.278997 
L 409.518676 -119.344138 
L 406.376336 -112.438395 
L 403.233995 -158.114156 
L 400.091655 -144.250626 
L 396.949314 -135.261621 
L 393.806973 -132.08301 
L 390.664633 -130.145158 
L 387.522292 -120.839895 
L 384.379951 -129.634826 
L 381.237611 -121.377089 
L 378.09527 -121.037277 
L 374.95293 -132.616768 
L 371.810589 -118.511043 
L 368.668248 -126.764928 
L 365.525908 -114.809885 
L 362.383567 -126.468809 
L 359.241227 -144.93578 
L 356.098886 -126.302491 
L 352.956545 -134.240656 
L 349.814205 -123.383734 
L 346.671864 -113.715351 
L 343.529523 -123.89941 
L 340.387183 -114.627463 
L 337.244842 -133.555568 
L 334.102502 -135.596277 
L 330.960161 -128.673982 
L 327.81782 -113.168084 
L 324.67548 -119.84433 
L 321.533139 -115.721997 
L 318.390799 -112.438395 
L 315.248458 -112.438395 
L 312.106117 -115.17473 
L 308.963777 -123.243242 
L 305.821436 -123.926786 
L 302.679095 -119.665242 
L 299.536755 -115.649071 
L 296.394414 -149.652549 
L 293.252074 -112.803239 
L 290.109733 -114.992307 
L 286.967392 -115.199622 
L 283.825052 -116.881956 
L 280.682711 -125.020429 
L 277.540371 -118.289637 
L 274.39803 -121.190138 
L 271.255689 -115.320808 
L 268.113349 -117.176005 
L 264.971008 -112.438395 
L 261.828667 -118.093487 
L 258.686327 -122.129673 
L 255.543986 -121.873206 
L 252.401646 -113.897773 
L 249.259305 -118.79313 
L 246.116964 -131.685851 
L 242.974624 -134.288666 
L 239.832283 -149.847053 
L 236.689943 -142.783857 
L 233.547602 -112.438395 
L 230.405261 -122.653545 
L 227.262921 -140.576743 
L 224.12058 -146.208873 
L 220.978239 -131.226612 
L 217.835899 -114.262618 
L 214.693558 -132.140006 
L 211.551218 -121.722901 
L 208.408877 -131.592739 
L 205.266536 -117.25658 
L 202.124196 -120.715634 
L 198.981855 -116.451686 
L 195.839515 -123.248338 
L 192.697174 -126.72874 
L 189.554833 -128.6014 
L 186.412493 -124.814892 
L 183.270152 -128.157325 
L 180.127811 -154.98775 
L 176.985471 -177.370861 
L 173.84313 -159.209838 
L 170.70079 -182.103387 
L 167.558449 -186.034573 
L 164.416108 -206.792487 
L 161.273768 -300.670314 
L 158.131427 -312.097129 
z
" style="stroke: #0000ff; stroke-opacity: 0.3"/>
    </defs>
    <g clip-path="url(#p9beece9f91)">
     <use xlink:href="#mb4da6ccfb1" x="0" y="432" style="fill: #0000ff; fill-opacity: 0.3; stroke: #0000ff; stroke-opacity: 0.3"/>
    </g>
   </g>
   <g id="PolyCollection_2">
    <defs>
     <path id="m482a6e26cb" d="M 158.131427 -356.432663 
L 158.131427 -285.243019 
L 161.273768 -322.510087 
L 164.416108 -291.019614 
L 167.558449 -277.196382 
L 170.70079 -237.388501 
L 173.84313 -181.657202 
L 176.985471 -167.315092 
L 180.127811 -166.486357 
L 183.270152 -153.403596 
L 186.412493 -162.93165 
L 189.554833 -153.473851 
L 192.697174 -146.188671 
L 195.839515 -123.900866 
L 198.981855 -144.979748 
L 202.124196 -129.444772 
L 205.266536 -121.096741 
L 208.408877 -127.138293 
L 211.551218 -131.605508 
L 214.693558 -121.450421 
L 217.835899 -139.679378 
L 220.978239 -139.53143 
L 224.12058 -115.719327 
L 227.262921 -108.08089 
L 230.405261 -103.183636 
L 233.547602 -122.270567 
L 236.689943 -132.13667 
L 239.832283 -110.318044 
L 242.974624 -112.10579 
L 246.116964 -119.956379 
L 249.259305 -131.945256 
L 252.401646 -135.113485 
L 255.543986 -113.907394 
L 258.686327 -122.609253 
L 261.828667 -108.362634 
L 264.971008 -118.012549 
L 268.113349 -131.501229 
L 271.255689 -126.321036 
L 274.39803 -119.849849 
L 277.540371 -117.791621 
L 280.682711 -117.589815 
L 283.825052 -127.761186 
L 286.967392 -114.600948 
L 290.109733 -111.398346 
L 293.252074 -110.501059 
L 296.394414 -118.733884 
L 299.536755 -117.602052 
L 302.679095 -121.782013 
L 305.821436 -108.532435 
L 308.963777 -109.09232 
L 312.106117 -116.181706 
L 315.248458 -114.583472 
L 318.390799 -114.428859 
L 321.533139 -117.821447 
L 324.67548 -113.705725 
L 327.81782 -112.89697 
L 330.960161 -131.516158 
L 334.102502 -116.056107 
L 337.244842 -128.222254 
L 340.387183 -111.327542 
L 343.529523 -116.347705 
L 346.671864 -116.587227 
L 349.814205 -113.036614 
L 352.956545 -111.916339 
L 356.098886 -113.863143 
L 359.241227 -116.074215 
L 362.383567 -111.781122 
L 365.525908 -115.008738 
L 368.668248 -115.671127 
L 371.810589 -113.845529 
L 374.95293 -116.474574 
L 378.09527 -112.408409 
L 381.237611 -118.166849 
L 384.379951 -112.849037 
L 387.522292 -130.514094 
L 390.664633 -119.70504 
L 393.806973 -113.536611 
L 396.949314 -116.410325 
L 400.091655 -120.695848 
L 403.233995 -111.251875 
L 406.376336 -111.249043 
L 409.518676 -116.384967 
L 412.661017 -116.049988 
L 415.803358 -114.17682 
L 418.945698 -110.379857 
L 422.088039 -121.341256 
L 425.230379 -110.422955 
L 428.37272 -112.93025 
L 431.515061 -121.172274 
L 434.657401 -121.201393 
L 437.799742 -113.204835 
L 440.942083 -111.003165 
L 444.084423 -129.15077 
L 447.226764 -110.470049 
L 450.369104 -115.808713 
L 453.511445 -112.460655 
L 456.653786 -123.667175 
L 459.796126 -120.904752 
L 462.938467 -112.173078 
L 466.080807 -113.460923 
L 469.223148 -111.251636 
L 472.365489 -114.927738 
L 475.507829 -117.307448 
L 478.65017 -119.990654 
L 481.792511 -112.956263 
L 484.934851 -112.802376 
L 488.077192 -115.599843 
L 491.219532 -131.436394 
L 494.361873 -115.595875 
L 497.504214 -110.720788 
L 500.646554 -121.445516 
L 503.788895 -113.779666 
L 506.931235 -108.878957 
L 510.073576 -120.775313 
L 513.215917 -110.90704 
L 516.358257 -134.444365 
L 519.500598 -111.376967 
L 522.642939 -113.462339 
L 525.785279 -116.318526 
L 528.92762 -104.589388 
L 532.06996 -116.006123 
L 535.212301 -113.80168 
L 538.354642 -119.795638 
L 541.496982 -115.909946 
L 544.639323 -121.823012 
L 547.781664 -115.247607 
L 550.924004 -117.572558 
L 554.066345 -133.366215 
L 557.208685 -110.095636 
L 560.351026 -129.087859 
L 563.493367 -136.43786 
L 566.635707 -151.404458 
L 569.778048 -135.400079 
L 572.920388 -121.21264 
L 576.062729 -144.347119 
L 579.20507 -113.364064 
L 582.34741 -125.657518 
L 585.489751 -106.272546 
L 588.632092 -124.164017 
L 591.774432 -137.390022 
L 594.916773 -124.589437 
L 598.059113 -116.883109 
L 601.201454 -131.850227 
L 604.343795 -112.591013 
L 607.486135 -123.136627 
L 610.628476 -113.315054 
L 613.770816 -132.044301 
L 616.913157 -128.054999 
L 620.055498 -123.221776 
L 623.197838 -118.845057 
L 626.340179 -110.697644 
L 629.48252 -114.119512 
L 632.62486 -112.124147 
L 635.767201 -111.62048 
L 638.909541 -109.580899 
L 642.051882 -111.967209 
L 645.194223 -121.456481 
L 648.336563 -109.677028 
L 651.478904 -115.716395 
L 654.621244 -116.14982 
L 657.763585 -114.220081 
L 660.905926 -112.182522 
L 664.048266 -113.609848 
L 667.190607 -125.624096 
L 670.332948 -110.087508 
L 673.475288 -112.725678 
L 676.617629 -112.156706 
L 679.759969 -111.559048 
L 679.759969 -121.327292 
L 679.759969 -121.327292 
L 676.617629 -114.080196 
L 673.475288 -114.266842 
L 670.332948 -159.975238 
L 667.190607 -134.162245 
L 664.048266 -119.427616 
L 660.905926 -122.970673 
L 657.763585 -120.177495 
L 654.621244 -126.408431 
L 651.478904 -139.838486 
L 648.336563 -139.832909 
L 645.194223 -142.107951 
L 642.051882 -160.060144 
L 638.909541 -179.221174 
L 635.767201 -157.233278 
L 632.62486 -144.488599 
L 629.48252 -175.89155 
L 626.340179 -179.313418 
L 623.197838 -153.635667 
L 620.055498 -146.3876 
L 616.913157 -156.062243 
L 613.770816 -193.783055 
L 610.628476 -135.741512 
L 607.486135 -154.4823 
L 604.343795 -139.336902 
L 601.201454 -142.44398 
L 598.059113 -153.028513 
L 594.916773 -147.589039 
L 591.774432 -143.704747 
L 588.632092 -152.397044 
L 585.489751 -148.375593 
L 582.34741 -128.386126 
L 579.20507 -122.998119 
L 576.062729 -152.766752 
L 572.920388 -155.801792 
L 569.778048 -164.887388 
L 566.635707 -158.857166 
L 563.493367 -147.226011 
L 560.351026 -132.814213 
L 557.208685 -143.343515 
L 554.066345 -149.693161 
L 550.924004 -141.609289 
L 547.781664 -124.590419 
L 544.639323 -134.789734 
L 541.496982 -129.217406 
L 538.354642 -137.874973 
L 535.212301 -133.592526 
L 532.06996 -130.330218 
L 528.92762 -159.730661 
L 525.785279 -137.422871 
L 522.642939 -134.536361 
L 519.500598 -119.393643 
L 516.358257 -158.589169 
L 513.215917 -136.184919 
L 510.073576 -139.615523 
L 506.931235 -142.293339 
L 503.788895 -121.071282 
L 500.646554 -122.926219 
L 497.504214 -127.001507 
L 494.361873 -140.412377 
L 491.219532 -139.079723 
L 488.077192 -133.003352 
L 484.934851 -128.093516 
L 481.792511 -115.547493 
L 478.65017 -179.692319 
L 475.507829 -126.762039 
L 472.365489 -123.096804 
L 469.223148 -136.14257 
L 466.080807 -137.409126 
L 462.938467 -150.786859 
L 459.796126 -144.170916 
L 456.653786 -126.749503 
L 453.511445 -116.798719 
L 450.369104 -184.629877 
L 447.226764 -154.756742 
L 444.084423 -147.712538 
L 440.942083 -123.847782 
L 437.799742 -117.414651 
L 434.657401 -134.353488 
L 431.515061 -165.362945 
L 428.37272 -163.630811 
L 425.230379 -133.948779 
L 422.088039 -143.885535 
L 418.945698 -127.493562 
L 415.803358 -125.510083 
L 412.661017 -128.321746 
L 409.518676 -173.928342 
L 406.376336 -119.370443 
L 403.233995 -120.123229 
L 400.091655 -128.209594 
L 396.949314 -128.263657 
L 393.806973 -122.976696 
L 390.664633 -121.039728 
L 387.522292 -138.490787 
L 384.379951 -133.336181 
L 381.237611 -124.995897 
L 378.09527 -125.767257 
L 374.95293 -139.533678 
L 371.810589 -123.876767 
L 368.668248 -128.549483 
L 365.525908 -147.195581 
L 362.383567 -116.269264 
L 359.241227 -123.159317 
L 356.098886 -125.370389 
L 352.956545 -118.552024 
L 349.814205 -114.862648 
L 346.671864 -140.025519 
L 343.529523 -127.268411 
L 340.387183 -130.021721 
L 337.244842 -139.573638 
L 334.102502 -138.894279 
L 330.960161 -152.147712 
L 327.81782 -138.124203 
L 324.67548 -129.305897 
L 321.533139 -121.260961 
L 318.390799 -123.897931 
L 315.248458 -125.254554 
L 312.106117 -124.260814 
L 308.963777 -142.533347 
L 305.821436 -136.746041 
L 302.679095 -167.624555 
L 299.536755 -134.174738 
L 296.394414 -138.332232 
L 293.252074 -124.501011 
L 290.109733 -137.658219 
L 286.967392 -172.841012 
L 283.825052 -149.555494 
L 280.682711 -136.151583 
L 277.540371 -126.126742 
L 274.39803 -129.660087 
L 271.255689 -152.506879 
L 268.113349 -142.490731 
L 264.971008 -159.001883 
L 261.828667 -152.028202 
L 258.686327 -135.9681 
L 255.543986 -134.091307 
L 252.401646 -169.103195 
L 249.259305 -142.953446 
L 246.116964 -144.061423 
L 242.974624 -156.899091 
L 239.832283 -152.339646 
L 236.689943 -164.674954 
L 233.547602 -126.634875 
L 230.405261 -191.814504 
L 227.262921 -208.679049 
L 224.12058 -164.922071 
L 220.978239 -178.588622 
L 217.835899 -177.080561 
L 214.693558 -139.544909 
L 211.551218 -163.543757 
L 208.408877 -138.541869 
L 205.266536 -151.081736 
L 202.124196 -163.891009 
L 198.981855 -172.686933 
L 195.839515 -157.798398 
L 192.697174 -194.14655 
L 189.554833 -182.025415 
L 186.412493 -174.985593 
L 183.270152 -197.661401 
L 180.127811 -216.91909 
L 176.985471 -208.836422 
L 173.84313 -240.13364 
L 170.70079 -273.111895 
L 167.558449 -307.203456 
L 164.416108 -309.701572 
L 161.273768 -342.136383 
L 158.131427 -356.432663 
z
" style="stroke: #008000; stroke-opacity: 0.3"/>
    </defs>
    <g clip-path="url(#p9beece9f91)">
     <use xlink:href="#m482a6e26cb" x="0" y="432" style="fill: #008000; fill-opacity: 0.3; stroke: #008000; stroke-opacity: 0.3"/>
    </g>
   </g>
   <g id="PolyCollection_3">
    <defs>
     <path id="mdfb176423b" d="M 158.131427 -397.066734 
L 158.131427 -396.639292 
L 161.273768 -403.064269 
L 164.416108 -401.130961 
L 167.558449 -369.385949 
L 170.70079 -351.283337 
L 173.84313 -347.443953 
L 176.985471 -361.400642 
L 180.127811 -368.584765 
L 183.270152 -346.247928 
L 186.412493 -359.767357 
L 189.554833 -323.056747 
L 192.697174 -318.864561 
L 195.839515 -309.430075 
L 198.981855 -337.251625 
L 202.124196 -305.827735 
L 205.266536 -323.196749 
L 208.408877 -270.279086 
L 211.551218 -343.598435 
L 214.693558 -306.310562 
L 217.835899 -314.551786 
L 220.978239 -290.869486 
L 224.12058 -273.71343 
L 227.262921 -273.460276 
L 230.405261 -275.485256 
L 233.547602 -251.298267 
L 236.689943 -303.754425 
L 239.832283 -275.37525 
L 242.974624 -252.321688 
L 246.116964 -298.799566 
L 249.259305 -239.72028 
L 252.401646 -272.915773 
L 255.543986 -275.761193 
L 258.686327 -279.972476 
L 261.828667 -251.312534 
L 264.971008 -226.119156 
L 268.113349 -274.828904 
L 271.255689 -277.533019 
L 274.39803 -238.778554 
L 277.540371 -225.975087 
L 280.682711 -268.660989 
L 283.825052 -251.02233 
L 286.967392 -270.725784 
L 290.109733 -253.392517 
L 293.252074 -266.660635 
L 296.394414 -250.26633 
L 299.536755 -286.143155 
L 302.679095 -251.407352 
L 305.821436 -249.221048 
L 308.963777 -243.352775 
L 312.106117 -244.656963 
L 315.248458 -237.30246 
L 318.390799 -274.279571 
L 321.533139 -267.067295 
L 324.67548 -257.585401 
L 327.81782 -281.19106 
L 330.960161 -240.470304 
L 334.102502 -263.609247 
L 337.244842 -253.152262 
L 340.387183 -253.195986 
L 343.529523 -283.872392 
L 346.671864 -246.294091 
L 349.814205 -263.161246 
L 352.956545 -236.932404 
L 356.098886 -285.919774 
L 359.241227 -275.376869 
L 362.383567 -246.768244 
L 365.525908 -253.137995 
L 368.668248 -244.137085 
L 371.810589 -200.196246 
L 374.95293 -236.212533 
L 378.09527 -261.201088 
L 381.237611 -236.230486 
L 384.379951 -206.903834 
L 387.522292 -222.6694 
L 390.664633 -258.325831 
L 393.806973 -224.189691 
L 396.949314 -223.161664 
L 400.091655 -228.78139 
L 403.233995 -220.407376 
L 406.376336 -216.966136 
L 409.518676 -213.893109 
L 412.661017 -216.988919 
L 415.803358 -246.609684 
L 418.945698 -208.667144 
L 422.088039 -188.179156 
L 425.230379 -177.141763 
L 428.37272 -206.71512 
L 431.515061 -226.70325 
L 434.657401 -219.741364 
L 437.799742 -185.956947 
L 440.942083 -181.672707 
L 444.084423 -223.175931 
L 447.226764 -189.258501 
L 450.369104 -161.176203 
L 453.511445 -183.045942 
L 456.653786 -223.083878 
L 459.796126 -205.300926 
L 462.938467 -161.10509 
L 466.080807 -184.076036 
L 469.223148 -199.865306 
L 472.365489 -179.848642 
L 475.507829 -181.995131 
L 478.65017 -181.67455 
L 481.792511 -190.34935 
L 484.934851 -186.877956 
L 488.077192 -202.727757 
L 491.219532 -182.768162 
L 494.361873 -195.441605 
L 497.504214 -217.816953 
L 500.646554 -182.172565 
L 503.788895 -140.707313 
L 506.931235 -189.648353 
L 510.073576 -205.783753 
L 513.215917 -178.983781 
L 516.358257 -217.283953 
L 519.500598 -162.029785 
L 522.642939 -198.101996 
L 525.785279 -203.432439 
L 528.92762 -169.255183 
L 532.06996 -165.100047 
L 535.212301 -140.246348 
L 538.354642 -174.037438 
L 541.496982 -173.154401 
L 544.639323 -137.979494 
L 547.781664 -151.939171 
L 550.924004 -153.552437 
L 554.066345 -143.569764 
L 557.208685 -176.611751 
L 560.351026 -149.621921 
L 563.493367 -131.008171 
L 566.635707 -150.785725 
L 569.778048 -139.035135 
L 572.920388 -172.478253 
L 576.062729 -177.654046 
L 579.20507 -182.586122 
L 582.34741 -163.755123 
L 585.489751 -161.01971 
L 588.632092 -178.572989 
L 591.774432 -179.713089 
L 594.916773 -161.660873 
L 598.059113 -158.714884 
L 601.201454 -169.465758 
L 604.343795 -186.877732 
L 607.486135 -187.279087 
L 610.628476 -161.007285 
L 613.770816 -150.718297 
L 616.913157 -184.827205 
L 620.055498 -208.826178 
L 623.197838 -141.785513 
L 626.340179 -152.909208 
L 629.48252 -166.08826 
L 632.62486 -155.14937 
L 635.767201 -244.20429 
L 638.909541 -192.722301 
L 642.051882 -163.749372 
L 645.194223 -150.620492 
L 648.336563 -211.979978 
L 651.478904 -138.22483 
L 654.621244 -200.101205 
L 657.763585 -158.026089 
L 660.905926 -170.449141 
L 664.048266 -215.31191 
L 667.190607 -197.649165 
L 670.332948 -176.407783 
L 673.475288 -159.011919 
L 676.617629 -166.491235 
L 679.759969 -175.02473 
L 679.759969 -242.988023 
L 679.759969 -242.988023 
L 676.617629 -218.425449 
L 673.475288 -219.708697 
L 670.332948 -212.740361 
L 667.190607 -229.27988 
L 664.048266 -232.623315 
L 660.905926 -204.644508 
L 657.763585 -207.39565 
L 654.621244 -212.924468 
L 651.478904 -197.42556 
L 648.336563 -242.755809 
L 645.194223 -221.148438 
L 642.051882 -256.076864 
L 638.909541 -257.479778 
L 635.767201 -249.974758 
L 632.62486 -205.587537 
L 629.48252 -247.088537 
L 626.340179 -234.123206 
L 623.197838 -226.205327 
L 620.055498 -211.604552 
L 616.913157 -250.867008 
L 613.770816 -246.892769 
L 610.628476 -242.648725 
L 607.486135 -270.630296 
L 604.343795 -235.819852 
L 601.201454 -245.977893 
L 598.059113 -254.461913 
L 594.916773 -263.605812 
L 591.774432 -259.003597 
L 588.632092 -250.169539 
L 585.489751 -264.246975 
L 582.34741 -269.974483 
L 579.20507 -285.599666 
L 576.062729 -278.744101 
L 572.920388 -281.048545 
L 569.778048 -268.550089 
L 566.635707 -266.622533 
L 563.493367 -254.966378 
L 560.351026 -259.474539 
L 557.208685 -295.654374 
L 554.066345 -266.886808 
L 550.924004 -272.167618 
L 547.781664 -290.857852 
L 544.639323 -270.059101 
L 541.496982 -255.437004 
L 538.354642 -258.029809 
L 535.212301 -272.325955 
L 532.06996 -268.327313 
L 528.92762 -242.561502 
L 525.785279 -260.068517 
L 522.642939 -250.891095 
L 519.500598 -253.716114 
L 516.358257 -272.210262 
L 513.215917 -274.089647 
L 510.073576 -272.67844 
L 506.931235 -267.656535 
L 503.788895 -274.282967 
L 500.646554 -280.270526 
L 497.504214 -262.912094 
L 494.361873 -266.396992 
L 491.219532 -270.607513 
L 488.077192 -267.271514 
L 484.934851 -286.899405 
L 481.792511 -285.241495 
L 478.65017 -264.598316 
L 475.507829 -264.277734 
L 472.365489 -241.186582 
L 469.223148 -274.667673 
L 466.080807 -255.245144 
L 462.938467 -268.393056 
L 459.796126 -260.013514 
L 456.653786 -278.65135 
L 453.511445 -242.674114 
L 450.369104 -263.334864 
L 447.226764 -260.641331 
L 444.084423 -290.498061 
L 440.942083 -276.992294 
L 437.799742 -276.788392 
L 434.657401 -254.791615 
L 431.515061 -280.774675 
L 428.37272 -265.702129 
L 425.230379 -253.867619 
L 422.088039 -263.836407 
L 418.945698 -282.187184 
L 415.803358 -266.913184 
L 412.661017 -258.450802 
L 409.518676 -257.919645 
L 406.376336 -253.939877 
L 403.233995 -297.346953 
L 400.091655 -290.333051 
L 396.949314 -281.293788 
L 393.806973 -255.179243 
L 390.664633 -268.798162 
L 387.522292 -279.519198 
L 384.379951 -258.410606 
L 381.237611 -246.916538 
L 378.09527 -297.961108 
L 374.95293 -262.500222 
L 371.810589 -257.259766 
L 368.668248 -281.324547 
L 365.525908 -264.46521 
L 362.383567 -304.686648 
L 359.241227 -284.994316 
L 356.098886 -290.621637 
L 352.956545 -258.304509 
L 349.814205 -294.791961 
L 346.671864 -251.209675 
L 343.529523 -302.038681 
L 340.387183 -295.085311 
L 337.244842 -273.669483 
L 334.102502 -296.308567 
L 330.960161 -282.573351 
L 327.81782 -300.639676 
L 324.67548 -271.049827 
L 321.533139 -279.249395 
L 318.390799 -303.773075 
L 315.248458 -293.297375 
L 312.106117 -307.704671 
L 308.963777 -298.279084 
L 305.821436 -318.252946 
L 302.679095 -336.468328 
L 299.536755 -330.597133 
L 296.394414 -333.83126 
L 293.252074 -332.700439 
L 290.109733 -340.376983 
L 286.967392 -333.773493 
L 283.825052 -349.547733 
L 280.682711 -339.616377 
L 277.540371 -340.743289 
L 274.39803 -355.897688 
L 271.255689 -348.274685 
L 268.113349 -342.364755 
L 264.971008 -318.232927 
L 261.828667 -343.212584 
L 258.686327 -346.439722 
L 255.543986 -329.191454 
L 252.401646 -327.200919 
L 249.259305 -331.834051 
L 246.116964 -335.773307 
L 242.974624 -338.878712 
L 239.832283 -348.467848 
L 236.689943 -347.139797 
L 233.547602 -334.008312 
L 230.405261 -344.730875 
L 227.262921 -345.69799 
L 224.12058 -325.647644 
L 220.978239 -354.130916 
L 217.835899 -341.480638 
L 214.693558 -349.268492 
L 211.551218 -355.353092 
L 208.408877 -341.020752 
L 205.266536 -334.951406 
L 202.124196 -336.603565 
L 198.981855 -363.966756 
L 195.839515 -348.113585 
L 192.697174 -359.68528 
L 189.554833 -347.634667 
L 186.412493 -362.759452 
L 183.270152 -378.092364 
L 180.127811 -388.247101 
L 176.985471 -367.171111 
L 173.84313 -378.860946 
L 170.70079 -373.510326 
L 167.558449 -398.024569 
L 164.416108 -403.909334 
L 161.273768 -406.056364 
L 158.131427 -397.066734 
z
" style="stroke: #ff0000; stroke-opacity: 0.3"/>
    </defs>
    <g clip-path="url(#p9beece9f91)">
     <use xlink:href="#mdfb176423b" x="0" y="432" style="fill: #ff0000; fill-opacity: 0.3; stroke: #ff0000; stroke-opacity: 0.3"/>
    </g>
   </g>
   <g id="PolyCollection_4">
    <defs>
     <path id="m67977454c2" d="M 158.131427 -360.477185 
L 158.131427 -336.811982 
L 161.273768 -313.927151 
L 164.416108 -307.245899 
L 167.558449 -257.193591 
L 170.70079 -229.019663 
L 173.84313 -187.695172 
L 176.985471 -220.826728 
L 180.127811 -178.10486 
L 183.270152 -177.627214 
L 186.412493 -146.133592 
L 189.554833 -166.957 
L 192.697174 -150.934059 
L 195.839515 -166.660469 
L 198.981855 -159.295338 
L 202.124196 -132.352474 
L 205.266536 -160.310937 
L 208.408877 -151.40731 
L 211.551218 -181.766883 
L 214.693558 -150.202979 
L 217.835899 -167.273828 
L 220.978239 -157.954781 
L 224.12058 -143.541783 
L 227.262921 -141.326175 
L 230.405261 -142.820552 
L 233.547602 -139.744859 
L 236.689943 -129.290529 
L 239.832283 -150.08839 
L 242.974624 -174.655806 
L 246.116964 -144.155489 
L 249.259305 -134.22132 
L 252.401646 -147.478755 
L 255.543986 -138.979906 
L 258.686327 -147.54586 
L 261.828667 -135.512926 
L 264.971008 -123.171695 
L 268.113349 -137.892147 
L 271.255689 -127.206415 
L 274.39803 -137.7699 
L 277.540371 -138.915233 
L 280.682711 -127.918898 
L 283.825052 -142.443987 
L 286.967392 -135.932905 
L 290.109733 -135.722783 
L 293.252074 -143.884748 
L 296.394414 -132.668344 
L 299.536755 -127.067429 
L 302.679095 -122.148149 
L 305.821436 -129.910356 
L 308.963777 -126.18993 
L 312.106117 -133.272285 
L 315.248458 -139.703821 
L 318.390799 -140.886591 
L 321.533139 -137.628866 
L 324.67548 -130.422406 
L 327.81782 -132.973644 
L 330.960161 -127.760599 
L 334.102502 -123.715557 
L 337.244842 -134.370058 
L 340.387183 -130.230134 
L 343.529523 -123.580755 
L 346.671864 -128.4082 
L 349.814205 -143.117493 
L 352.956545 -118.899665 
L 356.098886 -133.898717 
L 359.241227 -142.610298 
L 362.383567 -118.954067 
L 365.525908 -124.473878 
L 368.668248 -128.268039 
L 371.810589 -120.779401 
L 374.95293 -129.489984 
L 378.09527 -124.672062 
L 381.237611 -124.455555 
L 384.379951 -136.921363 
L 387.522292 -141.222126 
L 390.664633 -128.952122 
L 393.806973 -128.418263 
L 396.949314 -124.00602 
L 400.091655 -133.449825 
L 403.233995 -121.302897 
L 406.376336 -131.253903 
L 409.518676 -119.443196 
L 412.661017 -123.228408 
L 415.803358 -125.048016 
L 418.945698 -121.669168 
L 422.088039 -133.033885 
L 425.230379 -111.945631 
L 428.37272 -120.195904 
L 431.515061 -117.478489 
L 434.657401 -123.801661 
L 437.799742 -135.177704 
L 440.942083 -126.300351 
L 444.084423 -121.013306 
L 447.226764 -121.092694 
L 450.369104 -118.819457 
L 453.511445 -116.26972 
L 456.653786 -119.35591 
L 459.796126 -131.065958 
L 462.938467 -133.032 
L 466.080807 -123.961643 
L 469.223148 -124.846655 
L 472.365489 -126.05142 
L 475.507829 -114.435077 
L 478.65017 -130.227924 
L 481.792511 -122.523886 
L 484.934851 -116.01583 
L 488.077192 -127.033587 
L 491.219532 -119.265517 
L 494.361873 -128.894445 
L 497.504214 -120.640864 
L 500.646554 -126.642674 
L 503.788895 -116.329892 
L 506.931235 -131.607382 
L 510.073576 -126.363523 
L 513.215917 -122.317735 
L 516.358257 -128.15932 
L 519.500598 -110.08347 
L 522.642939 -126.974351 
L 525.785279 -130.245463 
L 528.92762 -118.081215 
L 532.06996 -115.786317 
L 535.212301 -123.134531 
L 538.354642 -126.136585 
L 541.496982 -116.569156 
L 544.639323 -125.198474 
L 547.781664 -108.417636 
L 550.924004 -122.91366 
L 554.066345 -120.40184 
L 557.208685 -121.49908 
L 560.351026 -121.934051 
L 563.493367 -116.75955 
L 566.635707 -114.184674 
L 569.778048 -124.282599 
L 572.920388 -117.270977 
L 576.062729 -113.945265 
L 579.20507 -113.023415 
L 582.34741 -130.506841 
L 585.489751 -115.777137 
L 588.632092 -125.555586 
L 591.774432 -115.001164 
L 594.916773 -119.258328 
L 598.059113 -113.174625 
L 601.201454 -120.819013 
L 604.343795 -117.72555 
L 607.486135 -114.684428 
L 610.628476 -112.551204 
L 613.770816 -108.07221 
L 616.913157 -114.755081 
L 620.055498 -123.62006 
L 623.197838 -116.077137 
L 626.340179 -114.78531 
L 629.48252 -118.707564 
L 632.62486 -110.526081 
L 635.767201 -129.506982 
L 638.909541 -128.887216 
L 642.051882 -123.646113 
L 645.194223 -120.533189 
L 648.336563 -117.810072 
L 651.478904 -116.69785 
L 654.621244 -115.766155 
L 657.763585 -117.132532 
L 660.905926 -112.907494 
L 664.048266 -122.311154 
L 667.190607 -122.92189 
L 670.332948 -117.868195 
L 673.475288 -118.250763 
L 676.617629 -110.773616 
L 679.759969 -112.334099 
L 679.759969 -160.448873 
L 679.759969 -160.448873 
L 676.617629 -141.456546 
L 673.475288 -134.735016 
L 670.332948 -135.570956 
L 667.190607 -130.51726 
L 664.048266 -127.198782 
L 660.905926 -129.953004 
L 657.763585 -147.187517 
L 654.621244 -128.907827 
L 651.478904 -135.230065 
L 648.336563 -123.690314 
L 645.194223 -157.085737 
L 642.051882 -165.911578 
L 638.909541 -133.014855 
L 635.767201 -173.802957 
L 632.62486 -151.527114 
L 629.48252 -158.155745 
L 626.340179 -127.470694 
L 623.197838 -134.490665 
L 620.055498 -154.452238 
L 616.913157 -180.24306 
L 613.770816 -172.115818 
L 610.628476 -152.675587 
L 607.486135 -124.851351 
L 604.343795 -130.877645 
L 601.201454 -129.295418 
L 598.059113 -118.200479 
L 594.916773 -137.807788 
L 591.774432 -141.158211 
L 588.632092 -143.147048 
L 585.489751 -163.806396 
L 582.34741 -146.054221 
L 579.20507 -141.775847 
L 576.062729 -144.027593 
L 572.920388 -134.203566 
L 569.778048 -147.442507 
L 566.635707 -145.601668 
L 563.493367 -151.489713 
L 560.351026 -167.17027 
L 557.208685 -163.071532 
L 554.066345 -150.416524 
L 550.924004 -135.663693 
L 547.781664 -148.799604 
L 544.639323 -141.992924 
L 541.496982 -129.313814 
L 538.354642 -168.861555 
L 535.212301 -181.384397 
L 532.06996 -150.95171 
L 528.92762 -230.112434 
L 525.785279 -162.939195 
L 522.642939 -158.654126 
L 519.500598 -157.107928 
L 516.358257 -137.974213 
L 513.215917 -129.156808 
L 510.073576 -153.371133 
L 506.931235 -155.230084 
L 503.788895 -138.469371 
L 500.646554 -147.953781 
L 497.504214 -135.216264 
L 494.361873 -134.821111 
L 491.219532 -140.520825 
L 488.077192 -140.611182 
L 484.934851 -159.638489 
L 481.792511 -133.182118 
L 478.65017 -132.127518 
L 475.507829 -132.203511 
L 472.365489 -131.316944 
L 469.223148 -145.367215 
L 466.080807 -143.229755 
L 462.938467 -152.445354 
L 459.796126 -153.655777 
L 456.653786 -126.07369 
L 453.511445 -131.124486 
L 450.369104 -135.979806 
L 447.226764 -135.520052 
L 444.084423 -145.271351 
L 440.942083 -154.189924 
L 437.799742 -175.688415 
L 434.657401 -150.945917 
L 431.515061 -196.258978 
L 428.37272 -172.686506 
L 425.230379 -266.926108 
L 422.088039 -147.305267 
L 418.945698 -152.927287 
L 415.803358 -148.641697 
L 412.661017 -132.930967 
L 409.518676 -121.754943 
L 406.376336 -149.689743 
L 403.233995 -138.332321 
L 400.091655 -144.320225 
L 396.949314 -139.407288 
L 393.806973 -135.297292 
L 390.664633 -158.943209 
L 387.522292 -180.978263 
L 384.379951 -149.009362 
L 381.237611 -160.719552 
L 378.09527 -157.329449 
L 374.95293 -146.164335 
L 371.810589 -144.598514 
L 368.668248 -146.328416 
L 365.525908 -134.70797 
L 362.383567 -126.173285 
L 359.241227 -149.365371 
L 356.098886 -148.707288 
L 352.956545 -136.352969 
L 349.814205 -165.784019 
L 346.671864 -174.901739 
L 343.529523 -168.697161 
L 340.387183 -144.668568 
L 337.244842 -151.107296 
L 334.102502 -149.067414 
L 330.960161 -159.983609 
L 327.81782 -159.002025 
L 324.67548 -168.202701 
L 321.533139 -152.079949 
L 318.390799 -153.053684 
L 315.248458 -158.619039 
L 312.106117 -159.459001 
L 308.963777 -142.210457 
L 305.821436 -154.81138 
L 302.679095 -144.892125 
L 299.536755 -138.91498 
L 296.394414 -150.693279 
L 293.252074 -147.033056 
L 290.109733 -172.423111 
L 286.967392 -153.473662 
L 283.825052 -198.344605 
L 280.682711 -256.695539 
L 277.540371 -152.304818 
L 274.39803 -171.131612 
L 271.255689 -150.714759 
L 268.113349 -164.359926 
L 264.971008 -192.832627 
L 261.828667 -167.494765 
L 258.686327 -188.255653 
L 255.543986 -179.74464 
L 252.401646 -225.348041 
L 249.259305 -202.033564 
L 246.116964 -156.887596 
L 242.974624 -175.95582 
L 239.832283 -189.037842 
L 236.689943 -200.163793 
L 233.547602 -187.140362 
L 230.405261 -201.595006 
L 227.262921 -151.405111 
L 224.12058 -168.382201 
L 220.978239 -189.93662 
L 217.835899 -188.929371 
L 214.693558 -213.556401 
L 211.551218 -227.027329 
L 208.408877 -180.011619 
L 205.266536 -207.52878 
L 202.124196 -171.410836 
L 198.981855 -206.277524 
L 195.839515 -166.87419 
L 192.697174 -243.352288 
L 189.554833 -198.615862 
L 186.412493 -199.339832 
L 183.270152 -209.707448 
L 180.127811 -237.641038 
L 176.985471 -281.36187 
L 173.84313 -282.304099 
L 170.70079 -333.618376 
L 167.558449 -345.492202 
L 164.416108 -333.976413 
L 161.273768 -346.336734 
L 158.131427 -360.477185 
z
" style="stroke: #ffa500; stroke-opacity: 0.3"/>
    </defs>
    <g clip-path="url(#p9beece9f91)">
     <use xlink:href="#m67977454c2" x="0" y="432" style="fill: #ffa500; fill-opacity: 0.3; stroke: #ffa500; stroke-opacity: 0.3"/>
    </g>
   </g>
   <g id="matplotlib.axis_1">
    <g id="xtick_1">
     <g id="line2d_1">
      <defs>
       <path id="m80c025da58" d="M 0 0 
L 0 3.5 
" style="stroke: #000000; stroke-width: 0.8"/>
      </defs>
      <g>
       <use xlink:href="#m80c025da58" x="158.131427" y="343.96" style="stroke: #000000; stroke-width: 0.8"/>
      </g>
     </g>
     <g id="text_1">
      <!-- 0 -->
      <g transform="translate(149.223927 372.235625) scale(0.28 -0.28)">
       <defs>
        <path id="DejaVuSans-30" d="M 2034 4250 
Q 1547 4250 1301 3770 
Q 1056 3291 1056 2328 
Q 1056 1369 1301 889 
Q 1547 409 2034 409 
Q 2525 409 2770 889 
Q 3016 1369 3016 2328 
Q 3016 3291 2770 3770 
Q 2525 4250 2034 4250 
z
M 2034 4750 
Q 2819 4750 3233 4129 
Q 3647 3509 3647 2328 
Q 3647 1150 3233 529 
Q 2819 -91 2034 -91 
Q 1250 -91 836 529 
Q 422 1150 422 2328 
Q 422 3509 836 4129 
Q 1250 4750 2034 4750 
z
" transform="scale(0.015625)"/>
       </defs>
       <use xlink:href="#DejaVuSans-30"/>
      </g>
     </g>
    </g>
    <g id="xtick_2">
     <g id="line2d_2">
      <g>
       <use xlink:href="#m80c025da58" x="262.876114" y="343.96" style="stroke: #000000; stroke-width: 0.8"/>
      </g>
     </g>
     <g id="text_2">
      <!-- 100 -->
      <g transform="translate(236.153614 372.235625) scale(0.28 -0.28)">
       <defs>
        <path id="DejaVuSans-31" d="M 794 531 
L 1825 531 
L 1825 4091 
L 703 3866 
L 703 4441 
L 1819 4666 
L 2450 4666 
L 2450 531 
L 3481 531 
L 3481 0 
L 794 0 
L 794 531 
z
" transform="scale(0.015625)"/>
       </defs>
       <use xlink:href="#DejaVuSans-31"/>
       <use xlink:href="#DejaVuSans-30" x="63.623047"/>
       <use xlink:href="#DejaVuSans-30" x="127.246094"/>
      </g>
     </g>
    </g>
    <g id="xtick_3">
     <g id="line2d_3">
      <g>
       <use xlink:href="#m80c025da58" x="367.620802" y="343.96" style="stroke: #000000; stroke-width: 0.8"/>
      </g>
     </g>
     <g id="text_3">
      <!-- 200 -->
      <g transform="translate(340.898302 372.235625) scale(0.28 -0.28)">
       <defs>
        <path id="DejaVuSans-32" d="M 1228 531 
L 3431 531 
L 3431 0 
L 469 0 
L 469 531 
Q 828 903 1448 1529 
Q 2069 2156 2228 2338 
Q 2531 2678 2651 2914 
Q 2772 3150 2772 3378 
Q 2772 3750 2511 3984 
Q 2250 4219 1831 4219 
Q 1534 4219 1204 4116 
Q 875 4013 500 3803 
L 500 4441 
Q 881 4594 1212 4672 
Q 1544 4750 1819 4750 
Q 2544 4750 2975 4387 
Q 3406 4025 3406 3419 
Q 3406 3131 3298 2873 
Q 3191 2616 2906 2266 
Q 2828 2175 2409 1742 
Q 1991 1309 1228 531 
z
" transform="scale(0.015625)"/>
       </defs>
       <use xlink:href="#DejaVuSans-32"/>
       <use xlink:href="#DejaVuSans-30" x="63.623047"/>
       <use xlink:href="#DejaVuSans-30" x="127.246094"/>
      </g>
     </g>
    </g>
    <g id="xtick_4">
     <g id="line2d_4">
      <g>
       <use xlink:href="#m80c025da58" x="472.365489" y="343.96" style="stroke: #000000; stroke-width: 0.8"/>
      </g>
     </g>
     <g id="text_4">
      <!-- 300 -->
      <g transform="translate(445.642989 372.235625) scale(0.28 -0.28)">
       <defs>
        <path id="DejaVuSans-33" d="M 2597 2516 
Q 3050 2419 3304 2112 
Q 3559 1806 3559 1356 
Q 3559 666 3084 287 
Q 2609 -91 1734 -91 
Q 1441 -91 1130 -33 
Q 819 25 488 141 
L 488 750 
Q 750 597 1062 519 
Q 1375 441 1716 441 
Q 2309 441 2620 675 
Q 2931 909 2931 1356 
Q 2931 1769 2642 2001 
Q 2353 2234 1838 2234 
L 1294 2234 
L 1294 2753 
L 1863 2753 
Q 2328 2753 2575 2939 
Q 2822 3125 2822 3475 
Q 2822 3834 2567 4026 
Q 2313 4219 1838 4219 
Q 1578 4219 1281 4162 
Q 984 4106 628 3988 
L 628 4550 
Q 988 4650 1302 4700 
Q 1616 4750 1894 4750 
Q 2613 4750 3031 4423 
Q 3450 4097 3450 3541 
Q 3450 3153 3228 2886 
Q 3006 2619 2597 2516 
z
" transform="scale(0.015625)"/>
       </defs>
       <use xlink:href="#DejaVuSans-33"/>
       <use xlink:href="#DejaVuSans-30" x="63.623047"/>
       <use xlink:href="#DejaVuSans-30" x="127.246094"/>
      </g>
     </g>
    </g>
    <g id="xtick_5">
     <g id="line2d_5">
      <g>
       <use xlink:href="#m80c025da58" x="577.110176" y="343.96" style="stroke: #000000; stroke-width: 0.8"/>
      </g>
     </g>
     <g id="text_5">
      <!-- 400 -->
      <g transform="translate(550.387676 372.235625) scale(0.28 -0.28)">
       <defs>
        <path id="DejaVuSans-34" d="M 2419 4116 
L 825 1625 
L 2419 1625 
L 2419 4116 
z
M 2253 4666 
L 3047 4666 
L 3047 1625 
L 3713 1625 
L 3713 1100 
L 3047 1100 
L 3047 0 
L 2419 0 
L 2419 1100 
L 313 1100 
L 313 1709 
L 2253 4666 
z
" transform="scale(0.015625)"/>
       </defs>
       <use xlink:href="#DejaVuSans-34"/>
       <use xlink:href="#DejaVuSans-30" x="63.623047"/>
       <use xlink:href="#DejaVuSans-30" x="127.246094"/>
      </g>
     </g>
    </g>
    <g id="xtick_6">
     <g id="line2d_6">
      <g>
       <use xlink:href="#m80c025da58" x="681.854863" y="343.96" style="stroke: #000000; stroke-width: 0.8"/>
      </g>
     </g>
     <g id="text_6">
      <!-- 500 -->
      <g transform="translate(655.132363 372.235625) scale(0.28 -0.28)">
       <defs>
        <path id="DejaVuSans-35" d="M 691 4666 
L 3169 4666 
L 3169 4134 
L 1269 4134 
L 1269 2991 
Q 1406 3038 1543 3061 
Q 1681 3084 1819 3084 
Q 2600 3084 3056 2656 
Q 3513 2228 3513 1497 
Q 3513 744 3044 326 
Q 2575 -91 1722 -91 
Q 1428 -91 1123 -41 
Q 819 9 494 109 
L 494 744 
Q 775 591 1075 516 
Q 1375 441 1709 441 
Q 2250 441 2565 725 
Q 2881 1009 2881 1497 
Q 2881 1984 2565 2268 
Q 2250 2553 1709 2553 
Q 1456 2553 1204 2497 
Q 953 2441 691 2322 
L 691 4666 
z
" transform="scale(0.015625)"/>
       </defs>
       <use xlink:href="#DejaVuSans-35"/>
       <use xlink:href="#DejaVuSans-30" x="63.623047"/>
       <use xlink:href="#DejaVuSans-30" x="127.246094"/>
      </g>
     </g>
    </g>
    <g id="text_7">
     <!-- Episode -->
     <g transform="translate(340.395698 412.4525) scale(0.4 -0.4)">
      <defs>
       <path id="DejaVuSans-45" d="M 628 4666 
L 3578 4666 
L 3578 4134 
L 1259 4134 
L 1259 2753 
L 3481 2753 
L 3481 2222 
L 1259 2222 
L 1259 531 
L 3634 531 
L 3634 0 
L 628 0 
L 628 4666 
z
" transform="scale(0.015625)"/>
       <path id="DejaVuSans-70" d="M 1159 525 
L 1159 -1331 
L 581 -1331 
L 581 3500 
L 1159 3500 
L 1159 2969 
Q 1341 3281 1617 3432 
Q 1894 3584 2278 3584 
Q 2916 3584 3314 3078 
Q 3713 2572 3713 1747 
Q 3713 922 3314 415 
Q 2916 -91 2278 -91 
Q 1894 -91 1617 61 
Q 1341 213 1159 525 
z
M 3116 1747 
Q 3116 2381 2855 2742 
Q 2594 3103 2138 3103 
Q 1681 3103 1420 2742 
Q 1159 2381 1159 1747 
Q 1159 1113 1420 752 
Q 1681 391 2138 391 
Q 2594 391 2855 752 
Q 3116 1113 3116 1747 
z
" transform="scale(0.015625)"/>
       <path id="DejaVuSans-69" d="M 603 3500 
L 1178 3500 
L 1178 0 
L 603 0 
L 603 3500 
z
M 603 4863 
L 1178 4863 
L 1178 4134 
L 603 4134 
L 603 4863 
z
" transform="scale(0.015625)"/>
       <path id="DejaVuSans-73" d="M 2834 3397 
L 2834 2853 
Q 2591 2978 2328 3040 
Q 2066 3103 1784 3103 
Q 1356 3103 1142 2972 
Q 928 2841 928 2578 
Q 928 2378 1081 2264 
Q 1234 2150 1697 2047 
L 1894 2003 
Q 2506 1872 2764 1633 
Q 3022 1394 3022 966 
Q 3022 478 2636 193 
Q 2250 -91 1575 -91 
Q 1294 -91 989 -36 
Q 684 19 347 128 
L 347 722 
Q 666 556 975 473 
Q 1284 391 1588 391 
Q 1994 391 2212 530 
Q 2431 669 2431 922 
Q 2431 1156 2273 1281 
Q 2116 1406 1581 1522 
L 1381 1569 
Q 847 1681 609 1914 
Q 372 2147 372 2553 
Q 372 3047 722 3315 
Q 1072 3584 1716 3584 
Q 2034 3584 2315 3537 
Q 2597 3491 2834 3397 
z
" transform="scale(0.015625)"/>
       <path id="DejaVuSans-6f" d="M 1959 3097 
Q 1497 3097 1228 2736 
Q 959 2375 959 1747 
Q 959 1119 1226 758 
Q 1494 397 1959 397 
Q 2419 397 2687 759 
Q 2956 1122 2956 1747 
Q 2956 2369 2687 2733 
Q 2419 3097 1959 3097 
z
M 1959 3584 
Q 2709 3584 3137 3096 
Q 3566 2609 3566 1747 
Q 3566 888 3137 398 
Q 2709 -91 1959 -91 
Q 1206 -91 779 398 
Q 353 888 353 1747 
Q 353 2609 779 3096 
Q 1206 3584 1959 3584 
z
" transform="scale(0.015625)"/>
       <path id="DejaVuSans-64" d="M 2906 2969 
L 2906 4863 
L 3481 4863 
L 3481 0 
L 2906 0 
L 2906 525 
Q 2725 213 2448 61 
Q 2172 -91 1784 -91 
Q 1150 -91 751 415 
Q 353 922 353 1747 
Q 353 2572 751 3078 
Q 1150 3584 1784 3584 
Q 2172 3584 2448 3432 
Q 2725 3281 2906 2969 
z
M 947 1747 
Q 947 1113 1208 752 
Q 1469 391 1925 391 
Q 2381 391 2643 752 
Q 2906 1113 2906 1747 
Q 2906 2381 2643 2742 
Q 2381 3103 1925 3103 
Q 1469 3103 1208 2742 
Q 947 2381 947 1747 
z
" transform="scale(0.015625)"/>
       <path id="DejaVuSans-65" d="M 3597 1894 
L 3597 1613 
L 953 1613 
Q 991 1019 1311 708 
Q 1631 397 2203 397 
Q 2534 397 2845 478 
Q 3156 559 3463 722 
L 3463 178 
Q 3153 47 2828 -22 
Q 2503 -91 2169 -91 
Q 1331 -91 842 396 
Q 353 884 353 1716 
Q 353 2575 817 3079 
Q 1281 3584 2069 3584 
Q 2775 3584 3186 3129 
Q 3597 2675 3597 1894 
z
M 3022 2063 
Q 3016 2534 2758 2815 
Q 2500 3097 2075 3097 
Q 1594 3097 1305 2825 
Q 1016 2553 972 2059 
L 3022 2063 
z
" transform="scale(0.015625)"/>
      </defs>
      <use xlink:href="#DejaVuSans-45"/>
      <use xlink:href="#DejaVuSans-70" x="63.183594"/>
      <use xlink:href="#DejaVuSans-69" x="126.660156"/>
      <use xlink:href="#DejaVuSans-73" x="154.443359"/>
      <use xlink:href="#DejaVuSans-6f" x="206.542969"/>
      <use xlink:href="#DejaVuSans-64" x="267.724609"/>
      <use xlink:href="#DejaVuSans-65" x="331.201172"/>
     </g>
    </g>
   </g>
   <g id="matplotlib.axis_2">
    <g id="ytick_1">
     <g id="line2d_7">
      <defs>
       <path id="m868f34ad34" d="M 0 0 
L -3.5 0 
" style="stroke: #000000; stroke-width: 0.8"/>
      </defs>
      <g>
       <use xlink:href="#m868f34ad34" x="132.05" y="319.561605" style="stroke: #000000; stroke-width: 0.8"/>
      </g>
     </g>
     <g id="text_8">
      <!-- 0 -->
      <g transform="translate(107.235 330.199418) scale(0.28 -0.28)">
       <use xlink:href="#DejaVuSans-30"/>
      </g>
     </g>
    </g>
    <g id="ytick_2">
     <g id="line2d_8">
      <g>
       <use xlink:href="#m868f34ad34" x="132.05" y="274.224525" style="stroke: #000000; stroke-width: 0.8"/>
      </g>
     </g>
     <g id="text_9">
      <!-- 200 -->
      <g transform="translate(71.605 284.862337) scale(0.28 -0.28)">
       <use xlink:href="#DejaVuSans-32"/>
       <use xlink:href="#DejaVuSans-30" x="63.623047"/>
       <use xlink:href="#DejaVuSans-30" x="127.246094"/>
      </g>
     </g>
    </g>
    <g id="ytick_3">
     <g id="line2d_9">
      <g>
       <use xlink:href="#m868f34ad34" x="132.05" y="228.887444" style="stroke: #000000; stroke-width: 0.8"/>
      </g>
     </g>
     <g id="text_10">
      <!-- 400 -->
      <g transform="translate(71.605 239.525257) scale(0.28 -0.28)">
       <use xlink:href="#DejaVuSans-34"/>
       <use xlink:href="#DejaVuSans-30" x="63.623047"/>
       <use xlink:href="#DejaVuSans-30" x="127.246094"/>
      </g>
     </g>
    </g>
    <g id="ytick_4">
     <g id="line2d_10">
      <g>
       <use xlink:href="#m868f34ad34" x="132.05" y="183.550364" style="stroke: #000000; stroke-width: 0.8"/>
      </g>
     </g>
     <g id="text_11">
      <!-- 600 -->
      <g transform="translate(71.605 194.188176) scale(0.28 -0.28)">
       <defs>
        <path id="DejaVuSans-36" d="M 2113 2584 
Q 1688 2584 1439 2293 
Q 1191 2003 1191 1497 
Q 1191 994 1439 701 
Q 1688 409 2113 409 
Q 2538 409 2786 701 
Q 3034 994 3034 1497 
Q 3034 2003 2786 2293 
Q 2538 2584 2113 2584 
z
M 3366 4563 
L 3366 3988 
Q 3128 4100 2886 4159 
Q 2644 4219 2406 4219 
Q 1781 4219 1451 3797 
Q 1122 3375 1075 2522 
Q 1259 2794 1537 2939 
Q 1816 3084 2150 3084 
Q 2853 3084 3261 2657 
Q 3669 2231 3669 1497 
Q 3669 778 3244 343 
Q 2819 -91 2113 -91 
Q 1303 -91 875 529 
Q 447 1150 447 2328 
Q 447 3434 972 4092 
Q 1497 4750 2381 4750 
Q 2619 4750 2861 4703 
Q 3103 4656 3366 4563 
z
" transform="scale(0.015625)"/>
       </defs>
       <use xlink:href="#DejaVuSans-36"/>
       <use xlink:href="#DejaVuSans-30" x="63.623047"/>
       <use xlink:href="#DejaVuSans-30" x="127.246094"/>
      </g>
     </g>
    </g>
    <g id="ytick_5">
     <g id="line2d_11">
      <g>
       <use xlink:href="#m868f34ad34" x="132.05" y="138.213284" style="stroke: #000000; stroke-width: 0.8"/>
      </g>
     </g>
     <g id="text_12">
      <!-- 800 -->
      <g transform="translate(71.605 148.851096) scale(0.28 -0.28)">
       <defs>
        <path id="DejaVuSans-38" d="M 2034 2216 
Q 1584 2216 1326 1975 
Q 1069 1734 1069 1313 
Q 1069 891 1326 650 
Q 1584 409 2034 409 
Q 2484 409 2743 651 
Q 3003 894 3003 1313 
Q 3003 1734 2745 1975 
Q 2488 2216 2034 2216 
z
M 1403 2484 
Q 997 2584 770 2862 
Q 544 3141 544 3541 
Q 544 4100 942 4425 
Q 1341 4750 2034 4750 
Q 2731 4750 3128 4425 
Q 3525 4100 3525 3541 
Q 3525 3141 3298 2862 
Q 3072 2584 2669 2484 
Q 3125 2378 3379 2068 
Q 3634 1759 3634 1313 
Q 3634 634 3220 271 
Q 2806 -91 2034 -91 
Q 1263 -91 848 271 
Q 434 634 434 1313 
Q 434 1759 690 2068 
Q 947 2378 1403 2484 
z
M 1172 3481 
Q 1172 3119 1398 2916 
Q 1625 2713 2034 2713 
Q 2441 2713 2670 2916 
Q 2900 3119 2900 3481 
Q 2900 3844 2670 4047 
Q 2441 4250 2034 4250 
Q 1625 4250 1398 4047 
Q 1172 3844 1172 3481 
z
" transform="scale(0.015625)"/>
       </defs>
       <use xlink:href="#DejaVuSans-38"/>
       <use xlink:href="#DejaVuSans-30" x="63.623047"/>
       <use xlink:href="#DejaVuSans-30" x="127.246094"/>
      </g>
     </g>
    </g>
    <g id="ytick_6">
     <g id="line2d_12">
      <g>
       <use xlink:href="#m868f34ad34" x="132.05" y="92.876203" style="stroke: #000000; stroke-width: 0.8"/>
      </g>
     </g>
     <g id="text_13">
      <!-- 1000 -->
      <g transform="translate(53.79 103.514016) scale(0.28 -0.28)">
       <use xlink:href="#DejaVuSans-31"/>
       <use xlink:href="#DejaVuSans-30" x="63.623047"/>
       <use xlink:href="#DejaVuSans-30" x="127.246094"/>
       <use xlink:href="#DejaVuSans-30" x="190.869141"/>
      </g>
     </g>
    </g>
    <g id="ytick_7">
     <g id="line2d_13">
      <g>
       <use xlink:href="#m868f34ad34" x="132.05" y="47.539123" style="stroke: #000000; stroke-width: 0.8"/>
      </g>
     </g>
     <g id="text_14">
      <!-- 1200 -->
      <g transform="translate(53.79 58.176935) scale(0.28 -0.28)">
       <use xlink:href="#DejaVuSans-31"/>
       <use xlink:href="#DejaVuSans-32" x="63.623047"/>
       <use xlink:href="#DejaVuSans-30" x="127.246094"/>
       <use xlink:href="#DejaVuSans-30" x="190.869141"/>
      </g>
     </g>
    </g>
    <g id="text_15">
     <!-- $m_{vct}$ -->
     <g transform="translate(41.47125 218.98) rotate(-90) scale(0.4 -0.4)">
      <defs>
       <path id="DejaVuSans-Oblique-6d" d="M 5747 2113 
L 5338 0 
L 4763 0 
L 5166 2094 
Q 5191 2228 5203 2325 
Q 5216 2422 5216 2491 
Q 5216 2772 5059 2928 
Q 4903 3084 4622 3084 
Q 4203 3084 3875 2770 
Q 3547 2456 3450 1953 
L 3066 0 
L 2491 0 
L 2900 2094 
Q 2925 2209 2937 2307 
Q 2950 2406 2950 2484 
Q 2950 2769 2794 2926 
Q 2638 3084 2363 3084 
Q 1938 3084 1609 2770 
Q 1281 2456 1184 1953 
L 800 0 
L 225 0 
L 909 3500 
L 1484 3500 
L 1375 2956 
Q 1609 3263 1923 3423 
Q 2238 3584 2597 3584 
Q 2978 3584 3223 3384 
Q 3469 3184 3519 2828 
Q 3781 3197 4126 3390 
Q 4472 3584 4856 3584 
Q 5306 3584 5551 3325 
Q 5797 3066 5797 2591 
Q 5797 2488 5784 2364 
Q 5772 2241 5747 2113 
z
" transform="scale(0.015625)"/>
       <path id="DejaVuSans-Oblique-76" d="M 459 3500 
L 1069 3500 
L 1581 525 
L 3256 3500 
L 3866 3500 
L 1875 0 
L 1100 0 
L 459 3500 
z
" transform="scale(0.015625)"/>
       <path id="DejaVuSans-Oblique-63" d="M 3431 3366 
L 3316 2797 
Q 3109 2947 2876 3022 
Q 2644 3097 2394 3097 
Q 2119 3097 1870 3000 
Q 1622 2903 1453 2725 
Q 1184 2453 1037 2087 
Q 891 1722 891 1331 
Q 891 859 1127 628 
Q 1363 397 1844 397 
Q 2081 397 2348 469 
Q 2616 541 2906 684 
L 2797 116 
Q 2547 13 2283 -39 
Q 2019 -91 1741 -91 
Q 1044 -91 669 257 
Q 294 606 294 1253 
Q 294 1797 489 2255 
Q 684 2713 1069 3078 
Q 1331 3328 1684 3456 
Q 2038 3584 2456 3584 
Q 2700 3584 2940 3529 
Q 3181 3475 3431 3366 
z
" transform="scale(0.015625)"/>
       <path id="DejaVuSans-Oblique-74" d="M 2706 3500 
L 2619 3053 
L 1472 3053 
L 1100 1153 
Q 1081 1047 1072 975 
Q 1063 903 1063 863 
Q 1063 663 1183 572 
Q 1303 481 1569 481 
L 2150 481 
L 2053 0 
L 1503 0 
Q 991 0 739 200 
Q 488 400 488 806 
Q 488 878 497 964 
Q 506 1050 525 1153 
L 897 3053 
L 409 3053 
L 500 3500 
L 978 3500 
L 1172 4494 
L 1747 4494 
L 1556 3500 
L 2706 3500 
z
" transform="scale(0.015625)"/>
      </defs>
      <use xlink:href="#DejaVuSans-Oblique-6d"/>
      <use xlink:href="#DejaVuSans-Oblique-76" transform="translate(97.412109 -16.40625) scale(0.7)"/>
      <use xlink:href="#DejaVuSans-Oblique-63" transform="translate(138.837891 -16.40625) scale(0.7)"/>
      <use xlink:href="#DejaVuSans-Oblique-74" transform="translate(177.324219 -16.40625) scale(0.7)"/>
     </g>
    </g>
   </g>
   <g id="line2d_14">
    <path d="M 158.131427 155.516936 
L 161.273768 173.349521 
L 164.416108 253.369468 
L 167.558449 274.073401 
L 170.70079 276.642502 
L 173.84313 294.550649 
L 176.985471 289.639132 
L 180.127811 301.804582 
L 183.270152 310.720875 
L 186.412493 312.836605 
L 189.554833 310.11638 
L 192.697174 313.06329 
L 195.839515 314.952335 
L 198.981855 317.899246 
L 202.124196 312.836605 
L 205.266536 315.859077 
L 208.408877 311.627616 
L 211.551218 315.330144 
L 214.693558 311.400931 
L 217.835899 318.805987 
L 220.978239 309.965257 
L 224.12058 305.50711 
L 227.262921 307.773964 
L 233.547602 319.561605 
L 236.689943 303.013571 
L 239.832283 296.515256 
L 242.974624 303.466942 
L 249.259305 315.481268 
L 252.401646 318.957111 
L 255.543986 315.330144 
L 258.686327 315.481268 
L 261.828667 317.219189 
L 264.971008 319.561605 
L 268.113349 317.068066 
L 271.255689 317.974807 
L 274.39803 315.481268 
L 277.540371 316.236886 
L 280.682711 312.005425 
L 283.825052 317.068066 
L 286.967392 318.352616 
L 290.109733 318.50374 
L 293.252074 319.410482 
L 296.394414 304.146998 
L 299.536755 317.370313 
L 302.679095 316.010201 
L 305.821436 312.836605 
L 308.963777 314.574526 
L 312.106117 318.428178 
L 315.248458 319.561605 
L 318.390799 319.561605 
L 321.533139 318.201493 
L 324.67548 315.405706 
L 327.81782 319.259358 
L 334.102502 306.262728 
L 337.244842 306.036043 
L 340.387183 318.654864 
L 343.529523 313.592223 
L 346.671864 319.032673 
L 349.814205 315.027897 
L 352.956545 310.267504 
L 356.098886 313.818908 
L 359.241227 300.822279 
L 362.383567 312.987729 
L 365.525908 318.579302 
L 368.668248 312.685481 
L 371.810589 315.254583 
L 374.95293 307.849526 
L 378.09527 313.214414 
L 381.237611 315.859077 
L 384.379951 310.645313 
L 387.522292 314.801212 
L 390.664633 307.396155 
L 393.806973 303.844751 
L 396.949314 300.746717 
L 400.091655 295.759638 
L 403.233995 295.608514 
L 406.376336 319.561605 
L 409.518676 316.236886 
L 412.661017 309.738571 
L 415.803358 316.463571 
L 418.945698 315.330144 
L 422.088039 313.441099 
L 425.230379 317.219189 
L 428.37272 310.191942 
L 431.515061 318.277055 
L 434.657401 317.823684 
L 437.799742 311.400931 
L 440.942083 309.587448 
L 444.084423 319.259358 
L 447.226764 315.179021 
L 450.369104 316.236886 
L 453.511445 310.494189 
L 456.653786 316.765819 
L 459.796126 317.521437 
L 462.938467 315.934639 
L 466.080807 317.823684 
L 469.223148 319.33492 
L 472.365489 315.330144 
L 475.507829 306.791661 
L 478.65017 317.068066 
L 481.792511 315.55683 
L 484.934851 316.010201 
L 488.077192 319.561605 
L 491.219532 319.561605 
L 494.361873 317.521437 
L 497.504214 312.307672 
L 500.646554 315.859077 
L 503.788895 311.854302 
L 506.931235 312.987729 
L 510.073576 315.330144 
L 513.215917 319.561605 
L 516.358257 301.577897 
L 519.500598 300.671155 
L 522.642939 309.436324 
L 525.785279 314.952335 
L 528.92762 311.249807 
L 532.06996 314.121156 
L 535.212301 319.108234 
L 538.354642 316.916942 
L 541.496982 312.080987 
L 544.639323 311.854302 
L 547.781664 314.801212 
L 550.924004 311.929863 
L 554.066345 315.254583 
L 557.208685 316.463571 
L 560.351026 316.84138 
L 563.493367 317.67256 
L 566.635707 310.720875 
L 569.778048 315.632392 
L 572.920388 317.143628 
L 576.062729 317.143628 
L 579.20507 316.614695 
L 582.34741 313.441099 
L 585.489751 318.201493 
L 591.774432 319.183796 
L 594.916773 309.511886 
L 598.059113 318.881549 
L 601.201454 317.143628 
L 604.343795 311.098684 
L 607.486135 310.871998 
L 610.628476 318.050369 
L 613.770816 315.027897 
L 616.913157 316.539133 
L 620.055498 314.272279 
L 623.197838 317.596998 
L 626.340179 318.654864 
L 629.48252 309.965257 
L 632.62486 304.600369 
L 635.767201 298.555425 
L 638.909541 316.539133 
L 642.051882 313.289976 
L 645.194223 316.161324 
L 648.336563 318.277055 
L 651.478904 319.561605 
L 657.763585 319.561605 
L 660.905926 317.596998 
L 664.048266 314.272279 
L 667.190607 304.449245 
L 670.332948 318.277055 
L 673.475288 318.352616 
L 676.617629 315.934639 
L 679.759969 311.400931 
L 679.759969 311.400931 
" clip-path="url(#p9beece9f91)" style="fill: none; stroke: #0000ff; stroke-width: 3; stroke-linecap: square"/>
   </g>
   <g id="line2d_15">
    <path d="M 158.131427 111.162159 
L 161.273768 99.676765 
L 164.416108 131.639407 
L 167.558449 139.800081 
L 170.70079 176.749802 
L 173.84313 221.104579 
L 176.985471 243.924243 
L 180.127811 240.297276 
L 183.270152 256.467502 
L 186.412493 263.041378 
L 189.554833 264.250367 
L 192.697174 261.832389 
L 195.839515 291.150368 
L 198.981855 273.16666 
L 202.124196 285.332109 
L 205.266536 295.910762 
L 208.408877 299.159919 
L 211.551218 284.425368 
L 214.693558 301.502335 
L 217.835899 273.62003 
L 220.978239 272.939974 
L 224.12058 291.679301 
L 227.262921 273.62003 
L 230.405261 284.50093 
L 233.547602 307.547279 
L 236.689943 283.594188 
L 239.832283 300.671155 
L 242.974624 297.497559 
L 246.116964 299.991099 
L 249.259305 294.550649 
L 252.401646 279.89166 
L 255.543986 308.00065 
L 258.686327 302.711324 
L 261.828667 301.804582 
L 264.971008 293.492784 
L 268.113349 295.00402 
L 271.255689 292.586042 
L 274.39803 307.245032 
L 277.540371 310.040818 
L 280.682711 305.129301 
L 283.825052 293.34166 
L 286.967392 288.27902 
L 290.109733 307.471717 
L 293.252074 314.498965 
L 296.394414 303.466942 
L 299.536755 306.111605 
L 302.679095 287.296716 
L 305.821436 309.360762 
L 308.963777 306.187166 
L 312.106117 311.77874 
L 315.248458 312.080987 
L 318.390799 312.836605 
L 321.533139 312.458796 
L 324.67548 310.494189 
L 327.81782 306.489414 
L 330.960161 290.168065 
L 334.102502 304.524807 
L 337.244842 298.102054 
L 340.387183 311.325369 
L 343.529523 310.191942 
L 346.671864 303.693627 
L 349.814205 318.050369 
L 352.956545 316.765819 
L 356.098886 312.383234 
L 359.241227 312.383234 
L 362.383567 317.974807 
L 365.525908 300.89784 
L 368.668248 309.889695 
L 371.810589 313.138852 
L 374.95293 303.995874 
L 378.09527 312.912167 
L 381.237611 310.418627 
L 384.379951 308.907391 
L 387.522292 297.497559 
L 390.664633 311.627616 
L 393.806973 313.743347 
L 396.949314 309.663009 
L 400.091655 307.547279 
L 403.233995 316.312448 
L 406.376336 316.690257 
L 409.518676 286.843345 
L 412.661017 309.814133 
L 415.803358 312.156549 
L 418.945698 313.06329 
L 422.088039 299.386604 
L 425.230379 309.814133 
L 428.37272 293.719469 
L 431.515061 288.732391 
L 434.657401 304.22256 
L 437.799742 316.690257 
L 440.942083 314.574526 
L 444.084423 293.568346 
L 447.226764 299.386604 
L 450.369104 281.780705 
L 453.511445 317.370313 
L 456.653786 306.791661 
L 459.796126 299.462166 
L 462.938467 300.520031 
L 466.080807 306.564975 
L 469.223148 308.302897 
L 472.365489 312.987729 
L 475.507829 309.965257 
L 478.65017 282.158514 
L 481.792511 317.748122 
L 484.934851 311.552054 
L 488.077192 307.698402 
L 491.219532 296.741941 
L 494.361873 303.995874 
L 497.504214 313.138852 
L 500.646554 309.814133 
L 503.788895 314.574526 
L 506.931235 306.413852 
L 510.073576 301.804582 
L 513.215917 308.454021 
L 516.358257 285.483233 
L 519.500598 316.614695 
L 522.642939 308.00065 
L 525.785279 305.129301 
L 528.92762 299.839975 
L 532.06996 308.83183 
L 535.212301 308.302897 
L 538.354642 303.164694 
L 541.496982 309.436324 
L 544.639323 303.693627 
L 547.781664 312.080987 
L 550.924004 302.409076 
L 554.066345 290.470312 
L 557.208685 305.280425 
L 560.351026 301.048964 
L 563.493367 290.168065 
L 566.635707 276.869188 
L 569.778048 281.856267 
L 572.920388 293.492784 
L 576.062729 283.443064 
L 579.20507 313.818908 
L 582.34741 304.978178 
L 585.489751 304.67593 
L 588.632092 293.719469 
L 591.774432 291.452615 
L 594.916773 295.910762 
L 598.059113 297.044189 
L 601.201454 294.852896 
L 604.343795 306.036043 
L 607.486135 293.190537 
L 610.628476 307.471717 
L 613.770816 269.086322 
L 616.913157 289.941379 
L 620.055498 297.195312 
L 623.197838 295.759638 
L 626.340179 286.994469 
L 629.48252 286.994469 
L 632.62486 303.693627 
L 635.767201 297.573121 
L 638.909541 287.598964 
L 642.051882 295.986323 
L 645.194223 300.217784 
L 648.336563 307.245032 
L 651.478904 304.22256 
L 654.621244 310.720875 
L 657.763585 314.801212 
L 660.905926 314.423403 
L 664.048266 315.481268 
L 667.190607 302.106829 
L 670.332948 296.968627 
L 673.475288 318.50374 
L 676.617629 318.881549 
L 679.759969 315.55683 
L 679.759969 315.55683 
" clip-path="url(#p9beece9f91)" style="fill: none; stroke: #008000; stroke-width: 3; stroke-linecap: square"/>
   </g>
   <g id="line2d_16">
    <path d="M 158.131427 35.146987 
L 161.273768 27.439684 
L 164.416108 29.479852 
L 167.558449 48.294741 
L 170.70079 69.603168 
L 173.84313 68.84755 
L 176.985471 67.714123 
L 180.127811 53.584067 
L 183.270152 69.829854 
L 186.412493 70.736595 
L 189.554833 96.654293 
L 192.697174 92.725079 
L 195.839515 103.22817 
L 198.981855 81.390809 
L 202.124196 110.78435 
L 205.266536 102.925923 
L 208.408877 126.350081 
L 211.551218 82.524236 
L 214.693558 104.210473 
L 217.835899 103.983788 
L 220.978239 109.499799 
L 224.12058 132.319463 
L 227.262921 122.420867 
L 230.405261 121.891935 
L 233.547602 139.346711 
L 236.689943 106.552889 
L 239.832283 120.078451 
L 242.974624 136.3998 
L 246.116964 114.713564 
L 249.259305 146.222834 
L 252.401646 131.941654 
L 255.543986 129.523676 
L 258.686327 118.793901 
L 261.828667 134.737441 
L 264.971008 159.823959 
L 268.113349 123.403171 
L 271.255689 119.096148 
L 274.39803 134.661879 
L 277.540371 148.640812 
L 280.682711 127.861317 
L 283.825052 131.714969 
L 286.967392 129.750362 
L 290.109733 135.11525 
L 293.252074 132.319463 
L 296.394414 139.951205 
L 299.536755 123.629856 
L 302.679095 138.06216 
L 305.821436 148.263003 
L 308.963777 161.184071 
L 312.106117 155.819183 
L 315.248458 166.700082 
L 318.390799 142.973677 
L 321.533139 158.841655 
L 324.67548 167.682386 
L 327.81782 141.084632 
L 330.960161 170.478172 
L 334.102502 152.041093 
L 337.244842 168.589127 
L 340.387183 157.859352 
L 343.529523 139.044463 
L 346.671864 183.248117 
L 349.814205 153.023396 
L 352.956545 184.381544 
L 356.098886 143.729295 
L 359.241227 151.814408 
L 362.383567 156.272554 
L 365.525908 173.198397 
L 368.668248 169.269184 
L 371.810589 203.271994 
L 374.95293 182.643622 
L 378.09527 152.418902 
L 381.237611 190.426488 
L 384.379951 199.34278 
L 387.522292 180.905701 
L 390.664633 168.438004 
L 393.806973 192.315533 
L 396.949314 179.772274 
L 400.091655 172.442779 
L 403.233995 173.122835 
L 406.376336 196.546994 
L 409.518676 196.093623 
L 412.661017 194.28014 
L 415.803358 175.238566 
L 418.945698 186.572836 
L 422.088039 205.992219 
L 425.230379 216.495309 
L 428.37272 195.791376 
L 431.515061 178.261038 
L 434.657401 194.73351 
L 437.799742 200.627331 
L 440.942083 202.6675 
L 444.084423 175.163004 
L 447.226764 207.050084 
L 450.369104 219.744466 
L 453.511445 219.139972 
L 456.653786 181.132386 
L 462.938467 217.250927 
L 466.080807 212.33941 
L 469.223148 194.73351 
L 472.365489 221.482388 
L 475.507829 208.863567 
L 478.65017 208.863567 
L 481.792511 194.204578 
L 484.934851 195.111319 
L 488.077192 197.000364 
L 491.219532 205.312163 
L 494.361873 201.080702 
L 497.504214 191.635477 
L 500.646554 200.778455 
L 503.788895 224.50486 
L 506.931235 203.347556 
L 510.073576 192.768904 
L 513.215917 205.463286 
L 516.358257 187.252892 
L 519.500598 224.127051 
L 522.642939 207.503455 
L 525.785279 200.249522 
L 528.92762 226.091658 
L 532.06996 215.28632 
L 535.212301 225.713849 
L 538.354642 215.966376 
L 541.496982 217.704298 
L 544.639323 227.980703 
L 547.781664 210.601489 
L 550.924004 219.139972 
L 554.066345 226.771714 
L 557.208685 195.866937 
L 560.351026 227.45177 
L 563.493367 239.012726 
L 566.635707 223.295871 
L 569.778048 228.207388 
L 572.920388 205.236601 
L 576.062729 203.800927 
L 579.20507 197.907106 
L 582.34741 215.135197 
L 585.489751 219.366657 
L 588.632092 217.628736 
L 591.774432 212.641657 
L 594.916773 219.366657 
L 598.059113 225.411602 
L 601.201454 224.278175 
L 604.343795 220.651208 
L 607.486135 203.045309 
L 610.628476 230.171995 
L 613.770816 233.194467 
L 616.913157 214.152893 
L 620.055498 221.784635 
L 623.197838 248.00458 
L 626.340179 238.483793 
L 629.48252 225.411602 
L 632.62486 251.631546 
L 635.767201 184.910476 
L 638.909541 206.89896 
L 642.051882 222.086882 
L 645.194223 246.115535 
L 648.336563 204.632106 
L 651.478904 264.174805 
L 654.621244 225.487163 
L 657.763585 249.289131 
L 660.905926 244.453175 
L 664.048266 208.032387 
L 667.190607 218.535478 
L 670.332948 237.425928 
L 673.475288 242.639692 
L 676.617629 239.541658 
L 679.759969 222.993624 
L 679.759969 222.993624 
" clip-path="url(#p9beece9f91)" style="fill: none; stroke: #ff0000; stroke-width: 3; stroke-linecap: square"/>
   </g>
   <g id="line2d_17">
    <path d="M 158.131427 83.355416 
L 161.273768 101.868057 
L 164.416108 111.388844 
L 167.558449 130.657103 
L 170.70079 150.680981 
L 173.84313 197.000364 
L 176.985471 180.905701 
L 180.127811 224.127051 
L 183.270152 238.332669 
L 186.412493 259.263288 
L 189.554833 249.213569 
L 192.697174 234.856827 
L 195.839515 265.23267 
L 198.981855 249.213569 
L 202.124196 280.118345 
L 205.266536 248.080142 
L 208.408877 266.290536 
L 211.551218 227.602894 
L 214.693558 250.12031 
L 217.835899 253.8984 
L 220.978239 258.054299 
L 224.12058 276.038008 
L 227.262921 285.634357 
L 230.405261 259.792221 
L 233.547602 268.55739 
L 236.689943 267.272839 
L 239.832283 262.436884 
L 242.974624 256.694187 
L 246.116964 281.478458 
L 249.259305 263.872558 
L 252.401646 245.586602 
L 255.543986 272.637727 
L 258.686327 264.099243 
L 261.828667 280.496154 
L 264.971008 273.997839 
L 268.113349 280.873963 
L 271.255689 293.039413 
L 274.39803 277.549244 
L 277.540371 286.389975 
L 280.682711 239.692782 
L 283.825052 261.605704 
L 286.967392 287.296716 
L 290.109733 277.927053 
L 293.252074 286.541098 
L 296.394414 290.319188 
L 299.536755 299.008795 
L 302.679095 298.479863 
L 305.821436 289.639132 
L 308.963777 297.799807 
L 312.106117 285.634357 
L 315.248458 282.83857 
L 321.533139 287.145593 
L 324.67548 282.687446 
L 327.81782 286.012166 
L 330.960161 288.127896 
L 334.102502 295.608514 
L 337.244842 289.261323 
L 340.387183 294.550649 
L 343.529523 285.861042 
L 346.671864 280.345031 
L 349.814205 277.549244 
L 352.956545 304.373683 
L 356.098886 290.696997 
L 359.241227 286.012166 
L 362.383567 309.436324 
L 365.525908 302.409076 
L 368.668248 294.701773 
L 371.810589 299.311043 
L 374.95293 294.17284 
L 378.09527 290.999245 
L 381.237611 289.412447 
L 384.379951 289.034638 
L 387.522292 270.899806 
L 390.664633 288.052334 
L 393.806973 300.142222 
L 396.949314 300.293346 
L 400.091655 293.114975 
L 403.233995 302.182391 
L 406.376336 291.528177 
L 409.518676 311.400931 
L 412.661017 303.920312 
L 415.803358 295.155144 
L 418.945698 294.701773 
L 422.088039 291.830424 
L 425.230379 242.56413 
L 428.37272 285.558795 
L 431.515061 275.131266 
L 434.657401 294.626211 
L 437.799742 276.566941 
L 440.942083 291.754863 
L 444.084423 298.857672 
L 447.226764 303.693627 
L 450.369104 304.600369 
L 453.511445 308.302897 
L 456.653786 309.2852 
L 459.796126 289.639132 
L 462.938467 289.261323 
L 466.080807 298.404301 
L 469.223148 296.893065 
L 472.365489 303.315818 
L 475.507829 308.680706 
L 478.65017 300.822279 
L 481.792511 304.146998 
L 484.934851 294.17284 
L 491.219532 302.106829 
L 494.361873 300.142222 
L 497.504214 304.071436 
L 500.646554 294.701773 
L 503.788895 304.600369 
L 506.931235 288.581267 
L 510.073576 292.132672 
L 513.215917 306.262728 
L 516.358257 298.933234 
L 519.500598 298.404301 
L 522.642939 289.185761 
L 525.785279 285.407671 
L 528.92762 257.903176 
L 532.06996 298.630986 
L 535.212301 279.740536 
L 538.354642 284.50093 
L 541.496982 309.058515 
L 544.639323 298.404301 
L 547.781664 303.39138 
L 550.924004 302.711324 
L 554.066345 296.590818 
L 557.208685 289.714694 
L 560.351026 287.44784 
L 563.493367 297.875368 
L 566.635707 302.106829 
L 569.778048 296.137447 
L 572.920388 306.262728 
L 576.062729 303.013571 
L 579.20507 304.600369 
L 582.34741 293.719469 
L 585.489751 292.208233 
L 588.632092 297.648683 
L 591.774432 303.920312 
L 594.916773 303.466942 
L 598.059113 316.312448 
L 601.201454 306.942784 
L 604.343795 307.698402 
L 607.486135 312.232111 
L 610.628476 299.386604 
L 616.913157 284.50093 
L 620.055498 292.963851 
L 623.197838 306.716099 
L 626.340179 310.871998 
L 629.48252 293.568346 
L 632.62486 300.973402 
L 635.767201 280.345031 
L 638.909541 301.048964 
L 642.051882 287.221155 
L 645.194223 293.190537 
L 648.336563 311.249807 
L 651.478904 306.036043 
L 654.621244 309.663009 
L 657.763585 299.839975 
L 660.905926 310.569751 
L 664.048266 307.245032 
L 667.190607 305.280425 
L 670.332948 305.280425 
L 673.475288 305.50711 
L 676.617629 305.884919 
L 679.759969 295.608514 
L 679.759969 295.608514 
" clip-path="url(#p9beece9f91)" style="fill: none; stroke: #ffa500; stroke-width: 3; stroke-linecap: square"/>
   </g>
   <g id="patch_3">
    <path d="M 132.05 343.96 
L 132.05 10.8 
" style="fill: none; stroke: #000000; stroke-width: 0.8; stroke-linejoin: miter; stroke-linecap: square"/>
   </g>
   <g id="patch_4">
    <path d="M 705.841396 343.96 
L 705.841396 10.8 
" style="fill: none; stroke: #000000; stroke-width: 0.8; stroke-linejoin: miter; stroke-linecap: square"/>
   </g>
   <g id="patch_5">
    <path d="M 132.05 343.96 
L 705.841396 343.96 
" style="fill: none; stroke: #000000; stroke-width: 0.8; stroke-linejoin: miter; stroke-linecap: square"/>
   </g>
   <g id="patch_6">
    <path d="M 132.05 10.8 
L 705.841396 10.8 
" style="fill: none; stroke: #000000; stroke-width: 0.8; stroke-linejoin: miter; stroke-linecap: square"/>
   </g>
  </g>
 </g>
 <defs>
  <clipPath id="p9beece9f91">
   <rect x="132.05" y="10.8" width="573.791396" height="333.16"/>
  </clipPath>
 </defs>
</svg>
