<?xml version="1.0" encoding="utf-8" standalone="no"?>
<!DOCTYPE svg PUBLIC "-//W3C//DTD SVG 1.1//EN"
  "http://www.w3.org/Graphics/SVG/1.1/DTD/svg11.dtd">
<svg xmlns:xlink="http://www.w3.org/1999/xlink" width="720pt" height="432pt" viewBox="0 0 720 432" xmlns="http://www.w3.org/2000/svg" version="1.1">
 <metadata>
  <rdf:RDF xmlns:dc="http://purl.org/dc/elements/1.1/" xmlns:cc="http://creativecommons.org/ns#" xmlns:rdf="http://www.w3.org/1999/02/22-rdf-syntax-ns#">
   <cc:Work>
    <dc:type rdf:resource="http://purl.org/dc/dcmitype/StillImage"/>
    <dc:date>2025-06-20T06:23:17.981829</dc:date>
    <dc:format>image/svg+xml</dc:format>
    <dc:creator>
     <cc:Agent>
      <dc:title>Matplotlib v3.7.1, https://matplotlib.org/</dc:title>
     </cc:Agent>
    </dc:creator>
   </cc:Work>
  </rdf:RDF>
 </metadata>
 <defs>
  <style type="text/css">*{stroke-linejoin: round; stroke-linecap: butt}</style>
 </defs>
 <g id="figure_1">
  <g id="patch_1">
   <path d="M 0 432 
L 720 432 
L 720 0 
L 0 0 
z
" style="fill: #ffffff"/>
  </g>
  <g id="axes_1">
   <g id="patch_2">
    <path d="M 114.23 343.96 
L 705.841396 343.96 
L 705.841396 10.8 
L 114.23 10.8 
z
" style="fill: #ffffff"/>
   </g>
   <g id="PolyCollection_1">
    <defs>
     <path id="m16b6ed85a8" d="M 141.121427 -246.672341 
L 141.121427 -233.341244 
L 144.361358 -217.266636 
L 147.601289 -206.451176 
L 150.84122 -181.304 
L 154.081151 -189.658841 
L 157.321082 -193.271849 
L 160.561013 -181.643915 
L 163.800944 -186.734732 
L 167.040875 -188.93173 
L 170.280806 -168.58253 
L 173.520737 -163.877062 
L 176.760668 -162.073967 
L 180.000599 -167.929857 
L 183.24053 -175.691091 
L 186.480461 -156.61434 
L 189.720392 -158.250357 
L 192.960323 -149.097419 
L 196.200254 -147.414419 
L 199.440185 -132.996234 
L 202.680116 -124.022187 
L 205.920047 -127.24291 
L 209.159978 -120.339714 
L 212.399909 -112.958363 
L 215.63984 -124.525429 
L 218.879771 -133.081795 
L 222.119702 -147.044595 
L 225.359633 -124.446582 
L 228.599564 -128.299357 
L 231.839494 -121.00481 
L 235.079425 -124.414425 
L 238.319356 -123.627913 
L 241.559287 -125.708381 
L 244.799218 -134.605332 
L 248.039149 -133.789557 
L 251.27908 -133.990364 
L 254.519011 -139.212385 
L 257.758942 -142.322235 
L 260.998873 -134.934759 
L 264.238804 -155.0087 
L 267.478735 -153.347027 
L 270.718666 -143.142702 
L 273.958597 -127.460137 
L 277.198528 -141.558375 
L 280.438459 -130.718371 
L 283.67839 -132.140978 
L 286.918321 -128.522709 
L 290.158252 -133.178928 
L 293.398183 -126.460172 
L 296.638114 -134.223736 
L 299.878045 -135.462643 
L 303.117976 -120.084438 
L 306.357907 -115.199529 
L 309.597838 -103.748707 
L 312.837769 -114.614096 
L 316.0777 -108.968786 
L 319.317631 -126.091906 
L 322.557562 -125.673228 
L 325.797493 -139.0015 
L 329.037424 -136.572223 
L 332.277355 -129.291288 
L 335.517286 -131.12837 
L 338.757217 -134.735465 
L 341.997148 -138.350637 
L 345.237079 -152.719103 
L 348.47701 -146.927287 
L 351.716941 -145.702856 
L 354.956872 -125.878235 
L 358.196803 -131.933128 
L 361.436734 -135.759608 
L 364.676665 -130.10115 
L 367.916596 -138.263161 
L 371.156527 -133.743452 
L 374.396457 -132.454691 
L 377.636388 -133.148464 
L 380.876319 -132.146318 
L 384.11625 -124.549464 
L 387.356181 -126.519011 
L 390.596112 -120.517833 
L 393.836043 -123.085892 
L 397.075974 -128.548599 
L 400.315905 -115.53463 
L 403.555836 -124.788221 
L 406.795767 -133.121591 
L 410.035698 -131.541768 
L 413.275629 -132.03472 
L 416.51556 -134.186915 
L 419.755491 -131.402033 
L 422.995422 -116.46527 
L 426.235353 -133.512768 
L 429.475284 -139.632062 
L 432.715215 -128.229017 
L 435.955146 -129.916049 
L 439.195077 -137.668927 
L 442.435008 -130.034382 
L 445.674939 -137.849926 
L 448.91487 -142.529809 
L 452.154801 -128.696302 
L 455.394732 -133.327304 
L 458.634663 -136.103902 
L 461.874594 -133.635345 
L 465.114525 -112.516513 
L 468.354456 -124.899429 
L 471.594387 -136.739471 
L 474.834318 -118.621163 
L 478.074249 -122.934545 
L 481.31418 -132.053193 
L 484.554111 -129.432771 
L 487.794042 -126.738728 
L 491.033973 -128.535701 
L 494.273904 -124.976418 
L 497.513835 -130.872101 
L 500.753766 -124.580009 
L 503.993697 -128.105726 
L 507.233628 -141.663637 
L 510.473559 -125.548791 
L 513.71349 -127.542053 
L 516.953421 -131.444277 
L 520.193351 -127.612933 
L 523.433282 -128.180233 
L 526.673213 -125.741795 
L 529.913144 -144.416818 
L 533.153075 -118.109137 
L 536.393006 -131.611163 
L 539.632937 -141.295894 
L 542.872868 -144.467935 
L 546.112799 -138.747948 
L 549.35273 -133.91204 
L 552.592661 -122.824103 
L 555.832592 -114.980002 
L 559.072523 -123.485492 
L 562.312454 -127.407475 
L 565.552385 -136.688167 
L 568.792316 -139.954149 
L 572.032247 -133.264594 
L 575.272178 -128.215553 
L 578.512109 -137.614237 
L 581.75204 -113.42221 
L 584.991971 -117.249182 
L 588.231902 -121.268317 
L 591.471833 -112.569845 
L 594.711764 -108.010083 
L 597.951695 -111.700723 
L 601.191626 -113.418009 
L 604.431557 -120.653675 
L 607.671488 -121.195025 
L 610.911419 -128.887347 
L 614.15135 -116.966566 
L 617.391281 -121.578986 
L 620.631212 -119.436823 
L 623.871143 -116.665012 
L 627.111074 -120.806519 
L 630.351005 -113.102925 
L 633.590936 -111.291022 
L 636.830867 -115.941335 
L 640.070798 -118.41392 
L 643.310729 -119.186955 
L 646.55066 -112.649671 
L 649.790591 -114.820449 
L 653.030522 -114.27818 
L 656.270453 -104.868793 
L 659.510384 -106.829119 
L 662.750314 -103.533408 
L 665.990245 -111.625019 
L 669.230176 -117.124739 
L 672.470107 -108.863407 
L 675.710038 -111.427312 
L 678.949969 -103.183636 
L 678.949969 -118.690794 
L 678.949969 -118.690794 
L 675.710038 -129.545719 
L 672.470107 -122.457643 
L 669.230176 -128.160879 
L 665.990245 -132.428433 
L 662.750314 -119.162468 
L 659.510384 -118.947176 
L 656.270453 -131.58629 
L 653.030522 -131.418161 
L 649.790591 -123.893608 
L 646.55066 -123.189328 
L 643.310729 -126.92011 
L 640.070798 -129.541395 
L 636.830867 -125.64778 
L 633.590936 -118.387139 
L 630.351005 -137.727449 
L 627.111074 -150.765347 
L 623.871143 -134.165362 
L 620.631212 -146.179564 
L 617.391281 -143.832041 
L 614.15135 -147.006931 
L 610.911419 -140.014822 
L 607.671488 -129.429988 
L 604.431557 -168.989985 
L 601.191626 -166.57367 
L 597.951695 -159.255058 
L 594.711764 -133.16831 
L 591.471833 -126.965658 
L 588.231902 -143.115903 
L 584.991971 -145.492148 
L 581.75204 -151.167371 
L 578.512109 -159.833153 
L 575.272178 -139.86517 
L 572.032247 -155.146898 
L 568.792316 -157.698601 
L 565.552385 -141.044538 
L 562.312454 -148.271617 
L 559.072523 -166.158167 
L 555.832592 -179.181607 
L 552.592661 -169.283892 
L 549.35273 -156.142342 
L 546.112799 -164.244196 
L 542.872868 -156.470596 
L 539.632937 -151.633546 
L 536.393006 -144.478651 
L 533.153075 -143.605386 
L 529.913144 -149.950152 
L 526.673213 -150.142658 
L 523.433282 -148.320304 
L 520.193351 -148.682242 
L 516.953421 -151.42246 
L 513.71349 -168.057084 
L 510.473559 -168.818178 
L 507.233628 -161.533868 
L 503.993697 -164.00227 
L 500.753766 -153.768779 
L 497.513835 -158.566197 
L 494.273904 -151.318758 
L 491.033973 -152.688146 
L 487.794042 -150.993976 
L 484.554111 -143.165901 
L 481.31418 -148.965292 
L 478.074249 -132.003055 
L 474.834318 -142.066553 
L 471.594387 -148.180879 
L 468.354456 -147.28852 
L 465.114525 -146.733674 
L 461.874594 -150.258198 
L 458.634663 -160.522042 
L 455.394732 -149.950156 
L 452.154801 -142.259479 
L 448.91487 -170.319678 
L 445.674939 -176.43709 
L 442.435008 -166.796923 
L 439.195077 -160.394546 
L 435.955146 -141.039733 
L 432.715215 -149.298326 
L 429.475284 -158.22605 
L 426.235353 -152.845111 
L 422.995422 -151.204731 
L 419.755491 -162.964936 
L 416.51556 -176.198236 
L 413.275629 -175.064651 
L 410.035698 -205.745714 
L 406.795767 -200.058665 
L 403.555836 -213.936789 
L 400.315905 -214.565206 
L 397.075974 -193.952869 
L 393.836043 -199.620938 
L 390.596112 -204.653332 
L 387.356181 -217.750754 
L 384.11625 -211.50585 
L 380.876319 -223.829042 
L 377.636388 -234.53249 
L 374.396457 -204.627429 
L 371.156527 -192.45452 
L 367.916596 -186.497281 
L 364.676665 -195.070014 
L 361.436734 -183.045357 
L 358.196803 -167.773235 
L 354.956872 -171.363793 
L 351.716941 -184.39698 
L 348.47701 -152.162993 
L 345.237079 -167.728752 
L 341.997148 -161.150366 
L 338.757217 -174.417518 
L 335.517286 -160.568902 
L 332.277355 -178.834888 
L 329.037424 -173.196844 
L 325.797493 -190.27689 
L 322.557562 -174.85458 
L 319.317631 -178.543128 
L 316.0777 -163.219163 
L 312.837769 -170.511616 
L 309.597838 -152.626422 
L 306.357907 -157.193781 
L 303.117976 -140.80864 
L 299.878045 -150.689875 
L 296.638114 -164.455821 
L 293.398183 -153.120784 
L 290.158252 -146.402028 
L 286.918321 -151.058247 
L 283.67839 -144.770281 
L 280.438459 -153.175172 
L 277.198528 -152.397872 
L 273.958597 -143.290283 
L 270.718666 -167.037088 
L 267.478735 -161.14535 
L 264.238804 -159.8944 
L 260.998873 -175.03967 
L 257.758942 -158.205574 
L 254.519011 -172.199573 
L 251.27908 -167.35889 
L 248.039149 -162.836387 
L 244.799218 -146.207792 
L 241.559287 -141.345535 
L 238.319356 -161.087075 
L 235.079425 -154.345086 
L 231.839494 -146.870552 
L 228.599564 -153.745934 
L 225.359633 -161.705936 
L 222.119702 -169.501395 
L 218.879771 -176.892634 
L 215.63984 -182.779303 
L 212.399909 -183.46222 
L 209.159978 -182.036346 
L 205.920047 -180.677905 
L 202.680116 -182.4611 
L 199.440185 -199.362576 
L 196.200254 -194.801734 
L 192.960323 -209.547638 
L 189.720392 -200.189338 
L 186.480461 -214.147033 
L 183.24053 -215.811773 
L 180.000599 -221.930117 
L 176.760668 -203.348012 
L 173.520737 -211.812982 
L 170.280806 -204.643179 
L 167.040875 -206.472999 
L 163.800944 -203.741326 
L 160.561013 -204.724917 
L 157.321082 -208.499081 
L 154.081151 -201.022579 
L 150.84122 -209.582781 
L 147.601289 -217.498774 
L 144.361358 -229.68378 
L 141.121427 -246.672341 
z
" style="stroke: #0000ff; stroke-opacity: 0.3"/>
    </defs>
    <g clip-path="url(#p0a39743adc)">
     <use xlink:href="#m16b6ed85a8" x="0" y="432" style="fill: #0000ff; fill-opacity: 0.3; stroke: #0000ff; stroke-opacity: 0.3"/>
    </g>
   </g>
   <g id="PolyCollection_2">
    <defs>
     <path id="mec8a11cfa9" d="M 141.121427 -345.15448 
L 141.121427 -337.345348 
L 144.361358 -338.260592 
L 147.601289 -336.923339 
L 150.84122 -327.181677 
L 154.081151 -326.271524 
L 157.321082 -320.254298 
L 160.561013 -318.077714 
L 163.800944 -325.559162 
L 167.040875 -319.722878 
L 170.280806 -314.329893 
L 173.520737 -315.315368 
L 176.760668 -315.222892 
L 180.000599 -313.895655 
L 183.24053 -312.806518 
L 186.480461 -315.439008 
L 189.720392 -312.409125 
L 192.960323 -318.905879 
L 196.200254 -310.537594 
L 199.440185 -306.221442 
L 202.680116 -306.025347 
L 205.920047 -305.836982 
L 209.159978 -303.459841 
L 212.399909 -305.449903 
L 215.63984 -312.262065 
L 218.879771 -314.250733 
L 222.119702 -316.356106 
L 225.359633 -317.629968 
L 228.599564 -297.129154 
L 231.839494 -297.637905 
L 235.079425 -304.874719 
L 238.319356 -312.584679 
L 241.559287 -305.837095 
L 244.799218 -304.465963 
L 248.039149 -297.533773 
L 251.27908 -296.51824 
L 254.519011 -297.555778 
L 257.758942 -306.601228 
L 260.998873 -302.920749 
L 264.238804 -300.883143 
L 267.478735 -295.496136 
L 270.718666 -304.202536 
L 273.958597 -300.037452 
L 277.198528 -308.034928 
L 280.438459 -296.055079 
L 283.67839 -316.261525 
L 286.918321 -304.288769 
L 290.158252 -311.782086 
L 293.398183 -313.766106 
L 296.638114 -303.614542 
L 299.878045 -297.542522 
L 303.117976 -296.565099 
L 306.357907 -309.847273 
L 309.597838 -311.954444 
L 312.837769 -303.626013 
L 316.0777 -323.791351 
L 319.317631 -327.50607 
L 322.557562 -322.036411 
L 325.797493 -323.732999 
L 329.037424 -323.476929 
L 332.277355 -333.688447 
L 335.517286 -335.713007 
L 338.757217 -331.049148 
L 341.997148 -330.212711 
L 345.237079 -339.110424 
L 348.47701 -334.882102 
L 351.716941 -331.393026 
L 354.956872 -332.579166 
L 358.196803 -328.30633 
L 361.436734 -338.097807 
L 364.676665 -345.805092 
L 367.916596 -345.681942 
L 371.156527 -350.993966 
L 374.396457 -349.184934 
L 377.636388 -350.293064 
L 380.876319 -358.633046 
L 384.11625 -359.938209 
L 387.356181 -352.729625 
L 390.596112 -355.266728 
L 393.836043 -351.15421 
L 397.075974 -345.748698 
L 400.315905 -343.550443 
L 403.555836 -359.060917 
L 406.795767 -348.578639 
L 410.035698 -353.790021 
L 413.275629 -362.339541 
L 416.51556 -350.641673 
L 419.755491 -361.813548 
L 422.995422 -360.040133 
L 426.235353 -356.04734 
L 429.475284 -358.188844 
L 432.715215 -361.154196 
L 435.955146 -351.736855 
L 439.195077 -363.570076 
L 442.435008 -361.752901 
L 445.674939 -366.493496 
L 448.91487 -373.634346 
L 452.154801 -370.397656 
L 455.394732 -370.615629 
L 458.634663 -371.534447 
L 461.874594 -370.928289 
L 465.114525 -375.634369 
L 468.354456 -371.105973 
L 471.594387 -371.510802 
L 474.834318 -369.074213 
L 478.074249 -355.890767 
L 481.31418 -363.978321 
L 484.554111 -367.126323 
L 487.794042 -364.383718 
L 491.033973 -365.456909 
L 494.273904 -370.809241 
L 497.513835 -375.111222 
L 500.753766 -369.06699 
L 503.993697 -368.29628 
L 507.233628 -365.160773 
L 510.473559 -362.385813 
L 513.71349 -373.469495 
L 516.953421 -376.397229 
L 520.193351 -363.754102 
L 523.433282 -364.04627 
L 526.673213 -372.044487 
L 529.913144 -363.437279 
L 533.153075 -360.157213 
L 536.393006 -361.216945 
L 539.632937 -364.652416 
L 542.872868 -363.026168 
L 546.112799 -363.786072 
L 549.35273 -367.740222 
L 552.592661 -369.541311 
L 555.832592 -368.585721 
L 559.072523 -362.313506 
L 562.312454 -367.616756 
L 565.552385 -359.13463 
L 568.792316 -374.712978 
L 572.032247 -375.935009 
L 575.272178 -367.031148 
L 578.512109 -368.146756 
L 581.75204 -366.515516 
L 584.991971 -357.844719 
L 588.231902 -360.230874 
L 591.471833 -360.562092 
L 594.711764 -359.510874 
L 597.951695 -363.773687 
L 601.191626 -366.982239 
L 604.431557 -371.084748 
L 607.671488 -364.517337 
L 610.911419 -374.130299 
L 614.15135 -370.449577 
L 617.391281 -359.736098 
L 620.631212 -357.14696 
L 623.871143 -368.499374 
L 627.111074 -369.684824 
L 630.351005 -371.792317 
L 633.590936 -368.247028 
L 636.830867 -369.486733 
L 640.070798 -367.042621 
L 643.310729 -365.601226 
L 646.55066 -362.510927 
L 649.790591 -360.745191 
L 653.030522 -364.828974 
L 656.270453 -364.404471 
L 659.510384 -364.552414 
L 662.750314 -368.035194 
L 665.990245 -371.088546 
L 669.230176 -367.152404 
L 672.470107 -370.31636 
L 675.710038 -365.67329 
L 678.949969 -371.651342 
L 678.949969 -400.796734 
L 678.949969 -400.796734 
L 675.710038 -399.587141 
L 672.470107 -401.310272 
L 669.230176 -404.268867 
L 665.990245 -401.15417 
L 662.750314 -404.00216 
L 659.510384 -403.172353 
L 656.270453 -401.677406 
L 653.030522 -400.020735 
L 649.790591 -399.79193 
L 646.55066 -402.13342 
L 643.310729 -403.150348 
L 640.070798 -397.807087 
L 636.830867 -398.854117 
L 633.590936 -405.638578 
L 630.351005 -396.137811 
L 627.111074 -400.093556 
L 623.871143 -402.716535 
L 620.631212 -398.872212 
L 617.391281 -399.979578 
L 614.15135 -396.248384 
L 610.911419 -401.192836 
L 607.671488 -399.716288 
L 604.431557 -402.595497 
L 601.191626 -404.23367 
L 597.951695 -398.200964 
L 594.711764 -405.749557 
L 591.471833 -401.61792 
L 588.231902 -406.056364 
L 584.991971 -405.978183 
L 581.75204 -397.307387 
L 578.512109 -400.810179 
L 575.272178 -398.434645 
L 572.032247 -399.593487 
L 568.792316 -397.119015 
L 565.552385 -395.447014 
L 562.312454 -398.670481 
L 559.072523 -399.04506 
L 555.832592 -397.290794 
L 552.592661 -392.43334 
L 549.35273 -400.189906 
L 546.112799 -390.795572 
L 542.872868 -392.17156 
L 539.632937 -391.366756 
L 536.393006 -389.668195 
L 533.153075 -396.888767 
L 529.913144 -396.278397 
L 526.673213 -391.778415 
L 523.433282 -389.303206 
L 520.193351 -387.747122 
L 516.953421 -388.45248 
L 513.71349 -391.585575 
L 510.473559 -397.945947 
L 507.233628 -394.349542 
L 503.993697 -389.160422 
L 500.753766 -388.184351 
L 497.513835 -393.229629 
L 494.273904 -391.576132 
L 491.033973 -386.044315 
L 487.794042 -386.706784 
L 484.554111 -390.946463 
L 481.31418 -392.656936 
L 478.074249 -396.637264 
L 474.834318 -393.516522 
L 471.594387 -391.285293 
L 468.354456 -387.377535 
L 465.114525 -393.527927 
L 461.874594 -393.921419 
L 458.634663 -388.386591 
L 455.394732 -392.796551 
L 452.154801 -388.291214 
L 448.91487 -390.188556 
L 445.674939 -389.114954 
L 442.435008 -392.007298 
L 439.195077 -389.574039 
L 435.955146 -390.728472 
L 432.715215 -392.606002 
L 429.475284 -389.410516 
L 426.235353 -389.293045 
L 422.995422 -391.050369 
L 419.755491 -390.919844 
L 416.51556 -391.823654 
L 413.275629 -386.491986 
L 410.035698 -388.469945 
L 406.795767 -384.234707 
L 403.555836 -389.359887 
L 400.315905 -386.387845 
L 397.075974 -379.877003 
L 393.836043 -379.400162 
L 390.596112 -381.448482 
L 387.356181 -381.52125 
L 384.11625 -385.196814 
L 380.876319 -387.323423 
L 377.636388 -386.627508 
L 374.396457 -385.271303 
L 371.156527 -387.774857 
L 367.916596 -384.667068 
L 364.676665 -385.981447 
L 361.436734 -387.733255 
L 358.196803 -388.078112 
L 354.956872 -384.215998 
L 351.716941 -377.803771 
L 348.47701 -380.680895 
L 345.237079 -383.640218 
L 341.997148 -376.519749 
L 338.757217 -378.763732 
L 335.517286 -382.725048 
L 332.277355 -378.79413 
L 329.037424 -380.585835 
L 325.797493 -374.785009 
L 322.557562 -378.124488 
L 319.317631 -375.529888 
L 316.0777 -375.548103 
L 312.837769 -377.847008 
L 309.597838 -372.598996 
L 306.357907 -377.375864 
L 303.117976 -383.265031 
L 299.878045 -384.13586 
L 296.638114 -389.564073 
L 293.398183 -381.671483 
L 290.158252 -381.191168 
L 286.918321 -385.604065 
L 283.67839 -378.149258 
L 280.438459 -379.873187 
L 277.198528 -385.759771 
L 273.958597 -376.506897 
L 270.718666 -376.243678 
L 267.478735 -376.940988 
L 264.238804 -372.375426 
L 260.998873 -372.802155 
L 257.758942 -373.434264 
L 254.519011 -368.720506 
L 251.27908 -371.811658 
L 248.039149 -374.287267 
L 244.799218 -373.105193 
L 241.559287 -378.716345 
L 238.319356 -375.254542 
L 235.079425 -367.973127 
L 231.839494 -377.263554 
L 228.599564 -369.763214 
L 225.359633 -370.414614 
L 222.119702 -367.375889 
L 218.879771 -370.302707 
L 215.63984 -361.201865 
L 212.399909 -357.335239 
L 209.159978 -344.539288 
L 205.920047 -344.831843 
L 202.680116 -341.152336 
L 199.440185 -342.188409 
L 196.200254 -341.774122 
L 192.960323 -334.021921 
L 189.720392 -341.134759 
L 186.480461 -342.622825 
L 183.24053 -337.451585 
L 180.000599 -332.871306 
L 176.760668 -332.981598 
L 173.520737 -331.451593 
L 170.280806 -338.187185 
L 167.040875 -341.419374 
L 163.800944 -338.047426 
L 160.561013 -351.27899 
L 157.321082 -345.816625 
L 154.081151 -344.933432 
L 150.84122 -348.541227 
L 147.601289 -350.50516 
L 144.361358 -351.016158 
L 141.121427 -345.15448 
z
" style="stroke: #008000; stroke-opacity: 0.3"/>
    </defs>
    <g clip-path="url(#p0a39743adc)">
     <use xlink:href="#mec8a11cfa9" x="0" y="432" style="fill: #008000; fill-opacity: 0.3; stroke: #008000; stroke-opacity: 0.3"/>
    </g>
   </g>
   <g id="PolyCollection_3">
    <defs>
     <path id="m69c599c6b9" d="M 141.121427 -345.886117 
L 141.121427 -341.131659 
L 144.361358 -328.464861 
L 147.601289 -338.378811 
L 150.84122 -335.795029 
L 154.081151 -335.277356 
L 157.321082 -337.454685 
L 160.561013 -329.486635 
L 163.800944 -334.06417 
L 167.040875 -329.090503 
L 170.280806 -327.789257 
L 173.520737 -324.383659 
L 176.760668 -321.59785 
L 180.000599 -329.562589 
L 183.24053 -318.511637 
L 186.480461 -319.352958 
L 189.720392 -316.185575 
L 192.960323 -322.135818 
L 196.200254 -321.636254 
L 199.440185 -329.326148 
L 202.680116 -321.400594 
L 205.920047 -316.671654 
L 209.159978 -318.499368 
L 212.399909 -313.605198 
L 215.63984 -320.268267 
L 218.879771 -319.14528 
L 222.119702 -319.073338 
L 225.359633 -321.076498 
L 228.599564 -328.5854 
L 231.839494 -321.446964 
L 235.079425 -311.275157 
L 238.319356 -314.553971 
L 241.559287 -311.756557 
L 244.799218 -313.522032 
L 248.039149 -318.16819 
L 251.27908 -321.49202 
L 254.519011 -320.139244 
L 257.758942 -315.726476 
L 260.998873 -311.230026 
L 264.238804 -303.643693 
L 267.478735 -313.62533 
L 270.718666 -317.333062 
L 273.958597 -317.026796 
L 277.198528 -307.9423 
L 280.438459 -320.921848 
L 283.67839 -319.430448 
L 286.918321 -318.472818 
L 290.158252 -318.307308 
L 293.398183 -315.297987 
L 296.638114 -310.343722 
L 299.878045 -314.992245 
L 303.117976 -319.508301 
L 306.357907 -317.003718 
L 309.597838 -309.985381 
L 312.837769 -317.59514 
L 316.0777 -314.128235 
L 319.317631 -306.389939 
L 322.557562 -311.134896 
L 325.797493 -304.621655 
L 329.037424 -317.670423 
L 332.277355 -314.606898 
L 335.517286 -314.346417 
L 338.757217 -318.872666 
L 341.997148 -323.105688 
L 345.237079 -318.121359 
L 348.47701 -312.135526 
L 351.716941 -314.365643 
L 354.956872 -320.721694 
L 358.196803 -317.032782 
L 361.436734 -313.439278 
L 364.676665 -316.10686 
L 367.916596 -317.134455 
L 371.156527 -313.746804 
L 374.396457 -315.746531 
L 377.636388 -311.928704 
L 380.876319 -311.62667 
L 384.11625 -309.677829 
L 387.356181 -311.301755 
L 390.596112 -300.531359 
L 393.836043 -312.656713 
L 397.075974 -314.038075 
L 400.315905 -302.387365 
L 403.555836 -305.726184 
L 406.795767 -315.327301 
L 410.035698 -304.24405 
L 413.275629 -308.485406 
L 416.51556 -303.300963 
L 419.755491 -298.433016 
L 422.995422 -307.387459 
L 426.235353 -306.899355 
L 429.475284 -306.841787 
L 432.715215 -292.039014 
L 435.955146 -302.661202 
L 439.195077 -304.280869 
L 442.435008 -314.257188 
L 445.674939 -310.768872 
L 448.91487 -305.552407 
L 452.154801 -301.189132 
L 455.394732 -302.646574 
L 458.634663 -301.818099 
L 461.874594 -300.725707 
L 465.114525 -302.00662 
L 468.354456 -295.701983 
L 471.594387 -304.91989 
L 474.834318 -303.960039 
L 478.074249 -300.125253 
L 481.31418 -306.400344 
L 484.554111 -305.399005 
L 487.794042 -304.442041 
L 491.033973 -302.084835 
L 494.273904 -295.219852 
L 497.513835 -301.504291 
L 500.753766 -298.449765 
L 503.993697 -307.331973 
L 507.233628 -298.512908 
L 510.473559 -314.332109 
L 513.71349 -304.343513 
L 516.953421 -305.969568 
L 520.193351 -301.998179 
L 523.433282 -316.40833 
L 526.673213 -308.245711 
L 529.913144 -297.668627 
L 533.153075 -299.157836 
L 536.393006 -309.873662 
L 539.632937 -292.711915 
L 542.872868 -299.589042 
L 546.112799 -297.306491 
L 549.35273 -298.260022 
L 552.592661 -304.877478 
L 555.832592 -302.21476 
L 559.072523 -312.909184 
L 562.312454 -314.720268 
L 565.552385 -300.996397 
L 568.792316 -301.747098 
L 572.032247 -306.346308 
L 575.272178 -300.645902 
L 578.512109 -306.372394 
L 581.75204 -310.469095 
L 584.991971 -305.107373 
L 588.231902 -295.478418 
L 591.471833 -303.594108 
L 594.711764 -304.241762 
L 597.951695 -306.262901 
L 601.191626 -298.125428 
L 604.431557 -301.044221 
L 607.671488 -284.952537 
L 610.911419 -296.127793 
L 614.15135 -302.817763 
L 617.391281 -306.352731 
L 620.631212 -300.281587 
L 623.871143 -304.56081 
L 627.111074 -301.341604 
L 630.351005 -308.522723 
L 633.590936 -313.578429 
L 636.830867 -301.965828 
L 640.070798 -307.782452 
L 643.310729 -302.362697 
L 646.55066 -308.238779 
L 649.790591 -304.135097 
L 653.030522 -303.852014 
L 656.270453 -299.156554 
L 659.510384 -309.911981 
L 662.750314 -310.318659 
L 665.990245 -296.897819 
L 669.230176 -301.828284 
L 672.470107 -309.006478 
L 675.710038 -312.084334 
L 678.949969 -307.691611 
L 678.949969 -314.021271 
L 678.949969 -314.021271 
L 675.710038 -317.021555 
L 672.470107 -321.331579 
L 669.230176 -316.804179 
L 665.990245 -316.39525 
L 662.750314 -318.992591 
L 659.510384 -312.006263 
L 656.270453 -312.082902 
L 653.030522 -321.968094 
L 649.790591 -314.702727 
L 646.55066 -312.036575 
L 643.310729 -316.269766 
L 640.070798 -311.055372 
L 636.830867 -311.327241 
L 633.590936 -316.348905 
L 630.351005 -311.136546 
L 627.111074 -321.192724 
L 623.871143 -316.74135 
L 620.631212 -317.118709 
L 617.391281 -323.369242 
L 614.15135 -317.45759 
L 610.911419 -324.558283 
L 607.671488 -323.617222 
L 604.431557 -324.365165 
L 601.191626 -320.917757 
L 597.951695 -325.307324 
L 594.711764 -325.069488 
L 591.471833 -319.761665 
L 588.231902 -324.796935 
L 584.991971 -315.167981 
L 581.75204 -323.976188 
L 578.512109 -324.376385 
L 575.272178 -331.745768 
L 572.032247 -325.223916 
L 568.792316 -322.635482 
L 565.552385 -328.314854 
L 562.312454 -329.171635 
L 559.072523 -325.027241 
L 555.832592 -325.864323 
L 552.592661 -326.898108 
L 549.35273 -327.354725 
L 546.112799 -327.076089 
L 542.872868 -323.356008 
L 539.632937 -326.125909 
L 536.393006 -329.705653 
L 533.153075 -333.849918 
L 529.913144 -323.428171 
L 526.673213 -325.172765 
L 523.433282 -331.180076 
L 520.193351 -332.447104 
L 516.953421 -334.431192 
L 513.71349 -330.717853 
L 510.473559 -340.238581 
L 507.233628 -322.173168 
L 503.993697 -332.041981 
L 500.753766 -335.995518 
L 497.513835 -322.056843 
L 494.273904 -328.546644 
L 491.033973 -327.431777 
L 487.794042 -318.708371 
L 484.554111 -337.671453 
L 481.31418 -330.714636 
L 478.074249 -337.40045 
L 474.834318 -327.199463 
L 471.594387 -336.096955 
L 468.354456 -323.341203 
L 465.114525 -331.001134 
L 461.874594 -328.380182 
L 458.634663 -327.698512 
L 455.394732 -325.63787 
L 452.154801 -332.845428 
L 448.91487 -325.196372 
L 445.674939 -331.685502 
L 442.435008 -333.125857 
L 439.195077 -330.575136 
L 435.955146 -326.239326 
L 432.715215 -322.280862 
L 429.475284 -333.969696 
L 426.235353 -327.956651 
L 422.995422 -329.727521 
L 419.755491 -332.315764 
L 416.51556 -320.465532 
L 413.275629 -327.602767 
L 410.035698 -328.558342 
L 406.795767 -330.823576 
L 403.555836 -333.64777 
L 400.315905 -334.111531 
L 397.075974 -328.416299 
L 393.836043 -332.261996 
L 390.596112 -333.503201 
L 387.356181 -333.822316 
L 384.11625 -329.901486 
L 380.876319 -332.881317 
L 377.636388 -332.990005 
L 374.396457 -330.815069 
L 371.156527 -333.020157 
L 367.916596 -333.123649 
L 364.676665 -328.401126 
L 361.436734 -324.086425 
L 358.196803 -329.93954 
L 354.956872 -326.045267 
L 351.716941 -329.52626 
L 348.47701 -321.07759 
L 345.237079 -320.636511 
L 341.997148 -329.000667 
L 338.757217 -333.644411 
L 335.517286 -332.420544 
L 332.277355 -331.74934 
L 329.037424 -336.694906 
L 325.797493 -330.645073 
L 322.557562 -325.774723 
L 319.317631 -331.341125 
L 316.0777 -327.710055 
L 312.837769 -332.252241 
L 309.597838 -335.960135 
L 306.357907 -334.897276 
L 303.117976 -330.544441 
L 299.878045 -329.721103 
L 296.638114 -325.744451 
L 293.398183 -333.727948 
L 290.158252 -325.173872 
L 286.918321 -326.651253 
L 283.67839 -334.72952 
L 280.438459 -328.720171 
L 277.198528 -323.627925 
L 273.958597 -328.097275 
L 270.718666 -332.308957 
L 267.478735 -334.784521 
L 264.238804 -332.649841 
L 260.998873 -327.733206 
L 257.758942 -326.933259 
L 254.519011 -337.101143 
L 251.27908 -329.587528 
L 248.039149 -332.911358 
L 244.799218 -323.798309 
L 241.559287 -328.02812 
L 238.319356 -335.088048 
L 235.079425 -320.500429 
L 231.839494 -326.552165 
L 228.599564 -338.923052 
L 225.359633 -334.520999 
L 222.119702 -332.00621 
L 218.879771 -332.961075 
L 215.63984 -330.60592 
L 212.399909 -331.929595 
L 209.159978 -327.446147 
L 205.920047 -338.309759 
L 202.680116 -338.920212 
L 199.440185 -335.92333 
L 196.200254 -328.005765 
L 192.960323 -330.997343 
L 189.720392 -329.55458 
L 186.480461 -334.396287 
L 183.24053 -330.514298 
L 180.000599 -335.89225 
L 176.760668 -327.428086 
L 173.520737 -334.70498 
L 170.280806 -333.352995 
L 167.040875 -334.516085 
L 163.800944 -339.605121 
L 160.561013 -339.048624 
L 157.321082 -340.116471 
L 154.081151 -343.93669 
L 150.84122 -342.392211 
L 147.601289 -341.040597 
L 144.361358 -342.534733 
L 141.121427 -345.886117 
z
" style="stroke: #ff0000; stroke-opacity: 0.3"/>
    </defs>
    <g clip-path="url(#p0a39743adc)">
     <use xlink:href="#m69c599c6b9" x="0" y="432" style="fill: #ff0000; fill-opacity: 0.3; stroke: #ff0000; stroke-opacity: 0.3"/>
    </g>
   </g>
   <g id="PolyCollection_4">
    <defs>
     <path id="m3caf096918" d="M 141.121427 -350.009908 
L 141.121427 -344.400875 
L 144.361358 -336.126162 
L 147.601289 -335.418458 
L 150.84122 -329.152048 
L 154.081151 -332.07334 
L 157.321082 -327.728792 
L 160.561013 -318.201468 
L 163.800944 -323.995214 
L 167.040875 -320.732815 
L 170.280806 -323.118152 
L 173.520737 -313.260942 
L 176.760668 -314.603425 
L 180.000599 -313.81329 
L 183.24053 -307.712114 
L 186.480461 -311.522107 
L 189.720392 -301.949259 
L 192.960323 -295.786321 
L 196.200254 -305.34269 
L 199.440185 -299.351114 
L 202.680116 -293.233479 
L 205.920047 -291.754543 
L 209.159978 -290.650227 
L 212.399909 -287.690531 
L 215.63984 -288.960333 
L 218.879771 -286.960635 
L 222.119702 -279.512653 
L 225.359633 -279.556103 
L 228.599564 -283.877985 
L 231.839494 -297.907773 
L 235.079425 -302.768905 
L 238.319356 -307.29794 
L 241.559287 -298.380116 
L 244.799218 -305.523746 
L 248.039149 -312.26953 
L 251.27908 -298.828187 
L 254.519011 -307.397538 
L 257.758942 -298.663313 
L 260.998873 -306.565735 
L 264.238804 -303.187132 
L 267.478735 -303.681835 
L 270.718666 -297.758473 
L 273.958597 -294.850311 
L 277.198528 -306.00242 
L 280.438459 -289.138324 
L 283.67839 -301.738609 
L 286.918321 -293.680102 
L 290.158252 -279.486387 
L 293.398183 -279.836624 
L 296.638114 -282.939335 
L 299.878045 -284.841099 
L 303.117976 -281.978217 
L 306.357907 -290.03072 
L 309.597838 -274.824634 
L 312.837769 -271.394263 
L 316.0777 -261.817199 
L 319.317631 -263.980527 
L 322.557562 -268.944547 
L 325.797493 -270.182533 
L 329.037424 -289.708746 
L 332.277355 -271.913536 
L 335.517286 -276.268693 
L 338.757217 -271.898155 
L 341.997148 -275.04914 
L 345.237079 -273.862581 
L 348.47701 -261.974519 
L 351.716941 -259.803288 
L 354.956872 -253.805675 
L 358.196803 -264.277417 
L 361.436734 -263.787359 
L 364.676665 -259.163408 
L 367.916596 -263.344947 
L 371.156527 -265.236404 
L 374.396457 -267.492167 
L 377.636388 -264.133402 
L 380.876319 -249.233679 
L 384.11625 -262.111547 
L 387.356181 -272.764622 
L 390.596112 -271.30483 
L 393.836043 -277.395566 
L 397.075974 -281.814411 
L 400.315905 -290.537143 
L 403.555836 -284.925461 
L 406.795767 -298.186609 
L 410.035698 -308.286114 
L 413.275629 -300.014832 
L 416.51556 -304.291686 
L 419.755491 -299.979099 
L 422.995422 -288.431412 
L 426.235353 -290.401356 
L 429.475284 -299.82237 
L 432.715215 -296.294471 
L 435.955146 -308.556841 
L 439.195077 -302.282074 
L 442.435008 -294.548197 
L 445.674939 -289.887953 
L 448.91487 -294.013437 
L 452.154801 -285.266871 
L 455.394732 -294.645087 
L 458.634663 -280.724201 
L 461.874594 -284.463078 
L 465.114525 -278.883703 
L 468.354456 -288.51735 
L 471.594387 -289.30185 
L 474.834318 -287.393983 
L 478.074249 -287.264104 
L 481.31418 -282.104012 
L 484.554111 -277.946621 
L 487.794042 -286.031394 
L 491.033973 -275.74092 
L 494.273904 -294.80604 
L 497.513835 -281.271014 
L 500.753766 -266.97304 
L 503.993697 -272.779589 
L 507.233628 -276.85964 
L 510.473559 -279.314706 
L 513.71349 -276.609509 
L 516.953421 -272.858373 
L 520.193351 -266.486595 
L 523.433282 -254.032371 
L 526.673213 -267.797942 
L 529.913144 -264.494387 
L 533.153075 -281.49553 
L 536.393006 -260.534914 
L 539.632937 -277.44291 
L 542.872868 -281.488308 
L 546.112799 -283.914651 
L 549.35273 -294.36325 
L 552.592661 -294.235692 
L 555.832592 -308.333142 
L 559.072523 -313.204595 
L 562.312454 -305.483362 
L 565.552385 -313.843943 
L 568.792316 -311.117898 
L 572.032247 -307.439969 
L 575.272178 -306.571644 
L 578.512109 -305.4764 
L 581.75204 -317.147647 
L 584.991971 -310.061146 
L 588.231902 -312.965633 
L 591.471833 -313.087967 
L 594.711764 -315.00974 
L 597.951695 -312.317701 
L 601.191626 -311.102491 
L 604.431557 -288.091763 
L 607.671488 -290.152252 
L 610.911419 -299.311729 
L 614.15135 -301.222053 
L 617.391281 -300.186858 
L 620.631212 -284.128951 
L 623.871143 -286.463779 
L 627.111074 -302.667369 
L 630.351005 -291.960803 
L 633.590936 -286.299579 
L 636.830867 -294.64156 
L 640.070798 -301.396089 
L 643.310729 -312.785924 
L 646.55066 -309.035693 
L 649.790591 -308.962244 
L 653.030522 -310.60288 
L 656.270453 -312.069479 
L 659.510384 -309.133655 
L 662.750314 -309.345668 
L 665.990245 -307.46012 
L 669.230176 -307.851972 
L 672.470107 -308.162651 
L 675.710038 -318.110776 
L 678.949969 -318.087545 
L 678.949969 -333.813448 
L 678.949969 -333.813448 
L 675.710038 -333.379495 
L 672.470107 -335.318529 
L 669.230176 -337.066737 
L 665.990245 -330.270944 
L 662.750314 -333.314067 
L 659.510384 -329.008131 
L 656.270453 -325.866946 
L 653.030522 -324.86921 
L 649.790591 -321.170451 
L 646.55066 -326.641757 
L 643.310729 -335.418566 
L 640.070798 -330.584858 
L 636.830867 -328.714212 
L 633.590936 -339.725891 
L 630.351005 -335.912919 
L 627.111074 -336.706585 
L 623.871143 -349.213671 
L 620.631212 -347.030551 
L 617.391281 -343.705045 
L 614.15135 -331.169617 
L 610.911419 -336.571083 
L 607.671488 -330.533824 
L 604.431557 -341.424848 
L 601.191626 -328.682186 
L 597.951695 -328.288421 
L 594.711764 -338.534144 
L 591.471833 -333.473632 
L 588.231902 -323.533263 
L 584.991971 -333.420034 
L 581.75204 -335.780153 
L 578.512109 -339.236948 
L 575.272178 -334.23984 
L 572.032247 -331.933985 
L 568.792316 -324.970275 
L 565.552385 -338.673135 
L 562.312454 -327.113669 
L 559.072523 -332.740921 
L 555.832592 -332.889064 
L 552.592661 -325.423577 
L 549.35273 -328.376439 
L 546.112799 -332.048115 
L 542.872868 -331.804761 
L 539.632937 -326.814261 
L 536.393006 -340.8472 
L 533.153075 -329.127843 
L 529.913144 -335.655559 
L 526.673213 -341.593262 
L 523.433282 -339.340652 
L 520.193351 -345.985029 
L 516.953421 -335.506025 
L 513.71349 -326.004772 
L 510.473559 -329.871138 
L 507.233628 -326.781448 
L 503.993697 -336.611616 
L 500.753766 -332.560822 
L 497.513835 -322.986158 
L 494.273904 -326.906842 
L 491.033973 -334.266368 
L 487.794042 -327.877759 
L 484.554111 -336.783977 
L 481.31418 -339.198147 
L 478.074249 -333.832694 
L 474.834318 -324.87228 
L 471.594387 -322.142968 
L 468.354456 -333.400893 
L 465.114525 -328.864611 
L 461.874594 -317.740481 
L 458.634663 -327.845558 
L 455.394732 -318.853343 
L 452.154801 -314.883075 
L 448.91487 -325.235109 
L 445.674939 -324.0212 
L 442.435008 -327.370047 
L 439.195077 -336.886519 
L 435.955146 -326.504526 
L 432.715215 -323.364798 
L 429.475284 -336.471164 
L 426.235353 -324.534603 
L 422.995422 -322.19196 
L 419.755491 -317.010473 
L 416.51556 -321.323061 
L 413.275629 -314.099683 
L 410.035698 -321.025137 
L 406.795767 -315.311821 
L 403.555836 -320.153156 
L 400.315905 -311.666416 
L 397.075974 -321.826677 
L 393.836043 -321.932935 
L 390.596112 -317.139522 
L 387.356181 -327.385324 
L 384.11625 -319.966604 
L 380.876319 -321.138879 
L 377.636388 -317.739389 
L 374.396457 -321.77363 
L 371.156527 -309.448741 
L 367.916596 -309.902668 
L 364.676665 -313.262762 
L 361.436734 -304.120862 
L 358.196803 -297.264605 
L 354.956872 -302.396953 
L 351.716941 -302.76554 
L 348.47701 -302.853283 
L 345.237079 -302.054731 
L 341.997148 -306.002205 
L 338.757217 -321.269506 
L 335.517286 -318.74722 
L 332.277355 -321.254126 
L 329.037424 -315.369871 
L 325.797493 -310.252728 
L 322.557562 -327.508895 
L 319.317631 -320.356599 
L 316.0777 -316.359088 
L 312.837769 -319.309063 
L 309.597838 -307.253518 
L 306.357907 -306.012 
L 303.117976 -305.233967 
L 299.878045 -301.344279 
L 296.638114 -292.567255 
L 293.398183 -294.232437 
L 290.158252 -296.020203 
L 286.918321 -304.005508 
L 283.67839 -303.750731 
L 280.438459 -305.056144 
L 277.198528 -312.424682 
L 273.958597 -311.460474 
L 270.718666 -317.79357 
L 267.478735 -317.414964 
L 264.238804 -326.740202 
L 260.998873 -327.263464 
L 257.758942 -328.388963 
L 254.519011 -331.565693 
L 251.27908 -332.742038 
L 248.039149 -325.666895 
L 244.799218 -333.850209 
L 241.559287 -327.850715 
L 238.319356 -330.843847 
L 235.079425 -335.372881 
L 231.839494 -330.787394 
L 228.599564 -332.290142 
L 225.359633 -329.62974 
L 222.119702 -339.11981 
L 218.879771 -334.546886 
L 215.63984 -338.913388 
L 212.399909 -337.308133 
L 209.159978 -333.526991 
L 205.920047 -336.529901 
L 202.680116 -336.077772 
L 199.440185 -326.263633 
L 196.200254 -331.156206 
L 192.960323 -331.882039 
L 189.720392 -332.701385 
L 186.480461 -334.012686 
L 183.24053 -342.75135 
L 180.000599 -330.489336 
L 176.760668 -336.065401 
L 173.520737 -342.747278 
L 170.280806 -347.265358 
L 167.040875 -342.873773 
L 163.800944 -348.236548 
L 160.561013 -337.806751 
L 157.321082 -347.994113 
L 154.081151 -340.158422 
L 150.84122 -345.133327 
L 147.601289 -343.795588 
L 144.361358 -344.320052 
L 141.121427 -350.009908 
z
" style="stroke: #ffa500; stroke-opacity: 0.3"/>
    </defs>
    <g clip-path="url(#p0a39743adc)">
     <use xlink:href="#m3caf096918" x="0" y="432" style="fill: #ffa500; fill-opacity: 0.3; stroke: #ffa500; stroke-opacity: 0.3"/>
    </g>
   </g>
   <g id="matplotlib.axis_1">
    <g id="xtick_1">
     <g id="line2d_1">
      <defs>
       <path id="m906fc3171e" d="M 0 0 
L 0 3.5 
" style="stroke: #000000; stroke-width: 0.8"/>
      </defs>
      <g>
       <use xlink:href="#m906fc3171e" x="141.121427" y="343.96" style="stroke: #000000; stroke-width: 0.8"/>
      </g>
     </g>
     <g id="text_1">
      <!-- 0 -->
      <g transform="translate(132.213927 372.235625) scale(0.28 -0.28)">
       <defs>
        <path id="DejaVuSans-30" d="M 2034 4250 
Q 1547 4250 1301 3770 
Q 1056 3291 1056 2328 
Q 1056 1369 1301 889 
Q 1547 409 2034 409 
Q 2525 409 2770 889 
Q 3016 1369 3016 2328 
Q 3016 3291 2770 3770 
Q 2525 4250 2034 4250 
z
M 2034 4750 
Q 2819 4750 3233 4129 
Q 3647 3509 3647 2328 
Q 3647 1150 3233 529 
Q 2819 -91 2034 -91 
Q 1250 -91 836 529 
Q 422 1150 422 2328 
Q 422 3509 836 4129 
Q 1250 4750 2034 4750 
z
" transform="scale(0.015625)"/>
       </defs>
       <use xlink:href="#DejaVuSans-30"/>
      </g>
     </g>
    </g>
    <g id="xtick_2">
     <g id="line2d_2">
      <g>
       <use xlink:href="#m906fc3171e" x="249.119126" y="343.96" style="stroke: #000000; stroke-width: 0.8"/>
      </g>
     </g>
     <g id="text_2">
      <!-- 100 -->
      <g transform="translate(222.396626 372.235625) scale(0.28 -0.28)">
       <defs>
        <path id="DejaVuSans-31" d="M 794 531 
L 1825 531 
L 1825 4091 
L 703 3866 
L 703 4441 
L 1819 4666 
L 2450 4666 
L 2450 531 
L 3481 531 
L 3481 0 
L 794 0 
L 794 531 
z
" transform="scale(0.015625)"/>
       </defs>
       <use xlink:href="#DejaVuSans-31"/>
       <use xlink:href="#DejaVuSans-30" x="63.623047"/>
       <use xlink:href="#DejaVuSans-30" x="127.246094"/>
      </g>
     </g>
    </g>
    <g id="xtick_3">
     <g id="line2d_3">
      <g>
       <use xlink:href="#m906fc3171e" x="357.116826" y="343.96" style="stroke: #000000; stroke-width: 0.8"/>
      </g>
     </g>
     <g id="text_3">
      <!-- 200 -->
      <g transform="translate(330.394326 372.235625) scale(0.28 -0.28)">
       <defs>
        <path id="DejaVuSans-32" d="M 1228 531 
L 3431 531 
L 3431 0 
L 469 0 
L 469 531 
Q 828 903 1448 1529 
Q 2069 2156 2228 2338 
Q 2531 2678 2651 2914 
Q 2772 3150 2772 3378 
Q 2772 3750 2511 3984 
Q 2250 4219 1831 4219 
Q 1534 4219 1204 4116 
Q 875 4013 500 3803 
L 500 4441 
Q 881 4594 1212 4672 
Q 1544 4750 1819 4750 
Q 2544 4750 2975 4387 
Q 3406 4025 3406 3419 
Q 3406 3131 3298 2873 
Q 3191 2616 2906 2266 
Q 2828 2175 2409 1742 
Q 1991 1309 1228 531 
z
" transform="scale(0.015625)"/>
       </defs>
       <use xlink:href="#DejaVuSans-32"/>
       <use xlink:href="#DejaVuSans-30" x="63.623047"/>
       <use xlink:href="#DejaVuSans-30" x="127.246094"/>
      </g>
     </g>
    </g>
    <g id="xtick_4">
     <g id="line2d_4">
      <g>
       <use xlink:href="#m906fc3171e" x="465.114525" y="343.96" style="stroke: #000000; stroke-width: 0.8"/>
      </g>
     </g>
     <g id="text_4">
      <!-- 300 -->
      <g transform="translate(438.392025 372.235625) scale(0.28 -0.28)">
       <defs>
        <path id="DejaVuSans-33" d="M 2597 2516 
Q 3050 2419 3304 2112 
Q 3559 1806 3559 1356 
Q 3559 666 3084 287 
Q 2609 -91 1734 -91 
Q 1441 -91 1130 -33 
Q 819 25 488 141 
L 488 750 
Q 750 597 1062 519 
Q 1375 441 1716 441 
Q 2309 441 2620 675 
Q 2931 909 2931 1356 
Q 2931 1769 2642 2001 
Q 2353 2234 1838 2234 
L 1294 2234 
L 1294 2753 
L 1863 2753 
Q 2328 2753 2575 2939 
Q 2822 3125 2822 3475 
Q 2822 3834 2567 4026 
Q 2313 4219 1838 4219 
Q 1578 4219 1281 4162 
Q 984 4106 628 3988 
L 628 4550 
Q 988 4650 1302 4700 
Q 1616 4750 1894 4750 
Q 2613 4750 3031 4423 
Q 3450 4097 3450 3541 
Q 3450 3153 3228 2886 
Q 3006 2619 2597 2516 
z
" transform="scale(0.015625)"/>
       </defs>
       <use xlink:href="#DejaVuSans-33"/>
       <use xlink:href="#DejaVuSans-30" x="63.623047"/>
       <use xlink:href="#DejaVuSans-30" x="127.246094"/>
      </g>
     </g>
    </g>
    <g id="xtick_5">
     <g id="line2d_5">
      <g>
       <use xlink:href="#m906fc3171e" x="573.112224" y="343.96" style="stroke: #000000; stroke-width: 0.8"/>
      </g>
     </g>
     <g id="text_5">
      <!-- 400 -->
      <g transform="translate(546.389724 372.235625) scale(0.28 -0.28)">
       <defs>
        <path id="DejaVuSans-34" d="M 2419 4116 
L 825 1625 
L 2419 1625 
L 2419 4116 
z
M 2253 4666 
L 3047 4666 
L 3047 1625 
L 3713 1625 
L 3713 1100 
L 3047 1100 
L 3047 0 
L 2419 0 
L 2419 1100 
L 313 1100 
L 313 1709 
L 2253 4666 
z
" transform="scale(0.015625)"/>
       </defs>
       <use xlink:href="#DejaVuSans-34"/>
       <use xlink:href="#DejaVuSans-30" x="63.623047"/>
       <use xlink:href="#DejaVuSans-30" x="127.246094"/>
      </g>
     </g>
    </g>
    <g id="xtick_6">
     <g id="line2d_6">
      <g>
       <use xlink:href="#m906fc3171e" x="681.109923" y="343.96" style="stroke: #000000; stroke-width: 0.8"/>
      </g>
     </g>
     <g id="text_6">
      <!-- 500 -->
      <g transform="translate(654.387423 372.235625) scale(0.28 -0.28)">
       <defs>
        <path id="DejaVuSans-35" d="M 691 4666 
L 3169 4666 
L 3169 4134 
L 1269 4134 
L 1269 2991 
Q 1406 3038 1543 3061 
Q 1681 3084 1819 3084 
Q 2600 3084 3056 2656 
Q 3513 2228 3513 1497 
Q 3513 744 3044 326 
Q 2575 -91 1722 -91 
Q 1428 -91 1123 -41 
Q 819 9 494 109 
L 494 744 
Q 775 591 1075 516 
Q 1375 441 1709 441 
Q 2250 441 2565 725 
Q 2881 1009 2881 1497 
Q 2881 1984 2565 2268 
Q 2250 2553 1709 2553 
Q 1456 2553 1204 2497 
Q 953 2441 691 2322 
L 691 4666 
z
" transform="scale(0.015625)"/>
       </defs>
       <use xlink:href="#DejaVuSans-35"/>
       <use xlink:href="#DejaVuSans-30" x="63.623047"/>
       <use xlink:href="#DejaVuSans-30" x="127.246094"/>
      </g>
     </g>
    </g>
    <g id="text_7">
     <!-- Episode -->
     <g transform="translate(331.485698 412.4525) scale(0.4 -0.4)">
      <defs>
       <path id="DejaVuSans-45" d="M 628 4666 
L 3578 4666 
L 3578 4134 
L 1259 4134 
L 1259 2753 
L 3481 2753 
L 3481 2222 
L 1259 2222 
L 1259 531 
L 3634 531 
L 3634 0 
L 628 0 
L 628 4666 
z
" transform="scale(0.015625)"/>
       <path id="DejaVuSans-70" d="M 1159 525 
L 1159 -1331 
L 581 -1331 
L 581 3500 
L 1159 3500 
L 1159 2969 
Q 1341 3281 1617 3432 
Q 1894 3584 2278 3584 
Q 2916 3584 3314 3078 
Q 3713 2572 3713 1747 
Q 3713 922 3314 415 
Q 2916 -91 2278 -91 
Q 1894 -91 1617 61 
Q 1341 213 1159 525 
z
M 3116 1747 
Q 3116 2381 2855 2742 
Q 2594 3103 2138 3103 
Q 1681 3103 1420 2742 
Q 1159 2381 1159 1747 
Q 1159 1113 1420 752 
Q 1681 391 2138 391 
Q 2594 391 2855 752 
Q 3116 1113 3116 1747 
z
" transform="scale(0.015625)"/>
       <path id="DejaVuSans-69" d="M 603 3500 
L 1178 3500 
L 1178 0 
L 603 0 
L 603 3500 
z
M 603 4863 
L 1178 4863 
L 1178 4134 
L 603 4134 
L 603 4863 
z
" transform="scale(0.015625)"/>
       <path id="DejaVuSans-73" d="M 2834 3397 
L 2834 2853 
Q 2591 2978 2328 3040 
Q 2066 3103 1784 3103 
Q 1356 3103 1142 2972 
Q 928 2841 928 2578 
Q 928 2378 1081 2264 
Q 1234 2150 1697 2047 
L 1894 2003 
Q 2506 1872 2764 1633 
Q 3022 1394 3022 966 
Q 3022 478 2636 193 
Q 2250 -91 1575 -91 
Q 1294 -91 989 -36 
Q 684 19 347 128 
L 347 722 
Q 666 556 975 473 
Q 1284 391 1588 391 
Q 1994 391 2212 530 
Q 2431 669 2431 922 
Q 2431 1156 2273 1281 
Q 2116 1406 1581 1522 
L 1381 1569 
Q 847 1681 609 1914 
Q 372 2147 372 2553 
Q 372 3047 722 3315 
Q 1072 3584 1716 3584 
Q 2034 3584 2315 3537 
Q 2597 3491 2834 3397 
z
" transform="scale(0.015625)"/>
       <path id="DejaVuSans-6f" d="M 1959 3097 
Q 1497 3097 1228 2736 
Q 959 2375 959 1747 
Q 959 1119 1226 758 
Q 1494 397 1959 397 
Q 2419 397 2687 759 
Q 2956 1122 2956 1747 
Q 2956 2369 2687 2733 
Q 2419 3097 1959 3097 
z
M 1959 3584 
Q 2709 3584 3137 3096 
Q 3566 2609 3566 1747 
Q 3566 888 3137 398 
Q 2709 -91 1959 -91 
Q 1206 -91 779 398 
Q 353 888 353 1747 
Q 353 2609 779 3096 
Q 1206 3584 1959 3584 
z
" transform="scale(0.015625)"/>
       <path id="DejaVuSans-64" d="M 2906 2969 
L 2906 4863 
L 3481 4863 
L 3481 0 
L 2906 0 
L 2906 525 
Q 2725 213 2448 61 
Q 2172 -91 1784 -91 
Q 1150 -91 751 415 
Q 353 922 353 1747 
Q 353 2572 751 3078 
Q 1150 3584 1784 3584 
Q 2172 3584 2448 3432 
Q 2725 3281 2906 2969 
z
M 947 1747 
Q 947 1113 1208 752 
Q 1469 391 1925 391 
Q 2381 391 2643 752 
Q 2906 1113 2906 1747 
Q 2906 2381 2643 2742 
Q 2381 3103 1925 3103 
Q 1469 3103 1208 2742 
Q 947 2381 947 1747 
z
" transform="scale(0.015625)"/>
       <path id="DejaVuSans-65" d="M 3597 1894 
L 3597 1613 
L 953 1613 
Q 991 1019 1311 708 
Q 1631 397 2203 397 
Q 2534 397 2845 478 
Q 3156 559 3463 722 
L 3463 178 
Q 3153 47 2828 -22 
Q 2503 -91 2169 -91 
Q 1331 -91 842 396 
Q 353 884 353 1716 
Q 353 2575 817 3079 
Q 1281 3584 2069 3584 
Q 2775 3584 3186 3129 
Q 3597 2675 3597 1894 
z
M 3022 2063 
Q 3016 2534 2758 2815 
Q 2500 3097 2075 3097 
Q 1594 3097 1305 2825 
Q 1016 2553 972 2059 
L 3022 2063 
z
" transform="scale(0.015625)"/>
      </defs>
      <use xlink:href="#DejaVuSans-45"/>
      <use xlink:href="#DejaVuSans-70" x="63.183594"/>
      <use xlink:href="#DejaVuSans-69" x="126.660156"/>
      <use xlink:href="#DejaVuSans-73" x="154.443359"/>
      <use xlink:href="#DejaVuSans-6f" x="206.542969"/>
      <use xlink:href="#DejaVuSans-64" x="267.724609"/>
      <use xlink:href="#DejaVuSans-65" x="331.201172"/>
     </g>
    </g>
   </g>
   <g id="matplotlib.axis_2">
    <g id="ytick_1">
     <g id="line2d_7">
      <defs>
       <path id="m721eca7b54" d="M 0 0 
L -3.5 0 
" style="stroke: #000000; stroke-width: 0.8"/>
      </defs>
      <g>
       <use xlink:href="#m721eca7b54" x="114.23" y="315.312668" style="stroke: #000000; stroke-width: 0.8"/>
      </g>
     </g>
     <g id="text_8">
      <!-- 125 -->
      <g transform="translate(53.785 325.950481) scale(0.28 -0.28)">
       <use xlink:href="#DejaVuSans-31"/>
       <use xlink:href="#DejaVuSans-32" x="63.623047"/>
       <use xlink:href="#DejaVuSans-35" x="127.246094"/>
      </g>
     </g>
    </g>
    <g id="ytick_2">
     <g id="line2d_8">
      <g>
       <use xlink:href="#m721eca7b54" x="114.23" y="269.106376" style="stroke: #000000; stroke-width: 0.8"/>
      </g>
     </g>
     <g id="text_9">
      <!-- 150 -->
      <g transform="translate(53.785 279.744188) scale(0.28 -0.28)">
       <use xlink:href="#DejaVuSans-31"/>
       <use xlink:href="#DejaVuSans-35" x="63.623047"/>
       <use xlink:href="#DejaVuSans-30" x="127.246094"/>
      </g>
     </g>
    </g>
    <g id="ytick_3">
     <g id="line2d_9">
      <g>
       <use xlink:href="#m721eca7b54" x="114.23" y="222.900083" style="stroke: #000000; stroke-width: 0.8"/>
      </g>
     </g>
     <g id="text_10">
      <!-- 175 -->
      <g transform="translate(53.785 233.537896) scale(0.28 -0.28)">
       <defs>
        <path id="DejaVuSans-37" d="M 525 4666 
L 3525 4666 
L 3525 4397 
L 1831 0 
L 1172 0 
L 2766 4134 
L 525 4134 
L 525 4666 
z
" transform="scale(0.015625)"/>
       </defs>
       <use xlink:href="#DejaVuSans-31"/>
       <use xlink:href="#DejaVuSans-37" x="63.623047"/>
       <use xlink:href="#DejaVuSans-35" x="127.246094"/>
      </g>
     </g>
    </g>
    <g id="ytick_4">
     <g id="line2d_10">
      <g>
       <use xlink:href="#m721eca7b54" x="114.23" y="176.693791" style="stroke: #000000; stroke-width: 0.8"/>
      </g>
     </g>
     <g id="text_11">
      <!-- 200 -->
      <g transform="translate(53.785 187.331603) scale(0.28 -0.28)">
       <use xlink:href="#DejaVuSans-32"/>
       <use xlink:href="#DejaVuSans-30" x="63.623047"/>
       <use xlink:href="#DejaVuSans-30" x="127.246094"/>
      </g>
     </g>
    </g>
    <g id="ytick_5">
     <g id="line2d_11">
      <g>
       <use xlink:href="#m721eca7b54" x="114.23" y="130.487498" style="stroke: #000000; stroke-width: 0.8"/>
      </g>
     </g>
     <g id="text_12">
      <!-- 225 -->
      <g transform="translate(53.785 141.12531) scale(0.28 -0.28)">
       <use xlink:href="#DejaVuSans-32"/>
       <use xlink:href="#DejaVuSans-32" x="63.623047"/>
       <use xlink:href="#DejaVuSans-35" x="127.246094"/>
      </g>
     </g>
    </g>
    <g id="ytick_6">
     <g id="line2d_12">
      <g>
       <use xlink:href="#m721eca7b54" x="114.23" y="84.281205" style="stroke: #000000; stroke-width: 0.8"/>
      </g>
     </g>
     <g id="text_13">
      <!-- 250 -->
      <g transform="translate(53.785 94.919018) scale(0.28 -0.28)">
       <use xlink:href="#DejaVuSans-32"/>
       <use xlink:href="#DejaVuSans-35" x="63.623047"/>
       <use xlink:href="#DejaVuSans-30" x="127.246094"/>
      </g>
     </g>
    </g>
    <g id="ytick_7">
     <g id="line2d_13">
      <g>
       <use xlink:href="#m721eca7b54" x="114.23" y="38.074913" style="stroke: #000000; stroke-width: 0.8"/>
      </g>
     </g>
     <g id="text_14">
      <!-- 275 -->
      <g transform="translate(53.785 48.712725) scale(0.28 -0.28)">
       <use xlink:href="#DejaVuSans-32"/>
       <use xlink:href="#DejaVuSans-37" x="63.623047"/>
       <use xlink:href="#DejaVuSans-35" x="127.246094"/>
      </g>
     </g>
    </g>
    <g id="text_15">
     <!-- $m_{to}$ -->
     <g transform="translate(41.46625 211.58) rotate(-90) scale(0.4 -0.4)">
      <defs>
       <path id="DejaVuSans-Oblique-6d" d="M 5747 2113 
L 5338 0 
L 4763 0 
L 5166 2094 
Q 5191 2228 5203 2325 
Q 5216 2422 5216 2491 
Q 5216 2772 5059 2928 
Q 4903 3084 4622 3084 
Q 4203 3084 3875 2770 
Q 3547 2456 3450 1953 
L 3066 0 
L 2491 0 
L 2900 2094 
Q 2925 2209 2937 2307 
Q 2950 2406 2950 2484 
Q 2950 2769 2794 2926 
Q 2638 3084 2363 3084 
Q 1938 3084 1609 2770 
Q 1281 2456 1184 1953 
L 800 0 
L 225 0 
L 909 3500 
L 1484 3500 
L 1375 2956 
Q 1609 3263 1923 3423 
Q 2238 3584 2597 3584 
Q 2978 3584 3223 3384 
Q 3469 3184 3519 2828 
Q 3781 3197 4126 3390 
Q 4472 3584 4856 3584 
Q 5306 3584 5551 3325 
Q 5797 3066 5797 2591 
Q 5797 2488 5784 2364 
Q 5772 2241 5747 2113 
z
" transform="scale(0.015625)"/>
       <path id="DejaVuSans-Oblique-74" d="M 2706 3500 
L 2619 3053 
L 1472 3053 
L 1100 1153 
Q 1081 1047 1072 975 
Q 1063 903 1063 863 
Q 1063 663 1183 572 
Q 1303 481 1569 481 
L 2150 481 
L 2053 0 
L 1503 0 
Q 991 0 739 200 
Q 488 400 488 806 
Q 488 878 497 964 
Q 506 1050 525 1153 
L 897 3053 
L 409 3053 
L 500 3500 
L 978 3500 
L 1172 4494 
L 1747 4494 
L 1556 3500 
L 2706 3500 
z
" transform="scale(0.015625)"/>
       <path id="DejaVuSans-Oblique-6f" d="M 1625 -91 
Q 1009 -91 651 289 
Q 294 669 294 1325 
Q 294 1706 417 2101 
Q 541 2497 738 2766 
Q 1047 3184 1428 3384 
Q 1809 3584 2291 3584 
Q 2888 3584 3255 3212 
Q 3622 2841 3622 2241 
Q 3622 1825 3500 1412 
Q 3378 1000 3181 728 
Q 2875 309 2494 109 
Q 2113 -91 1625 -91 
z
M 891 1344 
Q 891 869 1089 633 
Q 1288 397 1691 397 
Q 2269 397 2648 901 
Q 3028 1406 3028 2181 
Q 3028 2634 2825 2865 
Q 2622 3097 2228 3097 
Q 1903 3097 1650 2945 
Q 1397 2794 1197 2484 
Q 1050 2253 970 1956 
Q 891 1659 891 1344 
z
" transform="scale(0.015625)"/>
      </defs>
      <use xlink:href="#DejaVuSans-Oblique-6d"/>
      <use xlink:href="#DejaVuSans-Oblique-74" transform="translate(97.412109 -16.40625) scale(0.7)"/>
      <use xlink:href="#DejaVuSans-Oblique-6f" transform="translate(124.858398 -16.40625) scale(0.7)"/>
     </g>
    </g>
   </g>
   <g id="line2d_14">
    <path d="M 141.121427 191.993207 
L 144.361358 208.524792 
L 147.601289 220.025025 
L 150.84122 236.55661 
L 154.081151 236.65929 
L 157.321082 231.114535 
L 160.561013 238.815584 
L 163.800944 236.761971 
L 167.040875 234.297635 
L 170.280806 245.387145 
L 173.520737 244.154978 
L 176.760668 249.28901 
L 180.000599 237.070013 
L 183.24053 236.248568 
L 186.480461 246.619313 
L 189.720392 252.780152 
L 192.960323 252.677472 
L 196.200254 260.891924 
L 199.440185 265.820595 
L 202.680116 278.758357 
L 205.920047 278.039592 
L 209.159978 280.81197 
L 212.399909 283.789709 
L 215.63984 278.347634 
L 218.879771 277.012786 
L 222.119702 273.727005 
L 225.359633 288.923741 
L 228.599564 290.977354 
L 231.839494 298.062319 
L 235.079425 292.620245 
L 238.319356 289.642506 
L 241.559287 298.473042 
L 244.799218 291.593438 
L 248.039149 283.687028 
L 251.27908 281.325373 
L 254.519011 276.294021 
L 257.758942 281.736096 
L 260.998873 277.012786 
L 264.238804 274.54845 
L 267.478735 274.753811 
L 270.718666 276.910105 
L 273.958597 296.62479 
L 277.198528 285.021876 
L 280.438459 290.053228 
L 283.67839 293.54437 
L 286.918321 292.209522 
L 293.398183 292.209522 
L 296.638114 282.660221 
L 299.878045 288.923741 
L 303.117976 301.553461 
L 306.357907 295.803345 
L 309.597838 303.812435 
L 312.837769 289.437144 
L 316.0777 295.906025 
L 319.317631 279.682483 
L 322.557562 281.736096 
L 325.797493 267.360805 
L 329.037424 277.115466 
L 332.277355 277.936912 
L 335.517286 286.151364 
L 338.757217 277.423508 
L 341.997148 282.249499 
L 345.237079 271.776073 
L 348.47701 282.45486 
L 351.716941 266.950082 
L 354.956872 283.378986 
L 358.196803 282.146818 
L 361.436734 272.597518 
L 364.676665 269.414418 
L 367.916596 269.619779 
L 371.156527 268.901014 
L 374.396457 263.45894 
L 377.636388 248.159523 
L 380.876319 254.01232 
L 384.11625 263.972343 
L 387.356181 259.865117 
L 390.596112 269.414418 
L 393.836043 270.646585 
L 397.075974 270.749266 
L 400.315905 266.950082 
L 403.555836 262.637495 
L 406.795767 265.409872 
L 410.035698 263.356259 
L 413.275629 278.450315 
L 416.51556 276.807424 
L 419.755491 284.816515 
L 422.995422 298.165 
L 426.235353 288.82106 
L 429.475284 283.070944 
L 432.715215 293.236328 
L 435.955146 296.522109 
L 439.195077 282.968263 
L 442.435008 283.584347 
L 445.674939 274.856492 
L 448.91487 275.575257 
L 452.154801 296.522109 
L 455.394732 290.36127 
L 458.634663 283.687028 
L 461.874594 290.053228 
L 465.114525 302.374906 
L 471.594387 289.539825 
L 474.834318 301.656142 
L 478.074249 304.5312 
L 481.31418 291.490757 
L 484.554111 295.700664 
L 487.794042 293.133648 
L 491.033973 291.388077 
L 494.273904 293.852412 
L 497.513835 287.280851 
L 500.753766 292.825606 
L 503.993697 285.946002 
L 507.233628 280.401247 
L 510.473559 284.816515 
L 513.71349 284.200431 
L 516.953421 290.566632 
L 520.193351 293.852412 
L 523.433282 293.749732 
L 526.673213 294.057774 
L 529.913144 284.816515 
L 533.153075 301.142739 
L 536.393006 293.955093 
L 539.632937 285.53528 
L 542.872868 281.530734 
L 546.112799 280.503928 
L 549.35273 286.972809 
L 555.832592 284.919196 
L 559.072523 287.17817 
L 562.312454 294.160454 
L 565.552385 293.133648 
L 568.792316 283.173625 
L 572.032247 287.794254 
L 575.272178 297.959638 
L 578.512109 283.276305 
L 581.75204 299.705209 
L 584.991971 300.629335 
L 588.231902 299.80789 
L 591.471833 312.232249 
L 594.711764 311.410804 
L 597.951695 296.522109 
L 601.191626 292.004161 
L 604.431557 287.17817 
L 607.671488 306.687494 
L 610.911419 297.548916 
L 614.15135 300.013251 
L 617.391281 299.294487 
L 620.631212 299.191806 
L 623.871143 306.584813 
L 627.111074 296.214067 
L 633.590936 317.16092 
L 636.830867 311.205442 
L 640.070798 308.022342 
L 643.310729 308.946468 
L 646.55066 314.0805 
L 649.790591 312.642971 
L 653.030522 309.151829 
L 656.270453 313.772458 
L 659.510384 319.111852 
L 662.750314 320.652062 
L 665.990245 309.973274 
L 669.230176 309.357191 
L 672.470107 316.339475 
L 675.710038 311.513484 
L 678.949969 321.062785 
L 678.949969 321.062785 
" clip-path="url(#p0a39743adc)" style="fill: none; stroke: #0000ff; stroke-width: 3; stroke-linecap: square"/>
   </g>
   <g id="line2d_15">
    <path d="M 141.121427 90.750086 
L 144.361358 87.361625 
L 147.601289 88.285751 
L 150.84122 94.138548 
L 154.081151 96.397522 
L 157.321082 98.964538 
L 160.561013 97.321648 
L 163.800944 100.196706 
L 167.040875 101.428874 
L 170.280806 105.741461 
L 173.520737 108.61652 
L 176.760668 107.897755 
L 180.000599 108.61652 
L 183.24053 106.870948 
L 186.480461 102.969084 
L 189.720392 105.228058 
L 196.200254 105.844142 
L 199.440185 107.795074 
L 202.680116 108.411158 
L 205.920047 106.665587 
L 209.159978 108.000436 
L 212.399909 100.607429 
L 218.879771 89.72328 
L 222.119702 90.134002 
L 225.359633 87.977709 
L 228.599564 98.553816 
L 231.839494 94.54927 
L 235.079425 95.576077 
L 238.319356 88.080389 
L 241.559287 89.72328 
L 244.799218 93.214422 
L 248.039149 96.08948 
L 251.27908 97.835051 
L 254.519011 98.861858 
L 257.758942 91.982254 
L 260.998873 94.138548 
L 264.238804 95.370716 
L 267.478735 95.781438 
L 270.718666 91.776893 
L 273.958597 93.727825 
L 277.198528 85.102651 
L 280.438459 94.035867 
L 283.67839 84.794609 
L 286.918321 87.053583 
L 290.158252 85.513373 
L 293.398183 84.281205 
L 296.638114 85.410693 
L 299.878045 91.160809 
L 303.117976 92.084935 
L 306.357907 88.388431 
L 309.597838 89.72328 
L 312.837769 91.26349 
L 316.0777 82.330273 
L 319.317631 80.482021 
L 322.557562 81.91955 
L 325.797493 82.740996 
L 329.037424 79.968618 
L 332.277355 75.758711 
L 335.517286 72.780973 
L 338.757217 77.09356 
L 341.997148 78.63377 
L 345.237079 70.624679 
L 348.47701 74.218502 
L 351.716941 77.401602 
L 354.956872 73.602418 
L 358.196803 73.807779 
L 361.436734 69.084469 
L 364.676665 66.10673 
L 367.916596 66.825495 
L 371.156527 62.615588 
L 374.396457 64.771882 
L 377.636388 63.539714 
L 380.876319 59.021765 
L 384.11625 59.432488 
L 387.356181 64.874563 
L 390.596112 63.642395 
L 393.836043 66.722814 
L 397.075974 69.18715 
L 400.315905 67.030856 
L 403.555836 57.789598 
L 406.795767 65.593327 
L 410.035698 60.870017 
L 413.275629 57.584236 
L 416.51556 60.767337 
L 419.755491 55.633304 
L 422.995422 56.454749 
L 426.235353 59.329807 
L 429.475284 58.20032 
L 432.715215 55.119901 
L 435.955146 60.767337 
L 439.195077 55.427943 
L 442.435008 55.119901 
L 445.674939 54.195775 
L 448.91487 50.088549 
L 452.154801 52.655565 
L 455.394732 50.29391 
L 458.634663 52.039481 
L 461.874594 49.575146 
L 465.114525 47.418852 
L 468.354456 52.758246 
L 471.594387 50.601952 
L 474.834318 50.704633 
L 478.074249 55.735985 
L 481.31418 53.682372 
L 484.554111 52.963607 
L 487.794042 56.454749 
L 491.033973 56.249388 
L 494.273904 50.807313 
L 497.513835 47.829575 
L 500.753766 53.37433 
L 503.993697 53.271649 
L 507.233628 52.244843 
L 510.473559 51.83412 
L 513.71349 49.472465 
L 516.953421 49.575146 
L 520.193351 56.249388 
L 523.433282 55.325262 
L 526.673213 50.088549 
L 529.913144 52.142162 
L 533.153075 53.47701 
L 536.393006 56.55743 
L 539.632937 53.990414 
L 546.112799 54.709178 
L 549.35273 48.034936 
L 552.592661 51.012675 
L 555.832592 49.061742 
L 559.072523 51.320717 
L 562.312454 48.856381 
L 565.552385 54.709178 
L 568.792316 46.084004 
L 572.032247 44.235752 
L 575.272178 49.267104 
L 578.512109 47.521533 
L 581.75204 50.088549 
L 584.991971 50.088549 
L 588.231902 48.856381 
L 591.471833 50.909994 
L 594.711764 49.369784 
L 597.951695 51.012675 
L 601.191626 46.392046 
L 604.431557 45.159878 
L 607.671488 49.883188 
L 610.911419 44.338433 
L 614.15135 48.65102 
L 617.391281 52.142162 
L 620.631212 53.990414 
L 623.871143 46.392046 
L 627.111074 47.11081 
L 630.351005 48.034936 
L 633.590936 45.057197 
L 636.830867 47.829575 
L 640.070798 49.575146 
L 643.310729 47.624213 
L 649.790591 51.731439 
L 653.030522 49.575146 
L 656.270453 48.959062 
L 659.510384 48.137617 
L 662.750314 45.981323 
L 665.990245 45.878642 
L 669.230176 46.289365 
L 672.470107 46.186684 
L 675.710038 49.369784 
L 678.949969 45.775962 
L 678.949969 45.775962 
" clip-path="url(#p0a39743adc)" style="fill: none; stroke: #008000; stroke-width: 3; stroke-linecap: square"/>
   </g>
   <g id="line2d_16">
    <path d="M 141.121427 88.491112 
L 144.361358 96.500203 
L 147.601289 92.290296 
L 150.84122 92.90638 
L 154.081151 92.392977 
L 157.321082 93.214422 
L 160.561013 97.732371 
L 163.800944 95.165354 
L 167.040875 100.196706 
L 170.280806 101.428874 
L 173.520737 102.45568 
L 176.760668 107.487032 
L 180.000599 99.27258 
L 183.24053 107.487032 
L 186.480461 105.125377 
L 189.720392 109.129923 
L 192.960323 105.433419 
L 196.200254 107.17899 
L 199.440185 99.375261 
L 202.680116 101.839597 
L 205.920047 104.509293 
L 209.159978 109.027242 
L 212.399909 109.232603 
L 215.63984 106.562907 
L 218.879771 105.946823 
L 222.119702 106.460226 
L 225.359633 104.201252 
L 228.599564 98.245774 
L 231.839494 108.000436 
L 235.079425 116.112207 
L 238.319356 107.17899 
L 241.559287 112.107662 
L 244.799218 113.339829 
L 248.039149 106.460226 
L 251.27908 106.460226 
L 254.519011 103.379806 
L 257.758942 110.670133 
L 260.998873 112.518384 
L 264.238804 113.853233 
L 267.478735 107.795074 
L 270.718666 107.17899 
L 273.958597 109.437965 
L 277.198528 116.214888 
L 280.438459 107.17899 
L 283.67839 104.920016 
L 286.918321 109.437965 
L 290.158252 110.25941 
L 293.398183 107.487032 
L 296.638114 113.955913 
L 299.878045 109.643326 
L 303.117976 106.973629 
L 306.357907 106.049503 
L 309.597838 109.027242 
L 312.837769 107.07631 
L 316.0777 111.080855 
L 319.317631 113.134468 
L 322.557562 113.545191 
L 325.797493 114.366636 
L 329.037424 104.817335 
L 332.277355 108.821881 
L 335.517286 108.61652 
L 338.757217 105.741461 
L 341.997148 105.946823 
L 345.237079 112.621065 
L 348.47701 115.393442 
L 351.716941 110.054049 
L 354.956872 108.61652 
L 358.196803 108.513839 
L 361.436734 113.237149 
L 364.676665 109.746007 
L 367.916596 106.870948 
L 371.156527 108.61652 
L 374.396457 108.7192 
L 377.636388 109.540645 
L 380.876319 109.746007 
L 384.11625 112.210342 
L 387.356181 109.437965 
L 390.596112 114.98272 
L 393.836043 109.540645 
L 397.075974 110.772813 
L 400.315905 113.750552 
L 403.555836 112.313023 
L 406.795767 108.924561 
L 410.035698 115.598804 
L 413.275629 113.955913 
L 416.51556 120.116752 
L 419.755491 116.62561 
L 422.995422 113.44251 
L 426.235353 114.571997 
L 429.475284 111.594258 
L 432.715215 124.840062 
L 435.955146 117.549736 
L 439.195077 114.571997 
L 442.435008 108.308478 
L 445.674939 110.772813 
L 448.91487 116.62561 
L 452.154801 114.98272 
L 455.394732 117.857778 
L 458.634663 117.241694 
L 461.874594 117.447055 
L 465.114525 115.496123 
L 468.354456 122.478407 
L 471.594387 111.491578 
L 474.834318 116.420249 
L 478.074249 113.237149 
L 481.31418 113.44251 
L 484.554111 110.464771 
L 487.794042 120.424794 
L 491.033973 117.241694 
L 494.273904 120.116752 
L 497.513835 120.219433 
L 500.753766 114.777359 
L 503.993697 112.313023 
L 507.233628 121.656962 
L 510.473559 104.714655 
L 513.71349 114.469317 
L 516.953421 111.79962 
L 520.193351 114.777359 
L 523.433282 108.205797 
L 526.673213 115.290762 
L 529.913144 121.451601 
L 533.153075 115.496123 
L 536.393006 112.210342 
L 539.632937 122.581088 
L 542.872868 120.527475 
L 549.35273 119.192626 
L 552.592661 116.112207 
L 555.832592 117.960459 
L 559.072523 113.031787 
L 562.312454 110.054049 
L 565.552385 117.344375 
L 568.792316 119.80871 
L 572.032247 116.214888 
L 575.272178 115.804165 
L 578.512109 116.62561 
L 581.75204 114.777359 
L 584.991971 121.862323 
L 588.231902 121.862323 
L 591.471833 120.322114 
L 594.711764 117.344375 
L 597.951695 116.214888 
L 601.191626 122.478407 
L 604.431557 119.295307 
L 607.671488 127.71512 
L 610.911419 121.656962 
L 614.15135 121.862323 
L 617.391281 117.139013 
L 620.631212 123.299852 
L 623.871143 121.34892 
L 627.111074 120.732836 
L 630.351005 122.170365 
L 633.590936 117.036333 
L 636.830867 125.353465 
L 640.070798 122.581088 
L 643.310729 122.683769 
L 646.55066 121.862323 
L 649.790591 122.581088 
L 653.030522 119.089946 
L 656.270453 126.380272 
L 659.510384 121.040878 
L 662.750314 117.344375 
L 665.990245 125.353465 
L 669.230176 122.683769 
L 672.470107 116.830972 
L 675.710038 117.447055 
L 678.949969 121.143559 
L 678.949969 121.143559 
" clip-path="url(#p0a39743adc)" style="fill: none; stroke: #ff0000; stroke-width: 3; stroke-linecap: square"/>
   </g>
   <g id="line2d_17">
    <path d="M 141.121427 84.794609 
L 144.361358 91.776893 
L 147.601289 92.392977 
L 150.84122 94.857312 
L 154.081151 95.884119 
L 157.321082 94.138548 
L 160.561013 103.99589 
L 163.800944 95.884119 
L 167.040875 100.196706 
L 170.280806 96.808245 
L 173.520737 103.99589 
L 176.760668 106.665587 
L 180.000599 109.848687 
L 183.24053 106.768268 
L 186.480461 109.232603 
L 189.720392 114.674678 
L 192.960323 118.16582 
L 196.200254 113.750552 
L 199.440185 119.192626 
L 202.680116 117.344375 
L 205.920047 117.857778 
L 209.159978 119.911391 
L 212.399909 119.500668 
L 215.63984 118.063139 
L 218.879771 121.246239 
L 222.119702 122.683769 
L 225.359633 127.407078 
L 228.599564 123.915936 
L 231.839494 117.652417 
L 235.079425 112.929107 
L 238.319356 112.929107 
L 241.559287 118.884585 
L 244.799218 112.313023 
L 248.039149 113.031787 
L 251.27908 116.214888 
L 254.519011 112.518384 
L 257.758942 118.473862 
L 260.998873 115.0854 
L 264.238804 117.036333 
L 267.478735 121.451601 
L 270.718666 124.223978 
L 273.958597 128.844608 
L 277.198528 122.786449 
L 280.438459 134.902766 
L 283.67839 129.25533 
L 286.918321 133.157195 
L 290.158252 144.246705 
L 293.398183 144.96547 
L 296.638114 144.246705 
L 299.878045 138.907311 
L 303.117976 138.393908 
L 306.357907 133.97864 
L 309.597838 140.960924 
L 312.837769 136.648337 
L 316.0777 142.911857 
L 319.317631 139.831437 
L 322.557562 133.773279 
L 325.797493 141.782369 
L 329.037424 129.460691 
L 332.277355 135.416169 
L 335.517286 134.492043 
L 338.757217 135.416169 
L 341.997148 141.474328 
L 345.237079 144.041344 
L 348.47701 149.586099 
L 351.716941 150.715586 
L 354.956872 153.898686 
L 358.196803 151.228989 
L 361.436734 148.045889 
L 364.676665 145.786915 
L 367.916596 145.376192 
L 371.156527 144.657428 
L 374.396457 137.367102 
L 377.636388 141.063605 
L 380.876319 146.813721 
L 384.11625 140.960924 
L 387.356181 131.925027 
L 390.596112 137.777824 
L 393.836043 132.33575 
L 397.075974 130.179456 
L 400.315905 130.898221 
L 403.555836 129.460691 
L 406.795767 125.250785 
L 410.035698 117.344375 
L 413.275629 124.942743 
L 416.51556 119.192626 
L 419.755491 123.505214 
L 422.995422 126.688314 
L 426.235353 124.53202 
L 429.475284 113.853233 
L 432.715215 122.170365 
L 435.955146 114.469317 
L 439.195077 112.415704 
L 442.435008 121.040878 
L 445.674939 125.045424 
L 448.91487 122.375727 
L 452.154801 131.925027 
L 455.394732 125.250785 
L 458.634663 127.71512 
L 461.874594 130.898221 
L 465.114525 128.125843 
L 468.354456 121.040878 
L 471.594387 126.277591 
L 474.834318 125.866869 
L 478.074249 121.451601 
L 481.31418 121.34892 
L 484.554111 124.634701 
L 487.794042 125.045424 
L 491.033973 126.996356 
L 494.273904 121.143559 
L 497.513835 129.871414 
L 500.753766 132.233069 
L 503.993697 127.304398 
L 507.233628 130.179456 
L 510.473559 127.407078 
L 513.71349 130.692859 
L 516.953421 127.817801 
L 520.193351 125.764188 
L 523.433282 135.313489 
L 526.673213 127.304398 
L 529.913144 131.925027 
L 533.153075 126.688314 
L 536.393006 131.308943 
L 539.632937 129.871414 
L 542.872868 125.353465 
L 546.112799 124.018617 
L 549.35273 120.630156 
L 552.592661 122.170365 
L 555.832592 111.388897 
L 559.072523 109.027242 
L 562.312454 115.701484 
L 565.552385 105.741461 
L 568.792316 113.955913 
L 572.032247 112.313023 
L 575.272178 111.594258 
L 578.512109 109.643326 
L 581.75204 105.5361 
L 584.991971 110.25941 
L 588.231902 113.750552 
L 591.471833 108.7192 
L 594.711764 105.228058 
L 597.951695 111.696939 
L 601.191626 112.107662 
L 604.431557 117.241694 
L 607.671488 121.656962 
L 610.911419 114.058594 
L 614.15135 115.804165 
L 617.391281 110.054049 
L 620.631212 116.420249 
L 623.871143 114.161275 
L 627.111074 112.313023 
L 630.351005 118.063139 
L 633.590936 118.987265 
L 636.830867 120.322114 
L 640.070798 116.009526 
L 643.310729 107.897755 
L 646.55066 114.161275 
L 649.790591 116.933652 
L 653.030522 114.263955 
L 656.270453 113.031787 
L 659.510384 112.929107 
L 662.750314 110.670133 
L 665.990245 113.134468 
L 669.230176 109.540645 
L 672.470107 110.25941 
L 675.710038 106.254865 
L 678.949969 106.049503 
L 678.949969 106.049503 
" clip-path="url(#p0a39743adc)" style="fill: none; stroke: #ffa500; stroke-width: 3; stroke-linecap: square"/>
   </g>
   <g id="patch_3">
    <path d="M 114.23 343.96 
L 114.23 10.8 
" style="fill: none; stroke: #000000; stroke-width: 0.8; stroke-linejoin: miter; stroke-linecap: square"/>
   </g>
   <g id="patch_4">
    <path d="M 705.841396 343.96 
L 705.841396 10.8 
" style="fill: none; stroke: #000000; stroke-width: 0.8; stroke-linejoin: miter; stroke-linecap: square"/>
   </g>
   <g id="patch_5">
    <path d="M 114.23 343.96 
L 705.841396 343.96 
" style="fill: none; stroke: #000000; stroke-width: 0.8; stroke-linejoin: miter; stroke-linecap: square"/>
   </g>
   <g id="patch_6">
    <path d="M 114.23 10.8 
L 705.841396 10.8 
" style="fill: none; stroke: #000000; stroke-width: 0.8; stroke-linejoin: miter; stroke-linecap: square"/>
   </g>
  </g>
 </g>
 <defs>
  <clipPath id="p0a39743adc">
   <rect x="114.23" y="10.8" width="591.611396" height="333.16"/>
  </clipPath>
 </defs>
</svg>
