<?xml version="1.0" encoding="utf-8" standalone="no"?>
<!DOCTYPE svg PUBLIC "-//W3C//DTD SVG 1.1//EN"
  "http://www.w3.org/Graphics/SVG/1.1/DTD/svg11.dtd">
<svg xmlns:xlink="http://www.w3.org/1999/xlink" width="864pt" height="432pt" viewBox="0 0 864 432" xmlns="http://www.w3.org/2000/svg" version="1.1">
 <metadata>
  <rdf:RDF xmlns:dc="http://purl.org/dc/elements/1.1/" xmlns:cc="http://creativecommons.org/ns#" xmlns:rdf="http://www.w3.org/1999/02/22-rdf-syntax-ns#">
   <cc:Work>
    <dc:type rdf:resource="http://purl.org/dc/dcmitype/StillImage"/>
    <dc:date>2025-06-19T21:26:34.670881</dc:date>
    <dc:format>image/svg+xml</dc:format>
    <dc:creator>
     <cc:Agent>
      <dc:title>Matplotlib v3.7.1, https://matplotlib.org/</dc:title>
     </cc:Agent>
    </dc:creator>
   </cc:Work>
  </rdf:RDF>
 </metadata>
 <defs>
  <style type="text/css">*{stroke-linejoin: round; stroke-linecap: butt}</style>
 </defs>
 <g id="figure_1">
  <g id="patch_1">
   <path d="M 0 432 
L 864 432 
L 864 0 
L 0 0 
z
" style="fill: #ffffff"/>
  </g>
  <g id="axes_1">
   <g id="patch_2">
    <path d="M 110.18 354.76 
L 835.093351 354.76 
L 835.093351 10.8 
L 110.18 10.8 
z
" style="fill: #ffffff"/>
   </g>
   <g id="PolyCollection_1">
    <defs>
     <path id="mfd85de0121" d="M 143.130607 -85.139766 
L 143.130607 -85.139766 
L 145.426816 -85.139766 
L 147.723026 -85.139766 
L 150.019235 -85.139766 
L 152.315445 -85.139766 
L 154.611655 -85.139766 
L 156.907864 -85.139766 
L 159.204074 -85.139766 
L 161.500283 -85.139766 
L 163.796493 -85.139766 
L 166.092702 -85.139766 
L 168.388912 -85.139766 
L 170.685121 -85.139766 
L 172.981331 -85.139766 
L 175.27754 -85.139766 
L 177.57375 -85.139766 
L 179.869959 -85.139766 
L 182.166169 -85.139766 
L 184.462379 -85.139766 
L 186.758588 -85.139766 
L 189.054798 -85.139766 
L 191.351007 -85.139766 
L 193.647217 -85.139766 
L 195.943426 -85.139766 
L 198.239636 -85.139766 
L 200.535845 -85.139766 
L 202.832055 -85.139766 
L 205.128264 -85.139766 
L 207.424474 -85.139766 
L 209.720683 -85.139766 
L 212.016893 -85.139766 
L 214.313103 -85.139766 
L 216.609312 -85.139766 
L 218.905522 -85.139766 
L 221.201731 -85.139766 
L 223.497941 -85.139766 
L 225.79415 -85.139766 
L 228.09036 -85.139766 
L 230.386569 -85.139766 
L 232.682779 -85.139766 
L 234.978988 -85.139766 
L 237.275198 -85.139766 
L 239.571407 -85.139766 
L 241.867617 -85.139766 
L 244.163827 -85.139766 
L 246.460036 -85.139766 
L 248.756246 -85.139766 
L 251.052455 -85.139766 
L 253.348665 -85.139766 
L 255.644874 -85.139766 
L 257.941084 -85.139766 
L 260.237293 -85.139766 
L 262.533503 -85.139766 
L 264.829712 -85.139766 
L 267.125922 -85.139766 
L 269.422131 -85.139766 
L 271.718341 -85.139766 
L 274.014551 -85.139766 
L 276.31076 -85.139766 
L 278.60697 -85.139766 
L 280.903179 -85.139766 
L 283.199389 -85.139766 
L 285.495598 -85.139766 
L 287.791808 -85.139766 
L 290.088017 -85.139766 
L 292.384227 -85.139766 
L 294.680436 -85.139766 
L 296.976646 -85.139766 
L 299.272855 -85.139766 
L 301.569065 -85.139766 
L 303.865275 -85.139766 
L 306.161484 -85.139766 
L 308.457694 -85.139766 
L 310.753903 -85.139766 
L 313.050113 -85.139766 
L 315.346322 -85.139766 
L 317.642532 -85.139766 
L 319.938741 -85.139766 
L 322.234951 -85.139766 
L 324.53116 -85.139766 
L 326.82737 -85.139766 
L 329.123579 -85.139766 
L 331.419789 -85.139766 
L 333.715999 -85.139766 
L 336.012208 -85.139766 
L 338.308418 -85.139766 
L 340.604627 -85.139766 
L 342.900837 -85.139766 
L 345.197046 -85.139766 
L 347.493256 -85.139766 
L 349.789465 -85.139766 
L 352.085675 -85.139766 
L 354.381884 -85.139766 
L 356.678094 -85.139766 
L 358.974303 -85.139766 
L 361.270513 -85.139766 
L 363.566723 -85.139766 
L 365.862932 -85.139766 
L 368.159142 -85.139766 
L 370.455351 -85.139766 
L 372.751561 -85.139766 
L 375.04777 -85.139766 
L 377.34398 -85.139766 
L 379.640189 -85.139766 
L 381.936399 -85.139766 
L 384.232608 -85.139766 
L 386.528818 -85.139766 
L 388.825027 -85.139766 
L 391.121237 -85.139766 
L 393.417447 -85.139766 
L 395.713656 -85.139766 
L 398.009866 -85.139766 
L 400.306075 -85.139766 
L 402.602285 -85.139766 
L 404.898494 -85.139766 
L 407.194704 -85.139766 
L 409.490913 -85.139766 
L 411.787123 -85.139766 
L 414.083332 -85.139766 
L 416.379542 -85.139766 
L 418.675751 -85.139766 
L 420.971961 -85.139766 
L 423.268171 -85.139766 
L 425.56438 -85.139766 
L 427.86059 -85.139766 
L 430.156799 -85.139766 
L 432.453009 -85.139766 
L 434.749218 -85.139766 
L 437.045428 -85.139766 
L 439.341637 -85.139766 
L 441.637847 -85.139766 
L 443.934056 -85.139766 
L 446.230266 -85.139766 
L 448.526475 -85.139766 
L 450.822685 -85.139766 
L 453.118895 -85.139766 
L 455.415104 -85.139766 
L 457.711314 -85.139766 
L 460.007523 -85.139766 
L 462.303733 -85.139766 
L 464.599942 -85.139766 
L 466.896152 -85.139766 
L 469.192361 -85.139766 
L 471.488571 -85.139766 
L 473.78478 -85.139766 
L 476.08099 -85.139766 
L 478.377199 -85.139766 
L 480.673409 -85.139766 
L 482.969619 -85.139766 
L 485.265828 -85.139766 
L 487.562038 -85.139766 
L 489.858247 -85.139766 
L 492.154457 -85.139766 
L 494.450666 -85.139766 
L 496.746876 -85.139766 
L 499.043085 -85.139766 
L 501.339295 -85.139766 
L 503.635504 -85.139766 
L 505.931714 -85.139766 
L 508.227923 -85.139766 
L 510.524133 -85.139766 
L 512.820343 -85.139766 
L 515.116552 -85.139766 
L 517.412762 -85.139766 
L 519.708971 -85.139766 
L 522.005181 -85.139766 
L 524.30139 -85.139766 
L 526.5976 -85.139766 
L 528.893809 -85.139766 
L 531.190019 -85.139766 
L 533.486228 -85.139766 
L 535.782438 -85.139766 
L 538.078647 -85.139766 
L 540.374857 -85.139766 
L 542.671067 -85.139766 
L 544.967276 -85.139766 
L 547.263486 -85.139766 
L 549.559695 -85.139766 
L 551.855905 -85.139766 
L 554.152114 -85.139766 
L 556.448324 -85.139766 
L 558.744533 -85.139766 
L 561.040743 -85.139766 
L 563.336952 -85.139766 
L 565.633162 -85.139766 
L 567.929371 -85.139766 
L 570.225581 -85.139766 
L 572.521791 -85.139766 
L 574.818 -85.128859 
L 577.11421 -85.128859 
L 579.410419 -85.128859 
L 581.706629 -85.128859 
L 584.002838 -85.128859 
L 586.299048 -85.128859 
L 588.595257 -85.128859 
L 590.891467 -85.128859 
L 593.187676 -85.128859 
L 595.483886 -85.128859 
L 597.780095 -85.128859 
L 600.076305 -85.128859 
L 602.372515 -85.128859 
L 604.668724 -85.128859 
L 606.964934 -85.128859 
L 609.261143 -85.128859 
L 611.557353 -85.128859 
L 613.853562 -85.128859 
L 616.149772 -85.128859 
L 618.445981 -85.128859 
L 620.742191 -85.128859 
L 623.0384 -85.128859 
L 625.33461 -85.128859 
L 627.630819 -85.128859 
L 629.927029 -85.128859 
L 632.223239 -85.128859 
L 634.519448 -85.128859 
L 636.815658 -85.128859 
L 639.111867 -85.128859 
L 641.408077 -85.128859 
L 643.704286 -85.128859 
L 646.000496 -85.128859 
L 648.296705 -85.128859 
L 650.592915 -85.128859 
L 652.889124 -85.128859 
L 655.185334 -85.128859 
L 657.481543 -85.128859 
L 659.777753 -85.128859 
L 662.073963 -85.128859 
L 664.370172 -85.128859 
L 666.666382 -85.128859 
L 668.962591 -85.128859 
L 671.258801 -85.128859 
L 673.55501 -85.128859 
L 675.85122 -85.128859 
L 678.147429 -85.128859 
L 680.443639 -85.128859 
L 682.739848 -85.128859 
L 685.036058 -85.155191 
L 687.332267 -85.154262 
L 689.628477 -85.146569 
L 691.924687 -85.137159 
L 694.220896 -85.137159 
L 696.517106 -85.137159 
L 698.813315 -85.137159 
L 701.109525 -85.127107 
L 703.405734 -85.127107 
L 705.701944 -85.116751 
L 707.998153 -85.106228 
L 710.294363 -85.106228 
L 712.590572 -85.106228 
L 714.886782 -85.106228 
L 717.182991 -85.095604 
L 719.479201 -85.095604 
L 721.775411 -85.095604 
L 724.07162 -85.095604 
L 726.36783 -85.095604 
L 728.664039 -85.095604 
L 730.960249 -85.095604 
L 733.256458 -85.095604 
L 735.552668 -85.095604 
L 737.848877 -85.095604 
L 740.145087 -85.095604 
L 742.441296 -85.095604 
L 744.737506 -85.095604 
L 747.033715 -85.095604 
L 749.329925 -85.095604 
L 751.626135 -85.095604 
L 753.922344 -85.095604 
L 756.218554 -85.095604 
L 758.514763 -85.095604 
L 760.810973 -85.095604 
L 763.107182 -85.095604 
L 765.403392 -85.095604 
L 767.699601 -85.095604 
L 769.995811 -85.095604 
L 772.29202 -85.095604 
L 774.58823 -85.095604 
L 776.884439 -85.095604 
L 779.180649 -85.095604 
L 781.476859 -85.095604 
L 783.773068 -85.095604 
L 786.069278 -85.095604 
L 788.365487 -85.095604 
L 790.661697 -85.095604 
L 792.957906 -85.095604 
L 795.254116 -85.095604 
L 797.550325 -85.095604 
L 799.846535 -85.095604 
L 802.142744 -85.095604 
L 802.142744 -85.657914 
L 802.142744 -85.657914 
L 799.846535 -85.657914 
L 797.550325 -85.657914 
L 795.254116 -85.657914 
L 792.957906 -85.657914 
L 790.661697 -85.657914 
L 788.365487 -85.657914 
L 786.069278 -85.657914 
L 783.773068 -85.657914 
L 781.476859 -85.657914 
L 779.180649 -85.657914 
L 776.884439 -85.657914 
L 774.58823 -85.657914 
L 772.29202 -85.657914 
L 769.995811 -85.657914 
L 767.699601 -85.657914 
L 765.403392 -85.657914 
L 763.107182 -85.657914 
L 760.810973 -85.657914 
L 758.514763 -85.657914 
L 756.218554 -85.657914 
L 753.922344 -85.657914 
L 751.626135 -85.657914 
L 749.329925 -85.657914 
L 747.033715 -85.657914 
L 744.737506 -85.657914 
L 742.441296 -85.657914 
L 740.145087 -85.657914 
L 737.848877 -85.657914 
L 735.552668 -85.657914 
L 733.256458 -85.657914 
L 730.960249 -85.657914 
L 728.664039 -85.657914 
L 726.36783 -85.657914 
L 724.07162 -85.657914 
L 721.775411 -85.657914 
L 719.479201 -85.657914 
L 717.182991 -85.657914 
L 714.886782 -85.594625 
L 712.590572 -85.594625 
L 710.294363 -85.594625 
L 707.998153 -85.594625 
L 705.701944 -85.531437 
L 703.405734 -85.468416 
L 701.109525 -85.468416 
L 698.813315 -85.405699 
L 696.517106 -85.405699 
L 694.220896 -85.405699 
L 691.924687 -85.405699 
L 689.628477 -85.343624 
L 687.332267 -85.283265 
L 685.036058 -85.229671 
L 682.739848 -85.203338 
L 680.443639 -85.203338 
L 678.147429 -85.203338 
L 675.85122 -85.203338 
L 673.55501 -85.203338 
L 671.258801 -85.203338 
L 668.962591 -85.203338 
L 666.666382 -85.203338 
L 664.370172 -85.203338 
L 662.073963 -85.203338 
L 659.777753 -85.203338 
L 657.481543 -85.203338 
L 655.185334 -85.203338 
L 652.889124 -85.203338 
L 650.592915 -85.203338 
L 648.296705 -85.203338 
L 646.000496 -85.203338 
L 643.704286 -85.203338 
L 641.408077 -85.203338 
L 639.111867 -85.203338 
L 636.815658 -85.203338 
L 634.519448 -85.203338 
L 632.223239 -85.203338 
L 629.927029 -85.203338 
L 627.630819 -85.203338 
L 625.33461 -85.203338 
L 623.0384 -85.203338 
L 620.742191 -85.203338 
L 618.445981 -85.203338 
L 616.149772 -85.203338 
L 613.853562 -85.203338 
L 611.557353 -85.203338 
L 609.261143 -85.203338 
L 606.964934 -85.203338 
L 604.668724 -85.203338 
L 602.372515 -85.203338 
L 600.076305 -85.203338 
L 597.780095 -85.203338 
L 595.483886 -85.203338 
L 593.187676 -85.203338 
L 590.891467 -85.203338 
L 588.595257 -85.203338 
L 586.299048 -85.203338 
L 584.002838 -85.203338 
L 581.706629 -85.203338 
L 579.410419 -85.203338 
L 577.11421 -85.203338 
L 574.818 -85.203338 
L 572.521791 -85.139766 
L 570.225581 -85.139766 
L 567.929371 -85.139766 
L 565.633162 -85.139766 
L 563.336952 -85.139766 
L 561.040743 -85.139766 
L 558.744533 -85.139766 
L 556.448324 -85.139766 
L 554.152114 -85.139766 
L 551.855905 -85.139766 
L 549.559695 -85.139766 
L 547.263486 -85.139766 
L 544.967276 -85.139766 
L 542.671067 -85.139766 
L 540.374857 -85.139766 
L 538.078647 -85.139766 
L 535.782438 -85.139766 
L 533.486228 -85.139766 
L 531.190019 -85.139766 
L 528.893809 -85.139766 
L 526.5976 -85.139766 
L 524.30139 -85.139766 
L 522.005181 -85.139766 
L 519.708971 -85.139766 
L 517.412762 -85.139766 
L 515.116552 -85.139766 
L 512.820343 -85.139766 
L 510.524133 -85.139766 
L 508.227923 -85.139766 
L 505.931714 -85.139766 
L 503.635504 -85.139766 
L 501.339295 -85.139766 
L 499.043085 -85.139766 
L 496.746876 -85.139766 
L 494.450666 -85.139766 
L 492.154457 -85.139766 
L 489.858247 -85.139766 
L 487.562038 -85.139766 
L 485.265828 -85.139766 
L 482.969619 -85.139766 
L 480.673409 -85.139766 
L 478.377199 -85.139766 
L 476.08099 -85.139766 
L 473.78478 -85.139766 
L 471.488571 -85.139766 
L 469.192361 -85.139766 
L 466.896152 -85.139766 
L 464.599942 -85.139766 
L 462.303733 -85.139766 
L 460.007523 -85.139766 
L 457.711314 -85.139766 
L 455.415104 -85.139766 
L 453.118895 -85.139766 
L 450.822685 -85.139766 
L 448.526475 -85.139766 
L 446.230266 -85.139766 
L 443.934056 -85.139766 
L 441.637847 -85.139766 
L 439.341637 -85.139766 
L 437.045428 -85.139766 
L 434.749218 -85.139766 
L 432.453009 -85.139766 
L 430.156799 -85.139766 
L 427.86059 -85.139766 
L 425.56438 -85.139766 
L 423.268171 -85.139766 
L 420.971961 -85.139766 
L 418.675751 -85.139766 
L 416.379542 -85.139766 
L 414.083332 -85.139766 
L 411.787123 -85.139766 
L 409.490913 -85.139766 
L 407.194704 -85.139766 
L 404.898494 -85.139766 
L 402.602285 -85.139766 
L 400.306075 -85.139766 
L 398.009866 -85.139766 
L 395.713656 -85.139766 
L 393.417447 -85.139766 
L 391.121237 -85.139766 
L 388.825027 -85.139766 
L 386.528818 -85.139766 
L 384.232608 -85.139766 
L 381.936399 -85.139766 
L 379.640189 -85.139766 
L 377.34398 -85.139766 
L 375.04777 -85.139766 
L 372.751561 -85.139766 
L 370.455351 -85.139766 
L 368.159142 -85.139766 
L 365.862932 -85.139766 
L 363.566723 -85.139766 
L 361.270513 -85.139766 
L 358.974303 -85.139766 
L 356.678094 -85.139766 
L 354.381884 -85.139766 
L 352.085675 -85.139766 
L 349.789465 -85.139766 
L 347.493256 -85.139766 
L 345.197046 -85.139766 
L 342.900837 -85.139766 
L 340.604627 -85.139766 
L 338.308418 -85.139766 
L 336.012208 -85.139766 
L 333.715999 -85.139766 
L 331.419789 -85.139766 
L 329.123579 -85.139766 
L 326.82737 -85.139766 
L 324.53116 -85.139766 
L 322.234951 -85.139766 
L 319.938741 -85.139766 
L 317.642532 -85.139766 
L 315.346322 -85.139766 
L 313.050113 -85.139766 
L 310.753903 -85.139766 
L 308.457694 -85.139766 
L 306.161484 -85.139766 
L 303.865275 -85.139766 
L 301.569065 -85.139766 
L 299.272855 -85.139766 
L 296.976646 -85.139766 
L 294.680436 -85.139766 
L 292.384227 -85.139766 
L 290.088017 -85.139766 
L 287.791808 -85.139766 
L 285.495598 -85.139766 
L 283.199389 -85.139766 
L 280.903179 -85.139766 
L 278.60697 -85.139766 
L 276.31076 -85.139766 
L 274.014551 -85.139766 
L 271.718341 -85.139766 
L 269.422131 -85.139766 
L 267.125922 -85.139766 
L 264.829712 -85.139766 
L 262.533503 -85.139766 
L 260.237293 -85.139766 
L 257.941084 -85.139766 
L 255.644874 -85.139766 
L 253.348665 -85.139766 
L 251.052455 -85.139766 
L 248.756246 -85.139766 
L 246.460036 -85.139766 
L 244.163827 -85.139766 
L 241.867617 -85.139766 
L 239.571407 -85.139766 
L 237.275198 -85.139766 
L 234.978988 -85.139766 
L 232.682779 -85.139766 
L 230.386569 -85.139766 
L 228.09036 -85.139766 
L 225.79415 -85.139766 
L 223.497941 -85.139766 
L 221.201731 -85.139766 
L 218.905522 -85.139766 
L 216.609312 -85.139766 
L 214.313103 -85.139766 
L 212.016893 -85.139766 
L 209.720683 -85.139766 
L 207.424474 -85.139766 
L 205.128264 -85.139766 
L 202.832055 -85.139766 
L 200.535845 -85.139766 
L 198.239636 -85.139766 
L 195.943426 -85.139766 
L 193.647217 -85.139766 
L 191.351007 -85.139766 
L 189.054798 -85.139766 
L 186.758588 -85.139766 
L 184.462379 -85.139766 
L 182.166169 -85.139766 
L 179.869959 -85.139766 
L 177.57375 -85.139766 
L 175.27754 -85.139766 
L 172.981331 -85.139766 
L 170.685121 -85.139766 
L 168.388912 -85.139766 
L 166.092702 -85.139766 
L 163.796493 -85.139766 
L 161.500283 -85.139766 
L 159.204074 -85.139766 
L 156.907864 -85.139766 
L 154.611655 -85.139766 
L 152.315445 -85.139766 
L 150.019235 -85.139766 
L 147.723026 -85.139766 
L 145.426816 -85.139766 
L 143.130607 -85.139766 
z
" style="stroke: #0000ff; stroke-opacity: 0.3"/>
    </defs>
    <g clip-path="url(#p4455d194a4)">
     <use xlink:href="#mfd85de0121" x="0" y="432" style="fill: #0000ff; fill-opacity: 0.3; stroke: #0000ff; stroke-opacity: 0.3"/>
    </g>
   </g>
   <g id="PolyCollection_2">
    <defs>
     <path id="mf41f7093ad" d="M 143.130607 -85.139766 
L 143.130607 -85.139766 
L 145.426816 -85.139766 
L 147.723026 -85.139766 
L 150.019235 -85.139766 
L 152.315445 -85.139766 
L 154.611655 -85.139766 
L 156.907864 -85.139766 
L 159.204074 -85.139766 
L 161.500283 -85.139766 
L 163.796493 -85.139766 
L 166.092702 -85.139766 
L 168.388912 -85.139766 
L 170.685121 -85.139766 
L 172.981331 -85.139766 
L 175.27754 -85.139766 
L 177.57375 -85.139766 
L 179.869959 -85.139766 
L 182.166169 -85.139766 
L 184.462379 -85.139766 
L 186.758588 -85.139766 
L 189.054798 -85.139766 
L 191.351007 -85.139766 
L 193.647217 -85.139766 
L 195.943426 -85.139766 
L 198.239636 -85.139766 
L 200.535845 -85.139766 
L 202.832055 -85.139766 
L 205.128264 -85.139766 
L 207.424474 -85.139766 
L 209.720683 -85.139766 
L 212.016893 -85.139766 
L 214.313103 -85.139766 
L 216.609312 -85.139766 
L 218.905522 -85.139766 
L 221.201731 -85.139766 
L 223.497941 -85.139766 
L 225.79415 -85.139766 
L 228.09036 -85.139766 
L 230.386569 -85.139766 
L 232.682779 -85.139766 
L 234.978988 -85.139766 
L 237.275198 -85.139766 
L 239.571407 -85.139766 
L 241.867617 -85.139766 
L 244.163827 -85.139766 
L 246.460036 -85.139766 
L 248.756246 -85.139766 
L 251.052455 -85.139766 
L 253.348665 -85.139766 
L 255.644874 -85.139766 
L 257.941084 -85.139766 
L 260.237293 -85.139766 
L 262.533503 -85.139766 
L 264.829712 -85.139766 
L 267.125922 -85.128859 
L 269.422131 -85.117951 
L 271.718341 -85.107044 
L 274.014551 -85.096137 
L 276.31076 -85.08523 
L 278.60697 -85.116751 
L 280.903179 -85.144196 
L 283.199389 -85.168745 
L 285.495598 -85.160175 
L 287.791808 -85.2036 
L 290.088017 -85.242909 
L 292.384227 -85.321907 
L 294.680436 -85.440593 
L 296.976646 -85.555163 
L 299.272855 -85.665223 
L 301.569065 -85.710423 
L 303.865275 -85.7473 
L 306.161484 -85.841457 
L 308.457694 -85.932385 
L 310.753903 -86.020423 
L 313.050113 -86.10592 
L 315.346322 -86.189212 
L 317.642532 -86.254594 
L 319.938741 -86.393771 
L 322.234951 -86.530002 
L 324.53116 -86.721368 
L 326.82737 -86.904926 
L 329.123579 -87.079088 
L 331.419789 -87.242628 
L 333.715999 -87.384668 
L 336.012208 -87.5609 
L 338.308418 -87.736259 
L 340.604627 -88.017696 
L 342.900837 -88.294283 
L 345.197046 -88.643645 
L 347.493256 -88.985198 
L 349.789465 -89.317355 
L 352.085675 -89.645275 
L 354.381884 -89.950473 
L 356.678094 -90.261626 
L 358.974303 -90.627578 
L 361.270513 -90.958065 
L 363.566723 -91.432051 
L 365.862932 -91.852178 
L 368.159142 -92.412844 
L 370.455351 -92.969395 
L 372.751561 -93.52212 
L 375.04777 -94.073137 
L 377.34398 -94.622127 
L 379.640189 -95.175111 
L 381.936399 -95.778996 
L 384.232608 -96.294637 
L 386.528818 -96.889378 
L 388.825027 -97.558174 
L 391.121237 -98.173854 
L 393.417447 -98.79531 
L 395.713656 -99.364629 
L 398.009866 -99.931905 
L 400.306075 -100.542118 
L 402.602285 -101.09993 
L 404.898494 -101.650876 
L 407.194704 -102.211517 
L 409.490913 -102.772034 
L 411.787123 -103.452694 
L 414.083332 -104.092302 
L 416.379542 -104.734068 
L 418.675751 -105.412591 
L 420.971961 -105.961994 
L 423.268171 -106.73857 
L 425.56438 -107.480771 
L 427.86059 -108.263624 
L 430.156799 -109.085569 
L 432.453009 -109.987005 
L 434.749218 -111.084163 
L 437.045428 -112.177141 
L 439.341637 -113.312616 
L 441.637847 -114.366491 
L 443.934056 -115.367602 
L 446.230266 -116.364995 
L 448.526475 -117.272277 
L 450.822685 -118.079855 
L 453.118895 -119.065024 
L 455.415104 -119.952951 
L 457.711314 -120.986696 
L 460.007523 -121.894147 
L 462.303733 -122.900445 
L 464.599942 -123.976297 
L 466.896152 -125.035814 
L 469.192361 -126.019424 
L 471.488571 -127.138628 
L 473.78478 -128.318957 
L 476.08099 -129.35265 
L 478.377199 -130.365409 
L 480.673409 -131.306851 
L 482.969619 -132.183605 
L 485.265828 -133.05649 
L 487.562038 -133.925464 
L 489.858247 -134.715441 
L 492.154457 -135.37929 
L 494.450666 -136.036758 
L 496.746876 -136.719042 
L 499.043085 -137.44802 
L 501.339295 -138.097712 
L 503.635504 -138.951313 
L 505.931714 -139.803798 
L 508.227923 -140.624074 
L 510.524133 -141.225301 
L 512.820343 -141.84463 
L 515.116552 -142.56913 
L 517.412762 -143.305136 
L 519.708971 -143.969846 
L 522.005181 -144.626989 
L 524.30139 -145.283494 
L 526.5976 -146.002978 
L 528.893809 -146.650389 
L 531.190019 -147.232256 
L 533.486228 -147.880948 
L 535.782438 -148.513462 
L 538.078647 -149.151144 
L 540.374857 -149.788997 
L 542.671067 -150.36064 
L 544.967276 -150.961329 
L 547.263486 -151.548206 
L 549.559695 -152.085231 
L 551.855905 -152.68412 
L 554.152114 -153.329414 
L 556.448324 -154.011094 
L 558.744533 -154.690054 
L 561.040743 -155.459031 
L 563.336952 -156.214347 
L 565.633162 -156.96954 
L 567.929371 -157.661374 
L 570.225581 -158.416231 
L 572.521791 -159.158969 
L 574.818 -159.888843 
L 577.11421 -160.631053 
L 579.410419 -161.438003 
L 581.706629 -162.24211 
L 584.002838 -163.05941 
L 586.299048 -163.79916 
L 588.595257 -164.552321 
L 590.891467 -165.354843 
L 593.187676 -166.144138 
L 595.483886 -166.885727 
L 597.780095 -167.61004 
L 600.076305 -168.349943 
L 602.372515 -169.088825 
L 604.668724 -169.883243 
L 606.964934 -170.691625 
L 609.261143 -171.419708 
L 611.557353 -172.019896 
L 613.853562 -172.656515 
L 616.149772 -173.220963 
L 618.445981 -173.841216 
L 620.742191 -174.44983 
L 623.0384 -175.152115 
L 625.33461 -175.765857 
L 627.630819 -176.4918 
L 629.927029 -177.166426 
L 632.223239 -177.813975 
L 634.519448 -178.375096 
L 636.815658 -178.996744 
L 639.111867 -179.575478 
L 641.408077 -180.224839 
L 643.704286 -180.785073 
L 646.000496 -181.248623 
L 648.296705 -181.708634 
L 650.592915 -182.188926 
L 652.889124 -182.672475 
L 655.185334 -183.172276 
L 657.481543 -183.721181 
L 659.777753 -184.30321 
L 662.073963 -184.885232 
L 664.370172 -185.47262 
L 666.666382 -186.08447 
L 668.962591 -186.671447 
L 671.258801 -187.267135 
L 673.55501 -187.855977 
L 675.85122 -188.439024 
L 678.147429 -189.017153 
L 680.443639 -189.591092 
L 682.739848 -190.082451 
L 685.036058 -190.558478 
L 687.332267 -191.029786 
L 689.628477 -191.511577 
L 691.924687 -191.993741 
L 694.220896 -192.46935 
L 696.517106 -192.94197 
L 698.813315 -193.411917 
L 701.109525 -193.879471 
L 703.405734 -194.337054 
L 705.701944 -194.727683 
L 707.998153 -195.115293 
L 710.294363 -195.494853 
L 712.590572 -195.873085 
L 714.886782 -196.245492 
L 717.182991 -196.612942 
L 719.479201 -196.975752 
L 721.775411 -197.349335 
L 724.07162 -197.7226 
L 726.36783 -198.15903 
L 728.664039 -198.595215 
L 730.960249 -199.011139 
L 733.256458 -199.363485 
L 735.552668 -199.715737 
L 737.848877 -200.07283 
L 740.145087 -200.514548 
L 742.441296 -200.961624 
L 744.737506 -201.397891 
L 747.033715 -201.843804 
L 749.329925 -202.289004 
L 751.626135 -202.787839 
L 753.922344 -203.286508 
L 756.218554 -203.727877 
L 758.514763 -204.160074 
L 760.810973 -204.592169 
L 763.107182 -205.024165 
L 765.403392 -205.3829 
L 767.699601 -205.818513 
L 769.995811 -206.24447 
L 772.29202 -206.612809 
L 774.58823 -206.990756 
L 776.884439 -207.362733 
L 779.180649 -207.740633 
L 781.476859 -208.118526 
L 783.773068 -208.48698 
L 786.069278 -208.861209 
L 788.365487 -209.298588 
L 790.661697 -209.740972 
L 792.957906 -210.177475 
L 795.254116 -210.565795 
L 797.550325 -211.017289 
L 799.846535 -211.463821 
L 802.142744 -211.973711 
L 802.142744 -231.953717 
L 802.142744 -231.953717 
L 799.846535 -231.25231 
L 797.550325 -230.540209 
L 795.254116 -229.780405 
L 792.957906 -229.010093 
L 790.661697 -228.340629 
L 788.365487 -227.624381 
L 786.069278 -226.955793 
L 783.773068 -226.27672 
L 781.476859 -225.644536 
L 779.180649 -224.969127 
L 776.884439 -224.293725 
L 774.58823 -223.665065 
L 772.29202 -222.98971 
L 769.995811 -222.357411 
L 767.699601 -221.782731 
L 765.403392 -221.165043 
L 763.107182 -220.575806 
L 760.810973 -219.9545 
L 758.514763 -219.333292 
L 756.218554 -218.712187 
L 753.922344 -218.047589 
L 751.626135 -217.44029 
L 749.329925 -216.833158 
L 747.033715 -216.172391 
L 744.737506 -215.512337 
L 742.441296 -214.895302 
L 740.145087 -214.236411 
L 737.848877 -213.572161 
L 735.552668 -212.981282 
L 733.256458 -212.438228 
L 730.960249 -211.895267 
L 728.664039 -211.363219 
L 726.36783 -210.746101 
L 724.07162 -210.129229 
L 721.775411 -209.501858 
L 719.479201 -208.874803 
L 717.182991 -208.289641 
L 714.886782 -207.656454 
L 712.590572 -206.975559 
L 710.294363 -206.247824 
L 707.998153 -205.521417 
L 705.701944 -204.750394 
L 703.405734 -203.982392 
L 701.109525 -203.228677 
L 698.813315 -202.432268 
L 696.517106 -201.638253 
L 694.220896 -200.84691 
L 691.924687 -200.058556 
L 689.628477 -199.224093 
L 687.332267 -198.441921 
L 685.036058 -197.701932 
L 682.739848 -196.861332 
L 680.443639 -196.036062 
L 678.147429 -195.135379 
L 675.85122 -194.238885 
L 673.55501 -193.347309 
L 671.258801 -192.461527 
L 668.962591 -191.582592 
L 666.666382 -190.800277 
L 664.370172 -189.990169 
L 662.073963 -189.208264 
L 659.777753 -188.368328 
L 657.481543 -187.528399 
L 655.185334 -186.655347 
L 652.889124 -185.83852 
L 650.592915 -185.110771 
L 648.296705 -184.327101 
L 646.000496 -183.62848 
L 643.704286 -182.933397 
L 641.408077 -182.177003 
L 639.111867 -181.404406 
L 636.815658 -180.508517 
L 634.519448 -179.813538 
L 632.223239 -179.058031 
L 629.927029 -178.283622 
L 627.630819 -177.588955 
L 625.33461 -176.89294 
L 623.0384 -176.137389 
L 620.742191 -175.365052 
L 618.445981 -174.551707 
L 616.149772 -173.802668 
L 613.853562 -172.997824 
L 611.557353 -172.317815 
L 609.261143 -171.54871 
L 606.964934 -170.960165 
L 604.668724 -170.399254 
L 602.372515 -169.877044 
L 600.076305 -169.351965 
L 597.780095 -168.880569 
L 595.483886 -168.44625 
L 593.187676 -167.923876 
L 590.891467 -167.501875 
L 588.595257 -167.040434 
L 586.299048 -166.529632 
L 584.002838 -166.058085 
L 581.706629 -165.558757 
L 579.410419 -165.046236 
L 577.11421 -164.483893 
L 574.818 -163.962141 
L 572.521791 -163.480718 
L 570.225581 -162.959493 
L 567.929371 -162.397722 
L 565.633162 -161.825594 
L 563.336952 -161.264159 
L 561.040743 -160.702847 
L 558.744533 -160.102531 
L 556.448324 -159.570194 
L 554.152114 -158.987912 
L 551.855905 -158.316578 
L 549.559695 -157.546174 
L 547.263486 -156.766571 
L 544.967276 -155.984156 
L 542.671067 -155.215552 
L 540.374857 -154.470567 
L 538.078647 -153.686463 
L 535.782438 -152.954851 
L 533.486228 -152.218072 
L 531.190019 -151.444807 
L 528.893809 -150.710046 
L 526.5976 -149.988164 
L 524.30139 -149.233026 
L 522.005181 -148.467572 
L 519.708971 -147.702758 
L 517.412762 -146.94551 
L 515.116552 -146.154228 
L 512.820343 -145.404105 
L 510.524133 -144.44348 
L 508.227923 -143.62275 
L 505.931714 -142.757742 
L 503.635504 -141.977609 
L 501.339295 -141.145926 
L 499.043085 -140.37366 
L 496.746876 -139.522686 
L 494.450666 -138.572351 
L 492.154457 -137.702531 
L 489.858247 -136.839092 
L 487.562038 -136.049116 
L 485.265828 -135.180141 
L 482.969619 -134.315078 
L 480.673409 -133.453883 
L 478.377199 -132.710042 
L 476.08099 -131.984852 
L 473.78478 -131.122601 
L 471.488571 -130.248991 
L 469.192361 -129.314256 
L 466.896152 -128.454587 
L 464.599942 -127.460165 
L 462.303733 -126.324082 
L 460.007523 -125.329107 
L 457.711314 -124.393278 
L 455.415104 -123.531079 
L 453.118895 -122.628393 
L 450.822685 -121.664953 
L 448.526475 -120.734582 
L 446.230266 -119.851251 
L 443.934056 -118.9527 
L 441.637847 -118.110532 
L 439.341637 -117.268463 
L 437.045428 -116.349999 
L 434.749218 -115.441703 
L 432.453009 -114.537587 
L 430.156799 -113.595744 
L 427.86059 -112.732406 
L 425.56438 -111.882641 
L 423.268171 -111.044889 
L 420.971961 -110.136181 
L 418.675751 -109.052966 
L 416.379542 -108.09887 
L 414.083332 -107.213348 
L 411.787123 -106.378334 
L 409.490913 -105.479041 
L 407.194704 -104.72293 
L 404.898494 -103.966943 
L 402.602285 -103.201261 
L 400.306075 -102.442446 
L 398.009866 -101.683366 
L 395.713656 -100.934014 
L 393.417447 -100.186706 
L 391.121237 -99.491534 
L 388.825027 -98.685256 
L 386.528818 -97.932094 
L 384.232608 -97.262873 
L 381.936399 -96.567216 
L 379.640189 -95.959803 
L 377.34398 -95.40682 
L 375.04777 -94.902508 
L 372.751561 -94.400223 
L 370.455351 -93.899646 
L 368.159142 -93.45556 
L 365.862932 -93.015588 
L 363.566723 -92.593074 
L 361.270513 -92.119088 
L 358.974303 -91.659599 
L 356.678094 -91.235574 
L 354.381884 -90.809415 
L 352.085675 -90.429967 
L 349.789465 -90.073241 
L 347.493256 -89.773417 
L 345.197046 -89.482988 
L 342.900837 -89.200368 
L 340.604627 -89.00297 
L 338.308418 -88.810421 
L 336.012208 -88.511794 
L 333.715999 -88.214039 
L 331.419789 -87.987425 
L 329.123579 -87.834974 
L 326.82737 -87.693145 
L 324.53116 -87.560712 
L 322.234951 -87.436087 
L 319.938741 -87.308993 
L 317.642532 -87.184845 
L 315.346322 -87.092231 
L 313.050113 -86.964862 
L 310.753903 -86.8397 
L 308.457694 -86.717077 
L 306.161484 -86.597344 
L 303.865275 -86.480841 
L 301.569065 -86.359722 
L 299.272855 -86.246928 
L 296.976646 -86.146327 
L 294.680436 -86.050236 
L 292.384227 -85.958262 
L 290.088017 -85.879264 
L 287.791808 -85.813243 
L 285.495598 -85.751339 
L 283.199389 -85.690103 
L 280.903179 -85.609322 
L 278.60697 -85.531437 
L 276.31076 -85.457628 
L 274.014551 -85.394056 
L 271.718341 -85.330483 
L 269.422131 -85.266911 
L 267.125922 -85.203338 
L 264.829712 -85.139766 
L 262.533503 -85.139766 
L 260.237293 -85.139766 
L 257.941084 -85.139766 
L 255.644874 -85.139766 
L 253.348665 -85.139766 
L 251.052455 -85.139766 
L 248.756246 -85.139766 
L 246.460036 -85.139766 
L 244.163827 -85.139766 
L 241.867617 -85.139766 
L 239.571407 -85.139766 
L 237.275198 -85.139766 
L 234.978988 -85.139766 
L 232.682779 -85.139766 
L 230.386569 -85.139766 
L 228.09036 -85.139766 
L 225.79415 -85.139766 
L 223.497941 -85.139766 
L 221.201731 -85.139766 
L 218.905522 -85.139766 
L 216.609312 -85.139766 
L 214.313103 -85.139766 
L 212.016893 -85.139766 
L 209.720683 -85.139766 
L 207.424474 -85.139766 
L 205.128264 -85.139766 
L 202.832055 -85.139766 
L 200.535845 -85.139766 
L 198.239636 -85.139766 
L 195.943426 -85.139766 
L 193.647217 -85.139766 
L 191.351007 -85.139766 
L 189.054798 -85.139766 
L 186.758588 -85.139766 
L 184.462379 -85.139766 
L 182.166169 -85.139766 
L 179.869959 -85.139766 
L 177.57375 -85.139766 
L 175.27754 -85.139766 
L 172.981331 -85.139766 
L 170.685121 -85.139766 
L 168.388912 -85.139766 
L 166.092702 -85.139766 
L 163.796493 -85.139766 
L 161.500283 -85.139766 
L 159.204074 -85.139766 
L 156.907864 -85.139766 
L 154.611655 -85.139766 
L 152.315445 -85.139766 
L 150.019235 -85.139766 
L 147.723026 -85.139766 
L 145.426816 -85.139766 
L 143.130607 -85.139766 
z
" style="stroke: #008000; stroke-opacity: 0.3"/>
    </defs>
    <g clip-path="url(#p4455d194a4)">
     <use xlink:href="#mf41f7093ad" x="0" y="432" style="fill: #008000; fill-opacity: 0.3; stroke: #008000; stroke-opacity: 0.3"/>
    </g>
   </g>
   <g id="PolyCollection_3">
    <defs>
     <path id="m924a053861" d="M 143.130607 -85.139766 
L 143.130607 -85.139766 
L 145.426816 -85.139766 
L 147.723026 -85.139766 
L 150.019235 -85.139766 
L 152.315445 -85.139766 
L 154.611655 -85.139766 
L 156.907864 -85.139766 
L 159.204074 -85.139766 
L 161.500283 -85.139766 
L 163.796493 -85.139766 
L 166.092702 -85.139766 
L 168.388912 -85.139766 
L 170.685121 -85.139766 
L 172.981331 -85.139766 
L 175.27754 -85.139766 
L 177.57375 -85.139766 
L 179.869959 -85.139766 
L 182.166169 -85.139766 
L 184.462379 -85.139766 
L 186.758588 -85.139766 
L 189.054798 -85.139766 
L 191.351007 -85.139766 
L 193.647217 -85.139766 
L 195.943426 -85.139766 
L 198.239636 -85.139766 
L 200.535845 -85.139766 
L 202.832055 -85.139766 
L 205.128264 -85.139766 
L 207.424474 -85.139766 
L 209.720683 -85.139766 
L 212.016893 -85.139766 
L 214.313103 -85.139766 
L 216.609312 -85.139766 
L 218.905522 -85.139766 
L 221.201731 -85.139766 
L 223.497941 -85.139766 
L 225.79415 -85.139766 
L 228.09036 -85.139766 
L 230.386569 -85.139766 
L 232.682779 -85.139766 
L 234.978988 -85.139766 
L 237.275198 -85.139766 
L 239.571407 -85.139766 
L 241.867617 -85.139766 
L 244.163827 -85.139766 
L 246.460036 -85.128859 
L 248.756246 -85.128859 
L 251.052455 -85.117951 
L 253.348665 -85.107044 
L 255.644874 -85.096137 
L 257.941084 -85.08523 
L 260.237293 -85.074322 
L 262.533503 -85.063415 
L 264.829712 -85.095604 
L 267.125922 -85.124603 
L 269.422131 -85.141652 
L 271.718341 -85.166977 
L 274.014551 -85.213375 
L 276.31076 -85.255737 
L 278.60697 -85.399966 
L 280.903179 -85.514752 
L 283.199389 -85.639558 
L 285.495598 -85.761474 
L 287.791808 -85.944746 
L 290.088017 -86.133647 
L 292.384227 -86.318171 
L 294.680436 -86.511695 
L 296.976646 -86.783812 
L 299.272855 -86.913486 
L 301.569065 -87.0941 
L 303.865275 -87.332911 
L 306.161484 -87.567502 
L 308.457694 -87.798505 
L 310.753903 -88.047956 
L 313.050113 -88.357379 
L 315.346322 -88.684489 
L 317.642532 -89.034002 
L 319.938741 -89.360823 
L 322.234951 -89.71042 
L 324.53116 -90.059977 
L 326.82737 -90.431732 
L 329.123579 -90.860101 
L 331.419789 -91.299889 
L 333.715999 -91.67911 
L 336.012208 -92.122436 
L 338.308418 -92.663693 
L 340.604627 -93.100665 
L 342.900837 -93.529189 
L 345.197046 -93.98033 
L 347.493256 -94.488016 
L 349.789465 -95.014754 
L 352.085675 -95.590364 
L 354.381884 -96.235034 
L 356.678094 -96.815458 
L 358.974303 -97.325758 
L 361.270513 -97.830649 
L 363.566723 -98.365779 
L 365.862932 -98.986985 
L 368.159142 -99.559759 
L 370.455351 -100.2554 
L 372.751561 -100.771041 
L 375.04777 -101.272921 
L 377.34398 -101.875204 
L 379.640189 -102.615033 
L 381.936399 -103.460744 
L 384.232608 -104.385102 
L 386.528818 -105.175565 
L 388.825027 -106.012756 
L 391.121237 -106.755519 
L 393.417447 -107.498099 
L 395.713656 -108.288076 
L 398.009866 -109.103838 
L 400.306075 -109.919351 
L 402.602285 -110.74546 
L 404.898494 -111.481512 
L 407.194704 -112.299006 
L 409.490913 -113.158996 
L 411.787123 -114.017073 
L 414.083332 -114.955272 
L 416.379542 -115.892712 
L 418.675751 -116.874636 
L 420.971961 -117.800795 
L 423.268171 -118.850994 
L 425.56438 -119.923883 
L 427.86059 -120.972144 
L 430.156799 -121.98612 
L 432.453009 -123.024094 
L 434.749218 -124.108314 
L 437.045428 -125.181657 
L 439.341637 -126.189519 
L 441.637847 -127.319702 
L 443.934056 -128.259023 
L 446.230266 -129.242406 
L 448.526475 -130.324763 
L 450.822685 -131.53177 
L 453.118895 -132.628946 
L 455.415104 -133.659267 
L 457.711314 -134.788741 
L 460.007523 -135.903712 
L 462.303733 -137.058379 
L 464.599942 -138.123423 
L 466.896152 -139.149439 
L 469.192361 -140.242203 
L 471.488571 -141.311583 
L 473.78478 -142.428401 
L 476.08099 -143.484138 
L 478.377199 -144.398861 
L 480.673409 -145.341377 
L 482.969619 -146.222006 
L 485.265828 -147.175293 
L 487.562038 -148.227893 
L 489.858247 -149.14285 
L 492.154457 -150.019375 
L 494.450666 -150.934226 
L 496.746876 -151.700592 
L 499.043085 -152.437796 
L 501.339295 -153.263085 
L 503.635504 -154.148858 
L 505.931714 -154.974069 
L 508.227923 -155.79926 
L 510.524133 -156.644938 
L 512.820343 -157.5091 
L 515.116552 -158.323592 
L 517.412762 -159.070339 
L 519.708971 -159.806372 
L 522.005181 -160.691934 
L 524.30139 -161.517033 
L 526.5976 -162.352595 
L 528.893809 -163.119521 
L 531.190019 -163.855297 
L 533.486228 -164.491104 
L 535.782438 -165.266259 
L 538.078647 -165.969966 
L 540.374857 -166.784078 
L 542.671067 -167.67001 
L 544.967276 -168.584647 
L 547.263486 -169.398766 
L 549.559695 -170.213748 
L 551.855905 -170.971059 
L 554.152114 -171.727999 
L 556.448324 -172.384755 
L 558.744533 -173.041317 
L 561.040743 -173.777105 
L 563.336952 -174.473412 
L 565.633162 -175.119696 
L 567.929371 -175.765652 
L 570.225581 -176.421639 
L 572.521791 -177.187751 
L 574.818 -177.954719 
L 577.11421 -178.671169 
L 579.410419 -179.406609 
L 581.706629 -180.231552 
L 584.002838 -180.907039 
L 586.299048 -181.722546 
L 588.595257 -182.497992 
L 590.891467 -183.353151 
L 593.187676 -184.347165 
L 595.483886 -185.351433 
L 597.780095 -186.315967 
L 600.076305 -187.180539 
L 602.372515 -188.055129 
L 604.668724 -189.02971 
L 606.964934 -190.026001 
L 609.261143 -190.961616 
L 611.557353 -191.886392 
L 613.853562 -192.750255 
L 616.149772 -193.643028 
L 618.445981 -194.565955 
L 620.742191 -195.587985 
L 623.0384 -196.522225 
L 625.33461 -197.515703 
L 627.630819 -198.488219 
L 629.927029 -199.500603 
L 632.223239 -200.512975 
L 634.519448 -201.49598 
L 636.815658 -202.43982 
L 639.111867 -203.354306 
L 641.408077 -204.278536 
L 643.704286 -205.302593 
L 646.000496 -206.27706 
L 648.296705 -207.330498 
L 650.592915 -208.392441 
L 652.889124 -209.483923 
L 655.185334 -210.654388 
L 657.481543 -211.973245 
L 659.777753 -213.282687 
L 662.073963 -214.592129 
L 664.370172 -215.891054 
L 666.666382 -217.110978 
L 668.962591 -218.330901 
L 671.258801 -219.619296 
L 673.55501 -220.9373 
L 675.85122 -222.265814 
L 678.147429 -223.733251 
L 680.443639 -225.330283 
L 682.739848 -226.898778 
L 685.036058 -228.456605 
L 687.332267 -230.093858 
L 689.628477 -231.690891 
L 691.924687 -233.258471 
L 694.220896 -234.72597 
L 696.517106 -236.342791 
L 698.813315 -238.069897 
L 701.109525 -239.736962 
L 703.405734 -241.40402 
L 705.701944 -243.07107 
L 707.998153 -244.748471 
L 710.294363 -246.415503 
L 712.590572 -248.131979 
L 714.886782 -249.898654 
L 717.182991 -251.7156 
L 719.479201 -253.661816 
L 721.775411 -255.608006 
L 724.07162 -257.564527 
L 726.36783 -259.521033 
L 728.664039 -261.456798 
L 730.960249 -263.531464 
L 733.256458 -265.524856 
L 735.552668 -267.507878 
L 737.848877 -269.511595 
L 740.145087 -271.544013 
L 742.441296 -273.515668 
L 744.737506 -275.497445 
L 747.033715 -277.517782 
L 749.329925 -279.499042 
L 751.626135 -281.530743 
L 753.922344 -283.651589 
L 756.218554 -285.838986 
L 758.514763 -288.025911 
L 760.810973 -290.192042 
L 763.107182 -292.309592 
L 765.403392 -294.427004 
L 767.699601 -296.605555 
L 769.995811 -298.821945 
L 772.29202 -301.02805 
L 774.58823 -303.23399 
L 776.884439 -305.566452 
L 779.180649 -307.878476 
L 781.476859 -310.227594 
L 783.773068 -312.538928 
L 786.069278 -314.881836 
L 788.365487 -317.214715 
L 790.661697 -319.54753 
L 792.957906 -321.92724 
L 795.254116 -324.296833 
L 797.550325 -326.634491 
L 799.846535 -328.972133 
L 802.142744 -331.294834 
L 802.142744 -405.187263 
L 802.142744 -405.187263 
L 799.846535 -402.348784 
L 797.550325 -399.525245 
L 795.254116 -396.701722 
L 792.957906 -393.910135 
L 790.661697 -391.18133 
L 788.365487 -388.405629 
L 786.069278 -385.629993 
L 783.773068 -382.917051 
L 781.476859 -380.330529 
L 779.180649 -377.729127 
L 776.884439 -375.143297 
L 774.58823 -372.683234 
L 772.29202 -370.254645 
L 769.995811 -367.82622 
L 767.699601 -365.460746 
L 765.403392 -363.110098 
L 763.107182 -360.698311 
L 760.810973 -358.286661 
L 758.514763 -355.923593 
L 756.218554 -353.686649 
L 753.922344 -351.450177 
L 751.626135 -349.30515 
L 749.329925 -347.176307 
L 747.033715 -345.049688 
L 744.737506 -342.909482 
L 742.441296 -340.783381 
L 740.145087 -338.594492 
L 737.848877 -336.466367 
L 735.552668 -334.41487 
L 733.256458 -332.23735 
L 730.960249 -330.122863 
L 728.664039 -328.194981 
L 726.36783 -326.233527 
L 724.07162 -324.398146 
L 721.775411 -322.562779 
L 719.479201 -320.664417 
L 717.182991 -318.766079 
L 714.886782 -316.949133 
L 712.590572 -315.134581 
L 710.294363 -313.322495 
L 707.998153 -311.460965 
L 705.701944 -309.662469 
L 703.405734 -307.800957 
L 701.109525 -305.939452 
L 698.813315 -304.077956 
L 696.517106 -302.329164 
L 694.220896 -300.522754 
L 691.924687 -298.67235 
L 689.628477 -296.816699 
L 687.332267 -294.885169 
L 685.036058 -292.941195 
L 682.739848 -291.023125 
L 680.443639 -289.168388 
L 678.147429 -287.184193 
L 675.85122 -285.228398 
L 673.55501 -283.291675 
L 671.258801 -281.291778 
L 668.962591 -279.367601 
L 666.666382 -277.585612 
L 664.370172 -275.803626 
L 662.073963 -273.942644 
L 659.777753 -272.144845 
L 657.481543 -270.347046 
L 655.185334 -268.558661 
L 652.889124 -266.77988 
L 650.592915 -265.080111 
L 648.296705 -263.456135 
L 646.000496 -262.034313 
L 643.704286 -260.691515 
L 641.408077 -259.345642 
L 639.111867 -257.952607 
L 636.815658 -256.549828 
L 634.519448 -255.071073 
L 632.223239 -253.526154 
L 629.927029 -251.905269 
L 627.630819 -250.284399 
L 625.33461 -248.676324 
L 623.0384 -247.194543 
L 620.742191 -245.706188 
L 618.445981 -244.094962 
L 616.149772 -242.489964 
L 613.853562 -240.907477 
L 611.557353 -239.40141 
L 609.261143 -238.008922 
L 606.964934 -236.627271 
L 604.668724 -235.358963 
L 602.372515 -234.068944 
L 600.076305 -232.784265 
L 597.780095 -231.436903 
L 595.483886 -230.084172 
L 593.187676 -228.71851 
L 590.891467 -227.28993 
L 588.595257 -225.880488 
L 586.299048 -224.496665 
L 584.002838 -223.100238 
L 581.706629 -221.66912 
L 579.410419 -220.282129 
L 577.11421 -218.910964 
L 574.818 -217.678805 
L 572.521791 -216.497165 
L 570.225581 -215.262003 
L 567.929371 -213.916715 
L 565.633162 -212.508732 
L 563.336952 -211.153742 
L 561.040743 -209.796111 
L 558.744533 -208.425294 
L 556.448324 -207.185912 
L 554.152114 -205.894059 
L 551.855905 -204.59706 
L 549.559695 -203.300431 
L 547.263486 -201.850815 
L 544.967276 -200.452999 
L 542.671067 -199.050371 
L 540.374857 -197.724369 
L 538.078647 -196.326546 
L 535.782438 -194.870983 
L 533.486228 -193.486869 
L 531.190019 -192.121402 
L 528.893809 -190.803239 
L 526.5976 -189.568891 
L 524.30139 -188.245184 
L 522.005181 -186.911013 
L 519.708971 -185.637305 
L 517.412762 -184.3194 
L 515.116552 -183.064872 
L 512.820343 -181.614765 
L 510.524133 -180.161662 
L 508.227923 -178.795405 
L 505.931714 -177.408663 
L 503.635504 -176.021939 
L 501.339295 -174.695778 
L 499.043085 -173.309132 
L 496.746876 -171.887066 
L 494.450666 -170.388833 
L 492.154457 -168.986419 
L 489.858247 -167.598345 
L 487.562038 -166.196036 
L 485.265828 -164.826041 
L 482.969619 -163.409399 
L 480.673409 -161.920098 
L 478.377199 -160.492684 
L 476.08099 -159.195473 
L 473.78478 -157.88128 
L 471.488571 -156.628168 
L 469.192361 -155.380284 
L 466.896152 -154.261113 
L 464.599942 -153.02253 
L 462.303733 -151.717643 
L 460.007523 -150.39705 
L 457.711314 -149.089427 
L 455.415104 -147.848971 
L 453.118895 -146.562027 
L 450.822685 -145.394603 
L 448.526475 -144.073685 
L 446.230266 -142.838778 
L 443.934056 -141.557562 
L 441.637847 -140.284948 
L 439.341637 -139.0452 
L 437.045428 -137.630468 
L 434.749218 -136.333881 
L 432.453009 -135.100836 
L 430.156799 -133.874211 
L 427.86059 -132.781582 
L 425.56438 -131.617909 
L 423.268171 -130.320869 
L 420.971961 -129.159133 
L 418.675751 -128.084018 
L 416.379542 -127.064668 
L 414.083332 -126.053499 
L 411.787123 -125.043089 
L 409.490913 -124.110552 
L 407.194704 -123.179928 
L 404.898494 -122.259474 
L 402.602285 -121.415572 
L 400.306075 -120.556399 
L 398.009866 -119.633963 
L 395.713656 -118.711776 
L 393.417447 -117.9218 
L 391.121237 -117.137092 
L 388.825027 -116.352567 
L 386.528818 -115.557139 
L 384.232608 -114.714984 
L 381.936399 -113.848728 
L 379.640189 -113.009156 
L 377.34398 -112.116367 
L 375.04777 -111.244027 
L 372.751561 -110.376614 
L 370.455351 -109.522962 
L 368.159142 -108.63865 
L 365.862932 -107.789466 
L 363.566723 -106.988715 
L 361.270513 -106.207216 
L 358.974303 -105.448145 
L 356.678094 -104.694482 
L 354.381884 -104.010944 
L 352.085675 -103.286321 
L 349.789465 -102.439974 
L 347.493256 -101.650083 
L 345.197046 -100.946472 
L 342.900837 -100.23898 
L 340.604627 -99.561538 
L 338.308418 -98.945207 
L 336.012208 -98.222502 
L 333.715999 -97.45453 
L 331.419789 -96.622453 
L 329.123579 -95.79828 
L 326.82737 -95.173347 
L 324.53116 -94.59713 
L 322.234951 -94.05138 
L 319.938741 -93.50567 
L 317.642532 -92.989849 
L 315.346322 -92.444055 
L 313.050113 -91.928524 
L 310.753903 -91.500635 
L 308.457694 -91.06544 
L 306.161484 -90.664461 
L 303.865275 -90.267071 
L 301.569065 -89.8739 
L 299.272855 -89.475198 
L 296.976646 -89.078222 
L 294.680436 -88.613027 
L 292.384227 -88.227235 
L 290.088017 -87.885108 
L 287.791808 -87.547358 
L 285.495598 -87.256644 
L 283.199389 -86.957239 
L 280.903179 -86.713389 
L 278.60697 -86.512185 
L 276.31076 -86.287758 
L 274.014551 -86.119459 
L 271.718341 -85.955196 
L 269.422131 -85.875192 
L 267.125922 -85.734245 
L 264.829712 -85.657914 
L 262.533503 -85.584773 
L 260.237293 -85.5212 
L 257.941084 -85.457628 
L 255.644874 -85.394056 
L 253.348665 -85.330483 
L 251.052455 -85.266911 
L 248.756246 -85.203338 
L 246.460036 -85.203338 
L 244.163827 -85.139766 
L 241.867617 -85.139766 
L 239.571407 -85.139766 
L 237.275198 -85.139766 
L 234.978988 -85.139766 
L 232.682779 -85.139766 
L 230.386569 -85.139766 
L 228.09036 -85.139766 
L 225.79415 -85.139766 
L 223.497941 -85.139766 
L 221.201731 -85.139766 
L 218.905522 -85.139766 
L 216.609312 -85.139766 
L 214.313103 -85.139766 
L 212.016893 -85.139766 
L 209.720683 -85.139766 
L 207.424474 -85.139766 
L 205.128264 -85.139766 
L 202.832055 -85.139766 
L 200.535845 -85.139766 
L 198.239636 -85.139766 
L 195.943426 -85.139766 
L 193.647217 -85.139766 
L 191.351007 -85.139766 
L 189.054798 -85.139766 
L 186.758588 -85.139766 
L 184.462379 -85.139766 
L 182.166169 -85.139766 
L 179.869959 -85.139766 
L 177.57375 -85.139766 
L 175.27754 -85.139766 
L 172.981331 -85.139766 
L 170.685121 -85.139766 
L 168.388912 -85.139766 
L 166.092702 -85.139766 
L 163.796493 -85.139766 
L 161.500283 -85.139766 
L 159.204074 -85.139766 
L 156.907864 -85.139766 
L 154.611655 -85.139766 
L 152.315445 -85.139766 
L 150.019235 -85.139766 
L 147.723026 -85.139766 
L 145.426816 -85.139766 
L 143.130607 -85.139766 
z
" style="stroke: #ff0000; stroke-opacity: 0.3"/>
    </defs>
    <g clip-path="url(#p4455d194a4)">
     <use xlink:href="#m924a053861" x="0" y="432" style="fill: #ff0000; fill-opacity: 0.3; stroke: #ff0000; stroke-opacity: 0.3"/>
    </g>
   </g>
   <g id="PolyCollection_4">
    <defs>
     <path id="m7903c8803b" d="M 143.130607 -85.139766 
L 143.130607 -85.139766 
L 145.426816 -85.139766 
L 147.723026 -85.139766 
L 150.019235 -85.139766 
L 152.315445 -85.139766 
L 154.611655 -85.139766 
L 156.907864 -85.139766 
L 159.204074 -85.139766 
L 161.500283 -85.139766 
L 163.796493 -85.139766 
L 166.092702 -85.139766 
L 168.388912 -85.139766 
L 170.685121 -85.139766 
L 172.981331 -85.139766 
L 175.27754 -85.139766 
L 177.57375 -85.139766 
L 179.869959 -85.139766 
L 182.166169 -85.139766 
L 184.462379 -85.139766 
L 186.758588 -85.139766 
L 189.054798 -85.139766 
L 191.351007 -85.139766 
L 193.647217 -85.139766 
L 195.943426 -85.139766 
L 198.239636 -85.139766 
L 200.535845 -85.139766 
L 202.832055 -85.139766 
L 205.128264 -85.139766 
L 207.424474 -85.139766 
L 209.720683 -85.139766 
L 212.016893 -85.139766 
L 214.313103 -85.139766 
L 216.609312 -85.139766 
L 218.905522 -85.139766 
L 221.201731 -85.139766 
L 223.497941 -85.139766 
L 225.79415 -85.139766 
L 228.09036 -85.139766 
L 230.386569 -85.139766 
L 232.682779 -85.139766 
L 234.978988 -85.139766 
L 237.275198 -85.139766 
L 239.571407 -85.139766 
L 241.867617 -85.139766 
L 244.163827 -85.139766 
L 246.460036 -85.139766 
L 248.756246 -85.139766 
L 251.052455 -85.139766 
L 253.348665 -85.139766 
L 255.644874 -85.139766 
L 257.941084 -85.139766 
L 260.237293 -85.139766 
L 262.533503 -85.139766 
L 264.829712 -85.139766 
L 267.125922 -85.139766 
L 269.422131 -85.139766 
L 271.718341 -85.139766 
L 274.014551 -85.139766 
L 276.31076 -85.139766 
L 278.60697 -85.139766 
L 280.903179 -85.139766 
L 283.199389 -85.139766 
L 285.495598 -85.139766 
L 287.791808 -85.139766 
L 290.088017 -85.139766 
L 292.384227 -85.139766 
L 294.680436 -85.139766 
L 296.976646 -85.139766 
L 299.272855 -85.139766 
L 301.569065 -85.139766 
L 303.865275 -85.139766 
L 306.161484 -85.128859 
L 308.457694 -85.117951 
L 310.753903 -85.107044 
L 313.050113 -85.096137 
L 315.346322 -85.08523 
L 317.642532 -85.074322 
L 319.938741 -85.063415 
L 322.234951 -85.052508 
L 324.53116 -85.0416 
L 326.82737 -85.030693 
L 329.123579 -85.019786 
L 331.419789 -85.008878 
L 333.715999 -84.997971 
L 336.012208 -84.987064 
L 338.308418 -84.976157 
L 340.604627 -84.965249 
L 342.900837 -84.954342 
L 345.197046 -84.943435 
L 347.493256 -84.932527 
L 349.789465 -84.932527 
L 352.085675 -84.932527 
L 354.381884 -84.932527 
L 356.678094 -84.932527 
L 358.974303 -84.932527 
L 361.270513 -84.932527 
L 363.566723 -84.932527 
L 365.862932 -84.932527 
L 368.159142 -84.932527 
L 370.455351 -84.932527 
L 372.751561 -84.932527 
L 375.04777 -84.932527 
L 377.34398 -84.932527 
L 379.640189 -84.932527 
L 381.936399 -84.932527 
L 384.232608 -84.932527 
L 386.528818 -84.932527 
L 388.825027 -84.932527 
L 391.121237 -84.932527 
L 393.417447 -84.932527 
L 395.713656 -84.932527 
L 398.009866 -84.932527 
L 400.306075 -84.932527 
L 402.602285 -84.932527 
L 404.898494 -84.932527 
L 407.194704 -84.932527 
L 409.490913 -84.932527 
L 411.787123 -84.932527 
L 414.083332 -84.932527 
L 416.379542 -84.932527 
L 418.675751 -84.932527 
L 420.971961 -84.932527 
L 423.268171 -84.932527 
L 425.56438 -84.932527 
L 427.86059 -84.932527 
L 430.156799 -84.932527 
L 432.453009 -84.932527 
L 434.749218 -84.932527 
L 437.045428 -84.932527 
L 439.341637 -84.932527 
L 441.637847 -84.932527 
L 443.934056 -84.932527 
L 446.230266 -84.932527 
L 448.526475 -84.932527 
L 450.822685 -84.932527 
L 453.118895 -84.932527 
L 455.415104 -84.932527 
L 457.711314 -84.932527 
L 460.007523 -84.932527 
L 462.303733 -84.932527 
L 464.599942 -84.932527 
L 466.896152 -84.932527 
L 469.192361 -84.932527 
L 471.488571 -84.932527 
L 473.78478 -84.932527 
L 476.08099 -84.932527 
L 478.377199 -84.932527 
L 480.673409 -84.932527 
L 482.969619 -84.932527 
L 485.265828 -84.932527 
L 487.562038 -84.932527 
L 489.858247 -84.932527 
L 492.154457 -84.932527 
L 494.450666 -84.932527 
L 496.746876 -84.932527 
L 499.043085 -84.932527 
L 501.339295 -84.932527 
L 503.635504 -84.932527 
L 505.931714 -84.932527 
L 508.227923 -84.932527 
L 510.524133 -84.932527 
L 512.820343 -84.932527 
L 515.116552 -84.932527 
L 517.412762 -84.932527 
L 519.708971 -84.932527 
L 522.005181 -84.932527 
L 524.30139 -84.932527 
L 526.5976 -84.932527 
L 528.893809 -84.932527 
L 531.190019 -84.932527 
L 533.486228 -84.932527 
L 535.782438 -84.932527 
L 538.078647 -84.932527 
L 540.374857 -84.932527 
L 542.671067 -84.976725 
L 544.967276 -84.976725 
L 547.263486 -85.019336 
L 549.559695 -85.019336 
L 551.855905 -85.019336 
L 554.152114 -85.019336 
L 556.448324 -85.060242 
L 558.744533 -85.099327 
L 561.040743 -85.136483 
L 563.336952 -85.171609 
L 565.633162 -85.171609 
L 567.929371 -85.204618 
L 570.225581 -85.235442 
L 572.521791 -85.264032 
L 574.818 -85.290365 
L 577.11421 -85.314439 
L 579.410419 -85.336281 
L 581.706629 -85.355936 
L 584.002838 -85.373476 
L 586.299048 -85.373476 
L 588.595257 -85.373476 
L 590.891467 -85.373476 
L 593.187676 -85.373476 
L 595.483886 -85.373476 
L 597.780095 -85.373476 
L 600.076305 -85.373476 
L 602.372515 -85.373476 
L 604.668724 -85.373476 
L 606.964934 -85.388986 
L 609.261143 -85.402565 
L 611.557353 -85.414324 
L 613.853562 -85.424379 
L 616.149772 -85.432846 
L 618.445981 -85.439843 
L 620.742191 -85.445483 
L 623.0384 -85.449877 
L 625.33461 -85.516179 
L 627.630819 -85.580865 
L 629.927029 -85.643506 
L 632.223239 -85.70604 
L 634.519448 -85.766702 
L 636.815658 -85.828109 
L 639.111867 -85.889264 
L 641.408077 -85.950121 
L 643.704286 -86.010624 
L 646.000496 -86.070704 
L 648.296705 -86.124711 
L 650.592915 -86.176034 
L 652.889124 -86.16862 
L 655.185334 -86.160782 
L 657.481543 -86.15259 
L 659.777753 -86.135358 
L 662.073963 -86.117255 
L 664.370172 -86.098504 
L 666.666382 -86.079259 
L 668.962591 -86.059628 
L 671.258801 -86.039691 
L 673.55501 -86.019508 
L 675.85122 -85.999124 
L 678.147429 -85.978573 
L 680.443639 -85.957884 
L 682.739848 -85.937076 
L 685.036058 -85.916169 
L 687.332267 -85.895175 
L 689.628477 -85.874107 
L 691.924687 -85.852975 
L 694.220896 -85.831785 
L 696.517106 -85.810546 
L 698.813315 -85.789262 
L 701.109525 -85.76794 
L 703.405734 -85.746582 
L 705.701944 -85.725192 
L 707.998153 -85.703775 
L 710.294363 -85.682331 
L 712.590572 -85.660865 
L 714.886782 -85.639377 
L 717.182991 -85.61787 
L 719.479201 -85.638204 
L 721.775411 -85.616752 
L 724.07162 -85.636891 
L 726.36783 -85.656779 
L 728.664039 -85.676431 
L 730.960249 -85.695863 
L 733.256458 -85.715088 
L 735.552668 -85.734118 
L 737.848877 -85.752964 
L 740.145087 -85.81083 
L 742.441296 -85.829095 
L 744.737506 -85.857443 
L 747.033715 -85.885545 
L 749.329925 -85.913406 
L 751.626135 -85.941032 
L 753.922344 -85.95846 
L 756.218554 -85.97578 
L 758.514763 -85.992997 
L 760.810973 -86.010116 
L 763.107182 -86.027143 
L 765.403392 -86.080304 
L 767.699601 -86.158621 
L 769.995811 -86.235324 
L 772.29202 -86.328456 
L 774.58823 -86.41909 
L 776.884439 -86.475339 
L 779.180649 -86.561993 
L 781.476859 -86.646241 
L 783.773068 -86.720773 
L 786.069278 -86.850946 
L 788.365487 -86.980274 
L 790.661697 -87.108774 
L 792.957906 -87.236465 
L 795.254116 -87.363364 
L 797.550325 -87.48949 
L 799.846535 -87.614859 
L 802.142744 -87.739491 
L 802.142744 -96.127639 
L 802.142744 -96.127639 
L 799.846535 -95.93628 
L 797.550325 -95.745659 
L 795.254116 -95.555794 
L 792.957906 -95.366702 
L 790.661697 -95.178402 
L 788.365487 -94.990912 
L 786.069278 -94.804249 
L 783.773068 -94.618432 
L 781.476859 -94.429638 
L 779.180649 -94.303226 
L 776.884439 -94.17922 
L 774.58823 -94.077473 
L 772.29202 -93.957447 
L 769.995811 -93.839918 
L 767.699601 -93.600631 
L 765.403392 -93.362957 
L 763.107182 -93.205457 
L 760.810973 -93.064489 
L 758.514763 -92.923613 
L 756.218554 -92.782834 
L 753.922344 -92.642158 
L 751.626135 -92.501591 
L 749.329925 -92.423887 
L 747.033715 -92.346418 
L 744.737506 -92.26919 
L 742.441296 -92.192208 
L 740.145087 -92.052478 
L 737.848877 -91.899683 
L 735.552668 -91.760534 
L 733.256458 -91.621568 
L 730.960249 -91.482798 
L 728.664039 -91.344234 
L 726.36783 -91.205892 
L 724.07162 -91.067784 
L 721.775411 -90.929928 
L 719.479201 -90.803145 
L 717.182991 -90.665484 
L 714.886782 -90.538647 
L 712.590572 -90.411829 
L 710.294363 -90.285032 
L 707.998153 -90.158259 
L 705.701944 -90.031511 
L 703.405734 -89.904791 
L 701.109525 -89.778103 
L 698.813315 -89.65145 
L 696.517106 -89.524836 
L 694.220896 -89.398267 
L 691.924687 -89.271747 
L 689.628477 -89.145284 
L 687.332267 -89.018886 
L 685.036058 -88.892563 
L 682.739848 -88.766325 
L 680.443639 -88.640187 
L 678.147429 -88.514167 
L 675.85122 -88.388286 
L 673.55501 -88.262572 
L 671.258801 -88.137059 
L 668.962591 -88.011792 
L 666.666382 -87.886831 
L 664.370172 -87.762255 
L 662.073963 -87.638174 
L 659.777753 -87.514741 
L 657.481543 -87.392179 
L 655.185334 -87.331322 
L 652.889124 -87.270819 
L 650.592915 -87.210739 
L 648.296705 -87.156732 
L 646.000496 -87.105409 
L 643.704286 -87.112823 
L 641.408077 -87.120662 
L 639.111867 -87.128854 
L 636.815658 -87.137343 
L 634.519448 -87.146085 
L 632.223239 -87.101417 
L 629.927029 -87.058621 
L 627.630819 -87.068596 
L 625.33461 -87.027952 
L 623.0384 -86.988924 
L 620.742191 -86.940653 
L 618.445981 -86.893629 
L 616.149772 -86.84796 
L 613.853562 -86.803762 
L 611.557353 -86.761152 
L 609.261143 -86.720246 
L 606.964934 -86.68116 
L 604.668724 -86.644005 
L 602.372515 -86.644005 
L 600.076305 -86.644005 
L 597.780095 -86.644005 
L 595.483886 -86.644005 
L 593.187676 -86.644005 
L 590.891467 -86.644005 
L 588.595257 -86.644005 
L 586.299048 -86.644005 
L 584.002838 -86.644005 
L 581.706629 -86.608879 
L 579.410419 -86.57587 
L 577.11421 -86.545046 
L 574.818 -86.516455 
L 572.521791 -86.490123 
L 570.225581 -86.466048 
L 567.929371 -86.444207 
L 565.633162 -86.424551 
L 563.336952 -86.424551 
L 561.040743 -86.407012 
L 558.744533 -86.391502 
L 556.448324 -86.377922 
L 554.152114 -86.366163 
L 551.855905 -86.366163 
L 549.559695 -86.366163 
L 547.263486 -86.366163 
L 544.967276 -86.356109 
L 542.671067 -86.356109 
L 540.374857 -86.347642 
L 538.078647 -86.347642 
L 535.782438 -86.347642 
L 533.486228 -86.347642 
L 531.190019 -86.347642 
L 528.893809 -86.347642 
L 526.5976 -86.347642 
L 524.30139 -86.347642 
L 522.005181 -86.347642 
L 519.708971 -86.347642 
L 517.412762 -86.347642 
L 515.116552 -86.347642 
L 512.820343 -86.347642 
L 510.524133 -86.347642 
L 508.227923 -86.347642 
L 505.931714 -86.347642 
L 503.635504 -86.347642 
L 501.339295 -86.347642 
L 499.043085 -86.347642 
L 496.746876 -86.347642 
L 494.450666 -86.347642 
L 492.154457 -86.347642 
L 489.858247 -86.347642 
L 487.562038 -86.347642 
L 485.265828 -86.347642 
L 482.969619 -86.347642 
L 480.673409 -86.347642 
L 478.377199 -86.347642 
L 476.08099 -86.347642 
L 473.78478 -86.347642 
L 471.488571 -86.347642 
L 469.192361 -86.347642 
L 466.896152 -86.347642 
L 464.599942 -86.347642 
L 462.303733 -86.347642 
L 460.007523 -86.347642 
L 457.711314 -86.347642 
L 455.415104 -86.347642 
L 453.118895 -86.347642 
L 450.822685 -86.347642 
L 448.526475 -86.347642 
L 446.230266 -86.347642 
L 443.934056 -86.347642 
L 441.637847 -86.347642 
L 439.341637 -86.347642 
L 437.045428 -86.347642 
L 434.749218 -86.347642 
L 432.453009 -86.347642 
L 430.156799 -86.347642 
L 427.86059 -86.347642 
L 425.56438 -86.347642 
L 423.268171 -86.347642 
L 420.971961 -86.347642 
L 418.675751 -86.347642 
L 416.379542 -86.347642 
L 414.083332 -86.347642 
L 411.787123 -86.347642 
L 409.490913 -86.347642 
L 407.194704 -86.347642 
L 404.898494 -86.347642 
L 402.602285 -86.347642 
L 400.306075 -86.347642 
L 398.009866 -86.347642 
L 395.713656 -86.347642 
L 393.417447 -86.347642 
L 391.121237 -86.347642 
L 388.825027 -86.347642 
L 386.528818 -86.347642 
L 384.232608 -86.347642 
L 381.936399 -86.347642 
L 379.640189 -86.347642 
L 377.34398 -86.347642 
L 375.04777 -86.347642 
L 372.751561 -86.347642 
L 370.455351 -86.347642 
L 368.159142 -86.347642 
L 365.862932 -86.347642 
L 363.566723 -86.347642 
L 361.270513 -86.347642 
L 358.974303 -86.347642 
L 356.678094 -86.347642 
L 354.381884 -86.347642 
L 352.085675 -86.347642 
L 349.789465 -86.347642 
L 347.493256 -86.347642 
L 345.197046 -86.284069 
L 342.900837 -86.220497 
L 340.604627 -86.156925 
L 338.308418 -86.093352 
L 336.012208 -86.02978 
L 333.715999 -85.966207 
L 331.419789 -85.902635 
L 329.123579 -85.839063 
L 326.82737 -85.77549 
L 324.53116 -85.711918 
L 322.234951 -85.648345 
L 319.938741 -85.584773 
L 317.642532 -85.5212 
L 315.346322 -85.457628 
L 313.050113 -85.394056 
L 310.753903 -85.330483 
L 308.457694 -85.266911 
L 306.161484 -85.203338 
L 303.865275 -85.139766 
L 301.569065 -85.139766 
L 299.272855 -85.139766 
L 296.976646 -85.139766 
L 294.680436 -85.139766 
L 292.384227 -85.139766 
L 290.088017 -85.139766 
L 287.791808 -85.139766 
L 285.495598 -85.139766 
L 283.199389 -85.139766 
L 280.903179 -85.139766 
L 278.60697 -85.139766 
L 276.31076 -85.139766 
L 274.014551 -85.139766 
L 271.718341 -85.139766 
L 269.422131 -85.139766 
L 267.125922 -85.139766 
L 264.829712 -85.139766 
L 262.533503 -85.139766 
L 260.237293 -85.139766 
L 257.941084 -85.139766 
L 255.644874 -85.139766 
L 253.348665 -85.139766 
L 251.052455 -85.139766 
L 248.756246 -85.139766 
L 246.460036 -85.139766 
L 244.163827 -85.139766 
L 241.867617 -85.139766 
L 239.571407 -85.139766 
L 237.275198 -85.139766 
L 234.978988 -85.139766 
L 232.682779 -85.139766 
L 230.386569 -85.139766 
L 228.09036 -85.139766 
L 225.79415 -85.139766 
L 223.497941 -85.139766 
L 221.201731 -85.139766 
L 218.905522 -85.139766 
L 216.609312 -85.139766 
L 214.313103 -85.139766 
L 212.016893 -85.139766 
L 209.720683 -85.139766 
L 207.424474 -85.139766 
L 205.128264 -85.139766 
L 202.832055 -85.139766 
L 200.535845 -85.139766 
L 198.239636 -85.139766 
L 195.943426 -85.139766 
L 193.647217 -85.139766 
L 191.351007 -85.139766 
L 189.054798 -85.139766 
L 186.758588 -85.139766 
L 184.462379 -85.139766 
L 182.166169 -85.139766 
L 179.869959 -85.139766 
L 177.57375 -85.139766 
L 175.27754 -85.139766 
L 172.981331 -85.139766 
L 170.685121 -85.139766 
L 168.388912 -85.139766 
L 166.092702 -85.139766 
L 163.796493 -85.139766 
L 161.500283 -85.139766 
L 159.204074 -85.139766 
L 156.907864 -85.139766 
L 154.611655 -85.139766 
L 152.315445 -85.139766 
L 150.019235 -85.139766 
L 147.723026 -85.139766 
L 145.426816 -85.139766 
L 143.130607 -85.139766 
z
" style="stroke: #ffa500; stroke-opacity: 0.3"/>
    </defs>
    <g clip-path="url(#p4455d194a4)">
     <use xlink:href="#m7903c8803b" x="0" y="432" style="fill: #ffa500; fill-opacity: 0.3; stroke: #ffa500; stroke-opacity: 0.3"/>
    </g>
   </g>
   <g id="matplotlib.axis_1">
    <g id="xtick_1">
     <g id="line2d_1">
      <defs>
       <path id="ma222a038bb" d="M 0 0 
L 0 3.5 
" style="stroke: #000000; stroke-width: 0.8"/>
      </defs>
      <g>
       <use xlink:href="#ma222a038bb" x="143.130607" y="354.76" style="stroke: #000000; stroke-width: 0.8"/>
      </g>
     </g>
     <g id="text_1">
      <!-- 0 -->
      <g transform="translate(136.130607 381.01) scale(0.28 -0.28)">
       <defs>
        <path id="SimHei-30" d="M 225 2537 
Q 250 3200 412 3587 
Q 575 3975 875 4225 
Q 1175 4475 1612 4475 
Q 2050 4475 2375 4112 
Q 2700 3750 2800 3200 
Q 2900 2650 2862 1937 
Q 2825 1225 2612 775 
Q 2400 325 1975 150 
Q 1550 -25 1125 187 
Q 700 400 525 750 
Q 350 1100 275 1487 
Q 200 1875 225 2537 
z
M 750 2687 
Q 675 2000 800 1462 
Q 925 925 1212 700 
Q 1500 475 1800 612 
Q 2100 750 2237 1162 
Q 2375 1575 2375 2062 
Q 2375 2550 2337 2950 
Q 2300 3350 2112 3675 
Q 1925 4000 1612 4012 
Q 1300 4025 1062 3700 
Q 825 3375 750 2687 
z
" transform="scale(0.015625)"/>
       </defs>
       <use xlink:href="#SimHei-30"/>
      </g>
     </g>
    </g>
    <g id="xtick_2">
     <g id="line2d_2">
      <g>
       <use xlink:href="#ma222a038bb" x="257.941084" y="354.76" style="stroke: #000000; stroke-width: 0.8"/>
      </g>
     </g>
     <g id="text_2">
      <!-- 50 -->
      <g transform="translate(243.941084 381.01) scale(0.28 -0.28)">
       <defs>
        <path id="SimHei-35" d="M 550 1325 
Q 725 650 1150 575 
Q 1575 500 1837 662 
Q 2100 825 2212 1087 
Q 2325 1350 2312 1675 
Q 2300 2000 2137 2225 
Q 1975 2450 1725 2525 
Q 1475 2600 1162 2525 
Q 850 2450 650 2175 
L 225 2225 
Q 275 2375 700 4375 
L 2675 4375 
L 2675 3925 
L 1075 3925 
Q 950 3250 825 2850 
Q 1200 3025 1525 3012 
Q 1850 3000 2150 2862 
Q 2450 2725 2587 2487 
Q 2725 2250 2787 2012 
Q 2850 1775 2837 1500 
Q 2825 1225 2725 937 
Q 2625 650 2425 462 
Q 2225 275 1937 162 
Q 1650 50 1275 75 
Q 900 100 562 350 
Q 225 600 100 1200 
L 550 1325 
z
" transform="scale(0.015625)"/>
       </defs>
       <use xlink:href="#SimHei-35"/>
       <use xlink:href="#SimHei-30" x="50"/>
      </g>
     </g>
    </g>
    <g id="xtick_3">
     <g id="line2d_3">
      <g>
       <use xlink:href="#ma222a038bb" x="372.751561" y="354.76" style="stroke: #000000; stroke-width: 0.8"/>
      </g>
     </g>
     <g id="text_3">
      <!-- 100 -->
      <g transform="translate(351.751561 381.01) scale(0.28 -0.28)">
       <defs>
        <path id="SimHei-31" d="M 1400 3600 
Q 1075 3275 575 2975 
L 575 3450 
Q 1200 3875 1600 4450 
L 1900 4450 
L 1900 150 
L 1400 150 
L 1400 3600 
z
" transform="scale(0.015625)"/>
       </defs>
       <use xlink:href="#SimHei-31"/>
       <use xlink:href="#SimHei-30" x="50"/>
       <use xlink:href="#SimHei-30" x="100"/>
      </g>
     </g>
    </g>
    <g id="xtick_4">
     <g id="line2d_4">
      <g>
       <use xlink:href="#ma222a038bb" x="487.562038" y="354.76" style="stroke: #000000; stroke-width: 0.8"/>
      </g>
     </g>
     <g id="text_4">
      <!-- 150 -->
      <g transform="translate(466.562038 381.01) scale(0.28 -0.28)">
       <use xlink:href="#SimHei-31"/>
       <use xlink:href="#SimHei-35" x="50"/>
       <use xlink:href="#SimHei-30" x="100"/>
      </g>
     </g>
    </g>
    <g id="xtick_5">
     <g id="line2d_5">
      <g>
       <use xlink:href="#ma222a038bb" x="602.372515" y="354.76" style="stroke: #000000; stroke-width: 0.8"/>
      </g>
     </g>
     <g id="text_5">
      <!-- 200 -->
      <g transform="translate(581.372515 381.01) scale(0.28 -0.28)">
       <defs>
        <path id="SimHei-32" d="M 300 250 
Q 325 625 650 925 
Q 975 1225 1475 1862 
Q 1975 2500 2125 2850 
Q 2275 3200 2237 3450 
Q 2200 3700 2000 3862 
Q 1800 4025 1537 4000 
Q 1275 3975 1037 3800 
Q 800 3625 675 3275 
L 200 3350 
Q 400 3925 712 4187 
Q 1025 4450 1450 4475 
Q 1700 4500 1900 4462 
Q 2100 4425 2312 4287 
Q 2525 4150 2662 3875 
Q 2800 3600 2762 3212 
Q 2725 2825 2375 2287 
Q 2025 1750 1025 600 
L 2825 600 
L 2825 150 
L 300 150 
L 300 250 
z
" transform="scale(0.015625)"/>
       </defs>
       <use xlink:href="#SimHei-32"/>
       <use xlink:href="#SimHei-30" x="50"/>
       <use xlink:href="#SimHei-30" x="100"/>
      </g>
     </g>
    </g>
    <g id="xtick_6">
     <g id="line2d_6">
      <g>
       <use xlink:href="#ma222a038bb" x="717.182991" y="354.76" style="stroke: #000000; stroke-width: 0.8"/>
      </g>
     </g>
     <g id="text_6">
      <!-- 250 -->
      <g transform="translate(696.182991 381.01) scale(0.28 -0.28)">
       <use xlink:href="#SimHei-32"/>
       <use xlink:href="#SimHei-35" x="50"/>
       <use xlink:href="#SimHei-30" x="100"/>
      </g>
     </g>
    </g>
    <g id="xtick_7">
     <g id="line2d_7">
      <g>
       <use xlink:href="#ma222a038bb" x="831.993468" y="354.76" style="stroke: #000000; stroke-width: 0.8"/>
      </g>
     </g>
     <g id="text_7">
      <!-- 300 -->
      <g transform="translate(810.993468 381.01) scale(0.28 -0.28)">
       <defs>
        <path id="SimHei-33" d="M 250 1225 
L 700 1300 
Q 800 975 1025 762 
Q 1250 550 1587 562 
Q 1925 575 2125 837 
Q 2325 1100 2300 1437 
Q 2275 1775 2037 1962 
Q 1800 2150 1275 2225 
L 1275 2550 
Q 1800 2600 2037 2825 
Q 2275 3050 2250 3412 
Q 2225 3775 1925 3937 
Q 1625 4100 1287 3975 
Q 950 3850 750 3275 
L 300 3350 
Q 450 3800 712 4100 
Q 975 4400 1425 4450 
Q 1875 4500 2212 4337 
Q 2550 4175 2687 3837 
Q 2825 3500 2725 3100 
Q 2625 2700 2150 2400 
Q 2500 2250 2687 1950 
Q 2875 1650 2812 1162 
Q 2750 675 2375 375 
Q 2000 75 1525 87 
Q 1050 100 700 387 
Q 350 675 250 1225 
z
" transform="scale(0.015625)"/>
       </defs>
       <use xlink:href="#SimHei-33"/>
       <use xlink:href="#SimHei-30" x="50"/>
       <use xlink:href="#SimHei-30" x="100"/>
      </g>
     </g>
    </g>
    <g id="text_8">
     <!-- Time Steps -->
     <g transform="translate(372.636676 416.3225) scale(0.4 -0.4)">
      <defs>
       <path id="SimHei-54" d="M 2850 3925 
L 1850 3925 
L 1850 125 
L 1275 125 
L 1275 3925 
L 275 3925 
L 275 4400 
L 2850 4400 
L 2850 3925 
z
" transform="scale(0.015625)"/>
       <path id="SimHei-69" d="M 1800 3725 
L 1300 3725 
L 1300 4375 
L 1800 4375 
L 1800 3725 
z
M 1800 125 
L 1300 125 
L 1300 2925 
L 1800 2925 
L 1800 125 
z
" transform="scale(0.015625)"/>
       <path id="SimHei-6d" d="M 3050 125 
L 2550 125 
L 2550 2150 
Q 2550 2300 2500 2400 
Q 2450 2500 2300 2500 
Q 2125 2500 1975 2312 
Q 1825 2125 1825 1825 
L 1825 125 
L 1325 125 
L 1325 2150 
Q 1325 2300 1275 2400 
Q 1225 2500 1075 2500 
Q 900 2500 750 2312 
Q 600 2125 600 1825 
L 600 125 
L 100 125 
L 100 2925 
L 600 2925 
L 600 2550 
Q 725 2750 900 2862 
Q 1075 2975 1275 2975 
Q 1475 2975 1612 2862 
Q 1750 2750 1800 2550 
Q 1925 2750 2087 2862 
Q 2250 2975 2450 2975 
Q 2750 2975 2900 2812 
Q 3050 2650 3050 2350 
L 3050 125 
z
" transform="scale(0.015625)"/>
       <path id="SimHei-65" d="M 2850 1075 
Q 2800 625 2450 350 
Q 2100 75 1625 75 
Q 1025 75 637 462 
Q 250 850 250 1525 
Q 250 2200 637 2587 
Q 1025 2975 1625 2975 
Q 2150 2975 2487 2637 
Q 2825 2300 2825 1525 
L 800 1525 
Q 800 975 1037 750 
Q 1275 525 1625 525 
Q 1900 525 2075 662 
Q 2250 800 2300 1075 
L 2850 1075 
z
M 2250 1925 
Q 2200 2275 2025 2412 
Q 1850 2550 1575 2550 
Q 1325 2550 1125 2412 
Q 925 2275 825 1925 
L 2250 1925 
z
" transform="scale(0.015625)"/>
       <path id="SimHei-20" transform="scale(0.015625)"/>
       <path id="SimHei-53" d="M 2900 1325 
Q 2900 750 2537 412 
Q 2175 75 1550 75 
Q 925 75 575 425 
Q 225 775 225 1300 
L 225 1475 
L 800 1475 
L 800 1325 
Q 800 950 1025 750 
Q 1250 550 1550 550 
Q 1950 550 2137 762 
Q 2325 975 2325 1275 
Q 2325 1525 2100 1737 
Q 1875 1950 1450 2125 
Q 850 2350 587 2625 
Q 325 2900 325 3275 
Q 325 3800 687 4125 
Q 1050 4450 1550 4450 
Q 2200 4450 2487 4062 
Q 2775 3675 2775 3225 
L 2200 3225 
Q 2225 3500 2050 3725 
Q 1875 3950 1550 3950 
Q 1250 3950 1075 3787 
Q 900 3625 900 3350 
Q 900 3125 1037 2962 
Q 1175 2800 1750 2575 
Q 2300 2350 2600 2037 
Q 2900 1725 2900 1325 
z
" transform="scale(0.015625)"/>
       <path id="SimHei-74" d="M 2750 200 
Q 2625 150 2462 112 
Q 2300 75 2025 75 
Q 1575 75 1300 325 
Q 1025 575 1025 1025 
L 1025 2525 
L 175 2525 
L 175 2925 
L 1025 2925 
L 1025 3900 
L 1525 3900 
L 1525 2925 
L 2550 2925 
L 2550 2525 
L 1525 2525 
L 1525 1000 
Q 1525 800 1625 662 
Q 1725 525 2000 525 
Q 2275 525 2450 575 
Q 2625 625 2750 700 
L 2750 200 
z
" transform="scale(0.015625)"/>
       <path id="SimHei-70" d="M 2825 1525 
Q 2825 800 2475 425 
Q 2125 50 1625 50 
Q 1350 50 1150 162 
Q 950 275 800 500 
L 800 -800 
L 300 -800 
L 300 2925 
L 800 2925 
L 800 2550 
Q 950 2775 1150 2875 
Q 1350 2975 1625 2975 
Q 2125 2975 2475 2612 
Q 2825 2250 2825 1525 
z
M 2275 1525 
Q 2275 2000 2087 2262 
Q 1900 2525 1525 2525 
Q 1225 2525 1012 2262 
Q 800 2000 800 1525 
Q 800 1050 1012 775 
Q 1225 500 1525 500 
Q 1900 500 2087 775 
Q 2275 1050 2275 1525 
z
" transform="scale(0.015625)"/>
       <path id="SimHei-73" d="M 2750 900 
Q 2750 500 2437 287 
Q 2125 75 1650 75 
Q 1050 75 725 312 
Q 400 550 400 1000 
L 900 1000 
Q 900 700 1112 600 
Q 1325 500 1625 500 
Q 1925 500 2075 612 
Q 2225 725 2225 900 
Q 2225 1025 2100 1150 
Q 1975 1275 1475 1350 
Q 900 1425 687 1637 
Q 475 1850 475 2200 
Q 475 2500 762 2737 
Q 1050 2975 1600 2975 
Q 2100 2975 2387 2750 
Q 2675 2525 2675 2150 
L 2175 2150 
Q 2175 2375 2012 2462 
Q 1850 2550 1600 2550 
Q 1275 2550 1137 2437 
Q 1000 2325 1000 2175 
Q 1000 2000 1125 1900 
Q 1250 1800 1650 1750 
Q 2300 1650 2525 1437 
Q 2750 1225 2750 900 
z
" transform="scale(0.015625)"/>
      </defs>
      <use xlink:href="#SimHei-54"/>
      <use xlink:href="#SimHei-69" x="50"/>
      <use xlink:href="#SimHei-6d" x="100"/>
      <use xlink:href="#SimHei-65" x="150"/>
      <use xlink:href="#SimHei-20" x="200"/>
      <use xlink:href="#SimHei-53" x="250"/>
      <use xlink:href="#SimHei-74" x="300"/>
      <use xlink:href="#SimHei-65" x="350"/>
      <use xlink:href="#SimHei-70" x="400"/>
      <use xlink:href="#SimHei-73" x="450"/>
     </g>
    </g>
   </g>
   <g id="matplotlib.axis_2">
    <g id="ytick_1">
     <g id="line2d_8">
      <defs>
       <path id="mc8e50c6d19" d="M 0 0 
L -3.5 0 
" style="stroke: #000000; stroke-width: 0.8"/>
      </defs>
      <g>
       <use xlink:href="#mc8e50c6d19" x="110.18" y="346.860234" style="stroke: #000000; stroke-width: 0.8"/>
      </g>
     </g>
     <g id="text_9">
      <!-- 0 -->
      <g transform="translate(89.18 356.485234) scale(0.28 -0.28)">
       <use xlink:href="#SimHei-30"/>
      </g>
     </g>
    </g>
    <g id="ytick_2">
     <g id="line2d_9">
      <g>
       <use xlink:href="#mc8e50c6d19" x="110.18" y="307.361404" style="stroke: #000000; stroke-width: 0.8"/>
      </g>
     </g>
     <g id="text_10">
      <!-- 500 -->
      <g transform="translate(61.18 316.986404) scale(0.28 -0.28)">
       <use xlink:href="#SimHei-35"/>
       <use xlink:href="#SimHei-30" x="50"/>
       <use xlink:href="#SimHei-30" x="100"/>
      </g>
     </g>
    </g>
    <g id="ytick_3">
     <g id="line2d_10">
      <g>
       <use xlink:href="#mc8e50c6d19" x="110.18" y="267.862574" style="stroke: #000000; stroke-width: 0.8"/>
      </g>
     </g>
     <g id="text_11">
      <!-- 1000 -->
      <g transform="translate(47.18 277.487574) scale(0.28 -0.28)">
       <use xlink:href="#SimHei-31"/>
       <use xlink:href="#SimHei-30" x="50"/>
       <use xlink:href="#SimHei-30" x="100"/>
       <use xlink:href="#SimHei-30" x="150"/>
      </g>
     </g>
    </g>
    <g id="ytick_4">
     <g id="line2d_11">
      <g>
       <use xlink:href="#mc8e50c6d19" x="110.18" y="228.363743" style="stroke: #000000; stroke-width: 0.8"/>
      </g>
     </g>
     <g id="text_12">
      <!-- 1500 -->
      <g transform="translate(47.18 237.988743) scale(0.28 -0.28)">
       <use xlink:href="#SimHei-31"/>
       <use xlink:href="#SimHei-35" x="50"/>
       <use xlink:href="#SimHei-30" x="100"/>
       <use xlink:href="#SimHei-30" x="150"/>
      </g>
     </g>
    </g>
    <g id="ytick_5">
     <g id="line2d_12">
      <g>
       <use xlink:href="#mc8e50c6d19" x="110.18" y="188.864913" style="stroke: #000000; stroke-width: 0.8"/>
      </g>
     </g>
     <g id="text_13">
      <!-- 2000 -->
      <g transform="translate(47.18 198.489913) scale(0.28 -0.28)">
       <use xlink:href="#SimHei-32"/>
       <use xlink:href="#SimHei-30" x="50"/>
       <use xlink:href="#SimHei-30" x="100"/>
       <use xlink:href="#SimHei-30" x="150"/>
      </g>
     </g>
    </g>
    <g id="ytick_6">
     <g id="line2d_13">
      <g>
       <use xlink:href="#mc8e50c6d19" x="110.18" y="149.366083" style="stroke: #000000; stroke-width: 0.8"/>
      </g>
     </g>
     <g id="text_14">
      <!-- 2500 -->
      <g transform="translate(47.18 158.991083) scale(0.28 -0.28)">
       <use xlink:href="#SimHei-32"/>
       <use xlink:href="#SimHei-35" x="50"/>
       <use xlink:href="#SimHei-30" x="100"/>
       <use xlink:href="#SimHei-30" x="150"/>
      </g>
     </g>
    </g>
    <g id="ytick_7">
     <g id="line2d_14">
      <g>
       <use xlink:href="#mc8e50c6d19" x="110.18" y="109.867253" style="stroke: #000000; stroke-width: 0.8"/>
      </g>
     </g>
     <g id="text_15">
      <!-- 3000 -->
      <g transform="translate(47.18 119.492253) scale(0.28 -0.28)">
       <use xlink:href="#SimHei-33"/>
       <use xlink:href="#SimHei-30" x="50"/>
       <use xlink:href="#SimHei-30" x="100"/>
       <use xlink:href="#SimHei-30" x="150"/>
      </g>
     </g>
    </g>
    <g id="ytick_8">
     <g id="line2d_15">
      <g>
       <use xlink:href="#mc8e50c6d19" x="110.18" y="70.368422" style="stroke: #000000; stroke-width: 0.8"/>
      </g>
     </g>
     <g id="text_16">
      <!-- 3500 -->
      <g transform="translate(47.18 79.993422) scale(0.28 -0.28)">
       <use xlink:href="#SimHei-33"/>
       <use xlink:href="#SimHei-35" x="50"/>
       <use xlink:href="#SimHei-30" x="100"/>
       <use xlink:href="#SimHei-30" x="150"/>
      </g>
     </g>
    </g>
    <g id="ytick_9">
     <g id="line2d_16">
      <g>
       <use xlink:href="#mc8e50c6d19" x="110.18" y="30.869592" style="stroke: #000000; stroke-width: 0.8"/>
      </g>
     </g>
     <g id="text_17">
      <!-- 4000 -->
      <g transform="translate(47.18 40.494592) scale(0.28 -0.28)">
       <defs>
        <path id="SimHei-34" d="M 2000 1100 
L 75 1100 
L 75 1525 
L 2100 4450 
L 2475 4450 
L 2475 1525 
L 3075 1525 
L 3075 1100 
L 2475 1100 
L 2475 150 
L 2000 150 
L 2000 1100 
z
M 2000 1525 
L 2000 3500 
L 600 1525 
L 2000 1525 
z
" transform="scale(0.015625)"/>
       </defs>
       <use xlink:href="#SimHei-34"/>
       <use xlink:href="#SimHei-30" x="50"/>
       <use xlink:href="#SimHei-30" x="100"/>
       <use xlink:href="#SimHei-30" x="150"/>
      </g>
     </g>
    </g>
    <g id="text_18">
     <!-- $m_{vct}$ -->
     <g transform="translate(35.98 224.38) rotate(-90) scale(0.4 -0.4)">
      <defs>
       <path id="DejaVuSans-Oblique-6d" d="M 5747 2113 
L 5338 0 
L 4763 0 
L 5166 2094 
Q 5191 2228 5203 2325 
Q 5216 2422 5216 2491 
Q 5216 2772 5059 2928 
Q 4903 3084 4622 3084 
Q 4203 3084 3875 2770 
Q 3547 2456 3450 1953 
L 3066 0 
L 2491 0 
L 2900 2094 
Q 2925 2209 2937 2307 
Q 2950 2406 2950 2484 
Q 2950 2769 2794 2926 
Q 2638 3084 2363 3084 
Q 1938 3084 1609 2770 
Q 1281 2456 1184 1953 
L 800 0 
L 225 0 
L 909 3500 
L 1484 3500 
L 1375 2956 
Q 1609 3263 1923 3423 
Q 2238 3584 2597 3584 
Q 2978 3584 3223 3384 
Q 3469 3184 3519 2828 
Q 3781 3197 4126 3390 
Q 4472 3584 4856 3584 
Q 5306 3584 5551 3325 
Q 5797 3066 5797 2591 
Q 5797 2488 5784 2364 
Q 5772 2241 5747 2113 
z
" transform="scale(0.015625)"/>
       <path id="DejaVuSans-Oblique-76" d="M 459 3500 
L 1069 3500 
L 1581 525 
L 3256 3500 
L 3866 3500 
L 1875 0 
L 1100 0 
L 459 3500 
z
" transform="scale(0.015625)"/>
       <path id="DejaVuSans-Oblique-63" d="M 3431 3366 
L 3316 2797 
Q 3109 2947 2876 3022 
Q 2644 3097 2394 3097 
Q 2119 3097 1870 3000 
Q 1622 2903 1453 2725 
Q 1184 2453 1037 2087 
Q 891 1722 891 1331 
Q 891 859 1127 628 
Q 1363 397 1844 397 
Q 2081 397 2348 469 
Q 2616 541 2906 684 
L 2797 116 
Q 2547 13 2283 -39 
Q 2019 -91 1741 -91 
Q 1044 -91 669 257 
Q 294 606 294 1253 
Q 294 1797 489 2255 
Q 684 2713 1069 3078 
Q 1331 3328 1684 3456 
Q 2038 3584 2456 3584 
Q 2700 3584 2940 3529 
Q 3181 3475 3431 3366 
z
" transform="scale(0.015625)"/>
       <path id="DejaVuSans-Oblique-74" d="M 2706 3500 
L 2619 3053 
L 1472 3053 
L 1100 1153 
Q 1081 1047 1072 975 
Q 1063 903 1063 863 
Q 1063 663 1183 572 
Q 1303 481 1569 481 
L 2150 481 
L 2053 0 
L 1503 0 
Q 991 0 739 200 
Q 488 400 488 806 
Q 488 878 497 964 
Q 506 1050 525 1153 
L 897 3053 
L 409 3053 
L 500 3500 
L 978 3500 
L 1172 4494 
L 1747 4494 
L 1556 3500 
L 2706 3500 
z
" transform="scale(0.015625)"/>
      </defs>
      <use xlink:href="#DejaVuSans-Oblique-6d"/>
      <use xlink:href="#DejaVuSans-Oblique-76" transform="translate(97.412109 -16.40625) scale(0.7)"/>
      <use xlink:href="#DejaVuSans-Oblique-63" transform="translate(138.837891 -16.40625) scale(0.7)"/>
      <use xlink:href="#DejaVuSans-Oblique-74" transform="translate(177.324219 -16.40625) scale(0.7)"/>
     </g>
    </g>
   </g>
   <g id="line2d_17">
    <path d="M 143.130607 346.860234 
L 689.628477 346.754904 
L 707.998153 346.649574 
L 802.142744 346.623241 
L 802.142744 346.623241 
" clip-path="url(#p4455d194a4)" style="fill: none; stroke: #0000ff; stroke-width: 3; stroke-linecap: square"/>
   </g>
   <g id="line2d_18">
    <path d="M 143.130607 346.860234 
L 274.014551 346.754904 
L 287.791808 346.491578 
L 294.680436 346.254585 
L 326.82737 344.700965 
L 336.012208 343.963653 
L 345.197046 342.936683 
L 356.678094 341.2514 
L 365.862932 339.566117 
L 377.34398 336.985526 
L 384.232608 335.221245 
L 388.825027 333.878285 
L 395.713656 331.850678 
L 409.490913 327.874463 
L 430.156799 320.659343 
L 434.749218 318.737067 
L 443.934056 314.839849 
L 448.526475 312.99657 
L 453.118895 311.153291 
L 460.007523 308.388373 
L 464.599942 306.281769 
L 473.78478 302.279221 
L 478.377199 300.462275 
L 492.154457 295.45909 
L 503.635504 291.535539 
L 512.820343 288.375633 
L 528.893809 283.319782 
L 538.078647 280.581197 
L 547.263486 277.842611 
L 572.521791 270.680157 
L 579.410419 268.75788 
L 590.891467 265.571641 
L 604.668724 261.858751 
L 646.000496 249.561449 
L 652.889124 247.744503 
L 659.777753 245.664231 
L 685.036058 237.869795 
L 694.220896 235.34187 
L 705.701944 232.260961 
L 714.886782 230.049027 
L 735.552668 225.65149 
L 740.145087 224.624521 
L 763.107182 219.200015 
L 772.29202 217.198741 
L 795.254116 211.8269 
L 802.142744 210.036286 
L 802.142744 210.036286 
" clip-path="url(#p4455d194a4)" style="fill: none; stroke: #008000; stroke-width: 3; stroke-linecap: square"/>
   </g>
   <g id="line2d_19">
    <path d="M 143.130607 346.860234 
L 255.644874 346.754904 
L 269.422131 346.491578 
L 276.31076 346.228253 
L 287.791808 345.253948 
L 294.680436 344.437639 
L 299.272855 343.805658 
L 308.457694 342.568028 
L 315.346322 341.435728 
L 329.123579 338.67081 
L 338.308418 336.19555 
L 345.197046 334.536599 
L 349.789465 333.272636 
L 356.678094 331.24503 
L 365.862932 328.611774 
L 377.34398 325.004215 
L 404.898494 315.129507 
L 411.787123 312.469919 
L 420.971961 308.520036 
L 434.749218 301.778902 
L 446.230266 295.959408 
L 457.711314 290.060916 
L 466.896152 285.294724 
L 471.488571 283.030124 
L 489.858247 273.629403 
L 505.931714 265.808634 
L 519.708971 259.278161 
L 528.893809 255.03862 
L 538.078647 250.851744 
L 554.152114 243.188971 
L 563.336952 239.186423 
L 579.410419 232.155631 
L 593.187676 225.467162 
L 600.076305 222.017598 
L 606.964934 218.673364 
L 616.149772 213.933504 
L 639.111867 201.346543 
L 648.296705 196.606684 
L 652.889124 193.868098 
L 657.481543 190.839855 
L 673.55501 179.885512 
L 678.147429 176.541278 
L 687.332267 169.510486 
L 691.924687 166.034589 
L 698.813315 160.926074 
L 717.182991 146.75916 
L 730.960249 135.172837 
L 751.626135 116.582054 
L 756.218554 112.237182 
L 763.107182 105.496049 
L 774.58823 94.041388 
L 781.476859 86.720938 
L 786.069278 81.744086 
L 802.142744 63.758952 
L 802.142744 63.758952 
" clip-path="url(#p4455d194a4)" style="fill: none; stroke: #ff0000; stroke-width: 3; stroke-linecap: square"/>
   </g>
   <g id="line2d_20">
    <path d="M 143.130607 346.860234 
L 313.050113 346.754904 
L 356.678094 346.359915 
L 558.744533 346.254585 
L 590.891467 345.99126 
L 613.853562 345.885929 
L 646.000496 345.411944 
L 735.552668 343.252674 
L 769.995811 341.962379 
L 788.365487 341.014407 
L 802.142744 340.066435 
L 802.142744 340.066435 
" clip-path="url(#p4455d194a4)" style="fill: none; stroke: #ffa500; stroke-width: 3; stroke-linecap: square"/>
   </g>
   <g id="patch_3">
    <path d="M 110.18 354.76 
L 110.18 10.8 
" style="fill: none; stroke: #000000; stroke-width: 0.8; stroke-linejoin: miter; stroke-linecap: square"/>
   </g>
   <g id="patch_4">
    <path d="M 835.093351 354.76 
L 835.093351 10.8 
" style="fill: none; stroke: #000000; stroke-width: 0.8; stroke-linejoin: miter; stroke-linecap: square"/>
   </g>
   <g id="patch_5">
    <path d="M 110.18 354.76 
L 835.093351 354.76 
" style="fill: none; stroke: #000000; stroke-width: 0.8; stroke-linejoin: miter; stroke-linecap: square"/>
   </g>
   <g id="patch_6">
    <path d="M 110.18 10.8 
L 835.093351 10.8 
" style="fill: none; stroke: #000000; stroke-width: 0.8; stroke-linejoin: miter; stroke-linecap: square"/>
   </g>
  </g>
 </g>
 <defs>
  <clipPath id="p4455d194a4">
   <rect x="110.18" y="10.8" width="724.913351" height="343.96"/>
  </clipPath>
 </defs>
</svg>
