<?xml version="1.0" encoding="utf-8" standalone="no"?>
<!DOCTYPE svg PUBLIC "-//W3C//DTD SVG 1.1//EN"
  "http://www.w3.org/Graphics/SVG/1.1/DTD/svg11.dtd">
<svg xmlns:xlink="http://www.w3.org/1999/xlink" width="864pt" height="432pt" viewBox="0 0 864 432" xmlns="http://www.w3.org/2000/svg" version="1.1">
 <metadata>
  <rdf:RDF xmlns:dc="http://purl.org/dc/elements/1.1/" xmlns:cc="http://creativecommons.org/ns#" xmlns:rdf="http://www.w3.org/1999/02/22-rdf-syntax-ns#">
   <cc:Work>
    <dc:type rdf:resource="http://purl.org/dc/dcmitype/StillImage"/>
    <dc:date>2025-06-20T06:41:36.732719</dc:date>
    <dc:format>image/svg+xml</dc:format>
    <dc:creator>
     <cc:Agent>
      <dc:title>Matplotlib v3.7.1, https://matplotlib.org/</dc:title>
     </cc:Agent>
    </dc:creator>
   </cc:Work>
  </rdf:RDF>
 </metadata>
 <defs>
  <style type="text/css">*{stroke-linejoin: round; stroke-linecap: butt}</style>
 </defs>
 <g id="figure_1">
  <g id="patch_1">
   <path d="M 0 432 
L 864 432 
L 864 0 
L 0 0 
z
" style="fill: #ffffff"/>
  </g>
  <g id="axes_1">
   <g id="patch_2">
    <path d="M 110 354.76 
L 835.093351 354.76 
L 835.093351 18.038901 
L 110 18.038901 
z
" style="fill: #ffffff"/>
   </g>
   <g id="PolyCollection_1">
    <defs>
     <path id="m76e7f488d6" d="M 142.958789 -132.941593 
L 142.958789 -132.941593 
L 145.255568 -132.941593 
L 147.552348 -132.941593 
L 149.849128 -132.941593 
L 152.145907 -132.941593 
L 154.442687 -132.941593 
L 156.739467 -132.941593 
L 159.036247 -132.941593 
L 161.333026 -132.941593 
L 163.629806 -132.941593 
L 165.926586 -132.941593 
L 168.223365 -132.941593 
L 170.520145 -132.941593 
L 172.816925 -132.941593 
L 175.113704 -132.941593 
L 177.410484 -132.941593 
L 179.707264 -132.941593 
L 182.004044 -132.941593 
L 184.300823 -132.941593 
L 186.597603 -132.941593 
L 188.894383 -132.941593 
L 191.191162 -132.941593 
L 193.487942 -132.941593 
L 195.784722 -132.941593 
L 198.081501 -132.941593 
L 200.378281 -132.941593 
L 202.675061 -132.941593 
L 204.971841 -132.941593 
L 207.26862 -132.941593 
L 209.5654 -132.941593 
L 211.86218 -132.941593 
L 214.158959 -132.941593 
L 216.455739 -132.941593 
L 218.752519 -132.941593 
L 221.049298 -132.941593 
L 223.346078 -132.941593 
L 225.642858 -132.941593 
L 227.939638 -132.941593 
L 230.236417 -132.941593 
L 232.533197 -132.941593 
L 234.829977 -132.941593 
L 237.126756 -132.941593 
L 239.423536 -132.941593 
L 241.720316 -132.941593 
L 244.017095 -132.941593 
L 246.313875 -132.941593 
L 248.610655 -132.941593 
L 250.907435 -132.941593 
L 253.204214 -132.941593 
L 255.500994 -132.941593 
L 257.797774 -132.941593 
L 260.094553 -132.941593 
L 262.391333 -132.941593 
L 264.688113 -132.941593 
L 266.984892 -132.941593 
L 269.281672 -132.941593 
L 271.578452 -132.941593 
L 273.875232 -132.941593 
L 276.172011 -132.941593 
L 278.468791 -132.941593 
L 280.765571 -132.941593 
L 283.06235 -132.941593 
L 285.35913 -132.941593 
L 287.65591 -132.941593 
L 289.952689 -132.941593 
L 292.249469 -132.941593 
L 294.546249 -132.941593 
L 296.843029 -132.941593 
L 299.139808 -132.941593 
L 301.436588 -132.941593 
L 303.733368 -132.941593 
L 306.030147 -132.941593 
L 308.326927 -132.941593 
L 310.623707 -132.941593 
L 312.920486 -132.941593 
L 315.217266 -132.941593 
L 317.514046 -132.941593 
L 319.810826 -132.941593 
L 322.107605 -132.941593 
L 324.404385 -132.941593 
L 326.701165 -132.941593 
L 328.997944 -132.941593 
L 331.294724 -132.941593 
L 333.591504 -132.941593 
L 335.888283 -132.941593 
L 338.185063 -132.941593 
L 340.481843 -132.941593 
L 342.778623 -132.941593 
L 345.075402 -132.941593 
L 347.372182 -132.941593 
L 349.668962 -132.941593 
L 351.965741 -132.941593 
L 354.262521 -132.941593 
L 356.559301 -132.941593 
L 358.85608 -132.941593 
L 361.15286 -132.941593 
L 363.44964 -132.941593 
L 365.74642 -132.941593 
L 368.043199 -132.941593 
L 370.339979 -132.941593 
L 372.636759 -132.941593 
L 374.933538 -132.941593 
L 377.230318 -132.941593 
L 379.527098 -132.941593 
L 381.823877 -132.941593 
L 384.120657 -132.941593 
L 386.417437 -132.941593 
L 388.714217 -132.941593 
L 391.010996 -132.941593 
L 393.307776 -132.941593 
L 395.604556 -132.941593 
L 397.901335 -132.941593 
L 400.198115 -132.941593 
L 402.494895 -132.941593 
L 404.791674 -132.941593 
L 407.088454 -132.941593 
L 409.385234 -132.941593 
L 411.682014 -132.941593 
L 413.978793 -132.941593 
L 416.275573 -132.941593 
L 418.572353 -132.941593 
L 420.869132 -132.941593 
L 423.165912 -132.941593 
L 425.462692 -132.941593 
L 427.759471 -132.941593 
L 430.056251 -132.941593 
L 432.353031 -132.941593 
L 434.649811 -132.941593 
L 436.94659 -132.941593 
L 439.24337 -132.941593 
L 441.54015 -132.941593 
L 443.836929 -132.941593 
L 446.133709 -132.941593 
L 448.430489 -132.941593 
L 450.727268 -132.941593 
L 453.024048 -132.941593 
L 455.320828 -132.941593 
L 457.617608 -132.941593 
L 459.914387 -132.941593 
L 462.211167 -132.941593 
L 464.507947 -132.941593 
L 466.804726 -132.941593 
L 469.101506 -132.941593 
L 471.398286 -132.941593 
L 473.695065 -132.941593 
L 475.991845 -132.941593 
L 478.288625 -132.941593 
L 480.585405 -132.941593 
L 482.882184 -132.941593 
L 485.178964 -132.941593 
L 487.475744 -132.941593 
L 489.772523 -132.941593 
L 492.069303 -132.941593 
L 494.366083 -132.941593 
L 496.662862 -132.941593 
L 498.959642 -132.941593 
L 501.256422 -132.941593 
L 503.553202 -132.941593 
L 505.849981 -132.941593 
L 508.146761 -132.941593 
L 510.443541 -132.941593 
L 512.74032 -132.941593 
L 515.0371 -132.941593 
L 517.33388 -132.941593 
L 519.630659 -132.941593 
L 521.927439 -132.941593 
L 524.224219 -132.941593 
L 526.520999 -132.941593 
L 528.817778 -132.941593 
L 531.114558 -132.941593 
L 533.411338 -132.864685 
L 535.708117 -132.864685 
L 538.004897 -132.864685 
L 540.301677 -132.864685 
L 542.598456 -132.864685 
L 544.895236 -132.864685 
L 547.192016 -132.864685 
L 549.488796 -132.864685 
L 551.785575 -132.864685 
L 554.082355 -132.864685 
L 556.379135 -132.787778 
L 558.675914 -132.71087 
L 560.972694 -132.557054 
L 563.269474 -132.403238 
L 565.566253 -132.32633 
L 567.863033 -132.249423 
L 570.159813 -132.172515 
L 572.456593 -132.095607 
L 574.753372 -132.018699 
L 577.050152 -131.941791 
L 579.346932 -131.864883 
L 581.643711 -131.787976 
L 583.940491 -131.711068 
L 586.237271 -131.63416 
L 588.53405 -131.557252 
L 590.83083 -131.791986 
L 593.12761 -132.016673 
L 595.42439 -132.232168 
L 597.721169 -132.439276 
L 600.017949 -132.63875 
L 602.314729 -132.831282 
L 604.611508 -133.017508 
L 606.908288 -132.950039 
L 609.205068 -133.198004 
L 611.501847 -133.132729 
L 613.798627 -133.132729 
L 616.095407 -133.132729 
L 618.392187 -133.132729 
L 620.688966 -133.132729 
L 622.985746 -133.132729 
L 625.282526 -133.507055 
L 627.579305 -133.875758 
L 629.876085 -133.875758 
L 632.172865 -133.875758 
L 634.469644 -133.875758 
L 636.766424 -133.875758 
L 639.063204 -133.875758 
L 641.359984 -133.875758 
L 643.656763 -133.875758 
L 645.953543 -133.875758 
L 648.250323 -133.875758 
L 650.547102 -133.875758 
L 652.843882 -133.875758 
L 655.140662 -133.875758 
L 657.437441 -133.875758 
L 659.734221 -133.875758 
L 662.031001 -133.875758 
L 664.327781 -133.875758 
L 666.62456 -133.875758 
L 668.92134 -133.875758 
L 671.21812 -133.875758 
L 673.514899 -133.875758 
L 675.811679 -133.875758 
L 678.108459 -133.875758 
L 680.405238 -133.875758 
L 682.702018 -133.875758 
L 684.998798 -133.875758 
L 687.295578 -133.875758 
L 689.592357 -133.875758 
L 691.889137 -133.875758 
L 694.185917 -133.875758 
L 696.482696 -133.875758 
L 698.779476 -133.875758 
L 701.076256 -133.875758 
L 703.373035 -133.875758 
L 705.669815 -133.875758 
L 707.966595 -133.875758 
L 710.263375 -133.875758 
L 712.560154 -133.875758 
L 714.856934 -133.875758 
L 717.153714 -133.875758 
L 719.450493 -133.875758 
L 721.747273 -133.875758 
L 724.044053 -133.875758 
L 726.340832 -133.875758 
L 728.637612 -133.875758 
L 730.934392 -133.875758 
L 733.231172 -133.875758 
L 735.527951 -133.875758 
L 737.824731 -133.875758 
L 740.121511 -133.875758 
L 742.41829 -133.875758 
L 744.71507 -133.875758 
L 747.01185 -133.875758 
L 749.308629 -133.875758 
L 751.605409 -133.875758 
L 753.902189 -133.875758 
L 756.198969 -133.875758 
L 758.495748 -133.875758 
L 760.792528 -133.875758 
L 763.089308 -133.875758 
L 765.386087 -133.875758 
L 767.682867 -133.875758 
L 769.979647 -133.875758 
L 772.276426 -133.875758 
L 774.573206 -133.875758 
L 776.869986 -133.875758 
L 779.166766 -133.875758 
L 781.463545 -133.875758 
L 783.760325 -133.875758 
L 786.057105 -133.875758 
L 788.353884 -133.875758 
L 790.650664 -133.875758 
L 792.947444 -133.875758 
L 795.244223 -133.875758 
L 797.541003 -133.875758 
L 799.837783 -133.875758 
L 802.134563 -133.875758 
L 802.134563 -145.747155 
L 802.134563 -145.747155 
L 799.837783 -145.747155 
L 797.541003 -145.747155 
L 795.244223 -145.747155 
L 792.947444 -145.747155 
L 790.650664 -145.747155 
L 788.353884 -145.747155 
L 786.057105 -145.747155 
L 783.760325 -145.747155 
L 781.463545 -145.747155 
L 779.166766 -145.747155 
L 776.869986 -145.747155 
L 774.573206 -145.747155 
L 772.276426 -145.747155 
L 769.979647 -145.747155 
L 767.682867 -145.747155 
L 765.386087 -145.747155 
L 763.089308 -145.747155 
L 760.792528 -145.747155 
L 758.495748 -145.747155 
L 756.198969 -145.747155 
L 753.902189 -145.747155 
L 751.605409 -145.747155 
L 749.308629 -145.747155 
L 747.01185 -145.747155 
L 744.71507 -145.747155 
L 742.41829 -145.747155 
L 740.121511 -145.747155 
L 737.824731 -145.747155 
L 735.527951 -145.747155 
L 733.231172 -145.747155 
L 730.934392 -145.747155 
L 728.637612 -145.747155 
L 726.340832 -145.747155 
L 724.044053 -145.747155 
L 721.747273 -145.747155 
L 719.450493 -145.747155 
L 717.153714 -145.747155 
L 714.856934 -145.747155 
L 712.560154 -145.747155 
L 710.263375 -145.747155 
L 707.966595 -145.747155 
L 705.669815 -145.747155 
L 703.373035 -145.747155 
L 701.076256 -145.747155 
L 698.779476 -145.747155 
L 696.482696 -145.747155 
L 694.185917 -145.747155 
L 691.889137 -145.747155 
L 689.592357 -145.747155 
L 687.295578 -145.747155 
L 684.998798 -145.747155 
L 682.702018 -145.747155 
L 680.405238 -145.747155 
L 678.108459 -145.747155 
L 675.811679 -145.747155 
L 673.514899 -145.747155 
L 671.21812 -145.747155 
L 668.92134 -145.747155 
L 666.62456 -145.747155 
L 664.327781 -145.747155 
L 662.031001 -145.747155 
L 659.734221 -145.747155 
L 657.437441 -145.747155 
L 655.140662 -145.747155 
L 652.843882 -145.747155 
L 650.547102 -145.747155 
L 648.250323 -145.747155 
L 645.953543 -145.747155 
L 643.656763 -145.747155 
L 641.359984 -145.747155 
L 639.063204 -145.747155 
L 636.766424 -145.747155 
L 634.469644 -145.747155 
L 632.172865 -145.747155 
L 629.876085 -145.747155 
L 627.579305 -145.747155 
L 625.282526 -145.744514 
L 622.985746 -145.747496 
L 620.688966 -145.747496 
L 618.392187 -145.747496 
L 616.095407 -145.747496 
L 613.798627 -145.747496 
L 611.501847 -145.747496 
L 609.205068 -145.310877 
L 606.908288 -145.187498 
L 604.611508 -144.748686 
L 602.314729 -144.192223 
L 600.017949 -143.642067 
L 597.721169 -143.098853 
L 595.42439 -142.563274 
L 593.12761 -142.036081 
L 590.83083 -141.518079 
L 588.53405 -141.010126 
L 586.237271 -140.561874 
L 583.940491 -140.113622 
L 581.643711 -139.66537 
L 579.346932 -139.217119 
L 577.050152 -138.768867 
L 574.753372 -138.320615 
L 572.456593 -137.872363 
L 570.159813 -137.424111 
L 567.863033 -136.97586 
L 565.566253 -136.527608 
L 563.269474 -136.079356 
L 560.972694 -135.182852 
L 558.675914 -134.286349 
L 556.379135 -133.838097 
L 554.082355 -133.389845 
L 551.785575 -133.389845 
L 549.488796 -133.389845 
L 547.192016 -133.389845 
L 544.895236 -133.389845 
L 542.598456 -133.389845 
L 540.301677 -133.389845 
L 538.004897 -133.389845 
L 535.708117 -133.389845 
L 533.411338 -133.389845 
L 531.114558 -132.941593 
L 528.817778 -132.941593 
L 526.520999 -132.941593 
L 524.224219 -132.941593 
L 521.927439 -132.941593 
L 519.630659 -132.941593 
L 517.33388 -132.941593 
L 515.0371 -132.941593 
L 512.74032 -132.941593 
L 510.443541 -132.941593 
L 508.146761 -132.941593 
L 505.849981 -132.941593 
L 503.553202 -132.941593 
L 501.256422 -132.941593 
L 498.959642 -132.941593 
L 496.662862 -132.941593 
L 494.366083 -132.941593 
L 492.069303 -132.941593 
L 489.772523 -132.941593 
L 487.475744 -132.941593 
L 485.178964 -132.941593 
L 482.882184 -132.941593 
L 480.585405 -132.941593 
L 478.288625 -132.941593 
L 475.991845 -132.941593 
L 473.695065 -132.941593 
L 471.398286 -132.941593 
L 469.101506 -132.941593 
L 466.804726 -132.941593 
L 464.507947 -132.941593 
L 462.211167 -132.941593 
L 459.914387 -132.941593 
L 457.617608 -132.941593 
L 455.320828 -132.941593 
L 453.024048 -132.941593 
L 450.727268 -132.941593 
L 448.430489 -132.941593 
L 446.133709 -132.941593 
L 443.836929 -132.941593 
L 441.54015 -132.941593 
L 439.24337 -132.941593 
L 436.94659 -132.941593 
L 434.649811 -132.941593 
L 432.353031 -132.941593 
L 430.056251 -132.941593 
L 427.759471 -132.941593 
L 425.462692 -132.941593 
L 423.165912 -132.941593 
L 420.869132 -132.941593 
L 418.572353 -132.941593 
L 416.275573 -132.941593 
L 413.978793 -132.941593 
L 411.682014 -132.941593 
L 409.385234 -132.941593 
L 407.088454 -132.941593 
L 404.791674 -132.941593 
L 402.494895 -132.941593 
L 400.198115 -132.941593 
L 397.901335 -132.941593 
L 395.604556 -132.941593 
L 393.307776 -132.941593 
L 391.010996 -132.941593 
L 388.714217 -132.941593 
L 386.417437 -132.941593 
L 384.120657 -132.941593 
L 381.823877 -132.941593 
L 379.527098 -132.941593 
L 377.230318 -132.941593 
L 374.933538 -132.941593 
L 372.636759 -132.941593 
L 370.339979 -132.941593 
L 368.043199 -132.941593 
L 365.74642 -132.941593 
L 363.44964 -132.941593 
L 361.15286 -132.941593 
L 358.85608 -132.941593 
L 356.559301 -132.941593 
L 354.262521 -132.941593 
L 351.965741 -132.941593 
L 349.668962 -132.941593 
L 347.372182 -132.941593 
L 345.075402 -132.941593 
L 342.778623 -132.941593 
L 340.481843 -132.941593 
L 338.185063 -132.941593 
L 335.888283 -132.941593 
L 333.591504 -132.941593 
L 331.294724 -132.941593 
L 328.997944 -132.941593 
L 326.701165 -132.941593 
L 324.404385 -132.941593 
L 322.107605 -132.941593 
L 319.810826 -132.941593 
L 317.514046 -132.941593 
L 315.217266 -132.941593 
L 312.920486 -132.941593 
L 310.623707 -132.941593 
L 308.326927 -132.941593 
L 306.030147 -132.941593 
L 303.733368 -132.941593 
L 301.436588 -132.941593 
L 299.139808 -132.941593 
L 296.843029 -132.941593 
L 294.546249 -132.941593 
L 292.249469 -132.941593 
L 289.952689 -132.941593 
L 287.65591 -132.941593 
L 285.35913 -132.941593 
L 283.06235 -132.941593 
L 280.765571 -132.941593 
L 278.468791 -132.941593 
L 276.172011 -132.941593 
L 273.875232 -132.941593 
L 271.578452 -132.941593 
L 269.281672 -132.941593 
L 266.984892 -132.941593 
L 264.688113 -132.941593 
L 262.391333 -132.941593 
L 260.094553 -132.941593 
L 257.797774 -132.941593 
L 255.500994 -132.941593 
L 253.204214 -132.941593 
L 250.907435 -132.941593 
L 248.610655 -132.941593 
L 246.313875 -132.941593 
L 244.017095 -132.941593 
L 241.720316 -132.941593 
L 239.423536 -132.941593 
L 237.126756 -132.941593 
L 234.829977 -132.941593 
L 232.533197 -132.941593 
L 230.236417 -132.941593 
L 227.939638 -132.941593 
L 225.642858 -132.941593 
L 223.346078 -132.941593 
L 221.049298 -132.941593 
L 218.752519 -132.941593 
L 216.455739 -132.941593 
L 214.158959 -132.941593 
L 211.86218 -132.941593 
L 209.5654 -132.941593 
L 207.26862 -132.941593 
L 204.971841 -132.941593 
L 202.675061 -132.941593 
L 200.378281 -132.941593 
L 198.081501 -132.941593 
L 195.784722 -132.941593 
L 193.487942 -132.941593 
L 191.191162 -132.941593 
L 188.894383 -132.941593 
L 186.597603 -132.941593 
L 184.300823 -132.941593 
L 182.004044 -132.941593 
L 179.707264 -132.941593 
L 177.410484 -132.941593 
L 175.113704 -132.941593 
L 172.816925 -132.941593 
L 170.520145 -132.941593 
L 168.223365 -132.941593 
L 165.926586 -132.941593 
L 163.629806 -132.941593 
L 161.333026 -132.941593 
L 159.036247 -132.941593 
L 156.739467 -132.941593 
L 154.442687 -132.941593 
L 152.145907 -132.941593 
L 149.849128 -132.941593 
L 147.552348 -132.941593 
L 145.255568 -132.941593 
L 142.958789 -132.941593 
z
" style="stroke: #0000ff; stroke-opacity: 0.3"/>
    </defs>
    <g clip-path="url(#p57ad87a405)">
     <use xlink:href="#m76e7f488d6" x="0" y="432" style="fill: #0000ff; fill-opacity: 0.3; stroke: #0000ff; stroke-opacity: 0.3"/>
    </g>
   </g>
   <g id="PolyCollection_2">
    <defs>
     <path id="me91aa16bf8" d="M 142.958789 -132.941593 
L 142.958789 -132.941593 
L 145.255568 -132.941593 
L 147.552348 -132.941593 
L 149.849128 -132.941593 
L 152.145907 -132.941593 
L 154.442687 -132.941593 
L 156.739467 -132.941593 
L 159.036247 -132.941593 
L 161.333026 -132.941593 
L 163.629806 -132.941593 
L 165.926586 -132.941593 
L 168.223365 -132.941593 
L 170.520145 -132.941593 
L 172.816925 -132.941593 
L 175.113704 -132.941593 
L 177.410484 -132.941593 
L 179.707264 -132.941593 
L 182.004044 -132.941593 
L 184.300823 -132.941593 
L 186.597603 -132.941593 
L 188.894383 -132.941593 
L 191.191162 -132.941593 
L 193.487942 -132.941593 
L 195.784722 -132.941593 
L 198.081501 -132.941593 
L 200.378281 -132.941593 
L 202.675061 -132.941593 
L 204.971841 -132.941593 
L 207.26862 -132.941593 
L 209.5654 -132.941593 
L 211.86218 -132.941593 
L 214.158959 -132.941593 
L 216.455739 -132.941593 
L 218.752519 -132.941593 
L 221.049298 -132.941593 
L 223.346078 -132.941593 
L 225.642858 -132.941593 
L 227.939638 -132.941593 
L 230.236417 -132.941593 
L 232.533197 -132.941593 
L 234.829977 -132.941593 
L 237.126756 -132.941593 
L 239.423536 -132.941593 
L 241.720316 -132.941593 
L 244.017095 -132.941593 
L 246.313875 -132.941593 
L 248.610655 -132.941593 
L 250.907435 -132.941593 
L 253.204214 -132.941593 
L 255.500994 -132.941593 
L 257.797774 -132.941593 
L 260.094553 -132.941593 
L 262.391333 -132.941593 
L 264.688113 -132.941593 
L 266.984892 -132.941593 
L 269.281672 -132.941593 
L 271.578452 -132.941593 
L 273.875232 -132.941593 
L 276.172011 -132.941593 
L 278.468791 -132.941593 
L 280.765571 -132.941593 
L 283.06235 -132.864685 
L 285.35913 -132.787778 
L 287.65591 -132.787778 
L 289.952689 -132.787778 
L 292.249469 -132.787778 
L 294.546249 -132.787778 
L 296.843029 -132.787778 
L 299.139808 -132.787778 
L 301.436588 -132.787778 
L 303.733368 -132.787778 
L 306.030147 -132.787778 
L 308.326927 -132.787778 
L 310.623707 -132.787778 
L 312.920486 -132.787778 
L 315.217266 -132.787778 
L 317.514046 -132.787778 
L 319.810826 -132.787778 
L 322.107605 -132.787778 
L 324.404385 -132.787778 
L 326.701165 -132.787778 
L 328.997944 -132.787778 
L 331.294724 -132.787778 
L 333.591504 -132.787778 
L 335.888283 -133.043808 
L 338.185063 -133.159122 
L 340.481843 -133.175232 
L 342.778623 -133.146022 
L 345.075402 -133.096738 
L 347.372182 -133.037527 
L 349.668962 -132.972831 
L 351.965741 -132.904823 
L 354.262521 -132.834677 
L 356.559301 -133.111846 
L 358.85608 -133.363455 
L 361.15286 -133.286547 
L 363.44964 -133.209639 
L 365.74642 -133.132731 
L 368.043199 -133.055823 
L 370.339979 -132.978915 
L 372.636759 -132.902007 
L 374.933538 -132.8251 
L 377.230318 -132.8251 
L 379.527098 -132.8251 
L 381.823877 -132.8251 
L 384.120657 -132.8251 
L 386.417437 -132.8251 
L 388.714217 -133.135714 
L 391.010996 -133.135714 
L 393.307776 -133.432852 
L 395.604556 -134.06492 
L 397.901335 -134.696707 
L 400.198115 -135.328141 
L 402.494895 -135.959131 
L 404.791674 -136.589546 
L 407.088454 -137.219201 
L 409.385234 -137.84782 
L 411.682014 -138.474982 
L 413.978793 -139.100006 
L 416.275573 -139.721718 
L 418.572353 -140.337945 
L 420.869132 -140.944245 
L 423.165912 -141.530471 
L 425.462692 -141.956063 
L 427.759471 -142.333956 
L 430.056251 -142.519628 
L 432.353031 -142.513078 
L 434.649811 -142.458831 
L 436.94659 -142.392479 
L 439.24337 -142.321604 
L 441.54015 -142.248585 
L 443.836929 -142.506433 
L 446.133709 -142.429525 
L 448.430489 -142.656494 
L 450.727268 -142.860963 
L 453.024048 -143.047755 
L 455.320828 -143.220732 
L 457.617608 -143.38289 
L 459.914387 -143.536523 
L 462.211167 -143.68338 
L 464.507947 -143.824798 
L 466.804726 -144.381814 
L 469.101506 -144.51882 
L 471.398286 -145.075836 
L 473.695065 -145.632852 
L 475.991845 -146.189868 
L 478.288625 -146.746884 
L 480.585405 -147.3039 
L 482.882184 -147.860916 
L 485.178964 -148.551324 
L 487.475744 -149.258686 
L 489.772523 -149.795761 
L 492.069303 -150.326684 
L 494.366083 -150.852313 
L 496.662862 -151.373369 
L 498.959642 -152.301729 
L 501.256422 -153.215678 
L 503.553202 -154.32971 
L 505.849981 -155.229377 
L 508.146761 -156.733674 
L 510.443541 -158.231833 
L 512.74032 -159.409144 
L 515.0371 -160.346604 
L 517.33388 -161.275865 
L 519.630659 -162.195658 
L 521.927439 -163.104519 
L 524.224219 -164.000793 
L 526.520999 -165.191051 
L 528.817778 -166.073579 
L 531.114558 -166.938195 
L 533.411338 -167.782439 
L 535.708117 -168.969109 
L 538.004897 -169.78452 
L 540.301677 -170.341536 
L 542.598456 -171.519594 
L 544.895236 -172.694058 
L 547.192016 -173.863265 
L 549.488796 -174.420281 
L 551.785575 -175.370738 
L 554.082355 -176.299576 
L 556.379135 -177.195237 
L 558.675914 -178.041499 
L 560.972694 -178.821328 
L 563.269474 -179.526875 
L 565.566253 -180.165988 
L 567.863033 -180.755226 
L 570.159813 -181.253821 
L 572.456593 -181.764901 
L 574.753372 -182.269285 
L 577.050152 -182.768863 
L 579.346932 -183.264895 
L 581.643711 -183.37416 
L 583.940491 -183.481693 
L 586.237271 -183.530299 
L 588.53405 -183.57873 
L 590.83083 -183.627049 
L 593.12761 -183.734668 
L 595.42439 -184.232308 
L 597.721169 -184.72862 
L 600.017949 -184.837514 
L 602.314729 -184.945614 
L 604.611508 -185.828728 
L 606.908288 -186.703144 
L 609.205068 -187.194598 
L 611.501847 -187.685341 
L 613.798627 -188.546701 
L 616.095407 -189.400328 
L 618.392187 -190.24643 
L 620.688966 -191.085224 
L 622.985746 -191.916938 
L 625.282526 -192.741808 
L 627.579305 -193.560074 
L 629.876085 -194.371982 
L 632.172865 -195.177775 
L 634.469644 -195.977699 
L 636.766424 -196.771995 
L 639.063204 -197.886027 
L 641.359984 -199.396702 
L 643.656763 -200.510734 
L 645.953543 -201.938789 
L 648.250323 -203.360794 
L 650.547102 -204.776491 
L 652.843882 -205.890523 
L 655.140662 -206.928457 
L 657.437441 -207.966344 
L 659.734221 -209.004189 
L 662.031001 -210.041994 
L 664.327781 -211.156026 
L 666.62456 -212.270058 
L 668.92134 -213.38409 
L 671.21812 -214.498122 
L 673.514899 -215.612153 
L 675.811679 -216.726185 
L 678.108459 -217.840217 
L 680.405238 -219.251797 
L 682.702018 -220.657366 
L 684.998798 -222.056719 
L 687.295578 -223.449652 
L 689.592357 -224.83597 
L 691.889137 -226.285356 
L 694.185917 -227.656057 
L 696.482696 -229.019358 
L 698.779476 -230.609091 
L 701.076256 -232.167467 
L 703.373035 -233.693673 
L 705.669815 -235.187238 
L 707.966595 -236.648069 
L 710.263375 -238.053687 
L 712.560154 -239.444114 
L 714.856934 -241.254911 
L 717.153714 -243.058348 
L 719.450493 -244.415605 
L 721.747273 -246.197787 
L 724.044053 -248.07097 
L 726.340832 -249.854428 
L 728.637612 -251.727059 
L 730.934392 -253.591971 
L 733.231172 -255.449942 
L 735.527951 -257.301662 
L 737.824731 -259.14774 
L 740.121511 -260.988718 
L 742.41829 -262.825076 
L 744.71507 -264.65724 
L 747.01185 -266.485589 
L 749.308629 -268.374468 
L 751.605409 -269.874973 
L 753.902189 -271.371453 
L 756.198969 -272.864584 
L 758.495748 -274.803059 
L 760.792528 -276.738951 
L 763.089308 -278.67254 
L 765.386087 -280.604068 
L 767.682867 -282.533742 
L 769.979647 -284.461746 
L 772.276426 -286.388239 
L 774.573206 -288.313362 
L 776.869986 -290.237237 
L 779.166766 -292.159975 
L 781.463545 -294.528172 
L 783.760325 -296.894988 
L 786.057105 -299.260495 
L 788.353884 -301.624759 
L 790.650664 -303.987843 
L 792.947444 -305.904526 
L 795.244223 -307.820587 
L 797.541003 -309.736073 
L 799.837783 -311.651026 
L 802.134563 -313.565485 
L 802.134563 -370.82234 
L 802.134563 -370.82234 
L 799.837783 -367.537983 
L 797.541003 -364.254121 
L 795.244223 -360.970792 
L 792.947444 -357.688037 
L 790.650664 -354.405905 
L 788.353884 -351.198829 
L 786.057105 -347.992934 
L 783.760325 -344.788282 
L 781.463545 -341.584939 
L 779.166766 -338.382976 
L 776.869986 -335.106898 
L 774.573206 -331.831958 
L 772.276426 -328.558265 
L 769.979647 -325.285943 
L 767.682867 -322.015132 
L 765.386087 -318.745991 
L 763.089308 -315.478703 
L 760.792528 -312.213476 
L 758.495748 -308.950554 
L 756.198969 -305.690213 
L 753.902189 -302.355873 
L 751.605409 -299.024882 
L 749.308629 -295.697915 
L 747.01185 -292.759322 
L 744.71507 -290.131544 
L 742.41829 -287.50758 
L 740.121511 -284.887811 
L 737.824731 -282.272661 
L 735.527951 -279.662612 
L 733.231172 -277.058204 
L 730.934392 -274.460048 
L 728.637612 -271.868832 
L 726.340832 -269.285336 
L 724.044053 -266.98401 
L 721.747273 -264.77241 
L 719.450493 -262.841152 
L 717.153714 -261.227658 
L 714.856934 -259.317655 
L 712.560154 -257.415013 
L 710.263375 -255.463344 
L 707.966595 -253.526867 
L 705.669815 -252.016946 
L 703.373035 -250.53976 
L 701.076256 -249.095213 
L 698.779476 -247.682838 
L 696.482696 -246.301819 
L 694.185917 -245.065713 
L 691.889137 -243.837006 
L 689.592357 -243.058329 
L 687.295578 -241.845239 
L 684.998798 -240.638764 
L 682.702018 -239.438709 
L 680.405238 -238.24487 
L 678.108459 -237.057043 
L 675.811679 -235.943011 
L 673.514899 -234.828979 
L 671.21812 -233.714947 
L 668.92134 -232.600915 
L 666.62456 -231.486883 
L 664.327781 -230.372851 
L 662.031001 -229.25882 
L 659.734221 -227.697217 
L 657.437441 -226.135654 
L 655.140662 -224.574134 
L 652.843882 -223.01266 
L 650.547102 -221.898629 
L 648.250323 -220.714917 
L 645.953543 -219.537515 
L 643.656763 -218.366162 
L 641.359984 -217.25213 
L 639.063204 -216.534742 
L 636.766424 -215.42071 
L 634.469644 -214.358287 
L 632.172865 -213.301491 
L 629.876085 -212.250564 
L 627.579305 -211.205752 
L 625.282526 -210.167298 
L 622.985746 -209.135449 
L 620.688966 -208.110443 
L 618.392187 -207.092517 
L 616.095407 -206.081899 
L 613.798627 -205.078807 
L 611.501847 -204.083446 
L 609.205068 -203.088814 
L 606.908288 -202.094892 
L 604.611508 -201.112588 
L 602.314729 -200.138983 
L 600.017949 -199.13305 
L 597.721169 -198.127912 
L 595.42439 -197.138848 
L 593.12761 -196.151113 
L 590.83083 -195.1447 
L 588.53405 -193.707643 
L 586.237271 -192.270698 
L 583.940491 -190.833928 
L 581.643711 -189.82743 
L 579.346932 -188.822663 
L 577.050152 -187.833319 
L 574.753372 -186.847521 
L 572.456593 -185.866529 
L 570.159813 -184.892234 
L 567.863033 -183.534109 
L 565.566253 -182.266627 
L 563.269474 -181.420365 
L 560.972694 -180.640535 
L 558.675914 -179.934989 
L 556.379135 -179.295875 
L 554.082355 -178.70616 
L 551.785575 -178.149622 
L 549.488796 -177.614703 
L 547.192016 -177.057687 
L 544.895236 -176.370175 
L 542.598456 -175.687919 
L 540.301677 -175.009257 
L 538.004897 -174.452241 
L 535.708117 -173.782277 
L 533.411338 -173.112227 
L 531.114558 -172.471095 
L 528.817778 -171.850335 
L 526.520999 -171.247487 
L 524.224219 -170.581025 
L 521.927439 -169.991923 
L 519.630659 -169.415409 
L 517.33388 -168.849826 
L 515.0371 -168.293711 
L 512.74032 -167.745795 
L 510.443541 -167.066386 
L 508.146761 -165.965138 
L 505.849981 -164.870027 
L 503.553202 -163.912974 
L 501.256422 -162.798943 
L 498.959642 -161.856172 
L 496.662862 -160.927812 
L 494.366083 -159.963492 
L 492.069303 -159.003745 
L 489.772523 -158.049293 
L 487.475744 -157.100992 
L 485.178964 -156.322978 
L 482.882184 -155.156667 
L 480.585405 -154.599651 
L 478.288625 -154.042635 
L 475.991845 -153.485619 
L 473.695065 -152.928603 
L 471.398286 -152.371587 
L 469.101506 -151.814571 
L 466.804726 -151.208889 
L 464.507947 -150.651873 
L 462.211167 -150.050603 
L 459.914387 -149.454772 
L 457.617608 -148.865718 
L 455.320828 -148.285188 
L 453.024048 -147.715476 
L 450.727268 -147.15958 
L 448.430489 -146.621362 
L 446.133709 -146.105643 
L 443.836929 -145.657391 
L 441.54015 -145.172551 
L 439.24337 -144.728188 
L 436.94659 -144.285969 
L 434.649811 -143.848273 
L 432.353031 -143.422682 
L 430.056251 -143.044788 
L 427.759471 -142.859116 
L 425.462692 -142.865666 
L 423.165912 -142.919913 
L 420.869132 -142.763451 
L 418.572353 -142.627063 
L 416.275573 -142.500602 
L 413.978793 -142.379627 
L 411.682014 -142.261962 
L 409.385234 -142.146437 
L 407.088454 -142.032368 
L 404.791674 -141.919335 
L 402.494895 -141.807062 
L 400.198115 -141.695364 
L 397.901335 -141.584111 
L 395.604556 -141.473209 
L 393.307776 -141.362589 
L 391.010996 -141.288384 
L 388.714217 -141.288384 
L 386.417437 -141.227654 
L 384.120657 -141.227654 
L 381.823877 -141.227654 
L 379.527098 -141.227654 
L 377.230318 -141.227654 
L 374.933538 -141.227654 
L 372.636759 -140.779402 
L 370.339979 -140.33115 
L 368.043199 -139.882899 
L 365.74642 -139.434647 
L 363.44964 -138.986395 
L 361.15286 -138.538143 
L 358.85608 -138.089891 
L 356.559301 -137.598812 
L 354.262521 -137.133294 
L 351.965741 -136.691803 
L 349.668962 -136.252452 
L 347.372182 -135.816411 
L 345.075402 -135.385856 
L 342.778623 -134.965228 
L 340.481843 -134.564674 
L 338.185063 -134.209441 
L 335.888283 -133.953411 
L 333.591504 -133.838097 
L 331.294724 -133.838097 
L 328.997944 -133.838097 
L 326.701165 -133.838097 
L 324.404385 -133.838097 
L 322.107605 -133.838097 
L 319.810826 -133.838097 
L 317.514046 -133.838097 
L 315.217266 -133.838097 
L 312.920486 -133.838097 
L 310.623707 -133.838097 
L 308.326927 -133.838097 
L 306.030147 -133.838097 
L 303.733368 -133.838097 
L 301.436588 -133.838097 
L 299.139808 -133.838097 
L 296.843029 -133.838097 
L 294.546249 -133.838097 
L 292.249469 -133.838097 
L 289.952689 -133.838097 
L 287.65591 -133.838097 
L 285.35913 -133.838097 
L 283.06235 -133.389845 
L 280.765571 -132.941593 
L 278.468791 -132.941593 
L 276.172011 -132.941593 
L 273.875232 -132.941593 
L 271.578452 -132.941593 
L 269.281672 -132.941593 
L 266.984892 -132.941593 
L 264.688113 -132.941593 
L 262.391333 -132.941593 
L 260.094553 -132.941593 
L 257.797774 -132.941593 
L 255.500994 -132.941593 
L 253.204214 -132.941593 
L 250.907435 -132.941593 
L 248.610655 -132.941593 
L 246.313875 -132.941593 
L 244.017095 -132.941593 
L 241.720316 -132.941593 
L 239.423536 -132.941593 
L 237.126756 -132.941593 
L 234.829977 -132.941593 
L 232.533197 -132.941593 
L 230.236417 -132.941593 
L 227.939638 -132.941593 
L 225.642858 -132.941593 
L 223.346078 -132.941593 
L 221.049298 -132.941593 
L 218.752519 -132.941593 
L 216.455739 -132.941593 
L 214.158959 -132.941593 
L 211.86218 -132.941593 
L 209.5654 -132.941593 
L 207.26862 -132.941593 
L 204.971841 -132.941593 
L 202.675061 -132.941593 
L 200.378281 -132.941593 
L 198.081501 -132.941593 
L 195.784722 -132.941593 
L 193.487942 -132.941593 
L 191.191162 -132.941593 
L 188.894383 -132.941593 
L 186.597603 -132.941593 
L 184.300823 -132.941593 
L 182.004044 -132.941593 
L 179.707264 -132.941593 
L 177.410484 -132.941593 
L 175.113704 -132.941593 
L 172.816925 -132.941593 
L 170.520145 -132.941593 
L 168.223365 -132.941593 
L 165.926586 -132.941593 
L 163.629806 -132.941593 
L 161.333026 -132.941593 
L 159.036247 -132.941593 
L 156.739467 -132.941593 
L 154.442687 -132.941593 
L 152.145907 -132.941593 
L 149.849128 -132.941593 
L 147.552348 -132.941593 
L 145.255568 -132.941593 
L 142.958789 -132.941593 
z
" style="stroke: #008000; stroke-opacity: 0.3"/>
    </defs>
    <g clip-path="url(#p57ad87a405)">
     <use xlink:href="#me91aa16bf8" x="0" y="432" style="fill: #008000; fill-opacity: 0.3; stroke: #008000; stroke-opacity: 0.3"/>
    </g>
   </g>
   <g id="PolyCollection_3">
    <defs>
     <path id="m7b4701ce7d" d="M 142.958789 -132.941593 
L 142.958789 -132.941593 
L 145.255568 -132.941593 
L 147.552348 -132.941593 
L 149.849128 -132.941593 
L 152.145907 -132.941593 
L 154.442687 -132.941593 
L 156.739467 -132.941593 
L 159.036247 -132.941593 
L 161.333026 -132.941593 
L 163.629806 -132.941593 
L 165.926586 -132.941593 
L 168.223365 -132.941593 
L 170.520145 -132.941593 
L 172.816925 -132.941593 
L 175.113704 -132.941593 
L 177.410484 -132.941593 
L 179.707264 -132.941593 
L 182.004044 -132.941593 
L 184.300823 -132.941593 
L 186.597603 -132.941593 
L 188.894383 -132.941593 
L 191.191162 -132.941593 
L 193.487942 -132.941593 
L 195.784722 -132.941593 
L 198.081501 -132.941593 
L 200.378281 -132.941593 
L 202.675061 -132.941593 
L 204.971841 -132.941593 
L 207.26862 -132.941593 
L 209.5654 -132.941593 
L 211.86218 -132.941593 
L 214.158959 -132.941593 
L 216.455739 -132.941593 
L 218.752519 -132.941593 
L 221.049298 -132.941593 
L 223.346078 -132.941593 
L 225.642858 -132.941593 
L 227.939638 -132.941593 
L 230.236417 -132.941593 
L 232.533197 -132.941593 
L 234.829977 -132.941593 
L 237.126756 -132.941593 
L 239.423536 -132.941593 
L 241.720316 -132.941593 
L 244.017095 -132.941593 
L 246.313875 -132.941593 
L 248.610655 -132.941593 
L 250.907435 -132.941593 
L 253.204214 -132.941593 
L 255.500994 -132.941593 
L 257.797774 -132.941593 
L 260.094553 -132.941593 
L 262.391333 -132.941593 
L 264.688113 -132.941593 
L 266.984892 -132.941593 
L 269.281672 -132.941593 
L 271.578452 -132.941593 
L 273.875232 -132.941593 
L 276.172011 -132.941593 
L 278.468791 -132.864685 
L 280.765571 -132.864685 
L 283.06235 -132.787778 
L 285.35913 -132.71087 
L 287.65591 -132.923208 
L 289.952689 -132.852333 
L 292.249469 -133.037527 
L 294.546249 -133.201102 
L 296.843029 -133.350451 
L 299.139808 -133.490187 
L 301.436588 -133.623227 
L 303.733368 -133.751461 
L 306.030147 -133.876149 
L 308.326927 -133.998159 
L 310.623707 -134.1181 
L 312.920486 -134.236414 
L 315.217266 -134.353429 
L 317.514046 -134.469388 
L 319.810826 -134.58448 
L 322.107605 -134.682821 
L 324.404385 -134.767474 
L 326.701165 -134.839342 
L 328.997944 -134.899348 
L 331.294724 -134.94841 
L 333.591504 -134.987425 
L 335.888283 -135.017247 
L 338.185063 -135.038684 
L 340.481843 -135.052486 
L 342.778623 -135.059346 
L 345.075402 -135.059346 
L 347.372182 -135.059346 
L 349.668962 -135.059346 
L 351.965741 -135.059899 
L 354.262521 -135.059899 
L 356.559301 -135.054724 
L 358.85608 -135.044344 
L 361.15286 -135.029234 
L 363.44964 -135.009823 
L 365.74642 -134.986495 
L 368.043199 -134.959597 
L 370.339979 -134.929441 
L 372.636759 -134.896308 
L 374.933538 -134.860451 
L 377.230318 -134.822097 
L 379.527098 -134.781451 
L 381.823877 -134.962913 
L 384.120657 -135.135968 
L 386.417437 -135.300654 
L 388.714217 -135.457036 
L 391.010996 -135.605201 
L 393.307776 -136.178591 
L 395.604556 -136.748415 
L 397.901335 -137.43761 
L 400.198115 -138.102013 
L 402.494895 -138.740568 
L 404.791674 -139.352436 
L 407.088454 -139.937028 
L 409.385234 -140.494044 
L 411.682014 -141.023484 
L 413.978793 -141.525648 
L 416.275573 -142.001124 
L 418.572353 -142.450753 
L 420.869132 -142.87559 
L 423.165912 -143.276857 
L 425.462692 -143.655893 
L 427.759471 -144.014107 
L 430.056251 -144.352936 
L 432.353031 -144.67381 
L 434.649811 -144.97812 
L 436.94659 -145.210237 
L 439.24337 -145.420512 
L 441.54015 -145.612199 
L 443.836929 -145.788018 
L 446.133709 -146.208736 
L 448.430489 -146.627985 
L 450.727268 -147.045938 
L 453.024048 -147.82546 
L 455.320828 -148.953295 
L 457.617608 -149.988333 
L 459.914387 -151.003713 
L 462.211167 -152.001316 
L 464.507947 -152.657536 
L 466.804726 -153.708146 
L 469.101506 -155.057324 
L 471.398286 -156.708699 
L 473.695065 -158.347013 
L 475.991845 -159.680517 
L 478.288625 -161.299826 
L 480.585405 -162.624586 
L 482.882184 -163.872842 
L 485.178964 -165.119448 
L 487.475744 -166.63932 
L 489.772523 -168.415694 
L 492.069303 -170.169065 
L 494.366083 -171.900529 
L 496.662862 -173.611185 
L 498.959642 -175.302129 
L 501.256422 -176.974438 
L 503.553202 -178.629165 
L 505.849981 -180.267328 
L 508.146761 -181.889907 
L 510.443541 -183.497841 
L 512.74032 -185.092021 
L 515.0371 -186.673295 
L 517.33388 -188.242464 
L 519.630659 -189.800281 
L 521.927439 -191.347454 
L 524.224219 -192.884649 
L 526.520999 -194.412486 
L 528.817778 -195.931549 
L 531.114558 -197.010538 
L 533.411338 -198.512128 
L 535.708117 -200.006596 
L 538.004897 -200.928919 
L 540.301677 -201.976167 
L 542.598456 -202.89236 
L 544.895236 -203.806848 
L 547.192016 -204.71976 
L 549.488796 -205.748638 
L 551.785575 -206.770961 
L 554.082355 -207.564424 
L 556.379135 -208.798036 
L 558.675914 -210.028819 
L 560.972694 -210.705193 
L 563.269474 -211.264236 
L 565.566253 -212.496219 
L 567.863033 -213.609296 
L 570.159813 -214.475668 
L 572.456593 -214.892509 
L 574.753372 -216.15522 
L 577.050152 -217.534697 
L 579.346932 -218.753974 
L 581.643711 -219.948331 
L 583.940491 -221.27867 
L 586.237271 -222.596283 
L 588.53405 -223.901348 
L 590.83083 -224.775311 
L 593.12761 -226.095714 
L 595.42439 -226.953866 
L 597.721169 -227.845385 
L 600.017949 -228.732711 
L 602.314729 -229.659234 
L 604.611508 -230.539713 
L 606.908288 -231.461682 
L 609.205068 -232.381827 
L 611.501847 -233.300149 
L 613.798627 -234.216648 
L 616.095407 -235.082471 
L 618.392187 -235.944501 
L 620.688966 -236.853961 
L 622.985746 -237.76163 
L 625.282526 -238.667513 
L 627.579305 -239.571613 
L 629.876085 -240.473933 
L 632.172865 -241.587965 
L 634.469644 -242.701997 
L 636.766424 -243.761886 
L 639.063204 -244.606563 
L 641.359984 -245.447814 
L 643.656763 -246.342759 
L 645.953543 -247.235976 
L 648.250323 -248.069117 
L 650.547102 -248.899046 
L 652.843882 -249.785873 
L 655.140662 -250.899904 
L 657.437441 -252.013936 
L 659.734221 -253.516524 
L 662.031001 -255.018407 
L 664.327781 -256.580568 
L 666.62456 -258.081397 
L 668.92134 -259.643054 
L 671.21812 -261.204541 
L 673.514899 -262.765851 
L 675.811679 -264.091982 
L 678.108459 -265.414907 
L 680.405238 -266.734521 
L 682.702018 -268.293098 
L 684.998798 -269.851415 
L 687.295578 -271.409461 
L 689.592357 -272.967225 
L 691.889137 -274.459288 
L 694.185917 -275.950414 
L 696.482696 -277.506798 
L 698.779476 -278.9964 
L 701.076256 -280.234186 
L 703.373035 -281.466212 
L 705.669815 -282.692415 
L 707.966595 -283.912736 
L 710.263375 -285.127118 
L 712.560154 -286.335507 
L 714.856934 -287.53785 
L 717.153714 -288.7341 
L 719.450493 -289.924209 
L 721.747273 -291.108135 
L 724.044053 -292.285837 
L 726.340832 -293.457279 
L 728.637612 -294.622428 
L 730.934392 -295.781254 
L 733.231172 -296.93373 
L 735.527951 -298.079833 
L 737.824731 -299.219546 
L 740.121511 -300.352851 
L 742.41829 -301.479739 
L 744.71507 -302.6002 
L 747.01185 -303.714232 
L 749.308629 -304.821834 
L 751.605409 -306.24715 
L 753.902189 -307.670801 
L 756.198969 -309.092766 
L 758.495748 -310.184042 
L 760.792528 -311.600954 
L 763.089308 -313.315485 
L 765.386087 -315.022871 
L 767.682867 -316.72296 
L 769.979647 -318.415598 
L 772.276426 -320.100635 
L 774.573206 -321.777921 
L 776.869986 -323.721979 
L 779.166766 -325.647779 
L 781.463545 -327.554851 
L 783.760325 -329.442746 
L 786.057105 -331.311037 
L 788.353884 -333.53883 
L 790.650664 -335.754532 
L 792.947444 -337.95768 
L 795.244223 -340.147807 
L 797.541003 -342.32444 
L 799.837783 -344.487102 
L 802.134563 -346.635318 
L 802.134563 -400.509635 
L 802.134563 -400.509635 
L 799.837783 -398.944411 
L 797.541003 -397.393634 
L 795.244223 -395.856827 
L 792.947444 -394.333514 
L 790.650664 -392.823223 
L 788.353884 -391.325486 
L 786.057105 -389.839839 
L 783.760325 -388.366034 
L 781.463545 -386.911833 
L 779.166766 -385.47681 
L 776.869986 -384.060515 
L 774.573206 -382.662477 
L 772.276426 -381.369011 
L 769.979647 -380.083297 
L 767.682867 -378.805183 
L 765.386087 -377.53452 
L 763.089308 -376.271155 
L 760.792528 -375.014934 
L 758.495748 -373.832439 
L 756.198969 -372.69565 
L 753.902189 -371.518208 
L 751.605409 -370.342451 
L 749.308629 -369.168359 
L 747.01185 -368.047898 
L 744.71507 -366.933866 
L 742.41829 -365.826264 
L 740.121511 -364.725088 
L 737.824731 -363.630329 
L 735.527951 -362.541978 
L 733.231172 -361.460018 
L 730.934392 -360.38443 
L 728.637612 -359.315192 
L 726.340832 -358.252277 
L 724.044053 -357.195656 
L 721.747273 -356.145294 
L 719.450493 -355.101156 
L 717.153714 -354.063201 
L 714.856934 -353.031387 
L 712.560154 -352.005667 
L 710.263375 -350.985992 
L 707.966595 -349.97231 
L 705.669815 -348.964568 
L 703.373035 -347.962707 
L 701.076256 -346.966669 
L 698.779476 -345.976392 
L 696.482696 -344.866586 
L 694.185917 -344.194906 
L 691.889137 -343.086625 
L 689.592357 -341.979279 
L 687.295578 -341.30898 
L 684.998798 -340.638963 
L 682.702018 -339.969215 
L 680.405238 -339.299729 
L 678.108459 -338.762623 
L 675.811679 -338.228828 
L 673.514899 -337.69824 
L 671.21812 -337.031486 
L 668.92134 -336.364908 
L 666.62456 -335.698502 
L 664.327781 -334.599924 
L 662.031001 -333.934021 
L 659.734221 -332.836496 
L 657.437441 -331.739676 
L 655.140662 -330.625644 
L 652.843882 -329.511612 
L 650.547102 -328.54172 
L 648.250323 -327.143584 
L 645.953543 -325.748662 
L 643.656763 -324.785159 
L 641.359984 -323.823384 
L 639.063204 -322.436571 
L 636.766424 -321.053185 
L 634.469644 -319.513666 
L 632.172865 -318.399634 
L 629.876085 -317.285602 
L 627.579305 -316.331202 
L 625.282526 -315.378583 
L 622.985746 -314.427746 
L 620.688966 -313.478696 
L 618.392187 -312.531435 
L 616.095407 -311.165402 
L 613.798627 -309.803161 
L 611.501847 -308.862941 
L 609.205068 -307.924543 
L 606.908288 -306.987967 
L 604.611508 -306.053217 
L 602.314729 -304.705633 
L 600.017949 -303.775435 
L 597.721169 -302.434697 
L 595.42439 -301.098153 
L 593.12761 -299.356898 
L 590.83083 -298.077893 
L 588.53405 -296.352448 
L 586.237271 -294.686761 
L 583.940491 -293.033623 
L 581.643711 -291.39321 
L 579.346932 -289.98816 
L 577.050152 -288.608029 
L 574.753372 -287.016754 
L 572.456593 -285.680057 
L 570.159813 -284.611522 
L 567.863033 -283.621174 
L 565.566253 -282.134845 
L 563.269474 -280.396075 
L 560.972694 -278.727054 
L 558.675914 -277.175365 
L 556.379135 -275.435396 
L 554.082355 -273.326912 
L 551.785575 -271.149624 
L 549.488796 -268.458507 
L 547.192016 -265.773946 
L 544.895236 -263.344762 
L 542.598456 -260.917155 
L 540.301677 -258.491252 
L 538.004897 -255.825061 
L 535.708117 -253.405288 
L 533.411338 -250.814972 
L 531.114558 -248.23178 
L 528.817778 -245.597328 
L 526.520999 -243.031608 
L 524.224219 -240.474662 
L 521.927439 -237.927073 
L 519.630659 -235.389463 
L 517.33388 -232.862496 
L 515.0371 -230.346881 
L 512.74032 -227.843372 
L 510.443541 -225.352769 
L 508.146761 -222.875919 
L 505.849981 -220.413714 
L 503.553202 -217.967094 
L 501.256422 -215.537037 
L 498.959642 -213.124563 
L 496.662862 -210.730724 
L 494.366083 -208.356596 
L 492.069303 -206.003276 
L 489.772523 -203.671864 
L 487.475744 -201.363455 
L 485.178964 -199.169887 
L 482.882184 -197.074397 
L 480.585405 -194.980558 
L 478.288625 -193.334566 
L 475.991845 -191.611779 
L 473.695065 -189.974532 
L 471.398286 -188.27075 
L 469.101506 -186.58003 
L 466.804726 -184.958456 
L 464.507947 -183.409658 
L 462.211167 -181.46647 
L 459.914387 -179.493322 
L 457.617608 -177.53795 
L 455.320828 -175.602237 
L 453.024048 -174.130664 
L 450.727268 -172.682122 
L 448.430489 -171.243356 
L 446.133709 -169.805884 
L 443.836929 -168.369883 
L 441.54015 -167.060326 
L 439.24337 -165.766637 
L 436.94659 -164.491536 
L 434.649811 -163.238277 
L 432.353031 -162.428556 
L 430.056251 -161.635397 
L 427.759471 -160.860195 
L 425.462692 -160.104377 
L 423.165912 -159.369381 
L 420.869132 -158.656616 
L 418.572353 -157.967421 
L 416.275573 -157.303019 
L 413.978793 -156.664463 
L 411.682014 -156.052595 
L 409.385234 -155.468003 
L 407.088454 -154.910987 
L 404.791674 -154.381547 
L 402.494895 -153.879383 
L 400.198115 -153.403907 
L 397.901335 -152.954278 
L 395.604556 -152.529441 
L 393.307776 -152.356577 
L 391.010996 -152.187279 
L 388.714217 -151.9641 
L 386.417437 -151.749138 
L 384.120657 -151.54248 
L 381.823877 -151.344191 
L 379.527098 -151.154309 
L 377.230318 -150.742319 
L 374.933538 -150.332621 
L 372.636759 -149.92542 
L 370.339979 -149.520943 
L 368.043199 -149.119444 
L 365.74642 -148.721202 
L 363.44964 -148.32653 
L 361.15286 -147.935774 
L 358.85608 -147.549321 
L 356.559301 -147.167597 
L 354.262521 -146.791077 
L 351.965741 -146.791077 
L 349.668962 -146.420287 
L 347.372182 -146.420287 
L 345.075402 -146.420287 
L 342.778623 -146.420287 
L 340.481843 -146.055803 
L 338.185063 -145.698261 
L 335.888283 -145.348354 
L 333.591504 -145.006832 
L 331.294724 -144.674503 
L 328.997944 -144.352221 
L 326.701165 -144.040883 
L 324.404385 -143.741407 
L 322.107605 -143.454716 
L 319.810826 -143.181714 
L 317.514046 -142.554118 
L 315.217266 -141.927389 
L 312.920486 -141.301715 
L 310.623707 -140.677342 
L 308.326927 -140.054595 
L 306.030147 -139.433917 
L 303.733368 -138.815917 
L 301.436588 -138.201463 
L 299.139808 -137.591815 
L 296.843029 -136.988863 
L 294.546249 -136.395524 
L 292.249469 -135.816411 
L 289.952689 -135.258917 
L 287.65591 -134.816698 
L 285.35913 -134.286349 
L 283.06235 -133.838097 
L 280.765571 -133.389845 
L 278.468791 -133.389845 
L 276.172011 -132.941593 
L 273.875232 -132.941593 
L 271.578452 -132.941593 
L 269.281672 -132.941593 
L 266.984892 -132.941593 
L 264.688113 -132.941593 
L 262.391333 -132.941593 
L 260.094553 -132.941593 
L 257.797774 -132.941593 
L 255.500994 -132.941593 
L 253.204214 -132.941593 
L 250.907435 -132.941593 
L 248.610655 -132.941593 
L 246.313875 -132.941593 
L 244.017095 -132.941593 
L 241.720316 -132.941593 
L 239.423536 -132.941593 
L 237.126756 -132.941593 
L 234.829977 -132.941593 
L 232.533197 -132.941593 
L 230.236417 -132.941593 
L 227.939638 -132.941593 
L 225.642858 -132.941593 
L 223.346078 -132.941593 
L 221.049298 -132.941593 
L 218.752519 -132.941593 
L 216.455739 -132.941593 
L 214.158959 -132.941593 
L 211.86218 -132.941593 
L 209.5654 -132.941593 
L 207.26862 -132.941593 
L 204.971841 -132.941593 
L 202.675061 -132.941593 
L 200.378281 -132.941593 
L 198.081501 -132.941593 
L 195.784722 -132.941593 
L 193.487942 -132.941593 
L 191.191162 -132.941593 
L 188.894383 -132.941593 
L 186.597603 -132.941593 
L 184.300823 -132.941593 
L 182.004044 -132.941593 
L 179.707264 -132.941593 
L 177.410484 -132.941593 
L 175.113704 -132.941593 
L 172.816925 -132.941593 
L 170.520145 -132.941593 
L 168.223365 -132.941593 
L 165.926586 -132.941593 
L 163.629806 -132.941593 
L 161.333026 -132.941593 
L 159.036247 -132.941593 
L 156.739467 -132.941593 
L 154.442687 -132.941593 
L 152.145907 -132.941593 
L 149.849128 -132.941593 
L 147.552348 -132.941593 
L 145.255568 -132.941593 
L 142.958789 -132.941593 
z
" style="stroke: #ff0000; stroke-opacity: 0.3"/>
    </defs>
    <g clip-path="url(#p57ad87a405)">
     <use xlink:href="#m7b4701ce7d" x="0" y="432" style="fill: #ff0000; fill-opacity: 0.3; stroke: #ff0000; stroke-opacity: 0.3"/>
    </g>
   </g>
   <g id="PolyCollection_4">
    <defs>
     <path id="mb81190cb4a" d="M 142.958789 -132.941593 
L 142.958789 -132.941593 
L 145.255568 -132.941593 
L 147.552348 -132.941593 
L 149.849128 -132.941593 
L 152.145907 -132.941593 
L 154.442687 -132.941593 
L 156.739467 -132.941593 
L 159.036247 -132.941593 
L 161.333026 -132.941593 
L 163.629806 -132.941593 
L 165.926586 -132.941593 
L 168.223365 -132.941593 
L 170.520145 -132.941593 
L 172.816925 -132.941593 
L 175.113704 -132.941593 
L 177.410484 -132.941593 
L 179.707264 -132.941593 
L 182.004044 -132.941593 
L 184.300823 -132.941593 
L 186.597603 -132.941593 
L 188.894383 -132.941593 
L 191.191162 -132.941593 
L 193.487942 -132.941593 
L 195.784722 -132.941593 
L 198.081501 -132.941593 
L 200.378281 -132.941593 
L 202.675061 -132.941593 
L 204.971841 -132.941593 
L 207.26862 -132.941593 
L 209.5654 -132.941593 
L 211.86218 -132.941593 
L 214.158959 -132.941593 
L 216.455739 -132.941593 
L 218.752519 -132.941593 
L 221.049298 -132.941593 
L 223.346078 -132.941593 
L 225.642858 -132.941593 
L 227.939638 -132.941593 
L 230.236417 -132.941593 
L 232.533197 -132.941593 
L 234.829977 -132.941593 
L 237.126756 -132.941593 
L 239.423536 -132.941593 
L 241.720316 -132.941593 
L 244.017095 -132.941593 
L 246.313875 -132.941593 
L 248.610655 -132.941593 
L 250.907435 -132.941593 
L 253.204214 -132.941593 
L 255.500994 -132.941593 
L 257.797774 -132.941593 
L 260.094553 -132.941593 
L 262.391333 -132.941593 
L 264.688113 -132.941593 
L 266.984892 -132.941593 
L 269.281672 -132.941593 
L 271.578452 -132.941593 
L 273.875232 -132.941593 
L 276.172011 -132.941593 
L 278.468791 -132.941593 
L 280.765571 -132.941593 
L 283.06235 -132.941593 
L 285.35913 -132.941593 
L 287.65591 -132.941593 
L 289.952689 -132.941593 
L 292.249469 -132.941593 
L 294.546249 -132.941593 
L 296.843029 -132.941593 
L 299.139808 -132.941593 
L 301.436588 -132.941593 
L 303.733368 -132.941593 
L 306.030147 -132.941593 
L 308.326927 -132.941593 
L 310.623707 -132.941593 
L 312.920486 -132.941593 
L 315.217266 -132.941593 
L 317.514046 -132.941593 
L 319.810826 -132.941593 
L 322.107605 -132.941593 
L 324.404385 -132.941593 
L 326.701165 -132.941593 
L 328.997944 -132.941593 
L 331.294724 -132.941593 
L 333.591504 -132.941593 
L 335.888283 -132.941593 
L 338.185063 -132.941593 
L 340.481843 -132.941593 
L 342.778623 -132.941593 
L 345.075402 -132.941593 
L 347.372182 -132.941593 
L 349.668962 -132.941593 
L 351.965741 -132.941593 
L 354.262521 -132.941593 
L 356.559301 -132.941593 
L 358.85608 -132.941593 
L 361.15286 -132.941593 
L 363.44964 -132.941593 
L 365.74642 -132.941593 
L 368.043199 -132.941593 
L 370.339979 -132.941593 
L 372.636759 -132.941593 
L 374.933538 -132.941593 
L 377.230318 -132.864685 
L 379.527098 -132.787778 
L 381.823877 -132.787778 
L 384.120657 -132.71087 
L 386.417437 -132.633962 
L 388.714217 -132.557054 
L 391.010996 -132.557054 
L 393.307776 -132.480146 
L 395.604556 -132.403238 
L 397.901335 -132.32633 
L 400.198115 -132.249423 
L 402.494895 -132.172515 
L 404.791674 -132.095607 
L 407.088454 -132.018699 
L 409.385234 -131.941791 
L 411.682014 -131.864883 
L 413.978793 -131.787976 
L 416.275573 -131.711068 
L 418.572353 -131.63416 
L 420.869132 -131.557252 
L 423.165912 -131.480344 
L 425.462692 -131.480344 
L 427.759471 -131.480344 
L 430.056251 -131.480344 
L 432.353031 -131.480344 
L 434.649811 -131.480344 
L 436.94659 -131.480344 
L 439.24337 -131.480344 
L 441.54015 -131.480344 
L 443.836929 -131.480344 
L 446.133709 -131.480344 
L 448.430489 -131.480344 
L 450.727268 -131.480344 
L 453.024048 -131.480344 
L 455.320828 -131.480344 
L 457.617608 -131.480344 
L 459.914387 -131.480344 
L 462.211167 -131.480344 
L 464.507947 -131.480344 
L 466.804726 -131.480344 
L 469.101506 -131.480344 
L 471.398286 -131.480344 
L 473.695065 -131.480344 
L 475.991845 -131.480344 
L 478.288625 -131.480344 
L 480.585405 -131.480344 
L 482.882184 -131.480344 
L 485.178964 -131.480344 
L 487.475744 -131.480344 
L 489.772523 -131.480344 
L 492.069303 -131.480344 
L 494.366083 -131.480344 
L 496.662862 -131.480344 
L 498.959642 -131.480344 
L 501.256422 -131.480344 
L 503.553202 -131.480344 
L 505.849981 -131.480344 
L 508.146761 -131.480344 
L 510.443541 -131.480344 
L 512.74032 -131.480344 
L 515.0371 -131.791986 
L 517.33388 -132.092437 
L 519.630659 -132.092437 
L 521.927439 -132.092437 
L 524.224219 -132.380865 
L 526.520999 -132.656459 
L 528.817778 -132.918444 
L 531.114558 -133.166116 
L 533.411338 -133.786411 
L 535.708117 -133.786411 
L 538.004897 -133.786411 
L 540.301677 -133.786411 
L 542.598456 -133.786411 
L 544.895236 -133.786411 
L 547.192016 -133.786411 
L 549.488796 -133.786411 
L 551.785575 -134.013643 
L 554.082355 -134.224453 
L 556.379135 -134.418538 
L 558.675914 -134.418538 
L 560.972694 -134.595797 
L 563.269474 -134.756331 
L 565.566253 -134.900443 
L 567.863033 -135.028618 
L 570.159813 -135.141495 
L 572.456593 -135.239837 
L 574.753372 -135.32449 
L 577.050152 -135.396358 
L 579.346932 -135.456364 
L 581.643711 -135.505426 
L 583.940491 -135.544441 
L 586.237271 -135.574263 
L 588.53405 -135.5957 
L 590.83083 -135.609502 
L 593.12761 -135.616362 
L 595.42439 -135.616915 
L 597.721169 -136.04733 
L 600.017949 -136.466367 
L 602.314729 -136.446197 
L 604.611508 -136.393365 
L 606.908288 -136.361505 
L 609.205068 -136.743294 
L 611.501847 -136.659921 
L 613.798627 -136.971833 
L 616.095407 -137.264307 
L 618.392187 -137.599259 
L 620.688966 -137.862447 
L 622.985746 -138.110923 
L 625.282526 -138.346286 
L 627.579305 -138.928646 
L 629.876085 -139.482764 
L 632.172865 -139.674185 
L 634.469644 -139.857987 
L 636.766424 -140.035022 
L 639.063204 -140.52549 
L 641.359984 -140.686205 
L 643.656763 -141.147411 
L 645.953543 -141.59108 
L 648.250323 -142.363783 
L 650.547102 -143.132608 
L 652.843882 -143.823932 
L 655.140662 -144.512981 
L 657.437441 -145.127162 
L 659.734221 -146.095086 
L 662.031001 -147.062439 
L 664.327781 -148.029284 
L 666.62456 -149.069547 
L 668.92134 -150.109703 
L 671.21812 -151.149756 
L 673.514899 -152.189711 
L 675.811679 -153.510823 
L 678.108459 -154.551196 
L 680.405238 -155.870226 
L 682.702018 -157.403945 
L 684.998798 -158.858878 
L 687.295578 -160.307754 
L 689.592357 -161.681347 
L 691.889137 -162.982679 
L 694.185917 -164.721704 
L 696.482696 -166.392752 
L 698.779476 -168.063799 
L 701.076256 -169.734847 
L 703.373035 -171.405895 
L 705.669815 -173.076943 
L 707.966595 -174.747991 
L 710.263375 -176.419038 
L 712.560154 -178.460636 
L 714.856934 -180.131684 
L 717.153714 -182.170876 
L 719.450493 -184.20757 
L 721.747273 -186.241671 
L 724.044053 -188.273081 
L 726.340832 -190.301695 
L 728.637612 -192.602202 
L 730.934392 -194.902533 
L 733.231172 -196.929644 
L 735.527951 -198.95366 
L 737.824731 -200.974459 
L 740.121511 -203.276681 
L 742.41829 -205.578785 
L 744.71507 -207.880764 
L 747.01185 -210.18261 
L 749.308629 -212.484313 
L 751.605409 -214.712376 
L 753.902189 -216.94044 
L 756.198969 -219.24199 
L 758.495748 -221.543377 
L 760.792528 -223.844588 
L 763.089308 -226.145611 
L 765.386087 -228.446431 
L 767.682867 -230.674495 
L 769.979647 -232.902558 
L 772.276426 -234.85359 
L 774.573206 -237.081653 
L 776.869986 -239.309717 
L 779.166766 -241.254881 
L 781.463545 -243.53312 
L 783.760325 -246.095471 
L 786.057105 -248.729757 
L 788.353884 -251.359557 
L 790.650664 -254.298287 
L 792.947444 -257.236995 
L 795.244223 -260.175679 
L 797.541003 -262.786896 
L 799.837783 -265.091348 
L 802.134563 -267.395761 
L 802.134563 -281.080176 
L 802.134563 -281.080176 
L 799.837783 -279.299805 
L 797.541003 -277.519473 
L 795.244223 -275.674563 
L 792.947444 -273.785775 
L 790.650664 -271.897013 
L 788.353884 -270.008271 
L 786.057105 -268.181943 
L 783.760325 -266.360102 
L 781.463545 -264.094982 
L 779.166766 -261.917094 
L 776.869986 -259.777474 
L 774.573206 -257.54941 
L 772.276426 -255.321346 
L 769.979647 -253.187594 
L 767.682867 -250.95953 
L 765.386087 -248.731466 
L 763.089308 -246.947503 
L 760.792528 -245.163742 
L 758.495748 -243.38017 
L 756.198969 -241.596773 
L 753.902189 -239.81354 
L 751.605409 -237.585476 
L 749.308629 -235.357412 
L 747.01185 -233.574332 
L 744.71507 -231.791394 
L 742.41829 -230.008589 
L 740.121511 -228.22591 
L 737.824731 -226.443349 
L 735.527951 -224.750708 
L 733.231172 -223.061284 
L 730.934392 -221.374956 
L 728.637612 -219.590503 
L 726.340832 -217.806227 
L 724.044053 -216.121401 
L 721.747273 -214.439371 
L 719.450493 -212.760033 
L 717.153714 -211.083288 
L 714.856934 -209.40904 
L 712.560154 -207.737992 
L 710.263375 -206.06615 
L 707.966595 -204.395102 
L 705.669815 -202.724055 
L 703.373035 -201.053007 
L 701.076256 -199.381959 
L 698.779476 -197.710911 
L 696.482696 -196.039863 
L 694.185917 -194.368816 
L 691.889137 -193.137089 
L 689.592357 -191.467669 
L 687.295578 -190.241854 
L 684.998798 -189.462667 
L 682.702018 -188.689536 
L 680.405238 -188.366535 
L 678.108459 -186.714814 
L 675.811679 -185.155778 
L 673.514899 -183.50614 
L 671.21812 -181.946687 
L 668.92134 -180.387332 
L 666.62456 -178.82808 
L 664.327781 -177.268936 
L 662.031001 -175.265029 
L 659.734221 -173.261631 
L 657.437441 -171.258803 
L 655.140662 -169.273576 
L 652.843882 -167.734561 
L 650.547102 -166.197821 
L 648.250323 -165.109927 
L 645.953543 -164.02591 
L 643.656763 -162.984203 
L 641.359984 -161.960033 
L 639.063204 -161.006716 
L 636.766424 -160.011808 
L 634.469644 -159.074812 
L 632.172865 -158.144581 
L 629.876085 -157.22197 
L 627.579305 -156.290713 
L 625.282526 -155.387697 
L 622.985746 -154.509028 
L 620.688966 -153.643473 
L 618.392187 -152.792628 
L 616.095407 -152.384893 
L 613.798627 -151.563335 
L 611.501847 -150.761215 
L 609.205068 -149.935154 
L 606.908288 -149.574255 
L 604.611508 -149.171051 
L 602.314729 -148.375531 
L 600.017949 -147.984017 
L 597.721169 -147.660366 
L 595.42439 -147.348093 
L 593.12761 -146.977303 
L 590.83083 -146.612819 
L 588.53405 -146.255277 
L 586.237271 -145.90537 
L 583.940491 -145.563848 
L 581.643711 -145.231519 
L 579.346932 -144.909237 
L 577.050152 -144.597899 
L 574.753372 -144.298423 
L 572.456593 -144.011732 
L 570.159813 -143.73873 
L 567.863033 -143.480263 
L 565.566253 -143.237094 
L 563.269474 -143.009863 
L 560.972694 -142.799053 
L 558.675914 -142.604967 
L 556.379135 -142.604967 
L 554.082355 -142.427709 
L 551.785575 -142.267175 
L 549.488796 -142.123062 
L 547.192016 -142.123062 
L 544.895236 -142.123062 
L 542.598456 -142.123062 
L 540.301677 -142.123062 
L 538.004897 -142.123062 
L 535.708117 -142.123062 
L 533.411338 -142.123062 
L 531.114558 -142.000669 
L 528.817778 -141.876997 
L 526.520999 -141.767639 
L 524.224219 -141.671888 
L 521.927439 -141.588973 
L 519.630659 -141.588973 
L 517.33388 -141.588973 
L 515.0371 -141.518079 
L 512.74032 -141.458378 
L 510.443541 -141.458378 
L 508.146761 -141.458378 
L 505.849981 -141.458378 
L 503.553202 -141.458378 
L 501.256422 -141.458378 
L 498.959642 -141.458378 
L 496.662862 -141.458378 
L 494.366083 -141.458378 
L 492.069303 -141.458378 
L 489.772523 -141.458378 
L 487.475744 -141.458378 
L 485.178964 -141.458378 
L 482.882184 -141.458378 
L 480.585405 -141.458378 
L 478.288625 -141.458378 
L 475.991845 -141.458378 
L 473.695065 -141.458378 
L 471.398286 -141.458378 
L 469.101506 -141.458378 
L 466.804726 -141.458378 
L 464.507947 -141.458378 
L 462.211167 -141.458378 
L 459.914387 -141.458378 
L 457.617608 -141.458378 
L 455.320828 -141.458378 
L 453.024048 -141.458378 
L 450.727268 -141.458378 
L 448.430489 -141.458378 
L 446.133709 -141.458378 
L 443.836929 -141.458378 
L 441.54015 -141.458378 
L 439.24337 -141.458378 
L 436.94659 -141.458378 
L 434.649811 -141.458378 
L 432.353031 -141.458378 
L 430.056251 -141.458378 
L 427.759471 -141.458378 
L 425.462692 -141.458378 
L 423.165912 -141.458378 
L 420.869132 -141.010126 
L 418.572353 -140.561874 
L 416.275573 -140.113622 
L 413.978793 -139.66537 
L 411.682014 -139.217119 
L 409.385234 -138.768867 
L 407.088454 -138.320615 
L 404.791674 -137.872363 
L 402.494895 -137.424111 
L 400.198115 -136.97586 
L 397.901335 -136.527608 
L 395.604556 -136.079356 
L 393.307776 -135.631104 
L 391.010996 -135.182852 
L 388.714217 -135.182852 
L 386.417437 -134.734601 
L 384.120657 -134.286349 
L 381.823877 -133.838097 
L 379.527098 -133.838097 
L 377.230318 -133.389845 
L 374.933538 -132.941593 
L 372.636759 -132.941593 
L 370.339979 -132.941593 
L 368.043199 -132.941593 
L 365.74642 -132.941593 
L 363.44964 -132.941593 
L 361.15286 -132.941593 
L 358.85608 -132.941593 
L 356.559301 -132.941593 
L 354.262521 -132.941593 
L 351.965741 -132.941593 
L 349.668962 -132.941593 
L 347.372182 -132.941593 
L 345.075402 -132.941593 
L 342.778623 -132.941593 
L 340.481843 -132.941593 
L 338.185063 -132.941593 
L 335.888283 -132.941593 
L 333.591504 -132.941593 
L 331.294724 -132.941593 
L 328.997944 -132.941593 
L 326.701165 -132.941593 
L 324.404385 -132.941593 
L 322.107605 -132.941593 
L 319.810826 -132.941593 
L 317.514046 -132.941593 
L 315.217266 -132.941593 
L 312.920486 -132.941593 
L 310.623707 -132.941593 
L 308.326927 -132.941593 
L 306.030147 -132.941593 
L 303.733368 -132.941593 
L 301.436588 -132.941593 
L 299.139808 -132.941593 
L 296.843029 -132.941593 
L 294.546249 -132.941593 
L 292.249469 -132.941593 
L 289.952689 -132.941593 
L 287.65591 -132.941593 
L 285.35913 -132.941593 
L 283.06235 -132.941593 
L 280.765571 -132.941593 
L 278.468791 -132.941593 
L 276.172011 -132.941593 
L 273.875232 -132.941593 
L 271.578452 -132.941593 
L 269.281672 -132.941593 
L 266.984892 -132.941593 
L 264.688113 -132.941593 
L 262.391333 -132.941593 
L 260.094553 -132.941593 
L 257.797774 -132.941593 
L 255.500994 -132.941593 
L 253.204214 -132.941593 
L 250.907435 -132.941593 
L 248.610655 -132.941593 
L 246.313875 -132.941593 
L 244.017095 -132.941593 
L 241.720316 -132.941593 
L 239.423536 -132.941593 
L 237.126756 -132.941593 
L 234.829977 -132.941593 
L 232.533197 -132.941593 
L 230.236417 -132.941593 
L 227.939638 -132.941593 
L 225.642858 -132.941593 
L 223.346078 -132.941593 
L 221.049298 -132.941593 
L 218.752519 -132.941593 
L 216.455739 -132.941593 
L 214.158959 -132.941593 
L 211.86218 -132.941593 
L 209.5654 -132.941593 
L 207.26862 -132.941593 
L 204.971841 -132.941593 
L 202.675061 -132.941593 
L 200.378281 -132.941593 
L 198.081501 -132.941593 
L 195.784722 -132.941593 
L 193.487942 -132.941593 
L 191.191162 -132.941593 
L 188.894383 -132.941593 
L 186.597603 -132.941593 
L 184.300823 -132.941593 
L 182.004044 -132.941593 
L 179.707264 -132.941593 
L 177.410484 -132.941593 
L 175.113704 -132.941593 
L 172.816925 -132.941593 
L 170.520145 -132.941593 
L 168.223365 -132.941593 
L 165.926586 -132.941593 
L 163.629806 -132.941593 
L 161.333026 -132.941593 
L 159.036247 -132.941593 
L 156.739467 -132.941593 
L 154.442687 -132.941593 
L 152.145907 -132.941593 
L 149.849128 -132.941593 
L 147.552348 -132.941593 
L 145.255568 -132.941593 
L 142.958789 -132.941593 
z
" style="stroke: #ffa500; stroke-opacity: 0.3"/>
    </defs>
    <g clip-path="url(#p57ad87a405)">
     <use xlink:href="#mb81190cb4a" x="0" y="432" style="fill: #ffa500; fill-opacity: 0.3; stroke: #ffa500; stroke-opacity: 0.3"/>
    </g>
   </g>
   <g id="matplotlib.axis_1">
    <g id="xtick_1">
     <g id="line2d_1">
      <defs>
       <path id="m991d0d1ebe" d="M 0 0 
L 0 3.5 
" style="stroke: #000000; stroke-width: 0.8"/>
      </defs>
      <g>
       <use xlink:href="#m991d0d1ebe" x="142.958789" y="354.76" style="stroke: #000000; stroke-width: 0.8"/>
      </g>
     </g>
     <g id="text_1">
      <!-- 0 -->
      <g transform="translate(135.958789 381.01) scale(0.28 -0.28)">
       <defs>
        <path id="SimHei-30" d="M 225 2537 
Q 250 3200 412 3587 
Q 575 3975 875 4225 
Q 1175 4475 1612 4475 
Q 2050 4475 2375 4112 
Q 2700 3750 2800 3200 
Q 2900 2650 2862 1937 
Q 2825 1225 2612 775 
Q 2400 325 1975 150 
Q 1550 -25 1125 187 
Q 700 400 525 750 
Q 350 1100 275 1487 
Q 200 1875 225 2537 
z
M 750 2687 
Q 675 2000 800 1462 
Q 925 925 1212 700 
Q 1500 475 1800 612 
Q 2100 750 2237 1162 
Q 2375 1575 2375 2062 
Q 2375 2550 2337 2950 
Q 2300 3350 2112 3675 
Q 1925 4000 1612 4012 
Q 1300 4025 1062 3700 
Q 825 3375 750 2687 
z
" transform="scale(0.015625)"/>
       </defs>
       <use xlink:href="#SimHei-30"/>
      </g>
     </g>
    </g>
    <g id="xtick_2">
     <g id="line2d_2">
      <g>
       <use xlink:href="#m991d0d1ebe" x="257.797774" y="354.76" style="stroke: #000000; stroke-width: 0.8"/>
      </g>
     </g>
     <g id="text_2">
      <!-- 50 -->
      <g transform="translate(243.797774 381.01) scale(0.28 -0.28)">
       <defs>
        <path id="SimHei-35" d="M 550 1325 
Q 725 650 1150 575 
Q 1575 500 1837 662 
Q 2100 825 2212 1087 
Q 2325 1350 2312 1675 
Q 2300 2000 2137 2225 
Q 1975 2450 1725 2525 
Q 1475 2600 1162 2525 
Q 850 2450 650 2175 
L 225 2225 
Q 275 2375 700 4375 
L 2675 4375 
L 2675 3925 
L 1075 3925 
Q 950 3250 825 2850 
Q 1200 3025 1525 3012 
Q 1850 3000 2150 2862 
Q 2450 2725 2587 2487 
Q 2725 2250 2787 2012 
Q 2850 1775 2837 1500 
Q 2825 1225 2725 937 
Q 2625 650 2425 462 
Q 2225 275 1937 162 
Q 1650 50 1275 75 
Q 900 100 562 350 
Q 225 600 100 1200 
L 550 1325 
z
" transform="scale(0.015625)"/>
       </defs>
       <use xlink:href="#SimHei-35"/>
       <use xlink:href="#SimHei-30" x="50"/>
      </g>
     </g>
    </g>
    <g id="xtick_3">
     <g id="line2d_3">
      <g>
       <use xlink:href="#m991d0d1ebe" x="372.636759" y="354.76" style="stroke: #000000; stroke-width: 0.8"/>
      </g>
     </g>
     <g id="text_3">
      <!-- 100 -->
      <g transform="translate(351.636759 381.01) scale(0.28 -0.28)">
       <defs>
        <path id="SimHei-31" d="M 1400 3600 
Q 1075 3275 575 2975 
L 575 3450 
Q 1200 3875 1600 4450 
L 1900 4450 
L 1900 150 
L 1400 150 
L 1400 3600 
z
" transform="scale(0.015625)"/>
       </defs>
       <use xlink:href="#SimHei-31"/>
       <use xlink:href="#SimHei-30" x="50"/>
       <use xlink:href="#SimHei-30" x="100"/>
      </g>
     </g>
    </g>
    <g id="xtick_4">
     <g id="line2d_4">
      <g>
       <use xlink:href="#m991d0d1ebe" x="487.475744" y="354.76" style="stroke: #000000; stroke-width: 0.8"/>
      </g>
     </g>
     <g id="text_4">
      <!-- 150 -->
      <g transform="translate(466.475744 381.01) scale(0.28 -0.28)">
       <use xlink:href="#SimHei-31"/>
       <use xlink:href="#SimHei-35" x="50"/>
       <use xlink:href="#SimHei-30" x="100"/>
      </g>
     </g>
    </g>
    <g id="xtick_5">
     <g id="line2d_5">
      <g>
       <use xlink:href="#m991d0d1ebe" x="602.314729" y="354.76" style="stroke: #000000; stroke-width: 0.8"/>
      </g>
     </g>
     <g id="text_5">
      <!-- 200 -->
      <g transform="translate(581.314729 381.01) scale(0.28 -0.28)">
       <defs>
        <path id="SimHei-32" d="M 300 250 
Q 325 625 650 925 
Q 975 1225 1475 1862 
Q 1975 2500 2125 2850 
Q 2275 3200 2237 3450 
Q 2200 3700 2000 3862 
Q 1800 4025 1537 4000 
Q 1275 3975 1037 3800 
Q 800 3625 675 3275 
L 200 3350 
Q 400 3925 712 4187 
Q 1025 4450 1450 4475 
Q 1700 4500 1900 4462 
Q 2100 4425 2312 4287 
Q 2525 4150 2662 3875 
Q 2800 3600 2762 3212 
Q 2725 2825 2375 2287 
Q 2025 1750 1025 600 
L 2825 600 
L 2825 150 
L 300 150 
L 300 250 
z
" transform="scale(0.015625)"/>
       </defs>
       <use xlink:href="#SimHei-32"/>
       <use xlink:href="#SimHei-30" x="50"/>
       <use xlink:href="#SimHei-30" x="100"/>
      </g>
     </g>
    </g>
    <g id="xtick_6">
     <g id="line2d_6">
      <g>
       <use xlink:href="#m991d0d1ebe" x="717.153714" y="354.76" style="stroke: #000000; stroke-width: 0.8"/>
      </g>
     </g>
     <g id="text_6">
      <!-- 250 -->
      <g transform="translate(696.153714 381.01) scale(0.28 -0.28)">
       <use xlink:href="#SimHei-32"/>
       <use xlink:href="#SimHei-35" x="50"/>
       <use xlink:href="#SimHei-30" x="100"/>
      </g>
     </g>
    </g>
    <g id="xtick_7">
     <g id="line2d_7">
      <g>
       <use xlink:href="#m991d0d1ebe" x="831.992699" y="354.76" style="stroke: #000000; stroke-width: 0.8"/>
      </g>
     </g>
     <g id="text_7">
      <!-- 300 -->
      <g transform="translate(810.992699 381.01) scale(0.28 -0.28)">
       <defs>
        <path id="SimHei-33" d="M 250 1225 
L 700 1300 
Q 800 975 1025 762 
Q 1250 550 1587 562 
Q 1925 575 2125 837 
Q 2325 1100 2300 1437 
Q 2275 1775 2037 1962 
Q 1800 2150 1275 2225 
L 1275 2550 
Q 1800 2600 2037 2825 
Q 2275 3050 2250 3412 
Q 2225 3775 1925 3937 
Q 1625 4100 1287 3975 
Q 950 3850 750 3275 
L 300 3350 
Q 450 3800 712 4100 
Q 975 4400 1425 4450 
Q 1875 4500 2212 4337 
Q 2550 4175 2687 3837 
Q 2825 3500 2725 3100 
Q 2625 2700 2150 2400 
Q 2500 2250 2687 1950 
Q 2875 1650 2812 1162 
Q 2750 675 2375 375 
Q 2000 75 1525 87 
Q 1050 100 700 387 
Q 350 675 250 1225 
z
" transform="scale(0.015625)"/>
       </defs>
       <use xlink:href="#SimHei-33"/>
       <use xlink:href="#SimHei-30" x="50"/>
       <use xlink:href="#SimHei-30" x="100"/>
      </g>
     </g>
    </g>
    <g id="text_8">
     <!-- Time Steps -->
     <g transform="translate(372.546676 416.3225) scale(0.4 -0.4)">
      <defs>
       <path id="SimHei-54" d="M 2850 3925 
L 1850 3925 
L 1850 125 
L 1275 125 
L 1275 3925 
L 275 3925 
L 275 4400 
L 2850 4400 
L 2850 3925 
z
" transform="scale(0.015625)"/>
       <path id="SimHei-69" d="M 1800 3725 
L 1300 3725 
L 1300 4375 
L 1800 4375 
L 1800 3725 
z
M 1800 125 
L 1300 125 
L 1300 2925 
L 1800 2925 
L 1800 125 
z
" transform="scale(0.015625)"/>
       <path id="SimHei-6d" d="M 3050 125 
L 2550 125 
L 2550 2150 
Q 2550 2300 2500 2400 
Q 2450 2500 2300 2500 
Q 2125 2500 1975 2312 
Q 1825 2125 1825 1825 
L 1825 125 
L 1325 125 
L 1325 2150 
Q 1325 2300 1275 2400 
Q 1225 2500 1075 2500 
Q 900 2500 750 2312 
Q 600 2125 600 1825 
L 600 125 
L 100 125 
L 100 2925 
L 600 2925 
L 600 2550 
Q 725 2750 900 2862 
Q 1075 2975 1275 2975 
Q 1475 2975 1612 2862 
Q 1750 2750 1800 2550 
Q 1925 2750 2087 2862 
Q 2250 2975 2450 2975 
Q 2750 2975 2900 2812 
Q 3050 2650 3050 2350 
L 3050 125 
z
" transform="scale(0.015625)"/>
       <path id="SimHei-65" d="M 2850 1075 
Q 2800 625 2450 350 
Q 2100 75 1625 75 
Q 1025 75 637 462 
Q 250 850 250 1525 
Q 250 2200 637 2587 
Q 1025 2975 1625 2975 
Q 2150 2975 2487 2637 
Q 2825 2300 2825 1525 
L 800 1525 
Q 800 975 1037 750 
Q 1275 525 1625 525 
Q 1900 525 2075 662 
Q 2250 800 2300 1075 
L 2850 1075 
z
M 2250 1925 
Q 2200 2275 2025 2412 
Q 1850 2550 1575 2550 
Q 1325 2550 1125 2412 
Q 925 2275 825 1925 
L 2250 1925 
z
" transform="scale(0.015625)"/>
       <path id="SimHei-20" transform="scale(0.015625)"/>
       <path id="SimHei-53" d="M 2900 1325 
Q 2900 750 2537 412 
Q 2175 75 1550 75 
Q 925 75 575 425 
Q 225 775 225 1300 
L 225 1475 
L 800 1475 
L 800 1325 
Q 800 950 1025 750 
Q 1250 550 1550 550 
Q 1950 550 2137 762 
Q 2325 975 2325 1275 
Q 2325 1525 2100 1737 
Q 1875 1950 1450 2125 
Q 850 2350 587 2625 
Q 325 2900 325 3275 
Q 325 3800 687 4125 
Q 1050 4450 1550 4450 
Q 2200 4450 2487 4062 
Q 2775 3675 2775 3225 
L 2200 3225 
Q 2225 3500 2050 3725 
Q 1875 3950 1550 3950 
Q 1250 3950 1075 3787 
Q 900 3625 900 3350 
Q 900 3125 1037 2962 
Q 1175 2800 1750 2575 
Q 2300 2350 2600 2037 
Q 2900 1725 2900 1325 
z
" transform="scale(0.015625)"/>
       <path id="SimHei-74" d="M 2750 200 
Q 2625 150 2462 112 
Q 2300 75 2025 75 
Q 1575 75 1300 325 
Q 1025 575 1025 1025 
L 1025 2525 
L 175 2525 
L 175 2925 
L 1025 2925 
L 1025 3900 
L 1525 3900 
L 1525 2925 
L 2550 2925 
L 2550 2525 
L 1525 2525 
L 1525 1000 
Q 1525 800 1625 662 
Q 1725 525 2000 525 
Q 2275 525 2450 575 
Q 2625 625 2750 700 
L 2750 200 
z
" transform="scale(0.015625)"/>
       <path id="SimHei-70" d="M 2825 1525 
Q 2825 800 2475 425 
Q 2125 50 1625 50 
Q 1350 50 1150 162 
Q 950 275 800 500 
L 800 -800 
L 300 -800 
L 300 2925 
L 800 2925 
L 800 2550 
Q 950 2775 1150 2875 
Q 1350 2975 1625 2975 
Q 2125 2975 2475 2612 
Q 2825 2250 2825 1525 
z
M 2275 1525 
Q 2275 2000 2087 2262 
Q 1900 2525 1525 2525 
Q 1225 2525 1012 2262 
Q 800 2000 800 1525 
Q 800 1050 1012 775 
Q 1225 500 1525 500 
Q 1900 500 2087 775 
Q 2275 1050 2275 1525 
z
" transform="scale(0.015625)"/>
       <path id="SimHei-73" d="M 2750 900 
Q 2750 500 2437 287 
Q 2125 75 1650 75 
Q 1050 75 725 312 
Q 400 550 400 1000 
L 900 1000 
Q 900 700 1112 600 
Q 1325 500 1625 500 
Q 1925 500 2075 612 
Q 2225 725 2225 900 
Q 2225 1025 2100 1150 
Q 1975 1275 1475 1350 
Q 900 1425 687 1637 
Q 475 1850 475 2200 
Q 475 2500 762 2737 
Q 1050 2975 1600 2975 
Q 2100 2975 2387 2750 
Q 2675 2525 2675 2150 
L 2175 2150 
Q 2175 2375 2012 2462 
Q 1850 2550 1600 2550 
Q 1275 2550 1137 2437 
Q 1000 2325 1000 2175 
Q 1000 2000 1125 1900 
Q 1250 1800 1650 1750 
Q 2300 1650 2525 1437 
Q 2750 1225 2750 900 
z
" transform="scale(0.015625)"/>
      </defs>
      <use xlink:href="#SimHei-54"/>
      <use xlink:href="#SimHei-69" x="50"/>
      <use xlink:href="#SimHei-6d" x="100"/>
      <use xlink:href="#SimHei-65" x="150"/>
      <use xlink:href="#SimHei-20" x="200"/>
      <use xlink:href="#SimHei-53" x="250"/>
      <use xlink:href="#SimHei-74" x="300"/>
      <use xlink:href="#SimHei-65" x="350"/>
      <use xlink:href="#SimHei-70" x="400"/>
      <use xlink:href="#SimHei-73" x="450"/>
     </g>
    </g>
   </g>
   <g id="matplotlib.axis_2">
    <g id="ytick_1">
     <g id="line2d_8">
      <defs>
       <path id="m739061fd73" d="M 0 0 
L -3.5 0 
" style="stroke: #000000; stroke-width: 0.8"/>
      </defs>
      <g>
       <use xlink:href="#m739061fd73" x="110" y="354.76" style="stroke: #000000; stroke-width: 0.8"/>
      </g>
     </g>
     <g id="text_9">
      <!-- -100 -->
      <g transform="translate(47 364.385) scale(0.28 -0.28)">
       <defs>
        <path id="SimHei-2d" d="M 2975 2125 
L 125 2125 
L 125 2525 
L 2975 2525 
L 2975 2125 
z
" transform="scale(0.015625)"/>
       </defs>
       <use xlink:href="#SimHei-2d"/>
       <use xlink:href="#SimHei-31" x="50"/>
       <use xlink:href="#SimHei-30" x="100"/>
       <use xlink:href="#SimHei-30" x="150"/>
      </g>
     </g>
    </g>
    <g id="ytick_2">
     <g id="line2d_9">
      <g>
       <use xlink:href="#m739061fd73" x="110" y="299.058407" style="stroke: #000000; stroke-width: 0.8"/>
      </g>
     </g>
     <g id="text_10">
      <!-- 0 -->
      <g transform="translate(89 308.683407) scale(0.28 -0.28)">
       <use xlink:href="#SimHei-30"/>
      </g>
     </g>
    </g>
    <g id="ytick_3">
     <g id="line2d_10">
      <g>
       <use xlink:href="#m739061fd73" x="110" y="243.356813" style="stroke: #000000; stroke-width: 0.8"/>
      </g>
     </g>
     <g id="text_11">
      <!-- 100 -->
      <g transform="translate(61 252.981813) scale(0.28 -0.28)">
       <use xlink:href="#SimHei-31"/>
       <use xlink:href="#SimHei-30" x="50"/>
       <use xlink:href="#SimHei-30" x="100"/>
      </g>
     </g>
    </g>
    <g id="ytick_4">
     <g id="line2d_11">
      <g>
       <use xlink:href="#m739061fd73" x="110" y="187.65522" style="stroke: #000000; stroke-width: 0.8"/>
      </g>
     </g>
     <g id="text_12">
      <!-- 200 -->
      <g transform="translate(61 197.28022) scale(0.28 -0.28)">
       <use xlink:href="#SimHei-32"/>
       <use xlink:href="#SimHei-30" x="50"/>
       <use xlink:href="#SimHei-30" x="100"/>
      </g>
     </g>
    </g>
    <g id="ytick_5">
     <g id="line2d_12">
      <g>
       <use xlink:href="#m739061fd73" x="110" y="131.953627" style="stroke: #000000; stroke-width: 0.8"/>
      </g>
     </g>
     <g id="text_13">
      <!-- 300 -->
      <g transform="translate(61 141.578627) scale(0.28 -0.28)">
       <use xlink:href="#SimHei-33"/>
       <use xlink:href="#SimHei-30" x="50"/>
       <use xlink:href="#SimHei-30" x="100"/>
      </g>
     </g>
    </g>
    <g id="ytick_6">
     <g id="line2d_13">
      <g>
       <use xlink:href="#m739061fd73" x="110" y="76.252033" style="stroke: #000000; stroke-width: 0.8"/>
      </g>
     </g>
     <g id="text_14">
      <!-- 400 -->
      <g transform="translate(61 85.877033) scale(0.28 -0.28)">
       <defs>
        <path id="SimHei-34" d="M 2000 1100 
L 75 1100 
L 75 1525 
L 2100 4450 
L 2475 4450 
L 2475 1525 
L 3075 1525 
L 3075 1100 
L 2475 1100 
L 2475 150 
L 2000 150 
L 2000 1100 
z
M 2000 1525 
L 2000 3500 
L 600 1525 
L 2000 1525 
z
" transform="scale(0.015625)"/>
       </defs>
       <use xlink:href="#SimHei-34"/>
       <use xlink:href="#SimHei-30" x="50"/>
       <use xlink:href="#SimHei-30" x="100"/>
      </g>
     </g>
    </g>
    <g id="ytick_7">
     <g id="line2d_14">
      <g>
       <use xlink:href="#m739061fd73" x="110" y="20.55044" style="stroke: #000000; stroke-width: 0.8"/>
      </g>
     </g>
     <g id="text_15">
      <!-- 500 -->
      <g transform="translate(61 30.17544) scale(0.28 -0.28)">
       <use xlink:href="#SimHei-35"/>
       <use xlink:href="#SimHei-30" x="50"/>
       <use xlink:href="#SimHei-30" x="100"/>
      </g>
     </g>
    </g>
    <g id="text_16">
     <!-- $m_{vct}$ -->
     <g transform="translate(35.8 227.99945) rotate(-90) scale(0.4 -0.4)">
      <defs>
       <path id="DejaVuSans-Oblique-6d" d="M 5747 2113 
L 5338 0 
L 4763 0 
L 5166 2094 
Q 5191 2228 5203 2325 
Q 5216 2422 5216 2491 
Q 5216 2772 5059 2928 
Q 4903 3084 4622 3084 
Q 4203 3084 3875 2770 
Q 3547 2456 3450 1953 
L 3066 0 
L 2491 0 
L 2900 2094 
Q 2925 2209 2937 2307 
Q 2950 2406 2950 2484 
Q 2950 2769 2794 2926 
Q 2638 3084 2363 3084 
Q 1938 3084 1609 2770 
Q 1281 2456 1184 1953 
L 800 0 
L 225 0 
L 909 3500 
L 1484 3500 
L 1375 2956 
Q 1609 3263 1923 3423 
Q 2238 3584 2597 3584 
Q 2978 3584 3223 3384 
Q 3469 3184 3519 2828 
Q 3781 3197 4126 3390 
Q 4472 3584 4856 3584 
Q 5306 3584 5551 3325 
Q 5797 3066 5797 2591 
Q 5797 2488 5784 2364 
Q 5772 2241 5747 2113 
z
" transform="scale(0.015625)"/>
       <path id="DejaVuSans-Oblique-76" d="M 459 3500 
L 1069 3500 
L 1581 525 
L 3256 3500 
L 3866 3500 
L 1875 0 
L 1100 0 
L 459 3500 
z
" transform="scale(0.015625)"/>
       <path id="DejaVuSans-Oblique-63" d="M 3431 3366 
L 3316 2797 
Q 3109 2947 2876 3022 
Q 2644 3097 2394 3097 
Q 2119 3097 1870 3000 
Q 1622 2903 1453 2725 
Q 1184 2453 1037 2087 
Q 891 1722 891 1331 
Q 891 859 1127 628 
Q 1363 397 1844 397 
Q 2081 397 2348 469 
Q 2616 541 2906 684 
L 2797 116 
Q 2547 13 2283 -39 
Q 2019 -91 1741 -91 
Q 1044 -91 669 257 
Q 294 606 294 1253 
Q 294 1797 489 2255 
Q 684 2713 1069 3078 
Q 1331 3328 1684 3456 
Q 2038 3584 2456 3584 
Q 2700 3584 2940 3529 
Q 3181 3475 3431 3366 
z
" transform="scale(0.015625)"/>
       <path id="DejaVuSans-Oblique-74" d="M 2706 3500 
L 2619 3053 
L 1472 3053 
L 1100 1153 
Q 1081 1047 1072 975 
Q 1063 903 1063 863 
Q 1063 663 1183 572 
Q 1303 481 1569 481 
L 2150 481 
L 2053 0 
L 1503 0 
Q 991 0 739 200 
Q 488 400 488 806 
Q 488 878 497 964 
Q 506 1050 525 1153 
L 897 3053 
L 409 3053 
L 500 3500 
L 978 3500 
L 1172 4494 
L 1747 4494 
L 1556 3500 
L 2706 3500 
z
" transform="scale(0.015625)"/>
      </defs>
      <use xlink:href="#DejaVuSans-Oblique-6d"/>
      <use xlink:href="#DejaVuSans-Oblique-76" transform="translate(97.412109 -16.40625) scale(0.7)"/>
      <use xlink:href="#DejaVuSans-Oblique-63" transform="translate(138.837891 -16.40625) scale(0.7)"/>
      <use xlink:href="#DejaVuSans-Oblique-74" transform="translate(177.324219 -16.40625) scale(0.7)"/>
     </g>
    </g>
   </g>
   <g id="line2d_15">
    <path d="M 142.958789 299.058407 
L 531.114558 299.058407 
L 533.411338 298.872735 
L 554.082355 298.872735 
L 558.675914 298.501391 
L 563.269474 297.758703 
L 588.53405 295.716311 
L 604.611508 293.116903 
L 611.501847 292.559887 
L 622.985746 292.559887 
L 627.579305 292.188544 
L 802.134563 292.188544 
L 802.134563 292.188544 
" clip-path="url(#p57ad87a405)" style="fill: none; stroke: #0000ff; stroke-width: 3; stroke-linecap: square"/>
   </g>
   <g id="line2d_16">
    <path d="M 142.958789 299.058407 
L 280.765571 299.058407 
L 285.35913 298.687063 
L 333.591504 298.687063 
L 354.262521 297.016015 
L 358.85608 296.273327 
L 374.933538 294.973623 
L 386.417437 294.973623 
L 388.714217 294.787951 
L 391.010996 294.787951 
L 393.307776 294.602279 
L 423.165912 289.774808 
L 441.54015 288.289432 
L 443.836929 287.918088 
L 446.133709 287.732416 
L 464.507947 284.761664 
L 466.804726 284.204648 
L 469.101506 283.833305 
L 482.882184 280.491209 
L 485.178964 279.562849 
L 496.662862 275.849409 
L 501.256422 273.99269 
L 503.553202 272.878658 
L 505.849981 271.950298 
L 510.443541 269.35089 
L 512.74032 268.42253 
L 524.224219 264.709091 
L 526.520999 263.780731 
L 533.411338 261.552667 
L 535.708117 260.624307 
L 538.004897 259.881619 
L 540.301677 259.324603 
L 547.192016 256.539524 
L 549.488796 255.982508 
L 565.566253 250.783692 
L 570.159813 248.926973 
L 579.346932 245.956221 
L 583.940491 244.842189 
L 590.83083 242.614125 
L 593.12761 242.05711 
L 597.721169 240.571734 
L 602.314729 239.457702 
L 606.908288 237.600982 
L 611.501847 236.115606 
L 636.766424 225.903647 
L 643.656763 222.561552 
L 650.547102 218.66244 
L 652.843882 217.548408 
L 662.031001 212.349593 
L 678.108459 204.55137 
L 689.592357 198.052851 
L 691.889137 196.938819 
L 696.482696 194.339411 
L 707.966595 186.912532 
L 712.560154 183.570437 
L 717.153714 179.856997 
L 719.450493 178.371621 
L 721.747273 176.514901 
L 726.340832 172.430118 
L 747.01185 152.377544 
L 756.198969 142.722601 
L 779.166766 116.728525 
L 790.650664 102.803126 
L 802.134563 89.806088 
L 802.134563 89.806088 
" clip-path="url(#p57ad87a405)" style="fill: none; stroke: #008000; stroke-width: 3; stroke-linecap: square"/>
   </g>
   <g id="line2d_17">
    <path d="M 142.958789 299.058407 
L 276.172011 299.058407 
L 278.468791 298.872735 
L 280.765571 298.872735 
L 285.35913 298.501391 
L 287.65591 298.130047 
L 289.952689 297.944375 
L 319.810826 293.116903 
L 342.778623 291.260184 
L 349.668962 291.260184 
L 351.965741 291.074512 
L 354.262521 291.074512 
L 391.010996 288.10376 
L 395.604556 287.361072 
L 434.649811 277.891801 
L 443.836929 274.92105 
L 450.727268 272.13597 
L 453.024048 271.021938 
L 455.320828 269.722234 
L 462.211167 265.266107 
L 466.804726 262.666699 
L 469.101506 261.181323 
L 473.695065 257.839228 
L 475.991845 256.353852 
L 478.288625 254.682804 
L 480.585405 253.197428 
L 485.178964 249.855333 
L 487.475744 247.998613 
L 528.817778 211.235561 
L 531.114558 209.378841 
L 535.708117 205.294058 
L 538.004897 203.62301 
L 540.301677 201.76629 
L 547.192016 196.753147 
L 551.785575 193.039707 
L 554.082355 191.554332 
L 556.379135 189.883284 
L 558.675914 188.397908 
L 563.269474 186.169844 
L 565.566253 184.684468 
L 567.863033 183.384765 
L 570.159813 182.456405 
L 572.456593 181.713717 
L 574.753372 180.414013 
L 577.050152 178.928637 
L 581.643711 176.329229 
L 588.53405 171.873102 
L 595.42439 167.97399 
L 600.017949 165.745927 
L 602.314729 164.817567 
L 604.611508 163.703535 
L 613.798627 159.990095 
L 618.392187 157.762032 
L 629.876085 153.120232 
L 634.469644 150.892168 
L 636.766424 149.592465 
L 641.359984 147.364401 
L 645.953543 145.507681 
L 650.547102 143.279617 
L 652.843882 142.351258 
L 657.437441 140.123194 
L 662.031001 137.523786 
L 664.327781 136.409754 
L 666.62456 135.11005 
L 673.514899 131.767955 
L 680.405238 128.982875 
L 689.592357 124.526748 
L 694.185917 121.92734 
L 696.482696 120.813308 
L 698.779476 119.513604 
L 749.308629 95.004903 
L 756.198969 91.105792 
L 758.495748 89.99176 
L 760.792528 88.692056 
L 774.573206 79.779801 
L 786.057105 71.424562 
L 802.134563 58.427524 
L 802.134563 58.427524 
" clip-path="url(#p57ad87a405)" style="fill: none; stroke: #ff0000; stroke-width: 3; stroke-linecap: square"/>
   </g>
   <g id="line2d_18">
    <path d="M 142.958789 299.058407 
L 374.933538 299.058407 
L 379.527098 298.687063 
L 381.823877 298.687063 
L 388.714217 298.130047 
L 391.010996 298.130047 
L 423.165912 295.530639 
L 512.74032 295.530639 
L 517.33388 295.159295 
L 521.927439 295.159295 
L 531.114558 294.416607 
L 533.411338 294.045263 
L 549.488796 294.045263 
L 556.379135 293.488247 
L 558.675914 293.488247 
L 595.42439 290.517496 
L 600.017949 289.774808 
L 602.314729 289.589136 
L 604.611508 289.217792 
L 606.908288 289.03212 
L 611.501847 288.289432 
L 616.095407 287.1754 
L 618.392187 286.804056 
L 625.282526 285.133008 
L 629.876085 283.647633 
L 636.766424 281.976585 
L 639.063204 281.233897 
L 641.359984 280.676881 
L 645.953543 279.191505 
L 650.547102 277.334785 
L 655.140662 275.106722 
L 657.437441 273.807018 
L 664.327781 269.35089 
L 673.514899 264.152075 
L 675.811679 262.666699 
L 678.108459 261.366995 
L 680.405238 259.881619 
L 682.702018 258.95326 
L 687.295578 256.725196 
L 689.592357 255.425492 
L 694.185917 252.45474 
L 710.263375 240.757406 
L 712.560154 238.900686 
L 714.856934 237.229638 
L 726.340832 227.946039 
L 730.934392 223.861256 
L 737.824731 218.291096 
L 749.308629 208.079138 
L 753.902189 203.62301 
L 765.386087 193.411051 
L 769.979647 188.954924 
L 772.276426 186.912532 
L 776.869986 182.456405 
L 779.166766 180.414013 
L 781.463545 178.185949 
L 783.760325 175.772214 
L 788.353884 171.316086 
L 795.244223 164.074879 
L 797.541003 161.846815 
L 802.134563 157.762032 
L 802.134563 157.762032 
" clip-path="url(#p57ad87a405)" style="fill: none; stroke: #ffa500; stroke-width: 3; stroke-linecap: square"/>
   </g>
   <g id="patch_3">
    <path d="M 110 354.76 
L 110 18.038901 
" style="fill: none; stroke: #000000; stroke-width: 0.8; stroke-linejoin: miter; stroke-linecap: square"/>
   </g>
   <g id="patch_4">
    <path d="M 835.093351 354.76 
L 835.093351 18.038901 
" style="fill: none; stroke: #000000; stroke-width: 0.8; stroke-linejoin: miter; stroke-linecap: square"/>
   </g>
   <g id="patch_5">
    <path d="M 110 354.76 
L 835.093351 354.76 
" style="fill: none; stroke: #000000; stroke-width: 0.8; stroke-linejoin: miter; stroke-linecap: square"/>
   </g>
   <g id="patch_6">
    <path d="M 110 18.038901 
L 835.093351 18.038901 
" style="fill: none; stroke: #000000; stroke-width: 0.8; stroke-linejoin: miter; stroke-linecap: square"/>
   </g>
  </g>
 </g>
 <defs>
  <clipPath id="p57ad87a405">
   <rect x="110" y="18.038901" width="725.093351" height="336.721099"/>
  </clipPath>
 </defs>
</svg>
