<?xml version="1.0" encoding="utf-8" standalone="no"?>
<!DOCTYPE svg PUBLIC "-//W3C//DTD SVG 1.1//EN"
  "http://www.w3.org/Graphics/SVG/1.1/DTD/svg11.dtd">
<svg xmlns:xlink="http://www.w3.org/1999/xlink" width="864pt" height="432pt" viewBox="0 0 864 432" xmlns="http://www.w3.org/2000/svg" version="1.1">
 <metadata>
  <rdf:RDF xmlns:dc="http://purl.org/dc/elements/1.1/" xmlns:cc="http://creativecommons.org/ns#" xmlns:rdf="http://www.w3.org/1999/02/22-rdf-syntax-ns#">
   <cc:Work>
    <dc:type rdf:resource="http://purl.org/dc/dcmitype/StillImage"/>
    <dc:date>2025-06-20T06:33:13.622241</dc:date>
    <dc:format>image/svg+xml</dc:format>
    <dc:creator>
     <cc:Agent>
      <dc:title>Matplotlib v3.7.1, https://matplotlib.org/</dc:title>
     </cc:Agent>
    </dc:creator>
   </cc:Work>
  </rdf:RDF>
 </metadata>
 <defs>
  <style type="text/css">*{stroke-linejoin: round; stroke-linecap: butt}</style>
 </defs>
 <g id="figure_1">
  <g id="patch_1">
   <path d="M 0 432 
L 864 432 
L 864 0 
L 0 0 
z
" style="fill: #ffffff"/>
  </g>
  <g id="axes_1">
   <g id="patch_2">
    <path d="M 110 354.76 
L 835.093351 354.76 
L 835.093351 10.8 
L 110 10.8 
z
" style="fill: #ffffff"/>
   </g>
   <g id="PolyCollection_1">
    <defs>
     <path id="me7329605e7" d="M 142.958789 -131.262984 
L 142.958789 -131.262984 
L 145.255568 -131.262984 
L 147.552348 -131.262984 
L 149.849128 -131.262984 
L 152.145907 -131.262984 
L 154.442687 -131.262984 
L 156.739467 -131.262984 
L 159.036247 -131.262984 
L 161.333026 -131.262984 
L 163.629806 -131.262984 
L 165.926586 -131.262984 
L 168.223365 -131.262984 
L 170.520145 -131.262984 
L 172.816925 -131.262984 
L 175.113704 -131.262984 
L 177.410484 -131.262984 
L 179.707264 -131.262984 
L 182.004044 -131.262984 
L 184.300823 -131.262984 
L 186.597603 -131.262984 
L 188.894383 -131.262984 
L 191.191162 -131.262984 
L 193.487942 -131.262984 
L 195.784722 -131.262984 
L 198.081501 -131.262984 
L 200.378281 -131.262984 
L 202.675061 -131.262984 
L 204.971841 -131.262984 
L 207.26862 -131.262984 
L 209.5654 -131.262984 
L 211.86218 -131.262984 
L 214.158959 -131.262984 
L 216.455739 -131.262984 
L 218.752519 -131.262984 
L 221.049298 -131.262984 
L 223.346078 -131.262984 
L 225.642858 -131.262984 
L 227.939638 -131.262984 
L 230.236417 -131.262984 
L 232.533197 -131.262984 
L 234.829977 -131.262984 
L 237.126756 -131.262984 
L 239.423536 -131.188394 
L 241.720316 -131.113804 
L 244.017095 -131.039214 
L 246.313875 -130.964624 
L 248.610655 -130.890033 
L 250.907435 -130.815443 
L 253.204214 -130.740853 
L 255.500994 -130.666263 
L 257.797774 -130.591673 
L 260.094553 -130.517083 
L 262.391333 -130.442492 
L 264.688113 -130.367902 
L 266.984892 -130.293312 
L 269.281672 -130.218722 
L 271.578452 -130.144132 
L 273.875232 -130.069541 
L 276.172011 -129.994951 
L 278.468791 -129.920361 
L 280.765571 -129.845771 
L 283.06235 -129.771181 
L 285.35913 -129.696591 
L 287.65591 -129.622 
L 289.952689 -129.54741 
L 292.249469 -129.47282 
L 294.546249 -129.39823 
L 296.843029 -129.32364 
L 299.139808 -129.24905 
L 301.436588 -129.174459 
L 303.733368 -129.099869 
L 306.030147 -129.025279 
L 308.326927 -128.950689 
L 310.623707 -128.876099 
L 312.920486 -128.801509 
L 315.217266 -128.801509 
L 317.514046 -128.801509 
L 319.810826 -128.801509 
L 322.107605 -128.801509 
L 324.404385 -128.801509 
L 326.701165 -128.801509 
L 328.997944 -128.801509 
L 331.294724 -128.801509 
L 333.591504 -128.801509 
L 335.888283 -128.801509 
L 338.185063 -128.801509 
L 340.481843 -128.801509 
L 342.778623 -128.801509 
L 345.075402 -128.801509 
L 347.372182 -128.801509 
L 349.668962 -128.801509 
L 351.965741 -128.801509 
L 354.262521 -128.801509 
L 356.559301 -128.801509 
L 358.85608 -128.801509 
L 361.15286 -128.801509 
L 363.44964 -128.801509 
L 365.74642 -128.801509 
L 368.043199 -128.801509 
L 370.339979 -128.801509 
L 372.636759 -128.801509 
L 374.933538 -128.801509 
L 377.230318 -128.801509 
L 379.527098 -128.801509 
L 381.823877 -128.801509 
L 384.120657 -128.801509 
L 386.417437 -128.801509 
L 388.714217 -128.801509 
L 391.010996 -128.801509 
L 393.307776 -128.801509 
L 395.604556 -128.801509 
L 397.901335 -128.801509 
L 400.198115 -128.801509 
L 402.494895 -128.801509 
L 404.791674 -128.801509 
L 407.088454 -129.105981 
L 409.385234 -129.105981 
L 411.682014 -129.105981 
L 413.978793 -129.105981 
L 416.275573 -129.105981 
L 418.572353 -129.105981 
L 420.869132 -129.105981 
L 423.165912 -129.105981 
L 425.462692 -129.105981 
L 427.759471 -129.105981 
L 430.056251 -129.105981 
L 432.353031 -129.105981 
L 434.649811 -129.105981 
L 436.94659 -129.105981 
L 439.24337 -129.105981 
L 441.54015 -129.105981 
L 443.836929 -129.105981 
L 446.133709 -129.105981 
L 448.430489 -129.105981 
L 450.727268 -129.105981 
L 453.024048 -129.105981 
L 455.320828 -129.105981 
L 457.617608 -129.105981 
L 459.914387 -129.105981 
L 462.211167 -129.105981 
L 464.507947 -129.105981 
L 466.804726 -129.105981 
L 469.101506 -129.105981 
L 471.398286 -129.105981 
L 473.695065 -129.105981 
L 475.991845 -129.105981 
L 478.288625 -129.105981 
L 480.585405 -129.105981 
L 482.882184 -129.105981 
L 485.178964 -129.105981 
L 487.475744 -129.105981 
L 489.772523 -129.105981 
L 492.069303 -129.105981 
L 494.366083 -129.105981 
L 496.662862 -129.105981 
L 498.959642 -129.105981 
L 501.256422 -129.105981 
L 503.553202 -129.105981 
L 505.849981 -129.105981 
L 508.146761 -129.105981 
L 510.443541 -129.105981 
L 512.74032 -129.105981 
L 515.0371 -129.105981 
L 517.33388 -129.105981 
L 519.630659 -129.105981 
L 521.927439 -129.105981 
L 524.224219 -129.105981 
L 526.520999 -129.105981 
L 528.817778 -129.105981 
L 531.114558 -129.105981 
L 533.411338 -129.105981 
L 535.708117 -129.105981 
L 538.004897 -129.105981 
L 540.301677 -129.105981 
L 542.598456 -129.105981 
L 544.895236 -129.105981 
L 547.192016 -129.105981 
L 549.488796 -129.105981 
L 551.785575 -129.105981 
L 554.082355 -129.105981 
L 556.379135 -129.105981 
L 558.675914 -129.105981 
L 560.972694 -129.105981 
L 563.269474 -129.105981 
L 565.566253 -129.105981 
L 567.863033 -129.105981 
L 570.159813 -129.105981 
L 572.456593 -129.105981 
L 574.753372 -129.105981 
L 577.050152 -129.105981 
L 579.346932 -129.105981 
L 581.643711 -129.105981 
L 583.940491 -129.105981 
L 586.237271 -129.105981 
L 588.53405 -129.105981 
L 590.83083 -129.105981 
L 593.12761 -129.105981 
L 595.42439 -129.105981 
L 597.721169 -129.105981 
L 600.017949 -129.105981 
L 602.314729 -129.105981 
L 604.611508 -129.105981 
L 606.908288 -129.105981 
L 609.205068 -129.105981 
L 611.501847 -129.105981 
L 613.798627 -129.105981 
L 616.095407 -129.105981 
L 618.392187 -129.105981 
L 620.688966 -129.105981 
L 622.985746 -129.105981 
L 625.282526 -129.105981 
L 627.579305 -129.105981 
L 629.876085 -129.105981 
L 632.172865 -129.105981 
L 634.469644 -129.105981 
L 636.766424 -129.105981 
L 639.063204 -129.105981 
L 641.359984 -129.105981 
L 643.656763 -129.105981 
L 645.953543 -129.105981 
L 648.250323 -129.105981 
L 650.547102 -129.105981 
L 652.843882 -129.105981 
L 655.140662 -129.105981 
L 657.437441 -129.105981 
L 659.734221 -129.105981 
L 662.031001 -129.105981 
L 664.327781 -129.105981 
L 666.62456 -129.105981 
L 668.92134 -129.105981 
L 671.21812 -129.105981 
L 673.514899 -129.105981 
L 675.811679 -129.105981 
L 678.108459 -129.105981 
L 680.405238 -129.105981 
L 682.702018 -129.105981 
L 684.998798 -129.105981 
L 687.295578 -129.105981 
L 689.592357 -129.105981 
L 691.889137 -129.105981 
L 694.185917 -129.105981 
L 696.482696 -129.105981 
L 698.779476 -129.105981 
L 701.076256 -129.105981 
L 703.373035 -129.105981 
L 705.669815 -129.105981 
L 707.966595 -129.105981 
L 710.263375 -129.105981 
L 712.560154 -129.105981 
L 714.856934 -129.105981 
L 717.153714 -129.4044 
L 719.450493 -129.4044 
L 721.747273 -129.4044 
L 724.044053 -129.4044 
L 726.340832 -129.4044 
L 728.637612 -129.696499 
L 730.934392 -129.982011 
L 733.231172 -129.982011 
L 735.527951 -129.982011 
L 737.824731 -129.982011 
L 740.121511 -129.982011 
L 742.41829 -129.982011 
L 744.71507 -129.982011 
L 747.01185 -129.982011 
L 749.308629 -129.982011 
L 751.605409 -129.982011 
L 753.902189 -129.982011 
L 756.198969 -129.982011 
L 758.495748 -129.982011 
L 760.792528 -129.982011 
L 763.089308 -129.982011 
L 765.386087 -129.982011 
L 767.682867 -129.982011 
L 769.979647 -129.982011 
L 772.276426 -129.982011 
L 774.573206 -129.982011 
L 776.869986 -129.982011 
L 779.166766 -129.982011 
L 781.463545 -129.982011 
L 783.760325 -129.982011 
L 786.057105 -129.982011 
L 788.353884 -129.982011 
L 790.650664 -129.982011 
L 792.947444 -129.982011 
L 795.244223 -129.982011 
L 797.541003 -129.982011 
L 799.837783 -129.982011 
L 802.134563 -129.982011 
L 802.134563 -145.869627 
L 802.134563 -145.869627 
L 799.837783 -145.869627 
L 797.541003 -145.869627 
L 795.244223 -145.869627 
L 792.947444 -145.869627 
L 790.650664 -145.869627 
L 788.353884 -145.869627 
L 786.057105 -145.869627 
L 783.760325 -145.869627 
L 781.463545 -145.869627 
L 779.166766 -145.869627 
L 776.869986 -145.869627 
L 774.573206 -145.869627 
L 772.276426 -145.869627 
L 769.979647 -145.869627 
L 767.682867 -145.869627 
L 765.386087 -145.869627 
L 763.089308 -145.869627 
L 760.792528 -145.869627 
L 758.495748 -145.869627 
L 756.198969 -145.869627 
L 753.902189 -145.869627 
L 751.605409 -145.869627 
L 749.308629 -145.869627 
L 747.01185 -145.869627 
L 744.71507 -145.869627 
L 742.41829 -145.869627 
L 740.121511 -145.869627 
L 737.824731 -145.869627 
L 735.527951 -145.869627 
L 733.231172 -145.869627 
L 730.934392 -145.869627 
L 728.637612 -145.794986 
L 726.340832 -145.726932 
L 724.044053 -145.726932 
L 721.747273 -145.726932 
L 719.450493 -145.726932 
L 717.153714 -145.726932 
L 714.856934 -145.665198 
L 712.560154 -145.665198 
L 710.263375 -145.665198 
L 707.966595 -145.665198 
L 705.669815 -145.665198 
L 703.373035 -145.665198 
L 701.076256 -145.665198 
L 698.779476 -145.665198 
L 696.482696 -145.665198 
L 694.185917 -145.665198 
L 691.889137 -145.665198 
L 689.592357 -145.665198 
L 687.295578 -145.665198 
L 684.998798 -145.665198 
L 682.702018 -145.665198 
L 680.405238 -145.665198 
L 678.108459 -145.665198 
L 675.811679 -145.665198 
L 673.514899 -145.665198 
L 671.21812 -145.665198 
L 668.92134 -145.665198 
L 666.62456 -145.665198 
L 664.327781 -145.665198 
L 662.031001 -145.665198 
L 659.734221 -145.665198 
L 657.437441 -145.665198 
L 655.140662 -145.665198 
L 652.843882 -145.665198 
L 650.547102 -145.665198 
L 648.250323 -145.665198 
L 645.953543 -145.665198 
L 643.656763 -145.665198 
L 641.359984 -145.665198 
L 639.063204 -145.665198 
L 636.766424 -145.665198 
L 634.469644 -145.665198 
L 632.172865 -145.665198 
L 629.876085 -145.665198 
L 627.579305 -145.665198 
L 625.282526 -145.665198 
L 622.985746 -145.665198 
L 620.688966 -145.665198 
L 618.392187 -145.665198 
L 616.095407 -145.665198 
L 613.798627 -145.665198 
L 611.501847 -145.665198 
L 609.205068 -145.665198 
L 606.908288 -145.665198 
L 604.611508 -145.665198 
L 602.314729 -145.665198 
L 600.017949 -145.665198 
L 597.721169 -145.665198 
L 595.42439 -145.665198 
L 593.12761 -145.665198 
L 590.83083 -145.665198 
L 588.53405 -145.665198 
L 586.237271 -145.665198 
L 583.940491 -145.665198 
L 581.643711 -145.665198 
L 579.346932 -145.665198 
L 577.050152 -145.665198 
L 574.753372 -145.665198 
L 572.456593 -145.665198 
L 570.159813 -145.665198 
L 567.863033 -145.665198 
L 565.566253 -145.665198 
L 563.269474 -145.665198 
L 560.972694 -145.665198 
L 558.675914 -145.665198 
L 556.379135 -145.665198 
L 554.082355 -145.665198 
L 551.785575 -145.665198 
L 549.488796 -145.665198 
L 547.192016 -145.665198 
L 544.895236 -145.665198 
L 542.598456 -145.665198 
L 540.301677 -145.665198 
L 538.004897 -145.665198 
L 535.708117 -145.665198 
L 533.411338 -145.665198 
L 531.114558 -145.665198 
L 528.817778 -145.665198 
L 526.520999 -145.665198 
L 524.224219 -145.665198 
L 521.927439 -145.665198 
L 519.630659 -145.665198 
L 517.33388 -145.665198 
L 515.0371 -145.665198 
L 512.74032 -145.665198 
L 510.443541 -145.665198 
L 508.146761 -145.665198 
L 505.849981 -145.665198 
L 503.553202 -145.665198 
L 501.256422 -145.665198 
L 498.959642 -145.665198 
L 496.662862 -145.665198 
L 494.366083 -145.665198 
L 492.069303 -145.665198 
L 489.772523 -145.665198 
L 487.475744 -145.665198 
L 485.178964 -145.665198 
L 482.882184 -145.665198 
L 480.585405 -145.665198 
L 478.288625 -145.665198 
L 475.991845 -145.665198 
L 473.695065 -145.665198 
L 471.398286 -145.665198 
L 469.101506 -145.665198 
L 466.804726 -145.665198 
L 464.507947 -145.665198 
L 462.211167 -145.665198 
L 459.914387 -145.665198 
L 457.617608 -145.665198 
L 455.320828 -145.665198 
L 453.024048 -145.665198 
L 450.727268 -145.665198 
L 448.430489 -145.665198 
L 446.133709 -145.665198 
L 443.836929 -145.665198 
L 441.54015 -145.665198 
L 439.24337 -145.665198 
L 436.94659 -145.665198 
L 434.649811 -145.665198 
L 432.353031 -145.665198 
L 430.056251 -145.665198 
L 427.759471 -145.665198 
L 425.462692 -145.665198 
L 423.165912 -145.665198 
L 420.869132 -145.665198 
L 418.572353 -145.665198 
L 416.275573 -145.665198 
L 413.978793 -145.665198 
L 411.682014 -145.665198 
L 409.385234 -145.665198 
L 407.088454 -145.665198 
L 404.791674 -145.609517 
L 402.494895 -145.609517 
L 400.198115 -145.609517 
L 397.901335 -145.609517 
L 395.604556 -145.609517 
L 393.307776 -145.609517 
L 391.010996 -145.609517 
L 388.714217 -145.609517 
L 386.417437 -145.609517 
L 384.120657 -145.609517 
L 381.823877 -145.609517 
L 379.527098 -145.609517 
L 377.230318 -145.609517 
L 374.933538 -145.609517 
L 372.636759 -145.609517 
L 370.339979 -145.609517 
L 368.043199 -145.609517 
L 365.74642 -145.609517 
L 363.44964 -145.609517 
L 361.15286 -145.609517 
L 358.85608 -145.609517 
L 356.559301 -145.609517 
L 354.262521 -145.609517 
L 351.965741 -145.609517 
L 349.668962 -145.609517 
L 347.372182 -145.609517 
L 345.075402 -145.609517 
L 342.778623 -145.609517 
L 340.481843 -145.609517 
L 338.185063 -145.609517 
L 335.888283 -145.609517 
L 333.591504 -145.609517 
L 331.294724 -145.609517 
L 328.997944 -145.609517 
L 326.701165 -145.609517 
L 324.404385 -145.609517 
L 322.107605 -145.609517 
L 319.810826 -145.609517 
L 317.514046 -145.609517 
L 315.217266 -145.609517 
L 312.920486 -145.609517 
L 310.623707 -145.174773 
L 308.326927 -144.74003 
L 306.030147 -144.305286 
L 303.733368 -143.870543 
L 301.436588 -143.4358 
L 299.139808 -143.001056 
L 296.843029 -142.566313 
L 294.546249 -142.131569 
L 292.249469 -141.696826 
L 289.952689 -141.262083 
L 287.65591 -140.827339 
L 285.35913 -140.392596 
L 283.06235 -139.957852 
L 280.765571 -139.523109 
L 278.468791 -139.088366 
L 276.172011 -138.653622 
L 273.875232 -138.218879 
L 271.578452 -137.784135 
L 269.281672 -137.349392 
L 266.984892 -136.914649 
L 264.688113 -136.479905 
L 262.391333 -136.045162 
L 260.094553 -135.610418 
L 257.797774 -135.175675 
L 255.500994 -134.740932 
L 253.204214 -134.306188 
L 250.907435 -133.871445 
L 248.610655 -133.436701 
L 246.313875 -133.001958 
L 244.017095 -132.567215 
L 241.720316 -132.132471 
L 239.423536 -131.697728 
L 237.126756 -131.262984 
L 234.829977 -131.262984 
L 232.533197 -131.262984 
L 230.236417 -131.262984 
L 227.939638 -131.262984 
L 225.642858 -131.262984 
L 223.346078 -131.262984 
L 221.049298 -131.262984 
L 218.752519 -131.262984 
L 216.455739 -131.262984 
L 214.158959 -131.262984 
L 211.86218 -131.262984 
L 209.5654 -131.262984 
L 207.26862 -131.262984 
L 204.971841 -131.262984 
L 202.675061 -131.262984 
L 200.378281 -131.262984 
L 198.081501 -131.262984 
L 195.784722 -131.262984 
L 193.487942 -131.262984 
L 191.191162 -131.262984 
L 188.894383 -131.262984 
L 186.597603 -131.262984 
L 184.300823 -131.262984 
L 182.004044 -131.262984 
L 179.707264 -131.262984 
L 177.410484 -131.262984 
L 175.113704 -131.262984 
L 172.816925 -131.262984 
L 170.520145 -131.262984 
L 168.223365 -131.262984 
L 165.926586 -131.262984 
L 163.629806 -131.262984 
L 161.333026 -131.262984 
L 159.036247 -131.262984 
L 156.739467 -131.262984 
L 154.442687 -131.262984 
L 152.145907 -131.262984 
L 149.849128 -131.262984 
L 147.552348 -131.262984 
L 145.255568 -131.262984 
L 142.958789 -131.262984 
z
" style="stroke: #0000ff; stroke-opacity: 0.3"/>
    </defs>
    <g clip-path="url(#p1be21bd1d4)">
     <use xlink:href="#me7329605e7" x="0" y="432" style="fill: #0000ff; fill-opacity: 0.3; stroke: #0000ff; stroke-opacity: 0.3"/>
    </g>
   </g>
   <g id="PolyCollection_2">
    <defs>
     <path id="m17b864fa90" d="M 142.958789 -131.262984 
L 142.958789 -131.262984 
L 145.255568 -131.262984 
L 147.552348 -131.262984 
L 149.849128 -131.262984 
L 152.145907 -131.262984 
L 154.442687 -131.262984 
L 156.739467 -131.262984 
L 159.036247 -131.262984 
L 161.333026 -131.262984 
L 163.629806 -131.262984 
L 165.926586 -131.262984 
L 168.223365 -131.262984 
L 170.520145 -131.262984 
L 172.816925 -131.262984 
L 175.113704 -131.262984 
L 177.410484 -131.262984 
L 179.707264 -131.262984 
L 182.004044 -131.262984 
L 184.300823 -131.262984 
L 186.597603 -131.262984 
L 188.894383 -131.262984 
L 191.191162 -131.262984 
L 193.487942 -131.262984 
L 195.784722 -131.262984 
L 198.081501 -131.262984 
L 200.378281 -131.262984 
L 202.675061 -131.262984 
L 204.971841 -131.262984 
L 207.26862 -131.262984 
L 209.5654 -131.262984 
L 211.86218 -131.262984 
L 214.158959 -131.262984 
L 216.455739 -131.262984 
L 218.752519 -131.262984 
L 221.049298 -131.262984 
L 223.346078 -131.262984 
L 225.642858 -131.262984 
L 227.939638 -131.262984 
L 230.236417 -131.262984 
L 232.533197 -131.262984 
L 234.829977 -131.262984 
L 237.126756 -131.262984 
L 239.423536 -131.262984 
L 241.720316 -131.262984 
L 244.017095 -131.262984 
L 246.313875 -131.368471 
L 248.610655 -131.473957 
L 250.907435 -131.579444 
L 253.204214 -131.716644 
L 255.500994 -131.825902 
L 257.797774 -131.947629 
L 260.094553 -132.060759 
L 262.391333 -132.169377 
L 264.688113 -132.275349 
L 266.984892 -132.379641 
L 269.281672 -132.482803 
L 271.578452 -132.585169 
L 273.875232 -132.686952 
L 276.172011 -132.788297 
L 278.468791 -132.889304 
L 280.765571 -132.990045 
L 283.06235 -133.090573 
L 285.35913 -133.190927 
L 287.65591 -133.291138 
L 289.952689 -133.39123 
L 292.249469 -133.491221 
L 294.546249 -133.591127 
L 296.843029 -133.69096 
L 299.139808 -133.790729 
L 301.436588 -133.890443 
L 303.733368 -133.855712 
L 306.030147 -133.855712 
L 308.326927 -133.855712 
L 310.623707 -133.855712 
L 312.920486 -133.855712 
L 315.217266 -133.855712 
L 317.514046 -133.855712 
L 319.810826 -133.855712 
L 322.107605 -133.855712 
L 324.404385 -133.855712 
L 326.701165 -133.855712 
L 328.997944 -133.855712 
L 331.294724 -133.855712 
L 333.591504 -133.855712 
L 335.888283 -133.855712 
L 338.185063 -133.855712 
L 340.481843 -133.855712 
L 342.778623 -133.855712 
L 345.075402 -133.855712 
L 347.372182 -133.855712 
L 349.668962 -133.855712 
L 351.965741 -133.855712 
L 354.262521 -133.855712 
L 356.559301 -133.855712 
L 358.85608 -133.855712 
L 361.15286 -133.855712 
L 363.44964 -133.855712 
L 365.74642 -133.855712 
L 368.043199 -133.855712 
L 370.339979 -133.855712 
L 372.636759 -133.855712 
L 374.933538 -133.855712 
L 377.230318 -133.855712 
L 379.527098 -133.855712 
L 381.823877 -133.855712 
L 384.120657 -133.855712 
L 386.417437 -133.855712 
L 388.714217 -133.855712 
L 391.010996 -133.855712 
L 393.307776 -133.855712 
L 395.604556 -133.855712 
L 397.901335 -133.855712 
L 400.198115 -133.855712 
L 402.494895 -133.855712 
L 404.791674 -133.855712 
L 407.088454 -133.855712 
L 409.385234 -133.855712 
L 411.682014 -133.855712 
L 413.978793 -133.855712 
L 416.275573 -133.855712 
L 418.572353 -133.855712 
L 420.869132 -133.855712 
L 423.165912 -133.855712 
L 425.462692 -133.855712 
L 427.759471 -133.855712 
L 430.056251 -133.855712 
L 432.353031 -133.855712 
L 434.649811 -133.855712 
L 436.94659 -133.855712 
L 439.24337 -133.855712 
L 441.54015 -133.855712 
L 443.836929 -133.855712 
L 446.133709 -133.855712 
L 448.430489 -133.855712 
L 450.727268 -133.855712 
L 453.024048 -133.855712 
L 455.320828 -133.855712 
L 457.617608 -133.855712 
L 459.914387 -133.819215 
L 462.211167 -133.781056 
L 464.507947 -133.741335 
L 466.804726 -133.700143 
L 469.101506 -133.657565 
L 471.398286 -133.613681 
L 473.695065 -133.568563 
L 475.991845 -133.522282 
L 478.288625 -133.4749 
L 480.585405 -133.426476 
L 482.882184 -133.377068 
L 485.178964 -133.326726 
L 487.475744 -133.2755 
L 489.772523 -133.223434 
L 492.069303 -133.170571 
L 494.366083 -133.116951 
L 496.662862 -133.062611 
L 498.959642 -133.007586 
L 501.256422 -132.951909 
L 503.553202 -132.895611 
L 505.849981 -132.838721 
L 508.146761 -132.781267 
L 510.443541 -132.723273 
L 512.74032 -132.664765 
L 515.0371 -132.605764 
L 517.33388 -132.546293 
L 519.630659 -132.486373 
L 521.927439 -132.652363 
L 524.224219 -132.816756 
L 526.520999 -132.758081 
L 528.817778 -132.921773 
L 531.114558 -133.083975 
L 533.411338 -133.244737 
L 535.708117 -133.404106 
L 538.004897 -133.562129 
L 540.301677 -133.718851 
L 542.598456 -133.874313 
L 544.895236 -134.028556 
L 547.192016 -134.181621 
L 549.488796 -134.333545 
L 551.785575 -134.484365 
L 554.082355 -134.634116 
L 556.379135 -134.782832 
L 558.675914 -134.930546 
L 560.972694 -135.077288 
L 563.269474 -135.22309 
L 565.566253 -135.367981 
L 567.863033 -135.511988 
L 570.159813 -135.655139 
L 572.456593 -135.797459 
L 574.753372 -135.938975 
L 577.050152 -136.479204 
L 579.346932 -136.619939 
L 581.643711 -137.160169 
L 583.940491 -137.700398 
L 586.237271 -138.240628 
L 588.53405 -139.180354 
L 590.83083 -139.720583 
L 593.12761 -140.260813 
L 595.42439 -140.801043 
L 597.721169 -141.341273 
L 600.017949 -141.881503 
L 602.314729 -142.463325 
L 604.611508 -143.403027 
L 606.908288 -144.38432 
L 609.205068 -145.323182 
L 611.501847 -146.261201 
L 613.798627 -147.594374 
L 616.095407 -148.923836 
L 618.392187 -150.249336 
L 620.688966 -151.180631 
L 622.985746 -152.499671 
L 625.282526 -153.814026 
L 627.579305 -155.123367 
L 629.876085 -156.427332 
L 632.172865 -158.102231 
L 634.469644 -159.701089 
L 636.766424 -161.278585 
L 639.063204 -162.833416 
L 641.359984 -164.712282 
L 643.656763 -166.209785 
L 645.953543 -167.680245 
L 648.250323 -169.12249 
L 650.547102 -170.460891 
L 652.843882 -171.466789 
L 655.140662 -172.459852 
L 657.437441 -173.440748 
L 659.734221 -174.410124 
L 662.031001 -175.646021 
L 664.327781 -176.856418 
L 666.62456 -178.042387 
L 668.92134 -179.205046 
L 671.21812 -180.345537 
L 673.514899 -181.465013 
L 675.811679 -182.564618 
L 678.108459 -183.857965 
L 680.405238 -185.114721 
L 682.702018 -186.146569 
L 684.998798 -187.163462 
L 687.295578 -188.343141 
L 689.592357 -189.49376 
L 691.889137 -190.617307 
L 694.185917 -191.715694 
L 696.482696 -192.807612 
L 698.779476 -193.866488 
L 701.076256 -194.889894 
L 703.373035 -195.894441 
L 705.669815 -196.887493 
L 707.966595 -197.864864 
L 710.263375 -198.839653 
L 712.560154 -199.808294 
L 714.856934 -200.771357 
L 717.153714 -201.729344 
L 719.450493 -202.682703 
L 721.747273 -203.631831 
L 724.044053 -204.577084 
L 726.340832 -205.51878 
L 728.637612 -206.425828 
L 730.934392 -207.359294 
L 733.231172 -208.793813 
L 735.527951 -210.221027 
L 737.824731 -211.578083 
L 740.121511 -212.933314 
L 742.41829 -214.30026 
L 744.71507 -215.654534 
L 747.01185 -216.996772 
L 749.308629 -218.32758 
L 751.605409 -219.647532 
L 753.902189 -220.957176 
L 756.198969 -222.257028 
L 758.495748 -223.514036 
L 760.792528 -225.134725 
L 763.089308 -226.755415 
L 765.386087 -228.376104 
L 767.682867 -229.996794 
L 769.979647 -232.051259 
L 772.276426 -233.637446 
L 774.573206 -235.619935 
L 776.869986 -237.598329 
L 779.166766 -239.572457 
L 781.463545 -241.585448 
L 783.760325 -243.597364 
L 786.057105 -245.608172 
L 788.353884 -247.676521 
L 790.650664 -249.683727 
L 792.947444 -251.797851 
L 795.244223 -253.900038 
L 797.541003 -255.990169 
L 799.837783 -258.068136 
L 802.134563 -260.567899 
L 802.134563 -332.578734 
L 802.134563 -332.578734 
L 799.837783 -330.756658 
L 797.541003 -328.872939 
L 795.244223 -327.001385 
L 792.947444 -325.141886 
L 790.650664 -323.294325 
L 788.353884 -322.060152 
L 786.057105 -320.526969 
L 783.760325 -319.296398 
L 781.463545 -318.066935 
L 779.166766 -316.838546 
L 776.869986 -315.931449 
L 774.573206 -315.028617 
L 772.276426 -314.12988 
L 769.979647 -312.834841 
L 767.682867 -311.287774 
L 765.386087 -309.667084 
L 763.089308 -308.046395 
L 760.792528 -306.425705 
L 758.495748 -304.805016 
L 756.198969 -302.460491 
L 753.902189 -299.798658 
L 751.605409 -297.146616 
L 749.308629 -294.504883 
L 747.01185 -291.874005 
L 744.71507 -289.254558 
L 742.41829 -286.647146 
L 740.121511 -284.052407 
L 737.824731 -281.445952 
L 735.527951 -278.841323 
L 733.231172 -275.946698 
L 730.934392 -273.059378 
L 728.637612 -270.391312 
L 726.340832 -268.05698 
L 724.044053 -265.397144 
L 721.747273 -262.740865 
L 719.450493 -260.088461 
L 717.153714 -257.440287 
L 714.856934 -254.796742 
L 712.560154 -252.158273 
L 710.263375 -249.525382 
L 707.966595 -246.898638 
L 705.669815 -244.63463 
L 703.373035 -242.386303 
L 701.076256 -239.789318 
L 698.779476 -237.571345 
L 696.482696 -235.748995 
L 694.185917 -233.959687 
L 691.889137 -231.816695 
L 689.592357 -229.698863 
L 687.295578 -227.608103 
L 684.998798 -225.546403 
L 682.702018 -223.68207 
L 680.405238 -221.832692 
L 678.108459 -219.848069 
L 675.811679 -217.900037 
L 673.514899 -216.118417 
L 671.21812 -214.356666 
L 668.92134 -212.615932 
L 666.62456 -210.897364 
L 664.327781 -209.202108 
L 662.031001 -207.531279 
L 659.734221 -205.88595 
L 657.437441 -204.334254 
L 655.140662 -202.794077 
L 652.843882 -201.266068 
L 650.547102 -199.750893 
L 648.250323 -198.208068 
L 645.953543 -197.129241 
L 643.656763 -196.078628 
L 641.359984 -195.055058 
L 639.063204 -194.052698 
L 636.766424 -193.086457 
L 634.469644 -192.14288 
L 632.172865 -191.220666 
L 629.876085 -190.734645 
L 627.579305 -190.237845 
L 625.282526 -189.746419 
L 622.985746 -189.260008 
L 620.688966 -188.778282 
L 618.392187 -188.268964 
L 616.095407 -187.793698 
L 613.798627 -187.322393 
L 611.501847 -186.8548 
L 609.205068 -186.352207 
L 606.908288 -185.850455 
L 604.611508 -185.751289 
L 602.314729 -185.250378 
L 600.017949 -185.111894 
L 597.721169 -184.571664 
L 595.42439 -184.031434 
L 593.12761 -183.491204 
L 590.83083 -182.950974 
L 588.53405 -182.410745 
L 586.237271 -181.909857 
L 583.940491 -181.369627 
L 581.643711 -180.829397 
L 579.346932 -180.289167 
L 577.050152 -179.709595 
L 574.753372 -179.169365 
L 572.456593 -178.590574 
L 570.159813 -178.012588 
L 567.863033 -177.435433 
L 565.566253 -176.859133 
L 563.269474 -176.283717 
L 560.972694 -175.709213 
L 558.675914 -175.135649 
L 556.379135 -174.563056 
L 554.082355 -173.991466 
L 551.785575 -173.42091 
L 549.488796 -172.851424 
L 547.192016 -172.283041 
L 544.895236 -171.7158 
L 542.598456 -171.149737 
L 540.301677 -170.584892 
L 538.004897 -170.021307 
L 535.708117 -169.459024 
L 533.411338 -168.898087 
L 531.114558 -168.338543 
L 528.817778 -167.780438 
L 526.520999 -167.223823 
L 524.224219 -166.804995 
L 521.927439 -166.249081 
L 519.630659 -165.694766 
L 517.33388 -165.274692 
L 515.0371 -164.855068 
L 512.74032 -164.435914 
L 510.443541 -164.017252 
L 508.146761 -163.599105 
L 505.849981 -163.181497 
L 503.553202 -162.764454 
L 501.256422 -162.348003 
L 498.959642 -161.932173 
L 496.662862 -161.516995 
L 494.366083 -161.102502 
L 492.069303 -160.688729 
L 489.772523 -160.275713 
L 487.475744 -159.863493 
L 485.178964 -159.452113 
L 482.882184 -159.041619 
L 480.585405 -158.632057 
L 478.288625 -158.223481 
L 475.991845 -157.815945 
L 473.695065 -157.40951 
L 471.398286 -157.00424 
L 469.101506 -156.600202 
L 466.804726 -156.197471 
L 464.507947 -155.796126 
L 462.211167 -155.396251 
L 459.914387 -154.99794 
L 457.617608 -154.601289 
L 455.320828 -154.601289 
L 453.024048 -154.601289 
L 450.727268 -154.601289 
L 448.430489 -154.601289 
L 446.133709 -154.601289 
L 443.836929 -154.601289 
L 441.54015 -154.601289 
L 439.24337 -154.601289 
L 436.94659 -154.601289 
L 434.649811 -154.601289 
L 432.353031 -154.601289 
L 430.056251 -154.601289 
L 427.759471 -154.601289 
L 425.462692 -154.601289 
L 423.165912 -154.601289 
L 420.869132 -154.601289 
L 418.572353 -154.601289 
L 416.275573 -154.601289 
L 413.978793 -154.601289 
L 411.682014 -154.601289 
L 409.385234 -154.601289 
L 407.088454 -154.601289 
L 404.791674 -154.601289 
L 402.494895 -154.601289 
L 400.198115 -154.601289 
L 397.901335 -154.601289 
L 395.604556 -154.601289 
L 393.307776 -154.601289 
L 391.010996 -154.601289 
L 388.714217 -154.601289 
L 386.417437 -154.601289 
L 384.120657 -154.601289 
L 381.823877 -154.601289 
L 379.527098 -154.601289 
L 377.230318 -154.601289 
L 374.933538 -154.601289 
L 372.636759 -154.601289 
L 370.339979 -154.601289 
L 368.043199 -154.601289 
L 365.74642 -154.601289 
L 363.44964 -154.601289 
L 361.15286 -154.601289 
L 358.85608 -154.601289 
L 356.559301 -154.601289 
L 354.262521 -154.601289 
L 351.965741 -154.601289 
L 349.668962 -154.601289 
L 347.372182 -154.601289 
L 345.075402 -154.601289 
L 342.778623 -154.601289 
L 340.481843 -154.601289 
L 338.185063 -154.601289 
L 335.888283 -154.601289 
L 333.591504 -154.601289 
L 331.294724 -154.601289 
L 328.997944 -154.601289 
L 326.701165 -154.601289 
L 324.404385 -154.601289 
L 322.107605 -154.601289 
L 319.810826 -154.601289 
L 317.514046 -154.601289 
L 315.217266 -154.601289 
L 312.920486 -154.601289 
L 310.623707 -154.601289 
L 308.326927 -154.601289 
L 306.030147 -154.601289 
L 303.733368 -154.601289 
L 301.436588 -154.206405 
L 299.139808 -153.225659 
L 296.843029 -152.244969 
L 294.546249 -151.264342 
L 292.249469 -150.283788 
L 289.952689 -149.30332 
L 287.65591 -148.322952 
L 285.35913 -147.342703 
L 283.06235 -146.362598 
L 280.765571 -145.382666 
L 278.468791 -144.402947 
L 276.172011 -143.423494 
L 273.875232 -142.44438 
L 271.578452 -141.465703 
L 269.281672 -140.487609 
L 266.984892 -139.510311 
L 264.688113 -138.534144 
L 262.391333 -137.559657 
L 260.094553 -136.587815 
L 257.797774 -135.620485 
L 255.500994 -134.661752 
L 253.204214 -134.050704 
L 250.907435 -133.107444 
L 248.610655 -132.492624 
L 246.313875 -131.877804 
L 244.017095 -131.262984 
L 241.720316 -131.262984 
L 239.423536 -131.262984 
L 237.126756 -131.262984 
L 234.829977 -131.262984 
L 232.533197 -131.262984 
L 230.236417 -131.262984 
L 227.939638 -131.262984 
L 225.642858 -131.262984 
L 223.346078 -131.262984 
L 221.049298 -131.262984 
L 218.752519 -131.262984 
L 216.455739 -131.262984 
L 214.158959 -131.262984 
L 211.86218 -131.262984 
L 209.5654 -131.262984 
L 207.26862 -131.262984 
L 204.971841 -131.262984 
L 202.675061 -131.262984 
L 200.378281 -131.262984 
L 198.081501 -131.262984 
L 195.784722 -131.262984 
L 193.487942 -131.262984 
L 191.191162 -131.262984 
L 188.894383 -131.262984 
L 186.597603 -131.262984 
L 184.300823 -131.262984 
L 182.004044 -131.262984 
L 179.707264 -131.262984 
L 177.410484 -131.262984 
L 175.113704 -131.262984 
L 172.816925 -131.262984 
L 170.520145 -131.262984 
L 168.223365 -131.262984 
L 165.926586 -131.262984 
L 163.629806 -131.262984 
L 161.333026 -131.262984 
L 159.036247 -131.262984 
L 156.739467 -131.262984 
L 154.442687 -131.262984 
L 152.145907 -131.262984 
L 149.849128 -131.262984 
L 147.552348 -131.262984 
L 145.255568 -131.262984 
L 142.958789 -131.262984 
z
" style="stroke: #008000; stroke-opacity: 0.3"/>
    </defs>
    <g clip-path="url(#p1be21bd1d4)">
     <use xlink:href="#m17b864fa90" x="0" y="432" style="fill: #008000; fill-opacity: 0.3; stroke: #008000; stroke-opacity: 0.3"/>
    </g>
   </g>
   <g id="PolyCollection_3">
    <defs>
     <path id="m2e419c52ab" d="M 142.958789 -131.262984 
L 142.958789 -131.262984 
L 145.255568 -131.262984 
L 147.552348 -131.262984 
L 149.849128 -131.262984 
L 152.145907 -131.262984 
L 154.442687 -131.262984 
L 156.739467 -131.262984 
L 159.036247 -131.262984 
L 161.333026 -131.262984 
L 163.629806 -131.262984 
L 165.926586 -131.262984 
L 168.223365 -131.262984 
L 170.520145 -131.262984 
L 172.816925 -131.262984 
L 175.113704 -131.262984 
L 177.410484 -131.262984 
L 179.707264 -131.262984 
L 182.004044 -131.262984 
L 184.300823 -131.262984 
L 186.597603 -131.262984 
L 188.894383 -131.262984 
L 191.191162 -131.262984 
L 193.487942 -131.262984 
L 195.784722 -131.262984 
L 198.081501 -131.262984 
L 200.378281 -131.262984 
L 202.675061 -131.262984 
L 204.971841 -131.262984 
L 207.26862 -131.262984 
L 209.5654 -131.262984 
L 211.86218 -131.262984 
L 214.158959 -131.262984 
L 216.455739 -131.262984 
L 218.752519 -131.262984 
L 221.049298 -131.262984 
L 223.346078 -131.262984 
L 225.642858 -131.262984 
L 227.939638 -131.262984 
L 230.236417 -131.262984 
L 232.533197 -131.262984 
L 234.829977 -131.262984 
L 237.126756 -131.262984 
L 239.423536 -131.262984 
L 241.720316 -131.262984 
L 244.017095 -131.262984 
L 246.313875 -131.262984 
L 248.610655 -131.262984 
L 250.907435 -131.262984 
L 253.204214 -131.262984 
L 255.500994 -131.262984 
L 257.797774 -131.262984 
L 260.094553 -131.262984 
L 262.391333 -131.262984 
L 264.688113 -131.262984 
L 266.984892 -131.262984 
L 269.281672 -131.262984 
L 271.578452 -131.262984 
L 273.875232 -131.262984 
L 276.172011 -131.262984 
L 278.468791 -131.262984 
L 280.765571 -131.262984 
L 283.06235 -131.262984 
L 285.35913 -131.262984 
L 287.65591 -131.262984 
L 289.952689 -131.262984 
L 292.249469 -131.262984 
L 294.546249 -131.262984 
L 296.843029 -131.262984 
L 299.139808 -131.262984 
L 301.436588 -131.262984 
L 303.733368 -131.262984 
L 306.030147 -131.262984 
L 308.326927 -131.262984 
L 310.623707 -131.262984 
L 312.920486 -131.262984 
L 315.217266 -131.262984 
L 317.514046 -131.262984 
L 319.810826 -131.262984 
L 322.107605 -131.262984 
L 324.404385 -131.262984 
L 326.701165 -131.262984 
L 328.997944 -131.262984 
L 331.294724 -131.262984 
L 333.591504 -131.262984 
L 335.888283 -131.262984 
L 338.185063 -131.262984 
L 340.481843 -131.262984 
L 342.778623 -131.262984 
L 345.075402 -131.262984 
L 347.372182 -131.262984 
L 349.668962 -131.262984 
L 351.965741 -131.262984 
L 354.262521 -131.262984 
L 356.559301 -131.262984 
L 358.85608 -131.262984 
L 361.15286 -131.262984 
L 363.44964 -131.262984 
L 365.74642 -131.262984 
L 368.043199 -131.188394 
L 370.339979 -131.113804 
L 372.636759 -131.309506 
L 374.933538 -131.461252 
L 377.230318 -131.59353 
L 379.527098 -131.71618 
L 381.823877 -131.83351 
L 384.120657 -131.947629 
L 386.417437 -132.059673 
L 388.714217 -132.170304 
L 391.010996 -132.279931 
L 393.307776 -132.820161 
L 395.604556 -133.360391 
L 397.901335 -133.90062 
L 400.198115 -134.44085 
L 402.494895 -134.98108 
L 404.791674 -135.52131 
L 407.088454 -136.492142 
L 409.385234 -137.461971 
L 411.682014 -138.430387 
L 413.978793 -139.396728 
L 416.275573 -140.359858 
L 418.572353 -141.317668 
L 420.869132 -142.265849 
L 423.165912 -143.194562 
L 425.462692 -144.00473 
L 427.759471 -144.750899 
L 430.056251 -145.45943 
L 432.353031 -146.100879 
L 434.649811 -146.528984 
L 436.94659 -146.942545 
L 439.24337 -147.348628 
L 441.54015 -147.750399 
L 443.836929 -148.149469 
L 446.133709 -148.546739 
L 448.430489 -148.942752 
L 450.727268 -149.337853 
L 453.024048 -150.010082 
L 455.320828 -150.677904 
L 457.617608 -151.342127 
L 459.914387 -152.352757 
L 462.211167 -153.363056 
L 464.507947 -154.026275 
L 466.804726 -154.967336 
L 469.101506 -155.907259 
L 471.398286 -156.84623 
L 473.695065 -157.784397 
L 475.991845 -158.72188 
L 478.288625 -159.658774 
L 480.585405 -160.59516 
L 482.882184 -161.531103 
L 485.178964 -162.466658 
L 487.475744 -163.401872 
L 489.772523 -164.336783 
L 492.069303 -165.271425 
L 494.366083 -166.205828 
L 496.662862 -167.140015 
L 498.959642 -168.074008 
L 501.256422 -169.007826 
L 503.553202 -169.941485 
L 505.849981 -170.874999 
L 508.146761 -171.808382 
L 510.443541 -172.741645 
L 512.74032 -173.674797 
L 515.0371 -174.607848 
L 517.33388 -175.540806 
L 519.630659 -176.473677 
L 521.927439 -177.406469 
L 524.224219 -178.661534 
L 526.520999 -180.136385 
L 528.817778 -181.386228 
L 531.114558 -182.541043 
L 533.411338 -183.695851 
L 535.708117 -185.166556 
L 538.004897 -186.635078 
L 540.301677 -188.026708 
L 542.598456 -189.415843 
L 544.895236 -190.496302 
L 547.192016 -191.88289 
L 549.488796 -193.26688 
L 551.785575 -194.648221 
L 554.082355 -196.026861 
L 556.379135 -197.402749 
L 558.675914 -198.775832 
L 560.972694 -200.219727 
L 563.269474 -201.586748 
L 565.566253 -202.950765 
L 567.863033 -204.311724 
L 570.159813 -205.943801 
L 572.456593 -207.295275 
L 574.753372 -208.643486 
L 577.050152 -209.988383 
L 579.346932 -211.329918 
L 581.643711 -212.668043 
L 583.940491 -214.002711 
L 586.237271 -215.333877 
L 588.53405 -216.661498 
L 590.83083 -217.98553 
L 593.12761 -219.305933 
L 595.42439 -220.622668 
L 597.721169 -221.935697 
L 600.017949 -223.244986 
L 602.314729 -224.550502 
L 604.611508 -225.630962 
L 606.908288 -226.874955 
L 609.205068 -228.117404 
L 611.501847 -229.358361 
L 613.798627 -230.652959 
L 616.095407 -231.890208 
L 618.392187 -232.916464 
L 620.688966 -234.153247 
L 622.985746 -235.388733 
L 625.282526 -236.416142 
L 627.579305 -237.651226 
L 629.876085 -238.678902 
L 632.172865 -239.913606 
L 634.469644 -241.14713 
L 636.766424 -242.379514 
L 639.063204 -243.610793 
L 641.359984 -244.841004 
L 643.656763 -246.311301 
L 645.953543 -247.768424 
L 648.250323 -249.212341 
L 650.547102 -250.643044 
L 652.843882 -252.060554 
L 655.140662 -253.464917 
L 657.437441 -254.830452 
L 659.734221 -256.212645 
L 662.031001 -257.582087 
L 664.327781 -259.072411 
L 666.62456 -260.283277 
L 668.92134 -261.615359 
L 671.21812 -262.817084 
L 673.514899 -264.015813 
L 675.811679 -265.211572 
L 678.108459 -266.40439 
L 680.405238 -267.594296 
L 682.702018 -268.781319 
L 684.998798 -269.965489 
L 687.295578 -271.146839 
L 689.592357 -272.420745 
L 691.889137 -273.771032 
L 694.185917 -275.018213 
L 696.482696 -276.255189 
L 698.779476 -277.516694 
L 701.076256 -278.775283 
L 703.373035 -280.031095 
L 705.669815 -281.28426 
L 707.966595 -282.534902 
L 710.263375 -283.783138 
L 712.560154 -284.969255 
L 714.856934 -286.215118 
L 717.153714 -287.458815 
L 719.450493 -288.754145 
L 721.747273 -289.991894 
L 724.044053 -291.122293 
L 726.340832 -292.250857 
L 728.637612 -293.377613 
L 730.934392 -294.563701 
L 733.231172 -295.749787 
L 735.527951 -296.874918 
L 737.824731 -297.998327 
L 740.121511 -298.750129 
L 742.41829 -299.936367 
L 744.71507 -301.122599 
L 747.01185 -302.308827 
L 749.308629 -303.495049 
L 751.605409 -304.681266 
L 753.902189 -305.867479 
L 756.198969 -307.053687 
L 758.495748 -308.23989 
L 760.792528 -309.426089 
L 763.089308 -310.612284 
L 765.386087 -311.840961 
L 767.682867 -313.068313 
L 769.979647 -314.29439 
L 772.276426 -315.51924 
L 774.573206 -316.742909 
L 776.869986 -317.965439 
L 779.166766 -319.11358 
L 781.463545 -320.300652 
L 783.760325 -321.487707 
L 786.057105 -322.674745 
L 788.353884 -323.787523 
L 790.650664 -324.899027 
L 792.947444 -326.009276 
L 795.244223 -327.118285 
L 797.541003 -328.22607 
L 799.837783 -329.33265 
L 802.134563 -330.438038 
L 802.134563 -399.566821 
L 802.134563 -399.566821 
L 799.837783 -398.151137 
L 797.541003 -396.736644 
L 795.244223 -395.323357 
L 792.947444 -393.911294 
L 790.650664 -392.500469 
L 788.353884 -391.090901 
L 786.057105 -389.682606 
L 783.760325 -387.988418 
L 781.463545 -386.294248 
L 779.166766 -384.600094 
L 776.869986 -382.867009 
L 774.573206 -380.84816 
L 772.276426 -378.830449 
L 769.979647 -376.81392 
L 767.682867 -374.798619 
L 765.386087 -372.784592 
L 763.089308 -370.77189 
L 760.792528 -369.076859 
L 758.495748 -367.381832 
L 756.198969 -365.686809 
L 753.902189 -363.991792 
L 751.605409 -362.296778 
L 749.308629 -360.60177 
L 747.01185 -358.906766 
L 744.71507 -357.211768 
L 742.41829 -355.516774 
L 740.121511 -353.821786 
L 737.824731 -352.052516 
L 735.527951 -350.654852 
L 733.231172 -349.25891 
L 730.934392 -347.56377 
L 728.637612 -345.868633 
L 726.340832 -344.474317 
L 724.044053 -343.081808 
L 721.747273 -341.691134 
L 719.450493 -339.687504 
L 717.153714 -337.381301 
L 714.856934 -335.383619 
L 712.560154 -333.388103 
L 710.263375 -331.692994 
L 707.966595 -329.699852 
L 705.669815 -327.709115 
L 703.373035 -325.720901 
L 701.076256 -323.735333 
L 698.779476 -321.752543 
L 696.482696 -319.772669 
L 694.185917 -318.128419 
L 691.889137 -316.494375 
L 689.592357 -314.603283 
L 687.295578 -312.995963 
L 684.998798 -311.65624 
L 682.702018 -310.319338 
L 680.405238 -308.985288 
L 678.108459 -307.654121 
L 675.811679 -306.325867 
L 673.514899 -305.000554 
L 671.21812 -303.67821 
L 668.92134 -302.358862 
L 666.62456 -300.809718 
L 664.327781 -299.499511 
L 662.031001 -297.748457 
L 659.734221 -296.236673 
L 657.437441 -294.73764 
L 655.140662 -292.861796 
L 652.843882 -291.384933 
L 650.547102 -289.921217 
L 648.250323 -288.470695 
L 645.953543 -287.033386 
L 643.656763 -285.609283 
L 641.359984 -284.198354 
L 639.063204 -282.547339 
L 636.766424 -280.897392 
L 634.469644 -279.24855 
L 632.172865 -277.600849 
L 629.876085 -275.954326 
L 627.579305 -274.46093 
L 625.282526 -272.814789 
L 622.985746 -271.321125 
L 620.688966 -269.675385 
L 618.392187 -268.030942 
L 616.095407 -266.536125 
L 613.798627 -264.892149 
L 611.501847 -263.665674 
L 609.205068 -262.025405 
L 606.908288 -260.386628 
L 604.611508 -258.749396 
L 602.314729 -257.668936 
L 600.017949 -256.453379 
L 597.721169 -255.241596 
L 595.42439 -254.033553 
L 593.12761 -252.829215 
L 590.83083 -251.628545 
L 588.53405 -250.431505 
L 586.237271 -249.238053 
L 583.940491 -248.048146 
L 581.643711 -246.861742 
L 579.346932 -245.678794 
L 577.050152 -244.499257 
L 574.753372 -243.323081 
L 572.456593 -242.150219 
L 570.159813 -240.980621 
L 567.863033 -239.731472 
L 565.566253 -238.571358 
L 563.269474 -237.414302 
L 560.972694 -236.260251 
L 558.675914 -235.543226 
L 556.379135 -234.395237 
L 554.082355 -233.250052 
L 551.785575 -232.10762 
L 549.488796 -230.967888 
L 547.192016 -229.830806 
L 544.895236 -228.696321 
L 542.598456 -227.615861 
L 540.301677 -226.483923 
L 538.004897 -225.354481 
L 535.708117 -224.662083 
L 533.411338 -223.971869 
L 531.114558 -223.325911 
L 528.817778 -222.679959 
L 526.520999 -220.688423 
L 524.224219 -220.002355 
L 521.927439 -218.016041 
L 519.630659 -216.067607 
L 517.33388 -214.119252 
L 515.0371 -212.170984 
L 512.74032 -210.222809 
L 510.443541 -208.274736 
L 508.146761 -206.326773 
L 505.849981 -204.37893 
L 503.553202 -202.431219 
L 501.256422 -200.483652 
L 498.959642 -198.536244 
L 496.662862 -196.589011 
L 494.366083 -194.641972 
L 492.069303 -192.695149 
L 489.772523 -190.748565 
L 487.475744 -188.802251 
L 485.178964 -186.856239 
L 482.882184 -184.910568 
L 480.585405 -182.965285 
L 478.288625 -181.020445 
L 475.991845 -179.076114 
L 473.695065 -177.13237 
L 471.398286 -175.189312 
L 469.101506 -173.247057 
L 466.804726 -171.305754 
L 464.507947 -169.365589 
L 462.211167 -167.867889 
L 459.914387 -166.357115 
L 457.617608 -164.846673 
L 455.320828 -163.349976 
L 453.024048 -161.856879 
L 450.727268 -160.368189 
L 448.430489 -158.962523 
L 446.133709 -157.55777 
L 443.836929 -156.154274 
L 441.54015 -154.752578 
L 439.24337 -153.353583 
L 436.94659 -151.958899 
L 434.649811 -150.571694 
L 432.353031 -149.199034 
L 430.056251 -147.679563 
L 427.759471 -146.587328 
L 425.462692 -145.532731 
L 423.165912 -144.542132 
L 420.869132 -144.030232 
L 418.572353 -143.537801 
L 416.275573 -143.054998 
L 413.978793 -142.577515 
L 411.682014 -142.103243 
L 409.385234 -141.631046 
L 407.088454 -141.160262 
L 404.791674 -140.690481 
L 402.494895 -140.150251 
L 400.198115 -139.610022 
L 397.901335 -139.069792 
L 395.604556 -138.529562 
L 393.307776 -137.989332 
L 391.010996 -137.449102 
L 388.714217 -136.838423 
L 386.417437 -136.228748 
L 384.120657 -135.620485 
L 381.823877 -135.014297 
L 379.527098 -134.41132 
L 377.230318 -133.813664 
L 374.933538 -133.225636 
L 372.636759 -132.657076 
L 370.339979 -132.132471 
L 368.043199 -131.697728 
L 365.74642 -131.262984 
L 363.44964 -131.262984 
L 361.15286 -131.262984 
L 358.85608 -131.262984 
L 356.559301 -131.262984 
L 354.262521 -131.262984 
L 351.965741 -131.262984 
L 349.668962 -131.262984 
L 347.372182 -131.262984 
L 345.075402 -131.262984 
L 342.778623 -131.262984 
L 340.481843 -131.262984 
L 338.185063 -131.262984 
L 335.888283 -131.262984 
L 333.591504 -131.262984 
L 331.294724 -131.262984 
L 328.997944 -131.262984 
L 326.701165 -131.262984 
L 324.404385 -131.262984 
L 322.107605 -131.262984 
L 319.810826 -131.262984 
L 317.514046 -131.262984 
L 315.217266 -131.262984 
L 312.920486 -131.262984 
L 310.623707 -131.262984 
L 308.326927 -131.262984 
L 306.030147 -131.262984 
L 303.733368 -131.262984 
L 301.436588 -131.262984 
L 299.139808 -131.262984 
L 296.843029 -131.262984 
L 294.546249 -131.262984 
L 292.249469 -131.262984 
L 289.952689 -131.262984 
L 287.65591 -131.262984 
L 285.35913 -131.262984 
L 283.06235 -131.262984 
L 280.765571 -131.262984 
L 278.468791 -131.262984 
L 276.172011 -131.262984 
L 273.875232 -131.262984 
L 271.578452 -131.262984 
L 269.281672 -131.262984 
L 266.984892 -131.262984 
L 264.688113 -131.262984 
L 262.391333 -131.262984 
L 260.094553 -131.262984 
L 257.797774 -131.262984 
L 255.500994 -131.262984 
L 253.204214 -131.262984 
L 250.907435 -131.262984 
L 248.610655 -131.262984 
L 246.313875 -131.262984 
L 244.017095 -131.262984 
L 241.720316 -131.262984 
L 239.423536 -131.262984 
L 237.126756 -131.262984 
L 234.829977 -131.262984 
L 232.533197 -131.262984 
L 230.236417 -131.262984 
L 227.939638 -131.262984 
L 225.642858 -131.262984 
L 223.346078 -131.262984 
L 221.049298 -131.262984 
L 218.752519 -131.262984 
L 216.455739 -131.262984 
L 214.158959 -131.262984 
L 211.86218 -131.262984 
L 209.5654 -131.262984 
L 207.26862 -131.262984 
L 204.971841 -131.262984 
L 202.675061 -131.262984 
L 200.378281 -131.262984 
L 198.081501 -131.262984 
L 195.784722 -131.262984 
L 193.487942 -131.262984 
L 191.191162 -131.262984 
L 188.894383 -131.262984 
L 186.597603 -131.262984 
L 184.300823 -131.262984 
L 182.004044 -131.262984 
L 179.707264 -131.262984 
L 177.410484 -131.262984 
L 175.113704 -131.262984 
L 172.816925 -131.262984 
L 170.520145 -131.262984 
L 168.223365 -131.262984 
L 165.926586 -131.262984 
L 163.629806 -131.262984 
L 161.333026 -131.262984 
L 159.036247 -131.262984 
L 156.739467 -131.262984 
L 154.442687 -131.262984 
L 152.145907 -131.262984 
L 149.849128 -131.262984 
L 147.552348 -131.262984 
L 145.255568 -131.262984 
L 142.958789 -131.262984 
z
" style="stroke: #ff0000; stroke-opacity: 0.3"/>
    </defs>
    <g clip-path="url(#p1be21bd1d4)">
     <use xlink:href="#m2e419c52ab" x="0" y="432" style="fill: #ff0000; fill-opacity: 0.3; stroke: #ff0000; stroke-opacity: 0.3"/>
    </g>
   </g>
   <g id="PolyCollection_4">
    <defs>
     <path id="m59b71be7cb" d="M 142.958789 -131.262984 
L 142.958789 -131.262984 
L 145.255568 -131.262984 
L 147.552348 -131.262984 
L 149.849128 -131.262984 
L 152.145907 -131.262984 
L 154.442687 -131.262984 
L 156.739467 -131.262984 
L 159.036247 -131.262984 
L 161.333026 -131.262984 
L 163.629806 -131.262984 
L 165.926586 -131.262984 
L 168.223365 -131.262984 
L 170.520145 -131.262984 
L 172.816925 -131.262984 
L 175.113704 -131.262984 
L 177.410484 -131.262984 
L 179.707264 -131.262984 
L 182.004044 -131.262984 
L 184.300823 -131.262984 
L 186.597603 -131.262984 
L 188.894383 -131.262984 
L 191.191162 -131.262984 
L 193.487942 -131.262984 
L 195.784722 -131.262984 
L 198.081501 -131.262984 
L 200.378281 -131.262984 
L 202.675061 -131.262984 
L 204.971841 -131.262984 
L 207.26862 -131.262984 
L 209.5654 -131.262984 
L 211.86218 -131.262984 
L 214.158959 -131.262984 
L 216.455739 -131.262984 
L 218.752519 -131.262984 
L 221.049298 -131.262984 
L 223.346078 -131.262984 
L 225.642858 -131.262984 
L 227.939638 -131.262984 
L 230.236417 -131.262984 
L 232.533197 -131.262984 
L 234.829977 -131.262984 
L 237.126756 -131.262984 
L 239.423536 -131.262984 
L 241.720316 -131.262984 
L 244.017095 -131.262984 
L 246.313875 -131.262984 
L 248.610655 -131.262984 
L 250.907435 -131.262984 
L 253.204214 -131.262984 
L 255.500994 -131.262984 
L 257.797774 -131.262984 
L 260.094553 -131.262984 
L 262.391333 -131.262984 
L 264.688113 -131.262984 
L 266.984892 -131.262984 
L 269.281672 -131.262984 
L 271.578452 -131.262984 
L 273.875232 -131.262984 
L 276.172011 -131.262984 
L 278.468791 -131.262984 
L 280.765571 -131.262984 
L 283.06235 -131.262984 
L 285.35913 -131.262984 
L 287.65591 -131.262984 
L 289.952689 -131.262984 
L 292.249469 -131.262984 
L 294.546249 -131.188394 
L 296.843029 -131.188394 
L 299.139808 -131.113804 
L 301.436588 -131.039214 
L 303.733368 -130.964624 
L 306.030147 -130.890033 
L 308.326927 -130.815443 
L 310.623707 -130.740853 
L 312.920486 -130.666263 
L 315.217266 -130.591673 
L 317.514046 -130.517083 
L 319.810826 -130.442492 
L 322.107605 -130.367902 
L 324.404385 -130.293312 
L 326.701165 -130.144132 
L 328.997944 -130.069541 
L 331.294724 -129.994951 
L 333.591504 -129.920361 
L 335.888283 -129.845771 
L 338.185063 -129.771181 
L 340.481843 -129.696591 
L 342.778623 -129.622 
L 345.075402 -129.850577 
L 347.372182 -130.071055 
L 349.668962 -130.283997 
L 351.965741 -130.489941 
L 354.262521 -130.6894 
L 356.559301 -130.882853 
L 358.85608 -131.138167 
L 361.15286 -131.384168 
L 363.44964 -131.558433 
L 365.74642 -131.788225 
L 368.043199 -131.95173 
L 370.339979 -132.165801 
L 372.636759 -132.319791 
L 374.933538 -132.47062 
L 377.230318 -132.618563 
L 379.527098 -132.807544 
L 381.823877 -133.347773 
L 384.120657 -133.888003 
L 386.417437 -134.428233 
L 388.714217 -135.010048 
L 391.010996 -135.725761 
L 393.307776 -136.432306 
L 395.604556 -137.129735 
L 397.901335 -137.818137 
L 400.198115 -138.358367 
L 402.494895 -139.037861 
L 404.791674 -139.7086 
L 407.088454 -140.370761 
L 409.385234 -141.024549 
L 411.682014 -141.670189 
L 413.978793 -142.307923 
L 416.275573 -142.957502 
L 418.572353 -143.497732 
L 420.869132 -144.052518 
L 423.165912 -144.602672 
L 425.462692 -145.14848 
L 427.759471 -145.690213 
L 430.056251 -146.228122 
L 432.353031 -146.634046 
L 434.649811 -147.020143 
L 436.94659 -147.387422 
L 439.24337 -147.736935 
L 441.54015 -148.107581 
L 443.836929 -148.471234 
L 446.133709 -148.827888 
L 448.430489 -149.177548 
L 450.727268 -149.520241 
L 453.024048 -150.06047 
L 455.320828 -150.6007 
L 457.617608 -151.338468 
L 459.914387 -152.112341 
L 462.211167 -152.693939 
L 464.507947 -153.273698 
L 466.804726 -153.986468 
L 469.101506 -154.720973 
L 471.398286 -155.41435 
L 473.695065 -156.100158 
L 475.991845 -156.778489 
L 478.288625 -157.449454 
L 480.585405 -158.115499 
L 482.882184 -158.76008 
L 485.178964 -159.382385 
L 487.475744 -159.981742 
L 489.772523 -160.557654 
L 492.069303 -161.109813 
L 494.366083 -161.638114 
L 496.662862 -162.142661 
L 498.959642 -162.623764 
L 501.256422 -163.081919 
L 503.553202 -163.516295 
L 505.849981 -163.943428 
L 508.146761 -164.363138 
L 510.443541 -164.775262 
L 512.74032 -165.160562 
L 515.0371 -165.678717 
L 517.33388 -166.194097 
L 519.630659 -166.861374 
L 521.927439 -167.527497 
L 524.224219 -168.043742 
L 526.520999 -168.557549 
L 528.817778 -169.069074 
L 531.114558 -169.578461 
L 533.411338 -170.085842 
L 535.708117 -170.591342 
L 538.004897 -171.095074 
L 540.301677 -171.597145 
L 542.598456 -172.236538 
L 544.895236 -172.875929 
L 547.192016 -173.515318 
L 549.488796 -174.154706 
L 551.785575 -174.794092 
L 554.082355 -175.433476 
L 556.379135 -176.072859 
L 558.675914 -176.712241 
L 560.972694 -177.351621 
L 563.269474 -177.991001 
L 565.566253 -178.63038 
L 567.863033 -179.269758 
L 570.159813 -179.909135 
L 572.456593 -180.72477 
L 574.753372 -181.364243 
L 577.050152 -182.00371 
L 579.346932 -182.816166 
L 581.643711 -183.625497 
L 583.940491 -184.265347 
L 586.237271 -184.905175 
L 588.53405 -185.712151 
L 590.83083 -186.516514 
L 593.12761 -187.318435 
L 595.42439 -187.959141 
L 597.721169 -189.169761 
L 600.017949 -189.968693 
L 602.314729 -191.177727 
L 604.611508 -192.386264 
L 606.908288 -193.59432 
L 609.205068 -194.801909 
L 611.501847 -196.009046 
L 613.798627 -197.215743 
L 616.095407 -198.422014 
L 618.392187 -199.627871 
L 620.688966 -200.833326 
L 622.985746 -202.038391 
L 625.282526 -203.366934 
L 627.579305 -204.712386 
L 629.876085 -206.037 
L 632.172865 -207.360365 
L 634.469644 -208.682548 
L 636.766424 -210.003612 
L 639.063204 -211.323615 
L 641.359984 -212.642612 
L 643.656763 -213.960653 
L 645.953543 -215.277786 
L 648.250323 -216.594056 
L 650.547102 -218.33234 
L 652.843882 -219.224169 
L 655.140662 -220.543623 
L 657.437441 -222.284495 
L 659.734221 -224.023387 
L 662.031001 -225.760311 
L 664.327781 -227.49528 
L 666.62456 -229.229838 
L 668.92134 -230.850527 
L 671.21812 -232.696293 
L 673.514899 -234.539079 
L 675.811679 -236.378972 
L 678.108459 -238.111654 
L 680.405238 -239.844236 
L 682.702018 -241.57672 
L 684.998798 -243.309109 
L 687.295578 -245.041405 
L 689.592357 -246.77361 
L 691.889137 -248.505725 
L 694.185917 -250.237754 
L 696.482696 -251.969696 
L 698.779476 -254.130616 
L 701.076256 -256.180282 
L 703.373035 -257.800971 
L 705.669815 -259.95256 
L 707.966595 -262.103097 
L 710.263375 -264.252565 
L 712.560154 -266.40095 
L 714.856934 -268.548234 
L 717.153714 -270.694401 
L 719.450493 -272.85532 
L 721.747273 -275.000353 
L 724.044053 -277.144236 
L 726.340832 -279.305155 
L 728.637612 -281.466075 
L 730.934392 -283.60879 
L 733.231172 -285.318651 
L 735.527951 -287.026796 
L 737.824731 -288.733238 
L 740.121511 -290.437991 
L 742.41829 -292.141071 
L 744.71507 -293.842492 
L 747.01185 -295.542269 
L 749.308629 -297.240417 
L 751.605409 -298.93695 
L 753.902189 -300.631884 
L 756.198969 -302.325233 
L 758.495748 -304.450977 
L 760.792528 -306.575414 
L 763.089308 -309.132713 
L 765.386087 -311.68887 
L 767.682867 -314.243842 
L 769.979647 -316.797587 
L 772.276426 -319.350058 
L 774.573206 -321.901208 
L 776.869986 -324.450985 
L 779.166766 -326.999339 
L 781.463545 -329.546213 
L 783.760325 -332.09155 
L 786.057105 -334.635289 
L 788.353884 -337.177367 
L 790.650664 -339.717718 
L 792.947444 -342.31335 
L 795.244223 -344.908981 
L 797.541003 -347.504612 
L 799.837783 -349.665532 
L 802.134563 -352.261162 
L 802.134563 -407.276262 
L 802.134563 -407.276262 
L 799.837783 -405.189901 
L 797.541003 -403.028981 
L 795.244223 -400.94262 
L 792.947444 -398.85626 
L 790.650664 -396.7699 
L 788.353884 -394.988412 
L 786.057105 -393.208651 
L 783.760325 -391.430552 
L 781.463545 -389.65405 
L 779.166766 -387.879085 
L 776.869986 -386.1056 
L 774.573206 -384.333539 
L 772.276426 -382.56285 
L 769.979647 -380.793482 
L 767.682867 -379.025388 
L 765.386087 -377.258521 
L 763.089308 -375.492839 
L 760.792528 -373.728299 
L 758.495748 -371.891051 
L 756.198969 -370.05511 
L 753.902189 -368.146927 
L 751.605409 -366.240329 
L 749.308629 -364.33533 
L 747.01185 -362.431945 
L 744.71507 -360.530189 
L 742.41829 -358.630078 
L 740.121511 -356.731626 
L 737.824731 -354.834847 
L 735.527951 -352.939757 
L 733.231172 -351.046369 
L 730.934392 -349.154698 
L 728.637612 -347.335727 
L 726.340832 -345.174808 
L 724.044053 -343.013889 
L 721.747273 -341.196086 
L 719.450493 -339.379434 
L 717.153714 -337.218514 
L 714.856934 -335.402996 
L 712.560154 -333.588594 
L 710.263375 -331.775293 
L 707.966595 -329.963076 
L 705.669815 -328.151927 
L 703.373035 -326.341831 
L 701.076256 -324.721141 
L 698.779476 -323.169275 
L 696.482696 -321.008355 
L 694.185917 -318.778613 
L 691.889137 -316.548955 
L 689.592357 -314.319385 
L 687.295578 -312.089904 
L 684.998798 -309.860515 
L 682.702018 -307.631218 
L 680.405238 -305.402017 
L 678.108459 -303.172914 
L 675.811679 -300.94391 
L 673.514899 -298.461965 
L 671.21812 -295.982912 
L 668.92134 -293.506839 
L 666.62456 -291.886149 
L 664.327781 -289.659021 
L 662.031001 -287.792458 
L 659.734221 -285.92785 
L 657.437441 -284.06521 
L 655.140662 -282.204549 
L 652.843882 -280.282624 
L 650.547102 -277.933074 
L 648.250323 -275.709673 
L 645.953543 -273.42441 
L 643.656763 -271.140011 
L 641.359984 -268.85652 
L 639.063204 -266.573984 
L 636.766424 -264.292455 
L 634.469644 -262.011987 
L 632.172865 -259.732638 
L 629.876085 -257.454471 
L 627.579305 -255.177552 
L 625.282526 -253.281625 
L 622.985746 -251.008636 
L 620.688966 -249.332475 
L 618.392187 -247.656704 
L 616.095407 -245.981335 
L 613.798627 -244.30638 
L 611.501847 -242.631852 
L 609.205068 -240.957762 
L 606.908288 -239.284126 
L 604.611508 -237.610956 
L 602.314729 -235.938268 
L 600.017949 -234.266076 
L 597.721169 -232.543934 
L 595.42439 -230.873329 
L 593.12761 -229.353116 
L 590.83083 -227.633964 
L 588.53405 -225.917254 
L 586.237271 -224.203157 
L 583.940491 -222.682066 
L 581.643711 -221.160997 
L 579.346932 -219.449256 
L 577.050152 -217.740639 
L 574.753372 -216.219187 
L 572.456593 -214.69774 
L 570.159813 -212.992302 
L 567.863033 -211.47076 
L 565.566253 -209.949219 
L 563.269474 -208.427678 
L 560.972694 -206.906139 
L 558.675914 -205.3846 
L 556.379135 -203.863062 
L 554.082355 -202.341526 
L 551.785575 -200.819991 
L 549.488796 -199.298457 
L 547.192016 -197.776925 
L 544.895236 -196.255395 
L 542.598456 -194.733867 
L 540.301677 -193.212341 
L 538.004897 -192.273799 
L 535.708117 -191.336918 
L 533.411338 -190.401805 
L 531.114558 -189.468573 
L 528.817778 -188.537347 
L 526.520999 -187.608259 
L 524.224219 -186.681454 
L 521.927439 -185.757086 
L 519.630659 -184.622442 
L 517.33388 -183.488953 
L 515.0371 -182.56372 
L 512.74032 -181.641262 
L 510.443541 -180.946102 
L 508.146761 -180.63792 
L 505.849981 -180.337324 
L 503.553202 -180.04415 
L 501.256422 -179.758219 
L 498.959642 -179.135915 
L 496.662862 -178.536558 
L 494.366083 -177.960646 
L 492.069303 -177.408487 
L 489.772523 -176.880186 
L 487.475744 -176.375638 
L 485.178964 -175.894536 
L 482.882184 -175.436381 
L 480.585405 -175.000503 
L 478.288625 -174.586088 
L 475.991845 -173.81644 
L 473.695065 -173.054158 
L 471.398286 -172.299353 
L 469.101506 -171.552117 
L 466.804726 -171.206162 
L 464.507947 -170.47832 
L 462.211167 -170.337772 
L 459.914387 -170.199063 
L 457.617608 -169.892477 
L 455.320828 -169.189632 
L 453.024048 -168.649402 
L 450.727268 -168.109172 
L 448.430489 -167.731558 
L 446.133709 -167.360912 
L 443.836929 -166.997259 
L 441.54015 -166.640606 
L 439.24337 -166.290945 
L 436.94659 -165.559999 
L 434.649811 -164.846818 
L 432.353031 -164.152456 
L 430.056251 -163.47792 
L 427.759471 -162.575216 
L 425.462692 -161.676335 
L 423.165912 -160.781531 
L 420.869132 -159.891072 
L 418.572353 -159.005245 
L 416.275573 -158.465016 
L 413.978793 -157.313828 
L 411.682014 -156.510949 
L 409.385234 -155.715976 
L 407.088454 -154.929151 
L 404.791674 -154.1507 
L 402.494895 -153.380825 
L 400.198115 -152.619707 
L 397.901335 -152.079477 
L 395.604556 -151.327266 
L 393.307776 -150.584082 
L 391.010996 -149.850014 
L 388.714217 -149.125114 
L 386.417437 -148.986623 
L 384.120657 -148.446393 
L 381.823877 -147.906163 
L 379.527098 -147.365933 
L 377.230318 -147.194761 
L 374.933538 -146.622397 
L 372.636759 -146.05292 
L 370.339979 -145.486603 
L 368.043199 -145.340521 
L 365.74642 -144.783719 
L 363.44964 -144.653359 
L 361.15286 -144.107317 
L 358.85608 -143.993165 
L 356.559301 -143.888325 
L 354.262521 -143.361472 
L 351.965741 -142.840624 
L 349.668962 -142.326262 
L 347.372182 -141.818898 
L 345.075402 -141.319069 
L 342.778623 -140.827339 
L 340.481843 -140.392596 
L 338.185063 -139.957852 
L 335.888283 -139.523109 
L 333.591504 -139.088366 
L 331.294724 -138.653622 
L 328.997944 -138.218879 
L 326.701165 -137.784135 
L 324.404385 -136.914649 
L 322.107605 -136.479905 
L 319.810826 -136.045162 
L 317.514046 -135.610418 
L 315.217266 -135.175675 
L 312.920486 -134.740932 
L 310.623707 -134.306188 
L 308.326927 -133.871445 
L 306.030147 -133.436701 
L 303.733368 -133.001958 
L 301.436588 -132.567215 
L 299.139808 -132.132471 
L 296.843029 -131.697728 
L 294.546249 -131.697728 
L 292.249469 -131.262984 
L 289.952689 -131.262984 
L 287.65591 -131.262984 
L 285.35913 -131.262984 
L 283.06235 -131.262984 
L 280.765571 -131.262984 
L 278.468791 -131.262984 
L 276.172011 -131.262984 
L 273.875232 -131.262984 
L 271.578452 -131.262984 
L 269.281672 -131.262984 
L 266.984892 -131.262984 
L 264.688113 -131.262984 
L 262.391333 -131.262984 
L 260.094553 -131.262984 
L 257.797774 -131.262984 
L 255.500994 -131.262984 
L 253.204214 -131.262984 
L 250.907435 -131.262984 
L 248.610655 -131.262984 
L 246.313875 -131.262984 
L 244.017095 -131.262984 
L 241.720316 -131.262984 
L 239.423536 -131.262984 
L 237.126756 -131.262984 
L 234.829977 -131.262984 
L 232.533197 -131.262984 
L 230.236417 -131.262984 
L 227.939638 -131.262984 
L 225.642858 -131.262984 
L 223.346078 -131.262984 
L 221.049298 -131.262984 
L 218.752519 -131.262984 
L 216.455739 -131.262984 
L 214.158959 -131.262984 
L 211.86218 -131.262984 
L 209.5654 -131.262984 
L 207.26862 -131.262984 
L 204.971841 -131.262984 
L 202.675061 -131.262984 
L 200.378281 -131.262984 
L 198.081501 -131.262984 
L 195.784722 -131.262984 
L 193.487942 -131.262984 
L 191.191162 -131.262984 
L 188.894383 -131.262984 
L 186.597603 -131.262984 
L 184.300823 -131.262984 
L 182.004044 -131.262984 
L 179.707264 -131.262984 
L 177.410484 -131.262984 
L 175.113704 -131.262984 
L 172.816925 -131.262984 
L 170.520145 -131.262984 
L 168.223365 -131.262984 
L 165.926586 -131.262984 
L 163.629806 -131.262984 
L 161.333026 -131.262984 
L 159.036247 -131.262984 
L 156.739467 -131.262984 
L 154.442687 -131.262984 
L 152.145907 -131.262984 
L 149.849128 -131.262984 
L 147.552348 -131.262984 
L 145.255568 -131.262984 
L 142.958789 -131.262984 
z
" style="stroke: #ffa500; stroke-opacity: 0.3"/>
    </defs>
    <g clip-path="url(#p1be21bd1d4)">
     <use xlink:href="#m59b71be7cb" x="0" y="432" style="fill: #ffa500; fill-opacity: 0.3; stroke: #ffa500; stroke-opacity: 0.3"/>
    </g>
   </g>
   <g id="matplotlib.axis_1">
    <g id="xtick_1">
     <g id="line2d_1">
      <defs>
       <path id="me28ff42a01" d="M 0 0 
L 0 3.5 
" style="stroke: #000000; stroke-width: 0.8"/>
      </defs>
      <g>
       <use xlink:href="#me28ff42a01" x="142.958789" y="354.76" style="stroke: #000000; stroke-width: 0.8"/>
      </g>
     </g>
     <g id="text_1">
      <!-- 0 -->
      <g transform="translate(135.958789 381.01) scale(0.28 -0.28)">
       <defs>
        <path id="SimHei-30" d="M 225 2537 
Q 250 3200 412 3587 
Q 575 3975 875 4225 
Q 1175 4475 1612 4475 
Q 2050 4475 2375 4112 
Q 2700 3750 2800 3200 
Q 2900 2650 2862 1937 
Q 2825 1225 2612 775 
Q 2400 325 1975 150 
Q 1550 -25 1125 187 
Q 700 400 525 750 
Q 350 1100 275 1487 
Q 200 1875 225 2537 
z
M 750 2687 
Q 675 2000 800 1462 
Q 925 925 1212 700 
Q 1500 475 1800 612 
Q 2100 750 2237 1162 
Q 2375 1575 2375 2062 
Q 2375 2550 2337 2950 
Q 2300 3350 2112 3675 
Q 1925 4000 1612 4012 
Q 1300 4025 1062 3700 
Q 825 3375 750 2687 
z
" transform="scale(0.015625)"/>
       </defs>
       <use xlink:href="#SimHei-30"/>
      </g>
     </g>
    </g>
    <g id="xtick_2">
     <g id="line2d_2">
      <g>
       <use xlink:href="#me28ff42a01" x="257.797774" y="354.76" style="stroke: #000000; stroke-width: 0.8"/>
      </g>
     </g>
     <g id="text_2">
      <!-- 50 -->
      <g transform="translate(243.797774 381.01) scale(0.28 -0.28)">
       <defs>
        <path id="SimHei-35" d="M 550 1325 
Q 725 650 1150 575 
Q 1575 500 1837 662 
Q 2100 825 2212 1087 
Q 2325 1350 2312 1675 
Q 2300 2000 2137 2225 
Q 1975 2450 1725 2525 
Q 1475 2600 1162 2525 
Q 850 2450 650 2175 
L 225 2225 
Q 275 2375 700 4375 
L 2675 4375 
L 2675 3925 
L 1075 3925 
Q 950 3250 825 2850 
Q 1200 3025 1525 3012 
Q 1850 3000 2150 2862 
Q 2450 2725 2587 2487 
Q 2725 2250 2787 2012 
Q 2850 1775 2837 1500 
Q 2825 1225 2725 937 
Q 2625 650 2425 462 
Q 2225 275 1937 162 
Q 1650 50 1275 75 
Q 900 100 562 350 
Q 225 600 100 1200 
L 550 1325 
z
" transform="scale(0.015625)"/>
       </defs>
       <use xlink:href="#SimHei-35"/>
       <use xlink:href="#SimHei-30" x="50"/>
      </g>
     </g>
    </g>
    <g id="xtick_3">
     <g id="line2d_3">
      <g>
       <use xlink:href="#me28ff42a01" x="372.636759" y="354.76" style="stroke: #000000; stroke-width: 0.8"/>
      </g>
     </g>
     <g id="text_3">
      <!-- 100 -->
      <g transform="translate(351.636759 381.01) scale(0.28 -0.28)">
       <defs>
        <path id="SimHei-31" d="M 1400 3600 
Q 1075 3275 575 2975 
L 575 3450 
Q 1200 3875 1600 4450 
L 1900 4450 
L 1900 150 
L 1400 150 
L 1400 3600 
z
" transform="scale(0.015625)"/>
       </defs>
       <use xlink:href="#SimHei-31"/>
       <use xlink:href="#SimHei-30" x="50"/>
       <use xlink:href="#SimHei-30" x="100"/>
      </g>
     </g>
    </g>
    <g id="xtick_4">
     <g id="line2d_4">
      <g>
       <use xlink:href="#me28ff42a01" x="487.475744" y="354.76" style="stroke: #000000; stroke-width: 0.8"/>
      </g>
     </g>
     <g id="text_4">
      <!-- 150 -->
      <g transform="translate(466.475744 381.01) scale(0.28 -0.28)">
       <use xlink:href="#SimHei-31"/>
       <use xlink:href="#SimHei-35" x="50"/>
       <use xlink:href="#SimHei-30" x="100"/>
      </g>
     </g>
    </g>
    <g id="xtick_5">
     <g id="line2d_5">
      <g>
       <use xlink:href="#me28ff42a01" x="602.314729" y="354.76" style="stroke: #000000; stroke-width: 0.8"/>
      </g>
     </g>
     <g id="text_5">
      <!-- 200 -->
      <g transform="translate(581.314729 381.01) scale(0.28 -0.28)">
       <defs>
        <path id="SimHei-32" d="M 300 250 
Q 325 625 650 925 
Q 975 1225 1475 1862 
Q 1975 2500 2125 2850 
Q 2275 3200 2237 3450 
Q 2200 3700 2000 3862 
Q 1800 4025 1537 4000 
Q 1275 3975 1037 3800 
Q 800 3625 675 3275 
L 200 3350 
Q 400 3925 712 4187 
Q 1025 4450 1450 4475 
Q 1700 4500 1900 4462 
Q 2100 4425 2312 4287 
Q 2525 4150 2662 3875 
Q 2800 3600 2762 3212 
Q 2725 2825 2375 2287 
Q 2025 1750 1025 600 
L 2825 600 
L 2825 150 
L 300 150 
L 300 250 
z
" transform="scale(0.015625)"/>
       </defs>
       <use xlink:href="#SimHei-32"/>
       <use xlink:href="#SimHei-30" x="50"/>
       <use xlink:href="#SimHei-30" x="100"/>
      </g>
     </g>
    </g>
    <g id="xtick_6">
     <g id="line2d_6">
      <g>
       <use xlink:href="#me28ff42a01" x="717.153714" y="354.76" style="stroke: #000000; stroke-width: 0.8"/>
      </g>
     </g>
     <g id="text_6">
      <!-- 250 -->
      <g transform="translate(696.153714 381.01) scale(0.28 -0.28)">
       <use xlink:href="#SimHei-32"/>
       <use xlink:href="#SimHei-35" x="50"/>
       <use xlink:href="#SimHei-30" x="100"/>
      </g>
     </g>
    </g>
    <g id="xtick_7">
     <g id="line2d_7">
      <g>
       <use xlink:href="#me28ff42a01" x="831.992699" y="354.76" style="stroke: #000000; stroke-width: 0.8"/>
      </g>
     </g>
     <g id="text_7">
      <!-- 300 -->
      <g transform="translate(810.992699 381.01) scale(0.28 -0.28)">
       <defs>
        <path id="SimHei-33" d="M 250 1225 
L 700 1300 
Q 800 975 1025 762 
Q 1250 550 1587 562 
Q 1925 575 2125 837 
Q 2325 1100 2300 1437 
Q 2275 1775 2037 1962 
Q 1800 2150 1275 2225 
L 1275 2550 
Q 1800 2600 2037 2825 
Q 2275 3050 2250 3412 
Q 2225 3775 1925 3937 
Q 1625 4100 1287 3975 
Q 950 3850 750 3275 
L 300 3350 
Q 450 3800 712 4100 
Q 975 4400 1425 4450 
Q 1875 4500 2212 4337 
Q 2550 4175 2687 3837 
Q 2825 3500 2725 3100 
Q 2625 2700 2150 2400 
Q 2500 2250 2687 1950 
Q 2875 1650 2812 1162 
Q 2750 675 2375 375 
Q 2000 75 1525 87 
Q 1050 100 700 387 
Q 350 675 250 1225 
z
" transform="scale(0.015625)"/>
       </defs>
       <use xlink:href="#SimHei-33"/>
       <use xlink:href="#SimHei-30" x="50"/>
       <use xlink:href="#SimHei-30" x="100"/>
      </g>
     </g>
    </g>
    <g id="text_8">
     <!-- Time Steps -->
     <g transform="translate(372.546676 416.3225) scale(0.4 -0.4)">
      <defs>
       <path id="SimHei-54" d="M 2850 3925 
L 1850 3925 
L 1850 125 
L 1275 125 
L 1275 3925 
L 275 3925 
L 275 4400 
L 2850 4400 
L 2850 3925 
z
" transform="scale(0.015625)"/>
       <path id="SimHei-69" d="M 1800 3725 
L 1300 3725 
L 1300 4375 
L 1800 4375 
L 1800 3725 
z
M 1800 125 
L 1300 125 
L 1300 2925 
L 1800 2925 
L 1800 125 
z
" transform="scale(0.015625)"/>
       <path id="SimHei-6d" d="M 3050 125 
L 2550 125 
L 2550 2150 
Q 2550 2300 2500 2400 
Q 2450 2500 2300 2500 
Q 2125 2500 1975 2312 
Q 1825 2125 1825 1825 
L 1825 125 
L 1325 125 
L 1325 2150 
Q 1325 2300 1275 2400 
Q 1225 2500 1075 2500 
Q 900 2500 750 2312 
Q 600 2125 600 1825 
L 600 125 
L 100 125 
L 100 2925 
L 600 2925 
L 600 2550 
Q 725 2750 900 2862 
Q 1075 2975 1275 2975 
Q 1475 2975 1612 2862 
Q 1750 2750 1800 2550 
Q 1925 2750 2087 2862 
Q 2250 2975 2450 2975 
Q 2750 2975 2900 2812 
Q 3050 2650 3050 2350 
L 3050 125 
z
" transform="scale(0.015625)"/>
       <path id="SimHei-65" d="M 2850 1075 
Q 2800 625 2450 350 
Q 2100 75 1625 75 
Q 1025 75 637 462 
Q 250 850 250 1525 
Q 250 2200 637 2587 
Q 1025 2975 1625 2975 
Q 2150 2975 2487 2637 
Q 2825 2300 2825 1525 
L 800 1525 
Q 800 975 1037 750 
Q 1275 525 1625 525 
Q 1900 525 2075 662 
Q 2250 800 2300 1075 
L 2850 1075 
z
M 2250 1925 
Q 2200 2275 2025 2412 
Q 1850 2550 1575 2550 
Q 1325 2550 1125 2412 
Q 925 2275 825 1925 
L 2250 1925 
z
" transform="scale(0.015625)"/>
       <path id="SimHei-20" transform="scale(0.015625)"/>
       <path id="SimHei-53" d="M 2900 1325 
Q 2900 750 2537 412 
Q 2175 75 1550 75 
Q 925 75 575 425 
Q 225 775 225 1300 
L 225 1475 
L 800 1475 
L 800 1325 
Q 800 950 1025 750 
Q 1250 550 1550 550 
Q 1950 550 2137 762 
Q 2325 975 2325 1275 
Q 2325 1525 2100 1737 
Q 1875 1950 1450 2125 
Q 850 2350 587 2625 
Q 325 2900 325 3275 
Q 325 3800 687 4125 
Q 1050 4450 1550 4450 
Q 2200 4450 2487 4062 
Q 2775 3675 2775 3225 
L 2200 3225 
Q 2225 3500 2050 3725 
Q 1875 3950 1550 3950 
Q 1250 3950 1075 3787 
Q 900 3625 900 3350 
Q 900 3125 1037 2962 
Q 1175 2800 1750 2575 
Q 2300 2350 2600 2037 
Q 2900 1725 2900 1325 
z
" transform="scale(0.015625)"/>
       <path id="SimHei-74" d="M 2750 200 
Q 2625 150 2462 112 
Q 2300 75 2025 75 
Q 1575 75 1300 325 
Q 1025 575 1025 1025 
L 1025 2525 
L 175 2525 
L 175 2925 
L 1025 2925 
L 1025 3900 
L 1525 3900 
L 1525 2925 
L 2550 2925 
L 2550 2525 
L 1525 2525 
L 1525 1000 
Q 1525 800 1625 662 
Q 1725 525 2000 525 
Q 2275 525 2450 575 
Q 2625 625 2750 700 
L 2750 200 
z
" transform="scale(0.015625)"/>
       <path id="SimHei-70" d="M 2825 1525 
Q 2825 800 2475 425 
Q 2125 50 1625 50 
Q 1350 50 1150 162 
Q 950 275 800 500 
L 800 -800 
L 300 -800 
L 300 2925 
L 800 2925 
L 800 2550 
Q 950 2775 1150 2875 
Q 1350 2975 1625 2975 
Q 2125 2975 2475 2612 
Q 2825 2250 2825 1525 
z
M 2275 1525 
Q 2275 2000 2087 2262 
Q 1900 2525 1525 2525 
Q 1225 2525 1012 2262 
Q 800 2000 800 1525 
Q 800 1050 1012 775 
Q 1225 500 1525 500 
Q 1900 500 2087 775 
Q 2275 1050 2275 1525 
z
" transform="scale(0.015625)"/>
       <path id="SimHei-73" d="M 2750 900 
Q 2750 500 2437 287 
Q 2125 75 1650 75 
Q 1050 75 725 312 
Q 400 550 400 1000 
L 900 1000 
Q 900 700 1112 600 
Q 1325 500 1625 500 
Q 1925 500 2075 612 
Q 2225 725 2225 900 
Q 2225 1025 2100 1150 
Q 1975 1275 1475 1350 
Q 900 1425 687 1637 
Q 475 1850 475 2200 
Q 475 2500 762 2737 
Q 1050 2975 1600 2975 
Q 2100 2975 2387 2750 
Q 2675 2525 2675 2150 
L 2175 2150 
Q 2175 2375 2012 2462 
Q 1850 2550 1600 2550 
Q 1275 2550 1137 2437 
Q 1000 2325 1000 2175 
Q 1000 2000 1125 1900 
Q 1250 1800 1650 1750 
Q 2300 1650 2525 1437 
Q 2750 1225 2750 900 
z
" transform="scale(0.015625)"/>
      </defs>
      <use xlink:href="#SimHei-54"/>
      <use xlink:href="#SimHei-69" x="50"/>
      <use xlink:href="#SimHei-6d" x="100"/>
      <use xlink:href="#SimHei-65" x="150"/>
      <use xlink:href="#SimHei-20" x="200"/>
      <use xlink:href="#SimHei-53" x="250"/>
      <use xlink:href="#SimHei-74" x="300"/>
      <use xlink:href="#SimHei-65" x="350"/>
      <use xlink:href="#SimHei-70" x="400"/>
      <use xlink:href="#SimHei-73" x="450"/>
     </g>
    </g>
   </g>
   <g id="matplotlib.axis_2">
    <g id="ytick_1">
     <g id="line2d_8">
      <defs>
       <path id="me35702c606" d="M 0 0 
L -3.5 0 
" style="stroke: #000000; stroke-width: 0.8"/>
      </defs>
      <g>
       <use xlink:href="#me35702c606" x="110" y="354.76" style="stroke: #000000; stroke-width: 0.8"/>
      </g>
     </g>
     <g id="text_9">
      <!-- -100 -->
      <g transform="translate(47 364.385) scale(0.28 -0.28)">
       <defs>
        <path id="SimHei-2d" d="M 2975 2125 
L 125 2125 
L 125 2525 
L 2975 2525 
L 2975 2125 
z
" transform="scale(0.015625)"/>
       </defs>
       <use xlink:href="#SimHei-2d"/>
       <use xlink:href="#SimHei-31" x="50"/>
       <use xlink:href="#SimHei-30" x="100"/>
       <use xlink:href="#SimHei-30" x="150"/>
      </g>
     </g>
    </g>
    <g id="ytick_2">
     <g id="line2d_9">
      <g>
       <use xlink:href="#me35702c606" x="110" y="300.737016" style="stroke: #000000; stroke-width: 0.8"/>
      </g>
     </g>
     <g id="text_10">
      <!-- 0 -->
      <g transform="translate(89 310.362016) scale(0.28 -0.28)">
       <use xlink:href="#SimHei-30"/>
      </g>
     </g>
    </g>
    <g id="ytick_3">
     <g id="line2d_10">
      <g>
       <use xlink:href="#me35702c606" x="110" y="246.714031" style="stroke: #000000; stroke-width: 0.8"/>
      </g>
     </g>
     <g id="text_11">
      <!-- 100 -->
      <g transform="translate(61 256.339031) scale(0.28 -0.28)">
       <use xlink:href="#SimHei-31"/>
       <use xlink:href="#SimHei-30" x="50"/>
       <use xlink:href="#SimHei-30" x="100"/>
      </g>
     </g>
    </g>
    <g id="ytick_4">
     <g id="line2d_11">
      <g>
       <use xlink:href="#me35702c606" x="110" y="192.691047" style="stroke: #000000; stroke-width: 0.8"/>
      </g>
     </g>
     <g id="text_12">
      <!-- 200 -->
      <g transform="translate(61 202.316047) scale(0.28 -0.28)">
       <use xlink:href="#SimHei-32"/>
       <use xlink:href="#SimHei-30" x="50"/>
       <use xlink:href="#SimHei-30" x="100"/>
      </g>
     </g>
    </g>
    <g id="ytick_5">
     <g id="line2d_12">
      <g>
       <use xlink:href="#me35702c606" x="110" y="138.668063" style="stroke: #000000; stroke-width: 0.8"/>
      </g>
     </g>
     <g id="text_13">
      <!-- 300 -->
      <g transform="translate(61 148.293063) scale(0.28 -0.28)">
       <use xlink:href="#SimHei-33"/>
       <use xlink:href="#SimHei-30" x="50"/>
       <use xlink:href="#SimHei-30" x="100"/>
      </g>
     </g>
    </g>
    <g id="ytick_6">
     <g id="line2d_13">
      <g>
       <use xlink:href="#me35702c606" x="110" y="84.645078" style="stroke: #000000; stroke-width: 0.8"/>
      </g>
     </g>
     <g id="text_14">
      <!-- 400 -->
      <g transform="translate(61 94.270078) scale(0.28 -0.28)">
       <defs>
        <path id="SimHei-34" d="M 2000 1100 
L 75 1100 
L 75 1525 
L 2100 4450 
L 2475 4450 
L 2475 1525 
L 3075 1525 
L 3075 1100 
L 2475 1100 
L 2475 150 
L 2000 150 
L 2000 1100 
z
M 2000 1525 
L 2000 3500 
L 600 1525 
L 2000 1525 
z
" transform="scale(0.015625)"/>
       </defs>
       <use xlink:href="#SimHei-34"/>
       <use xlink:href="#SimHei-30" x="50"/>
       <use xlink:href="#SimHei-30" x="100"/>
      </g>
     </g>
    </g>
    <g id="ytick_7">
     <g id="line2d_14">
      <g>
       <use xlink:href="#me35702c606" x="110" y="30.622094" style="stroke: #000000; stroke-width: 0.8"/>
      </g>
     </g>
     <g id="text_15">
      <!-- 500 -->
      <g transform="translate(61 40.247094) scale(0.28 -0.28)">
       <use xlink:href="#SimHei-35"/>
       <use xlink:href="#SimHei-30" x="50"/>
       <use xlink:href="#SimHei-30" x="100"/>
      </g>
     </g>
    </g>
    <g id="text_16">
     <!-- $m_{vct}$ -->
     <g transform="translate(35.8 224.38) rotate(-90) scale(0.4 -0.4)">
      <defs>
       <path id="DejaVuSans-Oblique-6d" d="M 5747 2113 
L 5338 0 
L 4763 0 
L 5166 2094 
Q 5191 2228 5203 2325 
Q 5216 2422 5216 2491 
Q 5216 2772 5059 2928 
Q 4903 3084 4622 3084 
Q 4203 3084 3875 2770 
Q 3547 2456 3450 1953 
L 3066 0 
L 2491 0 
L 2900 2094 
Q 2925 2209 2937 2307 
Q 2950 2406 2950 2484 
Q 2950 2769 2794 2926 
Q 2638 3084 2363 3084 
Q 1938 3084 1609 2770 
Q 1281 2456 1184 1953 
L 800 0 
L 225 0 
L 909 3500 
L 1484 3500 
L 1375 2956 
Q 1609 3263 1923 3423 
Q 2238 3584 2597 3584 
Q 2978 3584 3223 3384 
Q 3469 3184 3519 2828 
Q 3781 3197 4126 3390 
Q 4472 3584 4856 3584 
Q 5306 3584 5551 3325 
Q 5797 3066 5797 2591 
Q 5797 2488 5784 2364 
Q 5772 2241 5747 2113 
z
" transform="scale(0.015625)"/>
       <path id="DejaVuSans-Oblique-76" d="M 459 3500 
L 1069 3500 
L 1581 525 
L 3256 3500 
L 3866 3500 
L 1875 0 
L 1100 0 
L 459 3500 
z
" transform="scale(0.015625)"/>
       <path id="DejaVuSans-Oblique-63" d="M 3431 3366 
L 3316 2797 
Q 3109 2947 2876 3022 
Q 2644 3097 2394 3097 
Q 2119 3097 1870 3000 
Q 1622 2903 1453 2725 
Q 1184 2453 1037 2087 
Q 891 1722 891 1331 
Q 891 859 1127 628 
Q 1363 397 1844 397 
Q 2081 397 2348 469 
Q 2616 541 2906 684 
L 2797 116 
Q 2547 13 2283 -39 
Q 2019 -91 1741 -91 
Q 1044 -91 669 257 
Q 294 606 294 1253 
Q 294 1797 489 2255 
Q 684 2713 1069 3078 
Q 1331 3328 1684 3456 
Q 2038 3584 2456 3584 
Q 2700 3584 2940 3529 
Q 3181 3475 3431 3366 
z
" transform="scale(0.015625)"/>
       <path id="DejaVuSans-Oblique-74" d="M 2706 3500 
L 2619 3053 
L 1472 3053 
L 1100 1153 
Q 1081 1047 1072 975 
Q 1063 903 1063 863 
Q 1063 663 1183 572 
Q 1303 481 1569 481 
L 2150 481 
L 2053 0 
L 1503 0 
Q 991 0 739 200 
Q 488 400 488 806 
Q 488 878 497 964 
Q 506 1050 525 1153 
L 897 3053 
L 409 3053 
L 500 3500 
L 978 3500 
L 1172 4494 
L 1747 4494 
L 1556 3500 
L 2706 3500 
z
" transform="scale(0.015625)"/>
      </defs>
      <use xlink:href="#DejaVuSans-Oblique-6d"/>
      <use xlink:href="#DejaVuSans-Oblique-76" transform="translate(97.412109 -16.40625) scale(0.7)"/>
      <use xlink:href="#DejaVuSans-Oblique-63" transform="translate(138.837891 -16.40625) scale(0.7)"/>
      <use xlink:href="#DejaVuSans-Oblique-74" transform="translate(177.324219 -16.40625) scale(0.7)"/>
     </g>
    </g>
   </g>
   <g id="line2d_15">
    <path d="M 142.958789 300.737016 
L 237.126756 300.737016 
L 312.920486 294.794487 
L 404.791674 294.794487 
L 407.088454 294.614411 
L 714.856934 294.614411 
L 717.153714 294.434334 
L 726.340832 294.434334 
L 730.934392 294.074181 
L 802.134563 294.074181 
L 802.134563 294.074181 
" clip-path="url(#p1be21bd1d4)" style="fill: none; stroke: #0000ff; stroke-width: 3; stroke-linecap: square"/>
   </g>
   <g id="line2d_16">
    <path d="M 142.958789 300.737016 
L 244.017095 300.737016 
L 250.907435 299.656556 
L 253.204214 299.116326 
L 255.500994 298.756173 
L 301.436588 287.951576 
L 303.733368 287.771499 
L 457.617608 287.771499 
L 519.630659 282.909431 
L 524.224219 282.189124 
L 526.520999 282.009048 
L 574.753372 274.44583 
L 577.050152 273.9056 
L 579.346932 273.545447 
L 586.237271 271.924757 
L 588.53405 271.204451 
L 600.017949 268.503302 
L 602.314729 268.143148 
L 604.611508 267.422842 
L 606.908288 266.882612 
L 611.501847 265.441999 
L 618.392187 262.74085 
L 620.688966 262.020544 
L 629.876085 258.419011 
L 632.172865 257.338552 
L 639.063204 253.556943 
L 641.359984 252.11633 
L 648.250323 248.334721 
L 650.547102 246.894108 
L 659.734221 241.851963 
L 675.811679 231.767672 
L 680.405238 228.526293 
L 684.998798 225.645067 
L 694.185917 219.162309 
L 698.779476 216.281084 
L 701.076256 214.660394 
L 703.373035 212.859628 
L 707.966595 209.618249 
L 726.340832 195.21212 
L 728.637612 193.59143 
L 730.934392 191.790664 
L 735.527951 187.468825 
L 756.198969 169.64124 
L 758.495748 167.840474 
L 767.682867 161.357716 
L 769.979647 159.55695 
L 779.166766 153.794498 
L 786.057105 148.93243 
L 788.353884 147.131664 
L 790.650664 145.510974 
L 799.837783 137.587603 
L 802.134563 135.426684 
L 802.134563 135.426684 
" clip-path="url(#p1be21bd1d4)" style="fill: none; stroke: #008000; stroke-width: 3; stroke-linecap: square"/>
   </g>
   <g id="line2d_17">
    <path d="M 142.958789 300.737016 
L 365.74642 300.737016 
L 370.339979 300.376862 
L 391.010996 297.135483 
L 404.791674 293.894104 
L 423.165912 288.131653 
L 430.056251 285.430503 
L 432.353031 284.350044 
L 450.727268 277.146979 
L 457.617608 273.9056 
L 462.211167 271.384528 
L 464.507947 270.304068 
L 521.927439 234.288745 
L 524.224219 232.668055 
L 526.520999 231.587596 
L 528.817778 229.966906 
L 533.411338 228.16614 
L 538.004897 226.005221 
L 542.598456 223.484148 
L 544.895236 222.403688 
L 558.675914 214.840471 
L 560.972694 213.760011 
L 567.863033 209.978402 
L 570.159813 208.537789 
L 602.314729 190.890281 
L 604.611508 189.809821 
L 611.501847 185.487982 
L 613.798627 184.227446 
L 616.095407 182.786833 
L 618.392187 181.526297 
L 622.985746 178.645071 
L 625.282526 177.384535 
L 627.579305 175.943922 
L 629.876085 174.683386 
L 655.140662 158.836644 
L 657.437441 157.215954 
L 662.031001 154.334728 
L 664.327781 152.714039 
L 666.62456 151.453502 
L 668.92134 150.012889 
L 687.295578 139.928599 
L 689.592357 138.487986 
L 691.889137 136.867297 
L 696.482696 133.986071 
L 710.263375 124.261934 
L 712.560154 122.821321 
L 717.153714 119.579942 
L 719.450493 117.779175 
L 721.747273 116.158486 
L 728.637612 112.376877 
L 733.231172 109.495651 
L 740.121511 105.714042 
L 763.089308 91.307913 
L 776.869986 81.583776 
L 786.057105 75.821324 
L 802.134563 66.99757 
L 802.134563 66.99757 
" clip-path="url(#p1be21bd1d4)" style="fill: none; stroke: #ff0000; stroke-width: 3; stroke-linecap: square"/>
   </g>
   <g id="line2d_18">
    <path d="M 142.958789 300.737016 
L 292.249469 300.737016 
L 294.546249 300.556939 
L 296.843029 300.556939 
L 324.404385 298.39602 
L 326.701165 298.035866 
L 342.778623 296.77533 
L 356.559301 294.614411 
L 361.15286 294.254258 
L 363.44964 293.894104 
L 365.74642 293.714028 
L 368.043199 293.353874 
L 370.339979 293.173798 
L 377.230318 292.093338 
L 379.527098 291.913262 
L 386.417437 290.292572 
L 388.714217 289.932419 
L 397.901335 287.051193 
L 400.198115 286.510963 
L 413.978793 282.189124 
L 416.275573 281.288741 
L 418.572353 280.748511 
L 430.056251 277.146979 
L 439.24337 274.98606 
L 450.727268 273.185294 
L 455.320828 272.104834 
L 457.617608 271.384528 
L 459.914387 270.844298 
L 464.507947 270.123991 
L 466.804726 269.403685 
L 469.101506 268.863455 
L 478.288625 265.982229 
L 501.256422 260.579931 
L 510.443541 259.139318 
L 512.74032 258.599088 
L 517.33388 257.158475 
L 521.927439 255.357709 
L 540.301677 249.595257 
L 570.159813 235.549281 
L 572.456593 234.288745 
L 577.050152 232.127826 
L 581.643711 229.606753 
L 586.237271 227.445834 
L 593.12761 223.664225 
L 595.42439 222.583765 
L 597.721169 221.143152 
L 600.017949 219.882616 
L 622.985746 205.476487 
L 625.282526 203.675721 
L 627.579305 202.055031 
L 648.250323 185.848136 
L 650.547102 183.867293 
L 655.140662 180.625914 
L 664.327781 173.422849 
L 666.62456 171.442007 
L 668.92134 169.821317 
L 675.811679 163.338559 
L 696.482696 145.510974 
L 698.779476 143.350055 
L 701.076256 141.549289 
L 703.373035 139.928599 
L 717.153714 128.043543 
L 719.450493 125.882623 
L 724.044053 121.920938 
L 728.637612 117.599099 
L 730.934392 115.618256 
L 756.198969 95.809829 
L 760.792528 91.848143 
L 790.650664 63.756191 
L 797.541003 56.733203 
L 799.837783 54.572284 
L 802.134563 52.231288 
L 802.134563 52.231288 
" clip-path="url(#p1be21bd1d4)" style="fill: none; stroke: #ffa500; stroke-width: 3; stroke-linecap: square"/>
   </g>
   <g id="patch_3">
    <path d="M 110 354.76 
L 110 10.8 
" style="fill: none; stroke: #000000; stroke-width: 0.8; stroke-linejoin: miter; stroke-linecap: square"/>
   </g>
   <g id="patch_4">
    <path d="M 835.093351 354.76 
L 835.093351 10.8 
" style="fill: none; stroke: #000000; stroke-width: 0.8; stroke-linejoin: miter; stroke-linecap: square"/>
   </g>
   <g id="patch_5">
    <path d="M 110 354.76 
L 835.093351 354.76 
" style="fill: none; stroke: #000000; stroke-width: 0.8; stroke-linejoin: miter; stroke-linecap: square"/>
   </g>
   <g id="patch_6">
    <path d="M 110 10.8 
L 835.093351 10.8 
" style="fill: none; stroke: #000000; stroke-width: 0.8; stroke-linejoin: miter; stroke-linecap: square"/>
   </g>
  </g>
 </g>
 <defs>
  <clipPath id="p1be21bd1d4">
   <rect x="110" y="10.8" width="725.093351" height="343.96"/>
  </clipPath>
 </defs>
</svg>
